M48
; DRILL file {KiCad (5.1.6)-1} date 01/22/23 16:10:41
; FORMAT={-:-/ absolute / metric / decimal}
; #@! TF.CreationDate,2023-01-22T16:10:41+01:00
; #@! TF.GenerationSoftware,Kicad,Pcbnew,(5.1.6)-1
; #@! TF.FileFunction,Plated,1,2,PTH
FMAT,2
METRIC
T1C0.400
T2C0.700
T3C1.000
T4C1.100
T5C1.200
T6C3.200
T7C3.400
%
G90
G05
T1
X73.025Y-91.44
X52.705Y-91.44
X67.31Y-123.444
X37.846Y-128.27
X64.77Y-120.015
X59.055Y-120.65
X83.185Y-91.44
X62.865Y-91.44
X73.914Y-128.778
X83.312Y-105.41
X80.772Y-105.41
X135.382Y-96.52
X52.832Y-105.41
X55.372Y-105.41
X81.534Y-109.22
X76.454Y-123.19
X50.292Y-105.41
X58.166Y-105.41
X70.612Y-105.41
X81.026Y-119.888
X52.324Y-130.302
X93.345Y-91.44
X73.152Y-105.41
X103.505Y-91.44
X60.325Y-127.0
X75.692Y-105.41
X43.434Y-116.84
X48.514Y-109.22
X113.665Y-91.44
X42.545Y-91.44
X61.214Y-130.302
X133.985Y-91.44
X76.454Y-111.76
X78.232Y-105.41
X42.672Y-114.3
X101.346Y-100.076
X47.752Y-105.41
X70.612Y-120.65
X123.825Y-91.44
X60.325Y-109.22
X43.434Y-130.302
T2
X76.454Y-80.01
X78.994Y-80.01
X66.294Y-80.01
X68.834Y-80.01
X106.934Y-80.01
X109.474Y-80.01
X45.974Y-80.01
X48.514Y-80.01
X35.814Y-80.01
X38.354Y-80.01
X127.254Y-80.01
X129.794Y-80.01
X117.094Y-80.01
X119.634Y-80.01
X86.614Y-80.01
X89.154Y-80.01
X96.774Y-80.01
X99.314Y-80.01
X56.134Y-80.01
X58.674Y-80.01
T3
X80.899Y-113.03
X83.439Y-113.03
X85.979Y-113.03
X88.519Y-113.03
X91.059Y-113.03
X93.599Y-113.03
X96.139Y-113.03
X98.679Y-113.03
X101.219Y-113.03
X103.759Y-113.03
X106.299Y-113.03
X108.839Y-113.03
X111.379Y-113.03
X113.919Y-113.03
X116.459Y-113.03
X118.999Y-113.03
X121.539Y-113.03
X124.079Y-113.03
X126.619Y-113.03
X129.159Y-113.03
T4
X77.724Y-86.36
X77.724Y-88.9
X77.724Y-91.44
X77.724Y-93.98
X77.724Y-96.52
X47.244Y-86.36
X47.244Y-88.9
X47.244Y-91.44
X47.244Y-93.98
X47.244Y-96.52
X67.564Y-86.36
X67.564Y-88.9
X67.564Y-91.44
X67.564Y-93.98
X67.564Y-96.52
X37.084Y-86.36
X37.084Y-88.9
X37.084Y-91.44
X37.084Y-93.98
X37.084Y-96.52
X87.884Y-86.36
X87.884Y-88.9
X87.884Y-91.44
X87.884Y-93.98
X87.884Y-96.52
X98.044Y-86.36
X98.044Y-88.9
X98.044Y-91.44
X98.044Y-93.98
X98.044Y-96.52
X118.364Y-86.36
X118.364Y-88.9
X118.364Y-91.44
X118.364Y-93.98
X118.364Y-96.52
X128.524Y-86.36
X128.524Y-88.9
X128.524Y-91.44
X128.524Y-93.98
X128.524Y-96.52
X108.204Y-86.36
X108.204Y-88.9
X108.204Y-91.44
X108.204Y-93.98
X108.204Y-96.52
X57.404Y-86.36
X57.404Y-88.9
X57.404Y-91.44
X57.404Y-93.98
X57.404Y-96.52
T5
X43.804Y-103.35
X46.344Y-103.35
X48.884Y-103.35
X51.424Y-103.35
X53.964Y-103.35
X56.504Y-103.35
X59.044Y-103.35
X61.584Y-103.35
X64.124Y-103.35
X66.664Y-103.35
X69.204Y-103.35
X71.744Y-103.35
X74.284Y-103.35
X76.824Y-103.35
X79.364Y-103.35
X81.904Y-103.35
T6
X136.525Y-80.01
X29.21Y-80.01
X136.525Y-157.48
X29.21Y-157.48
T7
X36.304Y-103.31
X36.304Y-158.31
X129.304Y-103.31
X129.304Y-158.31
T0
M30
