<?xml version="1.0" standalone="no"?>
 <!DOCTYPE svg PUBLIC "-//W3C//DTD SVG 1.1//EN" 
 "http://www.w3.org/Graphics/SVG/1.1/DTD/svg11.dtd"> 
<svg
  xmlns:svg="http://www.w3.org/2000/svg"
  xmlns="http://www.w3.org/2000/svg"
  xmlns:xlink="http://www.w3.org/1999/xlink"
  version="1.1"
  width="29.700220cm" height="21.000720cm" viewBox="0 0 116930 82680">
<title>SVG Picture created as signalization-by-fireplace-Eco1_User.svg date 2022/04/02 10:43:00 </title>
  <desc>Picture generated by PCBNEW </desc>
<g style="fill:#000000; fill-opacity:1;stroke:#000000; stroke-opacity:1;
stroke-linecap:round; stroke-linejoin:round;"
 transform="translate(0 0) scale(1 1)">
</g>
<g style="fill:#000000; fill-opacity:0.0; 
stroke:#000000; stroke-width:-0.000393701; stroke-opacity:1; 
stroke-linecap:round; stroke-linejoin:round;">
</g>
<g style="fill:#000000; fill-opacity:0.0; 
stroke:#000000; stroke-width:59.0551; stroke-opacity:1; 
stroke-linecap:round; stroke-linejoin:round;">
<circle cx="79925" cy="22759.1" r="669.291" /> 
<circle cx="109416" cy="45200" r="669.291" /> 
<circle cx="50403.5" cy="45200" r="669.291" /> 
<path d="M99014 46220
L98591 46220
" />
<path d="M98591 46220
L98591 46645
" />
<path d="M98590 31401
L99014 31401
" />
<path d="M98590 30976
L98590 31401
" />
<path d="M61210 46220
L60785 46220
" />
<path d="M61210 46645
L61210 46220
" />
<path d="M61211 31401
L61211 30976
" />
<path d="M60785 31401
L61211 31401
" />
<circle cx="109416" cy="45200" r="748.031" /> 
<circle cx="79925" cy="22759.1" r="748.031" /> 
<circle cx="50403.5" cy="45200" r="748.031" /> 
<path d="M78389 21223
L81460 21223
" />
<path d="M81460 24294
L81460 21223
" />
<path d="M78389 24294
L78389 21223
" />
<path d="M78389 24294
L81460 24294
" />
<path d="M110950 43664
L110950 46735
" />
<path d="M107880 46735
L110950 46735
" />
<path d="M107880 43664
L110950 43664
" />
<path d="M107880 43664
L107880 46735
" />
<path d="M48898 43664
L51969 43664
" />
<path d="M48898 46735
L48898 43664
" />
<path d="M51969 46735
L48898 46735
" />
<path d="M51969 43664
L51969 46735
" />
<path d="M52875 65200
L106975 65200
" />
<path d="M106975 25200
L106975 65200
" />
<path d="M52875 25200
L106975 25200
" />
<path d="M52875 65200
L52875 25200
" />
<circle cx="58275" cy="38800" r="984.252" /> 
<circle cx="71282.7" cy="53100" r="1909.45" /> 
<circle cx="79891.3" cy="53100" r="1909.45" /> 
<circle cx="88500" cy="53100" r="1909.45" /> 
<circle cx="104075" cy="28375.4" r="1968.5" /> 
<circle cx="98606.5" cy="53268.5" r="1968.5" /> 
<circle cx="104075" cy="62000" r="1968.5" /> 
<circle cx="84430.3" cy="62000" r="1535.43" /> 
<circle cx="77700" cy="62000" r="1535.43" /> 
<circle cx="55775" cy="62021.2" r="1968.5" /> 
<circle cx="55775" cy="28375.4" r="1968.5" /> 
<path d="M99014 46220
L99014 31401
" />
<path d="M61210 46645
L98591 46645
" />
<path d="M60785 31401
L60785 46220
" />
<path d="M61211 30976
L98590 30976
" />
<path d="M99200 27000
L60600 27000
" />
<path d="M60600 50622
L99200 50622
" />
<path d="M99200 50622
L99200 27000
" />
<path d="M60600 27000
L60600 50622
" />
<circle cx="104075" cy="28375.4" r="748.031" /> 
<circle cx="98606.5" cy="53268.5" r="748.031" /> 
<circle cx="104075" cy="62000" r="748.031" /> 
<circle cx="84430.3" cy="62000" r="748.031" /> 
<circle cx="77700" cy="62000" r="748.031" /> 
<circle cx="55775" cy="62021.2" r="748.031" /> 
<circle cx="55775" cy="28375.4" r="748.031" /> 
<g >
</g>
<g >
</g>
<g >
</g>
<g >
</g>
<g >
</g>
<g >
</g>
<g >
</g>
<g >
</g>
<g >
</g>
<g >
</g>
<g >
</g>
<g >
</g>
<g >
</g>
<g >
</g>
<g >
</g>
<g >
</g>
<g >
</g>
<g >
</g>
<g >
</g>
<g >
</g>
<g >
</g>
<g >
</g>
<g >
</g>
<g >
</g>
<g >
</g>
<g >
</g>
<g >
</g>
<g >
</g>
<g >
</g>
<g >
</g>
<g >
</g>
<g >
</g>
<g >
</g>
<g >
</g>
<g >
</g>
<g >
</g>
<g >
</g>
<g >
</g>
<g >
</g>
<g >
</g>
<g >
</g>
<g >
</g>
<g >
</g>
<g >
</g>
<g >
</g>
<g >
</g>
<g >
</g>
<g >
</g>
<g >
</g>
<g >
</g>
<g >
</g>
<g >
</g>
<g >
</g>
<g >
</g>
<g >
</g>
<g >
</g>
<g >
</g>
<g >
</g>
<g >
</g>
<g >
</g>
<g >
</g>
<g >
</g>
<g >
</g>
<g >
</g>
<g >
</g>
<g >
</g>
<g >
</g>
<g >
</g>
<g >
</g>
<g >
</g>
<g >
</g>
<g >
</g>
<g >
</g>
<g >
</g>
<g >
</g>
<g >
</g>
<g >
</g>
<g >
</g>
<g >
</g>
<g >
</g>
<g >
</g>
<g >
</g>
<g >
</g>
<g >
</g>
<g >
</g>
<g >
</g>
<g >
</g>
<g >
</g>
<g >
</g>
<g >
</g>
<g >
</g>
<g >
</g>
<g >
</g>
<g >
</g>
<g >
</g>
<g >
</g>
<g >
</g>
<g >
</g>
<g >
</g>
<g >
</g>
<g >
</g>
<g >
</g>
<g >
</g>
<g >
</g>
<g >
</g>
<g >
</g>
<g >
</g>
<g >
</g>
<g >
</g>
<g >
</g>
<g >
</g>
<g >
</g>
<g >
</g>
<g >
</g>
<g >
</g>
<g >
</g>
<g >
</g>
<g >
</g>
<g >
</g>
<g >
</g>
<g >
</g>
<g >
</g>
<g >
</g>
<g >
</g>
<g >
</g>
<g >
</g>
<g >
</g>
<g >
</g>
<g >
</g>
<g >
</g>
<g >
</g>
<g >
</g>
<g >
</g>
<g >
</g>
<g >
</g>
<g >
</g>
<g >
</g>
<g >
</g>
<g >
</g>
<g >
</g>
<g >
</g>
<g >
</g>
<g >
</g>
<g >
</g>
<g >
</g>
<g >
</g>
<g >
</g>
<g >
</g>
<g >
</g>
<g >
</g>
<g >
</g>
<g >
</g>
<g >
</g>
<g >
</g>
<g >
</g>
<g >
</g>
<g >
</g>
<g >
</g>
<g >
</g>
<g >
</g>
<g >
</g>
<g >
</g>
<g >
</g>
<g >
</g>
<g >
</g>
<g >
</g>
<g >
</g>
<g >
</g>
<g >
</g>
<g >
</g>
<g >
</g>
<g >
</g>
<g >
</g>
<g >
</g>
<g >
</g>
<g >
</g>
<g >
</g>
<g >
</g>
<g >
</g>
<g >
</g>
<g >
</g>
<g >
</g>
<g >
</g>
<g >
</g>
<g >
</g>
<g >
</g>
<g >
</g>
<g >
</g>
<g >
</g>
<g >
</g>
<g >
</g>
<g >
</g>
<g >
</g>
<g >
</g>
<g >
</g>
<g >
</g>
<g >
</g>
<g >
</g>
<g >
</g>
<g >
</g>
<g >
</g>
<g >
</g>
<g >
</g>
<g >
</g>
<g >
</g>
</g> 
</svg>
