G04 #@! TF.GenerationSoftware,KiCad,Pcbnew,(5.1.6)-1*
G04 #@! TF.CreationDate,2023-01-22T17:07:03+01:00*
G04 #@! TF.ProjectId,central-control-unit,63656e74-7261-46c2-9d63-6f6e74726f6c,rev?*
G04 #@! TF.SameCoordinates,Original*
G04 #@! TF.FileFunction,Soldermask,Top*
G04 #@! TF.FilePolarity,Negative*
%FSLAX46Y46*%
G04 Gerber Fmt 4.6, Leading zero omitted, Abs format (unit mm)*
G04 Created by KiCad (PCBNEW (5.1.6)-1) date 2023-01-22 17:07:03*
%MOMM*%
%LPD*%
G01*
G04 APERTURE LIST*
%ADD10C,0.900000*%
%ADD11C,6.100000*%
%ADD12R,3.600000X3.600000*%
%ADD13C,3.600000*%
%ADD14R,1.100000X1.100000*%
%ADD15C,0.100000*%
%ADD16R,2.600000X5.100000*%
%ADD17R,3.100000X1.350000*%
%ADD18R,1.350000X3.100000*%
%ADD19C,2.100000*%
%ADD20R,1.600000X2.600000*%
%ADD21R,7.100000X7.100000*%
%ADD22O,1.840000X2.290000*%
%ADD23C,2.200000*%
%ADD24R,2.200000X2.200000*%
%ADD25C,1.800000*%
%ADD26R,1.800000X1.800000*%
%ADD27C,6.300000*%
%ADD28O,2.200000X2.200000*%
%ADD29O,2.100000X2.100000*%
%ADD30R,2.100000X2.100000*%
%ADD31R,1.400000X3.400000*%
%ADD32R,1.400000X3.350000*%
%ADD33R,2.100000X0.600000*%
%ADD34R,0.850000X3.300000*%
%ADD35R,5.100000X2.600000*%
%ADD36R,1.800000X0.550000*%
%ADD37R,1.000000X1.000000*%
%ADD38O,3.200000X3.200000*%
%ADD39R,3.200000X3.200000*%
%ADD40R,2.100000X1.000000*%
%ADD41R,1.000000X2.100000*%
%ADD42R,9.500000X10.900000*%
%ADD43R,4.700000X1.350000*%
%ADD44C,1.600000*%
%ADD45C,3.400000*%
%ADD46R,2.300000X0.900000*%
%ADD47R,0.900000X0.900000*%
%ADD48R,2.600000X2.600000*%
G04 APERTURE END LIST*
D10*
X172148500Y-126746000D03*
X126428500Y-127000000D03*
X104203500Y-123952000D03*
X145478500Y-122428000D03*
X130111500Y-115824000D03*
X59626500Y-93218000D03*
X35369500Y-97028000D03*
X161607500Y-120142000D03*
X166052500Y-120142000D03*
X166052500Y-115443000D03*
X161607500Y-115443000D03*
X163893500Y-117856000D03*
X118173500Y-117856000D03*
X115887500Y-120396000D03*
X120332500Y-120396000D03*
X120332500Y-115570000D03*
X115887500Y-115570000D03*
D11*
X121602500Y-102108000D03*
D10*
X245427500Y-211963000D03*
X221297500Y-211963000D03*
X197167500Y-211963000D03*
X172402500Y-211963000D03*
X148272500Y-211963000D03*
X124142500Y-211963000D03*
X100012500Y-211963000D03*
X75882500Y-211963000D03*
X51752500Y-211963000D03*
X27622500Y-211963000D03*
D12*
X120967500Y-58420000D03*
D13*
X115887500Y-58420000D03*
X110807500Y-58420000D03*
X115887500Y-33020000D03*
D12*
X120967500Y-33020000D03*
D13*
X110807500Y-33020000D03*
D12*
X123507500Y-48260000D03*
D13*
X118427500Y-48260000D03*
X113347500Y-48260000D03*
D10*
X113093500Y-38354000D03*
X118173500Y-38354000D03*
X123253500Y-38354000D03*
X123507500Y-45720000D03*
X115379500Y-46482000D03*
X108013500Y-44450000D03*
X114363500Y-54610000D03*
X119443500Y-54610000D03*
X125285500Y-53594000D03*
X108267500Y-60198000D03*
X119443500Y-61468000D03*
X114363500Y-61468000D03*
X125285500Y-83312000D03*
X120205500Y-93218000D03*
X114363500Y-93218000D03*
X109029500Y-93218000D03*
X113347500Y-85090000D03*
X120459500Y-45720000D03*
X111569500Y-45720000D03*
X108267500Y-47752000D03*
X127571500Y-59690000D03*
X127571500Y-79248000D03*
X118427500Y-82550000D03*
X118173500Y-84836000D03*
X120967500Y-91948000D03*
X115379500Y-91186000D03*
X109791500Y-91186000D03*
X108267500Y-68326000D03*
X108267500Y-66802000D03*
X124523500Y-66802000D03*
X123253500Y-66802000D03*
X107251500Y-75946000D03*
X108267500Y-75438000D03*
X124523500Y-76200000D03*
X123253500Y-76200000D03*
X120967500Y-80010000D03*
X107759500Y-84836000D03*
X110553500Y-80010000D03*
X115887500Y-80010000D03*
X108521500Y-96774000D03*
X114109500Y-96774000D03*
X119697500Y-96774000D03*
X106489500Y-84328000D03*
X113093500Y-83312000D03*
X120459500Y-85090000D03*
X104965500Y-89408000D03*
X110299500Y-89408000D03*
X116141500Y-89408000D03*
D14*
X121033500Y-81620000D03*
X121983500Y-83820000D03*
X120083500Y-83820000D03*
X115953500Y-81620000D03*
X116903500Y-83820000D03*
X115003500Y-83820000D03*
X110619500Y-81620000D03*
X111569500Y-83820000D03*
X109669500Y-83820000D03*
D10*
X64071500Y-203962000D03*
X60007500Y-187833000D03*
X62547500Y-192278000D03*
X159575500Y-134620000D03*
X168211500Y-136906000D03*
X162877500Y-135128000D03*
X162242500Y-139192000D03*
X258635500Y-198120000D03*
X258889500Y-203962000D03*
X255587500Y-197358000D03*
X234759500Y-203962000D03*
X234759500Y-198120000D03*
X231457500Y-197358000D03*
X210883500Y-198120000D03*
X207581500Y-197358000D03*
X210629500Y-203962000D03*
X185991500Y-198120000D03*
X185991500Y-203962000D03*
X182943500Y-197358000D03*
X161861500Y-203962000D03*
X161607500Y-198374000D03*
X158559500Y-197358000D03*
X113982500Y-203962000D03*
X110045500Y-197358000D03*
X110045500Y-199644000D03*
X139001500Y-203962000D03*
X137223500Y-198374000D03*
X134175500Y-197358000D03*
X134175500Y-199644000D03*
X85915500Y-199644000D03*
X88582500Y-203962000D03*
X65341500Y-203962000D03*
X61912500Y-191643000D03*
X60007500Y-186563000D03*
X40957500Y-203708000D03*
X89217500Y-198374000D03*
X86169500Y-197358000D03*
X40957500Y-198628000D03*
X61785500Y-197358000D03*
X65341500Y-198374000D03*
X37782500Y-197358000D03*
D15*
G36*
X112773500Y-197804000D02*
G01*
X110873500Y-197804000D01*
X110873500Y-196404000D01*
X112773500Y-196404000D01*
X112773500Y-197804000D01*
G37*
G36*
X112773500Y-200344000D02*
G01*
X110873500Y-200344000D01*
X110873500Y-198944000D01*
X112773500Y-198944000D01*
X112773500Y-200344000D01*
G37*
G36*
X40383500Y-198058000D02*
G01*
X38483500Y-198058000D01*
X38483500Y-196658000D01*
X40383500Y-196658000D01*
X40383500Y-198058000D01*
G37*
G36*
X40383500Y-200598000D02*
G01*
X38483500Y-200598000D01*
X38483500Y-199198000D01*
X40383500Y-199198000D01*
X40383500Y-200598000D01*
G37*
G36*
X64513500Y-198058000D02*
G01*
X62613500Y-198058000D01*
X62613500Y-196658000D01*
X64513500Y-196658000D01*
X64513500Y-198058000D01*
G37*
G36*
X64513500Y-200598000D02*
G01*
X62613500Y-200598000D01*
X62613500Y-199198000D01*
X64513500Y-199198000D01*
X64513500Y-200598000D01*
G37*
G36*
X88897500Y-198058000D02*
G01*
X86997500Y-198058000D01*
X86997500Y-196658000D01*
X88897500Y-196658000D01*
X88897500Y-198058000D01*
G37*
G36*
X88897500Y-200598000D02*
G01*
X86997500Y-200598000D01*
X86997500Y-199198000D01*
X88897500Y-199198000D01*
X88897500Y-200598000D01*
G37*
G36*
X136903500Y-198058000D02*
G01*
X135003500Y-198058000D01*
X135003500Y-196658000D01*
X136903500Y-196658000D01*
X136903500Y-198058000D01*
G37*
G36*
X136903500Y-200598000D02*
G01*
X135003500Y-200598000D01*
X135003500Y-199198000D01*
X136903500Y-199198000D01*
X136903500Y-200598000D01*
G37*
G36*
X161033500Y-198058000D02*
G01*
X159133500Y-198058000D01*
X159133500Y-196658000D01*
X161033500Y-196658000D01*
X161033500Y-198058000D01*
G37*
G36*
X161033500Y-200598000D02*
G01*
X159133500Y-200598000D01*
X159133500Y-199198000D01*
X161033500Y-199198000D01*
X161033500Y-200598000D01*
G37*
G36*
X185417500Y-197804000D02*
G01*
X183517500Y-197804000D01*
X183517500Y-196404000D01*
X185417500Y-196404000D01*
X185417500Y-197804000D01*
G37*
G36*
X185417500Y-200344000D02*
G01*
X183517500Y-200344000D01*
X183517500Y-198944000D01*
X185417500Y-198944000D01*
X185417500Y-200344000D01*
G37*
G36*
X210309500Y-197804000D02*
G01*
X208409500Y-197804000D01*
X208409500Y-196404000D01*
X210309500Y-196404000D01*
X210309500Y-197804000D01*
G37*
G36*
X210309500Y-200344000D02*
G01*
X208409500Y-200344000D01*
X208409500Y-198944000D01*
X210309500Y-198944000D01*
X210309500Y-200344000D01*
G37*
G36*
X234185500Y-197804000D02*
G01*
X232285500Y-197804000D01*
X232285500Y-196404000D01*
X234185500Y-196404000D01*
X234185500Y-197804000D01*
G37*
G36*
X234185500Y-200344000D02*
G01*
X232285500Y-200344000D01*
X232285500Y-198944000D01*
X234185500Y-198944000D01*
X234185500Y-200344000D01*
G37*
G36*
X258061500Y-197804000D02*
G01*
X256161500Y-197804000D01*
X256161500Y-196404000D01*
X258061500Y-196404000D01*
X258061500Y-197804000D01*
G37*
G36*
X258061500Y-200344000D02*
G01*
X256161500Y-200344000D01*
X256161500Y-198944000D01*
X258061500Y-198944000D01*
X258061500Y-200344000D01*
G37*
D14*
X108775500Y-200082000D03*
X107825500Y-197882000D03*
X109725500Y-197882000D03*
X36385500Y-200082000D03*
X35435500Y-197882000D03*
X37335500Y-197882000D03*
X84645500Y-200082000D03*
X83695500Y-197882000D03*
X85595500Y-197882000D03*
X60515500Y-200082000D03*
X59565500Y-197882000D03*
X61465500Y-197882000D03*
X167125500Y-135128000D03*
X164925500Y-136078000D03*
X164925500Y-134178000D03*
X132839500Y-200066000D03*
X131889500Y-197866000D03*
X133789500Y-197866000D03*
X156593500Y-199812000D03*
X155643500Y-197612000D03*
X157543500Y-197612000D03*
X180911500Y-199828000D03*
X179961500Y-197628000D03*
X181861500Y-197628000D03*
X205803500Y-199828000D03*
X204853500Y-197628000D03*
X206753500Y-197628000D03*
X229933500Y-199828000D03*
X228983500Y-197628000D03*
X230883500Y-197628000D03*
X253809500Y-199828000D03*
X252859500Y-197628000D03*
X254759500Y-197628000D03*
D10*
X176847500Y-174498000D03*
X180911500Y-174498000D03*
X179387500Y-176403000D03*
X176847500Y-176403000D03*
X32067500Y-184023000D03*
X37147500Y-184023000D03*
X25717500Y-189103000D03*
D16*
X30162500Y-185293000D03*
X30162500Y-177165000D03*
X39052500Y-185293000D03*
X39052500Y-177165000D03*
D15*
G36*
X71820000Y-36515000D02*
G01*
X71820000Y-38415000D01*
X70420000Y-38415000D01*
X70420000Y-36515000D01*
X71820000Y-36515000D01*
G37*
G36*
X74360000Y-36515000D02*
G01*
X74360000Y-38415000D01*
X72960000Y-38415000D01*
X72960000Y-36515000D01*
X74360000Y-36515000D01*
G37*
G36*
X31685000Y-38415000D02*
G01*
X31685000Y-36515000D01*
X33085000Y-36515000D01*
X33085000Y-38415000D01*
X31685000Y-38415000D01*
G37*
G36*
X29145000Y-38415000D02*
G01*
X29145000Y-36515000D01*
X30545000Y-36515000D01*
X30545000Y-38415000D01*
X29145000Y-38415000D01*
G37*
G36*
X51750000Y-35625000D02*
G01*
X49850000Y-35625000D01*
X49850000Y-34225000D01*
X51750000Y-34225000D01*
X51750000Y-35625000D01*
G37*
G36*
X51750000Y-38165000D02*
G01*
X49850000Y-38165000D01*
X49850000Y-36765000D01*
X51750000Y-36765000D01*
X51750000Y-38165000D01*
G37*
G36*
X245810000Y-36515000D02*
G01*
X245810000Y-38415000D01*
X244410000Y-38415000D01*
X244410000Y-36515000D01*
X245810000Y-36515000D01*
G37*
G36*
X248350000Y-36515000D02*
G01*
X248350000Y-38415000D01*
X246950000Y-38415000D01*
X246950000Y-36515000D01*
X248350000Y-36515000D01*
G37*
G36*
X152720000Y-125030000D02*
G01*
X154620000Y-125030000D01*
X154620000Y-126430000D01*
X152720000Y-126430000D01*
X152720000Y-125030000D01*
G37*
G36*
X152720000Y-122490000D02*
G01*
X154620000Y-122490000D01*
X154620000Y-123890000D01*
X152720000Y-123890000D01*
X152720000Y-122490000D01*
G37*
G36*
X107000000Y-125030000D02*
G01*
X108900000Y-125030000D01*
X108900000Y-126430000D01*
X107000000Y-126430000D01*
X107000000Y-125030000D01*
G37*
G36*
X107000000Y-122490000D02*
G01*
X108900000Y-122490000D01*
X108900000Y-123890000D01*
X107000000Y-123890000D01*
X107000000Y-122490000D01*
G37*
G36*
X170495000Y-123890000D02*
G01*
X168595000Y-123890000D01*
X168595000Y-122490000D01*
X170495000Y-122490000D01*
X170495000Y-123890000D01*
G37*
G36*
X170495000Y-126430000D02*
G01*
X168595000Y-126430000D01*
X168595000Y-125030000D01*
X170495000Y-125030000D01*
X170495000Y-126430000D01*
G37*
G36*
X124775000Y-123890000D02*
G01*
X122875000Y-123890000D01*
X122875000Y-122490000D01*
X124775000Y-122490000D01*
X124775000Y-123890000D01*
G37*
G36*
X124775000Y-126430000D02*
G01*
X122875000Y-126430000D01*
X122875000Y-125030000D01*
X124775000Y-125030000D01*
X124775000Y-126430000D01*
G37*
G36*
X92140000Y-36515000D02*
G01*
X92140000Y-38415000D01*
X90740000Y-38415000D01*
X90740000Y-36515000D01*
X92140000Y-36515000D01*
G37*
G36*
X94680000Y-36515000D02*
G01*
X94680000Y-38415000D01*
X93280000Y-38415000D01*
X93280000Y-36515000D01*
X94680000Y-36515000D01*
G37*
G36*
X138365000Y-96200000D02*
G01*
X138365000Y-94300000D01*
X139765000Y-94300000D01*
X139765000Y-96200000D01*
X138365000Y-96200000D01*
G37*
G36*
X135825000Y-96200000D02*
G01*
X135825000Y-94300000D01*
X137225000Y-94300000D01*
X137225000Y-96200000D01*
X135825000Y-96200000D01*
G37*
G36*
X199325000Y-96200000D02*
G01*
X199325000Y-94300000D01*
X200725000Y-94300000D01*
X200725000Y-96200000D01*
X199325000Y-96200000D01*
G37*
G36*
X196785000Y-96200000D02*
G01*
X196785000Y-94300000D01*
X198185000Y-94300000D01*
X198185000Y-96200000D01*
X196785000Y-96200000D01*
G37*
G36*
X219645000Y-96200000D02*
G01*
X219645000Y-94300000D01*
X221045000Y-94300000D01*
X221045000Y-96200000D01*
X219645000Y-96200000D01*
G37*
G36*
X217105000Y-96200000D02*
G01*
X217105000Y-94300000D01*
X218505000Y-94300000D01*
X218505000Y-96200000D01*
X217105000Y-96200000D01*
G37*
G36*
X137225000Y-91125000D02*
G01*
X137225000Y-93025000D01*
X135825000Y-93025000D01*
X135825000Y-91125000D01*
X137225000Y-91125000D01*
G37*
G36*
X139765000Y-91125000D02*
G01*
X139765000Y-93025000D01*
X138365000Y-93025000D01*
X138365000Y-91125000D01*
X139765000Y-91125000D01*
G37*
G36*
X198185000Y-91125000D02*
G01*
X198185000Y-93025000D01*
X196785000Y-93025000D01*
X196785000Y-91125000D01*
X198185000Y-91125000D01*
G37*
G36*
X200725000Y-91125000D02*
G01*
X200725000Y-93025000D01*
X199325000Y-93025000D01*
X199325000Y-91125000D01*
X200725000Y-91125000D01*
G37*
G36*
X218505000Y-91125000D02*
G01*
X218505000Y-93025000D01*
X217105000Y-93025000D01*
X217105000Y-91125000D01*
X218505000Y-91125000D01*
G37*
G36*
X221045000Y-91125000D02*
G01*
X221045000Y-93025000D01*
X219645000Y-93025000D01*
X219645000Y-91125000D01*
X221045000Y-91125000D01*
G37*
G36*
X168845000Y-96200000D02*
G01*
X168845000Y-94300000D01*
X170245000Y-94300000D01*
X170245000Y-96200000D01*
X168845000Y-96200000D01*
G37*
G36*
X166305000Y-96200000D02*
G01*
X166305000Y-94300000D01*
X167705000Y-94300000D01*
X167705000Y-96200000D01*
X166305000Y-96200000D01*
G37*
G36*
X167705000Y-91125000D02*
G01*
X167705000Y-93025000D01*
X166305000Y-93025000D01*
X166305000Y-91125000D01*
X167705000Y-91125000D01*
G37*
G36*
X170245000Y-91125000D02*
G01*
X170245000Y-93025000D01*
X168845000Y-93025000D01*
X168845000Y-91125000D01*
X170245000Y-91125000D01*
G37*
G36*
X193360000Y-191705000D02*
G01*
X195260000Y-191705000D01*
X195260000Y-193105000D01*
X193360000Y-193105000D01*
X193360000Y-191705000D01*
G37*
G36*
X193360000Y-189165000D02*
G01*
X195260000Y-189165000D01*
X195260000Y-190565000D01*
X193360000Y-190565000D01*
X193360000Y-189165000D01*
G37*
G36*
X72070000Y-188660000D02*
G01*
X70170000Y-188660000D01*
X70170000Y-187260000D01*
X72070000Y-187260000D01*
X72070000Y-188660000D01*
G37*
G36*
X72070000Y-191200000D02*
G01*
X70170000Y-191200000D01*
X70170000Y-189800000D01*
X72070000Y-189800000D01*
X72070000Y-191200000D01*
G37*
D10*
X51752500Y-184658000D03*
X56197500Y-184658000D03*
X56197500Y-180848000D03*
X51752500Y-180848000D03*
X19367500Y-184658000D03*
X23812500Y-184658000D03*
X23812500Y-180848000D03*
X19367500Y-180848000D03*
X28257500Y-104648000D03*
X26352500Y-104648000D03*
X63817500Y-85598000D03*
X62547500Y-85598000D03*
X44386500Y-205613000D03*
D11*
X104203500Y-33020000D03*
X261620000Y-187833000D03*
D10*
X52895500Y-90932000D03*
X57467500Y-95504000D03*
X143065500Y-192024000D03*
X146621500Y-191262000D03*
X135953500Y-194056000D03*
X138112500Y-192278000D03*
X138747500Y-202438000D03*
X136207500Y-192024000D03*
X138112500Y-197358000D03*
X153352500Y-193548000D03*
X115252500Y-189738000D03*
X119062500Y-187198000D03*
X119062500Y-182118000D03*
X129857500Y-188468000D03*
X141287500Y-179578000D03*
X130492500Y-182753000D03*
X140017500Y-192278000D03*
X121602500Y-191643000D03*
X155257500Y-192278000D03*
X134937500Y-191008000D03*
X145732500Y-186563000D03*
X149542500Y-187833000D03*
X127317500Y-189103000D03*
X133667500Y-193040000D03*
D15*
G36*
X120652500Y-189673000D02*
G01*
X122552500Y-189673000D01*
X122552500Y-191073000D01*
X120652500Y-191073000D01*
X120652500Y-189673000D01*
G37*
G36*
X120652500Y-187133000D02*
G01*
X122552500Y-187133000D01*
X122552500Y-188533000D01*
X120652500Y-188533000D01*
X120652500Y-187133000D01*
G37*
G36*
X120652500Y-183958000D02*
G01*
X122552500Y-183958000D01*
X122552500Y-185358000D01*
X120652500Y-185358000D01*
X120652500Y-183958000D01*
G37*
G36*
X120652500Y-181418000D02*
G01*
X122552500Y-181418000D01*
X122552500Y-182818000D01*
X120652500Y-182818000D01*
X120652500Y-181418000D01*
G37*
G36*
X129922500Y-192090000D02*
G01*
X129922500Y-193990000D01*
X128522500Y-193990000D01*
X128522500Y-192090000D01*
X129922500Y-192090000D01*
G37*
G36*
X132462500Y-192090000D02*
G01*
X132462500Y-193990000D01*
X131062500Y-193990000D01*
X131062500Y-192090000D01*
X132462500Y-192090000D01*
G37*
G36*
X137792500Y-182818000D02*
G01*
X135892500Y-182818000D01*
X135892500Y-181418000D01*
X137792500Y-181418000D01*
X137792500Y-182818000D01*
G37*
G36*
X137792500Y-185358000D02*
G01*
X135892500Y-185358000D01*
X135892500Y-183958000D01*
X137792500Y-183958000D01*
X137792500Y-185358000D01*
G37*
G36*
X137792500Y-188533000D02*
G01*
X135892500Y-188533000D01*
X135892500Y-187133000D01*
X137792500Y-187133000D01*
X137792500Y-188533000D01*
G37*
G36*
X137792500Y-191073000D02*
G01*
X135892500Y-191073000D01*
X135892500Y-189673000D01*
X137792500Y-189673000D01*
X137792500Y-191073000D01*
G37*
G36*
X139067500Y-189673000D02*
G01*
X140967500Y-189673000D01*
X140967500Y-191073000D01*
X139067500Y-191073000D01*
X139067500Y-189673000D01*
G37*
G36*
X139067500Y-187133000D02*
G01*
X140967500Y-187133000D01*
X140967500Y-188533000D01*
X139067500Y-188533000D01*
X139067500Y-187133000D01*
G37*
G36*
X139067500Y-183958000D02*
G01*
X140967500Y-183958000D01*
X140967500Y-185358000D01*
X139067500Y-185358000D01*
X139067500Y-183958000D01*
G37*
G36*
X139067500Y-181418000D02*
G01*
X140967500Y-181418000D01*
X140967500Y-182818000D01*
X139067500Y-182818000D01*
X139067500Y-181418000D01*
G37*
G36*
X147067500Y-192090000D02*
G01*
X147067500Y-193990000D01*
X145667500Y-193990000D01*
X145667500Y-192090000D01*
X147067500Y-192090000D01*
G37*
G36*
X149607500Y-192090000D02*
G01*
X149607500Y-193990000D01*
X148207500Y-193990000D01*
X148207500Y-192090000D01*
X149607500Y-192090000D01*
G37*
G36*
X156207500Y-182818000D02*
G01*
X154307500Y-182818000D01*
X154307500Y-181418000D01*
X156207500Y-181418000D01*
X156207500Y-182818000D01*
G37*
G36*
X156207500Y-185358000D02*
G01*
X154307500Y-185358000D01*
X154307500Y-183958000D01*
X156207500Y-183958000D01*
X156207500Y-185358000D01*
G37*
G36*
X156207500Y-188533000D02*
G01*
X154307500Y-188533000D01*
X154307500Y-187133000D01*
X156207500Y-187133000D01*
X156207500Y-188533000D01*
G37*
G36*
X156207500Y-191073000D02*
G01*
X154307500Y-191073000D01*
X154307500Y-189673000D01*
X156207500Y-189673000D01*
X156207500Y-191073000D01*
G37*
D17*
X127422500Y-182118000D03*
X124672500Y-184658000D03*
X124672500Y-190373000D03*
X127422500Y-187833000D03*
X133772500Y-187833000D03*
X131022500Y-190373000D03*
X133772500Y-182118000D03*
X131022500Y-184658000D03*
X145837500Y-182118000D03*
X143087500Y-184658000D03*
X143087500Y-190373000D03*
X145837500Y-187833000D03*
X152187500Y-187833000D03*
X149437500Y-190373000D03*
X152187500Y-182118000D03*
X149437500Y-184658000D03*
D10*
X246062500Y-72263000D03*
X249237500Y-72263000D03*
X249237500Y-76073000D03*
X246062500Y-76073000D03*
X246062500Y-79248000D03*
X249237500Y-79248000D03*
X251777500Y-79248000D03*
X251777500Y-76073000D03*
X251777500Y-72263000D03*
X246062500Y-60198000D03*
X249237500Y-60198000D03*
X249237500Y-64008000D03*
X246062500Y-64008000D03*
X246062500Y-67183000D03*
X249237500Y-67183000D03*
X251777500Y-67183000D03*
X251777500Y-64008000D03*
X251777500Y-60198000D03*
X167957500Y-57023000D03*
X220662500Y-43053000D03*
X225107500Y-43053000D03*
X225107500Y-39243000D03*
X220662500Y-39243000D03*
X210502500Y-43053000D03*
X214947500Y-43053000D03*
X214947500Y-39243000D03*
X210502500Y-39243000D03*
X204787500Y-43053000D03*
X200342500Y-43053000D03*
X204787500Y-39243000D03*
X200342500Y-39243000D03*
X190182500Y-43053000D03*
X194627500Y-43053000D03*
X194627500Y-39243000D03*
X190182500Y-39243000D03*
X180022500Y-43053000D03*
X184467500Y-43053000D03*
X184467500Y-39243000D03*
X180022500Y-39243000D03*
X169862500Y-43053000D03*
X174307500Y-43053000D03*
X174307500Y-39243000D03*
X169862500Y-39243000D03*
X159702500Y-43053000D03*
X164147500Y-43053000D03*
X164147500Y-39243000D03*
X159702500Y-39243000D03*
X149542500Y-43053000D03*
X153987500Y-43053000D03*
X153987500Y-39243000D03*
X149542500Y-39243000D03*
X139382500Y-43053000D03*
X143827500Y-43053000D03*
X143827500Y-39243000D03*
X139382500Y-39243000D03*
X129222500Y-43053000D03*
X133667500Y-43053000D03*
X133667500Y-39243000D03*
X129222500Y-39243000D03*
X102552500Y-79883000D03*
X99377500Y-79883000D03*
X96202500Y-79883000D03*
X96202500Y-76073000D03*
X96202500Y-72263000D03*
X99377500Y-72263000D03*
X102552500Y-72263000D03*
X96202500Y-67818000D03*
X99377500Y-67818000D03*
X102552500Y-67818000D03*
X102552500Y-64008000D03*
X99377500Y-64008000D03*
X96202500Y-64008000D03*
X96202500Y-60325000D03*
X99377500Y-60325000D03*
X102298500Y-60325000D03*
X75882500Y-79248000D03*
X79057500Y-79248000D03*
X81597500Y-79248000D03*
X75882500Y-76073000D03*
X75882500Y-72263000D03*
X79057500Y-72263000D03*
X81978500Y-72390000D03*
X75882500Y-67818000D03*
X79057500Y-67818000D03*
X81597500Y-67818000D03*
X81597500Y-64008000D03*
X79057500Y-64008000D03*
X75882500Y-64008000D03*
X75882500Y-60198000D03*
X79057500Y-60198000D03*
X81597500Y-60198000D03*
X30797500Y-79883000D03*
X33972500Y-79883000D03*
X37147500Y-79883000D03*
X37147500Y-76073000D03*
X33972500Y-76073000D03*
X30797500Y-76073000D03*
X30797500Y-72263000D03*
X33972500Y-72263000D03*
X36893500Y-72263000D03*
X30797500Y-67818000D03*
X33972500Y-67818000D03*
X37147500Y-67818000D03*
X37147500Y-64008000D03*
X33972500Y-64008000D03*
X30797500Y-64008000D03*
X30797500Y-60198000D03*
X33972500Y-60198000D03*
X37147500Y-60198000D03*
X51117500Y-79248000D03*
X54292500Y-79248000D03*
X56832500Y-79248000D03*
X56832500Y-76073000D03*
X54292500Y-76073000D03*
X51117500Y-76073000D03*
X51117500Y-71628000D03*
X54292500Y-71755000D03*
X56832500Y-71755000D03*
X54292500Y-67818000D03*
X54292500Y-64008000D03*
X54292500Y-60198000D03*
X51117500Y-64008000D03*
X51117500Y-67818000D03*
X56832500Y-67818000D03*
X56832500Y-64008000D03*
X56832500Y-60198000D03*
X51117500Y-60198000D03*
X22288500Y-37973000D03*
X22288500Y-39370000D03*
X37528500Y-48895000D03*
X32448500Y-46990000D03*
X32321500Y-48260000D03*
X36131500Y-49022000D03*
X29781500Y-48895000D03*
X26606500Y-48260000D03*
X27876500Y-51943000D03*
X34988500Y-55245000D03*
X29908500Y-57150000D03*
X28003500Y-58420000D03*
X20383500Y-42164000D03*
X20891500Y-43815000D03*
X22161500Y-43815000D03*
X28003500Y-48895000D03*
X28638500Y-56388000D03*
X22161500Y-56388000D03*
X25971500Y-59055000D03*
X26098500Y-65405000D03*
X26733500Y-72390000D03*
X24193500Y-70993000D03*
X25336500Y-70993000D03*
X24193500Y-80518000D03*
X25336500Y-80518000D03*
X30797500Y-84963000D03*
X32067500Y-84963000D03*
X38417500Y-83566000D03*
X34988500Y-38100000D03*
X35750500Y-38862000D03*
X54038500Y-39370000D03*
X54038500Y-40640000D03*
X57848500Y-48895000D03*
X52768500Y-46990000D03*
X52641500Y-48260000D03*
X56451500Y-48895000D03*
X50228500Y-48895000D03*
X46926500Y-48260000D03*
X48450500Y-51943000D03*
X55181500Y-55245000D03*
X50863500Y-57150000D03*
X48323500Y-58420000D03*
X41338500Y-43815000D03*
X42481500Y-43815000D03*
X48323500Y-48895000D03*
X49593500Y-56515000D03*
X42481500Y-56388000D03*
X46418500Y-59055000D03*
X46291500Y-65278000D03*
X47053500Y-72390000D03*
X44513500Y-70993000D03*
X45656500Y-70993000D03*
X44513500Y-80645000D03*
X45656500Y-80645000D03*
X72326500Y-48260000D03*
X73596500Y-52070000D03*
X78676500Y-40005000D03*
X78676500Y-41275000D03*
X83248500Y-48895000D03*
X78041500Y-46990000D03*
X75501500Y-48895000D03*
X78168500Y-48387000D03*
X81978500Y-48895000D03*
X80708500Y-55245000D03*
X71183500Y-40005000D03*
X71183500Y-41402000D03*
X73723500Y-49022000D03*
X74993500Y-56515000D03*
X68897500Y-55626000D03*
X76136500Y-57150000D03*
X73088500Y-58420000D03*
X71183500Y-59055000D03*
X71056500Y-65405000D03*
X71818500Y-72390000D03*
X69278500Y-70993000D03*
X70421500Y-70993000D03*
X69278500Y-79883000D03*
X70421500Y-79883000D03*
X99123500Y-40005000D03*
X99123500Y-41275000D03*
X98488500Y-46863000D03*
X98361500Y-48260000D03*
X95821500Y-48895000D03*
X102171500Y-48895000D03*
X103568500Y-48895000D03*
X92646500Y-48260000D03*
X93916500Y-52070000D03*
X100901500Y-55245000D03*
X96583500Y-57150000D03*
X91376500Y-39878000D03*
X91376500Y-41148000D03*
X93916500Y-49022000D03*
X89471500Y-55626000D03*
X95313500Y-56515000D03*
X91376500Y-59055000D03*
X93408500Y-58420000D03*
X91503500Y-65405000D03*
X92011500Y-72390000D03*
X89598500Y-70993000D03*
X90741500Y-70993000D03*
X89598500Y-79883000D03*
X90741500Y-79883000D03*
X33845500Y-97028000D03*
X34607500Y-98298000D03*
X73723500Y-109728000D03*
X76263500Y-109728000D03*
X78803500Y-109728000D03*
X52133500Y-90043000D03*
X56451500Y-94488000D03*
X57848500Y-83185000D03*
X60388500Y-94488000D03*
X61150500Y-93218000D03*
X79057500Y-76200000D03*
X81597500Y-76200000D03*
X99250500Y-76200000D03*
X102552500Y-76200000D03*
X130365500Y-66802000D03*
X133921500Y-62992000D03*
X135572500Y-63500000D03*
X131508500Y-66675000D03*
X128968500Y-72009000D03*
X133921500Y-71120000D03*
X128841500Y-49530000D03*
X139001500Y-49530000D03*
X144081500Y-62992000D03*
X139001500Y-62865000D03*
X145732500Y-63500000D03*
X141541500Y-66675000D03*
X139001500Y-71120000D03*
X144081500Y-71120000D03*
X149161500Y-49530000D03*
X149161500Y-62865000D03*
X154241500Y-62992000D03*
X155892500Y-63500000D03*
X151828500Y-66675000D03*
X149161500Y-71120000D03*
X154241500Y-71120000D03*
X159321500Y-49530000D03*
X164401500Y-62992000D03*
X159448500Y-62865000D03*
X166052500Y-63500000D03*
X161861500Y-66675000D03*
X159321500Y-71120000D03*
X164401500Y-71120000D03*
X169481500Y-49530000D03*
X174561500Y-62992000D03*
X176212500Y-63373000D03*
X169608500Y-62865000D03*
X172021500Y-66675000D03*
X169481500Y-71120000D03*
X174561500Y-71120000D03*
X179641500Y-49530000D03*
X179641500Y-62865000D03*
X184721500Y-62992000D03*
X186372500Y-63500000D03*
X182181500Y-66675000D03*
X179641500Y-71120000D03*
X184848500Y-71120000D03*
X189801500Y-49530000D03*
X189928500Y-62865000D03*
X194881500Y-62992000D03*
X196532500Y-63500000D03*
X192341500Y-66675000D03*
X189928500Y-71120000D03*
X195008500Y-71120000D03*
X199961500Y-49530000D03*
X199453500Y-62865000D03*
X205041500Y-62992000D03*
X206692500Y-63500000D03*
X202501500Y-66675000D03*
X199961500Y-71120000D03*
X205041500Y-71120000D03*
X210121500Y-49530000D03*
X209613500Y-62992000D03*
X215201500Y-62992000D03*
X216852500Y-63500000D03*
X212661500Y-66675000D03*
X210121500Y-71120000D03*
X215201500Y-71120000D03*
X220281500Y-49530000D03*
X225361500Y-62992000D03*
X219773500Y-62865000D03*
X227012500Y-63373000D03*
X222948500Y-66675000D03*
X220281500Y-71120000D03*
X225488500Y-71120000D03*
X131381500Y-41021000D03*
X141541500Y-41021000D03*
X151701500Y-41021000D03*
X161861500Y-41021000D03*
X172021500Y-41021000D03*
X182181500Y-41148000D03*
X192341500Y-41021000D03*
X202501500Y-41148000D03*
X212788500Y-41148000D03*
X222821500Y-41021000D03*
X127317500Y-57023000D03*
X137477500Y-57404000D03*
X147637500Y-57023000D03*
X157797500Y-57023000D03*
X178117500Y-57023000D03*
X188277500Y-57023000D03*
X198437500Y-57023000D03*
X208597500Y-57023000D03*
X218757500Y-57023000D03*
X135064500Y-60833000D03*
X145224500Y-60833000D03*
X155384500Y-60833000D03*
X165417500Y-60833000D03*
X175704500Y-60833000D03*
X185864500Y-60833000D03*
X195897500Y-60833000D03*
X206184500Y-60833000D03*
X216217500Y-60833000D03*
X226377500Y-60833000D03*
X128714500Y-65278000D03*
X138874500Y-65278000D03*
X148780500Y-65405000D03*
X158940500Y-65405000D03*
X169227500Y-65405000D03*
X179260500Y-65405000D03*
X189420500Y-65405000D03*
X199707500Y-65405000D03*
X209613500Y-65405000D03*
X220027500Y-65405000D03*
X135191500Y-68580000D03*
X145478500Y-68580000D03*
X155511500Y-68580000D03*
X165798500Y-68580000D03*
X175831500Y-68580000D03*
X186118500Y-68580000D03*
X196278500Y-68580000D03*
X206311500Y-68580000D03*
X216598500Y-68580000D03*
X226758500Y-68580000D03*
X243903500Y-41275000D03*
X243903500Y-40005000D03*
X253428500Y-41275000D03*
X253428500Y-40005000D03*
X242506500Y-47625000D03*
X248348500Y-46355000D03*
X245681500Y-48260000D03*
X248221500Y-47752000D03*
X252158500Y-48260000D03*
X253428500Y-48260000D03*
X250761500Y-54610000D03*
X243522500Y-51435000D03*
X246443500Y-56642000D03*
X243776500Y-48260000D03*
X245173500Y-55880000D03*
X237553500Y-54610000D03*
X241236500Y-58547000D03*
X248602500Y-81661000D03*
X241363500Y-64770000D03*
X243268500Y-57785000D03*
X241998500Y-71628000D03*
X239585500Y-70358000D03*
X240601500Y-70358000D03*
X239585500Y-80010000D03*
X240601500Y-80010000D03*
X238188500Y-83820000D03*
X238188500Y-82550000D03*
X250126500Y-83185000D03*
X255968500Y-83185000D03*
X252793500Y-86360000D03*
X253301500Y-87122000D03*
X257238500Y-88265000D03*
X259778500Y-88265000D03*
X249618500Y-92202000D03*
X252158500Y-92710000D03*
X257238500Y-94615000D03*
X255968500Y-94615000D03*
X246443500Y-95885000D03*
X250761500Y-99060000D03*
X257238500Y-100330000D03*
X257111500Y-103505000D03*
X259778500Y-103505000D03*
X255968500Y-109855000D03*
X257238500Y-109855000D03*
X249618500Y-107315000D03*
X252285500Y-107950000D03*
X246443500Y-111125000D03*
X250888500Y-114300000D03*
X257111500Y-115570000D03*
X257238500Y-118745000D03*
X259778500Y-118745000D03*
X249618500Y-122555000D03*
X252158500Y-123190000D03*
X257238500Y-125095000D03*
X255968500Y-125095000D03*
X246443500Y-126365000D03*
X250888500Y-129540000D03*
X257111500Y-130810000D03*
X257238500Y-133985000D03*
X259778500Y-133985000D03*
X249618500Y-137795000D03*
X252158500Y-138430000D03*
X255968500Y-140335000D03*
X257238500Y-140335000D03*
X246443500Y-141605000D03*
X250888500Y-144780000D03*
X257111500Y-146050000D03*
X257238500Y-149225000D03*
X260286500Y-149352000D03*
X246443500Y-156845000D03*
X249618500Y-153035000D03*
X252158500Y-153670000D03*
X257238500Y-155575000D03*
X255968500Y-155575000D03*
X250761500Y-160020000D03*
X257238500Y-161290000D03*
X249491500Y-100330000D03*
X249618500Y-115570000D03*
X249618500Y-130810000D03*
X249618500Y-146050000D03*
X249618500Y-161290000D03*
X249491500Y-88900000D03*
X249745500Y-104140000D03*
X249745500Y-119380000D03*
X249745500Y-134620000D03*
X249745500Y-149860000D03*
X252031500Y-100330000D03*
X252031500Y-115570000D03*
X252031500Y-130810000D03*
X252031500Y-146050000D03*
X252031500Y-161290000D03*
X255333500Y-104775000D03*
X255333500Y-120015000D03*
X255333500Y-135255000D03*
X255333500Y-150495000D03*
X260286500Y-164465000D03*
X257238500Y-164465000D03*
X249618500Y-165100000D03*
X255333500Y-165735000D03*
X255841500Y-170815000D03*
X257238500Y-170815000D03*
X257238500Y-176530000D03*
X246443500Y-172085000D03*
X249618500Y-168148000D03*
X252158500Y-168910000D03*
X250761500Y-175260000D03*
X252158500Y-176530000D03*
X249618500Y-176530000D03*
X236791500Y-175133000D03*
X236791500Y-168148000D03*
X236791500Y-92075000D03*
X236791500Y-97155000D03*
X236791500Y-112395000D03*
X236918500Y-107315000D03*
X236918500Y-122555000D03*
X236918500Y-127635000D03*
X236791500Y-157988000D03*
X236918500Y-152908000D03*
X228917500Y-146558000D03*
X236918500Y-142875000D03*
X236918500Y-137795000D03*
X224091500Y-136525000D03*
X229933500Y-136525000D03*
X230822500Y-134493000D03*
X222821500Y-136525000D03*
X214947500Y-143383000D03*
X214947500Y-141859000D03*
X225488500Y-80010000D03*
X215328500Y-80010000D03*
X205168500Y-80010000D03*
X195008500Y-80010000D03*
X184721500Y-80010000D03*
X174561500Y-80010000D03*
X164528500Y-80010000D03*
X154368500Y-80010000D03*
X221551500Y-80645000D03*
X211518500Y-80645000D03*
X201358500Y-80645000D03*
X191071500Y-80645000D03*
X180911500Y-80645000D03*
X170751500Y-80645000D03*
X160718500Y-80645000D03*
X150431500Y-80645000D03*
X140271500Y-80645000D03*
X130238500Y-80645000D03*
X144081500Y-80010000D03*
X134048500Y-80010000D03*
X225742500Y-89408000D03*
X223583500Y-100965000D03*
X223583500Y-102235000D03*
X217741500Y-100965000D03*
X219011500Y-99060000D03*
X219773500Y-97790000D03*
X222948500Y-91440000D03*
X221551500Y-107315000D03*
X214693500Y-106680000D03*
X214058500Y-105410000D03*
X214693500Y-102870000D03*
X213296500Y-102870000D03*
X213423500Y-98933000D03*
X213423500Y-96520000D03*
X213296500Y-93345000D03*
X217741500Y-89535000D03*
X216598500Y-102870000D03*
X207708500Y-99695000D03*
X198056500Y-106045000D03*
X204406500Y-106045000D03*
X202628500Y-102870000D03*
X203771500Y-99695000D03*
X198183500Y-100330000D03*
X194373500Y-102997000D03*
X190436500Y-104267000D03*
X192976500Y-102870000D03*
X193230500Y-98933000D03*
X193103500Y-96520000D03*
X193103500Y-93345000D03*
X202501500Y-91440000D03*
X197421500Y-89662000D03*
X195516500Y-103378000D03*
X187388500Y-97790000D03*
X187388500Y-106045000D03*
X173926500Y-94615000D03*
X173926500Y-97790000D03*
X173545500Y-99695000D03*
X173926500Y-100965000D03*
X171386500Y-102362000D03*
X171513500Y-107950000D03*
X171513500Y-104267000D03*
X168973500Y-107950000D03*
X154241500Y-106045000D03*
X167068500Y-109855000D03*
X168211500Y-104140000D03*
X167068500Y-100965000D03*
X166941500Y-99060000D03*
X163131500Y-93345000D03*
X162623500Y-94615000D03*
X162496500Y-97790000D03*
X162496500Y-100203000D03*
X162623500Y-104140000D03*
X172148500Y-91440000D03*
X167068500Y-89535000D03*
X179133500Y-99060000D03*
X165798500Y-103505000D03*
X156781500Y-104140000D03*
X156781500Y-97790000D03*
X138493500Y-100965000D03*
X137223500Y-100965000D03*
X132016500Y-102870000D03*
X132143500Y-98933000D03*
X132143500Y-96520000D03*
X132143500Y-93345000D03*
X141668500Y-91440000D03*
X136588500Y-89535000D03*
X126428500Y-99695000D03*
X148018500Y-101600000D03*
X135318500Y-105410000D03*
X135318500Y-107315000D03*
X132143500Y-106045000D03*
X125666500Y-106045000D03*
X131127500Y-115062000D03*
X131635500Y-116332000D03*
X131127500Y-122428000D03*
X135572500Y-126873000D03*
X169608500Y-110363000D03*
X172148500Y-110363000D03*
X172148500Y-114935000D03*
X169481500Y-114935000D03*
X104203500Y-122555000D03*
X105473500Y-123190000D03*
X108013500Y-127127000D03*
X117411500Y-123190000D03*
X113728500Y-127000000D03*
X118173500Y-128905000D03*
X125666500Y-123190000D03*
X126428500Y-125730000D03*
X127698500Y-125730000D03*
X144843500Y-123571000D03*
X144843500Y-125095000D03*
X169608500Y-121920000D03*
X162623500Y-123190000D03*
X140652500Y-126238000D03*
X142557500Y-126238000D03*
X148653500Y-125730000D03*
X158051500Y-128270000D03*
X161988500Y-128905000D03*
X163893500Y-128905000D03*
X160083500Y-127635000D03*
X171513500Y-125730000D03*
X172783500Y-125730000D03*
X193611500Y-128905000D03*
X191071500Y-128905000D03*
X188658500Y-128905000D03*
X185991500Y-128905000D03*
X193611500Y-133350000D03*
X191198500Y-133350000D03*
X188658500Y-133350000D03*
X186118500Y-133350000D03*
X167957500Y-140970000D03*
X143573500Y-140970000D03*
X123253500Y-143510000D03*
X109156500Y-144145000D03*
X95948500Y-139700000D03*
X59118500Y-145415000D03*
X63563500Y-145415000D03*
X61531500Y-146685000D03*
X62928500Y-148082000D03*
X60261500Y-157480000D03*
X63436500Y-157480000D03*
X42608500Y-167640000D03*
X42481500Y-164465000D03*
X45148500Y-168402000D03*
X45148500Y-164592000D03*
X59753500Y-163830000D03*
X67246500Y-163830000D03*
X72453500Y-163830000D03*
X75501500Y-165862000D03*
X77914500Y-164973000D03*
X117792500Y-152019000D03*
X191960500Y-146939000D03*
X191071500Y-146050000D03*
X182308500Y-152400000D03*
X179768500Y-152400000D03*
X177228500Y-152400000D03*
X174688500Y-152400000D03*
X172148500Y-152400000D03*
X169608500Y-152400000D03*
X167068500Y-152400000D03*
X164401500Y-152400000D03*
X161861500Y-152400000D03*
X159321500Y-152400000D03*
X142303500Y-158115000D03*
X96583500Y-173355000D03*
X112077500Y-172466000D03*
X95186500Y-172720000D03*
X112458500Y-171323000D03*
X205168500Y-162560000D03*
X203898500Y-162560000D03*
X200723500Y-162560000D03*
X199326500Y-162560000D03*
X192341500Y-162560000D03*
X191071500Y-162560000D03*
X215201500Y-170815000D03*
X216598500Y-170815000D03*
X217868500Y-170815000D03*
X217106500Y-149860000D03*
X222186500Y-149860000D03*
X217106500Y-151130000D03*
X222186500Y-151130000D03*
X233616500Y-183515000D03*
X209613500Y-171450000D03*
X203898500Y-172720000D03*
X181927500Y-164846000D03*
X182943500Y-175895000D03*
X217106500Y-182880000D03*
X212153500Y-189230000D03*
X206438500Y-189230000D03*
X205168500Y-183388000D03*
X198183500Y-179070000D03*
X203136500Y-187960000D03*
X199326500Y-186182000D03*
X196278500Y-186436000D03*
X190436500Y-177800000D03*
X192468500Y-180340000D03*
X189293500Y-183515000D03*
X190563500Y-183515000D03*
X196532500Y-190373000D03*
X189801500Y-190500000D03*
X186753500Y-181610000D03*
X184213500Y-182880000D03*
X184213500Y-187960000D03*
X183578500Y-189230000D03*
X175831500Y-182880000D03*
X169481500Y-182880000D03*
X164782500Y-186563000D03*
X159702500Y-179578000D03*
X147256500Y-178943000D03*
X94043500Y-178816000D03*
X93916500Y-181610000D03*
X115506500Y-191770000D03*
X112458500Y-182753000D03*
X110553500Y-182753000D03*
X103441500Y-182880000D03*
X101663500Y-182880000D03*
X112458500Y-187960000D03*
X110553500Y-187960000D03*
X103568500Y-187960000D03*
X101663500Y-187960000D03*
X101536500Y-192024000D03*
X103441500Y-193040000D03*
X95948500Y-193040000D03*
X89471500Y-186690000D03*
X88201500Y-179705000D03*
X86423500Y-177800000D03*
X71183500Y-177165000D03*
X69913500Y-177165000D03*
X65341500Y-178435000D03*
X68516500Y-177165000D03*
X68643500Y-181610000D03*
X72326500Y-181610000D03*
X82486500Y-181229000D03*
X83883500Y-182753000D03*
X84010500Y-186690000D03*
X78041500Y-186563000D03*
X69786500Y-186690000D03*
X72326500Y-186690000D03*
X66611500Y-186690000D03*
X82105500Y-187960000D03*
X69278500Y-187960000D03*
X72834500Y-190500000D03*
X53022500Y-182118000D03*
X54546500Y-183642000D03*
X21907500Y-183388000D03*
X20637500Y-182118000D03*
X53657500Y-189103000D03*
X49276000Y-189103000D03*
X16827500Y-189103000D03*
X32067500Y-177038000D03*
X37147500Y-177038000D03*
X260667500Y-195453000D03*
X257873500Y-205613000D03*
X243141500Y-205740000D03*
X248856500Y-205740000D03*
X238823500Y-205613000D03*
X237680500Y-205613000D03*
X238823500Y-199390000D03*
X237680500Y-199390000D03*
X243268500Y-198501000D03*
X248983500Y-198755000D03*
X252285500Y-198882000D03*
X255333500Y-209423000D03*
X248856500Y-202438000D03*
X243141500Y-201168000D03*
X248983500Y-196215000D03*
X243268500Y-194945000D03*
X236156500Y-191770000D03*
X233743500Y-187960000D03*
X233616500Y-205613000D03*
X219011500Y-205740000D03*
X224726500Y-205740000D03*
X213550500Y-205613000D03*
X214693500Y-205613000D03*
X214693500Y-199390000D03*
X213550500Y-199517000D03*
X219011500Y-198501000D03*
X224853500Y-198755000D03*
X228155500Y-198628000D03*
X231203500Y-209423000D03*
X231457500Y-199390000D03*
X224853500Y-202438000D03*
X219011500Y-201168000D03*
X224853500Y-196215000D03*
X219138500Y-194945000D03*
X213931500Y-193040000D03*
X212153500Y-193040000D03*
X209486500Y-205613000D03*
X200723500Y-205740000D03*
X194881500Y-205740000D03*
X190563500Y-205613000D03*
X189420500Y-205613000D03*
X190563500Y-199390000D03*
X189420500Y-199390000D03*
X195008500Y-198501000D03*
X200596500Y-198755000D03*
X207073500Y-209423000D03*
X207581500Y-199644000D03*
X204025500Y-198628000D03*
X200723500Y-202438000D03*
X195008500Y-201168000D03*
X200723500Y-196215000D03*
X195008500Y-194818000D03*
X187388500Y-193040000D03*
X163258500Y-191770000D03*
X184721500Y-205613000D03*
X175831500Y-205740000D03*
X170243500Y-205740000D03*
X165798500Y-205613000D03*
X164655500Y-205613000D03*
X164655500Y-199771000D03*
X165798500Y-199771000D03*
X170243500Y-198755000D03*
X175831500Y-198755000D03*
X179387500Y-198882000D03*
X182562500Y-199390000D03*
X182308500Y-209423000D03*
D18*
X168910000Y-202460000D03*
X171450000Y-205210000D03*
D10*
X175958500Y-202438000D03*
X170116500Y-201168000D03*
X175958500Y-196215000D03*
X170243500Y-194945000D03*
X159702500Y-191770000D03*
X160718500Y-205613000D03*
X151828500Y-205740000D03*
X145986500Y-205740000D03*
X141668500Y-205613000D03*
X140271500Y-205613000D03*
X141668500Y-199771000D03*
X140271500Y-199771000D03*
X145986500Y-198755000D03*
X151828500Y-199390000D03*
X155003500Y-198755000D03*
X158051500Y-199644000D03*
X158051500Y-209423000D03*
X151828500Y-202438000D03*
X146113500Y-201168000D03*
X151701500Y-196215000D03*
X145986500Y-194945000D03*
X133921500Y-205740000D03*
X136842500Y-205613000D03*
X132143500Y-208280000D03*
X127571500Y-205740000D03*
X121856500Y-205740000D03*
X117919500Y-205613000D03*
X116776500Y-205613000D03*
X117919500Y-199390000D03*
X116776500Y-199390000D03*
X121856500Y-198501000D03*
X127571500Y-199390000D03*
X131127500Y-198882000D03*
X127698500Y-202438000D03*
X121856500Y-201168000D03*
X127698500Y-196215000D03*
X121856500Y-194818000D03*
X106743500Y-198882000D03*
X113601500Y-198120000D03*
X112331500Y-205613000D03*
X109918500Y-209423000D03*
X103187500Y-205994000D03*
X97726500Y-205740000D03*
X93789500Y-205613000D03*
X92646500Y-205613000D03*
X93916500Y-199390000D03*
X92646500Y-199390000D03*
X103441500Y-199390000D03*
X97853500Y-198501000D03*
X103568500Y-202438000D03*
X97726500Y-201168000D03*
X103568500Y-196215000D03*
X97853500Y-194945000D03*
X88201500Y-208153000D03*
X85788500Y-209423000D03*
X82359500Y-198628000D03*
X66738500Y-193040000D03*
X68008500Y-205613000D03*
X69278500Y-205613000D03*
X69151500Y-199390000D03*
X67881500Y-199517000D03*
X79438500Y-196215000D03*
X73596500Y-194945000D03*
X73596500Y-201168000D03*
X79438500Y-202438000D03*
X73723500Y-198501000D03*
X79438500Y-199390000D03*
X79438500Y-205740000D03*
X73596500Y-205740000D03*
X61785500Y-199644000D03*
X58483500Y-197866000D03*
X43116500Y-193548000D03*
X55181500Y-199390000D03*
X45402500Y-205613000D03*
X44386500Y-199390000D03*
X45402500Y-199390000D03*
X49466500Y-198501000D03*
X49593500Y-205740000D03*
X55181500Y-205740000D03*
X64071500Y-208153000D03*
X55308500Y-196215000D03*
X49593500Y-194818000D03*
X49466500Y-201168000D03*
X55308500Y-202438000D03*
X61658500Y-209423000D03*
X31178500Y-196215000D03*
X25463500Y-194945000D03*
X25463500Y-198755000D03*
X31178500Y-199390000D03*
X34353500Y-197866000D03*
X25336500Y-201295000D03*
X31178500Y-201930000D03*
X25463500Y-205740000D03*
X31051500Y-205486000D03*
X40068500Y-205232000D03*
X37655500Y-199644000D03*
X37528500Y-209296000D03*
X251396500Y-222885000D03*
X255841500Y-233045000D03*
X243522500Y-218948000D03*
X218757500Y-218948000D03*
X227266500Y-222885000D03*
X231711500Y-233045000D03*
X195262500Y-218948000D03*
X203136500Y-222885000D03*
X207581500Y-233172000D03*
X170497500Y-218948000D03*
X178371500Y-222885000D03*
X182816500Y-233045000D03*
X146621500Y-218948000D03*
X154241500Y-222758000D03*
X158686500Y-233172000D03*
X122237500Y-219075000D03*
X130238500Y-223520000D03*
X134556500Y-232537000D03*
X98107500Y-219075000D03*
X105981500Y-223520000D03*
X110426500Y-232410000D03*
X73596500Y-219075000D03*
X81978500Y-223520000D03*
X86296500Y-232410000D03*
X57721500Y-223520000D03*
X49974500Y-219075000D03*
X62166500Y-232410000D03*
X25971500Y-219075000D03*
X33591500Y-223520000D03*
X37909500Y-232410000D03*
X248983500Y-245110000D03*
X221043500Y-245110000D03*
X198818500Y-245745000D03*
X175323500Y-245745000D03*
X152463500Y-245110000D03*
X125031500Y-245110000D03*
X101663500Y-245110000D03*
X78803500Y-245110000D03*
X55943500Y-245110000D03*
X245173500Y-246380000D03*
X217233500Y-246380000D03*
X194373500Y-246380000D03*
X171513500Y-246380000D03*
X148653500Y-246380000D03*
X120713500Y-246380000D03*
X97853500Y-246380000D03*
X74993500Y-246380000D03*
X52133500Y-246380000D03*
X24193500Y-246380000D03*
X28003500Y-245110000D03*
D19*
X44831000Y-180848000D03*
X47383700Y-183388000D03*
X44831000Y-185928000D03*
D20*
X51377500Y-188858000D03*
X55937500Y-188858000D03*
D21*
X53657500Y-182558000D03*
G36*
G01*
X41242500Y-190323000D02*
X41242500Y-191693000D01*
G75*
G02*
X40782500Y-192153000I-460000J0D01*
G01*
X39862500Y-192153000D01*
G75*
G02*
X39402500Y-191693000I0J460000D01*
G01*
X39402500Y-190323000D01*
G75*
G02*
X39862500Y-189863000I460000J0D01*
G01*
X40782500Y-189863000D01*
G75*
G02*
X41242500Y-190323000I0J-460000D01*
G01*
G37*
D22*
X37782500Y-191008000D03*
D23*
X187990000Y-121158000D03*
X221010000Y-121158000D03*
X205770000Y-121158000D03*
X182910000Y-121158000D03*
X198150000Y-121158000D03*
X195610000Y-121158000D03*
X208310000Y-121158000D03*
X210850000Y-121158000D03*
X200690000Y-121158000D03*
X223550000Y-121158000D03*
X190530000Y-121158000D03*
D24*
X175290000Y-121158000D03*
D23*
X203230000Y-121158000D03*
X215930000Y-121158000D03*
X193070000Y-121158000D03*
X213390000Y-121158000D03*
X218470000Y-121158000D03*
X177830000Y-121158000D03*
X185450000Y-121158000D03*
X180370000Y-121158000D03*
D11*
X123600000Y-88138000D03*
X231203500Y-66040000D03*
X62230000Y-43180000D03*
X210185000Y-222250000D03*
X64770000Y-222250000D03*
D25*
X35781000Y-162295000D03*
X38321000Y-162295000D03*
X40861000Y-162295000D03*
X43401000Y-162295000D03*
X45941000Y-162295000D03*
X48481000Y-162295000D03*
X35781000Y-159755000D03*
X38321000Y-159755000D03*
X40861000Y-159755000D03*
X43401000Y-159755000D03*
X45941000Y-159755000D03*
X48481000Y-159755000D03*
X51021000Y-162295000D03*
X51021000Y-159755000D03*
X53561000Y-162295000D03*
X56101000Y-162295000D03*
X58641000Y-162295000D03*
X61181000Y-162295000D03*
X63721000Y-162295000D03*
X66261000Y-162295000D03*
X53561000Y-159755000D03*
X56101000Y-159755000D03*
X58641000Y-159755000D03*
X61181000Y-159755000D03*
X63721000Y-159755000D03*
X66261000Y-159755000D03*
X68801000Y-162295000D03*
X68801000Y-159755000D03*
X71341000Y-162295000D03*
X73881000Y-162295000D03*
X76421000Y-162295000D03*
X78961000Y-162295000D03*
X81501000Y-162295000D03*
X84041000Y-162295000D03*
X71341000Y-159755000D03*
X73881000Y-159755000D03*
X76421000Y-159755000D03*
X78961000Y-159755000D03*
X81501000Y-159755000D03*
D26*
X84041000Y-159755000D03*
D27*
X88911000Y-161025000D03*
X30911000Y-161025000D03*
X30911000Y-112025000D03*
X88911000Y-112025000D03*
D19*
X12763500Y-180848000D03*
X15316200Y-183388000D03*
X12763500Y-185928000D03*
D20*
X19310000Y-188985000D03*
X23870000Y-188985000D03*
D21*
X21590000Y-182685000D03*
G36*
G01*
X32352500Y-190323000D02*
X32352500Y-191693000D01*
G75*
G02*
X31892500Y-192153000I-460000J0D01*
G01*
X30972500Y-192153000D01*
G75*
G02*
X30512500Y-191693000I0J460000D01*
G01*
X30512500Y-190323000D01*
G75*
G02*
X30972500Y-189863000I460000J0D01*
G01*
X31892500Y-189863000D01*
G75*
G02*
X32352500Y-190323000I0J-460000D01*
G01*
G37*
D22*
X28892500Y-191008000D03*
D11*
X235585000Y-246380000D03*
X41910000Y-246380000D03*
X138430000Y-246380000D03*
X15875000Y-66040000D03*
X15875000Y-213360000D03*
X261620000Y-213360000D03*
X261620000Y-66040000D03*
D28*
X79933000Y-89154000D03*
X85013000Y-89154000D03*
D24*
X77393000Y-89154000D03*
D28*
X82473000Y-89154000D03*
D11*
X100965000Y-86995000D03*
X92710000Y-86995000D03*
X183515000Y-98933000D03*
X213995000Y-156210000D03*
X53657500Y-102108000D03*
X235585000Y-33020000D03*
X41910000Y-33020000D03*
X123600000Y-165608000D03*
X15875000Y-102108000D03*
X15875000Y-170180000D03*
X15875000Y-246380000D03*
X261620000Y-246380000D03*
X261620000Y-33020000D03*
X15875000Y-33020000D03*
X230915000Y-165608000D03*
X99060000Y-156210000D03*
X230915000Y-88138000D03*
D25*
X71247000Y-172720000D03*
X73787000Y-172720000D03*
X35687000Y-172720000D03*
X63627000Y-172720000D03*
X81407000Y-170180000D03*
X43307000Y-172720000D03*
X48387000Y-170180000D03*
X68707000Y-172720000D03*
X53467000Y-170180000D03*
X38227000Y-172720000D03*
X61087000Y-172720000D03*
X73787000Y-170180000D03*
D26*
X83947000Y-170180000D03*
D25*
X58547000Y-172720000D03*
X56007000Y-172720000D03*
X66167000Y-170180000D03*
X68707000Y-170180000D03*
X45847000Y-172720000D03*
X50927000Y-172720000D03*
X48387000Y-172720000D03*
X56007000Y-170180000D03*
X40767000Y-172720000D03*
X43307000Y-170180000D03*
X76327000Y-170180000D03*
X35687000Y-170180000D03*
X40767000Y-170180000D03*
X76327000Y-172720000D03*
X78867000Y-172720000D03*
X83947000Y-172720000D03*
X50927000Y-170180000D03*
X81407000Y-172720000D03*
X45847000Y-170180000D03*
X58547000Y-170180000D03*
X78867000Y-170180000D03*
X66167000Y-172720000D03*
X61087000Y-170180000D03*
X71247000Y-170180000D03*
X53467000Y-172720000D03*
X38227000Y-170180000D03*
X63627000Y-170180000D03*
D29*
X158750000Y-167640000D03*
X166370000Y-167640000D03*
X168910000Y-167640000D03*
X173990000Y-167640000D03*
X140970000Y-160020000D03*
X146050000Y-167640000D03*
X156210000Y-160020000D03*
X156210000Y-167640000D03*
X148590000Y-160020000D03*
X171450000Y-167640000D03*
X158750000Y-160020000D03*
X163830000Y-160020000D03*
X171450000Y-160020000D03*
X143510000Y-167640000D03*
X161290000Y-160020000D03*
X151130000Y-167640000D03*
X153670000Y-167640000D03*
X153670000Y-160020000D03*
X163830000Y-167640000D03*
X166370000Y-160020000D03*
X173990000Y-160020000D03*
X151130000Y-160020000D03*
X168910000Y-160020000D03*
X148590000Y-167640000D03*
X161290000Y-167640000D03*
D30*
X140970000Y-167640000D03*
D29*
X146050000Y-160020000D03*
X143510000Y-160020000D03*
D31*
X159385000Y-149845000D03*
X159385000Y-144795000D03*
X169545000Y-149845000D03*
X182245000Y-144795000D03*
X172085000Y-144795000D03*
X174625000Y-149845000D03*
X164465000Y-144795000D03*
X179705000Y-149845000D03*
X169545000Y-144795000D03*
X182245000Y-149845000D03*
X161925000Y-149845000D03*
D32*
X161925000Y-144795000D03*
D31*
X167005000Y-144795000D03*
X177165000Y-149845000D03*
X172085000Y-149845000D03*
X167005000Y-149845000D03*
X177165000Y-144795000D03*
X174625000Y-144795000D03*
X179705000Y-144795000D03*
X164465000Y-149845000D03*
X132080000Y-149845000D03*
X132080000Y-144795000D03*
X142240000Y-149845000D03*
X154940000Y-144795000D03*
X144780000Y-144795000D03*
X147320000Y-149845000D03*
X137160000Y-144795000D03*
X152400000Y-149845000D03*
X142240000Y-144795000D03*
X154940000Y-149845000D03*
X134620000Y-149845000D03*
D32*
X134620000Y-144795000D03*
D31*
X139700000Y-144795000D03*
X149860000Y-149845000D03*
X144780000Y-149845000D03*
X139700000Y-149845000D03*
X149860000Y-144795000D03*
X147320000Y-144795000D03*
X152400000Y-144795000D03*
X137160000Y-149845000D03*
D33*
X226422500Y-139300000D03*
X220617500Y-142550000D03*
X220617500Y-140600000D03*
X226422500Y-140600000D03*
X226422500Y-141250000D03*
X226422500Y-139950000D03*
X220617500Y-144500000D03*
X220617500Y-141900000D03*
X226422500Y-138650000D03*
X226422500Y-144500000D03*
X226422500Y-143200000D03*
X220617500Y-139950000D03*
X220617500Y-139300000D03*
X220617500Y-141250000D03*
X226422500Y-142550000D03*
X220617500Y-143850000D03*
X226422500Y-143850000D03*
X226422500Y-141900000D03*
X220617500Y-138650000D03*
X220617500Y-143200000D03*
D34*
X163833000Y-125730000D03*
X164976000Y-125730000D03*
X162690000Y-125730000D03*
X166110000Y-125730000D03*
X161544000Y-125730000D03*
D21*
X163830000Y-117915000D03*
D34*
X118113000Y-125730000D03*
X119256000Y-125730000D03*
X116970000Y-125730000D03*
X120390000Y-125730000D03*
X115824000Y-125730000D03*
D21*
X118110000Y-117915000D03*
D16*
X33972500Y-93472000D03*
X33972500Y-85344000D03*
D35*
X33909000Y-43815000D03*
X25781000Y-43815000D03*
D36*
X54465000Y-52410000D03*
X54465000Y-51760000D03*
X54465000Y-53060000D03*
X54465000Y-51110000D03*
X54465000Y-49810000D03*
X50165000Y-50460000D03*
X50165000Y-51110000D03*
X50165000Y-51760000D03*
X54465000Y-50460000D03*
X50165000Y-49810000D03*
X50165000Y-53060000D03*
X50165000Y-52410000D03*
D35*
X61531500Y-87630000D03*
X53403500Y-87630000D03*
X53594000Y-43815000D03*
X45466000Y-43815000D03*
D36*
X100185000Y-52410000D03*
X100185000Y-51760000D03*
X100185000Y-53060000D03*
X100185000Y-51110000D03*
X100185000Y-49810000D03*
X95885000Y-50460000D03*
X95885000Y-51110000D03*
X95885000Y-51760000D03*
X100185000Y-50460000D03*
X95885000Y-49810000D03*
X95885000Y-53060000D03*
X95885000Y-52410000D03*
D35*
X120205500Y-66802000D03*
X112077500Y-66802000D03*
X99314000Y-43815000D03*
X91186000Y-43815000D03*
D36*
X79865000Y-52410000D03*
X79865000Y-51760000D03*
X79865000Y-53060000D03*
X79865000Y-51110000D03*
X79865000Y-49810000D03*
X75565000Y-50460000D03*
X75565000Y-51110000D03*
X75565000Y-51760000D03*
X79865000Y-50460000D03*
X75565000Y-49810000D03*
X75565000Y-53060000D03*
X75565000Y-52410000D03*
D35*
X119951500Y-76200000D03*
X111823500Y-76200000D03*
X78994000Y-43815000D03*
X70866000Y-43815000D03*
X245745000Y-86106000D03*
X237617000Y-86106000D03*
X252349000Y-43180000D03*
X244221000Y-43180000D03*
D36*
X249800000Y-51775000D03*
X249800000Y-51125000D03*
X249800000Y-52425000D03*
X249800000Y-50475000D03*
X249800000Y-49175000D03*
X245500000Y-49825000D03*
X245500000Y-50475000D03*
X245500000Y-51125000D03*
X249800000Y-49825000D03*
X245500000Y-49175000D03*
X245500000Y-52425000D03*
X245500000Y-51775000D03*
D15*
G36*
X256225000Y-168210000D02*
G01*
X258125000Y-168210000D01*
X258125000Y-169610000D01*
X256225000Y-169610000D01*
X256225000Y-168210000D01*
G37*
G36*
X256225000Y-165670000D02*
G01*
X258125000Y-165670000D01*
X258125000Y-167070000D01*
X256225000Y-167070000D01*
X256225000Y-165670000D01*
G37*
D37*
X253365000Y-209460000D03*
X253365000Y-210910000D03*
D18*
X217805000Y-196110000D03*
X220345000Y-198860000D03*
D37*
X180340000Y-209460000D03*
X180340000Y-210910000D03*
D18*
X174625000Y-202460000D03*
X177165000Y-205210000D03*
D15*
G36*
X164847500Y-137353000D02*
G01*
X164847500Y-139253000D01*
X163447500Y-139253000D01*
X163447500Y-137353000D01*
X164847500Y-137353000D01*
G37*
G36*
X167387500Y-137353000D02*
G01*
X167387500Y-139253000D01*
X165987500Y-139253000D01*
X165987500Y-137353000D01*
X167387500Y-137353000D01*
G37*
D37*
X107950000Y-209460000D03*
X107950000Y-210910000D03*
D18*
X96520000Y-202460000D03*
X99060000Y-205210000D03*
X102235000Y-202460000D03*
X104775000Y-205210000D03*
X253365000Y-165630000D03*
X248285000Y-165630000D03*
X250825000Y-168380000D03*
X24130000Y-202460000D03*
X26670000Y-205210000D03*
X29845000Y-202460000D03*
X32385000Y-205210000D03*
X67945000Y-186795000D03*
X65405000Y-184045000D03*
D38*
X24640000Y-215900000D03*
X28280000Y-215900000D03*
D39*
X35560000Y-215900000D03*
D38*
X31920000Y-215900000D03*
X24640000Y-233045000D03*
X28280000Y-233045000D03*
D39*
X35560000Y-233045000D03*
D38*
X31920000Y-233045000D03*
D12*
X263525000Y-79375000D03*
D13*
X263525000Y-74295000D03*
D40*
X244450000Y-154305000D03*
X238150000Y-155575000D03*
X244450000Y-156845000D03*
X244450000Y-155575000D03*
X238150000Y-156845000D03*
X238150000Y-154305000D03*
X244450000Y-93345000D03*
X238150000Y-94615000D03*
X244450000Y-95885000D03*
X244450000Y-94615000D03*
X238150000Y-95885000D03*
X238150000Y-93345000D03*
X244450000Y-169545000D03*
X238150000Y-170815000D03*
X244450000Y-172085000D03*
X244450000Y-170815000D03*
X238150000Y-172085000D03*
X238150000Y-169545000D03*
X244450000Y-139065000D03*
X238150000Y-140335000D03*
X244450000Y-141605000D03*
X244450000Y-140335000D03*
X238150000Y-141605000D03*
X238150000Y-139065000D03*
X244450000Y-123825000D03*
X238150000Y-125095000D03*
X244450000Y-126365000D03*
X244450000Y-125095000D03*
X238150000Y-126365000D03*
X238150000Y-123825000D03*
X244450000Y-108585000D03*
X238150000Y-109855000D03*
X244450000Y-111125000D03*
X244450000Y-109855000D03*
X238150000Y-111125000D03*
X238150000Y-108585000D03*
D41*
X193675000Y-78080000D03*
X192405000Y-71780000D03*
X191135000Y-78080000D03*
X192405000Y-78080000D03*
X191135000Y-71780000D03*
X193675000Y-71780000D03*
X224155000Y-78080000D03*
X222885000Y-71780000D03*
X221615000Y-78080000D03*
X222885000Y-78080000D03*
X221615000Y-71780000D03*
X224155000Y-71780000D03*
X203835000Y-78080000D03*
X202565000Y-71780000D03*
X201295000Y-78080000D03*
X202565000Y-78080000D03*
X201295000Y-71780000D03*
X203835000Y-71780000D03*
X213995000Y-78080000D03*
X212725000Y-71780000D03*
X211455000Y-78080000D03*
X212725000Y-78080000D03*
X211455000Y-71780000D03*
X213995000Y-71780000D03*
X163195000Y-78080000D03*
X161925000Y-71780000D03*
X160655000Y-78080000D03*
X161925000Y-78080000D03*
X160655000Y-71780000D03*
X163195000Y-71780000D03*
X173355000Y-78080000D03*
X172085000Y-71780000D03*
X170815000Y-78080000D03*
X172085000Y-78080000D03*
X170815000Y-71780000D03*
X173355000Y-71780000D03*
X153035000Y-78080000D03*
X151765000Y-71780000D03*
X150495000Y-78080000D03*
X151765000Y-78080000D03*
X150495000Y-71780000D03*
X153035000Y-71780000D03*
X183515000Y-78080000D03*
X182245000Y-71780000D03*
X180975000Y-78080000D03*
X182245000Y-78080000D03*
X180975000Y-71780000D03*
X183515000Y-71780000D03*
X142875000Y-78080000D03*
X141605000Y-71780000D03*
X140335000Y-78080000D03*
X141605000Y-78080000D03*
X140335000Y-71780000D03*
X142875000Y-71780000D03*
X132715000Y-78080000D03*
X131445000Y-71780000D03*
X130175000Y-78080000D03*
X131445000Y-78080000D03*
X130175000Y-71780000D03*
X132715000Y-71780000D03*
D33*
X165412500Y-100345000D03*
D15*
G36*
X164362500Y-101945000D02*
G01*
X164362500Y-101345000D01*
X166462500Y-101345000D01*
X166462500Y-101945000D01*
X164362500Y-101945000D01*
G37*
D33*
X171137500Y-99695000D03*
X165412500Y-100995000D03*
X165412500Y-99045000D03*
X171137500Y-99045000D03*
X171137500Y-100995000D03*
X165412500Y-97745000D03*
X165412500Y-98395000D03*
X165412500Y-99695000D03*
X171137500Y-100345000D03*
X171137500Y-98395000D03*
X171137500Y-101645000D03*
X171137500Y-97745000D03*
X195892500Y-100345000D03*
D15*
G36*
X194842500Y-101945000D02*
G01*
X194842500Y-101345000D01*
X196942500Y-101345000D01*
X196942500Y-101945000D01*
X194842500Y-101945000D01*
G37*
D33*
X201617500Y-99695000D03*
X195892500Y-100995000D03*
X195892500Y-99045000D03*
X201617500Y-99045000D03*
X201617500Y-100995000D03*
X195892500Y-97745000D03*
X195892500Y-98395000D03*
X195892500Y-99695000D03*
X201617500Y-100345000D03*
X201617500Y-98395000D03*
X201617500Y-101645000D03*
X201617500Y-97745000D03*
X216212500Y-100345000D03*
D15*
G36*
X215162500Y-101945000D02*
G01*
X215162500Y-101345000D01*
X217262500Y-101345000D01*
X217262500Y-101945000D01*
X215162500Y-101945000D01*
G37*
D33*
X221937500Y-99695000D03*
X216212500Y-100995000D03*
X216212500Y-99045000D03*
X221937500Y-99045000D03*
X221937500Y-100995000D03*
X216212500Y-97745000D03*
X216212500Y-98395000D03*
X216212500Y-99695000D03*
X221937500Y-100345000D03*
X221937500Y-98395000D03*
X221937500Y-101645000D03*
X221937500Y-97745000D03*
X134932500Y-100345000D03*
D15*
G36*
X133882500Y-101945000D02*
G01*
X133882500Y-101345000D01*
X135982500Y-101345000D01*
X135982500Y-101945000D01*
X133882500Y-101945000D01*
G37*
D33*
X140657500Y-99695000D03*
X134932500Y-100995000D03*
X134932500Y-99045000D03*
X140657500Y-99045000D03*
X140657500Y-100995000D03*
X134932500Y-97745000D03*
X134932500Y-98395000D03*
X134932500Y-99695000D03*
X140657500Y-100345000D03*
X140657500Y-98395000D03*
X140657500Y-101645000D03*
X140657500Y-97745000D03*
D36*
X33900000Y-52410000D03*
X33900000Y-51760000D03*
X33900000Y-53060000D03*
X33900000Y-51110000D03*
X33900000Y-49810000D03*
X29600000Y-50460000D03*
X29600000Y-51110000D03*
X29600000Y-51760000D03*
X33900000Y-50460000D03*
X29600000Y-49810000D03*
X29600000Y-53060000D03*
X29600000Y-52410000D03*
D15*
G36*
X105407500Y-145353000D02*
G01*
X103507500Y-145353000D01*
X103507500Y-143953000D01*
X105407500Y-143953000D01*
X105407500Y-145353000D01*
G37*
G36*
X105407500Y-147893000D02*
G01*
X103507500Y-147893000D01*
X103507500Y-146493000D01*
X105407500Y-146493000D01*
X105407500Y-147893000D01*
G37*
G36*
X113027500Y-145353000D02*
G01*
X111127500Y-145353000D01*
X111127500Y-143953000D01*
X113027500Y-143953000D01*
X113027500Y-145353000D01*
G37*
G36*
X113027500Y-147893000D02*
G01*
X111127500Y-147893000D01*
X111127500Y-146493000D01*
X113027500Y-146493000D01*
X113027500Y-147893000D01*
G37*
G36*
X256225000Y-152970000D02*
G01*
X258125000Y-152970000D01*
X258125000Y-154370000D01*
X256225000Y-154370000D01*
X256225000Y-152970000D01*
G37*
G36*
X256225000Y-150430000D02*
G01*
X258125000Y-150430000D01*
X258125000Y-151830000D01*
X256225000Y-151830000D01*
X256225000Y-150430000D01*
G37*
G36*
X256225000Y-92010000D02*
G01*
X258125000Y-92010000D01*
X258125000Y-93410000D01*
X256225000Y-93410000D01*
X256225000Y-92010000D01*
G37*
G36*
X256225000Y-89470000D02*
G01*
X258125000Y-89470000D01*
X258125000Y-90870000D01*
X256225000Y-90870000D01*
X256225000Y-89470000D01*
G37*
G36*
X256225000Y-137730000D02*
G01*
X258125000Y-137730000D01*
X258125000Y-139130000D01*
X256225000Y-139130000D01*
X256225000Y-137730000D01*
G37*
G36*
X256225000Y-135190000D02*
G01*
X258125000Y-135190000D01*
X258125000Y-136590000D01*
X256225000Y-136590000D01*
X256225000Y-135190000D01*
G37*
G36*
X256225000Y-122490000D02*
G01*
X258125000Y-122490000D01*
X258125000Y-123890000D01*
X256225000Y-123890000D01*
X256225000Y-122490000D01*
G37*
G36*
X256225000Y-119950000D02*
G01*
X258125000Y-119950000D01*
X258125000Y-121350000D01*
X256225000Y-121350000D01*
X256225000Y-119950000D01*
G37*
G36*
X256225000Y-159320000D02*
G01*
X258125000Y-159320000D01*
X258125000Y-160720000D01*
X256225000Y-160720000D01*
X256225000Y-159320000D01*
G37*
G36*
X256225000Y-156780000D02*
G01*
X258125000Y-156780000D01*
X258125000Y-158180000D01*
X256225000Y-158180000D01*
X256225000Y-156780000D01*
G37*
G36*
X256225000Y-98360000D02*
G01*
X258125000Y-98360000D01*
X258125000Y-99760000D01*
X256225000Y-99760000D01*
X256225000Y-98360000D01*
G37*
G36*
X256225000Y-95820000D02*
G01*
X258125000Y-95820000D01*
X258125000Y-97220000D01*
X256225000Y-97220000D01*
X256225000Y-95820000D01*
G37*
G36*
X256225000Y-107250000D02*
G01*
X258125000Y-107250000D01*
X258125000Y-108650000D01*
X256225000Y-108650000D01*
X256225000Y-107250000D01*
G37*
G36*
X256225000Y-104710000D02*
G01*
X258125000Y-104710000D01*
X258125000Y-106110000D01*
X256225000Y-106110000D01*
X256225000Y-104710000D01*
G37*
G36*
X256225000Y-174560000D02*
G01*
X258125000Y-174560000D01*
X258125000Y-175960000D01*
X256225000Y-175960000D01*
X256225000Y-174560000D01*
G37*
G36*
X256225000Y-172020000D02*
G01*
X258125000Y-172020000D01*
X258125000Y-173420000D01*
X256225000Y-173420000D01*
X256225000Y-172020000D01*
G37*
G36*
X256225000Y-144080000D02*
G01*
X258125000Y-144080000D01*
X258125000Y-145480000D01*
X256225000Y-145480000D01*
X256225000Y-144080000D01*
G37*
G36*
X256225000Y-141540000D02*
G01*
X258125000Y-141540000D01*
X258125000Y-142940000D01*
X256225000Y-142940000D01*
X256225000Y-141540000D01*
G37*
G36*
X256225000Y-128840000D02*
G01*
X258125000Y-128840000D01*
X258125000Y-130240000D01*
X256225000Y-130240000D01*
X256225000Y-128840000D01*
G37*
G36*
X256225000Y-126300000D02*
G01*
X258125000Y-126300000D01*
X258125000Y-127700000D01*
X256225000Y-127700000D01*
X256225000Y-126300000D01*
G37*
G36*
X256225000Y-113600000D02*
G01*
X258125000Y-113600000D01*
X258125000Y-115000000D01*
X256225000Y-115000000D01*
X256225000Y-113600000D01*
G37*
G36*
X256225000Y-111060000D02*
G01*
X258125000Y-111060000D01*
X258125000Y-112460000D01*
X256225000Y-112460000D01*
X256225000Y-111060000D01*
G37*
G36*
X222950000Y-145735000D02*
G01*
X222950000Y-147635000D01*
X221550000Y-147635000D01*
X221550000Y-145735000D01*
X222950000Y-145735000D01*
G37*
G36*
X225490000Y-145735000D02*
G01*
X225490000Y-147635000D01*
X224090000Y-147635000D01*
X224090000Y-145735000D01*
X225490000Y-145735000D01*
G37*
G36*
X84140000Y-181545000D02*
G01*
X86040000Y-181545000D01*
X86040000Y-182945000D01*
X84140000Y-182945000D01*
X84140000Y-181545000D01*
G37*
G36*
X84140000Y-179005000D02*
G01*
X86040000Y-179005000D01*
X86040000Y-180405000D01*
X84140000Y-180405000D01*
X84140000Y-179005000D01*
G37*
G36*
X205420000Y-190565000D02*
G01*
X203520000Y-190565000D01*
X203520000Y-189165000D01*
X205420000Y-189165000D01*
X205420000Y-190565000D01*
G37*
G36*
X205420000Y-193105000D02*
G01*
X203520000Y-193105000D01*
X203520000Y-191705000D01*
X205420000Y-191705000D01*
X205420000Y-193105000D01*
G37*
G36*
X107567500Y-95946000D02*
G01*
X107567500Y-94046000D01*
X108967500Y-94046000D01*
X108967500Y-95946000D01*
X107567500Y-95946000D01*
G37*
G36*
X105027500Y-95946000D02*
G01*
X105027500Y-94046000D01*
X106427500Y-94046000D01*
X106427500Y-95946000D01*
X105027500Y-95946000D01*
G37*
G36*
X113155500Y-95946000D02*
G01*
X113155500Y-94046000D01*
X114555500Y-94046000D01*
X114555500Y-95946000D01*
X113155500Y-95946000D01*
G37*
G36*
X110615500Y-95946000D02*
G01*
X110615500Y-94046000D01*
X112015500Y-94046000D01*
X112015500Y-95946000D01*
X110615500Y-95946000D01*
G37*
G36*
X118743500Y-95946000D02*
G01*
X118743500Y-94046000D01*
X120143500Y-94046000D01*
X120143500Y-95946000D01*
X118743500Y-95946000D01*
G37*
G36*
X116203500Y-95946000D02*
G01*
X116203500Y-94046000D01*
X117603500Y-94046000D01*
X117603500Y-95946000D01*
X116203500Y-95946000D01*
G37*
G36*
X145350000Y-102550000D02*
G01*
X145350000Y-100650000D01*
X146750000Y-100650000D01*
X146750000Y-102550000D01*
X145350000Y-102550000D01*
G37*
G36*
X142810000Y-102550000D02*
G01*
X142810000Y-100650000D01*
X144210000Y-100650000D01*
X144210000Y-102550000D01*
X142810000Y-102550000D01*
G37*
G36*
X161673500Y-185990000D02*
G01*
X163573500Y-185990000D01*
X163573500Y-187390000D01*
X161673500Y-187390000D01*
X161673500Y-185990000D01*
G37*
G36*
X161673500Y-183450000D02*
G01*
X163573500Y-183450000D01*
X163573500Y-184850000D01*
X161673500Y-184850000D01*
X161673500Y-183450000D01*
G37*
G36*
X164400000Y-171130000D02*
G01*
X164400000Y-169230000D01*
X165800000Y-169230000D01*
X165800000Y-171130000D01*
X164400000Y-171130000D01*
G37*
G36*
X161860000Y-171130000D02*
G01*
X161860000Y-169230000D01*
X163260000Y-169230000D01*
X163260000Y-171130000D01*
X161860000Y-171130000D01*
G37*
G36*
X104455000Y-52135000D02*
G01*
X102555000Y-52135000D01*
X102555000Y-50735000D01*
X104455000Y-50735000D01*
X104455000Y-52135000D01*
G37*
G36*
X104455000Y-54675000D02*
G01*
X102555000Y-54675000D01*
X102555000Y-53275000D01*
X104455000Y-53275000D01*
X104455000Y-54675000D01*
G37*
G36*
X97220000Y-36515000D02*
G01*
X97220000Y-38415000D01*
X95820000Y-38415000D01*
X95820000Y-36515000D01*
X97220000Y-36515000D01*
G37*
G36*
X99760000Y-36515000D02*
G01*
X99760000Y-38415000D01*
X98360000Y-38415000D01*
X98360000Y-36515000D01*
X99760000Y-36515000D01*
G37*
G36*
X254315000Y-51500000D02*
G01*
X252415000Y-51500000D01*
X252415000Y-50100000D01*
X254315000Y-50100000D01*
X254315000Y-51500000D01*
G37*
G36*
X254315000Y-54040000D02*
G01*
X252415000Y-54040000D01*
X252415000Y-52640000D01*
X254315000Y-52640000D01*
X254315000Y-54040000D01*
G37*
G36*
X58735000Y-52135000D02*
G01*
X56835000Y-52135000D01*
X56835000Y-50735000D01*
X58735000Y-50735000D01*
X58735000Y-52135000D01*
G37*
G36*
X58735000Y-54675000D02*
G01*
X56835000Y-54675000D01*
X56835000Y-53275000D01*
X58735000Y-53275000D01*
X58735000Y-54675000D01*
G37*
G36*
X38415000Y-52135000D02*
G01*
X36515000Y-52135000D01*
X36515000Y-50735000D01*
X38415000Y-50735000D01*
X38415000Y-52135000D01*
G37*
G36*
X38415000Y-54675000D02*
G01*
X36515000Y-54675000D01*
X36515000Y-53275000D01*
X38415000Y-53275000D01*
X38415000Y-54675000D01*
G37*
G36*
X84135000Y-52135000D02*
G01*
X82235000Y-52135000D01*
X82235000Y-50735000D01*
X84135000Y-50735000D01*
X84135000Y-52135000D01*
G37*
G36*
X84135000Y-54675000D02*
G01*
X82235000Y-54675000D01*
X82235000Y-53275000D01*
X84135000Y-53275000D01*
X84135000Y-54675000D01*
G37*
G36*
X250890000Y-36515000D02*
G01*
X250890000Y-38415000D01*
X249490000Y-38415000D01*
X249490000Y-36515000D01*
X250890000Y-36515000D01*
G37*
G36*
X253430000Y-36515000D02*
G01*
X253430000Y-38415000D01*
X252030000Y-38415000D01*
X252030000Y-36515000D01*
X253430000Y-36515000D01*
G37*
G36*
X54925000Y-35625000D02*
G01*
X53025000Y-35625000D01*
X53025000Y-34225000D01*
X54925000Y-34225000D01*
X54925000Y-35625000D01*
G37*
G36*
X54925000Y-38165000D02*
G01*
X53025000Y-38165000D01*
X53025000Y-36765000D01*
X54925000Y-36765000D01*
X54925000Y-38165000D01*
G37*
G36*
X26605000Y-38415000D02*
G01*
X26605000Y-36515000D01*
X28005000Y-36515000D01*
X28005000Y-38415000D01*
X26605000Y-38415000D01*
G37*
G36*
X24065000Y-38415000D02*
G01*
X24065000Y-36515000D01*
X25465000Y-36515000D01*
X25465000Y-38415000D01*
X24065000Y-38415000D01*
G37*
G36*
X76900000Y-36515000D02*
G01*
X76900000Y-38415000D01*
X75500000Y-38415000D01*
X75500000Y-36515000D01*
X76900000Y-36515000D01*
G37*
G36*
X79440000Y-36515000D02*
G01*
X79440000Y-38415000D01*
X78040000Y-38415000D01*
X78040000Y-36515000D01*
X79440000Y-36515000D01*
G37*
D20*
X190125000Y-47380000D03*
X194685000Y-47380000D03*
D21*
X192405000Y-41080000D03*
D20*
X220605000Y-47380000D03*
X225165000Y-47380000D03*
D21*
X222885000Y-41080000D03*
D20*
X200285000Y-47380000D03*
X204845000Y-47380000D03*
D21*
X202565000Y-41080000D03*
D20*
X210445000Y-47380000D03*
X215005000Y-47380000D03*
D21*
X212725000Y-41080000D03*
D14*
X107063500Y-86192000D03*
X108013500Y-88392000D03*
X106113500Y-88392000D03*
X112519500Y-86176000D03*
X113469500Y-88376000D03*
X111569500Y-88376000D03*
X118107500Y-86192000D03*
X119057500Y-88392000D03*
X117157500Y-88392000D03*
X106997500Y-90494000D03*
X107947500Y-92694000D03*
X106047500Y-92694000D03*
X112397500Y-90510000D03*
X113347500Y-92710000D03*
X111447500Y-92710000D03*
X118107500Y-90510000D03*
X119057500Y-92710000D03*
X117157500Y-92710000D03*
D20*
X159645000Y-47380000D03*
X164205000Y-47380000D03*
D21*
X161925000Y-41080000D03*
D20*
X169805000Y-47380000D03*
X174365000Y-47380000D03*
D21*
X172085000Y-41080000D03*
D20*
X149485000Y-47380000D03*
X154045000Y-47380000D03*
D21*
X151765000Y-41080000D03*
D20*
X179965000Y-47380000D03*
X184525000Y-47380000D03*
D21*
X182245000Y-41080000D03*
D20*
X139325000Y-47380000D03*
X143885000Y-47380000D03*
D21*
X141605000Y-41080000D03*
D20*
X129165000Y-47380000D03*
X133725000Y-47380000D03*
D21*
X131445000Y-41080000D03*
D14*
X98425000Y-57080000D03*
X97475000Y-54880000D03*
X99375000Y-54880000D03*
D42*
X99260000Y-76200000D03*
D43*
X90110000Y-78740000D03*
X90110000Y-73660000D03*
D42*
X99260000Y-64135000D03*
D43*
X90110000Y-66675000D03*
X90110000Y-61595000D03*
D14*
X247650000Y-56515000D03*
X246700000Y-54315000D03*
X248600000Y-54315000D03*
X52070000Y-57080000D03*
X51120000Y-54880000D03*
X53020000Y-54880000D03*
X31115000Y-57080000D03*
X30165000Y-54880000D03*
X32065000Y-54880000D03*
X77785000Y-57080000D03*
X76835000Y-54880000D03*
X78735000Y-54880000D03*
D42*
X249120000Y-75800000D03*
D43*
X239970000Y-78340000D03*
X239970000Y-73260000D03*
D42*
X54175000Y-76200000D03*
D43*
X45025000Y-78740000D03*
X45025000Y-73660000D03*
D42*
X33655000Y-76200000D03*
D43*
X24505000Y-78740000D03*
X24505000Y-73660000D03*
D42*
X78940000Y-76200000D03*
D43*
X69790000Y-78740000D03*
X69790000Y-73660000D03*
D42*
X249120000Y-63500000D03*
D43*
X239970000Y-66040000D03*
X239970000Y-60960000D03*
D42*
X54175000Y-64135000D03*
D43*
X45025000Y-66675000D03*
X45025000Y-61595000D03*
D42*
X33770000Y-64135000D03*
D43*
X24620000Y-66675000D03*
X24620000Y-61595000D03*
D42*
X78940000Y-64135000D03*
D43*
X69790000Y-66675000D03*
X69790000Y-61595000D03*
D18*
X248285000Y-160760000D03*
X253365000Y-160760000D03*
X250825000Y-158010000D03*
X253365000Y-150390000D03*
X248285000Y-150390000D03*
X250825000Y-153140000D03*
X248285000Y-99800000D03*
X253365000Y-99800000D03*
X250825000Y-97050000D03*
X253365000Y-89811000D03*
X248285000Y-89811000D03*
X250825000Y-92561000D03*
X248285000Y-176000000D03*
X253365000Y-176000000D03*
X250825000Y-173250000D03*
X248285000Y-145520000D03*
X253365000Y-145520000D03*
X250825000Y-142770000D03*
X253365000Y-135150000D03*
X248285000Y-135150000D03*
X250825000Y-137900000D03*
X248285000Y-130280000D03*
X253365000Y-130280000D03*
X250825000Y-127530000D03*
X253365000Y-119910000D03*
X248285000Y-119910000D03*
X250825000Y-122660000D03*
X248285000Y-115040000D03*
X253365000Y-115040000D03*
X250825000Y-112290000D03*
X253365000Y-104670000D03*
X248285000Y-104670000D03*
X250825000Y-107420000D03*
X120650000Y-196110000D03*
X123190000Y-198860000D03*
X126365000Y-196110000D03*
X128905000Y-198860000D03*
X120650000Y-202460000D03*
X123190000Y-205210000D03*
X126365000Y-202460000D03*
X128905000Y-205210000D03*
X96520000Y-196110000D03*
X99060000Y-198860000D03*
X102235000Y-196110000D03*
X104775000Y-198860000D03*
X241935000Y-196110000D03*
X244475000Y-198860000D03*
X72390000Y-196110000D03*
X74930000Y-198860000D03*
X78105000Y-196110000D03*
X80645000Y-198860000D03*
X72390000Y-202460000D03*
X74930000Y-205210000D03*
X78105000Y-202460000D03*
X80645000Y-205210000D03*
X48260000Y-196110000D03*
X50800000Y-198860000D03*
X53975000Y-196110000D03*
X56515000Y-198860000D03*
X48260000Y-202460000D03*
X50800000Y-205210000D03*
X53975000Y-202460000D03*
X56515000Y-205210000D03*
X24130000Y-196110000D03*
X26670000Y-198860000D03*
X29845000Y-196110000D03*
X32385000Y-198860000D03*
X144780000Y-196110000D03*
X147320000Y-198860000D03*
X150495000Y-196110000D03*
X153035000Y-198860000D03*
X144780000Y-202460000D03*
X147320000Y-205210000D03*
X150495000Y-202460000D03*
X153035000Y-205210000D03*
X168910000Y-196110000D03*
X171450000Y-198860000D03*
X174625000Y-196110000D03*
X177165000Y-198860000D03*
X193675000Y-196110000D03*
X196215000Y-198860000D03*
X199390000Y-196110000D03*
X201930000Y-198860000D03*
X193675000Y-202460000D03*
X196215000Y-205210000D03*
X199390000Y-202460000D03*
X201930000Y-205210000D03*
X223520000Y-196110000D03*
X226060000Y-198860000D03*
X217805000Y-202460000D03*
X220345000Y-205210000D03*
X223520000Y-202460000D03*
X226060000Y-205210000D03*
X247650000Y-196110000D03*
X250190000Y-198860000D03*
X241935000Y-202460000D03*
X244475000Y-205210000D03*
X86995000Y-205210000D03*
X84455000Y-202460000D03*
X247650000Y-202460000D03*
X250190000Y-205210000D03*
X62865000Y-205210000D03*
X60325000Y-202460000D03*
X38735000Y-205210000D03*
X36195000Y-202460000D03*
X111125000Y-205210000D03*
X108585000Y-202460000D03*
X79375000Y-186795000D03*
X76835000Y-184045000D03*
X73660000Y-186795000D03*
X71120000Y-184045000D03*
X85090000Y-186795000D03*
X82550000Y-184045000D03*
X256540000Y-205210000D03*
X254000000Y-202460000D03*
X172085000Y-137900000D03*
X169545000Y-135150000D03*
X212090000Y-186795000D03*
X209550000Y-184045000D03*
X135255000Y-205210000D03*
X132715000Y-202460000D03*
X90805000Y-186795000D03*
X88265000Y-184045000D03*
X159385000Y-205210000D03*
X156845000Y-202460000D03*
X183515000Y-205210000D03*
X180975000Y-202460000D03*
X208280000Y-205210000D03*
X205740000Y-202460000D03*
X232410000Y-205210000D03*
X229870000Y-202460000D03*
X189230000Y-186795000D03*
X186690000Y-184045000D03*
X194945000Y-186795000D03*
X192405000Y-184045000D03*
X200660000Y-186795000D03*
X198120000Y-184045000D03*
X206375000Y-186795000D03*
X203835000Y-184045000D03*
X194945000Y-58315000D03*
X189865000Y-58315000D03*
X192405000Y-61065000D03*
X189865000Y-67415000D03*
X194945000Y-67415000D03*
X192405000Y-64665000D03*
X225425000Y-58315000D03*
X220345000Y-58315000D03*
X222885000Y-61065000D03*
X220345000Y-67415000D03*
X225425000Y-67415000D03*
X222885000Y-64665000D03*
X205105000Y-58315000D03*
X200025000Y-58315000D03*
X202565000Y-61065000D03*
X200025000Y-67415000D03*
X205105000Y-67415000D03*
X202565000Y-64665000D03*
X215265000Y-58315000D03*
X210185000Y-58315000D03*
X212725000Y-61065000D03*
X210185000Y-67415000D03*
X215265000Y-67415000D03*
X212725000Y-64665000D03*
X164465000Y-58315000D03*
X159385000Y-58315000D03*
X161925000Y-61065000D03*
X159385000Y-67415000D03*
X164465000Y-67415000D03*
X161925000Y-64665000D03*
X174625000Y-58315000D03*
X169545000Y-58315000D03*
X172085000Y-61065000D03*
X169545000Y-67415000D03*
X174625000Y-67415000D03*
X172085000Y-64665000D03*
X154305000Y-58315000D03*
X149225000Y-58315000D03*
X151765000Y-61065000D03*
X149225000Y-67415000D03*
X154305000Y-67415000D03*
X151765000Y-64665000D03*
X184785000Y-58315000D03*
X179705000Y-58315000D03*
X182245000Y-61065000D03*
X179705000Y-67415000D03*
X184785000Y-67415000D03*
X182245000Y-64665000D03*
X144145000Y-58315000D03*
X139065000Y-58315000D03*
X141605000Y-61065000D03*
X139065000Y-67415000D03*
X144145000Y-67415000D03*
X141605000Y-64665000D03*
X133985000Y-58315000D03*
X128905000Y-58315000D03*
X131445000Y-61065000D03*
X128905000Y-67415000D03*
X133985000Y-67415000D03*
X131445000Y-64665000D03*
D17*
X178330000Y-182880000D03*
X178330000Y-187960000D03*
X181080000Y-185420000D03*
X171980000Y-182880000D03*
X171980000Y-187960000D03*
X174730000Y-185420000D03*
X165630000Y-182880000D03*
X165630000Y-187960000D03*
X168380000Y-185420000D03*
D12*
X263525000Y-160655000D03*
D13*
X263525000Y-150495000D03*
X263525000Y-155575000D03*
D12*
X263525000Y-99695000D03*
D13*
X263525000Y-89535000D03*
X263525000Y-94615000D03*
D12*
X263525000Y-175895000D03*
D13*
X263525000Y-165735000D03*
X263525000Y-170815000D03*
D12*
X263525000Y-145415000D03*
D13*
X263525000Y-135255000D03*
X263525000Y-140335000D03*
D12*
X263525000Y-130175000D03*
D13*
X263525000Y-120015000D03*
X263525000Y-125095000D03*
D12*
X263525000Y-114935000D03*
D13*
X263525000Y-104775000D03*
X263525000Y-109855000D03*
D38*
X121160000Y-215900000D03*
X124800000Y-215900000D03*
D39*
X132080000Y-215900000D03*
D38*
X128440000Y-215900000D03*
D44*
X122556000Y-242951000D03*
X128906000Y-240411000D03*
D45*
X118744000Y-249301000D03*
D44*
X127636000Y-242951000D03*
X121286000Y-240411000D03*
X125096000Y-242951000D03*
X123826000Y-240411000D03*
X126366000Y-240411000D03*
X120016000Y-242951000D03*
D45*
X130176000Y-249301000D03*
D38*
X97030000Y-215900000D03*
X100670000Y-215900000D03*
D39*
X107950000Y-215900000D03*
D38*
X104310000Y-215900000D03*
D44*
X99696000Y-242951000D03*
X106046000Y-240411000D03*
D45*
X95884000Y-249301000D03*
D44*
X104776000Y-242951000D03*
X98426000Y-240411000D03*
X102236000Y-242951000D03*
X100966000Y-240411000D03*
X103506000Y-240411000D03*
X97156000Y-242951000D03*
D45*
X107316000Y-249301000D03*
D38*
X97030000Y-233045000D03*
X100670000Y-233045000D03*
D39*
X107950000Y-233045000D03*
D38*
X104310000Y-233045000D03*
X242445000Y-215900000D03*
X246085000Y-215900000D03*
D39*
X253365000Y-215900000D03*
D38*
X249725000Y-215900000D03*
D44*
X247346200Y-242951000D03*
X253696200Y-240411000D03*
D45*
X243534200Y-249301000D03*
D44*
X252426200Y-242951000D03*
X246076200Y-240411000D03*
X249886200Y-242951000D03*
X248616200Y-240411000D03*
X251156200Y-240411000D03*
X244806200Y-242951000D03*
D45*
X254966200Y-249301000D03*
D38*
X242445000Y-233045000D03*
X246085000Y-233045000D03*
D39*
X253365000Y-233045000D03*
D38*
X249725000Y-233045000D03*
X121160000Y-233045000D03*
X124800000Y-233045000D03*
D39*
X132080000Y-233045000D03*
D38*
X128440000Y-233045000D03*
X48770000Y-215900000D03*
X52410000Y-215900000D03*
D39*
X59690000Y-215900000D03*
D38*
X56050000Y-215900000D03*
X72900000Y-215900000D03*
X76540000Y-215900000D03*
D39*
X83820000Y-215900000D03*
D38*
X80180000Y-215900000D03*
D44*
X26163000Y-242951000D03*
X32513000Y-240411000D03*
D45*
X22351000Y-249301000D03*
D44*
X31243000Y-242951000D03*
X24893000Y-240411000D03*
X28703000Y-242951000D03*
X27433000Y-240411000D03*
X29973000Y-240411000D03*
X23623000Y-242951000D03*
D45*
X33783000Y-249301000D03*
D44*
X54357000Y-242951000D03*
X60707000Y-240411000D03*
D45*
X50545000Y-249301000D03*
D44*
X59437000Y-242951000D03*
X53087000Y-240411000D03*
X56897000Y-242951000D03*
X55627000Y-240411000D03*
X58167000Y-240411000D03*
X51817000Y-242951000D03*
D45*
X61977000Y-249301000D03*
D44*
X76963000Y-242951000D03*
X83313000Y-240411000D03*
D45*
X73151000Y-249301000D03*
D44*
X82043000Y-242951000D03*
X75693000Y-240411000D03*
X79503000Y-242951000D03*
X78233000Y-240411000D03*
X80773000Y-240411000D03*
X74423000Y-242951000D03*
D45*
X84583000Y-249301000D03*
D38*
X48770000Y-233045000D03*
X52410000Y-233045000D03*
D39*
X59690000Y-233045000D03*
D38*
X56050000Y-233045000D03*
X72900000Y-233045000D03*
X76540000Y-233045000D03*
D39*
X83820000Y-233045000D03*
D38*
X80180000Y-233045000D03*
X145290000Y-215900000D03*
X148930000Y-215900000D03*
D39*
X156210000Y-215900000D03*
D38*
X152570000Y-215900000D03*
X169420000Y-215900000D03*
X173060000Y-215900000D03*
D39*
X180340000Y-215900000D03*
D38*
X176700000Y-215900000D03*
X194185000Y-215900000D03*
X197825000Y-215900000D03*
D39*
X205105000Y-215900000D03*
D38*
X201465000Y-215900000D03*
X218315000Y-215900000D03*
X221955000Y-215900000D03*
D39*
X229235000Y-215900000D03*
D38*
X225595000Y-215900000D03*
D44*
X150623000Y-242951000D03*
X156973000Y-240411000D03*
D45*
X146811000Y-249301000D03*
D44*
X155703000Y-242951000D03*
X149353000Y-240411000D03*
X153163000Y-242951000D03*
X151893000Y-240411000D03*
X154433000Y-240411000D03*
X148083000Y-242951000D03*
D45*
X158243000Y-249301000D03*
D44*
X196597000Y-242951000D03*
X202947000Y-240411000D03*
D45*
X192785000Y-249301000D03*
D44*
X201677000Y-242951000D03*
X195327000Y-240411000D03*
X199137000Y-242951000D03*
X197867000Y-240411000D03*
X200407000Y-240411000D03*
X194057000Y-242951000D03*
D45*
X204217000Y-249301000D03*
D38*
X145290000Y-233045000D03*
X148930000Y-233045000D03*
D39*
X156210000Y-233045000D03*
D38*
X152570000Y-233045000D03*
D44*
X173483000Y-242951000D03*
X179833000Y-240411000D03*
D45*
X169671000Y-249301000D03*
D44*
X178563000Y-242951000D03*
X172213000Y-240411000D03*
X176023000Y-242951000D03*
X174753000Y-240411000D03*
X177293000Y-240411000D03*
X170943000Y-242951000D03*
D45*
X181103000Y-249301000D03*
D44*
X219203000Y-242951000D03*
X225553000Y-240411000D03*
D45*
X215391000Y-249301000D03*
D44*
X224283000Y-242951000D03*
X217933000Y-240411000D03*
X221743000Y-242951000D03*
X220473000Y-240411000D03*
X223013000Y-240411000D03*
X216663000Y-242951000D03*
D45*
X226823000Y-249301000D03*
D38*
X169420000Y-233045000D03*
X173060000Y-233045000D03*
D39*
X180340000Y-233045000D03*
D38*
X176700000Y-233045000D03*
X194015000Y-233045000D03*
X197655000Y-233045000D03*
D39*
X204935000Y-233045000D03*
D38*
X201295000Y-233045000D03*
X218315000Y-233045000D03*
X221955000Y-233045000D03*
D39*
X229235000Y-233045000D03*
D38*
X225595000Y-233045000D03*
D12*
X194945000Y-31115000D03*
D13*
X189865000Y-31115000D03*
D12*
X225488500Y-31115000D03*
D13*
X220408500Y-31115000D03*
D12*
X205105000Y-31115000D03*
D13*
X200025000Y-31115000D03*
D12*
X215265000Y-31115000D03*
D13*
X210185000Y-31115000D03*
D12*
X164465000Y-31115000D03*
D13*
X159385000Y-31115000D03*
D12*
X174625000Y-31115000D03*
D13*
X169545000Y-31115000D03*
D12*
X154305000Y-31115000D03*
D13*
X149225000Y-31115000D03*
D12*
X184785000Y-31115000D03*
D13*
X179705000Y-31115000D03*
D12*
X144145000Y-31115000D03*
D13*
X139065000Y-31115000D03*
D12*
X133985000Y-31115000D03*
D13*
X128905000Y-31115000D03*
D12*
X97790000Y-31115000D03*
D13*
X92710000Y-31115000D03*
D12*
X251460000Y-31115000D03*
D13*
X246380000Y-31115000D03*
D12*
X77470000Y-31115000D03*
D13*
X72390000Y-31115000D03*
D12*
X31496000Y-31115000D03*
D13*
X26416000Y-31115000D03*
D37*
X83820000Y-209460000D03*
X83820000Y-210910000D03*
X59690000Y-209460000D03*
X59690000Y-210910000D03*
X35560000Y-209370000D03*
X35560000Y-210820000D03*
D46*
X105054400Y-209550000D03*
X105054400Y-208280000D03*
X105054400Y-210820000D03*
X101600000Y-208280000D03*
X101600000Y-209550000D03*
X101600000Y-210820000D03*
X81102200Y-209550000D03*
X81102200Y-208280000D03*
X81102200Y-210820000D03*
X77647800Y-208280000D03*
X77647800Y-209550000D03*
X77647800Y-210820000D03*
X56972200Y-209550000D03*
X56972200Y-208280000D03*
X56972200Y-210820000D03*
X53517800Y-208280000D03*
X53517800Y-209550000D03*
X53517800Y-210820000D03*
X32842200Y-209550000D03*
X32842200Y-208280000D03*
X32842200Y-210820000D03*
X29387800Y-208280000D03*
X29387800Y-209550000D03*
X29387800Y-210820000D03*
X250647200Y-209550000D03*
X250647200Y-208280000D03*
X250647200Y-210820000D03*
X247192800Y-208280000D03*
X247192800Y-209550000D03*
X247192800Y-210820000D03*
D47*
X172085000Y-140970000D03*
X169545000Y-140970000D03*
D37*
X132080000Y-209460000D03*
X132080000Y-210910000D03*
D46*
X129362200Y-209550000D03*
X129362200Y-208280000D03*
X129362200Y-210820000D03*
X125907800Y-208280000D03*
X125907800Y-209550000D03*
X125907800Y-210820000D03*
D37*
X156210000Y-209460000D03*
X156210000Y-210910000D03*
X205105000Y-209460000D03*
X205105000Y-210910000D03*
X229235000Y-209460000D03*
X229235000Y-210910000D03*
D46*
X153492200Y-209550000D03*
X153492200Y-208280000D03*
X153492200Y-210820000D03*
X150037800Y-208280000D03*
X150037800Y-209550000D03*
X150037800Y-210820000D03*
X177622200Y-209550000D03*
X177622200Y-208280000D03*
X177622200Y-210820000D03*
X174167800Y-208280000D03*
X174167800Y-209550000D03*
X174167800Y-210820000D03*
X202387200Y-209550000D03*
X202387200Y-208280000D03*
X202387200Y-210820000D03*
X198932800Y-208280000D03*
X198932800Y-209550000D03*
X198932800Y-210820000D03*
X226339400Y-209550000D03*
X226339400Y-208280000D03*
X226339400Y-210820000D03*
X222885000Y-208280000D03*
X222885000Y-209550000D03*
X222885000Y-210820000D03*
D30*
X191135000Y-52705000D03*
D19*
X193675000Y-52705000D03*
D30*
X221615000Y-52705000D03*
D19*
X224155000Y-52705000D03*
D30*
X201295000Y-52705000D03*
D19*
X203835000Y-52705000D03*
D30*
X211455000Y-52705000D03*
D19*
X213995000Y-52705000D03*
D30*
X160655000Y-52705000D03*
D19*
X163195000Y-52705000D03*
D30*
X170815000Y-52705000D03*
D19*
X173355000Y-52705000D03*
D30*
X150495000Y-52705000D03*
D19*
X153035000Y-52705000D03*
D30*
X180975000Y-52705000D03*
D19*
X183515000Y-52705000D03*
D30*
X140335000Y-52705000D03*
D19*
X142875000Y-52705000D03*
D30*
X130175000Y-52705000D03*
D19*
X132715000Y-52705000D03*
D30*
X89535000Y-52705000D03*
D19*
X92075000Y-52705000D03*
D30*
X23495000Y-88138000D03*
D19*
X26035000Y-88138000D03*
D30*
X43815000Y-88138000D03*
D19*
X46355000Y-88138000D03*
D48*
X111760000Y-121730000D03*
X111760000Y-125730000D03*
X157480000Y-121825000D03*
X157480000Y-125825000D03*
D30*
X239395000Y-52705000D03*
D19*
X241935000Y-52705000D03*
D30*
X43815000Y-52705000D03*
D19*
X46355000Y-52705000D03*
D30*
X23495000Y-52705000D03*
D19*
X26035000Y-52705000D03*
D30*
X69215000Y-52705000D03*
D19*
X71755000Y-52705000D03*
M02*
