G04 #@! TF.GenerationSoftware,KiCad,Pcbnew,(5.1.6)-1*
G04 #@! TF.CreationDate,2023-01-22T17:07:03+01:00*
G04 #@! TF.ProjectId,central-control-unit,63656e74-7261-46c2-9d63-6f6e74726f6c,rev?*
G04 #@! TF.SameCoordinates,Original*
G04 #@! TF.FileFunction,Paste,Bot*
G04 #@! TF.FilePolarity,Positive*
%FSLAX46Y46*%
G04 Gerber Fmt 4.6, Leading zero omitted, Abs format (unit mm)*
G04 Created by KiCad (PCBNEW (5.1.6)-1) date 2023-01-22 17:07:03*
%MOMM*%
%LPD*%
G01*
G04 APERTURE LIST*
%ADD10C,0.100000*%
%ADD11R,1.000000X1.000000*%
%ADD12R,0.800000X0.800000*%
%ADD13R,2.500000X2.000000*%
%ADD14R,2.000000X2.500000*%
%ADD15R,2.500000X2.500000*%
%ADD16R,0.500000X2.000000*%
%ADD17R,0.800000X2.000000*%
%ADD18R,0.350000X1.500000*%
%ADD19R,3.300000X4.000000*%
%ADD20R,4.000000X3.300000*%
G04 APERTURE END LIST*
D10*
G36*
X103807500Y-213498000D02*
G01*
X103807500Y-211698000D01*
X105107500Y-211698000D01*
X105107500Y-213498000D01*
X103807500Y-213498000D01*
G37*
G36*
X101267500Y-213498000D02*
G01*
X101267500Y-211698000D01*
X102567500Y-211698000D01*
X102567500Y-213498000D01*
X101267500Y-213498000D01*
G37*
G36*
X31417500Y-213498000D02*
G01*
X31417500Y-211698000D01*
X32717500Y-211698000D01*
X32717500Y-213498000D01*
X31417500Y-213498000D01*
G37*
G36*
X28877500Y-213498000D02*
G01*
X28877500Y-211698000D01*
X30177500Y-211698000D01*
X30177500Y-213498000D01*
X28877500Y-213498000D01*
G37*
G36*
X79677500Y-213498000D02*
G01*
X79677500Y-211698000D01*
X80977500Y-211698000D01*
X80977500Y-213498000D01*
X79677500Y-213498000D01*
G37*
G36*
X77137500Y-213498000D02*
G01*
X77137500Y-211698000D01*
X78437500Y-211698000D01*
X78437500Y-213498000D01*
X77137500Y-213498000D01*
G37*
G36*
X55547500Y-213498000D02*
G01*
X55547500Y-211698000D01*
X56847500Y-211698000D01*
X56847500Y-213498000D01*
X55547500Y-213498000D01*
G37*
G36*
X53007500Y-213498000D02*
G01*
X53007500Y-211698000D01*
X54307500Y-211698000D01*
X54307500Y-213498000D01*
X53007500Y-213498000D01*
G37*
G36*
X176197500Y-213498000D02*
G01*
X176197500Y-211698000D01*
X177497500Y-211698000D01*
X177497500Y-213498000D01*
X176197500Y-213498000D01*
G37*
G36*
X173657500Y-213498000D02*
G01*
X173657500Y-211698000D01*
X174957500Y-211698000D01*
X174957500Y-213498000D01*
X173657500Y-213498000D01*
G37*
G36*
X249222500Y-213498000D02*
G01*
X249222500Y-211698000D01*
X250522500Y-211698000D01*
X250522500Y-213498000D01*
X249222500Y-213498000D01*
G37*
G36*
X246682500Y-213498000D02*
G01*
X246682500Y-211698000D01*
X247982500Y-211698000D01*
X247982500Y-213498000D01*
X246682500Y-213498000D01*
G37*
G36*
X152067500Y-213498000D02*
G01*
X152067500Y-211698000D01*
X153367500Y-211698000D01*
X153367500Y-213498000D01*
X152067500Y-213498000D01*
G37*
G36*
X149527500Y-213498000D02*
G01*
X149527500Y-211698000D01*
X150827500Y-211698000D01*
X150827500Y-213498000D01*
X149527500Y-213498000D01*
G37*
G36*
X200962500Y-213498000D02*
G01*
X200962500Y-211698000D01*
X202262500Y-211698000D01*
X202262500Y-213498000D01*
X200962500Y-213498000D01*
G37*
G36*
X198422500Y-213498000D02*
G01*
X198422500Y-211698000D01*
X199722500Y-211698000D01*
X199722500Y-213498000D01*
X198422500Y-213498000D01*
G37*
G36*
X127937500Y-213498000D02*
G01*
X127937500Y-211698000D01*
X129237500Y-211698000D01*
X129237500Y-213498000D01*
X127937500Y-213498000D01*
G37*
G36*
X125397500Y-213498000D02*
G01*
X125397500Y-211698000D01*
X126697500Y-211698000D01*
X126697500Y-213498000D01*
X125397500Y-213498000D01*
G37*
G36*
X225092500Y-213498000D02*
G01*
X225092500Y-211698000D01*
X226392500Y-211698000D01*
X226392500Y-213498000D01*
X225092500Y-213498000D01*
G37*
G36*
X222552500Y-213498000D02*
G01*
X222552500Y-211698000D01*
X223852500Y-211698000D01*
X223852500Y-213498000D01*
X222552500Y-213498000D01*
G37*
G36*
X123873500Y-52462000D02*
G01*
X123873500Y-50662000D01*
X125173500Y-50662000D01*
X125173500Y-52462000D01*
X123873500Y-52462000D01*
G37*
G36*
X121333500Y-52462000D02*
G01*
X121333500Y-50662000D01*
X122633500Y-50662000D01*
X122633500Y-52462000D01*
X121333500Y-52462000D01*
G37*
G36*
X116507500Y-37095000D02*
G01*
X116507500Y-35295000D01*
X117807500Y-35295000D01*
X117807500Y-37095000D01*
X116507500Y-37095000D01*
G37*
G36*
X113967500Y-37095000D02*
G01*
X113967500Y-35295000D01*
X115267500Y-35295000D01*
X115267500Y-37095000D01*
X113967500Y-37095000D01*
G37*
G36*
X119047500Y-52462000D02*
G01*
X119047500Y-50662000D01*
X120347500Y-50662000D01*
X120347500Y-52462000D01*
X119047500Y-52462000D01*
G37*
G36*
X116507500Y-52462000D02*
G01*
X116507500Y-50662000D01*
X117807500Y-50662000D01*
X117807500Y-52462000D01*
X116507500Y-52462000D01*
G37*
G36*
X121587500Y-37095000D02*
G01*
X121587500Y-35295000D01*
X122887500Y-35295000D01*
X122887500Y-37095000D01*
X121587500Y-37095000D01*
G37*
G36*
X119047500Y-37095000D02*
G01*
X119047500Y-35295000D01*
X120347500Y-35295000D01*
X120347500Y-37095000D01*
X119047500Y-37095000D01*
G37*
G36*
X113967500Y-52462000D02*
G01*
X113967500Y-50662000D01*
X115267500Y-50662000D01*
X115267500Y-52462000D01*
X113967500Y-52462000D01*
G37*
G36*
X111427500Y-52462000D02*
G01*
X111427500Y-50662000D01*
X112727500Y-50662000D01*
X112727500Y-52462000D01*
X111427500Y-52462000D01*
G37*
G36*
X111427500Y-37095000D02*
G01*
X111427500Y-35295000D01*
X112727500Y-35295000D01*
X112727500Y-37095000D01*
X111427500Y-37095000D01*
G37*
G36*
X108887500Y-37095000D02*
G01*
X108887500Y-35295000D01*
X110187500Y-35295000D01*
X110187500Y-37095000D01*
X108887500Y-37095000D01*
G37*
G36*
X121867500Y-81676000D02*
G01*
X120067500Y-81676000D01*
X120067500Y-80376000D01*
X121867500Y-80376000D01*
X121867500Y-81676000D01*
G37*
G36*
X121867500Y-84216000D02*
G01*
X120067500Y-84216000D01*
X120067500Y-82916000D01*
X121867500Y-82916000D01*
X121867500Y-84216000D01*
G37*
G36*
X113967500Y-45096000D02*
G01*
X113967500Y-43296000D01*
X115267500Y-43296000D01*
X115267500Y-45096000D01*
X113967500Y-45096000D01*
G37*
G36*
X111427500Y-45096000D02*
G01*
X111427500Y-43296000D01*
X112727500Y-43296000D01*
X112727500Y-45096000D01*
X111427500Y-45096000D01*
G37*
G36*
X116787500Y-81676000D02*
G01*
X114987500Y-81676000D01*
X114987500Y-80376000D01*
X116787500Y-80376000D01*
X116787500Y-81676000D01*
G37*
G36*
X116787500Y-84216000D02*
G01*
X114987500Y-84216000D01*
X114987500Y-82916000D01*
X116787500Y-82916000D01*
X116787500Y-84216000D01*
G37*
G36*
X122349500Y-45096000D02*
G01*
X122349500Y-43296000D01*
X123649500Y-43296000D01*
X123649500Y-45096000D01*
X122349500Y-45096000D01*
G37*
G36*
X119809500Y-45096000D02*
G01*
X119809500Y-43296000D01*
X121109500Y-43296000D01*
X121109500Y-45096000D01*
X119809500Y-45096000D01*
G37*
G36*
X111453500Y-81930000D02*
G01*
X109653500Y-81930000D01*
X109653500Y-80630000D01*
X111453500Y-80630000D01*
X111453500Y-81930000D01*
G37*
G36*
X111453500Y-84470000D02*
G01*
X109653500Y-84470000D01*
X109653500Y-83170000D01*
X111453500Y-83170000D01*
X111453500Y-84470000D01*
G37*
G36*
X106627500Y-44592000D02*
G01*
X104827500Y-44592000D01*
X104827500Y-43292000D01*
X106627500Y-43292000D01*
X106627500Y-44592000D01*
G37*
G36*
X106627500Y-47132000D02*
G01*
X104827500Y-47132000D01*
X104827500Y-45832000D01*
X106627500Y-45832000D01*
X106627500Y-47132000D01*
G37*
D11*
X117411500Y-43250000D03*
X116461500Y-45450000D03*
X118361500Y-45450000D03*
X125727500Y-43266000D03*
X124777500Y-45466000D03*
X126677500Y-45466000D03*
X108963500Y-43504000D03*
X108013500Y-45704000D03*
X109913500Y-45704000D03*
D12*
X121729500Y-53848000D03*
X124269500Y-53848000D03*
X119697500Y-38481000D03*
X122237500Y-38481000D03*
X114617500Y-38481000D03*
X117157500Y-38481000D03*
X116903500Y-53848000D03*
X119443500Y-53848000D03*
X111823500Y-53848000D03*
X114363500Y-53848000D03*
X109537500Y-38481000D03*
X112077500Y-38481000D03*
D13*
X120967500Y-74086000D03*
X120967500Y-78486000D03*
D14*
X114109500Y-41148000D03*
X118509500Y-41148000D03*
D13*
X115887500Y-74086000D03*
X115887500Y-78486000D03*
D14*
X121221500Y-41148000D03*
X125621500Y-41148000D03*
D13*
X110553500Y-74168000D03*
X110553500Y-78568000D03*
D14*
X107083500Y-41148000D03*
X111483500Y-41148000D03*
D10*
G36*
X166037500Y-139203000D02*
G01*
X166037500Y-137403000D01*
X167337500Y-137403000D01*
X167337500Y-139203000D01*
X166037500Y-139203000D01*
G37*
G36*
X163497500Y-139203000D02*
G01*
X163497500Y-137403000D01*
X164797500Y-137403000D01*
X164797500Y-139203000D01*
X163497500Y-139203000D01*
G37*
G36*
X74915000Y-56145000D02*
G01*
X74915000Y-54345000D01*
X76215000Y-54345000D01*
X76215000Y-56145000D01*
X74915000Y-56145000D01*
G37*
G36*
X72375000Y-56145000D02*
G01*
X72375000Y-54345000D01*
X73675000Y-54345000D01*
X73675000Y-56145000D01*
X72375000Y-56145000D01*
G37*
G36*
X29195000Y-56145000D02*
G01*
X29195000Y-54345000D01*
X30495000Y-54345000D01*
X30495000Y-56145000D01*
X29195000Y-56145000D01*
G37*
G36*
X26655000Y-56145000D02*
G01*
X26655000Y-54345000D01*
X27955000Y-54345000D01*
X27955000Y-56145000D01*
X26655000Y-56145000D01*
G37*
G36*
X49515000Y-56145000D02*
G01*
X49515000Y-54345000D01*
X50815000Y-54345000D01*
X50815000Y-56145000D01*
X49515000Y-56145000D01*
G37*
G36*
X46975000Y-56145000D02*
G01*
X46975000Y-54345000D01*
X48275000Y-54345000D01*
X48275000Y-56145000D01*
X46975000Y-56145000D01*
G37*
G36*
X245095000Y-55510000D02*
G01*
X245095000Y-53710000D01*
X246395000Y-53710000D01*
X246395000Y-55510000D01*
X245095000Y-55510000D01*
G37*
G36*
X242555000Y-55510000D02*
G01*
X242555000Y-53710000D01*
X243855000Y-53710000D01*
X243855000Y-55510000D01*
X242555000Y-55510000D01*
G37*
G36*
X72020000Y-60975000D02*
G01*
X70220000Y-60975000D01*
X70220000Y-59675000D01*
X72020000Y-59675000D01*
X72020000Y-60975000D01*
G37*
G36*
X72020000Y-63515000D02*
G01*
X70220000Y-63515000D01*
X70220000Y-62215000D01*
X72020000Y-62215000D01*
X72020000Y-63515000D01*
G37*
G36*
X26935000Y-60975000D02*
G01*
X25135000Y-60975000D01*
X25135000Y-59675000D01*
X26935000Y-59675000D01*
X26935000Y-60975000D01*
G37*
G36*
X26935000Y-63515000D02*
G01*
X25135000Y-63515000D01*
X25135000Y-62215000D01*
X26935000Y-62215000D01*
X26935000Y-63515000D01*
G37*
G36*
X47255000Y-60975000D02*
G01*
X45455000Y-60975000D01*
X45455000Y-59675000D01*
X47255000Y-59675000D01*
X47255000Y-60975000D01*
G37*
G36*
X47255000Y-63515000D02*
G01*
X45455000Y-63515000D01*
X45455000Y-62215000D01*
X47255000Y-62215000D01*
X47255000Y-63515000D01*
G37*
G36*
X242200000Y-60340000D02*
G01*
X240400000Y-60340000D01*
X240400000Y-59040000D01*
X242200000Y-59040000D01*
X242200000Y-60340000D01*
G37*
G36*
X242200000Y-62880000D02*
G01*
X240400000Y-62880000D01*
X240400000Y-61580000D01*
X242200000Y-61580000D01*
X242200000Y-62880000D01*
G37*
G36*
X95235000Y-56145000D02*
G01*
X95235000Y-54345000D01*
X96535000Y-54345000D01*
X96535000Y-56145000D01*
X95235000Y-56145000D01*
G37*
G36*
X92695000Y-56145000D02*
G01*
X92695000Y-54345000D01*
X93995000Y-54345000D01*
X93995000Y-56145000D01*
X92695000Y-56145000D01*
G37*
G36*
X92340000Y-60975000D02*
G01*
X90540000Y-60975000D01*
X90540000Y-59675000D01*
X92340000Y-59675000D01*
X92340000Y-60975000D01*
G37*
G36*
X92340000Y-63515000D02*
G01*
X90540000Y-63515000D01*
X90540000Y-62215000D01*
X92340000Y-62215000D01*
X92340000Y-63515000D01*
G37*
G36*
X178932000Y-164450000D02*
G01*
X180732000Y-164450000D01*
X180732000Y-165750000D01*
X178932000Y-165750000D01*
X178932000Y-164450000D01*
G37*
G36*
X178932000Y-161910000D02*
G01*
X180732000Y-161910000D01*
X180732000Y-163210000D01*
X178932000Y-163210000D01*
X178932000Y-161910000D01*
G37*
G36*
X175884000Y-164450000D02*
G01*
X177684000Y-164450000D01*
X177684000Y-165750000D01*
X175884000Y-165750000D01*
X175884000Y-164450000D01*
G37*
G36*
X175884000Y-161910000D02*
G01*
X177684000Y-161910000D01*
X177684000Y-163210000D01*
X175884000Y-163210000D01*
X175884000Y-161910000D01*
G37*
G36*
X132065000Y-72020000D02*
G01*
X132065000Y-70220000D01*
X133365000Y-70220000D01*
X133365000Y-72020000D01*
X132065000Y-72020000D01*
G37*
G36*
X129525000Y-72020000D02*
G01*
X129525000Y-70220000D01*
X130825000Y-70220000D01*
X130825000Y-72020000D01*
X129525000Y-72020000D01*
G37*
G36*
X132065000Y-69480000D02*
G01*
X132065000Y-67680000D01*
X133365000Y-67680000D01*
X133365000Y-69480000D01*
X132065000Y-69480000D01*
G37*
G36*
X129525000Y-69480000D02*
G01*
X129525000Y-67680000D01*
X130825000Y-67680000D01*
X130825000Y-69480000D01*
X129525000Y-69480000D01*
G37*
G36*
X142225000Y-72020000D02*
G01*
X142225000Y-70220000D01*
X143525000Y-70220000D01*
X143525000Y-72020000D01*
X142225000Y-72020000D01*
G37*
G36*
X139685000Y-72020000D02*
G01*
X139685000Y-70220000D01*
X140985000Y-70220000D01*
X140985000Y-72020000D01*
X139685000Y-72020000D01*
G37*
G36*
X142225000Y-69480000D02*
G01*
X142225000Y-67680000D01*
X143525000Y-67680000D01*
X143525000Y-69480000D01*
X142225000Y-69480000D01*
G37*
G36*
X139685000Y-69480000D02*
G01*
X139685000Y-67680000D01*
X140985000Y-67680000D01*
X140985000Y-69480000D01*
X139685000Y-69480000D01*
G37*
G36*
X182865000Y-72020000D02*
G01*
X182865000Y-70220000D01*
X184165000Y-70220000D01*
X184165000Y-72020000D01*
X182865000Y-72020000D01*
G37*
G36*
X180325000Y-72020000D02*
G01*
X180325000Y-70220000D01*
X181625000Y-70220000D01*
X181625000Y-72020000D01*
X180325000Y-72020000D01*
G37*
G36*
X152385000Y-72020000D02*
G01*
X152385000Y-70220000D01*
X153685000Y-70220000D01*
X153685000Y-72020000D01*
X152385000Y-72020000D01*
G37*
G36*
X149845000Y-72020000D02*
G01*
X149845000Y-70220000D01*
X151145000Y-70220000D01*
X151145000Y-72020000D01*
X149845000Y-72020000D01*
G37*
G36*
X182865000Y-69480000D02*
G01*
X182865000Y-67680000D01*
X184165000Y-67680000D01*
X184165000Y-69480000D01*
X182865000Y-69480000D01*
G37*
G36*
X180325000Y-69480000D02*
G01*
X180325000Y-67680000D01*
X181625000Y-67680000D01*
X181625000Y-69480000D01*
X180325000Y-69480000D01*
G37*
G36*
X172705000Y-72020000D02*
G01*
X172705000Y-70220000D01*
X174005000Y-70220000D01*
X174005000Y-72020000D01*
X172705000Y-72020000D01*
G37*
G36*
X170165000Y-72020000D02*
G01*
X170165000Y-70220000D01*
X171465000Y-70220000D01*
X171465000Y-72020000D01*
X170165000Y-72020000D01*
G37*
G36*
X162545000Y-72020000D02*
G01*
X162545000Y-70220000D01*
X163845000Y-70220000D01*
X163845000Y-72020000D01*
X162545000Y-72020000D01*
G37*
G36*
X160005000Y-72020000D02*
G01*
X160005000Y-70220000D01*
X161305000Y-70220000D01*
X161305000Y-72020000D01*
X160005000Y-72020000D01*
G37*
G36*
X152385000Y-69480000D02*
G01*
X152385000Y-67680000D01*
X153685000Y-67680000D01*
X153685000Y-69480000D01*
X152385000Y-69480000D01*
G37*
G36*
X149845000Y-69480000D02*
G01*
X149845000Y-67680000D01*
X151145000Y-67680000D01*
X151145000Y-69480000D01*
X149845000Y-69480000D01*
G37*
G36*
X172705000Y-69480000D02*
G01*
X172705000Y-67680000D01*
X174005000Y-67680000D01*
X174005000Y-69480000D01*
X172705000Y-69480000D01*
G37*
G36*
X170165000Y-69480000D02*
G01*
X170165000Y-67680000D01*
X171465000Y-67680000D01*
X171465000Y-69480000D01*
X170165000Y-69480000D01*
G37*
G36*
X162545000Y-69480000D02*
G01*
X162545000Y-67680000D01*
X163845000Y-67680000D01*
X163845000Y-69480000D01*
X162545000Y-69480000D01*
G37*
G36*
X160005000Y-69480000D02*
G01*
X160005000Y-67680000D01*
X161305000Y-67680000D01*
X161305000Y-69480000D01*
X160005000Y-69480000D01*
G37*
G36*
X213345000Y-72020000D02*
G01*
X213345000Y-70220000D01*
X214645000Y-70220000D01*
X214645000Y-72020000D01*
X213345000Y-72020000D01*
G37*
G36*
X210805000Y-72020000D02*
G01*
X210805000Y-70220000D01*
X212105000Y-70220000D01*
X212105000Y-72020000D01*
X210805000Y-72020000D01*
G37*
G36*
X203185000Y-72020000D02*
G01*
X203185000Y-70220000D01*
X204485000Y-70220000D01*
X204485000Y-72020000D01*
X203185000Y-72020000D01*
G37*
G36*
X200645000Y-72020000D02*
G01*
X200645000Y-70220000D01*
X201945000Y-70220000D01*
X201945000Y-72020000D01*
X200645000Y-72020000D01*
G37*
G36*
X223505000Y-72020000D02*
G01*
X223505000Y-70220000D01*
X224805000Y-70220000D01*
X224805000Y-72020000D01*
X223505000Y-72020000D01*
G37*
G36*
X220965000Y-72020000D02*
G01*
X220965000Y-70220000D01*
X222265000Y-70220000D01*
X222265000Y-72020000D01*
X220965000Y-72020000D01*
G37*
G36*
X193025000Y-72020000D02*
G01*
X193025000Y-70220000D01*
X194325000Y-70220000D01*
X194325000Y-72020000D01*
X193025000Y-72020000D01*
G37*
G36*
X190485000Y-72020000D02*
G01*
X190485000Y-70220000D01*
X191785000Y-70220000D01*
X191785000Y-72020000D01*
X190485000Y-72020000D01*
G37*
G36*
X213345000Y-69480000D02*
G01*
X213345000Y-67680000D01*
X214645000Y-67680000D01*
X214645000Y-69480000D01*
X213345000Y-69480000D01*
G37*
G36*
X210805000Y-69480000D02*
G01*
X210805000Y-67680000D01*
X212105000Y-67680000D01*
X212105000Y-69480000D01*
X210805000Y-69480000D01*
G37*
G36*
X203185000Y-69480000D02*
G01*
X203185000Y-67680000D01*
X204485000Y-67680000D01*
X204485000Y-69480000D01*
X203185000Y-69480000D01*
G37*
G36*
X200645000Y-69480000D02*
G01*
X200645000Y-67680000D01*
X201945000Y-67680000D01*
X201945000Y-69480000D01*
X200645000Y-69480000D01*
G37*
G36*
X223505000Y-69480000D02*
G01*
X223505000Y-67680000D01*
X224805000Y-67680000D01*
X224805000Y-69480000D01*
X223505000Y-69480000D01*
G37*
G36*
X220965000Y-69480000D02*
G01*
X220965000Y-67680000D01*
X222265000Y-67680000D01*
X222265000Y-69480000D01*
X220965000Y-69480000D01*
G37*
G36*
X193025000Y-69480000D02*
G01*
X193025000Y-67680000D01*
X194325000Y-67680000D01*
X194325000Y-69480000D01*
X193025000Y-69480000D01*
G37*
G36*
X190485000Y-69480000D02*
G01*
X190485000Y-67680000D01*
X191785000Y-67680000D01*
X191785000Y-69480000D01*
X190485000Y-69480000D01*
G37*
G36*
X193305000Y-184800000D02*
G01*
X191505000Y-184800000D01*
X191505000Y-183500000D01*
X193305000Y-183500000D01*
X193305000Y-184800000D01*
G37*
G36*
X193305000Y-187340000D02*
G01*
X191505000Y-187340000D01*
X191505000Y-186040000D01*
X193305000Y-186040000D01*
X193305000Y-187340000D01*
G37*
G36*
X72020000Y-188610000D02*
G01*
X70220000Y-188610000D01*
X70220000Y-187310000D01*
X72020000Y-187310000D01*
X72020000Y-188610000D01*
G37*
G36*
X72020000Y-191150000D02*
G01*
X70220000Y-191150000D01*
X70220000Y-189850000D01*
X72020000Y-189850000D01*
X72020000Y-191150000D01*
G37*
G36*
X133365000Y-180964000D02*
G01*
X133365000Y-182764000D01*
X132065000Y-182764000D01*
X132065000Y-180964000D01*
X133365000Y-180964000D01*
G37*
G36*
X135905000Y-180964000D02*
G01*
X135905000Y-182764000D01*
X134605000Y-182764000D01*
X134605000Y-180964000D01*
X135905000Y-180964000D01*
G37*
G36*
X133301500Y-183504000D02*
G01*
X133301500Y-185304000D01*
X132001500Y-185304000D01*
X132001500Y-183504000D01*
X133301500Y-183504000D01*
G37*
G36*
X135841500Y-183504000D02*
G01*
X135841500Y-185304000D01*
X134541500Y-185304000D01*
X134541500Y-183504000D01*
X135841500Y-183504000D01*
G37*
G36*
X133365000Y-186298000D02*
G01*
X133365000Y-188098000D01*
X132065000Y-188098000D01*
X132065000Y-186298000D01*
X133365000Y-186298000D01*
G37*
G36*
X135905000Y-186298000D02*
G01*
X135905000Y-188098000D01*
X134605000Y-188098000D01*
X134605000Y-186298000D01*
X135905000Y-186298000D01*
G37*
G36*
X133301500Y-188838000D02*
G01*
X133301500Y-190638000D01*
X132001500Y-190638000D01*
X132001500Y-188838000D01*
X133301500Y-188838000D01*
G37*
G36*
X135841500Y-188838000D02*
G01*
X135841500Y-190638000D01*
X134541500Y-190638000D01*
X134541500Y-188838000D01*
X135841500Y-188838000D01*
G37*
G36*
X220080000Y-135875000D02*
G01*
X221880000Y-135875000D01*
X221880000Y-137175000D01*
X220080000Y-137175000D01*
X220080000Y-135875000D01*
G37*
G36*
X220080000Y-133335000D02*
G01*
X221880000Y-133335000D01*
X221880000Y-134635000D01*
X220080000Y-134635000D01*
X220080000Y-133335000D01*
G37*
G36*
X226960000Y-134635000D02*
G01*
X225160000Y-134635000D01*
X225160000Y-133335000D01*
X226960000Y-133335000D01*
X226960000Y-134635000D01*
G37*
G36*
X226960000Y-137175000D02*
G01*
X225160000Y-137175000D01*
X225160000Y-135875000D01*
X226960000Y-135875000D01*
X226960000Y-137175000D01*
G37*
G36*
X234580000Y-109235000D02*
G01*
X232780000Y-109235000D01*
X232780000Y-107935000D01*
X234580000Y-107935000D01*
X234580000Y-109235000D01*
G37*
G36*
X234580000Y-111775000D02*
G01*
X232780000Y-111775000D01*
X232780000Y-110475000D01*
X234580000Y-110475000D01*
X234580000Y-111775000D01*
G37*
G36*
X234580000Y-124475000D02*
G01*
X232780000Y-124475000D01*
X232780000Y-123175000D01*
X234580000Y-123175000D01*
X234580000Y-124475000D01*
G37*
G36*
X234580000Y-127015000D02*
G01*
X232780000Y-127015000D01*
X232780000Y-125715000D01*
X234580000Y-125715000D01*
X234580000Y-127015000D01*
G37*
G36*
X234580000Y-139715000D02*
G01*
X232780000Y-139715000D01*
X232780000Y-138415000D01*
X234580000Y-138415000D01*
X234580000Y-139715000D01*
G37*
G36*
X234580000Y-142255000D02*
G01*
X232780000Y-142255000D01*
X232780000Y-140955000D01*
X234580000Y-140955000D01*
X234580000Y-142255000D01*
G37*
G36*
X234580000Y-171465000D02*
G01*
X232780000Y-171465000D01*
X232780000Y-170165000D01*
X234580000Y-170165000D01*
X234580000Y-171465000D01*
G37*
G36*
X234580000Y-174005000D02*
G01*
X232780000Y-174005000D01*
X232780000Y-172705000D01*
X234580000Y-172705000D01*
X234580000Y-174005000D01*
G37*
G36*
X234580000Y-93995000D02*
G01*
X232780000Y-93995000D01*
X232780000Y-92695000D01*
X234580000Y-92695000D01*
X234580000Y-93995000D01*
G37*
G36*
X234580000Y-96535000D02*
G01*
X232780000Y-96535000D01*
X232780000Y-95235000D01*
X234580000Y-95235000D01*
X234580000Y-96535000D01*
G37*
G36*
X234580000Y-153050000D02*
G01*
X232780000Y-153050000D01*
X232780000Y-151750000D01*
X234580000Y-151750000D01*
X234580000Y-153050000D01*
G37*
G36*
X234580000Y-155590000D02*
G01*
X232780000Y-155590000D01*
X232780000Y-154290000D01*
X234580000Y-154290000D01*
X234580000Y-155590000D01*
G37*
G36*
X237755000Y-109235000D02*
G01*
X235955000Y-109235000D01*
X235955000Y-107935000D01*
X237755000Y-107935000D01*
X237755000Y-109235000D01*
G37*
G36*
X237755000Y-111775000D02*
G01*
X235955000Y-111775000D01*
X235955000Y-110475000D01*
X237755000Y-110475000D01*
X237755000Y-111775000D01*
G37*
G36*
X237755000Y-124475000D02*
G01*
X235955000Y-124475000D01*
X235955000Y-123175000D01*
X237755000Y-123175000D01*
X237755000Y-124475000D01*
G37*
G36*
X237755000Y-127015000D02*
G01*
X235955000Y-127015000D01*
X235955000Y-125715000D01*
X237755000Y-125715000D01*
X237755000Y-127015000D01*
G37*
G36*
X237755000Y-139715000D02*
G01*
X235955000Y-139715000D01*
X235955000Y-138415000D01*
X237755000Y-138415000D01*
X237755000Y-139715000D01*
G37*
G36*
X237755000Y-142255000D02*
G01*
X235955000Y-142255000D01*
X235955000Y-140955000D01*
X237755000Y-140955000D01*
X237755000Y-142255000D01*
G37*
G36*
X237755000Y-171465000D02*
G01*
X235955000Y-171465000D01*
X235955000Y-170165000D01*
X237755000Y-170165000D01*
X237755000Y-171465000D01*
G37*
G36*
X237755000Y-174005000D02*
G01*
X235955000Y-174005000D01*
X235955000Y-172705000D01*
X237755000Y-172705000D01*
X237755000Y-174005000D01*
G37*
G36*
X237755000Y-93995000D02*
G01*
X235955000Y-93995000D01*
X235955000Y-92695000D01*
X237755000Y-92695000D01*
X237755000Y-93995000D01*
G37*
G36*
X237755000Y-96535000D02*
G01*
X235955000Y-96535000D01*
X235955000Y-95235000D01*
X237755000Y-95235000D01*
X237755000Y-96535000D01*
G37*
G36*
X237755000Y-154955000D02*
G01*
X235955000Y-154955000D01*
X235955000Y-153655000D01*
X237755000Y-153655000D01*
X237755000Y-154955000D01*
G37*
G36*
X237755000Y-157495000D02*
G01*
X235955000Y-157495000D01*
X235955000Y-156195000D01*
X237755000Y-156195000D01*
X237755000Y-157495000D01*
G37*
G36*
X258075000Y-105425000D02*
G01*
X256275000Y-105425000D01*
X256275000Y-104125000D01*
X258075000Y-104125000D01*
X258075000Y-105425000D01*
G37*
G36*
X258075000Y-107965000D02*
G01*
X256275000Y-107965000D01*
X256275000Y-106665000D01*
X258075000Y-106665000D01*
X258075000Y-107965000D01*
G37*
G36*
X258075000Y-120665000D02*
G01*
X256275000Y-120665000D01*
X256275000Y-119365000D01*
X258075000Y-119365000D01*
X258075000Y-120665000D01*
G37*
G36*
X258075000Y-123205000D02*
G01*
X256275000Y-123205000D01*
X256275000Y-121905000D01*
X258075000Y-121905000D01*
X258075000Y-123205000D01*
G37*
G36*
X258075000Y-135905000D02*
G01*
X256275000Y-135905000D01*
X256275000Y-134605000D01*
X258075000Y-134605000D01*
X258075000Y-135905000D01*
G37*
G36*
X258075000Y-138445000D02*
G01*
X256275000Y-138445000D01*
X256275000Y-137145000D01*
X258075000Y-137145000D01*
X258075000Y-138445000D01*
G37*
G36*
X258075000Y-166385000D02*
G01*
X256275000Y-166385000D01*
X256275000Y-165085000D01*
X258075000Y-165085000D01*
X258075000Y-166385000D01*
G37*
G36*
X258075000Y-168925000D02*
G01*
X256275000Y-168925000D01*
X256275000Y-167625000D01*
X258075000Y-167625000D01*
X258075000Y-168925000D01*
G37*
G36*
X258075000Y-90185000D02*
G01*
X256275000Y-90185000D01*
X256275000Y-88885000D01*
X258075000Y-88885000D01*
X258075000Y-90185000D01*
G37*
G36*
X258075000Y-92725000D02*
G01*
X256275000Y-92725000D01*
X256275000Y-91425000D01*
X258075000Y-91425000D01*
X258075000Y-92725000D01*
G37*
G36*
X258075000Y-151145000D02*
G01*
X256275000Y-151145000D01*
X256275000Y-149845000D01*
X258075000Y-149845000D01*
X258075000Y-151145000D01*
G37*
G36*
X258075000Y-153685000D02*
G01*
X256275000Y-153685000D01*
X256275000Y-152385000D01*
X258075000Y-152385000D01*
X258075000Y-153685000D01*
G37*
G36*
X46052500Y-188203000D02*
G01*
X46052500Y-190003000D01*
X44752500Y-190003000D01*
X44752500Y-188203000D01*
X46052500Y-188203000D01*
G37*
G36*
X48592500Y-188203000D02*
G01*
X48592500Y-190003000D01*
X47292500Y-190003000D01*
X47292500Y-188203000D01*
X48592500Y-188203000D01*
G37*
D15*
X37052500Y-188468000D03*
X41052500Y-188468000D03*
D10*
G36*
X13667500Y-188203000D02*
G01*
X13667500Y-190003000D01*
X12367500Y-190003000D01*
X12367500Y-188203000D01*
X13667500Y-188203000D01*
G37*
G36*
X16207500Y-188203000D02*
G01*
X16207500Y-190003000D01*
X14907500Y-190003000D01*
X14907500Y-188203000D01*
X16207500Y-188203000D01*
G37*
D15*
X28162500Y-188468000D03*
X32162500Y-188468000D03*
D16*
X197085000Y-188322500D03*
X200335000Y-182517500D03*
X198385000Y-182517500D03*
X198385000Y-188322500D03*
X199035000Y-188322500D03*
X197735000Y-188322500D03*
X202285000Y-182517500D03*
X199685000Y-182517500D03*
X196435000Y-188322500D03*
X202285000Y-188322500D03*
X200985000Y-188322500D03*
X197735000Y-182517500D03*
X197085000Y-182517500D03*
X199035000Y-182517500D03*
X200335000Y-188322500D03*
X201635000Y-182517500D03*
X201635000Y-188322500D03*
X199685000Y-188322500D03*
X196435000Y-182517500D03*
X200985000Y-182517500D03*
X75800000Y-188322500D03*
X79050000Y-182517500D03*
X77100000Y-182517500D03*
X77100000Y-188322500D03*
X77750000Y-188322500D03*
X76450000Y-188322500D03*
X81000000Y-182517500D03*
X78400000Y-182517500D03*
X75150000Y-188322500D03*
X81000000Y-188322500D03*
X79700000Y-188322500D03*
X76450000Y-182517500D03*
X75800000Y-182517500D03*
X77750000Y-182517500D03*
X79050000Y-188322500D03*
X80350000Y-182517500D03*
X80350000Y-188322500D03*
X78400000Y-188322500D03*
X75150000Y-182517500D03*
X79700000Y-182517500D03*
D11*
X63817500Y-197428000D03*
X62867500Y-199628000D03*
X64767500Y-199628000D03*
D10*
G36*
X36777500Y-198008000D02*
G01*
X34977500Y-198008000D01*
X34977500Y-196708000D01*
X36777500Y-196708000D01*
X36777500Y-198008000D01*
G37*
G36*
X36777500Y-200548000D02*
G01*
X34977500Y-200548000D01*
X34977500Y-199248000D01*
X36777500Y-199248000D01*
X36777500Y-200548000D01*
G37*
G36*
X109167500Y-198008000D02*
G01*
X107367500Y-198008000D01*
X107367500Y-196708000D01*
X109167500Y-196708000D01*
X109167500Y-198008000D01*
G37*
G36*
X109167500Y-200548000D02*
G01*
X107367500Y-200548000D01*
X107367500Y-199248000D01*
X109167500Y-199248000D01*
X109167500Y-200548000D01*
G37*
G36*
X132065000Y-63765000D02*
G01*
X132065000Y-61965000D01*
X133365000Y-61965000D01*
X133365000Y-63765000D01*
X132065000Y-63765000D01*
G37*
G36*
X129525000Y-63765000D02*
G01*
X129525000Y-61965000D01*
X130825000Y-61965000D01*
X130825000Y-63765000D01*
X129525000Y-63765000D01*
G37*
D17*
X248285000Y-225010000D03*
X247015000Y-219490000D03*
X248285000Y-219490000D03*
X249555000Y-225010000D03*
X245745000Y-219490000D03*
X249555000Y-219490000D03*
X247015000Y-225010000D03*
X245745000Y-225010000D03*
D18*
X137430000Y-186690000D03*
X137930000Y-186690000D03*
X138430000Y-186690000D03*
X138930000Y-186690000D03*
X139430000Y-186690000D03*
X139430000Y-181610000D03*
X138930000Y-181610000D03*
X138430000Y-181610000D03*
X137430000Y-181610000D03*
X137930000Y-181610000D03*
D10*
G36*
X259450000Y-157465000D02*
G01*
X261250000Y-157465000D01*
X261250000Y-158765000D01*
X259450000Y-158765000D01*
X259450000Y-157465000D01*
G37*
G36*
X259450000Y-154925000D02*
G01*
X261250000Y-154925000D01*
X261250000Y-156225000D01*
X259450000Y-156225000D01*
X259450000Y-154925000D01*
G37*
G36*
X258815000Y-96505000D02*
G01*
X260615000Y-96505000D01*
X260615000Y-97805000D01*
X258815000Y-97805000D01*
X258815000Y-96505000D01*
G37*
G36*
X258815000Y-93965000D02*
G01*
X260615000Y-93965000D01*
X260615000Y-95265000D01*
X258815000Y-95265000D01*
X258815000Y-93965000D01*
G37*
G36*
X259450000Y-172705000D02*
G01*
X261250000Y-172705000D01*
X261250000Y-174005000D01*
X259450000Y-174005000D01*
X259450000Y-172705000D01*
G37*
G36*
X259450000Y-170165000D02*
G01*
X261250000Y-170165000D01*
X261250000Y-171465000D01*
X259450000Y-171465000D01*
X259450000Y-170165000D01*
G37*
G36*
X258815000Y-142225000D02*
G01*
X260615000Y-142225000D01*
X260615000Y-143525000D01*
X258815000Y-143525000D01*
X258815000Y-142225000D01*
G37*
G36*
X258815000Y-139685000D02*
G01*
X260615000Y-139685000D01*
X260615000Y-140985000D01*
X258815000Y-140985000D01*
X258815000Y-139685000D01*
G37*
G36*
X258815000Y-126985000D02*
G01*
X260615000Y-126985000D01*
X260615000Y-128285000D01*
X258815000Y-128285000D01*
X258815000Y-126985000D01*
G37*
G36*
X258815000Y-124445000D02*
G01*
X260615000Y-124445000D01*
X260615000Y-125745000D01*
X258815000Y-125745000D01*
X258815000Y-124445000D01*
G37*
G36*
X258815000Y-111745000D02*
G01*
X260615000Y-111745000D01*
X260615000Y-113045000D01*
X258815000Y-113045000D01*
X258815000Y-111745000D01*
G37*
G36*
X258815000Y-109205000D02*
G01*
X260615000Y-109205000D01*
X260615000Y-110505000D01*
X258815000Y-110505000D01*
X258815000Y-109205000D01*
G37*
G36*
X247385000Y-156195000D02*
G01*
X249185000Y-156195000D01*
X249185000Y-157495000D01*
X247385000Y-157495000D01*
X247385000Y-156195000D01*
G37*
G36*
X247385000Y-153655000D02*
G01*
X249185000Y-153655000D01*
X249185000Y-154955000D01*
X247385000Y-154955000D01*
X247385000Y-153655000D01*
G37*
G36*
X247385000Y-95235000D02*
G01*
X249185000Y-95235000D01*
X249185000Y-96535000D01*
X247385000Y-96535000D01*
X247385000Y-95235000D01*
G37*
G36*
X247385000Y-92695000D02*
G01*
X249185000Y-92695000D01*
X249185000Y-93995000D01*
X247385000Y-93995000D01*
X247385000Y-92695000D01*
G37*
G36*
X247385000Y-171435000D02*
G01*
X249185000Y-171435000D01*
X249185000Y-172735000D01*
X247385000Y-172735000D01*
X247385000Y-171435000D01*
G37*
G36*
X247385000Y-168895000D02*
G01*
X249185000Y-168895000D01*
X249185000Y-170195000D01*
X247385000Y-170195000D01*
X247385000Y-168895000D01*
G37*
G36*
X247385000Y-140955000D02*
G01*
X249185000Y-140955000D01*
X249185000Y-142255000D01*
X247385000Y-142255000D01*
X247385000Y-140955000D01*
G37*
G36*
X247385000Y-138415000D02*
G01*
X249185000Y-138415000D01*
X249185000Y-139715000D01*
X247385000Y-139715000D01*
X247385000Y-138415000D01*
G37*
G36*
X247385000Y-125715000D02*
G01*
X249185000Y-125715000D01*
X249185000Y-127015000D01*
X247385000Y-127015000D01*
X247385000Y-125715000D01*
G37*
G36*
X247385000Y-123175000D02*
G01*
X249185000Y-123175000D01*
X249185000Y-124475000D01*
X247385000Y-124475000D01*
X247385000Y-123175000D01*
G37*
G36*
X247385000Y-110475000D02*
G01*
X249185000Y-110475000D01*
X249185000Y-111775000D01*
X247385000Y-111775000D01*
X247385000Y-110475000D01*
G37*
G36*
X247385000Y-107935000D02*
G01*
X249185000Y-107935000D01*
X249185000Y-109235000D01*
X247385000Y-109235000D01*
X247385000Y-107935000D01*
G37*
G36*
X122820000Y-227980000D02*
G01*
X121020000Y-227980000D01*
X121020000Y-226680000D01*
X122820000Y-226680000D01*
X122820000Y-227980000D01*
G37*
G36*
X122820000Y-230520000D02*
G01*
X121020000Y-230520000D01*
X121020000Y-229220000D01*
X122820000Y-229220000D01*
X122820000Y-230520000D01*
G37*
G36*
X125995000Y-227980000D02*
G01*
X124195000Y-227980000D01*
X124195000Y-226680000D01*
X125995000Y-226680000D01*
X125995000Y-227980000D01*
G37*
G36*
X125995000Y-230520000D02*
G01*
X124195000Y-230520000D01*
X124195000Y-229220000D01*
X125995000Y-229220000D01*
X125995000Y-230520000D01*
G37*
G36*
X129170000Y-227980000D02*
G01*
X127370000Y-227980000D01*
X127370000Y-226680000D01*
X129170000Y-226680000D01*
X129170000Y-227980000D01*
G37*
G36*
X129170000Y-230520000D02*
G01*
X127370000Y-230520000D01*
X127370000Y-229220000D01*
X129170000Y-229220000D01*
X129170000Y-230520000D01*
G37*
G36*
X132345000Y-227980000D02*
G01*
X130545000Y-227980000D01*
X130545000Y-226680000D01*
X132345000Y-226680000D01*
X132345000Y-227980000D01*
G37*
G36*
X132345000Y-230520000D02*
G01*
X130545000Y-230520000D01*
X130545000Y-229220000D01*
X132345000Y-229220000D01*
X132345000Y-230520000D01*
G37*
G36*
X98690000Y-227980000D02*
G01*
X96890000Y-227980000D01*
X96890000Y-226680000D01*
X98690000Y-226680000D01*
X98690000Y-227980000D01*
G37*
G36*
X98690000Y-230520000D02*
G01*
X96890000Y-230520000D01*
X96890000Y-229220000D01*
X98690000Y-229220000D01*
X98690000Y-230520000D01*
G37*
G36*
X101865000Y-227980000D02*
G01*
X100065000Y-227980000D01*
X100065000Y-226680000D01*
X101865000Y-226680000D01*
X101865000Y-227980000D01*
G37*
G36*
X101865000Y-230520000D02*
G01*
X100065000Y-230520000D01*
X100065000Y-229220000D01*
X101865000Y-229220000D01*
X101865000Y-230520000D01*
G37*
G36*
X105040000Y-227980000D02*
G01*
X103240000Y-227980000D01*
X103240000Y-226680000D01*
X105040000Y-226680000D01*
X105040000Y-227980000D01*
G37*
G36*
X105040000Y-230520000D02*
G01*
X103240000Y-230520000D01*
X103240000Y-229220000D01*
X105040000Y-229220000D01*
X105040000Y-230520000D01*
G37*
G36*
X108215000Y-227980000D02*
G01*
X106415000Y-227980000D01*
X106415000Y-226680000D01*
X108215000Y-226680000D01*
X108215000Y-227980000D01*
G37*
G36*
X108215000Y-230520000D02*
G01*
X106415000Y-230520000D01*
X106415000Y-229220000D01*
X108215000Y-229220000D01*
X108215000Y-230520000D01*
G37*
G36*
X244105000Y-227980000D02*
G01*
X242305000Y-227980000D01*
X242305000Y-226680000D01*
X244105000Y-226680000D01*
X244105000Y-227980000D01*
G37*
G36*
X244105000Y-230520000D02*
G01*
X242305000Y-230520000D01*
X242305000Y-229220000D01*
X244105000Y-229220000D01*
X244105000Y-230520000D01*
G37*
G36*
X247280000Y-227980000D02*
G01*
X245480000Y-227980000D01*
X245480000Y-226680000D01*
X247280000Y-226680000D01*
X247280000Y-227980000D01*
G37*
G36*
X247280000Y-230520000D02*
G01*
X245480000Y-230520000D01*
X245480000Y-229220000D01*
X247280000Y-229220000D01*
X247280000Y-230520000D01*
G37*
G36*
X250455000Y-227980000D02*
G01*
X248655000Y-227980000D01*
X248655000Y-226680000D01*
X250455000Y-226680000D01*
X250455000Y-227980000D01*
G37*
G36*
X250455000Y-230520000D02*
G01*
X248655000Y-230520000D01*
X248655000Y-229220000D01*
X250455000Y-229220000D01*
X250455000Y-230520000D01*
G37*
G36*
X74560000Y-227980000D02*
G01*
X72760000Y-227980000D01*
X72760000Y-226680000D01*
X74560000Y-226680000D01*
X74560000Y-227980000D01*
G37*
G36*
X74560000Y-230520000D02*
G01*
X72760000Y-230520000D01*
X72760000Y-229220000D01*
X74560000Y-229220000D01*
X74560000Y-230520000D01*
G37*
G36*
X77735000Y-227980000D02*
G01*
X75935000Y-227980000D01*
X75935000Y-226680000D01*
X77735000Y-226680000D01*
X77735000Y-227980000D01*
G37*
G36*
X77735000Y-230520000D02*
G01*
X75935000Y-230520000D01*
X75935000Y-229220000D01*
X77735000Y-229220000D01*
X77735000Y-230520000D01*
G37*
G36*
X80910000Y-227980000D02*
G01*
X79110000Y-227980000D01*
X79110000Y-226680000D01*
X80910000Y-226680000D01*
X80910000Y-227980000D01*
G37*
G36*
X80910000Y-230520000D02*
G01*
X79110000Y-230520000D01*
X79110000Y-229220000D01*
X80910000Y-229220000D01*
X80910000Y-230520000D01*
G37*
G36*
X84085000Y-227980000D02*
G01*
X82285000Y-227980000D01*
X82285000Y-226680000D01*
X84085000Y-226680000D01*
X84085000Y-227980000D01*
G37*
G36*
X84085000Y-230520000D02*
G01*
X82285000Y-230520000D01*
X82285000Y-229220000D01*
X84085000Y-229220000D01*
X84085000Y-230520000D01*
G37*
G36*
X49795000Y-227980000D02*
G01*
X47995000Y-227980000D01*
X47995000Y-226680000D01*
X49795000Y-226680000D01*
X49795000Y-227980000D01*
G37*
G36*
X49795000Y-230520000D02*
G01*
X47995000Y-230520000D01*
X47995000Y-229220000D01*
X49795000Y-229220000D01*
X49795000Y-230520000D01*
G37*
G36*
X52970000Y-227980000D02*
G01*
X51170000Y-227980000D01*
X51170000Y-226680000D01*
X52970000Y-226680000D01*
X52970000Y-227980000D01*
G37*
G36*
X52970000Y-230520000D02*
G01*
X51170000Y-230520000D01*
X51170000Y-229220000D01*
X52970000Y-229220000D01*
X52970000Y-230520000D01*
G37*
G36*
X56780000Y-227980000D02*
G01*
X54980000Y-227980000D01*
X54980000Y-226680000D01*
X56780000Y-226680000D01*
X56780000Y-227980000D01*
G37*
G36*
X56780000Y-230520000D02*
G01*
X54980000Y-230520000D01*
X54980000Y-229220000D01*
X56780000Y-229220000D01*
X56780000Y-230520000D01*
G37*
G36*
X59955000Y-227980000D02*
G01*
X58155000Y-227980000D01*
X58155000Y-226680000D01*
X59955000Y-226680000D01*
X59955000Y-227980000D01*
G37*
G36*
X59955000Y-230520000D02*
G01*
X58155000Y-230520000D01*
X58155000Y-229220000D01*
X59955000Y-229220000D01*
X59955000Y-230520000D01*
G37*
G36*
X25665000Y-227980000D02*
G01*
X23865000Y-227980000D01*
X23865000Y-226680000D01*
X25665000Y-226680000D01*
X25665000Y-227980000D01*
G37*
G36*
X25665000Y-230520000D02*
G01*
X23865000Y-230520000D01*
X23865000Y-229220000D01*
X25665000Y-229220000D01*
X25665000Y-230520000D01*
G37*
G36*
X28840000Y-227980000D02*
G01*
X27040000Y-227980000D01*
X27040000Y-226680000D01*
X28840000Y-226680000D01*
X28840000Y-227980000D01*
G37*
G36*
X28840000Y-230520000D02*
G01*
X27040000Y-230520000D01*
X27040000Y-229220000D01*
X28840000Y-229220000D01*
X28840000Y-230520000D01*
G37*
G36*
X32650000Y-227980000D02*
G01*
X30850000Y-227980000D01*
X30850000Y-226680000D01*
X32650000Y-226680000D01*
X32650000Y-227980000D01*
G37*
G36*
X32650000Y-230520000D02*
G01*
X30850000Y-230520000D01*
X30850000Y-229220000D01*
X32650000Y-229220000D01*
X32650000Y-230520000D01*
G37*
G36*
X35825000Y-227980000D02*
G01*
X34025000Y-227980000D01*
X34025000Y-226680000D01*
X35825000Y-226680000D01*
X35825000Y-227980000D01*
G37*
G36*
X35825000Y-230520000D02*
G01*
X34025000Y-230520000D01*
X34025000Y-229220000D01*
X35825000Y-229220000D01*
X35825000Y-230520000D01*
G37*
G36*
X146950000Y-227980000D02*
G01*
X145150000Y-227980000D01*
X145150000Y-226680000D01*
X146950000Y-226680000D01*
X146950000Y-227980000D01*
G37*
G36*
X146950000Y-230520000D02*
G01*
X145150000Y-230520000D01*
X145150000Y-229220000D01*
X146950000Y-229220000D01*
X146950000Y-230520000D01*
G37*
G36*
X150125000Y-227980000D02*
G01*
X148325000Y-227980000D01*
X148325000Y-226680000D01*
X150125000Y-226680000D01*
X150125000Y-227980000D01*
G37*
G36*
X150125000Y-230520000D02*
G01*
X148325000Y-230520000D01*
X148325000Y-229220000D01*
X150125000Y-229220000D01*
X150125000Y-230520000D01*
G37*
G36*
X153300000Y-227980000D02*
G01*
X151500000Y-227980000D01*
X151500000Y-226680000D01*
X153300000Y-226680000D01*
X153300000Y-227980000D01*
G37*
G36*
X153300000Y-230520000D02*
G01*
X151500000Y-230520000D01*
X151500000Y-229220000D01*
X153300000Y-229220000D01*
X153300000Y-230520000D01*
G37*
G36*
X156475000Y-227980000D02*
G01*
X154675000Y-227980000D01*
X154675000Y-226680000D01*
X156475000Y-226680000D01*
X156475000Y-227980000D01*
G37*
G36*
X156475000Y-230520000D02*
G01*
X154675000Y-230520000D01*
X154675000Y-229220000D01*
X156475000Y-229220000D01*
X156475000Y-230520000D01*
G37*
G36*
X171080000Y-227980000D02*
G01*
X169280000Y-227980000D01*
X169280000Y-226680000D01*
X171080000Y-226680000D01*
X171080000Y-227980000D01*
G37*
G36*
X171080000Y-230520000D02*
G01*
X169280000Y-230520000D01*
X169280000Y-229220000D01*
X171080000Y-229220000D01*
X171080000Y-230520000D01*
G37*
G36*
X174255000Y-227980000D02*
G01*
X172455000Y-227980000D01*
X172455000Y-226680000D01*
X174255000Y-226680000D01*
X174255000Y-227980000D01*
G37*
G36*
X174255000Y-230520000D02*
G01*
X172455000Y-230520000D01*
X172455000Y-229220000D01*
X174255000Y-229220000D01*
X174255000Y-230520000D01*
G37*
G36*
X177430000Y-227980000D02*
G01*
X175630000Y-227980000D01*
X175630000Y-226680000D01*
X177430000Y-226680000D01*
X177430000Y-227980000D01*
G37*
G36*
X177430000Y-230520000D02*
G01*
X175630000Y-230520000D01*
X175630000Y-229220000D01*
X177430000Y-229220000D01*
X177430000Y-230520000D01*
G37*
G36*
X180605000Y-227980000D02*
G01*
X178805000Y-227980000D01*
X178805000Y-226680000D01*
X180605000Y-226680000D01*
X180605000Y-227980000D01*
G37*
G36*
X180605000Y-230520000D02*
G01*
X178805000Y-230520000D01*
X178805000Y-229220000D01*
X180605000Y-229220000D01*
X180605000Y-230520000D01*
G37*
G36*
X195845000Y-227980000D02*
G01*
X194045000Y-227980000D01*
X194045000Y-226680000D01*
X195845000Y-226680000D01*
X195845000Y-227980000D01*
G37*
G36*
X195845000Y-230520000D02*
G01*
X194045000Y-230520000D01*
X194045000Y-229220000D01*
X195845000Y-229220000D01*
X195845000Y-230520000D01*
G37*
G36*
X199020000Y-227980000D02*
G01*
X197220000Y-227980000D01*
X197220000Y-226680000D01*
X199020000Y-226680000D01*
X199020000Y-227980000D01*
G37*
G36*
X199020000Y-230520000D02*
G01*
X197220000Y-230520000D01*
X197220000Y-229220000D01*
X199020000Y-229220000D01*
X199020000Y-230520000D01*
G37*
G36*
X202195000Y-227980000D02*
G01*
X200395000Y-227980000D01*
X200395000Y-226680000D01*
X202195000Y-226680000D01*
X202195000Y-227980000D01*
G37*
G36*
X202195000Y-230520000D02*
G01*
X200395000Y-230520000D01*
X200395000Y-229220000D01*
X202195000Y-229220000D01*
X202195000Y-230520000D01*
G37*
G36*
X205370000Y-227980000D02*
G01*
X203570000Y-227980000D01*
X203570000Y-226680000D01*
X205370000Y-226680000D01*
X205370000Y-227980000D01*
G37*
G36*
X205370000Y-230520000D02*
G01*
X203570000Y-230520000D01*
X203570000Y-229220000D01*
X205370000Y-229220000D01*
X205370000Y-230520000D01*
G37*
G36*
X219975000Y-227980000D02*
G01*
X218175000Y-227980000D01*
X218175000Y-226680000D01*
X219975000Y-226680000D01*
X219975000Y-227980000D01*
G37*
G36*
X219975000Y-230520000D02*
G01*
X218175000Y-230520000D01*
X218175000Y-229220000D01*
X219975000Y-229220000D01*
X219975000Y-230520000D01*
G37*
G36*
X223150000Y-227980000D02*
G01*
X221350000Y-227980000D01*
X221350000Y-226680000D01*
X223150000Y-226680000D01*
X223150000Y-227980000D01*
G37*
G36*
X223150000Y-230520000D02*
G01*
X221350000Y-230520000D01*
X221350000Y-229220000D01*
X223150000Y-229220000D01*
X223150000Y-230520000D01*
G37*
G36*
X226325000Y-227980000D02*
G01*
X224525000Y-227980000D01*
X224525000Y-226680000D01*
X226325000Y-226680000D01*
X226325000Y-227980000D01*
G37*
G36*
X226325000Y-230520000D02*
G01*
X224525000Y-230520000D01*
X224525000Y-229220000D01*
X226325000Y-229220000D01*
X226325000Y-230520000D01*
G37*
G36*
X229500000Y-227980000D02*
G01*
X227700000Y-227980000D01*
X227700000Y-226680000D01*
X229500000Y-226680000D01*
X229500000Y-227980000D01*
G37*
G36*
X229500000Y-230520000D02*
G01*
X227700000Y-230520000D01*
X227700000Y-229220000D01*
X229500000Y-229220000D01*
X229500000Y-230520000D01*
G37*
G36*
X253630000Y-227980000D02*
G01*
X251830000Y-227980000D01*
X251830000Y-226680000D01*
X253630000Y-226680000D01*
X253630000Y-227980000D01*
G37*
G36*
X253630000Y-230520000D02*
G01*
X251830000Y-230520000D01*
X251830000Y-229220000D01*
X253630000Y-229220000D01*
X253630000Y-230520000D01*
G37*
G36*
X85037500Y-198008000D02*
G01*
X83237500Y-198008000D01*
X83237500Y-196708000D01*
X85037500Y-196708000D01*
X85037500Y-198008000D01*
G37*
G36*
X85037500Y-200548000D02*
G01*
X83237500Y-200548000D01*
X83237500Y-199248000D01*
X85037500Y-199248000D01*
X85037500Y-200548000D01*
G37*
G36*
X60907500Y-198008000D02*
G01*
X59107500Y-198008000D01*
X59107500Y-196708000D01*
X60907500Y-196708000D01*
X60907500Y-198008000D01*
G37*
G36*
X60907500Y-200548000D02*
G01*
X59107500Y-200548000D01*
X59107500Y-199248000D01*
X60907500Y-199248000D01*
X60907500Y-200548000D01*
G37*
G36*
X254709500Y-198008000D02*
G01*
X252909500Y-198008000D01*
X252909500Y-196708000D01*
X254709500Y-196708000D01*
X254709500Y-198008000D01*
G37*
G36*
X254709500Y-200548000D02*
G01*
X252909500Y-200548000D01*
X252909500Y-199248000D01*
X254709500Y-199248000D01*
X254709500Y-200548000D01*
G37*
G36*
X133297500Y-198008000D02*
G01*
X131497500Y-198008000D01*
X131497500Y-196708000D01*
X133297500Y-196708000D01*
X133297500Y-198008000D01*
G37*
G36*
X133297500Y-200548000D02*
G01*
X131497500Y-200548000D01*
X131497500Y-199248000D01*
X133297500Y-199248000D01*
X133297500Y-200548000D01*
G37*
G36*
X157173500Y-198008000D02*
G01*
X155373500Y-198008000D01*
X155373500Y-196708000D01*
X157173500Y-196708000D01*
X157173500Y-198008000D01*
G37*
G36*
X157173500Y-200548000D02*
G01*
X155373500Y-200548000D01*
X155373500Y-199248000D01*
X157173500Y-199248000D01*
X157173500Y-200548000D01*
G37*
G36*
X181811500Y-198008000D02*
G01*
X180011500Y-198008000D01*
X180011500Y-196708000D01*
X181811500Y-196708000D01*
X181811500Y-198008000D01*
G37*
G36*
X181811500Y-200548000D02*
G01*
X180011500Y-200548000D01*
X180011500Y-199248000D01*
X181811500Y-199248000D01*
X181811500Y-200548000D01*
G37*
G36*
X206703500Y-198008000D02*
G01*
X204903500Y-198008000D01*
X204903500Y-196708000D01*
X206703500Y-196708000D01*
X206703500Y-198008000D01*
G37*
G36*
X206703500Y-200548000D02*
G01*
X204903500Y-200548000D01*
X204903500Y-199248000D01*
X206703500Y-199248000D01*
X206703500Y-200548000D01*
G37*
G36*
X230579500Y-198008000D02*
G01*
X228779500Y-198008000D01*
X228779500Y-196708000D01*
X230579500Y-196708000D01*
X230579500Y-198008000D01*
G37*
G36*
X230579500Y-200548000D02*
G01*
X228779500Y-200548000D01*
X228779500Y-199248000D01*
X230579500Y-199248000D01*
X230579500Y-200548000D01*
G37*
G36*
X193025000Y-59955000D02*
G01*
X193025000Y-58155000D01*
X194325000Y-58155000D01*
X194325000Y-59955000D01*
X193025000Y-59955000D01*
G37*
G36*
X190485000Y-59955000D02*
G01*
X190485000Y-58155000D01*
X191785000Y-58155000D01*
X191785000Y-59955000D01*
X190485000Y-59955000D01*
G37*
G36*
X223505000Y-59955000D02*
G01*
X223505000Y-58155000D01*
X224805000Y-58155000D01*
X224805000Y-59955000D01*
X223505000Y-59955000D01*
G37*
G36*
X220965000Y-59955000D02*
G01*
X220965000Y-58155000D01*
X222265000Y-58155000D01*
X222265000Y-59955000D01*
X220965000Y-59955000D01*
G37*
G36*
X203185000Y-59955000D02*
G01*
X203185000Y-58155000D01*
X204485000Y-58155000D01*
X204485000Y-59955000D01*
X203185000Y-59955000D01*
G37*
G36*
X200645000Y-59955000D02*
G01*
X200645000Y-58155000D01*
X201945000Y-58155000D01*
X201945000Y-59955000D01*
X200645000Y-59955000D01*
G37*
G36*
X213345000Y-59955000D02*
G01*
X213345000Y-58155000D01*
X214645000Y-58155000D01*
X214645000Y-59955000D01*
X213345000Y-59955000D01*
G37*
G36*
X210805000Y-59955000D02*
G01*
X210805000Y-58155000D01*
X212105000Y-58155000D01*
X212105000Y-59955000D01*
X210805000Y-59955000D01*
G37*
G36*
X193025000Y-63765000D02*
G01*
X193025000Y-61965000D01*
X194325000Y-61965000D01*
X194325000Y-63765000D01*
X193025000Y-63765000D01*
G37*
G36*
X190485000Y-63765000D02*
G01*
X190485000Y-61965000D01*
X191785000Y-61965000D01*
X191785000Y-63765000D01*
X190485000Y-63765000D01*
G37*
G36*
X223505000Y-63765000D02*
G01*
X223505000Y-61965000D01*
X224805000Y-61965000D01*
X224805000Y-63765000D01*
X223505000Y-63765000D01*
G37*
G36*
X220965000Y-63765000D02*
G01*
X220965000Y-61965000D01*
X222265000Y-61965000D01*
X222265000Y-63765000D01*
X220965000Y-63765000D01*
G37*
G36*
X203185000Y-63765000D02*
G01*
X203185000Y-61965000D01*
X204485000Y-61965000D01*
X204485000Y-63765000D01*
X203185000Y-63765000D01*
G37*
G36*
X200645000Y-63765000D02*
G01*
X200645000Y-61965000D01*
X201945000Y-61965000D01*
X201945000Y-63765000D01*
X200645000Y-63765000D01*
G37*
G36*
X213345000Y-63765000D02*
G01*
X213345000Y-61965000D01*
X214645000Y-61965000D01*
X214645000Y-63765000D01*
X213345000Y-63765000D01*
G37*
G36*
X210805000Y-63765000D02*
G01*
X210805000Y-61965000D01*
X212105000Y-61965000D01*
X212105000Y-63765000D01*
X210805000Y-63765000D01*
G37*
G36*
X193025000Y-56145000D02*
G01*
X193025000Y-54345000D01*
X194325000Y-54345000D01*
X194325000Y-56145000D01*
X193025000Y-56145000D01*
G37*
G36*
X190485000Y-56145000D02*
G01*
X190485000Y-54345000D01*
X191785000Y-54345000D01*
X191785000Y-56145000D01*
X190485000Y-56145000D01*
G37*
G36*
X223505000Y-56145000D02*
G01*
X223505000Y-54345000D01*
X224805000Y-54345000D01*
X224805000Y-56145000D01*
X223505000Y-56145000D01*
G37*
G36*
X220965000Y-56145000D02*
G01*
X220965000Y-54345000D01*
X222265000Y-54345000D01*
X222265000Y-56145000D01*
X220965000Y-56145000D01*
G37*
G36*
X203185000Y-56145000D02*
G01*
X203185000Y-54345000D01*
X204485000Y-54345000D01*
X204485000Y-56145000D01*
X203185000Y-56145000D01*
G37*
G36*
X200645000Y-56145000D02*
G01*
X200645000Y-54345000D01*
X201945000Y-54345000D01*
X201945000Y-56145000D01*
X200645000Y-56145000D01*
G37*
G36*
X213345000Y-56145000D02*
G01*
X213345000Y-54345000D01*
X214645000Y-54345000D01*
X214645000Y-56145000D01*
X213345000Y-56145000D01*
G37*
G36*
X210805000Y-56145000D02*
G01*
X210805000Y-54345000D01*
X212105000Y-54345000D01*
X212105000Y-56145000D01*
X210805000Y-56145000D01*
G37*
G36*
X191785000Y-77840000D02*
G01*
X191785000Y-79640000D01*
X190485000Y-79640000D01*
X190485000Y-77840000D01*
X191785000Y-77840000D01*
G37*
G36*
X194325000Y-77840000D02*
G01*
X194325000Y-79640000D01*
X193025000Y-79640000D01*
X193025000Y-77840000D01*
X194325000Y-77840000D01*
G37*
G36*
X222265000Y-77840000D02*
G01*
X222265000Y-79640000D01*
X220965000Y-79640000D01*
X220965000Y-77840000D01*
X222265000Y-77840000D01*
G37*
G36*
X224805000Y-77840000D02*
G01*
X224805000Y-79640000D01*
X223505000Y-79640000D01*
X223505000Y-77840000D01*
X224805000Y-77840000D01*
G37*
G36*
X201945000Y-77840000D02*
G01*
X201945000Y-79640000D01*
X200645000Y-79640000D01*
X200645000Y-77840000D01*
X201945000Y-77840000D01*
G37*
G36*
X204485000Y-77840000D02*
G01*
X204485000Y-79640000D01*
X203185000Y-79640000D01*
X203185000Y-77840000D01*
X204485000Y-77840000D01*
G37*
G36*
X212105000Y-77840000D02*
G01*
X212105000Y-79640000D01*
X210805000Y-79640000D01*
X210805000Y-77840000D01*
X212105000Y-77840000D01*
G37*
G36*
X214645000Y-77840000D02*
G01*
X214645000Y-79640000D01*
X213345000Y-79640000D01*
X213345000Y-77840000D01*
X214645000Y-77840000D01*
G37*
G36*
X111707500Y-62118000D02*
G01*
X109907500Y-62118000D01*
X109907500Y-60818000D01*
X111707500Y-60818000D01*
X111707500Y-62118000D01*
G37*
G36*
X111707500Y-64658000D02*
G01*
X109907500Y-64658000D01*
X109907500Y-63358000D01*
X111707500Y-63358000D01*
X111707500Y-64658000D01*
G37*
G36*
X116787500Y-62118000D02*
G01*
X114987500Y-62118000D01*
X114987500Y-60818000D01*
X116787500Y-60818000D01*
X116787500Y-62118000D01*
G37*
G36*
X116787500Y-64658000D02*
G01*
X114987500Y-64658000D01*
X114987500Y-63358000D01*
X116787500Y-63358000D01*
X116787500Y-64658000D01*
G37*
G36*
X121867500Y-62118000D02*
G01*
X120067500Y-62118000D01*
X120067500Y-60818000D01*
X121867500Y-60818000D01*
X121867500Y-62118000D01*
G37*
G36*
X121867500Y-64658000D02*
G01*
X120067500Y-64658000D01*
X120067500Y-63358000D01*
X121867500Y-63358000D01*
X121867500Y-64658000D01*
G37*
G36*
X107897500Y-86756000D02*
G01*
X106097500Y-86756000D01*
X106097500Y-85456000D01*
X107897500Y-85456000D01*
X107897500Y-86756000D01*
G37*
G36*
X107897500Y-89296000D02*
G01*
X106097500Y-89296000D01*
X106097500Y-87996000D01*
X107897500Y-87996000D01*
X107897500Y-89296000D01*
G37*
G36*
X113485500Y-86756000D02*
G01*
X111685500Y-86756000D01*
X111685500Y-85456000D01*
X113485500Y-85456000D01*
X113485500Y-86756000D01*
G37*
G36*
X113485500Y-89296000D02*
G01*
X111685500Y-89296000D01*
X111685500Y-87996000D01*
X113485500Y-87996000D01*
X113485500Y-89296000D01*
G37*
G36*
X119073500Y-86756000D02*
G01*
X117273500Y-86756000D01*
X117273500Y-85456000D01*
X119073500Y-85456000D01*
X119073500Y-86756000D01*
G37*
G36*
X119073500Y-89296000D02*
G01*
X117273500Y-89296000D01*
X117273500Y-87996000D01*
X119073500Y-87996000D01*
X119073500Y-89296000D01*
G37*
G36*
X106377500Y-90286000D02*
G01*
X106377500Y-92086000D01*
X105077500Y-92086000D01*
X105077500Y-90286000D01*
X106377500Y-90286000D01*
G37*
G36*
X108917500Y-90286000D02*
G01*
X108917500Y-92086000D01*
X107617500Y-92086000D01*
X107617500Y-90286000D01*
X108917500Y-90286000D01*
G37*
G36*
X111965500Y-90286000D02*
G01*
X111965500Y-92086000D01*
X110665500Y-92086000D01*
X110665500Y-90286000D01*
X111965500Y-90286000D01*
G37*
G36*
X114505500Y-90286000D02*
G01*
X114505500Y-92086000D01*
X113205500Y-92086000D01*
X113205500Y-90286000D01*
X114505500Y-90286000D01*
G37*
G36*
X117553500Y-90286000D02*
G01*
X117553500Y-92086000D01*
X116253500Y-92086000D01*
X116253500Y-90286000D01*
X117553500Y-90286000D01*
G37*
G36*
X120093500Y-90286000D02*
G01*
X120093500Y-92086000D01*
X118793500Y-92086000D01*
X118793500Y-90286000D01*
X120093500Y-90286000D01*
G37*
G36*
X106377500Y-94096000D02*
G01*
X106377500Y-95896000D01*
X105077500Y-95896000D01*
X105077500Y-94096000D01*
X106377500Y-94096000D01*
G37*
G36*
X108917500Y-94096000D02*
G01*
X108917500Y-95896000D01*
X107617500Y-95896000D01*
X107617500Y-94096000D01*
X108917500Y-94096000D01*
G37*
G36*
X111965500Y-94096000D02*
G01*
X111965500Y-95896000D01*
X110665500Y-95896000D01*
X110665500Y-94096000D01*
X111965500Y-94096000D01*
G37*
G36*
X114505500Y-94096000D02*
G01*
X114505500Y-95896000D01*
X113205500Y-95896000D01*
X113205500Y-94096000D01*
X114505500Y-94096000D01*
G37*
G36*
X117553500Y-94096000D02*
G01*
X117553500Y-95896000D01*
X116253500Y-95896000D01*
X116253500Y-94096000D01*
X117553500Y-94096000D01*
G37*
G36*
X120093500Y-94096000D02*
G01*
X120093500Y-95896000D01*
X118793500Y-95896000D01*
X118793500Y-94096000D01*
X120093500Y-94096000D01*
G37*
G36*
X162545000Y-59955000D02*
G01*
X162545000Y-58155000D01*
X163845000Y-58155000D01*
X163845000Y-59955000D01*
X162545000Y-59955000D01*
G37*
G36*
X160005000Y-59955000D02*
G01*
X160005000Y-58155000D01*
X161305000Y-58155000D01*
X161305000Y-59955000D01*
X160005000Y-59955000D01*
G37*
G36*
X172705000Y-59955000D02*
G01*
X172705000Y-58155000D01*
X174005000Y-58155000D01*
X174005000Y-59955000D01*
X172705000Y-59955000D01*
G37*
G36*
X170165000Y-59955000D02*
G01*
X170165000Y-58155000D01*
X171465000Y-58155000D01*
X171465000Y-59955000D01*
X170165000Y-59955000D01*
G37*
G36*
X162545000Y-63765000D02*
G01*
X162545000Y-61965000D01*
X163845000Y-61965000D01*
X163845000Y-63765000D01*
X162545000Y-63765000D01*
G37*
G36*
X160005000Y-63765000D02*
G01*
X160005000Y-61965000D01*
X161305000Y-61965000D01*
X161305000Y-63765000D01*
X160005000Y-63765000D01*
G37*
G36*
X152385000Y-59955000D02*
G01*
X152385000Y-58155000D01*
X153685000Y-58155000D01*
X153685000Y-59955000D01*
X152385000Y-59955000D01*
G37*
G36*
X149845000Y-59955000D02*
G01*
X149845000Y-58155000D01*
X151145000Y-58155000D01*
X151145000Y-59955000D01*
X149845000Y-59955000D01*
G37*
G36*
X172705000Y-63765000D02*
G01*
X172705000Y-61965000D01*
X174005000Y-61965000D01*
X174005000Y-63765000D01*
X172705000Y-63765000D01*
G37*
G36*
X170165000Y-63765000D02*
G01*
X170165000Y-61965000D01*
X171465000Y-61965000D01*
X171465000Y-63765000D01*
X170165000Y-63765000D01*
G37*
G36*
X182865000Y-59955000D02*
G01*
X182865000Y-58155000D01*
X184165000Y-58155000D01*
X184165000Y-59955000D01*
X182865000Y-59955000D01*
G37*
G36*
X180325000Y-59955000D02*
G01*
X180325000Y-58155000D01*
X181625000Y-58155000D01*
X181625000Y-59955000D01*
X180325000Y-59955000D01*
G37*
G36*
X152385000Y-63765000D02*
G01*
X152385000Y-61965000D01*
X153685000Y-61965000D01*
X153685000Y-63765000D01*
X152385000Y-63765000D01*
G37*
G36*
X149845000Y-63765000D02*
G01*
X149845000Y-61965000D01*
X151145000Y-61965000D01*
X151145000Y-63765000D01*
X149845000Y-63765000D01*
G37*
G36*
X162545000Y-56145000D02*
G01*
X162545000Y-54345000D01*
X163845000Y-54345000D01*
X163845000Y-56145000D01*
X162545000Y-56145000D01*
G37*
G36*
X160005000Y-56145000D02*
G01*
X160005000Y-54345000D01*
X161305000Y-54345000D01*
X161305000Y-56145000D01*
X160005000Y-56145000D01*
G37*
G36*
X172705000Y-56145000D02*
G01*
X172705000Y-54345000D01*
X174005000Y-54345000D01*
X174005000Y-56145000D01*
X172705000Y-56145000D01*
G37*
G36*
X170165000Y-56145000D02*
G01*
X170165000Y-54345000D01*
X171465000Y-54345000D01*
X171465000Y-56145000D01*
X170165000Y-56145000D01*
G37*
G36*
X182865000Y-63765000D02*
G01*
X182865000Y-61965000D01*
X184165000Y-61965000D01*
X184165000Y-63765000D01*
X182865000Y-63765000D01*
G37*
G36*
X180325000Y-63765000D02*
G01*
X180325000Y-61965000D01*
X181625000Y-61965000D01*
X181625000Y-63765000D01*
X180325000Y-63765000D01*
G37*
G36*
X152385000Y-56145000D02*
G01*
X152385000Y-54345000D01*
X153685000Y-54345000D01*
X153685000Y-56145000D01*
X152385000Y-56145000D01*
G37*
G36*
X149845000Y-56145000D02*
G01*
X149845000Y-54345000D01*
X151145000Y-54345000D01*
X151145000Y-56145000D01*
X149845000Y-56145000D01*
G37*
G36*
X182865000Y-56145000D02*
G01*
X182865000Y-54345000D01*
X184165000Y-54345000D01*
X184165000Y-56145000D01*
X182865000Y-56145000D01*
G37*
G36*
X180325000Y-56145000D02*
G01*
X180325000Y-54345000D01*
X181625000Y-54345000D01*
X181625000Y-56145000D01*
X180325000Y-56145000D01*
G37*
G36*
X161305000Y-77840000D02*
G01*
X161305000Y-79640000D01*
X160005000Y-79640000D01*
X160005000Y-77840000D01*
X161305000Y-77840000D01*
G37*
G36*
X163845000Y-77840000D02*
G01*
X163845000Y-79640000D01*
X162545000Y-79640000D01*
X162545000Y-77840000D01*
X163845000Y-77840000D01*
G37*
G36*
X171465000Y-77840000D02*
G01*
X171465000Y-79640000D01*
X170165000Y-79640000D01*
X170165000Y-77840000D01*
X171465000Y-77840000D01*
G37*
G36*
X174005000Y-77840000D02*
G01*
X174005000Y-79640000D01*
X172705000Y-79640000D01*
X172705000Y-77840000D01*
X174005000Y-77840000D01*
G37*
G36*
X151145000Y-77840000D02*
G01*
X151145000Y-79640000D01*
X149845000Y-79640000D01*
X149845000Y-77840000D01*
X151145000Y-77840000D01*
G37*
G36*
X153685000Y-77840000D02*
G01*
X153685000Y-79640000D01*
X152385000Y-79640000D01*
X152385000Y-77840000D01*
X153685000Y-77840000D01*
G37*
G36*
X181625000Y-77840000D02*
G01*
X181625000Y-79640000D01*
X180325000Y-79640000D01*
X180325000Y-77840000D01*
X181625000Y-77840000D01*
G37*
G36*
X184165000Y-77840000D02*
G01*
X184165000Y-79640000D01*
X182865000Y-79640000D01*
X182865000Y-77840000D01*
X184165000Y-77840000D01*
G37*
G36*
X142225000Y-59955000D02*
G01*
X142225000Y-58155000D01*
X143525000Y-58155000D01*
X143525000Y-59955000D01*
X142225000Y-59955000D01*
G37*
G36*
X139685000Y-59955000D02*
G01*
X139685000Y-58155000D01*
X140985000Y-58155000D01*
X140985000Y-59955000D01*
X139685000Y-59955000D01*
G37*
G36*
X142225000Y-63765000D02*
G01*
X142225000Y-61965000D01*
X143525000Y-61965000D01*
X143525000Y-63765000D01*
X142225000Y-63765000D01*
G37*
G36*
X139685000Y-63765000D02*
G01*
X139685000Y-61965000D01*
X140985000Y-61965000D01*
X140985000Y-63765000D01*
X139685000Y-63765000D01*
G37*
G36*
X132065000Y-59955000D02*
G01*
X132065000Y-58155000D01*
X133365000Y-58155000D01*
X133365000Y-59955000D01*
X132065000Y-59955000D01*
G37*
G36*
X129525000Y-59955000D02*
G01*
X129525000Y-58155000D01*
X130825000Y-58155000D01*
X130825000Y-59955000D01*
X129525000Y-59955000D01*
G37*
G36*
X142225000Y-56145000D02*
G01*
X142225000Y-54345000D01*
X143525000Y-54345000D01*
X143525000Y-56145000D01*
X142225000Y-56145000D01*
G37*
G36*
X139685000Y-56145000D02*
G01*
X139685000Y-54345000D01*
X140985000Y-54345000D01*
X140985000Y-56145000D01*
X139685000Y-56145000D01*
G37*
G36*
X132065000Y-56145000D02*
G01*
X132065000Y-54345000D01*
X133365000Y-54345000D01*
X133365000Y-56145000D01*
X132065000Y-56145000D01*
G37*
G36*
X129525000Y-56145000D02*
G01*
X129525000Y-54345000D01*
X130825000Y-54345000D01*
X130825000Y-56145000D01*
X129525000Y-56145000D01*
G37*
G36*
X140985000Y-77840000D02*
G01*
X140985000Y-79640000D01*
X139685000Y-79640000D01*
X139685000Y-77840000D01*
X140985000Y-77840000D01*
G37*
G36*
X143525000Y-77840000D02*
G01*
X143525000Y-79640000D01*
X142225000Y-79640000D01*
X142225000Y-77840000D01*
X143525000Y-77840000D01*
G37*
G36*
X130825000Y-77840000D02*
G01*
X130825000Y-79640000D01*
X129525000Y-79640000D01*
X129525000Y-77840000D01*
X130825000Y-77840000D01*
G37*
G36*
X133365000Y-77840000D02*
G01*
X133365000Y-79640000D01*
X132065000Y-79640000D01*
X132065000Y-77840000D01*
X133365000Y-77840000D01*
G37*
G36*
X177150000Y-95515000D02*
G01*
X177150000Y-93715000D01*
X178450000Y-93715000D01*
X178450000Y-95515000D01*
X177150000Y-95515000D01*
G37*
G36*
X174610000Y-95515000D02*
G01*
X174610000Y-93715000D01*
X175910000Y-93715000D01*
X175910000Y-95515000D01*
X174610000Y-95515000D01*
G37*
G36*
X177150000Y-101865000D02*
G01*
X177150000Y-100065000D01*
X178450000Y-100065000D01*
X178450000Y-101865000D01*
X177150000Y-101865000D01*
G37*
G36*
X174610000Y-101865000D02*
G01*
X174610000Y-100065000D01*
X175910000Y-100065000D01*
X175910000Y-101865000D01*
X174610000Y-101865000D01*
G37*
G36*
X159400000Y-103240000D02*
G01*
X159400000Y-105040000D01*
X158100000Y-105040000D01*
X158100000Y-103240000D01*
X159400000Y-103240000D01*
G37*
G36*
X161940000Y-103240000D02*
G01*
X161940000Y-105040000D01*
X160640000Y-105040000D01*
X160640000Y-103240000D01*
X161940000Y-103240000D01*
G37*
G36*
X159400000Y-96890000D02*
G01*
X159400000Y-98690000D01*
X158100000Y-98690000D01*
X158100000Y-96890000D01*
X159400000Y-96890000D01*
G37*
G36*
X161940000Y-96890000D02*
G01*
X161940000Y-98690000D01*
X160640000Y-98690000D01*
X160640000Y-96890000D01*
X161940000Y-96890000D01*
G37*
G36*
X177150000Y-98690000D02*
G01*
X177150000Y-96890000D01*
X178450000Y-96890000D01*
X178450000Y-98690000D01*
X177150000Y-98690000D01*
G37*
G36*
X174610000Y-98690000D02*
G01*
X174610000Y-96890000D01*
X175910000Y-96890000D01*
X175910000Y-98690000D01*
X174610000Y-98690000D01*
G37*
G36*
X177150000Y-105040000D02*
G01*
X177150000Y-103240000D01*
X178450000Y-103240000D01*
X178450000Y-105040000D01*
X177150000Y-105040000D01*
G37*
G36*
X174610000Y-105040000D02*
G01*
X174610000Y-103240000D01*
X175910000Y-103240000D01*
X175910000Y-105040000D01*
X174610000Y-105040000D01*
G37*
G36*
X159400000Y-100065000D02*
G01*
X159400000Y-101865000D01*
X158100000Y-101865000D01*
X158100000Y-100065000D01*
X159400000Y-100065000D01*
G37*
G36*
X161940000Y-100065000D02*
G01*
X161940000Y-101865000D01*
X160640000Y-101865000D01*
X160640000Y-100065000D01*
X161940000Y-100065000D01*
G37*
G36*
X159400000Y-93715000D02*
G01*
X159400000Y-95515000D01*
X158100000Y-95515000D01*
X158100000Y-93715000D01*
X159400000Y-93715000D01*
G37*
G36*
X161940000Y-93715000D02*
G01*
X161940000Y-95515000D01*
X160640000Y-95515000D01*
X160640000Y-93715000D01*
X161940000Y-93715000D01*
G37*
G36*
X189880000Y-105145000D02*
G01*
X189880000Y-106945000D01*
X188580000Y-106945000D01*
X188580000Y-105145000D01*
X189880000Y-105145000D01*
G37*
G36*
X192420000Y-105145000D02*
G01*
X192420000Y-106945000D01*
X191120000Y-106945000D01*
X191120000Y-105145000D01*
X192420000Y-105145000D01*
G37*
G36*
X206360000Y-102500000D02*
G01*
X206360000Y-100700000D01*
X207660000Y-100700000D01*
X207660000Y-102500000D01*
X206360000Y-102500000D01*
G37*
G36*
X203820000Y-102500000D02*
G01*
X203820000Y-100700000D01*
X205120000Y-100700000D01*
X205120000Y-102500000D01*
X203820000Y-102500000D01*
G37*
G36*
X227950000Y-103770000D02*
G01*
X227950000Y-101970000D01*
X229250000Y-101970000D01*
X229250000Y-103770000D01*
X227950000Y-103770000D01*
G37*
G36*
X225410000Y-103770000D02*
G01*
X225410000Y-101970000D01*
X226710000Y-101970000D01*
X226710000Y-103770000D01*
X225410000Y-103770000D01*
G37*
G36*
X210200000Y-105145000D02*
G01*
X210200000Y-106945000D01*
X208900000Y-106945000D01*
X208900000Y-105145000D01*
X210200000Y-105145000D01*
G37*
G36*
X212740000Y-105145000D02*
G01*
X212740000Y-106945000D01*
X211440000Y-106945000D01*
X211440000Y-105145000D01*
X212740000Y-105145000D01*
G37*
G36*
X128920000Y-105145000D02*
G01*
X128920000Y-106945000D01*
X127620000Y-106945000D01*
X127620000Y-105145000D01*
X128920000Y-105145000D01*
G37*
G36*
X131460000Y-105145000D02*
G01*
X131460000Y-106945000D01*
X130160000Y-106945000D01*
X130160000Y-105145000D01*
X131460000Y-105145000D01*
G37*
G36*
X189880000Y-101970000D02*
G01*
X189880000Y-103770000D01*
X188580000Y-103770000D01*
X188580000Y-101970000D01*
X189880000Y-101970000D01*
G37*
G36*
X192420000Y-101970000D02*
G01*
X192420000Y-103770000D01*
X191120000Y-103770000D01*
X191120000Y-101970000D01*
X192420000Y-101970000D01*
G37*
G36*
X189880000Y-95620000D02*
G01*
X189880000Y-97420000D01*
X188580000Y-97420000D01*
X188580000Y-95620000D01*
X189880000Y-95620000D01*
G37*
G36*
X192420000Y-95620000D02*
G01*
X192420000Y-97420000D01*
X191120000Y-97420000D01*
X191120000Y-95620000D01*
X192420000Y-95620000D01*
G37*
G36*
X210200000Y-95620000D02*
G01*
X210200000Y-97420000D01*
X208900000Y-97420000D01*
X208900000Y-95620000D01*
X210200000Y-95620000D01*
G37*
G36*
X212740000Y-95620000D02*
G01*
X212740000Y-97420000D01*
X211440000Y-97420000D01*
X211440000Y-95620000D01*
X212740000Y-95620000D01*
G37*
G36*
X210200000Y-101970000D02*
G01*
X210200000Y-103770000D01*
X208900000Y-103770000D01*
X208900000Y-101970000D01*
X210200000Y-101970000D01*
G37*
G36*
X212740000Y-101970000D02*
G01*
X212740000Y-103770000D01*
X211440000Y-103770000D01*
X211440000Y-101970000D01*
X212740000Y-101970000D01*
G37*
G36*
X128920000Y-95620000D02*
G01*
X128920000Y-97420000D01*
X127620000Y-97420000D01*
X127620000Y-95620000D01*
X128920000Y-95620000D01*
G37*
G36*
X131460000Y-95620000D02*
G01*
X131460000Y-97420000D01*
X130160000Y-97420000D01*
X130160000Y-95620000D01*
X131460000Y-95620000D01*
G37*
G36*
X128920000Y-101970000D02*
G01*
X128920000Y-103770000D01*
X127620000Y-103770000D01*
X127620000Y-101970000D01*
X128920000Y-101970000D01*
G37*
G36*
X131460000Y-101970000D02*
G01*
X131460000Y-103770000D01*
X130160000Y-103770000D01*
X130160000Y-101970000D01*
X131460000Y-101970000D01*
G37*
G36*
X189880000Y-98795000D02*
G01*
X189880000Y-100595000D01*
X188580000Y-100595000D01*
X188580000Y-98795000D01*
X189880000Y-98795000D01*
G37*
G36*
X192420000Y-98795000D02*
G01*
X192420000Y-100595000D01*
X191120000Y-100595000D01*
X191120000Y-98795000D01*
X192420000Y-98795000D01*
G37*
G36*
X189880000Y-92445000D02*
G01*
X189880000Y-94245000D01*
X188580000Y-94245000D01*
X188580000Y-92445000D01*
X189880000Y-92445000D01*
G37*
G36*
X192420000Y-92445000D02*
G01*
X192420000Y-94245000D01*
X191120000Y-94245000D01*
X191120000Y-92445000D01*
X192420000Y-92445000D01*
G37*
G36*
X210200000Y-92445000D02*
G01*
X210200000Y-94245000D01*
X208900000Y-94245000D01*
X208900000Y-92445000D01*
X210200000Y-92445000D01*
G37*
G36*
X212740000Y-92445000D02*
G01*
X212740000Y-94245000D01*
X211440000Y-94245000D01*
X211440000Y-92445000D01*
X212740000Y-92445000D01*
G37*
G36*
X210200000Y-98795000D02*
G01*
X210200000Y-100595000D01*
X208900000Y-100595000D01*
X208900000Y-98795000D01*
X210200000Y-98795000D01*
G37*
G36*
X212740000Y-98795000D02*
G01*
X212740000Y-100595000D01*
X211440000Y-100595000D01*
X211440000Y-98795000D01*
X212740000Y-98795000D01*
G37*
G36*
X128920000Y-92445000D02*
G01*
X128920000Y-94245000D01*
X127620000Y-94245000D01*
X127620000Y-92445000D01*
X128920000Y-92445000D01*
G37*
G36*
X131460000Y-92445000D02*
G01*
X131460000Y-94245000D01*
X130160000Y-94245000D01*
X130160000Y-92445000D01*
X131460000Y-92445000D01*
G37*
G36*
X128920000Y-98795000D02*
G01*
X128920000Y-100595000D01*
X127620000Y-100595000D01*
X127620000Y-98795000D01*
X128920000Y-98795000D01*
G37*
G36*
X131460000Y-98795000D02*
G01*
X131460000Y-100595000D01*
X130160000Y-100595000D01*
X130160000Y-98795000D01*
X131460000Y-98795000D01*
G37*
G36*
X91425000Y-51065000D02*
G01*
X91425000Y-49265000D01*
X92725000Y-49265000D01*
X92725000Y-51065000D01*
X91425000Y-51065000D01*
G37*
G36*
X88885000Y-51065000D02*
G01*
X88885000Y-49265000D01*
X90185000Y-49265000D01*
X90185000Y-51065000D01*
X88885000Y-51065000D01*
G37*
G36*
X89165000Y-60975000D02*
G01*
X87365000Y-60975000D01*
X87365000Y-59675000D01*
X89165000Y-59675000D01*
X89165000Y-60975000D01*
G37*
G36*
X89165000Y-63515000D02*
G01*
X87365000Y-63515000D01*
X87365000Y-62215000D01*
X89165000Y-62215000D01*
X89165000Y-63515000D01*
G37*
G36*
X91425000Y-47890000D02*
G01*
X91425000Y-46090000D01*
X92725000Y-46090000D01*
X92725000Y-47890000D01*
X91425000Y-47890000D01*
G37*
G36*
X88885000Y-47890000D02*
G01*
X88885000Y-46090000D01*
X90185000Y-46090000D01*
X90185000Y-47890000D01*
X88885000Y-47890000D01*
G37*
G36*
X87365000Y-68565000D02*
G01*
X89165000Y-68565000D01*
X89165000Y-69865000D01*
X87365000Y-69865000D01*
X87365000Y-68565000D01*
G37*
G36*
X87365000Y-66025000D02*
G01*
X89165000Y-66025000D01*
X89165000Y-67325000D01*
X87365000Y-67325000D01*
X87365000Y-66025000D01*
G37*
G36*
X90540000Y-68565000D02*
G01*
X92340000Y-68565000D01*
X92340000Y-69865000D01*
X90540000Y-69865000D01*
X90540000Y-68565000D01*
G37*
G36*
X90540000Y-66025000D02*
G01*
X92340000Y-66025000D01*
X92340000Y-67325000D01*
X90540000Y-67325000D01*
X90540000Y-66025000D01*
G37*
G36*
X102605000Y-52055000D02*
G01*
X104405000Y-52055000D01*
X104405000Y-53355000D01*
X102605000Y-53355000D01*
X102605000Y-52055000D01*
G37*
G36*
X102605000Y-49515000D02*
G01*
X104405000Y-49515000D01*
X104405000Y-50815000D01*
X102605000Y-50815000D01*
X102605000Y-49515000D01*
G37*
G36*
X94985000Y-46975000D02*
G01*
X96785000Y-46975000D01*
X96785000Y-48275000D01*
X94985000Y-48275000D01*
X94985000Y-46975000D01*
G37*
G36*
X94985000Y-44435000D02*
G01*
X96785000Y-44435000D01*
X96785000Y-45735000D01*
X94985000Y-45735000D01*
X94985000Y-44435000D01*
G37*
G36*
X101865000Y-45735000D02*
G01*
X100065000Y-45735000D01*
X100065000Y-44435000D01*
X101865000Y-44435000D01*
X101865000Y-45735000D01*
G37*
G36*
X101865000Y-48275000D02*
G01*
X100065000Y-48275000D01*
X100065000Y-46975000D01*
X101865000Y-46975000D01*
X101865000Y-48275000D01*
G37*
G36*
X100315000Y-51065000D02*
G01*
X100315000Y-49265000D01*
X101615000Y-49265000D01*
X101615000Y-51065000D01*
X100315000Y-51065000D01*
G37*
G36*
X97775000Y-51065000D02*
G01*
X97775000Y-49265000D01*
X99075000Y-49265000D01*
X99075000Y-51065000D01*
X97775000Y-51065000D01*
G37*
G36*
X99075000Y-52440000D02*
G01*
X99075000Y-54240000D01*
X97775000Y-54240000D01*
X97775000Y-52440000D01*
X99075000Y-52440000D01*
G37*
G36*
X101615000Y-52440000D02*
G01*
X101615000Y-54240000D01*
X100315000Y-54240000D01*
X100315000Y-52440000D01*
X101615000Y-52440000D01*
G37*
G36*
X116470000Y-124475000D02*
G01*
X114670000Y-124475000D01*
X114670000Y-123175000D01*
X116470000Y-123175000D01*
X116470000Y-124475000D01*
G37*
G36*
X116470000Y-127015000D02*
G01*
X114670000Y-127015000D01*
X114670000Y-125715000D01*
X116470000Y-125715000D01*
X116470000Y-127015000D01*
G37*
G36*
X160920000Y-124475000D02*
G01*
X159120000Y-124475000D01*
X159120000Y-123175000D01*
X160920000Y-123175000D01*
X160920000Y-124475000D01*
G37*
G36*
X160920000Y-127015000D02*
G01*
X159120000Y-127015000D01*
X159120000Y-125715000D01*
X160920000Y-125715000D01*
X160920000Y-127015000D01*
G37*
G36*
X241285000Y-50430000D02*
G01*
X241285000Y-48630000D01*
X242585000Y-48630000D01*
X242585000Y-50430000D01*
X241285000Y-50430000D01*
G37*
G36*
X238745000Y-50430000D02*
G01*
X238745000Y-48630000D01*
X240045000Y-48630000D01*
X240045000Y-50430000D01*
X238745000Y-50430000D01*
G37*
G36*
X45705000Y-51065000D02*
G01*
X45705000Y-49265000D01*
X47005000Y-49265000D01*
X47005000Y-51065000D01*
X45705000Y-51065000D01*
G37*
G36*
X43165000Y-51065000D02*
G01*
X43165000Y-49265000D01*
X44465000Y-49265000D01*
X44465000Y-51065000D01*
X43165000Y-51065000D01*
G37*
G36*
X25385000Y-51065000D02*
G01*
X25385000Y-49265000D01*
X26685000Y-49265000D01*
X26685000Y-51065000D01*
X25385000Y-51065000D01*
G37*
G36*
X22845000Y-51065000D02*
G01*
X22845000Y-49265000D01*
X24145000Y-49265000D01*
X24145000Y-51065000D01*
X22845000Y-51065000D01*
G37*
G36*
X71105000Y-51065000D02*
G01*
X71105000Y-49265000D01*
X72405000Y-49265000D01*
X72405000Y-51065000D01*
X71105000Y-51065000D01*
G37*
G36*
X68565000Y-51065000D02*
G01*
X68565000Y-49265000D01*
X69865000Y-49265000D01*
X69865000Y-51065000D01*
X68565000Y-51065000D01*
G37*
G36*
X239025000Y-60340000D02*
G01*
X237225000Y-60340000D01*
X237225000Y-59040000D01*
X239025000Y-59040000D01*
X239025000Y-60340000D01*
G37*
G36*
X239025000Y-62880000D02*
G01*
X237225000Y-62880000D01*
X237225000Y-61580000D01*
X239025000Y-61580000D01*
X239025000Y-62880000D01*
G37*
G36*
X44080000Y-60975000D02*
G01*
X42280000Y-60975000D01*
X42280000Y-59675000D01*
X44080000Y-59675000D01*
X44080000Y-60975000D01*
G37*
G36*
X44080000Y-63515000D02*
G01*
X42280000Y-63515000D01*
X42280000Y-62215000D01*
X44080000Y-62215000D01*
X44080000Y-63515000D01*
G37*
G36*
X23760000Y-60975000D02*
G01*
X21960000Y-60975000D01*
X21960000Y-59675000D01*
X23760000Y-59675000D01*
X23760000Y-60975000D01*
G37*
G36*
X23760000Y-63515000D02*
G01*
X21960000Y-63515000D01*
X21960000Y-62215000D01*
X23760000Y-62215000D01*
X23760000Y-63515000D01*
G37*
G36*
X68845000Y-60975000D02*
G01*
X67045000Y-60975000D01*
X67045000Y-59675000D01*
X68845000Y-59675000D01*
X68845000Y-60975000D01*
G37*
G36*
X68845000Y-63515000D02*
G01*
X67045000Y-63515000D01*
X67045000Y-62215000D01*
X68845000Y-62215000D01*
X68845000Y-63515000D01*
G37*
G36*
X241285000Y-47255000D02*
G01*
X241285000Y-45455000D01*
X242585000Y-45455000D01*
X242585000Y-47255000D01*
X241285000Y-47255000D01*
G37*
G36*
X238745000Y-47255000D02*
G01*
X238745000Y-45455000D01*
X240045000Y-45455000D01*
X240045000Y-47255000D01*
X238745000Y-47255000D01*
G37*
G36*
X45705000Y-47890000D02*
G01*
X45705000Y-46090000D01*
X47005000Y-46090000D01*
X47005000Y-47890000D01*
X45705000Y-47890000D01*
G37*
G36*
X43165000Y-47890000D02*
G01*
X43165000Y-46090000D01*
X44465000Y-46090000D01*
X44465000Y-47890000D01*
X43165000Y-47890000D01*
G37*
G36*
X25385000Y-47890000D02*
G01*
X25385000Y-46090000D01*
X26685000Y-46090000D01*
X26685000Y-47890000D01*
X25385000Y-47890000D01*
G37*
G36*
X22845000Y-47890000D02*
G01*
X22845000Y-46090000D01*
X24145000Y-46090000D01*
X24145000Y-47890000D01*
X22845000Y-47890000D01*
G37*
G36*
X71105000Y-47890000D02*
G01*
X71105000Y-46090000D01*
X72405000Y-46090000D01*
X72405000Y-47890000D01*
X71105000Y-47890000D01*
G37*
G36*
X68565000Y-47890000D02*
G01*
X68565000Y-46090000D01*
X69865000Y-46090000D01*
X69865000Y-47890000D01*
X68565000Y-47890000D01*
G37*
G36*
X237225000Y-67930000D02*
G01*
X239025000Y-67930000D01*
X239025000Y-69230000D01*
X237225000Y-69230000D01*
X237225000Y-67930000D01*
G37*
G36*
X237225000Y-65390000D02*
G01*
X239025000Y-65390000D01*
X239025000Y-66690000D01*
X237225000Y-66690000D01*
X237225000Y-65390000D01*
G37*
G36*
X42280000Y-68565000D02*
G01*
X44080000Y-68565000D01*
X44080000Y-69865000D01*
X42280000Y-69865000D01*
X42280000Y-68565000D01*
G37*
G36*
X42280000Y-66025000D02*
G01*
X44080000Y-66025000D01*
X44080000Y-67325000D01*
X42280000Y-67325000D01*
X42280000Y-66025000D01*
G37*
G36*
X21960000Y-68565000D02*
G01*
X23760000Y-68565000D01*
X23760000Y-69865000D01*
X21960000Y-69865000D01*
X21960000Y-68565000D01*
G37*
G36*
X21960000Y-66025000D02*
G01*
X23760000Y-66025000D01*
X23760000Y-67325000D01*
X21960000Y-67325000D01*
X21960000Y-66025000D01*
G37*
G36*
X67045000Y-68565000D02*
G01*
X68845000Y-68565000D01*
X68845000Y-69865000D01*
X67045000Y-69865000D01*
X67045000Y-68565000D01*
G37*
G36*
X67045000Y-66025000D02*
G01*
X68845000Y-66025000D01*
X68845000Y-67325000D01*
X67045000Y-67325000D01*
X67045000Y-66025000D01*
G37*
G36*
X240400000Y-67930000D02*
G01*
X242200000Y-67930000D01*
X242200000Y-69230000D01*
X240400000Y-69230000D01*
X240400000Y-67930000D01*
G37*
G36*
X240400000Y-65390000D02*
G01*
X242200000Y-65390000D01*
X242200000Y-66690000D01*
X240400000Y-66690000D01*
X240400000Y-65390000D01*
G37*
G36*
X45455000Y-68565000D02*
G01*
X47255000Y-68565000D01*
X47255000Y-69865000D01*
X45455000Y-69865000D01*
X45455000Y-68565000D01*
G37*
G36*
X45455000Y-66025000D02*
G01*
X47255000Y-66025000D01*
X47255000Y-67325000D01*
X45455000Y-67325000D01*
X45455000Y-66025000D01*
G37*
G36*
X25135000Y-68565000D02*
G01*
X26935000Y-68565000D01*
X26935000Y-69865000D01*
X25135000Y-69865000D01*
X25135000Y-68565000D01*
G37*
G36*
X25135000Y-66025000D02*
G01*
X26935000Y-66025000D01*
X26935000Y-67325000D01*
X25135000Y-67325000D01*
X25135000Y-66025000D01*
G37*
G36*
X70220000Y-68565000D02*
G01*
X72020000Y-68565000D01*
X72020000Y-69865000D01*
X70220000Y-69865000D01*
X70220000Y-68565000D01*
G37*
G36*
X70220000Y-66025000D02*
G01*
X72020000Y-66025000D01*
X72020000Y-67325000D01*
X70220000Y-67325000D01*
X70220000Y-66025000D01*
G37*
G36*
X252465000Y-51420000D02*
G01*
X254265000Y-51420000D01*
X254265000Y-52720000D01*
X252465000Y-52720000D01*
X252465000Y-51420000D01*
G37*
G36*
X252465000Y-48880000D02*
G01*
X254265000Y-48880000D01*
X254265000Y-50180000D01*
X252465000Y-50180000D01*
X252465000Y-48880000D01*
G37*
G36*
X56885000Y-52055000D02*
G01*
X58685000Y-52055000D01*
X58685000Y-53355000D01*
X56885000Y-53355000D01*
X56885000Y-52055000D01*
G37*
G36*
X56885000Y-49515000D02*
G01*
X58685000Y-49515000D01*
X58685000Y-50815000D01*
X56885000Y-50815000D01*
X56885000Y-49515000D01*
G37*
G36*
X36565000Y-52055000D02*
G01*
X38365000Y-52055000D01*
X38365000Y-53355000D01*
X36565000Y-53355000D01*
X36565000Y-52055000D01*
G37*
G36*
X36565000Y-49515000D02*
G01*
X38365000Y-49515000D01*
X38365000Y-50815000D01*
X36565000Y-50815000D01*
X36565000Y-49515000D01*
G37*
G36*
X82285000Y-52055000D02*
G01*
X84085000Y-52055000D01*
X84085000Y-53355000D01*
X82285000Y-53355000D01*
X82285000Y-52055000D01*
G37*
G36*
X82285000Y-49515000D02*
G01*
X84085000Y-49515000D01*
X84085000Y-50815000D01*
X82285000Y-50815000D01*
X82285000Y-49515000D01*
G37*
G36*
X244845000Y-46340000D02*
G01*
X246645000Y-46340000D01*
X246645000Y-47640000D01*
X244845000Y-47640000D01*
X244845000Y-46340000D01*
G37*
G36*
X244845000Y-43800000D02*
G01*
X246645000Y-43800000D01*
X246645000Y-45100000D01*
X244845000Y-45100000D01*
X244845000Y-43800000D01*
G37*
G36*
X251725000Y-45100000D02*
G01*
X249925000Y-45100000D01*
X249925000Y-43800000D01*
X251725000Y-43800000D01*
X251725000Y-45100000D01*
G37*
G36*
X251725000Y-47640000D02*
G01*
X249925000Y-47640000D01*
X249925000Y-46340000D01*
X251725000Y-46340000D01*
X251725000Y-47640000D01*
G37*
G36*
X250175000Y-50430000D02*
G01*
X250175000Y-48630000D01*
X251475000Y-48630000D01*
X251475000Y-50430000D01*
X250175000Y-50430000D01*
G37*
G36*
X247635000Y-50430000D02*
G01*
X247635000Y-48630000D01*
X248935000Y-48630000D01*
X248935000Y-50430000D01*
X247635000Y-50430000D01*
G37*
G36*
X246645000Y-50180000D02*
G01*
X244845000Y-50180000D01*
X244845000Y-48880000D01*
X246645000Y-48880000D01*
X246645000Y-50180000D01*
G37*
G36*
X246645000Y-52720000D02*
G01*
X244845000Y-52720000D01*
X244845000Y-51420000D01*
X246645000Y-51420000D01*
X246645000Y-52720000D01*
G37*
G36*
X248935000Y-51805000D02*
G01*
X248935000Y-53605000D01*
X247635000Y-53605000D01*
X247635000Y-51805000D01*
X248935000Y-51805000D01*
G37*
G36*
X251475000Y-51805000D02*
G01*
X251475000Y-53605000D01*
X250175000Y-53605000D01*
X250175000Y-51805000D01*
X251475000Y-51805000D01*
G37*
G36*
X49265000Y-46975000D02*
G01*
X51065000Y-46975000D01*
X51065000Y-48275000D01*
X49265000Y-48275000D01*
X49265000Y-46975000D01*
G37*
G36*
X49265000Y-44435000D02*
G01*
X51065000Y-44435000D01*
X51065000Y-45735000D01*
X49265000Y-45735000D01*
X49265000Y-44435000D01*
G37*
G36*
X56145000Y-45735000D02*
G01*
X54345000Y-45735000D01*
X54345000Y-44435000D01*
X56145000Y-44435000D01*
X56145000Y-45735000D01*
G37*
G36*
X56145000Y-48275000D02*
G01*
X54345000Y-48275000D01*
X54345000Y-46975000D01*
X56145000Y-46975000D01*
X56145000Y-48275000D01*
G37*
G36*
X54595000Y-51065000D02*
G01*
X54595000Y-49265000D01*
X55895000Y-49265000D01*
X55895000Y-51065000D01*
X54595000Y-51065000D01*
G37*
G36*
X52055000Y-51065000D02*
G01*
X52055000Y-49265000D01*
X53355000Y-49265000D01*
X53355000Y-51065000D01*
X52055000Y-51065000D01*
G37*
G36*
X51065000Y-50815000D02*
G01*
X49265000Y-50815000D01*
X49265000Y-49515000D01*
X51065000Y-49515000D01*
X51065000Y-50815000D01*
G37*
G36*
X51065000Y-53355000D02*
G01*
X49265000Y-53355000D01*
X49265000Y-52055000D01*
X51065000Y-52055000D01*
X51065000Y-53355000D01*
G37*
G36*
X53355000Y-52440000D02*
G01*
X53355000Y-54240000D01*
X52055000Y-54240000D01*
X52055000Y-52440000D01*
X53355000Y-52440000D01*
G37*
G36*
X55895000Y-52440000D02*
G01*
X55895000Y-54240000D01*
X54595000Y-54240000D01*
X54595000Y-52440000D01*
X55895000Y-52440000D01*
G37*
G36*
X28945000Y-46975000D02*
G01*
X30745000Y-46975000D01*
X30745000Y-48275000D01*
X28945000Y-48275000D01*
X28945000Y-46975000D01*
G37*
G36*
X28945000Y-44435000D02*
G01*
X30745000Y-44435000D01*
X30745000Y-45735000D01*
X28945000Y-45735000D01*
X28945000Y-44435000D01*
G37*
G36*
X35825000Y-45735000D02*
G01*
X34025000Y-45735000D01*
X34025000Y-44435000D01*
X35825000Y-44435000D01*
X35825000Y-45735000D01*
G37*
G36*
X35825000Y-48275000D02*
G01*
X34025000Y-48275000D01*
X34025000Y-46975000D01*
X35825000Y-46975000D01*
X35825000Y-48275000D01*
G37*
G36*
X34275000Y-51065000D02*
G01*
X34275000Y-49265000D01*
X35575000Y-49265000D01*
X35575000Y-51065000D01*
X34275000Y-51065000D01*
G37*
G36*
X31735000Y-51065000D02*
G01*
X31735000Y-49265000D01*
X33035000Y-49265000D01*
X33035000Y-51065000D01*
X31735000Y-51065000D01*
G37*
G36*
X30745000Y-50815000D02*
G01*
X28945000Y-50815000D01*
X28945000Y-49515000D01*
X30745000Y-49515000D01*
X30745000Y-50815000D01*
G37*
G36*
X30745000Y-53355000D02*
G01*
X28945000Y-53355000D01*
X28945000Y-52055000D01*
X30745000Y-52055000D01*
X30745000Y-53355000D01*
G37*
G36*
X33035000Y-52440000D02*
G01*
X33035000Y-54240000D01*
X31735000Y-54240000D01*
X31735000Y-52440000D01*
X33035000Y-52440000D01*
G37*
G36*
X35575000Y-52440000D02*
G01*
X35575000Y-54240000D01*
X34275000Y-54240000D01*
X34275000Y-52440000D01*
X35575000Y-52440000D01*
G37*
G36*
X74665000Y-46975000D02*
G01*
X76465000Y-46975000D01*
X76465000Y-48275000D01*
X74665000Y-48275000D01*
X74665000Y-46975000D01*
G37*
G36*
X74665000Y-44435000D02*
G01*
X76465000Y-44435000D01*
X76465000Y-45735000D01*
X74665000Y-45735000D01*
X74665000Y-44435000D01*
G37*
G36*
X81545000Y-45735000D02*
G01*
X79745000Y-45735000D01*
X79745000Y-44435000D01*
X81545000Y-44435000D01*
X81545000Y-45735000D01*
G37*
G36*
X81545000Y-48275000D02*
G01*
X79745000Y-48275000D01*
X79745000Y-46975000D01*
X81545000Y-46975000D01*
X81545000Y-48275000D01*
G37*
G36*
X79995000Y-51065000D02*
G01*
X79995000Y-49265000D01*
X81295000Y-49265000D01*
X81295000Y-51065000D01*
X79995000Y-51065000D01*
G37*
G36*
X77455000Y-51065000D02*
G01*
X77455000Y-49265000D01*
X78755000Y-49265000D01*
X78755000Y-51065000D01*
X77455000Y-51065000D01*
G37*
G36*
X78755000Y-52440000D02*
G01*
X78755000Y-54240000D01*
X77455000Y-54240000D01*
X77455000Y-52440000D01*
X78755000Y-52440000D01*
G37*
G36*
X81295000Y-52440000D02*
G01*
X81295000Y-54240000D01*
X79995000Y-54240000D01*
X79995000Y-52440000D01*
X81295000Y-52440000D01*
G37*
D11*
X254565000Y-155575000D03*
X252365000Y-154625000D03*
X252365000Y-156525000D03*
X254565000Y-94615000D03*
X252365000Y-93665000D03*
X252365000Y-95565000D03*
X254565000Y-170815000D03*
X252365000Y-169865000D03*
X252365000Y-171765000D03*
X254565000Y-140335000D03*
X252365000Y-139385000D03*
X252365000Y-141285000D03*
X254565000Y-125095000D03*
X252365000Y-124145000D03*
X252365000Y-126045000D03*
X254565000Y-109855000D03*
X252365000Y-108905000D03*
X252365000Y-110805000D03*
X88013500Y-197444000D03*
X87063500Y-199644000D03*
X88963500Y-199644000D03*
X39687500Y-197428000D03*
X38737500Y-199628000D03*
X40637500Y-199628000D03*
X112331500Y-197428000D03*
X111381500Y-199628000D03*
X113281500Y-199628000D03*
X257111500Y-197174000D03*
X256161500Y-199374000D03*
X258061500Y-199374000D03*
X164852500Y-135128000D03*
X167052500Y-136078000D03*
X167052500Y-134178000D03*
X136019500Y-197444000D03*
X135069500Y-199644000D03*
X136969500Y-199644000D03*
X160083500Y-197428000D03*
X159133500Y-199628000D03*
X161033500Y-199628000D03*
X184655500Y-197190000D03*
X183705500Y-199390000D03*
X185605500Y-199390000D03*
X209547500Y-197444000D03*
X208597500Y-199644000D03*
X210497500Y-199644000D03*
X233235500Y-197174000D03*
X232285500Y-199374000D03*
X234185500Y-199374000D03*
X91687500Y-56515000D03*
X89487500Y-55565000D03*
X89487500Y-57465000D03*
X118745000Y-123895000D03*
X117795000Y-126095000D03*
X119695000Y-126095000D03*
X164465000Y-123895000D03*
X163515000Y-126095000D03*
X165415000Y-126095000D03*
X240595000Y-55810000D03*
X238395000Y-54860000D03*
X238395000Y-56760000D03*
X45650000Y-56515000D03*
X43450000Y-55565000D03*
X43450000Y-57465000D03*
X25400000Y-56515000D03*
X23200000Y-55565000D03*
X23200000Y-57465000D03*
X71097500Y-56515000D03*
X68897500Y-55565000D03*
X68897500Y-57465000D03*
D12*
X260350000Y-153035000D03*
X260350000Y-150495000D03*
X259715000Y-92075000D03*
X259715000Y-89535000D03*
X260350000Y-168275000D03*
X260350000Y-165735000D03*
X259715000Y-137795000D03*
X259715000Y-135255000D03*
X259715000Y-122555000D03*
X259715000Y-120015000D03*
X259715000Y-107315000D03*
X259715000Y-104775000D03*
D17*
X127000000Y-225010000D03*
X125730000Y-219490000D03*
X127000000Y-219490000D03*
X128270000Y-225010000D03*
X124460000Y-219490000D03*
X128270000Y-219490000D03*
X125730000Y-225010000D03*
X124460000Y-225010000D03*
X78740000Y-225010000D03*
X77470000Y-219490000D03*
X78740000Y-219490000D03*
X80010000Y-225010000D03*
X76200000Y-219490000D03*
X80010000Y-219490000D03*
X77470000Y-225010000D03*
X76200000Y-225010000D03*
X54610000Y-225010000D03*
X53340000Y-219490000D03*
X54610000Y-219490000D03*
X55880000Y-225010000D03*
X52070000Y-219490000D03*
X55880000Y-219490000D03*
X53340000Y-225010000D03*
X52070000Y-225010000D03*
X30480000Y-225010000D03*
X29210000Y-219490000D03*
X30480000Y-219490000D03*
X31750000Y-225010000D03*
X27940000Y-219490000D03*
X31750000Y-219490000D03*
X29210000Y-225010000D03*
X27940000Y-225010000D03*
X151130000Y-225010000D03*
X149860000Y-219490000D03*
X151130000Y-219490000D03*
X152400000Y-225010000D03*
X148590000Y-219490000D03*
X152400000Y-219490000D03*
X149860000Y-225010000D03*
X148590000Y-225010000D03*
X175260000Y-225010000D03*
X173990000Y-219490000D03*
X175260000Y-219490000D03*
X176530000Y-225010000D03*
X172720000Y-219490000D03*
X176530000Y-219490000D03*
X173990000Y-225010000D03*
X172720000Y-225010000D03*
X200025000Y-225010000D03*
X198755000Y-219490000D03*
X200025000Y-219490000D03*
X201295000Y-225010000D03*
X197485000Y-219490000D03*
X201295000Y-219490000D03*
X198755000Y-225010000D03*
X197485000Y-225010000D03*
X224155000Y-225010000D03*
X222885000Y-219490000D03*
X224155000Y-219490000D03*
X225425000Y-225010000D03*
X221615000Y-219490000D03*
X225425000Y-219490000D03*
X222885000Y-225010000D03*
X221615000Y-225010000D03*
X102870000Y-225010000D03*
X101600000Y-219490000D03*
X102870000Y-219490000D03*
X104140000Y-225010000D03*
X100330000Y-219490000D03*
X104140000Y-219490000D03*
X101600000Y-225010000D03*
X100330000Y-225010000D03*
D12*
X76835000Y-244475000D03*
X76835000Y-247015000D03*
X53975000Y-244475000D03*
X53975000Y-247015000D03*
X26035000Y-244475000D03*
X26035000Y-247015000D03*
X99695000Y-244475000D03*
X99695000Y-247015000D03*
X247015000Y-244475000D03*
X247015000Y-247015000D03*
X122555000Y-244475000D03*
X122555000Y-247015000D03*
X150495000Y-244475000D03*
X150495000Y-247015000D03*
X173355000Y-244475000D03*
X173355000Y-247015000D03*
X196215000Y-244475000D03*
X196215000Y-247015000D03*
X219075000Y-244475000D03*
X219075000Y-247015000D03*
D15*
X190405000Y-35560000D03*
X194405000Y-35560000D03*
X220885000Y-35560000D03*
X224885000Y-35560000D03*
X200660000Y-35560000D03*
X204660000Y-35560000D03*
X210725000Y-35560000D03*
X214725000Y-35560000D03*
D13*
X110553500Y-66720000D03*
X110553500Y-71120000D03*
X115887500Y-66720000D03*
X115887500Y-71120000D03*
X120967500Y-66720000D03*
X120967500Y-71120000D03*
D12*
X108267500Y-64008000D03*
X108267500Y-61468000D03*
X113347500Y-64008000D03*
X113347500Y-61468000D03*
X118427500Y-64008000D03*
X118427500Y-61468000D03*
D15*
X159925000Y-35560000D03*
X163925000Y-35560000D03*
X170085000Y-35560000D03*
X174085000Y-35560000D03*
X149765000Y-35560000D03*
X153765000Y-35560000D03*
X180245000Y-35560000D03*
X184245000Y-35560000D03*
X139510000Y-35560000D03*
X143510000Y-35560000D03*
X129445000Y-35560000D03*
X133445000Y-35560000D03*
X97550000Y-35560000D03*
X92950000Y-35560000D03*
D19*
X252320000Y-36830000D03*
X245520000Y-36830000D03*
D20*
X33020000Y-35335000D03*
X33020000Y-42135000D03*
X26035000Y-35335000D03*
X26035000Y-42135000D03*
D15*
X77230000Y-34925000D03*
X72630000Y-34925000D03*
M02*
