G04 #@! TF.GenerationSoftware,KiCad,Pcbnew,(5.1.6)-1*
G04 #@! TF.CreationDate,2023-04-30T23:16:11+02:00*
G04 #@! TF.ProjectId,hub-1-wire,6875622d-312d-4776-9972-652e6b696361,rev?*
G04 #@! TF.SameCoordinates,Original*
G04 #@! TF.FileFunction,Legend,Top*
G04 #@! TF.FilePolarity,Positive*
%FSLAX46Y46*%
G04 Gerber Fmt 4.6, Leading zero omitted, Abs format (unit mm)*
G04 Created by KiCad (PCBNEW (5.1.6)-1) date 2023-04-30 23:16:11*
%MOMM*%
%LPD*%
G01*
G04 APERTURE LIST*
%ADD10C,0.300000*%
%ADD11C,0.250000*%
%ADD12C,0.160000*%
%ADD13C,0.120000*%
%ADD14C,0.150000*%
%ADD15C,6.102000*%
%ADD16C,0.902000*%
%ADD17R,3.602000X3.602000*%
%ADD18C,3.602000*%
%ADD19C,1.602000*%
%ADD20C,3.402000*%
%ADD21R,0.902000X2.302000*%
%ADD22R,1.002000X1.002000*%
G04 APERTURE END LIST*
D10*
X232152857Y-82816571D02*
X232495714Y-83730857D01*
X232838571Y-82816571D01*
X232495714Y-82245142D02*
X232495714Y-81330857D01*
X232495714Y-80759428D02*
X232495714Y-79845142D01*
X233413428Y-105406857D02*
X232499142Y-105749714D01*
X233413428Y-106092571D01*
X233984857Y-105749714D02*
X234899142Y-105749714D01*
X235470571Y-105749714D02*
X236384857Y-105749714D01*
X233020000Y-107673714D02*
X233134285Y-107730857D01*
X233362857Y-107730857D01*
X233477142Y-107673714D01*
X233534285Y-107559428D01*
X233534285Y-107502285D01*
X233477142Y-107388000D01*
X233362857Y-107330857D01*
X233191428Y-107330857D01*
X233077142Y-107273714D01*
X233020000Y-107159428D01*
X233020000Y-107102285D01*
X233077142Y-106988000D01*
X233191428Y-106930857D01*
X233362857Y-106930857D01*
X233477142Y-106988000D01*
X234505714Y-107673714D02*
X234391428Y-107730857D01*
X234162857Y-107730857D01*
X234048571Y-107673714D01*
X233991428Y-107559428D01*
X233991428Y-107102285D01*
X234048571Y-106988000D01*
X234162857Y-106930857D01*
X234391428Y-106930857D01*
X234505714Y-106988000D01*
X234562857Y-107102285D01*
X234562857Y-107216571D01*
X233991428Y-107330857D01*
X235077142Y-106930857D02*
X235077142Y-107730857D01*
X235077142Y-107045142D02*
X235134285Y-106988000D01*
X235248571Y-106930857D01*
X235420000Y-106930857D01*
X235534285Y-106988000D01*
X235591428Y-107102285D01*
X235591428Y-107730857D01*
X236105714Y-107673714D02*
X236220000Y-107730857D01*
X236448571Y-107730857D01*
X236562857Y-107673714D01*
X236620000Y-107559428D01*
X236620000Y-107502285D01*
X236562857Y-107388000D01*
X236448571Y-107330857D01*
X236277142Y-107330857D01*
X236162857Y-107273714D01*
X236105714Y-107159428D01*
X236105714Y-107102285D01*
X236162857Y-106988000D01*
X236277142Y-106930857D01*
X236448571Y-106930857D01*
X236562857Y-106988000D01*
X237305714Y-107730857D02*
X237191428Y-107673714D01*
X237134285Y-107616571D01*
X237077142Y-107502285D01*
X237077142Y-107159428D01*
X237134285Y-107045142D01*
X237191428Y-106988000D01*
X237305714Y-106930857D01*
X237477142Y-106930857D01*
X237591428Y-106988000D01*
X237648571Y-107045142D01*
X237705714Y-107159428D01*
X237705714Y-107502285D01*
X237648571Y-107616571D01*
X237591428Y-107673714D01*
X237477142Y-107730857D01*
X237305714Y-107730857D01*
X238220000Y-107730857D02*
X238220000Y-106930857D01*
X238220000Y-107159428D02*
X238277142Y-107045142D01*
X238334285Y-106988000D01*
X238448571Y-106930857D01*
X238562857Y-106930857D01*
X238905714Y-107673714D02*
X239020000Y-107730857D01*
X239248571Y-107730857D01*
X239362857Y-107673714D01*
X239420000Y-107559428D01*
X239420000Y-107502285D01*
X239362857Y-107388000D01*
X239248571Y-107330857D01*
X239077142Y-107330857D01*
X238962857Y-107273714D01*
X238905714Y-107159428D01*
X238905714Y-107102285D01*
X238962857Y-106988000D01*
X239077142Y-106930857D01*
X239248571Y-106930857D01*
X239362857Y-106988000D01*
X211294857Y-89988857D02*
X210094857Y-89988857D01*
X211294857Y-89474571D02*
X210666285Y-89474571D01*
X210552000Y-89531714D01*
X210494857Y-89646000D01*
X210494857Y-89817428D01*
X210552000Y-89931714D01*
X210609142Y-89988857D01*
X210494857Y-88388857D02*
X211294857Y-88388857D01*
X210494857Y-88903142D02*
X211123428Y-88903142D01*
X211237714Y-88846000D01*
X211294857Y-88731714D01*
X211294857Y-88560285D01*
X211237714Y-88446000D01*
X211180571Y-88388857D01*
X211294857Y-87817428D02*
X210094857Y-87817428D01*
X210552000Y-87817428D02*
X210494857Y-87703142D01*
X210494857Y-87474571D01*
X210552000Y-87360285D01*
X210609142Y-87303142D01*
X210723428Y-87246000D01*
X211066285Y-87246000D01*
X211180571Y-87303142D01*
X211237714Y-87360285D01*
X211294857Y-87474571D01*
X211294857Y-87703142D01*
X211237714Y-87817428D01*
X213394857Y-90846000D02*
X213394857Y-91531714D01*
X213394857Y-91188857D02*
X212194857Y-91188857D01*
X212366285Y-91303142D01*
X212480571Y-91417428D01*
X212537714Y-91531714D01*
X212937714Y-90331714D02*
X212937714Y-89417428D01*
X212594857Y-88960285D02*
X213394857Y-88731714D01*
X212823428Y-88503142D01*
X213394857Y-88274571D01*
X212594857Y-88046000D01*
X213394857Y-87588857D02*
X212594857Y-87588857D01*
X212194857Y-87588857D02*
X212252000Y-87646000D01*
X212309142Y-87588857D01*
X212252000Y-87531714D01*
X212194857Y-87588857D01*
X212309142Y-87588857D01*
X213394857Y-87017428D02*
X212594857Y-87017428D01*
X212823428Y-87017428D02*
X212709142Y-86960285D01*
X212652000Y-86903142D01*
X212594857Y-86788857D01*
X212594857Y-86674571D01*
X213337714Y-85817428D02*
X213394857Y-85931714D01*
X213394857Y-86160285D01*
X213337714Y-86274571D01*
X213223428Y-86331714D01*
X212766285Y-86331714D01*
X212652000Y-86274571D01*
X212594857Y-86160285D01*
X212594857Y-85931714D01*
X212652000Y-85817428D01*
X212766285Y-85760285D01*
X212880571Y-85760285D01*
X212994857Y-86331714D01*
X214694857Y-90360285D02*
X215494857Y-90074571D01*
X214694857Y-89788857D01*
X215494857Y-88703142D02*
X215494857Y-89388857D01*
X215494857Y-89046000D02*
X214294857Y-89046000D01*
X214466285Y-89160285D01*
X214580571Y-89274571D01*
X214637714Y-89388857D01*
X215380571Y-88188857D02*
X215437714Y-88131714D01*
X215494857Y-88188857D01*
X215437714Y-88246000D01*
X215380571Y-88188857D01*
X215494857Y-88188857D01*
X214294857Y-87388857D02*
X214294857Y-87274571D01*
X214352000Y-87160285D01*
X214409142Y-87103142D01*
X214523428Y-87046000D01*
X214752000Y-86988857D01*
X215037714Y-86988857D01*
X215266285Y-87046000D01*
X215380571Y-87103142D01*
X215437714Y-87160285D01*
X215494857Y-87274571D01*
X215494857Y-87388857D01*
X215437714Y-87503142D01*
X215380571Y-87560285D01*
X215266285Y-87617428D01*
X215037714Y-87674571D01*
X214752000Y-87674571D01*
X214523428Y-87617428D01*
X214409142Y-87560285D01*
X214352000Y-87503142D01*
X214294857Y-87388857D01*
X233877142Y-78395714D02*
X233762857Y-78452857D01*
X233534285Y-78452857D01*
X233420000Y-78395714D01*
X233362857Y-78338571D01*
X233305714Y-78224285D01*
X233305714Y-77881428D01*
X233362857Y-77767142D01*
X233420000Y-77710000D01*
X233534285Y-77652857D01*
X233762857Y-77652857D01*
X233877142Y-77710000D01*
X234848571Y-78395714D02*
X234734285Y-78452857D01*
X234505714Y-78452857D01*
X234391428Y-78395714D01*
X234334285Y-78281428D01*
X234334285Y-77824285D01*
X234391428Y-77710000D01*
X234505714Y-77652857D01*
X234734285Y-77652857D01*
X234848571Y-77710000D01*
X234905714Y-77824285D01*
X234905714Y-77938571D01*
X234334285Y-78052857D01*
X235420000Y-77652857D02*
X235420000Y-78452857D01*
X235420000Y-77767142D02*
X235477142Y-77710000D01*
X235591428Y-77652857D01*
X235762857Y-77652857D01*
X235877142Y-77710000D01*
X235934285Y-77824285D01*
X235934285Y-78452857D01*
X236334285Y-77652857D02*
X236791428Y-77652857D01*
X236505714Y-77252857D02*
X236505714Y-78281428D01*
X236562857Y-78395714D01*
X236677142Y-78452857D01*
X236791428Y-78452857D01*
X237191428Y-78452857D02*
X237191428Y-77652857D01*
X237191428Y-77881428D02*
X237248571Y-77767142D01*
X237305714Y-77710000D01*
X237420000Y-77652857D01*
X237534285Y-77652857D01*
X238448571Y-78452857D02*
X238448571Y-77824285D01*
X238391428Y-77710000D01*
X238277142Y-77652857D01*
X238048571Y-77652857D01*
X237934285Y-77710000D01*
X238448571Y-78395714D02*
X238334285Y-78452857D01*
X238048571Y-78452857D01*
X237934285Y-78395714D01*
X237877142Y-78281428D01*
X237877142Y-78167142D01*
X237934285Y-78052857D01*
X238048571Y-77995714D01*
X238334285Y-77995714D01*
X238448571Y-77938571D01*
X239191428Y-78452857D02*
X239077142Y-78395714D01*
X239020000Y-78281428D01*
X239020000Y-77252857D01*
X233848571Y-80495714D02*
X233734285Y-80552857D01*
X233505714Y-80552857D01*
X233391428Y-80495714D01*
X233334285Y-80438571D01*
X233277142Y-80324285D01*
X233277142Y-79981428D01*
X233334285Y-79867142D01*
X233391428Y-79810000D01*
X233505714Y-79752857D01*
X233734285Y-79752857D01*
X233848571Y-79810000D01*
X234534285Y-80552857D02*
X234420000Y-80495714D01*
X234362857Y-80438571D01*
X234305714Y-80324285D01*
X234305714Y-79981428D01*
X234362857Y-79867142D01*
X234420000Y-79810000D01*
X234534285Y-79752857D01*
X234705714Y-79752857D01*
X234820000Y-79810000D01*
X234877142Y-79867142D01*
X234934285Y-79981428D01*
X234934285Y-80324285D01*
X234877142Y-80438571D01*
X234820000Y-80495714D01*
X234705714Y-80552857D01*
X234534285Y-80552857D01*
X235448571Y-79752857D02*
X235448571Y-80552857D01*
X235448571Y-79867142D02*
X235505714Y-79810000D01*
X235620000Y-79752857D01*
X235791428Y-79752857D01*
X235905714Y-79810000D01*
X235962857Y-79924285D01*
X235962857Y-80552857D01*
X236362857Y-79752857D02*
X236820000Y-79752857D01*
X236534285Y-79352857D02*
X236534285Y-80381428D01*
X236591428Y-80495714D01*
X236705714Y-80552857D01*
X236820000Y-80552857D01*
X237220000Y-80552857D02*
X237220000Y-79752857D01*
X237220000Y-79981428D02*
X237277142Y-79867142D01*
X237334285Y-79810000D01*
X237448571Y-79752857D01*
X237562857Y-79752857D01*
X238134285Y-80552857D02*
X238020000Y-80495714D01*
X237962857Y-80438571D01*
X237905714Y-80324285D01*
X237905714Y-79981428D01*
X237962857Y-79867142D01*
X238020000Y-79810000D01*
X238134285Y-79752857D01*
X238305714Y-79752857D01*
X238420000Y-79810000D01*
X238477142Y-79867142D01*
X238534285Y-79981428D01*
X238534285Y-80324285D01*
X238477142Y-80438571D01*
X238420000Y-80495714D01*
X238305714Y-80552857D01*
X238134285Y-80552857D01*
X239220000Y-80552857D02*
X239105714Y-80495714D01*
X239048571Y-80381428D01*
X239048571Y-79352857D01*
X235305714Y-81852857D02*
X235305714Y-82652857D01*
X234791428Y-81852857D02*
X234791428Y-82481428D01*
X234848571Y-82595714D01*
X234962857Y-82652857D01*
X235134285Y-82652857D01*
X235248571Y-82595714D01*
X235305714Y-82538571D01*
X235877142Y-81852857D02*
X235877142Y-82652857D01*
X235877142Y-81967142D02*
X235934285Y-81910000D01*
X236048571Y-81852857D01*
X236220000Y-81852857D01*
X236334285Y-81910000D01*
X236391428Y-82024285D01*
X236391428Y-82652857D01*
X236962857Y-82652857D02*
X236962857Y-81852857D01*
X236962857Y-81452857D02*
X236905714Y-81510000D01*
X236962857Y-81567142D01*
X237020000Y-81510000D01*
X236962857Y-81452857D01*
X236962857Y-81567142D01*
X237362857Y-81852857D02*
X237820000Y-81852857D01*
X237534285Y-81452857D02*
X237534285Y-82481428D01*
X237591428Y-82595714D01*
X237705714Y-82652857D01*
X237820000Y-82652857D01*
X205774857Y-101335428D02*
X204974857Y-101335428D01*
X205203428Y-101335428D02*
X205089142Y-101278285D01*
X205032000Y-101221142D01*
X204974857Y-101106857D01*
X204974857Y-100992571D01*
X205774857Y-100421142D02*
X205717714Y-100535428D01*
X205660571Y-100592571D01*
X205546285Y-100649714D01*
X205203428Y-100649714D01*
X205089142Y-100592571D01*
X205032000Y-100535428D01*
X204974857Y-100421142D01*
X204974857Y-100249714D01*
X205032000Y-100135428D01*
X205089142Y-100078285D01*
X205203428Y-100021142D01*
X205546285Y-100021142D01*
X205660571Y-100078285D01*
X205717714Y-100135428D01*
X205774857Y-100249714D01*
X205774857Y-100421142D01*
X205774857Y-99506857D02*
X204974857Y-99506857D01*
X205089142Y-99506857D02*
X205032000Y-99449714D01*
X204974857Y-99335428D01*
X204974857Y-99164000D01*
X205032000Y-99049714D01*
X205146285Y-98992571D01*
X205774857Y-98992571D01*
X205146285Y-98992571D02*
X205032000Y-98935428D01*
X204974857Y-98821142D01*
X204974857Y-98649714D01*
X205032000Y-98535428D01*
X205146285Y-98478285D01*
X205774857Y-98478285D01*
X205774857Y-97392571D02*
X205146285Y-97392571D01*
X205032000Y-97449714D01*
X204974857Y-97564000D01*
X204974857Y-97792571D01*
X205032000Y-97906857D01*
X205717714Y-97392571D02*
X205774857Y-97506857D01*
X205774857Y-97792571D01*
X205717714Y-97906857D01*
X205603428Y-97964000D01*
X205489142Y-97964000D01*
X205374857Y-97906857D01*
X205317714Y-97792571D01*
X205317714Y-97506857D01*
X205260571Y-97392571D01*
X204974857Y-96821142D02*
X205774857Y-96821142D01*
X205089142Y-96821142D02*
X205032000Y-96764000D01*
X204974857Y-96649714D01*
X204974857Y-96478285D01*
X205032000Y-96364000D01*
X205146285Y-96306857D01*
X205774857Y-96306857D01*
X205317714Y-95735428D02*
X205317714Y-94821142D01*
X205774857Y-94078285D02*
X205717714Y-94192571D01*
X205603428Y-94249714D01*
X204574857Y-94249714D01*
X205774857Y-93106857D02*
X205146285Y-93106857D01*
X205032000Y-93164000D01*
X204974857Y-93278285D01*
X204974857Y-93506857D01*
X205032000Y-93621142D01*
X205717714Y-93106857D02*
X205774857Y-93221142D01*
X205774857Y-93506857D01*
X205717714Y-93621142D01*
X205603428Y-93678285D01*
X205489142Y-93678285D01*
X205374857Y-93621142D01*
X205317714Y-93506857D01*
X205317714Y-93221142D01*
X205260571Y-93106857D01*
X205774857Y-92535428D02*
X204574857Y-92535428D01*
X205032000Y-92535428D02*
X204974857Y-92421142D01*
X204974857Y-92192571D01*
X205032000Y-92078285D01*
X205089142Y-92021142D01*
X205203428Y-91964000D01*
X205546285Y-91964000D01*
X205660571Y-92021142D01*
X205717714Y-92078285D01*
X205774857Y-92192571D01*
X205774857Y-92421142D01*
X205717714Y-92535428D01*
X205774857Y-91278285D02*
X205717714Y-91392571D01*
X205660571Y-91449714D01*
X205546285Y-91506857D01*
X205203428Y-91506857D01*
X205089142Y-91449714D01*
X205032000Y-91392571D01*
X204974857Y-91278285D01*
X204974857Y-91106857D01*
X205032000Y-90992571D01*
X205089142Y-90935428D01*
X205203428Y-90878285D01*
X205546285Y-90878285D01*
X205660571Y-90935428D01*
X205717714Y-90992571D01*
X205774857Y-91106857D01*
X205774857Y-91278285D01*
X204974857Y-90478285D02*
X205774857Y-90192571D01*
X204974857Y-89906857D01*
X205717714Y-89506857D02*
X205774857Y-89392571D01*
X205774857Y-89164000D01*
X205717714Y-89049714D01*
X205603428Y-88992571D01*
X205546285Y-88992571D01*
X205432000Y-89049714D01*
X205374857Y-89164000D01*
X205374857Y-89335428D01*
X205317714Y-89449714D01*
X205203428Y-89506857D01*
X205146285Y-89506857D01*
X205032000Y-89449714D01*
X204974857Y-89335428D01*
X204974857Y-89164000D01*
X205032000Y-89049714D01*
X205774857Y-88478285D02*
X204574857Y-88478285D01*
X205317714Y-88364000D02*
X205774857Y-88021142D01*
X204974857Y-88021142D02*
X205432000Y-88478285D01*
X204974857Y-87621142D02*
X205774857Y-87335428D01*
X204974857Y-87049714D02*
X205774857Y-87335428D01*
X206060571Y-87449714D01*
X206117714Y-87506857D01*
X206174857Y-87621142D01*
X205660571Y-86592571D02*
X205717714Y-86535428D01*
X205774857Y-86592571D01*
X205717714Y-86649714D01*
X205660571Y-86592571D01*
X205774857Y-86592571D01*
X205717714Y-85506857D02*
X205774857Y-85621142D01*
X205774857Y-85849714D01*
X205717714Y-85964000D01*
X205660571Y-86021142D01*
X205546285Y-86078285D01*
X205203428Y-86078285D01*
X205089142Y-86021142D01*
X205032000Y-85964000D01*
X204974857Y-85849714D01*
X204974857Y-85621142D01*
X205032000Y-85506857D01*
X204974857Y-85106857D02*
X204974857Y-84478285D01*
X205774857Y-85106857D01*
X205774857Y-84478285D01*
D11*
X217408285Y-103957428D02*
X218170190Y-103957428D01*
X217789238Y-104338380D02*
X217789238Y-103576476D01*
X219122571Y-103338380D02*
X218646380Y-103338380D01*
X218598761Y-103814571D01*
X218646380Y-103766952D01*
X218741619Y-103719333D01*
X218979714Y-103719333D01*
X219074952Y-103766952D01*
X219122571Y-103814571D01*
X219170190Y-103909809D01*
X219170190Y-104147904D01*
X219122571Y-104243142D01*
X219074952Y-104290761D01*
X218979714Y-104338380D01*
X218741619Y-104338380D01*
X218646380Y-104290761D01*
X218598761Y-104243142D01*
X219455904Y-103338380D02*
X219789238Y-104338380D01*
X220122571Y-103338380D01*
X223051809Y-104338380D02*
X223051809Y-103338380D01*
X223051809Y-104290761D02*
X222956571Y-104338380D01*
X222766095Y-104338380D01*
X222670857Y-104290761D01*
X222623238Y-104243142D01*
X222575619Y-104147904D01*
X222575619Y-103862190D01*
X222623238Y-103766952D01*
X222670857Y-103719333D01*
X222766095Y-103671714D01*
X222956571Y-103671714D01*
X223051809Y-103719333D01*
X223956571Y-104338380D02*
X223956571Y-103814571D01*
X223908952Y-103719333D01*
X223813714Y-103671714D01*
X223623238Y-103671714D01*
X223528000Y-103719333D01*
X223956571Y-104290761D02*
X223861333Y-104338380D01*
X223623238Y-104338380D01*
X223528000Y-104290761D01*
X223480380Y-104195523D01*
X223480380Y-104100285D01*
X223528000Y-104005047D01*
X223623238Y-103957428D01*
X223861333Y-103957428D01*
X223956571Y-103909809D01*
X224289904Y-103671714D02*
X224670857Y-103671714D01*
X224432761Y-103338380D02*
X224432761Y-104195523D01*
X224480380Y-104290761D01*
X224575619Y-104338380D01*
X224670857Y-104338380D01*
X225432761Y-104338380D02*
X225432761Y-103814571D01*
X225385142Y-103719333D01*
X225289904Y-103671714D01*
X225099428Y-103671714D01*
X225004190Y-103719333D01*
X225432761Y-104290761D02*
X225337523Y-104338380D01*
X225099428Y-104338380D01*
X225004190Y-104290761D01*
X224956571Y-104195523D01*
X224956571Y-104100285D01*
X225004190Y-104005047D01*
X225099428Y-103957428D01*
X225337523Y-103957428D01*
X225432761Y-103909809D01*
X228600095Y-103386000D02*
X228504857Y-103338380D01*
X228362000Y-103338380D01*
X228219142Y-103386000D01*
X228123904Y-103481238D01*
X228076285Y-103576476D01*
X228028666Y-103766952D01*
X228028666Y-103909809D01*
X228076285Y-104100285D01*
X228123904Y-104195523D01*
X228219142Y-104290761D01*
X228362000Y-104338380D01*
X228457238Y-104338380D01*
X228600095Y-104290761D01*
X228647714Y-104243142D01*
X228647714Y-103909809D01*
X228457238Y-103909809D01*
X229076285Y-104338380D02*
X229076285Y-103338380D01*
X229647714Y-104338380D01*
X229647714Y-103338380D01*
X230123904Y-104338380D02*
X230123904Y-103338380D01*
X230362000Y-103338380D01*
X230504857Y-103386000D01*
X230600095Y-103481238D01*
X230647714Y-103576476D01*
X230695333Y-103766952D01*
X230695333Y-103909809D01*
X230647714Y-104100285D01*
X230600095Y-104195523D01*
X230504857Y-104290761D01*
X230362000Y-104338380D01*
X230123904Y-104338380D01*
X203692285Y-103957428D02*
X204454190Y-103957428D01*
X204073238Y-104338380D02*
X204073238Y-103576476D01*
X205406571Y-103338380D02*
X204930380Y-103338380D01*
X204882761Y-103814571D01*
X204930380Y-103766952D01*
X205025619Y-103719333D01*
X205263714Y-103719333D01*
X205358952Y-103766952D01*
X205406571Y-103814571D01*
X205454190Y-103909809D01*
X205454190Y-104147904D01*
X205406571Y-104243142D01*
X205358952Y-104290761D01*
X205263714Y-104338380D01*
X205025619Y-104338380D01*
X204930380Y-104290761D01*
X204882761Y-104243142D01*
X205739904Y-103338380D02*
X206073238Y-104338380D01*
X206406571Y-103338380D01*
X208065809Y-104338380D02*
X208065809Y-103338380D01*
X208065809Y-104290761D02*
X207970571Y-104338380D01*
X207780095Y-104338380D01*
X207684857Y-104290761D01*
X207637238Y-104243142D01*
X207589619Y-104147904D01*
X207589619Y-103862190D01*
X207637238Y-103766952D01*
X207684857Y-103719333D01*
X207780095Y-103671714D01*
X207970571Y-103671714D01*
X208065809Y-103719333D01*
X208970571Y-104338380D02*
X208970571Y-103814571D01*
X208922952Y-103719333D01*
X208827714Y-103671714D01*
X208637238Y-103671714D01*
X208542000Y-103719333D01*
X208970571Y-104290761D02*
X208875333Y-104338380D01*
X208637238Y-104338380D01*
X208542000Y-104290761D01*
X208494380Y-104195523D01*
X208494380Y-104100285D01*
X208542000Y-104005047D01*
X208637238Y-103957428D01*
X208875333Y-103957428D01*
X208970571Y-103909809D01*
X209303904Y-103671714D02*
X209684857Y-103671714D01*
X209446761Y-103338380D02*
X209446761Y-104195523D01*
X209494380Y-104290761D01*
X209589619Y-104338380D01*
X209684857Y-104338380D01*
X210446761Y-104338380D02*
X210446761Y-103814571D01*
X210399142Y-103719333D01*
X210303904Y-103671714D01*
X210113428Y-103671714D01*
X210018190Y-103719333D01*
X210446761Y-104290761D02*
X210351523Y-104338380D01*
X210113428Y-104338380D01*
X210018190Y-104290761D01*
X209970571Y-104195523D01*
X209970571Y-104100285D01*
X210018190Y-104005047D01*
X210113428Y-103957428D01*
X210351523Y-103957428D01*
X210446761Y-103909809D01*
X213360095Y-103386000D02*
X213264857Y-103338380D01*
X213122000Y-103338380D01*
X212979142Y-103386000D01*
X212883904Y-103481238D01*
X212836285Y-103576476D01*
X212788666Y-103766952D01*
X212788666Y-103909809D01*
X212836285Y-104100285D01*
X212883904Y-104195523D01*
X212979142Y-104290761D01*
X213122000Y-104338380D01*
X213217238Y-104338380D01*
X213360095Y-104290761D01*
X213407714Y-104243142D01*
X213407714Y-103909809D01*
X213217238Y-103909809D01*
X213836285Y-104338380D02*
X213836285Y-103338380D01*
X214407714Y-104338380D01*
X214407714Y-103338380D01*
X214883904Y-104338380D02*
X214883904Y-103338380D01*
X215122000Y-103338380D01*
X215264857Y-103386000D01*
X215360095Y-103481238D01*
X215407714Y-103576476D01*
X215455333Y-103766952D01*
X215455333Y-103909809D01*
X215407714Y-104100285D01*
X215360095Y-104195523D01*
X215264857Y-104290761D01*
X215122000Y-104338380D01*
X214883904Y-104338380D01*
X202176000Y-102362095D02*
X202223619Y-102266857D01*
X202223619Y-102124000D01*
X202176000Y-101981142D01*
X202080761Y-101885904D01*
X201985523Y-101838285D01*
X201795047Y-101790666D01*
X201652190Y-101790666D01*
X201461714Y-101838285D01*
X201366476Y-101885904D01*
X201271238Y-101981142D01*
X201223619Y-102124000D01*
X201223619Y-102219238D01*
X201271238Y-102362095D01*
X201318857Y-102409714D01*
X201652190Y-102409714D01*
X201652190Y-102219238D01*
X201223619Y-102838285D02*
X202223619Y-102838285D01*
X201223619Y-103409714D01*
X202223619Y-103409714D01*
X201223619Y-103885904D02*
X202223619Y-103885904D01*
X202223619Y-104124000D01*
X202176000Y-104266857D01*
X202080761Y-104362095D01*
X201985523Y-104409714D01*
X201795047Y-104457333D01*
X201652190Y-104457333D01*
X201461714Y-104409714D01*
X201366476Y-104362095D01*
X201271238Y-104266857D01*
X201223619Y-104124000D01*
X201223619Y-103885904D01*
X201223619Y-98337809D02*
X202223619Y-98337809D01*
X201271238Y-98337809D02*
X201223619Y-98242571D01*
X201223619Y-98052095D01*
X201271238Y-97956857D01*
X201318857Y-97909238D01*
X201414095Y-97861619D01*
X201699809Y-97861619D01*
X201795047Y-97909238D01*
X201842666Y-97956857D01*
X201890285Y-98052095D01*
X201890285Y-98242571D01*
X201842666Y-98337809D01*
X201223619Y-99242571D02*
X201747428Y-99242571D01*
X201842666Y-99194952D01*
X201890285Y-99099714D01*
X201890285Y-98909238D01*
X201842666Y-98814000D01*
X201271238Y-99242571D02*
X201223619Y-99147333D01*
X201223619Y-98909238D01*
X201271238Y-98814000D01*
X201366476Y-98766380D01*
X201461714Y-98766380D01*
X201556952Y-98814000D01*
X201604571Y-98909238D01*
X201604571Y-99147333D01*
X201652190Y-99242571D01*
X201890285Y-99575904D02*
X201890285Y-99956857D01*
X202223619Y-99718761D02*
X201366476Y-99718761D01*
X201271238Y-99766380D01*
X201223619Y-99861619D01*
X201223619Y-99956857D01*
X201223619Y-100718761D02*
X201747428Y-100718761D01*
X201842666Y-100671142D01*
X201890285Y-100575904D01*
X201890285Y-100385428D01*
X201842666Y-100290190D01*
X201271238Y-100718761D02*
X201223619Y-100623523D01*
X201223619Y-100385428D01*
X201271238Y-100290190D01*
X201366476Y-100242571D01*
X201461714Y-100242571D01*
X201556952Y-100290190D01*
X201604571Y-100385428D01*
X201604571Y-100623523D01*
X201652190Y-100718761D01*
X202620571Y-93456285D02*
X202620571Y-94218190D01*
X202239619Y-93837238D02*
X203001523Y-93837238D01*
X203239619Y-95170571D02*
X203239619Y-94694380D01*
X202763428Y-94646761D01*
X202811047Y-94694380D01*
X202858666Y-94789619D01*
X202858666Y-95027714D01*
X202811047Y-95122952D01*
X202763428Y-95170571D01*
X202668190Y-95218190D01*
X202430095Y-95218190D01*
X202334857Y-95170571D01*
X202287238Y-95122952D01*
X202239619Y-95027714D01*
X202239619Y-94789619D01*
X202287238Y-94694380D01*
X202334857Y-94646761D01*
X203239619Y-95503904D02*
X202239619Y-95837238D01*
X203239619Y-96170571D01*
X202176000Y-89408095D02*
X202223619Y-89312857D01*
X202223619Y-89170000D01*
X202176000Y-89027142D01*
X202080761Y-88931904D01*
X201985523Y-88884285D01*
X201795047Y-88836666D01*
X201652190Y-88836666D01*
X201461714Y-88884285D01*
X201366476Y-88931904D01*
X201271238Y-89027142D01*
X201223619Y-89170000D01*
X201223619Y-89265238D01*
X201271238Y-89408095D01*
X201318857Y-89455714D01*
X201652190Y-89455714D01*
X201652190Y-89265238D01*
X201223619Y-89884285D02*
X202223619Y-89884285D01*
X201223619Y-90455714D01*
X202223619Y-90455714D01*
X201223619Y-90931904D02*
X202223619Y-90931904D01*
X202223619Y-91170000D01*
X202176000Y-91312857D01*
X202080761Y-91408095D01*
X201985523Y-91455714D01*
X201795047Y-91503333D01*
X201652190Y-91503333D01*
X201461714Y-91455714D01*
X201366476Y-91408095D01*
X201271238Y-91312857D01*
X201223619Y-91170000D01*
X201223619Y-90931904D01*
X201223619Y-84621809D02*
X202223619Y-84621809D01*
X201271238Y-84621809D02*
X201223619Y-84526571D01*
X201223619Y-84336095D01*
X201271238Y-84240857D01*
X201318857Y-84193238D01*
X201414095Y-84145619D01*
X201699809Y-84145619D01*
X201795047Y-84193238D01*
X201842666Y-84240857D01*
X201890285Y-84336095D01*
X201890285Y-84526571D01*
X201842666Y-84621809D01*
X201223619Y-85526571D02*
X201747428Y-85526571D01*
X201842666Y-85478952D01*
X201890285Y-85383714D01*
X201890285Y-85193238D01*
X201842666Y-85098000D01*
X201271238Y-85526571D02*
X201223619Y-85431333D01*
X201223619Y-85193238D01*
X201271238Y-85098000D01*
X201366476Y-85050380D01*
X201461714Y-85050380D01*
X201556952Y-85098000D01*
X201604571Y-85193238D01*
X201604571Y-85431333D01*
X201652190Y-85526571D01*
X201890285Y-85859904D02*
X201890285Y-86240857D01*
X202223619Y-86002761D02*
X201366476Y-86002761D01*
X201271238Y-86050380D01*
X201223619Y-86145619D01*
X201223619Y-86240857D01*
X201223619Y-87002761D02*
X201747428Y-87002761D01*
X201842666Y-86955142D01*
X201890285Y-86859904D01*
X201890285Y-86669428D01*
X201842666Y-86574190D01*
X201271238Y-87002761D02*
X201223619Y-86907523D01*
X201223619Y-86669428D01*
X201271238Y-86574190D01*
X201366476Y-86526571D01*
X201461714Y-86526571D01*
X201556952Y-86574190D01*
X201604571Y-86669428D01*
X201604571Y-86907523D01*
X201652190Y-87002761D01*
X201350571Y-80248285D02*
X201350571Y-81010190D01*
X200969619Y-80629238D02*
X201731523Y-80629238D01*
X201969619Y-81962571D02*
X201969619Y-81486380D01*
X201493428Y-81438761D01*
X201541047Y-81486380D01*
X201588666Y-81581619D01*
X201588666Y-81819714D01*
X201541047Y-81914952D01*
X201493428Y-81962571D01*
X201398190Y-82010190D01*
X201160095Y-82010190D01*
X201064857Y-81962571D01*
X201017238Y-81914952D01*
X200969619Y-81819714D01*
X200969619Y-81581619D01*
X201017238Y-81486380D01*
X201064857Y-81438761D01*
X201969619Y-82295904D02*
X200969619Y-82629238D01*
X201969619Y-82962571D01*
X203200095Y-80272000D02*
X203104857Y-80224380D01*
X202962000Y-80224380D01*
X202819142Y-80272000D01*
X202723904Y-80367238D01*
X202676285Y-80462476D01*
X202628666Y-80652952D01*
X202628666Y-80795809D01*
X202676285Y-80986285D01*
X202723904Y-81081523D01*
X202819142Y-81176761D01*
X202962000Y-81224380D01*
X203057238Y-81224380D01*
X203200095Y-81176761D01*
X203247714Y-81129142D01*
X203247714Y-80795809D01*
X203057238Y-80795809D01*
X203676285Y-81224380D02*
X203676285Y-80224380D01*
X204247714Y-81224380D01*
X204247714Y-80224380D01*
X204723904Y-81224380D02*
X204723904Y-80224380D01*
X204962000Y-80224380D01*
X205104857Y-80272000D01*
X205200095Y-80367238D01*
X205247714Y-80462476D01*
X205295333Y-80652952D01*
X205295333Y-80795809D01*
X205247714Y-80986285D01*
X205200095Y-81081523D01*
X205104857Y-81176761D01*
X204962000Y-81224380D01*
X204723904Y-81224380D01*
X208065809Y-81224380D02*
X208065809Y-80224380D01*
X208065809Y-81176761D02*
X207970571Y-81224380D01*
X207780095Y-81224380D01*
X207684857Y-81176761D01*
X207637238Y-81129142D01*
X207589619Y-81033904D01*
X207589619Y-80748190D01*
X207637238Y-80652952D01*
X207684857Y-80605333D01*
X207780095Y-80557714D01*
X207970571Y-80557714D01*
X208065809Y-80605333D01*
X208970571Y-81224380D02*
X208970571Y-80700571D01*
X208922952Y-80605333D01*
X208827714Y-80557714D01*
X208637238Y-80557714D01*
X208542000Y-80605333D01*
X208970571Y-81176761D02*
X208875333Y-81224380D01*
X208637238Y-81224380D01*
X208542000Y-81176761D01*
X208494380Y-81081523D01*
X208494380Y-80986285D01*
X208542000Y-80891047D01*
X208637238Y-80843428D01*
X208875333Y-80843428D01*
X208970571Y-80795809D01*
X209303904Y-80557714D02*
X209684857Y-80557714D01*
X209446761Y-80224380D02*
X209446761Y-81081523D01*
X209494380Y-81176761D01*
X209589619Y-81224380D01*
X209684857Y-81224380D01*
X210446761Y-81224380D02*
X210446761Y-80700571D01*
X210399142Y-80605333D01*
X210303904Y-80557714D01*
X210113428Y-80557714D01*
X210018190Y-80605333D01*
X210446761Y-81176761D02*
X210351523Y-81224380D01*
X210113428Y-81224380D01*
X210018190Y-81176761D01*
X209970571Y-81081523D01*
X209970571Y-80986285D01*
X210018190Y-80891047D01*
X210113428Y-80843428D01*
X210351523Y-80843428D01*
X210446761Y-80795809D01*
X212836285Y-82113428D02*
X213598190Y-82113428D01*
X213217238Y-82494380D02*
X213217238Y-81732476D01*
X214550571Y-81494380D02*
X214074380Y-81494380D01*
X214026761Y-81970571D01*
X214074380Y-81922952D01*
X214169619Y-81875333D01*
X214407714Y-81875333D01*
X214502952Y-81922952D01*
X214550571Y-81970571D01*
X214598190Y-82065809D01*
X214598190Y-82303904D01*
X214550571Y-82399142D01*
X214502952Y-82446761D01*
X214407714Y-82494380D01*
X214169619Y-82494380D01*
X214074380Y-82446761D01*
X214026761Y-82399142D01*
X214883904Y-81494380D02*
X215217238Y-82494380D01*
X215550571Y-81494380D01*
X218186095Y-80272000D02*
X218090857Y-80224380D01*
X217948000Y-80224380D01*
X217805142Y-80272000D01*
X217709904Y-80367238D01*
X217662285Y-80462476D01*
X217614666Y-80652952D01*
X217614666Y-80795809D01*
X217662285Y-80986285D01*
X217709904Y-81081523D01*
X217805142Y-81176761D01*
X217948000Y-81224380D01*
X218043238Y-81224380D01*
X218186095Y-81176761D01*
X218233714Y-81129142D01*
X218233714Y-80795809D01*
X218043238Y-80795809D01*
X218662285Y-81224380D02*
X218662285Y-80224380D01*
X219233714Y-81224380D01*
X219233714Y-80224380D01*
X219709904Y-81224380D02*
X219709904Y-80224380D01*
X219948000Y-80224380D01*
X220090857Y-80272000D01*
X220186095Y-80367238D01*
X220233714Y-80462476D01*
X220281333Y-80652952D01*
X220281333Y-80795809D01*
X220233714Y-80986285D01*
X220186095Y-81081523D01*
X220090857Y-81176761D01*
X219948000Y-81224380D01*
X219709904Y-81224380D01*
X223051809Y-81224380D02*
X223051809Y-80224380D01*
X223051809Y-81176761D02*
X222956571Y-81224380D01*
X222766095Y-81224380D01*
X222670857Y-81176761D01*
X222623238Y-81129142D01*
X222575619Y-81033904D01*
X222575619Y-80748190D01*
X222623238Y-80652952D01*
X222670857Y-80605333D01*
X222766095Y-80557714D01*
X222956571Y-80557714D01*
X223051809Y-80605333D01*
X223956571Y-81224380D02*
X223956571Y-80700571D01*
X223908952Y-80605333D01*
X223813714Y-80557714D01*
X223623238Y-80557714D01*
X223528000Y-80605333D01*
X223956571Y-81176761D02*
X223861333Y-81224380D01*
X223623238Y-81224380D01*
X223528000Y-81176761D01*
X223480380Y-81081523D01*
X223480380Y-80986285D01*
X223528000Y-80891047D01*
X223623238Y-80843428D01*
X223861333Y-80843428D01*
X223956571Y-80795809D01*
X224289904Y-80557714D02*
X224670857Y-80557714D01*
X224432761Y-80224380D02*
X224432761Y-81081523D01*
X224480380Y-81176761D01*
X224575619Y-81224380D01*
X224670857Y-81224380D01*
X225432761Y-81224380D02*
X225432761Y-80700571D01*
X225385142Y-80605333D01*
X225289904Y-80557714D01*
X225099428Y-80557714D01*
X225004190Y-80605333D01*
X225432761Y-81176761D02*
X225337523Y-81224380D01*
X225099428Y-81224380D01*
X225004190Y-81176761D01*
X224956571Y-81081523D01*
X224956571Y-80986285D01*
X225004190Y-80891047D01*
X225099428Y-80843428D01*
X225337523Y-80843428D01*
X225432761Y-80795809D01*
X227822285Y-82113428D02*
X228584190Y-82113428D01*
X228203238Y-82494380D02*
X228203238Y-81732476D01*
X229536571Y-81494380D02*
X229060380Y-81494380D01*
X229012761Y-81970571D01*
X229060380Y-81922952D01*
X229155619Y-81875333D01*
X229393714Y-81875333D01*
X229488952Y-81922952D01*
X229536571Y-81970571D01*
X229584190Y-82065809D01*
X229584190Y-82303904D01*
X229536571Y-82399142D01*
X229488952Y-82446761D01*
X229393714Y-82494380D01*
X229155619Y-82494380D01*
X229060380Y-82446761D01*
X229012761Y-82399142D01*
X229869904Y-81494380D02*
X230203238Y-82494380D01*
X230536571Y-81494380D01*
D12*
X231648000Y-105355000D02*
X231648000Y-112955000D01*
X231648000Y-107315000D02*
X216408000Y-107315000D01*
X231648000Y-105355000D02*
X216408000Y-105355000D01*
X216408000Y-105355000D02*
X216408000Y-112955000D01*
X231648000Y-112955000D02*
X216408000Y-112955000D01*
X216662000Y-105355000D02*
X216662000Y-112955000D01*
X216662000Y-107315000D02*
X201422000Y-107315000D01*
X216662000Y-105355000D02*
X201422000Y-105355000D01*
X201422000Y-105355000D02*
X201422000Y-112955000D01*
X216662000Y-112955000D02*
X201422000Y-112955000D01*
X200080000Y-107696000D02*
X192480000Y-107696000D01*
X198120000Y-107696000D02*
X198120000Y-92456000D01*
X200080000Y-107696000D02*
X200080000Y-92456000D01*
X200080000Y-92456000D02*
X192480000Y-92456000D01*
X192480000Y-107696000D02*
X192480000Y-92456000D01*
X200080000Y-92710000D02*
X192480000Y-92710000D01*
X198120000Y-92710000D02*
X198120000Y-77470000D01*
X200080000Y-92710000D02*
X200080000Y-77470000D01*
X200080000Y-77470000D02*
X192480000Y-77470000D01*
X192480000Y-92710000D02*
X192480000Y-77470000D01*
X201422000Y-79430000D02*
X201422000Y-71830000D01*
X201422000Y-77470000D02*
X216662000Y-77470000D01*
X201422000Y-79430000D02*
X216662000Y-79430000D01*
X216662000Y-79430000D02*
X216662000Y-71830000D01*
X201422000Y-71830000D02*
X216662000Y-71830000D01*
X216408000Y-79430000D02*
X216408000Y-71830000D01*
X216408000Y-77470000D02*
X231648000Y-77470000D01*
X216408000Y-79430000D02*
X231648000Y-79430000D01*
X231648000Y-79430000D02*
X231648000Y-71830000D01*
X216408000Y-71830000D02*
X231648000Y-71830000D01*
X217170000Y-84201000D02*
X217170000Y-100711000D01*
X236220000Y-84201000D02*
X217170000Y-84201000D01*
X236220000Y-100711000D02*
X236220000Y-84201000D01*
X217170000Y-100711000D02*
X236220000Y-100711000D01*
X211915000Y-95165000D02*
X212026500Y-95165000D01*
X215963500Y-95165000D02*
X216075000Y-95165000D01*
X216075000Y-99145000D02*
X216075000Y-95165000D01*
X215963500Y-99145000D02*
X216075000Y-99145000D01*
X211915000Y-99695000D02*
X211915000Y-95165000D01*
D13*
X211694010Y-99441000D02*
G75*
G03*
X211694010Y-99441000I-254000J0D01*
G01*
X211582000Y-99441000D02*
G75*
G03*
X211582000Y-99441000I-141990J0D01*
G01*
X211503510Y-99441000D02*
G75*
G03*
X211503510Y-99441000I-63500J0D01*
G01*
D12*
X211836000Y-100750000D02*
X211836000Y-102450000D01*
X211836000Y-102450000D02*
X214410000Y-102450000D01*
X211836000Y-100750000D02*
X214410000Y-100750000D01*
D14*
D12*
X223694666Y-113498380D02*
X223694666Y-114212666D01*
X223647047Y-114355523D01*
X223551809Y-114450761D01*
X223408952Y-114498380D01*
X223313714Y-114498380D01*
X224075619Y-113498380D02*
X224742285Y-113498380D01*
X224313714Y-114498380D01*
X208708666Y-113498380D02*
X208708666Y-114212666D01*
X208661047Y-114355523D01*
X208565809Y-114450761D01*
X208422952Y-114498380D01*
X208327714Y-114498380D01*
X209613428Y-113498380D02*
X209422952Y-113498380D01*
X209327714Y-113546000D01*
X209280095Y-113593619D01*
X209184857Y-113736476D01*
X209137238Y-113926952D01*
X209137238Y-114307904D01*
X209184857Y-114403142D01*
X209232476Y-114450761D01*
X209327714Y-114498380D01*
X209518190Y-114498380D01*
X209613428Y-114450761D01*
X209661047Y-114403142D01*
X209708666Y-114307904D01*
X209708666Y-114069809D01*
X209661047Y-113974571D01*
X209613428Y-113926952D01*
X209518190Y-113879333D01*
X209327714Y-113879333D01*
X209232476Y-113926952D01*
X209184857Y-113974571D01*
X209137238Y-114069809D01*
X193214666Y-108164380D02*
X193214666Y-108878666D01*
X193167047Y-109021523D01*
X193071809Y-109116761D01*
X192928952Y-109164380D01*
X192833714Y-109164380D01*
X194167047Y-108164380D02*
X193690857Y-108164380D01*
X193643238Y-108640571D01*
X193690857Y-108592952D01*
X193786095Y-108545333D01*
X194024190Y-108545333D01*
X194119428Y-108592952D01*
X194167047Y-108640571D01*
X194214666Y-108735809D01*
X194214666Y-108973904D01*
X194167047Y-109069142D01*
X194119428Y-109116761D01*
X194024190Y-109164380D01*
X193786095Y-109164380D01*
X193690857Y-109116761D01*
X193643238Y-109069142D01*
X193214666Y-75906380D02*
X193214666Y-76620666D01*
X193167047Y-76763523D01*
X193071809Y-76858761D01*
X192928952Y-76906380D01*
X192833714Y-76906380D01*
X194119428Y-76239714D02*
X194119428Y-76906380D01*
X193881333Y-75858761D02*
X193643238Y-76573047D01*
X194262285Y-76573047D01*
X208708666Y-70318380D02*
X208708666Y-71032666D01*
X208661047Y-71175523D01*
X208565809Y-71270761D01*
X208422952Y-71318380D01*
X208327714Y-71318380D01*
X209089619Y-70318380D02*
X209708666Y-70318380D01*
X209375333Y-70699333D01*
X209518190Y-70699333D01*
X209613428Y-70746952D01*
X209661047Y-70794571D01*
X209708666Y-70889809D01*
X209708666Y-71127904D01*
X209661047Y-71223142D01*
X209613428Y-71270761D01*
X209518190Y-71318380D01*
X209232476Y-71318380D01*
X209137238Y-71270761D01*
X209089619Y-71223142D01*
X223694666Y-70318380D02*
X223694666Y-71032666D01*
X223647047Y-71175523D01*
X223551809Y-71270761D01*
X223408952Y-71318380D01*
X223313714Y-71318380D01*
X224123238Y-70413619D02*
X224170857Y-70366000D01*
X224266095Y-70318380D01*
X224504190Y-70318380D01*
X224599428Y-70366000D01*
X224647047Y-70413619D01*
X224694666Y-70508857D01*
X224694666Y-70604095D01*
X224647047Y-70746952D01*
X224075619Y-71318380D01*
X224694666Y-71318380D01*
X233092666Y-101306380D02*
X233092666Y-102020666D01*
X233045047Y-102163523D01*
X232949809Y-102258761D01*
X232806952Y-102306380D01*
X232711714Y-102306380D01*
X234092666Y-102306380D02*
X233521238Y-102306380D01*
X233806952Y-102306380D02*
X233806952Y-101306380D01*
X233711714Y-101449238D01*
X233616476Y-101544476D01*
X233521238Y-101592095D01*
X211272380Y-97893095D02*
X210272380Y-97893095D01*
X210272380Y-97655000D01*
X210320000Y-97512142D01*
X210415238Y-97416904D01*
X210510476Y-97369285D01*
X210700952Y-97321666D01*
X210843809Y-97321666D01*
X211034285Y-97369285D01*
X211129523Y-97416904D01*
X211224761Y-97512142D01*
X211272380Y-97655000D01*
X211272380Y-97893095D01*
X210605714Y-96464523D02*
X211272380Y-96464523D01*
X210224761Y-96702619D02*
X210939047Y-96940714D01*
X210939047Y-96321666D01*
X215161904Y-102052380D02*
X215161904Y-101052380D01*
X215400000Y-101052380D01*
X215542857Y-101100000D01*
X215638095Y-101195238D01*
X215685714Y-101290476D01*
X215733333Y-101480952D01*
X215733333Y-101623809D01*
X215685714Y-101814285D01*
X215638095Y-101909523D01*
X215542857Y-102004761D01*
X215400000Y-102052380D01*
X215161904Y-102052380D01*
X216114285Y-101147619D02*
X216161904Y-101100000D01*
X216257142Y-101052380D01*
X216495238Y-101052380D01*
X216590476Y-101100000D01*
X216638095Y-101147619D01*
X216685714Y-101242857D01*
X216685714Y-101338095D01*
X216638095Y-101480952D01*
X216066666Y-102052380D01*
X216685714Y-102052380D01*
%LPC*%
D15*
X236220000Y-111760000D03*
X196850000Y-111760000D03*
X236220000Y-73660000D03*
X196850000Y-73660000D03*
D16*
X205105000Y-83185000D03*
X201295000Y-79375000D03*
X218440000Y-100965000D03*
X216535000Y-104775000D03*
X203835000Y-104140000D03*
X201295000Y-94996000D03*
X229870000Y-80645000D03*
X213995000Y-80645000D03*
X208026000Y-86106000D03*
D17*
X218948000Y-109855000D03*
D18*
X229108000Y-109855000D03*
X224028000Y-109855000D03*
D17*
X203962000Y-109855000D03*
D18*
X214122000Y-109855000D03*
X209042000Y-109855000D03*
D17*
X195580000Y-94996000D03*
D18*
X195580000Y-105156000D03*
X195580000Y-100076000D03*
D17*
X195580000Y-80010000D03*
D18*
X195580000Y-90170000D03*
X195580000Y-85090000D03*
D17*
X214122000Y-74930000D03*
D18*
X203962000Y-74930000D03*
X209042000Y-74930000D03*
D17*
X229108000Y-74930000D03*
D18*
X218948000Y-74930000D03*
X224028000Y-74930000D03*
D19*
X221615000Y-94360000D03*
X219075000Y-88010000D03*
D20*
X227965000Y-98172000D03*
D19*
X221615000Y-89280000D03*
X219075000Y-95630000D03*
X221615000Y-91820000D03*
X219075000Y-93090000D03*
X219075000Y-90550000D03*
X221615000Y-96900000D03*
D20*
X227965000Y-86740000D03*
D21*
X213995000Y-98882200D03*
X215265000Y-98882200D03*
X212725000Y-98882200D03*
X215265000Y-95427800D03*
X213995000Y-95427800D03*
X212725000Y-95427800D03*
D22*
X214085000Y-101600000D03*
X212635000Y-101600000D03*
M02*
