G04 #@! TF.GenerationSoftware,KiCad,Pcbnew,(5.1.6)-1*
G04 #@! TF.CreationDate,2023-04-30T23:16:11+02:00*
G04 #@! TF.ProjectId,hub-1-wire,6875622d-312d-4776-9972-652e6b696361,rev?*
G04 #@! TF.SameCoordinates,Original*
G04 #@! TF.FileFunction,Copper,L2,Bot*
G04 #@! TF.FilePolarity,Positive*
%FSLAX46Y46*%
G04 Gerber Fmt 4.6, Leading zero omitted, Abs format (unit mm)*
G04 Created by KiCad (PCBNEW (5.1.6)-1) date 2023-04-30 23:16:11*
%MOMM*%
%LPD*%
G01*
G04 APERTURE LIST*
G04 #@! TA.AperFunction,SMDPad,CuDef*
%ADD10R,1.000000X1.000000*%
G04 #@! TD*
G04 #@! TA.AperFunction,ComponentPad*
%ADD11C,6.000000*%
G04 #@! TD*
G04 #@! TA.AperFunction,ComponentPad*
%ADD12C,0.800000*%
G04 #@! TD*
G04 #@! TA.AperFunction,SMDPad,CuDef*
%ADD13C,0.100000*%
G04 #@! TD*
G04 #@! TA.AperFunction,SMDPad,CuDef*
%ADD14R,0.800000X0.800000*%
G04 #@! TD*
G04 #@! TA.AperFunction,ComponentPad*
%ADD15R,3.500000X3.500000*%
G04 #@! TD*
G04 #@! TA.AperFunction,ComponentPad*
%ADD16C,3.500000*%
G04 #@! TD*
G04 #@! TA.AperFunction,ComponentPad*
%ADD17C,1.500000*%
G04 #@! TD*
G04 #@! TA.AperFunction,SMDPad,CuDef*
%ADD18R,0.900000X0.900000*%
G04 #@! TD*
G04 #@! TA.AperFunction,Conductor*
%ADD19C,1.000000*%
G04 #@! TD*
G04 #@! TA.AperFunction,Conductor*
%ADD20C,0.500000*%
G04 #@! TD*
G04 APERTURE END LIST*
D10*
X214884000Y-85922000D03*
X213934000Y-88122000D03*
X215834000Y-88122000D03*
D11*
X236220000Y-111760000D03*
X196850000Y-111760000D03*
X236220000Y-73660000D03*
X196850000Y-73660000D03*
D12*
X205105000Y-83185000D03*
X201295000Y-79375000D03*
X218440000Y-100965000D03*
X216535000Y-104775000D03*
X203835000Y-104140000D03*
X201295000Y-94996000D03*
X229870000Y-80645000D03*
X213995000Y-80645000D03*
X208026000Y-86106000D03*
G04 #@! TA.AperFunction,SMDPad,CuDef*
D13*
G36*
X213756000Y-89524000D02*
G01*
X213756000Y-91324000D01*
X212456000Y-91324000D01*
X212456000Y-89524000D01*
X213756000Y-89524000D01*
G37*
G04 #@! TD.AperFunction*
G04 #@! TA.AperFunction,SMDPad,CuDef*
G36*
X216296000Y-89524000D02*
G01*
X216296000Y-91324000D01*
X214996000Y-91324000D01*
X214996000Y-89524000D01*
X216296000Y-89524000D01*
G37*
G04 #@! TD.AperFunction*
G04 #@! TA.AperFunction,SMDPad,CuDef*
G36*
X224424000Y-93588000D02*
G01*
X224424000Y-95388000D01*
X223124000Y-95388000D01*
X223124000Y-93588000D01*
X224424000Y-93588000D01*
G37*
G04 #@! TD.AperFunction*
G04 #@! TA.AperFunction,SMDPad,CuDef*
G36*
X226964000Y-93588000D02*
G01*
X226964000Y-95388000D01*
X225664000Y-95388000D01*
X225664000Y-93588000D01*
X226964000Y-93588000D01*
G37*
G04 #@! TD.AperFunction*
D14*
X226314000Y-91948000D03*
X223774000Y-91948000D03*
G04 #@! TA.AperFunction,SMDPad,CuDef*
D13*
G36*
X221600000Y-106945000D02*
G01*
X221600000Y-105145000D01*
X222900000Y-105145000D01*
X222900000Y-106945000D01*
X221600000Y-106945000D01*
G37*
G04 #@! TD.AperFunction*
G04 #@! TA.AperFunction,SMDPad,CuDef*
G36*
X219060000Y-106945000D02*
G01*
X219060000Y-105145000D01*
X220360000Y-105145000D01*
X220360000Y-106945000D01*
X219060000Y-106945000D01*
G37*
G04 #@! TD.AperFunction*
G04 #@! TA.AperFunction,SMDPad,CuDef*
G36*
X212105000Y-77840000D02*
G01*
X212105000Y-79640000D01*
X210805000Y-79640000D01*
X210805000Y-77840000D01*
X212105000Y-77840000D01*
G37*
G04 #@! TD.AperFunction*
G04 #@! TA.AperFunction,SMDPad,CuDef*
G36*
X214645000Y-77840000D02*
G01*
X214645000Y-79640000D01*
X213345000Y-79640000D01*
X213345000Y-77840000D01*
X214645000Y-77840000D01*
G37*
G04 #@! TD.AperFunction*
G04 #@! TA.AperFunction,SMDPad,CuDef*
G36*
X205725000Y-106945000D02*
G01*
X205725000Y-105145000D01*
X207025000Y-105145000D01*
X207025000Y-106945000D01*
X205725000Y-106945000D01*
G37*
G04 #@! TD.AperFunction*
G04 #@! TA.AperFunction,SMDPad,CuDef*
G36*
X203185000Y-106945000D02*
G01*
X203185000Y-105145000D01*
X204485000Y-105145000D01*
X204485000Y-106945000D01*
X203185000Y-106945000D01*
G37*
G04 #@! TD.AperFunction*
G04 #@! TA.AperFunction,SMDPad,CuDef*
G36*
X198490000Y-81011000D02*
G01*
X200290000Y-81011000D01*
X200290000Y-82311000D01*
X198490000Y-82311000D01*
X198490000Y-81011000D01*
G37*
G04 #@! TD.AperFunction*
G04 #@! TA.AperFunction,SMDPad,CuDef*
G36*
X198490000Y-78471000D02*
G01*
X200290000Y-78471000D01*
X200290000Y-79771000D01*
X198490000Y-79771000D01*
X198490000Y-78471000D01*
G37*
G04 #@! TD.AperFunction*
G04 #@! TA.AperFunction,SMDPad,CuDef*
G36*
X198490000Y-96886000D02*
G01*
X200290000Y-96886000D01*
X200290000Y-98186000D01*
X198490000Y-98186000D01*
X198490000Y-96886000D01*
G37*
G04 #@! TD.AperFunction*
G04 #@! TA.AperFunction,SMDPad,CuDef*
G36*
X198490000Y-94346000D02*
G01*
X200290000Y-94346000D01*
X200290000Y-95646000D01*
X198490000Y-95646000D01*
X198490000Y-94346000D01*
G37*
G04 #@! TD.AperFunction*
D15*
X218948000Y-109855000D03*
D16*
X229108000Y-109855000D03*
X224028000Y-109855000D03*
D15*
X203962000Y-109855000D03*
D16*
X214122000Y-109855000D03*
X209042000Y-109855000D03*
D15*
X195580000Y-94996000D03*
D16*
X195580000Y-105156000D03*
X195580000Y-100076000D03*
D15*
X195580000Y-80010000D03*
D16*
X195580000Y-90170000D03*
X195580000Y-85090000D03*
D15*
X214122000Y-74930000D03*
D16*
X203962000Y-74930000D03*
X209042000Y-74930000D03*
D15*
X229108000Y-74930000D03*
D16*
X218948000Y-74930000D03*
X224028000Y-74930000D03*
D17*
X221615000Y-94360000D03*
X219075000Y-88010000D03*
X221615000Y-89280000D03*
X219075000Y-95630000D03*
X221615000Y-91820000D03*
X219075000Y-93090000D03*
X219075000Y-90550000D03*
X221615000Y-96900000D03*
D18*
X211582000Y-87593000D03*
X211582000Y-86143000D03*
G04 #@! TA.AperFunction,SMDPad,CuDef*
D13*
G36*
X227980000Y-77840000D02*
G01*
X227980000Y-79640000D01*
X226680000Y-79640000D01*
X226680000Y-77840000D01*
X227980000Y-77840000D01*
G37*
G04 #@! TD.AperFunction*
G04 #@! TA.AperFunction,SMDPad,CuDef*
G36*
X230520000Y-77840000D02*
G01*
X230520000Y-79640000D01*
X229220000Y-79640000D01*
X229220000Y-77840000D01*
X230520000Y-77840000D01*
G37*
G04 #@! TD.AperFunction*
D19*
X229870000Y-106045000D02*
X224790000Y-100965000D01*
X224790000Y-100965000D02*
X225425000Y-101600000D01*
X229870000Y-108585000D02*
X229870000Y-106045000D01*
X228600000Y-109855000D02*
X229870000Y-108585000D01*
X227330000Y-78740000D02*
X219710000Y-78740000D01*
X211455000Y-78740000D02*
X211455000Y-82550000D01*
X211582000Y-87593000D02*
X211582000Y-90297000D01*
X211582000Y-90297000D02*
X211709000Y-90424000D01*
X213106000Y-90424000D02*
X211709000Y-90424000D01*
X195580000Y-105156000D02*
X198120000Y-105156000D01*
X203200000Y-97790000D02*
X203200000Y-90805000D01*
X203327000Y-90297000D02*
X203200000Y-90170000D01*
X211582000Y-90297000D02*
X203327000Y-90297000D01*
X203200000Y-90805000D02*
X203200000Y-90170000D01*
X203200000Y-90170000D02*
X203200000Y-89535000D01*
D20*
X220781003Y-90619999D02*
X219626992Y-91774010D01*
X223774000Y-91948000D02*
X222445999Y-90619999D01*
X222445999Y-90619999D02*
X220781003Y-90619999D01*
D19*
X208915000Y-82550000D02*
X208280000Y-82550000D01*
X211455000Y-82550000D02*
X208915000Y-82550000D01*
X203200000Y-87630000D02*
X203200000Y-89535000D01*
X208280000Y-82550000D02*
X204787500Y-86042500D01*
X204787500Y-86042500D02*
X203200000Y-87630000D01*
X203835000Y-77470000D02*
X208915000Y-82550000D01*
X203835000Y-74930000D02*
X203835000Y-77470000D01*
X213995000Y-106045000D02*
X213995000Y-109855000D01*
X204152500Y-98742500D02*
X203200000Y-97790000D01*
X203200000Y-100330000D02*
X204470000Y-99060000D01*
X205105000Y-99695000D02*
X204470000Y-99060000D01*
X204470000Y-99060000D02*
X204152500Y-98742500D01*
X205105000Y-99695000D02*
X206375000Y-100965000D01*
X206375000Y-106045000D02*
X206375000Y-100965000D01*
X213995000Y-106045000D02*
X213995000Y-100965000D01*
X206375000Y-100965000D02*
X222250000Y-100965000D01*
X222250000Y-106045000D02*
X222250000Y-100965000D01*
X222250000Y-100965000D02*
X224790000Y-100965000D01*
X217805000Y-82550000D02*
X211455000Y-82550000D01*
X219075000Y-81280000D02*
X217805000Y-82550000D01*
X219075000Y-78740000D02*
X219710000Y-78740000D01*
X219075000Y-78740000D02*
X219075000Y-81280000D01*
X219075000Y-74930000D02*
X219075000Y-78740000D01*
X198374000Y-105156000D02*
X199136000Y-104394000D01*
X195580000Y-105156000D02*
X198374000Y-105156000D01*
X199136000Y-104394000D02*
X203200000Y-100330000D01*
X202946000Y-97536000D02*
X203200000Y-97790000D01*
X199390000Y-97536000D02*
X202946000Y-97536000D01*
X195580000Y-90170000D02*
X203200000Y-90170000D01*
X199390000Y-83820000D02*
X203200000Y-87630000D01*
X199390000Y-81661000D02*
X199390000Y-83820000D01*
D20*
X213106000Y-90424000D02*
X213106000Y-91694000D01*
X213106000Y-91694000D02*
X213868000Y-92456000D01*
X216916000Y-92456000D02*
X217597990Y-91774010D01*
X213868000Y-92456000D02*
X216916000Y-92456000D01*
X219626992Y-91774010D02*
X217597990Y-91774010D01*
D19*
X229870000Y-73660000D02*
X229870000Y-74930000D01*
X219710000Y-111125000D02*
X219710000Y-109855000D01*
X229870000Y-78740000D02*
X229870000Y-74930000D01*
X213995000Y-74930000D02*
X213995000Y-78740000D01*
X229870000Y-78740000D02*
X229870000Y-80645000D01*
X213995000Y-78740000D02*
X213995000Y-80645000D01*
X195580000Y-94996000D02*
X200025000Y-94996000D01*
X195580000Y-79121000D02*
X199390000Y-79121000D01*
X219710000Y-106045000D02*
X219710000Y-109855000D01*
X203835000Y-106045000D02*
X203835000Y-109855000D01*
X215834000Y-90236000D02*
X215646000Y-90424000D01*
X211582000Y-86143000D02*
X212635000Y-86143000D01*
X213934000Y-87442000D02*
X213934000Y-88122000D01*
X212635000Y-86143000D02*
X213934000Y-87442000D01*
X215834000Y-88966000D02*
X215834000Y-90236000D01*
X215834000Y-88122000D02*
X215834000Y-88966000D01*
D20*
X213934000Y-88590000D02*
X214310000Y-88966000D01*
X213934000Y-88122000D02*
X213934000Y-88590000D01*
X215834000Y-88966000D02*
X214310000Y-88966000D01*
D19*
X211582000Y-86143000D02*
X208063000Y-86143000D01*
X203835000Y-106045000D02*
X203835000Y-104140000D01*
X217805000Y-106045000D02*
X216535000Y-104775000D01*
X219710000Y-106045000D02*
X217805000Y-106045000D01*
X205105000Y-83185000D02*
X201295000Y-79375000D01*
X195580000Y-94996000D02*
X199390000Y-94996000D01*
X199390000Y-94996000D02*
X201295000Y-94996000D01*
X201041000Y-79121000D02*
X201295000Y-79375000D01*
X199390000Y-79121000D02*
X201041000Y-79121000D01*
X226314000Y-94488000D02*
X226314000Y-91948000D01*
X226314000Y-91948000D02*
X226314000Y-89916000D01*
X222320000Y-85922000D02*
X214884000Y-85922000D01*
X226314000Y-89916000D02*
X222320000Y-85922000D01*
X223646000Y-94360000D02*
X223774000Y-94488000D01*
X221615000Y-94360000D02*
X223646000Y-94360000D01*
M02*
