%FSLAX45Y45*%
G04 Gerber Fmt 4.5, Leading zero omitted, Abs format (unit mm)*
G04 Created by KiCad (PCBNEW (5.1.6)-1) date 2023-04-30 23:17:15*
%MOMM*%
%LPD*%
G01*
G04 APERTURE LIST*
%TA.AperFunction,Profile*%
%ADD10C,0.150000*%
%TD*%
%ADD11C,0.200000*%
%ADD12C,0.300000*%
G04 APERTURE END LIST*
D10*
X24066500Y-10160000D02*
X24066500Y-11557000D01*
X23495000Y-10160000D02*
X24066500Y-10160000D01*
X23495000Y-8318500D02*
X23495000Y-10160000D01*
X23495000Y-8318500D02*
X24066500Y-8318500D01*
X19240500Y-11557000D02*
X24066500Y-11557000D01*
X19240500Y-11557000D02*
X19240500Y-6985000D01*
X24066500Y-6985000D02*
X24066500Y-8318500D01*
X19240500Y-6985000D02*
X24066500Y-6985000D01*
D11*
X22631500Y-8509000D02*
X22961500Y-8839000D01*
X22961500Y-8509000D02*
X22631500Y-8839000D01*
X22631500Y-9652200D02*
X22961500Y-9982200D01*
X22961500Y-9652200D02*
X22631500Y-9982200D01*
D12*
X19519428Y-12030214D02*
X19519428Y-11730214D01*
X19590857Y-11730214D01*
X19633714Y-11744500D01*
X19662286Y-11773071D01*
X19676571Y-11801643D01*
X19690857Y-11858786D01*
X19690857Y-11901643D01*
X19676571Y-11958786D01*
X19662286Y-11987357D01*
X19633714Y-12015929D01*
X19590857Y-12030214D01*
X19519428Y-12030214D01*
X19819428Y-12030214D02*
X19819428Y-11830214D01*
X19819428Y-11887357D02*
X19833714Y-11858786D01*
X19848000Y-11844500D01*
X19876571Y-11830214D01*
X19905143Y-11830214D01*
X20005143Y-12030214D02*
X20005143Y-11830214D01*
X20005143Y-11730214D02*
X19990857Y-11744500D01*
X20005143Y-11758786D01*
X20019428Y-11744500D01*
X20005143Y-11730214D01*
X20005143Y-11758786D01*
X20190857Y-12030214D02*
X20162286Y-12015929D01*
X20148000Y-11987357D01*
X20148000Y-11730214D01*
X20348000Y-12030214D02*
X20319428Y-12015929D01*
X20305143Y-11987357D01*
X20305143Y-11730214D01*
X20690857Y-12030214D02*
X20690857Y-11730214D01*
X20790857Y-11944500D01*
X20890857Y-11730214D01*
X20890857Y-12030214D01*
X21162286Y-12030214D02*
X21162286Y-11873071D01*
X21148000Y-11844500D01*
X21119428Y-11830214D01*
X21062286Y-11830214D01*
X21033714Y-11844500D01*
X21162286Y-12015929D02*
X21133714Y-12030214D01*
X21062286Y-12030214D01*
X21033714Y-12015929D01*
X21019428Y-11987357D01*
X21019428Y-11958786D01*
X21033714Y-11930214D01*
X21062286Y-11915929D01*
X21133714Y-11915929D01*
X21162286Y-11901643D01*
X21305143Y-11830214D02*
X21305143Y-12130214D01*
X21305143Y-11844500D02*
X21333714Y-11830214D01*
X21390857Y-11830214D01*
X21419428Y-11844500D01*
X21433714Y-11858786D01*
X21448000Y-11887357D01*
X21448000Y-11973071D01*
X21433714Y-12001643D01*
X21419428Y-12015929D01*
X21390857Y-12030214D01*
X21333714Y-12030214D01*
X21305143Y-12015929D01*
X21576571Y-12001643D02*
X21590857Y-12015929D01*
X21576571Y-12030214D01*
X21562286Y-12015929D01*
X21576571Y-12001643D01*
X21576571Y-12030214D01*
X21576571Y-11844500D02*
X21590857Y-11858786D01*
X21576571Y-11873071D01*
X21562286Y-11858786D01*
X21576571Y-11844500D01*
X21576571Y-11873071D01*
X18903000Y-12359500D02*
X19233000Y-12689500D01*
X19233000Y-12359500D02*
X18903000Y-12689500D01*
X19490857Y-12360214D02*
X19676571Y-12360214D01*
X19576571Y-12474500D01*
X19619428Y-12474500D01*
X19648000Y-12488786D01*
X19662286Y-12503071D01*
X19676571Y-12531643D01*
X19676571Y-12603071D01*
X19662286Y-12631643D01*
X19648000Y-12645929D01*
X19619428Y-12660214D01*
X19533714Y-12660214D01*
X19505143Y-12645929D01*
X19490857Y-12631643D01*
X19805143Y-12631643D02*
X19819428Y-12645929D01*
X19805143Y-12660214D01*
X19790857Y-12645929D01*
X19805143Y-12631643D01*
X19805143Y-12660214D01*
X19919428Y-12360214D02*
X20105143Y-12360214D01*
X20005143Y-12474500D01*
X20048000Y-12474500D01*
X20076571Y-12488786D01*
X20090857Y-12503071D01*
X20105143Y-12531643D01*
X20105143Y-12603071D01*
X20090857Y-12631643D01*
X20076571Y-12645929D01*
X20048000Y-12660214D01*
X19962286Y-12660214D01*
X19933714Y-12645929D01*
X19919428Y-12631643D01*
X20290857Y-12360214D02*
X20319428Y-12360214D01*
X20348000Y-12374500D01*
X20362286Y-12388786D01*
X20376571Y-12417357D01*
X20390857Y-12474500D01*
X20390857Y-12545929D01*
X20376571Y-12603071D01*
X20362286Y-12631643D01*
X20348000Y-12645929D01*
X20319428Y-12660214D01*
X20290857Y-12660214D01*
X20262286Y-12645929D01*
X20248000Y-12631643D01*
X20233714Y-12603071D01*
X20219428Y-12545929D01*
X20219428Y-12474500D01*
X20233714Y-12417357D01*
X20248000Y-12388786D01*
X20262286Y-12374500D01*
X20290857Y-12360214D01*
X20519428Y-12660214D02*
X20519428Y-12460214D01*
X20519428Y-12488786D02*
X20533714Y-12474500D01*
X20562286Y-12460214D01*
X20605143Y-12460214D01*
X20633714Y-12474500D01*
X20648000Y-12503071D01*
X20648000Y-12660214D01*
X20648000Y-12503071D02*
X20662286Y-12474500D01*
X20690857Y-12460214D01*
X20733714Y-12460214D01*
X20762286Y-12474500D01*
X20776571Y-12503071D01*
X20776571Y-12660214D01*
X20919428Y-12660214D02*
X20919428Y-12460214D01*
X20919428Y-12488786D02*
X20933714Y-12474500D01*
X20962286Y-12460214D01*
X21005143Y-12460214D01*
X21033714Y-12474500D01*
X21048000Y-12503071D01*
X21048000Y-12660214D01*
X21048000Y-12503071D02*
X21062286Y-12474500D01*
X21090857Y-12460214D01*
X21133714Y-12460214D01*
X21162286Y-12474500D01*
X21176571Y-12503071D01*
X21176571Y-12660214D01*
X21762286Y-12345929D02*
X21505143Y-12731643D01*
X22148000Y-12360214D02*
X22176571Y-12360214D01*
X22205143Y-12374500D01*
X22219428Y-12388786D01*
X22233714Y-12417357D01*
X22248000Y-12474500D01*
X22248000Y-12545929D01*
X22233714Y-12603071D01*
X22219428Y-12631643D01*
X22205143Y-12645929D01*
X22176571Y-12660214D01*
X22148000Y-12660214D01*
X22119428Y-12645929D01*
X22105143Y-12631643D01*
X22090857Y-12603071D01*
X22076571Y-12545929D01*
X22076571Y-12474500D01*
X22090857Y-12417357D01*
X22105143Y-12388786D01*
X22119428Y-12374500D01*
X22148000Y-12360214D01*
X22376571Y-12631643D02*
X22390857Y-12645929D01*
X22376571Y-12660214D01*
X22362286Y-12645929D01*
X22376571Y-12631643D01*
X22376571Y-12660214D01*
X22676571Y-12660214D02*
X22505143Y-12660214D01*
X22590857Y-12660214D02*
X22590857Y-12360214D01*
X22562286Y-12403071D01*
X22533714Y-12431643D01*
X22505143Y-12445929D01*
X22776571Y-12360214D02*
X22962286Y-12360214D01*
X22862286Y-12474500D01*
X22905143Y-12474500D01*
X22933714Y-12488786D01*
X22948000Y-12503071D01*
X22962286Y-12531643D01*
X22962286Y-12603071D01*
X22948000Y-12631643D01*
X22933714Y-12645929D01*
X22905143Y-12660214D01*
X22819428Y-12660214D01*
X22790857Y-12645929D01*
X22776571Y-12631643D01*
X23148000Y-12360214D02*
X23176571Y-12360214D01*
X23205143Y-12374500D01*
X23219428Y-12388786D01*
X23233714Y-12417357D01*
X23248000Y-12474500D01*
X23248000Y-12545929D01*
X23233714Y-12603071D01*
X23219428Y-12631643D01*
X23205143Y-12645929D01*
X23176571Y-12660214D01*
X23148000Y-12660214D01*
X23119428Y-12645929D01*
X23105143Y-12631643D01*
X23090857Y-12603071D01*
X23076571Y-12545929D01*
X23076571Y-12474500D01*
X23090857Y-12417357D01*
X23105143Y-12388786D01*
X23119428Y-12374500D01*
X23148000Y-12360214D01*
X23362286Y-12360214D02*
X23362286Y-12417357D01*
X23476571Y-12360214D02*
X23476571Y-12417357D01*
X23919428Y-12774500D02*
X23905143Y-12760214D01*
X23876571Y-12717357D01*
X23862286Y-12688786D01*
X23848000Y-12645929D01*
X23833714Y-12574500D01*
X23833714Y-12517357D01*
X23848000Y-12445929D01*
X23862286Y-12403071D01*
X23876571Y-12374500D01*
X23905143Y-12331643D01*
X23919428Y-12317357D01*
X24019428Y-12388786D02*
X24033714Y-12374500D01*
X24062286Y-12360214D01*
X24133714Y-12360214D01*
X24162286Y-12374500D01*
X24176571Y-12388786D01*
X24190857Y-12417357D01*
X24190857Y-12445929D01*
X24176571Y-12488786D01*
X24005143Y-12660214D01*
X24190857Y-12660214D01*
X24548000Y-12660214D02*
X24548000Y-12360214D01*
X24676571Y-12660214D02*
X24676571Y-12503071D01*
X24662286Y-12474500D01*
X24633714Y-12460214D01*
X24590857Y-12460214D01*
X24562286Y-12474500D01*
X24548000Y-12488786D01*
X24862286Y-12660214D02*
X24833714Y-12645929D01*
X24819428Y-12631643D01*
X24805143Y-12603071D01*
X24805143Y-12517357D01*
X24819428Y-12488786D01*
X24833714Y-12474500D01*
X24862286Y-12460214D01*
X24905143Y-12460214D01*
X24933714Y-12474500D01*
X24948000Y-12488786D01*
X24962286Y-12517357D01*
X24962286Y-12603071D01*
X24948000Y-12631643D01*
X24933714Y-12645929D01*
X24905143Y-12660214D01*
X24862286Y-12660214D01*
X25133714Y-12660214D02*
X25105143Y-12645929D01*
X25090857Y-12617357D01*
X25090857Y-12360214D01*
X25362286Y-12645929D02*
X25333714Y-12660214D01*
X25276571Y-12660214D01*
X25248000Y-12645929D01*
X25233714Y-12617357D01*
X25233714Y-12503071D01*
X25248000Y-12474500D01*
X25276571Y-12460214D01*
X25333714Y-12460214D01*
X25362286Y-12474500D01*
X25376571Y-12503071D01*
X25376571Y-12531643D01*
X25233714Y-12560214D01*
X25490857Y-12645929D02*
X25519428Y-12660214D01*
X25576571Y-12660214D01*
X25605143Y-12645929D01*
X25619428Y-12617357D01*
X25619428Y-12603071D01*
X25605143Y-12574500D01*
X25576571Y-12560214D01*
X25533714Y-12560214D01*
X25505143Y-12545929D01*
X25490857Y-12517357D01*
X25490857Y-12503071D01*
X25505143Y-12474500D01*
X25533714Y-12460214D01*
X25576571Y-12460214D01*
X25605143Y-12474500D01*
X25719428Y-12774500D02*
X25733714Y-12760214D01*
X25762286Y-12717357D01*
X25776571Y-12688786D01*
X25790857Y-12645929D01*
X25805143Y-12574500D01*
X25805143Y-12517357D01*
X25790857Y-12445929D01*
X25776571Y-12403071D01*
X25762286Y-12374500D01*
X25733714Y-12331643D01*
X25719428Y-12317357D01*
X26262286Y-12774500D02*
X26248000Y-12760214D01*
X26219428Y-12717357D01*
X26205143Y-12688786D01*
X26190857Y-12645929D01*
X26176571Y-12574500D01*
X26176571Y-12517357D01*
X26190857Y-12445929D01*
X26205143Y-12403071D01*
X26219428Y-12374500D01*
X26248000Y-12331643D01*
X26262286Y-12317357D01*
X26376571Y-12460214D02*
X26376571Y-12660214D01*
X26376571Y-12488786D02*
X26390857Y-12474500D01*
X26419428Y-12460214D01*
X26462286Y-12460214D01*
X26490857Y-12474500D01*
X26505143Y-12503071D01*
X26505143Y-12660214D01*
X26690857Y-12660214D02*
X26662286Y-12645929D01*
X26648000Y-12631643D01*
X26633714Y-12603071D01*
X26633714Y-12517357D01*
X26648000Y-12488786D01*
X26662286Y-12474500D01*
X26690857Y-12460214D01*
X26733714Y-12460214D01*
X26762286Y-12474500D01*
X26776571Y-12488786D01*
X26790857Y-12517357D01*
X26790857Y-12603071D01*
X26776571Y-12631643D01*
X26762286Y-12645929D01*
X26733714Y-12660214D01*
X26690857Y-12660214D01*
X26876571Y-12460214D02*
X26990857Y-12460214D01*
X26919428Y-12360214D02*
X26919428Y-12617357D01*
X26933714Y-12645929D01*
X26962286Y-12660214D01*
X26990857Y-12660214D01*
X27319428Y-12460214D02*
X27319428Y-12760214D01*
X27319428Y-12474500D02*
X27348000Y-12460214D01*
X27405143Y-12460214D01*
X27433714Y-12474500D01*
X27448000Y-12488786D01*
X27462286Y-12517357D01*
X27462286Y-12603071D01*
X27448000Y-12631643D01*
X27433714Y-12645929D01*
X27405143Y-12660214D01*
X27348000Y-12660214D01*
X27319428Y-12645929D01*
X27633714Y-12660214D02*
X27605143Y-12645929D01*
X27590857Y-12617357D01*
X27590857Y-12360214D01*
X27876571Y-12660214D02*
X27876571Y-12503071D01*
X27862286Y-12474500D01*
X27833714Y-12460214D01*
X27776571Y-12460214D01*
X27748000Y-12474500D01*
X27876571Y-12645929D02*
X27848000Y-12660214D01*
X27776571Y-12660214D01*
X27748000Y-12645929D01*
X27733714Y-12617357D01*
X27733714Y-12588786D01*
X27748000Y-12560214D01*
X27776571Y-12545929D01*
X27848000Y-12545929D01*
X27876571Y-12531643D01*
X27976571Y-12460214D02*
X28090857Y-12460214D01*
X28019428Y-12360214D02*
X28019428Y-12617357D01*
X28033714Y-12645929D01*
X28062286Y-12660214D01*
X28090857Y-12660214D01*
X28305143Y-12645929D02*
X28276571Y-12660214D01*
X28219428Y-12660214D01*
X28190857Y-12645929D01*
X28176571Y-12617357D01*
X28176571Y-12503071D01*
X28190857Y-12474500D01*
X28219428Y-12460214D01*
X28276571Y-12460214D01*
X28305143Y-12474500D01*
X28319428Y-12503071D01*
X28319428Y-12531643D01*
X28176571Y-12560214D01*
X28576571Y-12660214D02*
X28576571Y-12360214D01*
X28576571Y-12645929D02*
X28548000Y-12660214D01*
X28490857Y-12660214D01*
X28462286Y-12645929D01*
X28448000Y-12631643D01*
X28433714Y-12603071D01*
X28433714Y-12517357D01*
X28448000Y-12488786D01*
X28462286Y-12474500D01*
X28490857Y-12460214D01*
X28548000Y-12460214D01*
X28576571Y-12474500D01*
X28690857Y-12774500D02*
X28705143Y-12760214D01*
X28733714Y-12717357D01*
X28748000Y-12688786D01*
X28762286Y-12645929D01*
X28776571Y-12574500D01*
X28776571Y-12517357D01*
X28762286Y-12445929D01*
X28748000Y-12403071D01*
X28733714Y-12374500D01*
X28705143Y-12331643D01*
X28690857Y-12317357D01*
M02*
