M48
; DRILL file {KiCad (5.1.6)-1} date 04/30/23 23:17:14
; FORMAT={-:-/ absolute / metric / decimal}
; #@! TF.CreationDate,2023-04-30T23:17:14+02:00
; #@! TF.GenerationSoftware,Kicad,Pcbnew,(5.1.6)-1
; #@! TF.FileFunction,Plated,1,2,PTH
FMAT,2
METRIC
T1C0.400
T2C0.800
T3C1.200
T4C3.000
%
G90
G05
T1
X218.44Y-100.965
X201.295Y-79.375
X205.105Y-83.185
X208.026Y-86.106
X213.995Y-80.645
X229.87Y-80.645
X203.835Y-104.14
X201.295Y-94.996
X216.535Y-104.775
T2
X219.075Y-88.01
X219.075Y-90.55
X219.075Y-93.09
X219.075Y-95.63
X221.615Y-89.28
X221.615Y-91.82
X221.615Y-94.36
X221.615Y-96.9
T3
X203.962Y-74.93
X209.042Y-74.93
X214.122Y-74.93
X195.58Y-80.01
X195.58Y-85.09
X195.58Y-90.17
X195.58Y-94.996
X195.58Y-100.076
X195.58Y-105.156
X203.962Y-109.855
X209.042Y-109.855
X214.122Y-109.855
X218.948Y-109.855
X224.028Y-109.855
X229.108Y-109.855
X218.948Y-74.93
X224.028Y-74.93
X229.108Y-74.93
T4
X236.22Y-73.66
X196.85Y-73.66
X236.22Y-111.76
X196.85Y-111.76
T0
M30
