G04 #@! TF.GenerationSoftware,KiCad,Pcbnew,7.0.9*
G04 #@! TF.CreationDate,2023-12-23T18:19:17+01:00*
G04 #@! TF.ProjectId,testing-board,74657374-696e-4672-9d62-6f6172642e6b,v1.0*
G04 #@! TF.SameCoordinates,Original*
G04 #@! TF.FileFunction,Legend,Top*
G04 #@! TF.FilePolarity,Positive*
%FSLAX46Y46*%
G04 Gerber Fmt 4.6, Leading zero omitted, Abs format (unit mm)*
G04 Created by KiCad (PCBNEW 7.0.9) date 2023-12-23 18:19:17*
%MOMM*%
%LPD*%
G01*
G04 APERTURE LIST*
G04 Aperture macros list*
%AMRoundRect*
0 Rectangle with rounded corners*
0 $1 Rounding radius*
0 $2 $3 $4 $5 $6 $7 $8 $9 X,Y pos of 4 corners*
0 Add a 4 corners polygon primitive as box body*
4,1,4,$2,$3,$4,$5,$6,$7,$8,$9,$2,$3,0*
0 Add four circle primitives for the rounded corners*
1,1,$1+$1,$2,$3*
1,1,$1+$1,$4,$5*
1,1,$1+$1,$6,$7*
1,1,$1+$1,$8,$9*
0 Add four rect primitives between the rounded corners*
20,1,$1+$1,$2,$3,$4,$5,0*
20,1,$1+$1,$4,$5,$6,$7,0*
20,1,$1+$1,$6,$7,$8,$9,0*
20,1,$1+$1,$8,$9,$2,$3,0*%
%AMFreePoly0*
4,1,13,0.685355,0.935355,0.700000,0.900000,0.700000,-0.900000,0.685355,-0.935355,0.650000,-0.950000,-0.650000,-0.950000,-0.685355,-0.935355,-0.700000,-0.900000,-0.700000,0.900000,-0.685355,0.935355,-0.650000,0.950000,0.650000,0.950000,0.685355,0.935355,0.685355,0.935355,$1*%
G04 Aperture macros list end*
%ADD10C,0.160000*%
%ADD11C,0.250000*%
%ADD12C,0.625000*%
%ADD13C,0.150000*%
%ADD14C,0.120000*%
%ADD15C,3.300000*%
%ADD16RoundRect,0.050000X1.050000X-1.050000X1.050000X1.050000X-1.050000X1.050000X-1.050000X-1.050000X0*%
%ADD17O,2.200000X2.200000*%
%ADD18C,5.100000*%
%ADD19RoundRect,0.050000X-0.175000X0.750000X-0.175000X-0.750000X0.175000X-0.750000X0.175000X0.750000X0*%
%ADD20FreePoly0,270.000000*%
%ADD21FreePoly0,90.000000*%
%ADD22RoundRect,0.050000X0.625000X1.500000X-0.625000X1.500000X-0.625000X-1.500000X0.625000X-1.500000X0*%
%ADD23RoundRect,0.050000X-0.625000X-1.500000X0.625000X-1.500000X0.625000X1.500000X-0.625000X1.500000X0*%
%ADD24RoundRect,0.050000X1.750000X1.750000X-1.750000X1.750000X-1.750000X-1.750000X1.750000X-1.750000X0*%
%ADD25C,3.600000*%
%ADD26C,3.400000*%
%ADD27C,1.600000*%
%ADD28FreePoly0,0.000000*%
%ADD29C,0.900000*%
G04 APERTURE END LIST*
D10*
X129508952Y-87830299D02*
X129508952Y-86830299D01*
X129937523Y-86925537D02*
X129985142Y-86877918D01*
X129985142Y-86877918D02*
X130080380Y-86830299D01*
X130080380Y-86830299D02*
X130318475Y-86830299D01*
X130318475Y-86830299D02*
X130413713Y-86877918D01*
X130413713Y-86877918D02*
X130461332Y-86925537D01*
X130461332Y-86925537D02*
X130508951Y-87020775D01*
X130508951Y-87020775D02*
X130508951Y-87116013D01*
X130508951Y-87116013D02*
X130461332Y-87258870D01*
X130461332Y-87258870D02*
X129889904Y-87830299D01*
X129889904Y-87830299D02*
X130508951Y-87830299D01*
X131508951Y-87735060D02*
X131461332Y-87782680D01*
X131461332Y-87782680D02*
X131318475Y-87830299D01*
X131318475Y-87830299D02*
X131223237Y-87830299D01*
X131223237Y-87830299D02*
X131080380Y-87782680D01*
X131080380Y-87782680D02*
X130985142Y-87687441D01*
X130985142Y-87687441D02*
X130937523Y-87592203D01*
X130937523Y-87592203D02*
X130889904Y-87401727D01*
X130889904Y-87401727D02*
X130889904Y-87258870D01*
X130889904Y-87258870D02*
X130937523Y-87068394D01*
X130937523Y-87068394D02*
X130985142Y-86973156D01*
X130985142Y-86973156D02*
X131080380Y-86877918D01*
X131080380Y-86877918D02*
X131223237Y-86830299D01*
X131223237Y-86830299D02*
X131318475Y-86830299D01*
X131318475Y-86830299D02*
X131461332Y-86877918D01*
X131461332Y-86877918D02*
X131508951Y-86925537D01*
X132556571Y-87163632D02*
X132937523Y-87163632D01*
X132699428Y-86830299D02*
X132699428Y-87687441D01*
X132699428Y-87687441D02*
X132747047Y-87782680D01*
X132747047Y-87782680D02*
X132842285Y-87830299D01*
X132842285Y-87830299D02*
X132937523Y-87830299D01*
X133651809Y-87782680D02*
X133556571Y-87830299D01*
X133556571Y-87830299D02*
X133366095Y-87830299D01*
X133366095Y-87830299D02*
X133270857Y-87782680D01*
X133270857Y-87782680D02*
X133223238Y-87687441D01*
X133223238Y-87687441D02*
X133223238Y-87306489D01*
X133223238Y-87306489D02*
X133270857Y-87211251D01*
X133270857Y-87211251D02*
X133366095Y-87163632D01*
X133366095Y-87163632D02*
X133556571Y-87163632D01*
X133556571Y-87163632D02*
X133651809Y-87211251D01*
X133651809Y-87211251D02*
X133699428Y-87306489D01*
X133699428Y-87306489D02*
X133699428Y-87401727D01*
X133699428Y-87401727D02*
X133223238Y-87496965D01*
X134128000Y-87830299D02*
X134128000Y-87163632D01*
X134128000Y-87354108D02*
X134175619Y-87258870D01*
X134175619Y-87258870D02*
X134223238Y-87211251D01*
X134223238Y-87211251D02*
X134318476Y-87163632D01*
X134318476Y-87163632D02*
X134413714Y-87163632D01*
X134747048Y-87830299D02*
X134747048Y-87163632D01*
X134747048Y-87258870D02*
X134794667Y-87211251D01*
X134794667Y-87211251D02*
X134889905Y-87163632D01*
X134889905Y-87163632D02*
X135032762Y-87163632D01*
X135032762Y-87163632D02*
X135128000Y-87211251D01*
X135128000Y-87211251D02*
X135175619Y-87306489D01*
X135175619Y-87306489D02*
X135175619Y-87830299D01*
X135175619Y-87306489D02*
X135223238Y-87211251D01*
X135223238Y-87211251D02*
X135318476Y-87163632D01*
X135318476Y-87163632D02*
X135461333Y-87163632D01*
X135461333Y-87163632D02*
X135556572Y-87211251D01*
X135556572Y-87211251D02*
X135604191Y-87306489D01*
X135604191Y-87306489D02*
X135604191Y-87830299D01*
X136080381Y-87830299D02*
X136080381Y-87163632D01*
X136080381Y-86830299D02*
X136032762Y-86877918D01*
X136032762Y-86877918D02*
X136080381Y-86925537D01*
X136080381Y-86925537D02*
X136128000Y-86877918D01*
X136128000Y-86877918D02*
X136080381Y-86830299D01*
X136080381Y-86830299D02*
X136080381Y-86925537D01*
X136556571Y-87163632D02*
X136556571Y-87830299D01*
X136556571Y-87258870D02*
X136604190Y-87211251D01*
X136604190Y-87211251D02*
X136699428Y-87163632D01*
X136699428Y-87163632D02*
X136842285Y-87163632D01*
X136842285Y-87163632D02*
X136937523Y-87211251D01*
X136937523Y-87211251D02*
X136985142Y-87306489D01*
X136985142Y-87306489D02*
X136985142Y-87830299D01*
X137889904Y-87830299D02*
X137889904Y-87306489D01*
X137889904Y-87306489D02*
X137842285Y-87211251D01*
X137842285Y-87211251D02*
X137747047Y-87163632D01*
X137747047Y-87163632D02*
X137556571Y-87163632D01*
X137556571Y-87163632D02*
X137461333Y-87211251D01*
X137889904Y-87782680D02*
X137794666Y-87830299D01*
X137794666Y-87830299D02*
X137556571Y-87830299D01*
X137556571Y-87830299D02*
X137461333Y-87782680D01*
X137461333Y-87782680D02*
X137413714Y-87687441D01*
X137413714Y-87687441D02*
X137413714Y-87592203D01*
X137413714Y-87592203D02*
X137461333Y-87496965D01*
X137461333Y-87496965D02*
X137556571Y-87449346D01*
X137556571Y-87449346D02*
X137794666Y-87449346D01*
X137794666Y-87449346D02*
X137889904Y-87401727D01*
X138223238Y-87163632D02*
X138604190Y-87163632D01*
X138366095Y-86830299D02*
X138366095Y-87687441D01*
X138366095Y-87687441D02*
X138413714Y-87782680D01*
X138413714Y-87782680D02*
X138508952Y-87830299D01*
X138508952Y-87830299D02*
X138604190Y-87830299D01*
X138937524Y-87830299D02*
X138937524Y-87163632D01*
X138937524Y-86830299D02*
X138889905Y-86877918D01*
X138889905Y-86877918D02*
X138937524Y-86925537D01*
X138937524Y-86925537D02*
X138985143Y-86877918D01*
X138985143Y-86877918D02*
X138937524Y-86830299D01*
X138937524Y-86830299D02*
X138937524Y-86925537D01*
X139556571Y-87830299D02*
X139461333Y-87782680D01*
X139461333Y-87782680D02*
X139413714Y-87735060D01*
X139413714Y-87735060D02*
X139366095Y-87639822D01*
X139366095Y-87639822D02*
X139366095Y-87354108D01*
X139366095Y-87354108D02*
X139413714Y-87258870D01*
X139413714Y-87258870D02*
X139461333Y-87211251D01*
X139461333Y-87211251D02*
X139556571Y-87163632D01*
X139556571Y-87163632D02*
X139699428Y-87163632D01*
X139699428Y-87163632D02*
X139794666Y-87211251D01*
X139794666Y-87211251D02*
X139842285Y-87258870D01*
X139842285Y-87258870D02*
X139889904Y-87354108D01*
X139889904Y-87354108D02*
X139889904Y-87639822D01*
X139889904Y-87639822D02*
X139842285Y-87735060D01*
X139842285Y-87735060D02*
X139794666Y-87782680D01*
X139794666Y-87782680D02*
X139699428Y-87830299D01*
X139699428Y-87830299D02*
X139556571Y-87830299D01*
X140318476Y-87163632D02*
X140318476Y-87830299D01*
X140318476Y-87258870D02*
X140366095Y-87211251D01*
X140366095Y-87211251D02*
X140461333Y-87163632D01*
X140461333Y-87163632D02*
X140604190Y-87163632D01*
X140604190Y-87163632D02*
X140699428Y-87211251D01*
X140699428Y-87211251D02*
X140747047Y-87306489D01*
X140747047Y-87306489D02*
X140747047Y-87830299D01*
X132667524Y-73304680D02*
X132810381Y-73352299D01*
X132810381Y-73352299D02*
X133048476Y-73352299D01*
X133048476Y-73352299D02*
X133143714Y-73304680D01*
X133143714Y-73304680D02*
X133191333Y-73257060D01*
X133191333Y-73257060D02*
X133238952Y-73161822D01*
X133238952Y-73161822D02*
X133238952Y-73066584D01*
X133238952Y-73066584D02*
X133191333Y-72971346D01*
X133191333Y-72971346D02*
X133143714Y-72923727D01*
X133143714Y-72923727D02*
X133048476Y-72876108D01*
X133048476Y-72876108D02*
X132858000Y-72828489D01*
X132858000Y-72828489D02*
X132762762Y-72780870D01*
X132762762Y-72780870D02*
X132715143Y-72733251D01*
X132715143Y-72733251D02*
X132667524Y-72638013D01*
X132667524Y-72638013D02*
X132667524Y-72542775D01*
X132667524Y-72542775D02*
X132715143Y-72447537D01*
X132715143Y-72447537D02*
X132762762Y-72399918D01*
X132762762Y-72399918D02*
X132858000Y-72352299D01*
X132858000Y-72352299D02*
X133096095Y-72352299D01*
X133096095Y-72352299D02*
X133238952Y-72399918D01*
X134238952Y-73257060D02*
X134191333Y-73304680D01*
X134191333Y-73304680D02*
X134048476Y-73352299D01*
X134048476Y-73352299D02*
X133953238Y-73352299D01*
X133953238Y-73352299D02*
X133810381Y-73304680D01*
X133810381Y-73304680D02*
X133715143Y-73209441D01*
X133715143Y-73209441D02*
X133667524Y-73114203D01*
X133667524Y-73114203D02*
X133619905Y-72923727D01*
X133619905Y-72923727D02*
X133619905Y-72780870D01*
X133619905Y-72780870D02*
X133667524Y-72590394D01*
X133667524Y-72590394D02*
X133715143Y-72495156D01*
X133715143Y-72495156D02*
X133810381Y-72399918D01*
X133810381Y-72399918D02*
X133953238Y-72352299D01*
X133953238Y-72352299D02*
X134048476Y-72352299D01*
X134048476Y-72352299D02*
X134191333Y-72399918D01*
X134191333Y-72399918D02*
X134238952Y-72447537D01*
X135143714Y-73352299D02*
X134667524Y-73352299D01*
X134667524Y-73352299D02*
X134667524Y-72352299D01*
X138993714Y-73304680D02*
X139136571Y-73352299D01*
X139136571Y-73352299D02*
X139374666Y-73352299D01*
X139374666Y-73352299D02*
X139469904Y-73304680D01*
X139469904Y-73304680D02*
X139517523Y-73257060D01*
X139517523Y-73257060D02*
X139565142Y-73161822D01*
X139565142Y-73161822D02*
X139565142Y-73066584D01*
X139565142Y-73066584D02*
X139517523Y-72971346D01*
X139517523Y-72971346D02*
X139469904Y-72923727D01*
X139469904Y-72923727D02*
X139374666Y-72876108D01*
X139374666Y-72876108D02*
X139184190Y-72828489D01*
X139184190Y-72828489D02*
X139088952Y-72780870D01*
X139088952Y-72780870D02*
X139041333Y-72733251D01*
X139041333Y-72733251D02*
X138993714Y-72638013D01*
X138993714Y-72638013D02*
X138993714Y-72542775D01*
X138993714Y-72542775D02*
X139041333Y-72447537D01*
X139041333Y-72447537D02*
X139088952Y-72399918D01*
X139088952Y-72399918D02*
X139184190Y-72352299D01*
X139184190Y-72352299D02*
X139422285Y-72352299D01*
X139422285Y-72352299D02*
X139565142Y-72399918D01*
X139993714Y-73352299D02*
X139993714Y-72352299D01*
X139993714Y-72352299D02*
X140231809Y-72352299D01*
X140231809Y-72352299D02*
X140374666Y-72399918D01*
X140374666Y-72399918D02*
X140469904Y-72495156D01*
X140469904Y-72495156D02*
X140517523Y-72590394D01*
X140517523Y-72590394D02*
X140565142Y-72780870D01*
X140565142Y-72780870D02*
X140565142Y-72923727D01*
X140565142Y-72923727D02*
X140517523Y-73114203D01*
X140517523Y-73114203D02*
X140469904Y-73209441D01*
X140469904Y-73209441D02*
X140374666Y-73304680D01*
X140374666Y-73304680D02*
X140231809Y-73352299D01*
X140231809Y-73352299D02*
X139993714Y-73352299D01*
X140946095Y-73066584D02*
X141422285Y-73066584D01*
X140850857Y-73352299D02*
X141184190Y-72352299D01*
X141184190Y-72352299D02*
X141517523Y-73352299D01*
X125771632Y-80787143D02*
X126771632Y-80787143D01*
X125819251Y-80787143D02*
X125771632Y-80691905D01*
X125771632Y-80691905D02*
X125771632Y-80501429D01*
X125771632Y-80501429D02*
X125819251Y-80406191D01*
X125819251Y-80406191D02*
X125866870Y-80358572D01*
X125866870Y-80358572D02*
X125962108Y-80310953D01*
X125962108Y-80310953D02*
X126247822Y-80310953D01*
X126247822Y-80310953D02*
X126343060Y-80358572D01*
X126343060Y-80358572D02*
X126390680Y-80406191D01*
X126390680Y-80406191D02*
X126438299Y-80501429D01*
X126438299Y-80501429D02*
X126438299Y-80691905D01*
X126438299Y-80691905D02*
X126390680Y-80787143D01*
X125771632Y-79453810D02*
X126438299Y-79453810D01*
X125771632Y-79882381D02*
X126295441Y-79882381D01*
X126295441Y-79882381D02*
X126390680Y-79834762D01*
X126390680Y-79834762D02*
X126438299Y-79739524D01*
X126438299Y-79739524D02*
X126438299Y-79596667D01*
X126438299Y-79596667D02*
X126390680Y-79501429D01*
X126390680Y-79501429D02*
X126343060Y-79453810D01*
X126438299Y-78834762D02*
X126390680Y-78930000D01*
X126390680Y-78930000D02*
X126295441Y-78977619D01*
X126295441Y-78977619D02*
X125438299Y-78977619D01*
X126438299Y-78310952D02*
X126390680Y-78406190D01*
X126390680Y-78406190D02*
X126295441Y-78453809D01*
X126295441Y-78453809D02*
X125438299Y-78453809D01*
X126057346Y-77929999D02*
X126057346Y-77168095D01*
X125771632Y-76263333D02*
X126438299Y-76263333D01*
X125771632Y-76691904D02*
X126295441Y-76691904D01*
X126295441Y-76691904D02*
X126390680Y-76644285D01*
X126390680Y-76644285D02*
X126438299Y-76549047D01*
X126438299Y-76549047D02*
X126438299Y-76406190D01*
X126438299Y-76406190D02*
X126390680Y-76310952D01*
X126390680Y-76310952D02*
X126343060Y-76263333D01*
X125771632Y-75787142D02*
X126771632Y-75787142D01*
X125819251Y-75787142D02*
X125771632Y-75691904D01*
X125771632Y-75691904D02*
X125771632Y-75501428D01*
X125771632Y-75501428D02*
X125819251Y-75406190D01*
X125819251Y-75406190D02*
X125866870Y-75358571D01*
X125866870Y-75358571D02*
X125962108Y-75310952D01*
X125962108Y-75310952D02*
X126247822Y-75310952D01*
X126247822Y-75310952D02*
X126343060Y-75358571D01*
X126343060Y-75358571D02*
X126390680Y-75406190D01*
X126390680Y-75406190D02*
X126438299Y-75501428D01*
X126438299Y-75501428D02*
X126438299Y-75691904D01*
X126438299Y-75691904D02*
X126390680Y-75787142D01*
X126438299Y-73549047D02*
X125962108Y-73882380D01*
X126438299Y-74120475D02*
X125438299Y-74120475D01*
X125438299Y-74120475D02*
X125438299Y-73739523D01*
X125438299Y-73739523D02*
X125485918Y-73644285D01*
X125485918Y-73644285D02*
X125533537Y-73596666D01*
X125533537Y-73596666D02*
X125628775Y-73549047D01*
X125628775Y-73549047D02*
X125771632Y-73549047D01*
X125771632Y-73549047D02*
X125866870Y-73596666D01*
X125866870Y-73596666D02*
X125914489Y-73644285D01*
X125914489Y-73644285D02*
X125962108Y-73739523D01*
X125962108Y-73739523D02*
X125962108Y-74120475D01*
X126819251Y-72072856D02*
X126771632Y-72120475D01*
X126771632Y-72120475D02*
X126628775Y-72215713D01*
X126628775Y-72215713D02*
X126533537Y-72263332D01*
X126533537Y-72263332D02*
X126390680Y-72310951D01*
X126390680Y-72310951D02*
X126152584Y-72358570D01*
X126152584Y-72358570D02*
X125962108Y-72358570D01*
X125962108Y-72358570D02*
X125724013Y-72310951D01*
X125724013Y-72310951D02*
X125581156Y-72263332D01*
X125581156Y-72263332D02*
X125485918Y-72215713D01*
X125485918Y-72215713D02*
X125343060Y-72120475D01*
X125343060Y-72120475D02*
X125295441Y-72072856D01*
X126438299Y-71691903D02*
X125438299Y-71691903D01*
X125533537Y-71263332D02*
X125485918Y-71215713D01*
X125485918Y-71215713D02*
X125438299Y-71120475D01*
X125438299Y-71120475D02*
X125438299Y-70882380D01*
X125438299Y-70882380D02*
X125485918Y-70787142D01*
X125485918Y-70787142D02*
X125533537Y-70739523D01*
X125533537Y-70739523D02*
X125628775Y-70691904D01*
X125628775Y-70691904D02*
X125724013Y-70691904D01*
X125724013Y-70691904D02*
X125866870Y-70739523D01*
X125866870Y-70739523D02*
X126438299Y-71310951D01*
X126438299Y-71310951D02*
X126438299Y-70691904D01*
X126343060Y-69691904D02*
X126390680Y-69739523D01*
X126390680Y-69739523D02*
X126438299Y-69882380D01*
X126438299Y-69882380D02*
X126438299Y-69977618D01*
X126438299Y-69977618D02*
X126390680Y-70120475D01*
X126390680Y-70120475D02*
X126295441Y-70215713D01*
X126295441Y-70215713D02*
X126200203Y-70263332D01*
X126200203Y-70263332D02*
X126009727Y-70310951D01*
X126009727Y-70310951D02*
X125866870Y-70310951D01*
X125866870Y-70310951D02*
X125676394Y-70263332D01*
X125676394Y-70263332D02*
X125581156Y-70215713D01*
X125581156Y-70215713D02*
X125485918Y-70120475D01*
X125485918Y-70120475D02*
X125438299Y-69977618D01*
X125438299Y-69977618D02*
X125438299Y-69882380D01*
X125438299Y-69882380D02*
X125485918Y-69739523D01*
X125485918Y-69739523D02*
X125533537Y-69691904D01*
X126819251Y-69358570D02*
X126771632Y-69310951D01*
X126771632Y-69310951D02*
X126628775Y-69215713D01*
X126628775Y-69215713D02*
X126533537Y-69168094D01*
X126533537Y-69168094D02*
X126390680Y-69120475D01*
X126390680Y-69120475D02*
X126152584Y-69072856D01*
X126152584Y-69072856D02*
X125962108Y-69072856D01*
X125962108Y-69072856D02*
X125724013Y-69120475D01*
X125724013Y-69120475D02*
X125581156Y-69168094D01*
X125581156Y-69168094D02*
X125485918Y-69215713D01*
X125485918Y-69215713D02*
X125343060Y-69310951D01*
X125343060Y-69310951D02*
X125295441Y-69358570D01*
D11*
X126547714Y-95398000D02*
X126690571Y-95445619D01*
X126690571Y-95445619D02*
X126928666Y-95445619D01*
X126928666Y-95445619D02*
X127023904Y-95398000D01*
X127023904Y-95398000D02*
X127071523Y-95350380D01*
X127071523Y-95350380D02*
X127119142Y-95255142D01*
X127119142Y-95255142D02*
X127119142Y-95159904D01*
X127119142Y-95159904D02*
X127071523Y-95064666D01*
X127071523Y-95064666D02*
X127023904Y-95017047D01*
X127023904Y-95017047D02*
X126928666Y-94969428D01*
X126928666Y-94969428D02*
X126738190Y-94921809D01*
X126738190Y-94921809D02*
X126642952Y-94874190D01*
X126642952Y-94874190D02*
X126595333Y-94826571D01*
X126595333Y-94826571D02*
X126547714Y-94731333D01*
X126547714Y-94731333D02*
X126547714Y-94636095D01*
X126547714Y-94636095D02*
X126595333Y-94540857D01*
X126595333Y-94540857D02*
X126642952Y-94493238D01*
X126642952Y-94493238D02*
X126738190Y-94445619D01*
X126738190Y-94445619D02*
X126976285Y-94445619D01*
X126976285Y-94445619D02*
X127119142Y-94493238D01*
X127547714Y-95445619D02*
X127547714Y-94445619D01*
X127547714Y-94445619D02*
X127785809Y-94445619D01*
X127785809Y-94445619D02*
X127928666Y-94493238D01*
X127928666Y-94493238D02*
X128023904Y-94588476D01*
X128023904Y-94588476D02*
X128071523Y-94683714D01*
X128071523Y-94683714D02*
X128119142Y-94874190D01*
X128119142Y-94874190D02*
X128119142Y-95017047D01*
X128119142Y-95017047D02*
X128071523Y-95207523D01*
X128071523Y-95207523D02*
X128023904Y-95302761D01*
X128023904Y-95302761D02*
X127928666Y-95398000D01*
X127928666Y-95398000D02*
X127785809Y-95445619D01*
X127785809Y-95445619D02*
X127547714Y-95445619D01*
X128500095Y-95159904D02*
X128976285Y-95159904D01*
X128404857Y-95445619D02*
X128738190Y-94445619D01*
X128738190Y-94445619D02*
X129071523Y-95445619D01*
X126571524Y-109368000D02*
X126714381Y-109415619D01*
X126714381Y-109415619D02*
X126952476Y-109415619D01*
X126952476Y-109415619D02*
X127047714Y-109368000D01*
X127047714Y-109368000D02*
X127095333Y-109320380D01*
X127095333Y-109320380D02*
X127142952Y-109225142D01*
X127142952Y-109225142D02*
X127142952Y-109129904D01*
X127142952Y-109129904D02*
X127095333Y-109034666D01*
X127095333Y-109034666D02*
X127047714Y-108987047D01*
X127047714Y-108987047D02*
X126952476Y-108939428D01*
X126952476Y-108939428D02*
X126762000Y-108891809D01*
X126762000Y-108891809D02*
X126666762Y-108844190D01*
X126666762Y-108844190D02*
X126619143Y-108796571D01*
X126619143Y-108796571D02*
X126571524Y-108701333D01*
X126571524Y-108701333D02*
X126571524Y-108606095D01*
X126571524Y-108606095D02*
X126619143Y-108510857D01*
X126619143Y-108510857D02*
X126666762Y-108463238D01*
X126666762Y-108463238D02*
X126762000Y-108415619D01*
X126762000Y-108415619D02*
X127000095Y-108415619D01*
X127000095Y-108415619D02*
X127142952Y-108463238D01*
X128142952Y-109320380D02*
X128095333Y-109368000D01*
X128095333Y-109368000D02*
X127952476Y-109415619D01*
X127952476Y-109415619D02*
X127857238Y-109415619D01*
X127857238Y-109415619D02*
X127714381Y-109368000D01*
X127714381Y-109368000D02*
X127619143Y-109272761D01*
X127619143Y-109272761D02*
X127571524Y-109177523D01*
X127571524Y-109177523D02*
X127523905Y-108987047D01*
X127523905Y-108987047D02*
X127523905Y-108844190D01*
X127523905Y-108844190D02*
X127571524Y-108653714D01*
X127571524Y-108653714D02*
X127619143Y-108558476D01*
X127619143Y-108558476D02*
X127714381Y-108463238D01*
X127714381Y-108463238D02*
X127857238Y-108415619D01*
X127857238Y-108415619D02*
X127952476Y-108415619D01*
X127952476Y-108415619D02*
X128095333Y-108463238D01*
X128095333Y-108463238D02*
X128142952Y-108510857D01*
X129047714Y-109415619D02*
X128571524Y-109415619D01*
X128571524Y-109415619D02*
X128571524Y-108415619D01*
D10*
X132040476Y-95720299D02*
X132611904Y-95720299D01*
X132326190Y-96720299D02*
X132326190Y-95720299D01*
X133135714Y-95720299D02*
X133326190Y-95720299D01*
X133326190Y-95720299D02*
X133421428Y-95767918D01*
X133421428Y-95767918D02*
X133516666Y-95863156D01*
X133516666Y-95863156D02*
X133564285Y-96053632D01*
X133564285Y-96053632D02*
X133564285Y-96386965D01*
X133564285Y-96386965D02*
X133516666Y-96577441D01*
X133516666Y-96577441D02*
X133421428Y-96672680D01*
X133421428Y-96672680D02*
X133326190Y-96720299D01*
X133326190Y-96720299D02*
X133135714Y-96720299D01*
X133135714Y-96720299D02*
X133040476Y-96672680D01*
X133040476Y-96672680D02*
X132945238Y-96577441D01*
X132945238Y-96577441D02*
X132897619Y-96386965D01*
X132897619Y-96386965D02*
X132897619Y-96053632D01*
X132897619Y-96053632D02*
X132945238Y-95863156D01*
X132945238Y-95863156D02*
X133040476Y-95767918D01*
X133040476Y-95767918D02*
X133135714Y-95720299D01*
X133992857Y-96720299D02*
X133992857Y-95720299D01*
X133992857Y-95720299D02*
X134373809Y-95720299D01*
X134373809Y-95720299D02*
X134469047Y-95767918D01*
X134469047Y-95767918D02*
X134516666Y-95815537D01*
X134516666Y-95815537D02*
X134564285Y-95910775D01*
X134564285Y-95910775D02*
X134564285Y-96053632D01*
X134564285Y-96053632D02*
X134516666Y-96148870D01*
X134516666Y-96148870D02*
X134469047Y-96196489D01*
X134469047Y-96196489D02*
X134373809Y-96244108D01*
X134373809Y-96244108D02*
X133992857Y-96244108D01*
X133040572Y-89862299D02*
X133040572Y-88862299D01*
X133040572Y-88862299D02*
X133373905Y-89576584D01*
X133373905Y-89576584D02*
X133707238Y-88862299D01*
X133707238Y-88862299D02*
X133707238Y-89862299D01*
X134183429Y-89862299D02*
X134183429Y-88862299D01*
X134659619Y-89862299D02*
X134659619Y-88862299D01*
X134659619Y-88862299D02*
X134897714Y-88862299D01*
X134897714Y-88862299D02*
X135040571Y-88909918D01*
X135040571Y-88909918D02*
X135135809Y-89005156D01*
X135135809Y-89005156D02*
X135183428Y-89100394D01*
X135183428Y-89100394D02*
X135231047Y-89290870D01*
X135231047Y-89290870D02*
X135231047Y-89433727D01*
X135231047Y-89433727D02*
X135183428Y-89624203D01*
X135183428Y-89624203D02*
X135135809Y-89719441D01*
X135135809Y-89719441D02*
X135040571Y-89814680D01*
X135040571Y-89814680D02*
X134897714Y-89862299D01*
X134897714Y-89862299D02*
X134659619Y-89862299D01*
X138612666Y-89084489D02*
X138755523Y-89132108D01*
X138755523Y-89132108D02*
X138803142Y-89179727D01*
X138803142Y-89179727D02*
X138850761Y-89274965D01*
X138850761Y-89274965D02*
X138850761Y-89417822D01*
X138850761Y-89417822D02*
X138803142Y-89513060D01*
X138803142Y-89513060D02*
X138755523Y-89560680D01*
X138755523Y-89560680D02*
X138660285Y-89608299D01*
X138660285Y-89608299D02*
X138279333Y-89608299D01*
X138279333Y-89608299D02*
X138279333Y-88608299D01*
X138279333Y-88608299D02*
X138612666Y-88608299D01*
X138612666Y-88608299D02*
X138707904Y-88655918D01*
X138707904Y-88655918D02*
X138755523Y-88703537D01*
X138755523Y-88703537D02*
X138803142Y-88798775D01*
X138803142Y-88798775D02*
X138803142Y-88894013D01*
X138803142Y-88894013D02*
X138755523Y-88989251D01*
X138755523Y-88989251D02*
X138707904Y-89036870D01*
X138707904Y-89036870D02*
X138612666Y-89084489D01*
X138612666Y-89084489D02*
X138279333Y-89084489D01*
X139469809Y-88608299D02*
X139660285Y-88608299D01*
X139660285Y-88608299D02*
X139755523Y-88655918D01*
X139755523Y-88655918D02*
X139850761Y-88751156D01*
X139850761Y-88751156D02*
X139898380Y-88941632D01*
X139898380Y-88941632D02*
X139898380Y-89274965D01*
X139898380Y-89274965D02*
X139850761Y-89465441D01*
X139850761Y-89465441D02*
X139755523Y-89560680D01*
X139755523Y-89560680D02*
X139660285Y-89608299D01*
X139660285Y-89608299D02*
X139469809Y-89608299D01*
X139469809Y-89608299D02*
X139374571Y-89560680D01*
X139374571Y-89560680D02*
X139279333Y-89465441D01*
X139279333Y-89465441D02*
X139231714Y-89274965D01*
X139231714Y-89274965D02*
X139231714Y-88941632D01*
X139231714Y-88941632D02*
X139279333Y-88751156D01*
X139279333Y-88751156D02*
X139374571Y-88655918D01*
X139374571Y-88655918D02*
X139469809Y-88608299D01*
X140184095Y-88608299D02*
X140755523Y-88608299D01*
X140469809Y-89608299D02*
X140469809Y-88608299D01*
X138628572Y-96720299D02*
X138628572Y-95720299D01*
X138628572Y-95720299D02*
X138961905Y-96434584D01*
X138961905Y-96434584D02*
X139295238Y-95720299D01*
X139295238Y-95720299D02*
X139295238Y-96720299D01*
X139771429Y-96720299D02*
X139771429Y-95720299D01*
X140247619Y-96720299D02*
X140247619Y-95720299D01*
X140247619Y-95720299D02*
X140485714Y-95720299D01*
X140485714Y-95720299D02*
X140628571Y-95767918D01*
X140628571Y-95767918D02*
X140723809Y-95863156D01*
X140723809Y-95863156D02*
X140771428Y-95958394D01*
X140771428Y-95958394D02*
X140819047Y-96148870D01*
X140819047Y-96148870D02*
X140819047Y-96291727D01*
X140819047Y-96291727D02*
X140771428Y-96482203D01*
X140771428Y-96482203D02*
X140723809Y-96577441D01*
X140723809Y-96577441D02*
X140628571Y-96672680D01*
X140628571Y-96672680D02*
X140485714Y-96720299D01*
X140485714Y-96720299D02*
X140247619Y-96720299D01*
X131786476Y-109944299D02*
X132357904Y-109944299D01*
X132072190Y-110944299D02*
X132072190Y-109944299D01*
X132881714Y-109944299D02*
X133072190Y-109944299D01*
X133072190Y-109944299D02*
X133167428Y-109991918D01*
X133167428Y-109991918D02*
X133262666Y-110087156D01*
X133262666Y-110087156D02*
X133310285Y-110277632D01*
X133310285Y-110277632D02*
X133310285Y-110610965D01*
X133310285Y-110610965D02*
X133262666Y-110801441D01*
X133262666Y-110801441D02*
X133167428Y-110896680D01*
X133167428Y-110896680D02*
X133072190Y-110944299D01*
X133072190Y-110944299D02*
X132881714Y-110944299D01*
X132881714Y-110944299D02*
X132786476Y-110896680D01*
X132786476Y-110896680D02*
X132691238Y-110801441D01*
X132691238Y-110801441D02*
X132643619Y-110610965D01*
X132643619Y-110610965D02*
X132643619Y-110277632D01*
X132643619Y-110277632D02*
X132691238Y-110087156D01*
X132691238Y-110087156D02*
X132786476Y-109991918D01*
X132786476Y-109991918D02*
X132881714Y-109944299D01*
X133738857Y-110944299D02*
X133738857Y-109944299D01*
X133738857Y-109944299D02*
X134119809Y-109944299D01*
X134119809Y-109944299D02*
X134215047Y-109991918D01*
X134215047Y-109991918D02*
X134262666Y-110039537D01*
X134262666Y-110039537D02*
X134310285Y-110134775D01*
X134310285Y-110134775D02*
X134310285Y-110277632D01*
X134310285Y-110277632D02*
X134262666Y-110372870D01*
X134262666Y-110372870D02*
X134215047Y-110420489D01*
X134215047Y-110420489D02*
X134119809Y-110468108D01*
X134119809Y-110468108D02*
X133738857Y-110468108D01*
X132278572Y-103832299D02*
X132278572Y-102832299D01*
X132278572Y-102832299D02*
X132611905Y-103546584D01*
X132611905Y-103546584D02*
X132945238Y-102832299D01*
X132945238Y-102832299D02*
X132945238Y-103832299D01*
X133421429Y-103832299D02*
X133421429Y-102832299D01*
X133897619Y-103832299D02*
X133897619Y-102832299D01*
X133897619Y-102832299D02*
X134135714Y-102832299D01*
X134135714Y-102832299D02*
X134278571Y-102879918D01*
X134278571Y-102879918D02*
X134373809Y-102975156D01*
X134373809Y-102975156D02*
X134421428Y-103070394D01*
X134421428Y-103070394D02*
X134469047Y-103260870D01*
X134469047Y-103260870D02*
X134469047Y-103403727D01*
X134469047Y-103403727D02*
X134421428Y-103594203D01*
X134421428Y-103594203D02*
X134373809Y-103689441D01*
X134373809Y-103689441D02*
X134278571Y-103784680D01*
X134278571Y-103784680D02*
X134135714Y-103832299D01*
X134135714Y-103832299D02*
X133897619Y-103832299D01*
X138374572Y-110690299D02*
X138374572Y-109690299D01*
X138374572Y-109690299D02*
X138707905Y-110404584D01*
X138707905Y-110404584D02*
X139041238Y-109690299D01*
X139041238Y-109690299D02*
X139041238Y-110690299D01*
X139517429Y-110690299D02*
X139517429Y-109690299D01*
X139993619Y-110690299D02*
X139993619Y-109690299D01*
X139993619Y-109690299D02*
X140231714Y-109690299D01*
X140231714Y-109690299D02*
X140374571Y-109737918D01*
X140374571Y-109737918D02*
X140469809Y-109833156D01*
X140469809Y-109833156D02*
X140517428Y-109928394D01*
X140517428Y-109928394D02*
X140565047Y-110118870D01*
X140565047Y-110118870D02*
X140565047Y-110261727D01*
X140565047Y-110261727D02*
X140517428Y-110452203D01*
X140517428Y-110452203D02*
X140469809Y-110547441D01*
X140469809Y-110547441D02*
X140374571Y-110642680D01*
X140374571Y-110642680D02*
X140231714Y-110690299D01*
X140231714Y-110690299D02*
X139993619Y-110690299D01*
X138612666Y-103308489D02*
X138755523Y-103356108D01*
X138755523Y-103356108D02*
X138803142Y-103403727D01*
X138803142Y-103403727D02*
X138850761Y-103498965D01*
X138850761Y-103498965D02*
X138850761Y-103641822D01*
X138850761Y-103641822D02*
X138803142Y-103737060D01*
X138803142Y-103737060D02*
X138755523Y-103784680D01*
X138755523Y-103784680D02*
X138660285Y-103832299D01*
X138660285Y-103832299D02*
X138279333Y-103832299D01*
X138279333Y-103832299D02*
X138279333Y-102832299D01*
X138279333Y-102832299D02*
X138612666Y-102832299D01*
X138612666Y-102832299D02*
X138707904Y-102879918D01*
X138707904Y-102879918D02*
X138755523Y-102927537D01*
X138755523Y-102927537D02*
X138803142Y-103022775D01*
X138803142Y-103022775D02*
X138803142Y-103118013D01*
X138803142Y-103118013D02*
X138755523Y-103213251D01*
X138755523Y-103213251D02*
X138707904Y-103260870D01*
X138707904Y-103260870D02*
X138612666Y-103308489D01*
X138612666Y-103308489D02*
X138279333Y-103308489D01*
X139469809Y-102832299D02*
X139660285Y-102832299D01*
X139660285Y-102832299D02*
X139755523Y-102879918D01*
X139755523Y-102879918D02*
X139850761Y-102975156D01*
X139850761Y-102975156D02*
X139898380Y-103165632D01*
X139898380Y-103165632D02*
X139898380Y-103498965D01*
X139898380Y-103498965D02*
X139850761Y-103689441D01*
X139850761Y-103689441D02*
X139755523Y-103784680D01*
X139755523Y-103784680D02*
X139660285Y-103832299D01*
X139660285Y-103832299D02*
X139469809Y-103832299D01*
X139469809Y-103832299D02*
X139374571Y-103784680D01*
X139374571Y-103784680D02*
X139279333Y-103689441D01*
X139279333Y-103689441D02*
X139231714Y-103498965D01*
X139231714Y-103498965D02*
X139231714Y-103165632D01*
X139231714Y-103165632D02*
X139279333Y-102975156D01*
X139279333Y-102975156D02*
X139374571Y-102879918D01*
X139374571Y-102879918D02*
X139469809Y-102832299D01*
X140184095Y-102832299D02*
X140755523Y-102832299D01*
X140469809Y-103832299D02*
X140469809Y-102832299D01*
D11*
X123063095Y-125227238D02*
X122967857Y-125179619D01*
X122967857Y-125179619D02*
X122825000Y-125179619D01*
X122825000Y-125179619D02*
X122682143Y-125227238D01*
X122682143Y-125227238D02*
X122586905Y-125322476D01*
X122586905Y-125322476D02*
X122539286Y-125417714D01*
X122539286Y-125417714D02*
X122491667Y-125608190D01*
X122491667Y-125608190D02*
X122491667Y-125751047D01*
X122491667Y-125751047D02*
X122539286Y-125941523D01*
X122539286Y-125941523D02*
X122586905Y-126036761D01*
X122586905Y-126036761D02*
X122682143Y-126132000D01*
X122682143Y-126132000D02*
X122825000Y-126179619D01*
X122825000Y-126179619D02*
X122920238Y-126179619D01*
X122920238Y-126179619D02*
X123063095Y-126132000D01*
X123063095Y-126132000D02*
X123110714Y-126084380D01*
X123110714Y-126084380D02*
X123110714Y-125751047D01*
X123110714Y-125751047D02*
X122920238Y-125751047D01*
X123539286Y-126179619D02*
X123539286Y-125179619D01*
X123539286Y-125179619D02*
X124110714Y-126179619D01*
X124110714Y-126179619D02*
X124110714Y-125179619D01*
X124586905Y-126179619D02*
X124586905Y-125179619D01*
X124586905Y-125179619D02*
X124825000Y-125179619D01*
X124825000Y-125179619D02*
X124967857Y-125227238D01*
X124967857Y-125227238D02*
X125063095Y-125322476D01*
X125063095Y-125322476D02*
X125110714Y-125417714D01*
X125110714Y-125417714D02*
X125158333Y-125608190D01*
X125158333Y-125608190D02*
X125158333Y-125751047D01*
X125158333Y-125751047D02*
X125110714Y-125941523D01*
X125110714Y-125941523D02*
X125063095Y-126036761D01*
X125063095Y-126036761D02*
X124967857Y-126132000D01*
X124967857Y-126132000D02*
X124825000Y-126179619D01*
X124825000Y-126179619D02*
X124586905Y-126179619D01*
X116189286Y-125798666D02*
X116951191Y-125798666D01*
X116570238Y-126179619D02*
X116570238Y-125417714D01*
X117903571Y-125179619D02*
X117427381Y-125179619D01*
X117427381Y-125179619D02*
X117379762Y-125655809D01*
X117379762Y-125655809D02*
X117427381Y-125608190D01*
X117427381Y-125608190D02*
X117522619Y-125560571D01*
X117522619Y-125560571D02*
X117760714Y-125560571D01*
X117760714Y-125560571D02*
X117855952Y-125608190D01*
X117855952Y-125608190D02*
X117903571Y-125655809D01*
X117903571Y-125655809D02*
X117951190Y-125751047D01*
X117951190Y-125751047D02*
X117951190Y-125989142D01*
X117951190Y-125989142D02*
X117903571Y-126084380D01*
X117903571Y-126084380D02*
X117855952Y-126132000D01*
X117855952Y-126132000D02*
X117760714Y-126179619D01*
X117760714Y-126179619D02*
X117522619Y-126179619D01*
X117522619Y-126179619D02*
X117427381Y-126132000D01*
X117427381Y-126132000D02*
X117379762Y-126084380D01*
X118236905Y-125179619D02*
X118570238Y-126179619D01*
X118570238Y-126179619D02*
X118903571Y-125179619D01*
X118554762Y-120591619D02*
X117983334Y-120591619D01*
X118269048Y-120591619D02*
X118269048Y-119591619D01*
X118269048Y-119591619D02*
X118173810Y-119734476D01*
X118173810Y-119734476D02*
X118078572Y-119829714D01*
X118078572Y-119829714D02*
X117983334Y-119877333D01*
X118983334Y-120210666D02*
X119745239Y-120210666D01*
X120126191Y-119591619D02*
X120364286Y-120591619D01*
X120364286Y-120591619D02*
X120554762Y-119877333D01*
X120554762Y-119877333D02*
X120745238Y-120591619D01*
X120745238Y-120591619D02*
X120983334Y-119591619D01*
X121364286Y-120591619D02*
X121364286Y-119591619D01*
X122411904Y-120591619D02*
X122078571Y-120115428D01*
X121840476Y-120591619D02*
X121840476Y-119591619D01*
X121840476Y-119591619D02*
X122221428Y-119591619D01*
X122221428Y-119591619D02*
X122316666Y-119639238D01*
X122316666Y-119639238D02*
X122364285Y-119686857D01*
X122364285Y-119686857D02*
X122411904Y-119782095D01*
X122411904Y-119782095D02*
X122411904Y-119924952D01*
X122411904Y-119924952D02*
X122364285Y-120020190D01*
X122364285Y-120020190D02*
X122316666Y-120067809D01*
X122316666Y-120067809D02*
X122221428Y-120115428D01*
X122221428Y-120115428D02*
X121840476Y-120115428D01*
X122840476Y-120067809D02*
X123173809Y-120067809D01*
X123316666Y-120591619D02*
X122840476Y-120591619D01*
X122840476Y-120591619D02*
X122840476Y-119591619D01*
X122840476Y-119591619D02*
X123316666Y-119591619D01*
X128465619Y-67524189D02*
X127465619Y-67524189D01*
X127560857Y-67095618D02*
X127513238Y-67047999D01*
X127513238Y-67047999D02*
X127465619Y-66952761D01*
X127465619Y-66952761D02*
X127465619Y-66714666D01*
X127465619Y-66714666D02*
X127513238Y-66619428D01*
X127513238Y-66619428D02*
X127560857Y-66571809D01*
X127560857Y-66571809D02*
X127656095Y-66524190D01*
X127656095Y-66524190D02*
X127751333Y-66524190D01*
X127751333Y-66524190D02*
X127894190Y-66571809D01*
X127894190Y-66571809D02*
X128465619Y-67143237D01*
X128465619Y-67143237D02*
X128465619Y-66524190D01*
X128370380Y-65524190D02*
X128418000Y-65571809D01*
X128418000Y-65571809D02*
X128465619Y-65714666D01*
X128465619Y-65714666D02*
X128465619Y-65809904D01*
X128465619Y-65809904D02*
X128418000Y-65952761D01*
X128418000Y-65952761D02*
X128322761Y-66047999D01*
X128322761Y-66047999D02*
X128227523Y-66095618D01*
X128227523Y-66095618D02*
X128037047Y-66143237D01*
X128037047Y-66143237D02*
X127894190Y-66143237D01*
X127894190Y-66143237D02*
X127703714Y-66095618D01*
X127703714Y-66095618D02*
X127608476Y-66047999D01*
X127608476Y-66047999D02*
X127513238Y-65952761D01*
X127513238Y-65952761D02*
X127465619Y-65809904D01*
X127465619Y-65809904D02*
X127465619Y-65714666D01*
X127465619Y-65714666D02*
X127513238Y-65571809D01*
X127513238Y-65571809D02*
X127560857Y-65524190D01*
X123639619Y-115799999D02*
X122639619Y-115799999D01*
X122639619Y-115799999D02*
X122639619Y-115561904D01*
X122639619Y-115561904D02*
X122687238Y-115419047D01*
X122687238Y-115419047D02*
X122782476Y-115323809D01*
X122782476Y-115323809D02*
X122877714Y-115276190D01*
X122877714Y-115276190D02*
X123068190Y-115228571D01*
X123068190Y-115228571D02*
X123211047Y-115228571D01*
X123211047Y-115228571D02*
X123401523Y-115276190D01*
X123401523Y-115276190D02*
X123496761Y-115323809D01*
X123496761Y-115323809D02*
X123592000Y-115419047D01*
X123592000Y-115419047D02*
X123639619Y-115561904D01*
X123639619Y-115561904D02*
X123639619Y-115799999D01*
X123353904Y-114847618D02*
X123353904Y-114371428D01*
X123639619Y-114942856D02*
X122639619Y-114609523D01*
X122639619Y-114609523D02*
X123639619Y-114276190D01*
X122639619Y-114085713D02*
X122639619Y-113514285D01*
X123639619Y-113799999D02*
X122639619Y-113799999D01*
X123353904Y-113228570D02*
X123353904Y-112752380D01*
X123639619Y-113323808D02*
X122639619Y-112990475D01*
X122639619Y-112990475D02*
X123639619Y-112657142D01*
X120718666Y-115585713D02*
X120718666Y-114823809D01*
X121099619Y-115204761D02*
X120337714Y-115204761D01*
X120099619Y-113871428D02*
X120099619Y-114347618D01*
X120099619Y-114347618D02*
X120575809Y-114395237D01*
X120575809Y-114395237D02*
X120528190Y-114347618D01*
X120528190Y-114347618D02*
X120480571Y-114252380D01*
X120480571Y-114252380D02*
X120480571Y-114014285D01*
X120480571Y-114014285D02*
X120528190Y-113919047D01*
X120528190Y-113919047D02*
X120575809Y-113871428D01*
X120575809Y-113871428D02*
X120671047Y-113823809D01*
X120671047Y-113823809D02*
X120909142Y-113823809D01*
X120909142Y-113823809D02*
X121004380Y-113871428D01*
X121004380Y-113871428D02*
X121052000Y-113919047D01*
X121052000Y-113919047D02*
X121099619Y-114014285D01*
X121099619Y-114014285D02*
X121099619Y-114252380D01*
X121099619Y-114252380D02*
X121052000Y-114347618D01*
X121052000Y-114347618D02*
X121004380Y-114395237D01*
X120099619Y-113538094D02*
X121099619Y-113204761D01*
X121099619Y-113204761D02*
X120099619Y-112871428D01*
X117607238Y-115061904D02*
X117559619Y-115157142D01*
X117559619Y-115157142D02*
X117559619Y-115299999D01*
X117559619Y-115299999D02*
X117607238Y-115442856D01*
X117607238Y-115442856D02*
X117702476Y-115538094D01*
X117702476Y-115538094D02*
X117797714Y-115585713D01*
X117797714Y-115585713D02*
X117988190Y-115633332D01*
X117988190Y-115633332D02*
X118131047Y-115633332D01*
X118131047Y-115633332D02*
X118321523Y-115585713D01*
X118321523Y-115585713D02*
X118416761Y-115538094D01*
X118416761Y-115538094D02*
X118512000Y-115442856D01*
X118512000Y-115442856D02*
X118559619Y-115299999D01*
X118559619Y-115299999D02*
X118559619Y-115204761D01*
X118559619Y-115204761D02*
X118512000Y-115061904D01*
X118512000Y-115061904D02*
X118464380Y-115014285D01*
X118464380Y-115014285D02*
X118131047Y-115014285D01*
X118131047Y-115014285D02*
X118131047Y-115204761D01*
X118559619Y-114585713D02*
X117559619Y-114585713D01*
X117559619Y-114585713D02*
X118559619Y-114014285D01*
X118559619Y-114014285D02*
X117559619Y-114014285D01*
X118559619Y-113538094D02*
X117559619Y-113538094D01*
X117559619Y-113538094D02*
X117559619Y-113299999D01*
X117559619Y-113299999D02*
X117607238Y-113157142D01*
X117607238Y-113157142D02*
X117702476Y-113061904D01*
X117702476Y-113061904D02*
X117797714Y-113014285D01*
X117797714Y-113014285D02*
X117988190Y-112966666D01*
X117988190Y-112966666D02*
X118131047Y-112966666D01*
X118131047Y-112966666D02*
X118321523Y-113014285D01*
X118321523Y-113014285D02*
X118416761Y-113061904D01*
X118416761Y-113061904D02*
X118512000Y-113157142D01*
X118512000Y-113157142D02*
X118559619Y-113299999D01*
X118559619Y-113299999D02*
X118559619Y-113538094D01*
D10*
X130048095Y-66176918D02*
X129952857Y-66129299D01*
X129952857Y-66129299D02*
X129810000Y-66129299D01*
X129810000Y-66129299D02*
X129667143Y-66176918D01*
X129667143Y-66176918D02*
X129571905Y-66272156D01*
X129571905Y-66272156D02*
X129524286Y-66367394D01*
X129524286Y-66367394D02*
X129476667Y-66557870D01*
X129476667Y-66557870D02*
X129476667Y-66700727D01*
X129476667Y-66700727D02*
X129524286Y-66891203D01*
X129524286Y-66891203D02*
X129571905Y-66986441D01*
X129571905Y-66986441D02*
X129667143Y-67081680D01*
X129667143Y-67081680D02*
X129810000Y-67129299D01*
X129810000Y-67129299D02*
X129905238Y-67129299D01*
X129905238Y-67129299D02*
X130048095Y-67081680D01*
X130048095Y-67081680D02*
X130095714Y-67034060D01*
X130095714Y-67034060D02*
X130095714Y-66700727D01*
X130095714Y-66700727D02*
X129905238Y-66700727D01*
X130524286Y-67129299D02*
X130524286Y-66129299D01*
X130524286Y-66129299D02*
X131095714Y-67129299D01*
X131095714Y-67129299D02*
X131095714Y-66129299D01*
X131571905Y-67129299D02*
X131571905Y-66129299D01*
X131571905Y-66129299D02*
X131810000Y-66129299D01*
X131810000Y-66129299D02*
X131952857Y-66176918D01*
X131952857Y-66176918D02*
X132048095Y-66272156D01*
X132048095Y-66272156D02*
X132095714Y-66367394D01*
X132095714Y-66367394D02*
X132143333Y-66557870D01*
X132143333Y-66557870D02*
X132143333Y-66700727D01*
X132143333Y-66700727D02*
X132095714Y-66891203D01*
X132095714Y-66891203D02*
X132048095Y-66986441D01*
X132048095Y-66986441D02*
X131952857Y-67081680D01*
X131952857Y-67081680D02*
X131810000Y-67129299D01*
X131810000Y-67129299D02*
X131571905Y-67129299D01*
X132826286Y-66748346D02*
X133588191Y-66748346D01*
X133207238Y-67129299D02*
X133207238Y-66367394D01*
X134540571Y-66129299D02*
X134064381Y-66129299D01*
X134064381Y-66129299D02*
X134016762Y-66605489D01*
X134016762Y-66605489D02*
X134064381Y-66557870D01*
X134064381Y-66557870D02*
X134159619Y-66510251D01*
X134159619Y-66510251D02*
X134397714Y-66510251D01*
X134397714Y-66510251D02*
X134492952Y-66557870D01*
X134492952Y-66557870D02*
X134540571Y-66605489D01*
X134540571Y-66605489D02*
X134588190Y-66700727D01*
X134588190Y-66700727D02*
X134588190Y-66938822D01*
X134588190Y-66938822D02*
X134540571Y-67034060D01*
X134540571Y-67034060D02*
X134492952Y-67081680D01*
X134492952Y-67081680D02*
X134397714Y-67129299D01*
X134397714Y-67129299D02*
X134159619Y-67129299D01*
X134159619Y-67129299D02*
X134064381Y-67081680D01*
X134064381Y-67081680D02*
X134016762Y-67034060D01*
X134873905Y-66129299D02*
X135207238Y-67129299D01*
X135207238Y-67129299D02*
X135540571Y-66129299D01*
X136223524Y-67081680D02*
X136366381Y-67129299D01*
X136366381Y-67129299D02*
X136604476Y-67129299D01*
X136604476Y-67129299D02*
X136699714Y-67081680D01*
X136699714Y-67081680D02*
X136747333Y-67034060D01*
X136747333Y-67034060D02*
X136794952Y-66938822D01*
X136794952Y-66938822D02*
X136794952Y-66843584D01*
X136794952Y-66843584D02*
X136747333Y-66748346D01*
X136747333Y-66748346D02*
X136699714Y-66700727D01*
X136699714Y-66700727D02*
X136604476Y-66653108D01*
X136604476Y-66653108D02*
X136414000Y-66605489D01*
X136414000Y-66605489D02*
X136318762Y-66557870D01*
X136318762Y-66557870D02*
X136271143Y-66510251D01*
X136271143Y-66510251D02*
X136223524Y-66415013D01*
X136223524Y-66415013D02*
X136223524Y-66319775D01*
X136223524Y-66319775D02*
X136271143Y-66224537D01*
X136271143Y-66224537D02*
X136318762Y-66176918D01*
X136318762Y-66176918D02*
X136414000Y-66129299D01*
X136414000Y-66129299D02*
X136652095Y-66129299D01*
X136652095Y-66129299D02*
X136794952Y-66176918D01*
X137794952Y-67034060D02*
X137747333Y-67081680D01*
X137747333Y-67081680D02*
X137604476Y-67129299D01*
X137604476Y-67129299D02*
X137509238Y-67129299D01*
X137509238Y-67129299D02*
X137366381Y-67081680D01*
X137366381Y-67081680D02*
X137271143Y-66986441D01*
X137271143Y-66986441D02*
X137223524Y-66891203D01*
X137223524Y-66891203D02*
X137175905Y-66700727D01*
X137175905Y-66700727D02*
X137175905Y-66557870D01*
X137175905Y-66557870D02*
X137223524Y-66367394D01*
X137223524Y-66367394D02*
X137271143Y-66272156D01*
X137271143Y-66272156D02*
X137366381Y-66176918D01*
X137366381Y-66176918D02*
X137509238Y-66129299D01*
X137509238Y-66129299D02*
X137604476Y-66129299D01*
X137604476Y-66129299D02*
X137747333Y-66176918D01*
X137747333Y-66176918D02*
X137794952Y-66224537D01*
X138699714Y-67129299D02*
X138223524Y-67129299D01*
X138223524Y-67129299D02*
X138223524Y-66129299D01*
X139501714Y-67081680D02*
X139644571Y-67129299D01*
X139644571Y-67129299D02*
X139882666Y-67129299D01*
X139882666Y-67129299D02*
X139977904Y-67081680D01*
X139977904Y-67081680D02*
X140025523Y-67034060D01*
X140025523Y-67034060D02*
X140073142Y-66938822D01*
X140073142Y-66938822D02*
X140073142Y-66843584D01*
X140073142Y-66843584D02*
X140025523Y-66748346D01*
X140025523Y-66748346D02*
X139977904Y-66700727D01*
X139977904Y-66700727D02*
X139882666Y-66653108D01*
X139882666Y-66653108D02*
X139692190Y-66605489D01*
X139692190Y-66605489D02*
X139596952Y-66557870D01*
X139596952Y-66557870D02*
X139549333Y-66510251D01*
X139549333Y-66510251D02*
X139501714Y-66415013D01*
X139501714Y-66415013D02*
X139501714Y-66319775D01*
X139501714Y-66319775D02*
X139549333Y-66224537D01*
X139549333Y-66224537D02*
X139596952Y-66176918D01*
X139596952Y-66176918D02*
X139692190Y-66129299D01*
X139692190Y-66129299D02*
X139930285Y-66129299D01*
X139930285Y-66129299D02*
X140073142Y-66176918D01*
X140501714Y-67129299D02*
X140501714Y-66129299D01*
X140501714Y-66129299D02*
X140739809Y-66129299D01*
X140739809Y-66129299D02*
X140882666Y-66176918D01*
X140882666Y-66176918D02*
X140977904Y-66272156D01*
X140977904Y-66272156D02*
X141025523Y-66367394D01*
X141025523Y-66367394D02*
X141073142Y-66557870D01*
X141073142Y-66557870D02*
X141073142Y-66700727D01*
X141073142Y-66700727D02*
X141025523Y-66891203D01*
X141025523Y-66891203D02*
X140977904Y-66986441D01*
X140977904Y-66986441D02*
X140882666Y-67081680D01*
X140882666Y-67081680D02*
X140739809Y-67129299D01*
X140739809Y-67129299D02*
X140501714Y-67129299D01*
X141454095Y-66843584D02*
X141930285Y-66843584D01*
X141358857Y-67129299D02*
X141692190Y-66129299D01*
X141692190Y-66129299D02*
X142025523Y-67129299D01*
D12*
X117821380Y-94867809D02*
X117821380Y-93915428D01*
X116988047Y-94510666D02*
X119130904Y-94510666D01*
X119130904Y-94510666D02*
X119369000Y-94391619D01*
X119369000Y-94391619D02*
X119488047Y-94153524D01*
X119488047Y-94153524D02*
X119488047Y-93915428D01*
X119369000Y-92129714D02*
X119488047Y-92367810D01*
X119488047Y-92367810D02*
X119488047Y-92844000D01*
X119488047Y-92844000D02*
X119369000Y-93082095D01*
X119369000Y-93082095D02*
X119130904Y-93201143D01*
X119130904Y-93201143D02*
X118178523Y-93201143D01*
X118178523Y-93201143D02*
X117940428Y-93082095D01*
X117940428Y-93082095D02*
X117821380Y-92844000D01*
X117821380Y-92844000D02*
X117821380Y-92367810D01*
X117821380Y-92367810D02*
X117940428Y-92129714D01*
X117940428Y-92129714D02*
X118178523Y-92010667D01*
X118178523Y-92010667D02*
X118416619Y-92010667D01*
X118416619Y-92010667D02*
X118654714Y-93201143D01*
X119369000Y-91058286D02*
X119488047Y-90820191D01*
X119488047Y-90820191D02*
X119488047Y-90344000D01*
X119488047Y-90344000D02*
X119369000Y-90105905D01*
X119369000Y-90105905D02*
X119130904Y-89986857D01*
X119130904Y-89986857D02*
X119011857Y-89986857D01*
X119011857Y-89986857D02*
X118773761Y-90105905D01*
X118773761Y-90105905D02*
X118654714Y-90344000D01*
X118654714Y-90344000D02*
X118654714Y-90701143D01*
X118654714Y-90701143D02*
X118535666Y-90939238D01*
X118535666Y-90939238D02*
X118297571Y-91058286D01*
X118297571Y-91058286D02*
X118178523Y-91058286D01*
X118178523Y-91058286D02*
X117940428Y-90939238D01*
X117940428Y-90939238D02*
X117821380Y-90701143D01*
X117821380Y-90701143D02*
X117821380Y-90344000D01*
X117821380Y-90344000D02*
X117940428Y-90105905D01*
X117821380Y-89272571D02*
X117821380Y-88320190D01*
X116988047Y-88915428D02*
X119130904Y-88915428D01*
X119130904Y-88915428D02*
X119369000Y-88796381D01*
X119369000Y-88796381D02*
X119488047Y-88558286D01*
X119488047Y-88558286D02*
X119488047Y-88320190D01*
X119488047Y-85582095D02*
X116988047Y-85582095D01*
X117940428Y-85582095D02*
X117821380Y-85344000D01*
X117821380Y-85344000D02*
X117821380Y-84867810D01*
X117821380Y-84867810D02*
X117940428Y-84629714D01*
X117940428Y-84629714D02*
X118059476Y-84510667D01*
X118059476Y-84510667D02*
X118297571Y-84391619D01*
X118297571Y-84391619D02*
X119011857Y-84391619D01*
X119011857Y-84391619D02*
X119249952Y-84510667D01*
X119249952Y-84510667D02*
X119369000Y-84629714D01*
X119369000Y-84629714D02*
X119488047Y-84867810D01*
X119488047Y-84867810D02*
X119488047Y-85344000D01*
X119488047Y-85344000D02*
X119369000Y-85582095D01*
X119488047Y-82963048D02*
X119369000Y-83201143D01*
X119369000Y-83201143D02*
X119249952Y-83320190D01*
X119249952Y-83320190D02*
X119011857Y-83439238D01*
X119011857Y-83439238D02*
X118297571Y-83439238D01*
X118297571Y-83439238D02*
X118059476Y-83320190D01*
X118059476Y-83320190D02*
X117940428Y-83201143D01*
X117940428Y-83201143D02*
X117821380Y-82963048D01*
X117821380Y-82963048D02*
X117821380Y-82605905D01*
X117821380Y-82605905D02*
X117940428Y-82367809D01*
X117940428Y-82367809D02*
X118059476Y-82248762D01*
X118059476Y-82248762D02*
X118297571Y-82129714D01*
X118297571Y-82129714D02*
X119011857Y-82129714D01*
X119011857Y-82129714D02*
X119249952Y-82248762D01*
X119249952Y-82248762D02*
X119369000Y-82367809D01*
X119369000Y-82367809D02*
X119488047Y-82605905D01*
X119488047Y-82605905D02*
X119488047Y-82963048D01*
X119488047Y-79986857D02*
X118178523Y-79986857D01*
X118178523Y-79986857D02*
X117940428Y-80105904D01*
X117940428Y-80105904D02*
X117821380Y-80344000D01*
X117821380Y-80344000D02*
X117821380Y-80820190D01*
X117821380Y-80820190D02*
X117940428Y-81058285D01*
X119369000Y-79986857D02*
X119488047Y-80224952D01*
X119488047Y-80224952D02*
X119488047Y-80820190D01*
X119488047Y-80820190D02*
X119369000Y-81058285D01*
X119369000Y-81058285D02*
X119130904Y-81177333D01*
X119130904Y-81177333D02*
X118892809Y-81177333D01*
X118892809Y-81177333D02*
X118654714Y-81058285D01*
X118654714Y-81058285D02*
X118535666Y-80820190D01*
X118535666Y-80820190D02*
X118535666Y-80224952D01*
X118535666Y-80224952D02*
X118416619Y-79986857D01*
X119488047Y-78796380D02*
X117821380Y-78796380D01*
X118297571Y-78796380D02*
X118059476Y-78677333D01*
X118059476Y-78677333D02*
X117940428Y-78558285D01*
X117940428Y-78558285D02*
X117821380Y-78320190D01*
X117821380Y-78320190D02*
X117821380Y-78082095D01*
X119488047Y-76177333D02*
X116988047Y-76177333D01*
X119369000Y-76177333D02*
X119488047Y-76415428D01*
X119488047Y-76415428D02*
X119488047Y-76891619D01*
X119488047Y-76891619D02*
X119369000Y-77129714D01*
X119369000Y-77129714D02*
X119249952Y-77248761D01*
X119249952Y-77248761D02*
X119011857Y-77367809D01*
X119011857Y-77367809D02*
X118297571Y-77367809D01*
X118297571Y-77367809D02*
X118059476Y-77248761D01*
X118059476Y-77248761D02*
X117940428Y-77129714D01*
X117940428Y-77129714D02*
X117821380Y-76891619D01*
X117821380Y-76891619D02*
X117821380Y-76415428D01*
X117821380Y-76415428D02*
X117940428Y-76177333D01*
X123806047Y-104054476D02*
X122139380Y-104054476D01*
X122615571Y-104054476D02*
X122377476Y-103935429D01*
X122377476Y-103935429D02*
X122258428Y-103816381D01*
X122258428Y-103816381D02*
X122139380Y-103578286D01*
X122139380Y-103578286D02*
X122139380Y-103340191D01*
X123806047Y-102149715D02*
X123687000Y-102387810D01*
X123687000Y-102387810D02*
X123567952Y-102506857D01*
X123567952Y-102506857D02*
X123329857Y-102625905D01*
X123329857Y-102625905D02*
X122615571Y-102625905D01*
X122615571Y-102625905D02*
X122377476Y-102506857D01*
X122377476Y-102506857D02*
X122258428Y-102387810D01*
X122258428Y-102387810D02*
X122139380Y-102149715D01*
X122139380Y-102149715D02*
X122139380Y-101792572D01*
X122139380Y-101792572D02*
X122258428Y-101554476D01*
X122258428Y-101554476D02*
X122377476Y-101435429D01*
X122377476Y-101435429D02*
X122615571Y-101316381D01*
X122615571Y-101316381D02*
X123329857Y-101316381D01*
X123329857Y-101316381D02*
X123567952Y-101435429D01*
X123567952Y-101435429D02*
X123687000Y-101554476D01*
X123687000Y-101554476D02*
X123806047Y-101792572D01*
X123806047Y-101792572D02*
X123806047Y-102149715D01*
X123806047Y-100244952D02*
X122139380Y-100244952D01*
X122377476Y-100244952D02*
X122258428Y-100125905D01*
X122258428Y-100125905D02*
X122139380Y-99887810D01*
X122139380Y-99887810D02*
X122139380Y-99530667D01*
X122139380Y-99530667D02*
X122258428Y-99292571D01*
X122258428Y-99292571D02*
X122496523Y-99173524D01*
X122496523Y-99173524D02*
X123806047Y-99173524D01*
X122496523Y-99173524D02*
X122258428Y-99054476D01*
X122258428Y-99054476D02*
X122139380Y-98816381D01*
X122139380Y-98816381D02*
X122139380Y-98459238D01*
X122139380Y-98459238D02*
X122258428Y-98221143D01*
X122258428Y-98221143D02*
X122496523Y-98102095D01*
X122496523Y-98102095D02*
X123806047Y-98102095D01*
X123806047Y-95840191D02*
X122496523Y-95840191D01*
X122496523Y-95840191D02*
X122258428Y-95959238D01*
X122258428Y-95959238D02*
X122139380Y-96197334D01*
X122139380Y-96197334D02*
X122139380Y-96673524D01*
X122139380Y-96673524D02*
X122258428Y-96911619D01*
X123687000Y-95840191D02*
X123806047Y-96078286D01*
X123806047Y-96078286D02*
X123806047Y-96673524D01*
X123806047Y-96673524D02*
X123687000Y-96911619D01*
X123687000Y-96911619D02*
X123448904Y-97030667D01*
X123448904Y-97030667D02*
X123210809Y-97030667D01*
X123210809Y-97030667D02*
X122972714Y-96911619D01*
X122972714Y-96911619D02*
X122853666Y-96673524D01*
X122853666Y-96673524D02*
X122853666Y-96078286D01*
X122853666Y-96078286D02*
X122734619Y-95840191D01*
X122139380Y-94649714D02*
X123806047Y-94649714D01*
X122377476Y-94649714D02*
X122258428Y-94530667D01*
X122258428Y-94530667D02*
X122139380Y-94292572D01*
X122139380Y-94292572D02*
X122139380Y-93935429D01*
X122139380Y-93935429D02*
X122258428Y-93697333D01*
X122258428Y-93697333D02*
X122496523Y-93578286D01*
X122496523Y-93578286D02*
X123806047Y-93578286D01*
X122853666Y-92387809D02*
X122853666Y-90483048D01*
X123806047Y-88935429D02*
X123687000Y-89173524D01*
X123687000Y-89173524D02*
X123448904Y-89292571D01*
X123448904Y-89292571D02*
X121306047Y-89292571D01*
X123806047Y-86911619D02*
X122496523Y-86911619D01*
X122496523Y-86911619D02*
X122258428Y-87030666D01*
X122258428Y-87030666D02*
X122139380Y-87268762D01*
X122139380Y-87268762D02*
X122139380Y-87744952D01*
X122139380Y-87744952D02*
X122258428Y-87983047D01*
X123687000Y-86911619D02*
X123806047Y-87149714D01*
X123806047Y-87149714D02*
X123806047Y-87744952D01*
X123806047Y-87744952D02*
X123687000Y-87983047D01*
X123687000Y-87983047D02*
X123448904Y-88102095D01*
X123448904Y-88102095D02*
X123210809Y-88102095D01*
X123210809Y-88102095D02*
X122972714Y-87983047D01*
X122972714Y-87983047D02*
X122853666Y-87744952D01*
X122853666Y-87744952D02*
X122853666Y-87149714D01*
X122853666Y-87149714D02*
X122734619Y-86911619D01*
X123806047Y-85721142D02*
X121306047Y-85721142D01*
X122258428Y-85721142D02*
X122139380Y-85483047D01*
X122139380Y-85483047D02*
X122139380Y-85006857D01*
X122139380Y-85006857D02*
X122258428Y-84768761D01*
X122258428Y-84768761D02*
X122377476Y-84649714D01*
X122377476Y-84649714D02*
X122615571Y-84530666D01*
X122615571Y-84530666D02*
X123329857Y-84530666D01*
X123329857Y-84530666D02*
X123567952Y-84649714D01*
X123567952Y-84649714D02*
X123687000Y-84768761D01*
X123687000Y-84768761D02*
X123806047Y-85006857D01*
X123806047Y-85006857D02*
X123806047Y-85483047D01*
X123806047Y-85483047D02*
X123687000Y-85721142D01*
X123806047Y-83102095D02*
X123687000Y-83340190D01*
X123687000Y-83340190D02*
X123567952Y-83459237D01*
X123567952Y-83459237D02*
X123329857Y-83578285D01*
X123329857Y-83578285D02*
X122615571Y-83578285D01*
X122615571Y-83578285D02*
X122377476Y-83459237D01*
X122377476Y-83459237D02*
X122258428Y-83340190D01*
X122258428Y-83340190D02*
X122139380Y-83102095D01*
X122139380Y-83102095D02*
X122139380Y-82744952D01*
X122139380Y-82744952D02*
X122258428Y-82506856D01*
X122258428Y-82506856D02*
X122377476Y-82387809D01*
X122377476Y-82387809D02*
X122615571Y-82268761D01*
X122615571Y-82268761D02*
X123329857Y-82268761D01*
X123329857Y-82268761D02*
X123567952Y-82387809D01*
X123567952Y-82387809D02*
X123687000Y-82506856D01*
X123687000Y-82506856D02*
X123806047Y-82744952D01*
X123806047Y-82744952D02*
X123806047Y-83102095D01*
X122139380Y-81435428D02*
X123806047Y-80840190D01*
X123806047Y-80840190D02*
X122139380Y-80244951D01*
X123687000Y-79411618D02*
X123806047Y-79173523D01*
X123806047Y-79173523D02*
X123806047Y-78697332D01*
X123806047Y-78697332D02*
X123687000Y-78459237D01*
X123687000Y-78459237D02*
X123448904Y-78340189D01*
X123448904Y-78340189D02*
X123329857Y-78340189D01*
X123329857Y-78340189D02*
X123091761Y-78459237D01*
X123091761Y-78459237D02*
X122972714Y-78697332D01*
X122972714Y-78697332D02*
X122972714Y-79054475D01*
X122972714Y-79054475D02*
X122853666Y-79292570D01*
X122853666Y-79292570D02*
X122615571Y-79411618D01*
X122615571Y-79411618D02*
X122496523Y-79411618D01*
X122496523Y-79411618D02*
X122258428Y-79292570D01*
X122258428Y-79292570D02*
X122139380Y-79054475D01*
X122139380Y-79054475D02*
X122139380Y-78697332D01*
X122139380Y-78697332D02*
X122258428Y-78459237D01*
X123806047Y-77268760D02*
X121306047Y-77268760D01*
X122853666Y-77030665D02*
X123806047Y-76316379D01*
X122139380Y-76316379D02*
X123091761Y-77268760D01*
X122139380Y-75483046D02*
X123806047Y-74887808D01*
X122139380Y-74292569D02*
X123806047Y-74887808D01*
X123806047Y-74887808D02*
X124401285Y-75125903D01*
X124401285Y-75125903D02*
X124520333Y-75244950D01*
X124520333Y-75244950D02*
X124639380Y-75483046D01*
X123567952Y-73340188D02*
X123687000Y-73221141D01*
X123687000Y-73221141D02*
X123806047Y-73340188D01*
X123806047Y-73340188D02*
X123687000Y-73459236D01*
X123687000Y-73459236D02*
X123567952Y-73340188D01*
X123567952Y-73340188D02*
X123806047Y-73340188D01*
X123687000Y-71078284D02*
X123806047Y-71316379D01*
X123806047Y-71316379D02*
X123806047Y-71792570D01*
X123806047Y-71792570D02*
X123687000Y-72030665D01*
X123687000Y-72030665D02*
X123567952Y-72149712D01*
X123567952Y-72149712D02*
X123329857Y-72268760D01*
X123329857Y-72268760D02*
X122615571Y-72268760D01*
X122615571Y-72268760D02*
X122377476Y-72149712D01*
X122377476Y-72149712D02*
X122258428Y-72030665D01*
X122258428Y-72030665D02*
X122139380Y-71792570D01*
X122139380Y-71792570D02*
X122139380Y-71316379D01*
X122139380Y-71316379D02*
X122258428Y-71078284D01*
X122139380Y-70244951D02*
X122139380Y-68935427D01*
X122139380Y-68935427D02*
X123806047Y-70244951D01*
X123806047Y-70244951D02*
X123806047Y-68935427D01*
D10*
X129994299Y-64873094D02*
X128994299Y-64873094D01*
X128994299Y-64873094D02*
X128994299Y-64492142D01*
X128994299Y-64492142D02*
X129041918Y-64396904D01*
X129041918Y-64396904D02*
X129089537Y-64349285D01*
X129089537Y-64349285D02*
X129184775Y-64301666D01*
X129184775Y-64301666D02*
X129327632Y-64301666D01*
X129327632Y-64301666D02*
X129422870Y-64349285D01*
X129422870Y-64349285D02*
X129470489Y-64396904D01*
X129470489Y-64396904D02*
X129518108Y-64492142D01*
X129518108Y-64492142D02*
X129518108Y-64873094D01*
X128994299Y-63968332D02*
X128994299Y-63349285D01*
X128994299Y-63349285D02*
X129375251Y-63682618D01*
X129375251Y-63682618D02*
X129375251Y-63539761D01*
X129375251Y-63539761D02*
X129422870Y-63444523D01*
X129422870Y-63444523D02*
X129470489Y-63396904D01*
X129470489Y-63396904D02*
X129565727Y-63349285D01*
X129565727Y-63349285D02*
X129803822Y-63349285D01*
X129803822Y-63349285D02*
X129899060Y-63396904D01*
X129899060Y-63396904D02*
X129946680Y-63444523D01*
X129946680Y-63444523D02*
X129994299Y-63539761D01*
X129994299Y-63539761D02*
X129994299Y-63825475D01*
X129994299Y-63825475D02*
X129946680Y-63920713D01*
X129946680Y-63920713D02*
X129899060Y-63968332D01*
X132169299Y-82676904D02*
X132978822Y-82676904D01*
X132978822Y-82676904D02*
X133074060Y-82629285D01*
X133074060Y-82629285D02*
X133121680Y-82581666D01*
X133121680Y-82581666D02*
X133169299Y-82486428D01*
X133169299Y-82486428D02*
X133169299Y-82295952D01*
X133169299Y-82295952D02*
X133121680Y-82200714D01*
X133121680Y-82200714D02*
X133074060Y-82153095D01*
X133074060Y-82153095D02*
X132978822Y-82105476D01*
X132978822Y-82105476D02*
X132169299Y-82105476D01*
X133169299Y-81105476D02*
X133169299Y-81676904D01*
X133169299Y-81391190D02*
X132169299Y-81391190D01*
X132169299Y-81391190D02*
X132312156Y-81486428D01*
X132312156Y-81486428D02*
X132407394Y-81581666D01*
X132407394Y-81581666D02*
X132455013Y-81676904D01*
X145361299Y-98813857D02*
X144885108Y-99147190D01*
X145361299Y-99385285D02*
X144361299Y-99385285D01*
X144361299Y-99385285D02*
X144361299Y-99004333D01*
X144361299Y-99004333D02*
X144408918Y-98909095D01*
X144408918Y-98909095D02*
X144456537Y-98861476D01*
X144456537Y-98861476D02*
X144551775Y-98813857D01*
X144551775Y-98813857D02*
X144694632Y-98813857D01*
X144694632Y-98813857D02*
X144789870Y-98861476D01*
X144789870Y-98861476D02*
X144837489Y-98909095D01*
X144837489Y-98909095D02*
X144885108Y-99004333D01*
X144885108Y-99004333D02*
X144885108Y-99385285D01*
X145361299Y-97861476D02*
X145361299Y-98432904D01*
X145361299Y-98147190D02*
X144361299Y-98147190D01*
X144361299Y-98147190D02*
X144504156Y-98242428D01*
X144504156Y-98242428D02*
X144599394Y-98337666D01*
X144599394Y-98337666D02*
X144647013Y-98432904D01*
X144361299Y-97004333D02*
X144361299Y-97194809D01*
X144361299Y-97194809D02*
X144408918Y-97290047D01*
X144408918Y-97290047D02*
X144456537Y-97337666D01*
X144456537Y-97337666D02*
X144599394Y-97432904D01*
X144599394Y-97432904D02*
X144789870Y-97480523D01*
X144789870Y-97480523D02*
X145170822Y-97480523D01*
X145170822Y-97480523D02*
X145266060Y-97432904D01*
X145266060Y-97432904D02*
X145313680Y-97385285D01*
X145313680Y-97385285D02*
X145361299Y-97290047D01*
X145361299Y-97290047D02*
X145361299Y-97099571D01*
X145361299Y-97099571D02*
X145313680Y-97004333D01*
X145313680Y-97004333D02*
X145266060Y-96956714D01*
X145266060Y-96956714D02*
X145170822Y-96909095D01*
X145170822Y-96909095D02*
X144932727Y-96909095D01*
X144932727Y-96909095D02*
X144837489Y-96956714D01*
X144837489Y-96956714D02*
X144789870Y-97004333D01*
X144789870Y-97004333D02*
X144742251Y-97099571D01*
X144742251Y-97099571D02*
X144742251Y-97290047D01*
X144742251Y-97290047D02*
X144789870Y-97385285D01*
X144789870Y-97385285D02*
X144837489Y-97432904D01*
X144837489Y-97432904D02*
X144932727Y-97480523D01*
X145361299Y-91828857D02*
X144885108Y-92162190D01*
X145361299Y-92400285D02*
X144361299Y-92400285D01*
X144361299Y-92400285D02*
X144361299Y-92019333D01*
X144361299Y-92019333D02*
X144408918Y-91924095D01*
X144408918Y-91924095D02*
X144456537Y-91876476D01*
X144456537Y-91876476D02*
X144551775Y-91828857D01*
X144551775Y-91828857D02*
X144694632Y-91828857D01*
X144694632Y-91828857D02*
X144789870Y-91876476D01*
X144789870Y-91876476D02*
X144837489Y-91924095D01*
X144837489Y-91924095D02*
X144885108Y-92019333D01*
X144885108Y-92019333D02*
X144885108Y-92400285D01*
X145361299Y-90876476D02*
X145361299Y-91447904D01*
X145361299Y-91162190D02*
X144361299Y-91162190D01*
X144361299Y-91162190D02*
X144504156Y-91257428D01*
X144504156Y-91257428D02*
X144599394Y-91352666D01*
X144599394Y-91352666D02*
X144647013Y-91447904D01*
X144361299Y-89971714D02*
X144361299Y-90447904D01*
X144361299Y-90447904D02*
X144837489Y-90495523D01*
X144837489Y-90495523D02*
X144789870Y-90447904D01*
X144789870Y-90447904D02*
X144742251Y-90352666D01*
X144742251Y-90352666D02*
X144742251Y-90114571D01*
X144742251Y-90114571D02*
X144789870Y-90019333D01*
X144789870Y-90019333D02*
X144837489Y-89971714D01*
X144837489Y-89971714D02*
X144932727Y-89924095D01*
X144932727Y-89924095D02*
X145170822Y-89924095D01*
X145170822Y-89924095D02*
X145266060Y-89971714D01*
X145266060Y-89971714D02*
X145313680Y-90019333D01*
X145313680Y-90019333D02*
X145361299Y-90114571D01*
X145361299Y-90114571D02*
X145361299Y-90352666D01*
X145361299Y-90352666D02*
X145313680Y-90447904D01*
X145313680Y-90447904D02*
X145266060Y-90495523D01*
X126184299Y-98813857D02*
X125708108Y-99147190D01*
X126184299Y-99385285D02*
X125184299Y-99385285D01*
X125184299Y-99385285D02*
X125184299Y-99004333D01*
X125184299Y-99004333D02*
X125231918Y-98909095D01*
X125231918Y-98909095D02*
X125279537Y-98861476D01*
X125279537Y-98861476D02*
X125374775Y-98813857D01*
X125374775Y-98813857D02*
X125517632Y-98813857D01*
X125517632Y-98813857D02*
X125612870Y-98861476D01*
X125612870Y-98861476D02*
X125660489Y-98909095D01*
X125660489Y-98909095D02*
X125708108Y-99004333D01*
X125708108Y-99004333D02*
X125708108Y-99385285D01*
X126184299Y-97861476D02*
X126184299Y-98432904D01*
X126184299Y-98147190D02*
X125184299Y-98147190D01*
X125184299Y-98147190D02*
X125327156Y-98242428D01*
X125327156Y-98242428D02*
X125422394Y-98337666D01*
X125422394Y-98337666D02*
X125470013Y-98432904D01*
X125184299Y-97528142D02*
X125184299Y-96909095D01*
X125184299Y-96909095D02*
X125565251Y-97242428D01*
X125565251Y-97242428D02*
X125565251Y-97099571D01*
X125565251Y-97099571D02*
X125612870Y-97004333D01*
X125612870Y-97004333D02*
X125660489Y-96956714D01*
X125660489Y-96956714D02*
X125755727Y-96909095D01*
X125755727Y-96909095D02*
X125993822Y-96909095D01*
X125993822Y-96909095D02*
X126089060Y-96956714D01*
X126089060Y-96956714D02*
X126136680Y-97004333D01*
X126136680Y-97004333D02*
X126184299Y-97099571D01*
X126184299Y-97099571D02*
X126184299Y-97385285D01*
X126184299Y-97385285D02*
X126136680Y-97480523D01*
X126136680Y-97480523D02*
X126089060Y-97528142D01*
X126184299Y-91828857D02*
X125708108Y-92162190D01*
X126184299Y-92400285D02*
X125184299Y-92400285D01*
X125184299Y-92400285D02*
X125184299Y-92019333D01*
X125184299Y-92019333D02*
X125231918Y-91924095D01*
X125231918Y-91924095D02*
X125279537Y-91876476D01*
X125279537Y-91876476D02*
X125374775Y-91828857D01*
X125374775Y-91828857D02*
X125517632Y-91828857D01*
X125517632Y-91828857D02*
X125612870Y-91876476D01*
X125612870Y-91876476D02*
X125660489Y-91924095D01*
X125660489Y-91924095D02*
X125708108Y-92019333D01*
X125708108Y-92019333D02*
X125708108Y-92400285D01*
X126184299Y-90876476D02*
X126184299Y-91447904D01*
X126184299Y-91162190D02*
X125184299Y-91162190D01*
X125184299Y-91162190D02*
X125327156Y-91257428D01*
X125327156Y-91257428D02*
X125422394Y-91352666D01*
X125422394Y-91352666D02*
X125470013Y-91447904D01*
X125279537Y-90495523D02*
X125231918Y-90447904D01*
X125231918Y-90447904D02*
X125184299Y-90352666D01*
X125184299Y-90352666D02*
X125184299Y-90114571D01*
X125184299Y-90114571D02*
X125231918Y-90019333D01*
X125231918Y-90019333D02*
X125279537Y-89971714D01*
X125279537Y-89971714D02*
X125374775Y-89924095D01*
X125374775Y-89924095D02*
X125470013Y-89924095D01*
X125470013Y-89924095D02*
X125612870Y-89971714D01*
X125612870Y-89971714D02*
X126184299Y-90543142D01*
X126184299Y-90543142D02*
X126184299Y-89924095D01*
X145361299Y-112783857D02*
X144885108Y-113117190D01*
X145361299Y-113355285D02*
X144361299Y-113355285D01*
X144361299Y-113355285D02*
X144361299Y-112974333D01*
X144361299Y-112974333D02*
X144408918Y-112879095D01*
X144408918Y-112879095D02*
X144456537Y-112831476D01*
X144456537Y-112831476D02*
X144551775Y-112783857D01*
X144551775Y-112783857D02*
X144694632Y-112783857D01*
X144694632Y-112783857D02*
X144789870Y-112831476D01*
X144789870Y-112831476D02*
X144837489Y-112879095D01*
X144837489Y-112879095D02*
X144885108Y-112974333D01*
X144885108Y-112974333D02*
X144885108Y-113355285D01*
X145361299Y-111831476D02*
X145361299Y-112402904D01*
X145361299Y-112117190D02*
X144361299Y-112117190D01*
X144361299Y-112117190D02*
X144504156Y-112212428D01*
X144504156Y-112212428D02*
X144599394Y-112307666D01*
X144599394Y-112307666D02*
X144647013Y-112402904D01*
X145361299Y-110879095D02*
X145361299Y-111450523D01*
X145361299Y-111164809D02*
X144361299Y-111164809D01*
X144361299Y-111164809D02*
X144504156Y-111260047D01*
X144504156Y-111260047D02*
X144599394Y-111355285D01*
X144599394Y-111355285D02*
X144647013Y-111450523D01*
X145361299Y-105798857D02*
X144885108Y-106132190D01*
X145361299Y-106370285D02*
X144361299Y-106370285D01*
X144361299Y-106370285D02*
X144361299Y-105989333D01*
X144361299Y-105989333D02*
X144408918Y-105894095D01*
X144408918Y-105894095D02*
X144456537Y-105846476D01*
X144456537Y-105846476D02*
X144551775Y-105798857D01*
X144551775Y-105798857D02*
X144694632Y-105798857D01*
X144694632Y-105798857D02*
X144789870Y-105846476D01*
X144789870Y-105846476D02*
X144837489Y-105894095D01*
X144837489Y-105894095D02*
X144885108Y-105989333D01*
X144885108Y-105989333D02*
X144885108Y-106370285D01*
X145361299Y-104846476D02*
X145361299Y-105417904D01*
X145361299Y-105132190D02*
X144361299Y-105132190D01*
X144361299Y-105132190D02*
X144504156Y-105227428D01*
X144504156Y-105227428D02*
X144599394Y-105322666D01*
X144599394Y-105322666D02*
X144647013Y-105417904D01*
X144361299Y-104227428D02*
X144361299Y-104132190D01*
X144361299Y-104132190D02*
X144408918Y-104036952D01*
X144408918Y-104036952D02*
X144456537Y-103989333D01*
X144456537Y-103989333D02*
X144551775Y-103941714D01*
X144551775Y-103941714D02*
X144742251Y-103894095D01*
X144742251Y-103894095D02*
X144980346Y-103894095D01*
X144980346Y-103894095D02*
X145170822Y-103941714D01*
X145170822Y-103941714D02*
X145266060Y-103989333D01*
X145266060Y-103989333D02*
X145313680Y-104036952D01*
X145313680Y-104036952D02*
X145361299Y-104132190D01*
X145361299Y-104132190D02*
X145361299Y-104227428D01*
X145361299Y-104227428D02*
X145313680Y-104322666D01*
X145313680Y-104322666D02*
X145266060Y-104370285D01*
X145266060Y-104370285D02*
X145170822Y-104417904D01*
X145170822Y-104417904D02*
X144980346Y-104465523D01*
X144980346Y-104465523D02*
X144742251Y-104465523D01*
X144742251Y-104465523D02*
X144551775Y-104417904D01*
X144551775Y-104417904D02*
X144456537Y-104370285D01*
X144456537Y-104370285D02*
X144408918Y-104322666D01*
X144408918Y-104322666D02*
X144361299Y-104227428D01*
X126184299Y-112561666D02*
X125708108Y-112894999D01*
X126184299Y-113133094D02*
X125184299Y-113133094D01*
X125184299Y-113133094D02*
X125184299Y-112752142D01*
X125184299Y-112752142D02*
X125231918Y-112656904D01*
X125231918Y-112656904D02*
X125279537Y-112609285D01*
X125279537Y-112609285D02*
X125374775Y-112561666D01*
X125374775Y-112561666D02*
X125517632Y-112561666D01*
X125517632Y-112561666D02*
X125612870Y-112609285D01*
X125612870Y-112609285D02*
X125660489Y-112656904D01*
X125660489Y-112656904D02*
X125708108Y-112752142D01*
X125708108Y-112752142D02*
X125708108Y-113133094D01*
X125612870Y-111990237D02*
X125565251Y-112085475D01*
X125565251Y-112085475D02*
X125517632Y-112133094D01*
X125517632Y-112133094D02*
X125422394Y-112180713D01*
X125422394Y-112180713D02*
X125374775Y-112180713D01*
X125374775Y-112180713D02*
X125279537Y-112133094D01*
X125279537Y-112133094D02*
X125231918Y-112085475D01*
X125231918Y-112085475D02*
X125184299Y-111990237D01*
X125184299Y-111990237D02*
X125184299Y-111799761D01*
X125184299Y-111799761D02*
X125231918Y-111704523D01*
X125231918Y-111704523D02*
X125279537Y-111656904D01*
X125279537Y-111656904D02*
X125374775Y-111609285D01*
X125374775Y-111609285D02*
X125422394Y-111609285D01*
X125422394Y-111609285D02*
X125517632Y-111656904D01*
X125517632Y-111656904D02*
X125565251Y-111704523D01*
X125565251Y-111704523D02*
X125612870Y-111799761D01*
X125612870Y-111799761D02*
X125612870Y-111990237D01*
X125612870Y-111990237D02*
X125660489Y-112085475D01*
X125660489Y-112085475D02*
X125708108Y-112133094D01*
X125708108Y-112133094D02*
X125803346Y-112180713D01*
X125803346Y-112180713D02*
X125993822Y-112180713D01*
X125993822Y-112180713D02*
X126089060Y-112133094D01*
X126089060Y-112133094D02*
X126136680Y-112085475D01*
X126136680Y-112085475D02*
X126184299Y-111990237D01*
X126184299Y-111990237D02*
X126184299Y-111799761D01*
X126184299Y-111799761D02*
X126136680Y-111704523D01*
X126136680Y-111704523D02*
X126089060Y-111656904D01*
X126089060Y-111656904D02*
X125993822Y-111609285D01*
X125993822Y-111609285D02*
X125803346Y-111609285D01*
X125803346Y-111609285D02*
X125708108Y-111656904D01*
X125708108Y-111656904D02*
X125660489Y-111704523D01*
X125660489Y-111704523D02*
X125612870Y-111799761D01*
X126184299Y-105322666D02*
X125708108Y-105655999D01*
X126184299Y-105894094D02*
X125184299Y-105894094D01*
X125184299Y-105894094D02*
X125184299Y-105513142D01*
X125184299Y-105513142D02*
X125231918Y-105417904D01*
X125231918Y-105417904D02*
X125279537Y-105370285D01*
X125279537Y-105370285D02*
X125374775Y-105322666D01*
X125374775Y-105322666D02*
X125517632Y-105322666D01*
X125517632Y-105322666D02*
X125612870Y-105370285D01*
X125612870Y-105370285D02*
X125660489Y-105417904D01*
X125660489Y-105417904D02*
X125708108Y-105513142D01*
X125708108Y-105513142D02*
X125708108Y-105894094D01*
X125184299Y-104989332D02*
X125184299Y-104322666D01*
X125184299Y-104322666D02*
X126184299Y-104751237D01*
X143964299Y-71794666D02*
X143488108Y-72127999D01*
X143964299Y-72366094D02*
X142964299Y-72366094D01*
X142964299Y-72366094D02*
X142964299Y-71985142D01*
X142964299Y-71985142D02*
X143011918Y-71889904D01*
X143011918Y-71889904D02*
X143059537Y-71842285D01*
X143059537Y-71842285D02*
X143154775Y-71794666D01*
X143154775Y-71794666D02*
X143297632Y-71794666D01*
X143297632Y-71794666D02*
X143392870Y-71842285D01*
X143392870Y-71842285D02*
X143440489Y-71889904D01*
X143440489Y-71889904D02*
X143488108Y-71985142D01*
X143488108Y-71985142D02*
X143488108Y-72366094D01*
X142964299Y-70937523D02*
X142964299Y-71127999D01*
X142964299Y-71127999D02*
X143011918Y-71223237D01*
X143011918Y-71223237D02*
X143059537Y-71270856D01*
X143059537Y-71270856D02*
X143202394Y-71366094D01*
X143202394Y-71366094D02*
X143392870Y-71413713D01*
X143392870Y-71413713D02*
X143773822Y-71413713D01*
X143773822Y-71413713D02*
X143869060Y-71366094D01*
X143869060Y-71366094D02*
X143916680Y-71318475D01*
X143916680Y-71318475D02*
X143964299Y-71223237D01*
X143964299Y-71223237D02*
X143964299Y-71032761D01*
X143964299Y-71032761D02*
X143916680Y-70937523D01*
X143916680Y-70937523D02*
X143869060Y-70889904D01*
X143869060Y-70889904D02*
X143773822Y-70842285D01*
X143773822Y-70842285D02*
X143535727Y-70842285D01*
X143535727Y-70842285D02*
X143440489Y-70889904D01*
X143440489Y-70889904D02*
X143392870Y-70937523D01*
X143392870Y-70937523D02*
X143345251Y-71032761D01*
X143345251Y-71032761D02*
X143345251Y-71223237D01*
X143345251Y-71223237D02*
X143392870Y-71318475D01*
X143392870Y-71318475D02*
X143440489Y-71366094D01*
X143440489Y-71366094D02*
X143535727Y-71413713D01*
X128724299Y-78398666D02*
X128248108Y-78731999D01*
X128724299Y-78970094D02*
X127724299Y-78970094D01*
X127724299Y-78970094D02*
X127724299Y-78589142D01*
X127724299Y-78589142D02*
X127771918Y-78493904D01*
X127771918Y-78493904D02*
X127819537Y-78446285D01*
X127819537Y-78446285D02*
X127914775Y-78398666D01*
X127914775Y-78398666D02*
X128057632Y-78398666D01*
X128057632Y-78398666D02*
X128152870Y-78446285D01*
X128152870Y-78446285D02*
X128200489Y-78493904D01*
X128200489Y-78493904D02*
X128248108Y-78589142D01*
X128248108Y-78589142D02*
X128248108Y-78970094D01*
X127724299Y-77493904D02*
X127724299Y-77970094D01*
X127724299Y-77970094D02*
X128200489Y-78017713D01*
X128200489Y-78017713D02*
X128152870Y-77970094D01*
X128152870Y-77970094D02*
X128105251Y-77874856D01*
X128105251Y-77874856D02*
X128105251Y-77636761D01*
X128105251Y-77636761D02*
X128152870Y-77541523D01*
X128152870Y-77541523D02*
X128200489Y-77493904D01*
X128200489Y-77493904D02*
X128295727Y-77446285D01*
X128295727Y-77446285D02*
X128533822Y-77446285D01*
X128533822Y-77446285D02*
X128629060Y-77493904D01*
X128629060Y-77493904D02*
X128676680Y-77541523D01*
X128676680Y-77541523D02*
X128724299Y-77636761D01*
X128724299Y-77636761D02*
X128724299Y-77874856D01*
X128724299Y-77874856D02*
X128676680Y-77970094D01*
X128676680Y-77970094D02*
X128629060Y-78017713D01*
X135945714Y-94434299D02*
X135945714Y-93434299D01*
X135945714Y-93434299D02*
X136326666Y-93434299D01*
X136326666Y-93434299D02*
X136421904Y-93481918D01*
X136421904Y-93481918D02*
X136469523Y-93529537D01*
X136469523Y-93529537D02*
X136517142Y-93624775D01*
X136517142Y-93624775D02*
X136517142Y-93767632D01*
X136517142Y-93767632D02*
X136469523Y-93862870D01*
X136469523Y-93862870D02*
X136421904Y-93910489D01*
X136421904Y-93910489D02*
X136326666Y-93958108D01*
X136326666Y-93958108D02*
X135945714Y-93958108D01*
X137469523Y-94434299D02*
X136898095Y-94434299D01*
X137183809Y-94434299D02*
X137183809Y-93434299D01*
X137183809Y-93434299D02*
X137088571Y-93577156D01*
X137088571Y-93577156D02*
X136993333Y-93672394D01*
X136993333Y-93672394D02*
X136898095Y-93720013D01*
X138326666Y-93767632D02*
X138326666Y-94434299D01*
X138088571Y-93386680D02*
X137850476Y-94100965D01*
X137850476Y-94100965D02*
X138469523Y-94100965D01*
X129595714Y-94434299D02*
X129595714Y-93434299D01*
X129595714Y-93434299D02*
X129976666Y-93434299D01*
X129976666Y-93434299D02*
X130071904Y-93481918D01*
X130071904Y-93481918D02*
X130119523Y-93529537D01*
X130119523Y-93529537D02*
X130167142Y-93624775D01*
X130167142Y-93624775D02*
X130167142Y-93767632D01*
X130167142Y-93767632D02*
X130119523Y-93862870D01*
X130119523Y-93862870D02*
X130071904Y-93910489D01*
X130071904Y-93910489D02*
X129976666Y-93958108D01*
X129976666Y-93958108D02*
X129595714Y-93958108D01*
X131119523Y-94434299D02*
X130548095Y-94434299D01*
X130833809Y-94434299D02*
X130833809Y-93434299D01*
X130833809Y-93434299D02*
X130738571Y-93577156D01*
X130738571Y-93577156D02*
X130643333Y-93672394D01*
X130643333Y-93672394D02*
X130548095Y-93720013D01*
X131452857Y-93434299D02*
X132071904Y-93434299D01*
X132071904Y-93434299D02*
X131738571Y-93815251D01*
X131738571Y-93815251D02*
X131881428Y-93815251D01*
X131881428Y-93815251D02*
X131976666Y-93862870D01*
X131976666Y-93862870D02*
X132024285Y-93910489D01*
X132024285Y-93910489D02*
X132071904Y-94005727D01*
X132071904Y-94005727D02*
X132071904Y-94243822D01*
X132071904Y-94243822D02*
X132024285Y-94339060D01*
X132024285Y-94339060D02*
X131976666Y-94386680D01*
X131976666Y-94386680D02*
X131881428Y-94434299D01*
X131881428Y-94434299D02*
X131595714Y-94434299D01*
X131595714Y-94434299D02*
X131500476Y-94386680D01*
X131500476Y-94386680D02*
X131452857Y-94339060D01*
X135945714Y-101419299D02*
X135945714Y-100419299D01*
X135945714Y-100419299D02*
X136326666Y-100419299D01*
X136326666Y-100419299D02*
X136421904Y-100466918D01*
X136421904Y-100466918D02*
X136469523Y-100514537D01*
X136469523Y-100514537D02*
X136517142Y-100609775D01*
X136517142Y-100609775D02*
X136517142Y-100752632D01*
X136517142Y-100752632D02*
X136469523Y-100847870D01*
X136469523Y-100847870D02*
X136421904Y-100895489D01*
X136421904Y-100895489D02*
X136326666Y-100943108D01*
X136326666Y-100943108D02*
X135945714Y-100943108D01*
X137469523Y-101419299D02*
X136898095Y-101419299D01*
X137183809Y-101419299D02*
X137183809Y-100419299D01*
X137183809Y-100419299D02*
X137088571Y-100562156D01*
X137088571Y-100562156D02*
X136993333Y-100657394D01*
X136993333Y-100657394D02*
X136898095Y-100705013D01*
X137850476Y-100514537D02*
X137898095Y-100466918D01*
X137898095Y-100466918D02*
X137993333Y-100419299D01*
X137993333Y-100419299D02*
X138231428Y-100419299D01*
X138231428Y-100419299D02*
X138326666Y-100466918D01*
X138326666Y-100466918D02*
X138374285Y-100514537D01*
X138374285Y-100514537D02*
X138421904Y-100609775D01*
X138421904Y-100609775D02*
X138421904Y-100705013D01*
X138421904Y-100705013D02*
X138374285Y-100847870D01*
X138374285Y-100847870D02*
X137802857Y-101419299D01*
X137802857Y-101419299D02*
X138421904Y-101419299D01*
X129595714Y-101419299D02*
X129595714Y-100419299D01*
X129595714Y-100419299D02*
X129976666Y-100419299D01*
X129976666Y-100419299D02*
X130071904Y-100466918D01*
X130071904Y-100466918D02*
X130119523Y-100514537D01*
X130119523Y-100514537D02*
X130167142Y-100609775D01*
X130167142Y-100609775D02*
X130167142Y-100752632D01*
X130167142Y-100752632D02*
X130119523Y-100847870D01*
X130119523Y-100847870D02*
X130071904Y-100895489D01*
X130071904Y-100895489D02*
X129976666Y-100943108D01*
X129976666Y-100943108D02*
X129595714Y-100943108D01*
X131119523Y-101419299D02*
X130548095Y-101419299D01*
X130833809Y-101419299D02*
X130833809Y-100419299D01*
X130833809Y-100419299D02*
X130738571Y-100562156D01*
X130738571Y-100562156D02*
X130643333Y-100657394D01*
X130643333Y-100657394D02*
X130548095Y-100705013D01*
X132071904Y-101419299D02*
X131500476Y-101419299D01*
X131786190Y-101419299D02*
X131786190Y-100419299D01*
X131786190Y-100419299D02*
X131690952Y-100562156D01*
X131690952Y-100562156D02*
X131595714Y-100657394D01*
X131595714Y-100657394D02*
X131500476Y-100705013D01*
X135945714Y-108404299D02*
X135945714Y-107404299D01*
X135945714Y-107404299D02*
X136326666Y-107404299D01*
X136326666Y-107404299D02*
X136421904Y-107451918D01*
X136421904Y-107451918D02*
X136469523Y-107499537D01*
X136469523Y-107499537D02*
X136517142Y-107594775D01*
X136517142Y-107594775D02*
X136517142Y-107737632D01*
X136517142Y-107737632D02*
X136469523Y-107832870D01*
X136469523Y-107832870D02*
X136421904Y-107880489D01*
X136421904Y-107880489D02*
X136326666Y-107928108D01*
X136326666Y-107928108D02*
X135945714Y-107928108D01*
X137469523Y-108404299D02*
X136898095Y-108404299D01*
X137183809Y-108404299D02*
X137183809Y-107404299D01*
X137183809Y-107404299D02*
X137088571Y-107547156D01*
X137088571Y-107547156D02*
X136993333Y-107642394D01*
X136993333Y-107642394D02*
X136898095Y-107690013D01*
X138088571Y-107404299D02*
X138183809Y-107404299D01*
X138183809Y-107404299D02*
X138279047Y-107451918D01*
X138279047Y-107451918D02*
X138326666Y-107499537D01*
X138326666Y-107499537D02*
X138374285Y-107594775D01*
X138374285Y-107594775D02*
X138421904Y-107785251D01*
X138421904Y-107785251D02*
X138421904Y-108023346D01*
X138421904Y-108023346D02*
X138374285Y-108213822D01*
X138374285Y-108213822D02*
X138326666Y-108309060D01*
X138326666Y-108309060D02*
X138279047Y-108356680D01*
X138279047Y-108356680D02*
X138183809Y-108404299D01*
X138183809Y-108404299D02*
X138088571Y-108404299D01*
X138088571Y-108404299D02*
X137993333Y-108356680D01*
X137993333Y-108356680D02*
X137945714Y-108309060D01*
X137945714Y-108309060D02*
X137898095Y-108213822D01*
X137898095Y-108213822D02*
X137850476Y-108023346D01*
X137850476Y-108023346D02*
X137850476Y-107785251D01*
X137850476Y-107785251D02*
X137898095Y-107594775D01*
X137898095Y-107594775D02*
X137945714Y-107499537D01*
X137945714Y-107499537D02*
X137993333Y-107451918D01*
X137993333Y-107451918D02*
X138088571Y-107404299D01*
X130629299Y-108688094D02*
X129629299Y-108688094D01*
X129629299Y-108688094D02*
X129629299Y-108307142D01*
X129629299Y-108307142D02*
X129676918Y-108211904D01*
X129676918Y-108211904D02*
X129724537Y-108164285D01*
X129724537Y-108164285D02*
X129819775Y-108116666D01*
X129819775Y-108116666D02*
X129962632Y-108116666D01*
X129962632Y-108116666D02*
X130057870Y-108164285D01*
X130057870Y-108164285D02*
X130105489Y-108211904D01*
X130105489Y-108211904D02*
X130153108Y-108307142D01*
X130153108Y-108307142D02*
X130153108Y-108688094D01*
X130629299Y-107640475D02*
X130629299Y-107449999D01*
X130629299Y-107449999D02*
X130581680Y-107354761D01*
X130581680Y-107354761D02*
X130534060Y-107307142D01*
X130534060Y-107307142D02*
X130391203Y-107211904D01*
X130391203Y-107211904D02*
X130200727Y-107164285D01*
X130200727Y-107164285D02*
X129819775Y-107164285D01*
X129819775Y-107164285D02*
X129724537Y-107211904D01*
X129724537Y-107211904D02*
X129676918Y-107259523D01*
X129676918Y-107259523D02*
X129629299Y-107354761D01*
X129629299Y-107354761D02*
X129629299Y-107545237D01*
X129629299Y-107545237D02*
X129676918Y-107640475D01*
X129676918Y-107640475D02*
X129724537Y-107688094D01*
X129724537Y-107688094D02*
X129819775Y-107735713D01*
X129819775Y-107735713D02*
X130057870Y-107735713D01*
X130057870Y-107735713D02*
X130153108Y-107688094D01*
X130153108Y-107688094D02*
X130200727Y-107640475D01*
X130200727Y-107640475D02*
X130248346Y-107545237D01*
X130248346Y-107545237D02*
X130248346Y-107354761D01*
X130248346Y-107354761D02*
X130200727Y-107259523D01*
X130200727Y-107259523D02*
X130153108Y-107211904D01*
X130153108Y-107211904D02*
X130057870Y-107164285D01*
X136421905Y-115389299D02*
X136421905Y-114389299D01*
X136421905Y-114389299D02*
X136802857Y-114389299D01*
X136802857Y-114389299D02*
X136898095Y-114436918D01*
X136898095Y-114436918D02*
X136945714Y-114484537D01*
X136945714Y-114484537D02*
X136993333Y-114579775D01*
X136993333Y-114579775D02*
X136993333Y-114722632D01*
X136993333Y-114722632D02*
X136945714Y-114817870D01*
X136945714Y-114817870D02*
X136898095Y-114865489D01*
X136898095Y-114865489D02*
X136802857Y-114913108D01*
X136802857Y-114913108D02*
X136421905Y-114913108D01*
X137564762Y-114817870D02*
X137469524Y-114770251D01*
X137469524Y-114770251D02*
X137421905Y-114722632D01*
X137421905Y-114722632D02*
X137374286Y-114627394D01*
X137374286Y-114627394D02*
X137374286Y-114579775D01*
X137374286Y-114579775D02*
X137421905Y-114484537D01*
X137421905Y-114484537D02*
X137469524Y-114436918D01*
X137469524Y-114436918D02*
X137564762Y-114389299D01*
X137564762Y-114389299D02*
X137755238Y-114389299D01*
X137755238Y-114389299D02*
X137850476Y-114436918D01*
X137850476Y-114436918D02*
X137898095Y-114484537D01*
X137898095Y-114484537D02*
X137945714Y-114579775D01*
X137945714Y-114579775D02*
X137945714Y-114627394D01*
X137945714Y-114627394D02*
X137898095Y-114722632D01*
X137898095Y-114722632D02*
X137850476Y-114770251D01*
X137850476Y-114770251D02*
X137755238Y-114817870D01*
X137755238Y-114817870D02*
X137564762Y-114817870D01*
X137564762Y-114817870D02*
X137469524Y-114865489D01*
X137469524Y-114865489D02*
X137421905Y-114913108D01*
X137421905Y-114913108D02*
X137374286Y-115008346D01*
X137374286Y-115008346D02*
X137374286Y-115198822D01*
X137374286Y-115198822D02*
X137421905Y-115294060D01*
X137421905Y-115294060D02*
X137469524Y-115341680D01*
X137469524Y-115341680D02*
X137564762Y-115389299D01*
X137564762Y-115389299D02*
X137755238Y-115389299D01*
X137755238Y-115389299D02*
X137850476Y-115341680D01*
X137850476Y-115341680D02*
X137898095Y-115294060D01*
X137898095Y-115294060D02*
X137945714Y-115198822D01*
X137945714Y-115198822D02*
X137945714Y-115008346D01*
X137945714Y-115008346D02*
X137898095Y-114913108D01*
X137898095Y-114913108D02*
X137850476Y-114865489D01*
X137850476Y-114865489D02*
X137755238Y-114817870D01*
X130071905Y-115389299D02*
X130071905Y-114389299D01*
X130071905Y-114389299D02*
X130452857Y-114389299D01*
X130452857Y-114389299D02*
X130548095Y-114436918D01*
X130548095Y-114436918D02*
X130595714Y-114484537D01*
X130595714Y-114484537D02*
X130643333Y-114579775D01*
X130643333Y-114579775D02*
X130643333Y-114722632D01*
X130643333Y-114722632D02*
X130595714Y-114817870D01*
X130595714Y-114817870D02*
X130548095Y-114865489D01*
X130548095Y-114865489D02*
X130452857Y-114913108D01*
X130452857Y-114913108D02*
X130071905Y-114913108D01*
X130976667Y-114389299D02*
X131643333Y-114389299D01*
X131643333Y-114389299D02*
X131214762Y-115389299D01*
X137056905Y-77924299D02*
X137056905Y-76924299D01*
X137056905Y-76924299D02*
X137437857Y-76924299D01*
X137437857Y-76924299D02*
X137533095Y-76971918D01*
X137533095Y-76971918D02*
X137580714Y-77019537D01*
X137580714Y-77019537D02*
X137628333Y-77114775D01*
X137628333Y-77114775D02*
X137628333Y-77257632D01*
X137628333Y-77257632D02*
X137580714Y-77352870D01*
X137580714Y-77352870D02*
X137533095Y-77400489D01*
X137533095Y-77400489D02*
X137437857Y-77448108D01*
X137437857Y-77448108D02*
X137056905Y-77448108D01*
X138485476Y-76924299D02*
X138295000Y-76924299D01*
X138295000Y-76924299D02*
X138199762Y-76971918D01*
X138199762Y-76971918D02*
X138152143Y-77019537D01*
X138152143Y-77019537D02*
X138056905Y-77162394D01*
X138056905Y-77162394D02*
X138009286Y-77352870D01*
X138009286Y-77352870D02*
X138009286Y-77733822D01*
X138009286Y-77733822D02*
X138056905Y-77829060D01*
X138056905Y-77829060D02*
X138104524Y-77876680D01*
X138104524Y-77876680D02*
X138199762Y-77924299D01*
X138199762Y-77924299D02*
X138390238Y-77924299D01*
X138390238Y-77924299D02*
X138485476Y-77876680D01*
X138485476Y-77876680D02*
X138533095Y-77829060D01*
X138533095Y-77829060D02*
X138580714Y-77733822D01*
X138580714Y-77733822D02*
X138580714Y-77495727D01*
X138580714Y-77495727D02*
X138533095Y-77400489D01*
X138533095Y-77400489D02*
X138485476Y-77352870D01*
X138485476Y-77352870D02*
X138390238Y-77305251D01*
X138390238Y-77305251D02*
X138199762Y-77305251D01*
X138199762Y-77305251D02*
X138104524Y-77352870D01*
X138104524Y-77352870D02*
X138056905Y-77400489D01*
X138056905Y-77400489D02*
X138009286Y-77495727D01*
X130706905Y-77924299D02*
X130706905Y-76924299D01*
X130706905Y-76924299D02*
X131087857Y-76924299D01*
X131087857Y-76924299D02*
X131183095Y-76971918D01*
X131183095Y-76971918D02*
X131230714Y-77019537D01*
X131230714Y-77019537D02*
X131278333Y-77114775D01*
X131278333Y-77114775D02*
X131278333Y-77257632D01*
X131278333Y-77257632D02*
X131230714Y-77352870D01*
X131230714Y-77352870D02*
X131183095Y-77400489D01*
X131183095Y-77400489D02*
X131087857Y-77448108D01*
X131087857Y-77448108D02*
X130706905Y-77448108D01*
X132183095Y-76924299D02*
X131706905Y-76924299D01*
X131706905Y-76924299D02*
X131659286Y-77400489D01*
X131659286Y-77400489D02*
X131706905Y-77352870D01*
X131706905Y-77352870D02*
X131802143Y-77305251D01*
X131802143Y-77305251D02*
X132040238Y-77305251D01*
X132040238Y-77305251D02*
X132135476Y-77352870D01*
X132135476Y-77352870D02*
X132183095Y-77400489D01*
X132183095Y-77400489D02*
X132230714Y-77495727D01*
X132230714Y-77495727D02*
X132230714Y-77733822D01*
X132230714Y-77733822D02*
X132183095Y-77829060D01*
X132183095Y-77829060D02*
X132135476Y-77876680D01*
X132135476Y-77876680D02*
X132040238Y-77924299D01*
X132040238Y-77924299D02*
X131802143Y-77924299D01*
X131802143Y-77924299D02*
X131706905Y-77876680D01*
X131706905Y-77876680D02*
X131659286Y-77829060D01*
D13*
X129994819Y-69953094D02*
X128994819Y-69953094D01*
X128994819Y-69953094D02*
X128994819Y-69572142D01*
X128994819Y-69572142D02*
X129042438Y-69476904D01*
X129042438Y-69476904D02*
X129090057Y-69429285D01*
X129090057Y-69429285D02*
X129185295Y-69381666D01*
X129185295Y-69381666D02*
X129328152Y-69381666D01*
X129328152Y-69381666D02*
X129423390Y-69429285D01*
X129423390Y-69429285D02*
X129471009Y-69476904D01*
X129471009Y-69476904D02*
X129518628Y-69572142D01*
X129518628Y-69572142D02*
X129518628Y-69953094D01*
X129328152Y-68524523D02*
X129994819Y-68524523D01*
X128947200Y-68762618D02*
X129661485Y-69000713D01*
X129661485Y-69000713D02*
X129661485Y-68381666D01*
X126184819Y-123293094D02*
X125184819Y-123293094D01*
X125184819Y-123293094D02*
X125184819Y-122912142D01*
X125184819Y-122912142D02*
X125232438Y-122816904D01*
X125232438Y-122816904D02*
X125280057Y-122769285D01*
X125280057Y-122769285D02*
X125375295Y-122721666D01*
X125375295Y-122721666D02*
X125518152Y-122721666D01*
X125518152Y-122721666D02*
X125613390Y-122769285D01*
X125613390Y-122769285D02*
X125661009Y-122816904D01*
X125661009Y-122816904D02*
X125708628Y-122912142D01*
X125708628Y-122912142D02*
X125708628Y-123293094D01*
X125280057Y-122340713D02*
X125232438Y-122293094D01*
X125232438Y-122293094D02*
X125184819Y-122197856D01*
X125184819Y-122197856D02*
X125184819Y-121959761D01*
X125184819Y-121959761D02*
X125232438Y-121864523D01*
X125232438Y-121864523D02*
X125280057Y-121816904D01*
X125280057Y-121816904D02*
X125375295Y-121769285D01*
X125375295Y-121769285D02*
X125470533Y-121769285D01*
X125470533Y-121769285D02*
X125613390Y-121816904D01*
X125613390Y-121816904D02*
X126184819Y-122388332D01*
X126184819Y-122388332D02*
X126184819Y-121769285D01*
D10*
X125930299Y-118340094D02*
X124930299Y-118340094D01*
X124930299Y-118340094D02*
X124930299Y-117959142D01*
X124930299Y-117959142D02*
X124977918Y-117863904D01*
X124977918Y-117863904D02*
X125025537Y-117816285D01*
X125025537Y-117816285D02*
X125120775Y-117768666D01*
X125120775Y-117768666D02*
X125263632Y-117768666D01*
X125263632Y-117768666D02*
X125358870Y-117816285D01*
X125358870Y-117816285D02*
X125406489Y-117863904D01*
X125406489Y-117863904D02*
X125454108Y-117959142D01*
X125454108Y-117959142D02*
X125454108Y-118340094D01*
X125930299Y-116816285D02*
X125930299Y-117387713D01*
X125930299Y-117101999D02*
X124930299Y-117101999D01*
X124930299Y-117101999D02*
X125073156Y-117197237D01*
X125073156Y-117197237D02*
X125168394Y-117292475D01*
X125168394Y-117292475D02*
X125216013Y-117387713D01*
X120316666Y-125184299D02*
X120316666Y-125898584D01*
X120316666Y-125898584D02*
X120269047Y-126041441D01*
X120269047Y-126041441D02*
X120173809Y-126136680D01*
X120173809Y-126136680D02*
X120030952Y-126184299D01*
X120030952Y-126184299D02*
X119935714Y-126184299D01*
X120745238Y-125279537D02*
X120792857Y-125231918D01*
X120792857Y-125231918D02*
X120888095Y-125184299D01*
X120888095Y-125184299D02*
X121126190Y-125184299D01*
X121126190Y-125184299D02*
X121221428Y-125231918D01*
X121221428Y-125231918D02*
X121269047Y-125279537D01*
X121269047Y-125279537D02*
X121316666Y-125374775D01*
X121316666Y-125374775D02*
X121316666Y-125470013D01*
X121316666Y-125470013D02*
X121269047Y-125612870D01*
X121269047Y-125612870D02*
X120697619Y-126184299D01*
X120697619Y-126184299D02*
X121316666Y-126184299D01*
X144446666Y-132804299D02*
X144446666Y-133518584D01*
X144446666Y-133518584D02*
X144399047Y-133661441D01*
X144399047Y-133661441D02*
X144303809Y-133756680D01*
X144303809Y-133756680D02*
X144160952Y-133804299D01*
X144160952Y-133804299D02*
X144065714Y-133804299D01*
X145446666Y-133804299D02*
X144875238Y-133804299D01*
X145160952Y-133804299D02*
X145160952Y-132804299D01*
X145160952Y-132804299D02*
X145065714Y-132947156D01*
X145065714Y-132947156D02*
X144970476Y-133042394D01*
X144970476Y-133042394D02*
X144875238Y-133090013D01*
X142835333Y-84179060D02*
X142787714Y-84226680D01*
X142787714Y-84226680D02*
X142644857Y-84274299D01*
X142644857Y-84274299D02*
X142549619Y-84274299D01*
X142549619Y-84274299D02*
X142406762Y-84226680D01*
X142406762Y-84226680D02*
X142311524Y-84131441D01*
X142311524Y-84131441D02*
X142263905Y-84036203D01*
X142263905Y-84036203D02*
X142216286Y-83845727D01*
X142216286Y-83845727D02*
X142216286Y-83702870D01*
X142216286Y-83702870D02*
X142263905Y-83512394D01*
X142263905Y-83512394D02*
X142311524Y-83417156D01*
X142311524Y-83417156D02*
X142406762Y-83321918D01*
X142406762Y-83321918D02*
X142549619Y-83274299D01*
X142549619Y-83274299D02*
X142644857Y-83274299D01*
X142644857Y-83274299D02*
X142787714Y-83321918D01*
X142787714Y-83321918D02*
X142835333Y-83369537D01*
X143692476Y-83607632D02*
X143692476Y-84274299D01*
X143454381Y-83226680D02*
X143216286Y-83940965D01*
X143216286Y-83940965D02*
X143835333Y-83940965D01*
X142835333Y-81004060D02*
X142787714Y-81051680D01*
X142787714Y-81051680D02*
X142644857Y-81099299D01*
X142644857Y-81099299D02*
X142549619Y-81099299D01*
X142549619Y-81099299D02*
X142406762Y-81051680D01*
X142406762Y-81051680D02*
X142311524Y-80956441D01*
X142311524Y-80956441D02*
X142263905Y-80861203D01*
X142263905Y-80861203D02*
X142216286Y-80670727D01*
X142216286Y-80670727D02*
X142216286Y-80527870D01*
X142216286Y-80527870D02*
X142263905Y-80337394D01*
X142263905Y-80337394D02*
X142311524Y-80242156D01*
X142311524Y-80242156D02*
X142406762Y-80146918D01*
X142406762Y-80146918D02*
X142549619Y-80099299D01*
X142549619Y-80099299D02*
X142644857Y-80099299D01*
X142644857Y-80099299D02*
X142787714Y-80146918D01*
X142787714Y-80146918D02*
X142835333Y-80194537D01*
X143168667Y-80099299D02*
X143787714Y-80099299D01*
X143787714Y-80099299D02*
X143454381Y-80480251D01*
X143454381Y-80480251D02*
X143597238Y-80480251D01*
X143597238Y-80480251D02*
X143692476Y-80527870D01*
X143692476Y-80527870D02*
X143740095Y-80575489D01*
X143740095Y-80575489D02*
X143787714Y-80670727D01*
X143787714Y-80670727D02*
X143787714Y-80908822D01*
X143787714Y-80908822D02*
X143740095Y-81004060D01*
X143740095Y-81004060D02*
X143692476Y-81051680D01*
X143692476Y-81051680D02*
X143597238Y-81099299D01*
X143597238Y-81099299D02*
X143311524Y-81099299D01*
X143311524Y-81099299D02*
X143216286Y-81051680D01*
X143216286Y-81051680D02*
X143168667Y-81004060D01*
X130750000Y-65465000D02*
X130750000Y-64135000D01*
X132080000Y-65465000D02*
X130750000Y-65465000D01*
X133350000Y-65465000D02*
X140970000Y-65465000D01*
X133350000Y-65465000D02*
X133350000Y-62805000D01*
X140970000Y-65465000D02*
X140970000Y-62805000D01*
X133350000Y-62805000D02*
X140970000Y-62805000D01*
X136765325Y-78867000D02*
X136765325Y-83475836D01*
X133665325Y-80375836D02*
X133665325Y-83475836D01*
D14*
X137210800Y-79375000D02*
G75*
G03*
X137210800Y-79375000I-50800J0D01*
G01*
D13*
X137307762Y-79375000D02*
G75*
G03*
X137307762Y-79375000I-147762J0D01*
G01*
D10*
X144055000Y-96225000D02*
X144055000Y-100625000D01*
X141695000Y-96225000D02*
X144055000Y-96225000D01*
X144055000Y-100625000D02*
X141695000Y-100625000D01*
X141695000Y-100625000D02*
X141695000Y-96225000D01*
X144055000Y-89240000D02*
X144055000Y-93640000D01*
X141695000Y-89240000D02*
X144055000Y-89240000D01*
X144055000Y-93640000D02*
X141695000Y-93640000D01*
X141695000Y-93640000D02*
X141695000Y-89240000D01*
X128815000Y-96225000D02*
X128815000Y-100625000D01*
X126455000Y-96225000D02*
X128815000Y-96225000D01*
X128815000Y-100625000D02*
X126455000Y-100625000D01*
X126455000Y-100625000D02*
X126455000Y-96225000D01*
X128815000Y-89240000D02*
X128815000Y-93640000D01*
X126455000Y-89240000D02*
X128815000Y-89240000D01*
X128815000Y-93640000D02*
X126455000Y-93640000D01*
X126455000Y-93640000D02*
X126455000Y-89240000D01*
X144055000Y-110195000D02*
X144055000Y-114595000D01*
X141695000Y-110195000D02*
X144055000Y-110195000D01*
X144055000Y-114595000D02*
X141695000Y-114595000D01*
X141695000Y-114595000D02*
X141695000Y-110195000D01*
X144055000Y-103210000D02*
X144055000Y-107610000D01*
X141695000Y-103210000D02*
X144055000Y-103210000D01*
X144055000Y-107610000D02*
X141695000Y-107610000D01*
X141695000Y-107610000D02*
X141695000Y-103210000D01*
X128815000Y-110195000D02*
X128815000Y-114595000D01*
X126455000Y-110195000D02*
X128815000Y-110195000D01*
X128815000Y-114595000D02*
X126455000Y-114595000D01*
X126455000Y-114595000D02*
X126455000Y-110195000D01*
X128815000Y-103210000D02*
X128815000Y-107610000D01*
X126455000Y-103210000D02*
X128815000Y-103210000D01*
X128815000Y-107610000D02*
X126455000Y-107610000D01*
X126455000Y-107610000D02*
X126455000Y-103210000D01*
X142330000Y-77130000D02*
X142330000Y-72730000D01*
X144690000Y-77130000D02*
X142330000Y-77130000D01*
X142330000Y-72730000D02*
X144690000Y-72730000D01*
X144690000Y-72730000D02*
X144690000Y-77130000D01*
X127090000Y-77130000D02*
X127090000Y-72730000D01*
X129450000Y-77130000D02*
X127090000Y-77130000D01*
X127090000Y-72730000D02*
X129450000Y-72730000D01*
X129450000Y-72730000D02*
X129450000Y-77130000D01*
X135890000Y-90043000D02*
X135890000Y-92710000D01*
X135890000Y-92710000D02*
X138430000Y-92710000D01*
X136144000Y-88603000D02*
X136144000Y-90043000D01*
X136144000Y-90043000D02*
X135890000Y-90043000D01*
X140970000Y-90190000D02*
X138049000Y-90190000D01*
X140970000Y-92690000D02*
X140589000Y-92690000D01*
X140970000Y-92690000D02*
X140970000Y-90190000D01*
X134620000Y-92837000D02*
X134620000Y-90170000D01*
X134620000Y-90170000D02*
X132080000Y-90170000D01*
X134366000Y-94277000D02*
X134366000Y-92837000D01*
X134366000Y-92837000D02*
X134620000Y-92837000D01*
X129540000Y-92690000D02*
X132461000Y-92690000D01*
X129540000Y-90190000D02*
X129921000Y-90190000D01*
X129540000Y-90190000D02*
X129540000Y-92690000D01*
X135890000Y-97028000D02*
X135890000Y-99695000D01*
X135890000Y-99695000D02*
X138430000Y-99695000D01*
X136144000Y-95588000D02*
X136144000Y-97028000D01*
X136144000Y-97028000D02*
X135890000Y-97028000D01*
X140970000Y-97175000D02*
X138049000Y-97175000D01*
X140970000Y-99675000D02*
X140589000Y-99675000D01*
X140970000Y-99675000D02*
X140970000Y-97175000D01*
X134620000Y-99822000D02*
X134620000Y-97155000D01*
X134620000Y-97155000D02*
X132080000Y-97155000D01*
X134366000Y-101262000D02*
X134366000Y-99822000D01*
X134366000Y-99822000D02*
X134620000Y-99822000D01*
X129540000Y-99675000D02*
X132461000Y-99675000D01*
X129540000Y-97175000D02*
X129921000Y-97175000D01*
X129540000Y-97175000D02*
X129540000Y-99675000D01*
X135890000Y-104013000D02*
X135890000Y-106680000D01*
X135890000Y-106680000D02*
X138430000Y-106680000D01*
X136144000Y-102573000D02*
X136144000Y-104013000D01*
X136144000Y-104013000D02*
X135890000Y-104013000D01*
X140970000Y-104160000D02*
X138049000Y-104160000D01*
X140970000Y-106660000D02*
X140589000Y-106660000D01*
X140970000Y-106660000D02*
X140970000Y-104160000D01*
X134620000Y-106807000D02*
X134620000Y-104140000D01*
X134620000Y-104140000D02*
X132080000Y-104140000D01*
X134366000Y-108247000D02*
X134366000Y-106807000D01*
X134366000Y-106807000D02*
X134620000Y-106807000D01*
X129540000Y-106660000D02*
X132461000Y-106660000D01*
X129540000Y-104160000D02*
X129921000Y-104160000D01*
X129540000Y-104160000D02*
X129540000Y-106660000D01*
X135890000Y-110998000D02*
X135890000Y-113665000D01*
X135890000Y-113665000D02*
X138430000Y-113665000D01*
X136144000Y-109558000D02*
X136144000Y-110998000D01*
X136144000Y-110998000D02*
X135890000Y-110998000D01*
X140970000Y-111145000D02*
X138049000Y-111145000D01*
X140970000Y-113645000D02*
X140589000Y-113645000D01*
X140970000Y-113645000D02*
X140970000Y-111145000D01*
X134620000Y-113897000D02*
X134620000Y-111230000D01*
X134620000Y-111230000D02*
X132080000Y-111230000D01*
X134366000Y-115337000D02*
X134366000Y-113897000D01*
X134366000Y-113897000D02*
X134620000Y-113897000D01*
X129540000Y-113750000D02*
X132461000Y-113750000D01*
X129540000Y-111250000D02*
X129921000Y-111250000D01*
X129540000Y-111250000D02*
X129540000Y-113750000D01*
X136525000Y-73533000D02*
X136525000Y-76200000D01*
X136525000Y-76200000D02*
X139065000Y-76200000D01*
X136779000Y-72093000D02*
X136779000Y-73533000D01*
X136779000Y-73533000D02*
X136525000Y-73533000D01*
X141605000Y-73680000D02*
X138684000Y-73680000D01*
X141605000Y-76180000D02*
X141224000Y-76180000D01*
X141605000Y-76180000D02*
X141605000Y-73680000D01*
X135255000Y-76327000D02*
X135255000Y-73660000D01*
X135255000Y-73660000D02*
X132715000Y-73660000D01*
X135001000Y-77767000D02*
X135001000Y-76327000D01*
X135001000Y-76327000D02*
X135255000Y-76327000D01*
X130175000Y-76180000D02*
X133096000Y-76180000D01*
X130175000Y-73680000D02*
X130556000Y-73680000D01*
X130175000Y-73680000D02*
X130175000Y-76180000D01*
X133350000Y-70545000D02*
X141030000Y-70545000D01*
X133350000Y-70545000D02*
X133350000Y-67885000D01*
X141030000Y-70545000D02*
X141030000Y-67885000D01*
X130750000Y-69215000D02*
X130750000Y-67885000D01*
X130750000Y-67885000D02*
X132080000Y-67885000D01*
X133350000Y-67885000D02*
X141030000Y-67885000D01*
X124714000Y-123892000D02*
X124714000Y-121232000D01*
X119380000Y-123885000D02*
X124714000Y-123885000D01*
X119380000Y-123885000D02*
X119380000Y-121225000D01*
X116780000Y-122555000D02*
X116780000Y-121225000D01*
X116780000Y-121225000D02*
X118110000Y-121225000D01*
X119380000Y-121225000D02*
X124714000Y-121225000D01*
X116780000Y-118805000D02*
X116780000Y-117475000D01*
X118110000Y-118805000D02*
X116780000Y-118805000D01*
X119380000Y-118805000D02*
X124460000Y-118805000D01*
X119380000Y-118805000D02*
X119380000Y-116145000D01*
X124460000Y-118805000D02*
X124460000Y-116145000D01*
X119380000Y-116145000D02*
X124460000Y-116145000D01*
X115570000Y-126818000D02*
X115570000Y-134418000D01*
X115570000Y-128778000D02*
X125730000Y-128778000D01*
X115570000Y-134418000D02*
X125730000Y-134418000D01*
X125730000Y-126818000D02*
X115570000Y-126818000D01*
X125730000Y-134418000D02*
X125730000Y-126818000D01*
X127000000Y-116205000D02*
X127000000Y-135255000D01*
X127000000Y-135255000D02*
X143510000Y-135255000D01*
X143510000Y-116205000D02*
X127000000Y-116205000D01*
X143510000Y-135255000D02*
X143510000Y-116205000D01*
X137500000Y-82640000D02*
X141900000Y-82640000D01*
X137500000Y-85000000D02*
X137500000Y-82640000D01*
X141900000Y-82640000D02*
X141900000Y-85000000D01*
X141900000Y-85000000D02*
X137500000Y-85000000D01*
X137500000Y-79465000D02*
X141900000Y-79465000D01*
X137500000Y-81825000D02*
X137500000Y-79465000D01*
X141900000Y-79465000D02*
X141900000Y-81825000D01*
X141900000Y-81825000D02*
X137500000Y-81825000D01*
D15*
X129539000Y-127000000D03*
X140971000Y-127000000D03*
%LPC*%
D16*
X132080000Y-64135000D03*
D17*
X134620000Y-64135000D03*
X137160000Y-64135000D03*
X139700000Y-64135000D03*
D18*
X118745000Y-106045000D03*
X118745000Y-65405000D03*
D19*
X136255000Y-79375000D03*
X135755000Y-79375000D03*
X135255000Y-79375000D03*
X134755000Y-79375000D03*
X134255000Y-79375000D03*
X134255000Y-84455000D03*
X134755000Y-84455000D03*
X135255000Y-84455000D03*
X135755000Y-84455000D03*
X136255000Y-84455000D03*
D20*
X142875000Y-97155000D03*
X142875000Y-99695000D03*
X142875000Y-90170000D03*
X142875000Y-92710000D03*
X127635000Y-97155000D03*
X127635000Y-99695000D03*
X127635000Y-90170000D03*
X127635000Y-92710000D03*
X142875000Y-111125000D03*
X142875000Y-113665000D03*
X142875000Y-104140000D03*
X142875000Y-106680000D03*
X127635000Y-111125000D03*
X127635000Y-113665000D03*
X127635000Y-104140000D03*
X127635000Y-106680000D03*
D21*
X143510000Y-76200000D03*
X143510000Y-73660000D03*
X128270000Y-76200000D03*
X128270000Y-73660000D03*
D22*
X137160000Y-90065000D03*
X139700000Y-92815000D03*
D23*
X133350000Y-92815000D03*
X130810000Y-90065000D03*
D22*
X137160000Y-97050000D03*
X139700000Y-99800000D03*
D23*
X133350000Y-99800000D03*
X130810000Y-97050000D03*
D22*
X137160000Y-104035000D03*
X139700000Y-106785000D03*
D23*
X133350000Y-106785000D03*
X130810000Y-104035000D03*
D22*
X137160000Y-111020000D03*
X139700000Y-113770000D03*
D23*
X133350000Y-113875000D03*
X130810000Y-111125000D03*
D22*
X137795000Y-73555000D03*
X140335000Y-76305000D03*
D23*
X133985000Y-76305000D03*
X131445000Y-73555000D03*
D16*
X132080000Y-69215000D03*
D17*
X134620000Y-69215000D03*
X137160000Y-69215000D03*
X139700000Y-69215000D03*
D16*
X118110000Y-122555000D03*
D17*
X120650000Y-122555000D03*
X123190000Y-122555000D03*
D16*
X118110000Y-117475000D03*
D17*
X120650000Y-117475000D03*
X123190000Y-117475000D03*
D24*
X118110000Y-131318000D03*
D25*
X123190000Y-131318000D03*
D26*
X129539000Y-127000000D03*
X140971000Y-127000000D03*
D27*
X130811000Y-120650000D03*
X132081000Y-118110000D03*
X133351000Y-120650000D03*
X134621000Y-118110000D03*
X135891000Y-120650000D03*
X137161000Y-118110000D03*
X138431000Y-120650000D03*
X139701000Y-118110000D03*
D28*
X138430000Y-83820000D03*
X140970000Y-83820000D03*
X138430000Y-80645000D03*
X140970000Y-80645000D03*
D29*
X140970000Y-82296000D03*
X138430000Y-82296000D03*
X131445000Y-85725000D03*
X133350000Y-86360000D03*
X135255000Y-97790000D03*
X137160000Y-92710000D03*
X132080000Y-89535000D03*
X131445000Y-107315000D03*
X132715000Y-109855000D03*
X135255000Y-113030000D03*
X135255000Y-111125000D03*
X135255000Y-104140000D03*
X141605000Y-101600000D03*
X132080000Y-79375000D03*
%LPD*%
M02*
