G04 #@! TF.GenerationSoftware,KiCad,Pcbnew,7.0.9*
G04 #@! TF.CreationDate,2023-12-23T18:19:17+01:00*
G04 #@! TF.ProjectId,testing-board,74657374-696e-4672-9d62-6f6172642e6b,v1.0*
G04 #@! TF.SameCoordinates,Original*
G04 #@! TF.FileFunction,Copper,L1,Top*
G04 #@! TF.FilePolarity,Positive*
%FSLAX46Y46*%
G04 Gerber Fmt 4.6, Leading zero omitted, Abs format (unit mm)*
G04 Created by KiCad (PCBNEW 7.0.9) date 2023-12-23 18:19:17*
%MOMM*%
%LPD*%
G01*
G04 APERTURE LIST*
G04 Aperture macros list*
%AMOutline4P*
0 Free polygon, 4 corners , with rotation*
0 The origin of the aperture is its center*
0 number of corners: always 4*
0 $1 to $8 corner X, Y*
0 $9 Rotation angle, in degrees counterclockwise*
0 create outline with 4 corners*
4,1,4,$1,$2,$3,$4,$5,$6,$7,$8,$1,$2,$9*%
G04 Aperture macros list end*
G04 #@! TA.AperFunction,ComponentPad*
%ADD10R,2.100000X2.100000*%
G04 #@! TD*
G04 #@! TA.AperFunction,ComponentPad*
%ADD11O,2.100000X2.100000*%
G04 #@! TD*
G04 #@! TA.AperFunction,ComponentPad*
%ADD12C,5.000000*%
G04 #@! TD*
G04 #@! TA.AperFunction,SMDPad,CuDef*
%ADD13R,0.350000X1.500000*%
G04 #@! TD*
G04 #@! TA.AperFunction,SMDPad,CuDef*
%ADD14Outline4P,-0.650000X-0.900000X0.650000X-0.900000X0.650000X0.900000X-0.650000X0.900000X270.000000*%
G04 #@! TD*
G04 #@! TA.AperFunction,SMDPad,CuDef*
%ADD15Outline4P,-0.650000X-0.900000X0.650000X-0.900000X0.650000X0.900000X-0.650000X0.900000X90.000000*%
G04 #@! TD*
G04 #@! TA.AperFunction,SMDPad,CuDef*
%ADD16R,1.250000X3.000000*%
G04 #@! TD*
G04 #@! TA.AperFunction,ComponentPad*
%ADD17R,3.500000X3.500000*%
G04 #@! TD*
G04 #@! TA.AperFunction,ComponentPad*
%ADD18C,3.500000*%
G04 #@! TD*
G04 #@! TA.AperFunction,ComponentPad*
%ADD19C,1.500000*%
G04 #@! TD*
G04 #@! TA.AperFunction,SMDPad,CuDef*
%ADD20Outline4P,-0.650000X-0.900000X0.650000X-0.900000X0.650000X0.900000X-0.650000X0.900000X0.000000*%
G04 #@! TD*
G04 #@! TA.AperFunction,ViaPad*
%ADD21C,0.800000*%
G04 #@! TD*
G04 #@! TA.AperFunction,Conductor*
%ADD22C,0.500000*%
G04 #@! TD*
G04 #@! TA.AperFunction,Conductor*
%ADD23C,0.350000*%
G04 #@! TD*
G04 #@! TA.AperFunction,Conductor*
%ADD24C,0.250000*%
G04 #@! TD*
G04 APERTURE END LIST*
D10*
X132080000Y-64135000D03*
D11*
X134620000Y-64135000D03*
X137160000Y-64135000D03*
X139700000Y-64135000D03*
D12*
X118745000Y-106045000D03*
X118745000Y-65405000D03*
D13*
X136255000Y-79375000D03*
X135755000Y-79375000D03*
X135255000Y-79375000D03*
X134755000Y-79375000D03*
X134255000Y-79375000D03*
X134255000Y-84455000D03*
X134755000Y-84455000D03*
X135255000Y-84455000D03*
X135755000Y-84455000D03*
X136255000Y-84455000D03*
D14*
X142875000Y-97155000D03*
X142875000Y-99695000D03*
X142875000Y-90170000D03*
X142875000Y-92710000D03*
X127635000Y-97155000D03*
X127635000Y-99695000D03*
X127635000Y-90170000D03*
X127635000Y-92710000D03*
X142875000Y-111125000D03*
X142875000Y-113665000D03*
X142875000Y-104140000D03*
X142875000Y-106680000D03*
X127635000Y-111125000D03*
X127635000Y-113665000D03*
X127635000Y-104140000D03*
X127635000Y-106680000D03*
D15*
X143510000Y-76200000D03*
X143510000Y-73660000D03*
X128270000Y-76200000D03*
X128270000Y-73660000D03*
D16*
X137160000Y-90065000D03*
X139700000Y-92815000D03*
X133350000Y-92815000D03*
X130810000Y-90065000D03*
X137160000Y-97050000D03*
X139700000Y-99800000D03*
X133350000Y-99800000D03*
X130810000Y-97050000D03*
X137160000Y-104035000D03*
X139700000Y-106785000D03*
X133350000Y-106785000D03*
X130810000Y-104035000D03*
X137160000Y-111020000D03*
X139700000Y-113770000D03*
X133350000Y-113875000D03*
X130810000Y-111125000D03*
X137795000Y-73555000D03*
X140335000Y-76305000D03*
X133985000Y-76305000D03*
X131445000Y-73555000D03*
D10*
X132080000Y-69215000D03*
D11*
X134620000Y-69215000D03*
X137160000Y-69215000D03*
X139700000Y-69215000D03*
D10*
X118110000Y-122555000D03*
D11*
X120650000Y-122555000D03*
X123190000Y-122555000D03*
D10*
X118110000Y-117475000D03*
D11*
X120650000Y-117475000D03*
X123190000Y-117475000D03*
D17*
X118110000Y-131318000D03*
D18*
X123190000Y-131318000D03*
D19*
X130811000Y-120650000D03*
X132081000Y-118110000D03*
X133351000Y-120650000D03*
X134621000Y-118110000D03*
X135891000Y-120650000D03*
X137161000Y-118110000D03*
X138431000Y-120650000D03*
X139701000Y-118110000D03*
D20*
X138430000Y-83820000D03*
X140970000Y-83820000D03*
X138430000Y-80645000D03*
X140970000Y-80645000D03*
D21*
X140970000Y-82296000D03*
X138430000Y-82296000D03*
X131445000Y-85725000D03*
X133350000Y-86360000D03*
X135255000Y-97790000D03*
X137160000Y-92710000D03*
X132080000Y-89535000D03*
X131445000Y-107315000D03*
X132715000Y-109855000D03*
X135255000Y-113030000D03*
X135255000Y-111125000D03*
X135255000Y-104140000D03*
X141605000Y-101600000D03*
X132080000Y-79375000D03*
D22*
X140970000Y-81915000D02*
X140970000Y-83820000D01*
X138430000Y-81915000D02*
X138430000Y-83820000D01*
X140970000Y-80645000D02*
X140970000Y-81915000D01*
X123190000Y-130175000D02*
X123190000Y-128905000D01*
X143891000Y-82296000D02*
X140970000Y-82296000D01*
X123190000Y-127000000D02*
X127000000Y-123190000D01*
X123190000Y-130175000D02*
X123190000Y-127000000D01*
X127000000Y-123190000D02*
X140970000Y-123190000D01*
X144780000Y-83185000D02*
X143891000Y-82296000D01*
X140970000Y-123190000D02*
X144780000Y-119380000D01*
X142875000Y-99695000D02*
X144780000Y-99695000D01*
X144780000Y-99695000D02*
X144780000Y-83185000D01*
X142875000Y-113665000D02*
X144780000Y-113665000D01*
X144780000Y-119380000D02*
X144780000Y-113665000D01*
X144780000Y-113665000D02*
X144780000Y-99695000D01*
D23*
X134255000Y-79375000D02*
X132080000Y-79375000D01*
D22*
X118110000Y-130175000D02*
X118110000Y-127635000D01*
X138430000Y-80645000D02*
X138430000Y-81915000D01*
D23*
X137160000Y-79375000D02*
X138430000Y-80645000D01*
X136255000Y-79375000D02*
X137160000Y-79375000D01*
D24*
X137795000Y-84455000D02*
X138430000Y-83820000D01*
D23*
X136255000Y-84455000D02*
X137795000Y-84455000D01*
D22*
X128270000Y-76200000D02*
X128270000Y-81915000D01*
X143510000Y-76200000D02*
X143510000Y-77470000D01*
X143510000Y-77470000D02*
X142240000Y-78740000D01*
X142240000Y-78740000D02*
X139065000Y-78740000D01*
X138430000Y-79375000D02*
X138430000Y-80645000D01*
X139065000Y-78740000D02*
X138430000Y-79375000D01*
X118110000Y-127635000D02*
X118110000Y-127000000D01*
X118110000Y-127000000D02*
X116205000Y-125095000D01*
X116205000Y-125095000D02*
X116205000Y-116469998D01*
X116205000Y-116469998D02*
X116205000Y-115570000D01*
X116205000Y-115570000D02*
X124460000Y-107315000D01*
X127635000Y-104140000D02*
X124460000Y-104140000D01*
X124460000Y-107315000D02*
X124460000Y-104140000D01*
X127635000Y-90170000D02*
X124460000Y-90170000D01*
X124460000Y-104140000D02*
X124460000Y-90170000D01*
X124460000Y-90170000D02*
X124460000Y-85725000D01*
X125730000Y-66675000D02*
X134620000Y-66675000D01*
X124460000Y-67945000D02*
X125730000Y-66675000D01*
X134620000Y-64135000D02*
X134620000Y-66675000D01*
X134620000Y-66675000D02*
X134620000Y-69215000D01*
X129159000Y-82296000D02*
X138430000Y-82296000D01*
X124460000Y-81915000D02*
X124460000Y-67945000D01*
X128270000Y-81915000D02*
X128270000Y-82296000D01*
X128270000Y-82296000D02*
X129159000Y-82296000D01*
X129159000Y-82296000D02*
X124714000Y-82296000D01*
X124460000Y-85725000D02*
X124460000Y-82550000D01*
X124460000Y-82550000D02*
X124460000Y-82042000D01*
X124714000Y-82296000D02*
X124460000Y-82042000D01*
X124460000Y-82042000D02*
X124460000Y-81915000D01*
X138430000Y-120649000D02*
X138431000Y-120650000D01*
X132080000Y-118109000D02*
X132081000Y-118110000D01*
X126434999Y-119310001D02*
X123190000Y-122555000D01*
X133420999Y-119310001D02*
X126434999Y-119310001D01*
X134621000Y-118110000D02*
X133420999Y-119310001D01*
X123190000Y-122555000D02*
X123190000Y-117475000D01*
D23*
X135755000Y-79375000D02*
X135755000Y-77605000D01*
X137795000Y-75565000D02*
X137795000Y-73555000D01*
X135755000Y-77605000D02*
X137795000Y-75565000D01*
D22*
X137795000Y-73555000D02*
X137795000Y-73025000D01*
X139700000Y-71120000D02*
X139700000Y-69215000D01*
X137795000Y-73025000D02*
X139700000Y-71120000D01*
X139700000Y-69215000D02*
X139700000Y-64135000D01*
D23*
X134755000Y-77075000D02*
X133985000Y-76305000D01*
X134755000Y-79375000D02*
X134755000Y-77075000D01*
D22*
X137160000Y-64135000D02*
X137160000Y-69215000D01*
X137160000Y-69850000D02*
X137160000Y-69215000D01*
X133985000Y-76305000D02*
X133985000Y-73025000D01*
X133985000Y-73025000D02*
X137160000Y-69850000D01*
X128375000Y-73555000D02*
X128270000Y-73660000D01*
X131445000Y-73555000D02*
X128375000Y-73555000D01*
X140335000Y-76305000D02*
X140335000Y-74295000D01*
X140970000Y-73660000D02*
X143510000Y-73660000D01*
X140335000Y-74295000D02*
X140970000Y-73660000D01*
X130810000Y-111125000D02*
X130810000Y-113030000D01*
X130175000Y-113665000D02*
X127635000Y-113665000D01*
X130810000Y-113030000D02*
X130175000Y-113665000D01*
X139595000Y-113875000D02*
X139700000Y-113770000D01*
X135680000Y-113875000D02*
X135680000Y-113455000D01*
X135680000Y-113875000D02*
X139595000Y-113875000D01*
X133350000Y-113875000D02*
X135680000Y-113875000D01*
X135680000Y-113455000D02*
X135255000Y-113030000D01*
D23*
X133350000Y-86360000D02*
X134382000Y-86360000D01*
X134755000Y-84455000D02*
X134755000Y-85987000D01*
X134382000Y-86360000D02*
X134755000Y-85987000D01*
D22*
X137160000Y-111020000D02*
X135360000Y-111020000D01*
X135360000Y-111020000D02*
X135255000Y-111125000D01*
X135150000Y-104035000D02*
X135255000Y-104140000D01*
X130810000Y-104035000D02*
X135150000Y-104035000D01*
X136630000Y-106785000D02*
X139700000Y-106785000D01*
X133350000Y-106785000D02*
X136630000Y-106785000D01*
X132715000Y-109855000D02*
X133985000Y-109855000D01*
X136630000Y-107210000D02*
X136630000Y-106785000D01*
X133985000Y-109855000D02*
X136630000Y-107210000D01*
X132820000Y-107315000D02*
X133350000Y-106785000D01*
X131445000Y-107315000D02*
X132820000Y-107315000D01*
D23*
X134255000Y-84455000D02*
X133350000Y-84455000D01*
X132715000Y-84455000D02*
X131445000Y-85725000D01*
X133350000Y-84455000D02*
X132715000Y-84455000D01*
D22*
X142770000Y-104035000D02*
X142875000Y-104140000D01*
X137160000Y-104035000D02*
X142770000Y-104035000D01*
X127635000Y-99695000D02*
X130175000Y-99695000D01*
X130810000Y-99060000D02*
X130810000Y-97050000D01*
X130175000Y-99695000D02*
X130810000Y-99060000D01*
X137160000Y-97050000D02*
X135995000Y-97050000D01*
X135995000Y-97050000D02*
X135255000Y-97790000D01*
X130810000Y-90065000D02*
X131550000Y-90065000D01*
X131550000Y-90065000D02*
X132080000Y-89535000D01*
X142770000Y-90065000D02*
X142875000Y-90170000D01*
X137160000Y-90065000D02*
X142770000Y-90065000D01*
X133350000Y-99800000D02*
X139700000Y-99800000D01*
X139805000Y-99800000D02*
X141605000Y-101600000D01*
X139700000Y-99800000D02*
X139805000Y-99800000D01*
D23*
X135255000Y-84455000D02*
X135255000Y-86995000D01*
D22*
X132080000Y-91149998D02*
X133667500Y-89562498D01*
X132080000Y-95250000D02*
X132080000Y-91149998D01*
X133350000Y-96520000D02*
X132080000Y-95250000D01*
X133350000Y-99800000D02*
X133350000Y-96520000D01*
D23*
X135255000Y-86995000D02*
X135255000Y-87974998D01*
D22*
X133667500Y-89562498D02*
X135109999Y-88119999D01*
D23*
X135255000Y-87974998D02*
X135109999Y-88119999D01*
D24*
X135755000Y-92785000D02*
X135785000Y-92815000D01*
D22*
X133350000Y-92815000D02*
X135785000Y-92815000D01*
D23*
X135755000Y-84455000D02*
X135755000Y-92785000D01*
D22*
X135785000Y-92815000D02*
X139700000Y-92815000D01*
X127635000Y-111125000D02*
X127635000Y-106680000D01*
X142875000Y-111125000D02*
X142875000Y-106680000D01*
X127635000Y-97155000D02*
X127635000Y-92710000D01*
X142875000Y-97155000D02*
X142875000Y-92710000D01*
G04 #@! TA.AperFunction,Conductor*
G36*
X145357121Y-62250002D02*
G01*
X145403614Y-62303658D01*
X145415000Y-62356000D01*
X145415000Y-63740536D01*
X145394998Y-63808657D01*
X145341342Y-63855150D01*
X145271068Y-63865254D01*
X145247736Y-63859588D01*
X145214018Y-63847901D01*
X144972952Y-63803710D01*
X144727974Y-63796618D01*
X144727969Y-63796618D01*
X144484748Y-63826788D01*
X144248935Y-63893518D01*
X144248925Y-63893522D01*
X144025971Y-63995267D01*
X144025969Y-63995268D01*
X143821029Y-64129679D01*
X143638864Y-64293635D01*
X143483685Y-64483346D01*
X143359107Y-64694395D01*
X143267998Y-64921915D01*
X143212474Y-65160623D01*
X143193822Y-65405000D01*
X143212474Y-65649376D01*
X143267998Y-65888084D01*
X143308493Y-65989210D01*
X143358300Y-66113590D01*
X143359107Y-66115604D01*
X143483685Y-66326653D01*
X143483690Y-66326659D01*
X143638862Y-66516362D01*
X143821027Y-66680319D01*
X144025965Y-66814729D01*
X144025968Y-66814730D01*
X144025969Y-66814731D01*
X144025971Y-66814732D01*
X144035668Y-66819157D01*
X144248929Y-66916479D01*
X144248932Y-66916479D01*
X144248935Y-66916481D01*
X144484748Y-66983211D01*
X144484752Y-66983212D01*
X144727971Y-67013382D01*
X144972951Y-67006290D01*
X145214018Y-66962099D01*
X145247736Y-66950411D01*
X145318648Y-66947001D01*
X145380150Y-66982470D01*
X145412712Y-67045559D01*
X145415000Y-67069463D01*
X145415000Y-125534227D01*
X145394998Y-125602348D01*
X145346204Y-125646493D01*
X145250463Y-125695276D01*
X145056201Y-125836416D01*
X145056198Y-125836418D01*
X144886418Y-126006198D01*
X144886416Y-126006201D01*
X144745278Y-126200460D01*
X144636265Y-126414409D01*
X144636262Y-126414415D01*
X144562064Y-126642772D01*
X144562063Y-126642777D01*
X144562063Y-126642778D01*
X144524500Y-126879941D01*
X144524500Y-127120059D01*
X144542018Y-127230663D01*
X144562064Y-127357227D01*
X144636262Y-127585584D01*
X144636264Y-127585589D01*
X144745276Y-127799536D01*
X144886414Y-127993796D01*
X144886416Y-127993798D01*
X144886418Y-127993801D01*
X145056198Y-128163581D01*
X145056201Y-128163583D01*
X145056204Y-128163586D01*
X145250464Y-128304724D01*
X145346204Y-128353506D01*
X145397818Y-128402253D01*
X145415000Y-128465772D01*
X145415000Y-133859000D01*
X145394998Y-133927121D01*
X145341342Y-133973614D01*
X145289000Y-133985000D01*
X115696000Y-133985000D01*
X115627879Y-133964998D01*
X115581386Y-133911342D01*
X115570000Y-133859000D01*
X115570000Y-125836871D01*
X115590002Y-125768750D01*
X115643658Y-125722257D01*
X115713932Y-125712153D01*
X115778512Y-125741647D01*
X115785095Y-125747776D01*
X117314595Y-127277276D01*
X117348621Y-127339588D01*
X117351500Y-127366371D01*
X117351500Y-128933500D01*
X117331498Y-129001621D01*
X117277842Y-129048114D01*
X117225500Y-129059500D01*
X116311350Y-129059500D01*
X116250803Y-129066009D01*
X116250795Y-129066011D01*
X116113797Y-129117110D01*
X116113792Y-129117112D01*
X115996738Y-129204738D01*
X115909112Y-129321792D01*
X115909110Y-129321797D01*
X115858011Y-129458795D01*
X115858009Y-129458803D01*
X115851500Y-129519350D01*
X115851500Y-133116649D01*
X115858009Y-133177196D01*
X115858011Y-133177204D01*
X115909110Y-133314202D01*
X115909112Y-133314207D01*
X115996738Y-133431261D01*
X116113792Y-133518887D01*
X116113794Y-133518888D01*
X116113796Y-133518889D01*
X116172875Y-133540924D01*
X116250795Y-133569988D01*
X116250803Y-133569990D01*
X116311350Y-133576499D01*
X116311355Y-133576499D01*
X116311362Y-133576500D01*
X116311368Y-133576500D01*
X119908632Y-133576500D01*
X119908638Y-133576500D01*
X119908645Y-133576499D01*
X119908649Y-133576499D01*
X119969196Y-133569990D01*
X119969199Y-133569989D01*
X119969201Y-133569989D01*
X120106204Y-133518889D01*
X120223261Y-133431261D01*
X120310889Y-133314204D01*
X120361989Y-133177201D01*
X120368500Y-133116638D01*
X120368500Y-131318003D01*
X120927155Y-131318003D01*
X120946513Y-131613356D01*
X120946515Y-131613370D01*
X121004260Y-131903665D01*
X121004262Y-131903675D01*
X121099401Y-132183945D01*
X121099407Y-132183959D01*
X121230317Y-132449420D01*
X121394763Y-132695531D01*
X121422092Y-132726694D01*
X122625569Y-131523218D01*
X122665901Y-131620588D01*
X122762075Y-131745925D01*
X122887412Y-131842099D01*
X122984779Y-131882429D01*
X121781304Y-133085904D01*
X121781304Y-133085906D01*
X121812468Y-133113236D01*
X122058579Y-133277682D01*
X122324040Y-133408592D01*
X122324054Y-133408598D01*
X122604324Y-133503737D01*
X122604334Y-133503739D01*
X122894629Y-133561484D01*
X122894643Y-133561486D01*
X123189997Y-133580845D01*
X123190003Y-133580845D01*
X123485356Y-133561486D01*
X123485370Y-133561484D01*
X123775665Y-133503739D01*
X123775675Y-133503737D01*
X124055945Y-133408598D01*
X124055959Y-133408592D01*
X124321420Y-133277682D01*
X124567534Y-133113234D01*
X124567536Y-133113233D01*
X124598694Y-133085906D01*
X124598694Y-133085904D01*
X123395220Y-131882429D01*
X123492588Y-131842099D01*
X123617925Y-131745925D01*
X123714099Y-131620589D01*
X123754430Y-131523220D01*
X124957904Y-132726694D01*
X124957906Y-132726694D01*
X124985233Y-132695536D01*
X124985234Y-132695534D01*
X125149682Y-132449420D01*
X125280592Y-132183959D01*
X125280598Y-132183945D01*
X125375737Y-131903675D01*
X125375739Y-131903665D01*
X125433484Y-131613370D01*
X125433486Y-131613356D01*
X125452845Y-131318003D01*
X125452845Y-131317996D01*
X125433486Y-131022643D01*
X125433484Y-131022629D01*
X125375739Y-130732334D01*
X125375737Y-130732324D01*
X125280598Y-130452054D01*
X125280592Y-130452040D01*
X125149682Y-130186580D01*
X124985236Y-129940468D01*
X124957906Y-129909304D01*
X124957904Y-129909304D01*
X123754429Y-131112779D01*
X123714099Y-131015412D01*
X123617925Y-130890075D01*
X123492588Y-130793901D01*
X123395218Y-130753569D01*
X124598694Y-129550092D01*
X124567531Y-129522763D01*
X124321420Y-129358317D01*
X124055959Y-129227407D01*
X124055945Y-129227401D01*
X123775675Y-129132262D01*
X123775665Y-129132260D01*
X123485370Y-129074515D01*
X123485356Y-129074513D01*
X123190003Y-129055155D01*
X123189997Y-129055155D01*
X122894643Y-129074513D01*
X122894629Y-129074515D01*
X122604334Y-129132260D01*
X122604324Y-129132262D01*
X122324054Y-129227401D01*
X122324040Y-129227407D01*
X122058580Y-129358317D01*
X121812467Y-129522763D01*
X121812463Y-129522766D01*
X121781304Y-129550092D01*
X121781304Y-129550094D01*
X122984780Y-130753570D01*
X122887412Y-130793901D01*
X122762075Y-130890075D01*
X122665901Y-131015411D01*
X122625569Y-131112779D01*
X121422094Y-129909304D01*
X121422092Y-129909304D01*
X121394766Y-129940463D01*
X121394763Y-129940467D01*
X121230317Y-130186580D01*
X121099407Y-130452040D01*
X121099401Y-130452054D01*
X121004262Y-130732324D01*
X121004260Y-130732334D01*
X120946515Y-131022629D01*
X120946513Y-131022643D01*
X120927155Y-131317996D01*
X120927155Y-131318003D01*
X120368500Y-131318003D01*
X120368500Y-129519362D01*
X120368499Y-129519350D01*
X120361990Y-129458803D01*
X120361988Y-129458795D01*
X120310889Y-129321797D01*
X120310887Y-129321792D01*
X120223261Y-129204738D01*
X120106207Y-129117112D01*
X120106202Y-129117110D01*
X119969204Y-129066011D01*
X119969196Y-129066009D01*
X119908649Y-129059500D01*
X119908638Y-129059500D01*
X118994500Y-129059500D01*
X118926379Y-129039498D01*
X118879886Y-128985842D01*
X118868500Y-128933500D01*
X118868500Y-127069596D01*
X127634687Y-127069596D01*
X127665114Y-127346128D01*
X127735480Y-127615278D01*
X127808016Y-127785968D01*
X127844284Y-127871314D01*
X127989208Y-128108781D01*
X128167163Y-128322617D01*
X128374357Y-128508263D01*
X128606373Y-128661763D01*
X128858267Y-128779846D01*
X129124669Y-128859995D01*
X129399895Y-128900499D01*
X129399898Y-128900500D01*
X129399901Y-128900500D01*
X129608465Y-128900500D01*
X129641315Y-128898095D01*
X129816455Y-128885277D01*
X130087997Y-128824788D01*
X130347838Y-128725408D01*
X130590440Y-128589253D01*
X130810632Y-128419226D01*
X131003722Y-128218951D01*
X131165593Y-127992696D01*
X131292797Y-127745283D01*
X131382621Y-127481986D01*
X131433152Y-127208416D01*
X131438226Y-127069596D01*
X139066687Y-127069596D01*
X139097114Y-127346128D01*
X139167480Y-127615278D01*
X139240016Y-127785968D01*
X139276284Y-127871314D01*
X139421208Y-128108781D01*
X139599163Y-128322617D01*
X139806357Y-128508263D01*
X140038373Y-128661763D01*
X140290267Y-128779846D01*
X140556669Y-128859995D01*
X140831895Y-128900499D01*
X140831898Y-128900500D01*
X140831901Y-128900500D01*
X141040465Y-128900500D01*
X141073315Y-128898095D01*
X141248455Y-128885277D01*
X141519997Y-128824788D01*
X141779838Y-128725408D01*
X142022440Y-128589253D01*
X142242632Y-128419226D01*
X142435722Y-128218951D01*
X142597593Y-127992696D01*
X142724797Y-127745283D01*
X142814621Y-127481986D01*
X142865152Y-127208416D01*
X142875313Y-126930404D01*
X142844886Y-126653876D01*
X142828812Y-126592394D01*
X142774519Y-126384721D01*
X142696218Y-126200464D01*
X142665716Y-126128686D01*
X142520792Y-125891219D01*
X142342837Y-125677383D01*
X142135643Y-125491737D01*
X141903627Y-125338237D01*
X141767860Y-125274592D01*
X141651734Y-125220154D01*
X141572263Y-125196244D01*
X141385331Y-125140005D01*
X141385326Y-125140004D01*
X141385322Y-125140003D01*
X141110103Y-125099500D01*
X141110099Y-125099500D01*
X140901537Y-125099500D01*
X140901535Y-125099500D01*
X140693541Y-125114723D01*
X140422009Y-125175210D01*
X140421997Y-125175214D01*
X140162161Y-125274592D01*
X139919559Y-125410747D01*
X139699366Y-125580775D01*
X139699365Y-125580776D01*
X139506280Y-125781046D01*
X139344404Y-126007307D01*
X139217204Y-126254714D01*
X139127377Y-126518020D01*
X139076847Y-126791587D01*
X139066687Y-127069596D01*
X131438226Y-127069596D01*
X131443313Y-126930404D01*
X131412886Y-126653876D01*
X131396812Y-126592394D01*
X131342519Y-126384721D01*
X131264218Y-126200464D01*
X131233716Y-126128686D01*
X131088792Y-125891219D01*
X130910837Y-125677383D01*
X130703643Y-125491737D01*
X130471627Y-125338237D01*
X130335860Y-125274592D01*
X130219734Y-125220154D01*
X130140263Y-125196244D01*
X129953331Y-125140005D01*
X129953326Y-125140004D01*
X129953322Y-125140003D01*
X129678103Y-125099500D01*
X129678099Y-125099500D01*
X129469537Y-125099500D01*
X129469535Y-125099500D01*
X129261541Y-125114723D01*
X128990009Y-125175210D01*
X128989997Y-125175214D01*
X128730161Y-125274592D01*
X128487559Y-125410747D01*
X128267366Y-125580775D01*
X128267365Y-125580776D01*
X128074280Y-125781046D01*
X127912404Y-126007307D01*
X127785204Y-126254714D01*
X127695377Y-126518020D01*
X127644847Y-126791587D01*
X127634687Y-127069596D01*
X118868500Y-127069596D01*
X118868500Y-127064441D01*
X118869830Y-127046182D01*
X118870940Y-127038600D01*
X118873341Y-127022211D01*
X118870875Y-126994027D01*
X118868740Y-126969614D01*
X118868500Y-126964121D01*
X118868500Y-126955819D01*
X118864652Y-126922905D01*
X118864652Y-126922904D01*
X118857887Y-126845574D01*
X118857885Y-126845570D01*
X118856403Y-126838388D01*
X118856469Y-126838374D01*
X118854837Y-126831012D01*
X118854772Y-126831028D01*
X118853080Y-126823890D01*
X118841321Y-126791584D01*
X118826526Y-126750934D01*
X118802114Y-126677262D01*
X118802109Y-126677255D01*
X118799012Y-126670611D01*
X118799074Y-126670581D01*
X118795788Y-126663795D01*
X118795728Y-126663826D01*
X118792433Y-126657265D01*
X118749766Y-126592394D01*
X118709031Y-126526351D01*
X118709030Y-126526349D01*
X118709027Y-126526346D01*
X118704478Y-126520592D01*
X118704531Y-126520549D01*
X118699766Y-126514700D01*
X118699715Y-126514744D01*
X118694998Y-126509122D01*
X118638518Y-126455837D01*
X117000405Y-124817723D01*
X116966379Y-124755411D01*
X116963500Y-124728628D01*
X116963500Y-124239500D01*
X116983502Y-124171379D01*
X117037158Y-124124886D01*
X117089500Y-124113500D01*
X119208632Y-124113500D01*
X119208638Y-124113500D01*
X119208645Y-124113499D01*
X119208649Y-124113499D01*
X119269196Y-124106990D01*
X119269199Y-124106989D01*
X119269201Y-124106989D01*
X119406204Y-124055889D01*
X119425020Y-124041804D01*
X119523261Y-123968261D01*
X119596028Y-123871056D01*
X119652863Y-123828509D01*
X119723679Y-123823444D01*
X119762726Y-123839130D01*
X119940268Y-123947927D01*
X120166908Y-124041805D01*
X120405443Y-124099072D01*
X120650000Y-124118319D01*
X120894557Y-124099072D01*
X121133092Y-124041805D01*
X121359732Y-123947927D01*
X121568896Y-123819752D01*
X121755433Y-123660433D01*
X121824190Y-123579929D01*
X121883640Y-123541121D01*
X121954634Y-123540615D01*
X122014633Y-123578571D01*
X122015767Y-123579879D01*
X122084567Y-123660433D01*
X122271104Y-123819752D01*
X122480268Y-123947927D01*
X122706908Y-124041805D01*
X122945443Y-124099072D01*
X123190000Y-124118319D01*
X123434557Y-124099072D01*
X123673092Y-124041805D01*
X123899732Y-123947927D01*
X124108896Y-123819752D01*
X124295433Y-123660433D01*
X124454752Y-123473896D01*
X124582927Y-123264732D01*
X124676805Y-123038092D01*
X124734072Y-122799557D01*
X124753319Y-122555000D01*
X124734072Y-122310443D01*
X124706629Y-122196134D01*
X124710177Y-122125227D01*
X124740051Y-122077628D01*
X126712275Y-120105406D01*
X126774587Y-120071380D01*
X126801370Y-120068501D01*
X129499711Y-120068501D01*
X129567832Y-120088503D01*
X129614325Y-120142159D01*
X129624429Y-120212433D01*
X129621418Y-120227112D01*
X129566885Y-120430629D01*
X129547693Y-120650000D01*
X129566885Y-120869370D01*
X129623879Y-121082073D01*
X129623881Y-121082079D01*
X129697028Y-121238943D01*
X129716944Y-121281654D01*
X129722960Y-121290245D01*
X129843251Y-121462038D01*
X129843254Y-121462042D01*
X129998957Y-121617745D01*
X129998961Y-121617748D01*
X129998962Y-121617749D01*
X130179346Y-121744056D01*
X130378924Y-121837120D01*
X130591629Y-121894115D01*
X130811000Y-121913307D01*
X131030371Y-121894115D01*
X131243076Y-121837120D01*
X131442654Y-121744056D01*
X131623038Y-121617749D01*
X131778749Y-121462038D01*
X131905056Y-121281654D01*
X131929691Y-121228825D01*
X131966805Y-121149232D01*
X132013722Y-121095946D01*
X132081999Y-121076485D01*
X132149959Y-121097026D01*
X132195195Y-121149232D01*
X132232309Y-121228825D01*
X132256944Y-121281654D01*
X132312165Y-121360517D01*
X132383251Y-121462038D01*
X132383254Y-121462042D01*
X132538957Y-121617745D01*
X132538961Y-121617748D01*
X132538962Y-121617749D01*
X132719346Y-121744056D01*
X132918924Y-121837120D01*
X133131629Y-121894115D01*
X133351000Y-121913307D01*
X133570371Y-121894115D01*
X133783076Y-121837120D01*
X133982654Y-121744056D01*
X134163038Y-121617749D01*
X134318749Y-121462038D01*
X134445056Y-121281654D01*
X134469691Y-121228825D01*
X134506805Y-121149232D01*
X134553722Y-121095946D01*
X134621999Y-121076485D01*
X134689959Y-121097026D01*
X134735195Y-121149232D01*
X134772309Y-121228825D01*
X134796944Y-121281654D01*
X134852165Y-121360517D01*
X134923251Y-121462038D01*
X134923254Y-121462042D01*
X135078957Y-121617745D01*
X135078961Y-121617748D01*
X135078962Y-121617749D01*
X135259346Y-121744056D01*
X135458924Y-121837120D01*
X135671629Y-121894115D01*
X135891000Y-121913307D01*
X136110371Y-121894115D01*
X136323076Y-121837120D01*
X136522654Y-121744056D01*
X136703038Y-121617749D01*
X136858749Y-121462038D01*
X136985056Y-121281654D01*
X137009691Y-121228825D01*
X137046805Y-121149232D01*
X137093722Y-121095946D01*
X137161999Y-121076485D01*
X137229959Y-121097026D01*
X137275195Y-121149232D01*
X137312309Y-121228825D01*
X137336944Y-121281654D01*
X137392165Y-121360517D01*
X137463251Y-121462038D01*
X137463254Y-121462042D01*
X137618957Y-121617745D01*
X137618961Y-121617748D01*
X137618962Y-121617749D01*
X137799346Y-121744056D01*
X137998924Y-121837120D01*
X138211629Y-121894115D01*
X138431000Y-121913307D01*
X138650371Y-121894115D01*
X138863076Y-121837120D01*
X139062654Y-121744056D01*
X139243038Y-121617749D01*
X139398749Y-121462038D01*
X139525056Y-121281654D01*
X139618120Y-121082076D01*
X139675115Y-120869371D01*
X139694307Y-120650000D01*
X139675115Y-120430629D01*
X139618120Y-120217924D01*
X139525056Y-120018347D01*
X139398749Y-119837962D01*
X139243038Y-119682251D01*
X139218565Y-119665115D01*
X139193903Y-119647846D01*
X139062654Y-119555944D01*
X139062650Y-119555942D01*
X138863079Y-119462881D01*
X138863073Y-119462879D01*
X138773178Y-119438791D01*
X138650371Y-119405885D01*
X138431000Y-119386693D01*
X138211629Y-119405885D01*
X137998926Y-119462879D01*
X137998920Y-119462881D01*
X137799346Y-119555944D01*
X137618965Y-119682248D01*
X137618959Y-119682253D01*
X137463253Y-119837959D01*
X137463248Y-119837965D01*
X137336944Y-120018346D01*
X137275195Y-120150768D01*
X137228278Y-120204053D01*
X137160000Y-120223514D01*
X137092040Y-120202972D01*
X137046805Y-120150768D01*
X137017770Y-120088503D01*
X136985056Y-120018347D01*
X136858749Y-119837962D01*
X136703038Y-119682251D01*
X136678565Y-119665115D01*
X136653903Y-119647846D01*
X136522654Y-119555944D01*
X136522650Y-119555942D01*
X136323079Y-119462881D01*
X136323073Y-119462879D01*
X136233178Y-119438791D01*
X136110371Y-119405885D01*
X135891000Y-119386693D01*
X135671629Y-119405885D01*
X135458926Y-119462879D01*
X135458920Y-119462881D01*
X135259346Y-119555944D01*
X135078965Y-119682248D01*
X135078959Y-119682253D01*
X134923253Y-119837959D01*
X134923248Y-119837965D01*
X134796944Y-120018346D01*
X134735195Y-120150768D01*
X134688278Y-120204053D01*
X134620000Y-120223514D01*
X134552040Y-120202972D01*
X134506805Y-120150768D01*
X134477770Y-120088503D01*
X134445056Y-120018347D01*
X134318749Y-119837962D01*
X134231328Y-119750541D01*
X134197302Y-119688229D01*
X134202367Y-119617414D01*
X134231326Y-119572353D01*
X134404164Y-119399515D01*
X134466474Y-119365491D01*
X134504234Y-119363091D01*
X134621000Y-119373307D01*
X134840371Y-119354115D01*
X135053076Y-119297120D01*
X135252654Y-119204056D01*
X135433038Y-119077749D01*
X135588749Y-118922038D01*
X135715056Y-118741654D01*
X135748360Y-118670234D01*
X135776805Y-118609232D01*
X135823722Y-118555946D01*
X135891999Y-118536485D01*
X135959959Y-118557026D01*
X136005195Y-118609232D01*
X136033640Y-118670234D01*
X136066944Y-118741654D01*
X136155362Y-118867927D01*
X136193251Y-118922038D01*
X136193254Y-118922042D01*
X136348957Y-119077745D01*
X136348961Y-119077748D01*
X136348962Y-119077749D01*
X136529346Y-119204056D01*
X136728924Y-119297120D01*
X136941629Y-119354115D01*
X137161000Y-119373307D01*
X137380371Y-119354115D01*
X137593076Y-119297120D01*
X137792654Y-119204056D01*
X137973038Y-119077749D01*
X138128749Y-118922038D01*
X138255056Y-118741654D01*
X138288360Y-118670234D01*
X138316805Y-118609232D01*
X138363722Y-118555946D01*
X138431999Y-118536485D01*
X138499959Y-118557026D01*
X138545195Y-118609232D01*
X138573640Y-118670234D01*
X138606944Y-118741654D01*
X138695362Y-118867927D01*
X138733251Y-118922038D01*
X138733254Y-118922042D01*
X138888957Y-119077745D01*
X138888961Y-119077748D01*
X138888962Y-119077749D01*
X139069346Y-119204056D01*
X139268924Y-119297120D01*
X139481629Y-119354115D01*
X139701000Y-119373307D01*
X139920371Y-119354115D01*
X140133076Y-119297120D01*
X140332654Y-119204056D01*
X140513038Y-119077749D01*
X140668749Y-118922038D01*
X140795056Y-118741654D01*
X140888120Y-118542076D01*
X140945115Y-118329371D01*
X140964307Y-118110000D01*
X140945115Y-117890629D01*
X140888120Y-117677924D01*
X140795056Y-117478347D01*
X140668749Y-117297962D01*
X140513038Y-117142251D01*
X140332654Y-117015944D01*
X140332650Y-117015942D01*
X140133079Y-116922881D01*
X140133073Y-116922879D01*
X140043178Y-116898791D01*
X139920371Y-116865885D01*
X139701000Y-116846693D01*
X139481629Y-116865885D01*
X139268926Y-116922879D01*
X139268920Y-116922881D01*
X139069346Y-117015944D01*
X138888965Y-117142248D01*
X138888959Y-117142253D01*
X138733253Y-117297959D01*
X138733248Y-117297965D01*
X138606944Y-117478346D01*
X138545195Y-117610768D01*
X138498278Y-117664053D01*
X138430000Y-117683514D01*
X138362040Y-117662972D01*
X138316805Y-117610768D01*
X138296488Y-117567198D01*
X138255056Y-117478347D01*
X138128749Y-117297962D01*
X137973038Y-117142251D01*
X137792654Y-117015944D01*
X137792650Y-117015942D01*
X137593079Y-116922881D01*
X137593073Y-116922879D01*
X137503178Y-116898791D01*
X137380371Y-116865885D01*
X137161000Y-116846693D01*
X136941629Y-116865885D01*
X136728926Y-116922879D01*
X136728920Y-116922881D01*
X136529346Y-117015944D01*
X136348965Y-117142248D01*
X136348959Y-117142253D01*
X136193253Y-117297959D01*
X136193248Y-117297965D01*
X136066944Y-117478346D01*
X136005195Y-117610768D01*
X135958278Y-117664053D01*
X135890000Y-117683514D01*
X135822040Y-117662972D01*
X135776805Y-117610768D01*
X135756488Y-117567198D01*
X135715056Y-117478347D01*
X135588749Y-117297962D01*
X135433038Y-117142251D01*
X135252654Y-117015944D01*
X135252650Y-117015942D01*
X135053079Y-116922881D01*
X135053073Y-116922879D01*
X134963178Y-116898791D01*
X134840371Y-116865885D01*
X134621000Y-116846693D01*
X134401629Y-116865885D01*
X134188926Y-116922879D01*
X134188920Y-116922881D01*
X133989346Y-117015944D01*
X133808965Y-117142248D01*
X133808959Y-117142253D01*
X133653253Y-117297959D01*
X133653248Y-117297965D01*
X133526944Y-117478346D01*
X133465195Y-117610768D01*
X133418278Y-117664053D01*
X133350000Y-117683514D01*
X133282040Y-117662972D01*
X133236805Y-117610768D01*
X133216488Y-117567198D01*
X133175056Y-117478347D01*
X133048749Y-117297962D01*
X132893038Y-117142251D01*
X132712654Y-117015944D01*
X132712650Y-117015942D01*
X132513079Y-116922881D01*
X132513073Y-116922879D01*
X132423178Y-116898791D01*
X132300371Y-116865885D01*
X132081000Y-116846693D01*
X131861629Y-116865885D01*
X131648926Y-116922879D01*
X131648920Y-116922881D01*
X131449346Y-117015944D01*
X131268965Y-117142248D01*
X131268959Y-117142253D01*
X131113253Y-117297959D01*
X131113248Y-117297965D01*
X130986944Y-117478346D01*
X130893881Y-117677920D01*
X130893879Y-117677926D01*
X130836885Y-117890629D01*
X130817693Y-118110000D01*
X130836885Y-118329374D01*
X130853905Y-118392889D01*
X130852216Y-118463865D01*
X130812423Y-118522662D01*
X130747158Y-118550610D01*
X130732199Y-118551501D01*
X126499440Y-118551501D01*
X126481181Y-118550171D01*
X126457211Y-118546660D01*
X126457210Y-118546660D01*
X126450772Y-118547223D01*
X126404614Y-118551261D01*
X126399121Y-118551501D01*
X126390816Y-118551501D01*
X126357903Y-118555348D01*
X126280573Y-118562113D01*
X126273388Y-118563597D01*
X126273375Y-118563534D01*
X126266002Y-118565169D01*
X126266017Y-118565232D01*
X126258880Y-118566923D01*
X126203087Y-118587230D01*
X126185933Y-118593474D01*
X126149097Y-118605680D01*
X126112260Y-118617887D01*
X126105611Y-118620988D01*
X126105582Y-118620927D01*
X126098791Y-118624215D01*
X126098821Y-118624274D01*
X126092268Y-118627564D01*
X126027393Y-118670233D01*
X125961350Y-118710969D01*
X125955587Y-118715526D01*
X125955546Y-118715474D01*
X125949703Y-118720234D01*
X125949745Y-118720284D01*
X125944127Y-118724997D01*
X125890835Y-118781483D01*
X124163595Y-120508723D01*
X124101283Y-120542748D01*
X124030468Y-120537684D01*
X123973632Y-120495137D01*
X123948821Y-120428617D01*
X123948500Y-120419628D01*
X123948500Y-118908605D01*
X123968502Y-118840484D01*
X124008664Y-118801173D01*
X124108896Y-118739752D01*
X124295433Y-118580433D01*
X124454752Y-118393896D01*
X124582927Y-118184732D01*
X124676805Y-117958092D01*
X124734072Y-117719557D01*
X124753319Y-117475000D01*
X124734072Y-117230443D01*
X124676805Y-116991908D01*
X124582927Y-116765268D01*
X124454752Y-116556104D01*
X124295433Y-116369567D01*
X124108896Y-116210248D01*
X124108894Y-116210246D01*
X124108892Y-116210245D01*
X123986256Y-116135094D01*
X123899732Y-116082073D01*
X123673092Y-115988195D01*
X123434557Y-115930928D01*
X123190000Y-115911681D01*
X122945443Y-115930928D01*
X122706907Y-115988195D01*
X122480266Y-116082074D01*
X122271107Y-116210245D01*
X122084567Y-116369567D01*
X122015811Y-116450069D01*
X121956360Y-116488878D01*
X121885365Y-116489384D01*
X121825367Y-116451428D01*
X121824189Y-116450069D01*
X121812089Y-116435903D01*
X121755433Y-116369567D01*
X121568896Y-116210248D01*
X121568894Y-116210246D01*
X121568892Y-116210245D01*
X121446256Y-116135094D01*
X121359732Y-116082073D01*
X121133092Y-115988195D01*
X120894557Y-115930928D01*
X120650000Y-115911681D01*
X120405443Y-115930928D01*
X120166907Y-115988195D01*
X119940266Y-116082074D01*
X119762730Y-116190867D01*
X119694197Y-116209405D01*
X119626520Y-116187948D01*
X119596028Y-116158943D01*
X119523261Y-116061738D01*
X119406207Y-115974112D01*
X119406202Y-115974110D01*
X119269204Y-115923011D01*
X119269196Y-115923009D01*
X119208649Y-115916500D01*
X119208638Y-115916500D01*
X117235371Y-115916500D01*
X117167250Y-115896498D01*
X117120757Y-115842842D01*
X117110653Y-115772568D01*
X117140147Y-115707988D01*
X117146276Y-115701405D01*
X118928681Y-113919000D01*
X124950778Y-107896901D01*
X124964617Y-107884941D01*
X124984058Y-107870469D01*
X125018001Y-107830015D01*
X125021700Y-107825979D01*
X125027581Y-107820100D01*
X125037547Y-107807494D01*
X125048135Y-107794105D01*
X125077931Y-107758595D01*
X125098032Y-107734640D01*
X125098033Y-107734636D01*
X125098036Y-107734634D01*
X125102070Y-107728502D01*
X125102127Y-107728539D01*
X125106171Y-107722191D01*
X125106112Y-107722155D01*
X125109961Y-107715912D01*
X125109967Y-107715905D01*
X125142775Y-107645547D01*
X125177609Y-107576188D01*
X125177610Y-107576182D01*
X125180119Y-107569291D01*
X125180184Y-107569314D01*
X125182658Y-107562197D01*
X125182594Y-107562176D01*
X125184903Y-107555208D01*
X125200607Y-107479150D01*
X125206165Y-107455698D01*
X125218500Y-107403656D01*
X125218500Y-107403649D01*
X125219352Y-107396368D01*
X125219419Y-107396375D01*
X125220185Y-107388877D01*
X125220119Y-107388872D01*
X125220757Y-107381565D01*
X125220759Y-107381558D01*
X125218500Y-107303920D01*
X125218500Y-105024500D01*
X125238502Y-104956379D01*
X125292158Y-104909886D01*
X125344500Y-104898500D01*
X126145267Y-104898500D01*
X126213388Y-104918502D01*
X126259881Y-104972158D01*
X126263312Y-104980441D01*
X126284111Y-105036204D01*
X126284112Y-105036205D01*
X126284113Y-105036208D01*
X126371738Y-105153261D01*
X126488792Y-105240887D01*
X126488794Y-105240888D01*
X126488796Y-105240889D01*
X126533933Y-105257724D01*
X126625679Y-105291945D01*
X126682515Y-105334492D01*
X126707325Y-105401012D01*
X126692233Y-105470386D01*
X126642031Y-105520588D01*
X126625679Y-105528055D01*
X126488797Y-105579110D01*
X126488792Y-105579112D01*
X126371738Y-105666738D01*
X126284112Y-105783792D01*
X126284110Y-105783797D01*
X126233011Y-105920795D01*
X126233009Y-105920803D01*
X126226500Y-105981350D01*
X126226500Y-107378649D01*
X126233009Y-107439196D01*
X126233011Y-107439204D01*
X126284110Y-107576202D01*
X126284112Y-107576207D01*
X126371738Y-107693261D01*
X126488792Y-107780887D01*
X126488794Y-107780888D01*
X126488796Y-107780889D01*
X126547875Y-107802924D01*
X126625795Y-107831988D01*
X126625803Y-107831990D01*
X126686350Y-107838499D01*
X126686355Y-107838499D01*
X126686362Y-107838500D01*
X126750500Y-107838500D01*
X126818621Y-107858502D01*
X126865114Y-107912158D01*
X126876500Y-107964500D01*
X126876500Y-109840500D01*
X126856498Y-109908621D01*
X126802842Y-109955114D01*
X126750500Y-109966500D01*
X126686350Y-109966500D01*
X126625803Y-109973009D01*
X126625795Y-109973011D01*
X126488797Y-110024110D01*
X126488792Y-110024112D01*
X126371738Y-110111738D01*
X126284112Y-110228792D01*
X126284110Y-110228797D01*
X126233011Y-110365795D01*
X126233009Y-110365803D01*
X126226500Y-110426350D01*
X126226500Y-111823649D01*
X126233009Y-111884196D01*
X126233011Y-111884204D01*
X126284110Y-112021202D01*
X126284112Y-112021207D01*
X126371738Y-112138261D01*
X126488792Y-112225887D01*
X126488794Y-112225888D01*
X126488796Y-112225889D01*
X126523631Y-112238882D01*
X126625679Y-112276945D01*
X126682515Y-112319492D01*
X126707325Y-112386012D01*
X126692233Y-112455386D01*
X126642031Y-112505588D01*
X126625679Y-112513055D01*
X126488797Y-112564110D01*
X126488792Y-112564112D01*
X126371738Y-112651738D01*
X126284112Y-112768792D01*
X126284110Y-112768797D01*
X126233011Y-112905795D01*
X126233009Y-112905803D01*
X126226500Y-112966350D01*
X126226500Y-114363649D01*
X126233009Y-114424196D01*
X126233011Y-114424204D01*
X126284110Y-114561202D01*
X126284112Y-114561207D01*
X126371738Y-114678261D01*
X126488792Y-114765887D01*
X126488794Y-114765888D01*
X126488796Y-114765889D01*
X126547875Y-114787924D01*
X126625795Y-114816988D01*
X126625803Y-114816990D01*
X126686350Y-114823499D01*
X126686355Y-114823499D01*
X126686362Y-114823500D01*
X126686368Y-114823500D01*
X128583632Y-114823500D01*
X128583638Y-114823500D01*
X128583645Y-114823499D01*
X128583649Y-114823499D01*
X128644196Y-114816990D01*
X128644199Y-114816989D01*
X128644201Y-114816989D01*
X128781204Y-114765889D01*
X128781799Y-114765444D01*
X128898261Y-114678261D01*
X128985886Y-114561208D01*
X128985885Y-114561208D01*
X128985889Y-114561204D01*
X129006679Y-114505464D01*
X129049224Y-114448632D01*
X129115744Y-114423821D01*
X129124733Y-114423500D01*
X130110559Y-114423500D01*
X130128819Y-114424830D01*
X130133715Y-114425547D01*
X130152789Y-114428341D01*
X130186146Y-114425422D01*
X130205385Y-114423740D01*
X130210878Y-114423500D01*
X130219176Y-114423500D01*
X130219180Y-114423500D01*
X130245512Y-114420421D01*
X130252096Y-114419652D01*
X130258861Y-114419060D01*
X130329426Y-114412887D01*
X130329432Y-114412884D01*
X130336618Y-114411402D01*
X130336631Y-114411468D01*
X130343987Y-114409836D01*
X130343972Y-114409771D01*
X130351104Y-114408079D01*
X130351113Y-114408079D01*
X130424065Y-114381526D01*
X130497738Y-114357114D01*
X130497740Y-114357112D01*
X130504389Y-114354012D01*
X130504418Y-114354074D01*
X130511203Y-114350789D01*
X130511173Y-114350729D01*
X130517728Y-114347436D01*
X130517732Y-114347435D01*
X130582605Y-114304766D01*
X130648651Y-114264030D01*
X130648660Y-114264020D01*
X130654408Y-114259477D01*
X130654450Y-114259531D01*
X130660289Y-114254775D01*
X130660246Y-114254723D01*
X130665865Y-114250006D01*
X130665874Y-114250001D01*
X130719163Y-114193517D01*
X131300784Y-113611895D01*
X131314617Y-113599941D01*
X131334058Y-113585469D01*
X131368001Y-113545015D01*
X131371700Y-113540979D01*
X131377581Y-113535100D01*
X131387547Y-113522494D01*
X131398135Y-113509105D01*
X131420481Y-113482472D01*
X131448032Y-113449640D01*
X131448033Y-113449636D01*
X131448036Y-113449634D01*
X131452070Y-113443502D01*
X131452127Y-113443539D01*
X131456171Y-113437191D01*
X131456112Y-113437155D01*
X131459961Y-113430912D01*
X131459967Y-113430905D01*
X131492775Y-113360547D01*
X131527609Y-113291188D01*
X131527610Y-113291182D01*
X131530119Y-113284291D01*
X131530184Y-113284314D01*
X131532658Y-113277197D01*
X131532594Y-113277176D01*
X131534902Y-113270208D01*
X131534901Y-113270208D01*
X131534903Y-113270206D01*
X131550607Y-113194149D01*
X131553169Y-113183337D01*
X131588338Y-113121667D01*
X131631743Y-113094337D01*
X131681202Y-113075890D01*
X131681202Y-113075889D01*
X131681204Y-113075889D01*
X131798261Y-112988261D01*
X131814616Y-112966414D01*
X131885887Y-112871207D01*
X131885887Y-112871206D01*
X131885889Y-112871204D01*
X131936989Y-112734201D01*
X131943500Y-112673638D01*
X131943500Y-110664728D01*
X131963502Y-110596607D01*
X132017158Y-110550114D01*
X132087432Y-110540010D01*
X132143558Y-110562791D01*
X132258248Y-110646118D01*
X132432712Y-110723794D01*
X132619513Y-110763500D01*
X132810487Y-110763500D01*
X132997288Y-110723794D01*
X133171752Y-110646118D01*
X133183524Y-110637564D01*
X133250391Y-110613706D01*
X133257587Y-110613500D01*
X133920559Y-110613500D01*
X133938819Y-110614830D01*
X133943715Y-110615547D01*
X133962789Y-110618341D01*
X133996146Y-110615422D01*
X134015385Y-110613740D01*
X134020878Y-110613500D01*
X134029176Y-110613500D01*
X134029180Y-110613500D01*
X134055512Y-110610421D01*
X134062096Y-110609652D01*
X134068861Y-110609060D01*
X134139426Y-110602887D01*
X134139432Y-110602884D01*
X134146618Y-110601402D01*
X134146631Y-110601468D01*
X134153987Y-110599836D01*
X134153972Y-110599771D01*
X134161104Y-110598079D01*
X134161113Y-110598079D01*
X134234065Y-110571526D01*
X134280139Y-110556258D01*
X134351092Y-110553818D01*
X134412103Y-110590126D01*
X134443798Y-110653654D01*
X134436116Y-110724234D01*
X134428893Y-110738858D01*
X134420476Y-110753436D01*
X134420473Y-110753445D01*
X134361457Y-110935072D01*
X134341496Y-111125000D01*
X134361457Y-111314927D01*
X134391526Y-111407470D01*
X134420473Y-111496556D01*
X134420476Y-111496561D01*
X134515958Y-111661941D01*
X134515965Y-111661951D01*
X134643744Y-111803864D01*
X134683560Y-111832792D01*
X134798248Y-111916118D01*
X134902184Y-111962393D01*
X134956280Y-112008373D01*
X134976929Y-112076301D01*
X134957577Y-112144609D01*
X134904366Y-112191610D01*
X134902184Y-112192607D01*
X134798247Y-112238882D01*
X134671748Y-112330789D01*
X134604880Y-112354648D01*
X134535728Y-112338567D01*
X134486248Y-112287653D01*
X134479631Y-112272886D01*
X134476989Y-112265803D01*
X134476989Y-112265799D01*
X134425889Y-112128796D01*
X134425886Y-112128792D01*
X134425886Y-112128791D01*
X134338261Y-112011738D01*
X134221207Y-111924112D01*
X134221202Y-111924110D01*
X134084204Y-111873011D01*
X134084196Y-111873009D01*
X134023649Y-111866500D01*
X134023638Y-111866500D01*
X132676362Y-111866500D01*
X132676350Y-111866500D01*
X132615803Y-111873009D01*
X132615795Y-111873011D01*
X132478797Y-111924110D01*
X132478792Y-111924112D01*
X132361738Y-112011738D01*
X132274112Y-112128792D01*
X132274110Y-112128797D01*
X132223011Y-112265795D01*
X132223009Y-112265803D01*
X132216500Y-112326350D01*
X132216500Y-115423649D01*
X132223009Y-115484196D01*
X132223011Y-115484204D01*
X132274110Y-115621202D01*
X132274112Y-115621207D01*
X132361738Y-115738261D01*
X132478792Y-115825887D01*
X132478794Y-115825888D01*
X132478796Y-115825889D01*
X132537875Y-115847924D01*
X132615795Y-115876988D01*
X132615803Y-115876990D01*
X132676350Y-115883499D01*
X132676355Y-115883499D01*
X132676362Y-115883500D01*
X132676368Y-115883500D01*
X134023632Y-115883500D01*
X134023638Y-115883500D01*
X134023645Y-115883499D01*
X134023649Y-115883499D01*
X134084196Y-115876990D01*
X134084199Y-115876989D01*
X134084201Y-115876989D01*
X134221204Y-115825889D01*
X134284510Y-115778499D01*
X134338261Y-115738261D01*
X134425887Y-115621207D01*
X134425887Y-115621206D01*
X134425889Y-115621204D01*
X134476989Y-115484201D01*
X134477297Y-115481344D01*
X134483499Y-115423649D01*
X134483500Y-115423632D01*
X134483500Y-114759500D01*
X134503502Y-114691379D01*
X134557158Y-114644886D01*
X134609500Y-114633500D01*
X135591344Y-114633500D01*
X135656089Y-114633500D01*
X135659753Y-114633607D01*
X135724398Y-114637372D01*
X135724399Y-114637371D01*
X135724403Y-114637372D01*
X135731140Y-114636184D01*
X135735509Y-114635414D01*
X135757387Y-114633500D01*
X138440500Y-114633500D01*
X138508621Y-114653502D01*
X138555114Y-114707158D01*
X138566500Y-114759500D01*
X138566500Y-115318649D01*
X138573009Y-115379196D01*
X138573011Y-115379204D01*
X138624110Y-115516202D01*
X138624112Y-115516207D01*
X138711738Y-115633261D01*
X138828792Y-115720887D01*
X138828794Y-115720888D01*
X138828796Y-115720889D01*
X138875372Y-115738261D01*
X138965795Y-115771988D01*
X138965803Y-115771990D01*
X139026350Y-115778499D01*
X139026355Y-115778499D01*
X139026362Y-115778500D01*
X139026368Y-115778500D01*
X140373632Y-115778500D01*
X140373638Y-115778500D01*
X140373645Y-115778499D01*
X140373649Y-115778499D01*
X140434196Y-115771990D01*
X140434199Y-115771989D01*
X140434201Y-115771989D01*
X140571204Y-115720889D01*
X140688261Y-115633261D01*
X140775889Y-115516204D01*
X140826989Y-115379201D01*
X140833500Y-115318638D01*
X140833500Y-113919000D01*
X141467000Y-113919000D01*
X141467000Y-114363597D01*
X141473505Y-114424093D01*
X141524555Y-114560964D01*
X141524555Y-114560965D01*
X141612095Y-114677904D01*
X141729034Y-114765444D01*
X141865906Y-114816494D01*
X141926402Y-114822999D01*
X141926415Y-114823000D01*
X142621000Y-114823000D01*
X142621000Y-113919000D01*
X143129000Y-113919000D01*
X143129000Y-114823000D01*
X143823585Y-114823000D01*
X143823597Y-114822999D01*
X143884093Y-114816494D01*
X144020964Y-114765444D01*
X144020965Y-114765444D01*
X144137904Y-114677904D01*
X144225444Y-114560965D01*
X144225444Y-114560964D01*
X144276494Y-114424093D01*
X144282999Y-114363597D01*
X144283000Y-114363585D01*
X144283000Y-113919000D01*
X143129000Y-113919000D01*
X142621000Y-113919000D01*
X141467000Y-113919000D01*
X140833500Y-113919000D01*
X140833500Y-112221362D01*
X140830409Y-112192607D01*
X140826990Y-112160803D01*
X140826988Y-112160795D01*
X140775889Y-112023797D01*
X140775887Y-112023792D01*
X140688261Y-111906738D01*
X140571207Y-111819112D01*
X140571202Y-111819110D01*
X140434204Y-111768011D01*
X140434196Y-111768009D01*
X140373649Y-111761500D01*
X140373638Y-111761500D01*
X139026362Y-111761500D01*
X139026350Y-111761500D01*
X138965803Y-111768009D01*
X138965795Y-111768011D01*
X138828797Y-111819110D01*
X138828792Y-111819112D01*
X138711738Y-111906738D01*
X138624112Y-112023792D01*
X138624110Y-112023797D01*
X138573011Y-112160795D01*
X138573009Y-112160803D01*
X138566500Y-112221350D01*
X138566500Y-112990500D01*
X138546498Y-113058621D01*
X138492842Y-113105114D01*
X138440500Y-113116500D01*
X138215260Y-113116500D01*
X138147139Y-113096498D01*
X138100646Y-113042842D01*
X138090542Y-112972568D01*
X138120036Y-112907988D01*
X138139750Y-112889632D01*
X138148261Y-112883261D01*
X138233770Y-112769035D01*
X138235887Y-112766207D01*
X138235887Y-112766206D01*
X138235889Y-112766204D01*
X138286989Y-112629201D01*
X138293500Y-112568638D01*
X138293500Y-109471362D01*
X138289771Y-109436673D01*
X138286990Y-109410803D01*
X138286988Y-109410795D01*
X138252397Y-109318056D01*
X138235889Y-109273796D01*
X138235888Y-109273794D01*
X138235887Y-109273792D01*
X138148261Y-109156738D01*
X138031207Y-109069112D01*
X138031202Y-109069110D01*
X137894204Y-109018011D01*
X137894196Y-109018009D01*
X137833649Y-109011500D01*
X137833638Y-109011500D01*
X136486362Y-109011500D01*
X136486350Y-109011500D01*
X136425803Y-109018009D01*
X136425795Y-109018011D01*
X136288797Y-109069110D01*
X136288792Y-109069112D01*
X136171738Y-109156738D01*
X136084112Y-109273792D01*
X136084110Y-109273797D01*
X136033011Y-109410795D01*
X136033009Y-109410803D01*
X136026500Y-109471350D01*
X136026500Y-110135500D01*
X136006498Y-110203621D01*
X135952842Y-110250114D01*
X135900500Y-110261500D01*
X135573538Y-110261500D01*
X135543911Y-110256806D01*
X135543747Y-110257579D01*
X135508627Y-110250114D01*
X135350487Y-110216500D01*
X135159513Y-110216500D01*
X135159512Y-110216500D01*
X134987185Y-110253129D01*
X134916394Y-110247727D01*
X134859761Y-110204910D01*
X134835268Y-110138272D01*
X134850689Y-110068971D01*
X134871893Y-110040787D01*
X135991980Y-108920700D01*
X137120778Y-107791901D01*
X137134617Y-107779941D01*
X137154058Y-107765469D01*
X137188001Y-107725015D01*
X137191700Y-107720979D01*
X137197581Y-107715100D01*
X137208739Y-107700988D01*
X137218135Y-107689105D01*
X137254684Y-107645547D01*
X137268032Y-107629640D01*
X137268033Y-107629636D01*
X137268036Y-107629634D01*
X137272070Y-107623502D01*
X137272127Y-107623539D01*
X137276169Y-107617194D01*
X137276111Y-107617158D01*
X137283817Y-107604664D01*
X137286317Y-107606205D01*
X137324396Y-107562962D01*
X137391669Y-107543500D01*
X138440500Y-107543500D01*
X138508621Y-107563502D01*
X138555114Y-107617158D01*
X138566500Y-107669500D01*
X138566500Y-108333649D01*
X138573009Y-108394196D01*
X138573011Y-108394204D01*
X138624110Y-108531202D01*
X138624112Y-108531207D01*
X138711738Y-108648261D01*
X138828792Y-108735887D01*
X138828794Y-108735888D01*
X138828796Y-108735889D01*
X138887875Y-108757924D01*
X138965795Y-108786988D01*
X138965803Y-108786990D01*
X139026350Y-108793499D01*
X139026355Y-108793499D01*
X139026362Y-108793500D01*
X139026368Y-108793500D01*
X140373632Y-108793500D01*
X140373638Y-108793500D01*
X140373645Y-108793499D01*
X140373649Y-108793499D01*
X140434196Y-108786990D01*
X140434199Y-108786989D01*
X140434201Y-108786989D01*
X140571204Y-108735889D01*
X140688261Y-108648261D01*
X140775889Y-108531204D01*
X140826989Y-108394201D01*
X140833500Y-108333638D01*
X140833500Y-105236362D01*
X140833499Y-105236350D01*
X140826990Y-105175803D01*
X140826988Y-105175795D01*
X140775889Y-105038797D01*
X140775887Y-105038792D01*
X140743111Y-104995009D01*
X140718300Y-104928489D01*
X140733391Y-104859115D01*
X140783593Y-104808913D01*
X140843979Y-104793500D01*
X141348467Y-104793500D01*
X141416588Y-104813502D01*
X141463081Y-104867158D01*
X141469849Y-104891844D01*
X141471197Y-104891526D01*
X141473011Y-104899204D01*
X141524110Y-105036202D01*
X141524112Y-105036207D01*
X141611738Y-105153261D01*
X141728792Y-105240887D01*
X141728794Y-105240888D01*
X141728796Y-105240889D01*
X141773933Y-105257724D01*
X141865679Y-105291945D01*
X141922515Y-105334492D01*
X141947325Y-105401012D01*
X141932233Y-105470386D01*
X141882031Y-105520588D01*
X141865679Y-105528055D01*
X141728797Y-105579110D01*
X141728792Y-105579112D01*
X141611738Y-105666738D01*
X141524112Y-105783792D01*
X141524110Y-105783797D01*
X141473011Y-105920795D01*
X141473009Y-105920803D01*
X141466500Y-105981350D01*
X141466500Y-107378649D01*
X141473009Y-107439196D01*
X141473011Y-107439204D01*
X141524110Y-107576202D01*
X141524112Y-107576207D01*
X141611738Y-107693261D01*
X141728792Y-107780887D01*
X141728794Y-107780888D01*
X141728796Y-107780889D01*
X141787875Y-107802924D01*
X141865795Y-107831988D01*
X141865803Y-107831990D01*
X141926350Y-107838499D01*
X141926355Y-107838499D01*
X141926362Y-107838500D01*
X141990500Y-107838500D01*
X142058621Y-107858502D01*
X142105114Y-107912158D01*
X142116500Y-107964500D01*
X142116500Y-109840500D01*
X142096498Y-109908621D01*
X142042842Y-109955114D01*
X141990500Y-109966500D01*
X141926350Y-109966500D01*
X141865803Y-109973009D01*
X141865795Y-109973011D01*
X141728797Y-110024110D01*
X141728792Y-110024112D01*
X141611738Y-110111738D01*
X141524112Y-110228792D01*
X141524110Y-110228797D01*
X141473011Y-110365795D01*
X141473009Y-110365803D01*
X141466500Y-110426350D01*
X141466500Y-111823649D01*
X141473009Y-111884196D01*
X141473011Y-111884204D01*
X141524110Y-112021202D01*
X141524112Y-112021207D01*
X141611738Y-112138261D01*
X141728792Y-112225887D01*
X141728794Y-112225888D01*
X141728796Y-112225889D01*
X141763631Y-112238882D01*
X141866395Y-112277212D01*
X141923231Y-112319759D01*
X141948041Y-112386279D01*
X141932949Y-112455653D01*
X141882747Y-112505855D01*
X141866395Y-112513323D01*
X141729033Y-112564556D01*
X141612095Y-112652095D01*
X141524555Y-112769034D01*
X141524555Y-112769035D01*
X141473505Y-112905906D01*
X141467000Y-112966402D01*
X141467000Y-113411000D01*
X144283000Y-113411000D01*
X144283000Y-112966414D01*
X144282999Y-112966402D01*
X144276494Y-112905906D01*
X144225444Y-112769035D01*
X144225444Y-112769034D01*
X144137904Y-112652095D01*
X144020966Y-112564556D01*
X143883604Y-112513323D01*
X143826769Y-112470776D01*
X143801958Y-112404256D01*
X143817049Y-112334882D01*
X143867252Y-112284679D01*
X143883604Y-112277212D01*
X143948012Y-112253188D01*
X144021204Y-112225889D01*
X144027252Y-112221362D01*
X144138261Y-112138261D01*
X144225887Y-112021207D01*
X144225887Y-112021206D01*
X144225889Y-112021204D01*
X144276989Y-111884201D01*
X144278193Y-111873009D01*
X144283499Y-111823649D01*
X144283500Y-111823632D01*
X144283500Y-110426367D01*
X144283499Y-110426350D01*
X144276990Y-110365803D01*
X144276988Y-110365795D01*
X144238087Y-110261500D01*
X144225889Y-110228796D01*
X144225888Y-110228794D01*
X144225887Y-110228792D01*
X144138261Y-110111738D01*
X144021207Y-110024112D01*
X144021202Y-110024110D01*
X143884204Y-109973011D01*
X143884196Y-109973009D01*
X143823649Y-109966500D01*
X143823638Y-109966500D01*
X143759500Y-109966500D01*
X143691379Y-109946498D01*
X143644886Y-109892842D01*
X143633500Y-109840500D01*
X143633500Y-107964500D01*
X143653502Y-107896379D01*
X143707158Y-107849886D01*
X143759500Y-107838500D01*
X143823632Y-107838500D01*
X143823638Y-107838500D01*
X143823645Y-107838499D01*
X143823649Y-107838499D01*
X143884196Y-107831990D01*
X143884199Y-107831989D01*
X143884201Y-107831989D01*
X143889462Y-107830027D01*
X143916092Y-107820094D01*
X144021204Y-107780889D01*
X144138261Y-107693261D01*
X144185892Y-107629634D01*
X144225887Y-107576207D01*
X144225887Y-107576206D01*
X144225889Y-107576204D01*
X144276989Y-107439201D01*
X144280811Y-107403656D01*
X144283499Y-107378649D01*
X144283500Y-107378632D01*
X144283500Y-105981367D01*
X144283499Y-105981350D01*
X144276990Y-105920803D01*
X144276988Y-105920795D01*
X144225889Y-105783797D01*
X144225887Y-105783792D01*
X144138261Y-105666738D01*
X144021207Y-105579112D01*
X144021203Y-105579110D01*
X143884320Y-105528055D01*
X143827484Y-105485508D01*
X143802674Y-105418988D01*
X143817766Y-105349614D01*
X143867968Y-105299412D01*
X143884320Y-105291945D01*
X143953860Y-105266007D01*
X144021204Y-105240889D01*
X144027252Y-105236362D01*
X144138261Y-105153261D01*
X144225887Y-105036207D01*
X144225887Y-105036206D01*
X144225889Y-105036204D01*
X144276989Y-104899201D01*
X144277065Y-104898500D01*
X144283499Y-104838649D01*
X144283500Y-104838632D01*
X144283500Y-103441367D01*
X144283499Y-103441350D01*
X144276990Y-103380803D01*
X144276988Y-103380795D01*
X144238087Y-103276500D01*
X144225889Y-103243796D01*
X144225888Y-103243794D01*
X144225887Y-103243792D01*
X144138261Y-103126738D01*
X144021207Y-103039112D01*
X144021202Y-103039110D01*
X143884204Y-102988011D01*
X143884196Y-102988009D01*
X143823649Y-102981500D01*
X143823638Y-102981500D01*
X141926362Y-102981500D01*
X141926350Y-102981500D01*
X141865803Y-102988009D01*
X141865795Y-102988011D01*
X141728797Y-103039110D01*
X141728792Y-103039112D01*
X141611738Y-103126738D01*
X141537426Y-103226009D01*
X141480590Y-103268556D01*
X141436558Y-103276500D01*
X138419500Y-103276500D01*
X138351379Y-103256498D01*
X138304886Y-103202842D01*
X138293500Y-103150500D01*
X138293500Y-102486367D01*
X138293499Y-102486350D01*
X138286990Y-102425803D01*
X138286988Y-102425795D01*
X138235889Y-102288797D01*
X138235887Y-102288792D01*
X138148261Y-102171738D01*
X138031207Y-102084112D01*
X138031202Y-102084110D01*
X137894204Y-102033011D01*
X137894196Y-102033009D01*
X137833649Y-102026500D01*
X137833638Y-102026500D01*
X136486362Y-102026500D01*
X136486350Y-102026500D01*
X136425803Y-102033009D01*
X136425795Y-102033011D01*
X136288797Y-102084110D01*
X136288792Y-102084112D01*
X136171738Y-102171738D01*
X136084112Y-102288792D01*
X136084110Y-102288797D01*
X136033011Y-102425795D01*
X136033009Y-102425803D01*
X136026500Y-102486350D01*
X136026500Y-103330271D01*
X136006498Y-103398392D01*
X135952842Y-103444885D01*
X135882568Y-103454989D01*
X135826439Y-103432207D01*
X135711752Y-103348882D01*
X135537288Y-103271206D01*
X135350487Y-103231500D01*
X135159513Y-103231500D01*
X134985180Y-103268556D01*
X134966253Y-103272579D01*
X134966088Y-103271806D01*
X134936462Y-103276500D01*
X132069500Y-103276500D01*
X132001379Y-103256498D01*
X131954886Y-103202842D01*
X131943500Y-103150500D01*
X131943500Y-102486367D01*
X131943499Y-102486350D01*
X131936990Y-102425803D01*
X131936988Y-102425795D01*
X131885889Y-102288797D01*
X131885887Y-102288792D01*
X131798261Y-102171738D01*
X131681207Y-102084112D01*
X131681202Y-102084110D01*
X131544204Y-102033011D01*
X131544196Y-102033009D01*
X131483649Y-102026500D01*
X131483638Y-102026500D01*
X130136362Y-102026500D01*
X130136350Y-102026500D01*
X130075803Y-102033009D01*
X130075795Y-102033011D01*
X129938797Y-102084110D01*
X129938792Y-102084112D01*
X129821738Y-102171738D01*
X129734112Y-102288792D01*
X129734110Y-102288797D01*
X129683011Y-102425795D01*
X129683009Y-102425803D01*
X129676500Y-102486350D01*
X129676500Y-105583649D01*
X129683009Y-105644196D01*
X129683011Y-105644204D01*
X129734110Y-105781202D01*
X129734112Y-105781207D01*
X129821738Y-105898261D01*
X129938792Y-105985887D01*
X129938794Y-105985888D01*
X129938796Y-105985889D01*
X129994050Y-106006498D01*
X130075795Y-106036988D01*
X130075803Y-106036990D01*
X130136350Y-106043499D01*
X130136355Y-106043499D01*
X130136362Y-106043500D01*
X130136368Y-106043500D01*
X131483632Y-106043500D01*
X131483638Y-106043500D01*
X131483645Y-106043499D01*
X131483649Y-106043499D01*
X131544196Y-106036990D01*
X131544199Y-106036989D01*
X131544201Y-106036989D01*
X131681204Y-105985889D01*
X131687252Y-105981362D01*
X131798261Y-105898261D01*
X131885887Y-105781207D01*
X131885887Y-105781206D01*
X131885889Y-105781204D01*
X131936989Y-105644201D01*
X131943500Y-105583638D01*
X131943500Y-104919500D01*
X131963502Y-104851379D01*
X132017158Y-104804886D01*
X132069500Y-104793500D01*
X132206021Y-104793500D01*
X132274142Y-104813502D01*
X132320635Y-104867158D01*
X132330739Y-104937432D01*
X132306889Y-104995009D01*
X132274112Y-105038792D01*
X132274110Y-105038797D01*
X132223011Y-105175795D01*
X132223009Y-105175803D01*
X132216500Y-105236350D01*
X132216500Y-106430500D01*
X132196498Y-106498621D01*
X132142842Y-106545114D01*
X132090500Y-106556500D01*
X131987587Y-106556500D01*
X131919466Y-106536498D01*
X131913524Y-106532435D01*
X131901754Y-106523883D01*
X131845014Y-106498621D01*
X131727288Y-106446206D01*
X131540487Y-106406500D01*
X131349513Y-106406500D01*
X131162711Y-106446206D01*
X130988247Y-106523882D01*
X130833744Y-106636135D01*
X130705965Y-106778048D01*
X130705958Y-106778058D01*
X130610476Y-106943438D01*
X130610473Y-106943445D01*
X130551457Y-107125072D01*
X130531496Y-107315000D01*
X130551457Y-107504927D01*
X130574617Y-107576204D01*
X130610473Y-107686556D01*
X130626953Y-107715100D01*
X130705958Y-107851941D01*
X130705965Y-107851951D01*
X130833744Y-107993864D01*
X130833747Y-107993866D01*
X130988248Y-108106118D01*
X131162712Y-108183794D01*
X131349513Y-108223500D01*
X131540487Y-108223500D01*
X131727288Y-108183794D01*
X131901752Y-108106118D01*
X131913524Y-108097564D01*
X131980391Y-108073706D01*
X131987587Y-108073500D01*
X132090500Y-108073500D01*
X132158621Y-108093502D01*
X132205114Y-108147158D01*
X132216500Y-108199500D01*
X132216500Y-108333649D01*
X132223009Y-108394196D01*
X132223011Y-108394204D01*
X132274110Y-108531202D01*
X132274112Y-108531207D01*
X132361738Y-108648261D01*
X132478793Y-108735887D01*
X132478796Y-108735889D01*
X132483933Y-108737805D01*
X132540769Y-108780348D01*
X132565583Y-108846868D01*
X132550494Y-108916242D01*
X132500293Y-108966446D01*
X132466104Y-108979107D01*
X132432714Y-108986205D01*
X132258247Y-109063882D01*
X132103746Y-109176134D01*
X132004558Y-109286294D01*
X131944112Y-109323533D01*
X131873128Y-109322181D01*
X131814144Y-109282667D01*
X131810054Y-109277492D01*
X131798261Y-109261738D01*
X131681207Y-109174112D01*
X131681202Y-109174110D01*
X131544204Y-109123011D01*
X131544196Y-109123009D01*
X131483649Y-109116500D01*
X131483638Y-109116500D01*
X130136362Y-109116500D01*
X130136350Y-109116500D01*
X130075803Y-109123009D01*
X130075795Y-109123011D01*
X129938797Y-109174110D01*
X129938792Y-109174112D01*
X129821738Y-109261738D01*
X129734112Y-109378792D01*
X129734110Y-109378797D01*
X129683011Y-109515795D01*
X129683009Y-109515803D01*
X129676500Y-109576350D01*
X129676500Y-112673649D01*
X129683009Y-112734196D01*
X129683011Y-112734201D01*
X129683855Y-112736464D01*
X129683989Y-112738340D01*
X129684823Y-112741868D01*
X129684251Y-112742003D01*
X129688922Y-112807279D01*
X129654899Y-112869593D01*
X129592588Y-112903620D01*
X129565801Y-112906500D01*
X129124733Y-112906500D01*
X129056612Y-112886498D01*
X129010119Y-112832842D01*
X129006687Y-112824558D01*
X128985889Y-112768796D01*
X128985886Y-112768792D01*
X128985886Y-112768791D01*
X128898261Y-112651738D01*
X128781207Y-112564112D01*
X128781203Y-112564110D01*
X128644320Y-112513055D01*
X128587484Y-112470508D01*
X128562674Y-112403988D01*
X128577766Y-112334614D01*
X128627968Y-112284412D01*
X128644320Y-112276945D01*
X128713860Y-112251007D01*
X128781204Y-112225889D01*
X128787252Y-112221362D01*
X128898261Y-112138261D01*
X128985887Y-112021207D01*
X128985887Y-112021206D01*
X128985889Y-112021204D01*
X129036989Y-111884201D01*
X129038193Y-111873009D01*
X129043499Y-111823649D01*
X129043500Y-111823632D01*
X129043500Y-110426367D01*
X129043499Y-110426350D01*
X129036990Y-110365803D01*
X129036988Y-110365795D01*
X128998087Y-110261500D01*
X128985889Y-110228796D01*
X128985888Y-110228794D01*
X128985887Y-110228792D01*
X128898261Y-110111738D01*
X128781207Y-110024112D01*
X128781202Y-110024110D01*
X128644204Y-109973011D01*
X128644196Y-109973009D01*
X128583649Y-109966500D01*
X128583638Y-109966500D01*
X128519500Y-109966500D01*
X128451379Y-109946498D01*
X128404886Y-109892842D01*
X128393500Y-109840500D01*
X128393500Y-107964500D01*
X128413502Y-107896379D01*
X128467158Y-107849886D01*
X128519500Y-107838500D01*
X128583632Y-107838500D01*
X128583638Y-107838500D01*
X128583645Y-107838499D01*
X128583649Y-107838499D01*
X128644196Y-107831990D01*
X128644199Y-107831989D01*
X128644201Y-107831989D01*
X128649462Y-107830027D01*
X128676092Y-107820094D01*
X128781204Y-107780889D01*
X128898261Y-107693261D01*
X128945892Y-107629634D01*
X128985887Y-107576207D01*
X128985887Y-107576206D01*
X128985889Y-107576204D01*
X129036989Y-107439201D01*
X129040811Y-107403656D01*
X129043499Y-107378649D01*
X129043500Y-107378632D01*
X129043500Y-105981367D01*
X129043499Y-105981350D01*
X129036990Y-105920803D01*
X129036988Y-105920795D01*
X128985889Y-105783797D01*
X128985887Y-105783792D01*
X128898261Y-105666738D01*
X128781207Y-105579112D01*
X128781203Y-105579110D01*
X128644320Y-105528055D01*
X128587484Y-105485508D01*
X128562674Y-105418988D01*
X128577766Y-105349614D01*
X128627968Y-105299412D01*
X128644320Y-105291945D01*
X128713860Y-105266007D01*
X128781204Y-105240889D01*
X128787252Y-105236362D01*
X128898261Y-105153261D01*
X128985887Y-105036207D01*
X128985887Y-105036206D01*
X128985889Y-105036204D01*
X129036989Y-104899201D01*
X129037065Y-104898500D01*
X129043499Y-104838649D01*
X129043500Y-104838632D01*
X129043500Y-103441367D01*
X129043499Y-103441350D01*
X129036990Y-103380803D01*
X129036988Y-103380795D01*
X128998087Y-103276500D01*
X128985889Y-103243796D01*
X128985888Y-103243794D01*
X128985887Y-103243792D01*
X128898261Y-103126738D01*
X128781207Y-103039112D01*
X128781202Y-103039110D01*
X128644204Y-102988011D01*
X128644196Y-102988009D01*
X128583649Y-102981500D01*
X128583638Y-102981500D01*
X126686362Y-102981500D01*
X126686350Y-102981500D01*
X126625803Y-102988009D01*
X126625795Y-102988011D01*
X126488797Y-103039110D01*
X126488792Y-103039112D01*
X126371738Y-103126738D01*
X126284113Y-103243791D01*
X126284111Y-103243795D01*
X126284111Y-103243796D01*
X126263320Y-103299535D01*
X126220776Y-103356368D01*
X126154256Y-103381179D01*
X126145267Y-103381500D01*
X125344500Y-103381500D01*
X125276379Y-103361498D01*
X125229886Y-103307842D01*
X125218500Y-103255500D01*
X125218500Y-91054500D01*
X125238502Y-90986379D01*
X125292158Y-90939886D01*
X125344500Y-90928500D01*
X126145267Y-90928500D01*
X126213388Y-90948502D01*
X126259881Y-91002158D01*
X126263312Y-91010441D01*
X126284111Y-91066204D01*
X126284112Y-91066205D01*
X126284113Y-91066208D01*
X126371738Y-91183261D01*
X126488792Y-91270887D01*
X126488794Y-91270888D01*
X126488796Y-91270889D01*
X126533933Y-91287724D01*
X126625679Y-91321945D01*
X126682515Y-91364492D01*
X126707325Y-91431012D01*
X126692233Y-91500386D01*
X126642031Y-91550588D01*
X126625679Y-91558055D01*
X126488797Y-91609110D01*
X126488792Y-91609112D01*
X126371738Y-91696738D01*
X126284112Y-91813792D01*
X126284110Y-91813797D01*
X126233011Y-91950795D01*
X126233009Y-91950803D01*
X126226500Y-92011350D01*
X126226500Y-93408649D01*
X126233009Y-93469196D01*
X126233011Y-93469204D01*
X126284110Y-93606202D01*
X126284112Y-93606207D01*
X126371738Y-93723261D01*
X126488792Y-93810887D01*
X126488794Y-93810888D01*
X126488796Y-93810889D01*
X126547875Y-93832924D01*
X126625795Y-93861988D01*
X126625803Y-93861990D01*
X126686350Y-93868499D01*
X126686355Y-93868499D01*
X126686362Y-93868500D01*
X126750500Y-93868500D01*
X126818621Y-93888502D01*
X126865114Y-93942158D01*
X126876500Y-93994500D01*
X126876500Y-95870500D01*
X126856498Y-95938621D01*
X126802842Y-95985114D01*
X126750500Y-95996500D01*
X126686350Y-95996500D01*
X126625803Y-96003009D01*
X126625795Y-96003011D01*
X126488797Y-96054110D01*
X126488792Y-96054112D01*
X126371738Y-96141738D01*
X126284112Y-96258792D01*
X126284110Y-96258797D01*
X126233011Y-96395795D01*
X126233009Y-96395803D01*
X126226500Y-96456350D01*
X126226500Y-97853649D01*
X126233009Y-97914196D01*
X126233011Y-97914204D01*
X126284110Y-98051202D01*
X126284112Y-98051207D01*
X126371738Y-98168261D01*
X126488792Y-98255887D01*
X126488794Y-98255888D01*
X126488796Y-98255889D01*
X126528562Y-98270721D01*
X126625679Y-98306945D01*
X126682515Y-98349492D01*
X126707325Y-98416012D01*
X126692233Y-98485386D01*
X126642031Y-98535588D01*
X126625679Y-98543055D01*
X126488797Y-98594110D01*
X126488792Y-98594112D01*
X126371738Y-98681738D01*
X126284112Y-98798792D01*
X126284110Y-98798797D01*
X126233011Y-98935795D01*
X126233009Y-98935803D01*
X126226500Y-98996350D01*
X126226500Y-100393649D01*
X126233009Y-100454196D01*
X126233011Y-100454204D01*
X126284110Y-100591202D01*
X126284112Y-100591207D01*
X126371738Y-100708261D01*
X126488792Y-100795887D01*
X126488794Y-100795888D01*
X126488796Y-100795889D01*
X126547875Y-100817924D01*
X126625795Y-100846988D01*
X126625803Y-100846990D01*
X126686350Y-100853499D01*
X126686355Y-100853499D01*
X126686362Y-100853500D01*
X126686368Y-100853500D01*
X128583632Y-100853500D01*
X128583638Y-100853500D01*
X128583645Y-100853499D01*
X128583649Y-100853499D01*
X128644196Y-100846990D01*
X128644199Y-100846989D01*
X128644201Y-100846989D01*
X128781204Y-100795889D01*
X128781799Y-100795444D01*
X128898261Y-100708261D01*
X128985886Y-100591208D01*
X128985885Y-100591208D01*
X128985889Y-100591204D01*
X129006679Y-100535464D01*
X129049224Y-100478632D01*
X129115744Y-100453821D01*
X129124733Y-100453500D01*
X130110559Y-100453500D01*
X130128819Y-100454830D01*
X130133715Y-100455547D01*
X130152789Y-100458341D01*
X130186146Y-100455422D01*
X130205385Y-100453740D01*
X130210878Y-100453500D01*
X130219176Y-100453500D01*
X130219180Y-100453500D01*
X130245512Y-100450421D01*
X130252096Y-100449652D01*
X130258861Y-100449060D01*
X130329426Y-100442887D01*
X130329432Y-100442884D01*
X130336618Y-100441402D01*
X130336631Y-100441468D01*
X130343987Y-100439836D01*
X130343972Y-100439771D01*
X130351104Y-100438079D01*
X130351113Y-100438079D01*
X130424065Y-100411526D01*
X130497738Y-100387114D01*
X130497740Y-100387112D01*
X130504389Y-100384012D01*
X130504418Y-100384074D01*
X130511203Y-100380789D01*
X130511173Y-100380729D01*
X130517728Y-100377436D01*
X130517732Y-100377435D01*
X130582605Y-100334766D01*
X130648651Y-100294030D01*
X130648660Y-100294020D01*
X130654408Y-100289477D01*
X130654450Y-100289531D01*
X130660289Y-100284775D01*
X130660246Y-100284723D01*
X130665865Y-100280006D01*
X130665874Y-100280001D01*
X130719163Y-100223517D01*
X131300784Y-99641895D01*
X131314617Y-99629941D01*
X131334058Y-99615469D01*
X131368001Y-99575015D01*
X131371700Y-99570979D01*
X131377581Y-99565100D01*
X131387547Y-99552494D01*
X131398135Y-99539105D01*
X131420481Y-99512472D01*
X131448032Y-99479640D01*
X131448033Y-99479636D01*
X131448036Y-99479634D01*
X131452070Y-99473502D01*
X131452127Y-99473539D01*
X131456171Y-99467191D01*
X131456112Y-99467155D01*
X131459961Y-99460912D01*
X131459967Y-99460905D01*
X131492775Y-99390547D01*
X131527609Y-99321188D01*
X131527610Y-99321182D01*
X131530119Y-99314291D01*
X131530184Y-99314314D01*
X131532658Y-99307197D01*
X131532594Y-99307176D01*
X131534903Y-99300208D01*
X131550607Y-99224150D01*
X131556165Y-99200698D01*
X131568500Y-99148656D01*
X131568500Y-99148649D01*
X131569352Y-99141368D01*
X131569419Y-99141375D01*
X131570185Y-99133877D01*
X131570119Y-99133872D01*
X131571398Y-99119250D01*
X131574538Y-99119524D01*
X131588946Y-99064535D01*
X131641213Y-99016486D01*
X131652856Y-99011461D01*
X131681204Y-99000889D01*
X131798261Y-98913261D01*
X131842224Y-98854533D01*
X131885887Y-98796207D01*
X131885887Y-98796206D01*
X131885889Y-98796204D01*
X131936989Y-98659201D01*
X131936989Y-98659199D01*
X131936990Y-98659196D01*
X131943499Y-98598649D01*
X131943500Y-98598632D01*
X131943500Y-96490371D01*
X131963502Y-96422250D01*
X132017158Y-96375757D01*
X132087432Y-96365653D01*
X132152012Y-96395147D01*
X132158595Y-96401276D01*
X132554595Y-96797276D01*
X132588621Y-96859588D01*
X132591500Y-96886371D01*
X132591500Y-97719591D01*
X132571498Y-97787712D01*
X132517842Y-97834205D01*
X132509534Y-97837646D01*
X132478795Y-97849111D01*
X132478792Y-97849112D01*
X132361738Y-97936738D01*
X132274112Y-98053792D01*
X132274110Y-98053797D01*
X132223011Y-98190795D01*
X132223009Y-98190803D01*
X132216500Y-98251350D01*
X132216500Y-101348649D01*
X132223009Y-101409196D01*
X132223011Y-101409204D01*
X132274110Y-101546202D01*
X132274112Y-101546207D01*
X132361738Y-101663261D01*
X132478792Y-101750887D01*
X132478794Y-101750888D01*
X132478796Y-101750889D01*
X132537875Y-101772924D01*
X132615795Y-101801988D01*
X132615803Y-101801990D01*
X132676350Y-101808499D01*
X132676355Y-101808499D01*
X132676362Y-101808500D01*
X132676368Y-101808500D01*
X134023632Y-101808500D01*
X134023638Y-101808500D01*
X134023645Y-101808499D01*
X134023649Y-101808499D01*
X134084196Y-101801990D01*
X134084199Y-101801989D01*
X134084201Y-101801989D01*
X134221204Y-101750889D01*
X134223266Y-101749346D01*
X134338261Y-101663261D01*
X134425887Y-101546207D01*
X134425887Y-101546206D01*
X134425889Y-101546204D01*
X134476989Y-101409201D01*
X134483500Y-101348638D01*
X134483500Y-100684500D01*
X134503502Y-100616379D01*
X134557158Y-100569886D01*
X134609500Y-100558500D01*
X138440500Y-100558500D01*
X138508621Y-100578502D01*
X138555114Y-100632158D01*
X138566500Y-100684500D01*
X138566500Y-101348649D01*
X138573009Y-101409196D01*
X138573011Y-101409204D01*
X138624110Y-101546202D01*
X138624112Y-101546207D01*
X138711738Y-101663261D01*
X138828792Y-101750887D01*
X138828794Y-101750888D01*
X138828796Y-101750889D01*
X138887875Y-101772924D01*
X138965795Y-101801988D01*
X138965803Y-101801990D01*
X139026350Y-101808499D01*
X139026355Y-101808499D01*
X139026362Y-101808500D01*
X139026368Y-101808500D01*
X140373632Y-101808500D01*
X140373638Y-101808500D01*
X140373645Y-101808499D01*
X140373649Y-101808499D01*
X140434196Y-101801990D01*
X140434199Y-101801989D01*
X140434201Y-101801989D01*
X140434204Y-101801988D01*
X140561759Y-101754412D01*
X140632575Y-101749346D01*
X140694887Y-101783371D01*
X140725625Y-101833530D01*
X140770473Y-101971556D01*
X140770476Y-101971561D01*
X140865958Y-102136941D01*
X140865965Y-102136951D01*
X140993744Y-102278864D01*
X140993747Y-102278866D01*
X141148248Y-102391118D01*
X141322712Y-102468794D01*
X141509513Y-102508500D01*
X141700487Y-102508500D01*
X141887288Y-102468794D01*
X142061752Y-102391118D01*
X142216253Y-102278866D01*
X142216255Y-102278864D01*
X142344034Y-102136951D01*
X142344035Y-102136949D01*
X142344040Y-102136944D01*
X142439527Y-101971556D01*
X142498542Y-101789928D01*
X142518504Y-101600000D01*
X142498542Y-101410072D01*
X142439527Y-101228444D01*
X142344040Y-101063056D01*
X142344037Y-101063053D01*
X142340157Y-101057712D01*
X142341214Y-101056943D01*
X142313553Y-100999309D01*
X142322313Y-100928855D01*
X142367773Y-100874322D01*
X142435500Y-100853023D01*
X142437905Y-100853000D01*
X142621000Y-100853000D01*
X142621000Y-99949000D01*
X143129000Y-99949000D01*
X143129000Y-100853000D01*
X143823585Y-100853000D01*
X143823597Y-100852999D01*
X143884093Y-100846494D01*
X144020964Y-100795444D01*
X144020965Y-100795444D01*
X144137904Y-100707904D01*
X144225444Y-100590965D01*
X144225444Y-100590964D01*
X144276494Y-100454093D01*
X144282999Y-100393597D01*
X144283000Y-100393585D01*
X144283000Y-99949000D01*
X143129000Y-99949000D01*
X142621000Y-99949000D01*
X141467000Y-99949000D01*
X141467000Y-100085129D01*
X141446998Y-100153250D01*
X141393342Y-100199743D01*
X141323068Y-100209847D01*
X141258488Y-100180353D01*
X141251905Y-100174224D01*
X140870405Y-99792724D01*
X140836379Y-99730412D01*
X140833500Y-99703629D01*
X140833500Y-98251367D01*
X140833499Y-98251350D01*
X140826990Y-98190803D01*
X140826988Y-98190795D01*
X140775889Y-98053797D01*
X140775887Y-98053792D01*
X140688261Y-97936738D01*
X140571207Y-97849112D01*
X140571202Y-97849110D01*
X140434204Y-97798011D01*
X140434196Y-97798009D01*
X140373649Y-97791500D01*
X140373638Y-97791500D01*
X139026362Y-97791500D01*
X139026350Y-97791500D01*
X138965803Y-97798009D01*
X138965795Y-97798011D01*
X138828797Y-97849110D01*
X138828792Y-97849112D01*
X138711738Y-97936738D01*
X138624112Y-98053792D01*
X138624110Y-98053797D01*
X138573011Y-98190795D01*
X138573009Y-98190803D01*
X138566500Y-98251350D01*
X138566500Y-98915500D01*
X138546498Y-98983621D01*
X138492842Y-99030114D01*
X138440500Y-99041500D01*
X138303979Y-99041500D01*
X138235858Y-99021498D01*
X138189365Y-98967842D01*
X138179261Y-98897568D01*
X138203111Y-98839991D01*
X138235887Y-98796207D01*
X138235887Y-98796206D01*
X138235889Y-98796204D01*
X138286989Y-98659201D01*
X138286989Y-98659199D01*
X138286990Y-98659196D01*
X138293499Y-98598649D01*
X138293500Y-98598632D01*
X138293500Y-95501367D01*
X138293499Y-95501350D01*
X138286990Y-95440803D01*
X138286988Y-95440795D01*
X138235889Y-95303797D01*
X138235887Y-95303792D01*
X138148261Y-95186738D01*
X138031207Y-95099112D01*
X138031202Y-95099110D01*
X137894204Y-95048011D01*
X137894196Y-95048009D01*
X137833649Y-95041500D01*
X137833638Y-95041500D01*
X136486362Y-95041500D01*
X136486350Y-95041500D01*
X136425803Y-95048009D01*
X136425795Y-95048011D01*
X136288797Y-95099110D01*
X136288792Y-95099112D01*
X136171738Y-95186738D01*
X136084112Y-95303792D01*
X136084110Y-95303797D01*
X136033011Y-95440795D01*
X136033009Y-95440803D01*
X136026500Y-95501350D01*
X136026500Y-96170388D01*
X136006498Y-96238509D01*
X135952842Y-96285002D01*
X135911483Y-96295908D01*
X135840575Y-96302112D01*
X135833389Y-96303596D01*
X135833376Y-96303533D01*
X135826003Y-96305168D01*
X135826018Y-96305231D01*
X135818881Y-96306922D01*
X135763088Y-96327229D01*
X135745934Y-96333473D01*
X135714510Y-96343886D01*
X135672261Y-96357886D01*
X135665612Y-96360987D01*
X135665583Y-96360926D01*
X135658792Y-96364214D01*
X135658822Y-96364273D01*
X135652269Y-96367563D01*
X135587394Y-96410232D01*
X135521351Y-96450968D01*
X135515588Y-96455525D01*
X135515547Y-96455473D01*
X135509704Y-96460233D01*
X135509746Y-96460283D01*
X135504128Y-96464996D01*
X135450836Y-96521482D01*
X135098666Y-96873651D01*
X135036354Y-96907676D01*
X135035771Y-96907801D01*
X134986627Y-96918247D01*
X134972712Y-96921206D01*
X134895037Y-96955788D01*
X134798249Y-96998881D01*
X134798248Y-96998882D01*
X134643744Y-97111135D01*
X134515965Y-97253048D01*
X134515958Y-97253058D01*
X134420476Y-97418438D01*
X134420473Y-97418445D01*
X134361457Y-97600072D01*
X134359810Y-97615749D01*
X134332797Y-97681406D01*
X134274575Y-97722036D01*
X134203630Y-97724739D01*
X134142486Y-97688657D01*
X134110556Y-97625246D01*
X134108500Y-97602579D01*
X134108500Y-96584435D01*
X134109831Y-96566172D01*
X134113340Y-96542216D01*
X134113341Y-96542211D01*
X134108806Y-96490371D01*
X134108740Y-96489613D01*
X134108500Y-96484120D01*
X134108500Y-96475824D01*
X134107234Y-96464996D01*
X134104652Y-96442905D01*
X134097887Y-96365573D01*
X134097886Y-96365570D01*
X134097886Y-96365568D01*
X134096403Y-96358387D01*
X134096469Y-96358373D01*
X134094839Y-96351019D01*
X134094773Y-96351035D01*
X134093079Y-96343893D01*
X134093079Y-96343887D01*
X134066530Y-96270944D01*
X134042114Y-96197261D01*
X134042110Y-96197255D01*
X134039014Y-96190615D01*
X134039076Y-96190586D01*
X134035791Y-96183800D01*
X134035731Y-96183831D01*
X134032435Y-96177268D01*
X133989771Y-96112400D01*
X133949031Y-96046350D01*
X133944477Y-96040591D01*
X133944530Y-96040548D01*
X133939766Y-96034700D01*
X133939715Y-96034744D01*
X133934998Y-96029122D01*
X133878518Y-95975837D01*
X133773181Y-95870500D01*
X132941274Y-95038593D01*
X132907251Y-94976283D01*
X132912315Y-94905468D01*
X132954862Y-94848632D01*
X133021382Y-94823821D01*
X133030371Y-94823500D01*
X134023632Y-94823500D01*
X134023638Y-94823500D01*
X134023645Y-94823499D01*
X134023649Y-94823499D01*
X134084196Y-94816990D01*
X134084199Y-94816989D01*
X134084201Y-94816989D01*
X134221204Y-94765889D01*
X134338261Y-94678261D01*
X134425889Y-94561204D01*
X134476989Y-94424201D01*
X134483500Y-94363638D01*
X134483500Y-93699500D01*
X134503502Y-93631379D01*
X134557158Y-93584886D01*
X134609500Y-93573500D01*
X135696344Y-93573500D01*
X136841462Y-93573500D01*
X136871088Y-93578193D01*
X136871253Y-93577421D01*
X136877711Y-93578793D01*
X136877712Y-93578794D01*
X137064513Y-93618500D01*
X137255487Y-93618500D01*
X137313344Y-93606202D01*
X137442288Y-93578794D01*
X137442288Y-93578793D01*
X137448747Y-93577421D01*
X137448911Y-93578193D01*
X137478538Y-93573500D01*
X138440500Y-93573500D01*
X138508621Y-93593502D01*
X138555114Y-93647158D01*
X138566500Y-93699500D01*
X138566500Y-94363649D01*
X138573009Y-94424196D01*
X138573011Y-94424204D01*
X138624110Y-94561202D01*
X138624112Y-94561207D01*
X138711738Y-94678261D01*
X138828792Y-94765887D01*
X138828794Y-94765888D01*
X138828796Y-94765889D01*
X138887875Y-94787924D01*
X138965795Y-94816988D01*
X138965803Y-94816990D01*
X139026350Y-94823499D01*
X139026355Y-94823499D01*
X139026362Y-94823500D01*
X139026368Y-94823500D01*
X140373632Y-94823500D01*
X140373638Y-94823500D01*
X140373645Y-94823499D01*
X140373649Y-94823499D01*
X140434196Y-94816990D01*
X140434199Y-94816989D01*
X140434201Y-94816989D01*
X140571204Y-94765889D01*
X140688261Y-94678261D01*
X140775889Y-94561204D01*
X140826989Y-94424201D01*
X140833500Y-94363638D01*
X140833500Y-91266362D01*
X140833499Y-91266350D01*
X140826990Y-91205803D01*
X140826988Y-91205795D01*
X140775889Y-91068797D01*
X140775887Y-91068792D01*
X140743111Y-91025009D01*
X140718300Y-90958489D01*
X140733391Y-90889115D01*
X140783593Y-90838913D01*
X140843979Y-90823500D01*
X141348467Y-90823500D01*
X141416588Y-90843502D01*
X141463081Y-90897158D01*
X141469849Y-90921844D01*
X141471197Y-90921526D01*
X141473011Y-90929204D01*
X141524110Y-91066202D01*
X141524112Y-91066207D01*
X141611738Y-91183261D01*
X141728792Y-91270887D01*
X141728794Y-91270888D01*
X141728796Y-91270889D01*
X141773933Y-91287724D01*
X141865679Y-91321945D01*
X141922515Y-91364492D01*
X141947325Y-91431012D01*
X141932233Y-91500386D01*
X141882031Y-91550588D01*
X141865679Y-91558055D01*
X141728797Y-91609110D01*
X141728792Y-91609112D01*
X141611738Y-91696738D01*
X141524112Y-91813792D01*
X141524110Y-91813797D01*
X141473011Y-91950795D01*
X141473009Y-91950803D01*
X141466500Y-92011350D01*
X141466500Y-93408649D01*
X141473009Y-93469196D01*
X141473011Y-93469204D01*
X141524110Y-93606202D01*
X141524112Y-93606207D01*
X141611738Y-93723261D01*
X141728792Y-93810887D01*
X141728794Y-93810888D01*
X141728796Y-93810889D01*
X141787875Y-93832924D01*
X141865795Y-93861988D01*
X141865803Y-93861990D01*
X141926350Y-93868499D01*
X141926355Y-93868499D01*
X141926362Y-93868500D01*
X141990500Y-93868500D01*
X142058621Y-93888502D01*
X142105114Y-93942158D01*
X142116500Y-93994500D01*
X142116500Y-95870500D01*
X142096498Y-95938621D01*
X142042842Y-95985114D01*
X141990500Y-95996500D01*
X141926350Y-95996500D01*
X141865803Y-96003009D01*
X141865795Y-96003011D01*
X141728797Y-96054110D01*
X141728792Y-96054112D01*
X141611738Y-96141738D01*
X141524112Y-96258792D01*
X141524110Y-96258797D01*
X141473011Y-96395795D01*
X141473009Y-96395803D01*
X141466500Y-96456350D01*
X141466500Y-97853649D01*
X141473009Y-97914196D01*
X141473011Y-97914204D01*
X141524110Y-98051202D01*
X141524112Y-98051207D01*
X141611738Y-98168261D01*
X141728792Y-98255887D01*
X141728794Y-98255888D01*
X141728796Y-98255889D01*
X141768562Y-98270721D01*
X141866395Y-98307212D01*
X141923231Y-98349759D01*
X141948041Y-98416279D01*
X141932949Y-98485653D01*
X141882747Y-98535855D01*
X141866395Y-98543323D01*
X141729033Y-98594556D01*
X141612095Y-98682095D01*
X141524555Y-98799034D01*
X141524555Y-98799035D01*
X141473505Y-98935906D01*
X141467000Y-98996402D01*
X141467000Y-99441000D01*
X144283000Y-99441000D01*
X144283000Y-98996414D01*
X144282999Y-98996402D01*
X144276494Y-98935906D01*
X144225444Y-98799035D01*
X144225444Y-98799034D01*
X144137904Y-98682095D01*
X144020966Y-98594556D01*
X143883604Y-98543323D01*
X143826769Y-98500776D01*
X143801958Y-98434256D01*
X143817049Y-98364882D01*
X143867252Y-98314679D01*
X143883604Y-98307212D01*
X143981438Y-98270721D01*
X144021204Y-98255889D01*
X144027252Y-98251362D01*
X144138261Y-98168261D01*
X144225887Y-98051207D01*
X144225887Y-98051206D01*
X144225889Y-98051204D01*
X144276989Y-97914201D01*
X144283500Y-97853638D01*
X144283500Y-96456362D01*
X144283410Y-96455525D01*
X144276990Y-96395803D01*
X144276988Y-96395795D01*
X144243355Y-96305624D01*
X144225889Y-96258796D01*
X144225888Y-96258794D01*
X144225887Y-96258792D01*
X144138261Y-96141738D01*
X144021207Y-96054112D01*
X144021202Y-96054110D01*
X143884204Y-96003011D01*
X143884196Y-96003009D01*
X143823649Y-95996500D01*
X143823638Y-95996500D01*
X143759500Y-95996500D01*
X143691379Y-95976498D01*
X143644886Y-95922842D01*
X143633500Y-95870500D01*
X143633500Y-93994500D01*
X143653502Y-93926379D01*
X143707158Y-93879886D01*
X143759500Y-93868500D01*
X143823632Y-93868500D01*
X143823638Y-93868500D01*
X143823645Y-93868499D01*
X143823649Y-93868499D01*
X143884196Y-93861990D01*
X143884199Y-93861989D01*
X143884201Y-93861989D01*
X144021204Y-93810889D01*
X144138261Y-93723261D01*
X144207043Y-93631379D01*
X144225887Y-93606207D01*
X144225887Y-93606206D01*
X144225889Y-93606204D01*
X144276989Y-93469201D01*
X144283500Y-93408638D01*
X144283500Y-92011362D01*
X144283499Y-92011350D01*
X144276990Y-91950803D01*
X144276988Y-91950795D01*
X144225889Y-91813797D01*
X144225887Y-91813792D01*
X144138261Y-91696738D01*
X144021207Y-91609112D01*
X144021203Y-91609110D01*
X143884320Y-91558055D01*
X143827484Y-91515508D01*
X143802674Y-91448988D01*
X143817766Y-91379614D01*
X143867968Y-91329412D01*
X143884320Y-91321945D01*
X143953860Y-91296007D01*
X144021204Y-91270889D01*
X144027252Y-91266362D01*
X144138261Y-91183261D01*
X144225887Y-91066207D01*
X144225887Y-91066206D01*
X144225889Y-91066204D01*
X144276989Y-90929201D01*
X144277065Y-90928500D01*
X144283499Y-90868649D01*
X144283500Y-90868632D01*
X144283500Y-89471367D01*
X144283499Y-89471350D01*
X144276990Y-89410803D01*
X144276988Y-89410795D01*
X144235124Y-89298556D01*
X144225889Y-89273796D01*
X144225888Y-89273794D01*
X144225887Y-89273792D01*
X144138261Y-89156738D01*
X144021207Y-89069112D01*
X144021202Y-89069110D01*
X143884204Y-89018011D01*
X143884196Y-89018009D01*
X143823649Y-89011500D01*
X143823638Y-89011500D01*
X141926362Y-89011500D01*
X141926350Y-89011500D01*
X141865803Y-89018009D01*
X141865795Y-89018011D01*
X141728797Y-89069110D01*
X141728792Y-89069112D01*
X141611738Y-89156738D01*
X141537426Y-89256009D01*
X141480590Y-89298556D01*
X141436558Y-89306500D01*
X138419500Y-89306500D01*
X138351379Y-89286498D01*
X138304886Y-89232842D01*
X138293500Y-89180500D01*
X138293500Y-88516367D01*
X138293499Y-88516350D01*
X138286990Y-88455803D01*
X138286988Y-88455795D01*
X138235889Y-88318797D01*
X138235887Y-88318792D01*
X138148261Y-88201738D01*
X138031207Y-88114112D01*
X138031202Y-88114110D01*
X137894204Y-88063011D01*
X137894196Y-88063009D01*
X137833649Y-88056500D01*
X137833638Y-88056500D01*
X136564500Y-88056500D01*
X136496379Y-88036498D01*
X136449886Y-87982842D01*
X136438500Y-87930500D01*
X136438500Y-85830481D01*
X136458502Y-85762360D01*
X136512158Y-85715867D01*
X136535522Y-85707859D01*
X136539199Y-85706989D01*
X136539201Y-85706989D01*
X136676204Y-85655889D01*
X136793261Y-85568261D01*
X136864688Y-85472846D01*
X136880887Y-85451207D01*
X136880887Y-85451206D01*
X136880889Y-85451204D01*
X136931989Y-85314201D01*
X136932218Y-85312078D01*
X136938780Y-85251033D01*
X136965948Y-85185440D01*
X137024266Y-85144949D01*
X137064058Y-85138500D01*
X137448592Y-85138500D01*
X137516713Y-85158502D01*
X137524101Y-85163632D01*
X137533792Y-85170887D01*
X137533794Y-85170888D01*
X137533796Y-85170889D01*
X137592875Y-85192924D01*
X137670795Y-85221988D01*
X137670803Y-85221990D01*
X137731350Y-85228499D01*
X137731355Y-85228499D01*
X137731362Y-85228500D01*
X137731368Y-85228500D01*
X139128632Y-85228500D01*
X139128638Y-85228500D01*
X139128645Y-85228499D01*
X139128649Y-85228499D01*
X139189196Y-85221990D01*
X139189199Y-85221989D01*
X139189201Y-85221989D01*
X139326204Y-85170889D01*
X139326799Y-85170444D01*
X139443261Y-85083261D01*
X139530887Y-84966207D01*
X139530889Y-84966203D01*
X139530978Y-84965966D01*
X139581989Y-84829201D01*
X139582212Y-84828604D01*
X139624758Y-84771768D01*
X139691279Y-84746958D01*
X139760653Y-84762050D01*
X139810855Y-84812252D01*
X139818323Y-84828604D01*
X139869556Y-84965966D01*
X139957095Y-85082904D01*
X140074034Y-85170444D01*
X140210906Y-85221494D01*
X140271402Y-85227999D01*
X140271415Y-85228000D01*
X140716000Y-85228000D01*
X140716000Y-84074000D01*
X141224000Y-84074000D01*
X141224000Y-85228000D01*
X141668585Y-85228000D01*
X141668597Y-85227999D01*
X141729093Y-85221494D01*
X141865964Y-85170444D01*
X141865965Y-85170444D01*
X141982904Y-85082904D01*
X142070444Y-84965965D01*
X142070444Y-84965964D01*
X142121494Y-84829093D01*
X142127999Y-84768597D01*
X142128000Y-84768585D01*
X142128000Y-84074000D01*
X141224000Y-84074000D01*
X140716000Y-84074000D01*
X140716000Y-82412000D01*
X141224000Y-82412000D01*
X141224000Y-83566000D01*
X142128000Y-83566000D01*
X142128000Y-82871414D01*
X142127999Y-82871402D01*
X142121494Y-82810906D01*
X142070444Y-82674035D01*
X142070444Y-82674034D01*
X141982904Y-82557095D01*
X141865965Y-82469555D01*
X141729093Y-82418505D01*
X141668597Y-82412000D01*
X141224000Y-82412000D01*
X140716000Y-82412000D01*
X140271402Y-82412000D01*
X140210906Y-82418505D01*
X140074035Y-82469555D01*
X140074034Y-82469555D01*
X139957095Y-82557095D01*
X139869556Y-82674033D01*
X139818323Y-82811395D01*
X139775776Y-82868230D01*
X139709255Y-82893041D01*
X139639881Y-82877949D01*
X139589679Y-82827747D01*
X139582212Y-82811395D01*
X139530978Y-82674035D01*
X139530889Y-82673796D01*
X139530888Y-82673794D01*
X139530887Y-82673792D01*
X139443261Y-82556738D01*
X139382654Y-82511369D01*
X139340107Y-82454534D01*
X139332853Y-82397333D01*
X139343504Y-82296000D01*
X139323542Y-82106072D01*
X139323133Y-82104813D01*
X139323111Y-82104043D01*
X139322169Y-82099612D01*
X139322979Y-82099439D01*
X139321105Y-82033845D01*
X139357767Y-81973047D01*
X139367457Y-81965007D01*
X139443261Y-81908261D01*
X139530887Y-81791207D01*
X139530889Y-81791203D01*
X139530978Y-81790966D01*
X139581989Y-81654201D01*
X139582212Y-81653604D01*
X139624758Y-81596768D01*
X139691279Y-81571958D01*
X139760653Y-81587050D01*
X139810855Y-81637252D01*
X139818323Y-81653604D01*
X139869556Y-81790966D01*
X139957095Y-81907904D01*
X140074034Y-81995444D01*
X140210906Y-82046494D01*
X140271402Y-82052999D01*
X140271415Y-82053000D01*
X140716000Y-82053000D01*
X140716000Y-80899000D01*
X141224000Y-80899000D01*
X141224000Y-82053000D01*
X141668585Y-82053000D01*
X141668597Y-82052999D01*
X141729093Y-82046494D01*
X141865964Y-81995444D01*
X141865965Y-81995444D01*
X141982904Y-81907904D01*
X142070444Y-81790965D01*
X142070444Y-81790964D01*
X142121494Y-81654093D01*
X142127999Y-81593597D01*
X142128000Y-81593585D01*
X142128000Y-80899000D01*
X141224000Y-80899000D01*
X140716000Y-80899000D01*
X140716000Y-80517000D01*
X140736002Y-80448879D01*
X140789658Y-80402386D01*
X140842000Y-80391000D01*
X142128000Y-80391000D01*
X142128000Y-79696414D01*
X142127999Y-79696404D01*
X142122011Y-79640712D01*
X142134616Y-79570843D01*
X142182993Y-79518880D01*
X142236307Y-79501720D01*
X142251813Y-79500364D01*
X142270386Y-79498740D01*
X142275878Y-79498500D01*
X142284176Y-79498500D01*
X142284180Y-79498500D01*
X142310512Y-79495421D01*
X142317096Y-79494652D01*
X142323861Y-79494060D01*
X142394426Y-79487887D01*
X142394432Y-79487884D01*
X142401618Y-79486402D01*
X142401631Y-79486468D01*
X142408987Y-79484836D01*
X142408972Y-79484771D01*
X142416104Y-79483079D01*
X142416113Y-79483079D01*
X142489065Y-79456526D01*
X142562738Y-79432114D01*
X142562740Y-79432112D01*
X142569389Y-79429012D01*
X142569418Y-79429074D01*
X142576203Y-79425789D01*
X142576173Y-79425729D01*
X142582728Y-79422436D01*
X142582732Y-79422435D01*
X142647605Y-79379766D01*
X142713651Y-79339030D01*
X142713660Y-79339020D01*
X142719408Y-79334477D01*
X142719450Y-79334531D01*
X142725289Y-79329775D01*
X142725246Y-79329723D01*
X142730865Y-79325006D01*
X142730874Y-79325001D01*
X142784163Y-79268517D01*
X144000784Y-78051895D01*
X144014617Y-78039941D01*
X144034058Y-78025469D01*
X144068001Y-77985015D01*
X144071700Y-77980979D01*
X144077580Y-77975101D01*
X144098136Y-77949103D01*
X144148032Y-77889640D01*
X144148035Y-77889637D01*
X144152066Y-77883508D01*
X144152122Y-77883545D01*
X144156171Y-77877190D01*
X144156113Y-77877155D01*
X144159966Y-77870908D01*
X144192773Y-77800553D01*
X144204351Y-77777497D01*
X144227609Y-77731188D01*
X144227610Y-77731184D01*
X144230119Y-77724291D01*
X144230183Y-77724314D01*
X144232658Y-77717193D01*
X144232593Y-77717172D01*
X144234898Y-77710213D01*
X144234902Y-77710206D01*
X144250599Y-77634181D01*
X144268500Y-77558656D01*
X144269352Y-77551368D01*
X144269418Y-77551375D01*
X144270184Y-77543877D01*
X144270118Y-77543872D01*
X144270756Y-77536566D01*
X144270758Y-77536558D01*
X144269350Y-77488163D01*
X144287363Y-77419490D01*
X144339644Y-77371457D01*
X144395297Y-77358500D01*
X144458632Y-77358500D01*
X144458638Y-77358500D01*
X144458645Y-77358499D01*
X144458649Y-77358499D01*
X144519196Y-77351990D01*
X144519199Y-77351989D01*
X144519201Y-77351989D01*
X144656204Y-77300889D01*
X144773261Y-77213261D01*
X144860889Y-77096204D01*
X144911989Y-76959201D01*
X144918500Y-76898638D01*
X144918500Y-75501362D01*
X144915738Y-75475670D01*
X144911990Y-75440803D01*
X144911988Y-75440795D01*
X144860889Y-75303797D01*
X144860887Y-75303792D01*
X144773261Y-75186738D01*
X144656207Y-75099112D01*
X144656203Y-75099110D01*
X144519320Y-75048055D01*
X144462484Y-75005508D01*
X144437674Y-74938988D01*
X144452766Y-74869614D01*
X144502968Y-74819412D01*
X144519320Y-74811945D01*
X144588860Y-74786007D01*
X144656204Y-74760889D01*
X144662252Y-74756362D01*
X144773261Y-74673261D01*
X144860887Y-74556207D01*
X144860887Y-74556206D01*
X144860889Y-74556204D01*
X144911989Y-74419201D01*
X144912065Y-74418500D01*
X144918499Y-74358649D01*
X144918500Y-74358632D01*
X144918500Y-72961367D01*
X144918499Y-72961350D01*
X144911990Y-72900803D01*
X144911988Y-72900795D01*
X144866116Y-72777810D01*
X144860889Y-72763796D01*
X144860888Y-72763794D01*
X144860887Y-72763792D01*
X144773261Y-72646738D01*
X144656207Y-72559112D01*
X144656202Y-72559110D01*
X144519204Y-72508011D01*
X144519196Y-72508009D01*
X144458649Y-72501500D01*
X144458638Y-72501500D01*
X142561362Y-72501500D01*
X142561350Y-72501500D01*
X142500803Y-72508009D01*
X142500795Y-72508011D01*
X142363797Y-72559110D01*
X142363792Y-72559112D01*
X142246738Y-72646738D01*
X142159113Y-72763791D01*
X142159111Y-72763795D01*
X142159111Y-72763796D01*
X142138320Y-72819535D01*
X142095776Y-72876368D01*
X142029256Y-72901179D01*
X142020267Y-72901500D01*
X141034441Y-72901500D01*
X141016182Y-72900170D01*
X140992212Y-72896659D01*
X140992211Y-72896659D01*
X140985773Y-72897222D01*
X140939615Y-72901260D01*
X140934122Y-72901500D01*
X140925817Y-72901500D01*
X140892904Y-72905347D01*
X140815574Y-72912112D01*
X140808389Y-72913596D01*
X140808376Y-72913533D01*
X140801003Y-72915168D01*
X140801018Y-72915231D01*
X140793881Y-72916922D01*
X140738088Y-72937229D01*
X140720934Y-72943473D01*
X140684098Y-72955679D01*
X140647261Y-72967886D01*
X140640612Y-72970987D01*
X140640583Y-72970926D01*
X140633792Y-72974214D01*
X140633822Y-72974273D01*
X140627269Y-72977563D01*
X140562394Y-73020232D01*
X140496351Y-73060968D01*
X140490588Y-73065525D01*
X140490547Y-73065473D01*
X140484704Y-73070233D01*
X140484746Y-73070283D01*
X140479128Y-73074996D01*
X140425836Y-73131482D01*
X139844225Y-73713092D01*
X139830376Y-73725062D01*
X139810943Y-73739530D01*
X139777007Y-73779971D01*
X139773300Y-73784017D01*
X139767421Y-73789897D01*
X139767412Y-73789907D01*
X139746863Y-73815896D01*
X139696965Y-73875364D01*
X139692935Y-73881491D01*
X139692880Y-73881455D01*
X139688825Y-73887820D01*
X139688882Y-73887855D01*
X139685028Y-73894101D01*
X139652220Y-73964458D01*
X139617391Y-74033812D01*
X139614882Y-74040707D01*
X139614820Y-74040684D01*
X139612343Y-74047810D01*
X139612404Y-74047831D01*
X139610097Y-74054790D01*
X139594392Y-74130849D01*
X139576500Y-74206345D01*
X139575648Y-74213634D01*
X139575581Y-74213626D01*
X139574814Y-74221126D01*
X139574881Y-74221132D01*
X139574241Y-74228437D01*
X139574241Y-74228442D01*
X139574241Y-74228446D01*
X139573602Y-74235752D01*
X139570489Y-74235479D01*
X139555965Y-74290611D01*
X139503632Y-74338588D01*
X139492137Y-74343539D01*
X139463797Y-74354110D01*
X139463792Y-74354112D01*
X139346738Y-74441738D01*
X139259112Y-74558792D01*
X139259110Y-74558797D01*
X139208011Y-74695795D01*
X139208009Y-74695803D01*
X139201500Y-74756350D01*
X139201500Y-77851202D01*
X139181498Y-77919323D01*
X139127842Y-77965816D01*
X139086481Y-77976722D01*
X139076272Y-77977615D01*
X139034616Y-77981260D01*
X139029122Y-77981500D01*
X139020817Y-77981500D01*
X138987904Y-77985347D01*
X138910574Y-77992112D01*
X138903389Y-77993596D01*
X138903376Y-77993533D01*
X138896003Y-77995168D01*
X138896018Y-77995231D01*
X138888881Y-77996922D01*
X138833088Y-78017229D01*
X138815934Y-78023473D01*
X138809911Y-78025469D01*
X138742261Y-78047886D01*
X138735612Y-78050987D01*
X138735583Y-78050926D01*
X138728792Y-78054214D01*
X138728822Y-78054273D01*
X138722269Y-78057563D01*
X138657394Y-78100232D01*
X138591351Y-78140968D01*
X138585588Y-78145525D01*
X138585547Y-78145473D01*
X138579704Y-78150233D01*
X138579746Y-78150283D01*
X138574128Y-78154996D01*
X138520836Y-78211482D01*
X137939225Y-78793092D01*
X137925376Y-78805062D01*
X137905943Y-78819530D01*
X137872007Y-78859971D01*
X137868300Y-78864017D01*
X137862421Y-78869897D01*
X137862417Y-78869902D01*
X137844109Y-78893055D01*
X137786167Y-78934081D01*
X137715242Y-78937269D01*
X137653852Y-78901606D01*
X137650964Y-78898455D01*
X137648697Y-78895896D01*
X137616573Y-78859635D01*
X137566819Y-78825292D01*
X137563766Y-78823045D01*
X137559279Y-78819530D01*
X137516197Y-78785777D01*
X137516196Y-78785776D01*
X137516193Y-78785774D01*
X137507599Y-78781907D01*
X137487735Y-78770704D01*
X137479973Y-78765346D01*
X137479970Y-78765345D01*
X137423458Y-78743913D01*
X137419941Y-78742456D01*
X137364839Y-78717656D01*
X137364836Y-78717655D01*
X137355554Y-78715954D01*
X137333600Y-78709833D01*
X137324778Y-78706488D01*
X137324769Y-78706485D01*
X137264774Y-78699201D01*
X137261011Y-78698628D01*
X137201573Y-78687736D01*
X137201572Y-78687736D01*
X137141247Y-78691385D01*
X137137444Y-78691500D01*
X137064058Y-78691500D01*
X136995937Y-78671498D01*
X136949444Y-78617842D01*
X136938780Y-78578967D01*
X136931990Y-78515803D01*
X136931988Y-78515795D01*
X136880889Y-78378797D01*
X136880887Y-78378792D01*
X136793261Y-78261738D01*
X136676207Y-78174112D01*
X136676202Y-78174110D01*
X136539198Y-78123009D01*
X136535512Y-78122138D01*
X136532951Y-78120679D01*
X136531816Y-78120256D01*
X136531884Y-78120071D01*
X136473820Y-78087000D01*
X136440919Y-78024087D01*
X136438500Y-77999518D01*
X136438500Y-77940304D01*
X136458502Y-77872183D01*
X136475400Y-77851214D01*
X138262388Y-76064225D01*
X138265100Y-76061673D01*
X138310365Y-76021573D01*
X138344707Y-75971817D01*
X138346944Y-75968778D01*
X138384223Y-75921197D01*
X138388095Y-75912592D01*
X138399298Y-75892729D01*
X138404654Y-75884971D01*
X138426084Y-75828460D01*
X138427539Y-75824950D01*
X138433793Y-75811052D01*
X138452344Y-75769837D01*
X138454042Y-75760570D01*
X138460170Y-75738587D01*
X138463513Y-75729774D01*
X138470798Y-75669766D01*
X138471369Y-75666020D01*
X138475681Y-75642490D01*
X138507635Y-75579091D01*
X138555580Y-75547149D01*
X138666204Y-75505889D01*
X138672252Y-75501362D01*
X138783261Y-75418261D01*
X138870887Y-75301207D01*
X138870887Y-75301206D01*
X138870889Y-75301204D01*
X138921989Y-75164201D01*
X138928500Y-75103638D01*
X138928500Y-73016370D01*
X138948502Y-72948249D01*
X138965400Y-72927280D01*
X140190778Y-71701901D01*
X140204617Y-71689941D01*
X140224058Y-71675469D01*
X140258001Y-71635015D01*
X140261700Y-71630979D01*
X140267581Y-71625100D01*
X140277547Y-71612494D01*
X140288135Y-71599105D01*
X140326812Y-71553011D01*
X140338032Y-71539640D01*
X140338033Y-71539636D01*
X140338036Y-71539634D01*
X140342070Y-71533502D01*
X140342127Y-71533539D01*
X140346171Y-71527191D01*
X140346112Y-71527155D01*
X140349961Y-71520912D01*
X140349967Y-71520905D01*
X140382775Y-71450547D01*
X140417609Y-71381188D01*
X140417610Y-71381182D01*
X140420119Y-71374291D01*
X140420184Y-71374314D01*
X140422658Y-71367197D01*
X140422594Y-71367176D01*
X140424903Y-71360208D01*
X140440607Y-71284150D01*
X140446165Y-71260698D01*
X140458500Y-71208656D01*
X140458500Y-71208649D01*
X140459352Y-71201368D01*
X140459419Y-71201375D01*
X140460185Y-71193877D01*
X140460119Y-71193872D01*
X140460757Y-71186565D01*
X140460759Y-71186558D01*
X140458500Y-71108920D01*
X140458500Y-70648605D01*
X140478502Y-70580484D01*
X140518664Y-70541173D01*
X140618896Y-70479752D01*
X140805433Y-70320433D01*
X140964752Y-70133896D01*
X141092927Y-69924732D01*
X141186805Y-69698092D01*
X141244072Y-69459557D01*
X141263319Y-69215000D01*
X141244072Y-68970443D01*
X141186805Y-68731908D01*
X141092927Y-68505268D01*
X140964752Y-68296104D01*
X140805433Y-68109567D01*
X140618896Y-67950248D01*
X140618894Y-67950246D01*
X140618892Y-67950245D01*
X140618888Y-67950242D01*
X140518665Y-67888825D01*
X140471033Y-67836178D01*
X140458500Y-67781393D01*
X140458500Y-65568605D01*
X140478502Y-65500484D01*
X140518664Y-65461173D01*
X140618896Y-65399752D01*
X140805433Y-65240433D01*
X140964752Y-65053896D01*
X141092927Y-64844732D01*
X141186805Y-64618092D01*
X141244072Y-64379557D01*
X141263319Y-64135000D01*
X141244072Y-63890443D01*
X141186805Y-63651908D01*
X141092927Y-63425268D01*
X140964752Y-63216104D01*
X140805433Y-63029567D01*
X140618896Y-62870248D01*
X140618894Y-62870246D01*
X140618892Y-62870245D01*
X140496256Y-62795094D01*
X140409732Y-62742073D01*
X140183092Y-62648195D01*
X139944557Y-62590928D01*
X139700000Y-62571681D01*
X139455443Y-62590928D01*
X139216907Y-62648195D01*
X138990266Y-62742074D01*
X138781107Y-62870245D01*
X138594567Y-63029567D01*
X138525811Y-63110069D01*
X138466360Y-63148878D01*
X138395365Y-63149384D01*
X138335367Y-63111428D01*
X138334189Y-63110069D01*
X138322089Y-63095903D01*
X138265433Y-63029567D01*
X138078896Y-62870248D01*
X138078894Y-62870246D01*
X138078892Y-62870245D01*
X137956256Y-62795094D01*
X137869732Y-62742073D01*
X137643092Y-62648195D01*
X137404557Y-62590928D01*
X137160000Y-62571681D01*
X136915443Y-62590928D01*
X136676907Y-62648195D01*
X136450266Y-62742074D01*
X136241107Y-62870245D01*
X136054567Y-63029567D01*
X135985811Y-63110069D01*
X135926360Y-63148878D01*
X135855365Y-63149384D01*
X135795367Y-63111428D01*
X135794189Y-63110069D01*
X135782089Y-63095903D01*
X135725433Y-63029567D01*
X135538896Y-62870248D01*
X135538894Y-62870246D01*
X135538892Y-62870245D01*
X135416256Y-62795094D01*
X135329732Y-62742073D01*
X135103092Y-62648195D01*
X134864557Y-62590928D01*
X134620000Y-62571681D01*
X134375443Y-62590928D01*
X134136907Y-62648195D01*
X133910266Y-62742074D01*
X133732302Y-62851129D01*
X133663768Y-62869667D01*
X133596092Y-62848210D01*
X133565600Y-62819205D01*
X133492904Y-62722095D01*
X133375965Y-62634555D01*
X133239093Y-62583505D01*
X133178597Y-62577000D01*
X132334000Y-62577000D01*
X132334000Y-63701325D01*
X132222315Y-63650320D01*
X132115763Y-63635000D01*
X132044237Y-63635000D01*
X131937685Y-63650320D01*
X131826000Y-63701325D01*
X131826000Y-62577000D01*
X130981402Y-62577000D01*
X130920906Y-62583505D01*
X130784035Y-62634555D01*
X130784034Y-62634555D01*
X130667095Y-62722095D01*
X130579555Y-62839034D01*
X130579555Y-62839035D01*
X130528505Y-62975906D01*
X130522000Y-63036402D01*
X130522000Y-63881000D01*
X131648884Y-63881000D01*
X131620507Y-63925156D01*
X131580000Y-64063111D01*
X131580000Y-64206889D01*
X131620507Y-64344844D01*
X131648884Y-64389000D01*
X130522000Y-64389000D01*
X130522000Y-65233597D01*
X130528505Y-65294093D01*
X130579555Y-65430964D01*
X130579555Y-65430965D01*
X130667095Y-65547904D01*
X130784034Y-65635444D01*
X130883235Y-65672444D01*
X130940071Y-65714991D01*
X130964882Y-65781511D01*
X130949791Y-65850885D01*
X130899588Y-65901088D01*
X130839203Y-65916500D01*
X125794441Y-65916500D01*
X125776181Y-65915170D01*
X125752211Y-65911659D01*
X125699615Y-65916260D01*
X125694122Y-65916500D01*
X125685818Y-65916500D01*
X125663876Y-65919064D01*
X125652905Y-65920347D01*
X125643732Y-65921149D01*
X125575577Y-65927112D01*
X125568386Y-65928597D01*
X125568372Y-65928532D01*
X125561014Y-65930163D01*
X125561030Y-65930228D01*
X125553889Y-65931920D01*
X125480944Y-65958469D01*
X125407260Y-65982885D01*
X125400613Y-65985986D01*
X125400585Y-65985926D01*
X125393801Y-65989210D01*
X125393831Y-65989269D01*
X125387268Y-65992565D01*
X125322400Y-66035228D01*
X125256347Y-66075971D01*
X125250592Y-66080522D01*
X125250551Y-66080470D01*
X125244704Y-66085233D01*
X125244746Y-66085283D01*
X125239128Y-66089996D01*
X125185836Y-66146482D01*
X123969225Y-67363092D01*
X123955376Y-67375062D01*
X123935943Y-67389530D01*
X123902007Y-67429971D01*
X123898300Y-67434017D01*
X123892421Y-67439897D01*
X123892412Y-67439907D01*
X123871863Y-67465896D01*
X123821965Y-67525364D01*
X123817935Y-67531491D01*
X123817880Y-67531455D01*
X123813825Y-67537820D01*
X123813882Y-67537855D01*
X123810028Y-67544101D01*
X123777220Y-67614458D01*
X123742391Y-67683812D01*
X123739882Y-67690707D01*
X123739820Y-67690684D01*
X123737343Y-67697810D01*
X123737404Y-67697831D01*
X123735097Y-67704790D01*
X123719392Y-67780849D01*
X123701500Y-67856345D01*
X123700648Y-67863634D01*
X123700581Y-67863626D01*
X123699814Y-67871126D01*
X123699881Y-67871132D01*
X123699241Y-67878442D01*
X123701500Y-67956079D01*
X123701500Y-81977559D01*
X123700170Y-81995819D01*
X123696659Y-82019786D01*
X123696659Y-82019794D01*
X123701260Y-82072372D01*
X123701500Y-82077866D01*
X123701500Y-90146087D01*
X123701393Y-90149751D01*
X123697627Y-90214398D01*
X123697628Y-90214403D01*
X123699586Y-90225507D01*
X123701500Y-90247386D01*
X123701500Y-104116087D01*
X123701393Y-104119751D01*
X123697627Y-104184398D01*
X123697628Y-104184403D01*
X123699586Y-104195507D01*
X123701500Y-104217386D01*
X123701500Y-106948628D01*
X123681498Y-107016749D01*
X123664595Y-107037723D01*
X115785095Y-114917223D01*
X115722783Y-114951249D01*
X115651968Y-114946184D01*
X115595132Y-114903637D01*
X115570321Y-114837117D01*
X115570000Y-114828128D01*
X115570000Y-106789727D01*
X115590002Y-106721606D01*
X115643658Y-106675113D01*
X115713932Y-106665009D01*
X115778512Y-106694503D01*
X115816705Y-106753588D01*
X115913143Y-107075712D01*
X115913145Y-107075718D01*
X115913146Y-107075719D01*
X116048227Y-107388872D01*
X116051950Y-107397501D01*
X116076027Y-107439204D01*
X116219341Y-107687432D01*
X116227175Y-107701000D01*
X116436449Y-107982104D01*
X116676943Y-108237012D01*
X116676948Y-108237016D01*
X116676954Y-108237022D01*
X116945396Y-108462273D01*
X116945400Y-108462276D01*
X116945403Y-108462278D01*
X117238200Y-108654853D01*
X117551374Y-108812135D01*
X117702549Y-108867158D01*
X117880681Y-108931993D01*
X117880682Y-108931993D01*
X117880690Y-108931996D01*
X118221694Y-109012816D01*
X118408132Y-109034607D01*
X118569772Y-109053500D01*
X118569775Y-109053500D01*
X118920228Y-109053500D01*
X119081868Y-109034607D01*
X119268306Y-109012816D01*
X119609310Y-108931996D01*
X119938626Y-108812135D01*
X120251800Y-108654853D01*
X120544597Y-108462278D01*
X120813057Y-108237012D01*
X121053551Y-107982104D01*
X121262825Y-107701000D01*
X121438050Y-107397501D01*
X121576857Y-107075712D01*
X121677367Y-106739984D01*
X121738222Y-106394857D01*
X121758599Y-106045000D01*
X121738222Y-105695143D01*
X121677367Y-105350016D01*
X121576857Y-105014288D01*
X121438050Y-104692499D01*
X121262825Y-104389000D01*
X121053551Y-104107896D01*
X120813057Y-103852988D01*
X120813050Y-103852982D01*
X120813045Y-103852977D01*
X120544603Y-103627726D01*
X120281968Y-103454989D01*
X120251800Y-103435147D01*
X119938626Y-103277865D01*
X119938621Y-103277863D01*
X119938616Y-103277861D01*
X119609318Y-103158006D01*
X119609313Y-103158005D01*
X119609312Y-103158004D01*
X119609310Y-103158004D01*
X119421961Y-103113601D01*
X119268307Y-103077184D01*
X119268301Y-103077183D01*
X118920228Y-103036500D01*
X118920225Y-103036500D01*
X118569775Y-103036500D01*
X118569772Y-103036500D01*
X118221698Y-103077183D01*
X118221692Y-103077184D01*
X117880686Y-103158005D01*
X117880681Y-103158006D01*
X117551383Y-103277861D01*
X117551378Y-103277863D01*
X117551374Y-103277864D01*
X117551374Y-103277865D01*
X117491685Y-103307842D01*
X117238198Y-103435148D01*
X116945396Y-103627726D01*
X116676954Y-103852977D01*
X116676948Y-103852983D01*
X116436450Y-104107894D01*
X116227178Y-104388995D01*
X116227168Y-104389011D01*
X116051953Y-104692493D01*
X116051944Y-104692511D01*
X115913146Y-105014280D01*
X115913143Y-105014288D01*
X115817281Y-105334492D01*
X115816707Y-105336409D01*
X115778008Y-105395931D01*
X115713272Y-105425083D01*
X115643052Y-105414607D01*
X115589643Y-105367831D01*
X115570000Y-105300272D01*
X115570000Y-66149727D01*
X115590002Y-66081606D01*
X115643658Y-66035113D01*
X115713932Y-66025009D01*
X115778512Y-66054503D01*
X115816705Y-66113588D01*
X115913143Y-66435712D01*
X115913145Y-66435718D01*
X115913146Y-66435719D01*
X116026676Y-66698911D01*
X116051950Y-66757501D01*
X116227175Y-67061000D01*
X116436449Y-67342104D01*
X116676943Y-67597012D01*
X116676948Y-67597016D01*
X116676954Y-67597022D01*
X116945396Y-67822273D01*
X116945400Y-67822276D01*
X116945403Y-67822278D01*
X117238200Y-68014853D01*
X117551374Y-68172135D01*
X117689136Y-68222276D01*
X117880681Y-68291993D01*
X117880682Y-68291993D01*
X117880690Y-68291996D01*
X118221694Y-68372816D01*
X118420597Y-68396064D01*
X118569772Y-68413500D01*
X118569775Y-68413500D01*
X118920228Y-68413500D01*
X119050755Y-68398243D01*
X119268306Y-68372816D01*
X119609310Y-68291996D01*
X119938626Y-68172135D01*
X120251800Y-68014853D01*
X120544597Y-67822278D01*
X120813057Y-67597012D01*
X121053551Y-67342104D01*
X121262825Y-67061000D01*
X121438050Y-66757501D01*
X121576857Y-66435712D01*
X121677367Y-66099984D01*
X121738222Y-65754857D01*
X121758599Y-65405000D01*
X121738222Y-65055143D01*
X121677367Y-64710016D01*
X121576857Y-64374288D01*
X121438050Y-64052499D01*
X121262825Y-63749000D01*
X121053551Y-63467896D01*
X120813057Y-63212988D01*
X120813050Y-63212982D01*
X120813045Y-63212977D01*
X120544603Y-62987726D01*
X120544597Y-62987722D01*
X120251800Y-62795147D01*
X119938626Y-62637865D01*
X119938621Y-62637863D01*
X119938616Y-62637861D01*
X119609318Y-62518006D01*
X119609313Y-62518005D01*
X119609312Y-62518004D01*
X119609310Y-62518004D01*
X119443065Y-62478602D01*
X119381396Y-62443431D01*
X119348530Y-62380499D01*
X119354905Y-62309790D01*
X119398496Y-62253751D01*
X119465464Y-62230176D01*
X119472125Y-62230000D01*
X145289000Y-62230000D01*
X145357121Y-62250002D01*
G37*
G04 #@! TD.AperFunction*
G04 #@! TA.AperFunction,Conductor*
G36*
X130907324Y-67453502D02*
G01*
X130953817Y-67507158D01*
X130963921Y-67577432D01*
X130934427Y-67642012D01*
X130883235Y-67677556D01*
X130784035Y-67714555D01*
X130784034Y-67714555D01*
X130667095Y-67802095D01*
X130579555Y-67919034D01*
X130579555Y-67919035D01*
X130528505Y-68055906D01*
X130522000Y-68116402D01*
X130522000Y-68961000D01*
X131648884Y-68961000D01*
X131620507Y-69005156D01*
X131580000Y-69143111D01*
X131580000Y-69286889D01*
X131620507Y-69424844D01*
X131648884Y-69469000D01*
X130522000Y-69469000D01*
X130522000Y-70313597D01*
X130528505Y-70374093D01*
X130579555Y-70510964D01*
X130579555Y-70510965D01*
X130667095Y-70627904D01*
X130784034Y-70715444D01*
X130920906Y-70766494D01*
X130981402Y-70772999D01*
X130981415Y-70773000D01*
X131826000Y-70773000D01*
X131826000Y-69648674D01*
X131937685Y-69699680D01*
X132044237Y-69715000D01*
X132115763Y-69715000D01*
X132222315Y-69699680D01*
X132334000Y-69648674D01*
X132334000Y-70773000D01*
X133178585Y-70773000D01*
X133178597Y-70772999D01*
X133239093Y-70766494D01*
X133375964Y-70715444D01*
X133375965Y-70715444D01*
X133492904Y-70627904D01*
X133565600Y-70530794D01*
X133622436Y-70488247D01*
X133693251Y-70483183D01*
X133732299Y-70498868D01*
X133910268Y-70607927D01*
X134136908Y-70701805D01*
X134375443Y-70759072D01*
X134620000Y-70778319D01*
X134864557Y-70759072D01*
X134864559Y-70759071D01*
X134934038Y-70773667D01*
X134984597Y-70823509D01*
X135000184Y-70892774D01*
X134975849Y-70959470D01*
X134963539Y-70973778D01*
X133494225Y-72443092D01*
X133480376Y-72455062D01*
X133460943Y-72469530D01*
X133427007Y-72509971D01*
X133423300Y-72514017D01*
X133417421Y-72519897D01*
X133417412Y-72519907D01*
X133396863Y-72545896D01*
X133346965Y-72605364D01*
X133342935Y-72611491D01*
X133342880Y-72611455D01*
X133338825Y-72617820D01*
X133338882Y-72617855D01*
X133335028Y-72624101D01*
X133302220Y-72694458D01*
X133267391Y-72763812D01*
X133264882Y-72770707D01*
X133264820Y-72770684D01*
X133262343Y-72777810D01*
X133262404Y-72777831D01*
X133260097Y-72784790D01*
X133244392Y-72860849D01*
X133244392Y-72860850D01*
X133228650Y-72927275D01*
X133226500Y-72936345D01*
X133225648Y-72943634D01*
X133225581Y-72943626D01*
X133224814Y-72951126D01*
X133224881Y-72951132D01*
X133224241Y-72958442D01*
X133226500Y-73036079D01*
X133226500Y-74224591D01*
X133206498Y-74292712D01*
X133152842Y-74339205D01*
X133144534Y-74342646D01*
X133113795Y-74354111D01*
X133113792Y-74354112D01*
X132996738Y-74441738D01*
X132909112Y-74558792D01*
X132909110Y-74558797D01*
X132858011Y-74695795D01*
X132858009Y-74695803D01*
X132851500Y-74756350D01*
X132851500Y-77853649D01*
X132858009Y-77914196D01*
X132858011Y-77914204D01*
X132909110Y-78051202D01*
X132909112Y-78051207D01*
X132996738Y-78168261D01*
X133113792Y-78255887D01*
X133113794Y-78255888D01*
X133113796Y-78255889D01*
X133172875Y-78277924D01*
X133250795Y-78306988D01*
X133250803Y-78306990D01*
X133311350Y-78313499D01*
X133311355Y-78313499D01*
X133311362Y-78313500D01*
X133472524Y-78313500D01*
X133540645Y-78333502D01*
X133587138Y-78387158D01*
X133597242Y-78457432D01*
X133590580Y-78483532D01*
X133578505Y-78515905D01*
X133572000Y-78576402D01*
X133572000Y-79200000D01*
X133945500Y-79200000D01*
X134013621Y-79220002D01*
X134060114Y-79273658D01*
X134071500Y-79326000D01*
X134071500Y-79424000D01*
X134051498Y-79492121D01*
X133997842Y-79538614D01*
X133945500Y-79550000D01*
X133572000Y-79550000D01*
X133572000Y-80173597D01*
X133578505Y-80234093D01*
X133629555Y-80370964D01*
X133629555Y-80370965D01*
X133717095Y-80487904D01*
X133834034Y-80575444D01*
X133970906Y-80626494D01*
X134031402Y-80632999D01*
X134031415Y-80633000D01*
X134080001Y-80633000D01*
X134081917Y-80631083D01*
X134100002Y-80569494D01*
X134153658Y-80523001D01*
X134223932Y-80512897D01*
X134281510Y-80536748D01*
X134333791Y-80575886D01*
X134333792Y-80575887D01*
X134333794Y-80575887D01*
X134333796Y-80575889D01*
X134370464Y-80589565D01*
X134415523Y-80618524D01*
X134429999Y-80633000D01*
X134478587Y-80633000D01*
X134478602Y-80632999D01*
X134489174Y-80631862D01*
X134516116Y-80631861D01*
X134531362Y-80633500D01*
X134531366Y-80633500D01*
X134978636Y-80633500D01*
X134978638Y-80633500D01*
X134991526Y-80632114D01*
X135018474Y-80632114D01*
X135031362Y-80633500D01*
X135031364Y-80633500D01*
X135478636Y-80633500D01*
X135478638Y-80633500D01*
X135491526Y-80632114D01*
X135518474Y-80632114D01*
X135531362Y-80633500D01*
X135531364Y-80633500D01*
X135978636Y-80633500D01*
X135978638Y-80633500D01*
X135991526Y-80632114D01*
X136018474Y-80632114D01*
X136031362Y-80633500D01*
X136031364Y-80633500D01*
X136478632Y-80633500D01*
X136478638Y-80633500D01*
X136478645Y-80633499D01*
X136478649Y-80633499D01*
X136539196Y-80626990D01*
X136539199Y-80626989D01*
X136539201Y-80626989D01*
X136676204Y-80575889D01*
X136676799Y-80575444D01*
X136793261Y-80488261D01*
X136880887Y-80371207D01*
X136880888Y-80371205D01*
X136880887Y-80371205D01*
X136880889Y-80371204D01*
X136896234Y-80330060D01*
X136938779Y-80273227D01*
X137005299Y-80248415D01*
X137074673Y-80263506D01*
X137103384Y-80284999D01*
X137234595Y-80416210D01*
X137268621Y-80478522D01*
X137271500Y-80505305D01*
X137271500Y-81411500D01*
X137251498Y-81479621D01*
X137197842Y-81526114D01*
X137145500Y-81537500D01*
X129154500Y-81537500D01*
X129086379Y-81517498D01*
X129039886Y-81463842D01*
X129028500Y-81411500D01*
X129028500Y-77484500D01*
X129048502Y-77416379D01*
X129102158Y-77369886D01*
X129154500Y-77358500D01*
X129218632Y-77358500D01*
X129218638Y-77358500D01*
X129218645Y-77358499D01*
X129218649Y-77358499D01*
X129279196Y-77351990D01*
X129279199Y-77351989D01*
X129279201Y-77351989D01*
X129416204Y-77300889D01*
X129533261Y-77213261D01*
X129620889Y-77096204D01*
X129671989Y-76959201D01*
X129678500Y-76898638D01*
X129678500Y-75501362D01*
X129675738Y-75475670D01*
X129671990Y-75440803D01*
X129671988Y-75440795D01*
X129620889Y-75303797D01*
X129620887Y-75303792D01*
X129533261Y-75186738D01*
X129416207Y-75099112D01*
X129416203Y-75099110D01*
X129279320Y-75048055D01*
X129222484Y-75005508D01*
X129197674Y-74938988D01*
X129212766Y-74869614D01*
X129262968Y-74819412D01*
X129279320Y-74811945D01*
X129348860Y-74786007D01*
X129416204Y-74760889D01*
X129422252Y-74756362D01*
X129533261Y-74673261D01*
X129620887Y-74556207D01*
X129620887Y-74556206D01*
X129620889Y-74556204D01*
X129671989Y-74419201D01*
X129671990Y-74419196D01*
X129673803Y-74411526D01*
X129676959Y-74412272D01*
X129698404Y-74360464D01*
X129756711Y-74319958D01*
X129796533Y-74313500D01*
X130185500Y-74313500D01*
X130253621Y-74333502D01*
X130300114Y-74387158D01*
X130311500Y-74439500D01*
X130311500Y-75103649D01*
X130318009Y-75164196D01*
X130318011Y-75164204D01*
X130369110Y-75301202D01*
X130369112Y-75301207D01*
X130456738Y-75418261D01*
X130573792Y-75505887D01*
X130573794Y-75505888D01*
X130573796Y-75505889D01*
X130632875Y-75527924D01*
X130710795Y-75556988D01*
X130710803Y-75556990D01*
X130771350Y-75563499D01*
X130771355Y-75563499D01*
X130771362Y-75563500D01*
X130771368Y-75563500D01*
X132118632Y-75563500D01*
X132118638Y-75563500D01*
X132118645Y-75563499D01*
X132118649Y-75563499D01*
X132179196Y-75556990D01*
X132179199Y-75556989D01*
X132179201Y-75556989D01*
X132316204Y-75505889D01*
X132322252Y-75501362D01*
X132433261Y-75418261D01*
X132520887Y-75301207D01*
X132520887Y-75301206D01*
X132520889Y-75301204D01*
X132571989Y-75164201D01*
X132578500Y-75103638D01*
X132578500Y-72006362D01*
X132578499Y-72006350D01*
X132571990Y-71945803D01*
X132571988Y-71945795D01*
X132520889Y-71808797D01*
X132520887Y-71808792D01*
X132433261Y-71691738D01*
X132316207Y-71604112D01*
X132316202Y-71604110D01*
X132179204Y-71553011D01*
X132179196Y-71553009D01*
X132118649Y-71546500D01*
X132118638Y-71546500D01*
X130771362Y-71546500D01*
X130771350Y-71546500D01*
X130710803Y-71553009D01*
X130710795Y-71553011D01*
X130573797Y-71604110D01*
X130573792Y-71604112D01*
X130456738Y-71691738D01*
X130369112Y-71808792D01*
X130369110Y-71808797D01*
X130318011Y-71945795D01*
X130318009Y-71945803D01*
X130311500Y-72006350D01*
X130311500Y-72670500D01*
X130291498Y-72738621D01*
X130237842Y-72785114D01*
X130185500Y-72796500D01*
X129708442Y-72796500D01*
X129640321Y-72776498D01*
X129607574Y-72746009D01*
X129533261Y-72646738D01*
X129416207Y-72559112D01*
X129416202Y-72559110D01*
X129279204Y-72508011D01*
X129279196Y-72508009D01*
X129218649Y-72501500D01*
X129218638Y-72501500D01*
X127321362Y-72501500D01*
X127321350Y-72501500D01*
X127260803Y-72508009D01*
X127260795Y-72508011D01*
X127123797Y-72559110D01*
X127123792Y-72559112D01*
X127006738Y-72646738D01*
X126919112Y-72763792D01*
X126919110Y-72763797D01*
X126868011Y-72900795D01*
X126868009Y-72900803D01*
X126861500Y-72961350D01*
X126861500Y-74358649D01*
X126868009Y-74419196D01*
X126868011Y-74419204D01*
X126919110Y-74556202D01*
X126919112Y-74556207D01*
X127006738Y-74673261D01*
X127123792Y-74760887D01*
X127123794Y-74760888D01*
X127123796Y-74760889D01*
X127168933Y-74777724D01*
X127260679Y-74811945D01*
X127317515Y-74854492D01*
X127342325Y-74921012D01*
X127327233Y-74990386D01*
X127277031Y-75040588D01*
X127260679Y-75048055D01*
X127123797Y-75099110D01*
X127123792Y-75099112D01*
X127006738Y-75186738D01*
X126919112Y-75303792D01*
X126919110Y-75303797D01*
X126868011Y-75440795D01*
X126868009Y-75440803D01*
X126861500Y-75501350D01*
X126861500Y-76898649D01*
X126868009Y-76959196D01*
X126868011Y-76959204D01*
X126919110Y-77096202D01*
X126919112Y-77096207D01*
X127006738Y-77213261D01*
X127123792Y-77300887D01*
X127123794Y-77300888D01*
X127123796Y-77300889D01*
X127182875Y-77322924D01*
X127260795Y-77351988D01*
X127260803Y-77351990D01*
X127321350Y-77358499D01*
X127321355Y-77358499D01*
X127321362Y-77358500D01*
X127385500Y-77358500D01*
X127453621Y-77378502D01*
X127500114Y-77432158D01*
X127511500Y-77484500D01*
X127511500Y-81411500D01*
X127491498Y-81479621D01*
X127437842Y-81526114D01*
X127385500Y-81537500D01*
X125344500Y-81537500D01*
X125276379Y-81517498D01*
X125229886Y-81463842D01*
X125218500Y-81411500D01*
X125218500Y-68311371D01*
X125238502Y-68243250D01*
X125255405Y-68222276D01*
X126007276Y-67470405D01*
X126069588Y-67436379D01*
X126096371Y-67433500D01*
X130839203Y-67433500D01*
X130907324Y-67453502D01*
G37*
G04 #@! TD.AperFunction*
M02*
