%TF.GenerationSoftware,KiCad,Pcbnew,7.0.9*%
%TF.CreationDate,2023-12-23T18:19:24+01:00*%
%TF.ProjectId,testing-board,74657374-696e-4672-9d62-6f6172642e6b,v1.0*%
%TF.SameCoordinates,Original*%
%TF.FileFunction,Drillmap*%
%TF.FilePolarity,Positive*%
%FSLAX45Y45*%
G04 Gerber Fmt 4.5, Leading zero omitted, Abs format (unit mm)*
G04 Created by KiCad (PCBNEW 7.0.9) date 2023-12-23 18:19:24*
%MOMM*%
%LPD*%
G01*
G04 APERTURE LIST*
%ADD10C,0.050000*%
%ADD11C,0.200000*%
%ADD12C,0.330000*%
G04 APERTURE END LIST*
D10*
X14554200Y-6400800D02*
G75*
G03*
X14554200Y-6680200I-73800J-139700D01*
G01*
X14605000Y-6400800D02*
X14554200Y-6400800D01*
X14605000Y-6680200D02*
X14554200Y-6680200D01*
X14605000Y-6159500D02*
X14605000Y-6400800D01*
X14605000Y-12550000D02*
G75*
G03*
X14605000Y-12850000I0J-150000D01*
G01*
X11493500Y-6159500D02*
X12382500Y-6159500D01*
X11493500Y-6350000D02*
X11493500Y-6159500D01*
X11493500Y-9842500D02*
X11493500Y-6350000D01*
X11493500Y-13462000D02*
X11493500Y-9842500D01*
X14605000Y-6159500D02*
X12382500Y-6159500D01*
X14605000Y-12550000D02*
X14605000Y-6680200D01*
X14605000Y-13462000D02*
X14605000Y-12850000D01*
X11493500Y-13462000D02*
X14605000Y-13462000D01*
D11*
D12*
X12788900Y-12535000D02*
X13118900Y-12865000D01*
X13118900Y-12535000D02*
X12788900Y-12865000D01*
X13932100Y-12535000D02*
X14262100Y-12865000D01*
X14262100Y-12535000D02*
X13932100Y-12865000D01*
D11*
X11751777Y-13775984D02*
X11751777Y-13575984D01*
X11751777Y-13575984D02*
X11799396Y-13575984D01*
X11799396Y-13575984D02*
X11827967Y-13585508D01*
X11827967Y-13585508D02*
X11847015Y-13604555D01*
X11847015Y-13604555D02*
X11856539Y-13623603D01*
X11856539Y-13623603D02*
X11866062Y-13661698D01*
X11866062Y-13661698D02*
X11866062Y-13690269D01*
X11866062Y-13690269D02*
X11856539Y-13728365D01*
X11856539Y-13728365D02*
X11847015Y-13747412D01*
X11847015Y-13747412D02*
X11827967Y-13766460D01*
X11827967Y-13766460D02*
X11799396Y-13775984D01*
X11799396Y-13775984D02*
X11751777Y-13775984D01*
X11951777Y-13775984D02*
X11951777Y-13642650D01*
X11951777Y-13680746D02*
X11961301Y-13661698D01*
X11961301Y-13661698D02*
X11970824Y-13652174D01*
X11970824Y-13652174D02*
X11989872Y-13642650D01*
X11989872Y-13642650D02*
X12008920Y-13642650D01*
X12075586Y-13775984D02*
X12075586Y-13642650D01*
X12075586Y-13575984D02*
X12066062Y-13585508D01*
X12066062Y-13585508D02*
X12075586Y-13595031D01*
X12075586Y-13595031D02*
X12085110Y-13585508D01*
X12085110Y-13585508D02*
X12075586Y-13575984D01*
X12075586Y-13575984D02*
X12075586Y-13595031D01*
X12199396Y-13775984D02*
X12180348Y-13766460D01*
X12180348Y-13766460D02*
X12170824Y-13747412D01*
X12170824Y-13747412D02*
X12170824Y-13575984D01*
X12304158Y-13775984D02*
X12285110Y-13766460D01*
X12285110Y-13766460D02*
X12275586Y-13747412D01*
X12275586Y-13747412D02*
X12275586Y-13575984D01*
X12532729Y-13775984D02*
X12532729Y-13575984D01*
X12532729Y-13575984D02*
X12599396Y-13718841D01*
X12599396Y-13718841D02*
X12666062Y-13575984D01*
X12666062Y-13575984D02*
X12666062Y-13775984D01*
X12847015Y-13775984D02*
X12847015Y-13671222D01*
X12847015Y-13671222D02*
X12837491Y-13652174D01*
X12837491Y-13652174D02*
X12818443Y-13642650D01*
X12818443Y-13642650D02*
X12780348Y-13642650D01*
X12780348Y-13642650D02*
X12761301Y-13652174D01*
X12847015Y-13766460D02*
X12827967Y-13775984D01*
X12827967Y-13775984D02*
X12780348Y-13775984D01*
X12780348Y-13775984D02*
X12761301Y-13766460D01*
X12761301Y-13766460D02*
X12751777Y-13747412D01*
X12751777Y-13747412D02*
X12751777Y-13728365D01*
X12751777Y-13728365D02*
X12761301Y-13709317D01*
X12761301Y-13709317D02*
X12780348Y-13699793D01*
X12780348Y-13699793D02*
X12827967Y-13699793D01*
X12827967Y-13699793D02*
X12847015Y-13690269D01*
X12942253Y-13642650D02*
X12942253Y-13842650D01*
X12942253Y-13652174D02*
X12961301Y-13642650D01*
X12961301Y-13642650D02*
X12999396Y-13642650D01*
X12999396Y-13642650D02*
X13018443Y-13652174D01*
X13018443Y-13652174D02*
X13027967Y-13661698D01*
X13027967Y-13661698D02*
X13037491Y-13680746D01*
X13037491Y-13680746D02*
X13037491Y-13737888D01*
X13037491Y-13737888D02*
X13027967Y-13756936D01*
X13027967Y-13756936D02*
X13018443Y-13766460D01*
X13018443Y-13766460D02*
X12999396Y-13775984D01*
X12999396Y-13775984D02*
X12961301Y-13775984D01*
X12961301Y-13775984D02*
X12942253Y-13766460D01*
X13123205Y-13756936D02*
X13132729Y-13766460D01*
X13132729Y-13766460D02*
X13123205Y-13775984D01*
X13123205Y-13775984D02*
X13113682Y-13766460D01*
X13113682Y-13766460D02*
X13123205Y-13756936D01*
X13123205Y-13756936D02*
X13123205Y-13775984D01*
X13123205Y-13652174D02*
X13132729Y-13661698D01*
X13132729Y-13661698D02*
X13123205Y-13671222D01*
X13123205Y-13671222D02*
X13113682Y-13661698D01*
X13113682Y-13661698D02*
X13123205Y-13652174D01*
X13123205Y-13652174D02*
X13123205Y-13671222D01*
X11291000Y-14004500D02*
X11491000Y-14204500D01*
X11491000Y-14004500D02*
X11291000Y-14204500D01*
X11732729Y-13995984D02*
X11856539Y-13995984D01*
X11856539Y-13995984D02*
X11789872Y-14072174D01*
X11789872Y-14072174D02*
X11818443Y-14072174D01*
X11818443Y-14072174D02*
X11837491Y-14081698D01*
X11837491Y-14081698D02*
X11847015Y-14091222D01*
X11847015Y-14091222D02*
X11856539Y-14110269D01*
X11856539Y-14110269D02*
X11856539Y-14157888D01*
X11856539Y-14157888D02*
X11847015Y-14176936D01*
X11847015Y-14176936D02*
X11837491Y-14186460D01*
X11837491Y-14186460D02*
X11818443Y-14195984D01*
X11818443Y-14195984D02*
X11761301Y-14195984D01*
X11761301Y-14195984D02*
X11742253Y-14186460D01*
X11742253Y-14186460D02*
X11732729Y-14176936D01*
X11942253Y-14176936D02*
X11951777Y-14186460D01*
X11951777Y-14186460D02*
X11942253Y-14195984D01*
X11942253Y-14195984D02*
X11932729Y-14186460D01*
X11932729Y-14186460D02*
X11942253Y-14176936D01*
X11942253Y-14176936D02*
X11942253Y-14195984D01*
X12018443Y-13995984D02*
X12142253Y-13995984D01*
X12142253Y-13995984D02*
X12075586Y-14072174D01*
X12075586Y-14072174D02*
X12104158Y-14072174D01*
X12104158Y-14072174D02*
X12123205Y-14081698D01*
X12123205Y-14081698D02*
X12132729Y-14091222D01*
X12132729Y-14091222D02*
X12142253Y-14110269D01*
X12142253Y-14110269D02*
X12142253Y-14157888D01*
X12142253Y-14157888D02*
X12132729Y-14176936D01*
X12132729Y-14176936D02*
X12123205Y-14186460D01*
X12123205Y-14186460D02*
X12104158Y-14195984D01*
X12104158Y-14195984D02*
X12047015Y-14195984D01*
X12047015Y-14195984D02*
X12027967Y-14186460D01*
X12027967Y-14186460D02*
X12018443Y-14176936D01*
X12266062Y-13995984D02*
X12285110Y-13995984D01*
X12285110Y-13995984D02*
X12304158Y-14005508D01*
X12304158Y-14005508D02*
X12313682Y-14015031D01*
X12313682Y-14015031D02*
X12323205Y-14034079D01*
X12323205Y-14034079D02*
X12332729Y-14072174D01*
X12332729Y-14072174D02*
X12332729Y-14119793D01*
X12332729Y-14119793D02*
X12323205Y-14157888D01*
X12323205Y-14157888D02*
X12313682Y-14176936D01*
X12313682Y-14176936D02*
X12304158Y-14186460D01*
X12304158Y-14186460D02*
X12285110Y-14195984D01*
X12285110Y-14195984D02*
X12266062Y-14195984D01*
X12266062Y-14195984D02*
X12247015Y-14186460D01*
X12247015Y-14186460D02*
X12237491Y-14176936D01*
X12237491Y-14176936D02*
X12227967Y-14157888D01*
X12227967Y-14157888D02*
X12218443Y-14119793D01*
X12218443Y-14119793D02*
X12218443Y-14072174D01*
X12218443Y-14072174D02*
X12227967Y-14034079D01*
X12227967Y-14034079D02*
X12237491Y-14015031D01*
X12237491Y-14015031D02*
X12247015Y-14005508D01*
X12247015Y-14005508D02*
X12266062Y-13995984D01*
X12456539Y-13995984D02*
X12475586Y-13995984D01*
X12475586Y-13995984D02*
X12494634Y-14005508D01*
X12494634Y-14005508D02*
X12504158Y-14015031D01*
X12504158Y-14015031D02*
X12513682Y-14034079D01*
X12513682Y-14034079D02*
X12523205Y-14072174D01*
X12523205Y-14072174D02*
X12523205Y-14119793D01*
X12523205Y-14119793D02*
X12513682Y-14157888D01*
X12513682Y-14157888D02*
X12504158Y-14176936D01*
X12504158Y-14176936D02*
X12494634Y-14186460D01*
X12494634Y-14186460D02*
X12475586Y-14195984D01*
X12475586Y-14195984D02*
X12456539Y-14195984D01*
X12456539Y-14195984D02*
X12437491Y-14186460D01*
X12437491Y-14186460D02*
X12427967Y-14176936D01*
X12427967Y-14176936D02*
X12418443Y-14157888D01*
X12418443Y-14157888D02*
X12408920Y-14119793D01*
X12408920Y-14119793D02*
X12408920Y-14072174D01*
X12408920Y-14072174D02*
X12418443Y-14034079D01*
X12418443Y-14034079D02*
X12427967Y-14015031D01*
X12427967Y-14015031D02*
X12437491Y-14005508D01*
X12437491Y-14005508D02*
X12456539Y-13995984D01*
X12608920Y-14195984D02*
X12608920Y-14062650D01*
X12608920Y-14081698D02*
X12618443Y-14072174D01*
X12618443Y-14072174D02*
X12637491Y-14062650D01*
X12637491Y-14062650D02*
X12666063Y-14062650D01*
X12666063Y-14062650D02*
X12685110Y-14072174D01*
X12685110Y-14072174D02*
X12694634Y-14091222D01*
X12694634Y-14091222D02*
X12694634Y-14195984D01*
X12694634Y-14091222D02*
X12704158Y-14072174D01*
X12704158Y-14072174D02*
X12723205Y-14062650D01*
X12723205Y-14062650D02*
X12751777Y-14062650D01*
X12751777Y-14062650D02*
X12770824Y-14072174D01*
X12770824Y-14072174D02*
X12780348Y-14091222D01*
X12780348Y-14091222D02*
X12780348Y-14195984D01*
X12875586Y-14195984D02*
X12875586Y-14062650D01*
X12875586Y-14081698D02*
X12885110Y-14072174D01*
X12885110Y-14072174D02*
X12904158Y-14062650D01*
X12904158Y-14062650D02*
X12932729Y-14062650D01*
X12932729Y-14062650D02*
X12951777Y-14072174D01*
X12951777Y-14072174D02*
X12961301Y-14091222D01*
X12961301Y-14091222D02*
X12961301Y-14195984D01*
X12961301Y-14091222D02*
X12970824Y-14072174D01*
X12970824Y-14072174D02*
X12989872Y-14062650D01*
X12989872Y-14062650D02*
X13018443Y-14062650D01*
X13018443Y-14062650D02*
X13037491Y-14072174D01*
X13037491Y-14072174D02*
X13047015Y-14091222D01*
X13047015Y-14091222D02*
X13047015Y-14195984D01*
X13437491Y-13986460D02*
X13266063Y-14243603D01*
X13694634Y-13995984D02*
X13713682Y-13995984D01*
X13713682Y-13995984D02*
X13732729Y-14005508D01*
X13732729Y-14005508D02*
X13742253Y-14015031D01*
X13742253Y-14015031D02*
X13751777Y-14034079D01*
X13751777Y-14034079D02*
X13761301Y-14072174D01*
X13761301Y-14072174D02*
X13761301Y-14119793D01*
X13761301Y-14119793D02*
X13751777Y-14157888D01*
X13751777Y-14157888D02*
X13742253Y-14176936D01*
X13742253Y-14176936D02*
X13732729Y-14186460D01*
X13732729Y-14186460D02*
X13713682Y-14195984D01*
X13713682Y-14195984D02*
X13694634Y-14195984D01*
X13694634Y-14195984D02*
X13675586Y-14186460D01*
X13675586Y-14186460D02*
X13666063Y-14176936D01*
X13666063Y-14176936D02*
X13656539Y-14157888D01*
X13656539Y-14157888D02*
X13647015Y-14119793D01*
X13647015Y-14119793D02*
X13647015Y-14072174D01*
X13647015Y-14072174D02*
X13656539Y-14034079D01*
X13656539Y-14034079D02*
X13666063Y-14015031D01*
X13666063Y-14015031D02*
X13675586Y-14005508D01*
X13675586Y-14005508D02*
X13694634Y-13995984D01*
X13847015Y-14176936D02*
X13856539Y-14186460D01*
X13856539Y-14186460D02*
X13847015Y-14195984D01*
X13847015Y-14195984D02*
X13837491Y-14186460D01*
X13837491Y-14186460D02*
X13847015Y-14176936D01*
X13847015Y-14176936D02*
X13847015Y-14195984D01*
X14047015Y-14195984D02*
X13932729Y-14195984D01*
X13989872Y-14195984D02*
X13989872Y-13995984D01*
X13989872Y-13995984D02*
X13970825Y-14024555D01*
X13970825Y-14024555D02*
X13951777Y-14043603D01*
X13951777Y-14043603D02*
X13932729Y-14053127D01*
X14123206Y-14015031D02*
X14132729Y-14005508D01*
X14132729Y-14005508D02*
X14151777Y-13995984D01*
X14151777Y-13995984D02*
X14199396Y-13995984D01*
X14199396Y-13995984D02*
X14218444Y-14005508D01*
X14218444Y-14005508D02*
X14227967Y-14015031D01*
X14227967Y-14015031D02*
X14237491Y-14034079D01*
X14237491Y-14034079D02*
X14237491Y-14053127D01*
X14237491Y-14053127D02*
X14227967Y-14081698D01*
X14227967Y-14081698D02*
X14113682Y-14195984D01*
X14113682Y-14195984D02*
X14237491Y-14195984D01*
X14332729Y-14195984D02*
X14370825Y-14195984D01*
X14370825Y-14195984D02*
X14389872Y-14186460D01*
X14389872Y-14186460D02*
X14399396Y-14176936D01*
X14399396Y-14176936D02*
X14418444Y-14148365D01*
X14418444Y-14148365D02*
X14427967Y-14110269D01*
X14427967Y-14110269D02*
X14427967Y-14034079D01*
X14427967Y-14034079D02*
X14418444Y-14015031D01*
X14418444Y-14015031D02*
X14408920Y-14005508D01*
X14408920Y-14005508D02*
X14389872Y-13995984D01*
X14389872Y-13995984D02*
X14351777Y-13995984D01*
X14351777Y-13995984D02*
X14332729Y-14005508D01*
X14332729Y-14005508D02*
X14323206Y-14015031D01*
X14323206Y-14015031D02*
X14313682Y-14034079D01*
X14313682Y-14034079D02*
X14313682Y-14081698D01*
X14313682Y-14081698D02*
X14323206Y-14100746D01*
X14323206Y-14100746D02*
X14332729Y-14110269D01*
X14332729Y-14110269D02*
X14351777Y-14119793D01*
X14351777Y-14119793D02*
X14389872Y-14119793D01*
X14389872Y-14119793D02*
X14408920Y-14110269D01*
X14408920Y-14110269D02*
X14418444Y-14100746D01*
X14418444Y-14100746D02*
X14427967Y-14081698D01*
X14523206Y-14195984D02*
X14561301Y-14195984D01*
X14561301Y-14195984D02*
X14580348Y-14186460D01*
X14580348Y-14186460D02*
X14589872Y-14176936D01*
X14589872Y-14176936D02*
X14608920Y-14148365D01*
X14608920Y-14148365D02*
X14618444Y-14110269D01*
X14618444Y-14110269D02*
X14618444Y-14034079D01*
X14618444Y-14034079D02*
X14608920Y-14015031D01*
X14608920Y-14015031D02*
X14599396Y-14005508D01*
X14599396Y-14005508D02*
X14580348Y-13995984D01*
X14580348Y-13995984D02*
X14542253Y-13995984D01*
X14542253Y-13995984D02*
X14523206Y-14005508D01*
X14523206Y-14005508D02*
X14513682Y-14015031D01*
X14513682Y-14015031D02*
X14504158Y-14034079D01*
X14504158Y-14034079D02*
X14504158Y-14081698D01*
X14504158Y-14081698D02*
X14513682Y-14100746D01*
X14513682Y-14100746D02*
X14523206Y-14110269D01*
X14523206Y-14110269D02*
X14542253Y-14119793D01*
X14542253Y-14119793D02*
X14580348Y-14119793D01*
X14580348Y-14119793D02*
X14599396Y-14110269D01*
X14599396Y-14110269D02*
X14608920Y-14100746D01*
X14608920Y-14100746D02*
X14618444Y-14081698D01*
X14694634Y-13995984D02*
X14694634Y-14034079D01*
X14770825Y-13995984D02*
X14770825Y-14034079D01*
X15066063Y-14272174D02*
X15056539Y-14262650D01*
X15056539Y-14262650D02*
X15037491Y-14234079D01*
X15037491Y-14234079D02*
X15027968Y-14215031D01*
X15027968Y-14215031D02*
X15018444Y-14186460D01*
X15018444Y-14186460D02*
X15008920Y-14138841D01*
X15008920Y-14138841D02*
X15008920Y-14100746D01*
X15008920Y-14100746D02*
X15018444Y-14053127D01*
X15018444Y-14053127D02*
X15027968Y-14024555D01*
X15027968Y-14024555D02*
X15037491Y-14005508D01*
X15037491Y-14005508D02*
X15056539Y-13976936D01*
X15056539Y-13976936D02*
X15066063Y-13967412D01*
X15132729Y-14015031D02*
X15142253Y-14005508D01*
X15142253Y-14005508D02*
X15161301Y-13995984D01*
X15161301Y-13995984D02*
X15208920Y-13995984D01*
X15208920Y-13995984D02*
X15227968Y-14005508D01*
X15227968Y-14005508D02*
X15237491Y-14015031D01*
X15237491Y-14015031D02*
X15247015Y-14034079D01*
X15247015Y-14034079D02*
X15247015Y-14053127D01*
X15247015Y-14053127D02*
X15237491Y-14081698D01*
X15237491Y-14081698D02*
X15123206Y-14195984D01*
X15123206Y-14195984D02*
X15247015Y-14195984D01*
X15485110Y-14195984D02*
X15485110Y-13995984D01*
X15570825Y-14195984D02*
X15570825Y-14091222D01*
X15570825Y-14091222D02*
X15561301Y-14072174D01*
X15561301Y-14072174D02*
X15542253Y-14062650D01*
X15542253Y-14062650D02*
X15513682Y-14062650D01*
X15513682Y-14062650D02*
X15494634Y-14072174D01*
X15494634Y-14072174D02*
X15485110Y-14081698D01*
X15694634Y-14195984D02*
X15675587Y-14186460D01*
X15675587Y-14186460D02*
X15666063Y-14176936D01*
X15666063Y-14176936D02*
X15656539Y-14157888D01*
X15656539Y-14157888D02*
X15656539Y-14100746D01*
X15656539Y-14100746D02*
X15666063Y-14081698D01*
X15666063Y-14081698D02*
X15675587Y-14072174D01*
X15675587Y-14072174D02*
X15694634Y-14062650D01*
X15694634Y-14062650D02*
X15723206Y-14062650D01*
X15723206Y-14062650D02*
X15742253Y-14072174D01*
X15742253Y-14072174D02*
X15751777Y-14081698D01*
X15751777Y-14081698D02*
X15761301Y-14100746D01*
X15761301Y-14100746D02*
X15761301Y-14157888D01*
X15761301Y-14157888D02*
X15751777Y-14176936D01*
X15751777Y-14176936D02*
X15742253Y-14186460D01*
X15742253Y-14186460D02*
X15723206Y-14195984D01*
X15723206Y-14195984D02*
X15694634Y-14195984D01*
X15875587Y-14195984D02*
X15856539Y-14186460D01*
X15856539Y-14186460D02*
X15847015Y-14167412D01*
X15847015Y-14167412D02*
X15847015Y-13995984D01*
X16027968Y-14186460D02*
X16008920Y-14195984D01*
X16008920Y-14195984D02*
X15970825Y-14195984D01*
X15970825Y-14195984D02*
X15951777Y-14186460D01*
X15951777Y-14186460D02*
X15942253Y-14167412D01*
X15942253Y-14167412D02*
X15942253Y-14091222D01*
X15942253Y-14091222D02*
X15951777Y-14072174D01*
X15951777Y-14072174D02*
X15970825Y-14062650D01*
X15970825Y-14062650D02*
X16008920Y-14062650D01*
X16008920Y-14062650D02*
X16027968Y-14072174D01*
X16027968Y-14072174D02*
X16037491Y-14091222D01*
X16037491Y-14091222D02*
X16037491Y-14110269D01*
X16037491Y-14110269D02*
X15942253Y-14129317D01*
X16113682Y-14186460D02*
X16132730Y-14195984D01*
X16132730Y-14195984D02*
X16170825Y-14195984D01*
X16170825Y-14195984D02*
X16189872Y-14186460D01*
X16189872Y-14186460D02*
X16199396Y-14167412D01*
X16199396Y-14167412D02*
X16199396Y-14157888D01*
X16199396Y-14157888D02*
X16189872Y-14138841D01*
X16189872Y-14138841D02*
X16170825Y-14129317D01*
X16170825Y-14129317D02*
X16142253Y-14129317D01*
X16142253Y-14129317D02*
X16123206Y-14119793D01*
X16123206Y-14119793D02*
X16113682Y-14100746D01*
X16113682Y-14100746D02*
X16113682Y-14091222D01*
X16113682Y-14091222D02*
X16123206Y-14072174D01*
X16123206Y-14072174D02*
X16142253Y-14062650D01*
X16142253Y-14062650D02*
X16170825Y-14062650D01*
X16170825Y-14062650D02*
X16189872Y-14072174D01*
X16266063Y-14272174D02*
X16275587Y-14262650D01*
X16275587Y-14262650D02*
X16294634Y-14234079D01*
X16294634Y-14234079D02*
X16304158Y-14215031D01*
X16304158Y-14215031D02*
X16313682Y-14186460D01*
X16313682Y-14186460D02*
X16323206Y-14138841D01*
X16323206Y-14138841D02*
X16323206Y-14100746D01*
X16323206Y-14100746D02*
X16313682Y-14053127D01*
X16313682Y-14053127D02*
X16304158Y-14024555D01*
X16304158Y-14024555D02*
X16294634Y-14005508D01*
X16294634Y-14005508D02*
X16275587Y-13976936D01*
X16275587Y-13976936D02*
X16266063Y-13967412D01*
X16627968Y-14272174D02*
X16618444Y-14262650D01*
X16618444Y-14262650D02*
X16599396Y-14234079D01*
X16599396Y-14234079D02*
X16589872Y-14215031D01*
X16589872Y-14215031D02*
X16580349Y-14186460D01*
X16580349Y-14186460D02*
X16570825Y-14138841D01*
X16570825Y-14138841D02*
X16570825Y-14100746D01*
X16570825Y-14100746D02*
X16580349Y-14053127D01*
X16580349Y-14053127D02*
X16589872Y-14024555D01*
X16589872Y-14024555D02*
X16599396Y-14005508D01*
X16599396Y-14005508D02*
X16618444Y-13976936D01*
X16618444Y-13976936D02*
X16627968Y-13967412D01*
X16704158Y-14062650D02*
X16704158Y-14195984D01*
X16704158Y-14081698D02*
X16713682Y-14072174D01*
X16713682Y-14072174D02*
X16732730Y-14062650D01*
X16732730Y-14062650D02*
X16761301Y-14062650D01*
X16761301Y-14062650D02*
X16780349Y-14072174D01*
X16780349Y-14072174D02*
X16789873Y-14091222D01*
X16789873Y-14091222D02*
X16789873Y-14195984D01*
X16913682Y-14195984D02*
X16894634Y-14186460D01*
X16894634Y-14186460D02*
X16885111Y-14176936D01*
X16885111Y-14176936D02*
X16875587Y-14157888D01*
X16875587Y-14157888D02*
X16875587Y-14100746D01*
X16875587Y-14100746D02*
X16885111Y-14081698D01*
X16885111Y-14081698D02*
X16894634Y-14072174D01*
X16894634Y-14072174D02*
X16913682Y-14062650D01*
X16913682Y-14062650D02*
X16942254Y-14062650D01*
X16942254Y-14062650D02*
X16961301Y-14072174D01*
X16961301Y-14072174D02*
X16970825Y-14081698D01*
X16970825Y-14081698D02*
X16980349Y-14100746D01*
X16980349Y-14100746D02*
X16980349Y-14157888D01*
X16980349Y-14157888D02*
X16970825Y-14176936D01*
X16970825Y-14176936D02*
X16961301Y-14186460D01*
X16961301Y-14186460D02*
X16942254Y-14195984D01*
X16942254Y-14195984D02*
X16913682Y-14195984D01*
X17037492Y-14062650D02*
X17113682Y-14062650D01*
X17066063Y-13995984D02*
X17066063Y-14167412D01*
X17066063Y-14167412D02*
X17075587Y-14186460D01*
X17075587Y-14186460D02*
X17094634Y-14195984D01*
X17094634Y-14195984D02*
X17113682Y-14195984D01*
X17332730Y-14062650D02*
X17332730Y-14262650D01*
X17332730Y-14072174D02*
X17351777Y-14062650D01*
X17351777Y-14062650D02*
X17389873Y-14062650D01*
X17389873Y-14062650D02*
X17408920Y-14072174D01*
X17408920Y-14072174D02*
X17418444Y-14081698D01*
X17418444Y-14081698D02*
X17427968Y-14100746D01*
X17427968Y-14100746D02*
X17427968Y-14157888D01*
X17427968Y-14157888D02*
X17418444Y-14176936D01*
X17418444Y-14176936D02*
X17408920Y-14186460D01*
X17408920Y-14186460D02*
X17389873Y-14195984D01*
X17389873Y-14195984D02*
X17351777Y-14195984D01*
X17351777Y-14195984D02*
X17332730Y-14186460D01*
X17542254Y-14195984D02*
X17523206Y-14186460D01*
X17523206Y-14186460D02*
X17513682Y-14167412D01*
X17513682Y-14167412D02*
X17513682Y-13995984D01*
X17704158Y-14195984D02*
X17704158Y-14091222D01*
X17704158Y-14091222D02*
X17694635Y-14072174D01*
X17694635Y-14072174D02*
X17675587Y-14062650D01*
X17675587Y-14062650D02*
X17637492Y-14062650D01*
X17637492Y-14062650D02*
X17618444Y-14072174D01*
X17704158Y-14186460D02*
X17685111Y-14195984D01*
X17685111Y-14195984D02*
X17637492Y-14195984D01*
X17637492Y-14195984D02*
X17618444Y-14186460D01*
X17618444Y-14186460D02*
X17608920Y-14167412D01*
X17608920Y-14167412D02*
X17608920Y-14148365D01*
X17608920Y-14148365D02*
X17618444Y-14129317D01*
X17618444Y-14129317D02*
X17637492Y-14119793D01*
X17637492Y-14119793D02*
X17685111Y-14119793D01*
X17685111Y-14119793D02*
X17704158Y-14110269D01*
X17770825Y-14062650D02*
X17847015Y-14062650D01*
X17799396Y-13995984D02*
X17799396Y-14167412D01*
X17799396Y-14167412D02*
X17808920Y-14186460D01*
X17808920Y-14186460D02*
X17827968Y-14195984D01*
X17827968Y-14195984D02*
X17847015Y-14195984D01*
X17989873Y-14186460D02*
X17970825Y-14195984D01*
X17970825Y-14195984D02*
X17932730Y-14195984D01*
X17932730Y-14195984D02*
X17913682Y-14186460D01*
X17913682Y-14186460D02*
X17904158Y-14167412D01*
X17904158Y-14167412D02*
X17904158Y-14091222D01*
X17904158Y-14091222D02*
X17913682Y-14072174D01*
X17913682Y-14072174D02*
X17932730Y-14062650D01*
X17932730Y-14062650D02*
X17970825Y-14062650D01*
X17970825Y-14062650D02*
X17989873Y-14072174D01*
X17989873Y-14072174D02*
X17999396Y-14091222D01*
X17999396Y-14091222D02*
X17999396Y-14110269D01*
X17999396Y-14110269D02*
X17904158Y-14129317D01*
X18170825Y-14195984D02*
X18170825Y-13995984D01*
X18170825Y-14186460D02*
X18151777Y-14195984D01*
X18151777Y-14195984D02*
X18113682Y-14195984D01*
X18113682Y-14195984D02*
X18094635Y-14186460D01*
X18094635Y-14186460D02*
X18085111Y-14176936D01*
X18085111Y-14176936D02*
X18075587Y-14157888D01*
X18075587Y-14157888D02*
X18075587Y-14100746D01*
X18075587Y-14100746D02*
X18085111Y-14081698D01*
X18085111Y-14081698D02*
X18094635Y-14072174D01*
X18094635Y-14072174D02*
X18113682Y-14062650D01*
X18113682Y-14062650D02*
X18151777Y-14062650D01*
X18151777Y-14062650D02*
X18170825Y-14072174D01*
X18247016Y-14272174D02*
X18256539Y-14262650D01*
X18256539Y-14262650D02*
X18275587Y-14234079D01*
X18275587Y-14234079D02*
X18285111Y-14215031D01*
X18285111Y-14215031D02*
X18294635Y-14186460D01*
X18294635Y-14186460D02*
X18304158Y-14138841D01*
X18304158Y-14138841D02*
X18304158Y-14100746D01*
X18304158Y-14100746D02*
X18294635Y-14053127D01*
X18294635Y-14053127D02*
X18285111Y-14024555D01*
X18285111Y-14024555D02*
X18275587Y-14005508D01*
X18275587Y-14005508D02*
X18256539Y-13976936D01*
X18256539Y-13976936D02*
X18247016Y-13967412D01*
M02*
