G04 #@! TF.GenerationSoftware,KiCad,Pcbnew,7.0.9*
G04 #@! TF.CreationDate,2023-12-23T18:10:06+01:00*
G04 #@! TF.ProjectId,signalization-by-fireplace,7369676e-616c-4697-9a61-74696f6e2d62,v2.0*
G04 #@! TF.SameCoordinates,Original*
G04 #@! TF.FileFunction,Paste,Top*
G04 #@! TF.FilePolarity,Positive*
%FSLAX46Y46*%
G04 Gerber Fmt 4.6, Leading zero omitted, Abs format (unit mm)*
G04 Created by KiCad (PCBNEW 7.0.9) date 2023-12-23 18:10:06*
%MOMM*%
%LPD*%
G01*
G04 APERTURE LIST*
G04 Aperture macros list*
%AMRoundRect*
0 Rectangle with rounded corners*
0 $1 Rounding radius*
0 $2 $3 $4 $5 $6 $7 $8 $9 X,Y pos of 4 corners*
0 Add a 4 corners polygon primitive as box body*
4,1,4,$2,$3,$4,$5,$6,$7,$8,$9,$2,$3,0*
0 Add four circle primitives for the rounded corners*
1,1,$1+$1,$2,$3*
1,1,$1+$1,$4,$5*
1,1,$1+$1,$6,$7*
1,1,$1+$1,$8,$9*
0 Add four rect primitives between the rounded corners*
20,1,$1+$1,$2,$3,$4,$5,0*
20,1,$1+$1,$4,$5,$6,$7,0*
20,1,$1+$1,$6,$7,$8,$9,0*
20,1,$1+$1,$8,$9,$2,$3,0*%
%AMOutline4P*
0 Free polygon, 4 corners , with rotation*
0 The origin of the aperture is its center*
0 number of corners: always 4*
0 $1 to $8 corner X, Y*
0 $9 Rotation angle, in degrees counterclockwise*
0 create outline with 4 corners*
4,1,4,$1,$2,$3,$4,$5,$6,$7,$8,$1,$2,$9*%
G04 Aperture macros list end*
%ADD10RoundRect,0.182500X0.222500X-0.182500X0.222500X0.182500X-0.222500X0.182500X-0.222500X-0.182500X0*%
%ADD11R,0.350000X1.200000*%
%ADD12R,1.500000X0.350000*%
%ADD13Outline4P,-0.650000X-0.900000X0.650000X-0.900000X0.650000X0.900000X-0.650000X0.900000X0.000000*%
%ADD14Outline4P,-0.650000X-0.900000X0.650000X-0.900000X0.650000X0.900000X-0.650000X0.900000X90.000000*%
%ADD15Outline4P,-0.650000X-0.900000X0.650000X-0.900000X0.650000X0.900000X-0.650000X0.900000X180.000000*%
%ADD16R,0.900000X0.900000*%
%ADD17Outline4P,-0.650000X-0.900000X0.650000X-0.900000X0.650000X0.900000X-0.650000X0.900000X270.000000*%
%ADD18R,1.300000X1.000000*%
%ADD19R,1.050000X0.880000*%
%ADD20R,0.500000X2.000000*%
%ADD21R,0.800000X2.200000*%
%ADD22R,0.800000X0.800000*%
%ADD23R,1.000000X1.000000*%
G04 APERTURE END LIST*
D10*
X136215500Y-90043000D03*
X137215500Y-90043000D03*
D11*
X135714740Y-92135960D03*
X136215500Y-92135960D03*
X136715500Y-92135960D03*
X137215500Y-92135960D03*
X137715500Y-92135960D03*
X137715500Y-87950040D03*
X137215500Y-87950040D03*
X136715500Y-87950040D03*
X136215500Y-87950040D03*
X135715500Y-87950040D03*
D12*
X160337500Y-82185000D03*
X160337500Y-82685000D03*
X160337500Y-83185000D03*
X160337500Y-83685000D03*
X160337500Y-84185000D03*
X165417500Y-84185000D03*
X165417500Y-83685000D03*
X165417500Y-83185000D03*
X165417500Y-82685000D03*
X165417500Y-82185000D03*
D13*
X148907500Y-99949000D03*
X151447500Y-99949000D03*
X148907500Y-97155000D03*
X151447500Y-97155000D03*
D14*
X132651500Y-97917000D03*
X132651500Y-95377000D03*
D13*
X135445500Y-95123000D03*
X137985500Y-95123000D03*
D15*
X137985500Y-97917000D03*
X135445500Y-97917000D03*
D13*
X148907500Y-90297000D03*
X151447500Y-90297000D03*
X148907500Y-87503000D03*
X151447500Y-87503000D03*
X112839500Y-104521000D03*
X115379500Y-104521000D03*
X115379500Y-88265000D03*
X117919500Y-88265000D03*
X110553500Y-88265000D03*
X113093500Y-88265000D03*
D16*
X119967500Y-114793000D03*
X119967500Y-116093000D03*
X121967500Y-115443000D03*
X141811500Y-114793000D03*
X141811500Y-116093000D03*
X143811500Y-115443000D03*
X163655500Y-114793000D03*
X163655500Y-116093000D03*
X165655500Y-115443000D03*
X143843500Y-89139000D03*
X143843500Y-90439000D03*
X145843500Y-89789000D03*
D17*
X159575500Y-66167000D03*
X159575500Y-68707000D03*
X117665500Y-114173000D03*
X117665500Y-116713000D03*
D13*
X124269500Y-112141000D03*
X126809500Y-112141000D03*
D17*
X187769500Y-87757000D03*
X187769500Y-90297000D03*
X183705500Y-87757000D03*
X183705500Y-90297000D03*
X179387500Y-93345000D03*
X179387500Y-95885000D03*
D14*
X175577500Y-90043000D03*
X175577500Y-87503000D03*
D17*
X139509500Y-114173000D03*
X139509500Y-116713000D03*
D13*
X146113500Y-112141000D03*
X148653500Y-112141000D03*
D17*
X176085500Y-69469000D03*
X176085500Y-72009000D03*
X171767500Y-69469000D03*
X171767500Y-72009000D03*
X179641500Y-75565000D03*
X179641500Y-78105000D03*
D14*
X187515500Y-72009000D03*
X187515500Y-69469000D03*
D17*
X183451500Y-69469000D03*
X183451500Y-72009000D03*
X161353500Y-114173000D03*
X161353500Y-116713000D03*
D13*
X167957500Y-112141000D03*
X170497500Y-112141000D03*
D14*
X148399500Y-79883000D03*
X148399500Y-77343000D03*
D17*
X141541500Y-88519000D03*
X141541500Y-91059000D03*
D15*
X105981500Y-86741000D03*
X103441500Y-86741000D03*
X145859500Y-93599000D03*
X143319500Y-93599000D03*
D13*
X91186000Y-76327000D03*
X93726000Y-76327000D03*
D18*
X151177500Y-94803000D03*
X151177500Y-92903000D03*
X148977500Y-93853000D03*
D19*
X112234500Y-97272400D03*
X113484500Y-97272400D03*
X114734500Y-97272400D03*
X115984500Y-97272400D03*
X112234500Y-96139000D03*
X113484500Y-96139000D03*
X114734500Y-96139000D03*
X115984500Y-96139000D03*
X112234500Y-95005600D03*
X113484500Y-95005600D03*
X114734500Y-95005600D03*
X115984500Y-95005600D03*
D20*
X111834500Y-99389000D03*
X112484500Y-99389000D03*
X113134500Y-99389000D03*
X113784500Y-99389000D03*
X114434500Y-99389000D03*
X115084500Y-99389000D03*
X115734500Y-99389000D03*
X116384500Y-99389000D03*
X116384500Y-92889000D03*
X115734500Y-92889000D03*
X115084500Y-92889000D03*
X114434500Y-92889000D03*
X113784500Y-92889000D03*
X113134500Y-92889000D03*
X112484500Y-92889000D03*
X111834500Y-92889000D03*
D17*
X171513500Y-87503000D03*
X171513500Y-90043000D03*
X114617500Y-114173000D03*
X114617500Y-116713000D03*
X136461500Y-114173000D03*
X136461500Y-116713000D03*
X158305500Y-114173000D03*
X158305500Y-116713000D03*
D16*
X183922500Y-113157000D03*
X182472500Y-113157000D03*
D21*
X183959500Y-115747800D03*
X182689500Y-115747800D03*
X181419500Y-115747800D03*
X181419500Y-119202200D03*
X182689500Y-119202200D03*
X183959500Y-119202200D03*
D17*
X153733500Y-66167000D03*
X153733500Y-68707000D03*
D22*
X178816000Y-120777000D03*
X176276000Y-120777000D03*
D16*
X177329000Y-113665000D03*
X178779000Y-113665000D03*
D23*
X178750000Y-115967000D03*
X176850000Y-115967000D03*
X177800000Y-118167000D03*
D13*
X169164000Y-121031000D03*
X171704000Y-121031000D03*
D17*
X174498000Y-115697000D03*
X174498000Y-118237000D03*
D16*
X183605000Y-60833000D03*
X182155000Y-60833000D03*
X183605000Y-63373000D03*
X182155000Y-63373000D03*
X183605000Y-58293000D03*
X182155000Y-58293000D03*
M02*
