M48
; DRILL file {KiCad (5.1.6)-1} date 08/01/23 14:28:06
; FORMAT={-:-/ absolute / metric / decimal}
; #@! TF.CreationDate,2023-08-01T14:28:06+02:00
; #@! TF.GenerationSoftware,Kicad,Pcbnew,(5.1.6)-1
; #@! TF.FileFunction,Plated,1,2,PTH
FMAT,2
METRIC
T1C0.400
T2C0.600
T3C0.700
T4C0.800
T5C1.100
T6C1.200
T7C1.500
T8C3.200
%
G90
G05
T1
X146.685Y-7.62
X62.23Y-5.715
X106.68Y-5.715
X132.715Y-74.93
X112.395Y-6.985
X193.04Y-7.62
X64.135Y-110.49
X135.89Y-7.62
X131.445Y-69.85
X145.415Y-47.625
X176.53Y-9.525
X119.38Y-9.525
X122.555Y-68.58
X116.84Y-48.895
X180.34Y-7.62
X106.426Y-59.69
X156.21Y-47.625
X132.08Y-9.525
X63.5Y-1.905
X114.935Y-31.115
X159.385Y-34.29
X203.2Y-130.81
X131.445Y-120.65
X175.26Y-48.895
X194.945Y-9.525
X91.44Y-1.905
X184.15Y-41.275
X137.795Y-17.145
X166.37Y-93.98
X132.715Y-119.38
X97.155Y-6.985
X129.286Y-36.83
X139.065Y-1.27
X83.82Y-104.775
X45.72Y-35.56
X31.75Y-29.845
X50.165Y-41.275
X130.81Y-113.03
X207.264Y-40.64
X56.896Y-36.068
X123.444Y-39.37
X167.005Y-123.19
X93.345Y6.35
X84.455Y-12.065
X102.362Y-75.565
X86.106Y-36.068
X39.37Y6.35
X182.88Y-2.54
X41.275Y-47.625
X107.315Y-105.41
X31.75Y-58.42
X134.62Y-84.455
X102.362Y-67.31
X202.692Y-36.83
X192.405Y-73.025
X175.768Y-38.1
X93.345Y-36.195
X167.005Y-17.145
X81.915Y-137.795
X83.82Y-116.84
X160.655Y-142.875
X64.77Y-62.865
X186.69Y-92.075
X150.368Y-35.306
X210.185Y-1.27
X50.8Y-133.985
X92.075Y-110.49
X80.645Y-80.645
X71.755Y-62.865
X133.985Y-2.54
X73.025Y-136.525
X80.01Y-113.665
X31.115Y-106.045
X153.035Y-56.515
X179.07Y-91.44
X81.915Y-133.985
X48.26Y-110.49
X208.28Y-142.875
X167.64Y-62.865
X136.906Y-99.06
X84.455Y-121.92
X90.17Y-136.525
X64.135Y-116.84
X218.44Y-13.335
X74.93Y-9.525
X211.455Y-62.865
X72.39Y-47.625
X52.07Y-113.665
X117.475Y-9.525
X132.08Y-55.88
X53.975Y-47.625
X56.515Y-116.84
X121.285Y-7.62
X123.825Y-62.865
X80.01Y-39.37
X148.59Y-9.525
X60.325Y-7.62
X117.475Y-7.62
X138.43Y-74.295
X174.625Y-47.625
X146.685Y-9.525
X48.26Y-116.84
X121.285Y-5.715
X132.08Y-68.58
X166.37Y-40.005
X191.135Y-7.62
X50.8Y-3.175
X120.015Y-68.58
X185.42Y-47.625
X193.04Y-5.715
X173.99Y-34.29
X112.776Y-77.724
X160.02Y-47.625
X135.89Y-9.525
X64.77Y-3.175
X83.82Y-36.195
X144.78Y-34.036
X71.12Y-31.115
X212.725Y-17.145
X189.23Y-47.625
X193.04Y-9.525
X97.79Y-1.27
X41.275Y-12.065
X31.75Y-1.27
X62.23Y-59.69
X131.445Y-124.46
X128.905Y-13.97
X191.135Y-9.525
X152.4Y-1.27
X165.1Y-91.44
X53.34Y6.35
X85.852Y-26.67
X132.715Y-129.54
X211.455Y-40.386
X75.946Y-39.116
X139.7Y-41.275
X151.765Y-93.98
X106.68Y6.35
X121.285Y-84.455
X101.092Y-67.31
X195.58Y-74.295
X115.316Y-35.814
X184.15Y-36.195
X175.26Y-2.54
X46.99Y-45.085
X217.805Y-114.3
X31.115Y-77.47
X109.728Y-70.104
X98.552Y-69.85
X190.246Y-38.1
X48.514Y-31.242
X193.675Y-78.74
X179.578Y-35.306
X207.645Y-9.525
X158.115Y-13.97
X94.742Y-132.334
X95.885Y-110.49
X100.965Y-90.805
X64.77Y-56.515
X172.466Y-72.644
X184.15Y-76.835
X146.812Y-38.1
X168.275Y-2.54
X65.405Y-134.62
X82.55Y-90.17
X94.615Y-83.82
X88.265Y-55.88
X62.23Y-130.175
X83.82Y-113.665
X136.525Y-142.875
X123.825Y-56.515
X151.13Y-128.016
X133.35Y-79.375
X87.757Y-130.175
X44.45Y-113.665
X170.18Y-142.875
X196.85Y-62.865
X188.722Y-117.856
X90.805Y-123.825
X60.325Y-116.84
X31.115Y-96.52
X76.835Y-9.525
X196.85Y-56.515
X55.88Y-130.175
X51.435Y-92.71
X47.625Y-7.62
X87.63Y-9.525
X175.895Y-55.88
X57.785Y-47.625
X37.465Y-78.74
X44.45Y-116.84
X121.285Y-9.525
X122.555Y-74.93
X83.185Y-6.985
X179.07Y-89.535
X163.83Y-9.525
X60.325Y-9.525
X102.87Y-7.62
X130.175Y-74.93
X143.51Y-13.97
X163.83Y-5.715
X58.42Y-5.715
X132.08Y-5.715
X125.984Y-70.739
X102.235Y-48.895
X148.59Y-7.62
X119.38Y-78.105
X195.58Y-40.005
X178.435Y-9.525
X44.45Y-0.635
X100.33Y-31.115
X182.88Y-17.145
X112.776Y-71.12
X112.395Y-47.625
X161.925Y-7.62
X71.12Y-0.635
X100.33Y-26.67
X168.275Y-17.145
X139.065Y-84.455
X201.93Y-13.97
X81.915Y-36.195
X207.645Y-5.715
X99.06Y-2.54
X45.72Y-38.735
X126.365Y-104.775
X205.105Y-126.365
X131.445Y-119.38
X119.634Y-39.116
X153.67Y-2.54
X201.93Y-122.555
X196.85Y6.35
X125.73Y-84.455
X128.27Y-115.57
X204.978Y-37.846
X100.838Y-36.195
X167.005Y-1.27
X212.09Y-83.185
X99.695Y-142.875
X143.51Y6.35
X111.252Y-77.724
X101.092Y-74.93
X180.975Y-69.85
X105.156Y-39.116
X93.98Y-41.275
X173.99Y-1.27
X46.99Y-40.005
X111.125Y-111.125
X40.64Y-142.875
X76.835Y-59.69
X99.822Y-68.58
X187.96Y-36.83
X192.532Y-40.64
X194.945Y-99.06
X158.242Y-36.83
X194.945Y-7.62
X57.785Y-1.905
X45.72Y-40.005
X76.2Y-113.665
X218.44Y-20.32
X73.025Y-55.88
X193.04Y-92.075
X173.228Y-36.83
X116.84Y-0.635
X69.85Y-124.46
X83.82Y-110.49
X65.405Y-80.645
X132.715Y-62.865
X86.995Y-121.92
X78.74Y-130.175
X31.115Y-134.62
X182.245Y-56.515
X133.604Y-76.2
X96.52Y-121.285
X48.26Y-113.665
X118.11Y-120.65
X167.64Y-56.515
X160.528Y-118.618
X89.535Y-100.965
X46.99Y-36.83
X60.325Y-5.715
X31.115Y-86.995
X73.025Y-9.525
X190.5Y-55.88
X54.61Y-130.175
X62.23Y-9.525
X89.535Y-9.525
X109.855Y-56.515
X64.77Y-41.275
X46.355Y-87.63
X191.135Y-5.715
X56.515Y-113.665
X91.44Y-9.525
X102.87Y-55.88
X83.185Y-47.625
X180.34Y-5.715
X58.42Y-7.62
X104.775Y-7.62
X164.465Y-59.69
X152.4Y-17.145
X176.53Y-7.62
X58.42Y-9.525
X102.87Y-9.525
X139.446Y-70.866
X189.865Y-48.895
X150.495Y-7.62
X149.86Y-59.69
X127.0Y-47.625
X161.925Y-5.715
X57.785Y-0.635
X114.935Y-26.67
X153.67Y-17.145
X109.728Y-77.724
X180.975Y-40.005
X178.435Y-5.715
X71.12Y-1.905
X99.06Y-12.065
X31.75Y-10.795
X160.655Y-93.98
X127.381Y-125.73
X170.815Y-47.625
X107.95Y-36.195
X103.505Y-1.27
X140.335Y-76.2
X179.07Y-111.76
X56.515Y-26.67
X126.365Y-127.635
X71.628Y-36.068
X205.74Y-5.715
X146.685Y-1.27
X142.875Y-92.075
X31.75Y-39.37
X176.276Y-113.792
X131.445Y-121.92
X41.656Y-25.908
X137.16Y-31.75
X189.23Y-2.54
X46.99Y-35.56
X90.17Y-142.875
X156.845Y6.35
X120.65Y-59.69
X99.822Y-74.295
X195.326Y-117.856
X42.418Y-33.782
X191.135Y-83.185
X134.62Y-33.02
X122.174Y-36.195
X154.94Y-36.195
X151.765Y-40.005
X57.15Y-125.095
X217.805Y-104.14
X120.65Y-142.875
X200.66Y-130.81
X104.902Y-67.31
X50.8Y-31.242
X173.355Y-104.14
X135.89Y-39.116
X205.74Y-9.525
X90.17Y-1.905
X65.405Y-86.995
X95.885Y-113.665
X217.805Y-121.285
X101.6Y-62.865
X169.926Y-117.856
X180.975Y-87.63
X131.826Y-38.1
X181.61Y-1.27
X62.865Y-132.08
X80.01Y-110.49
X31.115Y-125.095
X138.43Y-56.515
X88.9Y-125.095
X78.74Y-123.825
X189.23Y-142.875
X80.01Y-62.865
X162.56Y-86.995
X44.45Y-110.49
X60.325Y-78.74
X182.245Y-62.865
X65.405Y-39.37
X215.9Y-73.152
X57.785Y-100.965
X130.175Y-60.96
X67.31Y-86.995
X60.325Y-113.665
X217.805Y-133.985
X87.63Y-5.715
X103.632Y-67.31
X44.323Y-48.895
X65.405Y-90.17
X121.285Y-76.835
X47.625Y-5.715
X104.775Y-9.525
X159.385Y-62.865
X73.025Y-48.895
X107.95Y-135.89
X157.48Y-81.28
X146.685Y-5.715
X43.815Y-5.715
X104.775Y-5.715
X205.105Y-55.88
X86.995Y-47.625
X157.48Y-88.9
X165.735Y-9.525
X73.025Y-5.715
X117.475Y-5.715
X128.905Y-74.93
X141.605Y-47.625
X165.735Y-7.62
X45.72Y-9.525
X76.835Y-7.62
X125.095Y-66.675
X97.79Y-47.625
X151.13Y-118.618
X165.735Y-5.715
X208.28Y-59.69
X87.63Y-48.895
X161.925Y-9.525
X96.52Y-36.195
X197.485Y-17.145
X108.204Y-69.088
X146.05Y-48.895
X76.2Y-1.905
X161.29Y-72.39
X188.595Y-34.29
X172.339Y-100.33
X200.025Y-47.625
X124.714Y-13.97
X207.645Y-7.62
X104.775Y-1.27
X154.94Y-83.185
X120.65Y-99.06
X69.215Y-36.195
X205.105Y-48.895
X61.214Y-39.116
X209.55Y-9.525
X145.415Y-2.54
X135.89Y-63.5
X31.75Y-48.895
X54.61Y-12.065
X54.61Y-36.195
X90.424Y-39.116
X209.55Y-5.715
X196.215Y-1.27
X146.05Y-76.2
X107.95Y-142.875
X170.18Y6.35
X179.07Y-59.69
X98.552Y-73.66
X194.31Y-39.116
X160.02Y-84.455
X133.858Y-40.64
X163.322Y-40.64
X109.855Y-116.205
X133.985Y-1.27
X93.98Y-130.175
X88.9Y-116.84
X118.11Y-130.175
X108.204Y-77.724
X94.615Y-62.865
X144.272Y-37.084
X112.395Y-67.31
X211.455Y-2.54
X63.5Y-86.995
X92.075Y-113.665
X118.11Y-111.125
X80.01Y-56.515
X165.1Y-35.306
X203.835Y-2.54
X86.233Y-130.175
X76.2Y-110.49
X114.935Y-103.505
X174.625Y-62.865
X53.34Y-121.92
X76.835Y-90.17
X179.705Y-142.875
X94.615Y-56.515
X155.575Y-98.425
X149.225Y-78.74
X62.23Y-7.62
X107.95Y-97.155
X117.475Y-55.88
X67.945Y-6.985
X130.175Y-58.42
X64.77Y-121.285
X52.07Y-110.49
X89.535Y-5.715
X161.29Y-55.88
X53.34Y-6.985
X215.9Y-86.614
X41.91Y-83.185
X43.815Y-7.62
X135.89Y-5.715
X211.455Y-56.515
X67.31Y-36.195
X148.59Y-5.715
X74.93Y-7.62
X119.38Y-7.62
X133.985Y-66.04
X98.425Y-36.195
X215.9Y-97.282
X176.53Y-5.715
X88.265Y-90.17
X106.68Y-9.525
X132.715Y-67.31
X131.445Y-48.895
X180.34Y-9.525
X52.07Y-116.84
X106.68Y-7.62
X139.7Y-72.39
X101.6Y-47.625
X194.945Y-5.715
X193.675Y-59.69
X94.615Y-39.37
X132.08Y-7.62
X44.45Y-1.905
X113.03Y-36.195
X196.215Y-17.145
X130.175Y-84.455
X160.655Y-48.895
X77.47Y-1.905
X52.07Y-104.775
X154.94Y-41.275
X203.2Y-34.29
X71.12Y-26.67
X131.445Y-125.73
X172.72Y-13.97
X118.11Y-0.635
X198.755Y-41.275
X166.37Y-86.995
X69.215Y-12.065
X134.62Y-119.38
X130.048Y-34.29
X169.545Y-36.195
X159.385Y-2.54
X139.065Y-63.5
X66.675Y6.35
X85.852Y-31.115
X104.902Y-76.835
X209.55Y-7.62
X187.96Y-1.27
X161.925Y-76.2
X111.125Y-130.175
X183.515Y6.35
X106.68Y-77.724
X97.282Y-71.12
X209.55Y-39.116
X184.15Y-71.755
X178.054Y-40.64
X161.036Y-38.1
X64.135Y-36.195
X69.85Y-118.11
X88.9Y-110.49
X31.115Y-115.57
X106.68Y-68.58
X50.8Y-56.515
X165.1Y-39.116
X108.585Y-41.275
X160.655Y-1.27
X69.215Y-86.995
X92.075Y-116.84
X198.755Y-142.875
X59.055Y-55.88
X135.636Y-35.306
X139.065Y-2.54
X89.535Y-138.43
X76.2Y-116.84
X218.44Y-35.56
X205.105Y-62.865
X46.99Y-38.735
X60.325Y-110.49
X55.245Y-73.66
X86.995Y-62.865
X169.926Y-128.016
X59.69Y-124.46
X43.815Y-9.525
X87.63Y-80.645
X153.035Y-62.865
X39.37Y-7.62
X93.345Y-104.775
X45.72Y-7.62
X91.44Y-7.62
X109.855Y-62.865
X52.705Y-36.195
X71.12Y-90.17
X76.835Y-5.715
X119.38Y-5.715
X131.445Y-74.93
X68.58Y-47.625
X33.655Y-74.93
X150.495Y-5.715
X47.625Y-9.525
X102.87Y-5.715
X128.016Y-74.422
X111.125Y-36.195
X178.435Y-7.62
X56.515Y-110.49
X133.985Y-5.715
X130.302Y-66.675
X187.325Y-13.97
X163.83Y-7.62
X91.44Y-5.715
X142.24Y-64.77
X109.22Y-39.37
X150.495Y-9.525
X135.255Y-59.69
X116.205Y-47.625
X133.985Y-9.525
X50.165Y-1.905
X113.665Y-12.065
X139.065Y-17.145
X116.84Y-84.455
X136.525Y-132.715
X130.81Y-47.625
X200.152Y-36.195
X85.725Y-2.54
X169.545Y-41.275
X211.455Y-17.145
X91.44Y-59.69
X203.835Y-47.625
X181.61Y-17.145
X49.53Y-36.195
X112.395Y-2.54
X200.66Y-125.73
X31.75Y-20.32
X47.625Y-59.69
X212.725Y-47.625
X194.31Y-35.306
X202.565Y-1.27
X151.765Y-93.98
X80.01Y6.35
X56.515Y-31.115
X103.632Y-76.2
X209.55Y-35.052
X148.59Y-40.64
X205.74Y-7.62
X197.485Y-2.54
X40.386Y-43.18
X111.125Y-120.65
X218.44Y-6.985
X111.252Y-70.612
X97.282Y-73.025
X179.578Y-39.116
X50.8Y-137.795
X95.885Y-116.84
X50.165Y-68.58
X50.8Y-62.865
X171.45Y-81.915
X150.622Y-39.116
X78.74Y-36.195
X84.455Y-1.27
X55.245Y-121.92
X88.9Y-113.665
X151.13Y-142.875
X57.785Y-62.865
X128.778Y-35.56
X111.125Y-1.27
X61.595Y-104.775
X80.01Y-116.84
X31.115Y-67.945
X144.145Y-62.865
X45.72Y-36.83
X64.135Y-113.665
X51.435Y-142.875
X128.905Y-62.865
X148.59Y-90.678
X58.42Y-135.89
X72.957Y-7.62
X218.44Y-0.635
X133.985Y-7.62
X114.3Y-62.865
X58.42Y-48.895
X160.528Y-128.016
X121.285Y-79.375
X45.72Y-5.715
X87.63Y-7.62
X189.865Y-62.865
X50.8Y-39.37
X59.69Y-90.17
X74.93Y-5.715
X89.535Y-7.62
X146.685Y-55.88
X79.375Y-41.275
T2
X136.588Y-118.11
X136.588Y-123.19
X139.141Y-120.65
T3
X72.286Y-42.545
X74.826Y-42.545
X142.194Y-128.0
X144.734Y-128.0
X104.194Y-128.0
X106.734Y-128.0
X116.136Y-42.545
X118.676Y-42.545
X203.835Y-42.545
X206.375Y-42.545
X66.194Y-128.0
X68.734Y-128.0
X130.752Y-42.545
X133.292Y-42.545
X180.194Y-119.38
X182.734Y-119.38
X57.67Y-42.545
X60.21Y-42.545
X174.602Y-42.545
X177.142Y-42.545
X43.053Y-42.545
X45.593Y-42.545
X145.369Y-42.545
X147.909Y-42.545
X189.218Y-42.545
X191.758Y-42.545
X180.194Y-128.0
X182.734Y-128.0
X86.903Y-42.545
X89.443Y-42.545
X101.519Y-42.545
X104.059Y-42.545
X159.985Y-42.545
X162.525Y-42.545
T4
X206.756Y-81.914
X206.756Y-84.454
X206.756Y-86.994
X206.756Y-89.534
X209.296Y-83.184
X209.296Y-85.724
X209.296Y-88.264
X209.296Y-90.804
T5
X161.255Y-22.225
X161.255Y-24.765
X161.255Y-27.305
X161.255Y-29.845
X161.255Y-32.385
X181.229Y-99.06
X181.229Y-101.6
X181.229Y-104.14
X181.229Y-106.68
X181.229Y-109.22
X190.488Y-22.225
X190.488Y-24.765
X190.488Y-27.305
X190.488Y-29.845
X190.488Y-32.385
X88.173Y-22.225
X88.173Y-24.765
X88.173Y-27.305
X88.173Y-29.845
X88.173Y-32.385
X205.105Y-22.225
X205.105Y-24.765
X205.105Y-27.305
X205.105Y-29.845
X205.105Y-32.385
X58.94Y-22.225
X58.94Y-24.765
X58.94Y-27.305
X58.94Y-29.845
X58.94Y-32.385
X175.872Y-22.225
X175.872Y-24.765
X175.872Y-27.305
X175.872Y-29.845
X175.872Y-32.385
X132.022Y-22.225
X132.022Y-24.765
X132.022Y-27.305
X132.022Y-29.845
X132.022Y-32.385
X73.556Y-22.225
X73.556Y-24.765
X73.556Y-27.305
X73.556Y-29.845
X73.556Y-32.385
X44.323Y-22.225
X44.323Y-24.765
X44.323Y-27.305
X44.323Y-29.845
X44.323Y-32.385
X117.406Y-22.225
X117.406Y-24.765
X117.406Y-27.305
X117.406Y-29.845
X117.406Y-32.385
X146.639Y-22.225
X146.639Y-24.765
X146.639Y-27.305
X146.639Y-29.845
X146.639Y-32.385
X102.789Y-22.225
X102.789Y-24.765
X102.789Y-27.305
X102.789Y-29.845
X102.789Y-32.385
T6
X83.82Y5.08
X88.9Y5.08
X187.325Y5.08
X192.405Y5.08
X70.485Y5.08
X75.565Y5.08
X110.49Y5.08
X115.57Y5.08
X97.155Y5.08
X102.235Y5.08
X147.32Y5.08
X152.4Y5.08
X133.985Y5.08
X139.065Y5.08
X67.945Y-141.732
X73.025Y-141.732
X160.655Y5.08
X165.735Y5.08
X43.815Y5.08
X48.895Y5.08
X173.99Y5.08
X179.07Y5.08
X127.508Y-141.732
X132.588Y-141.732
X216.408Y-125.095
X216.408Y-130.175
X200.66Y5.08
X205.74Y5.08
X57.15Y5.08
X62.23Y5.08
X216.408Y-40.132
X216.408Y-45.212
T7
X201.17Y-100.965
X204.81Y-100.965
X208.45Y-100.965
X212.09Y-100.965
X201.17Y-117.475
X204.81Y-117.475
X208.45Y-117.475
X212.09Y-117.475
T8
X34.925Y3.175
X214.63Y3.175
X214.63Y-139.7
X34.925Y-139.7
X73.66Y-78.105
X139.7Y-35.052
X142.24Y-139.7
X124.714Y3.175
X211.455Y-73.025
X114.3Y-139.7
X214.63Y-27.305
X34.925Y-90.17
X175.895Y-78.105
T0
M30
