G04 #@! TF.GenerationSoftware,KiCad,Pcbnew,(5.1.6)-1*
G04 #@! TF.CreationDate,2023-01-22T16:57:25+01:00*
G04 #@! TF.ProjectId,testing-board,74657374-696e-4672-9d62-6f6172642e6b,rev?*
G04 #@! TF.SameCoordinates,Original*
G04 #@! TF.FileFunction,Legend,Bot*
G04 #@! TF.FilePolarity,Positive*
%FSLAX46Y46*%
G04 Gerber Fmt 4.6, Leading zero omitted, Abs format (unit mm)*
G04 Created by KiCad (PCBNEW (5.1.6)-1) date 2023-01-22 16:57:25*
%MOMM*%
%LPD*%
G01*
G04 APERTURE LIST*
%ADD10C,0.160000*%
%ADD11C,5.100000*%
%ADD12C,0.900000*%
%ADD13C,0.100000*%
%ADD14O,2.200000X2.200000*%
%ADD15R,2.200000X2.200000*%
%ADD16R,3.600000X3.600000*%
%ADD17C,3.600000*%
%ADD18C,1.600000*%
%ADD19C,3.400000*%
G04 APERTURE END LIST*
D10*
X134075000Y-93050000D02*
X134075000Y-97450000D01*
X134075000Y-97450000D02*
X136435000Y-97450000D01*
X136435000Y-97450000D02*
X136435000Y-93050000D01*
X136435000Y-93050000D02*
X134075000Y-93050000D01*
X134075000Y-106385000D02*
X134075000Y-110785000D01*
X134075000Y-110785000D02*
X136435000Y-110785000D01*
X136435000Y-110785000D02*
X136435000Y-106385000D01*
X136435000Y-106385000D02*
X134075000Y-106385000D01*
X127090000Y-111465000D02*
X127090000Y-115865000D01*
X127090000Y-115865000D02*
X129450000Y-115865000D01*
X129450000Y-115865000D02*
X129450000Y-111465000D01*
X129450000Y-111465000D02*
X127090000Y-111465000D01*
X130900000Y-111465000D02*
X130900000Y-115865000D01*
X130900000Y-115865000D02*
X133260000Y-115865000D01*
X133260000Y-115865000D02*
X133260000Y-111465000D01*
X133260000Y-111465000D02*
X130900000Y-111465000D01*
X137250000Y-111465000D02*
X137250000Y-115865000D01*
X137250000Y-115865000D02*
X139610000Y-115865000D01*
X139610000Y-115865000D02*
X139610000Y-111465000D01*
X139610000Y-111465000D02*
X137250000Y-111465000D01*
X141060000Y-111465000D02*
X141060000Y-115865000D01*
X141060000Y-115865000D02*
X143420000Y-115865000D01*
X143420000Y-115865000D02*
X143420000Y-111465000D01*
X143420000Y-111465000D02*
X141060000Y-111465000D01*
X137500000Y-85000000D02*
X141900000Y-85000000D01*
X141900000Y-82640000D02*
X137500000Y-82640000D01*
X137500000Y-82640000D02*
X137500000Y-85000000D01*
X141900000Y-85000000D02*
X141900000Y-82640000D01*
X137500000Y-81825000D02*
X141900000Y-81825000D01*
X141900000Y-79465000D02*
X137500000Y-79465000D01*
X137500000Y-79465000D02*
X137500000Y-81825000D01*
X141900000Y-81825000D02*
X141900000Y-79465000D01*
X136834619Y-96146857D02*
X137310809Y-96480190D01*
X136834619Y-96718285D02*
X137834619Y-96718285D01*
X137834619Y-96337333D01*
X137787000Y-96242095D01*
X137739380Y-96194476D01*
X137644142Y-96146857D01*
X137501285Y-96146857D01*
X137406047Y-96194476D01*
X137358428Y-96242095D01*
X137310809Y-96337333D01*
X137310809Y-96718285D01*
X136834619Y-95194476D02*
X136834619Y-95765904D01*
X136834619Y-95480190D02*
X137834619Y-95480190D01*
X137691761Y-95575428D01*
X137596523Y-95670666D01*
X137548904Y-95765904D01*
X137501285Y-94337333D02*
X136834619Y-94337333D01*
X137882238Y-94575428D02*
X137167952Y-94813523D01*
X137167952Y-94194476D01*
X135548666Y-106116380D02*
X135882000Y-105640190D01*
X136120095Y-106116380D02*
X136120095Y-105116380D01*
X135739142Y-105116380D01*
X135643904Y-105164000D01*
X135596285Y-105211619D01*
X135548666Y-105306857D01*
X135548666Y-105449714D01*
X135596285Y-105544952D01*
X135643904Y-105592571D01*
X135739142Y-105640190D01*
X136120095Y-105640190D01*
X135072476Y-106116380D02*
X134882000Y-106116380D01*
X134786761Y-106068761D01*
X134739142Y-106021142D01*
X134643904Y-105878285D01*
X134596285Y-105687809D01*
X134596285Y-105306857D01*
X134643904Y-105211619D01*
X134691523Y-105164000D01*
X134786761Y-105116380D01*
X134977238Y-105116380D01*
X135072476Y-105164000D01*
X135120095Y-105211619D01*
X135167714Y-105306857D01*
X135167714Y-105544952D01*
X135120095Y-105640190D01*
X135072476Y-105687809D01*
X134977238Y-105735428D01*
X134786761Y-105735428D01*
X134691523Y-105687809D01*
X134643904Y-105640190D01*
X134596285Y-105544952D01*
X128722380Y-110069333D02*
X128246190Y-109736000D01*
X128722380Y-109497904D02*
X127722380Y-109497904D01*
X127722380Y-109878857D01*
X127770000Y-109974095D01*
X127817619Y-110021714D01*
X127912857Y-110069333D01*
X128055714Y-110069333D01*
X128150952Y-110021714D01*
X128198571Y-109974095D01*
X128246190Y-109878857D01*
X128246190Y-109497904D01*
X128055714Y-110926476D02*
X128722380Y-110926476D01*
X127674761Y-110688380D02*
X128389047Y-110450285D01*
X128389047Y-111069333D01*
X132024380Y-110069333D02*
X131548190Y-109736000D01*
X132024380Y-109497904D02*
X131024380Y-109497904D01*
X131024380Y-109878857D01*
X131072000Y-109974095D01*
X131119619Y-110021714D01*
X131214857Y-110069333D01*
X131357714Y-110069333D01*
X131452952Y-110021714D01*
X131500571Y-109974095D01*
X131548190Y-109878857D01*
X131548190Y-109497904D01*
X131024380Y-110402666D02*
X131024380Y-111021714D01*
X131405333Y-110688380D01*
X131405333Y-110831238D01*
X131452952Y-110926476D01*
X131500571Y-110974095D01*
X131595809Y-111021714D01*
X131833904Y-111021714D01*
X131929142Y-110974095D01*
X131976761Y-110926476D01*
X132024380Y-110831238D01*
X132024380Y-110545523D01*
X131976761Y-110450285D01*
X131929142Y-110402666D01*
X138882380Y-110069333D02*
X138406190Y-109736000D01*
X138882380Y-109497904D02*
X137882380Y-109497904D01*
X137882380Y-109878857D01*
X137930000Y-109974095D01*
X137977619Y-110021714D01*
X138072857Y-110069333D01*
X138215714Y-110069333D01*
X138310952Y-110021714D01*
X138358571Y-109974095D01*
X138406190Y-109878857D01*
X138406190Y-109497904D01*
X137977619Y-110450285D02*
X137930000Y-110497904D01*
X137882380Y-110593142D01*
X137882380Y-110831238D01*
X137930000Y-110926476D01*
X137977619Y-110974095D01*
X138072857Y-111021714D01*
X138168095Y-111021714D01*
X138310952Y-110974095D01*
X138882380Y-110402666D01*
X138882380Y-111021714D01*
X142692380Y-110069333D02*
X142216190Y-109736000D01*
X142692380Y-109497904D02*
X141692380Y-109497904D01*
X141692380Y-109878857D01*
X141740000Y-109974095D01*
X141787619Y-110021714D01*
X141882857Y-110069333D01*
X142025714Y-110069333D01*
X142120952Y-110021714D01*
X142168571Y-109974095D01*
X142216190Y-109878857D01*
X142216190Y-109497904D01*
X142692380Y-111021714D02*
X142692380Y-110450285D01*
X142692380Y-110736000D02*
X141692380Y-110736000D01*
X141835238Y-110640761D01*
X141930476Y-110545523D01*
X141978095Y-110450285D01*
X143168666Y-84177142D02*
X143216285Y-84224761D01*
X143359142Y-84272380D01*
X143454380Y-84272380D01*
X143597238Y-84224761D01*
X143692476Y-84129523D01*
X143740095Y-84034285D01*
X143787714Y-83843809D01*
X143787714Y-83700952D01*
X143740095Y-83510476D01*
X143692476Y-83415238D01*
X143597238Y-83320000D01*
X143454380Y-83272380D01*
X143359142Y-83272380D01*
X143216285Y-83320000D01*
X143168666Y-83367619D01*
X142787714Y-83367619D02*
X142740095Y-83320000D01*
X142644857Y-83272380D01*
X142406761Y-83272380D01*
X142311523Y-83320000D01*
X142263904Y-83367619D01*
X142216285Y-83462857D01*
X142216285Y-83558095D01*
X142263904Y-83700952D01*
X142835333Y-84272380D01*
X142216285Y-84272380D01*
X143168666Y-81002142D02*
X143216285Y-81049761D01*
X143359142Y-81097380D01*
X143454380Y-81097380D01*
X143597238Y-81049761D01*
X143692476Y-80954523D01*
X143740095Y-80859285D01*
X143787714Y-80668809D01*
X143787714Y-80525952D01*
X143740095Y-80335476D01*
X143692476Y-80240238D01*
X143597238Y-80145000D01*
X143454380Y-80097380D01*
X143359142Y-80097380D01*
X143216285Y-80145000D01*
X143168666Y-80192619D01*
X142216285Y-81097380D02*
X142787714Y-81097380D01*
X142502000Y-81097380D02*
X142502000Y-80097380D01*
X142597238Y-80240238D01*
X142692476Y-80335476D01*
X142787714Y-80383095D01*
%LPC*%
D11*
X118745000Y-106045000D03*
X118745000Y-65405000D03*
D12*
X132080000Y-89535000D03*
X132080000Y-79375000D03*
X140970000Y-82296000D03*
X138430000Y-82296000D03*
X131445000Y-85725000D03*
X133350000Y-86360000D03*
X131445000Y-107315000D03*
X135255000Y-97790000D03*
X141605000Y-101600000D03*
X137160000Y-92710000D03*
X132715000Y-109855000D03*
X135255000Y-113030000D03*
X135255000Y-104140000D03*
X135255000Y-111125000D03*
D13*
G36*
X136205000Y-94680000D02*
G01*
X134305000Y-94680000D01*
X134305000Y-93280000D01*
X136205000Y-93280000D01*
X136205000Y-94680000D01*
G37*
G36*
X136205000Y-97220000D02*
G01*
X134305000Y-97220000D01*
X134305000Y-95820000D01*
X136205000Y-95820000D01*
X136205000Y-97220000D01*
G37*
G36*
X136205000Y-108015000D02*
G01*
X134305000Y-108015000D01*
X134305000Y-106615000D01*
X136205000Y-106615000D01*
X136205000Y-108015000D01*
G37*
G36*
X136205000Y-110555000D02*
G01*
X134305000Y-110555000D01*
X134305000Y-109155000D01*
X136205000Y-109155000D01*
X136205000Y-110555000D01*
G37*
G36*
X129220000Y-113095000D02*
G01*
X127320000Y-113095000D01*
X127320000Y-111695000D01*
X129220000Y-111695000D01*
X129220000Y-113095000D01*
G37*
G36*
X129220000Y-115635000D02*
G01*
X127320000Y-115635000D01*
X127320000Y-114235000D01*
X129220000Y-114235000D01*
X129220000Y-115635000D01*
G37*
G36*
X133030000Y-113095000D02*
G01*
X131130000Y-113095000D01*
X131130000Y-111695000D01*
X133030000Y-111695000D01*
X133030000Y-113095000D01*
G37*
G36*
X133030000Y-115635000D02*
G01*
X131130000Y-115635000D01*
X131130000Y-114235000D01*
X133030000Y-114235000D01*
X133030000Y-115635000D01*
G37*
G36*
X139380000Y-113095000D02*
G01*
X137480000Y-113095000D01*
X137480000Y-111695000D01*
X139380000Y-111695000D01*
X139380000Y-113095000D01*
G37*
G36*
X139380000Y-115635000D02*
G01*
X137480000Y-115635000D01*
X137480000Y-114235000D01*
X139380000Y-114235000D01*
X139380000Y-115635000D01*
G37*
G36*
X143190000Y-113095000D02*
G01*
X141290000Y-113095000D01*
X141290000Y-111695000D01*
X143190000Y-111695000D01*
X143190000Y-113095000D01*
G37*
G36*
X143190000Y-115635000D02*
G01*
X141290000Y-115635000D01*
X141290000Y-114235000D01*
X143190000Y-114235000D01*
X143190000Y-115635000D01*
G37*
D14*
X134620000Y-69215000D03*
X139700000Y-69215000D03*
D15*
X132080000Y-69215000D03*
D14*
X137160000Y-69215000D03*
X139700000Y-64135000D03*
X137160000Y-64135000D03*
X134620000Y-64135000D03*
D15*
X132080000Y-64135000D03*
X118110000Y-122555000D03*
D14*
X123190000Y-122555000D03*
X120650000Y-122555000D03*
D15*
X118110000Y-117475000D03*
D14*
X123190000Y-117475000D03*
X120650000Y-117475000D03*
D16*
X118110000Y-131318000D03*
D17*
X123190000Y-131318000D03*
D18*
X133351000Y-120650000D03*
X139701000Y-118110000D03*
D19*
X129539000Y-127000000D03*
D18*
X138431000Y-120650000D03*
X132081000Y-118110000D03*
X135891000Y-120650000D03*
X134621000Y-118110000D03*
X137161000Y-118110000D03*
X130811000Y-120650000D03*
D19*
X140971000Y-127000000D03*
D13*
G36*
X140270000Y-84770000D02*
G01*
X140270000Y-82870000D01*
X141670000Y-82870000D01*
X141670000Y-84770000D01*
X140270000Y-84770000D01*
G37*
G36*
X137730000Y-84770000D02*
G01*
X137730000Y-82870000D01*
X139130000Y-82870000D01*
X139130000Y-84770000D01*
X137730000Y-84770000D01*
G37*
G36*
X140270000Y-81595000D02*
G01*
X140270000Y-79695000D01*
X141670000Y-79695000D01*
X141670000Y-81595000D01*
X140270000Y-81595000D01*
G37*
G36*
X137730000Y-81595000D02*
G01*
X137730000Y-79695000D01*
X139130000Y-79695000D01*
X139130000Y-81595000D01*
X137730000Y-81595000D01*
G37*
M02*
