G04 #@! TF.GenerationSoftware,KiCad,Pcbnew,(5.1.6)-1*
G04 #@! TF.CreationDate,2023-01-22T16:57:25+01:00*
G04 #@! TF.ProjectId,testing-board,74657374-696e-4672-9d62-6f6172642e6b,rev?*
G04 #@! TF.SameCoordinates,Original*
G04 #@! TF.FileFunction,Copper,L1,Top*
G04 #@! TF.FilePolarity,Positive*
%FSLAX46Y46*%
G04 Gerber Fmt 4.6, Leading zero omitted, Abs format (unit mm)*
G04 Created by KiCad (PCBNEW (5.1.6)-1) date 2023-01-22 16:57:25*
%MOMM*%
%LPD*%
G01*
G04 APERTURE LIST*
G04 #@! TA.AperFunction,ComponentPad*
%ADD10C,5.000000*%
G04 #@! TD*
G04 #@! TA.AperFunction,ComponentPad*
%ADD11C,0.800000*%
G04 #@! TD*
G04 #@! TA.AperFunction,SMDPad,CuDef*
%ADD12R,0.350000X1.500000*%
G04 #@! TD*
G04 #@! TA.AperFunction,SMDPad,CuDef*
%ADD13C,0.100000*%
G04 #@! TD*
G04 #@! TA.AperFunction,SMDPad,CuDef*
%ADD14R,1.250000X3.000000*%
G04 #@! TD*
G04 #@! TA.AperFunction,ComponentPad*
%ADD15O,2.100000X2.100000*%
G04 #@! TD*
G04 #@! TA.AperFunction,ComponentPad*
%ADD16R,2.100000X2.100000*%
G04 #@! TD*
G04 #@! TA.AperFunction,ComponentPad*
%ADD17R,3.500000X3.500000*%
G04 #@! TD*
G04 #@! TA.AperFunction,ComponentPad*
%ADD18C,3.500000*%
G04 #@! TD*
G04 #@! TA.AperFunction,ComponentPad*
%ADD19C,1.500000*%
G04 #@! TD*
G04 #@! TA.AperFunction,Conductor*
%ADD20C,0.500000*%
G04 #@! TD*
G04 #@! TA.AperFunction,Conductor*
%ADD21C,0.350000*%
G04 #@! TD*
G04 #@! TA.AperFunction,Conductor*
%ADD22C,0.250000*%
G04 #@! TD*
G04 #@! TA.AperFunction,Conductor*
%ADD23C,0.254000*%
G04 #@! TD*
G04 APERTURE END LIST*
D10*
X118745000Y-106045000D03*
X118745000Y-65405000D03*
D11*
X132080000Y-89535000D03*
X132080000Y-79375000D03*
X140970000Y-82296000D03*
X138430000Y-82296000D03*
X131445000Y-85725000D03*
X133350000Y-86360000D03*
X131445000Y-107315000D03*
X135255000Y-97790000D03*
X141605000Y-101600000D03*
X137160000Y-92710000D03*
X132715000Y-109855000D03*
X135255000Y-113030000D03*
X135255000Y-104140000D03*
X135255000Y-111125000D03*
D12*
X136255000Y-84455000D03*
X135755000Y-84455000D03*
X135255000Y-84455000D03*
X134755000Y-84455000D03*
X134255000Y-84455000D03*
X134255000Y-79375000D03*
X134755000Y-79375000D03*
X135255000Y-79375000D03*
X136255000Y-79375000D03*
X135755000Y-79375000D03*
G04 #@! TA.AperFunction,SMDPad,CuDef*
D13*
G36*
X141975000Y-99045000D02*
G01*
X143775000Y-99045000D01*
X143775000Y-100345000D01*
X141975000Y-100345000D01*
X141975000Y-99045000D01*
G37*
G04 #@! TD.AperFunction*
G04 #@! TA.AperFunction,SMDPad,CuDef*
G36*
X141975000Y-96505000D02*
G01*
X143775000Y-96505000D01*
X143775000Y-97805000D01*
X141975000Y-97805000D01*
X141975000Y-96505000D01*
G37*
G04 #@! TD.AperFunction*
G04 #@! TA.AperFunction,SMDPad,CuDef*
G36*
X141975000Y-92060000D02*
G01*
X143775000Y-92060000D01*
X143775000Y-93360000D01*
X141975000Y-93360000D01*
X141975000Y-92060000D01*
G37*
G04 #@! TD.AperFunction*
G04 #@! TA.AperFunction,SMDPad,CuDef*
G36*
X141975000Y-89520000D02*
G01*
X143775000Y-89520000D01*
X143775000Y-90820000D01*
X141975000Y-90820000D01*
X141975000Y-89520000D01*
G37*
G04 #@! TD.AperFunction*
G04 #@! TA.AperFunction,SMDPad,CuDef*
G36*
X126735000Y-99045000D02*
G01*
X128535000Y-99045000D01*
X128535000Y-100345000D01*
X126735000Y-100345000D01*
X126735000Y-99045000D01*
G37*
G04 #@! TD.AperFunction*
G04 #@! TA.AperFunction,SMDPad,CuDef*
G36*
X126735000Y-96505000D02*
G01*
X128535000Y-96505000D01*
X128535000Y-97805000D01*
X126735000Y-97805000D01*
X126735000Y-96505000D01*
G37*
G04 #@! TD.AperFunction*
G04 #@! TA.AperFunction,SMDPad,CuDef*
G36*
X126735000Y-92060000D02*
G01*
X128535000Y-92060000D01*
X128535000Y-93360000D01*
X126735000Y-93360000D01*
X126735000Y-92060000D01*
G37*
G04 #@! TD.AperFunction*
G04 #@! TA.AperFunction,SMDPad,CuDef*
G36*
X126735000Y-89520000D02*
G01*
X128535000Y-89520000D01*
X128535000Y-90820000D01*
X126735000Y-90820000D01*
X126735000Y-89520000D01*
G37*
G04 #@! TD.AperFunction*
G04 #@! TA.AperFunction,SMDPad,CuDef*
G36*
X141975000Y-113015000D02*
G01*
X143775000Y-113015000D01*
X143775000Y-114315000D01*
X141975000Y-114315000D01*
X141975000Y-113015000D01*
G37*
G04 #@! TD.AperFunction*
G04 #@! TA.AperFunction,SMDPad,CuDef*
G36*
X141975000Y-110475000D02*
G01*
X143775000Y-110475000D01*
X143775000Y-111775000D01*
X141975000Y-111775000D01*
X141975000Y-110475000D01*
G37*
G04 #@! TD.AperFunction*
G04 #@! TA.AperFunction,SMDPad,CuDef*
G36*
X141975000Y-106030000D02*
G01*
X143775000Y-106030000D01*
X143775000Y-107330000D01*
X141975000Y-107330000D01*
X141975000Y-106030000D01*
G37*
G04 #@! TD.AperFunction*
G04 #@! TA.AperFunction,SMDPad,CuDef*
G36*
X141975000Y-103490000D02*
G01*
X143775000Y-103490000D01*
X143775000Y-104790000D01*
X141975000Y-104790000D01*
X141975000Y-103490000D01*
G37*
G04 #@! TD.AperFunction*
G04 #@! TA.AperFunction,SMDPad,CuDef*
G36*
X126735000Y-113015000D02*
G01*
X128535000Y-113015000D01*
X128535000Y-114315000D01*
X126735000Y-114315000D01*
X126735000Y-113015000D01*
G37*
G04 #@! TD.AperFunction*
G04 #@! TA.AperFunction,SMDPad,CuDef*
G36*
X126735000Y-110475000D02*
G01*
X128535000Y-110475000D01*
X128535000Y-111775000D01*
X126735000Y-111775000D01*
X126735000Y-110475000D01*
G37*
G04 #@! TD.AperFunction*
G04 #@! TA.AperFunction,SMDPad,CuDef*
G36*
X126735000Y-106030000D02*
G01*
X128535000Y-106030000D01*
X128535000Y-107330000D01*
X126735000Y-107330000D01*
X126735000Y-106030000D01*
G37*
G04 #@! TD.AperFunction*
G04 #@! TA.AperFunction,SMDPad,CuDef*
G36*
X126735000Y-103490000D02*
G01*
X128535000Y-103490000D01*
X128535000Y-104790000D01*
X126735000Y-104790000D01*
X126735000Y-103490000D01*
G37*
G04 #@! TD.AperFunction*
G04 #@! TA.AperFunction,SMDPad,CuDef*
G36*
X144410000Y-74310000D02*
G01*
X142610000Y-74310000D01*
X142610000Y-73010000D01*
X144410000Y-73010000D01*
X144410000Y-74310000D01*
G37*
G04 #@! TD.AperFunction*
G04 #@! TA.AperFunction,SMDPad,CuDef*
G36*
X144410000Y-76850000D02*
G01*
X142610000Y-76850000D01*
X142610000Y-75550000D01*
X144410000Y-75550000D01*
X144410000Y-76850000D01*
G37*
G04 #@! TD.AperFunction*
G04 #@! TA.AperFunction,SMDPad,CuDef*
G36*
X129170000Y-74310000D02*
G01*
X127370000Y-74310000D01*
X127370000Y-73010000D01*
X129170000Y-73010000D01*
X129170000Y-74310000D01*
G37*
G04 #@! TD.AperFunction*
G04 #@! TA.AperFunction,SMDPad,CuDef*
G36*
X129170000Y-76850000D02*
G01*
X127370000Y-76850000D01*
X127370000Y-75550000D01*
X129170000Y-75550000D01*
X129170000Y-76850000D01*
G37*
G04 #@! TD.AperFunction*
D14*
X139700000Y-92815000D03*
X137160000Y-90065000D03*
X130810000Y-90065000D03*
X133350000Y-92815000D03*
X139700000Y-99800000D03*
X137160000Y-97050000D03*
X130810000Y-97050000D03*
X133350000Y-99800000D03*
X139700000Y-106785000D03*
X137160000Y-104035000D03*
X130810000Y-104035000D03*
X133350000Y-106785000D03*
X139700000Y-113770000D03*
X137160000Y-111020000D03*
X130810000Y-111125000D03*
X133350000Y-113875000D03*
X140335000Y-76305000D03*
X137795000Y-73555000D03*
X131445000Y-73555000D03*
X133985000Y-76305000D03*
D15*
X134620000Y-69215000D03*
X139700000Y-69215000D03*
D16*
X132080000Y-69215000D03*
D15*
X137160000Y-69215000D03*
X139700000Y-64135000D03*
X137160000Y-64135000D03*
X134620000Y-64135000D03*
D16*
X132080000Y-64135000D03*
X118110000Y-122555000D03*
D15*
X123190000Y-122555000D03*
X120650000Y-122555000D03*
D16*
X118110000Y-117475000D03*
D15*
X123190000Y-117475000D03*
X120650000Y-117475000D03*
D17*
X118110000Y-131318000D03*
D18*
X123190000Y-131318000D03*
D19*
X133351000Y-120650000D03*
X139701000Y-118110000D03*
X138431000Y-120650000D03*
X132081000Y-118110000D03*
X135891000Y-120650000D03*
X134621000Y-118110000D03*
X137161000Y-118110000D03*
X130811000Y-120650000D03*
G04 #@! TA.AperFunction,SMDPad,CuDef*
D13*
G36*
X140320000Y-84720000D02*
G01*
X140320000Y-82920000D01*
X141620000Y-82920000D01*
X141620000Y-84720000D01*
X140320000Y-84720000D01*
G37*
G04 #@! TD.AperFunction*
G04 #@! TA.AperFunction,SMDPad,CuDef*
G36*
X137780000Y-84720000D02*
G01*
X137780000Y-82920000D01*
X139080000Y-82920000D01*
X139080000Y-84720000D01*
X137780000Y-84720000D01*
G37*
G04 #@! TD.AperFunction*
G04 #@! TA.AperFunction,SMDPad,CuDef*
G36*
X140320000Y-81545000D02*
G01*
X140320000Y-79745000D01*
X141620000Y-79745000D01*
X141620000Y-81545000D01*
X140320000Y-81545000D01*
G37*
G04 #@! TD.AperFunction*
G04 #@! TA.AperFunction,SMDPad,CuDef*
G36*
X137780000Y-81545000D02*
G01*
X137780000Y-79745000D01*
X139080000Y-79745000D01*
X139080000Y-81545000D01*
X137780000Y-81545000D01*
G37*
G04 #@! TD.AperFunction*
D20*
X140970000Y-80645000D02*
X140970000Y-83820000D01*
X123190000Y-130175000D02*
X123190000Y-128905000D01*
X143891000Y-82296000D02*
X140970000Y-82296000D01*
X123190000Y-127000000D02*
X127000000Y-123190000D01*
X123190000Y-130175000D02*
X123190000Y-127000000D01*
X127000000Y-123190000D02*
X140970000Y-123190000D01*
X144780000Y-83185000D02*
X143891000Y-82296000D01*
X140970000Y-123190000D02*
X144780000Y-119380000D01*
X142875000Y-99695000D02*
X144780000Y-99695000D01*
X144780000Y-99695000D02*
X144780000Y-83185000D01*
X142875000Y-113665000D02*
X144780000Y-113665000D01*
X144780000Y-119380000D02*
X144780000Y-113665000D01*
X144780000Y-113665000D02*
X144780000Y-99695000D01*
D21*
X134255000Y-79375000D02*
X132080000Y-79375000D01*
D20*
X118110000Y-130175000D02*
X118110000Y-127635000D01*
X138430000Y-80645000D02*
X138430000Y-83820000D01*
D21*
X137160000Y-79375000D02*
X138430000Y-80645000D01*
X136255000Y-79375000D02*
X137160000Y-79375000D01*
D22*
X137795000Y-84455000D02*
X138430000Y-83820000D01*
D21*
X136255000Y-84455000D02*
X137795000Y-84455000D01*
D20*
X128270000Y-76200000D02*
X128270000Y-81915000D01*
X143510000Y-76200000D02*
X143510000Y-77470000D01*
X143510000Y-77470000D02*
X142240000Y-78740000D01*
X142240000Y-78740000D02*
X139065000Y-78740000D01*
X138430000Y-79375000D02*
X138430000Y-80645000D01*
X139065000Y-78740000D02*
X138430000Y-79375000D01*
X118110000Y-127635000D02*
X118110000Y-127000000D01*
X118110000Y-127000000D02*
X116205000Y-125095000D01*
X116205000Y-125095000D02*
X116205000Y-116469998D01*
X116205000Y-116469998D02*
X116205000Y-115570000D01*
X116205000Y-115570000D02*
X124460000Y-107315000D01*
X127635000Y-104140000D02*
X124460000Y-104140000D01*
X124460000Y-107315000D02*
X124460000Y-104140000D01*
X127635000Y-90170000D02*
X124460000Y-90170000D01*
X124460000Y-104140000D02*
X124460000Y-90170000D01*
X124460000Y-90170000D02*
X124460000Y-85725000D01*
X125730000Y-66675000D02*
X134620000Y-66675000D01*
X124460000Y-67945000D02*
X125730000Y-66675000D01*
X134620000Y-64135000D02*
X134620000Y-66675000D01*
X134620000Y-66675000D02*
X134620000Y-69215000D01*
X129159000Y-82296000D02*
X138430000Y-82296000D01*
X124460000Y-81915000D02*
X124460000Y-67945000D01*
X128270000Y-81915000D02*
X128270000Y-82296000D01*
X127889000Y-82296000D02*
X128270000Y-82296000D01*
X128270000Y-82296000D02*
X129159000Y-82296000D01*
X129159000Y-82296000D02*
X124714000Y-82296000D01*
X124460000Y-85725000D02*
X124460000Y-82550000D01*
X124460000Y-82550000D02*
X124460000Y-82042000D01*
X124714000Y-82296000D02*
X124460000Y-82042000D01*
X124460000Y-82042000D02*
X124460000Y-81915000D01*
X138430000Y-120649000D02*
X138431000Y-120650000D01*
X132080000Y-118109000D02*
X132081000Y-118110000D01*
X126434999Y-119310001D02*
X123190000Y-122555000D01*
X133420999Y-119310001D02*
X126434999Y-119310001D01*
X134621000Y-118110000D02*
X133420999Y-119310001D01*
X123190000Y-122555000D02*
X123190000Y-117475000D01*
D21*
X135755000Y-79375000D02*
X135755000Y-77605000D01*
X137795000Y-75565000D02*
X137795000Y-73555000D01*
X135755000Y-77605000D02*
X137795000Y-75565000D01*
D20*
X137795000Y-73555000D02*
X137795000Y-73025000D01*
X139700000Y-71120000D02*
X139700000Y-69215000D01*
X137795000Y-73025000D02*
X139700000Y-71120000D01*
X139700000Y-69215000D02*
X139700000Y-64135000D01*
D21*
X134755000Y-77075000D02*
X133985000Y-76305000D01*
X134755000Y-79375000D02*
X134755000Y-77075000D01*
D20*
X137160000Y-64135000D02*
X137160000Y-69215000D01*
X137160000Y-69850000D02*
X137160000Y-69215000D01*
X133985000Y-76305000D02*
X133985000Y-73025000D01*
X133985000Y-73025000D02*
X137160000Y-69850000D01*
X128375000Y-73555000D02*
X128270000Y-73660000D01*
X131445000Y-73555000D02*
X128375000Y-73555000D01*
X140335000Y-76305000D02*
X140335000Y-74295000D01*
X140970000Y-73660000D02*
X143510000Y-73660000D01*
X140335000Y-74295000D02*
X140970000Y-73660000D01*
X130810000Y-111125000D02*
X130810000Y-113030000D01*
X130175000Y-113665000D02*
X127635000Y-113665000D01*
X130810000Y-113030000D02*
X130175000Y-113665000D01*
X139595000Y-113875000D02*
X139700000Y-113770000D01*
X135680000Y-113875000D02*
X135680000Y-113455000D01*
X135680000Y-113875000D02*
X139595000Y-113875000D01*
X133350000Y-113875000D02*
X135680000Y-113875000D01*
X135680000Y-113455000D02*
X135255000Y-113030000D01*
D21*
X133350000Y-86360000D02*
X134382000Y-86360000D01*
X134755000Y-84455000D02*
X134755000Y-85987000D01*
X134382000Y-86360000D02*
X134755000Y-85987000D01*
D20*
X137160000Y-111020000D02*
X135360000Y-111020000D01*
X135360000Y-111020000D02*
X135255000Y-111125000D01*
X135150000Y-104035000D02*
X135255000Y-104140000D01*
X130810000Y-104035000D02*
X135150000Y-104035000D01*
X136630000Y-106785000D02*
X139700000Y-106785000D01*
X133350000Y-106785000D02*
X136630000Y-106785000D01*
X132715000Y-109855000D02*
X133985000Y-109855000D01*
X136630000Y-107210000D02*
X136630000Y-106785000D01*
X133985000Y-109855000D02*
X136630000Y-107210000D01*
X132820000Y-107315000D02*
X133350000Y-106785000D01*
X131445000Y-107315000D02*
X132820000Y-107315000D01*
D21*
X134255000Y-84455000D02*
X133350000Y-84455000D01*
X132715000Y-84455000D02*
X131445000Y-85725000D01*
X133350000Y-84455000D02*
X132715000Y-84455000D01*
D20*
X142770000Y-104035000D02*
X142875000Y-104140000D01*
X137160000Y-104035000D02*
X142770000Y-104035000D01*
X127635000Y-99695000D02*
X130175000Y-99695000D01*
X130810000Y-99060000D02*
X130810000Y-97050000D01*
X130175000Y-99695000D02*
X130810000Y-99060000D01*
X137160000Y-97050000D02*
X135995000Y-97050000D01*
X135995000Y-97050000D02*
X135255000Y-97790000D01*
X130810000Y-90065000D02*
X131550000Y-90065000D01*
X131550000Y-90065000D02*
X132080000Y-89535000D01*
X142770000Y-90065000D02*
X142875000Y-90170000D01*
X137160000Y-90065000D02*
X142770000Y-90065000D01*
X133350000Y-99800000D02*
X139700000Y-99800000D01*
X139805000Y-99800000D02*
X141605000Y-101600000D01*
X139700000Y-99800000D02*
X139805000Y-99800000D01*
D21*
X135255000Y-84455000D02*
X135255000Y-86995000D01*
D20*
X132080000Y-91149998D02*
X133667500Y-89562498D01*
X132080000Y-95250000D02*
X132080000Y-91149998D01*
X133350000Y-96520000D02*
X132080000Y-95250000D01*
X133350000Y-99800000D02*
X133350000Y-96520000D01*
D21*
X135255000Y-86995000D02*
X135255000Y-87974998D01*
D20*
X133667500Y-89562498D02*
X135109999Y-88119999D01*
D21*
X135255000Y-87974998D02*
X135109999Y-88119999D01*
D22*
X135755000Y-92785000D02*
X135785000Y-92815000D01*
D20*
X133350000Y-92815000D02*
X135785000Y-92815000D01*
D21*
X135755000Y-84455000D02*
X135755000Y-92785000D01*
D20*
X135785000Y-92815000D02*
X139700000Y-92815000D01*
X127635000Y-111125000D02*
X127635000Y-106680000D01*
X142875000Y-111125000D02*
X142875000Y-106680000D01*
X127635000Y-97155000D02*
X127635000Y-92710000D01*
X142875000Y-97155000D02*
X142875000Y-92710000D01*
D23*
G36*
X145288000Y-63224346D02*
G01*
X145061309Y-63182112D01*
X145001716Y-63176947D01*
X144942199Y-63170950D01*
X144932984Y-63170990D01*
X144932981Y-63170990D01*
X144624651Y-63174468D01*
X144565193Y-63180976D01*
X144505635Y-63186654D01*
X144496603Y-63188483D01*
X144194818Y-63251785D01*
X144137777Y-63269712D01*
X144080442Y-63286854D01*
X144071938Y-63290403D01*
X143788194Y-63411115D01*
X143735709Y-63439786D01*
X143682804Y-63467734D01*
X143675150Y-63472867D01*
X143420257Y-63646394D01*
X143374319Y-63684732D01*
X143327873Y-63722405D01*
X143321362Y-63728926D01*
X143105029Y-63948656D01*
X143067433Y-63995161D01*
X143029168Y-64041163D01*
X143024048Y-64048826D01*
X142854514Y-64306391D01*
X142826674Y-64359297D01*
X142798065Y-64411871D01*
X142794531Y-64420382D01*
X142678254Y-64705971D01*
X142661226Y-64763262D01*
X142643368Y-64820407D01*
X142641554Y-64829442D01*
X142582963Y-65132177D01*
X142577384Y-65191715D01*
X142570969Y-65251207D01*
X142570945Y-65260422D01*
X142572270Y-65568772D01*
X142578362Y-65628267D01*
X142583625Y-65687869D01*
X142585391Y-65696914D01*
X142646584Y-65999134D01*
X142664121Y-66056328D01*
X142680855Y-66113755D01*
X142684344Y-66122284D01*
X142803073Y-66406862D01*
X142831367Y-66459528D01*
X142858955Y-66512646D01*
X142864034Y-66520335D01*
X143035777Y-66776432D01*
X143073781Y-66822622D01*
X143111140Y-66869344D01*
X143117616Y-66875900D01*
X143335831Y-67093762D01*
X143382088Y-67131695D01*
X143427806Y-67170267D01*
X143435433Y-67175441D01*
X143691808Y-67346769D01*
X143744560Y-67374999D01*
X143796892Y-67403952D01*
X143805377Y-67407546D01*
X144090148Y-67525814D01*
X144147364Y-67543256D01*
X144204336Y-67561497D01*
X144213358Y-67563374D01*
X144515677Y-67624078D01*
X144575150Y-67630070D01*
X144634623Y-67636903D01*
X144643838Y-67636992D01*
X144952190Y-67637819D01*
X145011750Y-67632140D01*
X145071363Y-67627295D01*
X145080419Y-67625593D01*
X145288000Y-67585069D01*
X145288000Y-124983158D01*
X145259523Y-124992191D01*
X145204588Y-125015737D01*
X145149235Y-125038551D01*
X145141129Y-125042935D01*
X144884592Y-125183968D01*
X144835247Y-125217755D01*
X144785409Y-125250867D01*
X144778309Y-125256741D01*
X144554051Y-125444916D01*
X144512207Y-125487646D01*
X144469751Y-125529806D01*
X144463927Y-125536947D01*
X144280491Y-125765097D01*
X144247744Y-125815139D01*
X144214286Y-125864742D01*
X144209960Y-125872879D01*
X144074330Y-126132313D01*
X144051918Y-126187785D01*
X144028740Y-126242923D01*
X144026077Y-126251745D01*
X143943422Y-126532583D01*
X143932224Y-126591284D01*
X143920184Y-126649940D01*
X143919285Y-126659112D01*
X143892753Y-126950656D01*
X143893171Y-127010472D01*
X143892753Y-127070288D01*
X143893652Y-127079460D01*
X143924252Y-127370605D01*
X143936283Y-127429217D01*
X143947489Y-127487963D01*
X143950153Y-127496784D01*
X144036721Y-127776440D01*
X144059899Y-127831578D01*
X144082311Y-127887050D01*
X144086638Y-127895186D01*
X144225877Y-128152702D01*
X144259304Y-128202259D01*
X144292080Y-128252347D01*
X144297905Y-128259488D01*
X144484510Y-128485056D01*
X144526965Y-128527215D01*
X144568809Y-128569945D01*
X144575909Y-128575819D01*
X144802773Y-128760845D01*
X144852566Y-128793927D01*
X144901955Y-128827745D01*
X144910061Y-128832127D01*
X145168542Y-128969564D01*
X145223836Y-128992355D01*
X145278829Y-129015925D01*
X145287632Y-129018650D01*
X145288000Y-129018761D01*
X145288000Y-133858000D01*
X115697000Y-133858000D01*
X115697000Y-125838578D01*
X117225000Y-127366579D01*
X117225000Y-127678476D01*
X117225001Y-127678486D01*
X117225000Y-128929928D01*
X116360000Y-128929928D01*
X116235518Y-128942188D01*
X116115820Y-128978498D01*
X116005506Y-129037463D01*
X115908815Y-129116815D01*
X115829463Y-129213506D01*
X115770498Y-129323820D01*
X115734188Y-129443518D01*
X115721928Y-129568000D01*
X115721928Y-133068000D01*
X115734188Y-133192482D01*
X115770498Y-133312180D01*
X115829463Y-133422494D01*
X115908815Y-133519185D01*
X116005506Y-133598537D01*
X116115820Y-133657502D01*
X116235518Y-133693812D01*
X116360000Y-133706072D01*
X119860000Y-133706072D01*
X119984482Y-133693812D01*
X120104180Y-133657502D01*
X120214494Y-133598537D01*
X120311185Y-133519185D01*
X120390537Y-133422494D01*
X120449502Y-133312180D01*
X120485812Y-133192482D01*
X120498072Y-133068000D01*
X120498072Y-132987609D01*
X121699997Y-132987609D01*
X121886073Y-133328766D01*
X122303409Y-133544513D01*
X122754815Y-133674696D01*
X123222946Y-133714313D01*
X123689811Y-133661842D01*
X124137468Y-133519297D01*
X124493927Y-133328766D01*
X124680003Y-132987609D01*
X123190000Y-131497605D01*
X121699997Y-132987609D01*
X120498072Y-132987609D01*
X120498072Y-131350946D01*
X120793687Y-131350946D01*
X120846158Y-131817811D01*
X120988703Y-132265468D01*
X121179234Y-132621927D01*
X121520391Y-132808003D01*
X123010395Y-131318000D01*
X123369605Y-131318000D01*
X124859609Y-132808003D01*
X125200766Y-132621927D01*
X125416513Y-132204591D01*
X125546696Y-131753185D01*
X125586313Y-131285054D01*
X125533842Y-130818189D01*
X125391297Y-130370532D01*
X125200766Y-130014073D01*
X124859609Y-129827997D01*
X123369605Y-131318000D01*
X123010395Y-131318000D01*
X121520391Y-129827997D01*
X121179234Y-130014073D01*
X120963487Y-130431409D01*
X120833304Y-130882815D01*
X120793687Y-131350946D01*
X120498072Y-131350946D01*
X120498072Y-129648391D01*
X121699997Y-129648391D01*
X123190000Y-131138395D01*
X124680003Y-129648391D01*
X124493927Y-129307234D01*
X124076591Y-129091487D01*
X123625185Y-128961304D01*
X123157054Y-128921687D01*
X122690189Y-128974158D01*
X122242532Y-129116703D01*
X121886073Y-129307234D01*
X121699997Y-129648391D01*
X120498072Y-129648391D01*
X120498072Y-129568000D01*
X120485812Y-129443518D01*
X120449502Y-129323820D01*
X120390537Y-129213506D01*
X120311185Y-129116815D01*
X120214494Y-129037463D01*
X120104180Y-128978498D01*
X119984482Y-128942188D01*
X119860000Y-128929928D01*
X118995000Y-128929928D01*
X118995000Y-127043469D01*
X118999281Y-127000000D01*
X118995000Y-126956531D01*
X118995000Y-126956523D01*
X118982195Y-126826510D01*
X118966554Y-126774947D01*
X127254000Y-126774947D01*
X127254000Y-127225053D01*
X127341811Y-127666510D01*
X127514059Y-128082353D01*
X127764125Y-128456603D01*
X128082397Y-128774875D01*
X128456647Y-129024941D01*
X128872490Y-129197189D01*
X129313947Y-129285000D01*
X129764053Y-129285000D01*
X130205510Y-129197189D01*
X130621353Y-129024941D01*
X130995603Y-128774875D01*
X131313875Y-128456603D01*
X131563941Y-128082353D01*
X131736189Y-127666510D01*
X131824000Y-127225053D01*
X131824000Y-126774947D01*
X138686000Y-126774947D01*
X138686000Y-127225053D01*
X138773811Y-127666510D01*
X138946059Y-128082353D01*
X139196125Y-128456603D01*
X139514397Y-128774875D01*
X139888647Y-129024941D01*
X140304490Y-129197189D01*
X140745947Y-129285000D01*
X141196053Y-129285000D01*
X141637510Y-129197189D01*
X142053353Y-129024941D01*
X142427603Y-128774875D01*
X142745875Y-128456603D01*
X142995941Y-128082353D01*
X143168189Y-127666510D01*
X143256000Y-127225053D01*
X143256000Y-126774947D01*
X143168189Y-126333490D01*
X142995941Y-125917647D01*
X142745875Y-125543397D01*
X142427603Y-125225125D01*
X142053353Y-124975059D01*
X141637510Y-124802811D01*
X141196053Y-124715000D01*
X140745947Y-124715000D01*
X140304490Y-124802811D01*
X139888647Y-124975059D01*
X139514397Y-125225125D01*
X139196125Y-125543397D01*
X138946059Y-125917647D01*
X138773811Y-126333490D01*
X138686000Y-126774947D01*
X131824000Y-126774947D01*
X131736189Y-126333490D01*
X131563941Y-125917647D01*
X131313875Y-125543397D01*
X130995603Y-125225125D01*
X130621353Y-124975059D01*
X130205510Y-124802811D01*
X129764053Y-124715000D01*
X129313947Y-124715000D01*
X128872490Y-124802811D01*
X128456647Y-124975059D01*
X128082397Y-125225125D01*
X127764125Y-125543397D01*
X127514059Y-125917647D01*
X127341811Y-126333490D01*
X127254000Y-126774947D01*
X118966554Y-126774947D01*
X118931589Y-126659687D01*
X118849411Y-126505941D01*
X118785221Y-126427726D01*
X118766532Y-126404953D01*
X118766530Y-126404951D01*
X118738817Y-126371183D01*
X118705049Y-126343470D01*
X117090000Y-124728422D01*
X117090000Y-124243072D01*
X119160000Y-124243072D01*
X119284482Y-124230812D01*
X119404180Y-124194502D01*
X119514494Y-124135537D01*
X119611185Y-124056185D01*
X119690537Y-123959494D01*
X119698042Y-123945454D01*
X119851853Y-124048228D01*
X120158504Y-124175246D01*
X120484042Y-124240000D01*
X120815958Y-124240000D01*
X121141496Y-124175246D01*
X121448147Y-124048228D01*
X121724125Y-123863825D01*
X121920000Y-123667950D01*
X122115875Y-123863825D01*
X122391853Y-124048228D01*
X122698504Y-124175246D01*
X123024042Y-124240000D01*
X123355958Y-124240000D01*
X123681496Y-124175246D01*
X123988147Y-124048228D01*
X124264125Y-123863825D01*
X124498825Y-123629125D01*
X124683228Y-123353147D01*
X124810246Y-123046496D01*
X124875000Y-122720958D01*
X124875000Y-122389042D01*
X124830625Y-122165954D01*
X126801578Y-120195001D01*
X129500354Y-120195001D01*
X129479225Y-120246011D01*
X129426000Y-120513589D01*
X129426000Y-120786411D01*
X129479225Y-121053989D01*
X129583629Y-121306043D01*
X129735201Y-121532886D01*
X129928114Y-121725799D01*
X130154957Y-121877371D01*
X130407011Y-121981775D01*
X130674589Y-122035000D01*
X130947411Y-122035000D01*
X131214989Y-121981775D01*
X131467043Y-121877371D01*
X131693886Y-121725799D01*
X131886799Y-121532886D01*
X132038371Y-121306043D01*
X132081000Y-121203127D01*
X132123629Y-121306043D01*
X132275201Y-121532886D01*
X132468114Y-121725799D01*
X132694957Y-121877371D01*
X132947011Y-121981775D01*
X133214589Y-122035000D01*
X133487411Y-122035000D01*
X133754989Y-121981775D01*
X134007043Y-121877371D01*
X134233886Y-121725799D01*
X134426799Y-121532886D01*
X134578371Y-121306043D01*
X134621000Y-121203127D01*
X134663629Y-121306043D01*
X134815201Y-121532886D01*
X135008114Y-121725799D01*
X135234957Y-121877371D01*
X135487011Y-121981775D01*
X135754589Y-122035000D01*
X136027411Y-122035000D01*
X136294989Y-121981775D01*
X136547043Y-121877371D01*
X136773886Y-121725799D01*
X136966799Y-121532886D01*
X137118371Y-121306043D01*
X137161000Y-121203127D01*
X137203629Y-121306043D01*
X137355201Y-121532886D01*
X137548114Y-121725799D01*
X137774957Y-121877371D01*
X138027011Y-121981775D01*
X138294589Y-122035000D01*
X138567411Y-122035000D01*
X138834989Y-121981775D01*
X139087043Y-121877371D01*
X139313886Y-121725799D01*
X139506799Y-121532886D01*
X139658371Y-121306043D01*
X139762775Y-121053989D01*
X139816000Y-120786411D01*
X139816000Y-120513589D01*
X139762775Y-120246011D01*
X139658371Y-119993957D01*
X139506799Y-119767114D01*
X139313886Y-119574201D01*
X139087043Y-119422629D01*
X138834989Y-119318225D01*
X138567411Y-119265000D01*
X138294589Y-119265000D01*
X138027011Y-119318225D01*
X137774957Y-119422629D01*
X137548114Y-119574201D01*
X137355201Y-119767114D01*
X137203629Y-119993957D01*
X137161000Y-120096873D01*
X137118371Y-119993957D01*
X136966799Y-119767114D01*
X136773886Y-119574201D01*
X136547043Y-119422629D01*
X136294989Y-119318225D01*
X136027411Y-119265000D01*
X135754589Y-119265000D01*
X135487011Y-119318225D01*
X135234957Y-119422629D01*
X135008114Y-119574201D01*
X134815201Y-119767114D01*
X134663629Y-119993957D01*
X134621000Y-120096873D01*
X134578371Y-119993957D01*
X134426799Y-119767114D01*
X134321132Y-119661447D01*
X134487578Y-119495000D01*
X134757411Y-119495000D01*
X135024989Y-119441775D01*
X135277043Y-119337371D01*
X135503886Y-119185799D01*
X135696799Y-118992886D01*
X135848371Y-118766043D01*
X135891000Y-118663127D01*
X135933629Y-118766043D01*
X136085201Y-118992886D01*
X136278114Y-119185799D01*
X136504957Y-119337371D01*
X136757011Y-119441775D01*
X137024589Y-119495000D01*
X137297411Y-119495000D01*
X137564989Y-119441775D01*
X137817043Y-119337371D01*
X138043886Y-119185799D01*
X138236799Y-118992886D01*
X138388371Y-118766043D01*
X138431000Y-118663127D01*
X138473629Y-118766043D01*
X138625201Y-118992886D01*
X138818114Y-119185799D01*
X139044957Y-119337371D01*
X139297011Y-119441775D01*
X139564589Y-119495000D01*
X139837411Y-119495000D01*
X140104989Y-119441775D01*
X140357043Y-119337371D01*
X140583886Y-119185799D01*
X140776799Y-118992886D01*
X140928371Y-118766043D01*
X141032775Y-118513989D01*
X141086000Y-118246411D01*
X141086000Y-117973589D01*
X141032775Y-117706011D01*
X140928371Y-117453957D01*
X140776799Y-117227114D01*
X140583886Y-117034201D01*
X140357043Y-116882629D01*
X140104989Y-116778225D01*
X139837411Y-116725000D01*
X139564589Y-116725000D01*
X139297011Y-116778225D01*
X139044957Y-116882629D01*
X138818114Y-117034201D01*
X138625201Y-117227114D01*
X138473629Y-117453957D01*
X138431000Y-117556873D01*
X138388371Y-117453957D01*
X138236799Y-117227114D01*
X138043886Y-117034201D01*
X137817043Y-116882629D01*
X137564989Y-116778225D01*
X137297411Y-116725000D01*
X137024589Y-116725000D01*
X136757011Y-116778225D01*
X136504957Y-116882629D01*
X136278114Y-117034201D01*
X136085201Y-117227114D01*
X135933629Y-117453957D01*
X135891000Y-117556873D01*
X135848371Y-117453957D01*
X135696799Y-117227114D01*
X135503886Y-117034201D01*
X135277043Y-116882629D01*
X135024989Y-116778225D01*
X134757411Y-116725000D01*
X134484589Y-116725000D01*
X134217011Y-116778225D01*
X133964957Y-116882629D01*
X133738114Y-117034201D01*
X133545201Y-117227114D01*
X133393629Y-117453957D01*
X133351000Y-117556873D01*
X133308371Y-117453957D01*
X133156799Y-117227114D01*
X132963886Y-117034201D01*
X132737043Y-116882629D01*
X132484989Y-116778225D01*
X132217411Y-116725000D01*
X131944589Y-116725000D01*
X131677011Y-116778225D01*
X131424957Y-116882629D01*
X131198114Y-117034201D01*
X131005201Y-117227114D01*
X130853629Y-117453957D01*
X130749225Y-117706011D01*
X130696000Y-117973589D01*
X130696000Y-118246411D01*
X130731524Y-118425001D01*
X126478468Y-118425001D01*
X126434999Y-118420720D01*
X126391530Y-118425001D01*
X126391522Y-118425001D01*
X126261509Y-118437806D01*
X126094685Y-118488412D01*
X125940940Y-118570590D01*
X125839952Y-118653469D01*
X125839950Y-118653471D01*
X125806182Y-118681184D01*
X125778469Y-118714952D01*
X124075000Y-120418422D01*
X124075000Y-118910195D01*
X124264125Y-118783825D01*
X124498825Y-118549125D01*
X124683228Y-118273147D01*
X124810246Y-117966496D01*
X124875000Y-117640958D01*
X124875000Y-117309042D01*
X124810246Y-116983504D01*
X124683228Y-116676853D01*
X124498825Y-116400875D01*
X124264125Y-116166175D01*
X123988147Y-115981772D01*
X123681496Y-115854754D01*
X123355958Y-115790000D01*
X123024042Y-115790000D01*
X122698504Y-115854754D01*
X122391853Y-115981772D01*
X122115875Y-116166175D01*
X121920000Y-116362050D01*
X121724125Y-116166175D01*
X121448147Y-115981772D01*
X121141496Y-115854754D01*
X120815958Y-115790000D01*
X120484042Y-115790000D01*
X120158504Y-115854754D01*
X119851853Y-115981772D01*
X119698042Y-116084546D01*
X119690537Y-116070506D01*
X119611185Y-115973815D01*
X119514494Y-115894463D01*
X119404180Y-115835498D01*
X119284482Y-115799188D01*
X119160000Y-115786928D01*
X117239650Y-115786928D01*
X125055051Y-107971528D01*
X125088817Y-107943817D01*
X125199411Y-107809059D01*
X125281589Y-107655313D01*
X125332195Y-107488490D01*
X125345000Y-107358477D01*
X125345000Y-107358469D01*
X125349281Y-107315000D01*
X125345000Y-107271531D01*
X125345000Y-105025000D01*
X126142713Y-105025000D01*
X126145498Y-105034180D01*
X126204463Y-105144494D01*
X126283815Y-105241185D01*
X126380506Y-105320537D01*
X126490820Y-105379502D01*
X126591358Y-105410000D01*
X126490820Y-105440498D01*
X126380506Y-105499463D01*
X126283815Y-105578815D01*
X126204463Y-105675506D01*
X126145498Y-105785820D01*
X126109188Y-105905518D01*
X126096928Y-106030000D01*
X126096928Y-107330000D01*
X126109188Y-107454482D01*
X126145498Y-107574180D01*
X126204463Y-107684494D01*
X126283815Y-107781185D01*
X126380506Y-107860537D01*
X126490820Y-107919502D01*
X126610518Y-107955812D01*
X126735000Y-107968072D01*
X126750001Y-107968072D01*
X126750000Y-109836928D01*
X126735000Y-109836928D01*
X126610518Y-109849188D01*
X126490820Y-109885498D01*
X126380506Y-109944463D01*
X126283815Y-110023815D01*
X126204463Y-110120506D01*
X126145498Y-110230820D01*
X126109188Y-110350518D01*
X126096928Y-110475000D01*
X126096928Y-111775000D01*
X126109188Y-111899482D01*
X126145498Y-112019180D01*
X126204463Y-112129494D01*
X126283815Y-112226185D01*
X126380506Y-112305537D01*
X126490820Y-112364502D01*
X126591358Y-112395000D01*
X126490820Y-112425498D01*
X126380506Y-112484463D01*
X126283815Y-112563815D01*
X126204463Y-112660506D01*
X126145498Y-112770820D01*
X126109188Y-112890518D01*
X126096928Y-113015000D01*
X126096928Y-114315000D01*
X126109188Y-114439482D01*
X126145498Y-114559180D01*
X126204463Y-114669494D01*
X126283815Y-114766185D01*
X126380506Y-114845537D01*
X126490820Y-114904502D01*
X126610518Y-114940812D01*
X126735000Y-114953072D01*
X128535000Y-114953072D01*
X128659482Y-114940812D01*
X128779180Y-114904502D01*
X128889494Y-114845537D01*
X128986185Y-114766185D01*
X129065537Y-114669494D01*
X129124502Y-114559180D01*
X129127287Y-114550000D01*
X130131531Y-114550000D01*
X130175000Y-114554281D01*
X130218469Y-114550000D01*
X130218477Y-114550000D01*
X130348490Y-114537195D01*
X130515313Y-114486589D01*
X130669059Y-114404411D01*
X130803817Y-114293817D01*
X130831534Y-114260044D01*
X131405049Y-113686530D01*
X131438817Y-113658817D01*
X131466533Y-113625046D01*
X131549411Y-113524059D01*
X131631589Y-113370314D01*
X131678822Y-113214611D01*
X131679180Y-113214502D01*
X131789494Y-113155537D01*
X131886185Y-113076185D01*
X131965537Y-112979494D01*
X132024502Y-112869180D01*
X132060812Y-112749482D01*
X132073072Y-112625000D01*
X132073072Y-110670861D01*
X132224744Y-110772205D01*
X132413102Y-110850226D01*
X132613061Y-110890000D01*
X132816939Y-110890000D01*
X133016898Y-110850226D01*
X133205256Y-110772205D01*
X133253454Y-110740000D01*
X133941531Y-110740000D01*
X133985000Y-110744281D01*
X134028469Y-110740000D01*
X134028477Y-110740000D01*
X134158490Y-110727195D01*
X134319765Y-110678272D01*
X134259774Y-110823102D01*
X134220000Y-111023061D01*
X134220000Y-111226939D01*
X134259774Y-111426898D01*
X134337795Y-111615256D01*
X134451063Y-111784774D01*
X134595226Y-111928937D01*
X134764744Y-112042205D01*
X134849953Y-112077500D01*
X134764744Y-112112795D01*
X134595226Y-112226063D01*
X134593820Y-112227469D01*
X134564502Y-112130820D01*
X134505537Y-112020506D01*
X134426185Y-111923815D01*
X134329494Y-111844463D01*
X134219180Y-111785498D01*
X134099482Y-111749188D01*
X133975000Y-111736928D01*
X132725000Y-111736928D01*
X132600518Y-111749188D01*
X132480820Y-111785498D01*
X132370506Y-111844463D01*
X132273815Y-111923815D01*
X132194463Y-112020506D01*
X132135498Y-112130820D01*
X132099188Y-112250518D01*
X132086928Y-112375000D01*
X132086928Y-115375000D01*
X132099188Y-115499482D01*
X132135498Y-115619180D01*
X132194463Y-115729494D01*
X132273815Y-115826185D01*
X132370506Y-115905537D01*
X132480820Y-115964502D01*
X132600518Y-116000812D01*
X132725000Y-116013072D01*
X133975000Y-116013072D01*
X134099482Y-116000812D01*
X134219180Y-115964502D01*
X134329494Y-115905537D01*
X134426185Y-115826185D01*
X134505537Y-115729494D01*
X134564502Y-115619180D01*
X134600812Y-115499482D01*
X134613072Y-115375000D01*
X134613072Y-114760000D01*
X135636523Y-114760000D01*
X135680000Y-114764282D01*
X135723476Y-114760000D01*
X138436928Y-114760000D01*
X138436928Y-115270000D01*
X138449188Y-115394482D01*
X138485498Y-115514180D01*
X138544463Y-115624494D01*
X138623815Y-115721185D01*
X138720506Y-115800537D01*
X138830820Y-115859502D01*
X138950518Y-115895812D01*
X139075000Y-115908072D01*
X140325000Y-115908072D01*
X140449482Y-115895812D01*
X140569180Y-115859502D01*
X140679494Y-115800537D01*
X140776185Y-115721185D01*
X140855537Y-115624494D01*
X140914502Y-115514180D01*
X140950812Y-115394482D01*
X140963072Y-115270000D01*
X140963072Y-113792000D01*
X141336928Y-113792000D01*
X141336928Y-114315000D01*
X141349188Y-114439482D01*
X141385498Y-114559180D01*
X141444463Y-114669494D01*
X141523815Y-114766185D01*
X141620506Y-114845537D01*
X141730820Y-114904502D01*
X141850518Y-114940812D01*
X141975000Y-114953072D01*
X142748000Y-114953072D01*
X142748000Y-113792000D01*
X143002000Y-113792000D01*
X143002000Y-114953072D01*
X143775000Y-114953072D01*
X143899482Y-114940812D01*
X144019180Y-114904502D01*
X144129494Y-114845537D01*
X144226185Y-114766185D01*
X144305537Y-114669494D01*
X144364502Y-114559180D01*
X144400812Y-114439482D01*
X144413072Y-114315000D01*
X144413072Y-113792000D01*
X143002000Y-113792000D01*
X142748000Y-113792000D01*
X141336928Y-113792000D01*
X140963072Y-113792000D01*
X140963072Y-112270000D01*
X140950812Y-112145518D01*
X140914502Y-112025820D01*
X140855537Y-111915506D01*
X140776185Y-111818815D01*
X140679494Y-111739463D01*
X140569180Y-111680498D01*
X140449482Y-111644188D01*
X140325000Y-111631928D01*
X139075000Y-111631928D01*
X138950518Y-111644188D01*
X138830820Y-111680498D01*
X138720506Y-111739463D01*
X138623815Y-111818815D01*
X138544463Y-111915506D01*
X138485498Y-112025820D01*
X138449188Y-112145518D01*
X138436928Y-112270000D01*
X138436928Y-112990000D01*
X138213259Y-112990000D01*
X138236185Y-112971185D01*
X138315537Y-112874494D01*
X138374502Y-112764180D01*
X138410812Y-112644482D01*
X138423072Y-112520000D01*
X138423072Y-109520000D01*
X138410812Y-109395518D01*
X138374502Y-109275820D01*
X138315537Y-109165506D01*
X138236185Y-109068815D01*
X138139494Y-108989463D01*
X138029180Y-108930498D01*
X137909482Y-108894188D01*
X137785000Y-108881928D01*
X136535000Y-108881928D01*
X136410518Y-108894188D01*
X136290820Y-108930498D01*
X136180506Y-108989463D01*
X136083815Y-109068815D01*
X136004463Y-109165506D01*
X135945498Y-109275820D01*
X135909188Y-109395518D01*
X135896928Y-109520000D01*
X135896928Y-110135000D01*
X135569515Y-110135000D01*
X135556898Y-110129774D01*
X135356939Y-110090000D01*
X135153061Y-110090000D01*
X134963965Y-110127613D01*
X137225050Y-107866529D01*
X137258817Y-107838817D01*
X137369411Y-107704059D01*
X137387616Y-107670000D01*
X138436928Y-107670000D01*
X138436928Y-108285000D01*
X138449188Y-108409482D01*
X138485498Y-108529180D01*
X138544463Y-108639494D01*
X138623815Y-108736185D01*
X138720506Y-108815537D01*
X138830820Y-108874502D01*
X138950518Y-108910812D01*
X139075000Y-108923072D01*
X140325000Y-108923072D01*
X140449482Y-108910812D01*
X140569180Y-108874502D01*
X140679494Y-108815537D01*
X140776185Y-108736185D01*
X140855537Y-108639494D01*
X140914502Y-108529180D01*
X140950812Y-108409482D01*
X140963072Y-108285000D01*
X140963072Y-105285000D01*
X140950812Y-105160518D01*
X140914502Y-105040820D01*
X140855537Y-104930506D01*
X140846915Y-104920000D01*
X141350862Y-104920000D01*
X141385498Y-105034180D01*
X141444463Y-105144494D01*
X141523815Y-105241185D01*
X141620506Y-105320537D01*
X141730820Y-105379502D01*
X141831358Y-105410000D01*
X141730820Y-105440498D01*
X141620506Y-105499463D01*
X141523815Y-105578815D01*
X141444463Y-105675506D01*
X141385498Y-105785820D01*
X141349188Y-105905518D01*
X141336928Y-106030000D01*
X141336928Y-107330000D01*
X141349188Y-107454482D01*
X141385498Y-107574180D01*
X141444463Y-107684494D01*
X141523815Y-107781185D01*
X141620506Y-107860537D01*
X141730820Y-107919502D01*
X141850518Y-107955812D01*
X141975000Y-107968072D01*
X141990001Y-107968072D01*
X141990000Y-109836928D01*
X141975000Y-109836928D01*
X141850518Y-109849188D01*
X141730820Y-109885498D01*
X141620506Y-109944463D01*
X141523815Y-110023815D01*
X141444463Y-110120506D01*
X141385498Y-110230820D01*
X141349188Y-110350518D01*
X141336928Y-110475000D01*
X141336928Y-111775000D01*
X141349188Y-111899482D01*
X141385498Y-112019180D01*
X141444463Y-112129494D01*
X141523815Y-112226185D01*
X141620506Y-112305537D01*
X141730820Y-112364502D01*
X141831358Y-112395000D01*
X141730820Y-112425498D01*
X141620506Y-112484463D01*
X141523815Y-112563815D01*
X141444463Y-112660506D01*
X141385498Y-112770820D01*
X141349188Y-112890518D01*
X141336928Y-113015000D01*
X141336928Y-113538000D01*
X142748000Y-113538000D01*
X142748000Y-113518000D01*
X143002000Y-113518000D01*
X143002000Y-113538000D01*
X144413072Y-113538000D01*
X144413072Y-113015000D01*
X144400812Y-112890518D01*
X144364502Y-112770820D01*
X144305537Y-112660506D01*
X144226185Y-112563815D01*
X144129494Y-112484463D01*
X144019180Y-112425498D01*
X143918642Y-112395000D01*
X144019180Y-112364502D01*
X144129494Y-112305537D01*
X144226185Y-112226185D01*
X144305537Y-112129494D01*
X144364502Y-112019180D01*
X144400812Y-111899482D01*
X144413072Y-111775000D01*
X144413072Y-110475000D01*
X144400812Y-110350518D01*
X144364502Y-110230820D01*
X144305537Y-110120506D01*
X144226185Y-110023815D01*
X144129494Y-109944463D01*
X144019180Y-109885498D01*
X143899482Y-109849188D01*
X143775000Y-109836928D01*
X143760000Y-109836928D01*
X143760000Y-107968072D01*
X143775000Y-107968072D01*
X143899482Y-107955812D01*
X144019180Y-107919502D01*
X144129494Y-107860537D01*
X144226185Y-107781185D01*
X144305537Y-107684494D01*
X144364502Y-107574180D01*
X144400812Y-107454482D01*
X144413072Y-107330000D01*
X144413072Y-106030000D01*
X144400812Y-105905518D01*
X144364502Y-105785820D01*
X144305537Y-105675506D01*
X144226185Y-105578815D01*
X144129494Y-105499463D01*
X144019180Y-105440498D01*
X143918642Y-105410000D01*
X144019180Y-105379502D01*
X144129494Y-105320537D01*
X144226185Y-105241185D01*
X144305537Y-105144494D01*
X144364502Y-105034180D01*
X144400812Y-104914482D01*
X144413072Y-104790000D01*
X144413072Y-103490000D01*
X144400812Y-103365518D01*
X144364502Y-103245820D01*
X144305537Y-103135506D01*
X144226185Y-103038815D01*
X144129494Y-102959463D01*
X144019180Y-102900498D01*
X143899482Y-102864188D01*
X143775000Y-102851928D01*
X141975000Y-102851928D01*
X141850518Y-102864188D01*
X141730820Y-102900498D01*
X141620506Y-102959463D01*
X141523815Y-103038815D01*
X141444463Y-103135506D01*
X141436716Y-103150000D01*
X138423072Y-103150000D01*
X138423072Y-102535000D01*
X138410812Y-102410518D01*
X138374502Y-102290820D01*
X138315537Y-102180506D01*
X138236185Y-102083815D01*
X138139494Y-102004463D01*
X138029180Y-101945498D01*
X137909482Y-101909188D01*
X137785000Y-101896928D01*
X136535000Y-101896928D01*
X136410518Y-101909188D01*
X136290820Y-101945498D01*
X136180506Y-102004463D01*
X136083815Y-102083815D01*
X136004463Y-102180506D01*
X135945498Y-102290820D01*
X135909188Y-102410518D01*
X135896928Y-102535000D01*
X135896928Y-103324139D01*
X135745256Y-103222795D01*
X135556898Y-103144774D01*
X135356939Y-103105000D01*
X135153061Y-103105000D01*
X134953102Y-103144774D01*
X134940485Y-103150000D01*
X132073072Y-103150000D01*
X132073072Y-102535000D01*
X132060812Y-102410518D01*
X132024502Y-102290820D01*
X131965537Y-102180506D01*
X131886185Y-102083815D01*
X131789494Y-102004463D01*
X131679180Y-101945498D01*
X131559482Y-101909188D01*
X131435000Y-101896928D01*
X130185000Y-101896928D01*
X130060518Y-101909188D01*
X129940820Y-101945498D01*
X129830506Y-102004463D01*
X129733815Y-102083815D01*
X129654463Y-102180506D01*
X129595498Y-102290820D01*
X129559188Y-102410518D01*
X129546928Y-102535000D01*
X129546928Y-105535000D01*
X129559188Y-105659482D01*
X129595498Y-105779180D01*
X129654463Y-105889494D01*
X129733815Y-105986185D01*
X129830506Y-106065537D01*
X129940820Y-106124502D01*
X130060518Y-106160812D01*
X130185000Y-106173072D01*
X131435000Y-106173072D01*
X131559482Y-106160812D01*
X131679180Y-106124502D01*
X131789494Y-106065537D01*
X131886185Y-105986185D01*
X131965537Y-105889494D01*
X132024502Y-105779180D01*
X132060812Y-105659482D01*
X132073072Y-105535000D01*
X132073072Y-104920000D01*
X132203085Y-104920000D01*
X132194463Y-104930506D01*
X132135498Y-105040820D01*
X132099188Y-105160518D01*
X132086928Y-105285000D01*
X132086928Y-106430000D01*
X131983454Y-106430000D01*
X131935256Y-106397795D01*
X131746898Y-106319774D01*
X131546939Y-106280000D01*
X131343061Y-106280000D01*
X131143102Y-106319774D01*
X130954744Y-106397795D01*
X130785226Y-106511063D01*
X130641063Y-106655226D01*
X130527795Y-106824744D01*
X130449774Y-107013102D01*
X130410000Y-107213061D01*
X130410000Y-107416939D01*
X130449774Y-107616898D01*
X130527795Y-107805256D01*
X130641063Y-107974774D01*
X130785226Y-108118937D01*
X130954744Y-108232205D01*
X131143102Y-108310226D01*
X131343061Y-108350000D01*
X131546939Y-108350000D01*
X131746898Y-108310226D01*
X131935256Y-108232205D01*
X131983454Y-108200000D01*
X132086928Y-108200000D01*
X132086928Y-108285000D01*
X132099188Y-108409482D01*
X132135498Y-108529180D01*
X132194463Y-108639494D01*
X132273815Y-108736185D01*
X132370506Y-108815537D01*
X132442373Y-108853952D01*
X132413102Y-108859774D01*
X132224744Y-108937795D01*
X132055226Y-109051063D01*
X131911063Y-109195226D01*
X131907784Y-109200133D01*
X131886185Y-109173815D01*
X131789494Y-109094463D01*
X131679180Y-109035498D01*
X131559482Y-108999188D01*
X131435000Y-108986928D01*
X130185000Y-108986928D01*
X130060518Y-108999188D01*
X129940820Y-109035498D01*
X129830506Y-109094463D01*
X129733815Y-109173815D01*
X129654463Y-109270506D01*
X129595498Y-109380820D01*
X129559188Y-109500518D01*
X129546928Y-109625000D01*
X129546928Y-112625000D01*
X129559188Y-112749482D01*
X129568446Y-112780000D01*
X129127287Y-112780000D01*
X129124502Y-112770820D01*
X129065537Y-112660506D01*
X128986185Y-112563815D01*
X128889494Y-112484463D01*
X128779180Y-112425498D01*
X128678642Y-112395000D01*
X128779180Y-112364502D01*
X128889494Y-112305537D01*
X128986185Y-112226185D01*
X129065537Y-112129494D01*
X129124502Y-112019180D01*
X129160812Y-111899482D01*
X129173072Y-111775000D01*
X129173072Y-110475000D01*
X129160812Y-110350518D01*
X129124502Y-110230820D01*
X129065537Y-110120506D01*
X128986185Y-110023815D01*
X128889494Y-109944463D01*
X128779180Y-109885498D01*
X128659482Y-109849188D01*
X128535000Y-109836928D01*
X128520000Y-109836928D01*
X128520000Y-107968072D01*
X128535000Y-107968072D01*
X128659482Y-107955812D01*
X128779180Y-107919502D01*
X128889494Y-107860537D01*
X128986185Y-107781185D01*
X129065537Y-107684494D01*
X129124502Y-107574180D01*
X129160812Y-107454482D01*
X129173072Y-107330000D01*
X129173072Y-106030000D01*
X129160812Y-105905518D01*
X129124502Y-105785820D01*
X129065537Y-105675506D01*
X128986185Y-105578815D01*
X128889494Y-105499463D01*
X128779180Y-105440498D01*
X128678642Y-105410000D01*
X128779180Y-105379502D01*
X128889494Y-105320537D01*
X128986185Y-105241185D01*
X129065537Y-105144494D01*
X129124502Y-105034180D01*
X129160812Y-104914482D01*
X129173072Y-104790000D01*
X129173072Y-103490000D01*
X129160812Y-103365518D01*
X129124502Y-103245820D01*
X129065537Y-103135506D01*
X128986185Y-103038815D01*
X128889494Y-102959463D01*
X128779180Y-102900498D01*
X128659482Y-102864188D01*
X128535000Y-102851928D01*
X126735000Y-102851928D01*
X126610518Y-102864188D01*
X126490820Y-102900498D01*
X126380506Y-102959463D01*
X126283815Y-103038815D01*
X126204463Y-103135506D01*
X126145498Y-103245820D01*
X126142713Y-103255000D01*
X125345000Y-103255000D01*
X125345000Y-91055000D01*
X126142713Y-91055000D01*
X126145498Y-91064180D01*
X126204463Y-91174494D01*
X126283815Y-91271185D01*
X126380506Y-91350537D01*
X126490820Y-91409502D01*
X126591358Y-91440000D01*
X126490820Y-91470498D01*
X126380506Y-91529463D01*
X126283815Y-91608815D01*
X126204463Y-91705506D01*
X126145498Y-91815820D01*
X126109188Y-91935518D01*
X126096928Y-92060000D01*
X126096928Y-93360000D01*
X126109188Y-93484482D01*
X126145498Y-93604180D01*
X126204463Y-93714494D01*
X126283815Y-93811185D01*
X126380506Y-93890537D01*
X126490820Y-93949502D01*
X126610518Y-93985812D01*
X126735000Y-93998072D01*
X126750001Y-93998072D01*
X126750000Y-95866928D01*
X126735000Y-95866928D01*
X126610518Y-95879188D01*
X126490820Y-95915498D01*
X126380506Y-95974463D01*
X126283815Y-96053815D01*
X126204463Y-96150506D01*
X126145498Y-96260820D01*
X126109188Y-96380518D01*
X126096928Y-96505000D01*
X126096928Y-97805000D01*
X126109188Y-97929482D01*
X126145498Y-98049180D01*
X126204463Y-98159494D01*
X126283815Y-98256185D01*
X126380506Y-98335537D01*
X126490820Y-98394502D01*
X126591358Y-98425000D01*
X126490820Y-98455498D01*
X126380506Y-98514463D01*
X126283815Y-98593815D01*
X126204463Y-98690506D01*
X126145498Y-98800820D01*
X126109188Y-98920518D01*
X126096928Y-99045000D01*
X126096928Y-100345000D01*
X126109188Y-100469482D01*
X126145498Y-100589180D01*
X126204463Y-100699494D01*
X126283815Y-100796185D01*
X126380506Y-100875537D01*
X126490820Y-100934502D01*
X126610518Y-100970812D01*
X126735000Y-100983072D01*
X128535000Y-100983072D01*
X128659482Y-100970812D01*
X128779180Y-100934502D01*
X128889494Y-100875537D01*
X128986185Y-100796185D01*
X129065537Y-100699494D01*
X129124502Y-100589180D01*
X129127287Y-100580000D01*
X130131531Y-100580000D01*
X130175000Y-100584281D01*
X130218469Y-100580000D01*
X130218477Y-100580000D01*
X130348490Y-100567195D01*
X130515313Y-100516589D01*
X130669059Y-100434411D01*
X130803817Y-100323817D01*
X130831534Y-100290044D01*
X131405050Y-99716529D01*
X131438817Y-99688817D01*
X131489952Y-99626510D01*
X131549411Y-99554059D01*
X131631589Y-99400314D01*
X131682195Y-99233490D01*
X131686668Y-99188072D01*
X131692134Y-99132578D01*
X131789494Y-99080537D01*
X131886185Y-99001185D01*
X131965537Y-98904494D01*
X132024502Y-98794180D01*
X132060812Y-98674482D01*
X132073072Y-98550000D01*
X132073072Y-96494650D01*
X132465001Y-96886580D01*
X132465001Y-97718954D01*
X132370506Y-97769463D01*
X132273815Y-97848815D01*
X132194463Y-97945506D01*
X132135498Y-98055820D01*
X132099188Y-98175518D01*
X132086928Y-98300000D01*
X132086928Y-101300000D01*
X132099188Y-101424482D01*
X132135498Y-101544180D01*
X132194463Y-101654494D01*
X132273815Y-101751185D01*
X132370506Y-101830537D01*
X132480820Y-101889502D01*
X132600518Y-101925812D01*
X132725000Y-101938072D01*
X133975000Y-101938072D01*
X134099482Y-101925812D01*
X134219180Y-101889502D01*
X134329494Y-101830537D01*
X134426185Y-101751185D01*
X134505537Y-101654494D01*
X134564502Y-101544180D01*
X134600812Y-101424482D01*
X134613072Y-101300000D01*
X134613072Y-100685000D01*
X138436928Y-100685000D01*
X138436928Y-101300000D01*
X138449188Y-101424482D01*
X138485498Y-101544180D01*
X138544463Y-101654494D01*
X138623815Y-101751185D01*
X138720506Y-101830537D01*
X138830820Y-101889502D01*
X138950518Y-101925812D01*
X139075000Y-101938072D01*
X140325000Y-101938072D01*
X140449482Y-101925812D01*
X140569180Y-101889502D01*
X140603644Y-101871080D01*
X140609774Y-101901898D01*
X140687795Y-102090256D01*
X140801063Y-102259774D01*
X140945226Y-102403937D01*
X141114744Y-102517205D01*
X141303102Y-102595226D01*
X141503061Y-102635000D01*
X141706939Y-102635000D01*
X141906898Y-102595226D01*
X142095256Y-102517205D01*
X142264774Y-102403937D01*
X142408937Y-102259774D01*
X142522205Y-102090256D01*
X142600226Y-101901898D01*
X142640000Y-101701939D01*
X142640000Y-101498061D01*
X142600226Y-101298102D01*
X142522205Y-101109744D01*
X142437566Y-100983072D01*
X142748000Y-100983072D01*
X142748000Y-99822000D01*
X143002000Y-99822000D01*
X143002000Y-100983072D01*
X143775000Y-100983072D01*
X143899482Y-100970812D01*
X144019180Y-100934502D01*
X144129494Y-100875537D01*
X144226185Y-100796185D01*
X144305537Y-100699494D01*
X144364502Y-100589180D01*
X144400812Y-100469482D01*
X144413072Y-100345000D01*
X144413072Y-99822000D01*
X143002000Y-99822000D01*
X142748000Y-99822000D01*
X141336928Y-99822000D01*
X141336928Y-100080349D01*
X140963072Y-99706494D01*
X140963072Y-98300000D01*
X140950812Y-98175518D01*
X140914502Y-98055820D01*
X140855537Y-97945506D01*
X140776185Y-97848815D01*
X140679494Y-97769463D01*
X140569180Y-97710498D01*
X140449482Y-97674188D01*
X140325000Y-97661928D01*
X139075000Y-97661928D01*
X138950518Y-97674188D01*
X138830820Y-97710498D01*
X138720506Y-97769463D01*
X138623815Y-97848815D01*
X138544463Y-97945506D01*
X138485498Y-98055820D01*
X138449188Y-98175518D01*
X138436928Y-98300000D01*
X138436928Y-98915000D01*
X138306915Y-98915000D01*
X138315537Y-98904494D01*
X138374502Y-98794180D01*
X138410812Y-98674482D01*
X138423072Y-98550000D01*
X138423072Y-95550000D01*
X138410812Y-95425518D01*
X138374502Y-95305820D01*
X138315537Y-95195506D01*
X138236185Y-95098815D01*
X138139494Y-95019463D01*
X138029180Y-94960498D01*
X137909482Y-94924188D01*
X137785000Y-94911928D01*
X136535000Y-94911928D01*
X136410518Y-94924188D01*
X136290820Y-94960498D01*
X136180506Y-95019463D01*
X136083815Y-95098815D01*
X136004463Y-95195506D01*
X135945498Y-95305820D01*
X135909188Y-95425518D01*
X135896928Y-95550000D01*
X135896928Y-96170377D01*
X135821510Y-96177805D01*
X135654687Y-96228411D01*
X135500941Y-96310589D01*
X135500939Y-96310590D01*
X135500940Y-96310590D01*
X135399953Y-96393468D01*
X135399951Y-96393470D01*
X135366183Y-96421183D01*
X135338470Y-96454951D01*
X135009956Y-96783465D01*
X134953102Y-96794774D01*
X134764744Y-96872795D01*
X134595226Y-96986063D01*
X134451063Y-97130226D01*
X134337795Y-97299744D01*
X134259774Y-97488102D01*
X134235000Y-97612650D01*
X134235000Y-96563465D01*
X134239281Y-96519999D01*
X134235000Y-96476533D01*
X134235000Y-96476523D01*
X134222195Y-96346510D01*
X134171589Y-96179687D01*
X134089411Y-96025941D01*
X133978817Y-95891183D01*
X133945049Y-95863470D01*
X133034650Y-94953072D01*
X133975000Y-94953072D01*
X134099482Y-94940812D01*
X134219180Y-94904502D01*
X134329494Y-94845537D01*
X134426185Y-94766185D01*
X134505537Y-94669494D01*
X134564502Y-94559180D01*
X134600812Y-94439482D01*
X134613072Y-94315000D01*
X134613072Y-93700000D01*
X136845485Y-93700000D01*
X136858102Y-93705226D01*
X137058061Y-93745000D01*
X137261939Y-93745000D01*
X137461898Y-93705226D01*
X137474515Y-93700000D01*
X138436928Y-93700000D01*
X138436928Y-94315000D01*
X138449188Y-94439482D01*
X138485498Y-94559180D01*
X138544463Y-94669494D01*
X138623815Y-94766185D01*
X138720506Y-94845537D01*
X138830820Y-94904502D01*
X138950518Y-94940812D01*
X139075000Y-94953072D01*
X140325000Y-94953072D01*
X140449482Y-94940812D01*
X140569180Y-94904502D01*
X140679494Y-94845537D01*
X140776185Y-94766185D01*
X140855537Y-94669494D01*
X140914502Y-94559180D01*
X140950812Y-94439482D01*
X140963072Y-94315000D01*
X140963072Y-91315000D01*
X140950812Y-91190518D01*
X140914502Y-91070820D01*
X140855537Y-90960506D01*
X140846915Y-90950000D01*
X141350862Y-90950000D01*
X141385498Y-91064180D01*
X141444463Y-91174494D01*
X141523815Y-91271185D01*
X141620506Y-91350537D01*
X141730820Y-91409502D01*
X141831358Y-91440000D01*
X141730820Y-91470498D01*
X141620506Y-91529463D01*
X141523815Y-91608815D01*
X141444463Y-91705506D01*
X141385498Y-91815820D01*
X141349188Y-91935518D01*
X141336928Y-92060000D01*
X141336928Y-93360000D01*
X141349188Y-93484482D01*
X141385498Y-93604180D01*
X141444463Y-93714494D01*
X141523815Y-93811185D01*
X141620506Y-93890537D01*
X141730820Y-93949502D01*
X141850518Y-93985812D01*
X141975000Y-93998072D01*
X141990001Y-93998072D01*
X141990000Y-95866928D01*
X141975000Y-95866928D01*
X141850518Y-95879188D01*
X141730820Y-95915498D01*
X141620506Y-95974463D01*
X141523815Y-96053815D01*
X141444463Y-96150506D01*
X141385498Y-96260820D01*
X141349188Y-96380518D01*
X141336928Y-96505000D01*
X141336928Y-97805000D01*
X141349188Y-97929482D01*
X141385498Y-98049180D01*
X141444463Y-98159494D01*
X141523815Y-98256185D01*
X141620506Y-98335537D01*
X141730820Y-98394502D01*
X141831358Y-98425000D01*
X141730820Y-98455498D01*
X141620506Y-98514463D01*
X141523815Y-98593815D01*
X141444463Y-98690506D01*
X141385498Y-98800820D01*
X141349188Y-98920518D01*
X141336928Y-99045000D01*
X141336928Y-99568000D01*
X142748000Y-99568000D01*
X142748000Y-99548000D01*
X143002000Y-99548000D01*
X143002000Y-99568000D01*
X144413072Y-99568000D01*
X144413072Y-99045000D01*
X144400812Y-98920518D01*
X144364502Y-98800820D01*
X144305537Y-98690506D01*
X144226185Y-98593815D01*
X144129494Y-98514463D01*
X144019180Y-98455498D01*
X143918642Y-98425000D01*
X144019180Y-98394502D01*
X144129494Y-98335537D01*
X144226185Y-98256185D01*
X144305537Y-98159494D01*
X144364502Y-98049180D01*
X144400812Y-97929482D01*
X144413072Y-97805000D01*
X144413072Y-96505000D01*
X144400812Y-96380518D01*
X144364502Y-96260820D01*
X144305537Y-96150506D01*
X144226185Y-96053815D01*
X144129494Y-95974463D01*
X144019180Y-95915498D01*
X143899482Y-95879188D01*
X143775000Y-95866928D01*
X143760000Y-95866928D01*
X143760000Y-93998072D01*
X143775000Y-93998072D01*
X143899482Y-93985812D01*
X144019180Y-93949502D01*
X144129494Y-93890537D01*
X144226185Y-93811185D01*
X144305537Y-93714494D01*
X144364502Y-93604180D01*
X144400812Y-93484482D01*
X144413072Y-93360000D01*
X144413072Y-92060000D01*
X144400812Y-91935518D01*
X144364502Y-91815820D01*
X144305537Y-91705506D01*
X144226185Y-91608815D01*
X144129494Y-91529463D01*
X144019180Y-91470498D01*
X143918642Y-91440000D01*
X144019180Y-91409502D01*
X144129494Y-91350537D01*
X144226185Y-91271185D01*
X144305537Y-91174494D01*
X144364502Y-91064180D01*
X144400812Y-90944482D01*
X144413072Y-90820000D01*
X144413072Y-89520000D01*
X144400812Y-89395518D01*
X144364502Y-89275820D01*
X144305537Y-89165506D01*
X144226185Y-89068815D01*
X144129494Y-88989463D01*
X144019180Y-88930498D01*
X143899482Y-88894188D01*
X143775000Y-88881928D01*
X141975000Y-88881928D01*
X141850518Y-88894188D01*
X141730820Y-88930498D01*
X141620506Y-88989463D01*
X141523815Y-89068815D01*
X141444463Y-89165506D01*
X141436716Y-89180000D01*
X138423072Y-89180000D01*
X138423072Y-88565000D01*
X138410812Y-88440518D01*
X138374502Y-88320820D01*
X138315537Y-88210506D01*
X138236185Y-88113815D01*
X138139494Y-88034463D01*
X138029180Y-87975498D01*
X137909482Y-87939188D01*
X137785000Y-87926928D01*
X136565000Y-87926928D01*
X136565000Y-85827621D01*
X136674180Y-85794502D01*
X136784494Y-85735537D01*
X136881185Y-85656185D01*
X136960537Y-85559494D01*
X137019502Y-85449180D01*
X137055812Y-85329482D01*
X137062163Y-85265000D01*
X137452564Y-85265000D01*
X137535820Y-85309502D01*
X137655518Y-85345812D01*
X137780000Y-85358072D01*
X139080000Y-85358072D01*
X139204482Y-85345812D01*
X139324180Y-85309502D01*
X139434494Y-85250537D01*
X139531185Y-85171185D01*
X139610537Y-85074494D01*
X139669502Y-84964180D01*
X139700000Y-84863642D01*
X139730498Y-84964180D01*
X139789463Y-85074494D01*
X139868815Y-85171185D01*
X139965506Y-85250537D01*
X140075820Y-85309502D01*
X140195518Y-85345812D01*
X140320000Y-85358072D01*
X140843000Y-85358072D01*
X140843000Y-83947000D01*
X141097000Y-83947000D01*
X141097000Y-85358072D01*
X141620000Y-85358072D01*
X141744482Y-85345812D01*
X141864180Y-85309502D01*
X141974494Y-85250537D01*
X142071185Y-85171185D01*
X142150537Y-85074494D01*
X142209502Y-84964180D01*
X142245812Y-84844482D01*
X142258072Y-84720000D01*
X142258072Y-83947000D01*
X141097000Y-83947000D01*
X140843000Y-83947000D01*
X140823000Y-83947000D01*
X140823000Y-83693000D01*
X140843000Y-83693000D01*
X140843000Y-83327308D01*
X140852523Y-83329351D01*
X141056377Y-83332413D01*
X141097000Y-83324965D01*
X141097000Y-83693000D01*
X142258072Y-83693000D01*
X142258072Y-82920000D01*
X142245812Y-82795518D01*
X142209502Y-82675820D01*
X142150537Y-82565506D01*
X142071185Y-82468815D01*
X142003356Y-82413149D01*
X142006413Y-82209623D01*
X141980870Y-82070304D01*
X142071185Y-81996185D01*
X142150537Y-81899494D01*
X142209502Y-81789180D01*
X142245812Y-81669482D01*
X142258072Y-81545000D01*
X142258072Y-80772000D01*
X141097000Y-80772000D01*
X141097000Y-81264692D01*
X141087477Y-81262649D01*
X140883623Y-81259587D01*
X140843000Y-81267035D01*
X140843000Y-80772000D01*
X140823000Y-80772000D01*
X140823000Y-80518000D01*
X140843000Y-80518000D01*
X140843000Y-80498000D01*
X141097000Y-80498000D01*
X141097000Y-80518000D01*
X142258072Y-80518000D01*
X142258072Y-79745000D01*
X142246611Y-79628630D01*
X142283469Y-79625000D01*
X142283477Y-79625000D01*
X142413490Y-79612195D01*
X142580313Y-79561589D01*
X142734059Y-79479411D01*
X142868817Y-79368817D01*
X142896534Y-79335044D01*
X144105049Y-78126530D01*
X144138817Y-78098817D01*
X144179554Y-78049180D01*
X144249410Y-77964060D01*
X144249411Y-77964059D01*
X144331589Y-77810313D01*
X144382195Y-77643490D01*
X144395000Y-77513477D01*
X144395000Y-77513467D01*
X144397501Y-77488072D01*
X144410000Y-77488072D01*
X144534482Y-77475812D01*
X144654180Y-77439502D01*
X144764494Y-77380537D01*
X144861185Y-77301185D01*
X144940537Y-77204494D01*
X144999502Y-77094180D01*
X145035812Y-76974482D01*
X145048072Y-76850000D01*
X145048072Y-75550000D01*
X145035812Y-75425518D01*
X144999502Y-75305820D01*
X144940537Y-75195506D01*
X144861185Y-75098815D01*
X144764494Y-75019463D01*
X144654180Y-74960498D01*
X144553642Y-74930000D01*
X144654180Y-74899502D01*
X144764494Y-74840537D01*
X144861185Y-74761185D01*
X144940537Y-74664494D01*
X144999502Y-74554180D01*
X145035812Y-74434482D01*
X145048072Y-74310000D01*
X145048072Y-73010000D01*
X145035812Y-72885518D01*
X144999502Y-72765820D01*
X144940537Y-72655506D01*
X144861185Y-72558815D01*
X144764494Y-72479463D01*
X144654180Y-72420498D01*
X144534482Y-72384188D01*
X144410000Y-72371928D01*
X142610000Y-72371928D01*
X142485518Y-72384188D01*
X142365820Y-72420498D01*
X142255506Y-72479463D01*
X142158815Y-72558815D01*
X142079463Y-72655506D01*
X142020498Y-72765820D01*
X142017713Y-72775000D01*
X141013469Y-72775000D01*
X140970000Y-72770719D01*
X140926531Y-72775000D01*
X140926523Y-72775000D01*
X140796510Y-72787805D01*
X140629686Y-72838411D01*
X140475941Y-72920589D01*
X140374953Y-73003468D01*
X140374951Y-73003470D01*
X140341183Y-73031183D01*
X140313470Y-73064951D01*
X139739951Y-73638471D01*
X139706184Y-73666183D01*
X139678471Y-73699951D01*
X139678468Y-73699954D01*
X139595590Y-73800941D01*
X139513412Y-73954687D01*
X139462805Y-74121510D01*
X139452867Y-74222422D01*
X139355506Y-74274463D01*
X139258815Y-74353815D01*
X139179463Y-74450506D01*
X139120498Y-74560820D01*
X139084188Y-74680518D01*
X139071928Y-74805000D01*
X139071928Y-77805000D01*
X139076543Y-77851856D01*
X139065000Y-77850719D01*
X139021531Y-77855000D01*
X139021523Y-77855000D01*
X138891510Y-77867805D01*
X138724686Y-77918411D01*
X138570941Y-78000589D01*
X138469953Y-78083468D01*
X138469951Y-78083470D01*
X138436183Y-78111183D01*
X138408470Y-78144951D01*
X137834956Y-78718466D01*
X137801183Y-78746183D01*
X137746489Y-78812828D01*
X137735528Y-78799472D01*
X137612189Y-78698251D01*
X137471473Y-78623037D01*
X137318788Y-78576720D01*
X137199791Y-78565000D01*
X137199788Y-78565000D01*
X137160000Y-78561081D01*
X137120212Y-78565000D01*
X137062163Y-78565000D01*
X137055812Y-78500518D01*
X137019502Y-78380820D01*
X136960537Y-78270506D01*
X136881185Y-78173815D01*
X136784494Y-78094463D01*
X136674180Y-78035498D01*
X136565000Y-78002379D01*
X136565000Y-77940512D01*
X138339619Y-76165894D01*
X138370528Y-76140528D01*
X138471749Y-76017189D01*
X138484397Y-75993527D01*
X138546963Y-75876474D01*
X138591555Y-75729473D01*
X138593280Y-75723788D01*
X138599146Y-75664230D01*
X138664180Y-75644502D01*
X138774494Y-75585537D01*
X138871185Y-75506185D01*
X138950537Y-75409494D01*
X139009502Y-75299180D01*
X139045812Y-75179482D01*
X139058072Y-75055000D01*
X139058072Y-73013506D01*
X140295050Y-71776529D01*
X140328817Y-71748817D01*
X140368466Y-71700506D01*
X140439411Y-71614059D01*
X140444886Y-71603815D01*
X140521589Y-71460313D01*
X140572195Y-71293490D01*
X140585000Y-71163477D01*
X140585000Y-71163469D01*
X140589281Y-71120000D01*
X140585000Y-71076531D01*
X140585000Y-70650195D01*
X140774125Y-70523825D01*
X141008825Y-70289125D01*
X141193228Y-70013147D01*
X141320246Y-69706496D01*
X141385000Y-69380958D01*
X141385000Y-69049042D01*
X141320246Y-68723504D01*
X141193228Y-68416853D01*
X141008825Y-68140875D01*
X140774125Y-67906175D01*
X140585000Y-67779805D01*
X140585000Y-65570195D01*
X140774125Y-65443825D01*
X141008825Y-65209125D01*
X141193228Y-64933147D01*
X141320246Y-64626496D01*
X141385000Y-64300958D01*
X141385000Y-63969042D01*
X141320246Y-63643504D01*
X141193228Y-63336853D01*
X141008825Y-63060875D01*
X140774125Y-62826175D01*
X140498147Y-62641772D01*
X140191496Y-62514754D01*
X139865958Y-62450000D01*
X139534042Y-62450000D01*
X139208504Y-62514754D01*
X138901853Y-62641772D01*
X138625875Y-62826175D01*
X138430000Y-63022050D01*
X138234125Y-62826175D01*
X137958147Y-62641772D01*
X137651496Y-62514754D01*
X137325958Y-62450000D01*
X136994042Y-62450000D01*
X136668504Y-62514754D01*
X136361853Y-62641772D01*
X136085875Y-62826175D01*
X135890000Y-63022050D01*
X135694125Y-62826175D01*
X135418147Y-62641772D01*
X135111496Y-62514754D01*
X134785958Y-62450000D01*
X134454042Y-62450000D01*
X134128504Y-62514754D01*
X133821853Y-62641772D01*
X133668042Y-62744546D01*
X133660537Y-62730506D01*
X133581185Y-62633815D01*
X133484494Y-62554463D01*
X133374180Y-62495498D01*
X133254482Y-62459188D01*
X133130000Y-62446928D01*
X132365750Y-62450000D01*
X132207000Y-62608750D01*
X132207000Y-64008000D01*
X132227000Y-64008000D01*
X132227000Y-64262000D01*
X132207000Y-64262000D01*
X132207000Y-64282000D01*
X131953000Y-64282000D01*
X131953000Y-64262000D01*
X130553750Y-64262000D01*
X130395000Y-64420750D01*
X130391928Y-65185000D01*
X130404188Y-65309482D01*
X130440498Y-65429180D01*
X130499463Y-65539494D01*
X130578815Y-65636185D01*
X130675506Y-65715537D01*
X130785820Y-65774502D01*
X130836910Y-65790000D01*
X125773465Y-65790000D01*
X125729999Y-65785719D01*
X125686533Y-65790000D01*
X125686523Y-65790000D01*
X125556510Y-65802805D01*
X125389687Y-65853411D01*
X125235941Y-65935589D01*
X125235939Y-65935590D01*
X125235940Y-65935590D01*
X125134953Y-66018468D01*
X125134951Y-66018470D01*
X125101183Y-66046183D01*
X125073470Y-66079951D01*
X123864951Y-67288471D01*
X123831184Y-67316183D01*
X123803471Y-67349951D01*
X123803468Y-67349954D01*
X123720590Y-67450941D01*
X123638412Y-67604687D01*
X123587805Y-67771510D01*
X123570719Y-67945000D01*
X123575001Y-67988479D01*
X123575000Y-81871523D01*
X123575000Y-81998531D01*
X123570719Y-82042000D01*
X123575000Y-82085469D01*
X123575000Y-82593476D01*
X123575001Y-82593486D01*
X123575000Y-85768476D01*
X123575001Y-85768486D01*
X123575000Y-90126523D01*
X123570718Y-90170000D01*
X123575001Y-90213487D01*
X123575000Y-104096523D01*
X123570718Y-104140000D01*
X123575001Y-104183486D01*
X123575000Y-106948421D01*
X115697000Y-114826422D01*
X115697000Y-106791150D01*
X115730476Y-106959446D01*
X115966799Y-107529979D01*
X116309886Y-108043446D01*
X116746554Y-108480114D01*
X117260021Y-108823201D01*
X117830554Y-109059524D01*
X118436229Y-109180000D01*
X119053771Y-109180000D01*
X119659446Y-109059524D01*
X120229979Y-108823201D01*
X120743446Y-108480114D01*
X121180114Y-108043446D01*
X121523201Y-107529979D01*
X121759524Y-106959446D01*
X121880000Y-106353771D01*
X121880000Y-105736229D01*
X121759524Y-105130554D01*
X121523201Y-104560021D01*
X121180114Y-104046554D01*
X120743446Y-103609886D01*
X120229979Y-103266799D01*
X119659446Y-103030476D01*
X119053771Y-102910000D01*
X118436229Y-102910000D01*
X117830554Y-103030476D01*
X117260021Y-103266799D01*
X116746554Y-103609886D01*
X116309886Y-104046554D01*
X115966799Y-104560021D01*
X115730476Y-105130554D01*
X115697000Y-105298850D01*
X115697000Y-66151150D01*
X115730476Y-66319446D01*
X115966799Y-66889979D01*
X116309886Y-67403446D01*
X116746554Y-67840114D01*
X117260021Y-68183201D01*
X117830554Y-68419524D01*
X118436229Y-68540000D01*
X119053771Y-68540000D01*
X119659446Y-68419524D01*
X120229979Y-68183201D01*
X120743446Y-67840114D01*
X121180114Y-67403446D01*
X121523201Y-66889979D01*
X121759524Y-66319446D01*
X121880000Y-65713771D01*
X121880000Y-65096229D01*
X121759524Y-64490554D01*
X121523201Y-63920021D01*
X121180114Y-63406554D01*
X120858560Y-63085000D01*
X130391928Y-63085000D01*
X130395000Y-63849250D01*
X130553750Y-64008000D01*
X131953000Y-64008000D01*
X131953000Y-62608750D01*
X131794250Y-62450000D01*
X131030000Y-62446928D01*
X130905518Y-62459188D01*
X130785820Y-62495498D01*
X130675506Y-62554463D01*
X130578815Y-62633815D01*
X130499463Y-62730506D01*
X130440498Y-62840820D01*
X130404188Y-62960518D01*
X130391928Y-63085000D01*
X120858560Y-63085000D01*
X120743446Y-62969886D01*
X120229979Y-62626799D01*
X119659446Y-62390476D01*
X119491150Y-62357000D01*
X145288000Y-62357000D01*
X145288000Y-63224346D01*
G37*
X145288000Y-63224346D02*
X145061309Y-63182112D01*
X145001716Y-63176947D01*
X144942199Y-63170950D01*
X144932984Y-63170990D01*
X144932981Y-63170990D01*
X144624651Y-63174468D01*
X144565193Y-63180976D01*
X144505635Y-63186654D01*
X144496603Y-63188483D01*
X144194818Y-63251785D01*
X144137777Y-63269712D01*
X144080442Y-63286854D01*
X144071938Y-63290403D01*
X143788194Y-63411115D01*
X143735709Y-63439786D01*
X143682804Y-63467734D01*
X143675150Y-63472867D01*
X143420257Y-63646394D01*
X143374319Y-63684732D01*
X143327873Y-63722405D01*
X143321362Y-63728926D01*
X143105029Y-63948656D01*
X143067433Y-63995161D01*
X143029168Y-64041163D01*
X143024048Y-64048826D01*
X142854514Y-64306391D01*
X142826674Y-64359297D01*
X142798065Y-64411871D01*
X142794531Y-64420382D01*
X142678254Y-64705971D01*
X142661226Y-64763262D01*
X142643368Y-64820407D01*
X142641554Y-64829442D01*
X142582963Y-65132177D01*
X142577384Y-65191715D01*
X142570969Y-65251207D01*
X142570945Y-65260422D01*
X142572270Y-65568772D01*
X142578362Y-65628267D01*
X142583625Y-65687869D01*
X142585391Y-65696914D01*
X142646584Y-65999134D01*
X142664121Y-66056328D01*
X142680855Y-66113755D01*
X142684344Y-66122284D01*
X142803073Y-66406862D01*
X142831367Y-66459528D01*
X142858955Y-66512646D01*
X142864034Y-66520335D01*
X143035777Y-66776432D01*
X143073781Y-66822622D01*
X143111140Y-66869344D01*
X143117616Y-66875900D01*
X143335831Y-67093762D01*
X143382088Y-67131695D01*
X143427806Y-67170267D01*
X143435433Y-67175441D01*
X143691808Y-67346769D01*
X143744560Y-67374999D01*
X143796892Y-67403952D01*
X143805377Y-67407546D01*
X144090148Y-67525814D01*
X144147364Y-67543256D01*
X144204336Y-67561497D01*
X144213358Y-67563374D01*
X144515677Y-67624078D01*
X144575150Y-67630070D01*
X144634623Y-67636903D01*
X144643838Y-67636992D01*
X144952190Y-67637819D01*
X145011750Y-67632140D01*
X145071363Y-67627295D01*
X145080419Y-67625593D01*
X145288000Y-67585069D01*
X145288000Y-124983158D01*
X145259523Y-124992191D01*
X145204588Y-125015737D01*
X145149235Y-125038551D01*
X145141129Y-125042935D01*
X144884592Y-125183968D01*
X144835247Y-125217755D01*
X144785409Y-125250867D01*
X144778309Y-125256741D01*
X144554051Y-125444916D01*
X144512207Y-125487646D01*
X144469751Y-125529806D01*
X144463927Y-125536947D01*
X144280491Y-125765097D01*
X144247744Y-125815139D01*
X144214286Y-125864742D01*
X144209960Y-125872879D01*
X144074330Y-126132313D01*
X144051918Y-126187785D01*
X144028740Y-126242923D01*
X144026077Y-126251745D01*
X143943422Y-126532583D01*
X143932224Y-126591284D01*
X143920184Y-126649940D01*
X143919285Y-126659112D01*
X143892753Y-126950656D01*
X143893171Y-127010472D01*
X143892753Y-127070288D01*
X143893652Y-127079460D01*
X143924252Y-127370605D01*
X143936283Y-127429217D01*
X143947489Y-127487963D01*
X143950153Y-127496784D01*
X144036721Y-127776440D01*
X144059899Y-127831578D01*
X144082311Y-127887050D01*
X144086638Y-127895186D01*
X144225877Y-128152702D01*
X144259304Y-128202259D01*
X144292080Y-128252347D01*
X144297905Y-128259488D01*
X144484510Y-128485056D01*
X144526965Y-128527215D01*
X144568809Y-128569945D01*
X144575909Y-128575819D01*
X144802773Y-128760845D01*
X144852566Y-128793927D01*
X144901955Y-128827745D01*
X144910061Y-128832127D01*
X145168542Y-128969564D01*
X145223836Y-128992355D01*
X145278829Y-129015925D01*
X145287632Y-129018650D01*
X145288000Y-129018761D01*
X145288000Y-133858000D01*
X115697000Y-133858000D01*
X115697000Y-125838578D01*
X117225000Y-127366579D01*
X117225000Y-127678476D01*
X117225001Y-127678486D01*
X117225000Y-128929928D01*
X116360000Y-128929928D01*
X116235518Y-128942188D01*
X116115820Y-128978498D01*
X116005506Y-129037463D01*
X115908815Y-129116815D01*
X115829463Y-129213506D01*
X115770498Y-129323820D01*
X115734188Y-129443518D01*
X115721928Y-129568000D01*
X115721928Y-133068000D01*
X115734188Y-133192482D01*
X115770498Y-133312180D01*
X115829463Y-133422494D01*
X115908815Y-133519185D01*
X116005506Y-133598537D01*
X116115820Y-133657502D01*
X116235518Y-133693812D01*
X116360000Y-133706072D01*
X119860000Y-133706072D01*
X119984482Y-133693812D01*
X120104180Y-133657502D01*
X120214494Y-133598537D01*
X120311185Y-133519185D01*
X120390537Y-133422494D01*
X120449502Y-133312180D01*
X120485812Y-133192482D01*
X120498072Y-133068000D01*
X120498072Y-132987609D01*
X121699997Y-132987609D01*
X121886073Y-133328766D01*
X122303409Y-133544513D01*
X122754815Y-133674696D01*
X123222946Y-133714313D01*
X123689811Y-133661842D01*
X124137468Y-133519297D01*
X124493927Y-133328766D01*
X124680003Y-132987609D01*
X123190000Y-131497605D01*
X121699997Y-132987609D01*
X120498072Y-132987609D01*
X120498072Y-131350946D01*
X120793687Y-131350946D01*
X120846158Y-131817811D01*
X120988703Y-132265468D01*
X121179234Y-132621927D01*
X121520391Y-132808003D01*
X123010395Y-131318000D01*
X123369605Y-131318000D01*
X124859609Y-132808003D01*
X125200766Y-132621927D01*
X125416513Y-132204591D01*
X125546696Y-131753185D01*
X125586313Y-131285054D01*
X125533842Y-130818189D01*
X125391297Y-130370532D01*
X125200766Y-130014073D01*
X124859609Y-129827997D01*
X123369605Y-131318000D01*
X123010395Y-131318000D01*
X121520391Y-129827997D01*
X121179234Y-130014073D01*
X120963487Y-130431409D01*
X120833304Y-130882815D01*
X120793687Y-131350946D01*
X120498072Y-131350946D01*
X120498072Y-129648391D01*
X121699997Y-129648391D01*
X123190000Y-131138395D01*
X124680003Y-129648391D01*
X124493927Y-129307234D01*
X124076591Y-129091487D01*
X123625185Y-128961304D01*
X123157054Y-128921687D01*
X122690189Y-128974158D01*
X122242532Y-129116703D01*
X121886073Y-129307234D01*
X121699997Y-129648391D01*
X120498072Y-129648391D01*
X120498072Y-129568000D01*
X120485812Y-129443518D01*
X120449502Y-129323820D01*
X120390537Y-129213506D01*
X120311185Y-129116815D01*
X120214494Y-129037463D01*
X120104180Y-128978498D01*
X119984482Y-128942188D01*
X119860000Y-128929928D01*
X118995000Y-128929928D01*
X118995000Y-127043469D01*
X118999281Y-127000000D01*
X118995000Y-126956531D01*
X118995000Y-126956523D01*
X118982195Y-126826510D01*
X118966554Y-126774947D01*
X127254000Y-126774947D01*
X127254000Y-127225053D01*
X127341811Y-127666510D01*
X127514059Y-128082353D01*
X127764125Y-128456603D01*
X128082397Y-128774875D01*
X128456647Y-129024941D01*
X128872490Y-129197189D01*
X129313947Y-129285000D01*
X129764053Y-129285000D01*
X130205510Y-129197189D01*
X130621353Y-129024941D01*
X130995603Y-128774875D01*
X131313875Y-128456603D01*
X131563941Y-128082353D01*
X131736189Y-127666510D01*
X131824000Y-127225053D01*
X131824000Y-126774947D01*
X138686000Y-126774947D01*
X138686000Y-127225053D01*
X138773811Y-127666510D01*
X138946059Y-128082353D01*
X139196125Y-128456603D01*
X139514397Y-128774875D01*
X139888647Y-129024941D01*
X140304490Y-129197189D01*
X140745947Y-129285000D01*
X141196053Y-129285000D01*
X141637510Y-129197189D01*
X142053353Y-129024941D01*
X142427603Y-128774875D01*
X142745875Y-128456603D01*
X142995941Y-128082353D01*
X143168189Y-127666510D01*
X143256000Y-127225053D01*
X143256000Y-126774947D01*
X143168189Y-126333490D01*
X142995941Y-125917647D01*
X142745875Y-125543397D01*
X142427603Y-125225125D01*
X142053353Y-124975059D01*
X141637510Y-124802811D01*
X141196053Y-124715000D01*
X140745947Y-124715000D01*
X140304490Y-124802811D01*
X139888647Y-124975059D01*
X139514397Y-125225125D01*
X139196125Y-125543397D01*
X138946059Y-125917647D01*
X138773811Y-126333490D01*
X138686000Y-126774947D01*
X131824000Y-126774947D01*
X131736189Y-126333490D01*
X131563941Y-125917647D01*
X131313875Y-125543397D01*
X130995603Y-125225125D01*
X130621353Y-124975059D01*
X130205510Y-124802811D01*
X129764053Y-124715000D01*
X129313947Y-124715000D01*
X128872490Y-124802811D01*
X128456647Y-124975059D01*
X128082397Y-125225125D01*
X127764125Y-125543397D01*
X127514059Y-125917647D01*
X127341811Y-126333490D01*
X127254000Y-126774947D01*
X118966554Y-126774947D01*
X118931589Y-126659687D01*
X118849411Y-126505941D01*
X118785221Y-126427726D01*
X118766532Y-126404953D01*
X118766530Y-126404951D01*
X118738817Y-126371183D01*
X118705049Y-126343470D01*
X117090000Y-124728422D01*
X117090000Y-124243072D01*
X119160000Y-124243072D01*
X119284482Y-124230812D01*
X119404180Y-124194502D01*
X119514494Y-124135537D01*
X119611185Y-124056185D01*
X119690537Y-123959494D01*
X119698042Y-123945454D01*
X119851853Y-124048228D01*
X120158504Y-124175246D01*
X120484042Y-124240000D01*
X120815958Y-124240000D01*
X121141496Y-124175246D01*
X121448147Y-124048228D01*
X121724125Y-123863825D01*
X121920000Y-123667950D01*
X122115875Y-123863825D01*
X122391853Y-124048228D01*
X122698504Y-124175246D01*
X123024042Y-124240000D01*
X123355958Y-124240000D01*
X123681496Y-124175246D01*
X123988147Y-124048228D01*
X124264125Y-123863825D01*
X124498825Y-123629125D01*
X124683228Y-123353147D01*
X124810246Y-123046496D01*
X124875000Y-122720958D01*
X124875000Y-122389042D01*
X124830625Y-122165954D01*
X126801578Y-120195001D01*
X129500354Y-120195001D01*
X129479225Y-120246011D01*
X129426000Y-120513589D01*
X129426000Y-120786411D01*
X129479225Y-121053989D01*
X129583629Y-121306043D01*
X129735201Y-121532886D01*
X129928114Y-121725799D01*
X130154957Y-121877371D01*
X130407011Y-121981775D01*
X130674589Y-122035000D01*
X130947411Y-122035000D01*
X131214989Y-121981775D01*
X131467043Y-121877371D01*
X131693886Y-121725799D01*
X131886799Y-121532886D01*
X132038371Y-121306043D01*
X132081000Y-121203127D01*
X132123629Y-121306043D01*
X132275201Y-121532886D01*
X132468114Y-121725799D01*
X132694957Y-121877371D01*
X132947011Y-121981775D01*
X133214589Y-122035000D01*
X133487411Y-122035000D01*
X133754989Y-121981775D01*
X134007043Y-121877371D01*
X134233886Y-121725799D01*
X134426799Y-121532886D01*
X134578371Y-121306043D01*
X134621000Y-121203127D01*
X134663629Y-121306043D01*
X134815201Y-121532886D01*
X135008114Y-121725799D01*
X135234957Y-121877371D01*
X135487011Y-121981775D01*
X135754589Y-122035000D01*
X136027411Y-122035000D01*
X136294989Y-121981775D01*
X136547043Y-121877371D01*
X136773886Y-121725799D01*
X136966799Y-121532886D01*
X137118371Y-121306043D01*
X137161000Y-121203127D01*
X137203629Y-121306043D01*
X137355201Y-121532886D01*
X137548114Y-121725799D01*
X137774957Y-121877371D01*
X138027011Y-121981775D01*
X138294589Y-122035000D01*
X138567411Y-122035000D01*
X138834989Y-121981775D01*
X139087043Y-121877371D01*
X139313886Y-121725799D01*
X139506799Y-121532886D01*
X139658371Y-121306043D01*
X139762775Y-121053989D01*
X139816000Y-120786411D01*
X139816000Y-120513589D01*
X139762775Y-120246011D01*
X139658371Y-119993957D01*
X139506799Y-119767114D01*
X139313886Y-119574201D01*
X139087043Y-119422629D01*
X138834989Y-119318225D01*
X138567411Y-119265000D01*
X138294589Y-119265000D01*
X138027011Y-119318225D01*
X137774957Y-119422629D01*
X137548114Y-119574201D01*
X137355201Y-119767114D01*
X137203629Y-119993957D01*
X137161000Y-120096873D01*
X137118371Y-119993957D01*
X136966799Y-119767114D01*
X136773886Y-119574201D01*
X136547043Y-119422629D01*
X136294989Y-119318225D01*
X136027411Y-119265000D01*
X135754589Y-119265000D01*
X135487011Y-119318225D01*
X135234957Y-119422629D01*
X135008114Y-119574201D01*
X134815201Y-119767114D01*
X134663629Y-119993957D01*
X134621000Y-120096873D01*
X134578371Y-119993957D01*
X134426799Y-119767114D01*
X134321132Y-119661447D01*
X134487578Y-119495000D01*
X134757411Y-119495000D01*
X135024989Y-119441775D01*
X135277043Y-119337371D01*
X135503886Y-119185799D01*
X135696799Y-118992886D01*
X135848371Y-118766043D01*
X135891000Y-118663127D01*
X135933629Y-118766043D01*
X136085201Y-118992886D01*
X136278114Y-119185799D01*
X136504957Y-119337371D01*
X136757011Y-119441775D01*
X137024589Y-119495000D01*
X137297411Y-119495000D01*
X137564989Y-119441775D01*
X137817043Y-119337371D01*
X138043886Y-119185799D01*
X138236799Y-118992886D01*
X138388371Y-118766043D01*
X138431000Y-118663127D01*
X138473629Y-118766043D01*
X138625201Y-118992886D01*
X138818114Y-119185799D01*
X139044957Y-119337371D01*
X139297011Y-119441775D01*
X139564589Y-119495000D01*
X139837411Y-119495000D01*
X140104989Y-119441775D01*
X140357043Y-119337371D01*
X140583886Y-119185799D01*
X140776799Y-118992886D01*
X140928371Y-118766043D01*
X141032775Y-118513989D01*
X141086000Y-118246411D01*
X141086000Y-117973589D01*
X141032775Y-117706011D01*
X140928371Y-117453957D01*
X140776799Y-117227114D01*
X140583886Y-117034201D01*
X140357043Y-116882629D01*
X140104989Y-116778225D01*
X139837411Y-116725000D01*
X139564589Y-116725000D01*
X139297011Y-116778225D01*
X139044957Y-116882629D01*
X138818114Y-117034201D01*
X138625201Y-117227114D01*
X138473629Y-117453957D01*
X138431000Y-117556873D01*
X138388371Y-117453957D01*
X138236799Y-117227114D01*
X138043886Y-117034201D01*
X137817043Y-116882629D01*
X137564989Y-116778225D01*
X137297411Y-116725000D01*
X137024589Y-116725000D01*
X136757011Y-116778225D01*
X136504957Y-116882629D01*
X136278114Y-117034201D01*
X136085201Y-117227114D01*
X135933629Y-117453957D01*
X135891000Y-117556873D01*
X135848371Y-117453957D01*
X135696799Y-117227114D01*
X135503886Y-117034201D01*
X135277043Y-116882629D01*
X135024989Y-116778225D01*
X134757411Y-116725000D01*
X134484589Y-116725000D01*
X134217011Y-116778225D01*
X133964957Y-116882629D01*
X133738114Y-117034201D01*
X133545201Y-117227114D01*
X133393629Y-117453957D01*
X133351000Y-117556873D01*
X133308371Y-117453957D01*
X133156799Y-117227114D01*
X132963886Y-117034201D01*
X132737043Y-116882629D01*
X132484989Y-116778225D01*
X132217411Y-116725000D01*
X131944589Y-116725000D01*
X131677011Y-116778225D01*
X131424957Y-116882629D01*
X131198114Y-117034201D01*
X131005201Y-117227114D01*
X130853629Y-117453957D01*
X130749225Y-117706011D01*
X130696000Y-117973589D01*
X130696000Y-118246411D01*
X130731524Y-118425001D01*
X126478468Y-118425001D01*
X126434999Y-118420720D01*
X126391530Y-118425001D01*
X126391522Y-118425001D01*
X126261509Y-118437806D01*
X126094685Y-118488412D01*
X125940940Y-118570590D01*
X125839952Y-118653469D01*
X125839950Y-118653471D01*
X125806182Y-118681184D01*
X125778469Y-118714952D01*
X124075000Y-120418422D01*
X124075000Y-118910195D01*
X124264125Y-118783825D01*
X124498825Y-118549125D01*
X124683228Y-118273147D01*
X124810246Y-117966496D01*
X124875000Y-117640958D01*
X124875000Y-117309042D01*
X124810246Y-116983504D01*
X124683228Y-116676853D01*
X124498825Y-116400875D01*
X124264125Y-116166175D01*
X123988147Y-115981772D01*
X123681496Y-115854754D01*
X123355958Y-115790000D01*
X123024042Y-115790000D01*
X122698504Y-115854754D01*
X122391853Y-115981772D01*
X122115875Y-116166175D01*
X121920000Y-116362050D01*
X121724125Y-116166175D01*
X121448147Y-115981772D01*
X121141496Y-115854754D01*
X120815958Y-115790000D01*
X120484042Y-115790000D01*
X120158504Y-115854754D01*
X119851853Y-115981772D01*
X119698042Y-116084546D01*
X119690537Y-116070506D01*
X119611185Y-115973815D01*
X119514494Y-115894463D01*
X119404180Y-115835498D01*
X119284482Y-115799188D01*
X119160000Y-115786928D01*
X117239650Y-115786928D01*
X125055051Y-107971528D01*
X125088817Y-107943817D01*
X125199411Y-107809059D01*
X125281589Y-107655313D01*
X125332195Y-107488490D01*
X125345000Y-107358477D01*
X125345000Y-107358469D01*
X125349281Y-107315000D01*
X125345000Y-107271531D01*
X125345000Y-105025000D01*
X126142713Y-105025000D01*
X126145498Y-105034180D01*
X126204463Y-105144494D01*
X126283815Y-105241185D01*
X126380506Y-105320537D01*
X126490820Y-105379502D01*
X126591358Y-105410000D01*
X126490820Y-105440498D01*
X126380506Y-105499463D01*
X126283815Y-105578815D01*
X126204463Y-105675506D01*
X126145498Y-105785820D01*
X126109188Y-105905518D01*
X126096928Y-106030000D01*
X126096928Y-107330000D01*
X126109188Y-107454482D01*
X126145498Y-107574180D01*
X126204463Y-107684494D01*
X126283815Y-107781185D01*
X126380506Y-107860537D01*
X126490820Y-107919502D01*
X126610518Y-107955812D01*
X126735000Y-107968072D01*
X126750001Y-107968072D01*
X126750000Y-109836928D01*
X126735000Y-109836928D01*
X126610518Y-109849188D01*
X126490820Y-109885498D01*
X126380506Y-109944463D01*
X126283815Y-110023815D01*
X126204463Y-110120506D01*
X126145498Y-110230820D01*
X126109188Y-110350518D01*
X126096928Y-110475000D01*
X126096928Y-111775000D01*
X126109188Y-111899482D01*
X126145498Y-112019180D01*
X126204463Y-112129494D01*
X126283815Y-112226185D01*
X126380506Y-112305537D01*
X126490820Y-112364502D01*
X126591358Y-112395000D01*
X126490820Y-112425498D01*
X126380506Y-112484463D01*
X126283815Y-112563815D01*
X126204463Y-112660506D01*
X126145498Y-112770820D01*
X126109188Y-112890518D01*
X126096928Y-113015000D01*
X126096928Y-114315000D01*
X126109188Y-114439482D01*
X126145498Y-114559180D01*
X126204463Y-114669494D01*
X126283815Y-114766185D01*
X126380506Y-114845537D01*
X126490820Y-114904502D01*
X126610518Y-114940812D01*
X126735000Y-114953072D01*
X128535000Y-114953072D01*
X128659482Y-114940812D01*
X128779180Y-114904502D01*
X128889494Y-114845537D01*
X128986185Y-114766185D01*
X129065537Y-114669494D01*
X129124502Y-114559180D01*
X129127287Y-114550000D01*
X130131531Y-114550000D01*
X130175000Y-114554281D01*
X130218469Y-114550000D01*
X130218477Y-114550000D01*
X130348490Y-114537195D01*
X130515313Y-114486589D01*
X130669059Y-114404411D01*
X130803817Y-114293817D01*
X130831534Y-114260044D01*
X131405049Y-113686530D01*
X131438817Y-113658817D01*
X131466533Y-113625046D01*
X131549411Y-113524059D01*
X131631589Y-113370314D01*
X131678822Y-113214611D01*
X131679180Y-113214502D01*
X131789494Y-113155537D01*
X131886185Y-113076185D01*
X131965537Y-112979494D01*
X132024502Y-112869180D01*
X132060812Y-112749482D01*
X132073072Y-112625000D01*
X132073072Y-110670861D01*
X132224744Y-110772205D01*
X132413102Y-110850226D01*
X132613061Y-110890000D01*
X132816939Y-110890000D01*
X133016898Y-110850226D01*
X133205256Y-110772205D01*
X133253454Y-110740000D01*
X133941531Y-110740000D01*
X133985000Y-110744281D01*
X134028469Y-110740000D01*
X134028477Y-110740000D01*
X134158490Y-110727195D01*
X134319765Y-110678272D01*
X134259774Y-110823102D01*
X134220000Y-111023061D01*
X134220000Y-111226939D01*
X134259774Y-111426898D01*
X134337795Y-111615256D01*
X134451063Y-111784774D01*
X134595226Y-111928937D01*
X134764744Y-112042205D01*
X134849953Y-112077500D01*
X134764744Y-112112795D01*
X134595226Y-112226063D01*
X134593820Y-112227469D01*
X134564502Y-112130820D01*
X134505537Y-112020506D01*
X134426185Y-111923815D01*
X134329494Y-111844463D01*
X134219180Y-111785498D01*
X134099482Y-111749188D01*
X133975000Y-111736928D01*
X132725000Y-111736928D01*
X132600518Y-111749188D01*
X132480820Y-111785498D01*
X132370506Y-111844463D01*
X132273815Y-111923815D01*
X132194463Y-112020506D01*
X132135498Y-112130820D01*
X132099188Y-112250518D01*
X132086928Y-112375000D01*
X132086928Y-115375000D01*
X132099188Y-115499482D01*
X132135498Y-115619180D01*
X132194463Y-115729494D01*
X132273815Y-115826185D01*
X132370506Y-115905537D01*
X132480820Y-115964502D01*
X132600518Y-116000812D01*
X132725000Y-116013072D01*
X133975000Y-116013072D01*
X134099482Y-116000812D01*
X134219180Y-115964502D01*
X134329494Y-115905537D01*
X134426185Y-115826185D01*
X134505537Y-115729494D01*
X134564502Y-115619180D01*
X134600812Y-115499482D01*
X134613072Y-115375000D01*
X134613072Y-114760000D01*
X135636523Y-114760000D01*
X135680000Y-114764282D01*
X135723476Y-114760000D01*
X138436928Y-114760000D01*
X138436928Y-115270000D01*
X138449188Y-115394482D01*
X138485498Y-115514180D01*
X138544463Y-115624494D01*
X138623815Y-115721185D01*
X138720506Y-115800537D01*
X138830820Y-115859502D01*
X138950518Y-115895812D01*
X139075000Y-115908072D01*
X140325000Y-115908072D01*
X140449482Y-115895812D01*
X140569180Y-115859502D01*
X140679494Y-115800537D01*
X140776185Y-115721185D01*
X140855537Y-115624494D01*
X140914502Y-115514180D01*
X140950812Y-115394482D01*
X140963072Y-115270000D01*
X140963072Y-113792000D01*
X141336928Y-113792000D01*
X141336928Y-114315000D01*
X141349188Y-114439482D01*
X141385498Y-114559180D01*
X141444463Y-114669494D01*
X141523815Y-114766185D01*
X141620506Y-114845537D01*
X141730820Y-114904502D01*
X141850518Y-114940812D01*
X141975000Y-114953072D01*
X142748000Y-114953072D01*
X142748000Y-113792000D01*
X143002000Y-113792000D01*
X143002000Y-114953072D01*
X143775000Y-114953072D01*
X143899482Y-114940812D01*
X144019180Y-114904502D01*
X144129494Y-114845537D01*
X144226185Y-114766185D01*
X144305537Y-114669494D01*
X144364502Y-114559180D01*
X144400812Y-114439482D01*
X144413072Y-114315000D01*
X144413072Y-113792000D01*
X143002000Y-113792000D01*
X142748000Y-113792000D01*
X141336928Y-113792000D01*
X140963072Y-113792000D01*
X140963072Y-112270000D01*
X140950812Y-112145518D01*
X140914502Y-112025820D01*
X140855537Y-111915506D01*
X140776185Y-111818815D01*
X140679494Y-111739463D01*
X140569180Y-111680498D01*
X140449482Y-111644188D01*
X140325000Y-111631928D01*
X139075000Y-111631928D01*
X138950518Y-111644188D01*
X138830820Y-111680498D01*
X138720506Y-111739463D01*
X138623815Y-111818815D01*
X138544463Y-111915506D01*
X138485498Y-112025820D01*
X138449188Y-112145518D01*
X138436928Y-112270000D01*
X138436928Y-112990000D01*
X138213259Y-112990000D01*
X138236185Y-112971185D01*
X138315537Y-112874494D01*
X138374502Y-112764180D01*
X138410812Y-112644482D01*
X138423072Y-112520000D01*
X138423072Y-109520000D01*
X138410812Y-109395518D01*
X138374502Y-109275820D01*
X138315537Y-109165506D01*
X138236185Y-109068815D01*
X138139494Y-108989463D01*
X138029180Y-108930498D01*
X137909482Y-108894188D01*
X137785000Y-108881928D01*
X136535000Y-108881928D01*
X136410518Y-108894188D01*
X136290820Y-108930498D01*
X136180506Y-108989463D01*
X136083815Y-109068815D01*
X136004463Y-109165506D01*
X135945498Y-109275820D01*
X135909188Y-109395518D01*
X135896928Y-109520000D01*
X135896928Y-110135000D01*
X135569515Y-110135000D01*
X135556898Y-110129774D01*
X135356939Y-110090000D01*
X135153061Y-110090000D01*
X134963965Y-110127613D01*
X137225050Y-107866529D01*
X137258817Y-107838817D01*
X137369411Y-107704059D01*
X137387616Y-107670000D01*
X138436928Y-107670000D01*
X138436928Y-108285000D01*
X138449188Y-108409482D01*
X138485498Y-108529180D01*
X138544463Y-108639494D01*
X138623815Y-108736185D01*
X138720506Y-108815537D01*
X138830820Y-108874502D01*
X138950518Y-108910812D01*
X139075000Y-108923072D01*
X140325000Y-108923072D01*
X140449482Y-108910812D01*
X140569180Y-108874502D01*
X140679494Y-108815537D01*
X140776185Y-108736185D01*
X140855537Y-108639494D01*
X140914502Y-108529180D01*
X140950812Y-108409482D01*
X140963072Y-108285000D01*
X140963072Y-105285000D01*
X140950812Y-105160518D01*
X140914502Y-105040820D01*
X140855537Y-104930506D01*
X140846915Y-104920000D01*
X141350862Y-104920000D01*
X141385498Y-105034180D01*
X141444463Y-105144494D01*
X141523815Y-105241185D01*
X141620506Y-105320537D01*
X141730820Y-105379502D01*
X141831358Y-105410000D01*
X141730820Y-105440498D01*
X141620506Y-105499463D01*
X141523815Y-105578815D01*
X141444463Y-105675506D01*
X141385498Y-105785820D01*
X141349188Y-105905518D01*
X141336928Y-106030000D01*
X141336928Y-107330000D01*
X141349188Y-107454482D01*
X141385498Y-107574180D01*
X141444463Y-107684494D01*
X141523815Y-107781185D01*
X141620506Y-107860537D01*
X141730820Y-107919502D01*
X141850518Y-107955812D01*
X141975000Y-107968072D01*
X141990001Y-107968072D01*
X141990000Y-109836928D01*
X141975000Y-109836928D01*
X141850518Y-109849188D01*
X141730820Y-109885498D01*
X141620506Y-109944463D01*
X141523815Y-110023815D01*
X141444463Y-110120506D01*
X141385498Y-110230820D01*
X141349188Y-110350518D01*
X141336928Y-110475000D01*
X141336928Y-111775000D01*
X141349188Y-111899482D01*
X141385498Y-112019180D01*
X141444463Y-112129494D01*
X141523815Y-112226185D01*
X141620506Y-112305537D01*
X141730820Y-112364502D01*
X141831358Y-112395000D01*
X141730820Y-112425498D01*
X141620506Y-112484463D01*
X141523815Y-112563815D01*
X141444463Y-112660506D01*
X141385498Y-112770820D01*
X141349188Y-112890518D01*
X141336928Y-113015000D01*
X141336928Y-113538000D01*
X142748000Y-113538000D01*
X142748000Y-113518000D01*
X143002000Y-113518000D01*
X143002000Y-113538000D01*
X144413072Y-113538000D01*
X144413072Y-113015000D01*
X144400812Y-112890518D01*
X144364502Y-112770820D01*
X144305537Y-112660506D01*
X144226185Y-112563815D01*
X144129494Y-112484463D01*
X144019180Y-112425498D01*
X143918642Y-112395000D01*
X144019180Y-112364502D01*
X144129494Y-112305537D01*
X144226185Y-112226185D01*
X144305537Y-112129494D01*
X144364502Y-112019180D01*
X144400812Y-111899482D01*
X144413072Y-111775000D01*
X144413072Y-110475000D01*
X144400812Y-110350518D01*
X144364502Y-110230820D01*
X144305537Y-110120506D01*
X144226185Y-110023815D01*
X144129494Y-109944463D01*
X144019180Y-109885498D01*
X143899482Y-109849188D01*
X143775000Y-109836928D01*
X143760000Y-109836928D01*
X143760000Y-107968072D01*
X143775000Y-107968072D01*
X143899482Y-107955812D01*
X144019180Y-107919502D01*
X144129494Y-107860537D01*
X144226185Y-107781185D01*
X144305537Y-107684494D01*
X144364502Y-107574180D01*
X144400812Y-107454482D01*
X144413072Y-107330000D01*
X144413072Y-106030000D01*
X144400812Y-105905518D01*
X144364502Y-105785820D01*
X144305537Y-105675506D01*
X144226185Y-105578815D01*
X144129494Y-105499463D01*
X144019180Y-105440498D01*
X143918642Y-105410000D01*
X144019180Y-105379502D01*
X144129494Y-105320537D01*
X144226185Y-105241185D01*
X144305537Y-105144494D01*
X144364502Y-105034180D01*
X144400812Y-104914482D01*
X144413072Y-104790000D01*
X144413072Y-103490000D01*
X144400812Y-103365518D01*
X144364502Y-103245820D01*
X144305537Y-103135506D01*
X144226185Y-103038815D01*
X144129494Y-102959463D01*
X144019180Y-102900498D01*
X143899482Y-102864188D01*
X143775000Y-102851928D01*
X141975000Y-102851928D01*
X141850518Y-102864188D01*
X141730820Y-102900498D01*
X141620506Y-102959463D01*
X141523815Y-103038815D01*
X141444463Y-103135506D01*
X141436716Y-103150000D01*
X138423072Y-103150000D01*
X138423072Y-102535000D01*
X138410812Y-102410518D01*
X138374502Y-102290820D01*
X138315537Y-102180506D01*
X138236185Y-102083815D01*
X138139494Y-102004463D01*
X138029180Y-101945498D01*
X137909482Y-101909188D01*
X137785000Y-101896928D01*
X136535000Y-101896928D01*
X136410518Y-101909188D01*
X136290820Y-101945498D01*
X136180506Y-102004463D01*
X136083815Y-102083815D01*
X136004463Y-102180506D01*
X135945498Y-102290820D01*
X135909188Y-102410518D01*
X135896928Y-102535000D01*
X135896928Y-103324139D01*
X135745256Y-103222795D01*
X135556898Y-103144774D01*
X135356939Y-103105000D01*
X135153061Y-103105000D01*
X134953102Y-103144774D01*
X134940485Y-103150000D01*
X132073072Y-103150000D01*
X132073072Y-102535000D01*
X132060812Y-102410518D01*
X132024502Y-102290820D01*
X131965537Y-102180506D01*
X131886185Y-102083815D01*
X131789494Y-102004463D01*
X131679180Y-101945498D01*
X131559482Y-101909188D01*
X131435000Y-101896928D01*
X130185000Y-101896928D01*
X130060518Y-101909188D01*
X129940820Y-101945498D01*
X129830506Y-102004463D01*
X129733815Y-102083815D01*
X129654463Y-102180506D01*
X129595498Y-102290820D01*
X129559188Y-102410518D01*
X129546928Y-102535000D01*
X129546928Y-105535000D01*
X129559188Y-105659482D01*
X129595498Y-105779180D01*
X129654463Y-105889494D01*
X129733815Y-105986185D01*
X129830506Y-106065537D01*
X129940820Y-106124502D01*
X130060518Y-106160812D01*
X130185000Y-106173072D01*
X131435000Y-106173072D01*
X131559482Y-106160812D01*
X131679180Y-106124502D01*
X131789494Y-106065537D01*
X131886185Y-105986185D01*
X131965537Y-105889494D01*
X132024502Y-105779180D01*
X132060812Y-105659482D01*
X132073072Y-105535000D01*
X132073072Y-104920000D01*
X132203085Y-104920000D01*
X132194463Y-104930506D01*
X132135498Y-105040820D01*
X132099188Y-105160518D01*
X132086928Y-105285000D01*
X132086928Y-106430000D01*
X131983454Y-106430000D01*
X131935256Y-106397795D01*
X131746898Y-106319774D01*
X131546939Y-106280000D01*
X131343061Y-106280000D01*
X131143102Y-106319774D01*
X130954744Y-106397795D01*
X130785226Y-106511063D01*
X130641063Y-106655226D01*
X130527795Y-106824744D01*
X130449774Y-107013102D01*
X130410000Y-107213061D01*
X130410000Y-107416939D01*
X130449774Y-107616898D01*
X130527795Y-107805256D01*
X130641063Y-107974774D01*
X130785226Y-108118937D01*
X130954744Y-108232205D01*
X131143102Y-108310226D01*
X131343061Y-108350000D01*
X131546939Y-108350000D01*
X131746898Y-108310226D01*
X131935256Y-108232205D01*
X131983454Y-108200000D01*
X132086928Y-108200000D01*
X132086928Y-108285000D01*
X132099188Y-108409482D01*
X132135498Y-108529180D01*
X132194463Y-108639494D01*
X132273815Y-108736185D01*
X132370506Y-108815537D01*
X132442373Y-108853952D01*
X132413102Y-108859774D01*
X132224744Y-108937795D01*
X132055226Y-109051063D01*
X131911063Y-109195226D01*
X131907784Y-109200133D01*
X131886185Y-109173815D01*
X131789494Y-109094463D01*
X131679180Y-109035498D01*
X131559482Y-108999188D01*
X131435000Y-108986928D01*
X130185000Y-108986928D01*
X130060518Y-108999188D01*
X129940820Y-109035498D01*
X129830506Y-109094463D01*
X129733815Y-109173815D01*
X129654463Y-109270506D01*
X129595498Y-109380820D01*
X129559188Y-109500518D01*
X129546928Y-109625000D01*
X129546928Y-112625000D01*
X129559188Y-112749482D01*
X129568446Y-112780000D01*
X129127287Y-112780000D01*
X129124502Y-112770820D01*
X129065537Y-112660506D01*
X128986185Y-112563815D01*
X128889494Y-112484463D01*
X128779180Y-112425498D01*
X128678642Y-112395000D01*
X128779180Y-112364502D01*
X128889494Y-112305537D01*
X128986185Y-112226185D01*
X129065537Y-112129494D01*
X129124502Y-112019180D01*
X129160812Y-111899482D01*
X129173072Y-111775000D01*
X129173072Y-110475000D01*
X129160812Y-110350518D01*
X129124502Y-110230820D01*
X129065537Y-110120506D01*
X128986185Y-110023815D01*
X128889494Y-109944463D01*
X128779180Y-109885498D01*
X128659482Y-109849188D01*
X128535000Y-109836928D01*
X128520000Y-109836928D01*
X128520000Y-107968072D01*
X128535000Y-107968072D01*
X128659482Y-107955812D01*
X128779180Y-107919502D01*
X128889494Y-107860537D01*
X128986185Y-107781185D01*
X129065537Y-107684494D01*
X129124502Y-107574180D01*
X129160812Y-107454482D01*
X129173072Y-107330000D01*
X129173072Y-106030000D01*
X129160812Y-105905518D01*
X129124502Y-105785820D01*
X129065537Y-105675506D01*
X128986185Y-105578815D01*
X128889494Y-105499463D01*
X128779180Y-105440498D01*
X128678642Y-105410000D01*
X128779180Y-105379502D01*
X128889494Y-105320537D01*
X128986185Y-105241185D01*
X129065537Y-105144494D01*
X129124502Y-105034180D01*
X129160812Y-104914482D01*
X129173072Y-104790000D01*
X129173072Y-103490000D01*
X129160812Y-103365518D01*
X129124502Y-103245820D01*
X129065537Y-103135506D01*
X128986185Y-103038815D01*
X128889494Y-102959463D01*
X128779180Y-102900498D01*
X128659482Y-102864188D01*
X128535000Y-102851928D01*
X126735000Y-102851928D01*
X126610518Y-102864188D01*
X126490820Y-102900498D01*
X126380506Y-102959463D01*
X126283815Y-103038815D01*
X126204463Y-103135506D01*
X126145498Y-103245820D01*
X126142713Y-103255000D01*
X125345000Y-103255000D01*
X125345000Y-91055000D01*
X126142713Y-91055000D01*
X126145498Y-91064180D01*
X126204463Y-91174494D01*
X126283815Y-91271185D01*
X126380506Y-91350537D01*
X126490820Y-91409502D01*
X126591358Y-91440000D01*
X126490820Y-91470498D01*
X126380506Y-91529463D01*
X126283815Y-91608815D01*
X126204463Y-91705506D01*
X126145498Y-91815820D01*
X126109188Y-91935518D01*
X126096928Y-92060000D01*
X126096928Y-93360000D01*
X126109188Y-93484482D01*
X126145498Y-93604180D01*
X126204463Y-93714494D01*
X126283815Y-93811185D01*
X126380506Y-93890537D01*
X126490820Y-93949502D01*
X126610518Y-93985812D01*
X126735000Y-93998072D01*
X126750001Y-93998072D01*
X126750000Y-95866928D01*
X126735000Y-95866928D01*
X126610518Y-95879188D01*
X126490820Y-95915498D01*
X126380506Y-95974463D01*
X126283815Y-96053815D01*
X126204463Y-96150506D01*
X126145498Y-96260820D01*
X126109188Y-96380518D01*
X126096928Y-96505000D01*
X126096928Y-97805000D01*
X126109188Y-97929482D01*
X126145498Y-98049180D01*
X126204463Y-98159494D01*
X126283815Y-98256185D01*
X126380506Y-98335537D01*
X126490820Y-98394502D01*
X126591358Y-98425000D01*
X126490820Y-98455498D01*
X126380506Y-98514463D01*
X126283815Y-98593815D01*
X126204463Y-98690506D01*
X126145498Y-98800820D01*
X126109188Y-98920518D01*
X126096928Y-99045000D01*
X126096928Y-100345000D01*
X126109188Y-100469482D01*
X126145498Y-100589180D01*
X126204463Y-100699494D01*
X126283815Y-100796185D01*
X126380506Y-100875537D01*
X126490820Y-100934502D01*
X126610518Y-100970812D01*
X126735000Y-100983072D01*
X128535000Y-100983072D01*
X128659482Y-100970812D01*
X128779180Y-100934502D01*
X128889494Y-100875537D01*
X128986185Y-100796185D01*
X129065537Y-100699494D01*
X129124502Y-100589180D01*
X129127287Y-100580000D01*
X130131531Y-100580000D01*
X130175000Y-100584281D01*
X130218469Y-100580000D01*
X130218477Y-100580000D01*
X130348490Y-100567195D01*
X130515313Y-100516589D01*
X130669059Y-100434411D01*
X130803817Y-100323817D01*
X130831534Y-100290044D01*
X131405050Y-99716529D01*
X131438817Y-99688817D01*
X131489952Y-99626510D01*
X131549411Y-99554059D01*
X131631589Y-99400314D01*
X131682195Y-99233490D01*
X131686668Y-99188072D01*
X131692134Y-99132578D01*
X131789494Y-99080537D01*
X131886185Y-99001185D01*
X131965537Y-98904494D01*
X132024502Y-98794180D01*
X132060812Y-98674482D01*
X132073072Y-98550000D01*
X132073072Y-96494650D01*
X132465001Y-96886580D01*
X132465001Y-97718954D01*
X132370506Y-97769463D01*
X132273815Y-97848815D01*
X132194463Y-97945506D01*
X132135498Y-98055820D01*
X132099188Y-98175518D01*
X132086928Y-98300000D01*
X132086928Y-101300000D01*
X132099188Y-101424482D01*
X132135498Y-101544180D01*
X132194463Y-101654494D01*
X132273815Y-101751185D01*
X132370506Y-101830537D01*
X132480820Y-101889502D01*
X132600518Y-101925812D01*
X132725000Y-101938072D01*
X133975000Y-101938072D01*
X134099482Y-101925812D01*
X134219180Y-101889502D01*
X134329494Y-101830537D01*
X134426185Y-101751185D01*
X134505537Y-101654494D01*
X134564502Y-101544180D01*
X134600812Y-101424482D01*
X134613072Y-101300000D01*
X134613072Y-100685000D01*
X138436928Y-100685000D01*
X138436928Y-101300000D01*
X138449188Y-101424482D01*
X138485498Y-101544180D01*
X138544463Y-101654494D01*
X138623815Y-101751185D01*
X138720506Y-101830537D01*
X138830820Y-101889502D01*
X138950518Y-101925812D01*
X139075000Y-101938072D01*
X140325000Y-101938072D01*
X140449482Y-101925812D01*
X140569180Y-101889502D01*
X140603644Y-101871080D01*
X140609774Y-101901898D01*
X140687795Y-102090256D01*
X140801063Y-102259774D01*
X140945226Y-102403937D01*
X141114744Y-102517205D01*
X141303102Y-102595226D01*
X141503061Y-102635000D01*
X141706939Y-102635000D01*
X141906898Y-102595226D01*
X142095256Y-102517205D01*
X142264774Y-102403937D01*
X142408937Y-102259774D01*
X142522205Y-102090256D01*
X142600226Y-101901898D01*
X142640000Y-101701939D01*
X142640000Y-101498061D01*
X142600226Y-101298102D01*
X142522205Y-101109744D01*
X142437566Y-100983072D01*
X142748000Y-100983072D01*
X142748000Y-99822000D01*
X143002000Y-99822000D01*
X143002000Y-100983072D01*
X143775000Y-100983072D01*
X143899482Y-100970812D01*
X144019180Y-100934502D01*
X144129494Y-100875537D01*
X144226185Y-100796185D01*
X144305537Y-100699494D01*
X144364502Y-100589180D01*
X144400812Y-100469482D01*
X144413072Y-100345000D01*
X144413072Y-99822000D01*
X143002000Y-99822000D01*
X142748000Y-99822000D01*
X141336928Y-99822000D01*
X141336928Y-100080349D01*
X140963072Y-99706494D01*
X140963072Y-98300000D01*
X140950812Y-98175518D01*
X140914502Y-98055820D01*
X140855537Y-97945506D01*
X140776185Y-97848815D01*
X140679494Y-97769463D01*
X140569180Y-97710498D01*
X140449482Y-97674188D01*
X140325000Y-97661928D01*
X139075000Y-97661928D01*
X138950518Y-97674188D01*
X138830820Y-97710498D01*
X138720506Y-97769463D01*
X138623815Y-97848815D01*
X138544463Y-97945506D01*
X138485498Y-98055820D01*
X138449188Y-98175518D01*
X138436928Y-98300000D01*
X138436928Y-98915000D01*
X138306915Y-98915000D01*
X138315537Y-98904494D01*
X138374502Y-98794180D01*
X138410812Y-98674482D01*
X138423072Y-98550000D01*
X138423072Y-95550000D01*
X138410812Y-95425518D01*
X138374502Y-95305820D01*
X138315537Y-95195506D01*
X138236185Y-95098815D01*
X138139494Y-95019463D01*
X138029180Y-94960498D01*
X137909482Y-94924188D01*
X137785000Y-94911928D01*
X136535000Y-94911928D01*
X136410518Y-94924188D01*
X136290820Y-94960498D01*
X136180506Y-95019463D01*
X136083815Y-95098815D01*
X136004463Y-95195506D01*
X135945498Y-95305820D01*
X135909188Y-95425518D01*
X135896928Y-95550000D01*
X135896928Y-96170377D01*
X135821510Y-96177805D01*
X135654687Y-96228411D01*
X135500941Y-96310589D01*
X135500939Y-96310590D01*
X135500940Y-96310590D01*
X135399953Y-96393468D01*
X135399951Y-96393470D01*
X135366183Y-96421183D01*
X135338470Y-96454951D01*
X135009956Y-96783465D01*
X134953102Y-96794774D01*
X134764744Y-96872795D01*
X134595226Y-96986063D01*
X134451063Y-97130226D01*
X134337795Y-97299744D01*
X134259774Y-97488102D01*
X134235000Y-97612650D01*
X134235000Y-96563465D01*
X134239281Y-96519999D01*
X134235000Y-96476533D01*
X134235000Y-96476523D01*
X134222195Y-96346510D01*
X134171589Y-96179687D01*
X134089411Y-96025941D01*
X133978817Y-95891183D01*
X133945049Y-95863470D01*
X133034650Y-94953072D01*
X133975000Y-94953072D01*
X134099482Y-94940812D01*
X134219180Y-94904502D01*
X134329494Y-94845537D01*
X134426185Y-94766185D01*
X134505537Y-94669494D01*
X134564502Y-94559180D01*
X134600812Y-94439482D01*
X134613072Y-94315000D01*
X134613072Y-93700000D01*
X136845485Y-93700000D01*
X136858102Y-93705226D01*
X137058061Y-93745000D01*
X137261939Y-93745000D01*
X137461898Y-93705226D01*
X137474515Y-93700000D01*
X138436928Y-93700000D01*
X138436928Y-94315000D01*
X138449188Y-94439482D01*
X138485498Y-94559180D01*
X138544463Y-94669494D01*
X138623815Y-94766185D01*
X138720506Y-94845537D01*
X138830820Y-94904502D01*
X138950518Y-94940812D01*
X139075000Y-94953072D01*
X140325000Y-94953072D01*
X140449482Y-94940812D01*
X140569180Y-94904502D01*
X140679494Y-94845537D01*
X140776185Y-94766185D01*
X140855537Y-94669494D01*
X140914502Y-94559180D01*
X140950812Y-94439482D01*
X140963072Y-94315000D01*
X140963072Y-91315000D01*
X140950812Y-91190518D01*
X140914502Y-91070820D01*
X140855537Y-90960506D01*
X140846915Y-90950000D01*
X141350862Y-90950000D01*
X141385498Y-91064180D01*
X141444463Y-91174494D01*
X141523815Y-91271185D01*
X141620506Y-91350537D01*
X141730820Y-91409502D01*
X141831358Y-91440000D01*
X141730820Y-91470498D01*
X141620506Y-91529463D01*
X141523815Y-91608815D01*
X141444463Y-91705506D01*
X141385498Y-91815820D01*
X141349188Y-91935518D01*
X141336928Y-92060000D01*
X141336928Y-93360000D01*
X141349188Y-93484482D01*
X141385498Y-93604180D01*
X141444463Y-93714494D01*
X141523815Y-93811185D01*
X141620506Y-93890537D01*
X141730820Y-93949502D01*
X141850518Y-93985812D01*
X141975000Y-93998072D01*
X141990001Y-93998072D01*
X141990000Y-95866928D01*
X141975000Y-95866928D01*
X141850518Y-95879188D01*
X141730820Y-95915498D01*
X141620506Y-95974463D01*
X141523815Y-96053815D01*
X141444463Y-96150506D01*
X141385498Y-96260820D01*
X141349188Y-96380518D01*
X141336928Y-96505000D01*
X141336928Y-97805000D01*
X141349188Y-97929482D01*
X141385498Y-98049180D01*
X141444463Y-98159494D01*
X141523815Y-98256185D01*
X141620506Y-98335537D01*
X141730820Y-98394502D01*
X141831358Y-98425000D01*
X141730820Y-98455498D01*
X141620506Y-98514463D01*
X141523815Y-98593815D01*
X141444463Y-98690506D01*
X141385498Y-98800820D01*
X141349188Y-98920518D01*
X141336928Y-99045000D01*
X141336928Y-99568000D01*
X142748000Y-99568000D01*
X142748000Y-99548000D01*
X143002000Y-99548000D01*
X143002000Y-99568000D01*
X144413072Y-99568000D01*
X144413072Y-99045000D01*
X144400812Y-98920518D01*
X144364502Y-98800820D01*
X144305537Y-98690506D01*
X144226185Y-98593815D01*
X144129494Y-98514463D01*
X144019180Y-98455498D01*
X143918642Y-98425000D01*
X144019180Y-98394502D01*
X144129494Y-98335537D01*
X144226185Y-98256185D01*
X144305537Y-98159494D01*
X144364502Y-98049180D01*
X144400812Y-97929482D01*
X144413072Y-97805000D01*
X144413072Y-96505000D01*
X144400812Y-96380518D01*
X144364502Y-96260820D01*
X144305537Y-96150506D01*
X144226185Y-96053815D01*
X144129494Y-95974463D01*
X144019180Y-95915498D01*
X143899482Y-95879188D01*
X143775000Y-95866928D01*
X143760000Y-95866928D01*
X143760000Y-93998072D01*
X143775000Y-93998072D01*
X143899482Y-93985812D01*
X144019180Y-93949502D01*
X144129494Y-93890537D01*
X144226185Y-93811185D01*
X144305537Y-93714494D01*
X144364502Y-93604180D01*
X144400812Y-93484482D01*
X144413072Y-93360000D01*
X144413072Y-92060000D01*
X144400812Y-91935518D01*
X144364502Y-91815820D01*
X144305537Y-91705506D01*
X144226185Y-91608815D01*
X144129494Y-91529463D01*
X144019180Y-91470498D01*
X143918642Y-91440000D01*
X144019180Y-91409502D01*
X144129494Y-91350537D01*
X144226185Y-91271185D01*
X144305537Y-91174494D01*
X144364502Y-91064180D01*
X144400812Y-90944482D01*
X144413072Y-90820000D01*
X144413072Y-89520000D01*
X144400812Y-89395518D01*
X144364502Y-89275820D01*
X144305537Y-89165506D01*
X144226185Y-89068815D01*
X144129494Y-88989463D01*
X144019180Y-88930498D01*
X143899482Y-88894188D01*
X143775000Y-88881928D01*
X141975000Y-88881928D01*
X141850518Y-88894188D01*
X141730820Y-88930498D01*
X141620506Y-88989463D01*
X141523815Y-89068815D01*
X141444463Y-89165506D01*
X141436716Y-89180000D01*
X138423072Y-89180000D01*
X138423072Y-88565000D01*
X138410812Y-88440518D01*
X138374502Y-88320820D01*
X138315537Y-88210506D01*
X138236185Y-88113815D01*
X138139494Y-88034463D01*
X138029180Y-87975498D01*
X137909482Y-87939188D01*
X137785000Y-87926928D01*
X136565000Y-87926928D01*
X136565000Y-85827621D01*
X136674180Y-85794502D01*
X136784494Y-85735537D01*
X136881185Y-85656185D01*
X136960537Y-85559494D01*
X137019502Y-85449180D01*
X137055812Y-85329482D01*
X137062163Y-85265000D01*
X137452564Y-85265000D01*
X137535820Y-85309502D01*
X137655518Y-85345812D01*
X137780000Y-85358072D01*
X139080000Y-85358072D01*
X139204482Y-85345812D01*
X139324180Y-85309502D01*
X139434494Y-85250537D01*
X139531185Y-85171185D01*
X139610537Y-85074494D01*
X139669502Y-84964180D01*
X139700000Y-84863642D01*
X139730498Y-84964180D01*
X139789463Y-85074494D01*
X139868815Y-85171185D01*
X139965506Y-85250537D01*
X140075820Y-85309502D01*
X140195518Y-85345812D01*
X140320000Y-85358072D01*
X140843000Y-85358072D01*
X140843000Y-83947000D01*
X141097000Y-83947000D01*
X141097000Y-85358072D01*
X141620000Y-85358072D01*
X141744482Y-85345812D01*
X141864180Y-85309502D01*
X141974494Y-85250537D01*
X142071185Y-85171185D01*
X142150537Y-85074494D01*
X142209502Y-84964180D01*
X142245812Y-84844482D01*
X142258072Y-84720000D01*
X142258072Y-83947000D01*
X141097000Y-83947000D01*
X140843000Y-83947000D01*
X140823000Y-83947000D01*
X140823000Y-83693000D01*
X140843000Y-83693000D01*
X140843000Y-83327308D01*
X140852523Y-83329351D01*
X141056377Y-83332413D01*
X141097000Y-83324965D01*
X141097000Y-83693000D01*
X142258072Y-83693000D01*
X142258072Y-82920000D01*
X142245812Y-82795518D01*
X142209502Y-82675820D01*
X142150537Y-82565506D01*
X142071185Y-82468815D01*
X142003356Y-82413149D01*
X142006413Y-82209623D01*
X141980870Y-82070304D01*
X142071185Y-81996185D01*
X142150537Y-81899494D01*
X142209502Y-81789180D01*
X142245812Y-81669482D01*
X142258072Y-81545000D01*
X142258072Y-80772000D01*
X141097000Y-80772000D01*
X141097000Y-81264692D01*
X141087477Y-81262649D01*
X140883623Y-81259587D01*
X140843000Y-81267035D01*
X140843000Y-80772000D01*
X140823000Y-80772000D01*
X140823000Y-80518000D01*
X140843000Y-80518000D01*
X140843000Y-80498000D01*
X141097000Y-80498000D01*
X141097000Y-80518000D01*
X142258072Y-80518000D01*
X142258072Y-79745000D01*
X142246611Y-79628630D01*
X142283469Y-79625000D01*
X142283477Y-79625000D01*
X142413490Y-79612195D01*
X142580313Y-79561589D01*
X142734059Y-79479411D01*
X142868817Y-79368817D01*
X142896534Y-79335044D01*
X144105049Y-78126530D01*
X144138817Y-78098817D01*
X144179554Y-78049180D01*
X144249410Y-77964060D01*
X144249411Y-77964059D01*
X144331589Y-77810313D01*
X144382195Y-77643490D01*
X144395000Y-77513477D01*
X144395000Y-77513467D01*
X144397501Y-77488072D01*
X144410000Y-77488072D01*
X144534482Y-77475812D01*
X144654180Y-77439502D01*
X144764494Y-77380537D01*
X144861185Y-77301185D01*
X144940537Y-77204494D01*
X144999502Y-77094180D01*
X145035812Y-76974482D01*
X145048072Y-76850000D01*
X145048072Y-75550000D01*
X145035812Y-75425518D01*
X144999502Y-75305820D01*
X144940537Y-75195506D01*
X144861185Y-75098815D01*
X144764494Y-75019463D01*
X144654180Y-74960498D01*
X144553642Y-74930000D01*
X144654180Y-74899502D01*
X144764494Y-74840537D01*
X144861185Y-74761185D01*
X144940537Y-74664494D01*
X144999502Y-74554180D01*
X145035812Y-74434482D01*
X145048072Y-74310000D01*
X145048072Y-73010000D01*
X145035812Y-72885518D01*
X144999502Y-72765820D01*
X144940537Y-72655506D01*
X144861185Y-72558815D01*
X144764494Y-72479463D01*
X144654180Y-72420498D01*
X144534482Y-72384188D01*
X144410000Y-72371928D01*
X142610000Y-72371928D01*
X142485518Y-72384188D01*
X142365820Y-72420498D01*
X142255506Y-72479463D01*
X142158815Y-72558815D01*
X142079463Y-72655506D01*
X142020498Y-72765820D01*
X142017713Y-72775000D01*
X141013469Y-72775000D01*
X140970000Y-72770719D01*
X140926531Y-72775000D01*
X140926523Y-72775000D01*
X140796510Y-72787805D01*
X140629686Y-72838411D01*
X140475941Y-72920589D01*
X140374953Y-73003468D01*
X140374951Y-73003470D01*
X140341183Y-73031183D01*
X140313470Y-73064951D01*
X139739951Y-73638471D01*
X139706184Y-73666183D01*
X139678471Y-73699951D01*
X139678468Y-73699954D01*
X139595590Y-73800941D01*
X139513412Y-73954687D01*
X139462805Y-74121510D01*
X139452867Y-74222422D01*
X139355506Y-74274463D01*
X139258815Y-74353815D01*
X139179463Y-74450506D01*
X139120498Y-74560820D01*
X139084188Y-74680518D01*
X139071928Y-74805000D01*
X139071928Y-77805000D01*
X139076543Y-77851856D01*
X139065000Y-77850719D01*
X139021531Y-77855000D01*
X139021523Y-77855000D01*
X138891510Y-77867805D01*
X138724686Y-77918411D01*
X138570941Y-78000589D01*
X138469953Y-78083468D01*
X138469951Y-78083470D01*
X138436183Y-78111183D01*
X138408470Y-78144951D01*
X137834956Y-78718466D01*
X137801183Y-78746183D01*
X137746489Y-78812828D01*
X137735528Y-78799472D01*
X137612189Y-78698251D01*
X137471473Y-78623037D01*
X137318788Y-78576720D01*
X137199791Y-78565000D01*
X137199788Y-78565000D01*
X137160000Y-78561081D01*
X137120212Y-78565000D01*
X137062163Y-78565000D01*
X137055812Y-78500518D01*
X137019502Y-78380820D01*
X136960537Y-78270506D01*
X136881185Y-78173815D01*
X136784494Y-78094463D01*
X136674180Y-78035498D01*
X136565000Y-78002379D01*
X136565000Y-77940512D01*
X138339619Y-76165894D01*
X138370528Y-76140528D01*
X138471749Y-76017189D01*
X138484397Y-75993527D01*
X138546963Y-75876474D01*
X138591555Y-75729473D01*
X138593280Y-75723788D01*
X138599146Y-75664230D01*
X138664180Y-75644502D01*
X138774494Y-75585537D01*
X138871185Y-75506185D01*
X138950537Y-75409494D01*
X139009502Y-75299180D01*
X139045812Y-75179482D01*
X139058072Y-75055000D01*
X139058072Y-73013506D01*
X140295050Y-71776529D01*
X140328817Y-71748817D01*
X140368466Y-71700506D01*
X140439411Y-71614059D01*
X140444886Y-71603815D01*
X140521589Y-71460313D01*
X140572195Y-71293490D01*
X140585000Y-71163477D01*
X140585000Y-71163469D01*
X140589281Y-71120000D01*
X140585000Y-71076531D01*
X140585000Y-70650195D01*
X140774125Y-70523825D01*
X141008825Y-70289125D01*
X141193228Y-70013147D01*
X141320246Y-69706496D01*
X141385000Y-69380958D01*
X141385000Y-69049042D01*
X141320246Y-68723504D01*
X141193228Y-68416853D01*
X141008825Y-68140875D01*
X140774125Y-67906175D01*
X140585000Y-67779805D01*
X140585000Y-65570195D01*
X140774125Y-65443825D01*
X141008825Y-65209125D01*
X141193228Y-64933147D01*
X141320246Y-64626496D01*
X141385000Y-64300958D01*
X141385000Y-63969042D01*
X141320246Y-63643504D01*
X141193228Y-63336853D01*
X141008825Y-63060875D01*
X140774125Y-62826175D01*
X140498147Y-62641772D01*
X140191496Y-62514754D01*
X139865958Y-62450000D01*
X139534042Y-62450000D01*
X139208504Y-62514754D01*
X138901853Y-62641772D01*
X138625875Y-62826175D01*
X138430000Y-63022050D01*
X138234125Y-62826175D01*
X137958147Y-62641772D01*
X137651496Y-62514754D01*
X137325958Y-62450000D01*
X136994042Y-62450000D01*
X136668504Y-62514754D01*
X136361853Y-62641772D01*
X136085875Y-62826175D01*
X135890000Y-63022050D01*
X135694125Y-62826175D01*
X135418147Y-62641772D01*
X135111496Y-62514754D01*
X134785958Y-62450000D01*
X134454042Y-62450000D01*
X134128504Y-62514754D01*
X133821853Y-62641772D01*
X133668042Y-62744546D01*
X133660537Y-62730506D01*
X133581185Y-62633815D01*
X133484494Y-62554463D01*
X133374180Y-62495498D01*
X133254482Y-62459188D01*
X133130000Y-62446928D01*
X132365750Y-62450000D01*
X132207000Y-62608750D01*
X132207000Y-64008000D01*
X132227000Y-64008000D01*
X132227000Y-64262000D01*
X132207000Y-64262000D01*
X132207000Y-64282000D01*
X131953000Y-64282000D01*
X131953000Y-64262000D01*
X130553750Y-64262000D01*
X130395000Y-64420750D01*
X130391928Y-65185000D01*
X130404188Y-65309482D01*
X130440498Y-65429180D01*
X130499463Y-65539494D01*
X130578815Y-65636185D01*
X130675506Y-65715537D01*
X130785820Y-65774502D01*
X130836910Y-65790000D01*
X125773465Y-65790000D01*
X125729999Y-65785719D01*
X125686533Y-65790000D01*
X125686523Y-65790000D01*
X125556510Y-65802805D01*
X125389687Y-65853411D01*
X125235941Y-65935589D01*
X125235939Y-65935590D01*
X125235940Y-65935590D01*
X125134953Y-66018468D01*
X125134951Y-66018470D01*
X125101183Y-66046183D01*
X125073470Y-66079951D01*
X123864951Y-67288471D01*
X123831184Y-67316183D01*
X123803471Y-67349951D01*
X123803468Y-67349954D01*
X123720590Y-67450941D01*
X123638412Y-67604687D01*
X123587805Y-67771510D01*
X123570719Y-67945000D01*
X123575001Y-67988479D01*
X123575000Y-81871523D01*
X123575000Y-81998531D01*
X123570719Y-82042000D01*
X123575000Y-82085469D01*
X123575000Y-82593476D01*
X123575001Y-82593486D01*
X123575000Y-85768476D01*
X123575001Y-85768486D01*
X123575000Y-90126523D01*
X123570718Y-90170000D01*
X123575001Y-90213487D01*
X123575000Y-104096523D01*
X123570718Y-104140000D01*
X123575001Y-104183486D01*
X123575000Y-106948421D01*
X115697000Y-114826422D01*
X115697000Y-106791150D01*
X115730476Y-106959446D01*
X115966799Y-107529979D01*
X116309886Y-108043446D01*
X116746554Y-108480114D01*
X117260021Y-108823201D01*
X117830554Y-109059524D01*
X118436229Y-109180000D01*
X119053771Y-109180000D01*
X119659446Y-109059524D01*
X120229979Y-108823201D01*
X120743446Y-108480114D01*
X121180114Y-108043446D01*
X121523201Y-107529979D01*
X121759524Y-106959446D01*
X121880000Y-106353771D01*
X121880000Y-105736229D01*
X121759524Y-105130554D01*
X121523201Y-104560021D01*
X121180114Y-104046554D01*
X120743446Y-103609886D01*
X120229979Y-103266799D01*
X119659446Y-103030476D01*
X119053771Y-102910000D01*
X118436229Y-102910000D01*
X117830554Y-103030476D01*
X117260021Y-103266799D01*
X116746554Y-103609886D01*
X116309886Y-104046554D01*
X115966799Y-104560021D01*
X115730476Y-105130554D01*
X115697000Y-105298850D01*
X115697000Y-66151150D01*
X115730476Y-66319446D01*
X115966799Y-66889979D01*
X116309886Y-67403446D01*
X116746554Y-67840114D01*
X117260021Y-68183201D01*
X117830554Y-68419524D01*
X118436229Y-68540000D01*
X119053771Y-68540000D01*
X119659446Y-68419524D01*
X120229979Y-68183201D01*
X120743446Y-67840114D01*
X121180114Y-67403446D01*
X121523201Y-66889979D01*
X121759524Y-66319446D01*
X121880000Y-65713771D01*
X121880000Y-65096229D01*
X121759524Y-64490554D01*
X121523201Y-63920021D01*
X121180114Y-63406554D01*
X120858560Y-63085000D01*
X130391928Y-63085000D01*
X130395000Y-63849250D01*
X130553750Y-64008000D01*
X131953000Y-64008000D01*
X131953000Y-62608750D01*
X131794250Y-62450000D01*
X131030000Y-62446928D01*
X130905518Y-62459188D01*
X130785820Y-62495498D01*
X130675506Y-62554463D01*
X130578815Y-62633815D01*
X130499463Y-62730506D01*
X130440498Y-62840820D01*
X130404188Y-62960518D01*
X130391928Y-63085000D01*
X120858560Y-63085000D01*
X120743446Y-62969886D01*
X120229979Y-62626799D01*
X119659446Y-62390476D01*
X119491150Y-62357000D01*
X145288000Y-62357000D01*
X145288000Y-63224346D01*
G36*
X141163748Y-82281858D02*
G01*
X141163677Y-82281928D01*
X141097000Y-82281928D01*
X141097000Y-82376890D01*
X140984143Y-82489748D01*
X140970000Y-82475605D01*
X140955858Y-82489748D01*
X140843000Y-82376890D01*
X140843000Y-82281928D01*
X140776323Y-82281928D01*
X140776253Y-82281858D01*
X140955858Y-82102253D01*
X140970000Y-82116395D01*
X140984143Y-82102253D01*
X141163748Y-82281858D01*
G37*
X141163748Y-82281858D02*
X141163677Y-82281928D01*
X141097000Y-82281928D01*
X141097000Y-82376890D01*
X140984143Y-82489748D01*
X140970000Y-82475605D01*
X140955858Y-82489748D01*
X140843000Y-82376890D01*
X140843000Y-82281928D01*
X140776323Y-82281928D01*
X140776253Y-82281858D01*
X140955858Y-82102253D01*
X140970000Y-82116395D01*
X140984143Y-82102253D01*
X141163748Y-82281858D01*
G36*
X130785820Y-67575498D02*
G01*
X130675506Y-67634463D01*
X130578815Y-67713815D01*
X130499463Y-67810506D01*
X130440498Y-67920820D01*
X130404188Y-68040518D01*
X130391928Y-68165000D01*
X130395000Y-68929250D01*
X130553750Y-69088000D01*
X131953000Y-69088000D01*
X131953000Y-69068000D01*
X132207000Y-69068000D01*
X132207000Y-69088000D01*
X132227000Y-69088000D01*
X132227000Y-69342000D01*
X132207000Y-69342000D01*
X132207000Y-70741250D01*
X132365750Y-70900000D01*
X133130000Y-70903072D01*
X133254482Y-70890812D01*
X133374180Y-70854502D01*
X133484494Y-70795537D01*
X133581185Y-70716185D01*
X133660537Y-70619494D01*
X133668042Y-70605454D01*
X133821853Y-70708228D01*
X134128504Y-70835246D01*
X134454042Y-70900000D01*
X134785958Y-70900000D01*
X134876415Y-70882007D01*
X133389951Y-72368471D01*
X133356184Y-72396183D01*
X133328471Y-72429951D01*
X133328468Y-72429954D01*
X133245590Y-72530941D01*
X133163412Y-72684687D01*
X133112805Y-72851510D01*
X133095719Y-73025000D01*
X133100001Y-73068479D01*
X133100001Y-74223954D01*
X133005506Y-74274463D01*
X132908815Y-74353815D01*
X132829463Y-74450506D01*
X132770498Y-74560820D01*
X132734188Y-74680518D01*
X132721928Y-74805000D01*
X132721928Y-77805000D01*
X132734188Y-77929482D01*
X132770498Y-78049180D01*
X132829463Y-78159494D01*
X132908815Y-78256185D01*
X133005506Y-78335537D01*
X133115820Y-78394502D01*
X133235518Y-78430812D01*
X133360000Y-78443072D01*
X133471581Y-78443072D01*
X133452407Y-78509838D01*
X133441999Y-78634488D01*
X133445000Y-79089250D01*
X133603750Y-79248000D01*
X133941928Y-79248000D01*
X133941928Y-79502000D01*
X133603750Y-79502000D01*
X133445000Y-79660750D01*
X133441999Y-80115512D01*
X133452407Y-80240162D01*
X133486933Y-80360387D01*
X133544250Y-80471566D01*
X133622156Y-80569426D01*
X133717657Y-80650208D01*
X133827082Y-80710806D01*
X133946227Y-80748891D01*
X134048250Y-80760000D01*
X134185525Y-80622725D01*
X134225506Y-80655537D01*
X134335820Y-80714502D01*
X134451275Y-80749525D01*
X134461750Y-80760000D01*
X134503096Y-80755498D01*
X134580000Y-80763072D01*
X134930000Y-80763072D01*
X135005000Y-80755685D01*
X135080000Y-80763072D01*
X135430000Y-80763072D01*
X135505000Y-80755685D01*
X135580000Y-80763072D01*
X135930000Y-80763072D01*
X136005000Y-80755685D01*
X136080000Y-80763072D01*
X136430000Y-80763072D01*
X136554482Y-80750812D01*
X136674180Y-80714502D01*
X136784494Y-80655537D01*
X136881185Y-80576185D01*
X136960537Y-80479494D01*
X137015728Y-80376240D01*
X137141928Y-80502440D01*
X137141928Y-81411000D01*
X129155000Y-81411000D01*
X129155000Y-80081441D01*
X131553164Y-80081441D01*
X131576019Y-80284736D01*
X131763184Y-80365577D01*
X131962523Y-80408351D01*
X132166377Y-80411413D01*
X132366912Y-80374647D01*
X132556420Y-80299466D01*
X132583981Y-80284736D01*
X132606836Y-80081441D01*
X132080000Y-79554605D01*
X131553164Y-80081441D01*
X129155000Y-80081441D01*
X129155000Y-79461377D01*
X131043587Y-79461377D01*
X131080353Y-79661912D01*
X131155534Y-79851420D01*
X131170264Y-79878981D01*
X131373559Y-79901836D01*
X131900395Y-79375000D01*
X132259605Y-79375000D01*
X132786441Y-79901836D01*
X132989736Y-79878981D01*
X133070577Y-79691816D01*
X133113351Y-79492477D01*
X133116413Y-79288623D01*
X133079647Y-79088088D01*
X133004466Y-78898580D01*
X132989736Y-78871019D01*
X132786441Y-78848164D01*
X132259605Y-79375000D01*
X131900395Y-79375000D01*
X131373559Y-78848164D01*
X131170264Y-78871019D01*
X131089423Y-79058184D01*
X131046649Y-79257523D01*
X131043587Y-79461377D01*
X129155000Y-79461377D01*
X129155000Y-78668559D01*
X131553164Y-78668559D01*
X132080000Y-79195395D01*
X132606836Y-78668559D01*
X132583981Y-78465264D01*
X132396816Y-78384423D01*
X132197477Y-78341649D01*
X131993623Y-78338587D01*
X131793088Y-78375353D01*
X131603580Y-78450534D01*
X131576019Y-78465264D01*
X131553164Y-78668559D01*
X129155000Y-78668559D01*
X129155000Y-77488072D01*
X129170000Y-77488072D01*
X129294482Y-77475812D01*
X129414180Y-77439502D01*
X129524494Y-77380537D01*
X129621185Y-77301185D01*
X129700537Y-77204494D01*
X129759502Y-77094180D01*
X129795812Y-76974482D01*
X129808072Y-76850000D01*
X129808072Y-75550000D01*
X129795812Y-75425518D01*
X129759502Y-75305820D01*
X129700537Y-75195506D01*
X129621185Y-75098815D01*
X129524494Y-75019463D01*
X129414180Y-74960498D01*
X129313642Y-74930000D01*
X129414180Y-74899502D01*
X129524494Y-74840537D01*
X129621185Y-74761185D01*
X129700537Y-74664494D01*
X129759502Y-74554180D01*
X129794138Y-74440000D01*
X130181928Y-74440000D01*
X130181928Y-75055000D01*
X130194188Y-75179482D01*
X130230498Y-75299180D01*
X130289463Y-75409494D01*
X130368815Y-75506185D01*
X130465506Y-75585537D01*
X130575820Y-75644502D01*
X130695518Y-75680812D01*
X130820000Y-75693072D01*
X132070000Y-75693072D01*
X132194482Y-75680812D01*
X132314180Y-75644502D01*
X132424494Y-75585537D01*
X132521185Y-75506185D01*
X132600537Y-75409494D01*
X132659502Y-75299180D01*
X132695812Y-75179482D01*
X132708072Y-75055000D01*
X132708072Y-72055000D01*
X132695812Y-71930518D01*
X132659502Y-71810820D01*
X132600537Y-71700506D01*
X132521185Y-71603815D01*
X132424494Y-71524463D01*
X132314180Y-71465498D01*
X132194482Y-71429188D01*
X132070000Y-71416928D01*
X130820000Y-71416928D01*
X130695518Y-71429188D01*
X130575820Y-71465498D01*
X130465506Y-71524463D01*
X130368815Y-71603815D01*
X130289463Y-71700506D01*
X130230498Y-71810820D01*
X130194188Y-71930518D01*
X130181928Y-72055000D01*
X130181928Y-72670000D01*
X129708284Y-72670000D01*
X129700537Y-72655506D01*
X129621185Y-72558815D01*
X129524494Y-72479463D01*
X129414180Y-72420498D01*
X129294482Y-72384188D01*
X129170000Y-72371928D01*
X127370000Y-72371928D01*
X127245518Y-72384188D01*
X127125820Y-72420498D01*
X127015506Y-72479463D01*
X126918815Y-72558815D01*
X126839463Y-72655506D01*
X126780498Y-72765820D01*
X126744188Y-72885518D01*
X126731928Y-73010000D01*
X126731928Y-74310000D01*
X126744188Y-74434482D01*
X126780498Y-74554180D01*
X126839463Y-74664494D01*
X126918815Y-74761185D01*
X127015506Y-74840537D01*
X127125820Y-74899502D01*
X127226358Y-74930000D01*
X127125820Y-74960498D01*
X127015506Y-75019463D01*
X126918815Y-75098815D01*
X126839463Y-75195506D01*
X126780498Y-75305820D01*
X126744188Y-75425518D01*
X126731928Y-75550000D01*
X126731928Y-76850000D01*
X126744188Y-76974482D01*
X126780498Y-77094180D01*
X126839463Y-77204494D01*
X126918815Y-77301185D01*
X127015506Y-77380537D01*
X127125820Y-77439502D01*
X127245518Y-77475812D01*
X127370000Y-77488072D01*
X127385000Y-77488072D01*
X127385001Y-81411000D01*
X125345000Y-81411000D01*
X125345000Y-70265000D01*
X130391928Y-70265000D01*
X130404188Y-70389482D01*
X130440498Y-70509180D01*
X130499463Y-70619494D01*
X130578815Y-70716185D01*
X130675506Y-70795537D01*
X130785820Y-70854502D01*
X130905518Y-70890812D01*
X131030000Y-70903072D01*
X131794250Y-70900000D01*
X131953000Y-70741250D01*
X131953000Y-69342000D01*
X130553750Y-69342000D01*
X130395000Y-69500750D01*
X130391928Y-70265000D01*
X125345000Y-70265000D01*
X125345000Y-68311578D01*
X126096579Y-67560000D01*
X130836910Y-67560000D01*
X130785820Y-67575498D01*
G37*
X130785820Y-67575498D02*
X130675506Y-67634463D01*
X130578815Y-67713815D01*
X130499463Y-67810506D01*
X130440498Y-67920820D01*
X130404188Y-68040518D01*
X130391928Y-68165000D01*
X130395000Y-68929250D01*
X130553750Y-69088000D01*
X131953000Y-69088000D01*
X131953000Y-69068000D01*
X132207000Y-69068000D01*
X132207000Y-69088000D01*
X132227000Y-69088000D01*
X132227000Y-69342000D01*
X132207000Y-69342000D01*
X132207000Y-70741250D01*
X132365750Y-70900000D01*
X133130000Y-70903072D01*
X133254482Y-70890812D01*
X133374180Y-70854502D01*
X133484494Y-70795537D01*
X133581185Y-70716185D01*
X133660537Y-70619494D01*
X133668042Y-70605454D01*
X133821853Y-70708228D01*
X134128504Y-70835246D01*
X134454042Y-70900000D01*
X134785958Y-70900000D01*
X134876415Y-70882007D01*
X133389951Y-72368471D01*
X133356184Y-72396183D01*
X133328471Y-72429951D01*
X133328468Y-72429954D01*
X133245590Y-72530941D01*
X133163412Y-72684687D01*
X133112805Y-72851510D01*
X133095719Y-73025000D01*
X133100001Y-73068479D01*
X133100001Y-74223954D01*
X133005506Y-74274463D01*
X132908815Y-74353815D01*
X132829463Y-74450506D01*
X132770498Y-74560820D01*
X132734188Y-74680518D01*
X132721928Y-74805000D01*
X132721928Y-77805000D01*
X132734188Y-77929482D01*
X132770498Y-78049180D01*
X132829463Y-78159494D01*
X132908815Y-78256185D01*
X133005506Y-78335537D01*
X133115820Y-78394502D01*
X133235518Y-78430812D01*
X133360000Y-78443072D01*
X133471581Y-78443072D01*
X133452407Y-78509838D01*
X133441999Y-78634488D01*
X133445000Y-79089250D01*
X133603750Y-79248000D01*
X133941928Y-79248000D01*
X133941928Y-79502000D01*
X133603750Y-79502000D01*
X133445000Y-79660750D01*
X133441999Y-80115512D01*
X133452407Y-80240162D01*
X133486933Y-80360387D01*
X133544250Y-80471566D01*
X133622156Y-80569426D01*
X133717657Y-80650208D01*
X133827082Y-80710806D01*
X133946227Y-80748891D01*
X134048250Y-80760000D01*
X134185525Y-80622725D01*
X134225506Y-80655537D01*
X134335820Y-80714502D01*
X134451275Y-80749525D01*
X134461750Y-80760000D01*
X134503096Y-80755498D01*
X134580000Y-80763072D01*
X134930000Y-80763072D01*
X135005000Y-80755685D01*
X135080000Y-80763072D01*
X135430000Y-80763072D01*
X135505000Y-80755685D01*
X135580000Y-80763072D01*
X135930000Y-80763072D01*
X136005000Y-80755685D01*
X136080000Y-80763072D01*
X136430000Y-80763072D01*
X136554482Y-80750812D01*
X136674180Y-80714502D01*
X136784494Y-80655537D01*
X136881185Y-80576185D01*
X136960537Y-80479494D01*
X137015728Y-80376240D01*
X137141928Y-80502440D01*
X137141928Y-81411000D01*
X129155000Y-81411000D01*
X129155000Y-80081441D01*
X131553164Y-80081441D01*
X131576019Y-80284736D01*
X131763184Y-80365577D01*
X131962523Y-80408351D01*
X132166377Y-80411413D01*
X132366912Y-80374647D01*
X132556420Y-80299466D01*
X132583981Y-80284736D01*
X132606836Y-80081441D01*
X132080000Y-79554605D01*
X131553164Y-80081441D01*
X129155000Y-80081441D01*
X129155000Y-79461377D01*
X131043587Y-79461377D01*
X131080353Y-79661912D01*
X131155534Y-79851420D01*
X131170264Y-79878981D01*
X131373559Y-79901836D01*
X131900395Y-79375000D01*
X132259605Y-79375000D01*
X132786441Y-79901836D01*
X132989736Y-79878981D01*
X133070577Y-79691816D01*
X133113351Y-79492477D01*
X133116413Y-79288623D01*
X133079647Y-79088088D01*
X133004466Y-78898580D01*
X132989736Y-78871019D01*
X132786441Y-78848164D01*
X132259605Y-79375000D01*
X131900395Y-79375000D01*
X131373559Y-78848164D01*
X131170264Y-78871019D01*
X131089423Y-79058184D01*
X131046649Y-79257523D01*
X131043587Y-79461377D01*
X129155000Y-79461377D01*
X129155000Y-78668559D01*
X131553164Y-78668559D01*
X132080000Y-79195395D01*
X132606836Y-78668559D01*
X132583981Y-78465264D01*
X132396816Y-78384423D01*
X132197477Y-78341649D01*
X131993623Y-78338587D01*
X131793088Y-78375353D01*
X131603580Y-78450534D01*
X131576019Y-78465264D01*
X131553164Y-78668559D01*
X129155000Y-78668559D01*
X129155000Y-77488072D01*
X129170000Y-77488072D01*
X129294482Y-77475812D01*
X129414180Y-77439502D01*
X129524494Y-77380537D01*
X129621185Y-77301185D01*
X129700537Y-77204494D01*
X129759502Y-77094180D01*
X129795812Y-76974482D01*
X129808072Y-76850000D01*
X129808072Y-75550000D01*
X129795812Y-75425518D01*
X129759502Y-75305820D01*
X129700537Y-75195506D01*
X129621185Y-75098815D01*
X129524494Y-75019463D01*
X129414180Y-74960498D01*
X129313642Y-74930000D01*
X129414180Y-74899502D01*
X129524494Y-74840537D01*
X129621185Y-74761185D01*
X129700537Y-74664494D01*
X129759502Y-74554180D01*
X129794138Y-74440000D01*
X130181928Y-74440000D01*
X130181928Y-75055000D01*
X130194188Y-75179482D01*
X130230498Y-75299180D01*
X130289463Y-75409494D01*
X130368815Y-75506185D01*
X130465506Y-75585537D01*
X130575820Y-75644502D01*
X130695518Y-75680812D01*
X130820000Y-75693072D01*
X132070000Y-75693072D01*
X132194482Y-75680812D01*
X132314180Y-75644502D01*
X132424494Y-75585537D01*
X132521185Y-75506185D01*
X132600537Y-75409494D01*
X132659502Y-75299180D01*
X132695812Y-75179482D01*
X132708072Y-75055000D01*
X132708072Y-72055000D01*
X132695812Y-71930518D01*
X132659502Y-71810820D01*
X132600537Y-71700506D01*
X132521185Y-71603815D01*
X132424494Y-71524463D01*
X132314180Y-71465498D01*
X132194482Y-71429188D01*
X132070000Y-71416928D01*
X130820000Y-71416928D01*
X130695518Y-71429188D01*
X130575820Y-71465498D01*
X130465506Y-71524463D01*
X130368815Y-71603815D01*
X130289463Y-71700506D01*
X130230498Y-71810820D01*
X130194188Y-71930518D01*
X130181928Y-72055000D01*
X130181928Y-72670000D01*
X129708284Y-72670000D01*
X129700537Y-72655506D01*
X129621185Y-72558815D01*
X129524494Y-72479463D01*
X129414180Y-72420498D01*
X129294482Y-72384188D01*
X129170000Y-72371928D01*
X127370000Y-72371928D01*
X127245518Y-72384188D01*
X127125820Y-72420498D01*
X127015506Y-72479463D01*
X126918815Y-72558815D01*
X126839463Y-72655506D01*
X126780498Y-72765820D01*
X126744188Y-72885518D01*
X126731928Y-73010000D01*
X126731928Y-74310000D01*
X126744188Y-74434482D01*
X126780498Y-74554180D01*
X126839463Y-74664494D01*
X126918815Y-74761185D01*
X127015506Y-74840537D01*
X127125820Y-74899502D01*
X127226358Y-74930000D01*
X127125820Y-74960498D01*
X127015506Y-75019463D01*
X126918815Y-75098815D01*
X126839463Y-75195506D01*
X126780498Y-75305820D01*
X126744188Y-75425518D01*
X126731928Y-75550000D01*
X126731928Y-76850000D01*
X126744188Y-76974482D01*
X126780498Y-77094180D01*
X126839463Y-77204494D01*
X126918815Y-77301185D01*
X127015506Y-77380537D01*
X127125820Y-77439502D01*
X127245518Y-77475812D01*
X127370000Y-77488072D01*
X127385000Y-77488072D01*
X127385001Y-81411000D01*
X125345000Y-81411000D01*
X125345000Y-70265000D01*
X130391928Y-70265000D01*
X130404188Y-70389482D01*
X130440498Y-70509180D01*
X130499463Y-70619494D01*
X130578815Y-70716185D01*
X130675506Y-70795537D01*
X130785820Y-70854502D01*
X130905518Y-70890812D01*
X131030000Y-70903072D01*
X131794250Y-70900000D01*
X131953000Y-70741250D01*
X131953000Y-69342000D01*
X130553750Y-69342000D01*
X130395000Y-69500750D01*
X130391928Y-70265000D01*
X125345000Y-70265000D01*
X125345000Y-68311578D01*
X126096579Y-67560000D01*
X130836910Y-67560000D01*
X130785820Y-67575498D01*
M02*
