G04 #@! TF.GenerationSoftware,KiCad,Pcbnew,(5.1.6)-1*
G04 #@! TF.CreationDate,2023-01-22T15:30:42+01:00*
G04 #@! TF.ProjectId,zone-controller,7a6f6e65-2d63-46f6-9e74-726f6c6c6572,rev?*
G04 #@! TF.SameCoordinates,Original*
G04 #@! TF.FileFunction,Soldermask,Top*
G04 #@! TF.FilePolarity,Negative*
%FSLAX46Y46*%
G04 Gerber Fmt 4.6, Leading zero omitted, Abs format (unit mm)*
G04 Created by KiCad (PCBNEW (5.1.6)-1) date 2023-01-22 15:30:42*
%MOMM*%
%LPD*%
G01*
G04 APERTURE LIST*
%ADD10C,0.900000*%
%ADD11C,6.100000*%
%ADD12R,1.600000X0.450000*%
%ADD13R,3.100000X1.350000*%
%ADD14C,0.100000*%
%ADD15C,2.200000*%
%ADD16R,2.600000X2.600000*%
%ADD17R,2.100000X2.100000*%
%ADD18C,2.100000*%
%ADD19R,10.900000X9.500000*%
%ADD20R,1.350000X4.700000*%
%ADD21R,2.600000X1.600000*%
%ADD22R,7.100000X7.100000*%
%ADD23R,3.600000X3.600000*%
%ADD24C,3.600000*%
%ADD25R,1.000000X2.100000*%
%ADD26R,0.450000X1.600000*%
%ADD27R,2.100000X0.600000*%
%ADD28R,0.600000X2.100000*%
%ADD29R,5.100000X3.500000*%
%ADD30R,1.100000X1.100000*%
%ADD31O,3.200000X3.200000*%
%ADD32R,3.200000X3.200000*%
%ADD33C,1.600000*%
%ADD34C,3.400000*%
%ADD35R,0.900000X0.900000*%
%ADD36R,3.400000X4.100000*%
%ADD37R,1.000000X1.000000*%
G04 APERTURE END LIST*
D10*
X89535000Y-100965000D03*
X57785000Y-100965000D03*
X107950000Y-135890000D03*
X33655000Y-74930000D03*
X37465000Y-78740000D03*
X46355000Y-87630000D03*
X41910000Y-83185000D03*
X51435000Y-92710000D03*
X59690000Y-90170000D03*
X65405000Y-90170000D03*
X71120000Y-90170000D03*
D11*
X34925000Y-90170000D03*
D12*
X175260000Y-89170000D03*
X175260000Y-89670000D03*
X175260000Y-90170000D03*
X175260000Y-90670000D03*
X175260000Y-91170000D03*
X170180000Y-91170000D03*
X170180000Y-90670000D03*
X170180000Y-90170000D03*
X170180000Y-89170000D03*
X170180000Y-89670000D03*
D11*
X214630000Y-27305000D03*
X114300000Y-139700000D03*
X211455000Y-73025000D03*
D10*
X184150000Y-71755000D03*
X184150000Y-76835000D03*
X160020000Y-84455000D03*
X171450000Y-81915000D03*
X173355000Y-104140000D03*
X180975000Y-69850000D03*
X180975000Y-87630000D03*
X191135000Y-83185000D03*
X194945000Y-99060000D03*
X193040000Y-92075000D03*
X193675000Y-78740000D03*
X195580000Y-74295000D03*
X192405000Y-73025000D03*
X186690000Y-92075000D03*
X179070000Y-91440000D03*
X179070000Y-89535000D03*
X155575000Y-98425000D03*
X157480000Y-88900000D03*
X157480000Y-81280000D03*
D13*
X192935000Y-99060000D03*
X195685000Y-96520000D03*
D14*
G36*
X194880000Y-85405000D02*
G01*
X194880000Y-83505000D01*
X196280000Y-83505000D01*
X196280000Y-85405000D01*
X194880000Y-85405000D01*
G37*
G36*
X192340000Y-85405000D02*
G01*
X192340000Y-83505000D01*
X193740000Y-83505000D01*
X193740000Y-85405000D01*
X192340000Y-85405000D01*
G37*
G36*
X188530000Y-85405000D02*
G01*
X188530000Y-83505000D01*
X189930000Y-83505000D01*
X189930000Y-85405000D01*
X188530000Y-85405000D01*
G37*
G36*
X185990000Y-85405000D02*
G01*
X185990000Y-83505000D01*
X187390000Y-83505000D01*
X187390000Y-85405000D01*
X185990000Y-85405000D01*
G37*
G36*
X197805000Y-76770000D02*
G01*
X199705000Y-76770000D01*
X199705000Y-78170000D01*
X197805000Y-78170000D01*
X197805000Y-76770000D01*
G37*
G36*
X197805000Y-74230000D02*
G01*
X199705000Y-74230000D01*
X199705000Y-75630000D01*
X197805000Y-75630000D01*
X197805000Y-74230000D01*
G37*
G36*
X187390000Y-68900000D02*
G01*
X187390000Y-70800000D01*
X185990000Y-70800000D01*
X185990000Y-68900000D01*
X187390000Y-68900000D01*
G37*
G36*
X189930000Y-68900000D02*
G01*
X189930000Y-70800000D01*
X188530000Y-70800000D01*
X188530000Y-68900000D01*
X189930000Y-68900000D01*
G37*
G36*
X193740000Y-68900000D02*
G01*
X193740000Y-70800000D01*
X192340000Y-70800000D01*
X192340000Y-68900000D01*
X193740000Y-68900000D01*
G37*
G36*
X196280000Y-68900000D02*
G01*
X196280000Y-70800000D01*
X194880000Y-70800000D01*
X194880000Y-68900000D01*
X196280000Y-68900000D01*
G37*
G36*
X187390000Y-101285000D02*
G01*
X187390000Y-103185000D01*
X185990000Y-103185000D01*
X185990000Y-101285000D01*
X187390000Y-101285000D01*
G37*
G36*
X189930000Y-101285000D02*
G01*
X189930000Y-103185000D01*
X188530000Y-103185000D01*
X188530000Y-101285000D01*
X189930000Y-101285000D01*
G37*
G36*
X193740000Y-101285000D02*
G01*
X193740000Y-103185000D01*
X192340000Y-103185000D01*
X192340000Y-101285000D01*
X193740000Y-101285000D01*
G37*
G36*
X196280000Y-101285000D02*
G01*
X196280000Y-103185000D01*
X194880000Y-103185000D01*
X194880000Y-101285000D01*
X196280000Y-101285000D01*
G37*
G36*
X181930000Y-92645000D02*
G01*
X183830000Y-92645000D01*
X183830000Y-94045000D01*
X181930000Y-94045000D01*
X181930000Y-92645000D01*
G37*
G36*
X181930000Y-90105000D02*
G01*
X183830000Y-90105000D01*
X183830000Y-91505000D01*
X181930000Y-91505000D01*
X181930000Y-90105000D01*
G37*
G36*
X194880000Y-88580000D02*
G01*
X194880000Y-86680000D01*
X196280000Y-86680000D01*
X196280000Y-88580000D01*
X194880000Y-88580000D01*
G37*
G36*
X192340000Y-88580000D02*
G01*
X192340000Y-86680000D01*
X193740000Y-86680000D01*
X193740000Y-88580000D01*
X192340000Y-88580000D01*
G37*
G36*
X188530000Y-88580000D02*
G01*
X188530000Y-86680000D01*
X189930000Y-86680000D01*
X189930000Y-88580000D01*
X188530000Y-88580000D01*
G37*
G36*
X185990000Y-88580000D02*
G01*
X185990000Y-86680000D01*
X187390000Y-86680000D01*
X187390000Y-88580000D01*
X185990000Y-88580000D01*
G37*
D13*
X189335000Y-78740000D03*
X186585000Y-81280000D03*
X192935000Y-81280000D03*
X195685000Y-78740000D03*
X195685000Y-73025000D03*
X192935000Y-75565000D03*
X186585000Y-75565000D03*
X189335000Y-73025000D03*
X189335000Y-96520000D03*
X186585000Y-99060000D03*
X186585000Y-93345000D03*
X189335000Y-90805000D03*
X195685000Y-90805000D03*
X192935000Y-93345000D03*
D10*
X133604000Y-76200000D03*
X121285000Y-76835000D03*
X121285000Y-79375000D03*
X133350000Y-79375000D03*
X130175000Y-60960000D03*
X130175000Y-58420000D03*
D14*
G36*
X129225000Y-60260000D02*
G01*
X131125000Y-60260000D01*
X131125000Y-61660000D01*
X129225000Y-61660000D01*
X129225000Y-60260000D01*
G37*
G36*
X129225000Y-57720000D02*
G01*
X131125000Y-57720000D01*
X131125000Y-59120000D01*
X129225000Y-59120000D01*
X129225000Y-57720000D01*
G37*
D10*
X112395000Y-67310000D03*
X109855000Y-116205000D03*
X200660000Y-36195000D03*
X184150000Y-36195000D03*
X169545000Y-36195000D03*
X154940000Y-36195000D03*
X132080000Y-36195000D03*
X205740000Y-36195000D03*
X191135000Y-36195000D03*
X176530000Y-36195000D03*
X161925000Y-36195000D03*
X147320000Y-36195000D03*
X39370000Y6350000D03*
X49530000Y-36195000D03*
X64135000Y-36195000D03*
X78740000Y-36195000D03*
X93345000Y-36195000D03*
X93980000Y-41275000D03*
X107950000Y-36195000D03*
X108585000Y-41275000D03*
X130175000Y-34290000D03*
X209550000Y-9525000D03*
X207645000Y-9525000D03*
X205740000Y-9525000D03*
X205740000Y-7620000D03*
X207645000Y-7620000D03*
X209550000Y-7620000D03*
X209550000Y-5715000D03*
X207645000Y-5715000D03*
X205740000Y-5715000D03*
X191135000Y-9525000D03*
X193040000Y-9525000D03*
X194945000Y-9525000D03*
X194945000Y-7620000D03*
X193040000Y-7620000D03*
X191135000Y-7620000D03*
X194945000Y-5715000D03*
X193040000Y-5715000D03*
X191135000Y-5715000D03*
X180340000Y-9525000D03*
X178435000Y-9525000D03*
X176530000Y-9525000D03*
X176530000Y-7620000D03*
X178435000Y-7620000D03*
X180340000Y-7620000D03*
X180340000Y-5715000D03*
X178435000Y-5715000D03*
X176530000Y-5715000D03*
X165735000Y-9525000D03*
X163830000Y-9525000D03*
X161925000Y-9525000D03*
X161925000Y-7620000D03*
X163830000Y-7620000D03*
X165735000Y-7620000D03*
X165735000Y-5715000D03*
X163830000Y-5715000D03*
X161925000Y-5715000D03*
X146685000Y-9525000D03*
X148590000Y-9525000D03*
X150495000Y-9525000D03*
X150495000Y-7620000D03*
X148590000Y-7620000D03*
X146685000Y-7620000D03*
X150495000Y-5715000D03*
X148590000Y-5715000D03*
X146685000Y-5715000D03*
X135890000Y-9525000D03*
X133985000Y-9525000D03*
X132080000Y-9525000D03*
X132080000Y-7620000D03*
X133985000Y-7620000D03*
X135890000Y-7620000D03*
X135890000Y-5715000D03*
X133985000Y-5715000D03*
X132080000Y-5715000D03*
X121285000Y-9525000D03*
X119380000Y-9525000D03*
X117475000Y-9525000D03*
X117475000Y-7620000D03*
X119380000Y-7620000D03*
X121285000Y-7620000D03*
X121285000Y-5715000D03*
X119380000Y-5715000D03*
X117475000Y-5715000D03*
X106680000Y-9525000D03*
X104775000Y-9525000D03*
X102870000Y-9525000D03*
X106680000Y-7620000D03*
X104775000Y-7620000D03*
X102870000Y-7620000D03*
X106680000Y-5715000D03*
X104775000Y-5715000D03*
X102870000Y-5715000D03*
X91440000Y-9525000D03*
X89535000Y-9525000D03*
X87630000Y-9525000D03*
X87630000Y-7620000D03*
X89535000Y-7620000D03*
X91440000Y-7620000D03*
X91440000Y-5715000D03*
X89535000Y-5715000D03*
X87630000Y-5715000D03*
X73025000Y-9525000D03*
X74930000Y-9525000D03*
X76835000Y-9525000D03*
X76835000Y-7620000D03*
X74930000Y-7620000D03*
X72957000Y-7620000D03*
X76835000Y-5715000D03*
X74930000Y-5715000D03*
X73025000Y-5715000D03*
X58420000Y-9525000D03*
X58420000Y-7620000D03*
X60325000Y-7620000D03*
X60325000Y-9525000D03*
X62230000Y-9525000D03*
X62230000Y-7620000D03*
X62230000Y-5715000D03*
X60325000Y-5715000D03*
X58420000Y-5715000D03*
X45720000Y-9525000D03*
X45720000Y-5715000D03*
X45720000Y-7620000D03*
X47625000Y-7620000D03*
X47625000Y-9525000D03*
X43815000Y-9525000D03*
X43815000Y-7620000D03*
X47625000Y-5715000D03*
X43815000Y-5715000D03*
X44450000Y-116840000D03*
X48260000Y-116840000D03*
X52070000Y-116840000D03*
X52070000Y-113665000D03*
X48260000Y-113665000D03*
X44450000Y-113665000D03*
X44450000Y-110490000D03*
X48260000Y-110490000D03*
X52070000Y-110490000D03*
X60325000Y-113665000D03*
X56515000Y-113665000D03*
X56515000Y-116840000D03*
X60325000Y-116840000D03*
X64135000Y-116840000D03*
X64135000Y-113665000D03*
X64135000Y-110490000D03*
X60325000Y-110490000D03*
X56515000Y-110490000D03*
X88265000Y-90170000D03*
X82550000Y-90170000D03*
X76835000Y-90170000D03*
X78740000Y-123825000D03*
X78740000Y-130175000D03*
X83820000Y-116840000D03*
X83820000Y-113665000D03*
X80010000Y-113665000D03*
X80010000Y-116840000D03*
X76200000Y-116840000D03*
X76200000Y-113665000D03*
X76200000Y-110490000D03*
X80010000Y-110490000D03*
X83820000Y-110490000D03*
X92075000Y-110490000D03*
X95885000Y-113665000D03*
X88900000Y-113665000D03*
X92075000Y-113665000D03*
X92075000Y-116840000D03*
X95885000Y-116840000D03*
X95885000Y-110490000D03*
X88900000Y-110490000D03*
X88900000Y-116840000D03*
X107315000Y-105410000D03*
X111125000Y-111125000D03*
X111125000Y-120650000D03*
X111125000Y-130175000D03*
X107950000Y-142875000D03*
X99695000Y-142875000D03*
X90170000Y-142875000D03*
X217805000Y-104140000D03*
X217805000Y-114300000D03*
X217805000Y-121285000D03*
X217805000Y-133985000D03*
X55245000Y-73660000D03*
X60325000Y-78740000D03*
X65405000Y-80645000D03*
X80645000Y-80645000D03*
X87630000Y-80645000D03*
X94615000Y-83820000D03*
X100965000Y-90805000D03*
X107950000Y-97155000D03*
X114935000Y-103505000D03*
X50165000Y-68580000D03*
X118110000Y-111125000D03*
X118110000Y-120650000D03*
X118110000Y-130175000D03*
X136525000Y-142875000D03*
X120650000Y-142875000D03*
X151130000Y-142875000D03*
X160655000Y-142875000D03*
X170180000Y-142875000D03*
X179705000Y-142875000D03*
X189230000Y-142875000D03*
X198755000Y-142875000D03*
X208280000Y-142875000D03*
X51435000Y-142875000D03*
X40640000Y-142875000D03*
X31115000Y-134620000D03*
X31115000Y-125095000D03*
X31115000Y-115570000D03*
X31115000Y-106045000D03*
X31115000Y-96520000D03*
X31115000Y-86995000D03*
X31115000Y-77470000D03*
X31115000Y-67945000D03*
X31750000Y-58420000D03*
X118110000Y-36195000D03*
X103505000Y-36195000D03*
X88900000Y-36195000D03*
X74295000Y-36195000D03*
X59690000Y-36195000D03*
X218440000Y-35560000D03*
X218440000Y-13335000D03*
X218440000Y-20320000D03*
X218440000Y-6985000D03*
X218440000Y-635000D03*
X196850000Y6350000D03*
X183515000Y6350000D03*
X170180000Y6350000D03*
X156845000Y6350000D03*
X143510000Y6350000D03*
X31750000Y-1270000D03*
X31750000Y-10795000D03*
X106680000Y6350000D03*
X93345000Y6350000D03*
X80010000Y6350000D03*
X66675000Y6350000D03*
X53340000Y6350000D03*
X31750000Y-48895000D03*
X31750000Y-39370000D03*
X31750000Y-29845000D03*
X31750000Y-20320000D03*
X166370000Y-86995000D03*
X120650000Y-99060000D03*
X126365000Y-104775000D03*
X179070000Y-111760000D03*
X137795000Y-17145000D03*
X211455000Y-17145000D03*
X203200000Y-34290000D03*
X188595000Y-34290000D03*
X173990000Y-34290000D03*
X197485000Y-17145000D03*
X182880000Y-17145000D03*
X168275000Y-17145000D03*
X144780000Y-34290000D03*
X159385000Y-34290000D03*
X153670000Y-17145000D03*
X139065000Y-17145000D03*
X196215000Y-17145000D03*
X158115000Y-13970000D03*
X167005000Y-17145000D03*
X151765000Y-40005000D03*
X139700000Y-41275000D03*
X123190000Y-39370000D03*
D15*
X44323000Y-22225000D03*
X44323000Y-32385000D03*
X44323000Y-27305000D03*
X44323000Y-29845000D03*
X44323000Y-24765000D03*
X58939540Y-22225000D03*
X58939540Y-32385000D03*
X58939540Y-27305000D03*
X58939540Y-29845000D03*
X58939540Y-24765000D03*
D11*
X142240000Y-139700000D03*
D10*
X197485000Y-2540000D03*
X196215000Y-1270000D03*
X189230000Y-2540000D03*
X187960000Y-1270000D03*
X203835000Y-2540000D03*
X202565000Y-1270000D03*
X211455000Y-2540000D03*
X210185000Y-1270000D03*
X175260000Y-2540000D03*
X173990000Y-1270000D03*
X182880000Y-2540000D03*
X181610000Y-1270000D03*
X159385000Y-2540000D03*
X160655000Y-1270000D03*
X168275000Y-2540000D03*
X167005000Y-1270000D03*
X145415000Y-2540000D03*
X146685000Y-1270000D03*
X153670000Y-2540000D03*
X152400000Y-1270000D03*
X139065000Y-2540000D03*
X139065000Y-1270000D03*
X133985000Y-2540000D03*
X133985000Y-1270000D03*
X112395000Y-2540000D03*
X111125000Y-1270000D03*
X118110000Y-635000D03*
X116840000Y-635000D03*
X104775000Y-1270000D03*
X103505000Y-1270000D03*
X99060000Y-2540000D03*
X97790000Y-1270000D03*
X91440000Y-1905000D03*
X90170000Y-1905000D03*
X85725000Y-2540000D03*
X84455000Y-1270000D03*
X77470000Y-1905000D03*
X76200000Y-1905000D03*
X71120000Y-1905000D03*
X71120000Y-635000D03*
X57785000Y-1905000D03*
X57785000Y-635000D03*
X64770000Y-3175000D03*
X63500000Y-1905000D03*
X50800000Y-3175000D03*
X50165000Y-1905000D03*
X44450000Y-1905000D03*
X44450000Y-635000D03*
D11*
X124714000Y3175000D03*
X139700000Y-35052000D03*
X175895000Y-78105000D03*
X73660000Y-78105000D03*
X34925000Y-139700000D03*
X214630000Y-139700000D03*
X214630000Y3175000D03*
X34925000Y3175000D03*
D15*
X146638818Y-22225000D03*
X146638818Y-32385000D03*
X146638818Y-27305000D03*
X146638818Y-29845000D03*
X146638818Y-24765000D03*
X117405727Y-22225000D03*
X117405727Y-32385000D03*
X117405727Y-27305000D03*
X117405727Y-29845000D03*
X117405727Y-24765000D03*
X132022273Y-22225000D03*
X132022273Y-32385000D03*
X132022273Y-27305000D03*
X132022273Y-29845000D03*
X132022273Y-24765000D03*
X205105000Y-22225000D03*
X205105000Y-32385000D03*
X205105000Y-27305000D03*
X205105000Y-29845000D03*
X205105000Y-24765000D03*
X190488455Y-22225000D03*
X190488455Y-32385000D03*
X190488455Y-27305000D03*
X190488455Y-29845000D03*
X190488455Y-24765000D03*
X175871909Y-22225000D03*
X175871909Y-32385000D03*
X175871909Y-27305000D03*
X175871909Y-29845000D03*
X175871909Y-24765000D03*
X161255364Y-22225000D03*
X161255364Y-32385000D03*
X161255364Y-27305000D03*
X161255364Y-29845000D03*
X161255364Y-24765000D03*
X102789182Y-22225000D03*
X102789182Y-32385000D03*
X102789182Y-27305000D03*
X102789182Y-29845000D03*
X102789182Y-24765000D03*
X88172636Y-22225000D03*
X88172636Y-32385000D03*
X88172636Y-27305000D03*
X88172636Y-29845000D03*
X88172636Y-24765000D03*
X73556091Y-22225000D03*
X73556091Y-32385000D03*
X73556091Y-27305000D03*
X73556091Y-29845000D03*
X73556091Y-24765000D03*
X181229000Y-99060000D03*
X181229000Y-109220000D03*
X181229000Y-104140000D03*
X181229000Y-106680000D03*
X181229000Y-101600000D03*
D13*
X138960000Y-86487000D03*
X138960000Y-91567000D03*
X141710000Y-89027000D03*
X134515000Y-86487000D03*
X134515000Y-91567000D03*
X137265000Y-89027000D03*
X130070000Y-86487000D03*
X130070000Y-91567000D03*
X132820000Y-89027000D03*
X125625000Y-86487000D03*
X125625000Y-91567000D03*
X128375000Y-89027000D03*
X121180000Y-86487000D03*
X121180000Y-91567000D03*
X123930000Y-89027000D03*
X116735000Y-86487000D03*
X116735000Y-91567000D03*
X119485000Y-89027000D03*
X166900000Y-96520000D03*
X169650000Y-93980000D03*
X161185000Y-96520000D03*
X163935000Y-93980000D03*
D16*
X68185000Y-134620000D03*
X72785000Y-134620000D03*
X62865000Y-139460000D03*
X62865000Y-134860000D03*
D17*
X43053000Y-42545000D03*
D18*
X45593000Y-42545000D03*
D10*
X83820000Y-104775000D03*
X52070000Y-104775000D03*
D19*
X92075000Y-113665000D03*
D20*
X89535000Y-104515000D03*
X94615000Y-104515000D03*
D19*
X80010000Y-113865000D03*
D20*
X77470000Y-104715000D03*
X82550000Y-104715000D03*
D19*
X60325000Y-113865000D03*
D20*
X57785000Y-104715000D03*
X62865000Y-104715000D03*
D19*
X48260000Y-113865000D03*
D20*
X45720000Y-104715000D03*
X50800000Y-104715000D03*
D21*
X39293000Y-5594000D03*
X39293000Y-10154000D03*
D22*
X45593000Y-7874000D03*
D23*
X205740000Y5080000D03*
D24*
X200660000Y5080000D03*
D23*
X192405000Y5080000D03*
D24*
X187325000Y5080000D03*
D23*
X179070000Y5080000D03*
D24*
X173990000Y5080000D03*
D23*
X165735000Y5080000D03*
D24*
X160655000Y5080000D03*
D23*
X152400000Y5080000D03*
D24*
X147320000Y5080000D03*
D23*
X139065000Y5080000D03*
D24*
X133985000Y5080000D03*
D23*
X115570000Y5080000D03*
D24*
X110490000Y5080000D03*
D23*
X102235000Y5080000D03*
D24*
X97155000Y5080000D03*
D23*
X88900000Y5080000D03*
D24*
X83820000Y5080000D03*
D23*
X75565000Y5080000D03*
D24*
X70485000Y5080000D03*
D23*
X62230000Y5080000D03*
D24*
X57150000Y5080000D03*
D23*
X216408000Y-45212000D03*
D24*
X216408000Y-40132000D03*
D23*
X216408000Y-130175000D03*
D24*
X216408000Y-125095000D03*
D23*
X48895000Y5080000D03*
D24*
X43815000Y5080000D03*
D23*
X127508000Y-141732000D03*
D24*
X132588000Y-141732000D03*
D23*
X67945000Y-141732000D03*
D24*
X73025000Y-141732000D03*
D25*
X207010000Y-49555000D03*
X208280000Y-55855000D03*
X209550000Y-49555000D03*
X208280000Y-49555000D03*
X209550000Y-55855000D03*
X207010000Y-55855000D03*
X203200000Y-55855000D03*
X201930000Y-49555000D03*
X200660000Y-55855000D03*
X201930000Y-55855000D03*
X200660000Y-49555000D03*
X203200000Y-49555000D03*
X192405000Y-49555000D03*
X193675000Y-55855000D03*
X194945000Y-49555000D03*
X193675000Y-49555000D03*
X194945000Y-55855000D03*
X192405000Y-55855000D03*
X188595000Y-55855000D03*
X187325000Y-49555000D03*
X186055000Y-55855000D03*
X187325000Y-55855000D03*
X186055000Y-49555000D03*
X188595000Y-49555000D03*
X177800000Y-49555000D03*
X179070000Y-55855000D03*
X180340000Y-49555000D03*
X179070000Y-49555000D03*
X180340000Y-55855000D03*
X177800000Y-55855000D03*
X173990000Y-55855000D03*
X172720000Y-49555000D03*
X171450000Y-55855000D03*
X172720000Y-55855000D03*
X171450000Y-49555000D03*
X173990000Y-49555000D03*
X163195000Y-49555000D03*
X164465000Y-55855000D03*
X165735000Y-49555000D03*
X164465000Y-49555000D03*
X165735000Y-55855000D03*
X163195000Y-55855000D03*
X159385000Y-55855000D03*
X158115000Y-49555000D03*
X156845000Y-55855000D03*
X158115000Y-55855000D03*
X156845000Y-49555000D03*
X159385000Y-49555000D03*
X148590000Y-49555000D03*
X149860000Y-55855000D03*
X151130000Y-49555000D03*
X149860000Y-49555000D03*
X151130000Y-55855000D03*
X148590000Y-55855000D03*
X144780000Y-55855000D03*
X143510000Y-49555000D03*
X142240000Y-55855000D03*
X143510000Y-55855000D03*
X142240000Y-49555000D03*
X144780000Y-49555000D03*
X133985000Y-49555000D03*
X135255000Y-55855000D03*
X136525000Y-49555000D03*
X135255000Y-49555000D03*
X136525000Y-55855000D03*
X133985000Y-55855000D03*
X130175000Y-55855000D03*
X128905000Y-49555000D03*
X127635000Y-55855000D03*
X128905000Y-55855000D03*
X127635000Y-49555000D03*
X130175000Y-49555000D03*
X119380000Y-49555000D03*
X120650000Y-55855000D03*
X121920000Y-49555000D03*
X120650000Y-49555000D03*
X121920000Y-55855000D03*
X119380000Y-55855000D03*
X115570000Y-55855000D03*
X114300000Y-49555000D03*
X113030000Y-55855000D03*
X114300000Y-55855000D03*
X113030000Y-49555000D03*
X115570000Y-49555000D03*
X105156000Y-49555000D03*
X106426000Y-55855000D03*
X107696000Y-49555000D03*
X106426000Y-49555000D03*
X107696000Y-55855000D03*
X105156000Y-55855000D03*
X101092000Y-55855000D03*
X99822000Y-49555000D03*
X98552000Y-55855000D03*
X99822000Y-55855000D03*
X98552000Y-49555000D03*
X101092000Y-49555000D03*
X90170000Y-49555000D03*
X91440000Y-55855000D03*
X92710000Y-49555000D03*
X91440000Y-49555000D03*
X92710000Y-55855000D03*
X90170000Y-55855000D03*
X86360000Y-55855000D03*
X85090000Y-49555000D03*
X83820000Y-55855000D03*
X85090000Y-55855000D03*
X83820000Y-49555000D03*
X86360000Y-49555000D03*
X75692000Y-49682000D03*
X76962000Y-55982000D03*
X78232000Y-49682000D03*
X76962000Y-49682000D03*
X78232000Y-55982000D03*
X75692000Y-55982000D03*
X71628000Y-55982000D03*
X70358000Y-49682000D03*
X69088000Y-55982000D03*
X70358000Y-55982000D03*
X69088000Y-49682000D03*
X71628000Y-49682000D03*
X60960000Y-49555000D03*
X62230000Y-55855000D03*
X63500000Y-49555000D03*
X62230000Y-49555000D03*
X63500000Y-55855000D03*
X60960000Y-55855000D03*
X57150000Y-55855000D03*
X55880000Y-49555000D03*
X54610000Y-55855000D03*
X55880000Y-55855000D03*
X54610000Y-49555000D03*
X57150000Y-49555000D03*
X46228000Y-49555000D03*
X47498000Y-55855000D03*
X48768000Y-49555000D03*
X47498000Y-49555000D03*
X48768000Y-55855000D03*
X46228000Y-55855000D03*
X42418000Y-55855000D03*
X41148000Y-49555000D03*
X39878000Y-55855000D03*
X41148000Y-55855000D03*
X39878000Y-49555000D03*
X42418000Y-49555000D03*
D26*
X86749000Y-127717000D03*
X87249000Y-123317000D03*
X86249000Y-123317000D03*
X85249000Y-127717000D03*
X85749000Y-123317000D03*
X85749000Y-127717000D03*
X85249000Y-123317000D03*
X87249000Y-127717000D03*
X86749000Y-123317000D03*
X86249000Y-127717000D03*
X55110000Y-127930000D03*
X55610000Y-123530000D03*
X54610000Y-123530000D03*
X53610000Y-127930000D03*
X54110000Y-123530000D03*
X54110000Y-127930000D03*
X53610000Y-123530000D03*
X55610000Y-127930000D03*
X55110000Y-123530000D03*
X54610000Y-127930000D03*
D27*
X124187500Y-77250000D03*
X124187500Y-72050000D03*
X124187500Y-75950000D03*
X124187500Y-70750000D03*
X118382500Y-71400000D03*
X118382500Y-77250000D03*
X118382500Y-72700000D03*
X124187500Y-70100000D03*
X124187500Y-69450000D03*
X124187500Y-68800000D03*
X118382500Y-75300000D03*
X118382500Y-70750000D03*
X118382500Y-70100000D03*
X124187500Y-74000000D03*
X118382500Y-74650000D03*
X124187500Y-73350000D03*
X118382500Y-68800000D03*
X118382500Y-73350000D03*
X124187500Y-72700000D03*
X124187500Y-76600000D03*
X118382500Y-72050000D03*
X118382500Y-74000000D03*
X124187500Y-74650000D03*
X118382500Y-75950000D03*
X124187500Y-71400000D03*
X118382500Y-69450000D03*
X118382500Y-76600000D03*
X124187500Y-75300000D03*
D10*
X93345000Y-104775000D03*
X84455000Y-121920000D03*
X86995000Y-121920000D03*
X96520000Y-121285000D03*
X90805000Y-123825000D03*
X88900000Y-125095000D03*
X86233000Y-130175000D03*
X87757000Y-130175000D03*
X93980000Y-130175000D03*
X94742000Y-132334000D03*
X90170000Y-136525000D03*
X89535000Y-138430000D03*
X81915000Y-133985000D03*
X81915000Y-137795000D03*
X61595000Y-104775000D03*
X53340000Y-121920000D03*
X55245000Y-121920000D03*
X59690000Y-124460000D03*
X64770000Y-121285000D03*
X57150000Y-125095000D03*
X62230000Y-130175000D03*
X62865000Y-132080000D03*
X58420000Y-135890000D03*
X50800000Y-133985000D03*
X50800000Y-137795000D03*
X69850000Y-124460000D03*
X65405000Y-134620000D03*
X73025000Y-136525000D03*
X69850000Y-118110000D03*
X149225000Y-78740000D03*
X63500000Y-86995000D03*
X69215000Y-86995000D03*
X67310000Y-86995000D03*
X65405000Y-86995000D03*
X44450000Y-40005000D03*
X45720000Y-40005000D03*
X44450000Y-36830000D03*
X45720000Y-36830000D03*
X45720000Y-38735000D03*
X45720000Y-35560000D03*
X46990000Y-45085000D03*
X42164000Y-26670000D03*
X41275000Y-47625000D03*
X40386000Y-43180000D03*
X161925000Y-76200000D03*
X146050000Y-76200000D03*
X162560000Y-86995000D03*
X165100000Y-91440000D03*
X212090000Y-83185000D03*
X167005000Y-123190000D03*
X154940000Y-83185000D03*
X161290000Y-72390000D03*
X151765000Y-93980000D03*
X151765000Y-93980000D03*
X139065000Y-63500000D03*
X135890000Y-63500000D03*
X142875000Y-92075000D03*
X200660000Y-125730000D03*
X201930000Y-122555000D03*
X140335000Y-76200000D03*
X44450000Y-35560000D03*
X44450000Y-38735000D03*
X41275000Y-12065000D03*
X198755000Y-41275000D03*
X184150000Y-41275000D03*
X169545000Y-41275000D03*
X154940000Y-41275000D03*
X113030000Y-36195000D03*
X114935000Y-31115000D03*
X114935000Y-26670000D03*
X113665000Y-12065000D03*
X96520000Y-36195000D03*
X100330000Y-31115000D03*
X100330000Y-26670000D03*
X99060000Y-12065000D03*
X83820000Y-36195000D03*
X85852000Y-31115000D03*
X85852000Y-26670000D03*
X84455000Y-12065000D03*
X69215000Y-12065000D03*
X69215000Y-36195000D03*
X71120000Y-31115000D03*
X71120000Y-26670000D03*
X54610000Y-12065000D03*
X50165000Y-41275000D03*
X56515000Y-31115000D03*
X56515000Y-26670000D03*
X176276000Y-113792000D03*
X203200000Y-130810000D03*
X200660000Y-130810000D03*
X205105000Y-126365000D03*
X205740000Y-130175000D03*
X172339000Y-100330000D03*
X166370000Y-93980000D03*
X160655000Y-93980000D03*
X139065000Y-84455000D03*
X134620000Y-84455000D03*
X130175000Y-84455000D03*
X125730000Y-84455000D03*
X121285000Y-84455000D03*
X116840000Y-84455000D03*
X47625000Y-59690000D03*
X62230000Y-59690000D03*
X76835000Y-59690000D03*
X91440000Y-59690000D03*
X106680000Y-68580000D03*
X108204000Y-69088000D03*
X109728000Y-70104000D03*
X111252000Y-70612000D03*
X106680000Y-77724000D03*
X108204000Y-77724000D03*
X109728000Y-77724000D03*
X111252000Y-77724000D03*
X112776000Y-71120000D03*
X112776000Y-77724000D03*
X106426000Y-59690000D03*
X135255000Y-59690000D03*
X120650000Y-59690000D03*
X208280000Y-59690000D03*
X193675000Y-59690000D03*
X179070000Y-59690000D03*
X164465000Y-59690000D03*
X149860000Y-59690000D03*
X119380000Y-78105000D03*
X120015000Y-68580000D03*
X122555000Y-68580000D03*
X142240000Y-64770000D03*
X139446000Y-70866000D03*
X138430000Y-74295000D03*
X139700000Y-72390000D03*
X125095000Y-66675000D03*
X125984000Y-70739000D03*
X133985000Y-66040000D03*
X132715000Y-67310000D03*
X132080000Y-68580000D03*
X131445000Y-69850000D03*
X130302000Y-66675000D03*
X128016000Y-74422000D03*
X128905000Y-74930000D03*
X130175000Y-74930000D03*
X132715000Y-74930000D03*
X131445000Y-74930000D03*
X122555000Y-74930000D03*
X205105000Y-55880000D03*
X211455000Y-62865000D03*
X205105000Y-62865000D03*
X211455000Y-56515000D03*
X196850000Y-56515000D03*
X182245000Y-56515000D03*
X189865000Y-62865000D03*
X174625000Y-62865000D03*
X190500000Y-55880000D03*
X175895000Y-55880000D03*
X196850000Y-62865000D03*
X182245000Y-62865000D03*
X167640000Y-56515000D03*
X153035000Y-56515000D03*
X161290000Y-55880000D03*
X146685000Y-55880000D03*
X144145000Y-62865000D03*
X159385000Y-62865000D03*
X167640000Y-62865000D03*
X153035000Y-62865000D03*
X138430000Y-56515000D03*
X123825000Y-56515000D03*
X132080000Y-55880000D03*
X117475000Y-55880000D03*
X128905000Y-62865000D03*
X114300000Y-62865000D03*
X132715000Y-62865000D03*
X123825000Y-62865000D03*
X109855000Y-56515000D03*
X109855000Y-62865000D03*
X102870000Y-55880000D03*
X101600000Y-62865000D03*
X94615000Y-62865000D03*
X88265000Y-55880000D03*
X86995000Y-62865000D03*
X94615000Y-56515000D03*
X80010000Y-56515000D03*
X71755000Y-62865000D03*
X57785000Y-62865000D03*
X80010000Y-62865000D03*
X73025000Y-55880000D03*
X59055000Y-55880000D03*
X64770000Y-56515000D03*
X64770000Y-62865000D03*
X50800000Y-62865000D03*
X50800000Y-56515000D03*
X104902000Y-67310000D03*
X103632000Y-67310000D03*
X102362000Y-67310000D03*
X101092000Y-67310000D03*
X99822000Y-68580000D03*
X98552000Y-69850000D03*
X97282000Y-71120000D03*
X97282000Y-73025000D03*
X98552000Y-73660000D03*
X99822000Y-74295000D03*
X101092000Y-74930000D03*
X102362000Y-75565000D03*
X103632000Y-76200000D03*
X104902000Y-76835000D03*
X54610000Y-36195000D03*
X131445000Y-121920000D03*
X131445000Y-119380000D03*
X131445000Y-120650000D03*
X136525000Y-132715000D03*
X132715000Y-119380000D03*
X130810000Y-113030000D03*
X134620000Y-119380000D03*
X131445000Y-125730000D03*
X128270000Y-115570000D03*
X132715000Y-129540000D03*
X127381000Y-125730000D03*
X126365000Y-127635000D03*
X131445000Y-124460000D03*
X212725000Y-47625000D03*
X205105000Y-48895000D03*
X211455000Y-47625000D03*
X203835000Y-47625000D03*
X200025000Y-47625000D03*
X201930000Y-13970000D03*
X212725000Y-17145000D03*
X189865000Y-48895000D03*
X195580000Y-40005000D03*
X189230000Y-47625000D03*
X185420000Y-47625000D03*
X181610000Y-17145000D03*
X187325000Y-13970000D03*
X172720000Y-13970000D03*
X175260000Y-48895000D03*
X160655000Y-48895000D03*
X146050000Y-48895000D03*
X131445000Y-48895000D03*
X180975000Y-40005000D03*
X174625000Y-47625000D03*
X170815000Y-47625000D03*
X166370000Y-40005000D03*
X160020000Y-47625000D03*
X156210000Y-47625000D03*
X145415000Y-47625000D03*
X141605000Y-47625000D03*
X134620000Y-38100000D03*
X130810000Y-47625000D03*
X127000000Y-47625000D03*
X152400000Y-17145000D03*
X143510000Y-13970000D03*
X128905000Y-13970000D03*
X124460000Y-13970000D03*
X116840000Y-48895000D03*
X116205000Y-47625000D03*
X112395000Y-47625000D03*
X112395000Y-6985000D03*
X97155000Y-6985000D03*
X111125000Y-36195000D03*
X109220000Y-39370000D03*
X102235000Y-48895000D03*
X101600000Y-47625000D03*
X97790000Y-47625000D03*
X98425000Y-36195000D03*
X94615000Y-39370000D03*
X87630000Y-48895000D03*
X86995000Y-47625000D03*
X83185000Y-47625000D03*
X83185000Y-6985000D03*
X81915000Y-36195000D03*
X80010000Y-39370000D03*
X79375000Y-41275000D03*
X73025000Y-48895000D03*
X72390000Y-47625000D03*
X68580000Y-47625000D03*
X67945000Y-6985000D03*
X67310000Y-36195000D03*
X64770000Y-41275000D03*
X58420000Y-48895000D03*
X57785000Y-47625000D03*
X53975000Y-47625000D03*
X65405000Y-39370000D03*
X50800000Y-39370000D03*
X52705000Y-36195000D03*
X53340000Y-6985000D03*
X44323000Y-48895000D03*
X39370000Y-7620000D03*
X54610000Y-130175000D03*
X55880000Y-130175000D03*
D21*
X201345000Y-5340000D03*
X201345000Y-9900000D03*
D22*
X207645000Y-7620000D03*
D21*
X186613000Y-5340000D03*
X186613000Y-9900000D03*
D22*
X192913000Y-7620000D03*
D21*
X171881000Y-5340000D03*
X171881000Y-9900000D03*
D22*
X178181000Y-7620000D03*
D21*
X157149000Y-5340000D03*
X157149000Y-9900000D03*
D22*
X163449000Y-7620000D03*
D21*
X142417000Y-5340000D03*
X142417000Y-9900000D03*
D22*
X148717000Y-7620000D03*
D21*
X127685000Y-5340000D03*
X127685000Y-9900000D03*
D22*
X133985000Y-7620000D03*
D21*
X112953000Y-5340000D03*
X112953000Y-9900000D03*
D22*
X119253000Y-7620000D03*
D21*
X98221000Y-5340000D03*
X98221000Y-9900000D03*
D22*
X104521000Y-7620000D03*
D21*
X83489000Y-5340000D03*
X83489000Y-9900000D03*
D22*
X89789000Y-7620000D03*
D21*
X68757000Y-5340000D03*
X68757000Y-9900000D03*
D22*
X75057000Y-7620000D03*
D21*
X54025000Y-5340000D03*
X54025000Y-9900000D03*
D22*
X60325000Y-7620000D03*
D28*
X129245000Y-117400000D03*
X130545000Y-123900000D03*
X126645000Y-117400000D03*
D29*
X128270000Y-120650000D03*
D28*
X127295000Y-123900000D03*
X129245000Y-123900000D03*
X128595000Y-117400000D03*
X125995000Y-123900000D03*
X127945000Y-123900000D03*
X128595000Y-123900000D03*
X129895000Y-123900000D03*
X126645000Y-123900000D03*
X130545000Y-117400000D03*
X129895000Y-117400000D03*
X127945000Y-117400000D03*
X127295000Y-117400000D03*
X125995000Y-117400000D03*
D14*
G36*
X105980000Y-126045000D02*
G01*
X105980000Y-124145000D01*
X107380000Y-124145000D01*
X107380000Y-126045000D01*
X105980000Y-126045000D01*
G37*
G36*
X103440000Y-126045000D02*
G01*
X103440000Y-124145000D01*
X104840000Y-124145000D01*
X104840000Y-126045000D01*
X103440000Y-126045000D01*
G37*
G36*
X93915000Y-123632000D02*
G01*
X93915000Y-121732000D01*
X95315000Y-121732000D01*
X95315000Y-123632000D01*
X93915000Y-123632000D01*
G37*
G36*
X91375000Y-123632000D02*
G01*
X91375000Y-121732000D01*
X92775000Y-121732000D01*
X92775000Y-123632000D01*
X91375000Y-123632000D01*
G37*
G36*
X89474000Y-128459000D02*
G01*
X91374000Y-128459000D01*
X91374000Y-129859000D01*
X89474000Y-129859000D01*
X89474000Y-128459000D01*
G37*
G36*
X89474000Y-125919000D02*
G01*
X91374000Y-125919000D01*
X91374000Y-127319000D01*
X89474000Y-127319000D01*
X89474000Y-125919000D01*
G37*
G36*
X81219000Y-129602000D02*
G01*
X83119000Y-129602000D01*
X83119000Y-131002000D01*
X81219000Y-131002000D01*
X81219000Y-129602000D01*
G37*
G36*
X81219000Y-127062000D02*
G01*
X83119000Y-127062000D01*
X83119000Y-128462000D01*
X81219000Y-128462000D01*
X81219000Y-127062000D01*
G37*
G36*
X91374000Y-133161000D02*
G01*
X89474000Y-133161000D01*
X89474000Y-131761000D01*
X91374000Y-131761000D01*
X91374000Y-133161000D01*
G37*
G36*
X91374000Y-135701000D02*
G01*
X89474000Y-135701000D01*
X89474000Y-134301000D01*
X91374000Y-134301000D01*
X91374000Y-135701000D01*
G37*
G36*
X114615000Y-88457000D02*
G01*
X112715000Y-88457000D01*
X112715000Y-87057000D01*
X114615000Y-87057000D01*
X114615000Y-88457000D01*
G37*
G36*
X114615000Y-90997000D02*
G01*
X112715000Y-90997000D01*
X112715000Y-89597000D01*
X114615000Y-89597000D01*
X114615000Y-90997000D01*
G37*
G36*
X208600000Y-128205000D02*
G01*
X210500000Y-128205000D01*
X210500000Y-129605000D01*
X208600000Y-129605000D01*
X208600000Y-128205000D01*
G37*
G36*
X208600000Y-125665000D02*
G01*
X210500000Y-125665000D01*
X210500000Y-127065000D01*
X208600000Y-127065000D01*
X208600000Y-125665000D01*
G37*
G36*
X70805000Y-126935000D02*
G01*
X72705000Y-126935000D01*
X72705000Y-128335000D01*
X70805000Y-128335000D01*
X70805000Y-126935000D01*
G37*
G36*
X70805000Y-124395000D02*
G01*
X72705000Y-124395000D01*
X72705000Y-125795000D01*
X70805000Y-125795000D01*
X70805000Y-124395000D01*
G37*
G36*
X62165000Y-123505000D02*
G01*
X62165000Y-121605000D01*
X63565000Y-121605000D01*
X63565000Y-123505000D01*
X62165000Y-123505000D01*
G37*
G36*
X59625000Y-123505000D02*
G01*
X59625000Y-121605000D01*
X61025000Y-121605000D01*
X61025000Y-123505000D01*
X59625000Y-123505000D01*
G37*
G36*
X177099000Y-106110000D02*
G01*
X175199000Y-106110000D01*
X175199000Y-104710000D01*
X177099000Y-104710000D01*
X177099000Y-106110000D01*
G37*
G36*
X177099000Y-108650000D02*
G01*
X175199000Y-108650000D01*
X175199000Y-107250000D01*
X177099000Y-107250000D01*
X177099000Y-108650000D01*
G37*
G36*
X57470000Y-128840000D02*
G01*
X59370000Y-128840000D01*
X59370000Y-130240000D01*
X57470000Y-130240000D01*
X57470000Y-128840000D01*
G37*
G36*
X57470000Y-126300000D02*
G01*
X59370000Y-126300000D01*
X59370000Y-127700000D01*
X57470000Y-127700000D01*
X57470000Y-126300000D01*
G37*
G36*
X181926000Y-117790000D02*
G01*
X181926000Y-115890000D01*
X183326000Y-115890000D01*
X183326000Y-117790000D01*
X181926000Y-117790000D01*
G37*
G36*
X179386000Y-117790000D02*
G01*
X179386000Y-115890000D01*
X180786000Y-115890000D01*
X180786000Y-117790000D01*
X179386000Y-117790000D01*
G37*
G36*
X49850000Y-129475000D02*
G01*
X51750000Y-129475000D01*
X51750000Y-130875000D01*
X49850000Y-130875000D01*
X49850000Y-129475000D01*
G37*
G36*
X49850000Y-126935000D02*
G01*
X51750000Y-126935000D01*
X51750000Y-128335000D01*
X49850000Y-128335000D01*
X49850000Y-126935000D01*
G37*
G36*
X59370000Y-132780000D02*
G01*
X57470000Y-132780000D01*
X57470000Y-131380000D01*
X59370000Y-131380000D01*
X59370000Y-132780000D01*
G37*
G36*
X59370000Y-135320000D02*
G01*
X57470000Y-135320000D01*
X57470000Y-133920000D01*
X59370000Y-133920000D01*
X59370000Y-135320000D01*
G37*
G36*
X182180000Y-131760000D02*
G01*
X182180000Y-129860000D01*
X183580000Y-129860000D01*
X183580000Y-131760000D01*
X182180000Y-131760000D01*
G37*
G36*
X179640000Y-131760000D02*
G01*
X179640000Y-129860000D01*
X181040000Y-129860000D01*
X181040000Y-131760000D01*
X179640000Y-131760000D01*
G37*
G36*
X210500000Y-41975000D02*
G01*
X208600000Y-41975000D01*
X208600000Y-40575000D01*
X210500000Y-40575000D01*
X210500000Y-41975000D01*
G37*
G36*
X210500000Y-44515000D02*
G01*
X208600000Y-44515000D01*
X208600000Y-43115000D01*
X210500000Y-43115000D01*
X210500000Y-44515000D01*
G37*
G36*
X195260000Y-41975000D02*
G01*
X193360000Y-41975000D01*
X193360000Y-40575000D01*
X195260000Y-40575000D01*
X195260000Y-41975000D01*
G37*
G36*
X195260000Y-44515000D02*
G01*
X193360000Y-44515000D01*
X193360000Y-43115000D01*
X195260000Y-43115000D01*
X195260000Y-44515000D01*
G37*
G36*
X180655000Y-41975000D02*
G01*
X178755000Y-41975000D01*
X178755000Y-40575000D01*
X180655000Y-40575000D01*
X180655000Y-41975000D01*
G37*
G36*
X180655000Y-44515000D02*
G01*
X178755000Y-44515000D01*
X178755000Y-43115000D01*
X180655000Y-43115000D01*
X180655000Y-44515000D01*
G37*
G36*
X166050000Y-41975000D02*
G01*
X164150000Y-41975000D01*
X164150000Y-40575000D01*
X166050000Y-40575000D01*
X166050000Y-41975000D01*
G37*
G36*
X166050000Y-44515000D02*
G01*
X164150000Y-44515000D01*
X164150000Y-43115000D01*
X166050000Y-43115000D01*
X166050000Y-44515000D01*
G37*
G36*
X151445000Y-41975000D02*
G01*
X149545000Y-41975000D01*
X149545000Y-40575000D01*
X151445000Y-40575000D01*
X151445000Y-41975000D01*
G37*
G36*
X151445000Y-44515000D02*
G01*
X149545000Y-44515000D01*
X149545000Y-43115000D01*
X151445000Y-43115000D01*
X151445000Y-44515000D01*
G37*
G36*
X136840000Y-41975000D02*
G01*
X134940000Y-41975000D01*
X134940000Y-40575000D01*
X136840000Y-40575000D01*
X136840000Y-41975000D01*
G37*
G36*
X136840000Y-44515000D02*
G01*
X134940000Y-44515000D01*
X134940000Y-43115000D01*
X136840000Y-43115000D01*
X136840000Y-44515000D01*
G37*
G36*
X205675000Y-46670000D02*
G01*
X205675000Y-44770000D01*
X207075000Y-44770000D01*
X207075000Y-46670000D01*
X205675000Y-46670000D01*
G37*
G36*
X203135000Y-46670000D02*
G01*
X203135000Y-44770000D01*
X204535000Y-44770000D01*
X204535000Y-46670000D01*
X203135000Y-46670000D01*
G37*
G36*
X191070000Y-46670000D02*
G01*
X191070000Y-44770000D01*
X192470000Y-44770000D01*
X192470000Y-46670000D01*
X191070000Y-46670000D01*
G37*
G36*
X188530000Y-46670000D02*
G01*
X188530000Y-44770000D01*
X189930000Y-44770000D01*
X189930000Y-46670000D01*
X188530000Y-46670000D01*
G37*
G36*
X176465000Y-46670000D02*
G01*
X176465000Y-44770000D01*
X177865000Y-44770000D01*
X177865000Y-46670000D01*
X176465000Y-46670000D01*
G37*
G36*
X173925000Y-46670000D02*
G01*
X173925000Y-44770000D01*
X175325000Y-44770000D01*
X175325000Y-46670000D01*
X173925000Y-46670000D01*
G37*
G36*
X161860000Y-46670000D02*
G01*
X161860000Y-44770000D01*
X163260000Y-44770000D01*
X163260000Y-46670000D01*
X161860000Y-46670000D01*
G37*
G36*
X159320000Y-46670000D02*
G01*
X159320000Y-44770000D01*
X160720000Y-44770000D01*
X160720000Y-46670000D01*
X159320000Y-46670000D01*
G37*
G36*
X147255000Y-46670000D02*
G01*
X147255000Y-44770000D01*
X148655000Y-44770000D01*
X148655000Y-46670000D01*
X147255000Y-46670000D01*
G37*
G36*
X144715000Y-46670000D02*
G01*
X144715000Y-44770000D01*
X146115000Y-44770000D01*
X146115000Y-46670000D01*
X144715000Y-46670000D01*
G37*
G36*
X132650000Y-46670000D02*
G01*
X132650000Y-44770000D01*
X134050000Y-44770000D01*
X134050000Y-46670000D01*
X132650000Y-46670000D01*
G37*
G36*
X130110000Y-46670000D02*
G01*
X130110000Y-44770000D01*
X131510000Y-44770000D01*
X131510000Y-46670000D01*
X130110000Y-46670000D01*
G37*
G36*
X200340000Y-28640000D02*
G01*
X198440000Y-28640000D01*
X198440000Y-27240000D01*
X200340000Y-27240000D01*
X200340000Y-28640000D01*
G37*
G36*
X200340000Y-31180000D02*
G01*
X198440000Y-31180000D01*
X198440000Y-29780000D01*
X200340000Y-29780000D01*
X200340000Y-31180000D01*
G37*
G36*
X185735000Y-28640000D02*
G01*
X183835000Y-28640000D01*
X183835000Y-27240000D01*
X185735000Y-27240000D01*
X185735000Y-28640000D01*
G37*
G36*
X185735000Y-31180000D02*
G01*
X183835000Y-31180000D01*
X183835000Y-29780000D01*
X185735000Y-29780000D01*
X185735000Y-31180000D01*
G37*
G36*
X171130000Y-28640000D02*
G01*
X169230000Y-28640000D01*
X169230000Y-27240000D01*
X171130000Y-27240000D01*
X171130000Y-28640000D01*
G37*
G36*
X171130000Y-31180000D02*
G01*
X169230000Y-31180000D01*
X169230000Y-29780000D01*
X171130000Y-29780000D01*
X171130000Y-31180000D01*
G37*
G36*
X156525000Y-28640000D02*
G01*
X154625000Y-28640000D01*
X154625000Y-27240000D01*
X156525000Y-27240000D01*
X156525000Y-28640000D01*
G37*
G36*
X156525000Y-31180000D02*
G01*
X154625000Y-31180000D01*
X154625000Y-29780000D01*
X156525000Y-29780000D01*
X156525000Y-31180000D01*
G37*
G36*
X144715000Y-124775000D02*
G01*
X144715000Y-122875000D01*
X146115000Y-122875000D01*
X146115000Y-124775000D01*
X144715000Y-124775000D01*
G37*
G36*
X142175000Y-124775000D02*
G01*
X142175000Y-122875000D01*
X143575000Y-122875000D01*
X143575000Y-124775000D01*
X142175000Y-124775000D01*
G37*
G36*
X131765000Y-122490000D02*
G01*
X133665000Y-122490000D01*
X133665000Y-123890000D01*
X131765000Y-123890000D01*
X131765000Y-122490000D01*
G37*
G36*
X131765000Y-119950000D02*
G01*
X133665000Y-119950000D01*
X133665000Y-121350000D01*
X131765000Y-121350000D01*
X131765000Y-119950000D01*
G37*
D18*
X139141200Y-120650000D03*
X136588500Y-123190000D03*
X136588500Y-118110000D03*
D14*
G36*
X133665000Y-126430000D02*
G01*
X131765000Y-126430000D01*
X131765000Y-125030000D01*
X133665000Y-125030000D01*
X133665000Y-126430000D01*
G37*
G36*
X133665000Y-128970000D02*
G01*
X131765000Y-128970000D01*
X131765000Y-127570000D01*
X133665000Y-127570000D01*
X133665000Y-128970000D01*
G37*
G36*
X125795000Y-65725000D02*
G01*
X125795000Y-67625000D01*
X124395000Y-67625000D01*
X124395000Y-65725000D01*
X125795000Y-65725000D01*
G37*
G36*
X128335000Y-65725000D02*
G01*
X128335000Y-67625000D01*
X126935000Y-67625000D01*
X126935000Y-65725000D01*
X128335000Y-65725000D01*
G37*
G36*
X141920000Y-28640000D02*
G01*
X140020000Y-28640000D01*
X140020000Y-27240000D01*
X141920000Y-27240000D01*
X141920000Y-28640000D01*
G37*
G36*
X141920000Y-31180000D02*
G01*
X140020000Y-31180000D01*
X140020000Y-29780000D01*
X141920000Y-29780000D01*
X141920000Y-31180000D01*
G37*
G36*
X128458000Y-28767000D02*
G01*
X126558000Y-28767000D01*
X126558000Y-27367000D01*
X128458000Y-27367000D01*
X128458000Y-28767000D01*
G37*
G36*
X128458000Y-31307000D02*
G01*
X126558000Y-31307000D01*
X126558000Y-29907000D01*
X128458000Y-29907000D01*
X128458000Y-31307000D01*
G37*
G36*
X128458000Y-23687000D02*
G01*
X126558000Y-23687000D01*
X126558000Y-22287000D01*
X128458000Y-22287000D01*
X128458000Y-23687000D01*
G37*
G36*
X128458000Y-26227000D02*
G01*
X126558000Y-26227000D01*
X126558000Y-24827000D01*
X128458000Y-24827000D01*
X128458000Y-26227000D01*
G37*
G36*
X200340000Y-23560000D02*
G01*
X198440000Y-23560000D01*
X198440000Y-22160000D01*
X200340000Y-22160000D01*
X200340000Y-23560000D01*
G37*
G36*
X200340000Y-26100000D02*
G01*
X198440000Y-26100000D01*
X198440000Y-24700000D01*
X200340000Y-24700000D01*
X200340000Y-26100000D01*
G37*
G36*
X185735000Y-23560000D02*
G01*
X183835000Y-23560000D01*
X183835000Y-22160000D01*
X185735000Y-22160000D01*
X185735000Y-23560000D01*
G37*
G36*
X185735000Y-26100000D02*
G01*
X183835000Y-26100000D01*
X183835000Y-24700000D01*
X185735000Y-24700000D01*
X185735000Y-26100000D01*
G37*
G36*
X171130000Y-23560000D02*
G01*
X169230000Y-23560000D01*
X169230000Y-22160000D01*
X171130000Y-22160000D01*
X171130000Y-23560000D01*
G37*
G36*
X171130000Y-26100000D02*
G01*
X169230000Y-26100000D01*
X169230000Y-24700000D01*
X171130000Y-24700000D01*
X171130000Y-26100000D01*
G37*
G36*
X156525000Y-23560000D02*
G01*
X154625000Y-23560000D01*
X154625000Y-22160000D01*
X156525000Y-22160000D01*
X156525000Y-23560000D01*
G37*
G36*
X156525000Y-26100000D02*
G01*
X154625000Y-26100000D01*
X154625000Y-24700000D01*
X156525000Y-24700000D01*
X156525000Y-26100000D01*
G37*
G36*
X141920000Y-23560000D02*
G01*
X140020000Y-23560000D01*
X140020000Y-22160000D01*
X141920000Y-22160000D01*
X141920000Y-23560000D01*
G37*
G36*
X141920000Y-26100000D02*
G01*
X140020000Y-26100000D01*
X140020000Y-24700000D01*
X141920000Y-24700000D01*
X141920000Y-26100000D01*
G37*
G36*
X199710000Y-60260000D02*
G01*
X201610000Y-60260000D01*
X201610000Y-61660000D01*
X199710000Y-61660000D01*
X199710000Y-60260000D01*
G37*
G36*
X199710000Y-57720000D02*
G01*
X201610000Y-57720000D01*
X201610000Y-59120000D01*
X199710000Y-59120000D01*
X199710000Y-57720000D01*
G37*
G36*
X185105000Y-60260000D02*
G01*
X187005000Y-60260000D01*
X187005000Y-61660000D01*
X185105000Y-61660000D01*
X185105000Y-60260000D01*
G37*
G36*
X185105000Y-57720000D02*
G01*
X187005000Y-57720000D01*
X187005000Y-59120000D01*
X185105000Y-59120000D01*
X185105000Y-57720000D01*
G37*
G36*
X170500000Y-60260000D02*
G01*
X172400000Y-60260000D01*
X172400000Y-61660000D01*
X170500000Y-61660000D01*
X170500000Y-60260000D01*
G37*
G36*
X170500000Y-57720000D02*
G01*
X172400000Y-57720000D01*
X172400000Y-59120000D01*
X170500000Y-59120000D01*
X170500000Y-57720000D01*
G37*
G36*
X155895000Y-60260000D02*
G01*
X157795000Y-60260000D01*
X157795000Y-61660000D01*
X155895000Y-61660000D01*
X155895000Y-60260000D01*
G37*
G36*
X155895000Y-57720000D02*
G01*
X157795000Y-57720000D01*
X157795000Y-59120000D01*
X155895000Y-59120000D01*
X155895000Y-57720000D01*
G37*
G36*
X141290000Y-60260000D02*
G01*
X143190000Y-60260000D01*
X143190000Y-61660000D01*
X141290000Y-61660000D01*
X141290000Y-60260000D01*
G37*
G36*
X141290000Y-57720000D02*
G01*
X143190000Y-57720000D01*
X143190000Y-59120000D01*
X141290000Y-59120000D01*
X141290000Y-57720000D01*
G37*
G36*
X126685000Y-60260000D02*
G01*
X128585000Y-60260000D01*
X128585000Y-61660000D01*
X126685000Y-61660000D01*
X126685000Y-60260000D01*
G37*
G36*
X126685000Y-57720000D02*
G01*
X128585000Y-57720000D01*
X128585000Y-59120000D01*
X126685000Y-59120000D01*
X126685000Y-57720000D01*
G37*
G36*
X122235000Y-41975000D02*
G01*
X120335000Y-41975000D01*
X120335000Y-40575000D01*
X122235000Y-40575000D01*
X122235000Y-41975000D01*
G37*
G36*
X122235000Y-44515000D02*
G01*
X120335000Y-44515000D01*
X120335000Y-43115000D01*
X122235000Y-43115000D01*
X122235000Y-44515000D01*
G37*
G36*
X107630000Y-41975000D02*
G01*
X105730000Y-41975000D01*
X105730000Y-40575000D01*
X107630000Y-40575000D01*
X107630000Y-41975000D01*
G37*
G36*
X107630000Y-44515000D02*
G01*
X105730000Y-44515000D01*
X105730000Y-43115000D01*
X107630000Y-43115000D01*
X107630000Y-44515000D01*
G37*
G36*
X93025000Y-41975000D02*
G01*
X91125000Y-41975000D01*
X91125000Y-40575000D01*
X93025000Y-40575000D01*
X93025000Y-41975000D01*
G37*
G36*
X93025000Y-44515000D02*
G01*
X91125000Y-44515000D01*
X91125000Y-43115000D01*
X93025000Y-43115000D01*
X93025000Y-44515000D01*
G37*
G36*
X78420000Y-42102000D02*
G01*
X76520000Y-42102000D01*
X76520000Y-40702000D01*
X78420000Y-40702000D01*
X78420000Y-42102000D01*
G37*
G36*
X78420000Y-44642000D02*
G01*
X76520000Y-44642000D01*
X76520000Y-43242000D01*
X78420000Y-43242000D01*
X78420000Y-44642000D01*
G37*
G36*
X63815000Y-41975000D02*
G01*
X61915000Y-41975000D01*
X61915000Y-40575000D01*
X63815000Y-40575000D01*
X63815000Y-41975000D01*
G37*
G36*
X63815000Y-44515000D02*
G01*
X61915000Y-44515000D01*
X61915000Y-43115000D01*
X63815000Y-43115000D01*
X63815000Y-44515000D01*
G37*
G36*
X49210000Y-41975000D02*
G01*
X47310000Y-41975000D01*
X47310000Y-40575000D01*
X49210000Y-40575000D01*
X49210000Y-41975000D01*
G37*
G36*
X49210000Y-44515000D02*
G01*
X47310000Y-44515000D01*
X47310000Y-43115000D01*
X49210000Y-43115000D01*
X49210000Y-44515000D01*
G37*
G36*
X118045000Y-46670000D02*
G01*
X118045000Y-44770000D01*
X119445000Y-44770000D01*
X119445000Y-46670000D01*
X118045000Y-46670000D01*
G37*
G36*
X115505000Y-46670000D02*
G01*
X115505000Y-44770000D01*
X116905000Y-44770000D01*
X116905000Y-46670000D01*
X115505000Y-46670000D01*
G37*
G36*
X103440000Y-46670000D02*
G01*
X103440000Y-44770000D01*
X104840000Y-44770000D01*
X104840000Y-46670000D01*
X103440000Y-46670000D01*
G37*
G36*
X100900000Y-46670000D02*
G01*
X100900000Y-44770000D01*
X102300000Y-44770000D01*
X102300000Y-46670000D01*
X100900000Y-46670000D01*
G37*
G36*
X88835000Y-46670000D02*
G01*
X88835000Y-44770000D01*
X90235000Y-44770000D01*
X90235000Y-46670000D01*
X88835000Y-46670000D01*
G37*
G36*
X86295000Y-46670000D02*
G01*
X86295000Y-44770000D01*
X87695000Y-44770000D01*
X87695000Y-46670000D01*
X86295000Y-46670000D01*
G37*
G36*
X74230000Y-46670000D02*
G01*
X74230000Y-44770000D01*
X75630000Y-44770000D01*
X75630000Y-46670000D01*
X74230000Y-46670000D01*
G37*
G36*
X71690000Y-46670000D02*
G01*
X71690000Y-44770000D01*
X73090000Y-44770000D01*
X73090000Y-46670000D01*
X71690000Y-46670000D01*
G37*
G36*
X59625000Y-46670000D02*
G01*
X59625000Y-44770000D01*
X61025000Y-44770000D01*
X61025000Y-46670000D01*
X59625000Y-46670000D01*
G37*
G36*
X57085000Y-46670000D02*
G01*
X57085000Y-44770000D01*
X58485000Y-44770000D01*
X58485000Y-46670000D01*
X57085000Y-46670000D01*
G37*
G36*
X112080000Y-24700000D02*
G01*
X113980000Y-24700000D01*
X113980000Y-26100000D01*
X112080000Y-26100000D01*
X112080000Y-24700000D01*
G37*
G36*
X112080000Y-22160000D02*
G01*
X113980000Y-22160000D01*
X113980000Y-23560000D01*
X112080000Y-23560000D01*
X112080000Y-22160000D01*
G37*
G36*
X97602000Y-24700000D02*
G01*
X99502000Y-24700000D01*
X99502000Y-26100000D01*
X97602000Y-26100000D01*
X97602000Y-24700000D01*
G37*
G36*
X97602000Y-22160000D02*
G01*
X99502000Y-22160000D01*
X99502000Y-23560000D01*
X97602000Y-23560000D01*
X97602000Y-22160000D01*
G37*
G36*
X82870000Y-24446000D02*
G01*
X84770000Y-24446000D01*
X84770000Y-25846000D01*
X82870000Y-25846000D01*
X82870000Y-24446000D01*
G37*
G36*
X82870000Y-21906000D02*
G01*
X84770000Y-21906000D01*
X84770000Y-23306000D01*
X82870000Y-23306000D01*
X82870000Y-21906000D01*
G37*
G36*
X68138000Y-24700000D02*
G01*
X70038000Y-24700000D01*
X70038000Y-26100000D01*
X68138000Y-26100000D01*
X68138000Y-24700000D01*
G37*
G36*
X68138000Y-22160000D02*
G01*
X70038000Y-22160000D01*
X70038000Y-23560000D01*
X68138000Y-23560000D01*
X68138000Y-22160000D01*
G37*
G36*
X53660000Y-24700000D02*
G01*
X55560000Y-24700000D01*
X55560000Y-26100000D01*
X53660000Y-26100000D01*
X53660000Y-24700000D01*
G37*
G36*
X53660000Y-22160000D02*
G01*
X55560000Y-22160000D01*
X55560000Y-23560000D01*
X53660000Y-23560000D01*
X53660000Y-22160000D01*
G37*
G36*
X39690000Y-24065000D02*
G01*
X41590000Y-24065000D01*
X41590000Y-25465000D01*
X39690000Y-25465000D01*
X39690000Y-24065000D01*
G37*
G36*
X39690000Y-21525000D02*
G01*
X41590000Y-21525000D01*
X41590000Y-22925000D01*
X39690000Y-22925000D01*
X39690000Y-21525000D01*
G37*
G36*
X112080000Y-29780000D02*
G01*
X113980000Y-29780000D01*
X113980000Y-31180000D01*
X112080000Y-31180000D01*
X112080000Y-29780000D01*
G37*
G36*
X112080000Y-27240000D02*
G01*
X113980000Y-27240000D01*
X113980000Y-28640000D01*
X112080000Y-28640000D01*
X112080000Y-27240000D01*
G37*
G36*
X97602000Y-29780000D02*
G01*
X99502000Y-29780000D01*
X99502000Y-31180000D01*
X97602000Y-31180000D01*
X97602000Y-29780000D01*
G37*
G36*
X97602000Y-27240000D02*
G01*
X99502000Y-27240000D01*
X99502000Y-28640000D01*
X97602000Y-28640000D01*
X97602000Y-27240000D01*
G37*
G36*
X82870000Y-29780000D02*
G01*
X84770000Y-29780000D01*
X84770000Y-31180000D01*
X82870000Y-31180000D01*
X82870000Y-29780000D01*
G37*
G36*
X82870000Y-27240000D02*
G01*
X84770000Y-27240000D01*
X84770000Y-28640000D01*
X82870000Y-28640000D01*
X82870000Y-27240000D01*
G37*
G36*
X39690000Y-29780000D02*
G01*
X41590000Y-29780000D01*
X41590000Y-31180000D01*
X39690000Y-31180000D01*
X39690000Y-29780000D01*
G37*
G36*
X39690000Y-27240000D02*
G01*
X41590000Y-27240000D01*
X41590000Y-28640000D01*
X39690000Y-28640000D01*
X39690000Y-27240000D01*
G37*
G36*
X68138000Y-29780000D02*
G01*
X70038000Y-29780000D01*
X70038000Y-31180000D01*
X68138000Y-31180000D01*
X68138000Y-29780000D01*
G37*
G36*
X68138000Y-27240000D02*
G01*
X70038000Y-27240000D01*
X70038000Y-28640000D01*
X68138000Y-28640000D01*
X68138000Y-27240000D01*
G37*
G36*
X53660000Y-29780000D02*
G01*
X55560000Y-29780000D01*
X55560000Y-31180000D01*
X53660000Y-31180000D01*
X53660000Y-29780000D01*
G37*
G36*
X53660000Y-27240000D02*
G01*
X55560000Y-27240000D01*
X55560000Y-28640000D01*
X53660000Y-28640000D01*
X53660000Y-27240000D01*
G37*
G36*
X112080000Y-60260000D02*
G01*
X113980000Y-60260000D01*
X113980000Y-61660000D01*
X112080000Y-61660000D01*
X112080000Y-60260000D01*
G37*
G36*
X112080000Y-57720000D02*
G01*
X113980000Y-57720000D01*
X113980000Y-59120000D01*
X112080000Y-59120000D01*
X112080000Y-57720000D01*
G37*
G36*
X97475000Y-60260000D02*
G01*
X99375000Y-60260000D01*
X99375000Y-61660000D01*
X97475000Y-61660000D01*
X97475000Y-60260000D01*
G37*
G36*
X97475000Y-57720000D02*
G01*
X99375000Y-57720000D01*
X99375000Y-59120000D01*
X97475000Y-59120000D01*
X97475000Y-57720000D01*
G37*
G36*
X82870000Y-60260000D02*
G01*
X84770000Y-60260000D01*
X84770000Y-61660000D01*
X82870000Y-61660000D01*
X82870000Y-60260000D01*
G37*
G36*
X82870000Y-57720000D02*
G01*
X84770000Y-57720000D01*
X84770000Y-59120000D01*
X82870000Y-59120000D01*
X82870000Y-57720000D01*
G37*
G36*
X68265000Y-60260000D02*
G01*
X70165000Y-60260000D01*
X70165000Y-61660000D01*
X68265000Y-61660000D01*
X68265000Y-60260000D01*
G37*
G36*
X68265000Y-57720000D02*
G01*
X70165000Y-57720000D01*
X70165000Y-59120000D01*
X68265000Y-59120000D01*
X68265000Y-57720000D01*
G37*
G36*
X53660000Y-60260000D02*
G01*
X55560000Y-60260000D01*
X55560000Y-61660000D01*
X53660000Y-61660000D01*
X53660000Y-60260000D01*
G37*
G36*
X53660000Y-57720000D02*
G01*
X55560000Y-57720000D01*
X55560000Y-59120000D01*
X53660000Y-59120000D01*
X53660000Y-57720000D01*
G37*
G36*
X38928000Y-60260000D02*
G01*
X40828000Y-60260000D01*
X40828000Y-61660000D01*
X38928000Y-61660000D01*
X38928000Y-60260000D01*
G37*
G36*
X38928000Y-57720000D02*
G01*
X40828000Y-57720000D01*
X40828000Y-59120000D01*
X38928000Y-59120000D01*
X38928000Y-57720000D01*
G37*
G36*
X44130000Y-45404000D02*
G01*
X42230000Y-45404000D01*
X42230000Y-44004000D01*
X44130000Y-44004000D01*
X44130000Y-45404000D01*
G37*
G36*
X44130000Y-47944000D02*
G01*
X42230000Y-47944000D01*
X42230000Y-46544000D01*
X44130000Y-46544000D01*
X44130000Y-47944000D01*
G37*
D30*
X94234000Y-126562000D03*
X95184000Y-128762000D03*
X93284000Y-128762000D03*
X62230000Y-126435000D03*
X63180000Y-128635000D03*
X61280000Y-128635000D03*
X204384000Y-128209000D03*
X202184000Y-129159000D03*
X202184000Y-127259000D03*
X198190000Y-128270000D03*
X200390000Y-127320000D03*
X200390000Y-129220000D03*
D31*
X201170000Y-117475000D03*
X204810000Y-117475000D03*
D32*
X212090000Y-117475000D03*
D31*
X208450000Y-117475000D03*
D33*
X209296000Y-88264000D03*
X206756000Y-81914000D03*
D34*
X215646000Y-92076000D03*
D33*
X209296000Y-83184000D03*
X206756000Y-89534000D03*
X209296000Y-85724000D03*
X206756000Y-86994000D03*
X206756000Y-84454000D03*
X209296000Y-90804000D03*
D34*
X215646000Y-80644000D03*
D31*
X201170000Y-100965000D03*
X204810000Y-100965000D03*
D32*
X212090000Y-100965000D03*
D31*
X208450000Y-100965000D03*
D17*
X104194000Y-128000000D03*
D18*
X106734000Y-128000000D03*
D35*
X85090000Y-135890000D03*
X87630000Y-135890000D03*
D36*
X126775000Y-132842000D03*
X133575000Y-132842000D03*
D35*
X207010000Y-128905000D03*
X207010000Y-126365000D03*
D17*
X66194000Y-128000000D03*
D18*
X68734000Y-128000000D03*
D37*
X178689000Y-104050000D03*
X178689000Y-105500000D03*
D17*
X180194000Y-119380000D03*
D18*
X182734000Y-119380000D03*
D35*
X53340000Y-135255000D03*
X55880000Y-135255000D03*
D17*
X180194000Y-128000000D03*
D18*
X182734000Y-128000000D03*
D36*
X208505000Y-17145000D03*
X201705000Y-17145000D03*
X193900000Y-17145000D03*
X187100000Y-17145000D03*
X179295000Y-17145000D03*
X172495000Y-17145000D03*
X164690000Y-17145000D03*
X157890000Y-17145000D03*
X150085000Y-17145000D03*
X143285000Y-17145000D03*
X135480000Y-17145000D03*
X128680000Y-17145000D03*
D17*
X203835000Y-42545000D03*
D18*
X206375000Y-42545000D03*
D17*
X189218455Y-42545000D03*
D18*
X191758455Y-42545000D03*
D17*
X174601909Y-42545000D03*
D18*
X177141909Y-42545000D03*
D17*
X159985364Y-42545000D03*
D18*
X162525364Y-42545000D03*
D17*
X145368818Y-42545000D03*
D18*
X147908818Y-42545000D03*
D17*
X130752273Y-42545000D03*
D18*
X133292273Y-42545000D03*
D36*
X120748000Y-16764000D03*
X113948000Y-16764000D03*
X106016000Y-16764000D03*
X99216000Y-16764000D03*
D17*
X142194000Y-128000000D03*
D18*
X144734000Y-128000000D03*
D36*
X91284000Y-16764000D03*
X84484000Y-16764000D03*
X77060000Y-16764000D03*
X70260000Y-16764000D03*
X62328000Y-16764000D03*
X55528000Y-16764000D03*
X47596000Y-16764000D03*
X40796000Y-16764000D03*
D17*
X116135727Y-42545000D03*
D18*
X118675727Y-42545000D03*
D17*
X101519182Y-42545000D03*
D18*
X104059182Y-42545000D03*
D17*
X86902636Y-42545000D03*
D18*
X89442636Y-42545000D03*
D17*
X72286091Y-42545000D03*
D18*
X74826091Y-42545000D03*
D17*
X57669540Y-42545000D03*
D18*
X60209540Y-42545000D03*
D14*
G36*
X206695000Y-29145000D02*
G01*
X208595000Y-29145000D01*
X208595000Y-30545000D01*
X206695000Y-30545000D01*
X206695000Y-29145000D01*
G37*
G36*
X206695000Y-26605000D02*
G01*
X208595000Y-26605000D01*
X208595000Y-28005000D01*
X206695000Y-28005000D01*
X206695000Y-26605000D01*
G37*
G36*
X192090000Y-29145000D02*
G01*
X193990000Y-29145000D01*
X193990000Y-30545000D01*
X192090000Y-30545000D01*
X192090000Y-29145000D01*
G37*
G36*
X192090000Y-26605000D02*
G01*
X193990000Y-26605000D01*
X193990000Y-28005000D01*
X192090000Y-28005000D01*
X192090000Y-26605000D01*
G37*
G36*
X177485000Y-29018000D02*
G01*
X179385000Y-29018000D01*
X179385000Y-30418000D01*
X177485000Y-30418000D01*
X177485000Y-29018000D01*
G37*
G36*
X177485000Y-26478000D02*
G01*
X179385000Y-26478000D01*
X179385000Y-27878000D01*
X177485000Y-27878000D01*
X177485000Y-26478000D01*
G37*
G36*
X162880000Y-29145000D02*
G01*
X164780000Y-29145000D01*
X164780000Y-30545000D01*
X162880000Y-30545000D01*
X162880000Y-29145000D01*
G37*
G36*
X162880000Y-26605000D02*
G01*
X164780000Y-26605000D01*
X164780000Y-28005000D01*
X162880000Y-28005000D01*
X162880000Y-26605000D01*
G37*
G36*
X148275000Y-29145000D02*
G01*
X150175000Y-29145000D01*
X150175000Y-30545000D01*
X148275000Y-30545000D01*
X148275000Y-29145000D01*
G37*
G36*
X148275000Y-26605000D02*
G01*
X150175000Y-26605000D01*
X150175000Y-28005000D01*
X148275000Y-28005000D01*
X148275000Y-26605000D01*
G37*
G36*
X133670000Y-29018000D02*
G01*
X135570000Y-29018000D01*
X135570000Y-30418000D01*
X133670000Y-30418000D01*
X133670000Y-29018000D01*
G37*
G36*
X133670000Y-26478000D02*
G01*
X135570000Y-26478000D01*
X135570000Y-27878000D01*
X133670000Y-27878000D01*
X133670000Y-26478000D01*
G37*
G36*
X46040000Y-29018000D02*
G01*
X47940000Y-29018000D01*
X47940000Y-30418000D01*
X46040000Y-30418000D01*
X46040000Y-29018000D01*
G37*
G36*
X46040000Y-26478000D02*
G01*
X47940000Y-26478000D01*
X47940000Y-27878000D01*
X46040000Y-27878000D01*
X46040000Y-26478000D01*
G37*
G36*
X118938000Y-29018000D02*
G01*
X120838000Y-29018000D01*
X120838000Y-30418000D01*
X118938000Y-30418000D01*
X118938000Y-29018000D01*
G37*
G36*
X118938000Y-26478000D02*
G01*
X120838000Y-26478000D01*
X120838000Y-27878000D01*
X118938000Y-27878000D01*
X118938000Y-26478000D01*
G37*
G36*
X104206000Y-29018000D02*
G01*
X106106000Y-29018000D01*
X106106000Y-30418000D01*
X104206000Y-30418000D01*
X104206000Y-29018000D01*
G37*
G36*
X104206000Y-26478000D02*
G01*
X106106000Y-26478000D01*
X106106000Y-27878000D01*
X104206000Y-27878000D01*
X104206000Y-26478000D01*
G37*
G36*
X89982000Y-29018000D02*
G01*
X91882000Y-29018000D01*
X91882000Y-30418000D01*
X89982000Y-30418000D01*
X89982000Y-29018000D01*
G37*
G36*
X89982000Y-26478000D02*
G01*
X91882000Y-26478000D01*
X91882000Y-27878000D01*
X89982000Y-27878000D01*
X89982000Y-26478000D01*
G37*
G36*
X75250000Y-29018000D02*
G01*
X77150000Y-29018000D01*
X77150000Y-30418000D01*
X75250000Y-30418000D01*
X75250000Y-29018000D01*
G37*
G36*
X75250000Y-26478000D02*
G01*
X77150000Y-26478000D01*
X77150000Y-27878000D01*
X75250000Y-27878000D01*
X75250000Y-26478000D01*
G37*
G36*
X60518000Y-29018000D02*
G01*
X62418000Y-29018000D01*
X62418000Y-30418000D01*
X60518000Y-30418000D01*
X60518000Y-29018000D01*
G37*
G36*
X60518000Y-26478000D02*
G01*
X62418000Y-26478000D01*
X62418000Y-27878000D01*
X60518000Y-27878000D01*
X60518000Y-26478000D01*
G37*
G36*
X175575000Y-85155000D02*
G01*
X173675000Y-85155000D01*
X173675000Y-83755000D01*
X175575000Y-83755000D01*
X175575000Y-85155000D01*
G37*
G36*
X175575000Y-87695000D02*
G01*
X173675000Y-87695000D01*
X173675000Y-86295000D01*
X175575000Y-86295000D01*
X175575000Y-87695000D01*
G37*
G36*
X99380000Y-115505000D02*
G01*
X101280000Y-115505000D01*
X101280000Y-116905000D01*
X99380000Y-116905000D01*
X99380000Y-115505000D01*
G37*
G36*
X99380000Y-112965000D02*
G01*
X101280000Y-112965000D01*
X101280000Y-114365000D01*
X99380000Y-114365000D01*
X99380000Y-112965000D01*
G37*
G36*
X178115000Y-85155000D02*
G01*
X176215000Y-85155000D01*
X176215000Y-83755000D01*
X178115000Y-83755000D01*
X178115000Y-85155000D01*
G37*
G36*
X178115000Y-87695000D02*
G01*
X176215000Y-87695000D01*
X176215000Y-86295000D01*
X178115000Y-86295000D01*
X178115000Y-87695000D01*
G37*
G36*
X171765000Y-85155000D02*
G01*
X169865000Y-85155000D01*
X169865000Y-83755000D01*
X171765000Y-83755000D01*
X171765000Y-85155000D01*
G37*
G36*
X171765000Y-87695000D02*
G01*
X169865000Y-87695000D01*
X169865000Y-86295000D01*
X171765000Y-86295000D01*
X171765000Y-87695000D01*
G37*
G36*
X169225000Y-85155000D02*
G01*
X167325000Y-85155000D01*
X167325000Y-83755000D01*
X169225000Y-83755000D01*
X169225000Y-85155000D01*
G37*
G36*
X169225000Y-87695000D02*
G01*
X167325000Y-87695000D01*
X167325000Y-86295000D01*
X169225000Y-86295000D01*
X169225000Y-87695000D01*
G37*
G36*
X85663000Y-131257000D02*
G01*
X85663000Y-133157000D01*
X84263000Y-133157000D01*
X84263000Y-131257000D01*
X85663000Y-131257000D01*
G37*
G36*
X88203000Y-131257000D02*
G01*
X88203000Y-133157000D01*
X86803000Y-133157000D01*
X86803000Y-131257000D01*
X88203000Y-131257000D01*
G37*
G36*
X86930000Y-139380000D02*
G01*
X86930000Y-137480000D01*
X88330000Y-137480000D01*
X88330000Y-139380000D01*
X86930000Y-139380000D01*
G37*
G36*
X84390000Y-139380000D02*
G01*
X84390000Y-137480000D01*
X85790000Y-137480000D01*
X85790000Y-139380000D01*
X84390000Y-139380000D01*
G37*
G36*
X67630000Y-115505000D02*
G01*
X69530000Y-115505000D01*
X69530000Y-116905000D01*
X67630000Y-116905000D01*
X67630000Y-115505000D01*
G37*
G36*
X67630000Y-112965000D02*
G01*
X69530000Y-112965000D01*
X69530000Y-114365000D01*
X67630000Y-114365000D01*
X67630000Y-112965000D01*
G37*
G36*
X177099000Y-101030000D02*
G01*
X175199000Y-101030000D01*
X175199000Y-99630000D01*
X177099000Y-99630000D01*
X177099000Y-101030000D01*
G37*
G36*
X177099000Y-103570000D02*
G01*
X175199000Y-103570000D01*
X175199000Y-102170000D01*
X177099000Y-102170000D01*
X177099000Y-103570000D01*
G37*
G36*
X54040000Y-131130000D02*
G01*
X54040000Y-133030000D01*
X52640000Y-133030000D01*
X52640000Y-131130000D01*
X54040000Y-131130000D01*
G37*
G36*
X56580000Y-131130000D02*
G01*
X56580000Y-133030000D01*
X55180000Y-133030000D01*
X55180000Y-131130000D01*
X56580000Y-131130000D01*
G37*
G36*
X55180000Y-138745000D02*
G01*
X55180000Y-136845000D01*
X56580000Y-136845000D01*
X56580000Y-138745000D01*
X55180000Y-138745000D01*
G37*
G36*
X52640000Y-138745000D02*
G01*
X52640000Y-136845000D01*
X54040000Y-136845000D01*
X54040000Y-138745000D01*
X52640000Y-138745000D01*
G37*
G36*
X210505000Y-60260000D02*
G01*
X212405000Y-60260000D01*
X212405000Y-61660000D01*
X210505000Y-61660000D01*
X210505000Y-60260000D01*
G37*
G36*
X210505000Y-57720000D02*
G01*
X212405000Y-57720000D01*
X212405000Y-59120000D01*
X210505000Y-59120000D01*
X210505000Y-57720000D01*
G37*
G36*
X152085000Y-60260000D02*
G01*
X153985000Y-60260000D01*
X153985000Y-61660000D01*
X152085000Y-61660000D01*
X152085000Y-60260000D01*
G37*
G36*
X152085000Y-57720000D02*
G01*
X153985000Y-57720000D01*
X153985000Y-59120000D01*
X152085000Y-59120000D01*
X152085000Y-57720000D01*
G37*
G36*
X181295000Y-60260000D02*
G01*
X183195000Y-60260000D01*
X183195000Y-61660000D01*
X181295000Y-61660000D01*
X181295000Y-60260000D01*
G37*
G36*
X181295000Y-57720000D02*
G01*
X183195000Y-57720000D01*
X183195000Y-59120000D01*
X181295000Y-59120000D01*
X181295000Y-57720000D01*
G37*
G36*
X198435000Y-43880000D02*
G01*
X196535000Y-43880000D01*
X196535000Y-42480000D01*
X198435000Y-42480000D01*
X198435000Y-43880000D01*
G37*
G36*
X198435000Y-46420000D02*
G01*
X196535000Y-46420000D01*
X196535000Y-45020000D01*
X198435000Y-45020000D01*
X198435000Y-46420000D01*
G37*
G36*
X139380000Y-43880000D02*
G01*
X137480000Y-43880000D01*
X137480000Y-42480000D01*
X139380000Y-42480000D01*
X139380000Y-43880000D01*
G37*
G36*
X139380000Y-46420000D02*
G01*
X137480000Y-46420000D01*
X137480000Y-45020000D01*
X139380000Y-45020000D01*
X139380000Y-46420000D01*
G37*
G36*
X169225000Y-43880000D02*
G01*
X167325000Y-43880000D01*
X167325000Y-42480000D01*
X169225000Y-42480000D01*
X169225000Y-43880000D01*
G37*
G36*
X169225000Y-46420000D02*
G01*
X167325000Y-46420000D01*
X167325000Y-45020000D01*
X169225000Y-45020000D01*
X169225000Y-46420000D01*
G37*
G36*
X200975000Y-43880000D02*
G01*
X199075000Y-43880000D01*
X199075000Y-42480000D01*
X200975000Y-42480000D01*
X200975000Y-43880000D01*
G37*
G36*
X200975000Y-46420000D02*
G01*
X199075000Y-46420000D01*
X199075000Y-45020000D01*
X200975000Y-45020000D01*
X200975000Y-46420000D01*
G37*
G36*
X142555000Y-43880000D02*
G01*
X140655000Y-43880000D01*
X140655000Y-42480000D01*
X142555000Y-42480000D01*
X142555000Y-43880000D01*
G37*
G36*
X142555000Y-46420000D02*
G01*
X140655000Y-46420000D01*
X140655000Y-45020000D01*
X142555000Y-45020000D01*
X142555000Y-46420000D01*
G37*
G36*
X171765000Y-43880000D02*
G01*
X169865000Y-43880000D01*
X169865000Y-42480000D01*
X171765000Y-42480000D01*
X171765000Y-43880000D01*
G37*
G36*
X171765000Y-46420000D02*
G01*
X169865000Y-46420000D01*
X169865000Y-45020000D01*
X171765000Y-45020000D01*
X171765000Y-46420000D01*
G37*
G36*
X195900000Y-60260000D02*
G01*
X197800000Y-60260000D01*
X197800000Y-61660000D01*
X195900000Y-61660000D01*
X195900000Y-60260000D01*
G37*
G36*
X195900000Y-57720000D02*
G01*
X197800000Y-57720000D01*
X197800000Y-59120000D01*
X195900000Y-59120000D01*
X195900000Y-57720000D01*
G37*
G36*
X166690000Y-60260000D02*
G01*
X168590000Y-60260000D01*
X168590000Y-61660000D01*
X166690000Y-61660000D01*
X166690000Y-60260000D01*
G37*
G36*
X166690000Y-57720000D02*
G01*
X168590000Y-57720000D01*
X168590000Y-59120000D01*
X166690000Y-59120000D01*
X166690000Y-57720000D01*
G37*
G36*
X137480000Y-60260000D02*
G01*
X139380000Y-60260000D01*
X139380000Y-61660000D01*
X137480000Y-61660000D01*
X137480000Y-60260000D01*
G37*
G36*
X137480000Y-57720000D02*
G01*
X139380000Y-57720000D01*
X139380000Y-59120000D01*
X137480000Y-59120000D01*
X137480000Y-57720000D01*
G37*
G36*
X183830000Y-43880000D02*
G01*
X181930000Y-43880000D01*
X181930000Y-42480000D01*
X183830000Y-42480000D01*
X183830000Y-43880000D01*
G37*
G36*
X183830000Y-46420000D02*
G01*
X181930000Y-46420000D01*
X181930000Y-45020000D01*
X183830000Y-45020000D01*
X183830000Y-46420000D01*
G37*
G36*
X154620000Y-43880000D02*
G01*
X152720000Y-43880000D01*
X152720000Y-42480000D01*
X154620000Y-42480000D01*
X154620000Y-43880000D01*
G37*
G36*
X154620000Y-46420000D02*
G01*
X152720000Y-46420000D01*
X152720000Y-45020000D01*
X154620000Y-45020000D01*
X154620000Y-46420000D01*
G37*
G36*
X125410000Y-43880000D02*
G01*
X123510000Y-43880000D01*
X123510000Y-42480000D01*
X125410000Y-42480000D01*
X125410000Y-43880000D01*
G37*
G36*
X125410000Y-46420000D02*
G01*
X123510000Y-46420000D01*
X123510000Y-45020000D01*
X125410000Y-45020000D01*
X125410000Y-46420000D01*
G37*
G36*
X186370000Y-43880000D02*
G01*
X184470000Y-43880000D01*
X184470000Y-42480000D01*
X186370000Y-42480000D01*
X186370000Y-43880000D01*
G37*
G36*
X186370000Y-46420000D02*
G01*
X184470000Y-46420000D01*
X184470000Y-45020000D01*
X186370000Y-45020000D01*
X186370000Y-46420000D01*
G37*
G36*
X157160000Y-43880000D02*
G01*
X155260000Y-43880000D01*
X155260000Y-42480000D01*
X157160000Y-42480000D01*
X157160000Y-43880000D01*
G37*
G36*
X157160000Y-46420000D02*
G01*
X155260000Y-46420000D01*
X155260000Y-45020000D01*
X157160000Y-45020000D01*
X157160000Y-46420000D01*
G37*
G36*
X127950000Y-43880000D02*
G01*
X126050000Y-43880000D01*
X126050000Y-42480000D01*
X127950000Y-42480000D01*
X127950000Y-43880000D01*
G37*
G36*
X127950000Y-46420000D02*
G01*
X126050000Y-46420000D01*
X126050000Y-45020000D01*
X127950000Y-45020000D01*
X127950000Y-46420000D01*
G37*
G36*
X93665000Y-60260000D02*
G01*
X95565000Y-60260000D01*
X95565000Y-61660000D01*
X93665000Y-61660000D01*
X93665000Y-60260000D01*
G37*
G36*
X93665000Y-57720000D02*
G01*
X95565000Y-57720000D01*
X95565000Y-59120000D01*
X93665000Y-59120000D01*
X93665000Y-57720000D01*
G37*
G36*
X63820000Y-60260000D02*
G01*
X65720000Y-60260000D01*
X65720000Y-61660000D01*
X63820000Y-61660000D01*
X63820000Y-60260000D01*
G37*
G36*
X63820000Y-57720000D02*
G01*
X65720000Y-57720000D01*
X65720000Y-59120000D01*
X63820000Y-59120000D01*
X63820000Y-57720000D01*
G37*
G36*
X122875000Y-60260000D02*
G01*
X124775000Y-60260000D01*
X124775000Y-61660000D01*
X122875000Y-61660000D01*
X122875000Y-60260000D01*
G37*
G36*
X122875000Y-57720000D02*
G01*
X124775000Y-57720000D01*
X124775000Y-59120000D01*
X122875000Y-59120000D01*
X122875000Y-57720000D01*
G37*
G36*
X81595000Y-43880000D02*
G01*
X79695000Y-43880000D01*
X79695000Y-42480000D01*
X81595000Y-42480000D01*
X81595000Y-43880000D01*
G37*
G36*
X81595000Y-46420000D02*
G01*
X79695000Y-46420000D01*
X79695000Y-45020000D01*
X81595000Y-45020000D01*
X81595000Y-46420000D01*
G37*
G36*
X52385000Y-43880000D02*
G01*
X50485000Y-43880000D01*
X50485000Y-42480000D01*
X52385000Y-42480000D01*
X52385000Y-43880000D01*
G37*
G36*
X52385000Y-46420000D02*
G01*
X50485000Y-46420000D01*
X50485000Y-45020000D01*
X52385000Y-45020000D01*
X52385000Y-46420000D01*
G37*
G36*
X110805000Y-43880000D02*
G01*
X108905000Y-43880000D01*
X108905000Y-42480000D01*
X110805000Y-42480000D01*
X110805000Y-43880000D01*
G37*
G36*
X110805000Y-46420000D02*
G01*
X108905000Y-46420000D01*
X108905000Y-45020000D01*
X110805000Y-45020000D01*
X110805000Y-46420000D01*
G37*
G36*
X84135000Y-43880000D02*
G01*
X82235000Y-43880000D01*
X82235000Y-42480000D01*
X84135000Y-42480000D01*
X84135000Y-43880000D01*
G37*
G36*
X84135000Y-46420000D02*
G01*
X82235000Y-46420000D01*
X82235000Y-45020000D01*
X84135000Y-45020000D01*
X84135000Y-46420000D01*
G37*
G36*
X54925000Y-43880000D02*
G01*
X53025000Y-43880000D01*
X53025000Y-42480000D01*
X54925000Y-42480000D01*
X54925000Y-43880000D01*
G37*
G36*
X54925000Y-46420000D02*
G01*
X53025000Y-46420000D01*
X53025000Y-45020000D01*
X54925000Y-45020000D01*
X54925000Y-46420000D01*
G37*
G36*
X113345000Y-43880000D02*
G01*
X111445000Y-43880000D01*
X111445000Y-42480000D01*
X113345000Y-42480000D01*
X113345000Y-43880000D01*
G37*
G36*
X113345000Y-46420000D02*
G01*
X111445000Y-46420000D01*
X111445000Y-45020000D01*
X113345000Y-45020000D01*
X113345000Y-46420000D01*
G37*
G36*
X108905000Y-60260000D02*
G01*
X110805000Y-60260000D01*
X110805000Y-61660000D01*
X108905000Y-61660000D01*
X108905000Y-60260000D01*
G37*
G36*
X108905000Y-57720000D02*
G01*
X110805000Y-57720000D01*
X110805000Y-59120000D01*
X108905000Y-59120000D01*
X108905000Y-57720000D01*
G37*
G36*
X79060000Y-60260000D02*
G01*
X80960000Y-60260000D01*
X80960000Y-61660000D01*
X79060000Y-61660000D01*
X79060000Y-60260000D01*
G37*
G36*
X79060000Y-57720000D02*
G01*
X80960000Y-57720000D01*
X80960000Y-59120000D01*
X79060000Y-59120000D01*
X79060000Y-57720000D01*
G37*
G36*
X49850000Y-60260000D02*
G01*
X51750000Y-60260000D01*
X51750000Y-61660000D01*
X49850000Y-61660000D01*
X49850000Y-60260000D01*
G37*
G36*
X49850000Y-57720000D02*
G01*
X51750000Y-57720000D01*
X51750000Y-59120000D01*
X49850000Y-59120000D01*
X49850000Y-57720000D01*
G37*
G36*
X128205000Y-113980000D02*
G01*
X128205000Y-112080000D01*
X129605000Y-112080000D01*
X129605000Y-113980000D01*
X128205000Y-113980000D01*
G37*
G36*
X125665000Y-113980000D02*
G01*
X125665000Y-112080000D01*
X127065000Y-112080000D01*
X127065000Y-113980000D01*
X125665000Y-113980000D01*
G37*
G36*
X115000000Y-65725000D02*
G01*
X115000000Y-67625000D01*
X113600000Y-67625000D01*
X113600000Y-65725000D01*
X115000000Y-65725000D01*
G37*
G36*
X117540000Y-65725000D02*
G01*
X117540000Y-67625000D01*
X116140000Y-67625000D01*
X116140000Y-65725000D01*
X117540000Y-65725000D01*
G37*
G36*
X120715000Y-65725000D02*
G01*
X120715000Y-67625000D01*
X119315000Y-67625000D01*
X119315000Y-65725000D01*
X120715000Y-65725000D01*
G37*
G36*
X123255000Y-65725000D02*
G01*
X123255000Y-67625000D01*
X121855000Y-67625000D01*
X121855000Y-65725000D01*
X123255000Y-65725000D01*
G37*
G36*
X129475000Y-128712000D02*
G01*
X129475000Y-126812000D01*
X130875000Y-126812000D01*
X130875000Y-128712000D01*
X129475000Y-128712000D01*
G37*
G36*
X126935000Y-128712000D02*
G01*
X126935000Y-126812000D01*
X128335000Y-126812000D01*
X128335000Y-128712000D01*
X126935000Y-128712000D01*
G37*
G36*
X96200000Y-43880000D02*
G01*
X94300000Y-43880000D01*
X94300000Y-42480000D01*
X96200000Y-42480000D01*
X96200000Y-43880000D01*
G37*
G36*
X96200000Y-46420000D02*
G01*
X94300000Y-46420000D01*
X94300000Y-45020000D01*
X96200000Y-45020000D01*
X96200000Y-46420000D01*
G37*
G36*
X66990000Y-43880000D02*
G01*
X65090000Y-43880000D01*
X65090000Y-42480000D01*
X66990000Y-42480000D01*
X66990000Y-43880000D01*
G37*
G36*
X66990000Y-46420000D02*
G01*
X65090000Y-46420000D01*
X65090000Y-45020000D01*
X66990000Y-45020000D01*
X66990000Y-46420000D01*
G37*
G36*
X46670000Y-45404000D02*
G01*
X44770000Y-45404000D01*
X44770000Y-44004000D01*
X46670000Y-44004000D01*
X46670000Y-45404000D01*
G37*
G36*
X46670000Y-47944000D02*
G01*
X44770000Y-47944000D01*
X44770000Y-46544000D01*
X46670000Y-46544000D01*
X46670000Y-47944000D01*
G37*
G36*
X98740000Y-43880000D02*
G01*
X96840000Y-43880000D01*
X96840000Y-42480000D01*
X98740000Y-42480000D01*
X98740000Y-43880000D01*
G37*
G36*
X98740000Y-46420000D02*
G01*
X96840000Y-46420000D01*
X96840000Y-45020000D01*
X98740000Y-45020000D01*
X98740000Y-46420000D01*
G37*
G36*
X69530000Y-43880000D02*
G01*
X67630000Y-43880000D01*
X67630000Y-42480000D01*
X69530000Y-42480000D01*
X69530000Y-43880000D01*
G37*
G36*
X69530000Y-46420000D02*
G01*
X67630000Y-46420000D01*
X67630000Y-45020000D01*
X69530000Y-45020000D01*
X69530000Y-46420000D01*
G37*
G36*
X41590000Y-43880000D02*
G01*
X39690000Y-43880000D01*
X39690000Y-42480000D01*
X41590000Y-42480000D01*
X41590000Y-43880000D01*
G37*
G36*
X41590000Y-46420000D02*
G01*
X39690000Y-46420000D01*
X39690000Y-45020000D01*
X41590000Y-45020000D01*
X41590000Y-46420000D01*
G37*
M02*
