G04 #@! TF.GenerationSoftware,KiCad,Pcbnew,7.0.9*
G04 #@! TF.CreationDate,2023-12-25T18:17:51+01:00*
G04 #@! TF.ProjectId,wall-mounted-room-temperature-sensor-wifi,77616c6c-2d6d-46f7-956e-7465642d726f,v1.0*
G04 #@! TF.SameCoordinates,Original*
G04 #@! TF.FileFunction,Copper,L2,Bot*
G04 #@! TF.FilePolarity,Positive*
%FSLAX46Y46*%
G04 Gerber Fmt 4.6, Leading zero omitted, Abs format (unit mm)*
G04 Created by KiCad (PCBNEW 7.0.9) date 2023-12-25 18:17:51*
%MOMM*%
%LPD*%
G01*
G04 APERTURE LIST*
G04 Aperture macros list*
%AMRoundRect*
0 Rectangle with rounded corners*
0 $1 Rounding radius*
0 $2 $3 $4 $5 $6 $7 $8 $9 X,Y pos of 4 corners*
0 Add a 4 corners polygon primitive as box body*
4,1,4,$2,$3,$4,$5,$6,$7,$8,$9,$2,$3,0*
0 Add four circle primitives for the rounded corners*
1,1,$1+$1,$2,$3*
1,1,$1+$1,$4,$5*
1,1,$1+$1,$6,$7*
1,1,$1+$1,$8,$9*
0 Add four rect primitives between the rounded corners*
20,1,$1+$1,$2,$3,$4,$5,0*
20,1,$1+$1,$4,$5,$6,$7,0*
20,1,$1+$1,$6,$7,$8,$9,0*
20,1,$1+$1,$8,$9,$2,$3,0*%
G04 Aperture macros list end*
G04 #@! TA.AperFunction,ComponentPad*
%ADD10C,3.500000*%
G04 #@! TD*
G04 #@! TA.AperFunction,ComponentPad*
%ADD11C,3.000000*%
G04 #@! TD*
G04 #@! TA.AperFunction,ComponentPad*
%ADD12R,1.800000X1.800000*%
G04 #@! TD*
G04 #@! TA.AperFunction,ComponentPad*
%ADD13O,1.800000X1.800000*%
G04 #@! TD*
G04 #@! TA.AperFunction,ComponentPad*
%ADD14R,1.050000X1.500000*%
G04 #@! TD*
G04 #@! TA.AperFunction,ComponentPad*
%ADD15RoundRect,0.262500X-0.262500X-0.487500X0.262500X-0.487500X0.262500X0.487500X-0.262500X0.487500X0*%
G04 #@! TD*
G04 #@! TA.AperFunction,ComponentPad*
%ADD16R,2.100000X2.100000*%
G04 #@! TD*
G04 #@! TA.AperFunction,ComponentPad*
%ADD17O,2.100000X2.100000*%
G04 #@! TD*
G04 #@! TA.AperFunction,ComponentPad*
%ADD18C,4.500000*%
G04 #@! TD*
G04 #@! TA.AperFunction,SMDPad,CuDef*
%ADD19R,1.500000X1.300000*%
G04 #@! TD*
G04 #@! TA.AperFunction,SMDPad,CuDef*
%ADD20R,1.300000X1.500000*%
G04 #@! TD*
G04 #@! TA.AperFunction,SMDPad,CuDef*
%ADD21R,0.300000X0.800000*%
G04 #@! TD*
G04 #@! TA.AperFunction,SMDPad,CuDef*
%ADD22R,0.800000X0.800000*%
G04 #@! TD*
G04 #@! TA.AperFunction,SMDPad,CuDef*
%ADD23R,1.300000X1.000000*%
G04 #@! TD*
G04 #@! TA.AperFunction,SMDPad,CuDef*
%ADD24R,2.200000X0.800000*%
G04 #@! TD*
G04 #@! TA.AperFunction,ViaPad*
%ADD25C,0.800000*%
G04 #@! TD*
G04 #@! TA.AperFunction,Conductor*
%ADD26C,0.500000*%
G04 #@! TD*
G04 #@! TA.AperFunction,Conductor*
%ADD27C,0.450000*%
G04 #@! TD*
G04 #@! TA.AperFunction,Conductor*
%ADD28C,0.300000*%
G04 #@! TD*
G04 #@! TA.AperFunction,Conductor*
%ADD29C,1.000000*%
G04 #@! TD*
G04 APERTURE END LIST*
D10*
X114885000Y-140345000D03*
X102285000Y-140345000D03*
X114885000Y-135245000D03*
X102285000Y-135245000D03*
D11*
X108585000Y-144745000D03*
D10*
X97800000Y-140345000D03*
X85200000Y-140345000D03*
X97800000Y-135245000D03*
X85200000Y-135245000D03*
D11*
X91500000Y-144745000D03*
D10*
X80595000Y-140345000D03*
X67995000Y-140345000D03*
X80595000Y-135245000D03*
X67995000Y-135245000D03*
D11*
X74295000Y-144745000D03*
D12*
X127635000Y-149860000D03*
D13*
X127635000Y-152400000D03*
X130175000Y-149860000D03*
X130175000Y-152400000D03*
X132715000Y-149860000D03*
X132715000Y-152400000D03*
D14*
X90170000Y-155575000D03*
D15*
X91440000Y-155575000D03*
X92710000Y-155575000D03*
D16*
X123444000Y-118618000D03*
D17*
X123444000Y-116078000D03*
X123444000Y-113538000D03*
X123444000Y-110998000D03*
X123444000Y-108458000D03*
X123444000Y-105918000D03*
X123444000Y-103378000D03*
X123444000Y-100838000D03*
X123444000Y-98298000D03*
D18*
X48895000Y-150095000D03*
X53395000Y-152845000D03*
X48895000Y-156595000D03*
D19*
X79375000Y-73360000D03*
X79375000Y-71420000D03*
X76835000Y-73360000D03*
X76835000Y-71420000D03*
D20*
X133650000Y-78105000D03*
X135590000Y-78105000D03*
X133650000Y-75565000D03*
X135590000Y-75565000D03*
X133650000Y-83185000D03*
X135590000Y-83185000D03*
D19*
X109220000Y-136825000D03*
X109220000Y-138765000D03*
X92075000Y-136825000D03*
X92075000Y-138765000D03*
X74930000Y-136825000D03*
X74930000Y-138765000D03*
D21*
X131175000Y-145955000D03*
X130675000Y-145955000D03*
X130175000Y-145955000D03*
X129675000Y-145955000D03*
X129175000Y-145955000D03*
X129175000Y-144875000D03*
X129675000Y-144875000D03*
X130175000Y-144875000D03*
X130675000Y-144875000D03*
X131175000Y-144875000D03*
D22*
X111760000Y-136525000D03*
X111760000Y-139065000D03*
X94615000Y-136525000D03*
X94615000Y-139065000D03*
X77470000Y-136525000D03*
X77470000Y-139065000D03*
D23*
X81010000Y-75250000D03*
X81010000Y-77150000D03*
X78810000Y-76200000D03*
D19*
X81915000Y-73360000D03*
X81915000Y-71420000D03*
X85725000Y-71420000D03*
X85725000Y-73360000D03*
D20*
X133650000Y-80645000D03*
X135590000Y-80645000D03*
X105110000Y-144145000D03*
X103170000Y-144145000D03*
D24*
X100787200Y-144145000D03*
X100787200Y-145415000D03*
X100787200Y-146685000D03*
X97332800Y-146685000D03*
X97332800Y-145415000D03*
X97332800Y-144145000D03*
D25*
X99060000Y-84455000D03*
X82550000Y-118745000D03*
X88468200Y-92913200D03*
X86995000Y-98425000D03*
X136940001Y-82769999D03*
X121285000Y-156845000D03*
X86995000Y-100330000D03*
X67310000Y-147320000D03*
X92075000Y-100330000D03*
X93980000Y-118745000D03*
X136940001Y-76419999D03*
X89535000Y-98425000D03*
X99060000Y-80645000D03*
X86995000Y-96520000D03*
X143510000Y-107315000D03*
X71120000Y-118745000D03*
X59690000Y-109220000D03*
X123190000Y-145415000D03*
X143510000Y-142240000D03*
X82550000Y-109220000D03*
X89535000Y-96520000D03*
X40005000Y-141605000D03*
X55245000Y-70485000D03*
X143510000Y-156845000D03*
X95885000Y-80645000D03*
X40005000Y-70485000D03*
X95885000Y-88265000D03*
X40005000Y-106045000D03*
X89535000Y-100330000D03*
X143510000Y-124460000D03*
X40005000Y-121285000D03*
X95885000Y-76835000D03*
X71120000Y-109220000D03*
X89535000Y-70485000D03*
X99060000Y-88265000D03*
X106680000Y-70485000D03*
X99060000Y-76835000D03*
X83820000Y-100330000D03*
X59690000Y-118745000D03*
X40005000Y-156845000D03*
X93980000Y-109220000D03*
X73025000Y-70485000D03*
X95250000Y-151130000D03*
X40005000Y-88900000D03*
X95885000Y-84455000D03*
X73025000Y-97790000D03*
X77470000Y-76200000D03*
X81280000Y-94996000D03*
X85090000Y-97790000D03*
X73025000Y-94996000D03*
X76200000Y-76200000D03*
X86868000Y-92837000D03*
X77470000Y-97790000D03*
X81280000Y-97790000D03*
X73660000Y-78740000D03*
X73025000Y-81280000D03*
X77470000Y-94996000D03*
X85217000Y-95123000D03*
X76200000Y-89535000D03*
X127000000Y-86995000D03*
X76200000Y-86360000D03*
X76835000Y-90805000D03*
X108585000Y-85725000D03*
X123799600Y-94589600D03*
X134620000Y-79375000D03*
X135128000Y-74114999D03*
X134620000Y-76835000D03*
X109855000Y-84455000D03*
X76200000Y-87630000D03*
X97790000Y-94615000D03*
X105410000Y-142875000D03*
X97790000Y-97790000D03*
X88265000Y-127635000D03*
X100965000Y-97790000D03*
X100965000Y-94615000D03*
X105410000Y-113665000D03*
X94615000Y-94615000D03*
X105410000Y-118110000D03*
X94615000Y-97790000D03*
X92710000Y-127635000D03*
X130810000Y-74295000D03*
X130175000Y-147955000D03*
X121285000Y-142875000D03*
X121285000Y-81615000D03*
X121285000Y-147320000D03*
X119989600Y-91440000D03*
X121285000Y-84455000D03*
X128270000Y-74295000D03*
X127000000Y-74295000D03*
X92710000Y-122555000D03*
X102870000Y-122555000D03*
X125730000Y-74295000D03*
X127635000Y-139700000D03*
X118110000Y-114300000D03*
X118110000Y-113030000D03*
X93345000Y-73660000D03*
X127635000Y-140970000D03*
X92075000Y-73660000D03*
X127000000Y-91440000D03*
X130149600Y-91440000D03*
X121920000Y-91440000D03*
X118719600Y-96520000D03*
X133985000Y-99060000D03*
X134315200Y-91135200D03*
X133985000Y-103505000D03*
X135585200Y-91135200D03*
X127635000Y-84455000D03*
X104140000Y-146050000D03*
X122555000Y-84455000D03*
X134620000Y-120650000D03*
X133985000Y-93345000D03*
X126365000Y-123190000D03*
X124460000Y-74295000D03*
X83820000Y-73660000D03*
X95250000Y-144145000D03*
X90805000Y-147955000D03*
D26*
X95250000Y-148209000D02*
X95885000Y-147574000D01*
X92720000Y-140345000D02*
X94605000Y-140345000D01*
X101827202Y-145415000D02*
X103097202Y-146685000D01*
D27*
X74295000Y-144745000D02*
X72990000Y-144745000D01*
D26*
X103312203Y-146900001D02*
X103289999Y-146900001D01*
D28*
X130175000Y-145955000D02*
X130175000Y-144875000D01*
D26*
X73360000Y-138765000D02*
X71755000Y-137160000D01*
X97800000Y-140345000D02*
X97800000Y-138420000D01*
D28*
X130175000Y-144875000D02*
X130175000Y-144145000D01*
D26*
X74295000Y-144745000D02*
X74295000Y-146050000D01*
X108585000Y-146685000D02*
X108369999Y-146900001D01*
X102638204Y-147574000D02*
X103312203Y-146900001D01*
X108369999Y-146900001D02*
X117894999Y-146900001D01*
D27*
X80595000Y-141655000D02*
X80595000Y-140345000D01*
D28*
X130175000Y-144145000D02*
X129540000Y-143510000D01*
D27*
X114885000Y-141655000D02*
X114885000Y-140345000D01*
D26*
X79375000Y-69850000D02*
X79515001Y-69709999D01*
X76835000Y-70485000D02*
X77610001Y-69709999D01*
D27*
X74295000Y-144745000D02*
X74295000Y-145415000D01*
X97800000Y-141595000D02*
X97800000Y-140345000D01*
D26*
X103312203Y-146900001D02*
X106464999Y-146900001D01*
X80645000Y-146685000D02*
X74930000Y-146685000D01*
X114885000Y-146635000D02*
X114935000Y-146685000D01*
X119380000Y-145415000D02*
X118427500Y-146367500D01*
X117894999Y-146900001D02*
X118427500Y-146367500D01*
X91500000Y-144745000D02*
X88360000Y-141605000D01*
X88360000Y-141605000D02*
X88265000Y-141605000D01*
X94605000Y-140345000D02*
X97800000Y-140345000D01*
X74930000Y-139700000D02*
X75575000Y-140345000D01*
X107970000Y-138765000D02*
X109220000Y-138765000D01*
X114885000Y-140345000D02*
X114885000Y-146635000D01*
X77460000Y-140345000D02*
X80595000Y-140345000D01*
D28*
X123190000Y-145415000D02*
X125095000Y-143510000D01*
D26*
X135590000Y-78105000D02*
X135590000Y-77170000D01*
X94605000Y-139075000D02*
X94615000Y-139065000D01*
X92075000Y-138765000D02*
X92075000Y-140335000D01*
X106464999Y-146900001D02*
X108369999Y-146900001D01*
X95250000Y-149225000D02*
X95250000Y-148590000D01*
X95885000Y-147574000D02*
X102638204Y-147574000D01*
X74930000Y-138765000D02*
X73360000Y-138765000D01*
X111760000Y-139065000D02*
X111760000Y-140335000D01*
X75575000Y-140345000D02*
X77460000Y-140345000D01*
X135590000Y-77170000D02*
X136190000Y-77170000D01*
X80595000Y-142925000D02*
X80595000Y-146635000D01*
X103097202Y-146685000D02*
X103312203Y-146900001D01*
X89525000Y-140345000D02*
X92085000Y-140345000D01*
X76535000Y-71120000D02*
X76835000Y-71420000D01*
X92075000Y-140335000D02*
X92085000Y-140345000D01*
X122555000Y-145415000D02*
X119380000Y-145415000D01*
X87040000Y-142925000D02*
X80595000Y-142925000D01*
X95250000Y-149225000D02*
X95250000Y-148209000D01*
X88360000Y-141605000D02*
X87040000Y-142925000D01*
X88265000Y-141605000D02*
X89525000Y-140345000D01*
X77470000Y-140335000D02*
X77460000Y-140345000D01*
X81915000Y-70485000D02*
X81139999Y-69709999D01*
X92085000Y-140345000D02*
X92720000Y-140345000D01*
X109220000Y-138765000D02*
X109220000Y-139700000D01*
X123190000Y-145415000D02*
X122555000Y-145415000D01*
X80595000Y-140345000D02*
X80595000Y-142925000D01*
X74295000Y-146050000D02*
X74930000Y-146685000D01*
X135590000Y-77170000D02*
X135590000Y-75565000D01*
X79375000Y-71420000D02*
X79375000Y-69850000D01*
X118427500Y-146367500D02*
X118110000Y-146685000D01*
X81915000Y-71420000D02*
X81915000Y-70485000D01*
X77470000Y-139065000D02*
X77470000Y-140335000D01*
X79515001Y-69709999D02*
X81139999Y-69709999D01*
X94605000Y-140345000D02*
X94605000Y-139075000D01*
X100787200Y-145415000D02*
X101827202Y-145415000D01*
X83994682Y-113490318D02*
X88265000Y-113490318D01*
X74930000Y-138765000D02*
X74930000Y-139700000D01*
X97800000Y-138420000D02*
X98425000Y-137795000D01*
X109865000Y-140345000D02*
X111750000Y-140345000D01*
X71755000Y-137160000D02*
X71755000Y-125730000D01*
X108585000Y-144745000D02*
X108585000Y-146685000D01*
X136190000Y-77170000D02*
X136940001Y-76419999D01*
X107000000Y-137795000D02*
X107970000Y-138765000D01*
X111760000Y-140335000D02*
X111750000Y-140345000D01*
X71755000Y-125730000D02*
X83994682Y-113490318D01*
X136525000Y-83185000D02*
X136940001Y-82769999D01*
D28*
X125095000Y-143510000D02*
X129540000Y-143510000D01*
D26*
X109220000Y-139700000D02*
X109865000Y-140345000D01*
X76835000Y-71420000D02*
X76835000Y-70485000D01*
X135590000Y-83185000D02*
X136525000Y-83185000D01*
X111750000Y-140345000D02*
X114885000Y-140345000D01*
X95250000Y-151130000D02*
X95250000Y-149225000D01*
X80595000Y-146635000D02*
X80645000Y-146685000D01*
X77610001Y-69709999D02*
X79515001Y-69709999D01*
X98425000Y-137795000D02*
X107000000Y-137795000D01*
X85205000Y-93865000D02*
X85205000Y-95135000D01*
X79010000Y-73725000D02*
X79375000Y-73360000D01*
D29*
X79010000Y-76200000D02*
X77470000Y-76200000D01*
D26*
X86279998Y-92790002D02*
X85205000Y-93865000D01*
X79375000Y-73360000D02*
X76835000Y-73360000D01*
X86995000Y-92790002D02*
X86279998Y-92790002D01*
D29*
X76200000Y-76200000D02*
X77470000Y-76200000D01*
D26*
X79010000Y-76200000D02*
X79010000Y-73725000D01*
D29*
X76835000Y-90805000D02*
X76200000Y-90170000D01*
D26*
X133350000Y-80645000D02*
X132715000Y-80010000D01*
X127000000Y-86995000D02*
X125095000Y-88900000D01*
X132715000Y-76835000D02*
X132715000Y-78105000D01*
D29*
X77470000Y-91440000D02*
X76835000Y-90805000D01*
X76200000Y-90170000D02*
X76200000Y-89535000D01*
D26*
X132715000Y-78105000D02*
X132715000Y-79375000D01*
D29*
X76200000Y-86360000D02*
X76200000Y-87630000D01*
X108585000Y-85725000D02*
X109855000Y-84455000D01*
X76200000Y-89535000D02*
X76200000Y-86995000D01*
D26*
X125095000Y-93345000D02*
X123825000Y-94615000D01*
X133650000Y-75565000D02*
X133650000Y-74844998D01*
X135128000Y-74114999D02*
X134379999Y-74114999D01*
X134620000Y-76835000D02*
X132715000Y-76835000D01*
D29*
X102870000Y-91440000D02*
X77470000Y-91440000D01*
D26*
X134620000Y-79375000D02*
X132715000Y-79375000D01*
X133650000Y-80645000D02*
X133350000Y-80645000D01*
X132715000Y-78105000D02*
X133650000Y-78105000D01*
D29*
X108585000Y-85725000D02*
X102870000Y-91440000D01*
D26*
X125095000Y-88900000D02*
X125095000Y-93345000D01*
X132715000Y-76200000D02*
X132715000Y-76835000D01*
X133650000Y-75565000D02*
X133350000Y-75565000D01*
X133350000Y-75565000D02*
X132715000Y-76200000D01*
X132715000Y-79375000D02*
X132715000Y-80010000D01*
X134379999Y-74114999D02*
X133650000Y-74844998D01*
X123730000Y-118745000D02*
X123515000Y-118530000D01*
X105110000Y-143175000D02*
X105110000Y-144145000D01*
X105410000Y-142875000D02*
X105110000Y-143175000D01*
X92710000Y-127635000D02*
X88265000Y-127635000D01*
D29*
X105410000Y-118110000D02*
X105410000Y-113665000D01*
D26*
X135890000Y-138430000D02*
X135890000Y-102616000D01*
X135590000Y-80745000D02*
X133650000Y-82685000D01*
X130810000Y-74295000D02*
X130810000Y-81915000D01*
X135890000Y-138430000D02*
X135890000Y-145415000D01*
D28*
X130175000Y-147955000D02*
X129675008Y-147455008D01*
X129675008Y-147432112D02*
X129675000Y-147432104D01*
D26*
X133650000Y-82685000D02*
X133650000Y-83185000D01*
X130810000Y-81915000D02*
X132080000Y-83185000D01*
X133650000Y-83185000D02*
X132080000Y-83185000D01*
X133985000Y-86360000D02*
X132080000Y-84455000D01*
X135890000Y-151130000D02*
X135890000Y-145415000D01*
X135590000Y-80645000D02*
X135590000Y-80745000D01*
D28*
X129675000Y-145955000D02*
X129675000Y-146820000D01*
X129675000Y-147432104D02*
X129675000Y-146820000D01*
D26*
X133985000Y-87630000D02*
X133985000Y-86360000D01*
D28*
X129675008Y-147455008D02*
X129675008Y-147432112D01*
D26*
X136906000Y-90551000D02*
X133985000Y-87630000D01*
X136906000Y-101600000D02*
X136906000Y-90551000D01*
X132080000Y-84455000D02*
X132080000Y-83185000D01*
X132715000Y-152400000D02*
X134620000Y-152400000D01*
X134620000Y-152400000D02*
X135890000Y-151130000D01*
X135890000Y-102616000D02*
X136906000Y-101600000D01*
X120015000Y-141605000D02*
X121285000Y-142875000D01*
D28*
X128939991Y-151164991D02*
X128939991Y-147920009D01*
D26*
X121285000Y-153035000D02*
X122555000Y-154305000D01*
X120015000Y-91440000D02*
X120015000Y-91440000D01*
X121285000Y-147320000D02*
X121285000Y-153035000D01*
X119989600Y-91440000D02*
X119989600Y-91465400D01*
X120015000Y-91440000D02*
X119989600Y-91440000D01*
X118110000Y-132715000D02*
X118110000Y-139700000D01*
X116840000Y-94615000D02*
X116840000Y-118110000D01*
X122555000Y-154305000D02*
X124460000Y-154305000D01*
X130175000Y-153670000D02*
X129540000Y-154305000D01*
X121285000Y-81615000D02*
X121285000Y-84455000D01*
X130175000Y-152400000D02*
X130175000Y-153670000D01*
X116840000Y-118110000D02*
X116840000Y-131445000D01*
D28*
X130175000Y-152400000D02*
X128939991Y-151164991D01*
X129175000Y-145955000D02*
X129175000Y-147685000D01*
X129175000Y-147685000D02*
X128939991Y-147920009D01*
D26*
X129540000Y-154305000D02*
X124460000Y-154305000D01*
X120015000Y-141605000D02*
X118110000Y-139700000D01*
X119989600Y-91465400D02*
X116840000Y-94615000D01*
X116840000Y-131445000D02*
X118110000Y-132715000D01*
X114935000Y-116840000D02*
X114935000Y-131445000D01*
X111750000Y-135245000D02*
X109865000Y-135245000D01*
X109865000Y-135245000D02*
X109220000Y-135890000D01*
D27*
X126365000Y-85725000D02*
X123825000Y-88265000D01*
D26*
X111760000Y-136525000D02*
X111760000Y-135255000D01*
X114885000Y-135245000D02*
X111750000Y-135245000D01*
X109220000Y-135890000D02*
X109220000Y-136825000D01*
D27*
X126365000Y-76200000D02*
X126365000Y-85725000D01*
D26*
X114935000Y-135195000D02*
X114885000Y-135245000D01*
D27*
X128270000Y-74295000D02*
X126365000Y-76200000D01*
X114935000Y-91440000D02*
X114935000Y-116840000D01*
D26*
X111760000Y-135255000D02*
X111750000Y-135245000D01*
D27*
X123825000Y-88265000D02*
X118110000Y-88265000D01*
X118110000Y-88265000D02*
X114935000Y-91440000D01*
D26*
X114935000Y-131445000D02*
X114935000Y-135195000D01*
X94615000Y-135255000D02*
X94605000Y-135245000D01*
X97800000Y-135245000D02*
X94605000Y-135245000D01*
D27*
X113665000Y-116840000D02*
X113665000Y-91440000D01*
X113665000Y-91440000D02*
X118125010Y-86979990D01*
D26*
X92720000Y-135245000D02*
X92075000Y-135890000D01*
D27*
X97800000Y-135245000D02*
X97800000Y-132705000D01*
X97800000Y-132705000D02*
X113665000Y-116840000D01*
X123190000Y-86995000D02*
X125095000Y-85090000D01*
X118125010Y-86979990D02*
X118745000Y-86979990D01*
X125730000Y-75565000D02*
X127000000Y-74295000D01*
X125095000Y-76200000D02*
X125730000Y-75565000D01*
X118745000Y-86979990D02*
X123190000Y-86995000D01*
X125095000Y-85090000D02*
X125095000Y-76200000D01*
D26*
X92075000Y-135890000D02*
X92075000Y-136825000D01*
X94605000Y-135245000D02*
X92720000Y-135245000D01*
X94615000Y-136525000D02*
X94615000Y-135255000D01*
D27*
X112395000Y-116205000D02*
X112395000Y-98425000D01*
X125730000Y-74295000D02*
X123825000Y-76200000D01*
D26*
X75575000Y-135245000D02*
X76845000Y-135245000D01*
D27*
X112395000Y-98425000D02*
X112395000Y-91440000D01*
X123190000Y-85725000D02*
X118110000Y-85725000D01*
X90170000Y-122555000D02*
X80595000Y-132130000D01*
D26*
X74930000Y-135890000D02*
X75575000Y-135245000D01*
X77460000Y-135245000D02*
X80595000Y-135245000D01*
D27*
X106045000Y-122555000D02*
X102870000Y-122555000D01*
X123825000Y-76200000D02*
X123825000Y-85090000D01*
X112395000Y-91440000D02*
X116840000Y-86995000D01*
X118110000Y-85725000D02*
X116840000Y-86995000D01*
X106045000Y-122555000D02*
X112395000Y-116205000D01*
D26*
X77470000Y-136525000D02*
X77470000Y-135255000D01*
D27*
X80595000Y-132130000D02*
X80595000Y-135245000D01*
X123825000Y-85090000D02*
X123190000Y-85725000D01*
X92710000Y-122555000D02*
X90170000Y-122555000D01*
D26*
X76845000Y-135245000D02*
X77460000Y-135245000D01*
X74930000Y-136825000D02*
X74930000Y-135890000D01*
D27*
X77470000Y-135255000D02*
X77460000Y-135245000D01*
D29*
X127635000Y-140970000D02*
X127635000Y-137160000D01*
X127635000Y-137160000D02*
X120650000Y-130175000D01*
X118110000Y-127635000D02*
X118110000Y-113030000D01*
X84775000Y-77150000D02*
X84135000Y-77150000D01*
X84135000Y-77150000D02*
X81010000Y-77150000D01*
X85410000Y-77150000D02*
X84135000Y-77150000D01*
X120650000Y-130175000D02*
X118110000Y-127635000D01*
X88900000Y-73660000D02*
X85410000Y-77150000D01*
X93345000Y-73660000D02*
X88900000Y-73660000D01*
D28*
X130925001Y-147594999D02*
X130675000Y-147344998D01*
X130925001Y-148474999D02*
X130925001Y-147594999D01*
X130175000Y-149225000D02*
X130925001Y-148474999D01*
X130675000Y-145955000D02*
X130675000Y-147344998D01*
X130675000Y-149360000D02*
X130175000Y-149860000D01*
X130175000Y-149860000D02*
X130175000Y-149225000D01*
X131175000Y-145955000D02*
X131175000Y-147050000D01*
X132080000Y-148590000D02*
X132080000Y-147955000D01*
X132715000Y-149225000D02*
X132080000Y-148590000D01*
X132715000Y-149860000D02*
X132715000Y-149225000D01*
X132080000Y-147955000D02*
X131175000Y-147050000D01*
D27*
X122770000Y-103290000D02*
X123515000Y-103290000D01*
D26*
X127000000Y-91440000D02*
X127000000Y-94615000D01*
X121920000Y-96520000D02*
X121285000Y-97155000D01*
X121285000Y-102870000D02*
X121705000Y-103290000D01*
X121285000Y-97155000D02*
X121285000Y-102870000D01*
X125730000Y-96520000D02*
X121920000Y-96520000D01*
X127000000Y-94615000D02*
X127000000Y-95250000D01*
X127000000Y-95250000D02*
X125730000Y-96520000D01*
X121705000Y-103290000D02*
X123515000Y-103290000D01*
X130175000Y-91440000D02*
X130175000Y-91440000D01*
X127215000Y-100750000D02*
X123515000Y-100750000D01*
X127850000Y-100750000D02*
X127215000Y-100750000D01*
X130175000Y-91440000D02*
X130149600Y-91440000D01*
X130149600Y-91465400D02*
X129540000Y-92075000D01*
X130149600Y-91440000D02*
X130149600Y-91465400D01*
X129540000Y-99060000D02*
X127850000Y-100750000D01*
X129540000Y-92075000D02*
X129540000Y-99060000D01*
X120015000Y-107315000D02*
X120015000Y-95250000D01*
X120015000Y-95250000D02*
X121920000Y-93345000D01*
X121070000Y-108370000D02*
X120015000Y-107315000D01*
X123515000Y-108370000D02*
X121070000Y-108370000D01*
X121920000Y-93345000D02*
X121920000Y-91440000D01*
D27*
X123515000Y-113450000D02*
X121070000Y-113450000D01*
X121070000Y-113450000D02*
X118745000Y-111125000D01*
X118745000Y-96520000D02*
X118745000Y-109220000D01*
X118745000Y-111125000D02*
X118745000Y-109220000D01*
D26*
X133985000Y-96520000D02*
X134874000Y-95694999D01*
X134874000Y-95694999D02*
X134874000Y-91694000D01*
X133985000Y-99060000D02*
X133985000Y-96520000D01*
X123515000Y-110910000D02*
X130390000Y-110910000D01*
X134810001Y-91630001D02*
X134330000Y-91150000D01*
X130390000Y-110910000D02*
X133985000Y-107315000D01*
X133985000Y-107315000D02*
X133985000Y-106045000D01*
X133985000Y-106045000D02*
X133985000Y-103505000D01*
X135890000Y-100330000D02*
X135255000Y-100965000D01*
X133350000Y-101600000D02*
X134620000Y-101600000D01*
D27*
X135255000Y-100965000D02*
X135600000Y-100620000D01*
D26*
X123515000Y-105830000D02*
X129120000Y-105830000D01*
X134620000Y-101600000D02*
X135255000Y-100965000D01*
X135600000Y-91150000D02*
X135890000Y-91440000D01*
X129120000Y-105830000D02*
X133350000Y-101600000D01*
X135890000Y-91440000D02*
X135890000Y-100330000D01*
D27*
X124460000Y-74295000D02*
X122555000Y-76200000D01*
D26*
X103170000Y-144145000D02*
X103170000Y-145080000D01*
X126365000Y-123190000D02*
X128905000Y-120650000D01*
X100787200Y-144145000D02*
X103170000Y-144145000D01*
X130175000Y-84455000D02*
X132715000Y-86995000D01*
X103170000Y-145080000D02*
X104140000Y-146050000D01*
D27*
X122555000Y-76200000D02*
X122555000Y-84455000D01*
D26*
X132715000Y-86995000D02*
X132715000Y-92075000D01*
X132715000Y-92075000D02*
X133985000Y-93345000D01*
X127635000Y-84455000D02*
X130175000Y-84455000D01*
X128905000Y-120650000D02*
X134620000Y-120650000D01*
X83820000Y-71755000D02*
X83820000Y-73660000D01*
X85725000Y-71420000D02*
X84155000Y-71420000D01*
X82215000Y-73660000D02*
X81915000Y-73360000D01*
X81915000Y-73360000D02*
X82015000Y-73360000D01*
X83820000Y-73660000D02*
X82215000Y-73660000D01*
X84155000Y-71420000D02*
X83820000Y-71755000D01*
X97800000Y-146675000D02*
X97790000Y-146685000D01*
X95250000Y-144145000D02*
X97332800Y-144145000D01*
X81010000Y-75250000D02*
X84770000Y-75250000D01*
X85725000Y-74295000D02*
X85725000Y-73360000D01*
X84770000Y-75250000D02*
X85725000Y-74295000D01*
X95250000Y-145415000D02*
X92710000Y-147955000D01*
X97332800Y-145415000D02*
X95250000Y-145415000D01*
X92710000Y-147955000D02*
X90805000Y-147955000D01*
G04 #@! TA.AperFunction,Conductor*
G36*
X84455000Y-70769500D02*
G01*
X84240506Y-70769500D01*
X84224495Y-70767732D01*
X84224473Y-70767974D01*
X84216706Y-70767239D01*
X84144783Y-70769500D01*
X84114075Y-70769500D01*
X84114071Y-70769500D01*
X84114060Y-70769501D01*
X84106804Y-70770417D01*
X84100986Y-70770875D01*
X84052433Y-70772401D01*
X84037873Y-70776630D01*
X84032040Y-70778325D01*
X84012996Y-70782269D01*
X83991942Y-70784929D01*
X83991940Y-70784929D01*
X83946781Y-70802808D01*
X83941255Y-70804700D01*
X83894601Y-70818254D01*
X83876325Y-70829063D01*
X83858860Y-70837619D01*
X83839124Y-70845433D01*
X83799824Y-70873986D01*
X83794942Y-70877193D01*
X83753136Y-70901917D01*
X83738124Y-70916929D01*
X83723336Y-70929558D01*
X83706167Y-70942032D01*
X83706165Y-70942034D01*
X83675194Y-70979470D01*
X83671262Y-70983791D01*
X83420483Y-71234569D01*
X83407910Y-71244643D01*
X83408065Y-71244830D01*
X83402059Y-71249798D01*
X83377434Y-71276021D01*
X83352809Y-71302244D01*
X83341949Y-71313104D01*
X83331088Y-71323965D01*
X83331078Y-71323977D01*
X83326587Y-71329765D01*
X83322801Y-71334197D01*
X83289549Y-71369609D01*
X83289311Y-71369938D01*
X83289058Y-71370132D01*
X83284215Y-71375291D01*
X83283382Y-71374509D01*
X83233978Y-71412599D01*
X83164364Y-71418572D01*
X83102571Y-71385961D01*
X83068219Y-71325120D01*
X83064999Y-71297044D01*
X83064999Y-70738520D01*
X83050164Y-70644850D01*
X83050162Y-70644844D01*
X82992643Y-70531958D01*
X82992636Y-70531949D01*
X82903050Y-70442363D01*
X82903046Y-70442360D01*
X82790144Y-70384833D01*
X82696486Y-70370000D01*
X82115000Y-70370000D01*
X82115000Y-71496000D01*
X82095315Y-71563039D01*
X82042511Y-71608794D01*
X81991000Y-71620000D01*
X81839000Y-71620000D01*
X81771961Y-71600315D01*
X81726206Y-71547511D01*
X81715000Y-71496000D01*
X81715000Y-70370000D01*
X81133520Y-70370000D01*
X81039850Y-70384835D01*
X81039844Y-70384837D01*
X80926958Y-70442356D01*
X80926949Y-70442363D01*
X80837363Y-70531949D01*
X80837360Y-70531953D01*
X80779833Y-70644855D01*
X80779833Y-70644856D01*
X80767472Y-70722903D01*
X80737542Y-70786038D01*
X80678231Y-70822969D01*
X80608368Y-70821971D01*
X80550136Y-70783361D01*
X80522525Y-70722901D01*
X80510164Y-70644850D01*
X80510162Y-70644844D01*
X80452643Y-70531958D01*
X80452636Y-70531949D01*
X80363050Y-70442363D01*
X80363046Y-70442360D01*
X80250144Y-70384833D01*
X80156486Y-70370000D01*
X79575000Y-70370000D01*
X79575000Y-71496000D01*
X79555315Y-71563039D01*
X79502511Y-71608794D01*
X79451000Y-71620000D01*
X79299000Y-71620000D01*
X79231961Y-71600315D01*
X79186206Y-71547511D01*
X79175000Y-71496000D01*
X79175000Y-70370000D01*
X78593520Y-70370000D01*
X78499850Y-70384835D01*
X78499844Y-70384837D01*
X78386958Y-70442356D01*
X78386949Y-70442363D01*
X78297363Y-70531949D01*
X78297360Y-70531953D01*
X78239833Y-70644855D01*
X78239833Y-70644856D01*
X78227472Y-70722903D01*
X78197542Y-70786038D01*
X78138231Y-70822969D01*
X78068368Y-70821971D01*
X78010136Y-70783361D01*
X77982525Y-70722901D01*
X77970164Y-70644850D01*
X77970162Y-70644844D01*
X77912643Y-70531958D01*
X77912636Y-70531949D01*
X77823050Y-70442363D01*
X77823046Y-70442360D01*
X77710144Y-70384833D01*
X77616486Y-70370000D01*
X77035000Y-70370000D01*
X77035000Y-71496000D01*
X77015315Y-71563039D01*
X76962511Y-71608794D01*
X76911000Y-71620000D01*
X75685001Y-71620000D01*
X75685001Y-72101479D01*
X75699835Y-72195149D01*
X75699837Y-72195155D01*
X75757356Y-72308041D01*
X75763098Y-72315944D01*
X75760100Y-72318121D01*
X75784764Y-72363289D01*
X75779780Y-72432981D01*
X75760855Y-72462427D01*
X75762689Y-72463759D01*
X75756951Y-72471657D01*
X75699352Y-72584698D01*
X75684500Y-72678475D01*
X75684500Y-74041517D01*
X75695292Y-74109657D01*
X75699354Y-74135304D01*
X75756950Y-74248342D01*
X75756952Y-74248344D01*
X75756954Y-74248347D01*
X75846652Y-74338045D01*
X75846654Y-74338046D01*
X75846658Y-74338050D01*
X75959046Y-74395315D01*
X75959698Y-74395647D01*
X76053475Y-74410499D01*
X76053481Y-74410500D01*
X77616518Y-74410499D01*
X77710304Y-74395646D01*
X77823342Y-74338050D01*
X77913050Y-74248342D01*
X77970646Y-74135304D01*
X77973845Y-74115102D01*
X78003774Y-74051968D01*
X78063085Y-74015037D01*
X78096319Y-74010500D01*
X78113681Y-74010500D01*
X78180720Y-74030185D01*
X78226475Y-74082989D01*
X78236154Y-74115103D01*
X78239352Y-74135299D01*
X78239352Y-74135300D01*
X78239353Y-74135303D01*
X78239354Y-74135304D01*
X78296950Y-74248342D01*
X78323181Y-74274573D01*
X78356666Y-74335894D01*
X78359500Y-74362254D01*
X78359500Y-74806000D01*
X78339815Y-74873039D01*
X78287011Y-74918794D01*
X78235500Y-74930000D01*
X71120000Y-74930000D01*
X71120000Y-93221000D01*
X71100315Y-93288039D01*
X71047511Y-93333794D01*
X70996000Y-93345000D01*
X67945000Y-93345000D01*
X67945000Y-99695000D01*
X86360000Y-99695000D01*
X102870000Y-99695000D01*
X102870000Y-92459407D01*
X102889685Y-92392368D01*
X102942489Y-92346613D01*
X102987512Y-92335577D01*
X103011646Y-92334313D01*
X103025187Y-92330683D01*
X103044313Y-92327138D01*
X103058256Y-92325674D01*
X103124306Y-92304212D01*
X103127368Y-92303304D01*
X103194488Y-92285320D01*
X103206976Y-92278956D01*
X103224950Y-92271510D01*
X103238284Y-92267179D01*
X103298476Y-92232425D01*
X103301222Y-92230934D01*
X103363149Y-92199383D01*
X103374031Y-92190569D01*
X103390083Y-92179537D01*
X103402216Y-92172533D01*
X103453847Y-92126043D01*
X103456260Y-92123982D01*
X103473380Y-92110119D01*
X103488929Y-92094568D01*
X103491270Y-92092347D01*
X103542888Y-92045871D01*
X103551130Y-92034525D01*
X103563760Y-92019737D01*
X104950561Y-90632937D01*
X105413499Y-90170000D01*
X111760000Y-90170000D01*
X111760000Y-68820500D01*
X137570500Y-68820500D01*
X137637539Y-68840185D01*
X137683294Y-68892989D01*
X137694500Y-68944500D01*
X137694500Y-90147947D01*
X137674815Y-90214986D01*
X137622011Y-90260741D01*
X137552853Y-90270685D01*
X137489297Y-90241660D01*
X137470184Y-90220836D01*
X137465934Y-90214986D01*
X137452011Y-90195822D01*
X137448818Y-90190964D01*
X137424081Y-90149135D01*
X137424079Y-90149133D01*
X137424078Y-90149131D01*
X137409075Y-90134129D01*
X137396435Y-90119330D01*
X137383961Y-90102160D01*
X137346528Y-90071194D01*
X137342206Y-90067260D01*
X134671819Y-87396873D01*
X134638334Y-87335550D01*
X134635500Y-87309192D01*
X134635500Y-86445502D01*
X134637268Y-86429489D01*
X134637026Y-86429467D01*
X134637758Y-86421711D01*
X134637760Y-86421704D01*
X134635500Y-86349796D01*
X134635500Y-86319075D01*
X134634579Y-86311788D01*
X134634122Y-86305979D01*
X134633315Y-86280292D01*
X134632597Y-86257431D01*
X134626676Y-86237053D01*
X134622731Y-86218004D01*
X134620071Y-86196942D01*
X134602185Y-86151769D01*
X134600296Y-86146249D01*
X134586743Y-86099600D01*
X134575940Y-86081334D01*
X134567378Y-86063856D01*
X134559568Y-86044129D01*
X134559565Y-86044125D01*
X134541404Y-86019128D01*
X134531014Y-86004827D01*
X134527811Y-85999951D01*
X134503081Y-85958135D01*
X134503079Y-85958133D01*
X134503078Y-85958131D01*
X134488075Y-85943129D01*
X134475435Y-85928330D01*
X134462961Y-85911160D01*
X134425528Y-85880194D01*
X134421206Y-85876260D01*
X133092126Y-84547180D01*
X133058641Y-84485857D01*
X133063625Y-84416165D01*
X133105497Y-84360232D01*
X133170961Y-84335815D01*
X133179783Y-84335499D01*
X134331518Y-84335499D01*
X134425304Y-84320646D01*
X134538342Y-84263050D01*
X134538349Y-84263042D01*
X134546241Y-84257311D01*
X134548329Y-84260185D01*
X134593895Y-84235256D01*
X134663591Y-84240184D01*
X134692647Y-84258840D01*
X134694056Y-84256902D01*
X134701953Y-84262639D01*
X134814855Y-84320166D01*
X134908514Y-84334999D01*
X135389999Y-84334999D01*
X135390000Y-84334998D01*
X135390000Y-83385000D01*
X135790000Y-83385000D01*
X135790000Y-84334999D01*
X136271479Y-84334999D01*
X136365149Y-84320164D01*
X136365155Y-84320162D01*
X136478041Y-84262643D01*
X136478050Y-84262636D01*
X136567636Y-84173050D01*
X136567639Y-84173046D01*
X136625166Y-84060144D01*
X136640000Y-83966486D01*
X136640000Y-83385000D01*
X135790000Y-83385000D01*
X135390000Y-83385000D01*
X135390000Y-83109000D01*
X135409685Y-83041961D01*
X135462489Y-82996206D01*
X135514000Y-82985000D01*
X136639999Y-82985000D01*
X136639999Y-82403520D01*
X136625164Y-82309850D01*
X136625162Y-82309844D01*
X136567643Y-82196958D01*
X136567636Y-82196949D01*
X136478050Y-82107363D01*
X136478046Y-82107360D01*
X136365144Y-82049833D01*
X136288694Y-82037725D01*
X136225559Y-82007796D01*
X136188628Y-81948484D01*
X136189626Y-81878621D01*
X136228236Y-81820389D01*
X136288694Y-81792778D01*
X136365304Y-81780646D01*
X136478342Y-81723050D01*
X136568050Y-81633342D01*
X136625646Y-81520304D01*
X136625646Y-81520302D01*
X136625647Y-81520301D01*
X136640499Y-81426524D01*
X136640500Y-81426519D01*
X136640499Y-79863482D01*
X136625646Y-79769696D01*
X136568050Y-79656658D01*
X136568046Y-79656654D01*
X136568045Y-79656652D01*
X136478347Y-79566954D01*
X136478344Y-79566952D01*
X136478342Y-79566950D01*
X136365304Y-79509354D01*
X136365303Y-79509353D01*
X136365300Y-79509352D01*
X136288693Y-79497219D01*
X136225558Y-79467290D01*
X136188627Y-79407978D01*
X136189625Y-79338115D01*
X136228235Y-79279883D01*
X136288695Y-79252272D01*
X136365149Y-79240164D01*
X136365155Y-79240162D01*
X136478041Y-79182643D01*
X136478050Y-79182636D01*
X136567636Y-79093050D01*
X136567639Y-79093046D01*
X136625166Y-78980144D01*
X136640000Y-78886486D01*
X136640000Y-78305000D01*
X135514000Y-78305000D01*
X135446961Y-78285315D01*
X135401206Y-78232511D01*
X135390000Y-78181000D01*
X135390000Y-78029000D01*
X135409685Y-77961961D01*
X135462489Y-77916206D01*
X135514000Y-77905000D01*
X136639999Y-77905000D01*
X136639999Y-77323520D01*
X136625164Y-77229850D01*
X136625162Y-77229844D01*
X136567643Y-77116958D01*
X136567636Y-77116949D01*
X136478050Y-77027363D01*
X136478046Y-77027360D01*
X136365144Y-76969833D01*
X136287096Y-76957472D01*
X136223961Y-76927543D01*
X136187030Y-76868231D01*
X136188028Y-76798368D01*
X136226638Y-76740136D01*
X136287098Y-76712525D01*
X136365149Y-76700164D01*
X136365155Y-76700162D01*
X136478041Y-76642643D01*
X136478050Y-76642636D01*
X136567636Y-76553050D01*
X136567639Y-76553046D01*
X136625166Y-76440144D01*
X136640000Y-76346486D01*
X136640000Y-75765000D01*
X135514000Y-75765000D01*
X135446961Y-75745315D01*
X135401206Y-75692511D01*
X135390000Y-75641000D01*
X135390000Y-75489000D01*
X135409685Y-75421961D01*
X135462489Y-75376206D01*
X135514000Y-75365000D01*
X136639999Y-75365000D01*
X136639999Y-74783520D01*
X136625164Y-74689850D01*
X136625162Y-74689844D01*
X136567643Y-74576958D01*
X136567636Y-74576949D01*
X136478050Y-74487363D01*
X136478046Y-74487360D01*
X136365144Y-74429833D01*
X136271486Y-74415000D01*
X136038520Y-74415000D01*
X135971481Y-74395315D01*
X135925726Y-74342511D01*
X135915300Y-74277117D01*
X135933565Y-74115003D01*
X135933565Y-74114995D01*
X135913369Y-73935749D01*
X135913368Y-73935744D01*
X135863328Y-73792738D01*
X135853789Y-73765477D01*
X135846983Y-73754646D01*
X135757815Y-73612736D01*
X135630262Y-73485183D01*
X135477523Y-73389210D01*
X135307254Y-73329630D01*
X135307249Y-73329629D01*
X135128004Y-73309434D01*
X135127996Y-73309434D01*
X134948750Y-73329629D01*
X134948737Y-73329632D01*
X134778481Y-73389208D01*
X134778477Y-73389209D01*
X134688904Y-73445493D01*
X134622932Y-73464499D01*
X134465503Y-73464499D01*
X134449492Y-73462731D01*
X134449470Y-73462973D01*
X134441703Y-73462239D01*
X134441702Y-73462239D01*
X134369795Y-73464499D01*
X134339074Y-73464499D01*
X134339070Y-73464499D01*
X134339060Y-73464500D01*
X134331792Y-73465418D01*
X134325975Y-73465875D01*
X134277434Y-73467401D01*
X134277423Y-73467403D01*
X134257047Y-73473322D01*
X134238007Y-73477265D01*
X134216946Y-73479926D01*
X134216938Y-73479928D01*
X134171774Y-73497810D01*
X134166246Y-73499702D01*
X134119601Y-73513254D01*
X134101331Y-73524059D01*
X134083862Y-73532617D01*
X134064127Y-73540431D01*
X134064125Y-73540432D01*
X134024838Y-73568976D01*
X134019955Y-73572183D01*
X133978131Y-73596918D01*
X133963125Y-73611925D01*
X133948335Y-73624557D01*
X133931166Y-73637031D01*
X133931164Y-73637033D01*
X133900193Y-73674469D01*
X133896261Y-73678790D01*
X133250483Y-74324567D01*
X133237910Y-74334641D01*
X133238065Y-74334828D01*
X133232058Y-74339797D01*
X133198638Y-74375385D01*
X133138396Y-74410779D01*
X133108248Y-74414500D01*
X132968482Y-74414500D01*
X132889149Y-74427065D01*
X132874696Y-74429354D01*
X132761658Y-74486950D01*
X132761657Y-74486951D01*
X132761652Y-74486954D01*
X132671954Y-74576652D01*
X132671951Y-74576657D01*
X132671950Y-74576658D01*
X132652751Y-74614337D01*
X132614352Y-74689698D01*
X132599500Y-74783475D01*
X132599500Y-75344191D01*
X132579815Y-75411230D01*
X132563181Y-75431872D01*
X132315483Y-75679569D01*
X132302910Y-75689643D01*
X132303065Y-75689830D01*
X132297059Y-75694798D01*
X132278827Y-75714214D01*
X132247809Y-75747244D01*
X132236949Y-75758104D01*
X132226088Y-75768965D01*
X132226078Y-75768977D01*
X132221587Y-75774765D01*
X132217801Y-75779197D01*
X132184552Y-75814606D01*
X132174322Y-75833213D01*
X132163646Y-75849464D01*
X132150640Y-75866232D01*
X132150636Y-75866238D01*
X132131348Y-75910811D01*
X132128777Y-75916058D01*
X132105372Y-75958630D01*
X132105372Y-75958631D01*
X132100091Y-75979199D01*
X132093791Y-75997601D01*
X132085364Y-76017073D01*
X132077766Y-76065047D01*
X132076581Y-76070770D01*
X132064500Y-76117818D01*
X132064500Y-76139044D01*
X132062973Y-76158444D01*
X132059653Y-76179403D01*
X132064225Y-76227767D01*
X132064500Y-76233606D01*
X132064500Y-76761789D01*
X132062304Y-76785020D01*
X132060624Y-76793826D01*
X132060624Y-76793830D01*
X132064378Y-76853507D01*
X132064500Y-76857380D01*
X132064500Y-78031789D01*
X132062304Y-78055020D01*
X132060624Y-78063826D01*
X132060624Y-78063830D01*
X132064378Y-78123507D01*
X132064500Y-78127380D01*
X132064500Y-79301789D01*
X132062304Y-79325020D01*
X132060624Y-79333826D01*
X132060624Y-79333830D01*
X132064378Y-79393507D01*
X132064500Y-79397380D01*
X132064500Y-79924494D01*
X132062732Y-79940505D01*
X132062974Y-79940528D01*
X132062240Y-79948294D01*
X132064500Y-80020203D01*
X132064500Y-80050920D01*
X132064501Y-80050940D01*
X132065418Y-80058206D01*
X132065876Y-80064024D01*
X132067402Y-80112567D01*
X132067403Y-80112570D01*
X132073323Y-80132948D01*
X132077268Y-80151996D01*
X132079928Y-80173054D01*
X132079931Y-80173064D01*
X132097813Y-80218230D01*
X132099705Y-80223758D01*
X132113254Y-80270395D01*
X132113255Y-80270397D01*
X132124060Y-80288666D01*
X132132617Y-80306134D01*
X132138226Y-80320300D01*
X132140432Y-80325872D01*
X132168983Y-80365170D01*
X132172191Y-80370053D01*
X132185461Y-80392492D01*
X132196919Y-80411865D01*
X132196923Y-80411869D01*
X132211925Y-80426871D01*
X132224563Y-80441669D01*
X132237033Y-80458833D01*
X132237036Y-80458836D01*
X132237037Y-80458837D01*
X132274476Y-80489809D01*
X132278776Y-80493722D01*
X132429737Y-80644683D01*
X132563181Y-80778127D01*
X132596666Y-80839450D01*
X132599500Y-80865808D01*
X132599500Y-81426517D01*
X132610292Y-81494657D01*
X132614354Y-81520304D01*
X132671950Y-81633342D01*
X132671952Y-81633344D01*
X132671954Y-81633347D01*
X132761652Y-81723045D01*
X132761654Y-81723046D01*
X132761658Y-81723050D01*
X132874696Y-81780646D01*
X132874697Y-81780646D01*
X132874699Y-81780647D01*
X132949707Y-81792527D01*
X133012842Y-81822456D01*
X133049774Y-81881767D01*
X133048776Y-81951630D01*
X133010167Y-82009863D01*
X132949708Y-82037473D01*
X132874699Y-82049352D01*
X132819297Y-82077580D01*
X132761658Y-82106950D01*
X132761657Y-82106951D01*
X132761652Y-82106954D01*
X132671954Y-82196652D01*
X132671951Y-82196657D01*
X132671950Y-82196658D01*
X132654518Y-82230871D01*
X132614352Y-82309698D01*
X132599500Y-82403475D01*
X132599500Y-82410500D01*
X132579815Y-82477539D01*
X132527011Y-82523294D01*
X132475500Y-82534500D01*
X132400808Y-82534500D01*
X132333769Y-82514815D01*
X132313127Y-82498181D01*
X131496819Y-81681873D01*
X131463334Y-81620550D01*
X131460500Y-81594192D01*
X131460500Y-74800067D01*
X131479507Y-74734094D01*
X131535788Y-74644524D01*
X131541303Y-74628764D01*
X131595368Y-74474255D01*
X131601161Y-74422841D01*
X131615565Y-74295003D01*
X131615565Y-74294996D01*
X131595369Y-74115750D01*
X131595368Y-74115745D01*
X131535788Y-73945476D01*
X131496582Y-73883080D01*
X131439816Y-73792738D01*
X131312262Y-73665184D01*
X131238484Y-73618826D01*
X131159523Y-73569211D01*
X130989254Y-73509631D01*
X130989249Y-73509630D01*
X130810004Y-73489435D01*
X130809996Y-73489435D01*
X130630750Y-73509630D01*
X130630745Y-73509631D01*
X130460476Y-73569211D01*
X130307737Y-73665184D01*
X130180184Y-73792737D01*
X130084211Y-73945476D01*
X130024631Y-74115745D01*
X130024630Y-74115750D01*
X130004435Y-74294996D01*
X130004435Y-74295003D01*
X130024630Y-74474249D01*
X130024631Y-74474254D01*
X130084211Y-74644524D01*
X130140493Y-74734094D01*
X130159500Y-74800067D01*
X130159500Y-81829494D01*
X130157732Y-81845505D01*
X130157974Y-81845528D01*
X130157240Y-81853294D01*
X130159500Y-81925203D01*
X130159500Y-81955920D01*
X130159501Y-81955940D01*
X130160418Y-81963206D01*
X130160876Y-81969024D01*
X130162402Y-82017567D01*
X130162403Y-82017570D01*
X130168323Y-82037948D01*
X130172268Y-82056996D01*
X130174928Y-82078054D01*
X130174931Y-82078064D01*
X130192813Y-82123230D01*
X130194705Y-82128758D01*
X130208254Y-82175395D01*
X130208255Y-82175397D01*
X130219060Y-82193666D01*
X130227617Y-82211134D01*
X130233226Y-82225300D01*
X130235432Y-82230872D01*
X130263983Y-82270170D01*
X130267191Y-82275053D01*
X130287766Y-82309844D01*
X130291919Y-82316865D01*
X130291923Y-82316869D01*
X130306925Y-82331871D01*
X130319563Y-82346669D01*
X130332033Y-82363833D01*
X130332036Y-82363836D01*
X130332037Y-82363837D01*
X130369476Y-82394809D01*
X130373776Y-82398722D01*
X130910559Y-82935505D01*
X131393181Y-83418127D01*
X131426666Y-83479450D01*
X131429500Y-83505808D01*
X131429500Y-84369494D01*
X131427732Y-84385505D01*
X131427974Y-84385528D01*
X131427240Y-84393294D01*
X131429500Y-84465203D01*
X131429500Y-84490192D01*
X131409815Y-84557231D01*
X131357011Y-84602986D01*
X131287853Y-84612930D01*
X131224297Y-84583905D01*
X131217819Y-84577873D01*
X130695434Y-84055488D01*
X130685361Y-84042914D01*
X130685174Y-84043070D01*
X130680201Y-84037059D01*
X130627756Y-83987810D01*
X130606035Y-83966089D01*
X130600240Y-83961594D01*
X130595798Y-83957799D01*
X130560396Y-83924554D01*
X130560388Y-83924548D01*
X130541792Y-83914325D01*
X130525531Y-83903644D01*
X130508763Y-83890637D01*
X130485295Y-83880482D01*
X130464178Y-83871343D01*
X130458956Y-83868786D01*
X130416368Y-83845373D01*
X130416365Y-83845372D01*
X130395801Y-83840092D01*
X130377396Y-83833790D01*
X130357927Y-83825365D01*
X130357921Y-83825363D01*
X130309951Y-83817766D01*
X130304236Y-83816582D01*
X130287772Y-83812355D01*
X130257180Y-83804500D01*
X130257177Y-83804500D01*
X130235955Y-83804500D01*
X130216555Y-83802973D01*
X130195596Y-83799653D01*
X130195595Y-83799653D01*
X130171786Y-83801903D01*
X130147230Y-83804225D01*
X130141392Y-83804500D01*
X128140068Y-83804500D01*
X128074096Y-83785494D01*
X127984522Y-83729210D01*
X127984518Y-83729209D01*
X127814262Y-83669633D01*
X127814249Y-83669630D01*
X127635004Y-83649435D01*
X127634996Y-83649435D01*
X127455750Y-83669630D01*
X127455745Y-83669631D01*
X127285476Y-83729211D01*
X127180472Y-83795190D01*
X127113235Y-83814190D01*
X127046400Y-83793822D01*
X127001186Y-83740554D01*
X126990500Y-83690196D01*
X126990500Y-76510452D01*
X127010185Y-76443413D01*
X127026819Y-76422771D01*
X127674825Y-75774765D01*
X128328380Y-75121209D01*
X128389701Y-75087726D01*
X128402158Y-75085674D01*
X128449255Y-75080368D01*
X128619522Y-75020789D01*
X128772262Y-74924816D01*
X128899816Y-74797262D01*
X128995789Y-74644522D01*
X129055368Y-74474255D01*
X129061161Y-74422841D01*
X129075565Y-74295003D01*
X129075565Y-74294996D01*
X129055369Y-74115750D01*
X129055368Y-74115745D01*
X128995788Y-73945476D01*
X128956582Y-73883080D01*
X128899816Y-73792738D01*
X128772262Y-73665184D01*
X128698484Y-73618826D01*
X128619523Y-73569211D01*
X128449254Y-73509631D01*
X128449249Y-73509630D01*
X128270004Y-73489435D01*
X128269996Y-73489435D01*
X128090750Y-73509630D01*
X128090745Y-73509631D01*
X127920476Y-73569211D01*
X127767737Y-73665184D01*
X127722680Y-73710241D01*
X127661357Y-73743725D01*
X127591665Y-73738740D01*
X127547320Y-73710241D01*
X127502263Y-73665185D01*
X127502262Y-73665184D01*
X127349523Y-73569211D01*
X127179254Y-73509631D01*
X127179249Y-73509630D01*
X127000004Y-73489435D01*
X126999996Y-73489435D01*
X126820750Y-73509630D01*
X126820745Y-73509631D01*
X126650476Y-73569211D01*
X126497737Y-73665184D01*
X126452680Y-73710241D01*
X126391357Y-73743725D01*
X126321665Y-73738740D01*
X126277320Y-73710241D01*
X126232263Y-73665185D01*
X126232262Y-73665184D01*
X126079523Y-73569211D01*
X125909254Y-73509631D01*
X125909249Y-73509630D01*
X125730004Y-73489435D01*
X125729996Y-73489435D01*
X125550750Y-73509630D01*
X125550745Y-73509631D01*
X125380476Y-73569211D01*
X125227737Y-73665184D01*
X125182680Y-73710241D01*
X125121357Y-73743725D01*
X125051665Y-73738740D01*
X125007320Y-73710241D01*
X124962263Y-73665185D01*
X124962262Y-73665184D01*
X124809523Y-73569211D01*
X124639254Y-73509631D01*
X124639249Y-73509630D01*
X124460004Y-73489435D01*
X124459996Y-73489435D01*
X124280750Y-73509630D01*
X124280745Y-73509631D01*
X124110476Y-73569211D01*
X123957737Y-73665184D01*
X123830184Y-73792737D01*
X123734210Y-73945478D01*
X123674630Y-74115750D01*
X123669326Y-74162825D01*
X123642258Y-74227239D01*
X123633787Y-74236621D01*
X122171208Y-75699199D01*
X122158951Y-75709020D01*
X122159134Y-75709241D01*
X122153123Y-75714213D01*
X122105772Y-75764636D01*
X122084889Y-75785519D01*
X122084877Y-75785532D01*
X122080621Y-75791017D01*
X122076837Y-75795447D01*
X122044937Y-75829418D01*
X122044936Y-75829420D01*
X122035284Y-75846976D01*
X122024610Y-75863226D01*
X122012329Y-75879061D01*
X122012324Y-75879068D01*
X121993815Y-75921838D01*
X121991245Y-75927084D01*
X121968803Y-75967906D01*
X121963822Y-75987307D01*
X121957521Y-76005710D01*
X121949562Y-76024102D01*
X121949561Y-76024105D01*
X121942271Y-76070127D01*
X121941087Y-76075846D01*
X121929501Y-76120972D01*
X121929500Y-76120982D01*
X121929500Y-76141016D01*
X121927973Y-76160415D01*
X121924840Y-76180194D01*
X121924840Y-76180195D01*
X121929225Y-76226583D01*
X121929500Y-76232421D01*
X121929500Y-80850196D01*
X121909815Y-80917235D01*
X121857011Y-80962990D01*
X121787853Y-80972934D01*
X121739528Y-80955190D01*
X121634523Y-80889211D01*
X121464254Y-80829631D01*
X121464249Y-80829630D01*
X121285004Y-80809435D01*
X121284996Y-80809435D01*
X121105750Y-80829630D01*
X121105745Y-80829631D01*
X120935476Y-80889211D01*
X120782737Y-80985184D01*
X120655184Y-81112737D01*
X120559211Y-81265476D01*
X120499631Y-81435745D01*
X120499630Y-81435750D01*
X120479435Y-81614996D01*
X120479435Y-81615003D01*
X120499630Y-81794249D01*
X120499631Y-81794254D01*
X120559211Y-81964524D01*
X120615493Y-82054094D01*
X120634500Y-82120067D01*
X120634500Y-83949931D01*
X120615494Y-84015903D01*
X120559211Y-84105477D01*
X120559209Y-84105481D01*
X120499633Y-84275737D01*
X120499630Y-84275750D01*
X120479435Y-84454996D01*
X120479435Y-84455003D01*
X120499630Y-84634249D01*
X120499631Y-84634254D01*
X120559211Y-84804522D01*
X120625191Y-84909528D01*
X120644191Y-84976764D01*
X120623824Y-85043600D01*
X120570556Y-85088814D01*
X120520197Y-85099500D01*
X118192737Y-85099500D01*
X118177120Y-85097776D01*
X118177093Y-85098062D01*
X118169331Y-85097327D01*
X118100203Y-85099500D01*
X118070650Y-85099500D01*
X118069929Y-85099590D01*
X118063757Y-85100369D01*
X118057945Y-85100826D01*
X118011373Y-85102290D01*
X118011372Y-85102290D01*
X117992129Y-85107881D01*
X117973079Y-85111825D01*
X117953211Y-85114334D01*
X117953209Y-85114335D01*
X117909884Y-85131488D01*
X117904357Y-85133380D01*
X117859610Y-85146381D01*
X117859609Y-85146382D01*
X117842367Y-85156579D01*
X117824899Y-85165137D01*
X117806269Y-85172513D01*
X117806267Y-85172514D01*
X117768576Y-85199898D01*
X117763694Y-85203105D01*
X117723579Y-85226830D01*
X117709408Y-85241000D01*
X117694623Y-85253628D01*
X117678412Y-85265407D01*
X117648709Y-85301310D01*
X117644777Y-85305631D01*
X116453579Y-86496830D01*
X112011208Y-90939199D01*
X111998951Y-90949020D01*
X111999134Y-90949241D01*
X111993123Y-90954213D01*
X111945772Y-91004636D01*
X111924889Y-91025519D01*
X111924877Y-91025532D01*
X111920621Y-91031017D01*
X111916837Y-91035447D01*
X111884937Y-91069418D01*
X111884936Y-91069420D01*
X111875284Y-91086976D01*
X111864610Y-91103226D01*
X111852329Y-91119061D01*
X111852324Y-91119068D01*
X111833815Y-91161838D01*
X111831245Y-91167084D01*
X111808803Y-91207906D01*
X111803822Y-91227307D01*
X111797521Y-91245710D01*
X111789562Y-91264102D01*
X111789561Y-91264105D01*
X111782271Y-91310127D01*
X111781087Y-91315846D01*
X111769501Y-91360972D01*
X111769500Y-91360982D01*
X111769500Y-91381016D01*
X111767973Y-91400415D01*
X111764840Y-91420194D01*
X111764840Y-91420195D01*
X111769225Y-91466583D01*
X111769500Y-91472421D01*
X111769500Y-115894547D01*
X111749815Y-115961586D01*
X111733181Y-115982228D01*
X105822228Y-121893181D01*
X105760905Y-121926666D01*
X105734547Y-121929500D01*
X103414855Y-121929500D01*
X103348883Y-121910494D01*
X103219523Y-121829211D01*
X103049254Y-121769631D01*
X103049249Y-121769630D01*
X102870004Y-121749435D01*
X102869996Y-121749435D01*
X102690750Y-121769630D01*
X102690745Y-121769631D01*
X102520476Y-121829211D01*
X102367737Y-121925184D01*
X102240184Y-122052737D01*
X102144211Y-122205476D01*
X102084631Y-122375745D01*
X102084630Y-122375750D01*
X102064435Y-122554996D01*
X102064435Y-122555003D01*
X102084630Y-122734249D01*
X102084631Y-122734254D01*
X102144211Y-122904523D01*
X102212222Y-123012761D01*
X102240184Y-123057262D01*
X102367738Y-123184816D01*
X102458080Y-123241582D01*
X102502842Y-123269708D01*
X102520478Y-123280789D01*
X102690745Y-123340368D01*
X102690750Y-123340369D01*
X102869996Y-123360565D01*
X102870000Y-123360565D01*
X102870004Y-123360565D01*
X103049249Y-123340369D01*
X103049252Y-123340368D01*
X103049255Y-123340368D01*
X103219522Y-123280789D01*
X103348883Y-123199505D01*
X103414855Y-123180500D01*
X105962257Y-123180500D01*
X105977877Y-123182224D01*
X105977904Y-123181939D01*
X105985660Y-123182671D01*
X105985667Y-123182673D01*
X106054814Y-123180500D01*
X106084350Y-123180500D01*
X106091230Y-123179630D01*
X106097037Y-123179172D01*
X106139371Y-123177842D01*
X106206994Y-123195411D01*
X106254385Y-123246752D01*
X106266496Y-123315564D01*
X106239481Y-123380000D01*
X106230945Y-123389462D01*
X97416208Y-132204199D01*
X97403951Y-132214020D01*
X97404134Y-132214241D01*
X97398123Y-132219213D01*
X97350772Y-132269636D01*
X97329889Y-132290519D01*
X97329877Y-132290532D01*
X97325621Y-132296017D01*
X97321837Y-132300447D01*
X97289937Y-132334418D01*
X97289936Y-132334420D01*
X97280284Y-132351976D01*
X97269610Y-132368226D01*
X97257329Y-132384061D01*
X97257324Y-132384068D01*
X97238815Y-132426838D01*
X97236245Y-132432084D01*
X97213803Y-132472906D01*
X97208822Y-132492307D01*
X97202521Y-132510710D01*
X97194562Y-132529102D01*
X97194561Y-132529105D01*
X97187271Y-132575127D01*
X97186087Y-132580846D01*
X97174501Y-132625972D01*
X97174500Y-132625982D01*
X97174500Y-132646016D01*
X97172973Y-132665413D01*
X97172249Y-132669983D01*
X97169840Y-132685194D01*
X97169840Y-132685195D01*
X97174225Y-132731583D01*
X97174500Y-132737421D01*
X97174500Y-133092907D01*
X97154815Y-133159946D01*
X97102011Y-133205701D01*
X97083957Y-133212308D01*
X97078158Y-133213932D01*
X97078157Y-133213932D01*
X96808324Y-133331137D01*
X96808319Y-133331139D01*
X96556954Y-133483998D01*
X96328743Y-133669661D01*
X96127932Y-133884676D01*
X95958282Y-134125016D01*
X95958278Y-134125022D01*
X95822925Y-134386242D01*
X95822922Y-134386248D01*
X95778222Y-134512025D01*
X95737224Y-134568602D01*
X95672147Y-134594032D01*
X95661382Y-134594500D01*
X94665955Y-134594500D01*
X94646555Y-134592973D01*
X94625596Y-134589653D01*
X94625595Y-134589653D01*
X94601786Y-134591903D01*
X94577230Y-134594225D01*
X94571392Y-134594500D01*
X92805506Y-134594500D01*
X92789495Y-134592732D01*
X92789473Y-134592974D01*
X92781706Y-134592239D01*
X92709783Y-134594500D01*
X92679075Y-134594500D01*
X92679071Y-134594500D01*
X92679060Y-134594501D01*
X92671804Y-134595417D01*
X92665986Y-134595875D01*
X92617433Y-134597401D01*
X92602873Y-134601630D01*
X92597040Y-134603325D01*
X92577996Y-134607269D01*
X92556942Y-134609929D01*
X92556940Y-134609929D01*
X92511781Y-134627808D01*
X92506255Y-134629700D01*
X92459601Y-134643254D01*
X92441325Y-134654063D01*
X92423860Y-134662619D01*
X92404124Y-134670433D01*
X92364824Y-134698986D01*
X92359942Y-134702193D01*
X92318136Y-134726917D01*
X92303124Y-134741929D01*
X92288336Y-134754558D01*
X92271167Y-134767032D01*
X92271165Y-134767034D01*
X92240194Y-134804470D01*
X92236262Y-134808791D01*
X91675483Y-135369569D01*
X91662910Y-135379643D01*
X91663065Y-135379830D01*
X91657059Y-135384798D01*
X91632434Y-135411021D01*
X91607809Y-135437244D01*
X91596949Y-135448104D01*
X91586088Y-135458965D01*
X91586078Y-135458977D01*
X91581587Y-135464765D01*
X91577801Y-135469197D01*
X91544552Y-135504606D01*
X91534322Y-135523213D01*
X91523646Y-135539464D01*
X91510640Y-135556232D01*
X91510636Y-135556238D01*
X91491348Y-135600811D01*
X91488777Y-135606058D01*
X91465372Y-135648630D01*
X91465372Y-135648631D01*
X91460091Y-135669199D01*
X91453789Y-135687605D01*
X91448534Y-135699748D01*
X91403843Y-135753456D01*
X91337210Y-135774475D01*
X91334736Y-135774500D01*
X91293483Y-135774500D01*
X91214550Y-135787001D01*
X91199696Y-135789354D01*
X91086658Y-135846950D01*
X91086657Y-135846951D01*
X91086652Y-135846954D01*
X90996954Y-135936652D01*
X90996951Y-135936657D01*
X90939352Y-136049698D01*
X90924500Y-136143475D01*
X90924500Y-137506517D01*
X90932655Y-137558003D01*
X90939354Y-137600304D01*
X90996950Y-137713342D01*
X90996953Y-137713345D01*
X91002689Y-137721241D01*
X90999819Y-137723325D01*
X91024753Y-137768945D01*
X91019797Y-137838638D01*
X91001170Y-137867655D01*
X91003098Y-137869056D01*
X90997360Y-137876953D01*
X90939833Y-137989855D01*
X90925000Y-138083513D01*
X90925000Y-138306000D01*
X90905315Y-138373039D01*
X90852511Y-138418794D01*
X90801000Y-138430000D01*
X86214822Y-138430000D01*
X86165420Y-138419734D01*
X86143735Y-138410315D01*
X85999864Y-138347823D01*
X85921842Y-138313933D01*
X85638560Y-138234561D01*
X85638556Y-138234560D01*
X85638555Y-138234560D01*
X85492826Y-138214530D01*
X85347099Y-138194500D01*
X85347098Y-138194500D01*
X85052902Y-138194500D01*
X85052901Y-138194500D01*
X84761445Y-138234560D01*
X84761439Y-138234561D01*
X84478157Y-138313933D01*
X84305164Y-138389075D01*
X84256265Y-138410315D01*
X84234580Y-138419734D01*
X84185178Y-138430000D01*
X81608567Y-138430000D01*
X81559165Y-138419734D01*
X81316677Y-138314406D01*
X81033458Y-138235051D01*
X81033452Y-138235050D01*
X80742065Y-138195000D01*
X80447935Y-138195000D01*
X80156547Y-138235050D01*
X80156541Y-138235051D01*
X79873322Y-138314406D01*
X79630835Y-138419734D01*
X79581433Y-138430000D01*
X78252048Y-138430000D01*
X78185009Y-138410315D01*
X78164366Y-138393681D01*
X78108046Y-138337360D01*
X77995144Y-138279833D01*
X77901486Y-138265000D01*
X77670000Y-138265000D01*
X77670000Y-138430000D01*
X77270000Y-138430000D01*
X77270000Y-138265000D01*
X77038520Y-138265000D01*
X76944849Y-138279835D01*
X76944844Y-138279837D01*
X76831958Y-138337356D01*
X76831953Y-138337360D01*
X76775634Y-138393681D01*
X76714311Y-138427166D01*
X76687952Y-138430000D01*
X76203999Y-138430000D01*
X76136960Y-138410315D01*
X76091205Y-138357511D01*
X76079999Y-138306000D01*
X76079999Y-138083520D01*
X76065164Y-137989850D01*
X76065162Y-137989844D01*
X76007643Y-137876958D01*
X76001902Y-137869056D01*
X76004899Y-137866878D01*
X75980235Y-137821710D01*
X75985219Y-137752018D01*
X76004154Y-137722580D01*
X76002311Y-137721241D01*
X76008042Y-137713349D01*
X76008050Y-137713342D01*
X76065646Y-137600304D01*
X76065646Y-137600302D01*
X76065647Y-137600301D01*
X76080499Y-137506524D01*
X76080500Y-137506519D01*
X76080499Y-136143482D01*
X76065646Y-136049696D01*
X76065645Y-136049694D01*
X76064119Y-136040057D01*
X76067762Y-136039479D01*
X76066288Y-135987986D01*
X76102364Y-135928150D01*
X76165062Y-135897318D01*
X76186216Y-135895500D01*
X76555671Y-135895500D01*
X76622710Y-135915185D01*
X76668465Y-135967989D01*
X76678409Y-136037147D01*
X76678144Y-136038897D01*
X76669500Y-136093474D01*
X76669500Y-136956517D01*
X76679293Y-137018348D01*
X76684354Y-137050304D01*
X76741950Y-137163342D01*
X76741952Y-137163344D01*
X76741954Y-137163347D01*
X76831652Y-137253045D01*
X76831654Y-137253046D01*
X76831658Y-137253050D01*
X76944694Y-137310645D01*
X76944698Y-137310647D01*
X77038475Y-137325499D01*
X77038481Y-137325500D01*
X77901518Y-137325499D01*
X77995304Y-137310646D01*
X78108342Y-137253050D01*
X78198050Y-137163342D01*
X78255646Y-137050304D01*
X78255646Y-137050302D01*
X78255647Y-137050301D01*
X78270499Y-136956524D01*
X78270500Y-136956519D01*
X78270499Y-136093482D01*
X78261854Y-136038895D01*
X78270810Y-135969603D01*
X78315807Y-135916152D01*
X78382558Y-135895513D01*
X78384328Y-135895500D01*
X78456382Y-135895500D01*
X78523421Y-135915185D01*
X78569176Y-135967989D01*
X78573222Y-135977975D01*
X78617922Y-136103751D01*
X78617925Y-136103757D01*
X78617926Y-136103760D01*
X78617928Y-136103764D01*
X78692040Y-136246793D01*
X78753278Y-136364977D01*
X78753282Y-136364983D01*
X78922932Y-136605323D01*
X79123743Y-136820338D01*
X79228662Y-136905696D01*
X79351951Y-137005999D01*
X79351953Y-137006000D01*
X79351954Y-137006001D01*
X79603319Y-137158860D01*
X79603324Y-137158862D01*
X79820168Y-137253050D01*
X79873159Y-137276067D01*
X80156445Y-137355440D01*
X80412681Y-137390659D01*
X80447901Y-137395500D01*
X80447902Y-137395500D01*
X80742099Y-137395500D01*
X80773520Y-137391180D01*
X81033555Y-137355440D01*
X81316841Y-137276067D01*
X81586682Y-137158859D01*
X81838049Y-137005999D01*
X82066260Y-136820335D01*
X82267065Y-136605326D01*
X82436722Y-136364976D01*
X82572072Y-136103764D01*
X82670592Y-135826554D01*
X82670592Y-135826549D01*
X82670595Y-135826543D01*
X82713618Y-135619500D01*
X82730448Y-135538511D01*
X82750525Y-135245000D01*
X83044475Y-135245000D01*
X83064551Y-135538511D01*
X83064552Y-135538513D01*
X83124404Y-135826543D01*
X83124409Y-135826559D01*
X83222927Y-136103762D01*
X83358278Y-136364977D01*
X83358282Y-136364983D01*
X83527932Y-136605323D01*
X83728743Y-136820338D01*
X83833662Y-136905696D01*
X83956951Y-137005999D01*
X83956953Y-137006000D01*
X83956954Y-137006001D01*
X84208319Y-137158860D01*
X84208324Y-137158862D01*
X84425168Y-137253050D01*
X84478159Y-137276067D01*
X84761445Y-137355440D01*
X85017681Y-137390659D01*
X85052901Y-137395500D01*
X85052902Y-137395500D01*
X85347099Y-137395500D01*
X85378520Y-137391180D01*
X85638555Y-137355440D01*
X85921841Y-137276067D01*
X86191682Y-137158859D01*
X86443049Y-137005999D01*
X86671260Y-136820335D01*
X86872065Y-136605326D01*
X87041722Y-136364976D01*
X87177072Y-136103764D01*
X87275592Y-135826554D01*
X87275592Y-135826549D01*
X87275595Y-135826543D01*
X87318618Y-135619500D01*
X87335448Y-135538511D01*
X87355525Y-135245000D01*
X87335448Y-134951489D01*
X87304897Y-134804470D01*
X87275595Y-134663456D01*
X87275590Y-134663440D01*
X87190851Y-134425007D01*
X87177072Y-134386236D01*
X87041722Y-134125024D01*
X87041721Y-134125022D01*
X87041717Y-134125016D01*
X86872067Y-133884676D01*
X86671256Y-133669661D01*
X86443045Y-133483998D01*
X86270262Y-133378926D01*
X90324500Y-133378926D01*
X90364530Y-133593069D01*
X90375157Y-133620500D01*
X90443226Y-133796207D01*
X90443229Y-133796213D01*
X90557906Y-133981423D01*
X90557912Y-133981432D01*
X90704678Y-134142427D01*
X90878528Y-134273712D01*
X91073541Y-134370817D01*
X91283077Y-134430435D01*
X91445653Y-134445500D01*
X91445656Y-134445500D01*
X91554344Y-134445500D01*
X91554347Y-134445500D01*
X91716923Y-134430435D01*
X91926459Y-134370817D01*
X92121472Y-134273712D01*
X92295322Y-134142427D01*
X92442088Y-133981432D01*
X92556772Y-133796210D01*
X92635470Y-133593069D01*
X92675500Y-133378926D01*
X92675500Y-133161074D01*
X92635470Y-132946931D01*
X92556772Y-132743790D01*
X92532627Y-132704795D01*
X92442093Y-132558576D01*
X92442092Y-132558575D01*
X92442088Y-132558568D01*
X92314726Y-132418858D01*
X92295323Y-132397574D01*
X92284088Y-132389090D01*
X92121472Y-132266288D01*
X92055296Y-132233336D01*
X91926462Y-132169184D01*
X91926459Y-132169183D01*
X91716923Y-132109565D01*
X91716920Y-132109564D01*
X91716918Y-132109564D01*
X91609819Y-132099640D01*
X91554347Y-132094500D01*
X91445653Y-132094500D01*
X91395845Y-132099115D01*
X91283081Y-132109564D01*
X91283077Y-132109564D01*
X91283077Y-132109565D01*
X91178309Y-132139374D01*
X91073537Y-132169184D01*
X90878527Y-132266288D01*
X90704676Y-132397574D01*
X90557913Y-132558566D01*
X90557906Y-132558576D01*
X90443229Y-132743786D01*
X90443226Y-132743792D01*
X90383435Y-132898130D01*
X90364530Y-132946931D01*
X90324500Y-133161074D01*
X90324500Y-133378926D01*
X86270262Y-133378926D01*
X86191680Y-133331139D01*
X86191675Y-133331137D01*
X85921845Y-133213934D01*
X85638560Y-133134561D01*
X85638556Y-133134560D01*
X85638555Y-133134560D01*
X85474965Y-133112075D01*
X85347099Y-133094500D01*
X85347098Y-133094500D01*
X85052902Y-133094500D01*
X85052901Y-133094500D01*
X84761445Y-133134560D01*
X84761439Y-133134561D01*
X84478154Y-133213934D01*
X84208324Y-133331137D01*
X84208319Y-133331139D01*
X83956954Y-133483998D01*
X83728743Y-133669661D01*
X83527932Y-133884676D01*
X83358282Y-134125016D01*
X83358278Y-134125022D01*
X83222927Y-134386237D01*
X83124409Y-134663440D01*
X83124404Y-134663456D01*
X83064552Y-134951486D01*
X83064551Y-134951488D01*
X83044475Y-135245000D01*
X82750525Y-135245000D01*
X82730448Y-134951489D01*
X82699897Y-134804470D01*
X82670595Y-134663456D01*
X82670590Y-134663440D01*
X82585851Y-134425007D01*
X82572072Y-134386236D01*
X82436722Y-134125024D01*
X82436721Y-134125022D01*
X82436717Y-134125016D01*
X82267067Y-133884676D01*
X82066256Y-133669661D01*
X81838045Y-133483998D01*
X81586680Y-133331139D01*
X81586675Y-133331137D01*
X81316841Y-133213932D01*
X81311043Y-133212308D01*
X81251801Y-133175266D01*
X81221990Y-133112075D01*
X81220500Y-133092907D01*
X81220500Y-132440452D01*
X81240185Y-132373413D01*
X81256819Y-132352771D01*
X85974588Y-127635003D01*
X87459435Y-127635003D01*
X87479630Y-127814249D01*
X87479631Y-127814254D01*
X87539211Y-127984523D01*
X87635184Y-128137262D01*
X87762738Y-128264816D01*
X87915478Y-128360789D01*
X88085739Y-128420366D01*
X88085745Y-128420368D01*
X88085750Y-128420369D01*
X88264996Y-128440565D01*
X88265000Y-128440565D01*
X88265004Y-128440565D01*
X88444249Y-128420369D01*
X88444251Y-128420368D01*
X88444255Y-128420368D01*
X88444258Y-128420366D01*
X88444262Y-128420366D01*
X88534377Y-128388832D01*
X88614522Y-128360789D01*
X88704096Y-128304505D01*
X88770068Y-128285500D01*
X92204932Y-128285500D01*
X92270904Y-128304506D01*
X92360477Y-128360789D01*
X92360481Y-128360790D01*
X92530737Y-128420366D01*
X92530743Y-128420367D01*
X92530745Y-128420368D01*
X92530746Y-128420368D01*
X92530750Y-128420369D01*
X92709996Y-128440565D01*
X92710000Y-128440565D01*
X92710004Y-128440565D01*
X92889249Y-128420369D01*
X92889252Y-128420368D01*
X92889255Y-128420368D01*
X93059522Y-128360789D01*
X93212262Y-128264816D01*
X93339816Y-128137262D01*
X93435789Y-127984522D01*
X93495368Y-127814255D01*
X93515565Y-127635000D01*
X93506627Y-127555676D01*
X93495369Y-127455750D01*
X93495368Y-127455745D01*
X93475866Y-127400012D01*
X93435789Y-127285478D01*
X93421037Y-127262001D01*
X93374905Y-127188582D01*
X93339816Y-127132738D01*
X93212262Y-127005184D01*
X93149096Y-126965494D01*
X93059523Y-126909211D01*
X92889254Y-126849631D01*
X92889249Y-126849630D01*
X92710004Y-126829435D01*
X92709996Y-126829435D01*
X92530750Y-126849630D01*
X92530737Y-126849633D01*
X92360481Y-126909209D01*
X92360477Y-126909210D01*
X92270904Y-126965494D01*
X92204932Y-126984500D01*
X88770068Y-126984500D01*
X88704096Y-126965494D01*
X88614522Y-126909210D01*
X88614518Y-126909209D01*
X88444262Y-126849633D01*
X88444249Y-126849630D01*
X88265004Y-126829435D01*
X88264996Y-126829435D01*
X88085750Y-126849630D01*
X88085745Y-126849631D01*
X87915476Y-126909211D01*
X87762737Y-127005184D01*
X87635184Y-127132737D01*
X87539211Y-127285476D01*
X87479631Y-127455745D01*
X87479630Y-127455750D01*
X87459435Y-127634996D01*
X87459435Y-127635003D01*
X85974588Y-127635003D01*
X90392772Y-123216819D01*
X90454095Y-123183334D01*
X90480453Y-123180500D01*
X92165145Y-123180500D01*
X92231117Y-123199506D01*
X92342842Y-123269708D01*
X92360478Y-123280789D01*
X92530745Y-123340368D01*
X92530750Y-123340369D01*
X92709996Y-123360565D01*
X92710000Y-123360565D01*
X92710004Y-123360565D01*
X92889249Y-123340369D01*
X92889252Y-123340368D01*
X92889255Y-123340368D01*
X93059522Y-123280789D01*
X93212262Y-123184816D01*
X93339816Y-123057262D01*
X93435789Y-122904522D01*
X93495368Y-122734255D01*
X93500609Y-122687738D01*
X93515565Y-122555003D01*
X93515565Y-122554996D01*
X93495369Y-122375750D01*
X93495368Y-122375745D01*
X93435788Y-122205476D01*
X93359225Y-122083627D01*
X93339816Y-122052738D01*
X93212262Y-121925184D01*
X93161330Y-121893181D01*
X93059523Y-121829211D01*
X92889254Y-121769631D01*
X92889249Y-121769630D01*
X92710004Y-121749435D01*
X92709996Y-121749435D01*
X92530750Y-121769630D01*
X92530745Y-121769631D01*
X92360476Y-121829211D01*
X92231117Y-121910494D01*
X92165145Y-121929500D01*
X90252743Y-121929500D01*
X90237122Y-121927775D01*
X90237096Y-121928061D01*
X90229334Y-121927327D01*
X90229333Y-121927327D01*
X90160186Y-121929500D01*
X90130649Y-121929500D01*
X90123766Y-121930369D01*
X90117949Y-121930826D01*
X90071373Y-121932290D01*
X90052129Y-121937881D01*
X90033079Y-121941825D01*
X90013211Y-121944334D01*
X89969884Y-121961488D01*
X89964358Y-121963379D01*
X89919614Y-121976379D01*
X89919610Y-121976381D01*
X89902366Y-121986579D01*
X89884905Y-121995133D01*
X89866274Y-122002510D01*
X89866262Y-122002517D01*
X89828570Y-122029902D01*
X89823687Y-122033109D01*
X89783580Y-122056829D01*
X89769414Y-122070995D01*
X89754624Y-122083627D01*
X89738414Y-122095404D01*
X89738411Y-122095407D01*
X89708710Y-122131309D01*
X89704777Y-122135631D01*
X80211208Y-131629199D01*
X80198951Y-131639020D01*
X80199134Y-131639241D01*
X80193123Y-131644213D01*
X80145772Y-131694636D01*
X80124889Y-131715519D01*
X80124877Y-131715532D01*
X80120621Y-131721017D01*
X80116837Y-131725447D01*
X80084937Y-131759418D01*
X80084936Y-131759420D01*
X80075284Y-131776976D01*
X80064610Y-131793226D01*
X80052329Y-131809061D01*
X80052324Y-131809068D01*
X80033815Y-131851838D01*
X80031245Y-131857084D01*
X80008803Y-131897906D01*
X80003822Y-131917307D01*
X79997521Y-131935710D01*
X79989562Y-131954102D01*
X79989561Y-131954105D01*
X79982271Y-132000127D01*
X79981087Y-132005846D01*
X79969501Y-132050972D01*
X79969500Y-132050982D01*
X79969500Y-132071016D01*
X79967973Y-132090415D01*
X79964840Y-132110194D01*
X79964840Y-132110195D01*
X79969225Y-132156583D01*
X79969500Y-132162421D01*
X79969500Y-133092907D01*
X79949815Y-133159946D01*
X79897011Y-133205701D01*
X79878957Y-133212308D01*
X79873158Y-133213932D01*
X79873157Y-133213932D01*
X79603324Y-133331137D01*
X79603319Y-133331139D01*
X79351954Y-133483998D01*
X79123743Y-133669661D01*
X78922932Y-133884676D01*
X78753282Y-134125016D01*
X78753278Y-134125022D01*
X78617925Y-134386242D01*
X78617922Y-134386248D01*
X78573222Y-134512025D01*
X78532224Y-134568602D01*
X78467147Y-134594032D01*
X78456382Y-134594500D01*
X75660506Y-134594500D01*
X75644495Y-134592732D01*
X75644473Y-134592974D01*
X75636706Y-134592239D01*
X75564783Y-134594500D01*
X75534075Y-134594500D01*
X75534071Y-134594500D01*
X75534060Y-134594501D01*
X75526804Y-134595417D01*
X75520986Y-134595875D01*
X75472433Y-134597401D01*
X75457873Y-134601630D01*
X75452040Y-134603325D01*
X75432996Y-134607269D01*
X75411942Y-134609929D01*
X75411940Y-134609929D01*
X75366781Y-134627808D01*
X75361255Y-134629700D01*
X75314601Y-134643254D01*
X75296325Y-134654063D01*
X75278860Y-134662619D01*
X75259124Y-134670433D01*
X75219824Y-134698986D01*
X75214942Y-134702193D01*
X75173136Y-134726917D01*
X75158124Y-134741929D01*
X75143336Y-134754558D01*
X75126167Y-134767032D01*
X75126165Y-134767034D01*
X75095194Y-134804470D01*
X75091262Y-134808791D01*
X74530483Y-135369569D01*
X74517910Y-135379643D01*
X74518065Y-135379830D01*
X74512059Y-135384798D01*
X74487434Y-135411021D01*
X74462809Y-135437244D01*
X74451949Y-135448104D01*
X74441088Y-135458965D01*
X74441078Y-135458977D01*
X74436587Y-135464765D01*
X74432801Y-135469197D01*
X74399552Y-135504606D01*
X74389322Y-135523213D01*
X74378646Y-135539464D01*
X74365640Y-135556232D01*
X74365636Y-135556238D01*
X74346348Y-135600811D01*
X74343777Y-135606058D01*
X74320372Y-135648630D01*
X74320372Y-135648631D01*
X74315091Y-135669199D01*
X74308789Y-135687605D01*
X74303534Y-135699748D01*
X74258843Y-135753456D01*
X74192210Y-135774475D01*
X74189736Y-135774500D01*
X74148483Y-135774500D01*
X74069550Y-135787001D01*
X74054696Y-135789354D01*
X73941658Y-135846950D01*
X73941657Y-135846951D01*
X73941652Y-135846954D01*
X73851954Y-135936652D01*
X73851951Y-135936657D01*
X73794352Y-136049698D01*
X73779500Y-136143475D01*
X73779500Y-137506517D01*
X73787655Y-137558003D01*
X73794354Y-137600304D01*
X73851950Y-137713342D01*
X73851953Y-137713345D01*
X73857689Y-137721241D01*
X73854819Y-137723325D01*
X73879753Y-137768945D01*
X73874797Y-137838638D01*
X73856170Y-137867655D01*
X73858098Y-137869056D01*
X73852360Y-137876953D01*
X73794833Y-137989855D01*
X73780000Y-138083513D01*
X73780000Y-138565000D01*
X74295000Y-138565000D01*
X74295000Y-138965000D01*
X73780001Y-138965000D01*
X73780001Y-139446479D01*
X73794835Y-139540149D01*
X73794837Y-139540155D01*
X73852356Y-139653041D01*
X73852363Y-139653050D01*
X73941949Y-139742636D01*
X73941953Y-139742639D01*
X74054855Y-139800166D01*
X74148513Y-139814999D01*
X74170995Y-139814999D01*
X74238036Y-139834681D01*
X74283792Y-139887483D01*
X74295000Y-139938999D01*
X74295000Y-141026423D01*
X74275315Y-141093462D01*
X74222511Y-141139217D01*
X74182442Y-141149894D01*
X74078081Y-141159564D01*
X73868537Y-141219184D01*
X73673527Y-141316288D01*
X73499676Y-141447574D01*
X73352913Y-141608566D01*
X73352906Y-141608576D01*
X73238229Y-141793786D01*
X73238226Y-141793792D01*
X73178435Y-141948130D01*
X73159530Y-141996931D01*
X73119500Y-142211074D01*
X73119500Y-142428926D01*
X73159530Y-142643069D01*
X73179937Y-142695745D01*
X73238226Y-142846207D01*
X73238227Y-142846208D01*
X73238228Y-142846210D01*
X73313208Y-142967308D01*
X73331764Y-143034667D01*
X73310956Y-143101366D01*
X73268785Y-143139975D01*
X73268890Y-143140138D01*
X73267945Y-143140745D01*
X73267218Y-143141411D01*
X73265164Y-143142532D01*
X73099436Y-143266593D01*
X74035780Y-144202937D01*
X73992412Y-144220901D01*
X73867075Y-144317075D01*
X73770901Y-144442411D01*
X73752937Y-144485780D01*
X72816593Y-143549436D01*
X72692532Y-143715164D01*
X72562287Y-143953689D01*
X72562285Y-143953693D01*
X72467305Y-144208345D01*
X72409537Y-144473902D01*
X72409536Y-144473909D01*
X72390147Y-144744998D01*
X72390147Y-144745001D01*
X72409536Y-145016090D01*
X72409537Y-145016097D01*
X72467305Y-145281654D01*
X72562285Y-145536306D01*
X72562287Y-145536310D01*
X72692532Y-145774835D01*
X72692537Y-145774843D01*
X72816592Y-145940563D01*
X72816593Y-145940563D01*
X73752937Y-145004219D01*
X73770901Y-145047588D01*
X73867075Y-145172925D01*
X73992412Y-145269099D01*
X74035778Y-145287061D01*
X73099435Y-146223405D01*
X73099436Y-146223406D01*
X73265156Y-146347462D01*
X73265164Y-146347467D01*
X73503689Y-146477712D01*
X73503693Y-146477714D01*
X73758345Y-146572694D01*
X74023902Y-146630462D01*
X74023909Y-146630463D01*
X74179846Y-146641616D01*
X74245310Y-146666033D01*
X74287182Y-146721966D01*
X74295000Y-146765300D01*
X74295000Y-148466000D01*
X74275315Y-148533039D01*
X74222511Y-148578794D01*
X74171000Y-148590000D01*
X61594999Y-148590000D01*
X61580781Y-148604218D01*
X61565979Y-148616859D01*
X61564685Y-148617799D01*
X61535237Y-148632803D01*
X61530543Y-148636213D01*
X61511213Y-148655543D01*
X61507803Y-148660236D01*
X61495395Y-148684591D01*
X61494500Y-148687346D01*
X61494500Y-158311522D01*
X61474815Y-158378561D01*
X61422011Y-158424316D01*
X61372176Y-158435511D01*
X50962512Y-158576181D01*
X50895212Y-158557404D01*
X50848748Y-158505223D01*
X50837871Y-158436205D01*
X50866034Y-158372263D01*
X50873159Y-158364507D01*
X50882177Y-158355489D01*
X51079894Y-158103122D01*
X51245748Y-157828765D01*
X51245749Y-157828763D01*
X51377324Y-157536413D01*
X51377328Y-157536402D01*
X51472696Y-157230354D01*
X51530487Y-156915000D01*
X51549843Y-156595000D01*
X51530487Y-156274999D01*
X51472696Y-155959645D01*
X51377328Y-155653597D01*
X51377324Y-155653586D01*
X51341956Y-155575000D01*
X57849357Y-155575000D01*
X57869884Y-155796535D01*
X57869885Y-155796537D01*
X57930769Y-156010523D01*
X57930775Y-156010538D01*
X58029938Y-156209683D01*
X58029943Y-156209691D01*
X58164020Y-156387238D01*
X58328437Y-156537123D01*
X58328439Y-156537125D01*
X58517595Y-156654245D01*
X58517596Y-156654245D01*
X58517599Y-156654247D01*
X58725060Y-156734618D01*
X58943757Y-156775500D01*
X58943759Y-156775500D01*
X59166241Y-156775500D01*
X59166243Y-156775500D01*
X59384940Y-156734618D01*
X59592401Y-156654247D01*
X59781562Y-156537124D01*
X59945981Y-156387236D01*
X60080058Y-156209689D01*
X60179229Y-156010528D01*
X60240115Y-155796536D01*
X60260643Y-155575000D01*
X60240115Y-155353464D01*
X60179229Y-155139472D01*
X60153040Y-155086877D01*
X60080061Y-154940316D01*
X60080056Y-154940308D01*
X59945979Y-154762761D01*
X59781562Y-154612876D01*
X59781560Y-154612874D01*
X59592404Y-154495754D01*
X59592398Y-154495752D01*
X59384940Y-154415382D01*
X59166243Y-154374500D01*
X58943757Y-154374500D01*
X58725060Y-154415382D01*
X58593864Y-154466207D01*
X58517601Y-154495752D01*
X58517595Y-154495754D01*
X58328439Y-154612874D01*
X58328437Y-154612876D01*
X58164020Y-154762761D01*
X58029943Y-154940308D01*
X58029938Y-154940316D01*
X57930775Y-155139461D01*
X57930769Y-155139476D01*
X57869885Y-155353462D01*
X57869884Y-155353464D01*
X57849357Y-155574999D01*
X57849357Y-155575000D01*
X51341956Y-155575000D01*
X51245749Y-155361236D01*
X51245748Y-155361234D01*
X51079894Y-155086877D01*
X50906844Y-154865997D01*
X49944904Y-155827937D01*
X49894662Y-155756184D01*
X49733816Y-155595338D01*
X49662061Y-155545094D01*
X50624001Y-154583154D01*
X50624001Y-154583153D01*
X50403122Y-154410105D01*
X50128765Y-154244251D01*
X50128763Y-154244250D01*
X49836413Y-154112675D01*
X49836402Y-154112671D01*
X49530354Y-154017303D01*
X49215000Y-153959512D01*
X48895000Y-153940156D01*
X48574999Y-153959512D01*
X48259645Y-154017303D01*
X47953597Y-154112671D01*
X47953586Y-154112675D01*
X47661236Y-154244250D01*
X47661234Y-154244251D01*
X47386868Y-154410111D01*
X47165997Y-154583153D01*
X47165997Y-154583154D01*
X48127938Y-155545095D01*
X48056184Y-155595338D01*
X47895338Y-155756184D01*
X47845095Y-155827938D01*
X46883154Y-154865997D01*
X46883153Y-154865997D01*
X46710111Y-155086868D01*
X46544251Y-155361234D01*
X46544250Y-155361236D01*
X46412675Y-155653586D01*
X46412671Y-155653597D01*
X46317303Y-155959645D01*
X46259512Y-156274999D01*
X46240156Y-156595000D01*
X46259512Y-156915000D01*
X46317303Y-157230354D01*
X46412671Y-157536402D01*
X46412675Y-157536413D01*
X46544250Y-157828763D01*
X46544251Y-157828765D01*
X46710105Y-158103122D01*
X46883154Y-158324001D01*
X47845094Y-157362061D01*
X47895338Y-157433816D01*
X48056184Y-157594662D01*
X48127937Y-157644904D01*
X47180701Y-158592140D01*
X47119378Y-158625625D01*
X47094696Y-158628448D01*
X45536967Y-158649500D01*
X38224500Y-158649500D01*
X38157461Y-158629815D01*
X38111706Y-158577011D01*
X38100500Y-158525500D01*
X38100500Y-150095000D01*
X46239655Y-150095000D01*
X46259014Y-150415060D01*
X46259014Y-150415065D01*
X46259015Y-150415066D01*
X46316814Y-150730466D01*
X46316815Y-150730470D01*
X46316816Y-150730474D01*
X46412202Y-151036580D01*
X46412208Y-151036595D01*
X46412209Y-151036598D01*
X46424448Y-151063791D01*
X46543806Y-151328995D01*
X46543807Y-151328996D01*
X46543809Y-151329000D01*
X46625278Y-151463766D01*
X46700116Y-151587565D01*
X46709694Y-151603408D01*
X46734603Y-151635202D01*
X46907448Y-151855822D01*
X47134177Y-152082551D01*
X47159852Y-152102666D01*
X47386592Y-152280306D01*
X47661000Y-152446191D01*
X47953402Y-152577791D01*
X47953411Y-152577793D01*
X47953419Y-152577797D01*
X48192895Y-152652420D01*
X48259534Y-152673186D01*
X48574934Y-152730985D01*
X48895000Y-152750345D01*
X49215066Y-152730985D01*
X49530466Y-152673186D01*
X49706296Y-152618395D01*
X49836580Y-152577797D01*
X49836584Y-152577795D01*
X49836598Y-152577791D01*
X50129000Y-152446191D01*
X50403408Y-152280306D01*
X50614191Y-152115166D01*
X50679102Y-152089318D01*
X50747684Y-152102666D01*
X50798163Y-152150974D01*
X50814512Y-152218904D01*
X50812632Y-152235129D01*
X50759512Y-152524998D01*
X50740156Y-152845000D01*
X50759512Y-153165000D01*
X50817303Y-153480354D01*
X50912671Y-153786402D01*
X50912675Y-153786413D01*
X51044250Y-154078763D01*
X51044251Y-154078765D01*
X51210105Y-154353122D01*
X51383154Y-154574001D01*
X52345094Y-153612061D01*
X52395338Y-153683816D01*
X52556184Y-153844662D01*
X52627937Y-153894904D01*
X51665997Y-154856844D01*
X51665997Y-154856845D01*
X51886877Y-155029894D01*
X52161234Y-155195748D01*
X52161236Y-155195749D01*
X52453586Y-155327324D01*
X52453597Y-155327328D01*
X52759645Y-155422696D01*
X53074999Y-155480487D01*
X53395000Y-155499843D01*
X53715000Y-155480487D01*
X54030354Y-155422696D01*
X54336402Y-155327328D01*
X54336413Y-155327324D01*
X54628763Y-155195749D01*
X54628765Y-155195748D01*
X54903122Y-155029894D01*
X55124001Y-154856845D01*
X55124001Y-154856844D01*
X54162061Y-153894904D01*
X54233816Y-153844662D01*
X54394662Y-153683816D01*
X54444904Y-153612061D01*
X55406844Y-154574001D01*
X55406845Y-154574001D01*
X55579894Y-154353122D01*
X55745748Y-154078765D01*
X55745749Y-154078763D01*
X55877324Y-153786413D01*
X55877328Y-153786402D01*
X55972696Y-153480354D01*
X56030487Y-153165000D01*
X56049843Y-152845000D01*
X56030487Y-152524999D01*
X55972696Y-152209645D01*
X55877328Y-151903597D01*
X55877324Y-151903586D01*
X55745749Y-151611236D01*
X55745748Y-151611234D01*
X55579894Y-151336877D01*
X55406844Y-151115997D01*
X54444904Y-152077937D01*
X54394662Y-152006184D01*
X54233816Y-151845338D01*
X54162061Y-151795094D01*
X55124001Y-150833154D01*
X55124001Y-150833153D01*
X54903122Y-150660105D01*
X54628765Y-150494251D01*
X54628763Y-150494250D01*
X54336413Y-150362675D01*
X54336402Y-150362671D01*
X54030354Y-150267303D01*
X53715000Y-150209512D01*
X53395000Y-150190156D01*
X53074999Y-150209512D01*
X52759645Y-150267303D01*
X52453597Y-150362671D01*
X52453586Y-150362675D01*
X52161236Y-150494250D01*
X52161234Y-150494251D01*
X51886877Y-150660106D01*
X51676267Y-150825108D01*
X51611355Y-150850957D01*
X51542772Y-150837608D01*
X51492293Y-150789300D01*
X51475945Y-150721370D01*
X51477822Y-150705163D01*
X51530985Y-150415066D01*
X51550345Y-150095000D01*
X51530985Y-149774934D01*
X51473186Y-149459534D01*
X51428993Y-149317714D01*
X51377797Y-149153419D01*
X51377793Y-149153411D01*
X51377791Y-149153402D01*
X51246191Y-148861000D01*
X51080306Y-148586592D01*
X50882554Y-148334181D01*
X50882551Y-148334177D01*
X50655822Y-148107448D01*
X50463362Y-147956665D01*
X50403408Y-147909694D01*
X50129000Y-147743809D01*
X50128996Y-147743807D01*
X50128995Y-147743806D01*
X49852220Y-147619240D01*
X49836598Y-147612209D01*
X49836595Y-147612208D01*
X49836580Y-147612202D01*
X49530474Y-147516816D01*
X49530470Y-147516815D01*
X49530466Y-147516814D01*
X49215066Y-147459015D01*
X49215065Y-147459014D01*
X49215060Y-147459014D01*
X48895000Y-147439655D01*
X48574939Y-147459014D01*
X48574934Y-147459015D01*
X48259534Y-147516814D01*
X48259531Y-147516814D01*
X48259525Y-147516816D01*
X47953419Y-147612202D01*
X47953404Y-147612208D01*
X47661004Y-147743806D01*
X47661001Y-147743808D01*
X47661000Y-147743809D01*
X47620042Y-147768569D01*
X47386594Y-147909692D01*
X47134177Y-148107448D01*
X46907448Y-148334177D01*
X46709692Y-148586594D01*
X46628044Y-148721658D01*
X46544442Y-148859954D01*
X46543808Y-148861002D01*
X46543806Y-148861004D01*
X46412208Y-149153404D01*
X46412202Y-149153419D01*
X46316816Y-149459525D01*
X46259014Y-149774939D01*
X46239655Y-150095000D01*
X38100500Y-150095000D01*
X38100500Y-140345000D01*
X65839475Y-140345000D01*
X65859551Y-140638511D01*
X65859552Y-140638513D01*
X65919404Y-140926543D01*
X65919409Y-140926559D01*
X66017927Y-141203762D01*
X66153278Y-141464977D01*
X66153282Y-141464983D01*
X66322932Y-141705323D01*
X66523743Y-141920338D01*
X66617889Y-141996931D01*
X66751951Y-142105999D01*
X66751953Y-142106000D01*
X66751954Y-142106001D01*
X67003319Y-142258860D01*
X67003324Y-142258862D01*
X67273154Y-142376065D01*
X67273159Y-142376067D01*
X67556445Y-142455440D01*
X67812681Y-142490659D01*
X67847901Y-142495500D01*
X67847902Y-142495500D01*
X68142099Y-142495500D01*
X68173520Y-142491180D01*
X68433555Y-142455440D01*
X68716841Y-142376067D01*
X68986682Y-142258859D01*
X69238049Y-142105999D01*
X69466260Y-141920335D01*
X69667065Y-141705326D01*
X69836722Y-141464976D01*
X69972072Y-141203764D01*
X70070592Y-140926554D01*
X70070592Y-140926549D01*
X70070595Y-140926543D01*
X70103511Y-140768135D01*
X70130448Y-140638511D01*
X70150525Y-140345000D01*
X70131034Y-140060053D01*
X70130448Y-140051488D01*
X70130447Y-140051486D01*
X70128561Y-140042412D01*
X70107072Y-139938999D01*
X70070595Y-139763456D01*
X70070590Y-139763440D01*
X70017655Y-139614494D01*
X69972072Y-139486236D01*
X69836722Y-139225024D01*
X69836721Y-139225022D01*
X69836717Y-139225016D01*
X69667067Y-138984676D01*
X69466256Y-138769661D01*
X69238045Y-138583998D01*
X68986680Y-138431139D01*
X68986675Y-138431137D01*
X68716845Y-138313934D01*
X68433560Y-138234561D01*
X68433556Y-138234560D01*
X68433555Y-138234560D01*
X68287826Y-138214530D01*
X68142099Y-138194500D01*
X68142098Y-138194500D01*
X67847902Y-138194500D01*
X67847901Y-138194500D01*
X67556445Y-138234560D01*
X67556439Y-138234561D01*
X67273154Y-138313934D01*
X67003324Y-138431137D01*
X67003319Y-138431139D01*
X66751954Y-138583998D01*
X66523743Y-138769661D01*
X66322932Y-138984676D01*
X66153282Y-139225016D01*
X66153278Y-139225022D01*
X66017927Y-139486237D01*
X65919409Y-139763440D01*
X65919404Y-139763456D01*
X65859552Y-140051486D01*
X65859551Y-140051488D01*
X65839475Y-140345000D01*
X38100500Y-140345000D01*
X38100500Y-134620000D01*
X40704357Y-134620000D01*
X40724884Y-134841535D01*
X40724885Y-134841537D01*
X40785769Y-135055523D01*
X40785775Y-135055538D01*
X40884938Y-135254683D01*
X40884943Y-135254691D01*
X41019020Y-135432238D01*
X41183437Y-135582123D01*
X41183439Y-135582125D01*
X41372595Y-135699245D01*
X41372596Y-135699245D01*
X41372599Y-135699247D01*
X41580060Y-135779618D01*
X41798757Y-135820500D01*
X41798759Y-135820500D01*
X42021241Y-135820500D01*
X42021243Y-135820500D01*
X42239940Y-135779618D01*
X42447401Y-135699247D01*
X42636562Y-135582124D01*
X42780339Y-135451054D01*
X42800979Y-135432238D01*
X42848305Y-135369569D01*
X42935058Y-135254689D01*
X42939883Y-135245000D01*
X65839475Y-135245000D01*
X65859551Y-135538511D01*
X65859552Y-135538513D01*
X65919404Y-135826543D01*
X65919409Y-135826559D01*
X66017927Y-136103762D01*
X66153278Y-136364977D01*
X66153282Y-136364983D01*
X66322932Y-136605323D01*
X66523743Y-136820338D01*
X66628662Y-136905696D01*
X66751951Y-137005999D01*
X66751953Y-137006000D01*
X66751954Y-137006001D01*
X67003319Y-137158860D01*
X67003324Y-137158862D01*
X67220168Y-137253050D01*
X67273159Y-137276067D01*
X67556445Y-137355440D01*
X67812681Y-137390659D01*
X67847901Y-137395500D01*
X67847902Y-137395500D01*
X68142099Y-137395500D01*
X68173520Y-137391180D01*
X68433555Y-137355440D01*
X68716841Y-137276067D01*
X68986682Y-137158859D01*
X69238049Y-137005999D01*
X69466260Y-136820335D01*
X69667065Y-136605326D01*
X69836722Y-136364976D01*
X69972072Y-136103764D01*
X70070592Y-135826554D01*
X70070592Y-135826549D01*
X70070595Y-135826543D01*
X70113618Y-135619500D01*
X70130448Y-135538511D01*
X70150525Y-135245000D01*
X70130448Y-134951489D01*
X70099897Y-134804470D01*
X70070595Y-134663456D01*
X70070590Y-134663440D01*
X69985851Y-134425007D01*
X69972072Y-134386236D01*
X69836722Y-134125024D01*
X69836721Y-134125022D01*
X69836717Y-134125016D01*
X69667067Y-133884676D01*
X69466256Y-133669661D01*
X69238045Y-133483998D01*
X69065262Y-133378926D01*
X73119500Y-133378926D01*
X73159530Y-133593069D01*
X73170157Y-133620500D01*
X73238226Y-133796207D01*
X73238229Y-133796213D01*
X73352906Y-133981423D01*
X73352912Y-133981432D01*
X73499678Y-134142427D01*
X73673528Y-134273712D01*
X73868541Y-134370817D01*
X74078077Y-134430435D01*
X74240653Y-134445500D01*
X74240656Y-134445500D01*
X74349344Y-134445500D01*
X74349347Y-134445500D01*
X74511923Y-134430435D01*
X74721459Y-134370817D01*
X74916472Y-134273712D01*
X75090322Y-134142427D01*
X75237088Y-133981432D01*
X75351772Y-133796210D01*
X75430470Y-133593069D01*
X75470500Y-133378926D01*
X75470500Y-133161074D01*
X75430470Y-132946931D01*
X75351772Y-132743790D01*
X75327627Y-132704795D01*
X75237093Y-132558576D01*
X75237092Y-132558575D01*
X75237088Y-132558568D01*
X75109726Y-132418858D01*
X75090323Y-132397574D01*
X75079088Y-132389090D01*
X74916472Y-132266288D01*
X74850296Y-132233336D01*
X74721462Y-132169184D01*
X74721459Y-132169183D01*
X74511923Y-132109565D01*
X74511920Y-132109564D01*
X74511918Y-132109564D01*
X74404819Y-132099640D01*
X74349347Y-132094500D01*
X74240653Y-132094500D01*
X74190845Y-132099115D01*
X74078081Y-132109564D01*
X74078077Y-132109564D01*
X74078077Y-132109565D01*
X73973309Y-132139374D01*
X73868537Y-132169184D01*
X73673527Y-132266288D01*
X73499676Y-132397574D01*
X73352913Y-132558566D01*
X73352906Y-132558576D01*
X73238229Y-132743786D01*
X73238226Y-132743792D01*
X73178435Y-132898130D01*
X73159530Y-132946931D01*
X73119500Y-133161074D01*
X73119500Y-133378926D01*
X69065262Y-133378926D01*
X68986680Y-133331139D01*
X68986675Y-133331137D01*
X68716845Y-133213934D01*
X68433560Y-133134561D01*
X68433556Y-133134560D01*
X68433555Y-133134560D01*
X68269965Y-133112075D01*
X68142099Y-133094500D01*
X68142098Y-133094500D01*
X67847902Y-133094500D01*
X67847901Y-133094500D01*
X67556445Y-133134560D01*
X67556439Y-133134561D01*
X67273154Y-133213934D01*
X67003324Y-133331137D01*
X67003319Y-133331139D01*
X66751954Y-133483998D01*
X66523743Y-133669661D01*
X66322932Y-133884676D01*
X66153282Y-134125016D01*
X66153278Y-134125022D01*
X66017927Y-134386237D01*
X65919409Y-134663440D01*
X65919404Y-134663456D01*
X65859552Y-134951486D01*
X65859551Y-134951488D01*
X65839475Y-135245000D01*
X42939883Y-135245000D01*
X43034229Y-135055528D01*
X43095115Y-134841536D01*
X43115643Y-134620000D01*
X43095115Y-134398464D01*
X43034229Y-134184472D01*
X43013292Y-134142425D01*
X42935061Y-133985316D01*
X42935056Y-133985308D01*
X42800979Y-133807761D01*
X42636562Y-133657876D01*
X42636560Y-133657874D01*
X42447404Y-133540754D01*
X42447398Y-133540752D01*
X42239940Y-133460382D01*
X42021243Y-133419500D01*
X41798757Y-133419500D01*
X41580060Y-133460382D01*
X41448864Y-133511207D01*
X41372601Y-133540752D01*
X41372595Y-133540754D01*
X41183439Y-133657874D01*
X41183437Y-133657876D01*
X41019020Y-133807761D01*
X40884943Y-133985308D01*
X40884938Y-133985316D01*
X40785775Y-134184461D01*
X40785769Y-134184476D01*
X40724885Y-134398462D01*
X40724884Y-134398464D01*
X40704357Y-134619999D01*
X40704357Y-134620000D01*
X38100500Y-134620000D01*
X38100500Y-125787763D01*
X59145787Y-125787763D01*
X59175413Y-126057013D01*
X59175415Y-126057024D01*
X59243926Y-126319082D01*
X59243928Y-126319088D01*
X59349870Y-126568390D01*
X59421998Y-126686575D01*
X59490979Y-126799605D01*
X59490986Y-126799615D01*
X59664253Y-127007819D01*
X59664259Y-127007824D01*
X59865998Y-127188582D01*
X60091910Y-127338044D01*
X60337176Y-127453020D01*
X60337183Y-127453022D01*
X60337185Y-127453023D01*
X60596557Y-127531057D01*
X60596564Y-127531058D01*
X60596569Y-127531060D01*
X60864561Y-127570500D01*
X60864566Y-127570500D01*
X61067636Y-127570500D01*
X61119133Y-127566730D01*
X61270156Y-127555677D01*
X61382758Y-127530593D01*
X61534546Y-127496782D01*
X61534548Y-127496781D01*
X61534553Y-127496780D01*
X61787558Y-127400014D01*
X62023777Y-127267441D01*
X62238177Y-127101888D01*
X62426186Y-126906881D01*
X62583799Y-126686579D01*
X62657787Y-126542669D01*
X62707649Y-126445690D01*
X62707651Y-126445684D01*
X62707656Y-126445675D01*
X62795118Y-126189305D01*
X62844319Y-125922933D01*
X62854212Y-125652235D01*
X62824586Y-125382982D01*
X62756072Y-125120912D01*
X62650130Y-124871610D01*
X62509018Y-124640390D01*
X62419747Y-124533119D01*
X62335746Y-124432180D01*
X62335740Y-124432175D01*
X62134002Y-124251418D01*
X61908092Y-124101957D01*
X61908090Y-124101956D01*
X61662824Y-123986980D01*
X61662819Y-123986978D01*
X61662814Y-123986976D01*
X61403442Y-123908942D01*
X61403428Y-123908939D01*
X61287791Y-123891921D01*
X61135439Y-123869500D01*
X60932369Y-123869500D01*
X60932364Y-123869500D01*
X60729844Y-123884323D01*
X60729831Y-123884325D01*
X60465453Y-123943217D01*
X60465446Y-123943220D01*
X60212439Y-124039987D01*
X59976226Y-124172557D01*
X59761822Y-124338112D01*
X59573822Y-124533109D01*
X59573816Y-124533116D01*
X59416202Y-124753419D01*
X59416199Y-124753424D01*
X59292350Y-124994309D01*
X59292343Y-124994327D01*
X59204884Y-125250685D01*
X59204881Y-125250699D01*
X59155681Y-125517068D01*
X59155680Y-125517075D01*
X59145787Y-125787763D01*
X38100500Y-125787763D01*
X38100500Y-123825000D01*
X81979357Y-123825000D01*
X81999884Y-124046535D01*
X81999885Y-124046537D01*
X82060769Y-124260523D01*
X82060775Y-124260538D01*
X82159938Y-124459683D01*
X82159943Y-124459691D01*
X82294020Y-124637238D01*
X82458437Y-124787123D01*
X82458439Y-124787125D01*
X82647595Y-124904245D01*
X82647596Y-124904245D01*
X82647599Y-124904247D01*
X82855060Y-124984618D01*
X83073757Y-125025500D01*
X83073759Y-125025500D01*
X83296241Y-125025500D01*
X83296243Y-125025500D01*
X83514940Y-124984618D01*
X83722401Y-124904247D01*
X83911562Y-124787124D01*
X84075981Y-124637236D01*
X84210058Y-124459689D01*
X84309229Y-124260528D01*
X84370115Y-124046536D01*
X84390643Y-123825000D01*
X84370115Y-123603464D01*
X84309229Y-123389472D01*
X84309224Y-123389461D01*
X84210061Y-123190316D01*
X84210056Y-123190308D01*
X84075979Y-123012761D01*
X83911562Y-122862876D01*
X83911560Y-122862874D01*
X83722404Y-122745754D01*
X83722398Y-122745752D01*
X83692721Y-122734255D01*
X83514940Y-122665382D01*
X83296243Y-122624500D01*
X83073757Y-122624500D01*
X82855060Y-122665382D01*
X82797353Y-122687738D01*
X82647601Y-122745752D01*
X82647595Y-122745754D01*
X82458439Y-122862874D01*
X82458437Y-122862876D01*
X82294020Y-123012761D01*
X82159943Y-123190308D01*
X82159938Y-123190316D01*
X82060775Y-123389461D01*
X82060769Y-123389476D01*
X81999885Y-123603462D01*
X81999884Y-123603464D01*
X81979357Y-123824999D01*
X81979357Y-123825000D01*
X38100500Y-123825000D01*
X38100500Y-118157192D01*
X104509500Y-118157192D01*
X104524326Y-118298256D01*
X104524327Y-118298259D01*
X104582818Y-118478277D01*
X104582821Y-118478284D01*
X104677467Y-118642216D01*
X104804129Y-118782888D01*
X104957265Y-118894148D01*
X104957270Y-118894151D01*
X105130192Y-118971142D01*
X105130197Y-118971144D01*
X105315354Y-119010500D01*
X105315355Y-119010500D01*
X105504644Y-119010500D01*
X105504646Y-119010500D01*
X105689803Y-118971144D01*
X105862730Y-118894151D01*
X106015871Y-118782888D01*
X106142533Y-118642216D01*
X106237179Y-118478284D01*
X106295674Y-118298256D01*
X106310500Y-118157192D01*
X106310500Y-113617808D01*
X106295674Y-113476744D01*
X106237179Y-113296716D01*
X106142533Y-113132784D01*
X106015871Y-112992112D01*
X106015870Y-112992111D01*
X105862734Y-112880851D01*
X105862729Y-112880848D01*
X105689807Y-112803857D01*
X105689802Y-112803855D01*
X105522627Y-112768322D01*
X105504646Y-112764500D01*
X105315354Y-112764500D01*
X105297373Y-112768322D01*
X105130197Y-112803855D01*
X105130192Y-112803857D01*
X104957270Y-112880848D01*
X104957265Y-112880851D01*
X104804129Y-112992111D01*
X104677466Y-113132785D01*
X104582821Y-113296715D01*
X104582818Y-113296722D01*
X104524327Y-113476740D01*
X104524326Y-113476744D01*
X104509500Y-113617808D01*
X104509500Y-118157192D01*
X38100500Y-118157192D01*
X38100500Y-99695000D01*
X62929357Y-99695000D01*
X62949884Y-99916535D01*
X62949885Y-99916537D01*
X63010769Y-100130523D01*
X63010775Y-100130538D01*
X63109938Y-100329683D01*
X63109943Y-100329691D01*
X63244020Y-100507238D01*
X63408437Y-100657123D01*
X63408439Y-100657125D01*
X63597595Y-100774245D01*
X63597596Y-100774245D01*
X63597599Y-100774247D01*
X63805060Y-100854618D01*
X64023757Y-100895500D01*
X64023759Y-100895500D01*
X64246241Y-100895500D01*
X64246243Y-100895500D01*
X64464940Y-100854618D01*
X64672401Y-100774247D01*
X64861562Y-100657124D01*
X65025981Y-100507236D01*
X65160058Y-100329689D01*
X65259229Y-100130528D01*
X65320115Y-99916536D01*
X65340643Y-99695000D01*
X65320115Y-99473464D01*
X65259229Y-99259472D01*
X65250992Y-99242929D01*
X65160061Y-99060316D01*
X65160056Y-99060308D01*
X65025979Y-98882761D01*
X64861562Y-98732876D01*
X64861560Y-98732874D01*
X64672404Y-98615754D01*
X64672398Y-98615752D01*
X64464940Y-98535382D01*
X64246243Y-98494500D01*
X64023757Y-98494500D01*
X63805060Y-98535382D01*
X63673864Y-98586207D01*
X63597601Y-98615752D01*
X63597595Y-98615754D01*
X63408439Y-98732874D01*
X63408437Y-98732876D01*
X63244020Y-98882761D01*
X63109943Y-99060308D01*
X63109938Y-99060316D01*
X63010775Y-99259461D01*
X63010769Y-99259476D01*
X62949885Y-99473462D01*
X62949884Y-99473464D01*
X62929357Y-99694999D01*
X62929357Y-99695000D01*
X38100500Y-99695000D01*
X38100500Y-91787763D01*
X59145787Y-91787763D01*
X59175413Y-92057013D01*
X59175415Y-92057024D01*
X59243926Y-92319082D01*
X59243928Y-92319088D01*
X59349870Y-92568390D01*
X59490979Y-92799605D01*
X59490986Y-92799615D01*
X59664253Y-93007819D01*
X59664259Y-93007824D01*
X59865998Y-93188582D01*
X60091910Y-93338044D01*
X60337176Y-93453020D01*
X60337183Y-93453022D01*
X60337185Y-93453023D01*
X60596557Y-93531057D01*
X60596564Y-93531058D01*
X60596569Y-93531060D01*
X60864561Y-93570500D01*
X60864566Y-93570500D01*
X61067636Y-93570500D01*
X61119133Y-93566730D01*
X61270156Y-93555677D01*
X61411214Y-93524255D01*
X61534546Y-93496782D01*
X61534548Y-93496781D01*
X61534553Y-93496780D01*
X61787558Y-93400014D01*
X62023777Y-93267441D01*
X62238177Y-93101888D01*
X62426186Y-92906881D01*
X62583799Y-92686579D01*
X62676297Y-92506669D01*
X62707649Y-92445690D01*
X62707651Y-92445684D01*
X62707656Y-92445675D01*
X62792169Y-92197948D01*
X62795115Y-92189314D01*
X62795115Y-92189313D01*
X62795118Y-92189305D01*
X62844319Y-91922933D01*
X62854212Y-91652235D01*
X62824586Y-91382982D01*
X62756072Y-91120912D01*
X62650130Y-90871610D01*
X62509018Y-90640390D01*
X62457879Y-90578940D01*
X62335746Y-90432180D01*
X62335740Y-90432175D01*
X62134002Y-90251418D01*
X61908092Y-90101957D01*
X61908090Y-90101956D01*
X61662824Y-89986980D01*
X61662819Y-89986978D01*
X61662814Y-89986976D01*
X61403442Y-89908942D01*
X61403428Y-89908939D01*
X61287791Y-89891921D01*
X61135439Y-89869500D01*
X60932369Y-89869500D01*
X60932364Y-89869500D01*
X60729844Y-89884323D01*
X60729831Y-89884325D01*
X60465453Y-89943217D01*
X60465446Y-89943220D01*
X60212439Y-90039987D01*
X59976226Y-90172557D01*
X59976224Y-90172558D01*
X59976223Y-90172559D01*
X59921278Y-90214986D01*
X59761822Y-90338112D01*
X59573822Y-90533109D01*
X59573816Y-90533116D01*
X59416202Y-90753419D01*
X59416199Y-90753424D01*
X59292350Y-90994309D01*
X59292343Y-90994327D01*
X59204884Y-91250685D01*
X59204881Y-91250699D01*
X59180811Y-91381016D01*
X59161656Y-91484722D01*
X59155681Y-91517068D01*
X59155680Y-91517075D01*
X59145787Y-91787763D01*
X38100500Y-91787763D01*
X38100500Y-80010000D01*
X40069357Y-80010000D01*
X40089884Y-80231535D01*
X40089885Y-80231537D01*
X40150769Y-80445523D01*
X40150775Y-80445538D01*
X40249938Y-80644683D01*
X40249943Y-80644691D01*
X40384020Y-80822238D01*
X40529862Y-80955190D01*
X40538418Y-80962990D01*
X40548437Y-80972123D01*
X40548439Y-80972125D01*
X40737595Y-81089245D01*
X40737596Y-81089245D01*
X40737599Y-81089247D01*
X40945060Y-81169618D01*
X41163757Y-81210500D01*
X41163759Y-81210500D01*
X41386241Y-81210500D01*
X41386243Y-81210500D01*
X41604940Y-81169618D01*
X41812401Y-81089247D01*
X42001562Y-80972124D01*
X42165981Y-80822236D01*
X42300058Y-80644689D01*
X42399229Y-80445528D01*
X42460115Y-80231536D01*
X42480643Y-80010000D01*
X42474203Y-79940505D01*
X42460115Y-79788464D01*
X42460114Y-79788462D01*
X42422612Y-79656657D01*
X42399229Y-79574472D01*
X42399224Y-79574461D01*
X42300061Y-79375316D01*
X42300056Y-79375308D01*
X42165979Y-79197761D01*
X42001562Y-79047876D01*
X42001560Y-79047874D01*
X41812404Y-78930754D01*
X41812398Y-78930752D01*
X41604940Y-78850382D01*
X41386243Y-78809500D01*
X41163757Y-78809500D01*
X40945060Y-78850382D01*
X40887353Y-78872738D01*
X40737601Y-78930752D01*
X40737595Y-78930754D01*
X40548439Y-79047874D01*
X40548437Y-79047876D01*
X40384020Y-79197761D01*
X40249943Y-79375308D01*
X40249938Y-79375316D01*
X40150775Y-79574461D01*
X40150769Y-79574476D01*
X40089885Y-79788462D01*
X40089884Y-79788464D01*
X40069357Y-80009999D01*
X40069357Y-80010000D01*
X38100500Y-80010000D01*
X38100500Y-71220000D01*
X75685000Y-71220000D01*
X76635000Y-71220000D01*
X76635000Y-70370000D01*
X76053520Y-70370000D01*
X75959850Y-70384835D01*
X75959844Y-70384837D01*
X75846958Y-70442356D01*
X75846949Y-70442363D01*
X75757363Y-70531949D01*
X75757360Y-70531953D01*
X75699833Y-70644855D01*
X75685000Y-70738513D01*
X75685000Y-71220000D01*
X38100500Y-71220000D01*
X38100500Y-68944500D01*
X38120185Y-68877461D01*
X38172989Y-68831706D01*
X38224500Y-68820500D01*
X84455000Y-68820500D01*
X84455000Y-70769500D01*
G37*
G04 #@! TD.AperFunction*
G04 #@! TA.AperFunction,Conductor*
G36*
X127180470Y-85114808D02*
G01*
X127285478Y-85180789D01*
X127396974Y-85219803D01*
X127455745Y-85240368D01*
X127455750Y-85240369D01*
X127634996Y-85260565D01*
X127635000Y-85260565D01*
X127635004Y-85260565D01*
X127814249Y-85240369D01*
X127814251Y-85240368D01*
X127814255Y-85240368D01*
X127814258Y-85240366D01*
X127814262Y-85240366D01*
X127904377Y-85208832D01*
X127984522Y-85180789D01*
X128074096Y-85124505D01*
X128140068Y-85105500D01*
X129854192Y-85105500D01*
X129921231Y-85125185D01*
X129941873Y-85141819D01*
X132028181Y-87228127D01*
X132061666Y-87289450D01*
X132064500Y-87315808D01*
X132064500Y-91989494D01*
X132062732Y-92005505D01*
X132062974Y-92005528D01*
X132062240Y-92013294D01*
X132062240Y-92013296D01*
X132063054Y-92039188D01*
X132064500Y-92085203D01*
X132064500Y-92115920D01*
X132064501Y-92115940D01*
X132065418Y-92123206D01*
X132065876Y-92129024D01*
X132067402Y-92177567D01*
X132067403Y-92177570D01*
X132073323Y-92197948D01*
X132077268Y-92216996D01*
X132079928Y-92238054D01*
X132079931Y-92238064D01*
X132097813Y-92283230D01*
X132099705Y-92288758D01*
X132113254Y-92335395D01*
X132113255Y-92335397D01*
X132124060Y-92353666D01*
X132132617Y-92371134D01*
X132138080Y-92384930D01*
X132140432Y-92390872D01*
X132168983Y-92430170D01*
X132172188Y-92435049D01*
X132196919Y-92476865D01*
X132196923Y-92476869D01*
X132211925Y-92491871D01*
X132224563Y-92506669D01*
X132237033Y-92523833D01*
X132237036Y-92523836D01*
X132237037Y-92523837D01*
X132274476Y-92554809D01*
X132278776Y-92558722D01*
X132727873Y-93007819D01*
X133163277Y-93443223D01*
X133196762Y-93504546D01*
X133198815Y-93517012D01*
X133199630Y-93524246D01*
X133199632Y-93524255D01*
X133259210Y-93694521D01*
X133303999Y-93765802D01*
X133355184Y-93847262D01*
X133482738Y-93974816D01*
X133635478Y-94070789D01*
X133805745Y-94130368D01*
X133805750Y-94130369D01*
X133984996Y-94150565D01*
X133985000Y-94150565D01*
X133985002Y-94150565D01*
X134020975Y-94146511D01*
X134085617Y-94139228D01*
X134154438Y-94151282D01*
X134205817Y-94198631D01*
X134223500Y-94262448D01*
X134223500Y-95357122D01*
X134203815Y-95424161D01*
X134183849Y-95448014D01*
X133594479Y-95994955D01*
X133576582Y-96008754D01*
X133567060Y-96014797D01*
X133567056Y-96014800D01*
X133527582Y-96056836D01*
X133524562Y-96059838D01*
X133512518Y-96071016D01*
X133512508Y-96071027D01*
X133499257Y-96086852D01*
X133496920Y-96089487D01*
X133454549Y-96134609D01*
X133451337Y-96140452D01*
X133437770Y-96160290D01*
X133433485Y-96165408D01*
X133433481Y-96165415D01*
X133406796Y-96221264D01*
X133405185Y-96224402D01*
X133375373Y-96278631D01*
X133373713Y-96285095D01*
X133365502Y-96307692D01*
X133362631Y-96313701D01*
X133362628Y-96313709D01*
X133350673Y-96374423D01*
X133349893Y-96377862D01*
X133334500Y-96437818D01*
X133334500Y-96444479D01*
X133332165Y-96468427D01*
X133330878Y-96474966D01*
X133334400Y-96536778D01*
X133334500Y-96540286D01*
X133334500Y-98554931D01*
X133315494Y-98620903D01*
X133259211Y-98710477D01*
X133259209Y-98710481D01*
X133199633Y-98880737D01*
X133199630Y-98880750D01*
X133179435Y-99059996D01*
X133179435Y-99060003D01*
X133199630Y-99239249D01*
X133199631Y-99239254D01*
X133259211Y-99409523D01*
X133340800Y-99539370D01*
X133355184Y-99562262D01*
X133482738Y-99689816D01*
X133635478Y-99785789D01*
X133805745Y-99845368D01*
X133805750Y-99845369D01*
X133984996Y-99865565D01*
X133985000Y-99865565D01*
X133985004Y-99865565D01*
X134164249Y-99845369D01*
X134164252Y-99845368D01*
X134164255Y-99845368D01*
X134334522Y-99785789D01*
X134487262Y-99689816D01*
X134614816Y-99562262D01*
X134710789Y-99409522D01*
X134770368Y-99239255D01*
X134775072Y-99197504D01*
X134790565Y-99060003D01*
X134790565Y-99059996D01*
X134770369Y-98880750D01*
X134770366Y-98880737D01*
X134710790Y-98710481D01*
X134710789Y-98710478D01*
X134689008Y-98675814D01*
X134654506Y-98620903D01*
X134635500Y-98554931D01*
X134635500Y-96857874D01*
X134655185Y-96790835D01*
X134675149Y-96766984D01*
X135031153Y-96436608D01*
X135093681Y-96405437D01*
X135163138Y-96413018D01*
X135217471Y-96456947D01*
X135239428Y-96523277D01*
X135239500Y-96527502D01*
X135239500Y-100009192D01*
X135219815Y-100076231D01*
X135203181Y-100096873D01*
X134386873Y-100913181D01*
X134325550Y-100946666D01*
X134299192Y-100949500D01*
X133435504Y-100949500D01*
X133419493Y-100947732D01*
X133419471Y-100947974D01*
X133411704Y-100947240D01*
X133411703Y-100947240D01*
X133339796Y-100949500D01*
X133309075Y-100949500D01*
X133309071Y-100949500D01*
X133309061Y-100949501D01*
X133301793Y-100950419D01*
X133295976Y-100950876D01*
X133247435Y-100952402D01*
X133247424Y-100952404D01*
X133227048Y-100958323D01*
X133208008Y-100962266D01*
X133186947Y-100964927D01*
X133186939Y-100964929D01*
X133141775Y-100982811D01*
X133136247Y-100984703D01*
X133089602Y-100998255D01*
X133071332Y-101009060D01*
X133053863Y-101017618D01*
X133034128Y-101025432D01*
X133034126Y-101025433D01*
X132994839Y-101053977D01*
X132989956Y-101057184D01*
X132948132Y-101081919D01*
X132933126Y-101096926D01*
X132918336Y-101109558D01*
X132901167Y-101122032D01*
X132901165Y-101122034D01*
X132870194Y-101159470D01*
X132866261Y-101163791D01*
X130872989Y-103157065D01*
X128886873Y-105143181D01*
X128825550Y-105176666D01*
X128799192Y-105179500D01*
X124761250Y-105179500D01*
X124694211Y-105159815D01*
X124657442Y-105123322D01*
X124592572Y-105024033D01*
X124592571Y-105024031D01*
X124429764Y-104847175D01*
X124299585Y-104745852D01*
X124258773Y-104689143D01*
X124255098Y-104619370D01*
X124289730Y-104558687D01*
X124299585Y-104550147D01*
X124429764Y-104448825D01*
X124592571Y-104271969D01*
X124724049Y-104070728D01*
X124820610Y-103850591D01*
X124879620Y-103617563D01*
X124888948Y-103504996D01*
X124899471Y-103378005D01*
X124899471Y-103377994D01*
X124886237Y-103218291D01*
X124879620Y-103138437D01*
X124820610Y-102905409D01*
X124724049Y-102685272D01*
X124698833Y-102646677D01*
X124625102Y-102533823D01*
X124592571Y-102484031D01*
X124429764Y-102307175D01*
X124299585Y-102205852D01*
X124258773Y-102149143D01*
X124255098Y-102079370D01*
X124289730Y-102018687D01*
X124299585Y-102010147D01*
X124429764Y-101908825D01*
X124592571Y-101731969D01*
X124724049Y-101530728D01*
X124748569Y-101474828D01*
X124748630Y-101474690D01*
X124793586Y-101421204D01*
X124860322Y-101400514D01*
X124862186Y-101400500D01*
X127132823Y-101400500D01*
X127764495Y-101400500D01*
X127780505Y-101402267D01*
X127780528Y-101402026D01*
X127788289Y-101402758D01*
X127788296Y-101402760D01*
X127860203Y-101400500D01*
X127890925Y-101400500D01*
X127898190Y-101399581D01*
X127904016Y-101399122D01*
X127952569Y-101397597D01*
X127972956Y-101391673D01*
X127991996Y-101387731D01*
X128013058Y-101385071D01*
X128058235Y-101367183D01*
X128063735Y-101365300D01*
X128110398Y-101351744D01*
X128128665Y-101340939D01*
X128146136Y-101332380D01*
X128165871Y-101324568D01*
X128205177Y-101296010D01*
X128210043Y-101292813D01*
X128251865Y-101268081D01*
X128266870Y-101253075D01*
X128281668Y-101240436D01*
X128298837Y-101227963D01*
X128329809Y-101190522D01*
X128333723Y-101186221D01*
X129939513Y-99580431D01*
X129952079Y-99570365D01*
X129951925Y-99570178D01*
X129957937Y-99565204D01*
X129957937Y-99565203D01*
X129957940Y-99565202D01*
X130007190Y-99512755D01*
X130028911Y-99491035D01*
X130033401Y-99485245D01*
X130037183Y-99480815D01*
X130070448Y-99445393D01*
X130080670Y-99426796D01*
X130091348Y-99410539D01*
X130104362Y-99393764D01*
X130123664Y-99349157D01*
X130126208Y-99343963D01*
X130149627Y-99301368D01*
X130154906Y-99280808D01*
X130161209Y-99262399D01*
X130162480Y-99259461D01*
X130169636Y-99242926D01*
X130177235Y-99194945D01*
X130178417Y-99189234D01*
X130190500Y-99142177D01*
X130190500Y-99120955D01*
X130192027Y-99101555D01*
X130195347Y-99080595D01*
X130190775Y-99032230D01*
X130190500Y-99026392D01*
X130190500Y-92395808D01*
X130210185Y-92328769D01*
X130226818Y-92308128D01*
X130279187Y-92255758D01*
X130325915Y-92226396D01*
X130328851Y-92225368D01*
X130328855Y-92225368D01*
X130499122Y-92165789D01*
X130651862Y-92069816D01*
X130779416Y-91942262D01*
X130875389Y-91789522D01*
X130934968Y-91619255D01*
X130934969Y-91619249D01*
X130955165Y-91440003D01*
X130955165Y-91439996D01*
X130934969Y-91260750D01*
X130934968Y-91260745D01*
X130926575Y-91236759D01*
X130875389Y-91090478D01*
X130862157Y-91069420D01*
X130790856Y-90955945D01*
X130779416Y-90937738D01*
X130651862Y-90810184D01*
X130599986Y-90777588D01*
X130499123Y-90714211D01*
X130328854Y-90654631D01*
X130328849Y-90654630D01*
X130149604Y-90634435D01*
X130149596Y-90634435D01*
X129970350Y-90654630D01*
X129970345Y-90654631D01*
X129800076Y-90714211D01*
X129647337Y-90810184D01*
X129519784Y-90937737D01*
X129423810Y-91090478D01*
X129364232Y-91260745D01*
X129360191Y-91296606D01*
X129333123Y-91361019D01*
X129324652Y-91370400D01*
X129140483Y-91554569D01*
X129127910Y-91564643D01*
X129128065Y-91564830D01*
X129122059Y-91569798D01*
X129097434Y-91596021D01*
X129072809Y-91622244D01*
X129061949Y-91633104D01*
X129051088Y-91643965D01*
X129051078Y-91643977D01*
X129046587Y-91649765D01*
X129042801Y-91654197D01*
X129009552Y-91689606D01*
X128999322Y-91708213D01*
X128988646Y-91724464D01*
X128975640Y-91741232D01*
X128975636Y-91741238D01*
X128956348Y-91785811D01*
X128953777Y-91791058D01*
X128930372Y-91833630D01*
X128930372Y-91833631D01*
X128925091Y-91854199D01*
X128918791Y-91872601D01*
X128910364Y-91892073D01*
X128902766Y-91940047D01*
X128901581Y-91945770D01*
X128889500Y-91992818D01*
X128889500Y-92014044D01*
X128887973Y-92033443D01*
X128884653Y-92054405D01*
X128888239Y-92092333D01*
X128889225Y-92102767D01*
X128889500Y-92108606D01*
X128889500Y-98739192D01*
X128869815Y-98806231D01*
X128853181Y-98826873D01*
X127616873Y-100063181D01*
X127555550Y-100096666D01*
X127529192Y-100099500D01*
X124761250Y-100099500D01*
X124694211Y-100079815D01*
X124657442Y-100043322D01*
X124592572Y-99944033D01*
X124592571Y-99944031D01*
X124429764Y-99767175D01*
X124299585Y-99665852D01*
X124258773Y-99609143D01*
X124255098Y-99539370D01*
X124289730Y-99478687D01*
X124299585Y-99470147D01*
X124429764Y-99368825D01*
X124592571Y-99191969D01*
X124724049Y-98990728D01*
X124820610Y-98770591D01*
X124879620Y-98537563D01*
X124899471Y-98298000D01*
X124879620Y-98058437D01*
X124820610Y-97825409D01*
X124724049Y-97605272D01*
X124592571Y-97404031D01*
X124569051Y-97378481D01*
X124538130Y-97315829D01*
X124545990Y-97246402D01*
X124590137Y-97192247D01*
X124656554Y-97170556D01*
X124660282Y-97170500D01*
X125644495Y-97170500D01*
X125660505Y-97172267D01*
X125660528Y-97172026D01*
X125668289Y-97172758D01*
X125668296Y-97172760D01*
X125740203Y-97170500D01*
X125770925Y-97170500D01*
X125778190Y-97169581D01*
X125784016Y-97169122D01*
X125832569Y-97167597D01*
X125852956Y-97161673D01*
X125871996Y-97157731D01*
X125893058Y-97155071D01*
X125938235Y-97137183D01*
X125943735Y-97135300D01*
X125990398Y-97121744D01*
X126008665Y-97110939D01*
X126026136Y-97102380D01*
X126045871Y-97094568D01*
X126085177Y-97066010D01*
X126090043Y-97062813D01*
X126131865Y-97038081D01*
X126146870Y-97023075D01*
X126161668Y-97010436D01*
X126178837Y-96997963D01*
X126209809Y-96960522D01*
X126213723Y-96956221D01*
X127399513Y-95770431D01*
X127412079Y-95760365D01*
X127411925Y-95760178D01*
X127417937Y-95755204D01*
X127417937Y-95755203D01*
X127417940Y-95755202D01*
X127467190Y-95702755D01*
X127488911Y-95681035D01*
X127493401Y-95675245D01*
X127497183Y-95670815D01*
X127530448Y-95635393D01*
X127540674Y-95616790D01*
X127551353Y-95600533D01*
X127564362Y-95583764D01*
X127583656Y-95539175D01*
X127586212Y-95533956D01*
X127609627Y-95491368D01*
X127614905Y-95470806D01*
X127621207Y-95452399D01*
X127629635Y-95432927D01*
X127637233Y-95384953D01*
X127638414Y-95379247D01*
X127650500Y-95332177D01*
X127650500Y-95310949D01*
X127652027Y-95291549D01*
X127653749Y-95280677D01*
X127655346Y-95270595D01*
X127650775Y-95222238D01*
X127650500Y-95216400D01*
X127650500Y-91945067D01*
X127669507Y-91879094D01*
X127725788Y-91789524D01*
X127726404Y-91787765D01*
X127785368Y-91619255D01*
X127785369Y-91619249D01*
X127805565Y-91440003D01*
X127805565Y-91439996D01*
X127785369Y-91260750D01*
X127785368Y-91260745D01*
X127776975Y-91236759D01*
X127725789Y-91090478D01*
X127712557Y-91069420D01*
X127641256Y-90955945D01*
X127629816Y-90937738D01*
X127502262Y-90810184D01*
X127450386Y-90777588D01*
X127349523Y-90714211D01*
X127179254Y-90654631D01*
X127179249Y-90654630D01*
X127000004Y-90634435D01*
X126999996Y-90634435D01*
X126820750Y-90654630D01*
X126820745Y-90654631D01*
X126650476Y-90714211D01*
X126497737Y-90810184D01*
X126370184Y-90937737D01*
X126274211Y-91090476D01*
X126214631Y-91260745D01*
X126214630Y-91260750D01*
X126194435Y-91439996D01*
X126194435Y-91440003D01*
X126214630Y-91619249D01*
X126214631Y-91619254D01*
X126274211Y-91789524D01*
X126330493Y-91879094D01*
X126349500Y-91945067D01*
X126349500Y-94929192D01*
X126329815Y-94996231D01*
X126313181Y-95016873D01*
X125496873Y-95833181D01*
X125435550Y-95866666D01*
X125409192Y-95869500D01*
X122005506Y-95869500D01*
X121989495Y-95867732D01*
X121989473Y-95867974D01*
X121981706Y-95867239D01*
X121909783Y-95869500D01*
X121879075Y-95869500D01*
X121879071Y-95869500D01*
X121879060Y-95869501D01*
X121871804Y-95870417D01*
X121865986Y-95870875D01*
X121817433Y-95872401D01*
X121802873Y-95876630D01*
X121797040Y-95878325D01*
X121777996Y-95882269D01*
X121756942Y-95884929D01*
X121756940Y-95884929D01*
X121711781Y-95902808D01*
X121706255Y-95904700D01*
X121659601Y-95918254D01*
X121641325Y-95929063D01*
X121623860Y-95937619D01*
X121604124Y-95945433D01*
X121564824Y-95973986D01*
X121559942Y-95977193D01*
X121518136Y-96001917D01*
X121503124Y-96016929D01*
X121488336Y-96029558D01*
X121471167Y-96042032D01*
X121471165Y-96042034D01*
X121440194Y-96079470D01*
X121436262Y-96083791D01*
X120885483Y-96634569D01*
X120872905Y-96644647D01*
X120873060Y-96644834D01*
X120868535Y-96648577D01*
X120867387Y-96649069D01*
X120864265Y-96651572D01*
X120860488Y-96653970D01*
X120859520Y-96652446D01*
X120804332Y-96676139D01*
X120735419Y-96664614D01*
X120683677Y-96617662D01*
X120665500Y-96553029D01*
X120665500Y-95570807D01*
X120685185Y-95503768D01*
X120701814Y-95483131D01*
X122319513Y-93865431D01*
X122332079Y-93855365D01*
X122331925Y-93855178D01*
X122337937Y-93850204D01*
X122337937Y-93850203D01*
X122337940Y-93850202D01*
X122387190Y-93797755D01*
X122408911Y-93776035D01*
X122413401Y-93770245D01*
X122417183Y-93765815D01*
X122450448Y-93730393D01*
X122460674Y-93711789D01*
X122471347Y-93695541D01*
X122484363Y-93678763D01*
X122503652Y-93634187D01*
X122506224Y-93628936D01*
X122512407Y-93617690D01*
X122529627Y-93586368D01*
X122534904Y-93565808D01*
X122541206Y-93547403D01*
X122549636Y-93527926D01*
X122557235Y-93479945D01*
X122558417Y-93474234D01*
X122570500Y-93427177D01*
X122570500Y-93405949D01*
X122572027Y-93386555D01*
X122572028Y-93386549D01*
X122575347Y-93365595D01*
X122570775Y-93317230D01*
X122570500Y-93311392D01*
X122570500Y-91945067D01*
X122589507Y-91879094D01*
X122645788Y-91789524D01*
X122646404Y-91787765D01*
X122705368Y-91619255D01*
X122705369Y-91619249D01*
X122725565Y-91440003D01*
X122725565Y-91439996D01*
X122705369Y-91260750D01*
X122705368Y-91260745D01*
X122696975Y-91236759D01*
X122645789Y-91090478D01*
X122632557Y-91069420D01*
X122561256Y-90955945D01*
X122549816Y-90937738D01*
X122422262Y-90810184D01*
X122370386Y-90777588D01*
X122269523Y-90714211D01*
X122099254Y-90654631D01*
X122099249Y-90654630D01*
X121920004Y-90634435D01*
X121919996Y-90634435D01*
X121740750Y-90654630D01*
X121740745Y-90654631D01*
X121570476Y-90714211D01*
X121417737Y-90810184D01*
X121290184Y-90937737D01*
X121194211Y-91090476D01*
X121134631Y-91260745D01*
X121134630Y-91260750D01*
X121114435Y-91439996D01*
X121114435Y-91440003D01*
X121134630Y-91619249D01*
X121134631Y-91619254D01*
X121194211Y-91789524D01*
X121250493Y-91879094D01*
X121269500Y-91945067D01*
X121269500Y-93024191D01*
X121249815Y-93091230D01*
X121233181Y-93111872D01*
X119615484Y-94729568D01*
X119602910Y-94739643D01*
X119603065Y-94739830D01*
X119597059Y-94744798D01*
X119572434Y-94771021D01*
X119547809Y-94797244D01*
X119536949Y-94808104D01*
X119526088Y-94818965D01*
X119526078Y-94818977D01*
X119521587Y-94824765D01*
X119517801Y-94829197D01*
X119484552Y-94864606D01*
X119474322Y-94883213D01*
X119463646Y-94899464D01*
X119450640Y-94916232D01*
X119450636Y-94916238D01*
X119431348Y-94960811D01*
X119428777Y-94966058D01*
X119405372Y-95008630D01*
X119405372Y-95008631D01*
X119400091Y-95029199D01*
X119393791Y-95047601D01*
X119385364Y-95067073D01*
X119377766Y-95115047D01*
X119376581Y-95120770D01*
X119364500Y-95167818D01*
X119364500Y-95189044D01*
X119362973Y-95208444D01*
X119359653Y-95229403D01*
X119364225Y-95277767D01*
X119364500Y-95283606D01*
X119364500Y-95755448D01*
X119344815Y-95822487D01*
X119292011Y-95868242D01*
X119222853Y-95878186D01*
X119174528Y-95860442D01*
X119069123Y-95794211D01*
X118898854Y-95734631D01*
X118898849Y-95734630D01*
X118719604Y-95714435D01*
X118719596Y-95714435D01*
X118540350Y-95734630D01*
X118540345Y-95734631D01*
X118370076Y-95794211D01*
X118217337Y-95890184D01*
X118089784Y-96017737D01*
X117993811Y-96170476D01*
X117934231Y-96340745D01*
X117934230Y-96340750D01*
X117914035Y-96519996D01*
X117914035Y-96520003D01*
X117934230Y-96699249D01*
X117934231Y-96699254D01*
X117993811Y-96869523D01*
X118089782Y-97022259D01*
X118092443Y-97025595D01*
X118118855Y-97090280D01*
X118119500Y-97102913D01*
X118119500Y-111042255D01*
X118117775Y-111057872D01*
X118118061Y-111057899D01*
X118117326Y-111065665D01*
X118119500Y-111134814D01*
X118119500Y-111164343D01*
X118119501Y-111164360D01*
X118120368Y-111171231D01*
X118120826Y-111177050D01*
X118122290Y-111223624D01*
X118122291Y-111223627D01*
X118127880Y-111242867D01*
X118131824Y-111261911D01*
X118134336Y-111281792D01*
X118151490Y-111325119D01*
X118153382Y-111330647D01*
X118166382Y-111375390D01*
X118173817Y-111387963D01*
X118176580Y-111392634D01*
X118185136Y-111410100D01*
X118192255Y-111428079D01*
X118192514Y-111428732D01*
X118219898Y-111466423D01*
X118223106Y-111471307D01*
X118246827Y-111511416D01*
X118246833Y-111511424D01*
X118260990Y-111525580D01*
X118273628Y-111540376D01*
X118281838Y-111551677D01*
X118285406Y-111556587D01*
X118300709Y-111569247D01*
X118321309Y-111586288D01*
X118325620Y-111590210D01*
X119499910Y-112764500D01*
X120569194Y-113833784D01*
X120579019Y-113846048D01*
X120579240Y-113845866D01*
X120584210Y-113851873D01*
X120584213Y-113851876D01*
X120584214Y-113851877D01*
X120634651Y-113899241D01*
X120655530Y-113920120D01*
X120661004Y-113924366D01*
X120665442Y-113928156D01*
X120699418Y-113960062D01*
X120699422Y-113960064D01*
X120716973Y-113969713D01*
X120733231Y-113980392D01*
X120749064Y-113992674D01*
X120771015Y-114002172D01*
X120791837Y-114011183D01*
X120797081Y-114013752D01*
X120837908Y-114036197D01*
X120857312Y-114041179D01*
X120875710Y-114047478D01*
X120894105Y-114055438D01*
X120940129Y-114062726D01*
X120945832Y-114063907D01*
X120990981Y-114075500D01*
X121011016Y-114075500D01*
X121030413Y-114077026D01*
X121050196Y-114080160D01*
X121096584Y-114075775D01*
X121102422Y-114075500D01*
X122014848Y-114075500D01*
X122081887Y-114095185D01*
X122127642Y-114147989D01*
X122128404Y-114149690D01*
X122163951Y-114230729D01*
X122295427Y-114431966D01*
X122295429Y-114431969D01*
X122458236Y-114608825D01*
X122458239Y-114608827D01*
X122458242Y-114608830D01*
X122588821Y-114710464D01*
X122629634Y-114767174D01*
X122633309Y-114836947D01*
X122598677Y-114897630D01*
X122588822Y-114906170D01*
X122458578Y-115007543D01*
X122295826Y-115184338D01*
X122295823Y-115184342D01*
X122164393Y-115385509D01*
X122067865Y-115605571D01*
X122008875Y-115838516D01*
X122008875Y-115838517D01*
X122005604Y-115878000D01*
X122981617Y-115878000D01*
X122944000Y-116006111D01*
X122944000Y-116149889D01*
X122981617Y-116278000D01*
X122005604Y-116278000D01*
X122008875Y-116317482D01*
X122008875Y-116317483D01*
X122067865Y-116550428D01*
X122164393Y-116770490D01*
X122295823Y-116971657D01*
X122295826Y-116971661D01*
X122308487Y-116985415D01*
X122339407Y-117048071D01*
X122331546Y-117117497D01*
X122287397Y-117171651D01*
X122273550Y-117179881D01*
X122268696Y-117182353D01*
X122268696Y-117182354D01*
X122155658Y-117239950D01*
X122155657Y-117239951D01*
X122155652Y-117239954D01*
X122065954Y-117329652D01*
X122065951Y-117329657D01*
X122065950Y-117329658D01*
X122065205Y-117331121D01*
X122008352Y-117442698D01*
X121993500Y-117536475D01*
X121993500Y-119699517D01*
X122004292Y-119767657D01*
X122008354Y-119793304D01*
X122065950Y-119906342D01*
X122065952Y-119906344D01*
X122065954Y-119906347D01*
X122155652Y-119996045D01*
X122155654Y-119996046D01*
X122155658Y-119996050D01*
X122258116Y-120048255D01*
X122268698Y-120053647D01*
X122362475Y-120068499D01*
X122362481Y-120068500D01*
X124525518Y-120068499D01*
X124619304Y-120053646D01*
X124732342Y-119996050D01*
X124822050Y-119906342D01*
X124879646Y-119793304D01*
X124879646Y-119793302D01*
X124879647Y-119793301D01*
X124894499Y-119699524D01*
X124894500Y-119699519D01*
X124894499Y-117536482D01*
X124879646Y-117442696D01*
X124822050Y-117329658D01*
X124822046Y-117329654D01*
X124822045Y-117329652D01*
X124732347Y-117239954D01*
X124732343Y-117239951D01*
X124732342Y-117239950D01*
X124729353Y-117238427D01*
X124614448Y-117179879D01*
X124563653Y-117131905D01*
X124546858Y-117064084D01*
X124569396Y-116997949D01*
X124579517Y-116985409D01*
X124592173Y-116971661D01*
X124592176Y-116971657D01*
X124723606Y-116770490D01*
X124820134Y-116550428D01*
X124879124Y-116317483D01*
X124879124Y-116317482D01*
X124882396Y-116278000D01*
X123906383Y-116278000D01*
X123944000Y-116149889D01*
X123944000Y-116006111D01*
X123906383Y-115878000D01*
X124882395Y-115878000D01*
X124879124Y-115838517D01*
X124879124Y-115838516D01*
X124820134Y-115605571D01*
X124723606Y-115385509D01*
X124592176Y-115184342D01*
X124592173Y-115184338D01*
X124429420Y-115007542D01*
X124429417Y-115007539D01*
X124299178Y-114906170D01*
X124258365Y-114849460D01*
X124254690Y-114779687D01*
X124289322Y-114719004D01*
X124299165Y-114710473D01*
X124429764Y-114608825D01*
X124592571Y-114431969D01*
X124724049Y-114230728D01*
X124820610Y-114010591D01*
X124879620Y-113777563D01*
X124899471Y-113538000D01*
X124879620Y-113298437D01*
X124820610Y-113065409D01*
X124724049Y-112845272D01*
X124721741Y-112841740D01*
X124604125Y-112661716D01*
X124592571Y-112644031D01*
X124429764Y-112467175D01*
X124299585Y-112365852D01*
X124258773Y-112309143D01*
X124255098Y-112239370D01*
X124289730Y-112178687D01*
X124299585Y-112170147D01*
X124429764Y-112068825D01*
X124592571Y-111891969D01*
X124724049Y-111690728D01*
X124736117Y-111663215D01*
X124748630Y-111634690D01*
X124793586Y-111581204D01*
X124860322Y-111560514D01*
X124862186Y-111560500D01*
X130304495Y-111560500D01*
X130320505Y-111562267D01*
X130320528Y-111562026D01*
X130328289Y-111562758D01*
X130328296Y-111562760D01*
X130400203Y-111560500D01*
X130430925Y-111560500D01*
X130438190Y-111559581D01*
X130444016Y-111559122D01*
X130492569Y-111557597D01*
X130512956Y-111551673D01*
X130531996Y-111547731D01*
X130553058Y-111545071D01*
X130598235Y-111527183D01*
X130603735Y-111525300D01*
X130650398Y-111511744D01*
X130668665Y-111500939D01*
X130686136Y-111492380D01*
X130705871Y-111484568D01*
X130745177Y-111456010D01*
X130750043Y-111452813D01*
X130791865Y-111428081D01*
X130806870Y-111413075D01*
X130821668Y-111400436D01*
X130838837Y-111387963D01*
X130869809Y-111350522D01*
X130873723Y-111346221D01*
X134384511Y-107835432D01*
X134397086Y-107825359D01*
X134396931Y-107825172D01*
X134402933Y-107820205D01*
X134402940Y-107820202D01*
X134452205Y-107767739D01*
X134473911Y-107746034D01*
X134478403Y-107740241D01*
X134482193Y-107735805D01*
X134515448Y-107700393D01*
X134525670Y-107681796D01*
X134536355Y-107665531D01*
X134549363Y-107648763D01*
X134568652Y-107604187D01*
X134571224Y-107598936D01*
X134571561Y-107598321D01*
X134594627Y-107556368D01*
X134599904Y-107535808D01*
X134606206Y-107517403D01*
X134614636Y-107497926D01*
X134622235Y-107449945D01*
X134623417Y-107444234D01*
X134635500Y-107397177D01*
X134635500Y-107375955D01*
X134637027Y-107356555D01*
X134640347Y-107335595D01*
X134635775Y-107287230D01*
X134635500Y-107281392D01*
X134635500Y-104010067D01*
X134654507Y-103944094D01*
X134710788Y-103854524D01*
X134710789Y-103854522D01*
X134770368Y-103684255D01*
X134770369Y-103684249D01*
X134790565Y-103505003D01*
X134790565Y-103504996D01*
X134770369Y-103325750D01*
X134770368Y-103325745D01*
X134767951Y-103318837D01*
X134710789Y-103155478D01*
X134700081Y-103138437D01*
X134614815Y-103002737D01*
X134487262Y-102875184D01*
X134334523Y-102779211D01*
X134164254Y-102719631D01*
X134164249Y-102719630D01*
X133985004Y-102699435D01*
X133984996Y-102699435D01*
X133805750Y-102719630D01*
X133805745Y-102719631D01*
X133635476Y-102779211D01*
X133482737Y-102875184D01*
X133355184Y-103002737D01*
X133259211Y-103155476D01*
X133199631Y-103325745D01*
X133199630Y-103325750D01*
X133179435Y-103504996D01*
X133179435Y-103505003D01*
X133199630Y-103684249D01*
X133199631Y-103684254D01*
X133259211Y-103854524D01*
X133315493Y-103944094D01*
X133334500Y-104010067D01*
X133334500Y-106994192D01*
X133314815Y-107061231D01*
X133298181Y-107081873D01*
X130156873Y-110223181D01*
X130095550Y-110256666D01*
X130069192Y-110259500D01*
X124761250Y-110259500D01*
X124694211Y-110239815D01*
X124657442Y-110203322D01*
X124625777Y-110154857D01*
X124592571Y-110104031D01*
X124429764Y-109927175D01*
X124299585Y-109825852D01*
X124258773Y-109769143D01*
X124255098Y-109699370D01*
X124289730Y-109638687D01*
X124299585Y-109630147D01*
X124429764Y-109528825D01*
X124592571Y-109351969D01*
X124724049Y-109150728D01*
X124820610Y-108930591D01*
X124879620Y-108697563D01*
X124899471Y-108458000D01*
X124879620Y-108218437D01*
X124820610Y-107985409D01*
X124724049Y-107765272D01*
X124723111Y-107763837D01*
X124617049Y-107601497D01*
X124592571Y-107564031D01*
X124429764Y-107387175D01*
X124299585Y-107285852D01*
X124258773Y-107229143D01*
X124255098Y-107159370D01*
X124289730Y-107098687D01*
X124299585Y-107090147D01*
X124429764Y-106988825D01*
X124592571Y-106811969D01*
X124724049Y-106610728D01*
X124736117Y-106583215D01*
X124748630Y-106554690D01*
X124793586Y-106501204D01*
X124860322Y-106480514D01*
X124862186Y-106480500D01*
X129034495Y-106480500D01*
X129050505Y-106482267D01*
X129050528Y-106482026D01*
X129058289Y-106482758D01*
X129058296Y-106482760D01*
X129130203Y-106480500D01*
X129160925Y-106480500D01*
X129168190Y-106479581D01*
X129174016Y-106479122D01*
X129222569Y-106477597D01*
X129242956Y-106471673D01*
X129261996Y-106467731D01*
X129283058Y-106465071D01*
X129328235Y-106447183D01*
X129333735Y-106445300D01*
X129380398Y-106431744D01*
X129398665Y-106420939D01*
X129416136Y-106412380D01*
X129435871Y-106404568D01*
X129475177Y-106376010D01*
X129480043Y-106372813D01*
X129521865Y-106348081D01*
X129536870Y-106333075D01*
X129551668Y-106320436D01*
X129568837Y-106307963D01*
X129599809Y-106270522D01*
X129603713Y-106266231D01*
X133583127Y-102286819D01*
X133644450Y-102253334D01*
X133670808Y-102250500D01*
X134534495Y-102250500D01*
X134550505Y-102252267D01*
X134550528Y-102252026D01*
X134558289Y-102252758D01*
X134558296Y-102252760D01*
X134630203Y-102250500D01*
X134660925Y-102250500D01*
X134668190Y-102249581D01*
X134674016Y-102249122D01*
X134722569Y-102247597D01*
X134742956Y-102241673D01*
X134761996Y-102237731D01*
X134783058Y-102235071D01*
X134828235Y-102217183D01*
X134833735Y-102215300D01*
X134880398Y-102201744D01*
X134898665Y-102190939D01*
X134916136Y-102182380D01*
X134935871Y-102174568D01*
X134975177Y-102146010D01*
X134980043Y-102142813D01*
X135021865Y-102118081D01*
X135036870Y-102103075D01*
X135051668Y-102090436D01*
X135068837Y-102077963D01*
X135099809Y-102040522D01*
X135103713Y-102036231D01*
X135743912Y-101396034D01*
X136043819Y-101096127D01*
X136105142Y-101062642D01*
X136174834Y-101067626D01*
X136230767Y-101109498D01*
X136255184Y-101174962D01*
X136255500Y-101183808D01*
X136255500Y-101279191D01*
X136235815Y-101346230D01*
X136219181Y-101366872D01*
X135490484Y-102095568D01*
X135477910Y-102105643D01*
X135478065Y-102105830D01*
X135472059Y-102110798D01*
X135463009Y-102120436D01*
X135422809Y-102163244D01*
X135411949Y-102174104D01*
X135401088Y-102184965D01*
X135401078Y-102184977D01*
X135396587Y-102190765D01*
X135392801Y-102195197D01*
X135359552Y-102230606D01*
X135349322Y-102249213D01*
X135338646Y-102265464D01*
X135325640Y-102282232D01*
X135325636Y-102282238D01*
X135306348Y-102326811D01*
X135303777Y-102332058D01*
X135280372Y-102374630D01*
X135280372Y-102374631D01*
X135275091Y-102395199D01*
X135268791Y-102413601D01*
X135260364Y-102433073D01*
X135252766Y-102481047D01*
X135251581Y-102486770D01*
X135239500Y-102533818D01*
X135239500Y-102555044D01*
X135237973Y-102574444D01*
X135234653Y-102595403D01*
X135239225Y-102643767D01*
X135239500Y-102649606D01*
X135239500Y-119869488D01*
X135219815Y-119936527D01*
X135167011Y-119982282D01*
X135097853Y-119992226D01*
X135049528Y-119974482D01*
X134969523Y-119924211D01*
X134799254Y-119864631D01*
X134799249Y-119864630D01*
X134620004Y-119844435D01*
X134619996Y-119844435D01*
X134440750Y-119864630D01*
X134440737Y-119864633D01*
X134270481Y-119924209D01*
X134270477Y-119924210D01*
X134180904Y-119980494D01*
X134114932Y-119999500D01*
X128990504Y-119999500D01*
X128974493Y-119997732D01*
X128974471Y-119997974D01*
X128966704Y-119997240D01*
X128966703Y-119997240D01*
X128894796Y-119999500D01*
X128864075Y-119999500D01*
X128864071Y-119999500D01*
X128864061Y-119999501D01*
X128856793Y-120000419D01*
X128850976Y-120000876D01*
X128802435Y-120002402D01*
X128802424Y-120002404D01*
X128782048Y-120008323D01*
X128763008Y-120012266D01*
X128741947Y-120014927D01*
X128741939Y-120014929D01*
X128696775Y-120032811D01*
X128691247Y-120034703D01*
X128644602Y-120048255D01*
X128626332Y-120059060D01*
X128608863Y-120067618D01*
X128589128Y-120075432D01*
X128589126Y-120075433D01*
X128549839Y-120103977D01*
X128544956Y-120107184D01*
X128503132Y-120131919D01*
X128488126Y-120146926D01*
X128473336Y-120159558D01*
X128456167Y-120172032D01*
X128456165Y-120172034D01*
X128425194Y-120209470D01*
X128421262Y-120213791D01*
X126266775Y-122368277D01*
X126205452Y-122401762D01*
X126192988Y-122403815D01*
X126185752Y-122404630D01*
X126185744Y-122404632D01*
X126015478Y-122464210D01*
X125862737Y-122560184D01*
X125735184Y-122687737D01*
X125639211Y-122840476D01*
X125579631Y-123010745D01*
X125579630Y-123010750D01*
X125559435Y-123189996D01*
X125559435Y-123190003D01*
X125579630Y-123369249D01*
X125579631Y-123369254D01*
X125639211Y-123539523D01*
X125735184Y-123692262D01*
X125862738Y-123819816D01*
X126015478Y-123915789D01*
X126185745Y-123975368D01*
X126185750Y-123975369D01*
X126364996Y-123995565D01*
X126365000Y-123995565D01*
X126365004Y-123995565D01*
X126544249Y-123975369D01*
X126544252Y-123975368D01*
X126544255Y-123975368D01*
X126714522Y-123915789D01*
X126867262Y-123819816D01*
X126994816Y-123692262D01*
X127090789Y-123539522D01*
X127150368Y-123369255D01*
X127151182Y-123362025D01*
X127178245Y-123297611D01*
X127186712Y-123288232D01*
X129138127Y-121336819D01*
X129199450Y-121303334D01*
X129225808Y-121300500D01*
X134114932Y-121300500D01*
X134180904Y-121319506D01*
X134270477Y-121375789D01*
X134270481Y-121375790D01*
X134440737Y-121435366D01*
X134440743Y-121435367D01*
X134440745Y-121435368D01*
X134440746Y-121435368D01*
X134440750Y-121435369D01*
X134619996Y-121455565D01*
X134620000Y-121455565D01*
X134620004Y-121455565D01*
X134799249Y-121435369D01*
X134799252Y-121435368D01*
X134799255Y-121435368D01*
X134969522Y-121375789D01*
X135049528Y-121325517D01*
X135116764Y-121306517D01*
X135183599Y-121326884D01*
X135228813Y-121380152D01*
X135239500Y-121430511D01*
X135239500Y-150809192D01*
X135219815Y-150876231D01*
X135203181Y-150896873D01*
X134386873Y-151713181D01*
X134325550Y-151746666D01*
X134299192Y-151749500D01*
X133911683Y-151749500D01*
X133844644Y-151729815D01*
X133810108Y-151696623D01*
X133715045Y-151560858D01*
X133554141Y-151399954D01*
X133367734Y-151269432D01*
X133367728Y-151269429D01*
X133309725Y-151242382D01*
X133257285Y-151196210D01*
X133238133Y-151129017D01*
X133258348Y-151062135D01*
X133309725Y-151017618D01*
X133326836Y-151009639D01*
X133367734Y-150990568D01*
X133554139Y-150860047D01*
X133715047Y-150699139D01*
X133845568Y-150512734D01*
X133941739Y-150306496D01*
X134000635Y-150086692D01*
X134020468Y-149860000D01*
X134000635Y-149633308D01*
X133941739Y-149413504D01*
X133845568Y-149207266D01*
X133715047Y-149020861D01*
X133715045Y-149020858D01*
X133554141Y-148859954D01*
X133367734Y-148729432D01*
X133367732Y-148729431D01*
X133161497Y-148633261D01*
X133161488Y-148633258D01*
X132941697Y-148574366D01*
X132941687Y-148574364D01*
X132878375Y-148568825D01*
X132813307Y-148543372D01*
X132801503Y-148532978D01*
X132666819Y-148398294D01*
X132633334Y-148336971D01*
X132630500Y-148310613D01*
X132630500Y-147964397D01*
X132631368Y-147938979D01*
X132632762Y-147898174D01*
X132631205Y-147891785D01*
X132622283Y-147855174D01*
X132621096Y-147848931D01*
X132617816Y-147825067D01*
X132615070Y-147805080D01*
X132607921Y-147788622D01*
X132601180Y-147768578D01*
X132596933Y-147751148D01*
X132589772Y-147738413D01*
X132575239Y-147712564D01*
X132572414Y-147706876D01*
X132556188Y-147669522D01*
X132554780Y-147666280D01*
X132543454Y-147652359D01*
X132531556Y-147634877D01*
X132522764Y-147619240D01*
X132491472Y-147587948D01*
X132487215Y-147583231D01*
X132459278Y-147548892D01*
X132444613Y-147538540D01*
X132428441Y-147524917D01*
X131761819Y-146858294D01*
X131728334Y-146796971D01*
X131725500Y-146770613D01*
X131725500Y-145913178D01*
X131725499Y-145913160D01*
X131725499Y-145523477D01*
X131711390Y-145434396D01*
X131711390Y-145395606D01*
X131725500Y-145306519D01*
X131725499Y-144443482D01*
X131710646Y-144349696D01*
X131653050Y-144236658D01*
X131653046Y-144236654D01*
X131653045Y-144236652D01*
X131563347Y-144146954D01*
X131563344Y-144146952D01*
X131563342Y-144146950D01*
X131486517Y-144107805D01*
X131450301Y-144089352D01*
X131356524Y-144074500D01*
X130993480Y-144074500D01*
X130944393Y-144082274D01*
X130905601Y-144082273D01*
X130856523Y-144074500D01*
X130493481Y-144074500D01*
X130442800Y-144082527D01*
X130404009Y-144082527D01*
X130356481Y-144075000D01*
X130325000Y-144075000D01*
X130317619Y-144082380D01*
X130305315Y-144124284D01*
X130288681Y-144144926D01*
X130262681Y-144170926D01*
X130201358Y-144204411D01*
X130131666Y-144199427D01*
X130087319Y-144170926D01*
X130061319Y-144144926D01*
X130027834Y-144083603D01*
X130027138Y-144077137D01*
X130025000Y-144074999D01*
X129993517Y-144075000D01*
X129945990Y-144082527D01*
X129907198Y-144082526D01*
X129856523Y-144074500D01*
X129493480Y-144074500D01*
X129444393Y-144082274D01*
X129405601Y-144082273D01*
X129356523Y-144074500D01*
X128993482Y-144074500D01*
X128912519Y-144087323D01*
X128899696Y-144089354D01*
X128786658Y-144146950D01*
X128786657Y-144146951D01*
X128786652Y-144146954D01*
X128696954Y-144236652D01*
X128696951Y-144236657D01*
X128639352Y-144349698D01*
X128624500Y-144443475D01*
X128624500Y-145306518D01*
X128638609Y-145395603D01*
X128638608Y-145434396D01*
X128624500Y-145523474D01*
X128624500Y-147405612D01*
X128604815Y-147472651D01*
X128588181Y-147493293D01*
X128557372Y-147524102D01*
X128508948Y-147569326D01*
X128485947Y-147607148D01*
X128482375Y-147612397D01*
X128455630Y-147647667D01*
X128455627Y-147647672D01*
X128449046Y-147664361D01*
X128439644Y-147683292D01*
X128430318Y-147698628D01*
X128418376Y-147741246D01*
X128416353Y-147747264D01*
X128400113Y-147788449D01*
X128398279Y-147806293D01*
X128394333Y-147827057D01*
X128389492Y-147844337D01*
X128389491Y-147844346D01*
X128389491Y-147888603D01*
X128389166Y-147894948D01*
X128384639Y-147938979D01*
X128384639Y-147938984D01*
X128387688Y-147956665D01*
X128389491Y-147977733D01*
X128389491Y-148435500D01*
X128369806Y-148502539D01*
X128317002Y-148548294D01*
X128265491Y-148559500D01*
X126703482Y-148559500D01*
X126630173Y-148571111D01*
X126609696Y-148574354D01*
X126496658Y-148631950D01*
X126496657Y-148631951D01*
X126496652Y-148631954D01*
X126406954Y-148721652D01*
X126406951Y-148721657D01*
X126406950Y-148721658D01*
X126402989Y-148729432D01*
X126349352Y-148834698D01*
X126334500Y-148928475D01*
X126334500Y-150791517D01*
X126341095Y-150833154D01*
X126349354Y-150885304D01*
X126406950Y-150998342D01*
X126406952Y-150998344D01*
X126406954Y-150998347D01*
X126496652Y-151088045D01*
X126496654Y-151088046D01*
X126496658Y-151088050D01*
X126609696Y-151145646D01*
X126609698Y-151145647D01*
X126703474Y-151160499D01*
X126703475Y-151160499D01*
X126703481Y-151160500D01*
X126745431Y-151160499D01*
X126812468Y-151180182D01*
X126858224Y-151232985D01*
X126868169Y-151302143D01*
X126839146Y-151365700D01*
X126816558Y-151386071D01*
X126796183Y-151400338D01*
X126635342Y-151561179D01*
X126504865Y-151747517D01*
X126408734Y-151953673D01*
X126408731Y-151953679D01*
X126349859Y-152173391D01*
X126349858Y-152173398D01*
X126347531Y-152200000D01*
X127230855Y-152200000D01*
X127211375Y-152233740D01*
X127181190Y-152365992D01*
X127191327Y-152501265D01*
X127230078Y-152600000D01*
X126347531Y-152600000D01*
X126349858Y-152626601D01*
X126349859Y-152626608D01*
X126408731Y-152846320D01*
X126408734Y-152846326D01*
X126504865Y-153052482D01*
X126635342Y-153238820D01*
X126796183Y-153399661D01*
X126837977Y-153428926D01*
X126881602Y-153483503D01*
X126888794Y-153553001D01*
X126857271Y-153615356D01*
X126797041Y-153650769D01*
X126766853Y-153654500D01*
X122875808Y-153654500D01*
X122808769Y-153634815D01*
X122788127Y-153618181D01*
X121971819Y-152801873D01*
X121938334Y-152740550D01*
X121935500Y-152714192D01*
X121935500Y-147825067D01*
X121954507Y-147759094D01*
X122010788Y-147669524D01*
X122011923Y-147666280D01*
X122070368Y-147499255D01*
X122073366Y-147472651D01*
X122090565Y-147320003D01*
X122090565Y-147319996D01*
X122070369Y-147140750D01*
X122070368Y-147140745D01*
X122031720Y-147030295D01*
X122010789Y-146970478D01*
X121914816Y-146817738D01*
X121787262Y-146690184D01*
X121778517Y-146684689D01*
X121634523Y-146594211D01*
X121464254Y-146534631D01*
X121464249Y-146534630D01*
X121285004Y-146514435D01*
X121284996Y-146514435D01*
X121105750Y-146534630D01*
X121105745Y-146534631D01*
X120935476Y-146594211D01*
X120782737Y-146690184D01*
X120655184Y-146817737D01*
X120559211Y-146970476D01*
X120499631Y-147140745D01*
X120499630Y-147140750D01*
X120479435Y-147319996D01*
X120479435Y-147320003D01*
X120499630Y-147499249D01*
X120499631Y-147499254D01*
X120559211Y-147669524D01*
X120615493Y-147759094D01*
X120634500Y-147825067D01*
X120634500Y-152949494D01*
X120632732Y-152965505D01*
X120632974Y-152965528D01*
X120632240Y-152973294D01*
X120634500Y-153045203D01*
X120634500Y-153075920D01*
X120634501Y-153075940D01*
X120635418Y-153083206D01*
X120635876Y-153089024D01*
X120637402Y-153137567D01*
X120637403Y-153137570D01*
X120643323Y-153157948D01*
X120647268Y-153176996D01*
X120649928Y-153198054D01*
X120649931Y-153198064D01*
X120667813Y-153243230D01*
X120669705Y-153248758D01*
X120683254Y-153295395D01*
X120683255Y-153295397D01*
X120694060Y-153313666D01*
X120702617Y-153331134D01*
X120708226Y-153345300D01*
X120710432Y-153350872D01*
X120738983Y-153390170D01*
X120742188Y-153395049D01*
X120766919Y-153436865D01*
X120766923Y-153436869D01*
X120781925Y-153451871D01*
X120794563Y-153466669D01*
X120807033Y-153483833D01*
X120807036Y-153483836D01*
X120807037Y-153483837D01*
X120844476Y-153514809D01*
X120848776Y-153518722D01*
X121442725Y-154112671D01*
X122034564Y-154704510D01*
X122044635Y-154717080D01*
X122044822Y-154716926D01*
X122049796Y-154722937D01*
X122049798Y-154722940D01*
X122069254Y-154741210D01*
X122102243Y-154772190D01*
X122123967Y-154793913D01*
X122129757Y-154798405D01*
X122134197Y-154802197D01*
X122163498Y-154829711D01*
X122169607Y-154835448D01*
X122169609Y-154835449D01*
X122188205Y-154845672D01*
X122204470Y-154856357D01*
X122221232Y-154869360D01*
X122221235Y-154869361D01*
X122221236Y-154869362D01*
X122265823Y-154888656D01*
X122271059Y-154891221D01*
X122313632Y-154914627D01*
X122329340Y-154918659D01*
X122334186Y-154919904D01*
X122352598Y-154926207D01*
X122372073Y-154934635D01*
X122420071Y-154942237D01*
X122425740Y-154943411D01*
X122472823Y-154955500D01*
X122494051Y-154955500D01*
X122513448Y-154957026D01*
X122534403Y-154960345D01*
X122534404Y-154960346D01*
X122534404Y-154960345D01*
X122534405Y-154960346D01*
X122582761Y-154955775D01*
X122588599Y-154955500D01*
X124377823Y-154955500D01*
X129454495Y-154955500D01*
X129470505Y-154957267D01*
X129470528Y-154957026D01*
X129478289Y-154957758D01*
X129478296Y-154957760D01*
X129550203Y-154955500D01*
X129580925Y-154955500D01*
X129588190Y-154954581D01*
X129594016Y-154954122D01*
X129642569Y-154952597D01*
X129662956Y-154946673D01*
X129681996Y-154942731D01*
X129703058Y-154940071D01*
X129748235Y-154922183D01*
X129753735Y-154920300D01*
X129800398Y-154906744D01*
X129818665Y-154895939D01*
X129836136Y-154887380D01*
X129855871Y-154879568D01*
X129895177Y-154851010D01*
X129900043Y-154847813D01*
X129941865Y-154823081D01*
X129956870Y-154808075D01*
X129971668Y-154795436D01*
X129988837Y-154782963D01*
X130019809Y-154745522D01*
X130023723Y-154741221D01*
X130574513Y-154190431D01*
X130587079Y-154180365D01*
X130586925Y-154180178D01*
X130592937Y-154175204D01*
X130592937Y-154175203D01*
X130592940Y-154175202D01*
X130642190Y-154122755D01*
X130663912Y-154101034D01*
X130668402Y-154095244D01*
X130672184Y-154090814D01*
X130705448Y-154055393D01*
X130715674Y-154036789D01*
X130726347Y-154020541D01*
X130739363Y-154003763D01*
X130758652Y-153959187D01*
X130761224Y-153953936D01*
X130768800Y-153940156D01*
X130784627Y-153911368D01*
X130789904Y-153890808D01*
X130796206Y-153872403D01*
X130804636Y-153852926D01*
X130812235Y-153804945D01*
X130813417Y-153799234D01*
X130825500Y-153752177D01*
X130825500Y-153730955D01*
X130827027Y-153711555D01*
X130827991Y-153705468D01*
X130830347Y-153690595D01*
X130825775Y-153642227D01*
X130825500Y-153636389D01*
X130825500Y-153596682D01*
X130845185Y-153529643D01*
X130878371Y-153495111D01*
X131014139Y-153400047D01*
X131175047Y-153239139D01*
X131305568Y-153052734D01*
X131332618Y-152994724D01*
X131378790Y-152942285D01*
X131445983Y-152923133D01*
X131512865Y-152943348D01*
X131557381Y-152994724D01*
X131560655Y-153001744D01*
X131584429Y-153052728D01*
X131584432Y-153052734D01*
X131714954Y-153239141D01*
X131875858Y-153400045D01*
X131875861Y-153400047D01*
X132062266Y-153530568D01*
X132268504Y-153626739D01*
X132488308Y-153685635D01*
X132650230Y-153699801D01*
X132714998Y-153705468D01*
X132715000Y-153705468D01*
X132715002Y-153705468D01*
X132771673Y-153700509D01*
X132941692Y-153685635D01*
X133161496Y-153626739D01*
X133367734Y-153530568D01*
X133554139Y-153400047D01*
X133715047Y-153239139D01*
X133810108Y-153103377D01*
X133864685Y-153059752D01*
X133911683Y-153050500D01*
X134534495Y-153050500D01*
X134550505Y-153052267D01*
X134550528Y-153052026D01*
X134558289Y-153052758D01*
X134558296Y-153052760D01*
X134630203Y-153050500D01*
X134660925Y-153050500D01*
X134668190Y-153049581D01*
X134674016Y-153049122D01*
X134722569Y-153047597D01*
X134742956Y-153041673D01*
X134761996Y-153037731D01*
X134783058Y-153035071D01*
X134828235Y-153017183D01*
X134833735Y-153015300D01*
X134880398Y-153001744D01*
X134898665Y-152990939D01*
X134916136Y-152982380D01*
X134935871Y-152974568D01*
X134975177Y-152946010D01*
X134980043Y-152942813D01*
X135021865Y-152918081D01*
X135036870Y-152903075D01*
X135051668Y-152890436D01*
X135068837Y-152877963D01*
X135099809Y-152840522D01*
X135103723Y-152836221D01*
X136289513Y-151650431D01*
X136302079Y-151640365D01*
X136301925Y-151640178D01*
X136307937Y-151635204D01*
X136307937Y-151635203D01*
X136307940Y-151635202D01*
X136357190Y-151582755D01*
X136378911Y-151561035D01*
X136383401Y-151555245D01*
X136387183Y-151550815D01*
X136420448Y-151515393D01*
X136430674Y-151496790D01*
X136441353Y-151480533D01*
X136454362Y-151463764D01*
X136473656Y-151419175D01*
X136476212Y-151413956D01*
X136499627Y-151371368D01*
X136504905Y-151350806D01*
X136511207Y-151332399D01*
X136519635Y-151312927D01*
X136527233Y-151264953D01*
X136528414Y-151259247D01*
X136540500Y-151212177D01*
X136540500Y-151190949D01*
X136542027Y-151171549D01*
X136543777Y-151160499D01*
X136545346Y-151150595D01*
X136540775Y-151102238D01*
X136540500Y-151096400D01*
X136540500Y-110489997D01*
X140399357Y-110489997D01*
X140419884Y-110711535D01*
X140419885Y-110711537D01*
X140480769Y-110925523D01*
X140480775Y-110925538D01*
X140579938Y-111124683D01*
X140579943Y-111124691D01*
X140714020Y-111302238D01*
X140878437Y-111452123D01*
X140878439Y-111452125D01*
X141067595Y-111569245D01*
X141067596Y-111569245D01*
X141067599Y-111569247D01*
X141275060Y-111649618D01*
X141493757Y-111690500D01*
X141493759Y-111690500D01*
X141716241Y-111690500D01*
X141716243Y-111690500D01*
X141934940Y-111649618D01*
X142142401Y-111569247D01*
X142331562Y-111452124D01*
X142495981Y-111302236D01*
X142630058Y-111124689D01*
X142729229Y-110925528D01*
X142790115Y-110711536D01*
X142810643Y-110490000D01*
X142790115Y-110268464D01*
X142729229Y-110054472D01*
X142729224Y-110054461D01*
X142630061Y-109855316D01*
X142630056Y-109855308D01*
X142495979Y-109677761D01*
X142331562Y-109527876D01*
X142331560Y-109527874D01*
X142142404Y-109410754D01*
X142142398Y-109410752D01*
X141934940Y-109330382D01*
X141716243Y-109289500D01*
X141493757Y-109289500D01*
X141275060Y-109330382D01*
X141143864Y-109381207D01*
X141067601Y-109410752D01*
X141067595Y-109410754D01*
X140878439Y-109527874D01*
X140878437Y-109527876D01*
X140714020Y-109677761D01*
X140579943Y-109855308D01*
X140579938Y-109855316D01*
X140480775Y-110054461D01*
X140480769Y-110054476D01*
X140419885Y-110268462D01*
X140419884Y-110268464D01*
X140399357Y-110489997D01*
X136540500Y-110489997D01*
X136540500Y-102936807D01*
X136560185Y-102869768D01*
X136576815Y-102849130D01*
X137305513Y-102120431D01*
X137318079Y-102110365D01*
X137317925Y-102110178D01*
X137323937Y-102105204D01*
X137323937Y-102105203D01*
X137323940Y-102105202D01*
X137373190Y-102052755D01*
X137394911Y-102031035D01*
X137399401Y-102025245D01*
X137403183Y-102020815D01*
X137436448Y-101985393D01*
X137446674Y-101966790D01*
X137457348Y-101950539D01*
X137470362Y-101933764D01*
X137470362Y-101933762D01*
X137472525Y-101930975D01*
X137529171Y-101890071D01*
X137598938Y-101886286D01*
X137659676Y-101920821D01*
X137692102Y-101982710D01*
X137694500Y-102006981D01*
X137694500Y-105442655D01*
X137695397Y-105445416D01*
X137707802Y-105469761D01*
X137711219Y-105474463D01*
X137730539Y-105493783D01*
X137735242Y-105497200D01*
X137759581Y-105509601D01*
X137762345Y-105510499D01*
X137762346Y-105510500D01*
X137779083Y-105510500D01*
X144656000Y-105510500D01*
X144723039Y-105530185D01*
X144768794Y-105582989D01*
X144780000Y-105634500D01*
X144780000Y-158525500D01*
X144760315Y-158592539D01*
X144707511Y-158638294D01*
X144656000Y-158649500D01*
X119604500Y-158649500D01*
X119537461Y-158629815D01*
X119491706Y-158577011D01*
X119480500Y-158525500D01*
X119480500Y-155575000D01*
X140399357Y-155575000D01*
X140419884Y-155796535D01*
X140419885Y-155796537D01*
X140480769Y-156010523D01*
X140480775Y-156010538D01*
X140579938Y-156209683D01*
X140579943Y-156209691D01*
X140714020Y-156387238D01*
X140878437Y-156537123D01*
X140878439Y-156537125D01*
X141067595Y-156654245D01*
X141067596Y-156654245D01*
X141067599Y-156654247D01*
X141275060Y-156734618D01*
X141493757Y-156775500D01*
X141493759Y-156775500D01*
X141716241Y-156775500D01*
X141716243Y-156775500D01*
X141934940Y-156734618D01*
X142142401Y-156654247D01*
X142331562Y-156537124D01*
X142495981Y-156387236D01*
X142630058Y-156209689D01*
X142729229Y-156010528D01*
X142790115Y-155796536D01*
X142810643Y-155575000D01*
X142790115Y-155353464D01*
X142729229Y-155139472D01*
X142703040Y-155086877D01*
X142630061Y-154940316D01*
X142630056Y-154940308D01*
X142495979Y-154762761D01*
X142331562Y-154612876D01*
X142331560Y-154612874D01*
X142142404Y-154495754D01*
X142142398Y-154495752D01*
X141934940Y-154415382D01*
X141716243Y-154374500D01*
X141493757Y-154374500D01*
X141275060Y-154415382D01*
X141143864Y-154466207D01*
X141067601Y-154495752D01*
X141067595Y-154495754D01*
X140878439Y-154612874D01*
X140878437Y-154612876D01*
X140714020Y-154762761D01*
X140579943Y-154940308D01*
X140579938Y-154940316D01*
X140480775Y-155139461D01*
X140480769Y-155139476D01*
X140419885Y-155353462D01*
X140419884Y-155353464D01*
X140399357Y-155574999D01*
X140399357Y-155575000D01*
X119480500Y-155575000D01*
X119480500Y-148687347D01*
X119479601Y-148684581D01*
X119467200Y-148660242D01*
X119463783Y-148655539D01*
X119444463Y-148636219D01*
X119439758Y-148632799D01*
X119410276Y-148617773D01*
X119408983Y-148616833D01*
X119394217Y-148604217D01*
X119380000Y-148590000D01*
X108709000Y-148590000D01*
X108641961Y-148570315D01*
X108596206Y-148517511D01*
X108585000Y-148466000D01*
X108585000Y-146765300D01*
X108604685Y-146698261D01*
X108657489Y-146652506D01*
X108700154Y-146641616D01*
X108856090Y-146630463D01*
X108856097Y-146630462D01*
X109121654Y-146572694D01*
X109376306Y-146477714D01*
X109376310Y-146477712D01*
X109614835Y-146347467D01*
X109614843Y-146347462D01*
X109780562Y-146223406D01*
X109780563Y-146223405D01*
X108844220Y-145287062D01*
X108887588Y-145269099D01*
X109012925Y-145172925D01*
X109109099Y-145047589D01*
X109127062Y-145004220D01*
X110063405Y-145940563D01*
X110063406Y-145940562D01*
X110187462Y-145774843D01*
X110187467Y-145774835D01*
X110317712Y-145536310D01*
X110317714Y-145536306D01*
X110412694Y-145281654D01*
X110470462Y-145016097D01*
X110470463Y-145016090D01*
X110489853Y-144745001D01*
X110489853Y-144744998D01*
X110470463Y-144473909D01*
X110470462Y-144473902D01*
X110412694Y-144208345D01*
X110317714Y-143953693D01*
X110317712Y-143953689D01*
X110187467Y-143715164D01*
X110187462Y-143715156D01*
X110063406Y-143549436D01*
X110063405Y-143549435D01*
X109127062Y-144485779D01*
X109109099Y-144442412D01*
X109012925Y-144317075D01*
X108887588Y-144220901D01*
X108844219Y-144202937D01*
X109780563Y-143266592D01*
X109614843Y-143142537D01*
X109614835Y-143142532D01*
X109612782Y-143141411D01*
X109612227Y-143140855D01*
X109611110Y-143140138D01*
X109611266Y-143139894D01*
X109563381Y-143092001D01*
X109548536Y-143023727D01*
X109566790Y-142967309D01*
X109641772Y-142846210D01*
X109720470Y-142643069D01*
X109760500Y-142428926D01*
X109760500Y-142211074D01*
X109720470Y-141996931D01*
X109641772Y-141793790D01*
X109527088Y-141608568D01*
X109380322Y-141447573D01*
X109206472Y-141316288D01*
X109011462Y-141219184D01*
X109011459Y-141219183D01*
X108801923Y-141159565D01*
X108801920Y-141159564D01*
X108801918Y-141159564D01*
X108697558Y-141149894D01*
X108632621Y-141124108D01*
X108591934Y-141067307D01*
X108585000Y-141026423D01*
X108585000Y-140345000D01*
X112729976Y-140345000D01*
X112750047Y-140638436D01*
X112809890Y-140926421D01*
X112809891Y-140926424D01*
X112908386Y-141203560D01*
X112908385Y-141203560D01*
X113043706Y-141464717D01*
X113043710Y-141464723D01*
X113213322Y-141705008D01*
X113227242Y-141719912D01*
X113227244Y-141719913D01*
X114342937Y-140604219D01*
X114360901Y-140647588D01*
X114457075Y-140772925D01*
X114582412Y-140869099D01*
X114625780Y-140887062D01*
X113512667Y-142000174D01*
X113642243Y-142105592D01*
X113893550Y-142258415D01*
X114163322Y-142375593D01*
X114446541Y-142454948D01*
X114446547Y-142454949D01*
X114737935Y-142495000D01*
X115032065Y-142495000D01*
X115323452Y-142454949D01*
X115323458Y-142454948D01*
X115606677Y-142375593D01*
X115876449Y-142258415D01*
X116127753Y-142105594D01*
X116127768Y-142105584D01*
X116257330Y-142000173D01*
X115144219Y-140887062D01*
X115187588Y-140869099D01*
X115312925Y-140772925D01*
X115409099Y-140647589D01*
X115427062Y-140604219D01*
X116542755Y-141719913D01*
X116542756Y-141719912D01*
X116556667Y-141705019D01*
X116556674Y-141705011D01*
X116726293Y-141464716D01*
X116861613Y-141203560D01*
X116960108Y-140926424D01*
X116960109Y-140926421D01*
X117019952Y-140638436D01*
X117040023Y-140345000D01*
X117019952Y-140051563D01*
X116960109Y-139763578D01*
X116960108Y-139763575D01*
X116861613Y-139486439D01*
X116861614Y-139486439D01*
X116726293Y-139225282D01*
X116726289Y-139225276D01*
X116556677Y-138984991D01*
X116542756Y-138970086D01*
X116542755Y-138970086D01*
X115427062Y-140085779D01*
X115409099Y-140042412D01*
X115312925Y-139917075D01*
X115187588Y-139820901D01*
X115144220Y-139802937D01*
X116257331Y-138689825D01*
X116127756Y-138584407D01*
X115876449Y-138431584D01*
X115606677Y-138314406D01*
X115323458Y-138235051D01*
X115323452Y-138235050D01*
X115032065Y-138195000D01*
X114737935Y-138195000D01*
X114446547Y-138235050D01*
X114446541Y-138235051D01*
X114163322Y-138314406D01*
X113893550Y-138431584D01*
X113642243Y-138584407D01*
X113512667Y-138689825D01*
X114625780Y-139802937D01*
X114582412Y-139820901D01*
X114457075Y-139917075D01*
X114360901Y-140042411D01*
X114342937Y-140085779D01*
X113227243Y-138970086D01*
X113227242Y-138970086D01*
X113213329Y-138984983D01*
X113213314Y-138985001D01*
X113043710Y-139225276D01*
X113043706Y-139225282D01*
X112908386Y-139486439D01*
X112809891Y-139763575D01*
X112809890Y-139763578D01*
X112750047Y-140051563D01*
X112729976Y-140345000D01*
X108585000Y-140345000D01*
X108585000Y-139938999D01*
X108604685Y-139871960D01*
X108657489Y-139826205D01*
X108709000Y-139814999D01*
X109020000Y-139814999D01*
X109020000Y-138965000D01*
X109420000Y-138965000D01*
X109420000Y-139814999D01*
X110001479Y-139814999D01*
X110095149Y-139800164D01*
X110095155Y-139800162D01*
X110208041Y-139742643D01*
X110208050Y-139742636D01*
X110297636Y-139653050D01*
X110297639Y-139653046D01*
X110355166Y-139540144D01*
X110370000Y-139446486D01*
X110370000Y-139265000D01*
X110960001Y-139265000D01*
X110960001Y-139496479D01*
X110974835Y-139590149D01*
X110974837Y-139590155D01*
X111032356Y-139703041D01*
X111032363Y-139703050D01*
X111121949Y-139792636D01*
X111121953Y-139792639D01*
X111234855Y-139850166D01*
X111328514Y-139864999D01*
X111559999Y-139864999D01*
X111560000Y-139864998D01*
X111560000Y-139265000D01*
X111960000Y-139265000D01*
X111960000Y-139864999D01*
X112191479Y-139864999D01*
X112285149Y-139850164D01*
X112285155Y-139850162D01*
X112398041Y-139792643D01*
X112398050Y-139792636D01*
X112487636Y-139703050D01*
X112487639Y-139703046D01*
X112545166Y-139590144D01*
X112560000Y-139496486D01*
X112560000Y-139265000D01*
X111960000Y-139265000D01*
X111560000Y-139265000D01*
X110960001Y-139265000D01*
X110370000Y-139265000D01*
X110370000Y-138965000D01*
X109420000Y-138965000D01*
X109020000Y-138965000D01*
X109020000Y-138865000D01*
X110960000Y-138865000D01*
X111560000Y-138865000D01*
X111560000Y-138265000D01*
X111960000Y-138265000D01*
X111960000Y-138865000D01*
X112559999Y-138865000D01*
X112559999Y-138633520D01*
X112545164Y-138539850D01*
X112545162Y-138539844D01*
X112487643Y-138426958D01*
X112487636Y-138426949D01*
X112398050Y-138337363D01*
X112398046Y-138337360D01*
X112285144Y-138279833D01*
X112191486Y-138265000D01*
X111960000Y-138265000D01*
X111560000Y-138265000D01*
X111328520Y-138265000D01*
X111234849Y-138279835D01*
X111234844Y-138279837D01*
X111121958Y-138337356D01*
X111121949Y-138337363D01*
X111032363Y-138426949D01*
X111032360Y-138426953D01*
X110974833Y-138539855D01*
X110960000Y-138633513D01*
X110960000Y-138865000D01*
X109020000Y-138865000D01*
X109020000Y-138689000D01*
X109039685Y-138621961D01*
X109092489Y-138576206D01*
X109144000Y-138565000D01*
X110369999Y-138565000D01*
X110369999Y-138083520D01*
X110355164Y-137989850D01*
X110355162Y-137989844D01*
X110297643Y-137876958D01*
X110291902Y-137869056D01*
X110294899Y-137866878D01*
X110270235Y-137821710D01*
X110275219Y-137752018D01*
X110294154Y-137722580D01*
X110292311Y-137721241D01*
X110298042Y-137713349D01*
X110298050Y-137713342D01*
X110355646Y-137600304D01*
X110355646Y-137600302D01*
X110355647Y-137600301D01*
X110370499Y-137506524D01*
X110370500Y-137506519D01*
X110370499Y-136143482D01*
X110355646Y-136049696D01*
X110355645Y-136049694D01*
X110354119Y-136040057D01*
X110357762Y-136039479D01*
X110356288Y-135987986D01*
X110392364Y-135928150D01*
X110455062Y-135897318D01*
X110476216Y-135895500D01*
X110845671Y-135895500D01*
X110912710Y-135915185D01*
X110958465Y-135967989D01*
X110968409Y-136037147D01*
X110968144Y-136038897D01*
X110959500Y-136093474D01*
X110959500Y-136956517D01*
X110969293Y-137018348D01*
X110974354Y-137050304D01*
X111031950Y-137163342D01*
X111031952Y-137163344D01*
X111031954Y-137163347D01*
X111121652Y-137253045D01*
X111121654Y-137253046D01*
X111121658Y-137253050D01*
X111234694Y-137310645D01*
X111234698Y-137310647D01*
X111328475Y-137325499D01*
X111328481Y-137325500D01*
X112191518Y-137325499D01*
X112285304Y-137310646D01*
X112398342Y-137253050D01*
X112488050Y-137163342D01*
X112545646Y-137050304D01*
X112545646Y-137050302D01*
X112545647Y-137050301D01*
X112560499Y-136956524D01*
X112560500Y-136956519D01*
X112560499Y-136093482D01*
X112551854Y-136038895D01*
X112560810Y-135969603D01*
X112605807Y-135916152D01*
X112672558Y-135895513D01*
X112674328Y-135895500D01*
X112746382Y-135895500D01*
X112813421Y-135915185D01*
X112859176Y-135967989D01*
X112863222Y-135977975D01*
X112907922Y-136103751D01*
X112907925Y-136103757D01*
X112907926Y-136103760D01*
X112907928Y-136103764D01*
X112982040Y-136246793D01*
X113043278Y-136364977D01*
X113043282Y-136364983D01*
X113212932Y-136605323D01*
X113413743Y-136820338D01*
X113518662Y-136905696D01*
X113641951Y-137005999D01*
X113641953Y-137006000D01*
X113641954Y-137006001D01*
X113893319Y-137158860D01*
X113893324Y-137158862D01*
X114110168Y-137253050D01*
X114163159Y-137276067D01*
X114446445Y-137355440D01*
X114702681Y-137390659D01*
X114737901Y-137395500D01*
X114737902Y-137395500D01*
X115032099Y-137395500D01*
X115063520Y-137391180D01*
X115323555Y-137355440D01*
X115606841Y-137276067D01*
X115876682Y-137158859D01*
X116128049Y-137005999D01*
X116356260Y-136820335D01*
X116557065Y-136605326D01*
X116726722Y-136364976D01*
X116862072Y-136103764D01*
X116960592Y-135826554D01*
X116960592Y-135826549D01*
X116960595Y-135826543D01*
X117003618Y-135619500D01*
X117020448Y-135538511D01*
X117040525Y-135245000D01*
X117020448Y-134951489D01*
X116989897Y-134804470D01*
X116960595Y-134663456D01*
X116960590Y-134663440D01*
X116875851Y-134425007D01*
X116862072Y-134386236D01*
X116726722Y-134125024D01*
X116726721Y-134125022D01*
X116726717Y-134125016D01*
X116557067Y-133884676D01*
X116356256Y-133669661D01*
X116128045Y-133483998D01*
X115876680Y-133331139D01*
X115660098Y-133237065D01*
X115606451Y-133192302D01*
X115585522Y-133125641D01*
X115585500Y-133123331D01*
X115585500Y-116799076D01*
X115585499Y-116799065D01*
X115577336Y-116734454D01*
X115570071Y-116676942D01*
X115569204Y-116674754D01*
X115568328Y-116670158D01*
X115568130Y-116669386D01*
X115568178Y-116669373D01*
X115560500Y-116629114D01*
X115560500Y-94594403D01*
X116184653Y-94594403D01*
X116189225Y-94642767D01*
X116189500Y-94648606D01*
X116189500Y-131359494D01*
X116187732Y-131375505D01*
X116187974Y-131375528D01*
X116187240Y-131383294D01*
X116189500Y-131455203D01*
X116189500Y-131485920D01*
X116189501Y-131485940D01*
X116190418Y-131493206D01*
X116190876Y-131499024D01*
X116192402Y-131547567D01*
X116192403Y-131547570D01*
X116198323Y-131567948D01*
X116202268Y-131586996D01*
X116204928Y-131608054D01*
X116204931Y-131608064D01*
X116222813Y-131653230D01*
X116224705Y-131658758D01*
X116238254Y-131705395D01*
X116238255Y-131705397D01*
X116249060Y-131723666D01*
X116257617Y-131741134D01*
X116263226Y-131755300D01*
X116265432Y-131760872D01*
X116293983Y-131800170D01*
X116297188Y-131805049D01*
X116321919Y-131846865D01*
X116321923Y-131846869D01*
X116336925Y-131861871D01*
X116349563Y-131876669D01*
X116362033Y-131893833D01*
X116362036Y-131893836D01*
X116362037Y-131893837D01*
X116399476Y-131924809D01*
X116403776Y-131928722D01*
X116915506Y-132440452D01*
X117423181Y-132948127D01*
X117456666Y-133009450D01*
X117459500Y-133035808D01*
X117459500Y-139614494D01*
X117457732Y-139630505D01*
X117457974Y-139630528D01*
X117457240Y-139638294D01*
X117459500Y-139710203D01*
X117459500Y-139740920D01*
X117459501Y-139740940D01*
X117460418Y-139748206D01*
X117460876Y-139754024D01*
X117462402Y-139802567D01*
X117462403Y-139802570D01*
X117468323Y-139822948D01*
X117472268Y-139841996D01*
X117474928Y-139863054D01*
X117474931Y-139863064D01*
X117492813Y-139908230D01*
X117494705Y-139913758D01*
X117508254Y-139960395D01*
X117508255Y-139960397D01*
X117519060Y-139978666D01*
X117527617Y-139996134D01*
X117533226Y-140010300D01*
X117535432Y-140015872D01*
X117563983Y-140055170D01*
X117567188Y-140060049D01*
X117591919Y-140101865D01*
X117591923Y-140101869D01*
X117606925Y-140116871D01*
X117619563Y-140131669D01*
X117632033Y-140148833D01*
X117632036Y-140148836D01*
X117632037Y-140148837D01*
X117669476Y-140179809D01*
X117673776Y-140183722D01*
X119098620Y-141608566D01*
X120463277Y-142973223D01*
X120496762Y-143034546D01*
X120498815Y-143047012D01*
X120499630Y-143054246D01*
X120499632Y-143054255D01*
X120559210Y-143224521D01*
X120621536Y-143323712D01*
X120655184Y-143377262D01*
X120782738Y-143504816D01*
X120935478Y-143600789D01*
X121105745Y-143660368D01*
X121105750Y-143660369D01*
X121284996Y-143680565D01*
X121285000Y-143680565D01*
X121285004Y-143680565D01*
X121464249Y-143660369D01*
X121464252Y-143660368D01*
X121464255Y-143660368D01*
X121634522Y-143600789D01*
X121787262Y-143504816D01*
X121914816Y-143377262D01*
X122010789Y-143224522D01*
X122070368Y-143054255D01*
X122083959Y-142933632D01*
X122090565Y-142875003D01*
X122090565Y-142874996D01*
X122070369Y-142695750D01*
X122070368Y-142695745D01*
X122010788Y-142525476D01*
X121950120Y-142428924D01*
X121914816Y-142372738D01*
X121787262Y-142245184D01*
X121732978Y-142211075D01*
X121634521Y-142149210D01*
X121464255Y-142089632D01*
X121464246Y-142089630D01*
X121457012Y-142088815D01*
X121392600Y-142061744D01*
X121383223Y-142053277D01*
X118796819Y-139466873D01*
X118763334Y-139405550D01*
X118760500Y-139379192D01*
X118760500Y-132800501D01*
X118762268Y-132784488D01*
X118762026Y-132784466D01*
X118762758Y-132776710D01*
X118762760Y-132776703D01*
X118760500Y-132704795D01*
X118760500Y-132674075D01*
X118759579Y-132666788D01*
X118759122Y-132660979D01*
X118757597Y-132612430D01*
X118751676Y-132592052D01*
X118747731Y-132573003D01*
X118745071Y-132551942D01*
X118727186Y-132506772D01*
X118725297Y-132501252D01*
X118711743Y-132454599D01*
X118700941Y-132436335D01*
X118692379Y-132418858D01*
X118691351Y-132416262D01*
X118684568Y-132399129D01*
X118656014Y-132359828D01*
X118652810Y-132354950D01*
X118651521Y-132352771D01*
X118628081Y-132313135D01*
X118613075Y-132298129D01*
X118600435Y-132283330D01*
X118587961Y-132266160D01*
X118550528Y-132235194D01*
X118546206Y-132231260D01*
X117526819Y-131211873D01*
X117493334Y-131150550D01*
X117490500Y-131124192D01*
X117490500Y-128588361D01*
X117510185Y-128521322D01*
X117562989Y-128475567D01*
X117632147Y-128465623D01*
X117695703Y-128494648D01*
X117702181Y-128500680D01*
X126698181Y-137496680D01*
X126731666Y-137558003D01*
X126734500Y-137584361D01*
X126734500Y-141017192D01*
X126749326Y-141158256D01*
X126749327Y-141158259D01*
X126807818Y-141338277D01*
X126807821Y-141338284D01*
X126902467Y-141502216D01*
X126998225Y-141608566D01*
X127029129Y-141642888D01*
X127182265Y-141754148D01*
X127182270Y-141754151D01*
X127355192Y-141831142D01*
X127355197Y-141831144D01*
X127540354Y-141870500D01*
X127540355Y-141870500D01*
X127729644Y-141870500D01*
X127729646Y-141870500D01*
X127914803Y-141831144D01*
X128087730Y-141754151D01*
X128240871Y-141642888D01*
X128367533Y-141502216D01*
X128462179Y-141338284D01*
X128520674Y-141158256D01*
X128535500Y-141017192D01*
X128535500Y-137240626D01*
X128537027Y-137221225D01*
X128539219Y-137207388D01*
X128535584Y-137138040D01*
X128535500Y-137134797D01*
X128535500Y-137112809D01*
X128535499Y-137112800D01*
X128533201Y-137090936D01*
X128532947Y-137087720D01*
X128529313Y-137018355D01*
X128525685Y-137004814D01*
X128522139Y-136985688D01*
X128520674Y-136971744D01*
X128499209Y-136905682D01*
X128498296Y-136902601D01*
X128480320Y-136835512D01*
X128473956Y-136823022D01*
X128466511Y-136805050D01*
X128462179Y-136791716D01*
X128427453Y-136731569D01*
X128425903Y-136728714D01*
X128394383Y-136666851D01*
X128385557Y-136655952D01*
X128374540Y-136639920D01*
X128372065Y-136635633D01*
X128367533Y-136627784D01*
X128341514Y-136598887D01*
X128321058Y-136576168D01*
X128318964Y-136573716D01*
X128305120Y-136556620D01*
X128289568Y-136541068D01*
X128287348Y-136538730D01*
X128240871Y-136487112D01*
X128240869Y-136487110D01*
X128229529Y-136478871D01*
X128214736Y-136466236D01*
X121253380Y-129504881D01*
X119046819Y-127298320D01*
X119013334Y-127236997D01*
X119010500Y-127210639D01*
X119010500Y-112982811D01*
X119010500Y-112982808D01*
X118995674Y-112841744D01*
X118937179Y-112661716D01*
X118842533Y-112497784D01*
X118715871Y-112357112D01*
X118715870Y-112357111D01*
X118562734Y-112245851D01*
X118562729Y-112245848D01*
X118389807Y-112168857D01*
X118389802Y-112168855D01*
X118244001Y-112137865D01*
X118204646Y-112129500D01*
X118015354Y-112129500D01*
X117982897Y-112136398D01*
X117830197Y-112168855D01*
X117830192Y-112168857D01*
X117664936Y-112242435D01*
X117595686Y-112251720D01*
X117532409Y-112222092D01*
X117495196Y-112162957D01*
X117490500Y-112129156D01*
X117490500Y-94935807D01*
X117510185Y-94868768D01*
X117526814Y-94848131D01*
X120119188Y-92255756D01*
X120165913Y-92226397D01*
X120168853Y-92225368D01*
X120168855Y-92225368D01*
X120339122Y-92165789D01*
X120491862Y-92069816D01*
X120619416Y-91942262D01*
X120715389Y-91789522D01*
X120774968Y-91619255D01*
X120774969Y-91619249D01*
X120795165Y-91440003D01*
X120795165Y-91439996D01*
X120774969Y-91260750D01*
X120774968Y-91260745D01*
X120766575Y-91236759D01*
X120715389Y-91090478D01*
X120702157Y-91069420D01*
X120630856Y-90955945D01*
X120619416Y-90937738D01*
X120491862Y-90810184D01*
X120439986Y-90777588D01*
X120339123Y-90714211D01*
X120168854Y-90654631D01*
X120168849Y-90654630D01*
X119989604Y-90634435D01*
X119989596Y-90634435D01*
X119810350Y-90654630D01*
X119810345Y-90654631D01*
X119640076Y-90714211D01*
X119487337Y-90810184D01*
X119359784Y-90937737D01*
X119263810Y-91090478D01*
X119204232Y-91260745D01*
X119200191Y-91296606D01*
X119173123Y-91361019D01*
X119164652Y-91370400D01*
X116440483Y-94094569D01*
X116427910Y-94104643D01*
X116428065Y-94104830D01*
X116422059Y-94109798D01*
X116402743Y-94130368D01*
X116372809Y-94162244D01*
X116361949Y-94173104D01*
X116351088Y-94183965D01*
X116351078Y-94183977D01*
X116346587Y-94189765D01*
X116342801Y-94194197D01*
X116309552Y-94229606D01*
X116299322Y-94248213D01*
X116288646Y-94264464D01*
X116275640Y-94281232D01*
X116275636Y-94281238D01*
X116256348Y-94325811D01*
X116253777Y-94331058D01*
X116230372Y-94373630D01*
X116230372Y-94373631D01*
X116225091Y-94394199D01*
X116218791Y-94412601D01*
X116210364Y-94432073D01*
X116202766Y-94480047D01*
X116201581Y-94485770D01*
X116189500Y-94532818D01*
X116189500Y-94554044D01*
X116187973Y-94573444D01*
X116184653Y-94594403D01*
X115560500Y-94594403D01*
X115560500Y-91750452D01*
X115580185Y-91683413D01*
X115596819Y-91662771D01*
X118332772Y-88926819D01*
X118394095Y-88893334D01*
X118420453Y-88890500D01*
X123742257Y-88890500D01*
X123757877Y-88892224D01*
X123757904Y-88891939D01*
X123765660Y-88892671D01*
X123765667Y-88892673D01*
X123834814Y-88890500D01*
X123864350Y-88890500D01*
X123871228Y-88889630D01*
X123877041Y-88889172D01*
X123923627Y-88887709D01*
X123942869Y-88882117D01*
X123961912Y-88878174D01*
X123981792Y-88875664D01*
X124025122Y-88858507D01*
X124030646Y-88856617D01*
X124034396Y-88855527D01*
X124075390Y-88843618D01*
X124092629Y-88833422D01*
X124110103Y-88824862D01*
X124128727Y-88817488D01*
X124128727Y-88817487D01*
X124128732Y-88817486D01*
X124166449Y-88790082D01*
X124171305Y-88786892D01*
X124211420Y-88763170D01*
X124225589Y-88748999D01*
X124240372Y-88736373D01*
X124247623Y-88731106D01*
X124313429Y-88707632D01*
X124381482Y-88723461D01*
X124430173Y-88773570D01*
X124444500Y-88831430D01*
X124444500Y-88839044D01*
X124442973Y-88858444D01*
X124439653Y-88879403D01*
X124444225Y-88927767D01*
X124444500Y-88933606D01*
X124444500Y-93024191D01*
X124424815Y-93091230D01*
X124408181Y-93111872D01*
X123758626Y-93761426D01*
X123697303Y-93794911D01*
X123684830Y-93796965D01*
X123620350Y-93804230D01*
X123450078Y-93863810D01*
X123297337Y-93959784D01*
X123169784Y-94087337D01*
X123073811Y-94240076D01*
X123014231Y-94410345D01*
X123014230Y-94410350D01*
X122994035Y-94589596D01*
X122994035Y-94589603D01*
X123014230Y-94768849D01*
X123014231Y-94768854D01*
X123073811Y-94939123D01*
X123117486Y-95008631D01*
X123169784Y-95091862D01*
X123297338Y-95219416D01*
X123378789Y-95270595D01*
X123443011Y-95310949D01*
X123450078Y-95315389D01*
X123569344Y-95357122D01*
X123620345Y-95374968D01*
X123620350Y-95374969D01*
X123799596Y-95395165D01*
X123799600Y-95395165D01*
X123799604Y-95395165D01*
X123978849Y-95374969D01*
X123978852Y-95374968D01*
X123978855Y-95374968D01*
X124149122Y-95315389D01*
X124301862Y-95219416D01*
X124429416Y-95091862D01*
X124525389Y-94939122D01*
X124572325Y-94804983D01*
X124601683Y-94758261D01*
X125494513Y-93865431D01*
X125507079Y-93855365D01*
X125506925Y-93855178D01*
X125512937Y-93850204D01*
X125512937Y-93850203D01*
X125512940Y-93850202D01*
X125562190Y-93797755D01*
X125583911Y-93776035D01*
X125588401Y-93770245D01*
X125592183Y-93765815D01*
X125625448Y-93730393D01*
X125635674Y-93711790D01*
X125646353Y-93695533D01*
X125659362Y-93678764D01*
X125678656Y-93634175D01*
X125681212Y-93628956D01*
X125704627Y-93586368D01*
X125709905Y-93565806D01*
X125716207Y-93547399D01*
X125724635Y-93527927D01*
X125732233Y-93479953D01*
X125733414Y-93474247D01*
X125745500Y-93427177D01*
X125745500Y-93405949D01*
X125747027Y-93386549D01*
X125750346Y-93365595D01*
X125745775Y-93317238D01*
X125745500Y-93311400D01*
X125745500Y-89220807D01*
X125765185Y-89153768D01*
X125781814Y-89133131D01*
X127098224Y-87816720D01*
X127159545Y-87783237D01*
X127172019Y-87781183D01*
X127179255Y-87780368D01*
X127349522Y-87720789D01*
X127502262Y-87624816D01*
X127629816Y-87497262D01*
X127725789Y-87344522D01*
X127785368Y-87174255D01*
X127805565Y-86995000D01*
X127797734Y-86925500D01*
X127785369Y-86815750D01*
X127785368Y-86815745D01*
X127746720Y-86705295D01*
X127725789Y-86645478D01*
X127720755Y-86637467D01*
X127657776Y-86537236D01*
X127629816Y-86492738D01*
X127502262Y-86365184D01*
X127443689Y-86328380D01*
X127349523Y-86269211D01*
X127179254Y-86209631D01*
X127179250Y-86209630D01*
X127019189Y-86191596D01*
X126954775Y-86164529D01*
X126915220Y-86106934D01*
X126913083Y-86037097D01*
X126919267Y-86019141D01*
X126926181Y-86003162D01*
X126928743Y-85997933D01*
X126951197Y-85957092D01*
X126956180Y-85937680D01*
X126962481Y-85919280D01*
X126970437Y-85900896D01*
X126977729Y-85854852D01*
X126978906Y-85849171D01*
X126990500Y-85804019D01*
X126990500Y-85783983D01*
X126992027Y-85764582D01*
X126995160Y-85744804D01*
X126990775Y-85698415D01*
X126990500Y-85692577D01*
X126990500Y-85219803D01*
X127010185Y-85152764D01*
X127062989Y-85107009D01*
X127132147Y-85097065D01*
X127180470Y-85114808D01*
G37*
G04 #@! TD.AperFunction*
G04 #@! TA.AperFunction,Conductor*
G36*
X114200158Y-117289741D02*
G01*
X114257381Y-117329833D01*
X114283845Y-117394497D01*
X114284500Y-117407228D01*
X114284500Y-133085902D01*
X114264815Y-133152941D01*
X114212011Y-133198696D01*
X114193956Y-133205303D01*
X114163162Y-133213931D01*
X114163157Y-133213933D01*
X113893319Y-133331139D01*
X113641954Y-133483998D01*
X113413743Y-133669661D01*
X113212932Y-133884676D01*
X113043282Y-134125016D01*
X113043278Y-134125022D01*
X112907925Y-134386242D01*
X112907922Y-134386248D01*
X112863222Y-134512025D01*
X112822224Y-134568602D01*
X112757147Y-134594032D01*
X112746382Y-134594500D01*
X111810955Y-134594500D01*
X111791555Y-134592973D01*
X111770596Y-134589653D01*
X111770595Y-134589653D01*
X111746786Y-134591903D01*
X111722230Y-134594225D01*
X111716392Y-134594500D01*
X109950506Y-134594500D01*
X109934495Y-134592732D01*
X109934473Y-134592974D01*
X109926706Y-134592239D01*
X109854783Y-134594500D01*
X109824075Y-134594500D01*
X109824071Y-134594500D01*
X109824060Y-134594501D01*
X109816804Y-134595417D01*
X109810986Y-134595875D01*
X109762433Y-134597401D01*
X109747873Y-134601630D01*
X109742040Y-134603325D01*
X109722996Y-134607269D01*
X109701942Y-134609929D01*
X109701940Y-134609929D01*
X109656781Y-134627808D01*
X109651255Y-134629700D01*
X109604601Y-134643254D01*
X109586325Y-134654063D01*
X109568860Y-134662619D01*
X109549124Y-134670433D01*
X109509824Y-134698986D01*
X109504942Y-134702193D01*
X109463136Y-134726917D01*
X109448124Y-134741929D01*
X109433336Y-134754558D01*
X109416167Y-134767032D01*
X109416165Y-134767034D01*
X109385194Y-134804470D01*
X109381262Y-134808791D01*
X108820483Y-135369569D01*
X108807910Y-135379643D01*
X108808065Y-135379830D01*
X108802059Y-135384798D01*
X108777434Y-135411021D01*
X108752809Y-135437244D01*
X108741949Y-135448104D01*
X108731088Y-135458965D01*
X108731078Y-135458977D01*
X108726587Y-135464765D01*
X108722801Y-135469197D01*
X108689552Y-135504606D01*
X108679322Y-135523213D01*
X108668646Y-135539464D01*
X108655640Y-135556232D01*
X108655636Y-135556238D01*
X108636348Y-135600811D01*
X108633777Y-135606058D01*
X108610372Y-135648630D01*
X108610372Y-135648631D01*
X108605091Y-135669199D01*
X108598789Y-135687605D01*
X108593534Y-135699748D01*
X108548843Y-135753456D01*
X108482210Y-135774475D01*
X108479736Y-135774500D01*
X108438483Y-135774500D01*
X108359550Y-135787001D01*
X108344696Y-135789354D01*
X108231658Y-135846950D01*
X108231657Y-135846951D01*
X108231652Y-135846954D01*
X108141954Y-135936652D01*
X108141951Y-135936657D01*
X108084352Y-136049698D01*
X108069500Y-136143475D01*
X108069500Y-137506517D01*
X108077655Y-137558003D01*
X108084354Y-137600304D01*
X108141950Y-137713342D01*
X108141953Y-137713345D01*
X108147689Y-137721241D01*
X108144819Y-137723325D01*
X108169753Y-137768945D01*
X108164797Y-137838638D01*
X108146170Y-137867655D01*
X108148098Y-137869056D01*
X108142360Y-137876953D01*
X108084833Y-137989855D01*
X108070000Y-138083513D01*
X108070000Y-138306000D01*
X108050315Y-138373039D01*
X107997511Y-138418794D01*
X107946000Y-138430000D01*
X103299822Y-138430000D01*
X103250420Y-138419734D01*
X103228735Y-138410315D01*
X103084864Y-138347823D01*
X103006842Y-138313933D01*
X102723560Y-138234561D01*
X102723556Y-138234560D01*
X102723555Y-138234560D01*
X102577826Y-138214530D01*
X102432099Y-138194500D01*
X102432098Y-138194500D01*
X102137902Y-138194500D01*
X102137901Y-138194500D01*
X101846445Y-138234560D01*
X101846439Y-138234561D01*
X101563157Y-138313933D01*
X101390164Y-138389075D01*
X101341265Y-138410315D01*
X101319580Y-138419734D01*
X101270178Y-138430000D01*
X98813567Y-138430000D01*
X98764165Y-138419734D01*
X98521677Y-138314406D01*
X98238458Y-138235051D01*
X98238452Y-138235050D01*
X97947065Y-138195000D01*
X97652935Y-138195000D01*
X97361547Y-138235050D01*
X97361541Y-138235051D01*
X97078322Y-138314406D01*
X96835835Y-138419734D01*
X96786433Y-138430000D01*
X95397048Y-138430000D01*
X95330009Y-138410315D01*
X95309366Y-138393681D01*
X95253046Y-138337360D01*
X95140144Y-138279833D01*
X95046486Y-138265000D01*
X94815000Y-138265000D01*
X94815000Y-138430000D01*
X94415000Y-138430000D01*
X94415000Y-138265000D01*
X94183520Y-138265000D01*
X94089849Y-138279835D01*
X94089844Y-138279837D01*
X93976958Y-138337356D01*
X93976953Y-138337360D01*
X93920634Y-138393681D01*
X93859311Y-138427166D01*
X93832952Y-138430000D01*
X93348999Y-138430000D01*
X93281960Y-138410315D01*
X93236205Y-138357511D01*
X93224999Y-138306000D01*
X93224999Y-138083520D01*
X93210164Y-137989850D01*
X93210162Y-137989844D01*
X93152643Y-137876958D01*
X93146902Y-137869056D01*
X93149899Y-137866878D01*
X93125235Y-137821710D01*
X93130219Y-137752018D01*
X93149154Y-137722580D01*
X93147311Y-137721241D01*
X93153042Y-137713349D01*
X93153050Y-137713342D01*
X93210646Y-137600304D01*
X93210646Y-137600302D01*
X93210647Y-137600301D01*
X93225499Y-137506524D01*
X93225500Y-137506519D01*
X93225499Y-136143482D01*
X93210646Y-136049696D01*
X93210645Y-136049694D01*
X93209119Y-136040057D01*
X93212762Y-136039479D01*
X93211288Y-135987986D01*
X93247364Y-135928150D01*
X93310062Y-135897318D01*
X93331216Y-135895500D01*
X93700671Y-135895500D01*
X93767710Y-135915185D01*
X93813465Y-135967989D01*
X93823409Y-136037147D01*
X93823144Y-136038897D01*
X93814500Y-136093474D01*
X93814500Y-136956517D01*
X93824293Y-137018348D01*
X93829354Y-137050304D01*
X93886950Y-137163342D01*
X93886952Y-137163344D01*
X93886954Y-137163347D01*
X93976652Y-137253045D01*
X93976654Y-137253046D01*
X93976658Y-137253050D01*
X94089694Y-137310645D01*
X94089698Y-137310647D01*
X94183475Y-137325499D01*
X94183481Y-137325500D01*
X95046518Y-137325499D01*
X95140304Y-137310646D01*
X95253342Y-137253050D01*
X95343050Y-137163342D01*
X95400646Y-137050304D01*
X95400646Y-137050302D01*
X95400647Y-137050301D01*
X95415499Y-136956524D01*
X95415500Y-136956519D01*
X95415499Y-136093482D01*
X95406854Y-136038895D01*
X95415810Y-135969603D01*
X95460807Y-135916152D01*
X95527558Y-135895513D01*
X95529328Y-135895500D01*
X95661382Y-135895500D01*
X95728421Y-135915185D01*
X95774176Y-135967989D01*
X95778222Y-135977975D01*
X95822922Y-136103751D01*
X95822925Y-136103757D01*
X95822926Y-136103760D01*
X95822928Y-136103764D01*
X95897040Y-136246793D01*
X95958278Y-136364977D01*
X95958282Y-136364983D01*
X96127932Y-136605323D01*
X96328743Y-136820338D01*
X96433662Y-136905696D01*
X96556951Y-137005999D01*
X96556953Y-137006000D01*
X96556954Y-137006001D01*
X96808319Y-137158860D01*
X96808324Y-137158862D01*
X97025168Y-137253050D01*
X97078159Y-137276067D01*
X97361445Y-137355440D01*
X97617681Y-137390659D01*
X97652901Y-137395500D01*
X97652902Y-137395500D01*
X97947099Y-137395500D01*
X97978520Y-137391180D01*
X98238555Y-137355440D01*
X98521841Y-137276067D01*
X98791682Y-137158859D01*
X99043049Y-137005999D01*
X99271260Y-136820335D01*
X99472065Y-136605326D01*
X99641722Y-136364976D01*
X99777072Y-136103764D01*
X99875592Y-135826554D01*
X99875592Y-135826549D01*
X99875595Y-135826543D01*
X99921094Y-135607588D01*
X99954006Y-135545955D01*
X100015014Y-135511901D01*
X100084749Y-135516236D01*
X100141071Y-135557584D01*
X100163906Y-135607588D01*
X100209404Y-135826543D01*
X100209409Y-135826559D01*
X100307927Y-136103762D01*
X100443278Y-136364977D01*
X100443282Y-136364983D01*
X100612932Y-136605323D01*
X100813743Y-136820338D01*
X100918662Y-136905696D01*
X101041951Y-137005999D01*
X101041953Y-137006000D01*
X101041954Y-137006001D01*
X101293319Y-137158860D01*
X101293324Y-137158862D01*
X101510168Y-137253050D01*
X101563159Y-137276067D01*
X101846445Y-137355440D01*
X102102681Y-137390659D01*
X102137901Y-137395500D01*
X102137902Y-137395500D01*
X102432099Y-137395500D01*
X102463520Y-137391180D01*
X102723555Y-137355440D01*
X103006841Y-137276067D01*
X103276682Y-137158859D01*
X103528049Y-137005999D01*
X103756260Y-136820335D01*
X103957065Y-136605326D01*
X104126722Y-136364976D01*
X104262072Y-136103764D01*
X104360592Y-135826554D01*
X104360592Y-135826549D01*
X104360595Y-135826543D01*
X104403618Y-135619500D01*
X104420448Y-135538511D01*
X104440525Y-135245000D01*
X104420448Y-134951489D01*
X104389897Y-134804470D01*
X104360595Y-134663456D01*
X104360590Y-134663440D01*
X104275851Y-134425007D01*
X104262072Y-134386236D01*
X104126722Y-134125024D01*
X104126721Y-134125022D01*
X104126717Y-134125016D01*
X103957067Y-133884676D01*
X103756256Y-133669661D01*
X103528045Y-133483998D01*
X103355262Y-133378926D01*
X107409500Y-133378926D01*
X107449530Y-133593069D01*
X107460157Y-133620500D01*
X107528226Y-133796207D01*
X107528229Y-133796213D01*
X107642906Y-133981423D01*
X107642912Y-133981432D01*
X107789678Y-134142427D01*
X107963528Y-134273712D01*
X108158541Y-134370817D01*
X108368077Y-134430435D01*
X108530653Y-134445500D01*
X108530656Y-134445500D01*
X108639344Y-134445500D01*
X108639347Y-134445500D01*
X108801923Y-134430435D01*
X109011459Y-134370817D01*
X109206472Y-134273712D01*
X109380322Y-134142427D01*
X109527088Y-133981432D01*
X109641772Y-133796210D01*
X109720470Y-133593069D01*
X109760500Y-133378926D01*
X109760500Y-133161074D01*
X109720470Y-132946931D01*
X109641772Y-132743790D01*
X109617627Y-132704795D01*
X109527093Y-132558576D01*
X109527092Y-132558575D01*
X109527088Y-132558568D01*
X109399726Y-132418858D01*
X109380323Y-132397574D01*
X109369088Y-132389090D01*
X109206472Y-132266288D01*
X109140296Y-132233336D01*
X109011462Y-132169184D01*
X109011459Y-132169183D01*
X108801923Y-132109565D01*
X108801920Y-132109564D01*
X108801918Y-132109564D01*
X108694819Y-132099640D01*
X108639347Y-132094500D01*
X108530653Y-132094500D01*
X108480845Y-132099115D01*
X108368081Y-132109564D01*
X108368077Y-132109564D01*
X108368077Y-132109565D01*
X108263309Y-132139374D01*
X108158537Y-132169184D01*
X107963527Y-132266288D01*
X107789676Y-132397574D01*
X107642913Y-132558566D01*
X107642906Y-132558576D01*
X107528229Y-132743786D01*
X107528226Y-132743792D01*
X107468435Y-132898130D01*
X107449530Y-132946931D01*
X107409500Y-133161074D01*
X107409500Y-133378926D01*
X103355262Y-133378926D01*
X103276680Y-133331139D01*
X103276675Y-133331137D01*
X103006845Y-133213934D01*
X102723560Y-133134561D01*
X102723556Y-133134560D01*
X102723555Y-133134560D01*
X102559965Y-133112075D01*
X102432099Y-133094500D01*
X102432098Y-133094500D01*
X102137902Y-133094500D01*
X102137901Y-133094500D01*
X101846445Y-133134560D01*
X101846439Y-133134561D01*
X101563154Y-133213934D01*
X101293324Y-133331137D01*
X101293319Y-133331139D01*
X101041954Y-133483998D01*
X100813743Y-133669661D01*
X100612932Y-133884676D01*
X100443282Y-134125016D01*
X100443278Y-134125022D01*
X100307927Y-134386237D01*
X100209409Y-134663440D01*
X100209404Y-134663457D01*
X100163906Y-134882411D01*
X100130994Y-134944044D01*
X100069986Y-134978098D01*
X100000251Y-134973763D01*
X99943929Y-134932415D01*
X99921094Y-134882411D01*
X99875595Y-134663457D01*
X99875590Y-134663440D01*
X99790851Y-134425007D01*
X99777072Y-134386236D01*
X99641722Y-134125024D01*
X99641721Y-134125022D01*
X99641717Y-134125016D01*
X99472067Y-133884676D01*
X99271256Y-133669661D01*
X99043045Y-133483998D01*
X98791680Y-133331139D01*
X98791675Y-133331137D01*
X98521841Y-133213932D01*
X98516043Y-133212308D01*
X98456801Y-133175266D01*
X98426990Y-133112075D01*
X98425500Y-133092907D01*
X98425500Y-133015452D01*
X98445185Y-132948413D01*
X98461819Y-132927771D01*
X106138905Y-125250685D01*
X114048788Y-117340801D01*
X114061042Y-117330986D01*
X114060859Y-117330764D01*
X114066870Y-117325789D01*
X114066877Y-117325786D01*
X114070106Y-117322347D01*
X114130345Y-117286951D01*
X114200158Y-117289741D01*
G37*
G04 #@! TD.AperFunction*
G04 #@! TA.AperFunction,Conductor*
G36*
X85795039Y-93999685D02*
G01*
X85840794Y-94052489D01*
X85852000Y-94104000D01*
X85852000Y-98936000D01*
X85832315Y-99003039D01*
X85779511Y-99048794D01*
X85728000Y-99060000D01*
X68704000Y-99060000D01*
X68636961Y-99040315D01*
X68591206Y-98987511D01*
X68580000Y-98936000D01*
X68580000Y-94104000D01*
X68599685Y-94036961D01*
X68652489Y-93991206D01*
X68704000Y-93980000D01*
X85728000Y-93980000D01*
X85795039Y-93999685D01*
G37*
G04 #@! TD.AperFunction*
G04 #@! TA.AperFunction,Conductor*
G36*
X83128039Y-83204685D02*
G01*
X83173794Y-83257489D01*
X83185000Y-83309000D01*
X83185000Y-93221000D01*
X83165315Y-93288039D01*
X83112511Y-93333794D01*
X83061000Y-93345000D01*
X71879000Y-93345000D01*
X71811961Y-93325315D01*
X71766206Y-93272511D01*
X71755000Y-93221000D01*
X71755000Y-83309000D01*
X71774685Y-83241961D01*
X71827489Y-83196206D01*
X71879000Y-83185000D01*
X83061000Y-83185000D01*
X83128039Y-83204685D01*
G37*
G04 #@! TD.AperFunction*
G04 #@! TA.AperFunction,Conductor*
G36*
X102178039Y-92729685D02*
G01*
X102223794Y-92782489D01*
X102235000Y-92834000D01*
X102235000Y-98936000D01*
X102215315Y-99003039D01*
X102162511Y-99048794D01*
X102111000Y-99060000D01*
X94104000Y-99060000D01*
X94036961Y-99040315D01*
X93991206Y-98987511D01*
X93980000Y-98936000D01*
X93980000Y-92834000D01*
X93999685Y-92766961D01*
X94052489Y-92721206D01*
X94104000Y-92710000D01*
X102111000Y-92710000D01*
X102178039Y-92729685D01*
G37*
G04 #@! TD.AperFunction*
G04 #@! TA.AperFunction,Conductor*
G36*
X93288039Y-92460185D02*
G01*
X93333794Y-92512989D01*
X93345000Y-92564500D01*
X93345000Y-96520000D01*
X93345000Y-100965000D01*
X86360000Y-100965000D01*
X86360000Y-93822729D01*
X86379685Y-93755690D01*
X86396317Y-93735050D01*
X86420703Y-93710663D01*
X86482023Y-93677178D01*
X86551715Y-93682161D01*
X86558820Y-93685065D01*
X86588192Y-93698142D01*
X86588197Y-93698144D01*
X86773354Y-93737500D01*
X86773355Y-93737500D01*
X86962644Y-93737500D01*
X86962646Y-93737500D01*
X87147803Y-93698144D01*
X87320730Y-93621151D01*
X87473871Y-93509888D01*
X87600533Y-93369216D01*
X87695179Y-93205284D01*
X87753674Y-93025256D01*
X87773460Y-92837000D01*
X87753674Y-92648744D01*
X87738752Y-92602818D01*
X87736757Y-92532976D01*
X87772838Y-92473144D01*
X87835539Y-92442316D01*
X87856683Y-92440500D01*
X93221000Y-92440500D01*
X93288039Y-92460185D01*
G37*
G04 #@! TD.AperFunction*
G04 #@! TA.AperFunction,Conductor*
G36*
X79902540Y-75584685D02*
G01*
X79948295Y-75637489D01*
X79959500Y-75688999D01*
X79959501Y-75781518D01*
X79974354Y-75875304D01*
X80031950Y-75988342D01*
X80031952Y-75988344D01*
X80031954Y-75988347D01*
X80121652Y-76078045D01*
X80121655Y-76078047D01*
X80121658Y-76078050D01*
X80140574Y-76087688D01*
X80144161Y-76089516D01*
X80194956Y-76137490D01*
X80211751Y-76205312D01*
X80189213Y-76271446D01*
X80144161Y-76310484D01*
X80121659Y-76321949D01*
X80121652Y-76321954D01*
X80031954Y-76411652D01*
X80031951Y-76411657D01*
X80031950Y-76411658D01*
X80012751Y-76449337D01*
X79974352Y-76524698D01*
X79959500Y-76618475D01*
X79959500Y-77681517D01*
X79970292Y-77749657D01*
X79974354Y-77775304D01*
X80031950Y-77888342D01*
X80031952Y-77888344D01*
X80031954Y-77888347D01*
X80121652Y-77978045D01*
X80121654Y-77978046D01*
X80121658Y-77978050D01*
X80234696Y-78035646D01*
X80234698Y-78035647D01*
X80328475Y-78050499D01*
X80328481Y-78050500D01*
X80959484Y-78050499D01*
X80959506Y-78050500D01*
X83061000Y-78050500D01*
X83128039Y-78070185D01*
X83173794Y-78122989D01*
X83185000Y-78174500D01*
X83185000Y-82426000D01*
X83165315Y-82493039D01*
X83112511Y-82538794D01*
X83061000Y-82550000D01*
X71879000Y-82550000D01*
X71811961Y-82530315D01*
X71766206Y-82477511D01*
X71755000Y-82426000D01*
X71755000Y-75689000D01*
X71774685Y-75621961D01*
X71827489Y-75576206D01*
X71879000Y-75565000D01*
X79835501Y-75565000D01*
X79902540Y-75584685D01*
G37*
G04 #@! TD.AperFunction*
G04 #@! TA.AperFunction,Conductor*
G36*
X112395000Y-90555407D02*
G01*
X112145407Y-90805000D01*
X104778498Y-90805000D01*
X109255120Y-86328380D01*
X109255120Y-86328379D01*
X109256521Y-86326979D01*
X109256538Y-86326959D01*
X110525119Y-85058380D01*
X110614383Y-84948149D01*
X110700320Y-84779488D01*
X110749312Y-84596646D01*
X110759219Y-84407612D01*
X110744413Y-84314131D01*
X110729608Y-84220653D01*
X110729607Y-84220650D01*
X110661771Y-84043930D01*
X110558674Y-83885175D01*
X110424825Y-83751326D01*
X110266070Y-83648229D01*
X110165641Y-83609678D01*
X110089349Y-83580392D01*
X110089346Y-83580391D01*
X109902390Y-83550781D01*
X109902389Y-83550781D01*
X109902388Y-83550781D01*
X109891322Y-83551360D01*
X109713357Y-83560687D01*
X109713350Y-83560688D01*
X109530515Y-83609678D01*
X109361845Y-83695620D01*
X109251621Y-83784880D01*
X109251611Y-83784889D01*
X107981620Y-85054880D01*
X106732802Y-86303697D01*
X106671479Y-86337182D01*
X106601787Y-86332198D01*
X106545854Y-86290326D01*
X106521437Y-86224862D01*
X106533040Y-86166227D01*
X106532154Y-86165884D01*
X106534106Y-86160843D01*
X106534129Y-86160728D01*
X106534229Y-86160528D01*
X106595115Y-85946536D01*
X106615643Y-85725000D01*
X106595115Y-85503464D01*
X106534229Y-85289472D01*
X106534224Y-85289461D01*
X106435061Y-85090316D01*
X106435056Y-85090308D01*
X106300979Y-84912761D01*
X106136562Y-84762876D01*
X106136560Y-84762874D01*
X105947404Y-84645754D01*
X105947398Y-84645752D01*
X105739940Y-84565382D01*
X105521243Y-84524500D01*
X105298757Y-84524500D01*
X105080060Y-84565382D01*
X104999351Y-84596649D01*
X104872601Y-84645752D01*
X104872595Y-84645754D01*
X104683439Y-84762874D01*
X104683437Y-84762876D01*
X104519020Y-84912761D01*
X104384943Y-85090308D01*
X104384938Y-85090316D01*
X104285775Y-85289461D01*
X104285769Y-85289476D01*
X104224885Y-85503462D01*
X104224884Y-85503464D01*
X104204357Y-85724999D01*
X104204357Y-85725000D01*
X104224884Y-85946535D01*
X104224885Y-85946537D01*
X104285769Y-86160523D01*
X104285775Y-86160538D01*
X104384938Y-86359683D01*
X104384943Y-86359691D01*
X104519020Y-86537238D01*
X104683437Y-86687123D01*
X104683439Y-86687125D01*
X104872595Y-86804245D01*
X104872596Y-86804245D01*
X104872599Y-86804247D01*
X105080060Y-86884618D01*
X105298757Y-86925500D01*
X105298759Y-86925500D01*
X105521241Y-86925500D01*
X105521243Y-86925500D01*
X105739940Y-86884618D01*
X105864262Y-86836454D01*
X105933885Y-86830592D01*
X105995625Y-86863302D01*
X106029880Y-86924198D01*
X106025775Y-86993947D01*
X105996737Y-87039762D01*
X102533320Y-90503181D01*
X102471997Y-90536666D01*
X102445639Y-90539500D01*
X83944000Y-90539500D01*
X83876961Y-90519815D01*
X83831206Y-90467011D01*
X83820000Y-90415500D01*
X83820000Y-78174500D01*
X83839685Y-78107461D01*
X83892489Y-78061706D01*
X83944000Y-78050500D01*
X84087808Y-78050500D01*
X85329373Y-78050500D01*
X85348772Y-78052027D01*
X85362612Y-78054219D01*
X85431959Y-78050584D01*
X85435203Y-78050500D01*
X85457191Y-78050500D01*
X85457192Y-78050500D01*
X85473988Y-78048734D01*
X85479064Y-78048201D01*
X85482284Y-78047947D01*
X85551646Y-78044313D01*
X85565187Y-78040683D01*
X85584313Y-78037138D01*
X85598256Y-78035674D01*
X85664306Y-78014212D01*
X85667368Y-78013304D01*
X85734488Y-77995320D01*
X85746976Y-77988956D01*
X85764950Y-77981510D01*
X85778284Y-77977179D01*
X85838476Y-77942425D01*
X85841222Y-77940934D01*
X85903149Y-77909383D01*
X85914031Y-77900569D01*
X85930083Y-77889537D01*
X85942216Y-77882533D01*
X85993847Y-77836043D01*
X85996260Y-77833982D01*
X86013380Y-77820119D01*
X86028929Y-77804568D01*
X86031270Y-77802347D01*
X86082888Y-77755871D01*
X86091130Y-77744525D01*
X86103760Y-77729737D01*
X89236680Y-74596819D01*
X89298003Y-74563334D01*
X89324361Y-74560500D01*
X93392188Y-74560500D01*
X93392192Y-74560500D01*
X93533256Y-74545674D01*
X93713284Y-74487179D01*
X93877216Y-74392533D01*
X94017888Y-74265871D01*
X94129151Y-74112730D01*
X94206144Y-73939803D01*
X94245500Y-73754646D01*
X94245500Y-73565354D01*
X94206144Y-73380197D01*
X94129151Y-73207270D01*
X94129148Y-73207265D01*
X94017888Y-73054129D01*
X93985458Y-73024929D01*
X93877216Y-72927467D01*
X93713284Y-72832821D01*
X93713277Y-72832818D01*
X93533259Y-72774327D01*
X93533256Y-72774326D01*
X93392192Y-72759500D01*
X93392188Y-72759500D01*
X88980627Y-72759500D01*
X88961228Y-72757973D01*
X88947389Y-72755781D01*
X88947388Y-72755781D01*
X88878046Y-72759415D01*
X88874803Y-72759500D01*
X88852808Y-72759500D01*
X88837403Y-72761118D01*
X88830933Y-72761798D01*
X88827702Y-72762052D01*
X88758356Y-72765687D01*
X88744809Y-72769317D01*
X88725686Y-72772860D01*
X88711745Y-72774325D01*
X88711743Y-72774325D01*
X88645702Y-72795784D01*
X88642590Y-72796705D01*
X88575517Y-72814677D01*
X88575503Y-72814683D01*
X88563022Y-72821043D01*
X88545049Y-72828488D01*
X88531715Y-72832820D01*
X88471592Y-72867533D01*
X88468740Y-72869082D01*
X88406853Y-72900616D01*
X88406837Y-72900626D01*
X88395948Y-72909444D01*
X88379923Y-72920458D01*
X88367785Y-72927466D01*
X88367781Y-72927469D01*
X88316172Y-72973936D01*
X88313710Y-72976039D01*
X88296627Y-72989875D01*
X88296610Y-72989890D01*
X88281065Y-73005435D01*
X88278713Y-73007666D01*
X88227114Y-73054126D01*
X88218869Y-73065474D01*
X88206236Y-73080263D01*
X87075822Y-74210678D01*
X87014499Y-74244163D01*
X86944807Y-74239179D01*
X86888874Y-74197307D01*
X86864457Y-74131843D01*
X86865668Y-74103599D01*
X86875499Y-74041524D01*
X86875500Y-74041519D01*
X86875499Y-72678482D01*
X86860646Y-72584696D01*
X86803050Y-72471658D01*
X86803045Y-72471653D01*
X86797311Y-72463759D01*
X86800297Y-72461589D01*
X86775603Y-72416427D01*
X86780548Y-72346733D01*
X86799242Y-72317643D01*
X86797311Y-72316241D01*
X86803042Y-72308349D01*
X86803050Y-72308342D01*
X86860646Y-72195304D01*
X86860646Y-72195302D01*
X86860647Y-72195301D01*
X86875499Y-72101524D01*
X86875500Y-72101519D01*
X86875499Y-70738482D01*
X86860646Y-70644696D01*
X86803050Y-70531658D01*
X86803046Y-70531654D01*
X86803045Y-70531652D01*
X86713347Y-70441954D01*
X86713344Y-70441952D01*
X86713342Y-70441950D01*
X86636517Y-70402805D01*
X86600301Y-70384352D01*
X86506524Y-70369500D01*
X84943482Y-70369500D01*
X84862519Y-70382323D01*
X84849696Y-70384354D01*
X84736658Y-70441950D01*
X84736657Y-70441951D01*
X84736652Y-70441954D01*
X84646954Y-70531652D01*
X84646951Y-70531657D01*
X84589354Y-70644696D01*
X84586155Y-70664896D01*
X84556226Y-70728032D01*
X84496915Y-70764963D01*
X84463681Y-70769500D01*
X84240506Y-70769500D01*
X84224495Y-70767732D01*
X84224473Y-70767974D01*
X84216706Y-70767239D01*
X84144783Y-70769500D01*
X84114075Y-70769500D01*
X84114071Y-70769500D01*
X84114060Y-70769501D01*
X84106804Y-70770417D01*
X84100986Y-70770875D01*
X84052433Y-70772401D01*
X84037873Y-70776630D01*
X84032040Y-70778325D01*
X84012996Y-70782269D01*
X83991942Y-70784929D01*
X83991940Y-70784929D01*
X83946781Y-70802808D01*
X83941255Y-70804700D01*
X83894601Y-70818254D01*
X83876325Y-70829063D01*
X83858860Y-70837619D01*
X83839124Y-70845433D01*
X83820000Y-70859327D01*
X83820000Y-68820500D01*
X112395000Y-68820500D01*
X112395000Y-90555407D01*
G37*
G04 #@! TD.AperFunction*
M02*
