M48
; DRILL file {KiCad 7.0.9} date Mon Dec 25 18:17:59 2023
; FORMAT={-:-/ absolute / metric / decimal}
; #@! TF.CreationDate,2023-12-25T18:17:59+01:00
; #@! TF.GenerationSoftware,Kicad,Pcbnew,7.0.9
; #@! TF.FileFunction,Plated,1,2,PTH
FMAT,2
METRIC
; #@! TA.AperFunction,Plated,PTH,ViaDrill
T1C0.400
; #@! TA.AperFunction,Plated,PTH,ComponentDrill
T2C0.750
; #@! TA.AperFunction,Plated,PTH,ComponentDrill
T3C0.900
; #@! TA.AperFunction,Plated,PTH,ComponentDrill
T4C1.000
; #@! TA.AperFunction,Plated,PTH,ComponentDrill
T5C1.200
; #@! TA.AperFunction,Plated,PTH,ComponentDrill
T6C2.600
%
G90
G05
T1
X40.005Y-70.485
X40.005Y-88.9
X40.005Y-106.045
X40.005Y-121.285
X40.005Y-141.605
X40.005Y-156.845
X55.245Y-70.485
X59.69Y-109.22
X59.69Y-118.745
X67.31Y-147.32
X71.12Y-109.22
X71.12Y-118.745
X73.025Y-70.485
X73.025Y-81.28
X73.025Y-94.996
X73.025Y-97.79
X73.66Y-78.74
X76.2Y-76.2
X76.2Y-86.36
X76.2Y-87.63
X76.2Y-89.535
X76.835Y-90.805
X77.47Y-76.2
X77.47Y-94.996
X77.47Y-97.79
X81.28Y-94.996
X81.28Y-97.79
X82.55Y-109.22
X82.55Y-118.745
X83.82Y-73.66
X83.82Y-100.33
X85.09Y-97.79
X85.217Y-95.123
X86.868Y-92.837
X86.995Y-96.52
X86.995Y-98.425
X86.995Y-100.33
X88.265Y-127.635
X88.468Y-92.913
X89.535Y-70.485
X89.535Y-96.52
X89.535Y-98.425
X89.535Y-100.33
X90.805Y-147.955
X92.075Y-73.66
X92.075Y-100.33
X92.71Y-122.555
X92.71Y-127.635
X93.345Y-73.66
X93.98Y-109.22
X93.98Y-118.745
X94.615Y-94.615
X94.615Y-97.79
X95.25Y-144.145
X95.25Y-151.13
X95.885Y-76.835
X95.885Y-80.645
X95.885Y-84.455
X95.885Y-88.265
X97.79Y-94.615
X97.79Y-97.79
X99.06Y-76.835
X99.06Y-80.645
X99.06Y-84.455
X99.06Y-88.265
X100.965Y-94.615
X100.965Y-97.79
X102.87Y-122.555
X104.14Y-146.05
X105.41Y-113.665
X105.41Y-118.11
X105.41Y-142.875
X106.68Y-70.485
X108.585Y-85.725
X109.855Y-84.455
X118.11Y-113.03
X118.11Y-114.3
X118.72Y-96.52
X119.99Y-91.44
X121.285Y-81.615
X121.285Y-84.455
X121.285Y-142.875
X121.285Y-147.32
X121.285Y-156.845
X121.92Y-91.44
X122.555Y-84.455
X123.19Y-145.415
X123.8Y-94.59
X124.46Y-74.295
X125.73Y-74.295
X126.365Y-123.19
X127.0Y-74.295
X127.0Y-86.995
X127.0Y-91.44
X127.635Y-84.455
X127.635Y-139.7
X127.635Y-140.97
X128.27Y-74.295
X130.15Y-91.44
X130.175Y-147.955
X130.81Y-74.295
X133.985Y-93.345
X133.985Y-99.06
X133.985Y-103.505
X134.315Y-91.135
X134.62Y-76.835
X134.62Y-79.375
X134.62Y-120.65
X135.128Y-74.115
X135.585Y-91.135
X136.94Y-76.42
X136.94Y-82.77
X143.51Y-107.315
X143.51Y-124.46
X143.51Y-142.24
X143.51Y-156.845
T2
X90.17Y-155.575
X91.44Y-155.575
X92.71Y-155.575
T3
X127.635Y-149.86
X127.635Y-152.4
X130.175Y-149.86
X130.175Y-152.4
X132.715Y-149.86
X132.715Y-152.4
T4
X123.444Y-98.298
X123.444Y-100.838
X123.444Y-103.378
X123.444Y-105.918
X123.444Y-108.458
X123.444Y-110.998
X123.444Y-113.538
X123.444Y-116.078
X123.444Y-118.618
T5
X67.995Y-135.245
X67.995Y-140.345
X74.295Y-144.745
X80.595Y-135.245
X80.595Y-140.345
X85.2Y-135.245
X85.2Y-140.345
X91.5Y-144.745
X97.8Y-135.245
X97.8Y-140.345
X102.285Y-135.245
X102.285Y-140.345
X108.585Y-144.745
X114.885Y-135.245
X114.885Y-140.345
T6
X48.895Y-150.095
X48.895Y-156.595
X53.395Y-152.845
T0
M30
