  0
SECTION
  2
HEADER
  9
$ANGBASE
  50
0.0
  9
$ANGDIR
  70
1
  9
$MEASUREMENT
  70
1
  0
ENDSEC
  0
SECTION
  2
TABLES
  0
TABLE
  2
LTYPE
  70
4
  0
LTYPE
  5
40F
  2
CONTINUOUS
  70
0
  3
Solid line
  72
65
  73
0
  40
0.0
  0
LTYPE
  5
410
  2
DASHDOT
 70
0
  3
Dash Dot ____ _ ____ _
 72
65
 73
4
 40
2.0
 49
1.25
 49
-0.25
 49
0.25
 49
-0.25
  0
LTYPE
  5
411
  2
DASHED
 70
0
  3
Dashed __ __ __ __ __
 72
65
 73
2
 40
0.75
 49
0.5
 49
-0.25
  0
LTYPE
  5
43B
  2
DOTTED
 70
0
  3
Dotted .  .  .  .
 72
65
 73
2
 40
0.2
 49
0.0
 49
-0.2
  0
ENDTAB
  0
TABLE
  2
STYLE
  70
4
  0
STYLE
  2
KICAD
  70
0
  40
0
  41
1
  42
1
  50
0
  71
0
  3
isocp.shx
  0
STYLE
  2
KICADB
  70
0
  40
0
  41
1
  42
1
  50
0
  71
0
  3
isocp.shx
  0
STYLE
  2
KICADI
  70
0
  40
0
  41
1
  42
1
  50
15
  71
0
  3
isocp.shx
  0
STYLE
  2
KICADBI
  70
0
  40
0
  41
1
  42
1
  50
15
  71
0
  3
isocp.shx
  0
ENDTAB
  0
TABLE
  2
LAYER
  70
1
  0
LAYER
  2
BLACK
  70
0
  62
7
  6
CONTINUOUS
  0
ENDTAB
  0
ENDSEC
  0
SECTION
  2
ENTITIES
0
LINE
8
BLACK
6
CONTINUOUS
10
91.5
20
-112.395
11
91.5
21
-114.935
0
LINE
8
BLACK
6
CONTINUOUS
10
89.535
20
-113.735
11
93.345
21
-113.735
0
CIRCLE
8
BLACK
10
83.185
20
-146.05
40
1.1
0
CIRCLE
8
BLACK
10
141.605
20
-110.49
40
1.1
0
CIRCLE
8
BLACK
10
141.605
20
-155.575
40
1.1
0
CIRCLE
8
BLACK
10
41.275
20
-80.01
40
1.1
0
CIRCLE
8
BLACK
10
105.41
20
-85.725
40
1.1
0
CIRCLE
8
BLACK
10
64.135
20
-99.695
40
1.1
0
CIRCLE
8
BLACK
10
41.91
20
-134.62
40
1.1
0
CIRCLE
8
BLACK
10
83.185
20
-123.825
40
1.1
0
CIRCLE
8
BLACK
10
59.055
20
-155.575
40
1.1
0
LINE
8
BLACK
6
CONTINUOUS
10
61.595
20
-158.75
11
61.595
21
-148.72
0
LINE
8
BLACK
6
CONTINUOUS
10
119.38
20
-158.75
11
119.38
21
-148.72
0
LINE
8
BLACK
6
CONTINUOUS
10
145
20
-158.75
11
119.38
21
-158.75
0
LINE
8
BLACK
6
CONTINUOUS
10
145
20
-158.75
11
145
21
-148.72
0
LINE
8
BLACK
6
CONTINUOUS
10
38
20
-158.75
11
61.595
21
-158.75
0
LINE
8
BLACK
6
CONTINUOUS
10
97.79
20
-148.72
11
119.38
21
-148.72
0
LINE
8
BLACK
6
CONTINUOUS
10
97.79
20
-158.75
11
97.79
21
-148.72
0
LINE
8
BLACK
6
CONTINUOUS
10
97.79
20
-158.75
11
85.09
21
-158.75
0
LINE
8
BLACK
6
CONTINUOUS
10
85.09
20
-158.75
11
85.09
21
-148.72
0
ARC
8
BLACK
10
64.0715
20
-144.145
40
1.4605
50
180
51
360
0
ARC
8
BLACK
10
64.0715
20
-135.255
40
1.4605
50
-0
51
180
0
ARC
8
BLACK
10
70.475
20
-123.825
40
1.45
50
180
51
360
0
ARC
8
BLACK
10
70.475
20
-98.425
40
1.45
50
-0
51
180
0
ARC
8
BLACK
10
42.418
20
-86.35
40
1.45
50
90
51
270
0
ARC
8
BLACK
10
70.485
20
-86.35
40
1.45
50
-90
51
90
0
LINE
8
BLACK
6
CONTINUOUS
10
137.795
20
-105.41
11
137.795
21
-68.72
0
LINE
8
BLACK
6
CONTINUOUS
10
145
20
-105.41
11
137.795
21
-105.41
0
LINE
8
BLACK
6
CONTINUOUS
10
65.532
20
-135.255
11
65.532
21
-144.145
0
LINE
8
BLACK
6
CONTINUOUS
10
62.611
20
-144.145
11
62.611
21
-135.255
0
LINE
8
BLACK
6
CONTINUOUS
10
71.925
20
-98.425
11
71.925
21
-123.825
0
LINE
8
BLACK
6
CONTINUOUS
10
69.025
20
-123.825
11
69.025
21
-98.425
0
LINE
8
BLACK
6
CONTINUOUS
10
42.418
20
-84.9
11
70.485
21
-84.9
0
LINE
8
BLACK
6
CONTINUOUS
10
70.485
20
-87.8
11
42.418
21
-87.8
0
LINE
8
BLACK
6
CONTINUOUS
10
38
20
-68.72
11
137.795
21
-68.72
0
LINE
8
BLACK
6
CONTINUOUS
10
61.595
20
-148.72
11
85.09
21
-148.72
0
LINE
8
BLACK
6
CONTINUOUS
10
145
20
-105.41
11
145
21
-148.72
0
LINE
8
BLACK
6
CONTINUOUS
10
38
20
-68.72
11
38
21
-158.75
  0
ENDSEC
  0
EOF
