G04 #@! TF.GenerationSoftware,KiCad,Pcbnew,(5.1.6)-1*
G04 #@! TF.CreationDate,2021-06-16T15:57:26+02:00*
G04 #@! TF.ProjectId,wall-sensor-of-room-temperature,77616c6c-2d73-4656-9e73-6f722d6f662d,rev?*
G04 #@! TF.SameCoordinates,Original*
G04 #@! TF.FileFunction,Legend,Top*
G04 #@! TF.FilePolarity,Positive*
%FSLAX46Y46*%
G04 Gerber Fmt 4.6, Leading zero omitted, Abs format (unit mm)*
G04 Created by KiCad (PCBNEW (5.1.6)-1) date 2021-06-16 15:57:26*
%MOMM*%
%LPD*%
G01*
G04 APERTURE LIST*
%ADD10C,0.200000*%
%ADD11C,0.500000*%
%ADD12C,0.170000*%
%ADD13C,0.120000*%
%ADD14C,0.150000*%
%ADD15C,0.900000*%
%ADD16O,1.900000X1.900000*%
%ADD17R,1.900000X1.900000*%
%ADD18R,1.100000X0.410000*%
%ADD19R,1.600000X1.850000*%
%ADD20R,0.900000X0.900000*%
%ADD21C,3.300000*%
%ADD22C,4.600000*%
%ADD23R,4.700000X1.200000*%
%ADD24R,9.500000X10.900000*%
%ADD25R,0.900000X0.400000*%
%ADD26R,5.100000X5.100000*%
%ADD27R,1.000000X2.600000*%
%ADD28O,1.800000X1.800000*%
%ADD29R,1.800000X1.800000*%
%ADD30R,1.150000X1.600000*%
%ADD31R,2.100000X1.100000*%
%ADD32R,1.600000X1.400000*%
%ADD33C,1.950000*%
%ADD34C,3.100000*%
%ADD35C,3.600000*%
%ADD36R,1.400000X1.600000*%
G04 APERTURE END LIST*
D10*
X98016428Y-79267857D02*
X98230714Y-79339285D01*
X98302142Y-79410714D01*
X98373571Y-79553571D01*
X98373571Y-79767857D01*
X98302142Y-79910714D01*
X98230714Y-79982142D01*
X98087857Y-80053571D01*
X97516428Y-80053571D01*
X97516428Y-78553571D01*
X98016428Y-78553571D01*
X98159285Y-78625000D01*
X98230714Y-78696428D01*
X98302142Y-78839285D01*
X98302142Y-78982142D01*
X98230714Y-79125000D01*
X98159285Y-79196428D01*
X98016428Y-79267857D01*
X97516428Y-79267857D01*
X99230714Y-80053571D02*
X99087857Y-79982142D01*
X99016428Y-79910714D01*
X98945000Y-79767857D01*
X98945000Y-79339285D01*
X99016428Y-79196428D01*
X99087857Y-79125000D01*
X99230714Y-79053571D01*
X99445000Y-79053571D01*
X99587857Y-79125000D01*
X99659285Y-79196428D01*
X99730714Y-79339285D01*
X99730714Y-79767857D01*
X99659285Y-79910714D01*
X99587857Y-79982142D01*
X99445000Y-80053571D01*
X99230714Y-80053571D01*
X100587857Y-80053571D02*
X100445000Y-79982142D01*
X100373571Y-79910714D01*
X100302142Y-79767857D01*
X100302142Y-79339285D01*
X100373571Y-79196428D01*
X100445000Y-79125000D01*
X100587857Y-79053571D01*
X100802142Y-79053571D01*
X100945000Y-79125000D01*
X101016428Y-79196428D01*
X101087857Y-79339285D01*
X101087857Y-79767857D01*
X101016428Y-79910714D01*
X100945000Y-79982142D01*
X100802142Y-80053571D01*
X100587857Y-80053571D01*
X101516428Y-79053571D02*
X102087857Y-79053571D01*
X101730714Y-78553571D02*
X101730714Y-79839285D01*
X101802142Y-79982142D01*
X101945000Y-80053571D01*
X102087857Y-80053571D01*
X97202857Y-74973571D02*
X96702857Y-74259285D01*
X96345714Y-74973571D02*
X96345714Y-73473571D01*
X96917142Y-73473571D01*
X97060000Y-73545000D01*
X97131428Y-73616428D01*
X97202857Y-73759285D01*
X97202857Y-73973571D01*
X97131428Y-74116428D01*
X97060000Y-74187857D01*
X96917142Y-74259285D01*
X96345714Y-74259285D01*
X98417142Y-74902142D02*
X98274285Y-74973571D01*
X97988571Y-74973571D01*
X97845714Y-74902142D01*
X97774285Y-74759285D01*
X97774285Y-74187857D01*
X97845714Y-74045000D01*
X97988571Y-73973571D01*
X98274285Y-73973571D01*
X98417142Y-74045000D01*
X98488571Y-74187857D01*
X98488571Y-74330714D01*
X97774285Y-74473571D01*
X99060000Y-74902142D02*
X99202857Y-74973571D01*
X99488571Y-74973571D01*
X99631428Y-74902142D01*
X99702857Y-74759285D01*
X99702857Y-74687857D01*
X99631428Y-74545000D01*
X99488571Y-74473571D01*
X99274285Y-74473571D01*
X99131428Y-74402142D01*
X99060000Y-74259285D01*
X99060000Y-74187857D01*
X99131428Y-74045000D01*
X99274285Y-73973571D01*
X99488571Y-73973571D01*
X99631428Y-74045000D01*
X100917142Y-74902142D02*
X100774285Y-74973571D01*
X100488571Y-74973571D01*
X100345714Y-74902142D01*
X100274285Y-74759285D01*
X100274285Y-74187857D01*
X100345714Y-74045000D01*
X100488571Y-73973571D01*
X100774285Y-73973571D01*
X100917142Y-74045000D01*
X100988571Y-74187857D01*
X100988571Y-74330714D01*
X100274285Y-74473571D01*
X101417142Y-73973571D02*
X101988571Y-73973571D01*
X101631428Y-73473571D02*
X101631428Y-74759285D01*
X101702857Y-74902142D01*
X101845714Y-74973571D01*
X101988571Y-74973571D01*
D11*
X62882619Y-115839761D02*
X62882619Y-114506428D01*
X62882619Y-114887380D02*
X62977857Y-114696904D01*
X63073095Y-114601666D01*
X63263571Y-114506428D01*
X63454047Y-114506428D01*
X64406428Y-115839761D02*
X64215952Y-115744523D01*
X64120714Y-115649285D01*
X64025476Y-115458809D01*
X64025476Y-114887380D01*
X64120714Y-114696904D01*
X64215952Y-114601666D01*
X64406428Y-114506428D01*
X64692142Y-114506428D01*
X64882619Y-114601666D01*
X64977857Y-114696904D01*
X65073095Y-114887380D01*
X65073095Y-115458809D01*
X64977857Y-115649285D01*
X64882619Y-115744523D01*
X64692142Y-115839761D01*
X64406428Y-115839761D01*
X65930238Y-115839761D02*
X65930238Y-114506428D01*
X65930238Y-114696904D02*
X66025476Y-114601666D01*
X66215952Y-114506428D01*
X66501666Y-114506428D01*
X66692142Y-114601666D01*
X66787380Y-114792142D01*
X66787380Y-115839761D01*
X66787380Y-114792142D02*
X66882619Y-114601666D01*
X67073095Y-114506428D01*
X67358809Y-114506428D01*
X67549285Y-114601666D01*
X67644523Y-114792142D01*
X67644523Y-115839761D01*
X69454047Y-115839761D02*
X69454047Y-114792142D01*
X69358809Y-114601666D01*
X69168333Y-114506428D01*
X68787380Y-114506428D01*
X68596904Y-114601666D01*
X69454047Y-115744523D02*
X69263571Y-115839761D01*
X68787380Y-115839761D01*
X68596904Y-115744523D01*
X68501666Y-115554047D01*
X68501666Y-115363571D01*
X68596904Y-115173095D01*
X68787380Y-115077857D01*
X69263571Y-115077857D01*
X69454047Y-114982619D01*
X70406428Y-114506428D02*
X70406428Y-115839761D01*
X70406428Y-114696904D02*
X70501666Y-114601666D01*
X70692142Y-114506428D01*
X70977857Y-114506428D01*
X71168333Y-114601666D01*
X71263571Y-114792142D01*
X71263571Y-115839761D01*
X72215952Y-115077857D02*
X73739761Y-115077857D01*
X74977857Y-115839761D02*
X74787380Y-115744523D01*
X74692142Y-115554047D01*
X74692142Y-113839761D01*
X76596904Y-115839761D02*
X76596904Y-114792142D01*
X76501666Y-114601666D01*
X76311190Y-114506428D01*
X75930238Y-114506428D01*
X75739761Y-114601666D01*
X76596904Y-115744523D02*
X76406428Y-115839761D01*
X75930238Y-115839761D01*
X75739761Y-115744523D01*
X75644523Y-115554047D01*
X75644523Y-115363571D01*
X75739761Y-115173095D01*
X75930238Y-115077857D01*
X76406428Y-115077857D01*
X76596904Y-114982619D01*
X77549285Y-115839761D02*
X77549285Y-113839761D01*
X77549285Y-114601666D02*
X77739761Y-114506428D01*
X78120714Y-114506428D01*
X78311190Y-114601666D01*
X78406428Y-114696904D01*
X78501666Y-114887380D01*
X78501666Y-115458809D01*
X78406428Y-115649285D01*
X78311190Y-115744523D01*
X78120714Y-115839761D01*
X77739761Y-115839761D01*
X77549285Y-115744523D01*
X79644523Y-115839761D02*
X79454047Y-115744523D01*
X79358809Y-115649285D01*
X79263571Y-115458809D01*
X79263571Y-114887380D01*
X79358809Y-114696904D01*
X79454047Y-114601666D01*
X79644523Y-114506428D01*
X79930238Y-114506428D01*
X80120714Y-114601666D01*
X80215952Y-114696904D01*
X80311190Y-114887380D01*
X80311190Y-115458809D01*
X80215952Y-115649285D01*
X80120714Y-115744523D01*
X79930238Y-115839761D01*
X79644523Y-115839761D01*
X80977857Y-114506428D02*
X81454047Y-115839761D01*
X81930238Y-114506428D01*
X82596904Y-115744523D02*
X82787380Y-115839761D01*
X83168333Y-115839761D01*
X83358809Y-115744523D01*
X83454047Y-115554047D01*
X83454047Y-115458809D01*
X83358809Y-115268333D01*
X83168333Y-115173095D01*
X82882619Y-115173095D01*
X82692142Y-115077857D01*
X82596904Y-114887380D01*
X82596904Y-114792142D01*
X82692142Y-114601666D01*
X82882619Y-114506428D01*
X83168333Y-114506428D01*
X83358809Y-114601666D01*
X84311190Y-115839761D02*
X84311190Y-113839761D01*
X84501666Y-115077857D02*
X85073095Y-115839761D01*
X85073095Y-114506428D02*
X84311190Y-115268333D01*
X85739761Y-114506428D02*
X86215952Y-115839761D01*
X86692142Y-114506428D02*
X86215952Y-115839761D01*
X86025476Y-116315952D01*
X85930238Y-116411190D01*
X85739761Y-116506428D01*
X87454047Y-115649285D02*
X87549285Y-115744523D01*
X87454047Y-115839761D01*
X87358809Y-115744523D01*
X87454047Y-115649285D01*
X87454047Y-115839761D01*
X89263571Y-115744523D02*
X89073095Y-115839761D01*
X88692142Y-115839761D01*
X88501666Y-115744523D01*
X88406428Y-115649285D01*
X88311190Y-115458809D01*
X88311190Y-114887380D01*
X88406428Y-114696904D01*
X88501666Y-114601666D01*
X88692142Y-114506428D01*
X89073095Y-114506428D01*
X89263571Y-114601666D01*
X89930238Y-114506428D02*
X90977857Y-114506428D01*
X89930238Y-115839761D01*
X90977857Y-115839761D01*
X65977857Y-106949761D02*
X65311190Y-105997380D01*
X64835000Y-106949761D02*
X64835000Y-104949761D01*
X65596904Y-104949761D01*
X65787380Y-105045000D01*
X65882619Y-105140238D01*
X65977857Y-105330714D01*
X65977857Y-105616428D01*
X65882619Y-105806904D01*
X65787380Y-105902142D01*
X65596904Y-105997380D01*
X64835000Y-105997380D01*
X67120714Y-106949761D02*
X66930238Y-106854523D01*
X66835000Y-106759285D01*
X66739761Y-106568809D01*
X66739761Y-105997380D01*
X66835000Y-105806904D01*
X66930238Y-105711666D01*
X67120714Y-105616428D01*
X67406428Y-105616428D01*
X67596904Y-105711666D01*
X67692142Y-105806904D01*
X67787380Y-105997380D01*
X67787380Y-106568809D01*
X67692142Y-106759285D01*
X67596904Y-106854523D01*
X67406428Y-106949761D01*
X67120714Y-106949761D01*
X68644523Y-106949761D02*
X68644523Y-105616428D01*
X68644523Y-105806904D02*
X68739761Y-105711666D01*
X68930238Y-105616428D01*
X69215952Y-105616428D01*
X69406428Y-105711666D01*
X69501666Y-105902142D01*
X69501666Y-106949761D01*
X69501666Y-105902142D02*
X69596904Y-105711666D01*
X69787380Y-105616428D01*
X70073095Y-105616428D01*
X70263571Y-105711666D01*
X70358809Y-105902142D01*
X70358809Y-106949761D01*
X72168333Y-106949761D02*
X72168333Y-105902142D01*
X72073095Y-105711666D01*
X71882619Y-105616428D01*
X71501666Y-105616428D01*
X71311190Y-105711666D01*
X72168333Y-106854523D02*
X71977857Y-106949761D01*
X71501666Y-106949761D01*
X71311190Y-106854523D01*
X71215952Y-106664047D01*
X71215952Y-106473571D01*
X71311190Y-106283095D01*
X71501666Y-106187857D01*
X71977857Y-106187857D01*
X72168333Y-106092619D01*
X73120714Y-105616428D02*
X73120714Y-106949761D01*
X73120714Y-105806904D02*
X73215952Y-105711666D01*
X73406428Y-105616428D01*
X73692142Y-105616428D01*
X73882619Y-105711666D01*
X73977857Y-105902142D01*
X73977857Y-106949761D01*
X77406428Y-106949761D02*
X76454047Y-106949761D01*
X76454047Y-104949761D01*
X78930238Y-106949761D02*
X78930238Y-105902142D01*
X78835000Y-105711666D01*
X78644523Y-105616428D01*
X78263571Y-105616428D01*
X78073095Y-105711666D01*
X78930238Y-106854523D02*
X78739761Y-106949761D01*
X78263571Y-106949761D01*
X78073095Y-106854523D01*
X77977857Y-106664047D01*
X77977857Y-106473571D01*
X78073095Y-106283095D01*
X78263571Y-106187857D01*
X78739761Y-106187857D01*
X78930238Y-106092619D01*
X79882619Y-106949761D02*
X79882619Y-104949761D01*
X79882619Y-105711666D02*
X80073095Y-105616428D01*
X80454047Y-105616428D01*
X80644523Y-105711666D01*
X80739761Y-105806904D01*
X80835000Y-105997380D01*
X80835000Y-106568809D01*
X80739761Y-106759285D01*
X80644523Y-106854523D01*
X80454047Y-106949761D01*
X80073095Y-106949761D01*
X79882619Y-106854523D01*
X81977857Y-106949761D02*
X81787380Y-106854523D01*
X81692142Y-106759285D01*
X81596904Y-106568809D01*
X81596904Y-105997380D01*
X81692142Y-105806904D01*
X81787380Y-105711666D01*
X81977857Y-105616428D01*
X82263571Y-105616428D01*
X82454047Y-105711666D01*
X82549285Y-105806904D01*
X82644523Y-105997380D01*
X82644523Y-106568809D01*
X82549285Y-106759285D01*
X82454047Y-106854523D01*
X82263571Y-106949761D01*
X81977857Y-106949761D01*
X83311190Y-105616428D02*
X83787380Y-106949761D01*
X84263571Y-105616428D01*
X84930238Y-106854523D02*
X85120714Y-106949761D01*
X85501666Y-106949761D01*
X85692142Y-106854523D01*
X85787380Y-106664047D01*
X85787380Y-106568809D01*
X85692142Y-106378333D01*
X85501666Y-106283095D01*
X85215952Y-106283095D01*
X85025476Y-106187857D01*
X84930238Y-105997380D01*
X84930238Y-105902142D01*
X85025476Y-105711666D01*
X85215952Y-105616428D01*
X85501666Y-105616428D01*
X85692142Y-105711666D01*
X86644523Y-106949761D02*
X86644523Y-104949761D01*
X86835000Y-106187857D02*
X87406428Y-106949761D01*
X87406428Y-105616428D02*
X86644523Y-106378333D01*
X88073095Y-105616428D02*
X88549285Y-106949761D01*
X89025476Y-105616428D02*
X88549285Y-106949761D01*
X88358809Y-107425952D01*
X88263571Y-107521190D01*
X88073095Y-107616428D01*
X47259761Y-141839285D02*
X45259761Y-141839285D01*
X47259761Y-140696428D01*
X45259761Y-140696428D01*
X47259761Y-138886904D02*
X46212142Y-138886904D01*
X46021666Y-138982142D01*
X45926428Y-139172619D01*
X45926428Y-139553571D01*
X46021666Y-139744047D01*
X47164523Y-138886904D02*
X47259761Y-139077380D01*
X47259761Y-139553571D01*
X47164523Y-139744047D01*
X46974047Y-139839285D01*
X46783571Y-139839285D01*
X46593095Y-139744047D01*
X46497857Y-139553571D01*
X46497857Y-139077380D01*
X46402619Y-138886904D01*
X47164523Y-138029761D02*
X47259761Y-137839285D01*
X47259761Y-137458333D01*
X47164523Y-137267857D01*
X46974047Y-137172619D01*
X46878809Y-137172619D01*
X46688333Y-137267857D01*
X46593095Y-137458333D01*
X46593095Y-137744047D01*
X46497857Y-137934523D01*
X46307380Y-138029761D01*
X46212142Y-138029761D01*
X46021666Y-137934523D01*
X45926428Y-137744047D01*
X45926428Y-137458333D01*
X46021666Y-137267857D01*
X45926428Y-136601190D02*
X45926428Y-135839285D01*
X45259761Y-136315476D02*
X46974047Y-136315476D01*
X47164523Y-136220238D01*
X47259761Y-136029761D01*
X47259761Y-135839285D01*
X47164523Y-134410714D02*
X47259761Y-134601190D01*
X47259761Y-134982142D01*
X47164523Y-135172619D01*
X46974047Y-135267857D01*
X46212142Y-135267857D01*
X46021666Y-135172619D01*
X45926428Y-134982142D01*
X45926428Y-134601190D01*
X46021666Y-134410714D01*
X46212142Y-134315476D01*
X46402619Y-134315476D01*
X46593095Y-135267857D01*
X45926428Y-133458333D02*
X47259761Y-133458333D01*
X46116904Y-133458333D02*
X46021666Y-133363095D01*
X45926428Y-133172619D01*
X45926428Y-132886904D01*
X46021666Y-132696428D01*
X46212142Y-132601190D01*
X47259761Y-132601190D01*
X45926428Y-131648809D02*
X47259761Y-131648809D01*
X46116904Y-131648809D02*
X46021666Y-131553571D01*
X45926428Y-131363095D01*
X45926428Y-131077380D01*
X46021666Y-130886904D01*
X46212142Y-130791666D01*
X47259761Y-130791666D01*
X45926428Y-130029761D02*
X47259761Y-129553571D01*
X45926428Y-129077380D02*
X47259761Y-129553571D01*
X47735952Y-129744047D01*
X47831190Y-129839285D01*
X47926428Y-130029761D01*
X47164523Y-126886904D02*
X47259761Y-126696428D01*
X47259761Y-126315476D01*
X47164523Y-126125000D01*
X46974047Y-126029761D01*
X46878809Y-126029761D01*
X46688333Y-126125000D01*
X46593095Y-126315476D01*
X46593095Y-126601190D01*
X46497857Y-126791666D01*
X46307380Y-126886904D01*
X46212142Y-126886904D01*
X46021666Y-126791666D01*
X45926428Y-126601190D01*
X45926428Y-126315476D01*
X46021666Y-126125000D01*
X45926428Y-125172619D02*
X47259761Y-125172619D01*
X46116904Y-125172619D02*
X46021666Y-125077380D01*
X45926428Y-124886904D01*
X45926428Y-124601190D01*
X46021666Y-124410714D01*
X46212142Y-124315476D01*
X47259761Y-124315476D01*
X47259761Y-123363095D02*
X45926428Y-123363095D01*
X45259761Y-123363095D02*
X45355000Y-123458333D01*
X45450238Y-123363095D01*
X45355000Y-123267857D01*
X45259761Y-123363095D01*
X45450238Y-123363095D01*
X47259761Y-122410714D02*
X45926428Y-122410714D01*
X46116904Y-122410714D02*
X46021666Y-122315476D01*
X45926428Y-122125000D01*
X45926428Y-121839285D01*
X46021666Y-121648809D01*
X46212142Y-121553571D01*
X47259761Y-121553571D01*
X46212142Y-121553571D02*
X46021666Y-121458333D01*
X45926428Y-121267857D01*
X45926428Y-120982142D01*
X46021666Y-120791666D01*
X46212142Y-120696428D01*
X47259761Y-120696428D01*
X47259761Y-118886904D02*
X46212142Y-118886904D01*
X46021666Y-118982142D01*
X45926428Y-119172619D01*
X45926428Y-119553571D01*
X46021666Y-119744047D01*
X47164523Y-118886904D02*
X47259761Y-119077380D01*
X47259761Y-119553571D01*
X47164523Y-119744047D01*
X46974047Y-119839285D01*
X46783571Y-119839285D01*
X46593095Y-119744047D01*
X46497857Y-119553571D01*
X46497857Y-119077380D01*
X46402619Y-118886904D01*
X47164523Y-117077380D02*
X47259761Y-117267857D01*
X47259761Y-117648809D01*
X47164523Y-117839285D01*
X47069285Y-117934523D01*
X46878809Y-118029761D01*
X46307380Y-118029761D01*
X46116904Y-117934523D01*
X46021666Y-117839285D01*
X45926428Y-117648809D01*
X45926428Y-117267857D01*
X46021666Y-117077380D01*
X45926428Y-114696428D02*
X47926428Y-114696428D01*
X46021666Y-114696428D02*
X45926428Y-114505952D01*
X45926428Y-114125000D01*
X46021666Y-113934523D01*
X46116904Y-113839285D01*
X46307380Y-113744047D01*
X46878809Y-113744047D01*
X47069285Y-113839285D01*
X47164523Y-113934523D01*
X47259761Y-114125000D01*
X47259761Y-114505952D01*
X47164523Y-114696428D01*
X47259761Y-112886904D02*
X45926428Y-112886904D01*
X46307380Y-112886904D02*
X46116904Y-112791666D01*
X46021666Y-112696428D01*
X45926428Y-112505952D01*
X45926428Y-112315476D01*
X47259761Y-111363095D02*
X47164523Y-111553571D01*
X47069285Y-111648809D01*
X46878809Y-111744047D01*
X46307380Y-111744047D01*
X46116904Y-111648809D01*
X46021666Y-111553571D01*
X45926428Y-111363095D01*
X45926428Y-111077380D01*
X46021666Y-110886904D01*
X46116904Y-110791666D01*
X46307380Y-110696428D01*
X46878809Y-110696428D01*
X47069285Y-110791666D01*
X47164523Y-110886904D01*
X47259761Y-111077380D01*
X47259761Y-111363095D01*
X47164523Y-109934523D02*
X47259761Y-109744047D01*
X47259761Y-109363095D01*
X47164523Y-109172619D01*
X46974047Y-109077380D01*
X46878809Y-109077380D01*
X46688333Y-109172619D01*
X46593095Y-109363095D01*
X46593095Y-109648809D01*
X46497857Y-109839285D01*
X46307380Y-109934523D01*
X46212142Y-109934523D01*
X46021666Y-109839285D01*
X45926428Y-109648809D01*
X45926428Y-109363095D01*
X46021666Y-109172619D01*
X45926428Y-108505952D02*
X45926428Y-107744047D01*
X45259761Y-108220238D02*
X46974047Y-108220238D01*
X47164523Y-108125000D01*
X47259761Y-107934523D01*
X47259761Y-107744047D01*
X47259761Y-106791666D02*
X47164523Y-106982142D01*
X47069285Y-107077380D01*
X46878809Y-107172619D01*
X46307380Y-107172619D01*
X46116904Y-107077380D01*
X46021666Y-106982142D01*
X45926428Y-106791666D01*
X45926428Y-106505952D01*
X46021666Y-106315476D01*
X46116904Y-106220238D01*
X46307380Y-106125000D01*
X46878809Y-106125000D01*
X47069285Y-106220238D01*
X47164523Y-106315476D01*
X47259761Y-106505952D01*
X47259761Y-106791666D01*
X47259761Y-105267857D02*
X45926428Y-105267857D01*
X46307380Y-105267857D02*
X46116904Y-105172619D01*
X46021666Y-105077380D01*
X45926428Y-104886904D01*
X45926428Y-104696428D01*
X47259761Y-103744047D02*
X47164523Y-103934523D01*
X47069285Y-104029761D01*
X46878809Y-104125000D01*
X46307380Y-104125000D01*
X46116904Y-104029761D01*
X46021666Y-103934523D01*
X45926428Y-103744047D01*
X45926428Y-103458333D01*
X46021666Y-103267857D01*
X46116904Y-103172619D01*
X46307380Y-103077380D01*
X46878809Y-103077380D01*
X47069285Y-103172619D01*
X47164523Y-103267857D01*
X47259761Y-103458333D01*
X47259761Y-103744047D01*
X45926428Y-102410714D02*
X47259761Y-101934523D01*
X45926428Y-101458333D01*
X47164523Y-99934523D02*
X47259761Y-100125000D01*
X47259761Y-100505952D01*
X47164523Y-100696428D01*
X46974047Y-100791666D01*
X46212142Y-100791666D01*
X46021666Y-100696428D01*
X45926428Y-100505952D01*
X45926428Y-100125000D01*
X46021666Y-99934523D01*
X46212142Y-99839285D01*
X46402619Y-99839285D01*
X46593095Y-100791666D01*
X45926428Y-97744047D02*
X45926428Y-96982142D01*
X45259761Y-97458333D02*
X46974047Y-97458333D01*
X47164523Y-97363095D01*
X47259761Y-97172619D01*
X47259761Y-96982142D01*
X47164523Y-95553571D02*
X47259761Y-95744047D01*
X47259761Y-96125000D01*
X47164523Y-96315476D01*
X46974047Y-96410714D01*
X46212142Y-96410714D01*
X46021666Y-96315476D01*
X45926428Y-96125000D01*
X45926428Y-95744047D01*
X46021666Y-95553571D01*
X46212142Y-95458333D01*
X46402619Y-95458333D01*
X46593095Y-96410714D01*
X45926428Y-94601190D02*
X47926428Y-94601190D01*
X46021666Y-94601190D02*
X45926428Y-94410714D01*
X45926428Y-94029761D01*
X46021666Y-93839285D01*
X46116904Y-93744047D01*
X46307380Y-93648809D01*
X46878809Y-93648809D01*
X47069285Y-93744047D01*
X47164523Y-93839285D01*
X47259761Y-94029761D01*
X47259761Y-94410714D01*
X47164523Y-94601190D01*
X47259761Y-92505952D02*
X47164523Y-92696428D01*
X46974047Y-92791666D01*
X45259761Y-92791666D01*
X47259761Y-91458333D02*
X47164523Y-91648809D01*
X47069285Y-91744047D01*
X46878809Y-91839285D01*
X46307380Y-91839285D01*
X46116904Y-91744047D01*
X46021666Y-91648809D01*
X45926428Y-91458333D01*
X45926428Y-91172619D01*
X46021666Y-90982142D01*
X46116904Y-90886904D01*
X46307380Y-90791666D01*
X46878809Y-90791666D01*
X47069285Y-90886904D01*
X47164523Y-90982142D01*
X47259761Y-91172619D01*
X47259761Y-91458333D01*
X45926428Y-90220238D02*
X45926428Y-89458333D01*
X45259761Y-89934523D02*
X46974047Y-89934523D01*
X47164523Y-89839285D01*
X47259761Y-89648809D01*
X47259761Y-89458333D01*
X45926428Y-88982142D02*
X47259761Y-88505952D01*
X45926428Y-88029761D02*
X47259761Y-88505952D01*
X47735952Y-88696428D01*
X47831190Y-88791666D01*
X47926428Y-88982142D01*
X45926428Y-85934523D02*
X47259761Y-85458333D01*
X45926428Y-84982142D01*
X47259761Y-83172619D02*
X47259761Y-84315476D01*
X47259761Y-83744047D02*
X45259761Y-83744047D01*
X45545476Y-83934523D01*
X45735952Y-84125000D01*
X45831190Y-84315476D01*
X47069285Y-82315476D02*
X47164523Y-82220238D01*
X47259761Y-82315476D01*
X47164523Y-82410714D01*
X47069285Y-82315476D01*
X47259761Y-82315476D01*
X45259761Y-80982142D02*
X45259761Y-80791666D01*
X45355000Y-80601190D01*
X45450238Y-80505952D01*
X45640714Y-80410714D01*
X46021666Y-80315476D01*
X46497857Y-80315476D01*
X46878809Y-80410714D01*
X47069285Y-80505952D01*
X47164523Y-80601190D01*
X47259761Y-80791666D01*
X47259761Y-80982142D01*
X47164523Y-81172619D01*
X47069285Y-81267857D01*
X46878809Y-81363095D01*
X46497857Y-81458333D01*
X46021666Y-81458333D01*
X45640714Y-81363095D01*
X45450238Y-81267857D01*
X45355000Y-81172619D01*
X45259761Y-80982142D01*
D12*
X121920000Y-163830000D02*
X138430000Y-163830000D01*
X121920000Y-153670000D02*
X121920000Y-163830000D01*
X126365000Y-153670000D02*
X121920000Y-153670000D01*
X126365000Y-148590000D02*
X126365000Y-153670000D01*
X133985000Y-148590000D02*
X126365000Y-148590000D01*
X133985000Y-153670000D02*
X133985000Y-148590000D01*
X138430000Y-153670000D02*
X133985000Y-153670000D01*
X138430000Y-163830000D02*
X138430000Y-153670000D01*
D13*
X89598500Y-96139000D02*
G75*
G03*
X89598500Y-96139000I-63500J0D01*
G01*
X89662000Y-96139000D02*
G75*
G03*
X89662000Y-96139000I-127000J0D01*
G01*
X89725500Y-96139000D02*
G75*
G03*
X89725500Y-96139000I-190500J0D01*
G01*
D12*
X89765000Y-93218000D02*
X86765000Y-93218000D01*
X88265000Y-96012000D02*
X86765000Y-96012000D01*
X52006500Y-147105000D02*
X52006500Y-148805000D01*
X52006500Y-148805000D02*
X55025000Y-148805000D01*
X52006500Y-147105000D02*
X55025000Y-147105000D01*
X53721000Y-149606000D02*
X53721000Y-150241000D01*
X51562000Y-149606000D02*
X53721000Y-149606000D01*
X44069000Y-149606000D02*
X46355000Y-149606000D01*
X44069000Y-163830000D02*
X44069000Y-149606000D01*
X53721000Y-163830000D02*
X44069000Y-163830000D01*
X53721000Y-155575000D02*
X53721000Y-163830000D01*
X84509000Y-87750000D02*
X83210000Y-87750000D01*
X83210000Y-86800000D02*
X82110000Y-86800000D01*
X83210000Y-78300000D02*
X78085000Y-78300000D01*
X83210000Y-77350000D02*
X83210000Y-78300000D01*
X83210000Y-87750000D02*
X83210000Y-86800000D01*
X84509000Y-77350000D02*
X83210000Y-77350000D01*
D13*
X126301500Y-108267500D02*
G75*
G03*
X126301500Y-108267500I-63500J0D01*
G01*
X126365000Y-108267500D02*
G75*
G03*
X126365000Y-108267500I-127000J0D01*
G01*
X126428500Y-108267500D02*
G75*
G03*
X126428500Y-108267500I-190500J0D01*
G01*
D12*
X126809500Y-108458000D02*
X126492000Y-108458000D01*
X127508000Y-108458000D02*
X126809500Y-108458000D01*
X127508000Y-111252000D02*
X126492000Y-111252000D01*
D13*
X126301500Y-100012500D02*
G75*
G03*
X126301500Y-100012500I-63500J0D01*
G01*
X126365000Y-100012500D02*
G75*
G03*
X126365000Y-100012500I-127000J0D01*
G01*
X126428500Y-100012500D02*
G75*
G03*
X126428500Y-100012500I-190500J0D01*
G01*
D12*
X126809500Y-100203000D02*
X126492000Y-100203000D01*
X127508000Y-100203000D02*
X126809500Y-100203000D01*
X127508000Y-102997000D02*
X126492000Y-102997000D01*
X112903000Y-89789000D02*
X113157000Y-89789000D01*
X112903000Y-71501000D02*
X112903000Y-89789000D01*
X113157000Y-71501000D02*
X112903000Y-71501000D01*
X136567680Y-69811691D02*
X137117680Y-69811691D01*
X144545000Y-71520000D02*
X144545000Y-73215000D01*
X142830000Y-71520000D02*
X144545000Y-71520000D01*
X136827680Y-70411691D02*
X136567680Y-69811691D01*
X137117680Y-69811691D02*
X136827680Y-70411691D01*
X142835000Y-89775000D02*
X144545000Y-89775000D01*
X144545000Y-89775000D02*
X144545000Y-88085000D01*
X124845000Y-117260000D02*
X124845000Y-96880000D01*
X124845000Y-117260000D02*
X122185000Y-117260000D01*
X124845000Y-96880000D02*
X122185000Y-96880000D01*
X122185000Y-117260000D02*
X122185000Y-96880000D01*
X124845000Y-119860000D02*
X123515000Y-119860000D01*
X124845000Y-118530000D02*
X124845000Y-119860000D01*
X89420000Y-157275000D02*
X93270000Y-157275000D01*
X93307559Y-157266334D02*
G75*
G03*
X89420000Y-157275000I-1947559J1691334D01*
G01*
X107569000Y-82423000D02*
X104521000Y-82423000D01*
X107569000Y-78867000D02*
X104521000Y-78867000D01*
X107823000Y-80899000D02*
X107823000Y-80391000D01*
X104267000Y-80899000D02*
X104267000Y-80391000D01*
X107569000Y-77343000D02*
X104521000Y-77343000D01*
X107569000Y-73787000D02*
X104521000Y-73787000D01*
X107823000Y-75819000D02*
X107823000Y-75311000D01*
X104267000Y-75819000D02*
X104267000Y-75311000D01*
X94400000Y-156908500D02*
X94400000Y-153890000D01*
X96100000Y-156908500D02*
X96100000Y-153890000D01*
X94400000Y-156908500D02*
X96100000Y-156908500D01*
X118364000Y-92100000D02*
X120396000Y-92100000D01*
X118364000Y-95860000D02*
X120396000Y-95860000D01*
X120396000Y-92100000D02*
X120396000Y-95860000D01*
X118364000Y-92100000D02*
X118364000Y-95860000D01*
X67945000Y-133223000D02*
X67945000Y-131445000D01*
X67945000Y-131445000D02*
X80645000Y-131445000D01*
X80645000Y-131445000D02*
X80645000Y-133223000D01*
X67945000Y-142367000D02*
X67945000Y-144145000D01*
X67945000Y-144145000D02*
X72390000Y-144145000D01*
X76200000Y-144145000D02*
X80645000Y-144145000D01*
X80645000Y-144145000D02*
X80645000Y-142367000D01*
X67945000Y-137287000D02*
X67945000Y-138303000D01*
X80645000Y-137287000D02*
X80645000Y-138303000D01*
X85150000Y-133223000D02*
X85150000Y-131445000D01*
X85150000Y-131445000D02*
X97850000Y-131445000D01*
X97850000Y-131445000D02*
X97850000Y-133223000D01*
X85150000Y-142367000D02*
X85150000Y-144145000D01*
X85150000Y-144145000D02*
X89595000Y-144145000D01*
X93405000Y-144145000D02*
X97850000Y-144145000D01*
X97850000Y-144145000D02*
X97850000Y-142367000D01*
X85150000Y-137287000D02*
X85150000Y-138303000D01*
X97850000Y-137287000D02*
X97850000Y-138303000D01*
X102235000Y-133223000D02*
X102235000Y-131445000D01*
X102235000Y-131445000D02*
X114935000Y-131445000D01*
X114935000Y-131445000D02*
X114935000Y-133223000D01*
X102235000Y-142367000D02*
X102235000Y-144145000D01*
X102235000Y-144145000D02*
X106680000Y-144145000D01*
X110490000Y-144145000D02*
X114935000Y-144145000D01*
X114935000Y-144145000D02*
X114935000Y-142367000D01*
X102235000Y-137287000D02*
X102235000Y-138303000D01*
X114935000Y-137287000D02*
X114935000Y-138303000D01*
X74955000Y-130556000D02*
X74955000Y-128524000D01*
X78715000Y-130556000D02*
X78715000Y-128524000D01*
X74955000Y-128524000D02*
X78715000Y-128524000D01*
X74955000Y-130556000D02*
X78715000Y-130556000D01*
X92100000Y-130556000D02*
X92100000Y-128524000D01*
X95860000Y-130556000D02*
X95860000Y-128524000D01*
X92100000Y-128524000D02*
X95860000Y-128524000D01*
X92100000Y-130556000D02*
X95860000Y-130556000D01*
X109245000Y-130556000D02*
X109245000Y-128524000D01*
X113005000Y-130556000D02*
X113005000Y-128524000D01*
X109245000Y-128524000D02*
X113005000Y-128524000D01*
X109245000Y-130556000D02*
X113005000Y-130556000D01*
X122936000Y-95860000D02*
X120904000Y-95860000D01*
X122936000Y-92100000D02*
X120904000Y-92100000D01*
X120904000Y-95860000D02*
X120904000Y-92100000D01*
X122936000Y-95860000D02*
X122936000Y-92100000D01*
X125666500Y-117895000D02*
X128685000Y-117895000D01*
X125666500Y-119595000D02*
X128685000Y-119595000D01*
X125666500Y-117895000D02*
X125666500Y-119595000D01*
X125945000Y-149161500D02*
X125945000Y-152180000D01*
X124245000Y-149161500D02*
X124245000Y-152180000D01*
X125945000Y-149161500D02*
X124245000Y-149161500D01*
X74358500Y-76415000D02*
X71340000Y-76415000D01*
X74358500Y-74715000D02*
X71340000Y-74715000D01*
X74358500Y-76415000D02*
X74358500Y-74715000D01*
X111506000Y-78765000D02*
X109474000Y-78765000D01*
X109474000Y-82525000D02*
X109474000Y-78765000D01*
X111506000Y-82525000D02*
X109474000Y-82525000D01*
X111506000Y-82525000D02*
X111506000Y-78765000D01*
X111506000Y-73685000D02*
X109474000Y-73685000D01*
X109474000Y-77445000D02*
X109474000Y-73685000D01*
X111506000Y-77445000D02*
X109474000Y-77445000D01*
X111506000Y-77445000D02*
X111506000Y-73685000D01*
X93091000Y-92100000D02*
X91059000Y-92100000D01*
X91059000Y-95860000D02*
X91059000Y-92100000D01*
X93091000Y-95860000D02*
X91059000Y-95860000D01*
X93091000Y-95860000D02*
X93091000Y-92100000D01*
X77216000Y-81940000D02*
X75184000Y-81940000D01*
X75184000Y-85700000D02*
X75184000Y-81940000D01*
X77216000Y-85700000D02*
X75184000Y-85700000D01*
X77216000Y-85700000D02*
X77216000Y-81940000D01*
X81890000Y-90551000D02*
X81890000Y-88519000D01*
X78130000Y-88519000D02*
X81890000Y-88519000D01*
X78130000Y-90551000D02*
X78130000Y-88519000D01*
X78130000Y-90551000D02*
X81890000Y-90551000D01*
X90145000Y-92456000D02*
X90145000Y-90424000D01*
X86385000Y-90424000D02*
X90145000Y-90424000D01*
X86385000Y-92456000D02*
X86385000Y-90424000D01*
X86385000Y-92456000D02*
X90145000Y-92456000D01*
X84836000Y-92100000D02*
X82804000Y-92100000D01*
X82804000Y-95860000D02*
X82804000Y-92100000D01*
X84836000Y-95860000D02*
X82804000Y-95860000D01*
X84836000Y-95860000D02*
X84836000Y-92100000D01*
X75184000Y-81555000D02*
X77216000Y-81555000D01*
X77216000Y-77795000D02*
X77216000Y-81555000D01*
X75184000Y-77795000D02*
X77216000Y-77795000D01*
X75184000Y-77795000D02*
X75184000Y-81555000D01*
D14*
D12*
X135151904Y-152852380D02*
X135151904Y-151852380D01*
X135532857Y-151852380D01*
X135628095Y-151900000D01*
X135675714Y-151947619D01*
X135723333Y-152042857D01*
X135723333Y-152185714D01*
X135675714Y-152280952D01*
X135628095Y-152328571D01*
X135532857Y-152376190D01*
X135151904Y-152376190D01*
X136675714Y-152852380D02*
X136104285Y-152852380D01*
X136390000Y-152852380D02*
X136390000Y-151852380D01*
X136294761Y-151995238D01*
X136199523Y-152090476D01*
X136104285Y-152138095D01*
X90678095Y-96607380D02*
X90678095Y-97416904D01*
X90725714Y-97512142D01*
X90773333Y-97559761D01*
X90868571Y-97607380D01*
X91059047Y-97607380D01*
X91154285Y-97559761D01*
X91201904Y-97512142D01*
X91249523Y-97416904D01*
X91249523Y-96607380D01*
X91678095Y-96702619D02*
X91725714Y-96655000D01*
X91820952Y-96607380D01*
X92059047Y-96607380D01*
X92154285Y-96655000D01*
X92201904Y-96702619D01*
X92249523Y-96797857D01*
X92249523Y-96893095D01*
X92201904Y-97035952D01*
X91630476Y-97607380D01*
X92249523Y-97607380D01*
X52125714Y-146502380D02*
X52125714Y-145502380D01*
X52363809Y-145502380D01*
X52506666Y-145550000D01*
X52601904Y-145645238D01*
X52649523Y-145740476D01*
X52697142Y-145930952D01*
X52697142Y-146073809D01*
X52649523Y-146264285D01*
X52601904Y-146359523D01*
X52506666Y-146454761D01*
X52363809Y-146502380D01*
X52125714Y-146502380D01*
X53649523Y-146502380D02*
X53078095Y-146502380D01*
X53363809Y-146502380D02*
X53363809Y-145502380D01*
X53268571Y-145645238D01*
X53173333Y-145740476D01*
X53078095Y-145788095D01*
X54030476Y-145597619D02*
X54078095Y-145550000D01*
X54173333Y-145502380D01*
X54411428Y-145502380D01*
X54506666Y-145550000D01*
X54554285Y-145597619D01*
X54601904Y-145692857D01*
X54601904Y-145788095D01*
X54554285Y-145930952D01*
X53982857Y-146502380D01*
X54601904Y-146502380D01*
D14*
D12*
X42632380Y-153368333D02*
X43346666Y-153368333D01*
X43489523Y-153415952D01*
X43584761Y-153511190D01*
X43632380Y-153654047D01*
X43632380Y-153749285D01*
X43632380Y-152368333D02*
X43632380Y-152939761D01*
X43632380Y-152654047D02*
X42632380Y-152654047D01*
X42775238Y-152749285D01*
X42870476Y-152844523D01*
X42918095Y-152939761D01*
X85398095Y-75652380D02*
X85398095Y-76461904D01*
X85445714Y-76557142D01*
X85493333Y-76604761D01*
X85588571Y-76652380D01*
X85779047Y-76652380D01*
X85874285Y-76604761D01*
X85921904Y-76557142D01*
X85969523Y-76461904D01*
X85969523Y-75652380D01*
X86969523Y-76652380D02*
X86398095Y-76652380D01*
X86683809Y-76652380D02*
X86683809Y-75652380D01*
X86588571Y-75795238D01*
X86493333Y-75890476D01*
X86398095Y-75938095D01*
X129992380Y-110593095D02*
X128992380Y-110593095D01*
X128992380Y-110355000D01*
X129040000Y-110212142D01*
X129135238Y-110116904D01*
X129230476Y-110069285D01*
X129420952Y-110021666D01*
X129563809Y-110021666D01*
X129754285Y-110069285D01*
X129849523Y-110116904D01*
X129944761Y-110212142D01*
X129992380Y-110355000D01*
X129992380Y-110593095D01*
X128992380Y-109688333D02*
X128992380Y-109021666D01*
X129992380Y-109450238D01*
X129992380Y-102338095D02*
X128992380Y-102338095D01*
X128992380Y-102100000D01*
X129040000Y-101957142D01*
X129135238Y-101861904D01*
X129230476Y-101814285D01*
X129420952Y-101766666D01*
X129563809Y-101766666D01*
X129754285Y-101814285D01*
X129849523Y-101861904D01*
X129944761Y-101957142D01*
X129992380Y-102100000D01*
X129992380Y-102338095D01*
X128992380Y-100909523D02*
X128992380Y-101100000D01*
X129040000Y-101195238D01*
X129087619Y-101242857D01*
X129230476Y-101338095D01*
X129420952Y-101385714D01*
X129801904Y-101385714D01*
X129897142Y-101338095D01*
X129944761Y-101290476D01*
X129992380Y-101195238D01*
X129992380Y-101004761D01*
X129944761Y-100909523D01*
X129897142Y-100861904D01*
X129801904Y-100814285D01*
X129563809Y-100814285D01*
X129468571Y-100861904D01*
X129420952Y-100909523D01*
X129373333Y-101004761D01*
X129373333Y-101195238D01*
X129420952Y-101290476D01*
X129468571Y-101338095D01*
X129563809Y-101385714D01*
X131318095Y-91527380D02*
X131318095Y-92336904D01*
X131365714Y-92432142D01*
X131413333Y-92479761D01*
X131508571Y-92527380D01*
X131699047Y-92527380D01*
X131794285Y-92479761D01*
X131841904Y-92432142D01*
X131889523Y-92336904D01*
X131889523Y-91527380D01*
X132270476Y-91527380D02*
X132889523Y-91527380D01*
X132556190Y-91908333D01*
X132699047Y-91908333D01*
X132794285Y-91955952D01*
X132841904Y-92003571D01*
X132889523Y-92098809D01*
X132889523Y-92336904D01*
X132841904Y-92432142D01*
X132794285Y-92479761D01*
X132699047Y-92527380D01*
X132413333Y-92527380D01*
X132318095Y-92479761D01*
X132270476Y-92432142D01*
X122451904Y-121737380D02*
X122451904Y-120737380D01*
X122832857Y-120737380D01*
X122928095Y-120785000D01*
X122975714Y-120832619D01*
X123023333Y-120927857D01*
X123023333Y-121070714D01*
X122975714Y-121165952D01*
X122928095Y-121213571D01*
X122832857Y-121261190D01*
X122451904Y-121261190D01*
X123404285Y-120832619D02*
X123451904Y-120785000D01*
X123547142Y-120737380D01*
X123785238Y-120737380D01*
X123880476Y-120785000D01*
X123928095Y-120832619D01*
X123975714Y-120927857D01*
X123975714Y-121023095D01*
X123928095Y-121165952D01*
X123356666Y-121737380D01*
X123975714Y-121737380D01*
X87082380Y-155955904D02*
X87891904Y-155955904D01*
X87987142Y-155908285D01*
X88034761Y-155860666D01*
X88082380Y-155765428D01*
X88082380Y-155574952D01*
X88034761Y-155479714D01*
X87987142Y-155432095D01*
X87891904Y-155384476D01*
X87082380Y-155384476D01*
X87415714Y-154479714D02*
X88082380Y-154479714D01*
X87034761Y-154717809D02*
X87749047Y-154955904D01*
X87749047Y-154336857D01*
X99631666Y-82319761D02*
X99774523Y-82367380D01*
X100012619Y-82367380D01*
X100107857Y-82319761D01*
X100155476Y-82272142D01*
X100203095Y-82176904D01*
X100203095Y-82081666D01*
X100155476Y-81986428D01*
X100107857Y-81938809D01*
X100012619Y-81891190D01*
X99822142Y-81843571D01*
X99726904Y-81795952D01*
X99679285Y-81748333D01*
X99631666Y-81653095D01*
X99631666Y-81557857D01*
X99679285Y-81462619D01*
X99726904Y-81415000D01*
X99822142Y-81367380D01*
X100060238Y-81367380D01*
X100203095Y-81415000D01*
X100536428Y-81367380D02*
X100774523Y-82367380D01*
X100965000Y-81653095D01*
X101155476Y-82367380D01*
X101393571Y-81367380D01*
X101726904Y-81462619D02*
X101774523Y-81415000D01*
X101869761Y-81367380D01*
X102107857Y-81367380D01*
X102203095Y-81415000D01*
X102250714Y-81462619D01*
X102298333Y-81557857D01*
X102298333Y-81653095D01*
X102250714Y-81795952D01*
X101679285Y-82367380D01*
X102298333Y-82367380D01*
X99631666Y-77239761D02*
X99774523Y-77287380D01*
X100012619Y-77287380D01*
X100107857Y-77239761D01*
X100155476Y-77192142D01*
X100203095Y-77096904D01*
X100203095Y-77001666D01*
X100155476Y-76906428D01*
X100107857Y-76858809D01*
X100012619Y-76811190D01*
X99822142Y-76763571D01*
X99726904Y-76715952D01*
X99679285Y-76668333D01*
X99631666Y-76573095D01*
X99631666Y-76477857D01*
X99679285Y-76382619D01*
X99726904Y-76335000D01*
X99822142Y-76287380D01*
X100060238Y-76287380D01*
X100203095Y-76335000D01*
X100536428Y-76287380D02*
X100774523Y-77287380D01*
X100965000Y-76573095D01*
X101155476Y-77287380D01*
X101393571Y-76287380D01*
X102298333Y-77287380D02*
X101726904Y-77287380D01*
X102012619Y-77287380D02*
X102012619Y-76287380D01*
X101917380Y-76430238D01*
X101822142Y-76525476D01*
X101726904Y-76573095D01*
X96972380Y-153138095D02*
X95972380Y-153138095D01*
X95972380Y-152900000D01*
X96020000Y-152757142D01*
X96115238Y-152661904D01*
X96210476Y-152614285D01*
X96400952Y-152566666D01*
X96543809Y-152566666D01*
X96734285Y-152614285D01*
X96829523Y-152661904D01*
X96924761Y-152757142D01*
X96972380Y-152900000D01*
X96972380Y-153138095D01*
X96305714Y-151709523D02*
X96972380Y-151709523D01*
X95924761Y-151947619D02*
X96639047Y-152185714D01*
X96639047Y-151566666D01*
X117927380Y-94146666D02*
X117451190Y-94480000D01*
X117927380Y-94718095D02*
X116927380Y-94718095D01*
X116927380Y-94337142D01*
X116975000Y-94241904D01*
X117022619Y-94194285D01*
X117117857Y-94146666D01*
X117260714Y-94146666D01*
X117355952Y-94194285D01*
X117403571Y-94241904D01*
X117451190Y-94337142D01*
X117451190Y-94718095D01*
X116927380Y-93241904D02*
X116927380Y-93718095D01*
X117403571Y-93765714D01*
X117355952Y-93718095D01*
X117308333Y-93622857D01*
X117308333Y-93384761D01*
X117355952Y-93289523D01*
X117403571Y-93241904D01*
X117498809Y-93194285D01*
X117736904Y-93194285D01*
X117832142Y-93241904D01*
X117879761Y-93289523D01*
X117927380Y-93384761D01*
X117927380Y-93622857D01*
X117879761Y-93718095D01*
X117832142Y-93765714D01*
X70421666Y-130579761D02*
X70564523Y-130627380D01*
X70802619Y-130627380D01*
X70897857Y-130579761D01*
X70945476Y-130532142D01*
X70993095Y-130436904D01*
X70993095Y-130341666D01*
X70945476Y-130246428D01*
X70897857Y-130198809D01*
X70802619Y-130151190D01*
X70612142Y-130103571D01*
X70516904Y-130055952D01*
X70469285Y-130008333D01*
X70421666Y-129913095D01*
X70421666Y-129817857D01*
X70469285Y-129722619D01*
X70516904Y-129675000D01*
X70612142Y-129627380D01*
X70850238Y-129627380D01*
X70993095Y-129675000D01*
X71326428Y-129627380D02*
X71564523Y-130627380D01*
X71755000Y-129913095D01*
X71945476Y-130627380D01*
X72183571Y-129627380D01*
X73040714Y-129627380D02*
X72564523Y-129627380D01*
X72516904Y-130103571D01*
X72564523Y-130055952D01*
X72659761Y-130008333D01*
X72897857Y-130008333D01*
X72993095Y-130055952D01*
X73040714Y-130103571D01*
X73088333Y-130198809D01*
X73088333Y-130436904D01*
X73040714Y-130532142D01*
X72993095Y-130579761D01*
X72897857Y-130627380D01*
X72659761Y-130627380D01*
X72564523Y-130579761D01*
X72516904Y-130532142D01*
X87566666Y-130579761D02*
X87709523Y-130627380D01*
X87947619Y-130627380D01*
X88042857Y-130579761D01*
X88090476Y-130532142D01*
X88138095Y-130436904D01*
X88138095Y-130341666D01*
X88090476Y-130246428D01*
X88042857Y-130198809D01*
X87947619Y-130151190D01*
X87757142Y-130103571D01*
X87661904Y-130055952D01*
X87614285Y-130008333D01*
X87566666Y-129913095D01*
X87566666Y-129817857D01*
X87614285Y-129722619D01*
X87661904Y-129675000D01*
X87757142Y-129627380D01*
X87995238Y-129627380D01*
X88138095Y-129675000D01*
X88471428Y-129627380D02*
X88709523Y-130627380D01*
X88900000Y-129913095D01*
X89090476Y-130627380D01*
X89328571Y-129627380D01*
X90138095Y-129960714D02*
X90138095Y-130627380D01*
X89900000Y-129579761D02*
X89661904Y-130294047D01*
X90280952Y-130294047D01*
X104711666Y-130579761D02*
X104854523Y-130627380D01*
X105092619Y-130627380D01*
X105187857Y-130579761D01*
X105235476Y-130532142D01*
X105283095Y-130436904D01*
X105283095Y-130341666D01*
X105235476Y-130246428D01*
X105187857Y-130198809D01*
X105092619Y-130151190D01*
X104902142Y-130103571D01*
X104806904Y-130055952D01*
X104759285Y-130008333D01*
X104711666Y-129913095D01*
X104711666Y-129817857D01*
X104759285Y-129722619D01*
X104806904Y-129675000D01*
X104902142Y-129627380D01*
X105140238Y-129627380D01*
X105283095Y-129675000D01*
X105616428Y-129627380D02*
X105854523Y-130627380D01*
X106045000Y-129913095D01*
X106235476Y-130627380D01*
X106473571Y-129627380D01*
X106759285Y-129627380D02*
X107378333Y-129627380D01*
X107045000Y-130008333D01*
X107187857Y-130008333D01*
X107283095Y-130055952D01*
X107330714Y-130103571D01*
X107378333Y-130198809D01*
X107378333Y-130436904D01*
X107330714Y-130532142D01*
X107283095Y-130579761D01*
X107187857Y-130627380D01*
X106902142Y-130627380D01*
X106806904Y-130579761D01*
X106759285Y-130532142D01*
X76922333Y-128214380D02*
X76589000Y-127738190D01*
X76350904Y-128214380D02*
X76350904Y-127214380D01*
X76731857Y-127214380D01*
X76827095Y-127262000D01*
X76874714Y-127309619D01*
X76922333Y-127404857D01*
X76922333Y-127547714D01*
X76874714Y-127642952D01*
X76827095Y-127690571D01*
X76731857Y-127738190D01*
X76350904Y-127738190D01*
X77398523Y-128214380D02*
X77589000Y-128214380D01*
X77684238Y-128166761D01*
X77731857Y-128119142D01*
X77827095Y-127976285D01*
X77874714Y-127785809D01*
X77874714Y-127404857D01*
X77827095Y-127309619D01*
X77779476Y-127262000D01*
X77684238Y-127214380D01*
X77493761Y-127214380D01*
X77398523Y-127262000D01*
X77350904Y-127309619D01*
X77303285Y-127404857D01*
X77303285Y-127642952D01*
X77350904Y-127738190D01*
X77398523Y-127785809D01*
X77493761Y-127833428D01*
X77684238Y-127833428D01*
X77779476Y-127785809D01*
X77827095Y-127738190D01*
X77874714Y-127642952D01*
X94067333Y-128214380D02*
X93734000Y-127738190D01*
X93495904Y-128214380D02*
X93495904Y-127214380D01*
X93876857Y-127214380D01*
X93972095Y-127262000D01*
X94019714Y-127309619D01*
X94067333Y-127404857D01*
X94067333Y-127547714D01*
X94019714Y-127642952D01*
X93972095Y-127690571D01*
X93876857Y-127738190D01*
X93495904Y-127738190D01*
X94638761Y-127642952D02*
X94543523Y-127595333D01*
X94495904Y-127547714D01*
X94448285Y-127452476D01*
X94448285Y-127404857D01*
X94495904Y-127309619D01*
X94543523Y-127262000D01*
X94638761Y-127214380D01*
X94829238Y-127214380D01*
X94924476Y-127262000D01*
X94972095Y-127309619D01*
X95019714Y-127404857D01*
X95019714Y-127452476D01*
X94972095Y-127547714D01*
X94924476Y-127595333D01*
X94829238Y-127642952D01*
X94638761Y-127642952D01*
X94543523Y-127690571D01*
X94495904Y-127738190D01*
X94448285Y-127833428D01*
X94448285Y-128023904D01*
X94495904Y-128119142D01*
X94543523Y-128166761D01*
X94638761Y-128214380D01*
X94829238Y-128214380D01*
X94924476Y-128166761D01*
X94972095Y-128119142D01*
X95019714Y-128023904D01*
X95019714Y-127833428D01*
X94972095Y-127738190D01*
X94924476Y-127690571D01*
X94829238Y-127642952D01*
X111212333Y-128214380D02*
X110879000Y-127738190D01*
X110640904Y-128214380D02*
X110640904Y-127214380D01*
X111021857Y-127214380D01*
X111117095Y-127262000D01*
X111164714Y-127309619D01*
X111212333Y-127404857D01*
X111212333Y-127547714D01*
X111164714Y-127642952D01*
X111117095Y-127690571D01*
X111021857Y-127738190D01*
X110640904Y-127738190D01*
X111545666Y-127214380D02*
X112212333Y-127214380D01*
X111783761Y-128214380D01*
X124277380Y-92876666D02*
X123801190Y-93210000D01*
X124277380Y-93448095D02*
X123277380Y-93448095D01*
X123277380Y-93067142D01*
X123325000Y-92971904D01*
X123372619Y-92924285D01*
X123467857Y-92876666D01*
X123610714Y-92876666D01*
X123705952Y-92924285D01*
X123753571Y-92971904D01*
X123801190Y-93067142D01*
X123801190Y-93448095D01*
X123610714Y-92019523D02*
X124277380Y-92019523D01*
X123229761Y-92257619D02*
X123944047Y-92495714D01*
X123944047Y-91876666D01*
X126420714Y-117419380D02*
X126420714Y-116419380D01*
X126658809Y-116419380D01*
X126801666Y-116467000D01*
X126896904Y-116562238D01*
X126944523Y-116657476D01*
X126992142Y-116847952D01*
X126992142Y-116990809D01*
X126944523Y-117181285D01*
X126896904Y-117276523D01*
X126801666Y-117371761D01*
X126658809Y-117419380D01*
X126420714Y-117419380D01*
X127944523Y-117419380D02*
X127373095Y-117419380D01*
X127658809Y-117419380D02*
X127658809Y-116419380D01*
X127563571Y-116562238D01*
X127468333Y-116657476D01*
X127373095Y-116705095D01*
X128896904Y-117419380D02*
X128325476Y-117419380D01*
X128611190Y-117419380D02*
X128611190Y-116419380D01*
X128515952Y-116562238D01*
X128420714Y-116657476D01*
X128325476Y-116705095D01*
X123642380Y-151233095D02*
X122642380Y-151233095D01*
X122642380Y-150995000D01*
X122690000Y-150852142D01*
X122785238Y-150756904D01*
X122880476Y-150709285D01*
X123070952Y-150661666D01*
X123213809Y-150661666D01*
X123404285Y-150709285D01*
X123499523Y-150756904D01*
X123594761Y-150852142D01*
X123642380Y-150995000D01*
X123642380Y-151233095D01*
X122737619Y-150280714D02*
X122690000Y-150233095D01*
X122642380Y-150137857D01*
X122642380Y-149899761D01*
X122690000Y-149804523D01*
X122737619Y-149756904D01*
X122832857Y-149709285D01*
X122928095Y-149709285D01*
X123070952Y-149756904D01*
X123642380Y-150328333D01*
X123642380Y-149709285D01*
X69397619Y-74826904D02*
X70397619Y-74826904D01*
X70397619Y-75065000D01*
X70350000Y-75207857D01*
X70254761Y-75303095D01*
X70159523Y-75350714D01*
X69969047Y-75398333D01*
X69826190Y-75398333D01*
X69635714Y-75350714D01*
X69540476Y-75303095D01*
X69445238Y-75207857D01*
X69397619Y-75065000D01*
X69397619Y-74826904D01*
X69397619Y-76350714D02*
X69397619Y-75779285D01*
X69397619Y-76065000D02*
X70397619Y-76065000D01*
X70254761Y-75969761D01*
X70159523Y-75874523D01*
X70111904Y-75779285D01*
X112117142Y-85097857D02*
X112164761Y-85145476D01*
X112212380Y-85288333D01*
X112212380Y-85383571D01*
X112164761Y-85526428D01*
X112069523Y-85621666D01*
X111974285Y-85669285D01*
X111783809Y-85716904D01*
X111640952Y-85716904D01*
X111450476Y-85669285D01*
X111355238Y-85621666D01*
X111260000Y-85526428D01*
X111212380Y-85383571D01*
X111212380Y-85288333D01*
X111260000Y-85145476D01*
X111307619Y-85097857D01*
X112212380Y-84145476D02*
X112212380Y-84716904D01*
X112212380Y-84431190D02*
X111212380Y-84431190D01*
X111355238Y-84526428D01*
X111450476Y-84621666D01*
X111498095Y-84716904D01*
X111212380Y-83812142D02*
X111212380Y-83193095D01*
X111593333Y-83526428D01*
X111593333Y-83383571D01*
X111640952Y-83288333D01*
X111688571Y-83240714D01*
X111783809Y-83193095D01*
X112021904Y-83193095D01*
X112117142Y-83240714D01*
X112164761Y-83288333D01*
X112212380Y-83383571D01*
X112212380Y-83669285D01*
X112164761Y-83764523D01*
X112117142Y-83812142D01*
X110847142Y-72397857D02*
X110894761Y-72445476D01*
X110942380Y-72588333D01*
X110942380Y-72683571D01*
X110894761Y-72826428D01*
X110799523Y-72921666D01*
X110704285Y-72969285D01*
X110513809Y-73016904D01*
X110370952Y-73016904D01*
X110180476Y-72969285D01*
X110085238Y-72921666D01*
X109990000Y-72826428D01*
X109942380Y-72683571D01*
X109942380Y-72588333D01*
X109990000Y-72445476D01*
X110037619Y-72397857D01*
X110942380Y-71445476D02*
X110942380Y-72016904D01*
X110942380Y-71731190D02*
X109942380Y-71731190D01*
X110085238Y-71826428D01*
X110180476Y-71921666D01*
X110228095Y-72016904D01*
X110037619Y-71064523D02*
X109990000Y-71016904D01*
X109942380Y-70921666D01*
X109942380Y-70683571D01*
X109990000Y-70588333D01*
X110037619Y-70540714D01*
X110132857Y-70493095D01*
X110228095Y-70493095D01*
X110370952Y-70540714D01*
X110942380Y-71112142D01*
X110942380Y-70493095D01*
X94337142Y-92876666D02*
X94384761Y-92924285D01*
X94432380Y-93067142D01*
X94432380Y-93162380D01*
X94384761Y-93305238D01*
X94289523Y-93400476D01*
X94194285Y-93448095D01*
X94003809Y-93495714D01*
X93860952Y-93495714D01*
X93670476Y-93448095D01*
X93575238Y-93400476D01*
X93480000Y-93305238D01*
X93432380Y-93162380D01*
X93432380Y-93067142D01*
X93480000Y-92924285D01*
X93527619Y-92876666D01*
X93860952Y-92305238D02*
X93813333Y-92400476D01*
X93765714Y-92448095D01*
X93670476Y-92495714D01*
X93622857Y-92495714D01*
X93527619Y-92448095D01*
X93480000Y-92400476D01*
X93432380Y-92305238D01*
X93432380Y-92114761D01*
X93480000Y-92019523D01*
X93527619Y-91971904D01*
X93622857Y-91924285D01*
X93670476Y-91924285D01*
X93765714Y-91971904D01*
X93813333Y-92019523D01*
X93860952Y-92114761D01*
X93860952Y-92305238D01*
X93908571Y-92400476D01*
X93956190Y-92448095D01*
X94051428Y-92495714D01*
X94241904Y-92495714D01*
X94337142Y-92448095D01*
X94384761Y-92400476D01*
X94432380Y-92305238D01*
X94432380Y-92114761D01*
X94384761Y-92019523D01*
X94337142Y-91971904D01*
X94241904Y-91924285D01*
X94051428Y-91924285D01*
X93956190Y-91971904D01*
X93908571Y-92019523D01*
X93860952Y-92114761D01*
X74652142Y-83986666D02*
X74699761Y-84034285D01*
X74747380Y-84177142D01*
X74747380Y-84272380D01*
X74699761Y-84415238D01*
X74604523Y-84510476D01*
X74509285Y-84558095D01*
X74318809Y-84605714D01*
X74175952Y-84605714D01*
X73985476Y-84558095D01*
X73890238Y-84510476D01*
X73795000Y-84415238D01*
X73747380Y-84272380D01*
X73747380Y-84177142D01*
X73795000Y-84034285D01*
X73842619Y-83986666D01*
X73747380Y-83653333D02*
X73747380Y-82986666D01*
X74747380Y-83415238D01*
X79843333Y-91797142D02*
X79795714Y-91844761D01*
X79652857Y-91892380D01*
X79557619Y-91892380D01*
X79414761Y-91844761D01*
X79319523Y-91749523D01*
X79271904Y-91654285D01*
X79224285Y-91463809D01*
X79224285Y-91320952D01*
X79271904Y-91130476D01*
X79319523Y-91035238D01*
X79414761Y-90940000D01*
X79557619Y-90892380D01*
X79652857Y-90892380D01*
X79795714Y-90940000D01*
X79843333Y-90987619D01*
X80700476Y-90892380D02*
X80510000Y-90892380D01*
X80414761Y-90940000D01*
X80367142Y-90987619D01*
X80271904Y-91130476D01*
X80224285Y-91320952D01*
X80224285Y-91701904D01*
X80271904Y-91797142D01*
X80319523Y-91844761D01*
X80414761Y-91892380D01*
X80605238Y-91892380D01*
X80700476Y-91844761D01*
X80748095Y-91797142D01*
X80795714Y-91701904D01*
X80795714Y-91463809D01*
X80748095Y-91368571D01*
X80700476Y-91320952D01*
X80605238Y-91273333D01*
X80414761Y-91273333D01*
X80319523Y-91320952D01*
X80271904Y-91368571D01*
X80224285Y-91463809D01*
X88098333Y-89892142D02*
X88050714Y-89939761D01*
X87907857Y-89987380D01*
X87812619Y-89987380D01*
X87669761Y-89939761D01*
X87574523Y-89844523D01*
X87526904Y-89749285D01*
X87479285Y-89558809D01*
X87479285Y-89415952D01*
X87526904Y-89225476D01*
X87574523Y-89130238D01*
X87669761Y-89035000D01*
X87812619Y-88987380D01*
X87907857Y-88987380D01*
X88050714Y-89035000D01*
X88098333Y-89082619D01*
X89003095Y-88987380D02*
X88526904Y-88987380D01*
X88479285Y-89463571D01*
X88526904Y-89415952D01*
X88622142Y-89368333D01*
X88860238Y-89368333D01*
X88955476Y-89415952D01*
X89003095Y-89463571D01*
X89050714Y-89558809D01*
X89050714Y-89796904D01*
X89003095Y-89892142D01*
X88955476Y-89939761D01*
X88860238Y-89987380D01*
X88622142Y-89987380D01*
X88526904Y-89939761D01*
X88479285Y-89892142D01*
X82272142Y-93511666D02*
X82319761Y-93559285D01*
X82367380Y-93702142D01*
X82367380Y-93797380D01*
X82319761Y-93940238D01*
X82224523Y-94035476D01*
X82129285Y-94083095D01*
X81938809Y-94130714D01*
X81795952Y-94130714D01*
X81605476Y-94083095D01*
X81510238Y-94035476D01*
X81415000Y-93940238D01*
X81367380Y-93797380D01*
X81367380Y-93702142D01*
X81415000Y-93559285D01*
X81462619Y-93511666D01*
X81700714Y-92654523D02*
X82367380Y-92654523D01*
X81319761Y-92892619D02*
X82034047Y-93130714D01*
X82034047Y-92511666D01*
X73493333Y-77827142D02*
X73445714Y-77874761D01*
X73302857Y-77922380D01*
X73207619Y-77922380D01*
X73064761Y-77874761D01*
X72969523Y-77779523D01*
X72921904Y-77684285D01*
X72874285Y-77493809D01*
X72874285Y-77350952D01*
X72921904Y-77160476D01*
X72969523Y-77065238D01*
X73064761Y-76970000D01*
X73207619Y-76922380D01*
X73302857Y-76922380D01*
X73445714Y-76970000D01*
X73493333Y-77017619D01*
X73826666Y-76922380D02*
X74445714Y-76922380D01*
X74112380Y-77303333D01*
X74255238Y-77303333D01*
X74350476Y-77350952D01*
X74398095Y-77398571D01*
X74445714Y-77493809D01*
X74445714Y-77731904D01*
X74398095Y-77827142D01*
X74350476Y-77874761D01*
X74255238Y-77922380D01*
X73969523Y-77922380D01*
X73874285Y-77874761D01*
X73826666Y-77827142D01*
%LPC*%
D15*
X93345000Y-73660000D03*
X118110000Y-113030000D03*
X127635000Y-140970000D03*
X92075000Y-73660000D03*
X86995000Y-92790002D03*
X88475001Y-92920001D03*
X100965000Y-97790000D03*
X100965000Y-94615000D03*
X97790000Y-97790000D03*
X97790000Y-94615000D03*
X94615000Y-97790000D03*
X94615000Y-94615000D03*
X76835000Y-90805000D03*
X76200000Y-89535000D03*
X76200000Y-87630000D03*
X76200000Y-86360000D03*
X89535000Y-100330000D03*
X92075000Y-100330000D03*
X86995000Y-100330000D03*
X83820000Y-100330000D03*
X89535000Y-98425000D03*
X86995000Y-98425000D03*
X89535000Y-96520000D03*
X86995000Y-96520000D03*
X81280000Y-97790000D03*
X85090000Y-97790000D03*
X73025000Y-94950000D03*
X85205000Y-95135000D03*
X81280000Y-94950000D03*
X77470000Y-94950000D03*
X77470000Y-76200000D03*
X76200000Y-76200000D03*
X73660000Y-81280000D03*
X73660000Y-78740000D03*
X77470000Y-97790000D03*
X73025000Y-97790000D03*
X83820000Y-73660000D03*
X95885000Y-80645000D03*
X95885000Y-84455000D03*
X95885000Y-88265000D03*
X99060000Y-88265000D03*
X99060000Y-84455000D03*
X99060000Y-80645000D03*
X99060000Y-76835000D03*
X95885000Y-76835000D03*
X40005000Y-88900000D03*
X40005000Y-70485000D03*
X55245000Y-70485000D03*
X73025000Y-70485000D03*
X89535000Y-70485000D03*
X106680000Y-70485000D03*
X108585000Y-85725000D03*
X109855000Y-84455000D03*
X135600000Y-91150000D03*
X134330000Y-91150000D03*
X123825000Y-94615000D03*
X118745000Y-96520000D03*
X120015000Y-91440000D03*
X121920000Y-91440000D03*
X127000000Y-91440000D03*
X130175000Y-91440000D03*
X133985000Y-93345000D03*
X133985000Y-99060000D03*
X133985000Y-103505000D03*
X134620000Y-120650000D03*
X118110000Y-114300000D03*
X105410000Y-113665000D03*
X105410000Y-118110000D03*
X102870000Y-122555000D03*
X92710000Y-122555000D03*
X92710000Y-127635000D03*
X143510000Y-124460000D03*
X88265000Y-127635000D03*
X143510000Y-107315000D03*
X126365000Y-123190000D03*
X121285000Y-147320000D03*
X127635000Y-139700000D03*
X121285000Y-142875000D03*
X130175000Y-147955000D03*
X121285000Y-156845000D03*
X123190000Y-145415000D03*
X105410000Y-142875000D03*
X143510000Y-156845000D03*
X104140000Y-146050000D03*
X143510000Y-142240000D03*
X71120000Y-118745000D03*
X71120000Y-109220000D03*
X95250000Y-151130000D03*
X95250000Y-144145000D03*
X82550000Y-109220000D03*
X93980000Y-109220000D03*
X82550000Y-118745000D03*
X93980000Y-118745000D03*
X59690000Y-118745000D03*
X67310000Y-147320000D03*
X90805000Y-147955000D03*
X40005000Y-106045000D03*
X59690000Y-109220000D03*
X40005000Y-121285000D03*
X40005000Y-141605000D03*
X40005000Y-156845000D03*
D16*
X127635000Y-152400000D03*
X130175000Y-152400000D03*
X130175000Y-149860000D03*
D17*
X127635000Y-149860000D03*
D16*
X132715000Y-152400000D03*
X132715000Y-149860000D03*
D18*
X86779100Y-94290000D03*
X89750900Y-95590000D03*
D19*
X88265000Y-94615000D03*
D18*
X86779100Y-95590000D03*
X86779100Y-94940000D03*
X89750900Y-93640000D03*
X89750900Y-94290000D03*
X89750900Y-94940000D03*
X86779100Y-93640000D03*
D20*
X52705000Y-147955000D03*
X55245000Y-147955000D03*
D21*
X61000000Y-125720000D03*
X61000000Y-91720000D03*
D22*
X48895000Y-150095000D03*
X48895000Y-156595000D03*
X53395000Y-152845000D03*
D23*
X80385000Y-80850000D03*
X80385000Y-85950000D03*
X80385000Y-84250000D03*
X80385000Y-79150000D03*
X80385000Y-82550000D03*
D24*
X89535000Y-82550000D03*
D25*
X126460000Y-110355000D03*
X126460000Y-108855000D03*
X127540000Y-110855000D03*
X127540000Y-110355000D03*
X126460000Y-109855000D03*
X126460000Y-109355000D03*
X126460000Y-110855000D03*
X127540000Y-109855000D03*
X127540000Y-109355000D03*
X127540000Y-108855000D03*
X126460000Y-102100000D03*
X126460000Y-100600000D03*
X127540000Y-102600000D03*
X127540000Y-102100000D03*
X126460000Y-101600000D03*
X126460000Y-101100000D03*
X126460000Y-102600000D03*
X127540000Y-101600000D03*
X127540000Y-101100000D03*
X127540000Y-100600000D03*
D26*
X129175000Y-79145000D03*
D27*
X136870000Y-89270000D03*
X135600000Y-89270000D03*
X134330000Y-89270000D03*
X121630000Y-72020000D03*
X131790000Y-72020000D03*
X127980000Y-89270000D03*
X124170000Y-72020000D03*
X127980000Y-72020000D03*
X133060000Y-72020000D03*
X135600000Y-72020000D03*
X130520000Y-89270000D03*
X122900000Y-72020000D03*
X134330000Y-72020000D03*
X114010000Y-89281000D03*
X120360000Y-72020000D03*
X126710000Y-72020000D03*
X121630000Y-89270000D03*
X120360000Y-89281000D03*
X126710000Y-89270000D03*
X129250000Y-72020000D03*
X116550000Y-89281000D03*
X122900000Y-89270000D03*
X133060000Y-89270000D03*
X117820000Y-89270000D03*
X124170000Y-89270000D03*
X129250000Y-89270000D03*
X131790000Y-89270000D03*
X125440000Y-89270000D03*
X125440000Y-72020000D03*
X130520000Y-72020000D03*
X115280000Y-89281000D03*
X119090000Y-89270000D03*
X115280000Y-72009000D03*
X136870000Y-72020000D03*
X114010000Y-72009000D03*
X117820000Y-72020000D03*
X116550000Y-72009000D03*
X119090000Y-72020000D03*
D28*
X123515000Y-110910000D03*
X123515000Y-108370000D03*
X123515000Y-98210000D03*
X123515000Y-100750000D03*
X123515000Y-115990000D03*
D29*
X123515000Y-118530000D03*
D28*
X123515000Y-113450000D03*
X123515000Y-105830000D03*
X123515000Y-103290000D03*
G36*
G01*
X92135000Y-156087500D02*
X92135000Y-155062500D01*
G75*
G02*
X92422500Y-154775000I287500J0D01*
G01*
X92997500Y-154775000D01*
G75*
G02*
X93285000Y-155062500I0J-287500D01*
G01*
X93285000Y-156087500D01*
G75*
G02*
X92997500Y-156375000I-287500J0D01*
G01*
X92422500Y-156375000D01*
G75*
G02*
X92135000Y-156087500I0J287500D01*
G01*
G37*
G36*
G01*
X90865000Y-156087500D02*
X90865000Y-155062500D01*
G75*
G02*
X91152500Y-154775000I287500J0D01*
G01*
X91727500Y-154775000D01*
G75*
G02*
X92015000Y-155062500I0J-287500D01*
G01*
X92015000Y-156087500D01*
G75*
G02*
X91727500Y-156375000I-287500J0D01*
G01*
X91152500Y-156375000D01*
G75*
G02*
X90865000Y-156087500I0J287500D01*
G01*
G37*
D30*
X90170000Y-155575000D03*
D31*
X104170000Y-79645000D03*
X104170000Y-81645000D03*
X107920000Y-79645000D03*
X107920000Y-81645000D03*
X104170000Y-74565000D03*
X104170000Y-76565000D03*
X107920000Y-74565000D03*
X107920000Y-76565000D03*
D20*
X95250000Y-156210000D03*
X95250000Y-153670000D03*
D32*
X119380000Y-93010000D03*
X119380000Y-94950000D03*
D33*
X74295000Y-142320000D03*
X74295000Y-133270000D03*
D34*
X74295000Y-144745000D03*
D35*
X80595000Y-140345000D03*
X80595000Y-135245000D03*
X67995000Y-140345000D03*
X67995000Y-135245000D03*
D33*
X91500000Y-142320000D03*
X91500000Y-133270000D03*
D34*
X91500000Y-144745000D03*
D35*
X97800000Y-140345000D03*
X97800000Y-135245000D03*
X85200000Y-140345000D03*
X85200000Y-135245000D03*
D33*
X108585000Y-142320000D03*
X108585000Y-133270000D03*
D34*
X108585000Y-144745000D03*
D35*
X114885000Y-140345000D03*
X114885000Y-135245000D03*
X102285000Y-140345000D03*
X102285000Y-135245000D03*
D36*
X75865000Y-129540000D03*
X77805000Y-129540000D03*
X93010000Y-129540000D03*
X94950000Y-129540000D03*
X110155000Y-129540000D03*
X112095000Y-129540000D03*
D32*
X121920000Y-94950000D03*
X121920000Y-93010000D03*
D20*
X126365000Y-118745000D03*
X128905000Y-118745000D03*
X125095000Y-149860000D03*
X125095000Y-152400000D03*
X73660000Y-75565000D03*
X71120000Y-75565000D03*
D32*
X110490000Y-81615000D03*
X110490000Y-79675000D03*
X110490000Y-76535000D03*
X110490000Y-74595000D03*
X92075000Y-94950000D03*
X92075000Y-93010000D03*
X76200000Y-84790000D03*
X76200000Y-82850000D03*
D36*
X79040000Y-89535000D03*
X80980000Y-89535000D03*
X87295000Y-91440000D03*
X89235000Y-91440000D03*
D32*
X83820000Y-94950000D03*
X83820000Y-93010000D03*
X76200000Y-78705000D03*
X76200000Y-80645000D03*
M02*
