%FSLAX45Y45*%
G04 Gerber Fmt 4.5, Leading zero omitted, Abs format (unit mm)*
G04 Created by KiCad (PCBNEW (5.1.6)-1) date 2021-06-16 15:59:07*
%MOMM*%
%LPD*%
G01*
G04 APERTURE LIST*
%TA.AperFunction,Profile*%
%ADD10C,0.050000*%
%TD*%
%TA.AperFunction,Profile*%
%ADD11C,0.200000*%
%TD*%
%ADD12C,0.200000*%
%ADD13C,0.300000*%
G04 APERTURE END LIST*
D10*
X8428500Y-14605000D02*
G75*
G03*
X8428500Y-14605000I-110000J0D01*
G01*
X14270500Y-11049000D02*
G75*
G03*
X14270500Y-11049000I-110000J0D01*
G01*
X14270500Y-15557500D02*
G75*
G03*
X14270500Y-15557500I-110000J0D01*
G01*
X4237500Y-8001000D02*
G75*
G03*
X4237500Y-8001000I-110000J0D01*
G01*
X10651000Y-8572500D02*
G75*
G03*
X10651000Y-8572500I-110000J0D01*
G01*
X6523500Y-9969500D02*
G75*
G03*
X6523500Y-9969500I-110000J0D01*
G01*
X4301000Y-13462000D02*
G75*
G03*
X4301000Y-13462000I-110000J0D01*
G01*
X8428500Y-12382500D02*
G75*
G03*
X8428500Y-12382500I-110000J0D01*
G01*
X6015500Y-15557500D02*
G75*
G03*
X6015500Y-15557500I-110000J0D01*
G01*
D11*
X6159500Y-15875000D02*
X6159500Y-14872000D01*
X11938000Y-15875000D02*
X11938000Y-14872000D01*
X14500000Y-15875000D02*
X11938000Y-15875000D01*
X14500000Y-15875000D02*
X14500000Y-14872000D01*
X3800000Y-15875000D02*
X6159500Y-15875000D01*
X9779000Y-14872000D02*
X11938000Y-14872000D01*
X9779000Y-15875000D02*
X9779000Y-14872000D01*
X9779000Y-15875000D02*
X8509000Y-15875000D01*
X8509000Y-15875000D02*
X8509000Y-14872000D01*
X13779500Y-10541000D02*
X13779500Y-6872000D01*
X14500000Y-10541000D02*
X13779500Y-10541000D01*
X3800000Y-6872000D02*
X13779500Y-6872000D01*
X6159500Y-14872000D02*
X8509000Y-14872000D01*
X14500000Y-10541000D02*
X14500000Y-14872000D01*
X3800000Y-6872000D02*
X3800000Y-15875000D01*
D12*
X12108500Y-8141500D02*
X12148500Y-8181500D01*
X12148500Y-8141500D02*
X12108500Y-8181500D01*
X12108500Y-8425500D02*
X12148500Y-8465500D01*
X12148500Y-8425500D02*
X12108500Y-8465500D01*
X12235500Y-8425500D02*
X12275500Y-8465500D01*
X12275500Y-8425500D02*
X12235500Y-8465500D01*
X12426000Y-7409500D02*
X12466000Y-7449500D01*
X12466000Y-7409500D02*
X12426000Y-7449500D01*
X12553000Y-7409500D02*
X12593000Y-7449500D01*
X12593000Y-7409500D02*
X12553000Y-7449500D01*
X12680000Y-7409500D02*
X12720000Y-7449500D01*
X12720000Y-7409500D02*
X12680000Y-7449500D01*
X12680000Y-8679500D02*
X12720000Y-8719500D01*
X12720000Y-8679500D02*
X12680000Y-8719500D01*
X12743500Y-8425500D02*
X12783500Y-8465500D01*
X12783500Y-8425500D02*
X12743500Y-8465500D01*
X12807000Y-7409500D02*
X12847000Y-7449500D01*
X12847000Y-7409500D02*
X12807000Y-7449500D01*
X13061000Y-7409500D02*
X13101000Y-7449500D01*
X13101000Y-7409500D02*
X13061000Y-7449500D01*
X13442000Y-7663500D02*
X13482000Y-7703500D01*
X13482000Y-7663500D02*
X13442000Y-7703500D01*
X13442000Y-7917500D02*
X13482000Y-7957500D01*
X13482000Y-7917500D02*
X13442000Y-7957500D01*
X13492800Y-7391500D02*
X13532800Y-7431500D01*
X13532800Y-7391500D02*
X13492800Y-7431500D01*
X13674000Y-7622000D02*
X13714000Y-7662000D01*
X13714000Y-7622000D02*
X13674000Y-7662000D01*
X13674000Y-8257000D02*
X13714000Y-8297000D01*
X13714000Y-8257000D02*
X13674000Y-8297000D01*
X8108000Y-9759000D02*
X8148000Y-9799000D01*
X8148000Y-9759000D02*
X8108000Y-9799000D01*
X14331000Y-12426000D02*
X14371000Y-12466000D01*
X14371000Y-12426000D02*
X14331000Y-12466000D01*
X7346000Y-7854000D02*
X7386000Y-7894000D01*
X7386000Y-7854000D02*
X7346000Y-7894000D01*
X14331000Y-14204000D02*
X14371000Y-14244000D01*
X14371000Y-14204000D02*
X14331000Y-14244000D01*
X7727000Y-9475000D02*
X7767000Y-9515000D01*
X7767000Y-9475000D02*
X7727000Y-9515000D01*
X12108500Y-14712000D02*
X12148500Y-14752000D01*
X12148500Y-14712000D02*
X12108500Y-14752000D01*
X12108500Y-15664500D02*
X12148500Y-15704500D01*
X12148500Y-15664500D02*
X12108500Y-15704500D01*
X10076500Y-9759000D02*
X10116500Y-9799000D01*
X10116500Y-9759000D02*
X10076500Y-9799000D01*
X5504500Y-7028500D02*
X5544500Y-7068500D01*
X5544500Y-7028500D02*
X5504500Y-7068500D01*
X9441500Y-9759000D02*
X9481500Y-9799000D01*
X9481500Y-9759000D02*
X9441500Y-9799000D01*
X10521000Y-11346500D02*
X10561000Y-11386500D01*
X10561000Y-11346500D02*
X10521000Y-11386500D01*
X9886000Y-7663500D02*
X9926000Y-7703500D01*
X9926000Y-7663500D02*
X9886000Y-7703500D01*
X9251000Y-12235500D02*
X9291000Y-12275500D01*
X9291000Y-12235500D02*
X9251000Y-12275500D01*
X7727000Y-9759000D02*
X7767000Y-9799000D01*
X7767000Y-9759000D02*
X7727000Y-9799000D01*
X14331000Y-15664500D02*
X14371000Y-15704500D01*
X14371000Y-15664500D02*
X14331000Y-15704500D01*
X9886000Y-8806500D02*
X9926000Y-8846500D01*
X9926000Y-8806500D02*
X9886000Y-8846500D01*
X12299000Y-14521500D02*
X12339000Y-14561500D01*
X12339000Y-14521500D02*
X12299000Y-14561500D01*
X7282500Y-9475000D02*
X7322500Y-9515000D01*
X7322500Y-9475000D02*
X7282500Y-9515000D01*
X9568500Y-7663500D02*
X9608500Y-7703500D01*
X9608500Y-7663500D02*
X9568500Y-7703500D01*
X10267000Y-12235500D02*
X10307000Y-12275500D01*
X10307000Y-12235500D02*
X10267000Y-12275500D01*
X9378000Y-11854500D02*
X9418000Y-11894500D01*
X9418000Y-11854500D02*
X9378000Y-11894500D01*
X11981500Y-9124000D02*
X12021500Y-9164000D01*
X12021500Y-9124000D02*
X11981500Y-9164000D01*
X13413000Y-9095000D02*
X13453000Y-9135000D01*
X13453000Y-9095000D02*
X13413000Y-9135000D01*
X7282500Y-7028500D02*
X7322500Y-7068500D01*
X7322500Y-7028500D02*
X7282500Y-7068500D01*
X7092000Y-10902000D02*
X7132000Y-10942000D01*
X7132000Y-10902000D02*
X7092000Y-10942000D01*
X13540000Y-9095000D02*
X13580000Y-9135000D01*
X13580000Y-9095000D02*
X13540000Y-9135000D01*
X13378500Y-9886000D02*
X13418500Y-9926000D01*
X13418500Y-9886000D02*
X13378500Y-9926000D01*
X5949000Y-10902000D02*
X5989000Y-10942000D01*
X5989000Y-10902000D02*
X5949000Y-10942000D01*
X7600000Y-8616000D02*
X7640000Y-8656000D01*
X7640000Y-8616000D02*
X7600000Y-8656000D01*
X10521000Y-11791000D02*
X10561000Y-11831000D01*
X10561000Y-11791000D02*
X10521000Y-11831000D01*
X10838500Y-8552500D02*
X10878500Y-8592500D01*
X10878500Y-8552500D02*
X10838500Y-8592500D01*
X9886000Y-8425500D02*
X9926000Y-8465500D01*
X9926000Y-8425500D02*
X9886000Y-8465500D01*
X9251000Y-12743500D02*
X9291000Y-12783500D01*
X9291000Y-12743500D02*
X9251000Y-12783500D01*
X8500500Y-9493500D02*
X8540500Y-9533500D01*
X8540500Y-9493500D02*
X8500500Y-9533500D01*
X14331000Y-10711500D02*
X14371000Y-10751500D01*
X14371000Y-10711500D02*
X14331000Y-10751500D01*
X9568500Y-8425500D02*
X9608500Y-8465500D01*
X9608500Y-8425500D02*
X9568500Y-8465500D01*
X12108500Y-14267500D02*
X12148500Y-14307500D01*
X12148500Y-14267500D02*
X12108500Y-14307500D01*
X7727000Y-7600000D02*
X7767000Y-7640000D01*
X7767000Y-7600000D02*
X7727000Y-7640000D01*
X9568500Y-8806500D02*
X9608500Y-8846500D01*
X9608500Y-8806500D02*
X9568500Y-8846500D01*
X12743500Y-13950000D02*
X12783500Y-13990000D01*
X12783500Y-13950000D02*
X12743500Y-13990000D01*
X7092000Y-11854500D02*
X7132000Y-11894500D01*
X7132000Y-11854500D02*
X7092000Y-11894500D01*
X8933500Y-7028500D02*
X8973500Y-7068500D01*
X8973500Y-7028500D02*
X8933500Y-7068500D01*
X9505000Y-15093000D02*
X9545000Y-15133000D01*
X9545000Y-15093000D02*
X9505000Y-15133000D01*
X6711000Y-14712000D02*
X6751000Y-14752000D01*
X6751000Y-14712000D02*
X6711000Y-14752000D01*
X8933500Y-9822500D02*
X8973500Y-9862500D01*
X8973500Y-9822500D02*
X8933500Y-9862500D01*
X3980500Y-14140500D02*
X4020500Y-14180500D01*
X4020500Y-14140500D02*
X3980500Y-14180500D01*
X9187500Y-7346000D02*
X9227500Y-7386000D01*
X9227500Y-7346000D02*
X9187500Y-7386000D01*
X9187500Y-10013000D02*
X9227500Y-10053000D01*
X9227500Y-10013000D02*
X9187500Y-10053000D01*
X10965500Y-8425500D02*
X11005500Y-8465500D01*
X11005500Y-8425500D02*
X10965500Y-8465500D01*
X7600000Y-7600000D02*
X7640000Y-7640000D01*
X7640000Y-7600000D02*
X7600000Y-7640000D01*
X3980500Y-8870000D02*
X4020500Y-8910000D01*
X4020500Y-8870000D02*
X3980500Y-8910000D01*
X7282500Y-9759000D02*
X7322500Y-9799000D01*
X7322500Y-9759000D02*
X7282500Y-9799000D01*
X10394000Y-14585000D02*
X10434000Y-14625000D01*
X10434000Y-14585000D02*
X10394000Y-14625000D01*
X10521000Y-14267500D02*
X10561000Y-14307500D01*
X10561000Y-14267500D02*
X10521000Y-14307500D01*
X9314500Y-7346000D02*
X9354500Y-7386000D01*
X9354500Y-7346000D02*
X9314500Y-7386000D01*
X9505000Y-14394500D02*
X9545000Y-14434500D01*
X9545000Y-14394500D02*
X9505000Y-14434500D01*
X13378500Y-9314500D02*
X13418500Y-9354500D01*
X13418500Y-9314500D02*
X13378500Y-9354500D01*
X8235000Y-10902000D02*
X8275000Y-10942000D01*
X8275000Y-10902000D02*
X8235000Y-10942000D01*
X8679500Y-9259000D02*
X8719500Y-9299000D01*
X8719500Y-9259000D02*
X8679500Y-9299000D01*
X3980500Y-12108500D02*
X4020500Y-12148500D01*
X4020500Y-12108500D02*
X3980500Y-12148500D01*
X11854500Y-9632000D02*
X11894500Y-9672000D01*
X11894500Y-9632000D02*
X11854500Y-9672000D01*
X9441500Y-9441500D02*
X9481500Y-9481500D01*
X9481500Y-9441500D02*
X9441500Y-9481500D01*
X13378500Y-10330500D02*
X13418500Y-10370500D01*
X13418500Y-10330500D02*
X13378500Y-10370500D01*
X7600000Y-8743000D02*
X7640000Y-8783000D01*
X7640000Y-8743000D02*
X7600000Y-8783000D01*
X8679500Y-10013000D02*
X8719500Y-10053000D01*
X8719500Y-10013000D02*
X8679500Y-10053000D01*
X8362000Y-10013000D02*
X8402000Y-10053000D01*
X8402000Y-10013000D02*
X8362000Y-10053000D01*
X8489000Y-9759000D02*
X8529000Y-9799000D01*
X8529000Y-9759000D02*
X8489000Y-9799000D01*
X11791000Y-11283000D02*
X11831000Y-11323000D01*
X11831000Y-11283000D02*
X11791000Y-11323000D01*
X9378000Y-10902000D02*
X9418000Y-10942000D01*
X9418000Y-10902000D02*
X9378000Y-10942000D01*
X10076500Y-9441500D02*
X10116500Y-9481500D01*
X10116500Y-9441500D02*
X10076500Y-9481500D01*
X10648000Y-7028500D02*
X10688000Y-7068500D01*
X10688000Y-7028500D02*
X10648000Y-7068500D01*
X9060500Y-14775500D02*
X9100500Y-14815500D01*
X9100500Y-14775500D02*
X9060500Y-14815500D01*
X12997500Y-9124000D02*
X13037500Y-9164000D01*
X13037500Y-9124000D02*
X12997500Y-9164000D01*
X7663500Y-9060500D02*
X7703500Y-9100500D01*
X7703500Y-9060500D02*
X7663500Y-9100500D01*
X3980500Y-10584500D02*
X4020500Y-10624500D01*
X4020500Y-10584500D02*
X3980500Y-10624500D01*
X11791000Y-11410000D02*
X11831000Y-11450000D01*
X11831000Y-11410000D02*
X11791000Y-11450000D01*
X8933500Y-10013000D02*
X8973500Y-10053000D01*
X8973500Y-10013000D02*
X8933500Y-10053000D01*
X5949000Y-11854500D02*
X5989000Y-11894500D01*
X5989000Y-11854500D02*
X5949000Y-11894500D01*
X8108000Y-9475000D02*
X8148000Y-9515000D01*
X8148000Y-9475000D02*
X8108000Y-9515000D01*
X8362000Y-7346000D02*
X8402000Y-7386000D01*
X8402000Y-7346000D02*
X8362000Y-7386000D01*
X12997500Y-14775500D02*
X13037500Y-14815500D01*
X13037500Y-14775500D02*
X12997500Y-14815500D01*
X9886000Y-8044500D02*
X9926000Y-8084500D01*
X9926000Y-8044500D02*
X9886000Y-8084500D01*
X12743500Y-14077000D02*
X12783500Y-14117000D01*
X12783500Y-14077000D02*
X12743500Y-14117000D01*
X8827500Y-9272000D02*
X8867500Y-9312000D01*
X8867500Y-9272000D02*
X8827500Y-9312000D01*
X8235000Y-11854500D02*
X8275000Y-11894500D01*
X8275000Y-11854500D02*
X8235000Y-11894500D01*
X12362500Y-9441500D02*
X12402500Y-9481500D01*
X12402500Y-9441500D02*
X12362500Y-9481500D01*
X12172000Y-9124000D02*
X12212000Y-9164000D01*
X12212000Y-9124000D02*
X12172000Y-9164000D01*
X9759000Y-9759000D02*
X9799000Y-9799000D01*
X9799000Y-9759000D02*
X9759000Y-9799000D01*
X3980500Y-15664500D02*
X4020500Y-15704500D01*
X4020500Y-15664500D02*
X3980500Y-15704500D01*
X8679500Y-9822500D02*
X8719500Y-9862500D01*
X8719500Y-9822500D02*
X8679500Y-9862500D01*
X13442000Y-12045000D02*
X13482000Y-12085000D01*
X13482000Y-12045000D02*
X13442000Y-12085000D01*
X8933500Y-9632000D02*
X8973500Y-9672000D01*
X8973500Y-9632000D02*
X8933500Y-9672000D01*
X3980500Y-7028500D02*
X4020500Y-7068500D01*
X4020500Y-7028500D02*
X3980500Y-7068500D01*
X9568500Y-8044500D02*
X9608500Y-8084500D01*
X9608500Y-8044500D02*
X9568500Y-8084500D01*
X8806500Y-12743500D02*
X8846500Y-12783500D01*
X8846500Y-12743500D02*
X8806500Y-12783500D01*
X12616500Y-12299000D02*
X12656500Y-12339000D01*
X12656500Y-12299000D02*
X12616500Y-12339000D01*
X12680000Y-9124000D02*
X12720000Y-9164000D01*
X12720000Y-9124000D02*
X12680000Y-9164000D01*
X9759000Y-9441500D02*
X9799000Y-9481500D01*
X9799000Y-9441500D02*
X9759000Y-9481500D01*
X7600000Y-8933500D02*
X7640000Y-8973500D01*
X7640000Y-8933500D02*
X7600000Y-8973500D01*
X8679500Y-9632000D02*
X8719500Y-9672000D01*
X8719500Y-9632000D02*
X8679500Y-9672000D01*
X7346000Y-8108000D02*
X7386000Y-8148000D01*
X7386000Y-8108000D02*
X7346000Y-8148000D01*
X12386500Y-9821000D02*
G75*
G03*
X12386500Y-9821000I-35000J0D01*
G01*
X12386500Y-10075000D02*
G75*
G03*
X12386500Y-10075000I-35000J0D01*
G01*
X12386500Y-10329000D02*
G75*
G03*
X12386500Y-10329000I-35000J0D01*
G01*
X12386500Y-10583000D02*
G75*
G03*
X12386500Y-10583000I-35000J0D01*
G01*
X12386500Y-10837000D02*
G75*
G03*
X12386500Y-10837000I-35000J0D01*
G01*
X12386500Y-11091000D02*
G75*
G03*
X12386500Y-11091000I-35000J0D01*
G01*
X12386500Y-11345000D02*
G75*
G03*
X12386500Y-11345000I-35000J0D01*
G01*
X12386500Y-11599000D02*
G75*
G03*
X12386500Y-11599000I-35000J0D01*
G01*
X12386500Y-11853000D02*
G75*
G03*
X12386500Y-11853000I-35000J0D01*
G01*
X9017000Y-15520000D02*
X9017000Y-15595000D01*
X8979500Y-15557500D02*
X9054500Y-15557500D01*
X9144000Y-15520000D02*
X9144000Y-15595000D01*
X9106500Y-15557500D02*
X9181500Y-15557500D01*
X9271000Y-15520000D02*
X9271000Y-15595000D01*
X9233500Y-15557500D02*
X9308500Y-15557500D01*
X12795320Y-15017820D02*
X12795320Y-14954180D01*
X12731680Y-14954180D01*
X12731680Y-15017820D01*
X12795320Y-15017820D01*
X12795320Y-15271820D02*
X12795320Y-15208180D01*
X12731680Y-15208180D01*
X12731680Y-15271820D01*
X12795320Y-15271820D01*
X13049320Y-15017820D02*
X13049320Y-14954180D01*
X12985680Y-14954180D01*
X12985680Y-15017820D01*
X13049320Y-15017820D01*
X13049320Y-15271820D02*
X13049320Y-15208180D01*
X12985680Y-15208180D01*
X12985680Y-15271820D01*
X13049320Y-15271820D01*
X13303320Y-15017820D02*
X13303320Y-14954180D01*
X13239680Y-14954180D01*
X13239680Y-15017820D01*
X13303320Y-15017820D01*
X13303320Y-15271820D02*
X13303320Y-15208180D01*
X13239680Y-15208180D01*
X13239680Y-15271820D01*
X13303320Y-15271820D01*
X8520000Y-13584500D02*
X8580000Y-13524500D01*
X8520000Y-13464500D01*
X8460000Y-13524500D01*
X8520000Y-13584500D01*
X8520000Y-14094500D02*
X8580000Y-14034500D01*
X8520000Y-13974500D01*
X8460000Y-14034500D01*
X8520000Y-14094500D01*
X9150000Y-14534500D02*
X9210000Y-14474500D01*
X9150000Y-14414500D01*
X9090000Y-14474500D01*
X9150000Y-14534500D01*
X9780000Y-13584500D02*
X9840000Y-13524500D01*
X9780000Y-13464500D01*
X9720000Y-13524500D01*
X9780000Y-13584500D01*
X9780000Y-14094500D02*
X9840000Y-14034500D01*
X9780000Y-13974500D01*
X9720000Y-14034500D01*
X9780000Y-14094500D01*
X10228500Y-13584500D02*
X10288500Y-13524500D01*
X10228500Y-13464500D01*
X10168500Y-13524500D01*
X10228500Y-13584500D01*
X10228500Y-14094500D02*
X10288500Y-14034500D01*
X10228500Y-13974500D01*
X10168500Y-14034500D01*
X10228500Y-14094500D01*
X10858500Y-14534500D02*
X10918500Y-14474500D01*
X10858500Y-14414500D01*
X10798500Y-14474500D01*
X10858500Y-14534500D01*
X11488500Y-13584500D02*
X11548500Y-13524500D01*
X11488500Y-13464500D01*
X11428500Y-13524500D01*
X11488500Y-13584500D01*
X11488500Y-14094500D02*
X11548500Y-14034500D01*
X11488500Y-13974500D01*
X11428500Y-14034500D01*
X11488500Y-14094500D01*
X6799500Y-13584500D02*
X6859500Y-13524500D01*
X6799500Y-13464500D01*
X6739500Y-13524500D01*
X6799500Y-13584500D01*
X6799500Y-14094500D02*
X6859500Y-14034500D01*
X6799500Y-13974500D01*
X6739500Y-14034500D01*
X6799500Y-14094500D01*
X7429500Y-14534500D02*
X7489500Y-14474500D01*
X7429500Y-14414500D01*
X7369500Y-14474500D01*
X7429500Y-14534500D01*
X8059500Y-13584500D02*
X8119500Y-13524500D01*
X8059500Y-13464500D01*
X7999500Y-13524500D01*
X8059500Y-13584500D01*
X8059500Y-14094500D02*
X8119500Y-14034500D01*
X8059500Y-13974500D01*
X7999500Y-14034500D01*
X8059500Y-14094500D01*
X4759500Y-14879500D02*
X5019500Y-15139500D01*
X5019500Y-14879500D02*
X4759500Y-15139500D01*
X5019500Y-15009500D02*
G75*
G03*
X5019500Y-15009500I-130000J0D01*
G01*
X4759500Y-15529500D02*
X5019500Y-15789500D01*
X5019500Y-15529500D02*
X4759500Y-15789500D01*
X5019500Y-15659500D02*
G75*
G03*
X5019500Y-15659500I-130000J0D01*
G01*
X5209500Y-15154500D02*
X5469500Y-15414500D01*
X5469500Y-15154500D02*
X5209500Y-15414500D01*
X5469500Y-15284500D02*
G75*
G03*
X5469500Y-15284500I-130000J0D01*
G01*
D13*
X4076428Y-16350714D02*
X4076428Y-16050714D01*
X4147857Y-16050714D01*
X4190714Y-16065000D01*
X4219286Y-16093571D01*
X4233571Y-16122143D01*
X4247857Y-16179286D01*
X4247857Y-16222143D01*
X4233571Y-16279286D01*
X4219286Y-16307857D01*
X4190714Y-16336429D01*
X4147857Y-16350714D01*
X4076428Y-16350714D01*
X4376428Y-16350714D02*
X4376428Y-16150714D01*
X4376428Y-16207857D02*
X4390714Y-16179286D01*
X4405000Y-16165000D01*
X4433571Y-16150714D01*
X4462143Y-16150714D01*
X4562143Y-16350714D02*
X4562143Y-16150714D01*
X4562143Y-16050714D02*
X4547857Y-16065000D01*
X4562143Y-16079286D01*
X4576428Y-16065000D01*
X4562143Y-16050714D01*
X4562143Y-16079286D01*
X4747857Y-16350714D02*
X4719286Y-16336429D01*
X4705000Y-16307857D01*
X4705000Y-16050714D01*
X4905000Y-16350714D02*
X4876428Y-16336429D01*
X4862143Y-16307857D01*
X4862143Y-16050714D01*
X5247857Y-16350714D02*
X5247857Y-16050714D01*
X5347857Y-16265000D01*
X5447857Y-16050714D01*
X5447857Y-16350714D01*
X5719286Y-16350714D02*
X5719286Y-16193571D01*
X5705000Y-16165000D01*
X5676428Y-16150714D01*
X5619286Y-16150714D01*
X5590714Y-16165000D01*
X5719286Y-16336429D02*
X5690714Y-16350714D01*
X5619286Y-16350714D01*
X5590714Y-16336429D01*
X5576428Y-16307857D01*
X5576428Y-16279286D01*
X5590714Y-16250714D01*
X5619286Y-16236429D01*
X5690714Y-16236429D01*
X5719286Y-16222143D01*
X5862143Y-16150714D02*
X5862143Y-16450714D01*
X5862143Y-16165000D02*
X5890714Y-16150714D01*
X5947857Y-16150714D01*
X5976428Y-16165000D01*
X5990714Y-16179286D01*
X6005000Y-16207857D01*
X6005000Y-16293571D01*
X5990714Y-16322143D01*
X5976428Y-16336429D01*
X5947857Y-16350714D01*
X5890714Y-16350714D01*
X5862143Y-16336429D01*
X6133571Y-16322143D02*
X6147857Y-16336429D01*
X6133571Y-16350714D01*
X6119286Y-16336429D01*
X6133571Y-16322143D01*
X6133571Y-16350714D01*
X6133571Y-16165000D02*
X6147857Y-16179286D01*
X6133571Y-16193571D01*
X6119286Y-16179286D01*
X6133571Y-16165000D01*
X6133571Y-16193571D01*
X3750000Y-16825000D02*
X3790000Y-16865000D01*
X3790000Y-16825000D02*
X3750000Y-16865000D01*
X4133571Y-16680714D02*
X4162143Y-16680714D01*
X4190714Y-16695000D01*
X4205000Y-16709286D01*
X4219286Y-16737857D01*
X4233571Y-16795000D01*
X4233571Y-16866429D01*
X4219286Y-16923572D01*
X4205000Y-16952143D01*
X4190714Y-16966429D01*
X4162143Y-16980714D01*
X4133571Y-16980714D01*
X4105000Y-16966429D01*
X4090714Y-16952143D01*
X4076428Y-16923572D01*
X4062143Y-16866429D01*
X4062143Y-16795000D01*
X4076428Y-16737857D01*
X4090714Y-16709286D01*
X4105000Y-16695000D01*
X4133571Y-16680714D01*
X4362143Y-16952143D02*
X4376428Y-16966429D01*
X4362143Y-16980714D01*
X4347857Y-16966429D01*
X4362143Y-16952143D01*
X4362143Y-16980714D01*
X4633571Y-16780714D02*
X4633571Y-16980714D01*
X4562143Y-16666429D02*
X4490714Y-16880714D01*
X4676428Y-16880714D01*
X4847857Y-16680714D02*
X4876428Y-16680714D01*
X4905000Y-16695000D01*
X4919286Y-16709286D01*
X4933571Y-16737857D01*
X4947857Y-16795000D01*
X4947857Y-16866429D01*
X4933571Y-16923572D01*
X4919286Y-16952143D01*
X4905000Y-16966429D01*
X4876428Y-16980714D01*
X4847857Y-16980714D01*
X4819286Y-16966429D01*
X4805000Y-16952143D01*
X4790714Y-16923572D01*
X4776428Y-16866429D01*
X4776428Y-16795000D01*
X4790714Y-16737857D01*
X4805000Y-16709286D01*
X4819286Y-16695000D01*
X4847857Y-16680714D01*
X5076428Y-16980714D02*
X5076428Y-16780714D01*
X5076428Y-16809286D02*
X5090714Y-16795000D01*
X5119286Y-16780714D01*
X5162143Y-16780714D01*
X5190714Y-16795000D01*
X5205000Y-16823572D01*
X5205000Y-16980714D01*
X5205000Y-16823572D02*
X5219286Y-16795000D01*
X5247857Y-16780714D01*
X5290714Y-16780714D01*
X5319286Y-16795000D01*
X5333571Y-16823572D01*
X5333571Y-16980714D01*
X5476428Y-16980714D02*
X5476428Y-16780714D01*
X5476428Y-16809286D02*
X5490714Y-16795000D01*
X5519286Y-16780714D01*
X5562143Y-16780714D01*
X5590714Y-16795000D01*
X5605000Y-16823572D01*
X5605000Y-16980714D01*
X5605000Y-16823572D02*
X5619286Y-16795000D01*
X5647857Y-16780714D01*
X5690714Y-16780714D01*
X5719286Y-16795000D01*
X5733571Y-16823572D01*
X5733571Y-16980714D01*
X6319286Y-16666429D02*
X6062143Y-17052143D01*
X6705000Y-16680714D02*
X6733571Y-16680714D01*
X6762143Y-16695000D01*
X6776428Y-16709286D01*
X6790714Y-16737857D01*
X6805000Y-16795000D01*
X6805000Y-16866429D01*
X6790714Y-16923572D01*
X6776428Y-16952143D01*
X6762143Y-16966429D01*
X6733571Y-16980714D01*
X6705000Y-16980714D01*
X6676428Y-16966429D01*
X6662143Y-16952143D01*
X6647857Y-16923572D01*
X6633571Y-16866429D01*
X6633571Y-16795000D01*
X6647857Y-16737857D01*
X6662143Y-16709286D01*
X6676428Y-16695000D01*
X6705000Y-16680714D01*
X6933571Y-16952143D02*
X6947857Y-16966429D01*
X6933571Y-16980714D01*
X6919286Y-16966429D01*
X6933571Y-16952143D01*
X6933571Y-16980714D01*
X7133571Y-16680714D02*
X7162143Y-16680714D01*
X7190714Y-16695000D01*
X7205000Y-16709286D01*
X7219286Y-16737857D01*
X7233571Y-16795000D01*
X7233571Y-16866429D01*
X7219286Y-16923572D01*
X7205000Y-16952143D01*
X7190714Y-16966429D01*
X7162143Y-16980714D01*
X7133571Y-16980714D01*
X7105000Y-16966429D01*
X7090714Y-16952143D01*
X7076428Y-16923572D01*
X7062143Y-16866429D01*
X7062143Y-16795000D01*
X7076428Y-16737857D01*
X7090714Y-16709286D01*
X7105000Y-16695000D01*
X7133571Y-16680714D01*
X7519286Y-16980714D02*
X7347857Y-16980714D01*
X7433571Y-16980714D02*
X7433571Y-16680714D01*
X7405000Y-16723571D01*
X7376428Y-16752143D01*
X7347857Y-16766429D01*
X7776428Y-16680714D02*
X7719286Y-16680714D01*
X7690714Y-16695000D01*
X7676428Y-16709286D01*
X7647857Y-16752143D01*
X7633571Y-16809286D01*
X7633571Y-16923572D01*
X7647857Y-16952143D01*
X7662143Y-16966429D01*
X7690714Y-16980714D01*
X7747857Y-16980714D01*
X7776428Y-16966429D01*
X7790714Y-16952143D01*
X7805000Y-16923572D01*
X7805000Y-16852143D01*
X7790714Y-16823572D01*
X7776428Y-16809286D01*
X7747857Y-16795000D01*
X7690714Y-16795000D01*
X7662143Y-16809286D01*
X7647857Y-16823572D01*
X7633571Y-16852143D01*
X7919286Y-16680714D02*
X7919286Y-16737857D01*
X8033571Y-16680714D02*
X8033571Y-16737857D01*
X8476428Y-17095000D02*
X8462143Y-17080714D01*
X8433571Y-17037857D01*
X8419286Y-17009286D01*
X8405000Y-16966429D01*
X8390714Y-16895000D01*
X8390714Y-16837857D01*
X8405000Y-16766429D01*
X8419286Y-16723571D01*
X8433571Y-16695000D01*
X8462143Y-16652143D01*
X8476428Y-16637857D01*
X8747857Y-16980714D02*
X8576428Y-16980714D01*
X8662143Y-16980714D02*
X8662143Y-16680714D01*
X8633571Y-16723571D01*
X8605000Y-16752143D01*
X8576428Y-16766429D01*
X9033571Y-16980714D02*
X8862143Y-16980714D01*
X8947857Y-16980714D02*
X8947857Y-16680714D01*
X8919286Y-16723571D01*
X8890714Y-16752143D01*
X8862143Y-16766429D01*
X9290714Y-16680714D02*
X9233571Y-16680714D01*
X9205000Y-16695000D01*
X9190714Y-16709286D01*
X9162143Y-16752143D01*
X9147857Y-16809286D01*
X9147857Y-16923572D01*
X9162143Y-16952143D01*
X9176428Y-16966429D01*
X9205000Y-16980714D01*
X9262143Y-16980714D01*
X9290714Y-16966429D01*
X9305000Y-16952143D01*
X9319286Y-16923572D01*
X9319286Y-16852143D01*
X9305000Y-16823572D01*
X9290714Y-16809286D01*
X9262143Y-16795000D01*
X9205000Y-16795000D01*
X9176428Y-16809286D01*
X9162143Y-16823572D01*
X9147857Y-16852143D01*
X9676428Y-16980714D02*
X9676428Y-16680714D01*
X9805000Y-16980714D02*
X9805000Y-16823572D01*
X9790714Y-16795000D01*
X9762143Y-16780714D01*
X9719286Y-16780714D01*
X9690714Y-16795000D01*
X9676428Y-16809286D01*
X9990714Y-16980714D02*
X9962143Y-16966429D01*
X9947857Y-16952143D01*
X9933571Y-16923572D01*
X9933571Y-16837857D01*
X9947857Y-16809286D01*
X9962143Y-16795000D01*
X9990714Y-16780714D01*
X10033571Y-16780714D01*
X10062143Y-16795000D01*
X10076428Y-16809286D01*
X10090714Y-16837857D01*
X10090714Y-16923572D01*
X10076428Y-16952143D01*
X10062143Y-16966429D01*
X10033571Y-16980714D01*
X9990714Y-16980714D01*
X10262143Y-16980714D02*
X10233571Y-16966429D01*
X10219286Y-16937857D01*
X10219286Y-16680714D01*
X10490714Y-16966429D02*
X10462143Y-16980714D01*
X10405000Y-16980714D01*
X10376428Y-16966429D01*
X10362143Y-16937857D01*
X10362143Y-16823572D01*
X10376428Y-16795000D01*
X10405000Y-16780714D01*
X10462143Y-16780714D01*
X10490714Y-16795000D01*
X10505000Y-16823572D01*
X10505000Y-16852143D01*
X10362143Y-16880714D01*
X10619286Y-16966429D02*
X10647857Y-16980714D01*
X10705000Y-16980714D01*
X10733571Y-16966429D01*
X10747857Y-16937857D01*
X10747857Y-16923572D01*
X10733571Y-16895000D01*
X10705000Y-16880714D01*
X10662143Y-16880714D01*
X10633571Y-16866429D01*
X10619286Y-16837857D01*
X10619286Y-16823572D01*
X10633571Y-16795000D01*
X10662143Y-16780714D01*
X10705000Y-16780714D01*
X10733571Y-16795000D01*
X10847857Y-17095000D02*
X10862143Y-17080714D01*
X10890714Y-17037857D01*
X10905000Y-17009286D01*
X10919286Y-16966429D01*
X10933571Y-16895000D01*
X10933571Y-16837857D01*
X10919286Y-16766429D01*
X10905000Y-16723571D01*
X10890714Y-16695000D01*
X10862143Y-16652143D01*
X10847857Y-16637857D01*
X3790000Y-17241000D02*
G75*
G03*
X3790000Y-17241000I-35000J0D01*
G01*
X4133571Y-17076714D02*
X4162143Y-17076714D01*
X4190714Y-17091000D01*
X4205000Y-17105286D01*
X4219286Y-17133857D01*
X4233571Y-17191000D01*
X4233571Y-17262429D01*
X4219286Y-17319572D01*
X4205000Y-17348143D01*
X4190714Y-17362429D01*
X4162143Y-17376714D01*
X4133571Y-17376714D01*
X4105000Y-17362429D01*
X4090714Y-17348143D01*
X4076428Y-17319572D01*
X4062143Y-17262429D01*
X4062143Y-17191000D01*
X4076428Y-17133857D01*
X4090714Y-17105286D01*
X4105000Y-17091000D01*
X4133571Y-17076714D01*
X4362143Y-17348143D02*
X4376428Y-17362429D01*
X4362143Y-17376714D01*
X4347857Y-17362429D01*
X4362143Y-17348143D01*
X4362143Y-17376714D01*
X4476428Y-17076714D02*
X4676428Y-17076714D01*
X4547857Y-17376714D01*
X4847857Y-17076714D02*
X4876428Y-17076714D01*
X4905000Y-17091000D01*
X4919286Y-17105286D01*
X4933571Y-17133857D01*
X4947857Y-17191000D01*
X4947857Y-17262429D01*
X4933571Y-17319572D01*
X4919286Y-17348143D01*
X4905000Y-17362429D01*
X4876428Y-17376714D01*
X4847857Y-17376714D01*
X4819286Y-17362429D01*
X4805000Y-17348143D01*
X4790714Y-17319572D01*
X4776428Y-17262429D01*
X4776428Y-17191000D01*
X4790714Y-17133857D01*
X4805000Y-17105286D01*
X4819286Y-17091000D01*
X4847857Y-17076714D01*
X5076428Y-17376714D02*
X5076428Y-17176714D01*
X5076428Y-17205286D02*
X5090714Y-17191000D01*
X5119286Y-17176714D01*
X5162143Y-17176714D01*
X5190714Y-17191000D01*
X5205000Y-17219572D01*
X5205000Y-17376714D01*
X5205000Y-17219572D02*
X5219286Y-17191000D01*
X5247857Y-17176714D01*
X5290714Y-17176714D01*
X5319286Y-17191000D01*
X5333571Y-17219572D01*
X5333571Y-17376714D01*
X5476428Y-17376714D02*
X5476428Y-17176714D01*
X5476428Y-17205286D02*
X5490714Y-17191000D01*
X5519286Y-17176714D01*
X5562143Y-17176714D01*
X5590714Y-17191000D01*
X5605000Y-17219572D01*
X5605000Y-17376714D01*
X5605000Y-17219572D02*
X5619286Y-17191000D01*
X5647857Y-17176714D01*
X5690714Y-17176714D01*
X5719286Y-17191000D01*
X5733571Y-17219572D01*
X5733571Y-17376714D01*
X6319286Y-17062429D02*
X6062143Y-17448143D01*
X6705000Y-17076714D02*
X6733571Y-17076714D01*
X6762143Y-17091000D01*
X6776428Y-17105286D01*
X6790714Y-17133857D01*
X6805000Y-17191000D01*
X6805000Y-17262429D01*
X6790714Y-17319572D01*
X6776428Y-17348143D01*
X6762143Y-17362429D01*
X6733571Y-17376714D01*
X6705000Y-17376714D01*
X6676428Y-17362429D01*
X6662143Y-17348143D01*
X6647857Y-17319572D01*
X6633571Y-17262429D01*
X6633571Y-17191000D01*
X6647857Y-17133857D01*
X6662143Y-17105286D01*
X6676428Y-17091000D01*
X6705000Y-17076714D01*
X6933571Y-17348143D02*
X6947857Y-17362429D01*
X6933571Y-17376714D01*
X6919286Y-17362429D01*
X6933571Y-17348143D01*
X6933571Y-17376714D01*
X7133571Y-17076714D02*
X7162143Y-17076714D01*
X7190714Y-17091000D01*
X7205000Y-17105286D01*
X7219286Y-17133857D01*
X7233571Y-17191000D01*
X7233571Y-17262429D01*
X7219286Y-17319572D01*
X7205000Y-17348143D01*
X7190714Y-17362429D01*
X7162143Y-17376714D01*
X7133571Y-17376714D01*
X7105000Y-17362429D01*
X7090714Y-17348143D01*
X7076428Y-17319572D01*
X7062143Y-17262429D01*
X7062143Y-17191000D01*
X7076428Y-17133857D01*
X7090714Y-17105286D01*
X7105000Y-17091000D01*
X7133571Y-17076714D01*
X7347857Y-17105286D02*
X7362143Y-17091000D01*
X7390714Y-17076714D01*
X7462143Y-17076714D01*
X7490714Y-17091000D01*
X7505000Y-17105286D01*
X7519286Y-17133857D01*
X7519286Y-17162429D01*
X7505000Y-17205286D01*
X7333571Y-17376714D01*
X7519286Y-17376714D01*
X7690714Y-17205286D02*
X7662143Y-17191000D01*
X7647857Y-17176714D01*
X7633571Y-17148143D01*
X7633571Y-17133857D01*
X7647857Y-17105286D01*
X7662143Y-17091000D01*
X7690714Y-17076714D01*
X7747857Y-17076714D01*
X7776428Y-17091000D01*
X7790714Y-17105286D01*
X7805000Y-17133857D01*
X7805000Y-17148143D01*
X7790714Y-17176714D01*
X7776428Y-17191000D01*
X7747857Y-17205286D01*
X7690714Y-17205286D01*
X7662143Y-17219572D01*
X7647857Y-17233857D01*
X7633571Y-17262429D01*
X7633571Y-17319572D01*
X7647857Y-17348143D01*
X7662143Y-17362429D01*
X7690714Y-17376714D01*
X7747857Y-17376714D01*
X7776428Y-17362429D01*
X7790714Y-17348143D01*
X7805000Y-17319572D01*
X7805000Y-17262429D01*
X7790714Y-17233857D01*
X7776428Y-17219572D01*
X7747857Y-17205286D01*
X7919286Y-17076714D02*
X7919286Y-17133857D01*
X8033571Y-17076714D02*
X8033571Y-17133857D01*
X8476428Y-17491000D02*
X8462143Y-17476714D01*
X8433571Y-17433857D01*
X8419286Y-17405286D01*
X8405000Y-17362429D01*
X8390714Y-17291000D01*
X8390714Y-17233857D01*
X8405000Y-17162429D01*
X8419286Y-17119572D01*
X8433571Y-17091000D01*
X8462143Y-17048143D01*
X8476428Y-17033857D01*
X8605000Y-17376714D02*
X8662143Y-17376714D01*
X8690714Y-17362429D01*
X8705000Y-17348143D01*
X8733571Y-17305286D01*
X8747857Y-17248143D01*
X8747857Y-17133857D01*
X8733571Y-17105286D01*
X8719286Y-17091000D01*
X8690714Y-17076714D01*
X8633571Y-17076714D01*
X8605000Y-17091000D01*
X8590714Y-17105286D01*
X8576428Y-17133857D01*
X8576428Y-17205286D01*
X8590714Y-17233857D01*
X8605000Y-17248143D01*
X8633571Y-17262429D01*
X8690714Y-17262429D01*
X8719286Y-17248143D01*
X8733571Y-17233857D01*
X8747857Y-17205286D01*
X9105000Y-17376714D02*
X9105000Y-17076714D01*
X9233571Y-17376714D02*
X9233571Y-17219572D01*
X9219286Y-17191000D01*
X9190714Y-17176714D01*
X9147857Y-17176714D01*
X9119286Y-17191000D01*
X9105000Y-17205286D01*
X9419286Y-17376714D02*
X9390714Y-17362429D01*
X9376428Y-17348143D01*
X9362143Y-17319572D01*
X9362143Y-17233857D01*
X9376428Y-17205286D01*
X9390714Y-17191000D01*
X9419286Y-17176714D01*
X9462143Y-17176714D01*
X9490714Y-17191000D01*
X9505000Y-17205286D01*
X9519286Y-17233857D01*
X9519286Y-17319572D01*
X9505000Y-17348143D01*
X9490714Y-17362429D01*
X9462143Y-17376714D01*
X9419286Y-17376714D01*
X9690714Y-17376714D02*
X9662143Y-17362429D01*
X9647857Y-17333857D01*
X9647857Y-17076714D01*
X9919286Y-17362429D02*
X9890714Y-17376714D01*
X9833571Y-17376714D01*
X9805000Y-17362429D01*
X9790714Y-17333857D01*
X9790714Y-17219572D01*
X9805000Y-17191000D01*
X9833571Y-17176714D01*
X9890714Y-17176714D01*
X9919286Y-17191000D01*
X9933571Y-17219572D01*
X9933571Y-17248143D01*
X9790714Y-17276714D01*
X10047857Y-17362429D02*
X10076428Y-17376714D01*
X10133571Y-17376714D01*
X10162143Y-17362429D01*
X10176428Y-17333857D01*
X10176428Y-17319572D01*
X10162143Y-17291000D01*
X10133571Y-17276714D01*
X10090714Y-17276714D01*
X10062143Y-17262429D01*
X10047857Y-17233857D01*
X10047857Y-17219572D01*
X10062143Y-17191000D01*
X10090714Y-17176714D01*
X10133571Y-17176714D01*
X10162143Y-17191000D01*
X10276428Y-17491000D02*
X10290714Y-17476714D01*
X10319286Y-17433857D01*
X10333571Y-17405286D01*
X10347857Y-17362429D01*
X10362143Y-17291000D01*
X10362143Y-17233857D01*
X10347857Y-17162429D01*
X10333571Y-17119572D01*
X10319286Y-17091000D01*
X10290714Y-17048143D01*
X10276428Y-17033857D01*
X3752500Y-17599500D02*
X3752500Y-17674500D01*
X3715000Y-17637000D02*
X3790000Y-17637000D01*
X4133571Y-17472714D02*
X4162143Y-17472714D01*
X4190714Y-17487000D01*
X4205000Y-17501286D01*
X4219286Y-17529857D01*
X4233571Y-17587000D01*
X4233571Y-17658429D01*
X4219286Y-17715572D01*
X4205000Y-17744143D01*
X4190714Y-17758429D01*
X4162143Y-17772714D01*
X4133571Y-17772714D01*
X4105000Y-17758429D01*
X4090714Y-17744143D01*
X4076428Y-17715572D01*
X4062143Y-17658429D01*
X4062143Y-17587000D01*
X4076428Y-17529857D01*
X4090714Y-17501286D01*
X4105000Y-17487000D01*
X4133571Y-17472714D01*
X4362143Y-17744143D02*
X4376428Y-17758429D01*
X4362143Y-17772714D01*
X4347857Y-17758429D01*
X4362143Y-17744143D01*
X4362143Y-17772714D01*
X4476428Y-17472714D02*
X4676428Y-17472714D01*
X4547857Y-17772714D01*
X4933571Y-17472714D02*
X4790714Y-17472714D01*
X4776428Y-17615572D01*
X4790714Y-17601286D01*
X4819286Y-17587000D01*
X4890714Y-17587000D01*
X4919286Y-17601286D01*
X4933571Y-17615572D01*
X4947857Y-17644143D01*
X4947857Y-17715572D01*
X4933571Y-17744143D01*
X4919286Y-17758429D01*
X4890714Y-17772714D01*
X4819286Y-17772714D01*
X4790714Y-17758429D01*
X4776428Y-17744143D01*
X5076428Y-17772714D02*
X5076428Y-17572714D01*
X5076428Y-17601286D02*
X5090714Y-17587000D01*
X5119286Y-17572714D01*
X5162143Y-17572714D01*
X5190714Y-17587000D01*
X5205000Y-17615572D01*
X5205000Y-17772714D01*
X5205000Y-17615572D02*
X5219286Y-17587000D01*
X5247857Y-17572714D01*
X5290714Y-17572714D01*
X5319286Y-17587000D01*
X5333571Y-17615572D01*
X5333571Y-17772714D01*
X5476428Y-17772714D02*
X5476428Y-17572714D01*
X5476428Y-17601286D02*
X5490714Y-17587000D01*
X5519286Y-17572714D01*
X5562143Y-17572714D01*
X5590714Y-17587000D01*
X5605000Y-17615572D01*
X5605000Y-17772714D01*
X5605000Y-17615572D02*
X5619286Y-17587000D01*
X5647857Y-17572714D01*
X5690714Y-17572714D01*
X5719286Y-17587000D01*
X5733571Y-17615572D01*
X5733571Y-17772714D01*
X6319286Y-17458429D02*
X6062143Y-17844143D01*
X6705000Y-17472714D02*
X6733571Y-17472714D01*
X6762143Y-17487000D01*
X6776428Y-17501286D01*
X6790714Y-17529857D01*
X6805000Y-17587000D01*
X6805000Y-17658429D01*
X6790714Y-17715572D01*
X6776428Y-17744143D01*
X6762143Y-17758429D01*
X6733571Y-17772714D01*
X6705000Y-17772714D01*
X6676428Y-17758429D01*
X6662143Y-17744143D01*
X6647857Y-17715572D01*
X6633571Y-17658429D01*
X6633571Y-17587000D01*
X6647857Y-17529857D01*
X6662143Y-17501286D01*
X6676428Y-17487000D01*
X6705000Y-17472714D01*
X6933571Y-17744143D02*
X6947857Y-17758429D01*
X6933571Y-17772714D01*
X6919286Y-17758429D01*
X6933571Y-17744143D01*
X6933571Y-17772714D01*
X7133571Y-17472714D02*
X7162143Y-17472714D01*
X7190714Y-17487000D01*
X7205000Y-17501286D01*
X7219286Y-17529857D01*
X7233571Y-17587000D01*
X7233571Y-17658429D01*
X7219286Y-17715572D01*
X7205000Y-17744143D01*
X7190714Y-17758429D01*
X7162143Y-17772714D01*
X7133571Y-17772714D01*
X7105000Y-17758429D01*
X7090714Y-17744143D01*
X7076428Y-17715572D01*
X7062143Y-17658429D01*
X7062143Y-17587000D01*
X7076428Y-17529857D01*
X7090714Y-17501286D01*
X7105000Y-17487000D01*
X7133571Y-17472714D01*
X7333571Y-17472714D02*
X7519286Y-17472714D01*
X7419286Y-17587000D01*
X7462143Y-17587000D01*
X7490714Y-17601286D01*
X7505000Y-17615572D01*
X7519286Y-17644143D01*
X7519286Y-17715572D01*
X7505000Y-17744143D01*
X7490714Y-17758429D01*
X7462143Y-17772714D01*
X7376428Y-17772714D01*
X7347857Y-17758429D01*
X7333571Y-17744143D01*
X7705000Y-17472714D02*
X7733571Y-17472714D01*
X7762143Y-17487000D01*
X7776428Y-17501286D01*
X7790714Y-17529857D01*
X7805000Y-17587000D01*
X7805000Y-17658429D01*
X7790714Y-17715572D01*
X7776428Y-17744143D01*
X7762143Y-17758429D01*
X7733571Y-17772714D01*
X7705000Y-17772714D01*
X7676428Y-17758429D01*
X7662143Y-17744143D01*
X7647857Y-17715572D01*
X7633571Y-17658429D01*
X7633571Y-17587000D01*
X7647857Y-17529857D01*
X7662143Y-17501286D01*
X7676428Y-17487000D01*
X7705000Y-17472714D01*
X7919286Y-17472714D02*
X7919286Y-17529857D01*
X8033571Y-17472714D02*
X8033571Y-17529857D01*
X8476428Y-17887000D02*
X8462143Y-17872714D01*
X8433571Y-17829857D01*
X8419286Y-17801286D01*
X8405000Y-17758429D01*
X8390714Y-17687000D01*
X8390714Y-17629857D01*
X8405000Y-17558429D01*
X8419286Y-17515572D01*
X8433571Y-17487000D01*
X8462143Y-17444143D01*
X8476428Y-17429857D01*
X8562143Y-17472714D02*
X8747857Y-17472714D01*
X8647857Y-17587000D01*
X8690714Y-17587000D01*
X8719286Y-17601286D01*
X8733571Y-17615572D01*
X8747857Y-17644143D01*
X8747857Y-17715572D01*
X8733571Y-17744143D01*
X8719286Y-17758429D01*
X8690714Y-17772714D01*
X8605000Y-17772714D01*
X8576428Y-17758429D01*
X8562143Y-17744143D01*
X9105000Y-17772714D02*
X9105000Y-17472714D01*
X9233571Y-17772714D02*
X9233571Y-17615572D01*
X9219286Y-17587000D01*
X9190714Y-17572714D01*
X9147857Y-17572714D01*
X9119286Y-17587000D01*
X9105000Y-17601286D01*
X9419286Y-17772714D02*
X9390714Y-17758429D01*
X9376428Y-17744143D01*
X9362143Y-17715572D01*
X9362143Y-17629857D01*
X9376428Y-17601286D01*
X9390714Y-17587000D01*
X9419286Y-17572714D01*
X9462143Y-17572714D01*
X9490714Y-17587000D01*
X9505000Y-17601286D01*
X9519286Y-17629857D01*
X9519286Y-17715572D01*
X9505000Y-17744143D01*
X9490714Y-17758429D01*
X9462143Y-17772714D01*
X9419286Y-17772714D01*
X9690714Y-17772714D02*
X9662143Y-17758429D01*
X9647857Y-17729857D01*
X9647857Y-17472714D01*
X9919286Y-17758429D02*
X9890714Y-17772714D01*
X9833571Y-17772714D01*
X9805000Y-17758429D01*
X9790714Y-17729857D01*
X9790714Y-17615572D01*
X9805000Y-17587000D01*
X9833571Y-17572714D01*
X9890714Y-17572714D01*
X9919286Y-17587000D01*
X9933571Y-17615572D01*
X9933571Y-17644143D01*
X9790714Y-17672714D01*
X10047857Y-17758429D02*
X10076428Y-17772714D01*
X10133571Y-17772714D01*
X10162143Y-17758429D01*
X10176428Y-17729857D01*
X10176428Y-17715572D01*
X10162143Y-17687000D01*
X10133571Y-17672714D01*
X10090714Y-17672714D01*
X10062143Y-17658429D01*
X10047857Y-17629857D01*
X10047857Y-17615572D01*
X10062143Y-17587000D01*
X10090714Y-17572714D01*
X10133571Y-17572714D01*
X10162143Y-17587000D01*
X10276428Y-17887000D02*
X10290714Y-17872714D01*
X10319286Y-17829857D01*
X10333571Y-17801286D01*
X10347857Y-17758429D01*
X10362143Y-17687000D01*
X10362143Y-17629857D01*
X10347857Y-17558429D01*
X10333571Y-17515572D01*
X10319286Y-17487000D01*
X10290714Y-17444143D01*
X10276428Y-17429857D01*
X3776820Y-18064820D02*
X3776820Y-18001180D01*
X3713180Y-18001180D01*
X3713180Y-18064820D01*
X3776820Y-18064820D01*
X4133571Y-17868714D02*
X4162143Y-17868714D01*
X4190714Y-17883000D01*
X4205000Y-17897286D01*
X4219286Y-17925857D01*
X4233571Y-17983000D01*
X4233571Y-18054429D01*
X4219286Y-18111572D01*
X4205000Y-18140143D01*
X4190714Y-18154429D01*
X4162143Y-18168714D01*
X4133571Y-18168714D01*
X4105000Y-18154429D01*
X4090714Y-18140143D01*
X4076428Y-18111572D01*
X4062143Y-18054429D01*
X4062143Y-17983000D01*
X4076428Y-17925857D01*
X4090714Y-17897286D01*
X4105000Y-17883000D01*
X4133571Y-17868714D01*
X4362143Y-18140143D02*
X4376428Y-18154429D01*
X4362143Y-18168714D01*
X4347857Y-18154429D01*
X4362143Y-18140143D01*
X4362143Y-18168714D01*
X4519286Y-18168714D02*
X4576428Y-18168714D01*
X4605000Y-18154429D01*
X4619286Y-18140143D01*
X4647857Y-18097286D01*
X4662143Y-18040143D01*
X4662143Y-17925857D01*
X4647857Y-17897286D01*
X4633571Y-17883000D01*
X4605000Y-17868714D01*
X4547857Y-17868714D01*
X4519286Y-17883000D01*
X4505000Y-17897286D01*
X4490714Y-17925857D01*
X4490714Y-17997286D01*
X4505000Y-18025857D01*
X4519286Y-18040143D01*
X4547857Y-18054429D01*
X4605000Y-18054429D01*
X4633571Y-18040143D01*
X4647857Y-18025857D01*
X4662143Y-17997286D01*
X4847857Y-17868714D02*
X4876428Y-17868714D01*
X4905000Y-17883000D01*
X4919286Y-17897286D01*
X4933571Y-17925857D01*
X4947857Y-17983000D01*
X4947857Y-18054429D01*
X4933571Y-18111572D01*
X4919286Y-18140143D01*
X4905000Y-18154429D01*
X4876428Y-18168714D01*
X4847857Y-18168714D01*
X4819286Y-18154429D01*
X4805000Y-18140143D01*
X4790714Y-18111572D01*
X4776428Y-18054429D01*
X4776428Y-17983000D01*
X4790714Y-17925857D01*
X4805000Y-17897286D01*
X4819286Y-17883000D01*
X4847857Y-17868714D01*
X5076428Y-18168714D02*
X5076428Y-17968714D01*
X5076428Y-17997286D02*
X5090714Y-17983000D01*
X5119286Y-17968714D01*
X5162143Y-17968714D01*
X5190714Y-17983000D01*
X5205000Y-18011572D01*
X5205000Y-18168714D01*
X5205000Y-18011572D02*
X5219286Y-17983000D01*
X5247857Y-17968714D01*
X5290714Y-17968714D01*
X5319286Y-17983000D01*
X5333571Y-18011572D01*
X5333571Y-18168714D01*
X5476428Y-18168714D02*
X5476428Y-17968714D01*
X5476428Y-17997286D02*
X5490714Y-17983000D01*
X5519286Y-17968714D01*
X5562143Y-17968714D01*
X5590714Y-17983000D01*
X5605000Y-18011572D01*
X5605000Y-18168714D01*
X5605000Y-18011572D02*
X5619286Y-17983000D01*
X5647857Y-17968714D01*
X5690714Y-17968714D01*
X5719286Y-17983000D01*
X5733571Y-18011572D01*
X5733571Y-18168714D01*
X6319286Y-17854429D02*
X6062143Y-18240143D01*
X6705000Y-17868714D02*
X6733571Y-17868714D01*
X6762143Y-17883000D01*
X6776428Y-17897286D01*
X6790714Y-17925857D01*
X6805000Y-17983000D01*
X6805000Y-18054429D01*
X6790714Y-18111572D01*
X6776428Y-18140143D01*
X6762143Y-18154429D01*
X6733571Y-18168714D01*
X6705000Y-18168714D01*
X6676428Y-18154429D01*
X6662143Y-18140143D01*
X6647857Y-18111572D01*
X6633571Y-18054429D01*
X6633571Y-17983000D01*
X6647857Y-17925857D01*
X6662143Y-17897286D01*
X6676428Y-17883000D01*
X6705000Y-17868714D01*
X6933571Y-18140143D02*
X6947857Y-18154429D01*
X6933571Y-18168714D01*
X6919286Y-18154429D01*
X6933571Y-18140143D01*
X6933571Y-18168714D01*
X7133571Y-17868714D02*
X7162143Y-17868714D01*
X7190714Y-17883000D01*
X7205000Y-17897286D01*
X7219286Y-17925857D01*
X7233571Y-17983000D01*
X7233571Y-18054429D01*
X7219286Y-18111572D01*
X7205000Y-18140143D01*
X7190714Y-18154429D01*
X7162143Y-18168714D01*
X7133571Y-18168714D01*
X7105000Y-18154429D01*
X7090714Y-18140143D01*
X7076428Y-18111572D01*
X7062143Y-18054429D01*
X7062143Y-17983000D01*
X7076428Y-17925857D01*
X7090714Y-17897286D01*
X7105000Y-17883000D01*
X7133571Y-17868714D01*
X7333571Y-17868714D02*
X7519286Y-17868714D01*
X7419286Y-17983000D01*
X7462143Y-17983000D01*
X7490714Y-17997286D01*
X7505000Y-18011572D01*
X7519286Y-18040143D01*
X7519286Y-18111572D01*
X7505000Y-18140143D01*
X7490714Y-18154429D01*
X7462143Y-18168714D01*
X7376428Y-18168714D01*
X7347857Y-18154429D01*
X7333571Y-18140143D01*
X7790714Y-17868714D02*
X7647857Y-17868714D01*
X7633571Y-18011572D01*
X7647857Y-17997286D01*
X7676428Y-17983000D01*
X7747857Y-17983000D01*
X7776428Y-17997286D01*
X7790714Y-18011572D01*
X7805000Y-18040143D01*
X7805000Y-18111572D01*
X7790714Y-18140143D01*
X7776428Y-18154429D01*
X7747857Y-18168714D01*
X7676428Y-18168714D01*
X7647857Y-18154429D01*
X7633571Y-18140143D01*
X7919286Y-17868714D02*
X7919286Y-17925857D01*
X8033571Y-17868714D02*
X8033571Y-17925857D01*
X8476428Y-18283000D02*
X8462143Y-18268714D01*
X8433571Y-18225857D01*
X8419286Y-18197286D01*
X8405000Y-18154429D01*
X8390714Y-18083000D01*
X8390714Y-18025857D01*
X8405000Y-17954429D01*
X8419286Y-17911572D01*
X8433571Y-17883000D01*
X8462143Y-17840143D01*
X8476428Y-17825857D01*
X8719286Y-17868714D02*
X8662143Y-17868714D01*
X8633571Y-17883000D01*
X8619286Y-17897286D01*
X8590714Y-17940143D01*
X8576428Y-17997286D01*
X8576428Y-18111572D01*
X8590714Y-18140143D01*
X8605000Y-18154429D01*
X8633571Y-18168714D01*
X8690714Y-18168714D01*
X8719286Y-18154429D01*
X8733571Y-18140143D01*
X8747857Y-18111572D01*
X8747857Y-18040143D01*
X8733571Y-18011572D01*
X8719286Y-17997286D01*
X8690714Y-17983000D01*
X8633571Y-17983000D01*
X8605000Y-17997286D01*
X8590714Y-18011572D01*
X8576428Y-18040143D01*
X9105000Y-18168714D02*
X9105000Y-17868714D01*
X9233571Y-18168714D02*
X9233571Y-18011572D01*
X9219286Y-17983000D01*
X9190714Y-17968714D01*
X9147857Y-17968714D01*
X9119286Y-17983000D01*
X9105000Y-17997286D01*
X9419286Y-18168714D02*
X9390714Y-18154429D01*
X9376428Y-18140143D01*
X9362143Y-18111572D01*
X9362143Y-18025857D01*
X9376428Y-17997286D01*
X9390714Y-17983000D01*
X9419286Y-17968714D01*
X9462143Y-17968714D01*
X9490714Y-17983000D01*
X9505000Y-17997286D01*
X9519286Y-18025857D01*
X9519286Y-18111572D01*
X9505000Y-18140143D01*
X9490714Y-18154429D01*
X9462143Y-18168714D01*
X9419286Y-18168714D01*
X9690714Y-18168714D02*
X9662143Y-18154429D01*
X9647857Y-18125857D01*
X9647857Y-17868714D01*
X9919286Y-18154429D02*
X9890714Y-18168714D01*
X9833571Y-18168714D01*
X9805000Y-18154429D01*
X9790714Y-18125857D01*
X9790714Y-18011572D01*
X9805000Y-17983000D01*
X9833571Y-17968714D01*
X9890714Y-17968714D01*
X9919286Y-17983000D01*
X9933571Y-18011572D01*
X9933571Y-18040143D01*
X9790714Y-18068714D01*
X10047857Y-18154429D02*
X10076428Y-18168714D01*
X10133571Y-18168714D01*
X10162143Y-18154429D01*
X10176428Y-18125857D01*
X10176428Y-18111572D01*
X10162143Y-18083000D01*
X10133571Y-18068714D01*
X10090714Y-18068714D01*
X10062143Y-18054429D01*
X10047857Y-18025857D01*
X10047857Y-18011572D01*
X10062143Y-17983000D01*
X10090714Y-17968714D01*
X10133571Y-17968714D01*
X10162143Y-17983000D01*
X10276428Y-18283000D02*
X10290714Y-18268714D01*
X10319286Y-18225857D01*
X10333571Y-18197286D01*
X10347857Y-18154429D01*
X10362143Y-18083000D01*
X10362143Y-18025857D01*
X10347857Y-17954429D01*
X10333571Y-17911572D01*
X10319286Y-17883000D01*
X10290714Y-17840143D01*
X10276428Y-17825857D01*
X3730000Y-18489000D02*
X3790000Y-18429000D01*
X3730000Y-18369000D01*
X3670000Y-18429000D01*
X3730000Y-18489000D01*
X4233571Y-18564714D02*
X4062143Y-18564714D01*
X4147857Y-18564714D02*
X4147857Y-18264714D01*
X4119286Y-18307572D01*
X4090714Y-18336143D01*
X4062143Y-18350429D01*
X4362143Y-18536143D02*
X4376428Y-18550429D01*
X4362143Y-18564714D01*
X4347857Y-18550429D01*
X4362143Y-18536143D01*
X4362143Y-18564714D01*
X4490714Y-18293286D02*
X4505000Y-18279000D01*
X4533571Y-18264714D01*
X4605000Y-18264714D01*
X4633571Y-18279000D01*
X4647857Y-18293286D01*
X4662143Y-18321857D01*
X4662143Y-18350429D01*
X4647857Y-18393286D01*
X4476428Y-18564714D01*
X4662143Y-18564714D01*
X4847857Y-18264714D02*
X4876428Y-18264714D01*
X4905000Y-18279000D01*
X4919286Y-18293286D01*
X4933571Y-18321857D01*
X4947857Y-18379000D01*
X4947857Y-18450429D01*
X4933571Y-18507572D01*
X4919286Y-18536143D01*
X4905000Y-18550429D01*
X4876428Y-18564714D01*
X4847857Y-18564714D01*
X4819286Y-18550429D01*
X4805000Y-18536143D01*
X4790714Y-18507572D01*
X4776428Y-18450429D01*
X4776428Y-18379000D01*
X4790714Y-18321857D01*
X4805000Y-18293286D01*
X4819286Y-18279000D01*
X4847857Y-18264714D01*
X5076428Y-18564714D02*
X5076428Y-18364714D01*
X5076428Y-18393286D02*
X5090714Y-18379000D01*
X5119286Y-18364714D01*
X5162143Y-18364714D01*
X5190714Y-18379000D01*
X5205000Y-18407572D01*
X5205000Y-18564714D01*
X5205000Y-18407572D02*
X5219286Y-18379000D01*
X5247857Y-18364714D01*
X5290714Y-18364714D01*
X5319286Y-18379000D01*
X5333571Y-18407572D01*
X5333571Y-18564714D01*
X5476428Y-18564714D02*
X5476428Y-18364714D01*
X5476428Y-18393286D02*
X5490714Y-18379000D01*
X5519286Y-18364714D01*
X5562143Y-18364714D01*
X5590714Y-18379000D01*
X5605000Y-18407572D01*
X5605000Y-18564714D01*
X5605000Y-18407572D02*
X5619286Y-18379000D01*
X5647857Y-18364714D01*
X5690714Y-18364714D01*
X5719286Y-18379000D01*
X5733571Y-18407572D01*
X5733571Y-18564714D01*
X6319286Y-18250429D02*
X6062143Y-18636143D01*
X6705000Y-18264714D02*
X6733571Y-18264714D01*
X6762143Y-18279000D01*
X6776428Y-18293286D01*
X6790714Y-18321857D01*
X6805000Y-18379000D01*
X6805000Y-18450429D01*
X6790714Y-18507572D01*
X6776428Y-18536143D01*
X6762143Y-18550429D01*
X6733571Y-18564714D01*
X6705000Y-18564714D01*
X6676428Y-18550429D01*
X6662143Y-18536143D01*
X6647857Y-18507572D01*
X6633571Y-18450429D01*
X6633571Y-18379000D01*
X6647857Y-18321857D01*
X6662143Y-18293286D01*
X6676428Y-18279000D01*
X6705000Y-18264714D01*
X6933571Y-18536143D02*
X6947857Y-18550429D01*
X6933571Y-18564714D01*
X6919286Y-18550429D01*
X6933571Y-18536143D01*
X6933571Y-18564714D01*
X7133571Y-18264714D02*
X7162143Y-18264714D01*
X7190714Y-18279000D01*
X7205000Y-18293286D01*
X7219286Y-18321857D01*
X7233571Y-18379000D01*
X7233571Y-18450429D01*
X7219286Y-18507572D01*
X7205000Y-18536143D01*
X7190714Y-18550429D01*
X7162143Y-18564714D01*
X7133571Y-18564714D01*
X7105000Y-18550429D01*
X7090714Y-18536143D01*
X7076428Y-18507572D01*
X7062143Y-18450429D01*
X7062143Y-18379000D01*
X7076428Y-18321857D01*
X7090714Y-18293286D01*
X7105000Y-18279000D01*
X7133571Y-18264714D01*
X7490714Y-18364714D02*
X7490714Y-18564714D01*
X7419286Y-18250429D02*
X7347857Y-18464714D01*
X7533571Y-18464714D01*
X7619286Y-18264714D02*
X7819286Y-18264714D01*
X7690714Y-18564714D01*
X7919286Y-18264714D02*
X7919286Y-18321857D01*
X8033571Y-18264714D02*
X8033571Y-18321857D01*
X8476428Y-18679000D02*
X8462143Y-18664714D01*
X8433571Y-18621857D01*
X8419286Y-18593286D01*
X8405000Y-18550429D01*
X8390714Y-18479000D01*
X8390714Y-18421857D01*
X8405000Y-18350429D01*
X8419286Y-18307572D01*
X8433571Y-18279000D01*
X8462143Y-18236143D01*
X8476428Y-18221857D01*
X8747857Y-18564714D02*
X8576428Y-18564714D01*
X8662143Y-18564714D02*
X8662143Y-18264714D01*
X8633571Y-18307572D01*
X8605000Y-18336143D01*
X8576428Y-18350429D01*
X9019286Y-18264714D02*
X8876428Y-18264714D01*
X8862143Y-18407572D01*
X8876428Y-18393286D01*
X8905000Y-18379000D01*
X8976428Y-18379000D01*
X9005000Y-18393286D01*
X9019286Y-18407572D01*
X9033571Y-18436143D01*
X9033571Y-18507572D01*
X9019286Y-18536143D01*
X9005000Y-18550429D01*
X8976428Y-18564714D01*
X8905000Y-18564714D01*
X8876428Y-18550429D01*
X8862143Y-18536143D01*
X9390714Y-18564714D02*
X9390714Y-18264714D01*
X9519286Y-18564714D02*
X9519286Y-18407572D01*
X9505000Y-18379000D01*
X9476428Y-18364714D01*
X9433571Y-18364714D01*
X9405000Y-18379000D01*
X9390714Y-18393286D01*
X9705000Y-18564714D02*
X9676428Y-18550429D01*
X9662143Y-18536143D01*
X9647857Y-18507572D01*
X9647857Y-18421857D01*
X9662143Y-18393286D01*
X9676428Y-18379000D01*
X9705000Y-18364714D01*
X9747857Y-18364714D01*
X9776428Y-18379000D01*
X9790714Y-18393286D01*
X9805000Y-18421857D01*
X9805000Y-18507572D01*
X9790714Y-18536143D01*
X9776428Y-18550429D01*
X9747857Y-18564714D01*
X9705000Y-18564714D01*
X9976428Y-18564714D02*
X9947857Y-18550429D01*
X9933571Y-18521857D01*
X9933571Y-18264714D01*
X10205000Y-18550429D02*
X10176428Y-18564714D01*
X10119286Y-18564714D01*
X10090714Y-18550429D01*
X10076428Y-18521857D01*
X10076428Y-18407572D01*
X10090714Y-18379000D01*
X10119286Y-18364714D01*
X10176428Y-18364714D01*
X10205000Y-18379000D01*
X10219286Y-18407572D01*
X10219286Y-18436143D01*
X10076428Y-18464714D01*
X10333571Y-18550429D02*
X10362143Y-18564714D01*
X10419286Y-18564714D01*
X10447857Y-18550429D01*
X10462143Y-18521857D01*
X10462143Y-18507572D01*
X10447857Y-18479000D01*
X10419286Y-18464714D01*
X10376428Y-18464714D01*
X10347857Y-18450429D01*
X10333571Y-18421857D01*
X10333571Y-18407572D01*
X10347857Y-18379000D01*
X10376428Y-18364714D01*
X10419286Y-18364714D01*
X10447857Y-18379000D01*
X10562143Y-18679000D02*
X10576428Y-18664714D01*
X10605000Y-18621857D01*
X10619286Y-18593286D01*
X10633571Y-18550429D01*
X10647857Y-18479000D01*
X10647857Y-18421857D01*
X10633571Y-18350429D01*
X10619286Y-18307572D01*
X10605000Y-18279000D01*
X10576428Y-18236143D01*
X10562143Y-18221857D01*
X3530000Y-18695000D02*
X3790000Y-18955000D01*
X3790000Y-18695000D02*
X3530000Y-18955000D01*
X3790000Y-18825000D02*
G75*
G03*
X3790000Y-18825000I-130000J0D01*
G01*
X4062143Y-18689286D02*
X4076428Y-18675000D01*
X4105000Y-18660714D01*
X4176428Y-18660714D01*
X4205000Y-18675000D01*
X4219286Y-18689286D01*
X4233571Y-18717857D01*
X4233571Y-18746429D01*
X4219286Y-18789286D01*
X4047857Y-18960714D01*
X4233571Y-18960714D01*
X4362143Y-18932143D02*
X4376428Y-18946429D01*
X4362143Y-18960714D01*
X4347857Y-18946429D01*
X4362143Y-18932143D01*
X4362143Y-18960714D01*
X4633571Y-18660714D02*
X4576428Y-18660714D01*
X4547857Y-18675000D01*
X4533571Y-18689286D01*
X4505000Y-18732143D01*
X4490714Y-18789286D01*
X4490714Y-18903572D01*
X4505000Y-18932143D01*
X4519286Y-18946429D01*
X4547857Y-18960714D01*
X4605000Y-18960714D01*
X4633571Y-18946429D01*
X4647857Y-18932143D01*
X4662143Y-18903572D01*
X4662143Y-18832143D01*
X4647857Y-18803572D01*
X4633571Y-18789286D01*
X4605000Y-18775000D01*
X4547857Y-18775000D01*
X4519286Y-18789286D01*
X4505000Y-18803572D01*
X4490714Y-18832143D01*
X4847857Y-18660714D02*
X4876428Y-18660714D01*
X4905000Y-18675000D01*
X4919286Y-18689286D01*
X4933571Y-18717857D01*
X4947857Y-18775000D01*
X4947857Y-18846429D01*
X4933571Y-18903572D01*
X4919286Y-18932143D01*
X4905000Y-18946429D01*
X4876428Y-18960714D01*
X4847857Y-18960714D01*
X4819286Y-18946429D01*
X4805000Y-18932143D01*
X4790714Y-18903572D01*
X4776428Y-18846429D01*
X4776428Y-18775000D01*
X4790714Y-18717857D01*
X4805000Y-18689286D01*
X4819286Y-18675000D01*
X4847857Y-18660714D01*
X5076428Y-18960714D02*
X5076428Y-18760714D01*
X5076428Y-18789286D02*
X5090714Y-18775000D01*
X5119286Y-18760714D01*
X5162143Y-18760714D01*
X5190714Y-18775000D01*
X5205000Y-18803572D01*
X5205000Y-18960714D01*
X5205000Y-18803572D02*
X5219286Y-18775000D01*
X5247857Y-18760714D01*
X5290714Y-18760714D01*
X5319286Y-18775000D01*
X5333571Y-18803572D01*
X5333571Y-18960714D01*
X5476428Y-18960714D02*
X5476428Y-18760714D01*
X5476428Y-18789286D02*
X5490714Y-18775000D01*
X5519286Y-18760714D01*
X5562143Y-18760714D01*
X5590714Y-18775000D01*
X5605000Y-18803572D01*
X5605000Y-18960714D01*
X5605000Y-18803572D02*
X5619286Y-18775000D01*
X5647857Y-18760714D01*
X5690714Y-18760714D01*
X5719286Y-18775000D01*
X5733571Y-18803572D01*
X5733571Y-18960714D01*
X6319286Y-18646429D02*
X6062143Y-19032143D01*
X6705000Y-18660714D02*
X6733571Y-18660714D01*
X6762143Y-18675000D01*
X6776428Y-18689286D01*
X6790714Y-18717857D01*
X6805000Y-18775000D01*
X6805000Y-18846429D01*
X6790714Y-18903572D01*
X6776428Y-18932143D01*
X6762143Y-18946429D01*
X6733571Y-18960714D01*
X6705000Y-18960714D01*
X6676428Y-18946429D01*
X6662143Y-18932143D01*
X6647857Y-18903572D01*
X6633571Y-18846429D01*
X6633571Y-18775000D01*
X6647857Y-18717857D01*
X6662143Y-18689286D01*
X6676428Y-18675000D01*
X6705000Y-18660714D01*
X6933571Y-18932143D02*
X6947857Y-18946429D01*
X6933571Y-18960714D01*
X6919286Y-18946429D01*
X6933571Y-18932143D01*
X6933571Y-18960714D01*
X7233571Y-18960714D02*
X7062143Y-18960714D01*
X7147857Y-18960714D02*
X7147857Y-18660714D01*
X7119286Y-18703572D01*
X7090714Y-18732143D01*
X7062143Y-18746429D01*
X7419286Y-18660714D02*
X7447857Y-18660714D01*
X7476428Y-18675000D01*
X7490714Y-18689286D01*
X7505000Y-18717857D01*
X7519286Y-18775000D01*
X7519286Y-18846429D01*
X7505000Y-18903572D01*
X7490714Y-18932143D01*
X7476428Y-18946429D01*
X7447857Y-18960714D01*
X7419286Y-18960714D01*
X7390714Y-18946429D01*
X7376428Y-18932143D01*
X7362143Y-18903572D01*
X7347857Y-18846429D01*
X7347857Y-18775000D01*
X7362143Y-18717857D01*
X7376428Y-18689286D01*
X7390714Y-18675000D01*
X7419286Y-18660714D01*
X7633571Y-18689286D02*
X7647857Y-18675000D01*
X7676428Y-18660714D01*
X7747857Y-18660714D01*
X7776428Y-18675000D01*
X7790714Y-18689286D01*
X7805000Y-18717857D01*
X7805000Y-18746429D01*
X7790714Y-18789286D01*
X7619286Y-18960714D01*
X7805000Y-18960714D01*
X7919286Y-18660714D02*
X7919286Y-18717857D01*
X8033571Y-18660714D02*
X8033571Y-18717857D01*
X8476428Y-19075000D02*
X8462143Y-19060714D01*
X8433571Y-19017857D01*
X8419286Y-18989286D01*
X8405000Y-18946429D01*
X8390714Y-18875000D01*
X8390714Y-18817857D01*
X8405000Y-18746429D01*
X8419286Y-18703572D01*
X8433571Y-18675000D01*
X8462143Y-18632143D01*
X8476428Y-18617857D01*
X8562143Y-18660714D02*
X8747857Y-18660714D01*
X8647857Y-18775000D01*
X8690714Y-18775000D01*
X8719286Y-18789286D01*
X8733571Y-18803572D01*
X8747857Y-18832143D01*
X8747857Y-18903572D01*
X8733571Y-18932143D01*
X8719286Y-18946429D01*
X8690714Y-18960714D01*
X8605000Y-18960714D01*
X8576428Y-18946429D01*
X8562143Y-18932143D01*
X9105000Y-18960714D02*
X9105000Y-18660714D01*
X9233571Y-18960714D02*
X9233571Y-18803572D01*
X9219286Y-18775000D01*
X9190714Y-18760714D01*
X9147857Y-18760714D01*
X9119286Y-18775000D01*
X9105000Y-18789286D01*
X9419286Y-18960714D02*
X9390714Y-18946429D01*
X9376428Y-18932143D01*
X9362143Y-18903572D01*
X9362143Y-18817857D01*
X9376428Y-18789286D01*
X9390714Y-18775000D01*
X9419286Y-18760714D01*
X9462143Y-18760714D01*
X9490714Y-18775000D01*
X9505000Y-18789286D01*
X9519286Y-18817857D01*
X9519286Y-18903572D01*
X9505000Y-18932143D01*
X9490714Y-18946429D01*
X9462143Y-18960714D01*
X9419286Y-18960714D01*
X9690714Y-18960714D02*
X9662143Y-18946429D01*
X9647857Y-18917857D01*
X9647857Y-18660714D01*
X9919286Y-18946429D02*
X9890714Y-18960714D01*
X9833571Y-18960714D01*
X9805000Y-18946429D01*
X9790714Y-18917857D01*
X9790714Y-18803572D01*
X9805000Y-18775000D01*
X9833571Y-18760714D01*
X9890714Y-18760714D01*
X9919286Y-18775000D01*
X9933571Y-18803572D01*
X9933571Y-18832143D01*
X9790714Y-18860714D01*
X10047857Y-18946429D02*
X10076428Y-18960714D01*
X10133571Y-18960714D01*
X10162143Y-18946429D01*
X10176428Y-18917857D01*
X10176428Y-18903572D01*
X10162143Y-18875000D01*
X10133571Y-18860714D01*
X10090714Y-18860714D01*
X10062143Y-18846429D01*
X10047857Y-18817857D01*
X10047857Y-18803572D01*
X10062143Y-18775000D01*
X10090714Y-18760714D01*
X10133571Y-18760714D01*
X10162143Y-18775000D01*
X10276428Y-19075000D02*
X10290714Y-19060714D01*
X10319286Y-19017857D01*
X10333571Y-18989286D01*
X10347857Y-18946429D01*
X10362143Y-18875000D01*
X10362143Y-18817857D01*
X10347857Y-18746429D01*
X10333571Y-18703572D01*
X10319286Y-18675000D01*
X10290714Y-18632143D01*
X10276428Y-18617857D01*
M02*
