M48
; DRILL file {KiCad (5.1.6)-1} date 01/22/23 17:07:27
; FORMAT={-:-/ absolute / metric / decimal}
; #@! TF.CreationDate,2023-01-22T17:07:27+01:00
; #@! TF.GenerationSoftware,Kicad,Pcbnew,(5.1.6)-1
; #@! TF.FileFunction,Plated,1,4,PTH
FMAT,2
METRIC
T1C0.400
T2C0.600
T3C0.700
T4C0.800
T5C1.000
T6C1.190
T7C1.200
T8C1.350
T9C1.500
T10C2.750
T11C3.200
%
G90
G05
T1
X127.572Y-59.69
X149.542Y-187.833
X30.797Y-67.818
X70.421Y-79.883
X188.278Y-57.023
X213.423Y-96.52
X177.228Y-152.4
X214.694Y-199.39
X171.513Y-246.38
X118.427Y-82.55
X81.597Y-64.008
X192.341Y-41.021
X223.583Y-102.235
X72.453Y-163.83
X243.141Y-201.168
X122.237Y-219.075
X125.285Y-53.594
X133.667Y-193.04
X159.702Y-39.243
X220.281Y-49.53
X221.551Y-80.645
X60.261Y-157.48
X237.68Y-205.613
X198.819Y-245.745
X81.978Y-72.39
X78.041Y-46.99
X161.862Y-41.021
X214.947Y-143.383
X127.698Y-125.73
X54.546Y-183.642
X110.426Y-232.41
X116.141Y-89.408
X99.377Y-60.325
X50.863Y-57.15
X184.721Y-62.992
X170.751Y-80.645
X193.611Y-133.35
X103.441Y-182.88
X121.856Y-205.74
X130.238Y-223.52
X99.377Y-79.883
X46.926Y-48.26
X141.541Y-41.021
X250.888Y-114.3
X205.168Y-80.01
X158.052Y-128.27
X86.423Y-177.8
X106.743Y-198.882
X146.621Y-218.948
X134.175Y-197.358
X79.057Y-64.008
X72.326Y-48.26
X159.321Y-49.53
X202.501Y-41.148
X250.761Y-99.06
X140.272Y-80.645
X162.623Y-123.19
X243.141Y-205.74
X103.188Y-205.994
X243.522Y-218.948
X114.109Y-96.774
X159.576Y-134.62
X60.008Y-186.563
X48.45Y-51.943
X151.828Y-66.675
X182.181Y-66.675
X252.793Y-86.36
X236.791Y-175.133
X162.623Y-94.615
X93.916Y-181.61
X82.486Y-181.229
X151.828Y-202.438
X37.655Y-199.644
X130.112Y-115.824
X245.427Y-211.963
X124.523Y-76.2
X255.587Y-197.358
X174.308Y-43.053
X22.288Y-37.973
X144.082Y-62.992
X169.481Y-71.12
X252.158Y-48.26
X257.238Y-176.53
X148.018Y-101.6
X147.256Y-178.943
X68.644Y-181.61
X141.668Y-199.771
X31.178Y-199.39
X172.148Y-126.746
X172.403Y-211.963
X118.173Y-84.836
X168.212Y-136.906
X25.717Y-189.103
X169.862Y-39.243
X30.797Y-84.963
X81.597Y-76.2
X196.532Y-63.5
X241.998Y-71.628
X255.333Y-120.015
X137.224Y-100.965
X112.459Y-182.753
X175.958Y-202.438
X64.072Y-208.153
X194.627Y-39.243
X26.733Y-72.39
X57.848Y-83.185
X253.428Y-48.26
X252.158Y-153.67
X135.319Y-105.41
X196.278Y-186.436
X170.243Y-198.755
X92.646Y-205.613
X28.258Y-104.648
X32.067Y-184.023
X214.947Y-39.243
X56.832Y-60.198
X89.599Y-79.883
X155.385Y-60.833
X252.031Y-115.57
X171.386Y-102.362
X156.781Y-97.79
X203.136Y-187.96
X163.258Y-191.77
X92.646Y-199.39
X19.367Y-180.848
X61.785Y-197.358
X246.062Y-67.183
X51.117Y-67.818
X71.056Y-65.405
X169.227Y-65.405
X257.238Y-149.225
X187.388Y-106.045
X182.944Y-175.895
X190.564Y-199.39
X67.882Y-199.517
X23.812Y-184.658
X246.062Y-79.248
X51.117Y-76.073
X76.136Y-57.15
X185.864Y-60.833
X255.333Y-135.255
X167.069Y-109.855
X205.168Y-162.56
X212.153Y-193.04
X93.916Y-199.39
X138.748Y-202.438
X33.972Y-72.263
X98.361Y-48.26
X220.028Y-65.405
X257.238Y-161.29
X193.103Y-93.345
X63.436Y-157.48
X228.155Y-198.628
X103.569Y-196.215
X246.062Y-64.008
X33.972Y-64.008
X56.451Y-94.488
X145.225Y-60.833
X252.158Y-123.19
X190.436Y-104.267
X191.071Y-146.05
X231.457Y-199.39
X108.267Y-47.752
X249.237Y-72.263
X36.893Y-72.263
X69.278Y-79.883
X157.797Y-57.023
X214.058Y-105.41
X67.246Y-163.83
X213.55Y-205.613
X194.373Y-246.38
X111.569Y-45.72
X79.057Y-67.818
X172.022Y-41.021
X223.583Y-100.965
X167.069Y-152.4
X248.856Y-202.438
X182.816Y-233.045
X119.444Y-54.61
X75.882Y-79.248
X78.676Y-41.275
X225.361Y-62.992
X229.933Y-136.525
X203.898Y-162.56
X248.856Y-205.74
X245.173Y-246.38
X75.882Y-72.263
X83.248Y-48.895
X151.701Y-41.021
X236.918Y-137.795
X186.118Y-133.35
X53.023Y-182.118
X221.043Y-245.11
X120.459Y-85.09
X129.222Y-39.243
X56.451Y-48.895
X159.448Y-62.865
X255.968Y-94.615
X214.947Y-141.859
X185.992Y-128.905
X82.105Y-187.96
X127.572Y-199.39
X158.686Y-233.172
X153.987Y-43.053
X42.481Y-56.388
X178.117Y-57.023
X246.444Y-111.125
X222.821Y-136.525
X144.844Y-123.571
X103.441Y-193.04
X121.856Y-194.818
X33.591Y-223.52
X40.957Y-203.708
X81.597Y-67.818
X52.642Y-48.26
X154.242Y-71.12
X182.181Y-41.148
X259.779Y-88.265
X224.091Y-136.525
X125.666Y-123.19
X237.68Y-199.39
X132.143Y-208.28
X227.266Y-222.885
X197.167Y-211.963
X115.887Y-80.01
X207.581Y-197.358
X61.912Y-191.643
X176.847Y-176.403
X54.038Y-40.64
X149.161Y-71.12
X164.401Y-71.12
X255.968Y-83.185
X249.618Y-176.53
X117.411Y-123.19
X183.578Y-189.23
X238.823Y-205.613
X158.052Y-209.423
X25.463Y-194.945
X108.267Y-75.438
X62.547Y-192.278
X176.847Y-174.498
X184.468Y-39.243
X42.481Y-43.815
X139.001Y-49.53
X176.213Y-63.373
X238.188Y-83.82
X255.841Y-170.815
X136.588Y-89.535
X186.754Y-181.61
X112.459Y-187.96
X140.272Y-205.613
X25.463Y-198.755
X163.893Y-117.856
X109.791Y-91.186
X174.308Y-39.243
X25.336Y-70.993
X99.251Y-76.2
X243.268Y-57.785
X255.333Y-104.775
X125.666Y-106.045
X159.702Y-179.578
X49.466Y-198.501
X27.622Y-211.963
X56.197Y-184.658
X194.627Y-43.053
X32.448Y-46.99
X52.133Y-90.043
X245.681Y-48.26
X257.111Y-146.05
X172.148Y-91.44
X191.071Y-162.56
X165.798Y-205.613
X93.789Y-205.613
X118.173Y-38.354
X220.662Y-39.243
X51.117Y-64.008
X89.599Y-70.993
X199.707Y-65.405
X249.745Y-119.38
X173.546Y-99.695
X138.493Y-100.965
X222.186Y-151.13
X200.724Y-196.215
X55.181Y-205.74
X115.252Y-189.738
X251.777Y-79.248
X36.131Y-49.022
X73.088Y-58.42
X175.704Y-60.833
X250.888Y-144.78
X173.927Y-94.615
X209.613Y-171.45
X200.724Y-205.74
X58.483Y-197.866
X44.386Y-205.613
X246.062Y-76.073
X56.832Y-71.755
X103.569Y-48.895
X138.874Y-65.278
X257.238Y-170.815
X204.406Y-106.045
X112.459Y-171.323
X231.203Y-209.423
X97.727Y-205.74
X135.953Y-194.056
X30.797Y-79.883
X71.183Y-59.055
X189.421Y-65.405
X250.761Y-160.02
X214.694Y-102.87
X117.792Y-152.019
X209.486Y-205.613
X103.441Y-199.39
X37.148Y-64.008
X93.408Y-58.42
X208.597Y-57.023
X249.618Y-153.035
X198.183Y-100.33
X182.308Y-152.4
X164.655Y-205.613
X109.029Y-93.218
X210.502Y-43.053
X30.797Y-72.263
X90.742Y-70.993
X137.477Y-57.404
X214.694Y-106.68
X59.753Y-163.83
X224.726Y-205.74
X86.296Y-232.41
X113.347Y-85.09
X99.377Y-64.008
X215.201Y-71.12
X184.721Y-80.01
X59.118Y-145.415
X255.333Y-209.423
X25.971Y-219.075
X114.363Y-54.61
X130.493Y-182.753
X149.542Y-43.053
X78.168Y-48.387
X205.041Y-71.12
X154.368Y-80.01
X123.253Y-143.51
X260.667Y-195.453
X98.108Y-219.075
X102.552Y-79.883
X78.676Y-40.005
X131.381Y-41.021
X195.008Y-80.01
X171.513Y-125.73
X72.834Y-190.5
X248.983Y-245.11
X143.827Y-43.053
X34.989Y-38.1
X195.008Y-71.12
X257.238Y-100.33
X174.561Y-80.01
X188.659Y-128.905
X66.611Y-186.69
X117.919Y-199.39
X170.498Y-218.948
X88.582Y-203.962
X143.827Y-39.243
X55.181Y-55.245
X189.928Y-62.865
X246.444Y-95.885
X236.918Y-142.875
X163.893Y-128.905
X110.553Y-187.96
X127.698Y-196.215
X207.581Y-233.172
X113.983Y-203.962
X96.203Y-60.325
X48.323Y-58.42
X155.892Y-63.5
X192.341Y-66.675
X257.111Y-103.505
X225.742Y-89.408
X118.173Y-128.905
X65.341Y-178.435
X136.843Y-205.613
X31.051Y-205.486
X221.297Y-211.963
X115.379Y-91.186
X231.457Y-197.358
X110.045Y-197.358
X35.75Y-38.862
X139.001Y-71.12
X216.852Y-63.5
X248.602Y-81.661
X252.158Y-176.53
X169.608Y-110.363
X184.213Y-182.88
X257.873Y-205.613
X158.052Y-199.644
X37.529Y-209.296
X104.203Y-123.952
X115.887Y-120.396
X107.251Y-75.946
X162.877Y-135.128
X40.957Y-198.628
X169.862Y-43.053
X24.194Y-70.993
X128.841Y-49.53
X174.561Y-62.992
X243.776Y-48.26
X255.333Y-165.735
X135.572Y-126.873
X184.213Y-187.96
X72.326Y-181.61
X145.987Y-205.74
X61.658Y-209.423
X100.012Y-211.963
X37.148Y-184.023
X184.468Y-43.053
X37.529Y-48.895
X133.921Y-62.992
X241.363Y-64.77
X249.745Y-134.62
X105.474Y-123.19
X181.927Y-164.846
X182.308Y-209.423
X45.402Y-199.39
X115.379Y-46.482
X51.752Y-180.848
X190.183Y-43.053
X28.638Y-56.388
X78.803Y-109.728
X248.349Y-46.355
X257.238Y-133.985
X172.148Y-114.935
X205.168Y-183.388
X170.243Y-205.74
X79.438Y-199.39
X180.911Y-174.498
X225.107Y-43.053
X22.162Y-43.815
X95.313Y-56.515
X165.417Y-60.833
X249.745Y-104.14
X187.388Y-97.79
X141.668Y-91.44
X215.201Y-170.815
X195.008Y-201.168
X45.402Y-205.613
X249.237Y-64.008
X56.832Y-76.073
X22.288Y-39.37
X99.123Y-40.005
X216.218Y-60.833
X257.238Y-140.335
X163.131Y-93.345
X233.617Y-183.515
X224.853Y-196.215
X82.359Y-198.628
X119.062Y-187.198
X246.062Y-72.263
X54.292Y-67.818
X98.489Y-46.863
X226.377Y-60.833
X249.745Y-149.86
X213.296Y-93.345
X42.481Y-164.465
X141.668Y-205.613
X44.386Y-199.39
X146.621Y-191.262
X79.057Y-60.198
X92.011Y-72.39
X128.714Y-65.278
X252.031Y-161.29
X194.373Y-102.997
X77.914Y-164.973
X190.564Y-205.613
X66.739Y-193.04
X28.003Y-245.11
X246.062Y-60.198
X75.882Y-64.008
X91.376Y-41.148
X218.757Y-57.023
X252.158Y-138.43
X203.772Y-99.695
X142.303Y-158.115
X219.011Y-198.501
X125.285Y-83.312
X225.107Y-39.243
X81.597Y-60.198
X91.376Y-59.055
X147.637Y-57.023
X222.948Y-91.44
X42.608Y-167.64
X219.011Y-205.74
X78.803Y-245.11
X119.444Y-61.468
X99.377Y-72.263
X225.488Y-71.12
X236.918Y-122.555
X62.928Y-148.082
X252.285Y-198.882
X178.371Y-222.885
X249.237Y-76.073
X129.222Y-43.053
X71.183Y-40.005
X199.962Y-71.12
X201.358Y-80.645
X95.186Y-172.72
X32.067Y-177.038
X37.91Y-232.41
X75.882Y-76.073
X46.291Y-65.278
X212.661Y-66.675
X144.082Y-80.01
X144.844Y-125.095
X68.516Y-177.165
X49.974Y-219.075
X104.965Y-89.408
X96.203Y-72.263
X45.657Y-80.645
X161.862Y-66.675
X257.238Y-94.615
X230.822Y-134.493
X191.071Y-128.905
X72.326Y-186.69
X127.572Y-205.74
X125.031Y-245.11
X134.175Y-199.644
X139.382Y-43.053
X54.038Y-39.37
X186.373Y-63.5
X252.285Y-107.95
X236.918Y-107.315
X161.988Y-128.905
X49.276Y-189.103
X121.856Y-198.501
X218.757Y-218.948
X137.224Y-198.374
X99.377Y-67.818
X44.514Y-80.645
X154.242Y-62.992
X174.561Y-71.12
X257.238Y-88.265
X236.791Y-112.395
X108.013Y-127.127
X69.913Y-177.165
X133.921Y-205.74
X34.353Y-197.866
X126.428Y-127.0
X118.173Y-117.856
X110.553Y-80.01
X162.243Y-139.192
X161.862Y-203.962
X25.971Y-59.055
X141.541Y-66.675
X189.802Y-49.53
X246.444Y-56.642
X250.761Y-175.26
X162.496Y-97.79
X189.802Y-190.5
X37.148Y-177.038
X155.004Y-198.755
X40.069Y-205.232
X145.478Y-122.428
X166.052Y-115.443
X124.523Y-66.802
X185.992Y-198.12
X180.022Y-39.243
X26.098Y-65.405
X133.921Y-71.12
X169.481Y-49.53
X240.601Y-80.01
X249.618Y-165.1
X135.319Y-107.315
X110.553Y-182.753
X69.278Y-187.96
X160.719Y-205.613
X31.178Y-196.215
X124.142Y-211.963
X214.947Y-43.053
X54.292Y-60.198
X130.365Y-66.802
X237.553Y-54.61
X249.618Y-115.57
X104.203Y-122.555
X222.186Y-149.86
X182.562Y-199.39
X43.116Y-193.548
X51.752Y-184.658
X65.341Y-198.374
X200.343Y-39.243
X28.003Y-58.42
X76.263Y-109.728
X253.428Y-40.005
X257.238Y-125.095
X113.728Y-127.0
X212.153Y-189.23
X175.832Y-205.74
X69.278Y-205.613
X220.662Y-43.053
X20.383Y-42.164
X89.471Y-55.626
X196.278Y-68.58
X257.111Y-130.81
X197.421Y-89.662
X131.127Y-122.428
X217.106Y-149.86
X219.011Y-201.168
X73.596Y-194.945
X63.817Y-85.598
X249.237Y-60.198
X54.292Y-76.073
X32.067Y-84.963
X69.278Y-70.993
X243.903Y-41.275
X259.779Y-118.745
X166.941Y-99.06
X192.341Y-162.56
X213.931Y-193.04
X49.593Y-205.74
X153.352Y-193.548
X56.832Y-79.248
X73.724Y-49.022
X148.78Y-65.405
X257.238Y-155.575
X202.501Y-91.44
X112.078Y-172.466
X151.828Y-205.74
X68.008Y-205.613
X52.895Y-90.932
X37.148Y-60.198
X95.822Y-48.895
X198.438Y-57.023
X249.492Y-88.9
X193.103Y-96.52
X75.501Y-165.862
X195.008Y-194.818
X37.148Y-67.818
X93.916Y-52.07
X242.506Y-47.625
X257.238Y-118.745
X207.708Y-99.695
X174.689Y-152.4
X214.694Y-205.613
X120.713Y-246.38
X108.013Y-44.45
X145.732Y-186.563
X30.797Y-76.073
X127.317Y-57.023
X219.773Y-97.79
X159.321Y-152.4
X233.743Y-187.96
X81.978Y-223.52
X108.267Y-60.198
X96.203Y-76.073
X220.281Y-71.12
X211.518Y-80.645
X191.96Y-146.939
X248.983Y-198.755
X52.133Y-246.38
X102.298Y-60.325
X80.709Y-55.245
X189.928Y-71.12
X130.238Y-80.645
X143.573Y-140.97
X16.828Y-189.103
X105.981Y-223.52
X102.552Y-72.263
X57.848Y-48.895
X210.121Y-49.53
X134.048Y-80.01
X188.659Y-133.35
X103.569Y-187.96
X127.698Y-202.438
X57.721Y-223.52
X106.489Y-84.328
X133.667Y-39.243
X44.514Y-70.993
X172.022Y-66.675
X249.618Y-92.202
X236.918Y-127.635
X193.611Y-128.905
X88.201Y-179.705
X112.331Y-205.613
X24.194Y-246.38
X110.299Y-89.408
X139.001Y-203.962
X79.057Y-72.263
X73.596Y-52.07
X215.201Y-62.992
X257.238Y-109.855
X160.719Y-80.645
X169.608Y-121.92
X233.617Y-205.613
X116.776Y-199.39
X203.136Y-222.885
X258.889Y-203.962
X110.045Y-199.644
X96.203Y-79.883
X41.338Y-43.815
X144.082Y-71.12
X169.608Y-62.865
X257.111Y-115.57
X236.791Y-97.155
X132.143Y-98.933
X95.948Y-193.04
X145.987Y-194.945
X55.308Y-202.438
X161.607Y-120.142
X120.332Y-115.57
X107.759Y-84.836
X64.072Y-203.962
X182.944Y-197.358
X86.169Y-197.358
X34.989Y-55.245
X145.732Y-63.5
X179.641Y-71.12
X250.126Y-83.185
X252.158Y-168.91
X131.636Y-116.332
X190.564Y-183.515
X101.663Y-182.88
X151.828Y-199.39
X25.463Y-205.74
X166.052Y-120.142
X108.267Y-68.326
X234.76Y-203.962
X164.147Y-43.053
X29.909Y-57.15
X128.969Y-72.009
X164.401Y-62.992
X239.585Y-80.01
X257.238Y-164.465
X156.781Y-104.14
X115.506Y-191.77
X170.243Y-194.945
X49.466Y-201.168
X148.272Y-211.963
X143.065Y-192.024
X200.343Y-43.053
X28.003Y-48.895
X102.552Y-76.2
X245.173Y-55.88
X255.968Y-155.575
X132.017Y-102.87
X192.468Y-180.34
X179.387Y-198.882
X73.596Y-205.74
X123.507Y-45.72
X204.787Y-39.243
X29.781Y-48.895
X73.724Y-109.728
X226.758Y-68.58
X252.031Y-130.81
X168.974Y-107.95
X179.133Y-99.06
X199.326Y-186.182
X184.721Y-205.613
X73.596Y-201.168
X119.062Y-182.118
X251.777Y-60.198
X24.194Y-80.518
X96.584Y-57.15
X186.118Y-68.58
X246.444Y-141.605
X168.212Y-104.14
X172.148Y-110.363
X198.183Y-179.07
X204.025Y-198.628
X97.727Y-201.168
X141.287Y-179.578
X251.777Y-72.263
X54.292Y-71.755
X71.819Y-72.39
X216.599Y-68.58
X259.779Y-133.985
X167.069Y-100.965
X217.868Y-170.815
X224.853Y-202.438
X79.438Y-205.74
X23.812Y-180.848
X134.938Y-191.008
X33.972Y-79.883
X71.183Y-41.402
X165.798Y-68.58
X246.444Y-156.845
X193.23Y-98.933
X179.768Y-152.4
X159.702Y-191.77
X88.201Y-208.153
X56.197Y-180.848
X155.257Y-192.278
X33.972Y-60.198
X100.901Y-55.245
X195.897Y-60.833
X250.888Y-129.54
X213.423Y-98.933
X96.584Y-173.355
X200.724Y-202.438
X140.017Y-192.278
X33.972Y-67.818
X74.993Y-56.515
X253.428Y-41.275
X198.056Y-106.045
X61.531Y-146.685
X224.853Y-198.755
X74.993Y-246.38
X120.459Y-45.72
X167.957Y-57.023
X75.882Y-60.198
X222.821Y-41.021
X219.011Y-99.06
X161.862Y-152.4
X236.156Y-191.77
X55.944Y-245.11
X120.206Y-93.218
X81.597Y-79.248
X222.948Y-66.675
X215.328Y-80.01
X172.148Y-152.4
X243.268Y-198.501
X217.233Y-246.38
X96.203Y-67.818
X81.978Y-48.895
X199.453Y-62.865
X180.911Y-80.645
X126.428Y-125.73
X20.637Y-182.118
X101.663Y-245.11
X119.697Y-96.774
X102.552Y-67.818
X46.418Y-59.055
X205.041Y-62.992
X164.528Y-80.01
X191.198Y-133.35
X78.041Y-186.563
X109.918Y-209.423
X154.242Y-222.758
X153.987Y-39.243
X52.768Y-46.99
X210.121Y-71.12
X249.618Y-107.315
X221.551Y-107.315
X172.784Y-125.73
X84.01Y-186.69
X117.919Y-205.613
X62.166Y-232.41
X185.992Y-203.962
X133.667Y-43.053
X38.417Y-83.566
X209.613Y-62.992
X255.968Y-109.855
X225.488Y-80.01
X148.653Y-125.73
X69.787Y-186.69
X121.856Y-201.168
X195.262Y-218.948
X120.968Y-91.948
X258.635Y-198.12
X161.607Y-198.374
X149.542Y-39.243
X45.657Y-70.993
X149.161Y-62.865
X206.692Y-63.5
X253.301Y-87.122
X236.791Y-92.075
X126.428Y-99.695
X164.782Y-186.563
X101.663Y-187.96
X151.701Y-196.215
X255.841Y-233.045
X35.369Y-97.028
X120.332Y-120.396
X120.968Y-80.01
X65.341Y-203.962
X25.336Y-80.518
X79.057Y-76.2
X179.641Y-62.865
X248.221Y-47.752
X249.618Y-168.148
X132.143Y-93.345
X189.293Y-183.515
X53.657Y-189.103
X145.987Y-198.755
X31.178Y-201.93
X115.887Y-115.57
X123.253Y-66.802
X210.629Y-203.962
X159.702Y-43.053
X20.892Y-43.815
X131.508Y-66.675
X184.849Y-71.12
X240.601Y-70.358
X260.286Y-164.465
X167.069Y-89.535
X175.832Y-182.88
X170.117Y-201.168
X55.308Y-196.215
X57.467Y-95.504
X180.022Y-43.053
X27.877Y-51.943
X61.15Y-93.218
X243.522Y-51.435
X252.031Y-146.05
X131.127Y-115.062
X217.106Y-182.88
X175.832Y-198.755
X73.724Y-198.501
X113.093Y-38.354
X204.787Y-43.053
X32.322Y-48.26
X34.608Y-98.298
X135.191Y-68.58
X249.618Y-161.29
X171.513Y-104.267
X162.496Y-100.203
X203.898Y-172.72
X194.881Y-205.74
X69.151Y-199.39
X138.112Y-192.278
X251.777Y-67.183
X22.162Y-56.388
X102.171Y-48.895
X209.613Y-65.405
X249.618Y-146.05
X173.927Y-100.965
X206.439Y-189.23
X207.581Y-199.644
X97.853Y-198.501
X251.777Y-76.073
X54.292Y-79.248
X70.421Y-70.993
X206.311Y-68.58
X246.444Y-126.365
X173.927Y-97.79
X199.326Y-162.56
X219.138Y-194.945
X85.788Y-209.423
X138.112Y-197.358
X33.972Y-76.073
X91.376Y-39.878
X243.903Y-40.005
X260.286Y-149.352
X216.599Y-102.87
X45.148Y-164.592
X175.958Y-196.215
X49.593Y-194.818
X121.602Y-191.643
X30.797Y-60.198
X91.504Y-65.405
X206.184Y-60.833
X249.618Y-122.555
X192.976Y-102.87
X109.156Y-144.145
X187.388Y-193.04
X127.572Y-79.248
X37.148Y-76.073
X92.646Y-48.26
X155.511Y-68.58
X217.742Y-89.535
X45.148Y-168.402
X213.55Y-199.517
X148.653Y-246.38
X114.363Y-93.218
X251.777Y-64.008
X37.148Y-79.883
X212.788Y-41.148
X217.742Y-100.965
X164.401Y-152.4
X248.983Y-196.215
X134.556Y-232.537
X114.363Y-61.468
X96.203Y-64.008
X227.012Y-63.373
X228.917Y-146.558
X95.948Y-139.7
X238.823Y-199.39
X97.853Y-246.38
X75.882Y-67.818
X75.501Y-48.895
X219.773Y-62.865
X191.071Y-80.645
X167.957Y-140.97
X21.907Y-183.388
X175.323Y-245.745
X79.057Y-79.248
X48.323Y-48.895
X199.962Y-49.53
X236.918Y-152.908
X140.653Y-126.238
X89.471Y-186.69
X116.776Y-205.613
X73.596Y-219.075
X102.552Y-64.008
X50.228Y-48.895
X166.052Y-63.5
X252.158Y-92.71
X150.431Y-80.645
X160.083Y-127.635
X71.183Y-177.165
X113.602Y-198.12
X152.463Y-245.11
X113.093Y-83.312
X158.559Y-197.358
X139.382Y-39.243
X49.593Y-56.515
X194.881Y-62.992
X259.779Y-103.505
X236.791Y-157.988
X142.558Y-126.238
X243.268Y-194.945
X131.127Y-198.882
X231.712Y-233.045
X108.521Y-96.774
X60.008Y-187.833
X85.915Y-199.644
X47.053Y-72.39
X149.161Y-49.53
X202.501Y-66.675
X241.236Y-58.547
X236.791Y-168.148
X132.143Y-106.045
X196.532Y-190.373
X101.536Y-192.024
X146.113Y-201.168
X251.396Y-222.885
X59.627Y-93.218
X161.607Y-115.443
X123.253Y-76.2
X210.883Y-198.12
X56.832Y-67.818
X139.001Y-62.865
X179.641Y-49.53
X238.188Y-82.55
X246.444Y-172.085
X165.798Y-103.505
X169.481Y-182.88
X83.883Y-182.753
X140.272Y-199.771
X25.336Y-201.295
X75.882Y-211.963
X108.267Y-66.802
X234.76Y-198.12
X89.218Y-198.374
X164.147Y-39.243
X56.832Y-64.008
X135.572Y-63.5
X159.321Y-71.12
X239.585Y-70.358
X255.333Y-150.495
X132.143Y-96.52
X94.043Y-178.816
X164.655Y-199.771
X61.785Y-199.644
X26.352Y-104.648
X179.387Y-176.403
X190.183Y-39.243
X54.292Y-64.008
X60.389Y-94.488
X250.761Y-54.61
X252.031Y-100.33
X169.481Y-114.935
X190.436Y-177.8
X165.798Y-199.771
X79.438Y-196.215
X123.253Y-38.354
X62.547Y-85.598
X37.782Y-197.358
X210.502Y-39.243
X51.117Y-60.198
X33.846Y-97.028
X179.26Y-65.405
X249.492Y-100.33
X171.513Y-107.95
X162.623Y-104.14
X217.106Y-151.13
X195.008Y-198.501
X97.853Y-194.945
X51.752Y-211.963
X19.367Y-184.658
X249.237Y-67.183
X26.607Y-48.26
X99.123Y-41.275
X158.94Y-65.405
X249.618Y-130.81
X154.242Y-106.045
X216.599Y-170.815
X200.596Y-198.755
X55.181Y-199.39
X129.857Y-188.468
X249.237Y-79.248
X51.117Y-71.628
X68.897Y-55.626
X175.832Y-68.58
X255.968Y-140.335
X195.516Y-103.378
X200.724Y-162.56
X207.073Y-209.423
X103.569Y-202.438
X136.207Y-192.024
X127.317Y-189.103
X51.117Y-79.248
X93.916Y-49.022
X145.478Y-68.58
X249.618Y-137.795
X213.296Y-102.87
X63.563Y-145.415
X189.421Y-199.39
X79.438Y-202.438
X30.797Y-64.008
X90.742Y-79.883
X135.064Y-60.833
X255.968Y-125.095
X202.629Y-102.87
X169.608Y-152.4
X189.421Y-205.613
T2
X12.763Y-180.848
X12.763Y-185.928
X15.316Y-183.388
X44.831Y-180.848
X44.831Y-185.928
X47.384Y-183.388
T3
X201.295Y-52.705
X203.835Y-52.705
X130.175Y-52.705
X132.715Y-52.705
X69.215Y-52.705
X71.755Y-52.705
X43.815Y-88.138
X46.355Y-88.138
X211.455Y-52.705
X213.995Y-52.705
X23.495Y-52.705
X26.035Y-52.705
X23.495Y-88.138
X26.035Y-88.138
X221.615Y-52.705
X224.155Y-52.705
X89.535Y-52.705
X92.075Y-52.705
X191.135Y-52.705
X193.675Y-52.705
X43.815Y-52.705
X46.355Y-52.705
X180.975Y-52.705
X183.515Y-52.705
X239.395Y-52.705
X241.935Y-52.705
X160.655Y-52.705
X163.195Y-52.705
X140.335Y-52.705
X142.875Y-52.705
X170.815Y-52.705
X173.355Y-52.705
X150.495Y-52.705
X153.035Y-52.705
T4
X74.423Y-242.951
X75.693Y-240.411
X76.963Y-242.951
X78.233Y-240.411
X79.503Y-242.951
X80.773Y-240.411
X82.043Y-242.951
X83.313Y-240.411
X216.663Y-242.951
X217.933Y-240.411
X219.203Y-242.951
X220.473Y-240.411
X221.743Y-242.951
X223.013Y-240.411
X224.283Y-242.951
X225.553Y-240.411
X120.016Y-242.951
X121.286Y-240.411
X122.556Y-242.951
X123.826Y-240.411
X125.096Y-242.951
X126.366Y-240.411
X127.636Y-242.951
X128.906Y-240.411
X148.083Y-242.951
X149.353Y-240.411
X150.623Y-242.951
X151.893Y-240.411
X153.163Y-242.951
X154.433Y-240.411
X155.703Y-242.951
X156.973Y-240.411
X51.817Y-242.951
X53.087Y-240.411
X54.357Y-242.951
X55.627Y-240.411
X56.897Y-242.951
X58.167Y-240.411
X59.437Y-242.951
X60.707Y-240.411
X23.623Y-242.951
X24.893Y-240.411
X26.163Y-242.951
X27.433Y-240.411
X28.703Y-242.951
X29.973Y-240.411
X31.243Y-242.951
X32.513Y-240.411
X194.057Y-242.951
X195.327Y-240.411
X196.597Y-242.951
X197.867Y-240.411
X199.137Y-242.951
X200.407Y-240.411
X201.677Y-242.951
X202.947Y-240.411
X244.806Y-242.951
X246.076Y-240.411
X247.346Y-242.951
X248.616Y-240.411
X249.886Y-242.951
X251.156Y-240.411
X252.426Y-242.951
X253.696Y-240.411
X170.943Y-242.951
X172.213Y-240.411
X173.483Y-242.951
X174.753Y-240.411
X176.023Y-242.951
X177.293Y-240.411
X178.563Y-242.951
X179.833Y-240.411
X140.97Y-160.02
X140.97Y-167.64
X143.51Y-160.02
X143.51Y-167.64
X146.05Y-160.02
X146.05Y-167.64
X148.59Y-160.02
X148.59Y-167.64
X151.13Y-160.02
X151.13Y-167.64
X153.67Y-160.02
X153.67Y-167.64
X156.21Y-160.02
X156.21Y-167.64
X158.75Y-160.02
X158.75Y-167.64
X161.29Y-160.02
X161.29Y-167.64
X163.83Y-160.02
X163.83Y-167.64
X166.37Y-160.02
X166.37Y-167.64
X168.91Y-160.02
X168.91Y-167.64
X171.45Y-160.02
X171.45Y-167.64
X173.99Y-160.02
X173.99Y-167.64
X97.156Y-242.951
X98.426Y-240.411
X99.696Y-242.951
X100.966Y-240.411
X102.236Y-242.951
X103.506Y-240.411
X104.776Y-242.951
X106.046Y-240.411
T5
X77.393Y-89.154
X79.933Y-89.154
X82.473Y-89.154
X85.013Y-89.154
X35.781Y-159.755
X35.781Y-162.295
X38.321Y-159.755
X38.321Y-162.295
X40.861Y-159.755
X40.861Y-162.295
X43.401Y-159.755
X43.401Y-162.295
X45.941Y-159.755
X45.941Y-162.295
X48.481Y-159.755
X48.481Y-162.295
X51.021Y-159.755
X51.021Y-162.295
X53.561Y-159.755
X53.561Y-162.295
X56.101Y-159.755
X56.101Y-162.295
X58.641Y-159.755
X58.641Y-162.295
X61.181Y-159.755
X61.181Y-162.295
X63.721Y-159.755
X63.721Y-162.295
X66.261Y-159.755
X66.261Y-162.295
X68.801Y-159.755
X68.801Y-162.295
X71.341Y-159.755
X71.341Y-162.295
X73.881Y-159.755
X73.881Y-162.295
X76.421Y-159.755
X76.421Y-162.295
X78.961Y-159.755
X78.961Y-162.295
X81.501Y-159.755
X81.501Y-162.295
X84.041Y-159.755
X84.041Y-162.295
X35.687Y-170.18
X35.687Y-172.72
X38.227Y-170.18
X38.227Y-172.72
X40.767Y-170.18
X40.767Y-172.72
X43.307Y-170.18
X43.307Y-172.72
X45.847Y-170.18
X45.847Y-172.72
X48.387Y-170.18
X48.387Y-172.72
X50.927Y-170.18
X50.927Y-172.72
X53.467Y-170.18
X53.467Y-172.72
X56.007Y-170.18
X56.007Y-172.72
X58.547Y-170.18
X58.547Y-172.72
X61.087Y-170.18
X61.087Y-172.72
X63.627Y-170.18
X63.627Y-172.72
X66.167Y-170.18
X66.167Y-172.72
X68.707Y-170.18
X68.707Y-172.72
X71.247Y-170.18
X71.247Y-172.72
X73.787Y-170.18
X73.787Y-172.72
X76.327Y-170.18
X76.327Y-172.72
X78.867Y-170.18
X78.867Y-172.72
X81.407Y-170.18
X81.407Y-172.72
X83.947Y-170.18
X83.947Y-172.72
X175.29Y-121.158
X177.83Y-121.158
X180.37Y-121.158
X182.91Y-121.158
X185.45Y-121.158
X187.99Y-121.158
X190.53Y-121.158
X193.07Y-121.158
X195.61Y-121.158
X198.15Y-121.158
X200.69Y-121.158
X203.23Y-121.158
X205.77Y-121.158
X208.31Y-121.158
X210.85Y-121.158
X213.39Y-121.158
X215.93Y-121.158
X218.47Y-121.158
X221.01Y-121.158
X223.55Y-121.158
T6
X28.892Y-191.008
X31.432Y-191.008
X37.782Y-191.008
X40.322Y-191.008
T7
X149.225Y-31.115
X154.305Y-31.115
X263.525Y-89.535
X263.525Y-94.615
X263.525Y-99.695
X159.385Y-31.115
X164.465Y-31.115
X128.905Y-31.115
X133.985Y-31.115
X263.525Y-104.775
X263.525Y-109.855
X263.525Y-114.935
X220.409Y-31.115
X225.488Y-31.115
X263.525Y-120.015
X263.525Y-125.095
X263.525Y-130.175
X189.865Y-31.115
X194.945Y-31.115
X246.38Y-31.115
X251.46Y-31.115
X263.525Y-135.255
X263.525Y-140.335
X263.525Y-145.415
X26.416Y-31.115
X31.496Y-31.115
X169.545Y-31.115
X174.625Y-31.115
X200.025Y-31.115
X205.105Y-31.115
X263.525Y-165.735
X263.525Y-170.815
X263.525Y-175.895
X263.525Y-74.295
X263.525Y-79.375
X139.065Y-31.115
X144.145Y-31.115
X72.39Y-31.115
X77.47Y-31.115
X263.525Y-150.495
X263.525Y-155.575
X263.525Y-160.655
X179.705Y-31.115
X184.785Y-31.115
X92.71Y-31.115
X97.79Y-31.115
X210.185Y-31.115
X215.265Y-31.115
T8
X110.807Y-33.02
X110.807Y-58.42
X113.347Y-48.26
X115.887Y-33.02
X115.887Y-58.42
X118.427Y-48.26
X120.968Y-33.02
X120.968Y-58.42
X123.507Y-48.26
T9
X24.64Y-233.045
X28.28Y-233.045
X31.92Y-233.045
X35.56Y-233.045
X72.9Y-233.045
X76.54Y-233.045
X80.18Y-233.045
X83.82Y-233.045
X242.445Y-233.045
X246.085Y-233.045
X249.725Y-233.045
X253.365Y-233.045
X194.015Y-233.045
X197.655Y-233.045
X201.295Y-233.045
X204.935Y-233.045
X194.185Y-215.9
X197.825Y-215.9
X201.465Y-215.9
X205.105Y-215.9
X218.315Y-215.9
X221.955Y-215.9
X225.595Y-215.9
X229.235Y-215.9
X121.16Y-215.9
X124.8Y-215.9
X128.44Y-215.9
X132.08Y-215.9
X24.64Y-215.9
X28.28Y-215.9
X31.92Y-215.9
X35.56Y-215.9
X48.77Y-233.045
X52.41Y-233.045
X56.05Y-233.045
X59.69Y-233.045
X169.42Y-215.9
X173.06Y-215.9
X176.7Y-215.9
X180.34Y-215.9
X145.29Y-215.9
X148.93Y-215.9
X152.57Y-215.9
X156.21Y-215.9
X242.445Y-215.9
X246.085Y-215.9
X249.725Y-215.9
X253.365Y-215.9
X72.9Y-215.9
X76.54Y-215.9
X80.18Y-215.9
X83.82Y-215.9
X218.315Y-233.045
X221.955Y-233.045
X225.595Y-233.045
X229.235Y-233.045
X48.77Y-215.9
X52.41Y-215.9
X56.05Y-215.9
X59.69Y-215.9
X97.03Y-233.045
X100.67Y-233.045
X104.31Y-233.045
X107.95Y-233.045
X169.42Y-233.045
X173.06Y-233.045
X176.7Y-233.045
X180.34Y-233.045
X121.16Y-233.045
X124.8Y-233.045
X128.44Y-233.045
X132.08Y-233.045
X97.03Y-215.9
X100.67Y-215.9
X104.31Y-215.9
X107.95Y-215.9
X145.29Y-233.045
X148.93Y-233.045
X152.57Y-233.045
X156.21Y-233.045
T10
X30.911Y-112.025
X30.911Y-161.025
X88.911Y-112.025
X88.911Y-161.025
T11
X261.62Y-66.04
X92.71Y-86.995
X104.203Y-33.02
X64.77Y-222.25
X235.585Y-33.02
X261.62Y-33.02
X15.875Y-33.02
X235.585Y-246.38
X261.62Y-246.38
X138.43Y-246.38
X230.915Y-165.608
X230.915Y-88.138
X261.62Y-187.833
X15.875Y-246.38
X261.62Y-213.36
X41.91Y-246.38
X231.203Y-66.04
X15.875Y-102.108
X15.875Y-170.18
X183.515Y-98.933
X99.06Y-156.21
X62.23Y-43.18
X41.91Y-33.02
X100.965Y-86.995
X53.657Y-102.108
X123.6Y-88.138
X15.875Y-213.36
X213.995Y-156.21
X121.602Y-102.108
X123.6Y-165.608
X15.875Y-66.04
X210.185Y-222.25
T0
M30
