M48
; DRILL file {KiCad (5.1.6)-1} date 01/22/23 17:07:27
; FORMAT={-:-/ absolute / metric / decimal}
; #@! TF.CreationDate,2023-01-22T17:07:27+01:00
; #@! TF.GenerationSoftware,Kicad,Pcbnew,(5.1.6)-1
; #@! TF.FileFunction,NonPlated,1,4,NPTH
FMAT,2
METRIC
T1C3.300
%
G90
G05
T1
X146.811Y-249.301
X192.785Y-249.301
X204.217Y-249.301
X243.534Y-249.301
X254.966Y-249.301
X169.671Y-249.301
X181.103Y-249.301
X95.884Y-249.301
X107.316Y-249.301
X73.151Y-249.301
X84.583Y-249.301
X215.391Y-249.301
X226.823Y-249.301
X118.744Y-249.301
X130.176Y-249.301
X158.243Y-249.301
X50.545Y-249.301
X61.977Y-249.301
X22.351Y-249.301
X33.783Y-249.301
T0
M30
