M48
; DRILL file {KiCad (5.1.6)-1} date 01/22/23 15:31:12
; FORMAT={-:-/ absolute / metric / decimal}
; #@! TF.CreationDate,2023-01-22T15:31:12+01:00
; #@! TF.GenerationSoftware,Kicad,Pcbnew,(5.1.6)-1
; #@! TF.FileFunction,Plated,1,2,PTH
FMAT,2
METRIC
T1C0.400
T2C0.600
T3C0.700
T4C0.800
T5C1.100
T6C1.200
T7C1.500
T8C3.200
%
G90
G05
T1
X121.285Y-76.835
X165.735Y-7.62
X135.89Y-7.62
X44.45Y-113.665
X139.065Y-17.145
X92.075Y-116.84
X106.426Y-59.69
X212.725Y-17.145
X121.285Y-9.525
X92.075Y-113.665
X109.728Y-77.724
X131.445Y-125.73
X76.835Y-59.69
X101.092Y-67.31
X160.655Y-93.98
X130.81Y-113.03
X50.165Y-41.275
X97.282Y-71.12
X37.465Y-78.74
X44.45Y-36.83
X85.852Y-31.115
X189.865Y-48.895
X90.17Y-1.905
X41.275Y-47.625
X142.875Y-92.075
X98.552Y-69.85
X118.11Y-0.635
X44.45Y-1.905
X50.8Y-133.985
X99.06Y-12.065
X88.265Y-55.88
X65.405Y-39.37
X167.005Y-1.27
X149.225Y-78.74
X139.065Y-84.455
X128.905Y-62.865
X81.915Y-36.195
X139.7Y-41.275
X178.435Y-5.715
X76.2Y-1.905
X81.915Y-137.795
X56.515Y-31.115
X167.64Y-56.515
X193.04Y-5.715
X76.835Y-5.715
X84.455Y-121.92
X162.56Y-86.995
X218.44Y-0.635
X131.445Y-74.93
X44.323Y-48.895
X144.78Y-34.29
X73.025Y-5.715
X88.9Y-36.195
X208.28Y-59.69
X112.395Y-6.985
X79.375Y-41.275
X73.025Y-9.525
X44.45Y-116.84
X168.275Y-17.145
X60.325Y-5.715
X194.945Y-99.06
X118.11Y-130.175
X119.38Y-78.105
X98.425Y-36.195
X104.775Y-9.525
X56.515Y-113.665
X184.15Y-36.195
X145.415Y-2.54
X95.885Y-116.84
X186.69Y-92.075
X90.805Y-123.825
X179.705Y-142.875
X123.825Y-56.515
X146.05Y-48.895
X130.175Y-58.42
X209.55Y-7.62
X163.83Y-9.525
X121.285Y-5.715
X48.26Y-113.665
X169.545Y-36.195
X173.99Y-34.29
X217.805Y-133.985
X193.04Y-92.075
X218.44Y-6.985
X142.24Y-64.77
X170.815Y-47.625
X191.135Y-9.525
X163.83Y-7.62
X89.535Y-7.62
X45.72Y-5.715
X80.01Y6.35
X76.2Y-110.49
X86.995Y-121.92
X182.245Y-56.515
X145.415Y-47.625
X146.685Y-7.62
X89.535Y-9.525
X82.55Y-90.17
X217.805Y-104.14
X111.252Y-77.724
X201.93Y-13.97
X107.315Y-105.41
X135.255Y-59.69
X132.715Y-119.38
X62.23Y-59.69
X102.362Y-67.31
X71.12Y-90.17
X166.37Y-93.98
X104.902Y-76.835
X71.12Y-31.115
X131.445Y-119.38
X42.164Y-26.67
X114.935Y-26.67
X64.77Y-62.865
X91.44Y-1.905
X50.8Y-3.175
X45.72Y-40.005
X167.005Y-123.19
X86.995Y-62.865
X111.125Y-1.27
X50.165Y-1.905
X59.69Y-124.46
X96.52Y-36.195
X94.615Y-62.865
X210.185Y-1.27
X193.04Y-9.525
X44.45Y-0.635
X69.85Y-118.11
X83.82Y-36.195
X117.475Y-55.88
X175.26Y-2.54
X176.53Y-7.62
X64.77Y-121.285
X184.15Y-41.275
X170.18Y6.35
X153.035Y-56.515
X203.835Y-2.54
X178.435Y-7.62
X72.957Y-7.62
X151.765Y-93.98
X218.44Y-20.32
X125.984Y-70.739
X53.975Y-47.625
X151.765Y-40.005
X74.93Y-5.715
X118.11Y-36.195
X132.08Y-68.58
X112.395Y-47.625
X80.01Y-39.37
X87.63Y-5.715
X78.74Y-130.175
X182.88Y-17.145
X60.325Y-7.62
X155.575Y-98.425
X151.13Y-142.875
X132.715Y-74.93
X102.235Y-48.895
X119.38Y-7.62
X52.07Y-116.84
X200.66Y-36.195
X168.275Y-2.54
X111.125Y-111.125
X192.405Y-73.025
X170.18Y-142.875
X130.175Y-74.93
X187.325Y-13.97
X207.645Y-7.62
X148.59Y-5.715
X119.38Y-9.525
X43.815Y-7.62
X205.74Y-36.195
X211.455Y-17.145
X118.11Y-120.65
X180.975Y-69.85
X143.51Y6.35
X130.302Y-66.675
X195.58Y-40.005
X130.175Y-60.96
X205.74Y-5.715
X161.925Y-7.62
X87.63Y-9.525
X48.26Y-110.49
X188.595Y-34.29
X100.965Y-90.805
X139.7Y-72.39
X156.21Y-47.625
X135.89Y-9.525
X119.38Y-5.715
X52.07Y-113.665
X60.325Y-78.74
X112.776Y-71.12
X200.025Y-47.625
X76.2Y-113.665
X111.252Y-70.612
X80.01Y-62.865
X47.625Y-59.69
X50.8Y-56.515
X59.69Y-90.17
X172.339Y-100.33
X102.362Y-75.565
X54.61Y-12.065
X59.055Y-55.88
X45.72Y-36.83
X140.335Y-76.2
X64.77Y-56.515
X99.06Y-2.54
X44.45Y-40.005
X212.09Y-83.185
X109.855Y-56.515
X112.395Y-2.54
X57.785Y-0.635
X61.595Y-104.775
X201.93Y-122.555
X101.6Y-62.865
X58.42Y-48.895
X181.61Y-1.27
X176.53Y-5.715
X65.405Y-134.62
X69.215Y-36.195
X138.43Y-56.515
X123.19Y-39.37
X194.945Y-7.62
X55.245Y-121.92
X198.755Y-41.275
X31.115Y-115.57
X182.245Y-62.865
X189.23Y-2.54
X165.735Y-9.525
X62.23Y-7.62
X71.12Y-0.635
X169.545Y-41.275
X59.69Y-36.195
X122.555Y-74.93
X86.995Y-47.625
X52.705Y-36.195
X120.65Y-99.06
X74.93Y-7.62
X31.75Y-58.42
X211.455Y-56.515
X152.4Y-17.145
X106.68Y-7.62
X60.325Y-110.49
X176.53Y-36.195
X31.75Y-1.27
X60.325Y-9.525
X173.355Y-104.14
X86.233Y-130.175
X31.115Y-77.47
X131.445Y-69.85
X109.22Y-39.37
X89.535Y-100.965
X207.645Y-9.525
X132.08Y-9.525
X45.72Y-7.62
X83.82Y-110.49
X180.975Y-87.63
X189.23Y-142.875
X132.08Y-55.88
X185.42Y-47.625
X205.74Y-7.62
X150.495Y-7.62
X117.475Y-9.525
X43.815Y-9.525
X39.37Y6.35
X137.795Y-17.145
X118.11Y-111.125
X193.675Y-59.69
X127.0Y-47.625
X207.645Y-5.715
X146.685Y-9.525
X102.87Y-7.62
X60.325Y-113.665
X106.68Y6.35
X87.63Y-80.645
X160.02Y-47.625
X146.685Y-5.715
X132.08Y-5.715
X64.135Y-110.49
X111.125Y-120.65
X120.65Y-59.69
X203.835Y-47.625
X111.125Y-130.175
X109.728Y-70.104
X131.445Y-120.65
X116.84Y-84.455
X127.381Y-125.73
X65.405Y-90.17
X205.74Y-130.175
X103.632Y-67.31
X33.655Y-74.93
X71.12Y-26.67
X134.62Y-119.38
X52.07Y-104.775
X161.925Y-76.2
X200.66Y-125.73
X132.715Y-129.54
X104.775Y-1.27
X53.34Y-121.92
X165.1Y-91.44
X57.785Y-62.865
X133.985Y-1.27
X67.31Y-86.995
X161.29Y-72.39
X102.87Y-55.88
X73.025Y-48.895
X57.785Y-100.965
X160.655Y-1.27
X180.34Y-7.62
X62.865Y-132.08
X154.94Y-41.275
X153.035Y-62.865
X39.37Y-7.62
X211.455Y-2.54
X191.135Y-5.715
X89.535Y-138.43
X44.45Y-38.735
X183.515Y6.35
X196.85Y-62.865
X196.215Y-1.27
X193.04Y-7.62
X62.23Y-9.525
X160.655Y-142.875
X196.85Y-56.515
X87.63Y-48.895
X66.675Y6.35
X58.42Y-7.62
X31.115Y-67.945
X138.43Y-74.295
X116.84Y-48.895
X83.185Y-6.985
X117.475Y-7.62
X83.82Y-113.665
X132.08Y-36.195
X203.2Y-34.29
X62.23Y-5.715
X179.07Y-91.44
X96.52Y-121.285
X31.115Y-86.995
X164.465Y-59.69
X116.205Y-47.625
X209.55Y-9.525
X135.89Y-5.715
X78.74Y-123.825
X179.07Y-111.76
X107.95Y-97.155
X191.135Y-83.185
X218.44Y-13.335
X128.905Y-74.93
X131.445Y-48.895
X78.74Y-36.195
X163.83Y-5.715
X133.985Y-5.715
X47.625Y-7.62
X93.345Y6.35
X50.165Y-68.58
X81.915Y-133.985
X128.016Y-74.422
X175.26Y-48.895
X121.285Y-79.375
X209.55Y-5.715
X161.925Y-5.715
X87.63Y-7.62
X76.835Y-90.17
X197.485Y-17.145
X90.17Y-142.875
X180.975Y-40.005
X150.495Y-9.525
X121.285Y-7.62
X48.26Y-116.84
X88.9Y-113.665
X112.776Y-77.724
X211.455Y-47.625
X95.885Y-113.665
X108.204Y-69.088
X54.61Y-36.195
X121.285Y-84.455
X128.27Y-115.57
X51.435Y-92.71
X205.105Y-126.365
X104.902Y-67.31
X46.355Y-87.63
X84.455Y-12.065
X131.445Y-121.92
X84.455Y-1.27
X83.82Y-104.775
X45.72Y-38.735
X113.03Y-36.195
X50.8Y-62.865
X77.47Y-1.905
X65.405Y-86.995
X100.33Y-31.115
X94.615Y-56.515
X57.785Y-47.625
X139.065Y-1.27
X63.5Y-1.905
X69.215Y-86.995
X100.33Y-26.67
X109.855Y-62.865
X54.61Y-130.175
X159.385Y-2.54
X191.135Y-7.62
X58.42Y-135.89
X176.276Y-113.792
X159.385Y-62.865
X67.945Y-6.985
X167.005Y-17.145
X194.945Y-9.525
X94.742Y-132.334
X151.765Y-93.98
X196.85Y6.35
X175.895Y-55.88
X197.485Y-2.54
X180.34Y-5.715
X58.42Y-9.525
X157.48Y-81.28
X103.505Y-36.195
X205.105Y-62.865
X94.615Y-39.37
X68.58Y-47.625
X80.01Y-116.84
X31.75Y-10.795
X45.72Y-9.525
X51.435Y-142.875
X120.015Y-68.58
X124.46Y-13.97
X89.535Y-5.715
X83.82Y-116.84
X109.855Y-116.205
X133.985Y-2.54
X184.15Y-71.755
X31.115Y-106.045
X132.715Y-67.31
X97.79Y-47.625
X133.35Y-79.375
X130.175Y-34.29
X102.87Y-5.715
X56.515Y-110.49
X153.67Y-17.145
X94.615Y-83.82
X31.115Y-125.095
X167.64Y-62.865
X141.605Y-47.625
X93.345Y-36.195
X148.59Y-9.525
X106.68Y-9.525
X47.625Y-9.525
X147.32Y-36.195
X31.75Y-48.895
X114.935Y-103.505
X90.17Y-136.525
X149.86Y-59.69
X130.81Y-47.625
X205.74Y-9.525
X161.925Y-9.525
X106.68Y-5.715
X43.815Y-5.715
X166.37Y-86.995
X65.405Y-80.645
X172.72Y-13.97
X133.985Y-7.62
X76.2Y-116.84
X95.885Y-110.49
X108.204Y-77.724
X212.725Y-47.625
X92.075Y-110.49
X106.68Y-68.58
X98.552Y-73.66
X125.73Y-84.455
X99.822Y-68.58
X41.91Y-83.185
X203.2Y-130.81
X103.632Y-76.2
X69.215Y-12.065
X131.445Y-124.46
X103.505Y-1.27
X46.99Y-45.085
X41.275Y-12.065
X205.105Y-48.895
X97.79Y-1.27
X73.025Y-136.525
X135.89Y-63.5
X71.755Y-62.865
X139.065Y-2.54
X50.8Y-137.795
X154.94Y-83.185
X123.825Y-62.865
X50.8Y-39.37
X182.88Y-2.54
X176.53Y-9.525
X69.85Y-124.46
X200.66Y-130.81
X146.685Y-55.88
X72.39Y-47.625
X202.565Y-1.27
X178.435Y-9.525
X71.12Y-1.905
X87.757Y-130.175
X146.05Y-76.2
X40.64Y-142.875
X174.625Y-62.865
X55.88Y-130.175
X76.835Y-7.62
X218.44Y-35.56
X125.095Y-66.675
X111.125Y-36.195
X67.31Y-36.195
X88.265Y-90.17
X158.115Y-13.97
X74.93Y-9.525
X160.02Y-84.455
X208.28Y-142.875
X211.455Y-62.865
X143.51Y-13.97
X91.44Y-5.715
X64.135Y-113.665
X154.94Y-36.195
X146.685Y-1.27
X217.805Y-114.3
X179.07Y-89.535
X31.115Y-134.62
X122.555Y-68.58
X101.6Y-47.625
X108.585Y-41.275
X104.775Y-5.715
X44.45Y-110.49
X159.385Y-34.29
X217.805Y-121.285
X195.58Y-74.295
X31.115Y-96.52
X144.145Y-62.865
X174.625Y-47.625
X93.98Y-41.275
X150.495Y-5.715
X104.775Y-7.62
X56.515Y-116.84
X161.925Y-36.195
X126.365Y-104.775
X88.9Y-116.84
X93.98Y-130.175
X190.5Y-55.88
X134.62Y-38.1
X49.53Y-36.195
X165.735Y-5.715
X117.475Y-5.715
X47.625Y-5.715
X31.75Y-20.32
X80.01Y-110.49
X181.61Y-17.145
X133.985Y-9.525
X99.695Y-142.875
X106.68Y-77.724
X126.365Y-127.635
X107.95Y-142.875
X91.44Y-59.69
X73.025Y-55.88
X134.62Y-84.455
X136.525Y-132.715
X107.95Y-135.89
X56.515Y-26.67
X99.822Y-74.295
X45.72Y-35.56
X85.852Y-26.67
X97.282Y-73.025
X85.725Y-2.54
X40.386Y-43.18
X44.45Y-35.56
X101.092Y-74.93
X116.84Y-0.635
X64.77Y-3.175
X57.15Y-125.095
X139.065Y-63.5
X80.01Y-56.515
X53.34Y-6.985
X153.67Y-2.54
X63.5Y-86.995
X130.175Y-84.455
X114.3Y-62.865
X64.77Y-41.275
X173.99Y-1.27
X194.945Y-5.715
X57.785Y-1.905
X62.23Y-130.175
X113.665Y-12.065
X161.29Y-55.88
X187.96Y-1.27
X180.34Y-9.525
X88.9Y-125.095
X114.935Y-31.115
X120.65Y-142.875
X189.865Y-62.865
X31.75Y-39.37
X76.835Y-9.525
X157.48Y-88.9
X74.295Y-36.195
X139.446Y-70.866
X128.905Y-13.97
X83.185Y-47.625
X91.44Y-7.62
X80.01Y-113.665
X196.215Y-17.145
X58.42Y-5.715
X184.15Y-76.835
X136.525Y-142.875
X133.985Y-66.04
X97.155Y-6.985
X91.44Y-9.525
X64.135Y-116.84
X112.395Y-67.31
X152.4Y-1.27
X80.645Y-80.645
X171.45Y-81.915
X198.755Y-142.875
X132.715Y-62.865
X166.37Y-40.005
X107.95Y-36.195
X102.87Y-9.525
X60.325Y-116.84
X191.135Y-36.195
X53.34Y6.35
X55.245Y-73.66
X193.675Y-78.74
X156.845Y6.35
X205.105Y-55.88
X189.23Y-47.625
X133.604Y-76.2
X64.135Y-36.195
X148.59Y-7.62
X132.08Y-7.62
X52.07Y-110.49
X31.75Y-29.845
X88.9Y-110.49
X93.345Y-104.775
X179.07Y-59.69
X160.655Y-48.895
T2
X136.588Y-118.11
X136.588Y-123.19
X139.141Y-120.65
T3
X142.194Y-128.0
X144.734Y-128.0
X104.194Y-128.0
X106.734Y-128.0
X66.194Y-128.0
X68.734Y-128.0
X72.286Y-42.545
X74.826Y-42.545
X203.835Y-42.545
X206.375Y-42.545
X130.752Y-42.545
X133.292Y-42.545
X43.053Y-42.545
X45.593Y-42.545
X159.985Y-42.545
X162.525Y-42.545
X174.602Y-42.545
X177.142Y-42.545
X86.903Y-42.545
X89.443Y-42.545
X57.67Y-42.545
X60.21Y-42.545
X189.218Y-42.545
X191.758Y-42.545
X101.519Y-42.545
X104.059Y-42.545
X180.194Y-128.0
X182.734Y-128.0
X145.369Y-42.545
X147.909Y-42.545
X180.194Y-119.38
X182.734Y-119.38
X116.136Y-42.545
X118.676Y-42.545
T4
X206.756Y-81.914
X206.756Y-84.454
X206.756Y-86.994
X206.756Y-89.534
X209.296Y-83.184
X209.296Y-85.724
X209.296Y-88.264
X209.296Y-90.804
T5
X205.105Y-22.225
X205.105Y-24.765
X205.105Y-27.305
X205.105Y-29.845
X205.105Y-32.385
X117.406Y-22.225
X117.406Y-24.765
X117.406Y-27.305
X117.406Y-29.845
X117.406Y-32.385
X73.556Y-22.225
X73.556Y-24.765
X73.556Y-27.305
X73.556Y-29.845
X73.556Y-32.385
X58.94Y-22.225
X58.94Y-24.765
X58.94Y-27.305
X58.94Y-29.845
X58.94Y-32.385
X88.173Y-22.225
X88.173Y-24.765
X88.173Y-27.305
X88.173Y-29.845
X88.173Y-32.385
X146.639Y-22.225
X146.639Y-24.765
X146.639Y-27.305
X146.639Y-29.845
X146.639Y-32.385
X44.323Y-22.225
X44.323Y-24.765
X44.323Y-27.305
X44.323Y-29.845
X44.323Y-32.385
X175.872Y-22.225
X175.872Y-24.765
X175.872Y-27.305
X175.872Y-29.845
X175.872Y-32.385
X132.022Y-22.225
X132.022Y-24.765
X132.022Y-27.305
X132.022Y-29.845
X132.022Y-32.385
X161.255Y-22.225
X161.255Y-24.765
X161.255Y-27.305
X161.255Y-29.845
X161.255Y-32.385
X190.488Y-22.225
X190.488Y-24.765
X190.488Y-27.305
X190.488Y-29.845
X190.488Y-32.385
X102.789Y-22.225
X102.789Y-24.765
X102.789Y-27.305
X102.789Y-29.845
X102.789Y-32.385
X181.229Y-99.06
X181.229Y-101.6
X181.229Y-104.14
X181.229Y-106.68
X181.229Y-109.22
T6
X127.508Y-141.732
X132.588Y-141.732
X200.66Y5.08
X205.74Y5.08
X57.15Y5.08
X62.23Y5.08
X83.82Y5.08
X88.9Y5.08
X173.99Y5.08
X179.07Y5.08
X70.485Y5.08
X75.565Y5.08
X133.985Y5.08
X139.065Y5.08
X67.945Y-141.732
X73.025Y-141.732
X110.49Y5.08
X115.57Y5.08
X97.155Y5.08
X102.235Y5.08
X187.325Y5.08
X192.405Y5.08
X216.408Y-125.095
X216.408Y-130.175
X160.655Y5.08
X165.735Y5.08
X147.32Y5.08
X152.4Y5.08
X216.408Y-40.132
X216.408Y-45.212
X43.815Y5.08
X48.895Y5.08
T7
X201.17Y-100.965
X204.81Y-100.965
X208.45Y-100.965
X212.09Y-100.965
X201.17Y-117.475
X204.81Y-117.475
X208.45Y-117.475
X212.09Y-117.475
T8
X142.24Y-139.7
X34.925Y3.175
X214.63Y3.175
X124.714Y3.175
X34.925Y-90.17
X214.63Y-139.7
X114.3Y-139.7
X211.455Y-73.025
X175.895Y-78.105
X214.63Y-27.305
X73.66Y-78.105
X34.925Y-139.7
X139.7Y-35.052
T0
M30
