G04 #@! TF.GenerationSoftware,KiCad,Pcbnew,7.0.9*
G04 #@! TF.CreationDate,2023-12-23T18:19:17+01:00*
G04 #@! TF.ProjectId,testing-board,74657374-696e-4672-9d62-6f6172642e6b,v1.0*
G04 #@! TF.SameCoordinates,Original*
G04 #@! TF.FileFunction,Copper,L2,Bot*
G04 #@! TF.FilePolarity,Positive*
%FSLAX46Y46*%
G04 Gerber Fmt 4.6, Leading zero omitted, Abs format (unit mm)*
G04 Created by KiCad (PCBNEW 7.0.9) date 2023-12-23 18:19:17*
%MOMM*%
%LPD*%
G01*
G04 APERTURE LIST*
G04 Aperture macros list*
%AMOutline4P*
0 Free polygon, 4 corners , with rotation*
0 The origin of the aperture is its center*
0 number of corners: always 4*
0 $1 to $8 corner X, Y*
0 $9 Rotation angle, in degrees counterclockwise*
0 create outline with 4 corners*
4,1,4,$1,$2,$3,$4,$5,$6,$7,$8,$1,$2,$9*%
G04 Aperture macros list end*
G04 #@! TA.AperFunction,ComponentPad*
%ADD10R,2.100000X2.100000*%
G04 #@! TD*
G04 #@! TA.AperFunction,ComponentPad*
%ADD11O,2.100000X2.100000*%
G04 #@! TD*
G04 #@! TA.AperFunction,ComponentPad*
%ADD12C,5.000000*%
G04 #@! TD*
G04 #@! TA.AperFunction,SMDPad,CuDef*
%ADD13Outline4P,-0.650000X-0.900000X0.650000X-0.900000X0.650000X0.900000X-0.650000X0.900000X90.000000*%
G04 #@! TD*
G04 #@! TA.AperFunction,ComponentPad*
%ADD14R,3.500000X3.500000*%
G04 #@! TD*
G04 #@! TA.AperFunction,ComponentPad*
%ADD15C,3.500000*%
G04 #@! TD*
G04 #@! TA.AperFunction,ComponentPad*
%ADD16C,1.500000*%
G04 #@! TD*
G04 #@! TA.AperFunction,SMDPad,CuDef*
%ADD17Outline4P,-0.650000X-0.900000X0.650000X-0.900000X0.650000X0.900000X-0.650000X0.900000X0.000000*%
G04 #@! TD*
G04 #@! TA.AperFunction,ViaPad*
%ADD18C,0.800000*%
G04 #@! TD*
G04 #@! TA.AperFunction,Conductor*
%ADD19C,0.500000*%
G04 #@! TD*
G04 APERTURE END LIST*
D10*
X132080000Y-64135000D03*
D11*
X134620000Y-64135000D03*
X137160000Y-64135000D03*
X139700000Y-64135000D03*
D12*
X118745000Y-106045000D03*
X118745000Y-65405000D03*
D13*
X135255000Y-96520000D03*
X135255000Y-93980000D03*
X135255000Y-109855000D03*
X135255000Y-107315000D03*
X128270000Y-114935000D03*
X128270000Y-112395000D03*
X132080000Y-114935000D03*
X132080000Y-112395000D03*
X138430000Y-114935000D03*
X138430000Y-112395000D03*
X142240000Y-114935000D03*
X142240000Y-112395000D03*
D10*
X132080000Y-69215000D03*
D11*
X134620000Y-69215000D03*
X137160000Y-69215000D03*
X139700000Y-69215000D03*
D10*
X118110000Y-122555000D03*
D11*
X120650000Y-122555000D03*
X123190000Y-122555000D03*
D10*
X118110000Y-117475000D03*
D11*
X120650000Y-117475000D03*
X123190000Y-117475000D03*
D14*
X118110000Y-131318000D03*
D15*
X123190000Y-131318000D03*
D16*
X130811000Y-120650000D03*
X132081000Y-118110000D03*
X133351000Y-120650000D03*
X134621000Y-118110000D03*
X135891000Y-120650000D03*
X137161000Y-118110000D03*
X138431000Y-120650000D03*
X139701000Y-118110000D03*
D17*
X138430000Y-83820000D03*
X140970000Y-83820000D03*
X138430000Y-80645000D03*
X140970000Y-80645000D03*
D18*
X140970000Y-82296000D03*
X138430000Y-82296000D03*
X131445000Y-85725000D03*
X133350000Y-86360000D03*
X135255000Y-97790000D03*
X137160000Y-92710000D03*
X132080000Y-89535000D03*
X131445000Y-107315000D03*
X132715000Y-109855000D03*
X135255000Y-113030000D03*
X135255000Y-111125000D03*
X135255000Y-104140000D03*
X141605000Y-101600000D03*
X132080000Y-79375000D03*
D19*
X140970000Y-83820000D02*
X140970000Y-80645000D01*
X140335000Y-78740000D02*
X140970000Y-79375000D01*
X140970000Y-79375000D02*
X140970000Y-80645000D01*
X132080000Y-64135000D02*
X132080000Y-69215000D01*
X132715000Y-78740000D02*
X133096000Y-78740000D01*
X133096000Y-78740000D02*
X140335000Y-78740000D01*
X133096000Y-78740000D02*
X132334000Y-78740000D01*
X132080000Y-69215000D02*
X132080000Y-78486000D01*
X132080000Y-78486000D02*
X132080000Y-79375000D01*
X138430000Y-83820000D02*
X138430000Y-80645000D01*
X133351000Y-120650000D02*
X133351000Y-121919000D01*
X133351000Y-121919000D02*
X132715000Y-122555000D01*
X132715000Y-122555000D02*
X127635000Y-122555000D01*
X120650000Y-122555000D02*
X120650000Y-123825000D01*
X120650000Y-123825000D02*
X121285000Y-124460000D01*
X125730000Y-124460000D02*
X127635000Y-122555000D01*
X121285000Y-124460000D02*
X125730000Y-124460000D01*
X120650000Y-122555000D02*
X120650000Y-117475000D01*
X139701000Y-118110000D02*
X140970000Y-118110000D01*
X142240000Y-116840000D02*
X142240000Y-114935000D01*
X140970000Y-118110000D02*
X142240000Y-116840000D01*
X138430000Y-120649000D02*
X138431000Y-120650000D01*
X138430000Y-114935000D02*
X138430000Y-120649000D01*
X132080000Y-118109000D02*
X132081000Y-118110000D01*
X132080000Y-114935000D02*
X132080000Y-118109000D01*
X135891000Y-120650000D02*
X135891000Y-121919000D01*
X135891000Y-121919000D02*
X133985000Y-123825000D01*
X133985000Y-123825000D02*
X128270000Y-123825000D01*
X128270000Y-123825000D02*
X126365000Y-125730000D01*
X126365000Y-125730000D02*
X118745000Y-125730000D01*
X118110000Y-125095000D02*
X118110000Y-122555000D01*
X118745000Y-125730000D02*
X118110000Y-125095000D01*
X118110000Y-122555000D02*
X118110000Y-117475000D01*
X128270000Y-118109000D02*
X130811000Y-120650000D01*
X128270000Y-114935000D02*
X128270000Y-118109000D01*
X134620000Y-112395000D02*
X135255000Y-113030000D01*
X132080000Y-112395000D02*
X134620000Y-112395000D01*
X137160000Y-111125000D02*
X137160000Y-102870000D01*
X135255000Y-113030000D02*
X137160000Y-111125000D01*
X137160000Y-102870000D02*
X130810000Y-96520000D01*
X130810000Y-88900000D02*
X133350000Y-86360000D01*
X130810000Y-89916000D02*
X130810000Y-96520000D01*
X130810000Y-89916000D02*
X130810000Y-88900000D01*
X135255000Y-109855000D02*
X135255000Y-111125000D01*
X135255000Y-104140000D02*
X135255000Y-107315000D01*
X129540000Y-109855000D02*
X128270000Y-111125000D01*
X132715000Y-109855000D02*
X129540000Y-109855000D01*
X128270000Y-112395000D02*
X128270000Y-111125000D01*
X130810000Y-107315000D02*
X131445000Y-107315000D01*
X129222500Y-105727500D02*
X130810000Y-107315000D01*
X129222500Y-89217500D02*
X129222500Y-105727500D01*
X129222500Y-87947500D02*
X131445000Y-85725000D01*
X129222500Y-89217500D02*
X129222500Y-87947500D01*
X135255000Y-96520000D02*
X135255000Y-97790000D01*
X134620000Y-90170000D02*
X135255000Y-90805000D01*
X135255000Y-93980000D02*
X135255000Y-90805000D01*
X133985000Y-89535000D02*
X134620000Y-90170000D01*
X132080000Y-89535000D02*
X133985000Y-89535000D01*
X142240000Y-112395000D02*
X142240000Y-102235000D01*
X142240000Y-102235000D02*
X141605000Y-101600000D01*
X138430000Y-112395000D02*
X138430000Y-93980000D01*
X138430000Y-93980000D02*
X137160000Y-92710000D01*
G04 #@! TA.AperFunction,Conductor*
G36*
X145357121Y-62250002D02*
G01*
X145403614Y-62303658D01*
X145415000Y-62356000D01*
X145415000Y-63740536D01*
X145394998Y-63808657D01*
X145341342Y-63855150D01*
X145271068Y-63865254D01*
X145247736Y-63859588D01*
X145214018Y-63847901D01*
X144972952Y-63803710D01*
X144727974Y-63796618D01*
X144727969Y-63796618D01*
X144484748Y-63826788D01*
X144248935Y-63893518D01*
X144248925Y-63893522D01*
X144025971Y-63995267D01*
X144025969Y-63995268D01*
X143821029Y-64129679D01*
X143638864Y-64293635D01*
X143483685Y-64483346D01*
X143359107Y-64694395D01*
X143267998Y-64921915D01*
X143212474Y-65160623D01*
X143193822Y-65405000D01*
X143212474Y-65649376D01*
X143267998Y-65888083D01*
X143358300Y-66113590D01*
X143359107Y-66115604D01*
X143483685Y-66326653D01*
X143483690Y-66326659D01*
X143638862Y-66516362D01*
X143821027Y-66680319D01*
X144025965Y-66814729D01*
X144025968Y-66814730D01*
X144025969Y-66814731D01*
X144025971Y-66814732D01*
X144035668Y-66819157D01*
X144248929Y-66916479D01*
X144248932Y-66916479D01*
X144248935Y-66916481D01*
X144484748Y-66983211D01*
X144484752Y-66983212D01*
X144727971Y-67013382D01*
X144972951Y-67006290D01*
X145214018Y-66962099D01*
X145247736Y-66950411D01*
X145318648Y-66947001D01*
X145380150Y-66982470D01*
X145412712Y-67045559D01*
X145415000Y-67069463D01*
X145415000Y-125534227D01*
X145394998Y-125602348D01*
X145346204Y-125646493D01*
X145250463Y-125695276D01*
X145056201Y-125836416D01*
X145056198Y-125836418D01*
X144886418Y-126006198D01*
X144886416Y-126006201D01*
X144745278Y-126200460D01*
X144636265Y-126414409D01*
X144636262Y-126414415D01*
X144562064Y-126642772D01*
X144562063Y-126642777D01*
X144562063Y-126642778D01*
X144524500Y-126879941D01*
X144524500Y-127120059D01*
X144542018Y-127230663D01*
X144562064Y-127357227D01*
X144602599Y-127481979D01*
X144636264Y-127585589D01*
X144745276Y-127799536D01*
X144886414Y-127993796D01*
X144886416Y-127993798D01*
X144886418Y-127993801D01*
X145056198Y-128163581D01*
X145056201Y-128163583D01*
X145056204Y-128163586D01*
X145250464Y-128304724D01*
X145346204Y-128353506D01*
X145397818Y-128402253D01*
X145415000Y-128465772D01*
X145415000Y-133859000D01*
X145394998Y-133927121D01*
X145341342Y-133973614D01*
X145289000Y-133985000D01*
X115696000Y-133985000D01*
X115627879Y-133964998D01*
X115581386Y-133911342D01*
X115570000Y-133859000D01*
X115570000Y-133116649D01*
X115851500Y-133116649D01*
X115858009Y-133177196D01*
X115858011Y-133177204D01*
X115909110Y-133314202D01*
X115909112Y-133314207D01*
X115996738Y-133431261D01*
X116113792Y-133518887D01*
X116113794Y-133518888D01*
X116113796Y-133518889D01*
X116172875Y-133540924D01*
X116250795Y-133569988D01*
X116250803Y-133569990D01*
X116311350Y-133576499D01*
X116311355Y-133576499D01*
X116311362Y-133576500D01*
X116311368Y-133576500D01*
X119908632Y-133576500D01*
X119908638Y-133576500D01*
X119908645Y-133576499D01*
X119908649Y-133576499D01*
X119969196Y-133569990D01*
X119969199Y-133569989D01*
X119969201Y-133569989D01*
X120106204Y-133518889D01*
X120223261Y-133431261D01*
X120310889Y-133314204D01*
X120361989Y-133177201D01*
X120368500Y-133116638D01*
X120368500Y-131318003D01*
X120927155Y-131318003D01*
X120946513Y-131613356D01*
X120946515Y-131613370D01*
X121004260Y-131903665D01*
X121004262Y-131903675D01*
X121099401Y-132183945D01*
X121099407Y-132183959D01*
X121230317Y-132449420D01*
X121394763Y-132695531D01*
X121422092Y-132726694D01*
X122625569Y-131523218D01*
X122665901Y-131620588D01*
X122762075Y-131745925D01*
X122887412Y-131842099D01*
X122984779Y-131882429D01*
X121781304Y-133085904D01*
X121781304Y-133085906D01*
X121812468Y-133113236D01*
X122058579Y-133277682D01*
X122324040Y-133408592D01*
X122324054Y-133408598D01*
X122604324Y-133503737D01*
X122604334Y-133503739D01*
X122894629Y-133561484D01*
X122894643Y-133561486D01*
X123189997Y-133580845D01*
X123190003Y-133580845D01*
X123485356Y-133561486D01*
X123485370Y-133561484D01*
X123775665Y-133503739D01*
X123775675Y-133503737D01*
X124055945Y-133408598D01*
X124055959Y-133408592D01*
X124321420Y-133277682D01*
X124567534Y-133113234D01*
X124567536Y-133113233D01*
X124598694Y-133085906D01*
X124598694Y-133085904D01*
X123395220Y-131882429D01*
X123492588Y-131842099D01*
X123617925Y-131745925D01*
X123714099Y-131620589D01*
X123754430Y-131523220D01*
X124957904Y-132726694D01*
X124957906Y-132726694D01*
X124985233Y-132695536D01*
X124985234Y-132695534D01*
X125149682Y-132449420D01*
X125280592Y-132183959D01*
X125280598Y-132183945D01*
X125375737Y-131903675D01*
X125375739Y-131903665D01*
X125433484Y-131613370D01*
X125433486Y-131613356D01*
X125452845Y-131318003D01*
X125452845Y-131317996D01*
X125433486Y-131022643D01*
X125433484Y-131022629D01*
X125375739Y-130732334D01*
X125375737Y-130732324D01*
X125280598Y-130452054D01*
X125280592Y-130452040D01*
X125149682Y-130186580D01*
X124985236Y-129940468D01*
X124957906Y-129909304D01*
X124957904Y-129909304D01*
X123754429Y-131112779D01*
X123714099Y-131015412D01*
X123617925Y-130890075D01*
X123492588Y-130793901D01*
X123395218Y-130753569D01*
X124598694Y-129550092D01*
X124567531Y-129522763D01*
X124321420Y-129358317D01*
X124055959Y-129227407D01*
X124055945Y-129227401D01*
X123775675Y-129132262D01*
X123775665Y-129132260D01*
X123485370Y-129074515D01*
X123485356Y-129074513D01*
X123190003Y-129055155D01*
X123189997Y-129055155D01*
X122894643Y-129074513D01*
X122894629Y-129074515D01*
X122604334Y-129132260D01*
X122604324Y-129132262D01*
X122324054Y-129227401D01*
X122324040Y-129227407D01*
X122058580Y-129358317D01*
X121812467Y-129522763D01*
X121812463Y-129522766D01*
X121781304Y-129550092D01*
X121781304Y-129550094D01*
X122984780Y-130753570D01*
X122887412Y-130793901D01*
X122762075Y-130890075D01*
X122665901Y-131015411D01*
X122625569Y-131112779D01*
X121422094Y-129909304D01*
X121422092Y-129909304D01*
X121394766Y-129940463D01*
X121394763Y-129940467D01*
X121230317Y-130186580D01*
X121099407Y-130452040D01*
X121099401Y-130452054D01*
X121004262Y-130732324D01*
X121004260Y-130732334D01*
X120946515Y-131022629D01*
X120946513Y-131022643D01*
X120927155Y-131317996D01*
X120927155Y-131318003D01*
X120368500Y-131318003D01*
X120368500Y-129519362D01*
X120368499Y-129519350D01*
X120361990Y-129458803D01*
X120361988Y-129458795D01*
X120310889Y-129321797D01*
X120310887Y-129321792D01*
X120223261Y-129204738D01*
X120106207Y-129117112D01*
X120106202Y-129117110D01*
X119969204Y-129066011D01*
X119969196Y-129066009D01*
X119908649Y-129059500D01*
X119908638Y-129059500D01*
X116311362Y-129059500D01*
X116311350Y-129059500D01*
X116250803Y-129066009D01*
X116250795Y-129066011D01*
X116113797Y-129117110D01*
X116113792Y-129117112D01*
X115996738Y-129204738D01*
X115909112Y-129321792D01*
X115909110Y-129321797D01*
X115858011Y-129458795D01*
X115858009Y-129458803D01*
X115851500Y-129519350D01*
X115851500Y-133116649D01*
X115570000Y-133116649D01*
X115570000Y-127069596D01*
X127634687Y-127069596D01*
X127665114Y-127346128D01*
X127735480Y-127615278D01*
X127808016Y-127785968D01*
X127844284Y-127871314D01*
X127989208Y-128108781D01*
X128167163Y-128322617D01*
X128374357Y-128508263D01*
X128606373Y-128661763D01*
X128858267Y-128779846D01*
X129124669Y-128859995D01*
X129399895Y-128900499D01*
X129399898Y-128900500D01*
X129399901Y-128900500D01*
X129608465Y-128900500D01*
X129641315Y-128898095D01*
X129816455Y-128885277D01*
X130087997Y-128824788D01*
X130347838Y-128725408D01*
X130590440Y-128589253D01*
X130810632Y-128419226D01*
X131003722Y-128218951D01*
X131165593Y-127992696D01*
X131292797Y-127745283D01*
X131382621Y-127481986D01*
X131433152Y-127208416D01*
X131438226Y-127069596D01*
X139066687Y-127069596D01*
X139097114Y-127346128D01*
X139167480Y-127615278D01*
X139240016Y-127785968D01*
X139276284Y-127871314D01*
X139421208Y-128108781D01*
X139599163Y-128322617D01*
X139806357Y-128508263D01*
X140038373Y-128661763D01*
X140290267Y-128779846D01*
X140556669Y-128859995D01*
X140831895Y-128900499D01*
X140831898Y-128900500D01*
X140831901Y-128900500D01*
X141040465Y-128900500D01*
X141073315Y-128898095D01*
X141248455Y-128885277D01*
X141519997Y-128824788D01*
X141779838Y-128725408D01*
X142022440Y-128589253D01*
X142242632Y-128419226D01*
X142435722Y-128218951D01*
X142597593Y-127992696D01*
X142724797Y-127745283D01*
X142814621Y-127481986D01*
X142865152Y-127208416D01*
X142875313Y-126930404D01*
X142844886Y-126653876D01*
X142774520Y-126384724D01*
X142769141Y-126372067D01*
X142718993Y-126254058D01*
X142665716Y-126128686D01*
X142520792Y-125891219D01*
X142342837Y-125677383D01*
X142135643Y-125491737D01*
X141903627Y-125338237D01*
X141760445Y-125271116D01*
X141651734Y-125220154D01*
X141572263Y-125196244D01*
X141385331Y-125140005D01*
X141385326Y-125140004D01*
X141385322Y-125140003D01*
X141110103Y-125099500D01*
X141110099Y-125099500D01*
X140901537Y-125099500D01*
X140901535Y-125099500D01*
X140693541Y-125114723D01*
X140422009Y-125175210D01*
X140421997Y-125175214D01*
X140162161Y-125274592D01*
X139919559Y-125410747D01*
X139699366Y-125580775D01*
X139699365Y-125580776D01*
X139506280Y-125781046D01*
X139344404Y-126007307D01*
X139217204Y-126254714D01*
X139217203Y-126254717D01*
X139138761Y-126484652D01*
X139127377Y-126518020D01*
X139076847Y-126791587D01*
X139066687Y-127069596D01*
X131438226Y-127069596D01*
X131443313Y-126930404D01*
X131412886Y-126653876D01*
X131342520Y-126384724D01*
X131337141Y-126372067D01*
X131286993Y-126254058D01*
X131233716Y-126128686D01*
X131088792Y-125891219D01*
X130910837Y-125677383D01*
X130703643Y-125491737D01*
X130471627Y-125338237D01*
X130328445Y-125271116D01*
X130219734Y-125220154D01*
X130140263Y-125196244D01*
X129953331Y-125140005D01*
X129953326Y-125140004D01*
X129953322Y-125140003D01*
X129678103Y-125099500D01*
X129678099Y-125099500D01*
X129469537Y-125099500D01*
X129469535Y-125099500D01*
X129261541Y-125114723D01*
X128990009Y-125175210D01*
X128989997Y-125175214D01*
X128730161Y-125274592D01*
X128487559Y-125410747D01*
X128267366Y-125580775D01*
X128267365Y-125580776D01*
X128074280Y-125781046D01*
X127912404Y-126007307D01*
X127785204Y-126254714D01*
X127785203Y-126254717D01*
X127706761Y-126484652D01*
X127695377Y-126518020D01*
X127644847Y-126791587D01*
X127634687Y-127069596D01*
X115570000Y-127069596D01*
X115570000Y-123653649D01*
X116551500Y-123653649D01*
X116558009Y-123714196D01*
X116558011Y-123714204D01*
X116609110Y-123851202D01*
X116609112Y-123851207D01*
X116696738Y-123968261D01*
X116813792Y-124055887D01*
X116813794Y-124055888D01*
X116813796Y-124055889D01*
X116862525Y-124074064D01*
X116950795Y-124106988D01*
X116950803Y-124106990D01*
X117011350Y-124113499D01*
X117011355Y-124113499D01*
X117011362Y-124113500D01*
X117225500Y-124113500D01*
X117293621Y-124133502D01*
X117340114Y-124187158D01*
X117351500Y-124239500D01*
X117351500Y-125030559D01*
X117350170Y-125048819D01*
X117346659Y-125072786D01*
X117346659Y-125072794D01*
X117351260Y-125125372D01*
X117351500Y-125130866D01*
X117351500Y-125139182D01*
X117355347Y-125172094D01*
X117362112Y-125249419D01*
X117363596Y-125256606D01*
X117363531Y-125256619D01*
X117365165Y-125263989D01*
X117365229Y-125263975D01*
X117366921Y-125271116D01*
X117393473Y-125344064D01*
X117417885Y-125417736D01*
X117420987Y-125424388D01*
X117420926Y-125424416D01*
X117424211Y-125431202D01*
X117424270Y-125431173D01*
X117427560Y-125437724D01*
X117470233Y-125502605D01*
X117510967Y-125568648D01*
X117515522Y-125574408D01*
X117515468Y-125574450D01*
X117520228Y-125580292D01*
X117520279Y-125580250D01*
X117524993Y-125585868D01*
X117524998Y-125585873D01*
X117524999Y-125585874D01*
X117581482Y-125639163D01*
X118163098Y-126220779D01*
X118175065Y-126234627D01*
X118189531Y-126254058D01*
X118190316Y-126254717D01*
X118229975Y-126287994D01*
X118234021Y-126291702D01*
X118239900Y-126297581D01*
X118265895Y-126318135D01*
X118325360Y-126368032D01*
X118325366Y-126368035D01*
X118331495Y-126372067D01*
X118331458Y-126372122D01*
X118337811Y-126376169D01*
X118337847Y-126376113D01*
X118344092Y-126379965D01*
X118344095Y-126379967D01*
X118414452Y-126412775D01*
X118483812Y-126447609D01*
X118483813Y-126447609D01*
X118483817Y-126447611D01*
X118490713Y-126450121D01*
X118490689Y-126450185D01*
X118497805Y-126452659D01*
X118497827Y-126452595D01*
X118504791Y-126454903D01*
X118580849Y-126470607D01*
X118611561Y-126477886D01*
X118656344Y-126488500D01*
X118656350Y-126488500D01*
X118663633Y-126489352D01*
X118663625Y-126489419D01*
X118671122Y-126490185D01*
X118671128Y-126490119D01*
X118678435Y-126490757D01*
X118678442Y-126490759D01*
X118756080Y-126488500D01*
X126300559Y-126488500D01*
X126318819Y-126489830D01*
X126323715Y-126490547D01*
X126342789Y-126493341D01*
X126376146Y-126490422D01*
X126395385Y-126488740D01*
X126400878Y-126488500D01*
X126409176Y-126488500D01*
X126409180Y-126488500D01*
X126435512Y-126485421D01*
X126442096Y-126484652D01*
X126448861Y-126484060D01*
X126519426Y-126477887D01*
X126519432Y-126477884D01*
X126526618Y-126476402D01*
X126526631Y-126476468D01*
X126533987Y-126474836D01*
X126533972Y-126474771D01*
X126541104Y-126473079D01*
X126541113Y-126473079D01*
X126614065Y-126446526D01*
X126687738Y-126422114D01*
X126687740Y-126422112D01*
X126694389Y-126419012D01*
X126694418Y-126419074D01*
X126701203Y-126415789D01*
X126701173Y-126415729D01*
X126707728Y-126412436D01*
X126707732Y-126412435D01*
X126772605Y-126369766D01*
X126838651Y-126329030D01*
X126838660Y-126329020D01*
X126844408Y-126324477D01*
X126844450Y-126324531D01*
X126850289Y-126319775D01*
X126850246Y-126319723D01*
X126855865Y-126315006D01*
X126855874Y-126315001D01*
X126909163Y-126258517D01*
X127693180Y-125474500D01*
X128547276Y-124620405D01*
X128609588Y-124586379D01*
X128636371Y-124583500D01*
X133920559Y-124583500D01*
X133938819Y-124584830D01*
X133943715Y-124585547D01*
X133962789Y-124588341D01*
X133996146Y-124585422D01*
X134015385Y-124583740D01*
X134020878Y-124583500D01*
X134029176Y-124583500D01*
X134029180Y-124583500D01*
X134055512Y-124580421D01*
X134062096Y-124579652D01*
X134068861Y-124579060D01*
X134139426Y-124572887D01*
X134139432Y-124572884D01*
X134146618Y-124571402D01*
X134146631Y-124571468D01*
X134153987Y-124569836D01*
X134153972Y-124569771D01*
X134161104Y-124568079D01*
X134161113Y-124568079D01*
X134234065Y-124541526D01*
X134307738Y-124517114D01*
X134307740Y-124517112D01*
X134314389Y-124514012D01*
X134314418Y-124514074D01*
X134321203Y-124510789D01*
X134321173Y-124510729D01*
X134327728Y-124507436D01*
X134327732Y-124507435D01*
X134392605Y-124464766D01*
X134458651Y-124424030D01*
X134458660Y-124424020D01*
X134464408Y-124419477D01*
X134464450Y-124419531D01*
X134470289Y-124414775D01*
X134470246Y-124414723D01*
X134475865Y-124410006D01*
X134475874Y-124410001D01*
X134529163Y-124353517D01*
X136381784Y-122500895D01*
X136395617Y-122488941D01*
X136415058Y-122474469D01*
X136449001Y-122434015D01*
X136452700Y-122429979D01*
X136458580Y-122424101D01*
X136479136Y-122398103D01*
X136529032Y-122338640D01*
X136529035Y-122338637D01*
X136533066Y-122332508D01*
X136533122Y-122332545D01*
X136537173Y-122326187D01*
X136537115Y-122326151D01*
X136540963Y-122319910D01*
X136540967Y-122319906D01*
X136573779Y-122249541D01*
X136585355Y-122226489D01*
X136608609Y-122180188D01*
X136608610Y-122180184D01*
X136611119Y-122173291D01*
X136611184Y-122173314D01*
X136613658Y-122166197D01*
X136613594Y-122166176D01*
X136615903Y-122159207D01*
X136631604Y-122083163D01*
X136631607Y-122083149D01*
X136649500Y-122007656D01*
X136649500Y-122007649D01*
X136650352Y-122000367D01*
X136650418Y-122000374D01*
X136651184Y-121992876D01*
X136651118Y-121992871D01*
X136651756Y-121985566D01*
X136651758Y-121985558D01*
X136649500Y-121907939D01*
X136649500Y-121720827D01*
X136669502Y-121652706D01*
X136699238Y-121621770D01*
X136698828Y-121621281D01*
X136703029Y-121617754D01*
X136703038Y-121617749D01*
X136858749Y-121462038D01*
X136985056Y-121281654D01*
X137009691Y-121228825D01*
X137046805Y-121149232D01*
X137093722Y-121095946D01*
X137161999Y-121076485D01*
X137229959Y-121097026D01*
X137275195Y-121149232D01*
X137312309Y-121228825D01*
X137336944Y-121281654D01*
X137454519Y-121449567D01*
X137463251Y-121462038D01*
X137463254Y-121462042D01*
X137618957Y-121617745D01*
X137618961Y-121617748D01*
X137618962Y-121617749D01*
X137799346Y-121744056D01*
X137998924Y-121837120D01*
X138211629Y-121894115D01*
X138431000Y-121913307D01*
X138650371Y-121894115D01*
X138863076Y-121837120D01*
X139062654Y-121744056D01*
X139243038Y-121617749D01*
X139398749Y-121462038D01*
X139525056Y-121281654D01*
X139618120Y-121082076D01*
X139675115Y-120869371D01*
X139694307Y-120650000D01*
X139675115Y-120430629D01*
X139618120Y-120217924D01*
X139525056Y-120018347D01*
X139398749Y-119837962D01*
X139243038Y-119682251D01*
X139242220Y-119681678D01*
X139241944Y-119681333D01*
X139238824Y-119678715D01*
X139239350Y-119678087D01*
X139197897Y-119626217D01*
X139188500Y-119578471D01*
X139188500Y-119439777D01*
X139208502Y-119371656D01*
X139262158Y-119325163D01*
X139332432Y-119315059D01*
X139347100Y-119318067D01*
X139481629Y-119354115D01*
X139701000Y-119373307D01*
X139920371Y-119354115D01*
X140133076Y-119297120D01*
X140332654Y-119204056D01*
X140513038Y-119077749D01*
X140668749Y-118922038D01*
X140668752Y-118922033D01*
X140672287Y-118917822D01*
X140673186Y-118918577D01*
X140724065Y-118877904D01*
X140771828Y-118868500D01*
X140905559Y-118868500D01*
X140923819Y-118869830D01*
X140928715Y-118870547D01*
X140947789Y-118873341D01*
X140981146Y-118870422D01*
X141000385Y-118868740D01*
X141005878Y-118868500D01*
X141014176Y-118868500D01*
X141014180Y-118868500D01*
X141040512Y-118865421D01*
X141047096Y-118864652D01*
X141053861Y-118864060D01*
X141124426Y-118857887D01*
X141124432Y-118857884D01*
X141131618Y-118856402D01*
X141131631Y-118856468D01*
X141138987Y-118854836D01*
X141138972Y-118854771D01*
X141146104Y-118853079D01*
X141146113Y-118853079D01*
X141219065Y-118826526D01*
X141292738Y-118802114D01*
X141292740Y-118802112D01*
X141299389Y-118799012D01*
X141299418Y-118799074D01*
X141306203Y-118795789D01*
X141306173Y-118795729D01*
X141312728Y-118792436D01*
X141312732Y-118792435D01*
X141377605Y-118749766D01*
X141443651Y-118709030D01*
X141443660Y-118709020D01*
X141449408Y-118704477D01*
X141449450Y-118704531D01*
X141455289Y-118699775D01*
X141455246Y-118699723D01*
X141460865Y-118695006D01*
X141460874Y-118695001D01*
X141514163Y-118638517D01*
X142730784Y-117421895D01*
X142744617Y-117409941D01*
X142764058Y-117395469D01*
X142798001Y-117355015D01*
X142801700Y-117350979D01*
X142807580Y-117345101D01*
X142828136Y-117319103D01*
X142878032Y-117259640D01*
X142878035Y-117259637D01*
X142882066Y-117253508D01*
X142882122Y-117253545D01*
X142886171Y-117247190D01*
X142886113Y-117247155D01*
X142889966Y-117240908D01*
X142922773Y-117170553D01*
X142937447Y-117141333D01*
X142957609Y-117101188D01*
X142957610Y-117101184D01*
X142960119Y-117094291D01*
X142960183Y-117094314D01*
X142962658Y-117087193D01*
X142962593Y-117087172D01*
X142964898Y-117080213D01*
X142964902Y-117080206D01*
X142980599Y-117004181D01*
X142991202Y-116959449D01*
X142998500Y-116928656D01*
X142999352Y-116921368D01*
X142999418Y-116921375D01*
X143000184Y-116913877D01*
X143000118Y-116913872D01*
X143000756Y-116906565D01*
X143000758Y-116906558D01*
X142998500Y-116828954D01*
X142998500Y-116219500D01*
X143018502Y-116151379D01*
X143072158Y-116104886D01*
X143124500Y-116093500D01*
X143188632Y-116093500D01*
X143188638Y-116093500D01*
X143188645Y-116093499D01*
X143188649Y-116093499D01*
X143249196Y-116086990D01*
X143249199Y-116086989D01*
X143249201Y-116086989D01*
X143262379Y-116082074D01*
X143268045Y-116079960D01*
X143386204Y-116035889D01*
X143503261Y-115948261D01*
X143522163Y-115923011D01*
X143590887Y-115831207D01*
X143590887Y-115831206D01*
X143590889Y-115831204D01*
X143641989Y-115694201D01*
X143648500Y-115633638D01*
X143648500Y-114236362D01*
X143648499Y-114236350D01*
X143641990Y-114175803D01*
X143641988Y-114175795D01*
X143590889Y-114038797D01*
X143590887Y-114038792D01*
X143503261Y-113921738D01*
X143386207Y-113834112D01*
X143386203Y-113834110D01*
X143249320Y-113783055D01*
X143192484Y-113740508D01*
X143167674Y-113673988D01*
X143182766Y-113604614D01*
X143232968Y-113554412D01*
X143249320Y-113546945D01*
X143318860Y-113521007D01*
X143386204Y-113495889D01*
X143503261Y-113408261D01*
X143590889Y-113291204D01*
X143641989Y-113154201D01*
X143642065Y-113153500D01*
X143648499Y-113093649D01*
X143648500Y-113093632D01*
X143648500Y-111696367D01*
X143648499Y-111696350D01*
X143641990Y-111635803D01*
X143641988Y-111635795D01*
X143590889Y-111498797D01*
X143590887Y-111498792D01*
X143503261Y-111381738D01*
X143386207Y-111294112D01*
X143386202Y-111294110D01*
X143249204Y-111243011D01*
X143249196Y-111243009D01*
X143188649Y-111236500D01*
X143188638Y-111236500D01*
X143124500Y-111236500D01*
X143056379Y-111216498D01*
X143009886Y-111162842D01*
X142998500Y-111110500D01*
X142998500Y-102299441D01*
X142999830Y-102281182D01*
X143000940Y-102273600D01*
X143003341Y-102257211D01*
X143000875Y-102229027D01*
X142998740Y-102204614D01*
X142998500Y-102199121D01*
X142998500Y-102190819D01*
X142994652Y-102157905D01*
X142992818Y-102136941D01*
X142987887Y-102080574D01*
X142987885Y-102080570D01*
X142986403Y-102073388D01*
X142986469Y-102073374D01*
X142984837Y-102066012D01*
X142984772Y-102066028D01*
X142983080Y-102058890D01*
X142956526Y-101985934D01*
X142951761Y-101971554D01*
X142932114Y-101912262D01*
X142932109Y-101912255D01*
X142929012Y-101905611D01*
X142929074Y-101905581D01*
X142925788Y-101898795D01*
X142925728Y-101898826D01*
X142922433Y-101892265D01*
X142879766Y-101827394D01*
X142839031Y-101761351D01*
X142839030Y-101761349D01*
X142839027Y-101761346D01*
X142834478Y-101755592D01*
X142834531Y-101755549D01*
X142829766Y-101749700D01*
X142829715Y-101749744D01*
X142824998Y-101744122D01*
X142768518Y-101690837D01*
X142677681Y-101600000D01*
X142525123Y-101447442D01*
X142494387Y-101397285D01*
X142439528Y-101228447D01*
X142439527Y-101228445D01*
X142439527Y-101228444D01*
X142344040Y-101063056D01*
X142344038Y-101063054D01*
X142344034Y-101063048D01*
X142216255Y-100921135D01*
X142061752Y-100808882D01*
X141887288Y-100731206D01*
X141700487Y-100691500D01*
X141509513Y-100691500D01*
X141322711Y-100731206D01*
X141148247Y-100808882D01*
X140993744Y-100921135D01*
X140865965Y-101063048D01*
X140865958Y-101063058D01*
X140770476Y-101228438D01*
X140770473Y-101228445D01*
X140711457Y-101410072D01*
X140691496Y-101600000D01*
X140711457Y-101789927D01*
X140741526Y-101882470D01*
X140770473Y-101971556D01*
X140770476Y-101971561D01*
X140865958Y-102136941D01*
X140865965Y-102136951D01*
X140993744Y-102278864D01*
X141009429Y-102290260D01*
X141148248Y-102391118D01*
X141322712Y-102468794D01*
X141381697Y-102481331D01*
X141444170Y-102515059D01*
X141478491Y-102577208D01*
X141481500Y-102604578D01*
X141481500Y-111110500D01*
X141461498Y-111178621D01*
X141407842Y-111225114D01*
X141355500Y-111236500D01*
X141291350Y-111236500D01*
X141230803Y-111243009D01*
X141230795Y-111243011D01*
X141093797Y-111294110D01*
X141093792Y-111294112D01*
X140976738Y-111381738D01*
X140889112Y-111498792D01*
X140889110Y-111498797D01*
X140838011Y-111635795D01*
X140838009Y-111635803D01*
X140831500Y-111696350D01*
X140831500Y-113093649D01*
X140838009Y-113154196D01*
X140838011Y-113154204D01*
X140889110Y-113291202D01*
X140889112Y-113291207D01*
X140976738Y-113408261D01*
X141093792Y-113495887D01*
X141093794Y-113495888D01*
X141093796Y-113495889D01*
X141138933Y-113512724D01*
X141230679Y-113546945D01*
X141287515Y-113589492D01*
X141312325Y-113656012D01*
X141297233Y-113725386D01*
X141247031Y-113775588D01*
X141230679Y-113783055D01*
X141093797Y-113834110D01*
X141093792Y-113834112D01*
X140976738Y-113921738D01*
X140889112Y-114038792D01*
X140889110Y-114038797D01*
X140838011Y-114175795D01*
X140838009Y-114175803D01*
X140831500Y-114236350D01*
X140831500Y-115633649D01*
X140838009Y-115694196D01*
X140838011Y-115694204D01*
X140889110Y-115831202D01*
X140889112Y-115831207D01*
X140976738Y-115948261D01*
X141093792Y-116035887D01*
X141093794Y-116035888D01*
X141093796Y-116035889D01*
X141152875Y-116057924D01*
X141230795Y-116086988D01*
X141230803Y-116086990D01*
X141291350Y-116093499D01*
X141291355Y-116093499D01*
X141291362Y-116093500D01*
X141355500Y-116093500D01*
X141423621Y-116113502D01*
X141470114Y-116167158D01*
X141481500Y-116219500D01*
X141481500Y-116473627D01*
X141461498Y-116541748D01*
X141444595Y-116562723D01*
X140778147Y-117229170D01*
X140715835Y-117263195D01*
X140645019Y-117258130D01*
X140599957Y-117229169D01*
X140513042Y-117142254D01*
X140513038Y-117142251D01*
X140507043Y-117138053D01*
X140332654Y-117015944D01*
X140307428Y-117004181D01*
X140133079Y-116922881D01*
X140133073Y-116922879D01*
X140043178Y-116898791D01*
X139920371Y-116865885D01*
X139701000Y-116846693D01*
X139481629Y-116865885D01*
X139347111Y-116901929D01*
X139276134Y-116900239D01*
X139217339Y-116860445D01*
X139189391Y-116795180D01*
X139188500Y-116780222D01*
X139188500Y-116219500D01*
X139208502Y-116151379D01*
X139262158Y-116104886D01*
X139314500Y-116093500D01*
X139378632Y-116093500D01*
X139378638Y-116093500D01*
X139378645Y-116093499D01*
X139378649Y-116093499D01*
X139439196Y-116086990D01*
X139439199Y-116086989D01*
X139439201Y-116086989D01*
X139452379Y-116082074D01*
X139458045Y-116079960D01*
X139576204Y-116035889D01*
X139693261Y-115948261D01*
X139712163Y-115923011D01*
X139780887Y-115831207D01*
X139780887Y-115831206D01*
X139780889Y-115831204D01*
X139831989Y-115694201D01*
X139838500Y-115633638D01*
X139838500Y-114236362D01*
X139838499Y-114236350D01*
X139831990Y-114175803D01*
X139831988Y-114175795D01*
X139780889Y-114038797D01*
X139780887Y-114038792D01*
X139693261Y-113921738D01*
X139576207Y-113834112D01*
X139576203Y-113834110D01*
X139439320Y-113783055D01*
X139382484Y-113740508D01*
X139357674Y-113673988D01*
X139372766Y-113604614D01*
X139422968Y-113554412D01*
X139439320Y-113546945D01*
X139508860Y-113521007D01*
X139576204Y-113495889D01*
X139693261Y-113408261D01*
X139780889Y-113291204D01*
X139831989Y-113154201D01*
X139832065Y-113153500D01*
X139838499Y-113093649D01*
X139838500Y-113093632D01*
X139838500Y-111696367D01*
X139838499Y-111696350D01*
X139831990Y-111635803D01*
X139831988Y-111635795D01*
X139780889Y-111498797D01*
X139780887Y-111498792D01*
X139693261Y-111381738D01*
X139576207Y-111294112D01*
X139576202Y-111294110D01*
X139439204Y-111243011D01*
X139439196Y-111243009D01*
X139378649Y-111236500D01*
X139378638Y-111236500D01*
X139314500Y-111236500D01*
X139246379Y-111216498D01*
X139199886Y-111162842D01*
X139188500Y-111110500D01*
X139188500Y-94044435D01*
X139189831Y-94026172D01*
X139193340Y-94002216D01*
X139193341Y-94002211D01*
X139190882Y-93974105D01*
X139188740Y-93949613D01*
X139188500Y-93944120D01*
X139188500Y-93935824D01*
X139184652Y-93902904D01*
X139183741Y-93892497D01*
X139177887Y-93825573D01*
X139177886Y-93825570D01*
X139177886Y-93825568D01*
X139176403Y-93818387D01*
X139176469Y-93818373D01*
X139174839Y-93811019D01*
X139174773Y-93811035D01*
X139173079Y-93803893D01*
X139173079Y-93803887D01*
X139146530Y-93730944D01*
X139122114Y-93657261D01*
X139122110Y-93657255D01*
X139119014Y-93650615D01*
X139119076Y-93650586D01*
X139115791Y-93643800D01*
X139115731Y-93643831D01*
X139112435Y-93637268D01*
X139069771Y-93572400D01*
X139029031Y-93506350D01*
X139024477Y-93500591D01*
X139024530Y-93500548D01*
X139019766Y-93494700D01*
X139019715Y-93494744D01*
X139014998Y-93489122D01*
X138958518Y-93435837D01*
X138606473Y-93083792D01*
X138080123Y-92557442D01*
X138049387Y-92507285D01*
X137994528Y-92338447D01*
X137994527Y-92338445D01*
X137994527Y-92338444D01*
X137899040Y-92173056D01*
X137899038Y-92173054D01*
X137899034Y-92173048D01*
X137771255Y-92031135D01*
X137616752Y-91918882D01*
X137442288Y-91841206D01*
X137255487Y-91801500D01*
X137064513Y-91801500D01*
X136877711Y-91841206D01*
X136703247Y-91918882D01*
X136548744Y-92031135D01*
X136420965Y-92173048D01*
X136420958Y-92173058D01*
X136325476Y-92338438D01*
X136325473Y-92338445D01*
X136266457Y-92520072D01*
X136264810Y-92535749D01*
X136237797Y-92601406D01*
X136179575Y-92642036D01*
X136108630Y-92644739D01*
X136047486Y-92608657D01*
X136015556Y-92545246D01*
X136013500Y-92522579D01*
X136013500Y-90869441D01*
X136014830Y-90851182D01*
X136015940Y-90843600D01*
X136018341Y-90827211D01*
X136015875Y-90799027D01*
X136013740Y-90774614D01*
X136013500Y-90769121D01*
X136013500Y-90760819D01*
X136009652Y-90727905D01*
X136009652Y-90727904D01*
X136002887Y-90650574D01*
X136002885Y-90650570D01*
X136001403Y-90643388D01*
X136001469Y-90643374D01*
X135999837Y-90636012D01*
X135999772Y-90636028D01*
X135998080Y-90628890D01*
X135971526Y-90555934D01*
X135951588Y-90495765D01*
X135947114Y-90482262D01*
X135947109Y-90482255D01*
X135944012Y-90475611D01*
X135944074Y-90475581D01*
X135940788Y-90468795D01*
X135940728Y-90468826D01*
X135937433Y-90462265D01*
X135894766Y-90397394D01*
X135854031Y-90331351D01*
X135854030Y-90331349D01*
X135854027Y-90331346D01*
X135849478Y-90325592D01*
X135849531Y-90325549D01*
X135844766Y-90319700D01*
X135844715Y-90319744D01*
X135839998Y-90314122D01*
X135783518Y-90260837D01*
X134566908Y-89044227D01*
X134554936Y-89030375D01*
X134540469Y-89010942D01*
X134540467Y-89010940D01*
X134500024Y-88977003D01*
X134495970Y-88973289D01*
X134490107Y-88967425D01*
X134464104Y-88946864D01*
X134404636Y-88896965D01*
X134398506Y-88892933D01*
X134398541Y-88892878D01*
X134392187Y-88888829D01*
X134392153Y-88888886D01*
X134385906Y-88885033D01*
X134315540Y-88852220D01*
X134246188Y-88817391D01*
X134246186Y-88817390D01*
X134246183Y-88817389D01*
X134239289Y-88814880D01*
X134239311Y-88814817D01*
X134232189Y-88812341D01*
X134232169Y-88812404D01*
X134225209Y-88810097D01*
X134149150Y-88794392D01*
X134073652Y-88776499D01*
X134066367Y-88775648D01*
X134066374Y-88775580D01*
X134058877Y-88774814D01*
X134058872Y-88774881D01*
X134051559Y-88774241D01*
X134051558Y-88774241D01*
X133973920Y-88776500D01*
X132622587Y-88776500D01*
X132554466Y-88756498D01*
X132548524Y-88752435D01*
X132536754Y-88743883D01*
X132536752Y-88743882D01*
X132362288Y-88666206D01*
X132362286Y-88666205D01*
X132359682Y-88665046D01*
X132305586Y-88619066D01*
X132284937Y-88551139D01*
X132304289Y-88482831D01*
X132321832Y-88460848D01*
X133506332Y-87276347D01*
X133568642Y-87242324D01*
X133569102Y-87242224D01*
X133632288Y-87228794D01*
X133806752Y-87151118D01*
X133961253Y-87038866D01*
X134089040Y-86896944D01*
X134184527Y-86731556D01*
X134243542Y-86549928D01*
X134263504Y-86360000D01*
X134243542Y-86170072D01*
X134184527Y-85988444D01*
X134089040Y-85823056D01*
X134089038Y-85823054D01*
X134089034Y-85823048D01*
X133961255Y-85681135D01*
X133806752Y-85568882D01*
X133632288Y-85491206D01*
X133445487Y-85451500D01*
X133254513Y-85451500D01*
X133067711Y-85491206D01*
X132893247Y-85568882D01*
X132738744Y-85681135D01*
X132610965Y-85823048D01*
X132610958Y-85823058D01*
X132586107Y-85866101D01*
X132534723Y-85915093D01*
X132465010Y-85928528D01*
X132399099Y-85902140D01*
X132357918Y-85844307D01*
X132351679Y-85789931D01*
X132358504Y-85725000D01*
X132338542Y-85535072D01*
X132279527Y-85353444D01*
X132184040Y-85188056D01*
X132184038Y-85188054D01*
X132184034Y-85188048D01*
X132056255Y-85046135D01*
X131901752Y-84933882D01*
X131727288Y-84856206D01*
X131540487Y-84816500D01*
X131349513Y-84816500D01*
X131162711Y-84856206D01*
X130988247Y-84933882D01*
X130833744Y-85046135D01*
X130705965Y-85188048D01*
X130705958Y-85188058D01*
X130610476Y-85353438D01*
X130610472Y-85353445D01*
X130555612Y-85522285D01*
X130524874Y-85572443D01*
X128731725Y-87365592D01*
X128717876Y-87377562D01*
X128698443Y-87392030D01*
X128664507Y-87432471D01*
X128660800Y-87436517D01*
X128654921Y-87442397D01*
X128654912Y-87442407D01*
X128634363Y-87468396D01*
X128584465Y-87527864D01*
X128580435Y-87533991D01*
X128580380Y-87533955D01*
X128576325Y-87540320D01*
X128576382Y-87540355D01*
X128572528Y-87546601D01*
X128539720Y-87616958D01*
X128504891Y-87686312D01*
X128502382Y-87693207D01*
X128502320Y-87693184D01*
X128499843Y-87700310D01*
X128499904Y-87700331D01*
X128497597Y-87707290D01*
X128481892Y-87783349D01*
X128464000Y-87858845D01*
X128463148Y-87866134D01*
X128463081Y-87866126D01*
X128462314Y-87873626D01*
X128462381Y-87873632D01*
X128461741Y-87880942D01*
X128464000Y-87958579D01*
X128464000Y-105663059D01*
X128462670Y-105681319D01*
X128459159Y-105705286D01*
X128459159Y-105705294D01*
X128463760Y-105757872D01*
X128464000Y-105763366D01*
X128464000Y-105771682D01*
X128467847Y-105804594D01*
X128474612Y-105881919D01*
X128476096Y-105889106D01*
X128476031Y-105889119D01*
X128477665Y-105896489D01*
X128477729Y-105896475D01*
X128479421Y-105903616D01*
X128505973Y-105976564D01*
X128530385Y-106050236D01*
X128533487Y-106056888D01*
X128533426Y-106056916D01*
X128536711Y-106063702D01*
X128536770Y-106063673D01*
X128540060Y-106070224D01*
X128582733Y-106135105D01*
X128623467Y-106201148D01*
X128628022Y-106206908D01*
X128627968Y-106206950D01*
X128632728Y-106212792D01*
X128632779Y-106212750D01*
X128637493Y-106218368D01*
X128693982Y-106271663D01*
X130228092Y-107805773D01*
X130240065Y-107819627D01*
X130254531Y-107839058D01*
X130269896Y-107851951D01*
X130294975Y-107872994D01*
X130299021Y-107876702D01*
X130304899Y-107882580D01*
X130330896Y-107903136D01*
X130390360Y-107953032D01*
X130390366Y-107953035D01*
X130396495Y-107957067D01*
X130396457Y-107957123D01*
X130402806Y-107961168D01*
X130402842Y-107961111D01*
X130409091Y-107964965D01*
X130409094Y-107964967D01*
X130479459Y-107997779D01*
X130548812Y-108032609D01*
X130548814Y-108032609D01*
X130555711Y-108035120D01*
X130555687Y-108035184D01*
X130562803Y-108037658D01*
X130562825Y-108037594D01*
X130569794Y-108039903D01*
X130645836Y-108055604D01*
X130721344Y-108073500D01*
X130721350Y-108073500D01*
X130728633Y-108074352D01*
X130728625Y-108074418D01*
X130736124Y-108075184D01*
X130736130Y-108075118D01*
X130743433Y-108075756D01*
X130743442Y-108075758D01*
X130821061Y-108073500D01*
X130902413Y-108073500D01*
X130970534Y-108093502D01*
X130976471Y-108097562D01*
X130988248Y-108106118D01*
X131162712Y-108183794D01*
X131349513Y-108223500D01*
X131540487Y-108223500D01*
X131727288Y-108183794D01*
X131901752Y-108106118D01*
X132056253Y-107993866D01*
X132082276Y-107964965D01*
X132184034Y-107851951D01*
X132184035Y-107851949D01*
X132184040Y-107851944D01*
X132279527Y-107686556D01*
X132338542Y-107504928D01*
X132358504Y-107315000D01*
X132338542Y-107125072D01*
X132279527Y-106943444D01*
X132184040Y-106778056D01*
X132184038Y-106778054D01*
X132184034Y-106778048D01*
X132056255Y-106636135D01*
X131901752Y-106523882D01*
X131727288Y-106446206D01*
X131540487Y-106406500D01*
X131349513Y-106406500D01*
X131162709Y-106446206D01*
X131138844Y-106456832D01*
X131068477Y-106466266D01*
X131004180Y-106436159D01*
X130998501Y-106430820D01*
X130017905Y-105450224D01*
X129983879Y-105387912D01*
X129981000Y-105361129D01*
X129981000Y-97065101D01*
X130001002Y-96996980D01*
X130054658Y-96950487D01*
X130124932Y-96940383D01*
X130189512Y-96969877D01*
X130205470Y-96988642D01*
X130206418Y-96987894D01*
X130215522Y-96999408D01*
X130215468Y-96999450D01*
X130220228Y-97005292D01*
X130220279Y-97005250D01*
X130224993Y-97010868D01*
X130281482Y-97064163D01*
X136364595Y-103147276D01*
X136398621Y-103209588D01*
X136401500Y-103236371D01*
X136401500Y-103952579D01*
X136381498Y-104020700D01*
X136327842Y-104067193D01*
X136257568Y-104077297D01*
X136192988Y-104047803D01*
X136154604Y-103988077D01*
X136150190Y-103965749D01*
X136148542Y-103950072D01*
X136116997Y-103852988D01*
X136089527Y-103768444D01*
X135994040Y-103603056D01*
X135994038Y-103603054D01*
X135994034Y-103603048D01*
X135866255Y-103461135D01*
X135711752Y-103348882D01*
X135537288Y-103271206D01*
X135350487Y-103231500D01*
X135159513Y-103231500D01*
X134972711Y-103271206D01*
X134798247Y-103348882D01*
X134643744Y-103461135D01*
X134515965Y-103603048D01*
X134515958Y-103603058D01*
X134420476Y-103768438D01*
X134420473Y-103768445D01*
X134361457Y-103950072D01*
X134341496Y-104140000D01*
X134361457Y-104329927D01*
X134380655Y-104389011D01*
X134420473Y-104511556D01*
X134479619Y-104614000D01*
X134496500Y-104676999D01*
X134496500Y-106030500D01*
X134476498Y-106098621D01*
X134422842Y-106145114D01*
X134370500Y-106156500D01*
X134306350Y-106156500D01*
X134245803Y-106163009D01*
X134245795Y-106163011D01*
X134108797Y-106214110D01*
X134108792Y-106214112D01*
X133991738Y-106301738D01*
X133904112Y-106418792D01*
X133904110Y-106418797D01*
X133853011Y-106555795D01*
X133853009Y-106555803D01*
X133846500Y-106616350D01*
X133846500Y-108013649D01*
X133853009Y-108074196D01*
X133853011Y-108074204D01*
X133904110Y-108211202D01*
X133904112Y-108211207D01*
X133991738Y-108328261D01*
X134108792Y-108415887D01*
X134108794Y-108415888D01*
X134108796Y-108415889D01*
X134153933Y-108432724D01*
X134245679Y-108466945D01*
X134302515Y-108509492D01*
X134327325Y-108576012D01*
X134312233Y-108645386D01*
X134262031Y-108695588D01*
X134245679Y-108703055D01*
X134108797Y-108754110D01*
X134108792Y-108754112D01*
X133991738Y-108841738D01*
X133904112Y-108958792D01*
X133904110Y-108958797D01*
X133853011Y-109095795D01*
X133853009Y-109095803D01*
X133846500Y-109156350D01*
X133846500Y-109601898D01*
X133826498Y-109670019D01*
X133772842Y-109716512D01*
X133702568Y-109726616D01*
X133637988Y-109697122D01*
X133600667Y-109640835D01*
X133588015Y-109601898D01*
X133549527Y-109483444D01*
X133454040Y-109318056D01*
X133454038Y-109318054D01*
X133454034Y-109318048D01*
X133326255Y-109176135D01*
X133171752Y-109063882D01*
X132997288Y-108986206D01*
X132810487Y-108946500D01*
X132619513Y-108946500D01*
X132432711Y-108986206D01*
X132258245Y-109063883D01*
X132246476Y-109072435D01*
X132179609Y-109096294D01*
X132172413Y-109096500D01*
X129604441Y-109096500D01*
X129586181Y-109095170D01*
X129562211Y-109091659D01*
X129509615Y-109096260D01*
X129504122Y-109096500D01*
X129495818Y-109096500D01*
X129473876Y-109099064D01*
X129462905Y-109100347D01*
X129453732Y-109101149D01*
X129385577Y-109107112D01*
X129378386Y-109108597D01*
X129378372Y-109108532D01*
X129371014Y-109110163D01*
X129371030Y-109110228D01*
X129363889Y-109111920D01*
X129290944Y-109138469D01*
X129217260Y-109162885D01*
X129210613Y-109165986D01*
X129210585Y-109165926D01*
X129203801Y-109169210D01*
X129203831Y-109169269D01*
X129197268Y-109172565D01*
X129132400Y-109215228D01*
X129066347Y-109255971D01*
X129060592Y-109260522D01*
X129060551Y-109260470D01*
X129054704Y-109265233D01*
X129054746Y-109265283D01*
X129049128Y-109269996D01*
X128995836Y-109326482D01*
X127779225Y-110543092D01*
X127765376Y-110555062D01*
X127745943Y-110569530D01*
X127712007Y-110609971D01*
X127708300Y-110614017D01*
X127702421Y-110619897D01*
X127702412Y-110619907D01*
X127681863Y-110645896D01*
X127631965Y-110705364D01*
X127627935Y-110711491D01*
X127627880Y-110711455D01*
X127623825Y-110717820D01*
X127623882Y-110717855D01*
X127620028Y-110724101D01*
X127587220Y-110794458D01*
X127552391Y-110863812D01*
X127549882Y-110870707D01*
X127549820Y-110870684D01*
X127547343Y-110877810D01*
X127547404Y-110877831D01*
X127545097Y-110884790D01*
X127529392Y-110960849D01*
X127511500Y-111036345D01*
X127510648Y-111043634D01*
X127510581Y-111043626D01*
X127509814Y-111051126D01*
X127509881Y-111051132D01*
X127509241Y-111058443D01*
X127510649Y-111106837D01*
X127492636Y-111175510D01*
X127440355Y-111223543D01*
X127384702Y-111236500D01*
X127321350Y-111236500D01*
X127260803Y-111243009D01*
X127260795Y-111243011D01*
X127123797Y-111294110D01*
X127123792Y-111294112D01*
X127006738Y-111381738D01*
X126919112Y-111498792D01*
X126919110Y-111498797D01*
X126868011Y-111635795D01*
X126868009Y-111635803D01*
X126861500Y-111696350D01*
X126861500Y-113093649D01*
X126868009Y-113154196D01*
X126868011Y-113154204D01*
X126919110Y-113291202D01*
X126919112Y-113291207D01*
X127006738Y-113408261D01*
X127123792Y-113495887D01*
X127123794Y-113495888D01*
X127123796Y-113495889D01*
X127168933Y-113512724D01*
X127260679Y-113546945D01*
X127317515Y-113589492D01*
X127342325Y-113656012D01*
X127327233Y-113725386D01*
X127277031Y-113775588D01*
X127260679Y-113783055D01*
X127123797Y-113834110D01*
X127123792Y-113834112D01*
X127006738Y-113921738D01*
X126919112Y-114038792D01*
X126919110Y-114038797D01*
X126868011Y-114175795D01*
X126868009Y-114175803D01*
X126861500Y-114236350D01*
X126861500Y-115633649D01*
X126868009Y-115694196D01*
X126868011Y-115694204D01*
X126919110Y-115831202D01*
X126919112Y-115831207D01*
X127006738Y-115948261D01*
X127123792Y-116035887D01*
X127123794Y-116035888D01*
X127123796Y-116035889D01*
X127182875Y-116057924D01*
X127260795Y-116086988D01*
X127260803Y-116086990D01*
X127321350Y-116093499D01*
X127321355Y-116093499D01*
X127321362Y-116093500D01*
X127385500Y-116093500D01*
X127453621Y-116113502D01*
X127500114Y-116167158D01*
X127511500Y-116219500D01*
X127511500Y-118044559D01*
X127510170Y-118062819D01*
X127506659Y-118086786D01*
X127506659Y-118086794D01*
X127511260Y-118139372D01*
X127511500Y-118144866D01*
X127511500Y-118153182D01*
X127515347Y-118186094D01*
X127522112Y-118263419D01*
X127523596Y-118270606D01*
X127523531Y-118270619D01*
X127525165Y-118277989D01*
X127525229Y-118277975D01*
X127526921Y-118285116D01*
X127553473Y-118358064D01*
X127577885Y-118431736D01*
X127580987Y-118438388D01*
X127580926Y-118438416D01*
X127584211Y-118445202D01*
X127584270Y-118445173D01*
X127587560Y-118451724D01*
X127587564Y-118451731D01*
X127587565Y-118451732D01*
X127618372Y-118498571D01*
X127630233Y-118516605D01*
X127670967Y-118582648D01*
X127675522Y-118588408D01*
X127675468Y-118588450D01*
X127680228Y-118594292D01*
X127680279Y-118594250D01*
X127684993Y-118599868D01*
X127684998Y-118599873D01*
X127684999Y-118599874D01*
X127721387Y-118634204D01*
X127741482Y-118653163D01*
X129521481Y-120433162D01*
X129555506Y-120495474D01*
X129557907Y-120533237D01*
X129547693Y-120649999D01*
X129566885Y-120869370D01*
X129623879Y-121082073D01*
X129623881Y-121082079D01*
X129692310Y-121228826D01*
X129716944Y-121281654D01*
X129834519Y-121449567D01*
X129843251Y-121462038D01*
X129843254Y-121462042D01*
X129962617Y-121581405D01*
X129996643Y-121643717D01*
X129991578Y-121714532D01*
X129949031Y-121771368D01*
X129882511Y-121796179D01*
X129873522Y-121796500D01*
X127699441Y-121796500D01*
X127681182Y-121795170D01*
X127657212Y-121791659D01*
X127657211Y-121791659D01*
X127650773Y-121792222D01*
X127604615Y-121796260D01*
X127599122Y-121796500D01*
X127590817Y-121796500D01*
X127557904Y-121800347D01*
X127480574Y-121807112D01*
X127473389Y-121808596D01*
X127473376Y-121808533D01*
X127466003Y-121810168D01*
X127466018Y-121810231D01*
X127458881Y-121811922D01*
X127403088Y-121832229D01*
X127385934Y-121838473D01*
X127349098Y-121850679D01*
X127312261Y-121862886D01*
X127305612Y-121865987D01*
X127305583Y-121865926D01*
X127298792Y-121869214D01*
X127298822Y-121869273D01*
X127292269Y-121872563D01*
X127227394Y-121915232D01*
X127161351Y-121955968D01*
X127155588Y-121960525D01*
X127155547Y-121960473D01*
X127149704Y-121965233D01*
X127149746Y-121965283D01*
X127144128Y-121969996D01*
X127108596Y-122007658D01*
X127090836Y-122026482D01*
X125452722Y-123664596D01*
X125390412Y-123698620D01*
X125363629Y-123701500D01*
X124533675Y-123701500D01*
X124465554Y-123681498D01*
X124419061Y-123627842D01*
X124408957Y-123557568D01*
X124437863Y-123493670D01*
X124454752Y-123473896D01*
X124582927Y-123264732D01*
X124676805Y-123038092D01*
X124734072Y-122799557D01*
X124753319Y-122555000D01*
X124734072Y-122310443D01*
X124676805Y-122071908D01*
X124582927Y-121845268D01*
X124454752Y-121636104D01*
X124295433Y-121449567D01*
X124108896Y-121290248D01*
X124108894Y-121290246D01*
X124108892Y-121290245D01*
X123986256Y-121215094D01*
X123899732Y-121162073D01*
X123673092Y-121068195D01*
X123434557Y-121010928D01*
X123190000Y-120991681D01*
X122945443Y-121010928D01*
X122706907Y-121068195D01*
X122480266Y-121162074D01*
X122271107Y-121290245D01*
X122084567Y-121449567D01*
X122015811Y-121530069D01*
X121956360Y-121568878D01*
X121885365Y-121569384D01*
X121825367Y-121531428D01*
X121824189Y-121530069D01*
X121812089Y-121515903D01*
X121755433Y-121449567D01*
X121568896Y-121290248D01*
X121568894Y-121290246D01*
X121568892Y-121290245D01*
X121568888Y-121290242D01*
X121468665Y-121228825D01*
X121421033Y-121176178D01*
X121408500Y-121121393D01*
X121408500Y-118908605D01*
X121428502Y-118840484D01*
X121468664Y-118801173D01*
X121568896Y-118739752D01*
X121755433Y-118580433D01*
X121824190Y-118499929D01*
X121883640Y-118461121D01*
X121954634Y-118460615D01*
X122014633Y-118498571D01*
X122015767Y-118499879D01*
X122084567Y-118580433D01*
X122271104Y-118739752D01*
X122480268Y-118867927D01*
X122706908Y-118961805D01*
X122945443Y-119019072D01*
X123190000Y-119038319D01*
X123434557Y-119019072D01*
X123673092Y-118961805D01*
X123899732Y-118867927D01*
X124108896Y-118739752D01*
X124295433Y-118580433D01*
X124454752Y-118393896D01*
X124582927Y-118184732D01*
X124676805Y-117958092D01*
X124734072Y-117719557D01*
X124753319Y-117475000D01*
X124734072Y-117230443D01*
X124676805Y-116991908D01*
X124582927Y-116765268D01*
X124454752Y-116556104D01*
X124295433Y-116369567D01*
X124108896Y-116210248D01*
X124108894Y-116210246D01*
X124108892Y-116210245D01*
X123951020Y-116113502D01*
X123899732Y-116082073D01*
X123673092Y-115988195D01*
X123434557Y-115930928D01*
X123190000Y-115911681D01*
X122945443Y-115930928D01*
X122706907Y-115988195D01*
X122480266Y-116082074D01*
X122271107Y-116210245D01*
X122084567Y-116369567D01*
X122015811Y-116450069D01*
X121956360Y-116488878D01*
X121885365Y-116489384D01*
X121825367Y-116451428D01*
X121824189Y-116450069D01*
X121812089Y-116435903D01*
X121755433Y-116369567D01*
X121568896Y-116210248D01*
X121568894Y-116210246D01*
X121568892Y-116210245D01*
X121411020Y-116113502D01*
X121359732Y-116082073D01*
X121133092Y-115988195D01*
X120894557Y-115930928D01*
X120650000Y-115911681D01*
X120405443Y-115930928D01*
X120166907Y-115988195D01*
X119940266Y-116082074D01*
X119762730Y-116190867D01*
X119694197Y-116209405D01*
X119626520Y-116187948D01*
X119596028Y-116158943D01*
X119523261Y-116061738D01*
X119406207Y-115974112D01*
X119406202Y-115974110D01*
X119269204Y-115923011D01*
X119269196Y-115923009D01*
X119208649Y-115916500D01*
X119208638Y-115916500D01*
X117011362Y-115916500D01*
X117011350Y-115916500D01*
X116950803Y-115923009D01*
X116950795Y-115923011D01*
X116813797Y-115974110D01*
X116813792Y-115974112D01*
X116696738Y-116061738D01*
X116609112Y-116178792D01*
X116609110Y-116178797D01*
X116558011Y-116315795D01*
X116558009Y-116315803D01*
X116551500Y-116376350D01*
X116551500Y-118573649D01*
X116558009Y-118634196D01*
X116558011Y-118634204D01*
X116609110Y-118771202D01*
X116609112Y-118771207D01*
X116696738Y-118888261D01*
X116813792Y-118975887D01*
X116813794Y-118975888D01*
X116813796Y-118975889D01*
X116872875Y-118997924D01*
X116950795Y-119026988D01*
X116950803Y-119026990D01*
X117011350Y-119033499D01*
X117011355Y-119033499D01*
X117011362Y-119033500D01*
X117225500Y-119033500D01*
X117293621Y-119053502D01*
X117340114Y-119107158D01*
X117351500Y-119159500D01*
X117351500Y-120870500D01*
X117331498Y-120938621D01*
X117277842Y-120985114D01*
X117225500Y-120996500D01*
X117011350Y-120996500D01*
X116950803Y-121003009D01*
X116950795Y-121003011D01*
X116813797Y-121054110D01*
X116813792Y-121054112D01*
X116696738Y-121141738D01*
X116609112Y-121258792D01*
X116609110Y-121258797D01*
X116558011Y-121395795D01*
X116558009Y-121395803D01*
X116551500Y-121456350D01*
X116551500Y-123653649D01*
X115570000Y-123653649D01*
X115570000Y-106789727D01*
X115590002Y-106721606D01*
X115643658Y-106675113D01*
X115713932Y-106665009D01*
X115778512Y-106694503D01*
X115816705Y-106753588D01*
X115913143Y-107075712D01*
X116051950Y-107397501D01*
X116227175Y-107701000D01*
X116436449Y-107982104D01*
X116676943Y-108237012D01*
X116676948Y-108237016D01*
X116676954Y-108237022D01*
X116945396Y-108462273D01*
X116945400Y-108462276D01*
X116945403Y-108462278D01*
X117238200Y-108654853D01*
X117551374Y-108812135D01*
X117716032Y-108872065D01*
X117880681Y-108931993D01*
X117880682Y-108931993D01*
X117880690Y-108931996D01*
X118221694Y-109012816D01*
X118420597Y-109036064D01*
X118569772Y-109053500D01*
X118569775Y-109053500D01*
X118920228Y-109053500D01*
X119050755Y-109038243D01*
X119268306Y-109012816D01*
X119609310Y-108931996D01*
X119938626Y-108812135D01*
X120251800Y-108654853D01*
X120544597Y-108462278D01*
X120813057Y-108237012D01*
X121053551Y-107982104D01*
X121262825Y-107701000D01*
X121438050Y-107397501D01*
X121576857Y-107075712D01*
X121677367Y-106739984D01*
X121738222Y-106394857D01*
X121758599Y-106045000D01*
X121738222Y-105695143D01*
X121677367Y-105350016D01*
X121576857Y-105014288D01*
X121438050Y-104692499D01*
X121262825Y-104389000D01*
X121053551Y-104107896D01*
X120813057Y-103852988D01*
X120813050Y-103852982D01*
X120813045Y-103852977D01*
X120544603Y-103627726D01*
X120507082Y-103603048D01*
X120251800Y-103435147D01*
X119938626Y-103277865D01*
X119938621Y-103277863D01*
X119938616Y-103277861D01*
X119609318Y-103158006D01*
X119609313Y-103158005D01*
X119609312Y-103158004D01*
X119609310Y-103158004D01*
X119421961Y-103113601D01*
X119268307Y-103077184D01*
X119268301Y-103077183D01*
X118920228Y-103036500D01*
X118920225Y-103036500D01*
X118569775Y-103036500D01*
X118569772Y-103036500D01*
X118221698Y-103077183D01*
X118221692Y-103077184D01*
X117880686Y-103158005D01*
X117880681Y-103158006D01*
X117551383Y-103277861D01*
X117551378Y-103277863D01*
X117238198Y-103435148D01*
X116945396Y-103627726D01*
X116676954Y-103852977D01*
X116676948Y-103852983D01*
X116436450Y-104107894D01*
X116227178Y-104388995D01*
X116227168Y-104389011D01*
X116051953Y-104692493D01*
X116051944Y-104692511D01*
X115913146Y-105014280D01*
X115913143Y-105014288D01*
X115816707Y-105336409D01*
X115778008Y-105395931D01*
X115713272Y-105425083D01*
X115643052Y-105414607D01*
X115589643Y-105367831D01*
X115570000Y-105300272D01*
X115570000Y-84768649D01*
X137271500Y-84768649D01*
X137278009Y-84829196D01*
X137278011Y-84829204D01*
X137329110Y-84966202D01*
X137329112Y-84966207D01*
X137416738Y-85083261D01*
X137533792Y-85170887D01*
X137533794Y-85170888D01*
X137533796Y-85170889D01*
X137592875Y-85192924D01*
X137670795Y-85221988D01*
X137670803Y-85221990D01*
X137731350Y-85228499D01*
X137731355Y-85228499D01*
X137731362Y-85228500D01*
X137731368Y-85228500D01*
X139128632Y-85228500D01*
X139128638Y-85228500D01*
X139128645Y-85228499D01*
X139128649Y-85228499D01*
X139189196Y-85221990D01*
X139189199Y-85221989D01*
X139189201Y-85221989D01*
X139326204Y-85170889D01*
X139326799Y-85170444D01*
X139443261Y-85083261D01*
X139530887Y-84966207D01*
X139530889Y-84966203D01*
X139530890Y-84966202D01*
X139581989Y-84829201D01*
X139582212Y-84828604D01*
X139624758Y-84771768D01*
X139691279Y-84746958D01*
X139760653Y-84762050D01*
X139810855Y-84812252D01*
X139818323Y-84828604D01*
X139869556Y-84965966D01*
X139957095Y-85082904D01*
X140074034Y-85170444D01*
X140210906Y-85221494D01*
X140271402Y-85227999D01*
X140271415Y-85228000D01*
X140716000Y-85228000D01*
X140716000Y-84074000D01*
X141224000Y-84074000D01*
X141224000Y-85228000D01*
X141668585Y-85228000D01*
X141668597Y-85227999D01*
X141729093Y-85221494D01*
X141865964Y-85170444D01*
X141865965Y-85170444D01*
X141982904Y-85082904D01*
X142070444Y-84965965D01*
X142070444Y-84965964D01*
X142121494Y-84829093D01*
X142127999Y-84768597D01*
X142128000Y-84768585D01*
X142128000Y-84074000D01*
X141224000Y-84074000D01*
X140716000Y-84074000D01*
X140716000Y-82412000D01*
X141224000Y-82412000D01*
X141224000Y-83566000D01*
X142128000Y-83566000D01*
X142128000Y-82871414D01*
X142127999Y-82871402D01*
X142121494Y-82810906D01*
X142070444Y-82674035D01*
X142070444Y-82674034D01*
X141982904Y-82557095D01*
X141865965Y-82469555D01*
X141729093Y-82418505D01*
X141668597Y-82412000D01*
X141224000Y-82412000D01*
X140716000Y-82412000D01*
X140271402Y-82412000D01*
X140210906Y-82418505D01*
X140074035Y-82469555D01*
X140074034Y-82469555D01*
X139957095Y-82557095D01*
X139869556Y-82674033D01*
X139818323Y-82811395D01*
X139775776Y-82868230D01*
X139709255Y-82893041D01*
X139639881Y-82877949D01*
X139589679Y-82827747D01*
X139582212Y-82811395D01*
X139530978Y-82674035D01*
X139530889Y-82673796D01*
X139530888Y-82673794D01*
X139530887Y-82673792D01*
X139443261Y-82556738D01*
X139382654Y-82511369D01*
X139340107Y-82454534D01*
X139332853Y-82397332D01*
X139343504Y-82296000D01*
X139323542Y-82106072D01*
X139323133Y-82104813D01*
X139323111Y-82104043D01*
X139322169Y-82099612D01*
X139322979Y-82099439D01*
X139321105Y-82033845D01*
X139357767Y-81973047D01*
X139367457Y-81965007D01*
X139443261Y-81908261D01*
X139530887Y-81791207D01*
X139530889Y-81791203D01*
X139530890Y-81791202D01*
X139581989Y-81654201D01*
X139582212Y-81653604D01*
X139624758Y-81596768D01*
X139691279Y-81571958D01*
X139760653Y-81587050D01*
X139810855Y-81637252D01*
X139818323Y-81653604D01*
X139869556Y-81790966D01*
X139957095Y-81907904D01*
X140074034Y-81995444D01*
X140210906Y-82046494D01*
X140271402Y-82052999D01*
X140271415Y-82053000D01*
X140716000Y-82053000D01*
X140716000Y-80899000D01*
X141224000Y-80899000D01*
X141224000Y-82053000D01*
X141668585Y-82053000D01*
X141668597Y-82052999D01*
X141729093Y-82046494D01*
X141865964Y-81995444D01*
X141865965Y-81995444D01*
X141982904Y-81907904D01*
X142070444Y-81790965D01*
X142070444Y-81790964D01*
X142121494Y-81654093D01*
X142127999Y-81593597D01*
X142128000Y-81593585D01*
X142128000Y-80899000D01*
X141224000Y-80899000D01*
X140716000Y-80899000D01*
X140716000Y-79237000D01*
X141224000Y-79237000D01*
X141224000Y-80391000D01*
X142128000Y-80391000D01*
X142128000Y-79696414D01*
X142127999Y-79696402D01*
X142121494Y-79635906D01*
X142070444Y-79499035D01*
X142070444Y-79499034D01*
X141982904Y-79382095D01*
X141865965Y-79294555D01*
X141729093Y-79243505D01*
X141668597Y-79237000D01*
X141224000Y-79237000D01*
X140716000Y-79237000D01*
X140271402Y-79237000D01*
X140210906Y-79243505D01*
X140074035Y-79294555D01*
X140074034Y-79294555D01*
X139957095Y-79382095D01*
X139869556Y-79499033D01*
X139818323Y-79636395D01*
X139775776Y-79693230D01*
X139709255Y-79718041D01*
X139639881Y-79702949D01*
X139589679Y-79652747D01*
X139582212Y-79636395D01*
X139530978Y-79499035D01*
X139530889Y-79498796D01*
X139530888Y-79498794D01*
X139530887Y-79498792D01*
X139443261Y-79381738D01*
X139326207Y-79294112D01*
X139326202Y-79294110D01*
X139189204Y-79243011D01*
X139189196Y-79243009D01*
X139128649Y-79236500D01*
X139128638Y-79236500D01*
X137731362Y-79236500D01*
X137731350Y-79236500D01*
X137670803Y-79243009D01*
X137670795Y-79243011D01*
X137533797Y-79294110D01*
X137533792Y-79294112D01*
X137416738Y-79381738D01*
X137329112Y-79498792D01*
X137329110Y-79498797D01*
X137278011Y-79635795D01*
X137278009Y-79635803D01*
X137271500Y-79696350D01*
X137271500Y-81593649D01*
X137278009Y-81654196D01*
X137278011Y-81654204D01*
X137329110Y-81791202D01*
X137329112Y-81791207D01*
X137416738Y-81908261D01*
X137492542Y-81965007D01*
X137535089Y-82021843D01*
X137540153Y-82092658D01*
X137536872Y-82104794D01*
X137536458Y-82106067D01*
X137536457Y-82106069D01*
X137516496Y-82296000D01*
X137527145Y-82397332D01*
X137514372Y-82467170D01*
X137477345Y-82511368D01*
X137416739Y-82556737D01*
X137329112Y-82673792D01*
X137329110Y-82673797D01*
X137278011Y-82810795D01*
X137278009Y-82810803D01*
X137271500Y-82871350D01*
X137271500Y-84768649D01*
X115570000Y-84768649D01*
X115570000Y-70313597D01*
X130522000Y-70313597D01*
X130528505Y-70374093D01*
X130579555Y-70510964D01*
X130579555Y-70510965D01*
X130667095Y-70627904D01*
X130784034Y-70715444D01*
X130920906Y-70766494D01*
X130981402Y-70772999D01*
X130981415Y-70773000D01*
X131826000Y-70773000D01*
X131826000Y-69648674D01*
X131937685Y-69699680D01*
X132044237Y-69715000D01*
X132115763Y-69715000D01*
X132222315Y-69699680D01*
X132334000Y-69648674D01*
X132334000Y-70773000D01*
X133178585Y-70773000D01*
X133178597Y-70772999D01*
X133239093Y-70766494D01*
X133375964Y-70715444D01*
X133375965Y-70715444D01*
X133492904Y-70627904D01*
X133565600Y-70530794D01*
X133622436Y-70488247D01*
X133693251Y-70483183D01*
X133732299Y-70498868D01*
X133910268Y-70607927D01*
X134136908Y-70701805D01*
X134375443Y-70759072D01*
X134620000Y-70778319D01*
X134864557Y-70759072D01*
X135103092Y-70701805D01*
X135329732Y-70607927D01*
X135538896Y-70479752D01*
X135725433Y-70320433D01*
X135794190Y-70239929D01*
X135853640Y-70201121D01*
X135924634Y-70200615D01*
X135984633Y-70238571D01*
X135985767Y-70239879D01*
X136054567Y-70320433D01*
X136241104Y-70479752D01*
X136450268Y-70607927D01*
X136676908Y-70701805D01*
X136915443Y-70759072D01*
X137160000Y-70778319D01*
X137404557Y-70759072D01*
X137643092Y-70701805D01*
X137869732Y-70607927D01*
X138078896Y-70479752D01*
X138265433Y-70320433D01*
X138334190Y-70239929D01*
X138393640Y-70201121D01*
X138464634Y-70200615D01*
X138524633Y-70238571D01*
X138525767Y-70239879D01*
X138594567Y-70320433D01*
X138781104Y-70479752D01*
X138990268Y-70607927D01*
X139216908Y-70701805D01*
X139455443Y-70759072D01*
X139700000Y-70778319D01*
X139944557Y-70759072D01*
X140183092Y-70701805D01*
X140409732Y-70607927D01*
X140618896Y-70479752D01*
X140805433Y-70320433D01*
X140964752Y-70133896D01*
X141092927Y-69924732D01*
X141186805Y-69698092D01*
X141244072Y-69459557D01*
X141263319Y-69215000D01*
X141244072Y-68970443D01*
X141186805Y-68731908D01*
X141092927Y-68505268D01*
X140964752Y-68296104D01*
X140805433Y-68109567D01*
X140618896Y-67950248D01*
X140618894Y-67950246D01*
X140618892Y-67950245D01*
X140496256Y-67875094D01*
X140409732Y-67822073D01*
X140183092Y-67728195D01*
X139944557Y-67670928D01*
X139700000Y-67651681D01*
X139455443Y-67670928D01*
X139216907Y-67728195D01*
X138990266Y-67822074D01*
X138781107Y-67950245D01*
X138594567Y-68109567D01*
X138525811Y-68190069D01*
X138466360Y-68228878D01*
X138395365Y-68229384D01*
X138335367Y-68191428D01*
X138334189Y-68190069D01*
X138318872Y-68172135D01*
X138265433Y-68109567D01*
X138078896Y-67950248D01*
X138078894Y-67950246D01*
X138078892Y-67950245D01*
X137956256Y-67875094D01*
X137869732Y-67822073D01*
X137643092Y-67728195D01*
X137404557Y-67670928D01*
X137160000Y-67651681D01*
X136915443Y-67670928D01*
X136676907Y-67728195D01*
X136450266Y-67822074D01*
X136241107Y-67950245D01*
X136054567Y-68109567D01*
X135985811Y-68190069D01*
X135926360Y-68228878D01*
X135855365Y-68229384D01*
X135795367Y-68191428D01*
X135794189Y-68190069D01*
X135778872Y-68172135D01*
X135725433Y-68109567D01*
X135538896Y-67950248D01*
X135538894Y-67950246D01*
X135538892Y-67950245D01*
X135416256Y-67875094D01*
X135329732Y-67822073D01*
X135103092Y-67728195D01*
X134864557Y-67670928D01*
X134620000Y-67651681D01*
X134375443Y-67670928D01*
X134136907Y-67728195D01*
X133910266Y-67822074D01*
X133732302Y-67931129D01*
X133663768Y-67949667D01*
X133596092Y-67928210D01*
X133565600Y-67899205D01*
X133492904Y-67802095D01*
X133375965Y-67714555D01*
X133239093Y-67663505D01*
X133178597Y-67657000D01*
X132334000Y-67657000D01*
X132334000Y-68781325D01*
X132222315Y-68730320D01*
X132115763Y-68715000D01*
X132044237Y-68715000D01*
X131937685Y-68730320D01*
X131826000Y-68781325D01*
X131826000Y-67657000D01*
X130981402Y-67657000D01*
X130920906Y-67663505D01*
X130784035Y-67714555D01*
X130784034Y-67714555D01*
X130667095Y-67802095D01*
X130579555Y-67919034D01*
X130579555Y-67919035D01*
X130528505Y-68055906D01*
X130522000Y-68116402D01*
X130522000Y-68961000D01*
X131648884Y-68961000D01*
X131620507Y-69005156D01*
X131580000Y-69143111D01*
X131580000Y-69286889D01*
X131620507Y-69424844D01*
X131648884Y-69469000D01*
X130522000Y-69469000D01*
X130522000Y-70313597D01*
X115570000Y-70313597D01*
X115570000Y-66149727D01*
X115590002Y-66081606D01*
X115643658Y-66035113D01*
X115713932Y-66025009D01*
X115778512Y-66054503D01*
X115816705Y-66113588D01*
X115913143Y-66435712D01*
X115913145Y-66435718D01*
X115913146Y-66435719D01*
X116018656Y-66680319D01*
X116051950Y-66757501D01*
X116227175Y-67061000D01*
X116436449Y-67342104D01*
X116676943Y-67597012D01*
X116676948Y-67597016D01*
X116676954Y-67597022D01*
X116945396Y-67822273D01*
X116945400Y-67822276D01*
X116945403Y-67822278D01*
X117238200Y-68014853D01*
X117551374Y-68172135D01*
X117707274Y-68228878D01*
X117880681Y-68291993D01*
X117880682Y-68291993D01*
X117880690Y-68291996D01*
X118221694Y-68372816D01*
X118420597Y-68396064D01*
X118569772Y-68413500D01*
X118569775Y-68413500D01*
X118920228Y-68413500D01*
X119050755Y-68398243D01*
X119268306Y-68372816D01*
X119609310Y-68291996D01*
X119938626Y-68172135D01*
X120251800Y-68014853D01*
X120544597Y-67822278D01*
X120813057Y-67597012D01*
X121053551Y-67342104D01*
X121262825Y-67061000D01*
X121438050Y-66757501D01*
X121576857Y-66435712D01*
X121677367Y-66099984D01*
X121738222Y-65754857D01*
X121758599Y-65405000D01*
X121748616Y-65233597D01*
X130522000Y-65233597D01*
X130528505Y-65294093D01*
X130579555Y-65430964D01*
X130579555Y-65430965D01*
X130667095Y-65547904D01*
X130784034Y-65635444D01*
X130920906Y-65686494D01*
X130981402Y-65692999D01*
X130981415Y-65693000D01*
X131826000Y-65693000D01*
X131826000Y-64568674D01*
X131937685Y-64619680D01*
X132044237Y-64635000D01*
X132115763Y-64635000D01*
X132222315Y-64619680D01*
X132334000Y-64568674D01*
X132334000Y-65693000D01*
X133178585Y-65693000D01*
X133178597Y-65692999D01*
X133239093Y-65686494D01*
X133375964Y-65635444D01*
X133375965Y-65635444D01*
X133492904Y-65547904D01*
X133565600Y-65450794D01*
X133622436Y-65408247D01*
X133693251Y-65403183D01*
X133732299Y-65418868D01*
X133910268Y-65527927D01*
X134136908Y-65621805D01*
X134375443Y-65679072D01*
X134620000Y-65698319D01*
X134864557Y-65679072D01*
X135103092Y-65621805D01*
X135329732Y-65527927D01*
X135538896Y-65399752D01*
X135725433Y-65240433D01*
X135794190Y-65159929D01*
X135853640Y-65121121D01*
X135924634Y-65120615D01*
X135984633Y-65158571D01*
X135985767Y-65159879D01*
X136054567Y-65240433D01*
X136241104Y-65399752D01*
X136450268Y-65527927D01*
X136676908Y-65621805D01*
X136915443Y-65679072D01*
X137160000Y-65698319D01*
X137404557Y-65679072D01*
X137643092Y-65621805D01*
X137869732Y-65527927D01*
X138078896Y-65399752D01*
X138265433Y-65240433D01*
X138334190Y-65159929D01*
X138393640Y-65121121D01*
X138464634Y-65120615D01*
X138524633Y-65158571D01*
X138525767Y-65159879D01*
X138594567Y-65240433D01*
X138781104Y-65399752D01*
X138990268Y-65527927D01*
X139216908Y-65621805D01*
X139455443Y-65679072D01*
X139700000Y-65698319D01*
X139944557Y-65679072D01*
X140183092Y-65621805D01*
X140409732Y-65527927D01*
X140618896Y-65399752D01*
X140805433Y-65240433D01*
X140964752Y-65053896D01*
X141092927Y-64844732D01*
X141186805Y-64618092D01*
X141244072Y-64379557D01*
X141263319Y-64135000D01*
X141244072Y-63890443D01*
X141186805Y-63651908D01*
X141092927Y-63425268D01*
X140964752Y-63216104D01*
X140805433Y-63029567D01*
X140618896Y-62870248D01*
X140618894Y-62870246D01*
X140618892Y-62870245D01*
X140496256Y-62795094D01*
X140409732Y-62742073D01*
X140183092Y-62648195D01*
X139944557Y-62590928D01*
X139700000Y-62571681D01*
X139455443Y-62590928D01*
X139216907Y-62648195D01*
X138990266Y-62742074D01*
X138781107Y-62870245D01*
X138594567Y-63029567D01*
X138525811Y-63110069D01*
X138466360Y-63148878D01*
X138395365Y-63149384D01*
X138335367Y-63111428D01*
X138334189Y-63110069D01*
X138322089Y-63095903D01*
X138265433Y-63029567D01*
X138078896Y-62870248D01*
X138078894Y-62870246D01*
X138078892Y-62870245D01*
X137956256Y-62795094D01*
X137869732Y-62742073D01*
X137643092Y-62648195D01*
X137404557Y-62590928D01*
X137160000Y-62571681D01*
X136915443Y-62590928D01*
X136676907Y-62648195D01*
X136450266Y-62742074D01*
X136241107Y-62870245D01*
X136054567Y-63029567D01*
X135985811Y-63110069D01*
X135926360Y-63148878D01*
X135855365Y-63149384D01*
X135795367Y-63111428D01*
X135794189Y-63110069D01*
X135782089Y-63095903D01*
X135725433Y-63029567D01*
X135538896Y-62870248D01*
X135538894Y-62870246D01*
X135538892Y-62870245D01*
X135416256Y-62795094D01*
X135329732Y-62742073D01*
X135103092Y-62648195D01*
X134864557Y-62590928D01*
X134620000Y-62571681D01*
X134375443Y-62590928D01*
X134136907Y-62648195D01*
X133910266Y-62742074D01*
X133732302Y-62851129D01*
X133663768Y-62869667D01*
X133596092Y-62848210D01*
X133565600Y-62819205D01*
X133492904Y-62722095D01*
X133375965Y-62634555D01*
X133239093Y-62583505D01*
X133178597Y-62577000D01*
X132334000Y-62577000D01*
X132334000Y-63701325D01*
X132222315Y-63650320D01*
X132115763Y-63635000D01*
X132044237Y-63635000D01*
X131937685Y-63650320D01*
X131826000Y-63701325D01*
X131826000Y-62577000D01*
X130981402Y-62577000D01*
X130920906Y-62583505D01*
X130784035Y-62634555D01*
X130784034Y-62634555D01*
X130667095Y-62722095D01*
X130579555Y-62839034D01*
X130579555Y-62839035D01*
X130528505Y-62975906D01*
X130522000Y-63036402D01*
X130522000Y-63881000D01*
X131648884Y-63881000D01*
X131620507Y-63925156D01*
X131580000Y-64063111D01*
X131580000Y-64206889D01*
X131620507Y-64344844D01*
X131648884Y-64389000D01*
X130522000Y-64389000D01*
X130522000Y-65233597D01*
X121748616Y-65233597D01*
X121738222Y-65055143D01*
X121677367Y-64710016D01*
X121576857Y-64374288D01*
X121438050Y-64052499D01*
X121262825Y-63749000D01*
X121053551Y-63467896D01*
X120813057Y-63212988D01*
X120813050Y-63212982D01*
X120813045Y-63212977D01*
X120544603Y-62987726D01*
X120544597Y-62987722D01*
X120251800Y-62795147D01*
X119938626Y-62637865D01*
X119938621Y-62637863D01*
X119938616Y-62637861D01*
X119609318Y-62518006D01*
X119609313Y-62518005D01*
X119609312Y-62518004D01*
X119609310Y-62518004D01*
X119443065Y-62478602D01*
X119381396Y-62443431D01*
X119348530Y-62380499D01*
X119354905Y-62309790D01*
X119398496Y-62253751D01*
X119465464Y-62230176D01*
X119472125Y-62230000D01*
X145289000Y-62230000D01*
X145357121Y-62250002D01*
G37*
G04 #@! TD.AperFunction*
M02*
