G04 #@! TF.GenerationSoftware,KiCad,Pcbnew,7.0.9*
G04 #@! TF.CreationDate,2023-12-23T18:19:17+01:00*
G04 #@! TF.ProjectId,testing-board,74657374-696e-4672-9d62-6f6172642e6b,v1.0*
G04 #@! TF.SameCoordinates,Original*
G04 #@! TF.FileFunction,Legend,Bot*
G04 #@! TF.FilePolarity,Positive*
%FSLAX46Y46*%
G04 Gerber Fmt 4.6, Leading zero omitted, Abs format (unit mm)*
G04 Created by KiCad (PCBNEW 7.0.9) date 2023-12-23 18:19:17*
%MOMM*%
%LPD*%
G01*
G04 APERTURE LIST*
G04 Aperture macros list*
%AMRoundRect*
0 Rectangle with rounded corners*
0 $1 Rounding radius*
0 $2 $3 $4 $5 $6 $7 $8 $9 X,Y pos of 4 corners*
0 Add a 4 corners polygon primitive as box body*
4,1,4,$2,$3,$4,$5,$6,$7,$8,$9,$2,$3,0*
0 Add four circle primitives for the rounded corners*
1,1,$1+$1,$2,$3*
1,1,$1+$1,$4,$5*
1,1,$1+$1,$6,$7*
1,1,$1+$1,$8,$9*
0 Add four rect primitives between the rounded corners*
20,1,$1+$1,$2,$3,$4,$5,0*
20,1,$1+$1,$4,$5,$6,$7,0*
20,1,$1+$1,$6,$7,$8,$9,0*
20,1,$1+$1,$8,$9,$2,$3,0*%
%AMFreePoly0*
4,1,13,0.685355,0.935355,0.700000,0.900000,0.700000,-0.900000,0.685355,-0.935355,0.650000,-0.950000,-0.650000,-0.950000,-0.685355,-0.935355,-0.700000,-0.900000,-0.700000,0.900000,-0.685355,0.935355,-0.650000,0.950000,0.650000,0.950000,0.685355,0.935355,0.685355,0.935355,$1*%
G04 Aperture macros list end*
%ADD10C,0.160000*%
%ADD11C,3.300000*%
%ADD12RoundRect,0.050000X1.050000X-1.050000X1.050000X1.050000X-1.050000X1.050000X-1.050000X-1.050000X0*%
%ADD13O,2.200000X2.200000*%
%ADD14C,5.100000*%
%ADD15FreePoly0,90.000000*%
%ADD16RoundRect,0.050000X1.750000X1.750000X-1.750000X1.750000X-1.750000X-1.750000X1.750000X-1.750000X0*%
%ADD17C,3.600000*%
%ADD18C,3.400000*%
%ADD19C,1.600000*%
%ADD20FreePoly0,0.000000*%
%ADD21C,0.900000*%
G04 APERTURE END LIST*
D10*
X137741299Y-94861142D02*
X137265108Y-94527809D01*
X137741299Y-94289714D02*
X136741299Y-94289714D01*
X136741299Y-94289714D02*
X136741299Y-94670666D01*
X136741299Y-94670666D02*
X136788918Y-94765904D01*
X136788918Y-94765904D02*
X136836537Y-94813523D01*
X136836537Y-94813523D02*
X136931775Y-94861142D01*
X136931775Y-94861142D02*
X137074632Y-94861142D01*
X137074632Y-94861142D02*
X137169870Y-94813523D01*
X137169870Y-94813523D02*
X137217489Y-94765904D01*
X137217489Y-94765904D02*
X137265108Y-94670666D01*
X137265108Y-94670666D02*
X137265108Y-94289714D01*
X137741299Y-95813523D02*
X137741299Y-95242095D01*
X137741299Y-95527809D02*
X136741299Y-95527809D01*
X136741299Y-95527809D02*
X136884156Y-95432571D01*
X136884156Y-95432571D02*
X136979394Y-95337333D01*
X136979394Y-95337333D02*
X137027013Y-95242095D01*
X137074632Y-96670666D02*
X137741299Y-96670666D01*
X136693680Y-96432571D02*
X137407965Y-96194476D01*
X137407965Y-96194476D02*
X137407965Y-96813523D01*
X135548666Y-106118299D02*
X135881999Y-105642108D01*
X136120094Y-106118299D02*
X136120094Y-105118299D01*
X136120094Y-105118299D02*
X135739142Y-105118299D01*
X135739142Y-105118299D02*
X135643904Y-105165918D01*
X135643904Y-105165918D02*
X135596285Y-105213537D01*
X135596285Y-105213537D02*
X135548666Y-105308775D01*
X135548666Y-105308775D02*
X135548666Y-105451632D01*
X135548666Y-105451632D02*
X135596285Y-105546870D01*
X135596285Y-105546870D02*
X135643904Y-105594489D01*
X135643904Y-105594489D02*
X135739142Y-105642108D01*
X135739142Y-105642108D02*
X136120094Y-105642108D01*
X135072475Y-106118299D02*
X134881999Y-106118299D01*
X134881999Y-106118299D02*
X134786761Y-106070680D01*
X134786761Y-106070680D02*
X134739142Y-106023060D01*
X134739142Y-106023060D02*
X134643904Y-105880203D01*
X134643904Y-105880203D02*
X134596285Y-105689727D01*
X134596285Y-105689727D02*
X134596285Y-105308775D01*
X134596285Y-105308775D02*
X134643904Y-105213537D01*
X134643904Y-105213537D02*
X134691523Y-105165918D01*
X134691523Y-105165918D02*
X134786761Y-105118299D01*
X134786761Y-105118299D02*
X134977237Y-105118299D01*
X134977237Y-105118299D02*
X135072475Y-105165918D01*
X135072475Y-105165918D02*
X135120094Y-105213537D01*
X135120094Y-105213537D02*
X135167713Y-105308775D01*
X135167713Y-105308775D02*
X135167713Y-105546870D01*
X135167713Y-105546870D02*
X135120094Y-105642108D01*
X135120094Y-105642108D02*
X135072475Y-105689727D01*
X135072475Y-105689727D02*
X134977237Y-105737346D01*
X134977237Y-105737346D02*
X134786761Y-105737346D01*
X134786761Y-105737346D02*
X134691523Y-105689727D01*
X134691523Y-105689727D02*
X134643904Y-105642108D01*
X134643904Y-105642108D02*
X134596285Y-105546870D01*
X128724299Y-110069333D02*
X128248108Y-109736000D01*
X128724299Y-109497905D02*
X127724299Y-109497905D01*
X127724299Y-109497905D02*
X127724299Y-109878857D01*
X127724299Y-109878857D02*
X127771918Y-109974095D01*
X127771918Y-109974095D02*
X127819537Y-110021714D01*
X127819537Y-110021714D02*
X127914775Y-110069333D01*
X127914775Y-110069333D02*
X128057632Y-110069333D01*
X128057632Y-110069333D02*
X128152870Y-110021714D01*
X128152870Y-110021714D02*
X128200489Y-109974095D01*
X128200489Y-109974095D02*
X128248108Y-109878857D01*
X128248108Y-109878857D02*
X128248108Y-109497905D01*
X128057632Y-110926476D02*
X128724299Y-110926476D01*
X127676680Y-110688381D02*
X128390965Y-110450286D01*
X128390965Y-110450286D02*
X128390965Y-111069333D01*
X132026299Y-110069333D02*
X131550108Y-109736000D01*
X132026299Y-109497905D02*
X131026299Y-109497905D01*
X131026299Y-109497905D02*
X131026299Y-109878857D01*
X131026299Y-109878857D02*
X131073918Y-109974095D01*
X131073918Y-109974095D02*
X131121537Y-110021714D01*
X131121537Y-110021714D02*
X131216775Y-110069333D01*
X131216775Y-110069333D02*
X131359632Y-110069333D01*
X131359632Y-110069333D02*
X131454870Y-110021714D01*
X131454870Y-110021714D02*
X131502489Y-109974095D01*
X131502489Y-109974095D02*
X131550108Y-109878857D01*
X131550108Y-109878857D02*
X131550108Y-109497905D01*
X131026299Y-110402667D02*
X131026299Y-111021714D01*
X131026299Y-111021714D02*
X131407251Y-110688381D01*
X131407251Y-110688381D02*
X131407251Y-110831238D01*
X131407251Y-110831238D02*
X131454870Y-110926476D01*
X131454870Y-110926476D02*
X131502489Y-110974095D01*
X131502489Y-110974095D02*
X131597727Y-111021714D01*
X131597727Y-111021714D02*
X131835822Y-111021714D01*
X131835822Y-111021714D02*
X131931060Y-110974095D01*
X131931060Y-110974095D02*
X131978680Y-110926476D01*
X131978680Y-110926476D02*
X132026299Y-110831238D01*
X132026299Y-110831238D02*
X132026299Y-110545524D01*
X132026299Y-110545524D02*
X131978680Y-110450286D01*
X131978680Y-110450286D02*
X131931060Y-110402667D01*
X138884299Y-110069333D02*
X138408108Y-109736000D01*
X138884299Y-109497905D02*
X137884299Y-109497905D01*
X137884299Y-109497905D02*
X137884299Y-109878857D01*
X137884299Y-109878857D02*
X137931918Y-109974095D01*
X137931918Y-109974095D02*
X137979537Y-110021714D01*
X137979537Y-110021714D02*
X138074775Y-110069333D01*
X138074775Y-110069333D02*
X138217632Y-110069333D01*
X138217632Y-110069333D02*
X138312870Y-110021714D01*
X138312870Y-110021714D02*
X138360489Y-109974095D01*
X138360489Y-109974095D02*
X138408108Y-109878857D01*
X138408108Y-109878857D02*
X138408108Y-109497905D01*
X137979537Y-110450286D02*
X137931918Y-110497905D01*
X137931918Y-110497905D02*
X137884299Y-110593143D01*
X137884299Y-110593143D02*
X137884299Y-110831238D01*
X137884299Y-110831238D02*
X137931918Y-110926476D01*
X137931918Y-110926476D02*
X137979537Y-110974095D01*
X137979537Y-110974095D02*
X138074775Y-111021714D01*
X138074775Y-111021714D02*
X138170013Y-111021714D01*
X138170013Y-111021714D02*
X138312870Y-110974095D01*
X138312870Y-110974095D02*
X138884299Y-110402667D01*
X138884299Y-110402667D02*
X138884299Y-111021714D01*
X142694299Y-110069333D02*
X142218108Y-109736000D01*
X142694299Y-109497905D02*
X141694299Y-109497905D01*
X141694299Y-109497905D02*
X141694299Y-109878857D01*
X141694299Y-109878857D02*
X141741918Y-109974095D01*
X141741918Y-109974095D02*
X141789537Y-110021714D01*
X141789537Y-110021714D02*
X141884775Y-110069333D01*
X141884775Y-110069333D02*
X142027632Y-110069333D01*
X142027632Y-110069333D02*
X142122870Y-110021714D01*
X142122870Y-110021714D02*
X142170489Y-109974095D01*
X142170489Y-109974095D02*
X142218108Y-109878857D01*
X142218108Y-109878857D02*
X142218108Y-109497905D01*
X142694299Y-111021714D02*
X142694299Y-110450286D01*
X142694299Y-110736000D02*
X141694299Y-110736000D01*
X141694299Y-110736000D02*
X141837156Y-110640762D01*
X141837156Y-110640762D02*
X141932394Y-110545524D01*
X141932394Y-110545524D02*
X141980013Y-110450286D01*
X143168666Y-84179060D02*
X143216285Y-84226680D01*
X143216285Y-84226680D02*
X143359142Y-84274299D01*
X143359142Y-84274299D02*
X143454380Y-84274299D01*
X143454380Y-84274299D02*
X143597237Y-84226680D01*
X143597237Y-84226680D02*
X143692475Y-84131441D01*
X143692475Y-84131441D02*
X143740094Y-84036203D01*
X143740094Y-84036203D02*
X143787713Y-83845727D01*
X143787713Y-83845727D02*
X143787713Y-83702870D01*
X143787713Y-83702870D02*
X143740094Y-83512394D01*
X143740094Y-83512394D02*
X143692475Y-83417156D01*
X143692475Y-83417156D02*
X143597237Y-83321918D01*
X143597237Y-83321918D02*
X143454380Y-83274299D01*
X143454380Y-83274299D02*
X143359142Y-83274299D01*
X143359142Y-83274299D02*
X143216285Y-83321918D01*
X143216285Y-83321918D02*
X143168666Y-83369537D01*
X142787713Y-83369537D02*
X142740094Y-83321918D01*
X142740094Y-83321918D02*
X142644856Y-83274299D01*
X142644856Y-83274299D02*
X142406761Y-83274299D01*
X142406761Y-83274299D02*
X142311523Y-83321918D01*
X142311523Y-83321918D02*
X142263904Y-83369537D01*
X142263904Y-83369537D02*
X142216285Y-83464775D01*
X142216285Y-83464775D02*
X142216285Y-83560013D01*
X142216285Y-83560013D02*
X142263904Y-83702870D01*
X142263904Y-83702870D02*
X142835332Y-84274299D01*
X142835332Y-84274299D02*
X142216285Y-84274299D01*
X143168666Y-81004060D02*
X143216285Y-81051680D01*
X143216285Y-81051680D02*
X143359142Y-81099299D01*
X143359142Y-81099299D02*
X143454380Y-81099299D01*
X143454380Y-81099299D02*
X143597237Y-81051680D01*
X143597237Y-81051680D02*
X143692475Y-80956441D01*
X143692475Y-80956441D02*
X143740094Y-80861203D01*
X143740094Y-80861203D02*
X143787713Y-80670727D01*
X143787713Y-80670727D02*
X143787713Y-80527870D01*
X143787713Y-80527870D02*
X143740094Y-80337394D01*
X143740094Y-80337394D02*
X143692475Y-80242156D01*
X143692475Y-80242156D02*
X143597237Y-80146918D01*
X143597237Y-80146918D02*
X143454380Y-80099299D01*
X143454380Y-80099299D02*
X143359142Y-80099299D01*
X143359142Y-80099299D02*
X143216285Y-80146918D01*
X143216285Y-80146918D02*
X143168666Y-80194537D01*
X142216285Y-81099299D02*
X142787713Y-81099299D01*
X142501999Y-81099299D02*
X142501999Y-80099299D01*
X142501999Y-80099299D02*
X142597237Y-80242156D01*
X142597237Y-80242156D02*
X142692475Y-80337394D01*
X142692475Y-80337394D02*
X142787713Y-80385013D01*
X136435000Y-97450000D02*
X136435000Y-93050000D01*
X134075000Y-97450000D02*
X136435000Y-97450000D01*
X136435000Y-93050000D02*
X134075000Y-93050000D01*
X134075000Y-93050000D02*
X134075000Y-97450000D01*
X136435000Y-110785000D02*
X136435000Y-106385000D01*
X134075000Y-110785000D02*
X136435000Y-110785000D01*
X136435000Y-106385000D02*
X134075000Y-106385000D01*
X134075000Y-106385000D02*
X134075000Y-110785000D01*
X129450000Y-115865000D02*
X129450000Y-111465000D01*
X127090000Y-115865000D02*
X129450000Y-115865000D01*
X129450000Y-111465000D02*
X127090000Y-111465000D01*
X127090000Y-111465000D02*
X127090000Y-115865000D01*
X133260000Y-115865000D02*
X133260000Y-111465000D01*
X130900000Y-115865000D02*
X133260000Y-115865000D01*
X133260000Y-111465000D02*
X130900000Y-111465000D01*
X130900000Y-111465000D02*
X130900000Y-115865000D01*
X139610000Y-115865000D02*
X139610000Y-111465000D01*
X137250000Y-115865000D02*
X139610000Y-115865000D01*
X139610000Y-111465000D02*
X137250000Y-111465000D01*
X137250000Y-111465000D02*
X137250000Y-115865000D01*
X143420000Y-115865000D02*
X143420000Y-111465000D01*
X141060000Y-115865000D02*
X143420000Y-115865000D01*
X143420000Y-111465000D02*
X141060000Y-111465000D01*
X141060000Y-111465000D02*
X141060000Y-115865000D01*
X137500000Y-85000000D02*
X141900000Y-85000000D01*
X137500000Y-82640000D02*
X137500000Y-85000000D01*
X141900000Y-85000000D02*
X141900000Y-82640000D01*
X141900000Y-82640000D02*
X137500000Y-82640000D01*
X137500000Y-81825000D02*
X141900000Y-81825000D01*
X137500000Y-79465000D02*
X137500000Y-81825000D01*
X141900000Y-81825000D02*
X141900000Y-79465000D01*
X141900000Y-79465000D02*
X137500000Y-79465000D01*
D11*
X129539000Y-127000000D03*
X140971000Y-127000000D03*
%LPC*%
D12*
X132080000Y-64135000D03*
D13*
X134620000Y-64135000D03*
X137160000Y-64135000D03*
X139700000Y-64135000D03*
D14*
X118745000Y-106045000D03*
X118745000Y-65405000D03*
D15*
X135255000Y-96520000D03*
X135255000Y-93980000D03*
X135255000Y-109855000D03*
X135255000Y-107315000D03*
X128270000Y-114935000D03*
X128270000Y-112395000D03*
X132080000Y-114935000D03*
X132080000Y-112395000D03*
X138430000Y-114935000D03*
X138430000Y-112395000D03*
X142240000Y-114935000D03*
X142240000Y-112395000D03*
D12*
X132080000Y-69215000D03*
D13*
X134620000Y-69215000D03*
X137160000Y-69215000D03*
X139700000Y-69215000D03*
D12*
X118110000Y-122555000D03*
D13*
X120650000Y-122555000D03*
X123190000Y-122555000D03*
D12*
X118110000Y-117475000D03*
D13*
X120650000Y-117475000D03*
X123190000Y-117475000D03*
D16*
X118110000Y-131318000D03*
D17*
X123190000Y-131318000D03*
D18*
X129539000Y-127000000D03*
X140971000Y-127000000D03*
D19*
X130811000Y-120650000D03*
X132081000Y-118110000D03*
X133351000Y-120650000D03*
X134621000Y-118110000D03*
X135891000Y-120650000D03*
X137161000Y-118110000D03*
X138431000Y-120650000D03*
X139701000Y-118110000D03*
D20*
X138430000Y-83820000D03*
X140970000Y-83820000D03*
X138430000Y-80645000D03*
X140970000Y-80645000D03*
D21*
X140970000Y-82296000D03*
X138430000Y-82296000D03*
X131445000Y-85725000D03*
X133350000Y-86360000D03*
X135255000Y-97790000D03*
X137160000Y-92710000D03*
X132080000Y-89535000D03*
X131445000Y-107315000D03*
X132715000Y-109855000D03*
X135255000Y-113030000D03*
X135255000Y-111125000D03*
X135255000Y-104140000D03*
X141605000Y-101600000D03*
X132080000Y-79375000D03*
%LPD*%
M02*
