G04 #@! TF.GenerationSoftware,KiCad,Pcbnew,7.0.9*
G04 #@! TF.CreationDate,2023-12-23T18:19:17+01:00*
G04 #@! TF.ProjectId,testing-board,74657374-696e-4672-9d62-6f6172642e6b,v1.0*
G04 #@! TF.SameCoordinates,Original*
G04 #@! TF.FileFunction,Soldermask,Top*
G04 #@! TF.FilePolarity,Negative*
%FSLAX46Y46*%
G04 Gerber Fmt 4.6, Leading zero omitted, Abs format (unit mm)*
G04 Created by KiCad (PCBNEW 7.0.9) date 2023-12-23 18:19:17*
%MOMM*%
%LPD*%
G01*
G04 APERTURE LIST*
G04 Aperture macros list*
%AMRoundRect*
0 Rectangle with rounded corners*
0 $1 Rounding radius*
0 $2 $3 $4 $5 $6 $7 $8 $9 X,Y pos of 4 corners*
0 Add a 4 corners polygon primitive as box body*
4,1,4,$2,$3,$4,$5,$6,$7,$8,$9,$2,$3,0*
0 Add four circle primitives for the rounded corners*
1,1,$1+$1,$2,$3*
1,1,$1+$1,$4,$5*
1,1,$1+$1,$6,$7*
1,1,$1+$1,$8,$9*
0 Add four rect primitives between the rounded corners*
20,1,$1+$1,$2,$3,$4,$5,0*
20,1,$1+$1,$4,$5,$6,$7,0*
20,1,$1+$1,$6,$7,$8,$9,0*
20,1,$1+$1,$8,$9,$2,$3,0*%
%AMFreePoly0*
4,1,13,0.685355,0.935355,0.700000,0.900000,0.700000,-0.900000,0.685355,-0.935355,0.650000,-0.950000,-0.650000,-0.950000,-0.685355,-0.935355,-0.700000,-0.900000,-0.700000,0.900000,-0.685355,0.935355,-0.650000,0.950000,0.650000,0.950000,0.685355,0.935355,0.685355,0.935355,$1*%
G04 Aperture macros list end*
%ADD10RoundRect,0.050000X1.050000X-1.050000X1.050000X1.050000X-1.050000X1.050000X-1.050000X-1.050000X0*%
%ADD11O,2.200000X2.200000*%
%ADD12C,5.100000*%
%ADD13RoundRect,0.050000X-0.175000X0.750000X-0.175000X-0.750000X0.175000X-0.750000X0.175000X0.750000X0*%
%ADD14FreePoly0,270.000000*%
%ADD15FreePoly0,90.000000*%
%ADD16RoundRect,0.050000X0.625000X1.500000X-0.625000X1.500000X-0.625000X-1.500000X0.625000X-1.500000X0*%
%ADD17RoundRect,0.050000X-0.625000X-1.500000X0.625000X-1.500000X0.625000X1.500000X-0.625000X1.500000X0*%
%ADD18RoundRect,0.050000X1.750000X1.750000X-1.750000X1.750000X-1.750000X-1.750000X1.750000X-1.750000X0*%
%ADD19C,3.600000*%
%ADD20C,3.400000*%
%ADD21C,1.600000*%
%ADD22FreePoly0,0.000000*%
%ADD23C,0.900000*%
G04 APERTURE END LIST*
D10*
X132080000Y-64135000D03*
D11*
X134620000Y-64135000D03*
X137160000Y-64135000D03*
X139700000Y-64135000D03*
D12*
X118745000Y-106045000D03*
X118745000Y-65405000D03*
D13*
X136255000Y-79375000D03*
X135755000Y-79375000D03*
X135255000Y-79375000D03*
X134755000Y-79375000D03*
X134255000Y-79375000D03*
X134255000Y-84455000D03*
X134755000Y-84455000D03*
X135255000Y-84455000D03*
X135755000Y-84455000D03*
X136255000Y-84455000D03*
D14*
X142875000Y-97155000D03*
X142875000Y-99695000D03*
X142875000Y-90170000D03*
X142875000Y-92710000D03*
X127635000Y-97155000D03*
X127635000Y-99695000D03*
X127635000Y-90170000D03*
X127635000Y-92710000D03*
X142875000Y-111125000D03*
X142875000Y-113665000D03*
X142875000Y-104140000D03*
X142875000Y-106680000D03*
X127635000Y-111125000D03*
X127635000Y-113665000D03*
X127635000Y-104140000D03*
X127635000Y-106680000D03*
D15*
X143510000Y-76200000D03*
X143510000Y-73660000D03*
X128270000Y-76200000D03*
X128270000Y-73660000D03*
D16*
X137160000Y-90065000D03*
X139700000Y-92815000D03*
D17*
X133350000Y-92815000D03*
X130810000Y-90065000D03*
D16*
X137160000Y-97050000D03*
X139700000Y-99800000D03*
D17*
X133350000Y-99800000D03*
X130810000Y-97050000D03*
D16*
X137160000Y-104035000D03*
X139700000Y-106785000D03*
D17*
X133350000Y-106785000D03*
X130810000Y-104035000D03*
D16*
X137160000Y-111020000D03*
X139700000Y-113770000D03*
D17*
X133350000Y-113875000D03*
X130810000Y-111125000D03*
D16*
X137795000Y-73555000D03*
X140335000Y-76305000D03*
D17*
X133985000Y-76305000D03*
X131445000Y-73555000D03*
D10*
X132080000Y-69215000D03*
D11*
X134620000Y-69215000D03*
X137160000Y-69215000D03*
X139700000Y-69215000D03*
D10*
X118110000Y-122555000D03*
D11*
X120650000Y-122555000D03*
X123190000Y-122555000D03*
D10*
X118110000Y-117475000D03*
D11*
X120650000Y-117475000D03*
X123190000Y-117475000D03*
D18*
X118110000Y-131318000D03*
D19*
X123190000Y-131318000D03*
D20*
X129539000Y-127000000D03*
X140971000Y-127000000D03*
D21*
X130811000Y-120650000D03*
X132081000Y-118110000D03*
X133351000Y-120650000D03*
X134621000Y-118110000D03*
X135891000Y-120650000D03*
X137161000Y-118110000D03*
X138431000Y-120650000D03*
X139701000Y-118110000D03*
D22*
X138430000Y-83820000D03*
X140970000Y-83820000D03*
X138430000Y-80645000D03*
X140970000Y-80645000D03*
D23*
X140970000Y-82296000D03*
X138430000Y-82296000D03*
X131445000Y-85725000D03*
X133350000Y-86360000D03*
X135255000Y-97790000D03*
X137160000Y-92710000D03*
X132080000Y-89535000D03*
X131445000Y-107315000D03*
X132715000Y-109855000D03*
X135255000Y-113030000D03*
X135255000Y-111125000D03*
X135255000Y-104140000D03*
X141605000Y-101600000D03*
X132080000Y-79375000D03*
M02*
