%TF.GenerationSoftware,KiCad,Pcbnew,7.0.9*%
%TF.CreationDate,2023-12-23T18:19:24+01:00*%
%TF.ProjectId,testing-board,74657374-696e-4672-9d62-6f6172642e6b,v1.0*%
%TF.SameCoordinates,Original*%
%TF.FileFunction,Drillmap*%
%TF.FilePolarity,Positive*%
%FSLAX45Y45*%
G04 Gerber Fmt 4.5, Leading zero omitted, Abs format (unit mm)*
G04 Created by KiCad (PCBNEW 7.0.9) date 2023-12-23 18:19:24*
%MOMM*%
%LPD*%
G01*
G04 APERTURE LIST*
%ADD10C,0.050000*%
%ADD11C,0.200000*%
%ADD12C,0.100000*%
%ADD13C,0.120000*%
%ADD14C,0.300000*%
G04 APERTURE END LIST*
D10*
X14554200Y-6400800D02*
G75*
G03*
X14554200Y-6680200I-73800J-139700D01*
G01*
X14605000Y-6400800D02*
X14554200Y-6400800D01*
X14605000Y-6680200D02*
X14554200Y-6680200D01*
X14605000Y-6159500D02*
X14605000Y-6400800D01*
X14605000Y-12550000D02*
G75*
G03*
X14605000Y-12850000I0J-150000D01*
G01*
X11493500Y-6159500D02*
X12382500Y-6159500D01*
X11493500Y-6350000D02*
X11493500Y-6159500D01*
X11493500Y-9842500D02*
X11493500Y-6350000D01*
X11493500Y-13462000D02*
X11493500Y-9842500D01*
X14605000Y-6159500D02*
X12382500Y-6159500D01*
X14605000Y-12550000D02*
X14605000Y-6680200D01*
X14605000Y-13462000D02*
X14605000Y-12850000D01*
X11493500Y-13462000D02*
X14605000Y-13462000D01*
D11*
D12*
X13124500Y-8552500D02*
X13164500Y-8592500D01*
X13164500Y-8552500D02*
X13124500Y-8592500D01*
X13124500Y-10711500D02*
X13164500Y-10751500D01*
X13164500Y-10711500D02*
X13124500Y-10751500D01*
X13188000Y-7917500D02*
X13228000Y-7957500D01*
X13228000Y-7917500D02*
X13188000Y-7957500D01*
X13188000Y-8933500D02*
X13228000Y-8973500D01*
X13228000Y-8933500D02*
X13188000Y-8973500D01*
X13251500Y-10965500D02*
X13291500Y-11005500D01*
X13291500Y-10965500D02*
X13251500Y-11005500D01*
X13315000Y-8616000D02*
X13355000Y-8656000D01*
X13355000Y-8616000D02*
X13315000Y-8656000D01*
X13505500Y-9759000D02*
X13545500Y-9799000D01*
X13545500Y-9759000D02*
X13505500Y-9799000D01*
X13505500Y-10394000D02*
X13545500Y-10434000D01*
X13545500Y-10394000D02*
X13505500Y-10434000D01*
X13505500Y-11092500D02*
X13545500Y-11132500D01*
X13545500Y-11092500D02*
X13505500Y-11132500D01*
X13505500Y-11283000D02*
X13545500Y-11323000D01*
X13545500Y-11283000D02*
X13505500Y-11323000D01*
X13696000Y-9251000D02*
X13736000Y-9291000D01*
X13736000Y-9251000D02*
X13696000Y-9291000D01*
X13823000Y-8209600D02*
X13863000Y-8249600D01*
X13863000Y-8209600D02*
X13823000Y-8249600D01*
X14077000Y-8209600D02*
X14117000Y-8249600D01*
X14117000Y-8209600D02*
X14077000Y-8249600D01*
X14140500Y-10140000D02*
X14180500Y-10180000D01*
X14180500Y-10140000D02*
X14140500Y-10180000D01*
X13121100Y-12065000D02*
G75*
G03*
X13121100Y-12065000I-40000J0D01*
G01*
X13248100Y-11811000D02*
G75*
G03*
X13248100Y-11811000I-40000J0D01*
G01*
X13375100Y-12065000D02*
G75*
G03*
X13375100Y-12065000I-40000J0D01*
G01*
X13502100Y-11811000D02*
G75*
G03*
X13502100Y-11811000I-40000J0D01*
G01*
X13629100Y-12065000D02*
G75*
G03*
X13629100Y-12065000I-40000J0D01*
G01*
X13756100Y-11811000D02*
G75*
G03*
X13756100Y-11811000I-40000J0D01*
G01*
X13883100Y-12065000D02*
G75*
G03*
X13883100Y-12065000I-40000J0D01*
G01*
X14010100Y-11811000D02*
G75*
G03*
X14010100Y-11811000I-40000J0D01*
G01*
X11811000Y-11697500D02*
X11811000Y-11797500D01*
X11761000Y-11747500D02*
X11861000Y-11747500D01*
X11811000Y-12205500D02*
X11811000Y-12305500D01*
X11761000Y-12255500D02*
X11861000Y-12255500D01*
X12065000Y-11697500D02*
X12065000Y-11797500D01*
X12015000Y-11747500D02*
X12115000Y-11747500D01*
X12065000Y-12205500D02*
X12065000Y-12305500D01*
X12015000Y-12255500D02*
X12115000Y-12255500D01*
X12319000Y-11697500D02*
X12319000Y-11797500D01*
X12269000Y-11747500D02*
X12369000Y-11747500D01*
X12319000Y-12205500D02*
X12319000Y-12305500D01*
X12269000Y-12255500D02*
X12369000Y-12255500D01*
X13208000Y-6363500D02*
X13208000Y-6463500D01*
X13158000Y-6413500D02*
X13258000Y-6413500D01*
X13208000Y-6871500D02*
X13208000Y-6971500D01*
X13158000Y-6921500D02*
X13258000Y-6921500D01*
X13462000Y-6363500D02*
X13462000Y-6463500D01*
X13412000Y-6413500D02*
X13512000Y-6413500D01*
X13462000Y-6871500D02*
X13462000Y-6971500D01*
X13412000Y-6921500D02*
X13512000Y-6921500D01*
X13716000Y-6363500D02*
X13716000Y-6463500D01*
X13666000Y-6413500D02*
X13766000Y-6413500D01*
X13716000Y-6871500D02*
X13716000Y-6971500D01*
X13666000Y-6921500D02*
X13766000Y-6921500D01*
X13970000Y-6363500D02*
X13970000Y-6463500D01*
X13920000Y-6413500D02*
X14020000Y-6413500D01*
X13970000Y-6871500D02*
X13970000Y-6971500D01*
X13920000Y-6921500D02*
X14020000Y-6921500D01*
D13*
X11853427Y-13174227D02*
X11853427Y-13089373D01*
X11768573Y-13089373D01*
X11768573Y-13174227D01*
X11853427Y-13174227D01*
X12361427Y-13174227D02*
X12361427Y-13089373D01*
X12276573Y-13089373D01*
X12276573Y-13174227D01*
X12361427Y-13174227D01*
D14*
X11874500Y-6690500D02*
X12024500Y-6540500D01*
X11874500Y-6390500D01*
X11724500Y-6540500D01*
X11874500Y-6690500D01*
X11874500Y-10754500D02*
X12024500Y-10604500D01*
X11874500Y-10454500D01*
X11724500Y-10604500D01*
X11874500Y-10754500D01*
D11*
X11751777Y-13775984D02*
X11751777Y-13575984D01*
X11751777Y-13575984D02*
X11799396Y-13575984D01*
X11799396Y-13575984D02*
X11827967Y-13585508D01*
X11827967Y-13585508D02*
X11847015Y-13604555D01*
X11847015Y-13604555D02*
X11856539Y-13623603D01*
X11856539Y-13623603D02*
X11866062Y-13661698D01*
X11866062Y-13661698D02*
X11866062Y-13690269D01*
X11866062Y-13690269D02*
X11856539Y-13728365D01*
X11856539Y-13728365D02*
X11847015Y-13747412D01*
X11847015Y-13747412D02*
X11827967Y-13766460D01*
X11827967Y-13766460D02*
X11799396Y-13775984D01*
X11799396Y-13775984D02*
X11751777Y-13775984D01*
X11951777Y-13775984D02*
X11951777Y-13642650D01*
X11951777Y-13680746D02*
X11961301Y-13661698D01*
X11961301Y-13661698D02*
X11970824Y-13652174D01*
X11970824Y-13652174D02*
X11989872Y-13642650D01*
X11989872Y-13642650D02*
X12008920Y-13642650D01*
X12075586Y-13775984D02*
X12075586Y-13642650D01*
X12075586Y-13575984D02*
X12066062Y-13585508D01*
X12066062Y-13585508D02*
X12075586Y-13595031D01*
X12075586Y-13595031D02*
X12085110Y-13585508D01*
X12085110Y-13585508D02*
X12075586Y-13575984D01*
X12075586Y-13575984D02*
X12075586Y-13595031D01*
X12199396Y-13775984D02*
X12180348Y-13766460D01*
X12180348Y-13766460D02*
X12170824Y-13747412D01*
X12170824Y-13747412D02*
X12170824Y-13575984D01*
X12304158Y-13775984D02*
X12285110Y-13766460D01*
X12285110Y-13766460D02*
X12275586Y-13747412D01*
X12275586Y-13747412D02*
X12275586Y-13575984D01*
X12532729Y-13775984D02*
X12532729Y-13575984D01*
X12532729Y-13575984D02*
X12599396Y-13718841D01*
X12599396Y-13718841D02*
X12666062Y-13575984D01*
X12666062Y-13575984D02*
X12666062Y-13775984D01*
X12847015Y-13775984D02*
X12847015Y-13671222D01*
X12847015Y-13671222D02*
X12837491Y-13652174D01*
X12837491Y-13652174D02*
X12818443Y-13642650D01*
X12818443Y-13642650D02*
X12780348Y-13642650D01*
X12780348Y-13642650D02*
X12761301Y-13652174D01*
X12847015Y-13766460D02*
X12827967Y-13775984D01*
X12827967Y-13775984D02*
X12780348Y-13775984D01*
X12780348Y-13775984D02*
X12761301Y-13766460D01*
X12761301Y-13766460D02*
X12751777Y-13747412D01*
X12751777Y-13747412D02*
X12751777Y-13728365D01*
X12751777Y-13728365D02*
X12761301Y-13709317D01*
X12761301Y-13709317D02*
X12780348Y-13699793D01*
X12780348Y-13699793D02*
X12827967Y-13699793D01*
X12827967Y-13699793D02*
X12847015Y-13690269D01*
X12942253Y-13642650D02*
X12942253Y-13842650D01*
X12942253Y-13652174D02*
X12961301Y-13642650D01*
X12961301Y-13642650D02*
X12999396Y-13642650D01*
X12999396Y-13642650D02*
X13018443Y-13652174D01*
X13018443Y-13652174D02*
X13027967Y-13661698D01*
X13027967Y-13661698D02*
X13037491Y-13680746D01*
X13037491Y-13680746D02*
X13037491Y-13737888D01*
X13037491Y-13737888D02*
X13027967Y-13756936D01*
X13027967Y-13756936D02*
X13018443Y-13766460D01*
X13018443Y-13766460D02*
X12999396Y-13775984D01*
X12999396Y-13775984D02*
X12961301Y-13775984D01*
X12961301Y-13775984D02*
X12942253Y-13766460D01*
X13123205Y-13756936D02*
X13132729Y-13766460D01*
X13132729Y-13766460D02*
X13123205Y-13775984D01*
X13123205Y-13775984D02*
X13113682Y-13766460D01*
X13113682Y-13766460D02*
X13123205Y-13756936D01*
X13123205Y-13756936D02*
X13123205Y-13775984D01*
X13123205Y-13652174D02*
X13132729Y-13661698D01*
X13132729Y-13661698D02*
X13123205Y-13671222D01*
X13123205Y-13671222D02*
X13113682Y-13661698D01*
X13113682Y-13661698D02*
X13123205Y-13652174D01*
X13123205Y-13652174D02*
X13123205Y-13671222D01*
D12*
X11451000Y-14084500D02*
X11491000Y-14124500D01*
X11491000Y-14084500D02*
X11451000Y-14124500D01*
D11*
X11789872Y-13995984D02*
X11808920Y-13995984D01*
X11808920Y-13995984D02*
X11827967Y-14005508D01*
X11827967Y-14005508D02*
X11837491Y-14015031D01*
X11837491Y-14015031D02*
X11847015Y-14034079D01*
X11847015Y-14034079D02*
X11856539Y-14072174D01*
X11856539Y-14072174D02*
X11856539Y-14119793D01*
X11856539Y-14119793D02*
X11847015Y-14157888D01*
X11847015Y-14157888D02*
X11837491Y-14176936D01*
X11837491Y-14176936D02*
X11827967Y-14186460D01*
X11827967Y-14186460D02*
X11808920Y-14195984D01*
X11808920Y-14195984D02*
X11789872Y-14195984D01*
X11789872Y-14195984D02*
X11770824Y-14186460D01*
X11770824Y-14186460D02*
X11761301Y-14176936D01*
X11761301Y-14176936D02*
X11751777Y-14157888D01*
X11751777Y-14157888D02*
X11742253Y-14119793D01*
X11742253Y-14119793D02*
X11742253Y-14072174D01*
X11742253Y-14072174D02*
X11751777Y-14034079D01*
X11751777Y-14034079D02*
X11761301Y-14015031D01*
X11761301Y-14015031D02*
X11770824Y-14005508D01*
X11770824Y-14005508D02*
X11789872Y-13995984D01*
X11942253Y-14176936D02*
X11951777Y-14186460D01*
X11951777Y-14186460D02*
X11942253Y-14195984D01*
X11942253Y-14195984D02*
X11932729Y-14186460D01*
X11932729Y-14186460D02*
X11942253Y-14176936D01*
X11942253Y-14176936D02*
X11942253Y-14195984D01*
X12123205Y-14062650D02*
X12123205Y-14195984D01*
X12075586Y-13986460D02*
X12027967Y-14129317D01*
X12027967Y-14129317D02*
X12151777Y-14129317D01*
X12266062Y-13995984D02*
X12285110Y-13995984D01*
X12285110Y-13995984D02*
X12304158Y-14005508D01*
X12304158Y-14005508D02*
X12313682Y-14015031D01*
X12313682Y-14015031D02*
X12323205Y-14034079D01*
X12323205Y-14034079D02*
X12332729Y-14072174D01*
X12332729Y-14072174D02*
X12332729Y-14119793D01*
X12332729Y-14119793D02*
X12323205Y-14157888D01*
X12323205Y-14157888D02*
X12313682Y-14176936D01*
X12313682Y-14176936D02*
X12304158Y-14186460D01*
X12304158Y-14186460D02*
X12285110Y-14195984D01*
X12285110Y-14195984D02*
X12266062Y-14195984D01*
X12266062Y-14195984D02*
X12247015Y-14186460D01*
X12247015Y-14186460D02*
X12237491Y-14176936D01*
X12237491Y-14176936D02*
X12227967Y-14157888D01*
X12227967Y-14157888D02*
X12218443Y-14119793D01*
X12218443Y-14119793D02*
X12218443Y-14072174D01*
X12218443Y-14072174D02*
X12227967Y-14034079D01*
X12227967Y-14034079D02*
X12237491Y-14015031D01*
X12237491Y-14015031D02*
X12247015Y-14005508D01*
X12247015Y-14005508D02*
X12266062Y-13995984D01*
X12456539Y-13995984D02*
X12475586Y-13995984D01*
X12475586Y-13995984D02*
X12494634Y-14005508D01*
X12494634Y-14005508D02*
X12504158Y-14015031D01*
X12504158Y-14015031D02*
X12513682Y-14034079D01*
X12513682Y-14034079D02*
X12523205Y-14072174D01*
X12523205Y-14072174D02*
X12523205Y-14119793D01*
X12523205Y-14119793D02*
X12513682Y-14157888D01*
X12513682Y-14157888D02*
X12504158Y-14176936D01*
X12504158Y-14176936D02*
X12494634Y-14186460D01*
X12494634Y-14186460D02*
X12475586Y-14195984D01*
X12475586Y-14195984D02*
X12456539Y-14195984D01*
X12456539Y-14195984D02*
X12437491Y-14186460D01*
X12437491Y-14186460D02*
X12427967Y-14176936D01*
X12427967Y-14176936D02*
X12418443Y-14157888D01*
X12418443Y-14157888D02*
X12408920Y-14119793D01*
X12408920Y-14119793D02*
X12408920Y-14072174D01*
X12408920Y-14072174D02*
X12418443Y-14034079D01*
X12418443Y-14034079D02*
X12427967Y-14015031D01*
X12427967Y-14015031D02*
X12437491Y-14005508D01*
X12437491Y-14005508D02*
X12456539Y-13995984D01*
X12608920Y-14195984D02*
X12608920Y-14062650D01*
X12608920Y-14081698D02*
X12618443Y-14072174D01*
X12618443Y-14072174D02*
X12637491Y-14062650D01*
X12637491Y-14062650D02*
X12666063Y-14062650D01*
X12666063Y-14062650D02*
X12685110Y-14072174D01*
X12685110Y-14072174D02*
X12694634Y-14091222D01*
X12694634Y-14091222D02*
X12694634Y-14195984D01*
X12694634Y-14091222D02*
X12704158Y-14072174D01*
X12704158Y-14072174D02*
X12723205Y-14062650D01*
X12723205Y-14062650D02*
X12751777Y-14062650D01*
X12751777Y-14062650D02*
X12770824Y-14072174D01*
X12770824Y-14072174D02*
X12780348Y-14091222D01*
X12780348Y-14091222D02*
X12780348Y-14195984D01*
X12875586Y-14195984D02*
X12875586Y-14062650D01*
X12875586Y-14081698D02*
X12885110Y-14072174D01*
X12885110Y-14072174D02*
X12904158Y-14062650D01*
X12904158Y-14062650D02*
X12932729Y-14062650D01*
X12932729Y-14062650D02*
X12951777Y-14072174D01*
X12951777Y-14072174D02*
X12961301Y-14091222D01*
X12961301Y-14091222D02*
X12961301Y-14195984D01*
X12961301Y-14091222D02*
X12970824Y-14072174D01*
X12970824Y-14072174D02*
X12989872Y-14062650D01*
X12989872Y-14062650D02*
X13018443Y-14062650D01*
X13018443Y-14062650D02*
X13037491Y-14072174D01*
X13037491Y-14072174D02*
X13047015Y-14091222D01*
X13047015Y-14091222D02*
X13047015Y-14195984D01*
X13437491Y-13986460D02*
X13266063Y-14243603D01*
X13694634Y-13995984D02*
X13713682Y-13995984D01*
X13713682Y-13995984D02*
X13732729Y-14005508D01*
X13732729Y-14005508D02*
X13742253Y-14015031D01*
X13742253Y-14015031D02*
X13751777Y-14034079D01*
X13751777Y-14034079D02*
X13761301Y-14072174D01*
X13761301Y-14072174D02*
X13761301Y-14119793D01*
X13761301Y-14119793D02*
X13751777Y-14157888D01*
X13751777Y-14157888D02*
X13742253Y-14176936D01*
X13742253Y-14176936D02*
X13732729Y-14186460D01*
X13732729Y-14186460D02*
X13713682Y-14195984D01*
X13713682Y-14195984D02*
X13694634Y-14195984D01*
X13694634Y-14195984D02*
X13675586Y-14186460D01*
X13675586Y-14186460D02*
X13666063Y-14176936D01*
X13666063Y-14176936D02*
X13656539Y-14157888D01*
X13656539Y-14157888D02*
X13647015Y-14119793D01*
X13647015Y-14119793D02*
X13647015Y-14072174D01*
X13647015Y-14072174D02*
X13656539Y-14034079D01*
X13656539Y-14034079D02*
X13666063Y-14015031D01*
X13666063Y-14015031D02*
X13675586Y-14005508D01*
X13675586Y-14005508D02*
X13694634Y-13995984D01*
X13847015Y-14176936D02*
X13856539Y-14186460D01*
X13856539Y-14186460D02*
X13847015Y-14195984D01*
X13847015Y-14195984D02*
X13837491Y-14186460D01*
X13837491Y-14186460D02*
X13847015Y-14176936D01*
X13847015Y-14176936D02*
X13847015Y-14195984D01*
X13980348Y-13995984D02*
X13999396Y-13995984D01*
X13999396Y-13995984D02*
X14018444Y-14005508D01*
X14018444Y-14005508D02*
X14027967Y-14015031D01*
X14027967Y-14015031D02*
X14037491Y-14034079D01*
X14037491Y-14034079D02*
X14047015Y-14072174D01*
X14047015Y-14072174D02*
X14047015Y-14119793D01*
X14047015Y-14119793D02*
X14037491Y-14157888D01*
X14037491Y-14157888D02*
X14027967Y-14176936D01*
X14027967Y-14176936D02*
X14018444Y-14186460D01*
X14018444Y-14186460D02*
X13999396Y-14195984D01*
X13999396Y-14195984D02*
X13980348Y-14195984D01*
X13980348Y-14195984D02*
X13961301Y-14186460D01*
X13961301Y-14186460D02*
X13951777Y-14176936D01*
X13951777Y-14176936D02*
X13942253Y-14157888D01*
X13942253Y-14157888D02*
X13932729Y-14119793D01*
X13932729Y-14119793D02*
X13932729Y-14072174D01*
X13932729Y-14072174D02*
X13942253Y-14034079D01*
X13942253Y-14034079D02*
X13951777Y-14015031D01*
X13951777Y-14015031D02*
X13961301Y-14005508D01*
X13961301Y-14005508D02*
X13980348Y-13995984D01*
X14237491Y-14195984D02*
X14123206Y-14195984D01*
X14180348Y-14195984D02*
X14180348Y-13995984D01*
X14180348Y-13995984D02*
X14161301Y-14024555D01*
X14161301Y-14024555D02*
X14142253Y-14043603D01*
X14142253Y-14043603D02*
X14123206Y-14053127D01*
X14418444Y-13995984D02*
X14323206Y-13995984D01*
X14323206Y-13995984D02*
X14313682Y-14091222D01*
X14313682Y-14091222D02*
X14323206Y-14081698D01*
X14323206Y-14081698D02*
X14342253Y-14072174D01*
X14342253Y-14072174D02*
X14389872Y-14072174D01*
X14389872Y-14072174D02*
X14408920Y-14081698D01*
X14408920Y-14081698D02*
X14418444Y-14091222D01*
X14418444Y-14091222D02*
X14427967Y-14110269D01*
X14427967Y-14110269D02*
X14427967Y-14157888D01*
X14427967Y-14157888D02*
X14418444Y-14176936D01*
X14418444Y-14176936D02*
X14408920Y-14186460D01*
X14408920Y-14186460D02*
X14389872Y-14195984D01*
X14389872Y-14195984D02*
X14342253Y-14195984D01*
X14342253Y-14195984D02*
X14323206Y-14186460D01*
X14323206Y-14186460D02*
X14313682Y-14176936D01*
X14494634Y-13995984D02*
X14627967Y-13995984D01*
X14627967Y-13995984D02*
X14542253Y-14195984D01*
X14694634Y-13995984D02*
X14694634Y-14034079D01*
X14770825Y-13995984D02*
X14770825Y-14034079D01*
X15066063Y-14272174D02*
X15056539Y-14262650D01*
X15056539Y-14262650D02*
X15037491Y-14234079D01*
X15037491Y-14234079D02*
X15027968Y-14215031D01*
X15027968Y-14215031D02*
X15018444Y-14186460D01*
X15018444Y-14186460D02*
X15008920Y-14138841D01*
X15008920Y-14138841D02*
X15008920Y-14100746D01*
X15008920Y-14100746D02*
X15018444Y-14053127D01*
X15018444Y-14053127D02*
X15027968Y-14024555D01*
X15027968Y-14024555D02*
X15037491Y-14005508D01*
X15037491Y-14005508D02*
X15056539Y-13976936D01*
X15056539Y-13976936D02*
X15066063Y-13967412D01*
X15247015Y-14195984D02*
X15132729Y-14195984D01*
X15189872Y-14195984D02*
X15189872Y-13995984D01*
X15189872Y-13995984D02*
X15170825Y-14024555D01*
X15170825Y-14024555D02*
X15151777Y-14043603D01*
X15151777Y-14043603D02*
X15132729Y-14053127D01*
X15418444Y-14062650D02*
X15418444Y-14195984D01*
X15370825Y-13986460D02*
X15323206Y-14129317D01*
X15323206Y-14129317D02*
X15447015Y-14129317D01*
X15675587Y-14195984D02*
X15675587Y-13995984D01*
X15761301Y-14195984D02*
X15761301Y-14091222D01*
X15761301Y-14091222D02*
X15751777Y-14072174D01*
X15751777Y-14072174D02*
X15732730Y-14062650D01*
X15732730Y-14062650D02*
X15704158Y-14062650D01*
X15704158Y-14062650D02*
X15685110Y-14072174D01*
X15685110Y-14072174D02*
X15675587Y-14081698D01*
X15885110Y-14195984D02*
X15866063Y-14186460D01*
X15866063Y-14186460D02*
X15856539Y-14176936D01*
X15856539Y-14176936D02*
X15847015Y-14157888D01*
X15847015Y-14157888D02*
X15847015Y-14100746D01*
X15847015Y-14100746D02*
X15856539Y-14081698D01*
X15856539Y-14081698D02*
X15866063Y-14072174D01*
X15866063Y-14072174D02*
X15885110Y-14062650D01*
X15885110Y-14062650D02*
X15913682Y-14062650D01*
X15913682Y-14062650D02*
X15932730Y-14072174D01*
X15932730Y-14072174D02*
X15942253Y-14081698D01*
X15942253Y-14081698D02*
X15951777Y-14100746D01*
X15951777Y-14100746D02*
X15951777Y-14157888D01*
X15951777Y-14157888D02*
X15942253Y-14176936D01*
X15942253Y-14176936D02*
X15932730Y-14186460D01*
X15932730Y-14186460D02*
X15913682Y-14195984D01*
X15913682Y-14195984D02*
X15885110Y-14195984D01*
X16066063Y-14195984D02*
X16047015Y-14186460D01*
X16047015Y-14186460D02*
X16037491Y-14167412D01*
X16037491Y-14167412D02*
X16037491Y-13995984D01*
X16218444Y-14186460D02*
X16199396Y-14195984D01*
X16199396Y-14195984D02*
X16161301Y-14195984D01*
X16161301Y-14195984D02*
X16142253Y-14186460D01*
X16142253Y-14186460D02*
X16132730Y-14167412D01*
X16132730Y-14167412D02*
X16132730Y-14091222D01*
X16132730Y-14091222D02*
X16142253Y-14072174D01*
X16142253Y-14072174D02*
X16161301Y-14062650D01*
X16161301Y-14062650D02*
X16199396Y-14062650D01*
X16199396Y-14062650D02*
X16218444Y-14072174D01*
X16218444Y-14072174D02*
X16227968Y-14091222D01*
X16227968Y-14091222D02*
X16227968Y-14110269D01*
X16227968Y-14110269D02*
X16132730Y-14129317D01*
X16304158Y-14186460D02*
X16323206Y-14195984D01*
X16323206Y-14195984D02*
X16361301Y-14195984D01*
X16361301Y-14195984D02*
X16380349Y-14186460D01*
X16380349Y-14186460D02*
X16389872Y-14167412D01*
X16389872Y-14167412D02*
X16389872Y-14157888D01*
X16389872Y-14157888D02*
X16380349Y-14138841D01*
X16380349Y-14138841D02*
X16361301Y-14129317D01*
X16361301Y-14129317D02*
X16332730Y-14129317D01*
X16332730Y-14129317D02*
X16313682Y-14119793D01*
X16313682Y-14119793D02*
X16304158Y-14100746D01*
X16304158Y-14100746D02*
X16304158Y-14091222D01*
X16304158Y-14091222D02*
X16313682Y-14072174D01*
X16313682Y-14072174D02*
X16332730Y-14062650D01*
X16332730Y-14062650D02*
X16361301Y-14062650D01*
X16361301Y-14062650D02*
X16380349Y-14072174D01*
X16456539Y-14272174D02*
X16466063Y-14262650D01*
X16466063Y-14262650D02*
X16485111Y-14234079D01*
X16485111Y-14234079D02*
X16494634Y-14215031D01*
X16494634Y-14215031D02*
X16504158Y-14186460D01*
X16504158Y-14186460D02*
X16513682Y-14138841D01*
X16513682Y-14138841D02*
X16513682Y-14100746D01*
X16513682Y-14100746D02*
X16504158Y-14053127D01*
X16504158Y-14053127D02*
X16494634Y-14024555D01*
X16494634Y-14024555D02*
X16485111Y-14005508D01*
X16485111Y-14005508D02*
X16466063Y-13976936D01*
X16466063Y-13976936D02*
X16456539Y-13967412D01*
D12*
X11491000Y-14368500D02*
G75*
G03*
X11491000Y-14368500I-40000J0D01*
G01*
D11*
X11789872Y-14259984D02*
X11808920Y-14259984D01*
X11808920Y-14259984D02*
X11827967Y-14269508D01*
X11827967Y-14269508D02*
X11837491Y-14279031D01*
X11837491Y-14279031D02*
X11847015Y-14298079D01*
X11847015Y-14298079D02*
X11856539Y-14336174D01*
X11856539Y-14336174D02*
X11856539Y-14383793D01*
X11856539Y-14383793D02*
X11847015Y-14421888D01*
X11847015Y-14421888D02*
X11837491Y-14440936D01*
X11837491Y-14440936D02*
X11827967Y-14450460D01*
X11827967Y-14450460D02*
X11808920Y-14459984D01*
X11808920Y-14459984D02*
X11789872Y-14459984D01*
X11789872Y-14459984D02*
X11770824Y-14450460D01*
X11770824Y-14450460D02*
X11761301Y-14440936D01*
X11761301Y-14440936D02*
X11751777Y-14421888D01*
X11751777Y-14421888D02*
X11742253Y-14383793D01*
X11742253Y-14383793D02*
X11742253Y-14336174D01*
X11742253Y-14336174D02*
X11751777Y-14298079D01*
X11751777Y-14298079D02*
X11761301Y-14279031D01*
X11761301Y-14279031D02*
X11770824Y-14269508D01*
X11770824Y-14269508D02*
X11789872Y-14259984D01*
X11942253Y-14440936D02*
X11951777Y-14450460D01*
X11951777Y-14450460D02*
X11942253Y-14459984D01*
X11942253Y-14459984D02*
X11932729Y-14450460D01*
X11932729Y-14450460D02*
X11942253Y-14440936D01*
X11942253Y-14440936D02*
X11942253Y-14459984D01*
X12066062Y-14345698D02*
X12047015Y-14336174D01*
X12047015Y-14336174D02*
X12037491Y-14326650D01*
X12037491Y-14326650D02*
X12027967Y-14307603D01*
X12027967Y-14307603D02*
X12027967Y-14298079D01*
X12027967Y-14298079D02*
X12037491Y-14279031D01*
X12037491Y-14279031D02*
X12047015Y-14269508D01*
X12047015Y-14269508D02*
X12066062Y-14259984D01*
X12066062Y-14259984D02*
X12104158Y-14259984D01*
X12104158Y-14259984D02*
X12123205Y-14269508D01*
X12123205Y-14269508D02*
X12132729Y-14279031D01*
X12132729Y-14279031D02*
X12142253Y-14298079D01*
X12142253Y-14298079D02*
X12142253Y-14307603D01*
X12142253Y-14307603D02*
X12132729Y-14326650D01*
X12132729Y-14326650D02*
X12123205Y-14336174D01*
X12123205Y-14336174D02*
X12104158Y-14345698D01*
X12104158Y-14345698D02*
X12066062Y-14345698D01*
X12066062Y-14345698D02*
X12047015Y-14355222D01*
X12047015Y-14355222D02*
X12037491Y-14364746D01*
X12037491Y-14364746D02*
X12027967Y-14383793D01*
X12027967Y-14383793D02*
X12027967Y-14421888D01*
X12027967Y-14421888D02*
X12037491Y-14440936D01*
X12037491Y-14440936D02*
X12047015Y-14450460D01*
X12047015Y-14450460D02*
X12066062Y-14459984D01*
X12066062Y-14459984D02*
X12104158Y-14459984D01*
X12104158Y-14459984D02*
X12123205Y-14450460D01*
X12123205Y-14450460D02*
X12132729Y-14440936D01*
X12132729Y-14440936D02*
X12142253Y-14421888D01*
X12142253Y-14421888D02*
X12142253Y-14383793D01*
X12142253Y-14383793D02*
X12132729Y-14364746D01*
X12132729Y-14364746D02*
X12123205Y-14355222D01*
X12123205Y-14355222D02*
X12104158Y-14345698D01*
X12266062Y-14259984D02*
X12285110Y-14259984D01*
X12285110Y-14259984D02*
X12304158Y-14269508D01*
X12304158Y-14269508D02*
X12313682Y-14279031D01*
X12313682Y-14279031D02*
X12323205Y-14298079D01*
X12323205Y-14298079D02*
X12332729Y-14336174D01*
X12332729Y-14336174D02*
X12332729Y-14383793D01*
X12332729Y-14383793D02*
X12323205Y-14421888D01*
X12323205Y-14421888D02*
X12313682Y-14440936D01*
X12313682Y-14440936D02*
X12304158Y-14450460D01*
X12304158Y-14450460D02*
X12285110Y-14459984D01*
X12285110Y-14459984D02*
X12266062Y-14459984D01*
X12266062Y-14459984D02*
X12247015Y-14450460D01*
X12247015Y-14450460D02*
X12237491Y-14440936D01*
X12237491Y-14440936D02*
X12227967Y-14421888D01*
X12227967Y-14421888D02*
X12218443Y-14383793D01*
X12218443Y-14383793D02*
X12218443Y-14336174D01*
X12218443Y-14336174D02*
X12227967Y-14298079D01*
X12227967Y-14298079D02*
X12237491Y-14279031D01*
X12237491Y-14279031D02*
X12247015Y-14269508D01*
X12247015Y-14269508D02*
X12266062Y-14259984D01*
X12456539Y-14259984D02*
X12475586Y-14259984D01*
X12475586Y-14259984D02*
X12494634Y-14269508D01*
X12494634Y-14269508D02*
X12504158Y-14279031D01*
X12504158Y-14279031D02*
X12513682Y-14298079D01*
X12513682Y-14298079D02*
X12523205Y-14336174D01*
X12523205Y-14336174D02*
X12523205Y-14383793D01*
X12523205Y-14383793D02*
X12513682Y-14421888D01*
X12513682Y-14421888D02*
X12504158Y-14440936D01*
X12504158Y-14440936D02*
X12494634Y-14450460D01*
X12494634Y-14450460D02*
X12475586Y-14459984D01*
X12475586Y-14459984D02*
X12456539Y-14459984D01*
X12456539Y-14459984D02*
X12437491Y-14450460D01*
X12437491Y-14450460D02*
X12427967Y-14440936D01*
X12427967Y-14440936D02*
X12418443Y-14421888D01*
X12418443Y-14421888D02*
X12408920Y-14383793D01*
X12408920Y-14383793D02*
X12408920Y-14336174D01*
X12408920Y-14336174D02*
X12418443Y-14298079D01*
X12418443Y-14298079D02*
X12427967Y-14279031D01*
X12427967Y-14279031D02*
X12437491Y-14269508D01*
X12437491Y-14269508D02*
X12456539Y-14259984D01*
X12608920Y-14459984D02*
X12608920Y-14326650D01*
X12608920Y-14345698D02*
X12618443Y-14336174D01*
X12618443Y-14336174D02*
X12637491Y-14326650D01*
X12637491Y-14326650D02*
X12666063Y-14326650D01*
X12666063Y-14326650D02*
X12685110Y-14336174D01*
X12685110Y-14336174D02*
X12694634Y-14355222D01*
X12694634Y-14355222D02*
X12694634Y-14459984D01*
X12694634Y-14355222D02*
X12704158Y-14336174D01*
X12704158Y-14336174D02*
X12723205Y-14326650D01*
X12723205Y-14326650D02*
X12751777Y-14326650D01*
X12751777Y-14326650D02*
X12770824Y-14336174D01*
X12770824Y-14336174D02*
X12780348Y-14355222D01*
X12780348Y-14355222D02*
X12780348Y-14459984D01*
X12875586Y-14459984D02*
X12875586Y-14326650D01*
X12875586Y-14345698D02*
X12885110Y-14336174D01*
X12885110Y-14336174D02*
X12904158Y-14326650D01*
X12904158Y-14326650D02*
X12932729Y-14326650D01*
X12932729Y-14326650D02*
X12951777Y-14336174D01*
X12951777Y-14336174D02*
X12961301Y-14355222D01*
X12961301Y-14355222D02*
X12961301Y-14459984D01*
X12961301Y-14355222D02*
X12970824Y-14336174D01*
X12970824Y-14336174D02*
X12989872Y-14326650D01*
X12989872Y-14326650D02*
X13018443Y-14326650D01*
X13018443Y-14326650D02*
X13037491Y-14336174D01*
X13037491Y-14336174D02*
X13047015Y-14355222D01*
X13047015Y-14355222D02*
X13047015Y-14459984D01*
X13437491Y-14250460D02*
X13266063Y-14507603D01*
X13694634Y-14259984D02*
X13713682Y-14259984D01*
X13713682Y-14259984D02*
X13732729Y-14269508D01*
X13732729Y-14269508D02*
X13742253Y-14279031D01*
X13742253Y-14279031D02*
X13751777Y-14298079D01*
X13751777Y-14298079D02*
X13761301Y-14336174D01*
X13761301Y-14336174D02*
X13761301Y-14383793D01*
X13761301Y-14383793D02*
X13751777Y-14421888D01*
X13751777Y-14421888D02*
X13742253Y-14440936D01*
X13742253Y-14440936D02*
X13732729Y-14450460D01*
X13732729Y-14450460D02*
X13713682Y-14459984D01*
X13713682Y-14459984D02*
X13694634Y-14459984D01*
X13694634Y-14459984D02*
X13675586Y-14450460D01*
X13675586Y-14450460D02*
X13666063Y-14440936D01*
X13666063Y-14440936D02*
X13656539Y-14421888D01*
X13656539Y-14421888D02*
X13647015Y-14383793D01*
X13647015Y-14383793D02*
X13647015Y-14336174D01*
X13647015Y-14336174D02*
X13656539Y-14298079D01*
X13656539Y-14298079D02*
X13666063Y-14279031D01*
X13666063Y-14279031D02*
X13675586Y-14269508D01*
X13675586Y-14269508D02*
X13694634Y-14259984D01*
X13847015Y-14440936D02*
X13856539Y-14450460D01*
X13856539Y-14450460D02*
X13847015Y-14459984D01*
X13847015Y-14459984D02*
X13837491Y-14450460D01*
X13837491Y-14450460D02*
X13847015Y-14440936D01*
X13847015Y-14440936D02*
X13847015Y-14459984D01*
X13980348Y-14259984D02*
X13999396Y-14259984D01*
X13999396Y-14259984D02*
X14018444Y-14269508D01*
X14018444Y-14269508D02*
X14027967Y-14279031D01*
X14027967Y-14279031D02*
X14037491Y-14298079D01*
X14037491Y-14298079D02*
X14047015Y-14336174D01*
X14047015Y-14336174D02*
X14047015Y-14383793D01*
X14047015Y-14383793D02*
X14037491Y-14421888D01*
X14037491Y-14421888D02*
X14027967Y-14440936D01*
X14027967Y-14440936D02*
X14018444Y-14450460D01*
X14018444Y-14450460D02*
X13999396Y-14459984D01*
X13999396Y-14459984D02*
X13980348Y-14459984D01*
X13980348Y-14459984D02*
X13961301Y-14450460D01*
X13961301Y-14450460D02*
X13951777Y-14440936D01*
X13951777Y-14440936D02*
X13942253Y-14421888D01*
X13942253Y-14421888D02*
X13932729Y-14383793D01*
X13932729Y-14383793D02*
X13932729Y-14336174D01*
X13932729Y-14336174D02*
X13942253Y-14298079D01*
X13942253Y-14298079D02*
X13951777Y-14279031D01*
X13951777Y-14279031D02*
X13961301Y-14269508D01*
X13961301Y-14269508D02*
X13980348Y-14259984D01*
X14113682Y-14259984D02*
X14237491Y-14259984D01*
X14237491Y-14259984D02*
X14170825Y-14336174D01*
X14170825Y-14336174D02*
X14199396Y-14336174D01*
X14199396Y-14336174D02*
X14218444Y-14345698D01*
X14218444Y-14345698D02*
X14227967Y-14355222D01*
X14227967Y-14355222D02*
X14237491Y-14374269D01*
X14237491Y-14374269D02*
X14237491Y-14421888D01*
X14237491Y-14421888D02*
X14227967Y-14440936D01*
X14227967Y-14440936D02*
X14218444Y-14450460D01*
X14218444Y-14450460D02*
X14199396Y-14459984D01*
X14199396Y-14459984D02*
X14142253Y-14459984D01*
X14142253Y-14459984D02*
X14123206Y-14450460D01*
X14123206Y-14450460D02*
X14113682Y-14440936D01*
X14427967Y-14459984D02*
X14313682Y-14459984D01*
X14370825Y-14459984D02*
X14370825Y-14259984D01*
X14370825Y-14259984D02*
X14351777Y-14288555D01*
X14351777Y-14288555D02*
X14332729Y-14307603D01*
X14332729Y-14307603D02*
X14313682Y-14317127D01*
X14608920Y-14259984D02*
X14513682Y-14259984D01*
X14513682Y-14259984D02*
X14504158Y-14355222D01*
X14504158Y-14355222D02*
X14513682Y-14345698D01*
X14513682Y-14345698D02*
X14532729Y-14336174D01*
X14532729Y-14336174D02*
X14580348Y-14336174D01*
X14580348Y-14336174D02*
X14599396Y-14345698D01*
X14599396Y-14345698D02*
X14608920Y-14355222D01*
X14608920Y-14355222D02*
X14618444Y-14374269D01*
X14618444Y-14374269D02*
X14618444Y-14421888D01*
X14618444Y-14421888D02*
X14608920Y-14440936D01*
X14608920Y-14440936D02*
X14599396Y-14450460D01*
X14599396Y-14450460D02*
X14580348Y-14459984D01*
X14580348Y-14459984D02*
X14532729Y-14459984D01*
X14532729Y-14459984D02*
X14513682Y-14450460D01*
X14513682Y-14450460D02*
X14504158Y-14440936D01*
X14694634Y-14259984D02*
X14694634Y-14298079D01*
X14770825Y-14259984D02*
X14770825Y-14298079D01*
X15066063Y-14536174D02*
X15056539Y-14526650D01*
X15056539Y-14526650D02*
X15037491Y-14498079D01*
X15037491Y-14498079D02*
X15027968Y-14479031D01*
X15027968Y-14479031D02*
X15018444Y-14450460D01*
X15018444Y-14450460D02*
X15008920Y-14402841D01*
X15008920Y-14402841D02*
X15008920Y-14364746D01*
X15008920Y-14364746D02*
X15018444Y-14317127D01*
X15018444Y-14317127D02*
X15027968Y-14288555D01*
X15027968Y-14288555D02*
X15037491Y-14269508D01*
X15037491Y-14269508D02*
X15056539Y-14240936D01*
X15056539Y-14240936D02*
X15066063Y-14231412D01*
X15170825Y-14345698D02*
X15151777Y-14336174D01*
X15151777Y-14336174D02*
X15142253Y-14326650D01*
X15142253Y-14326650D02*
X15132729Y-14307603D01*
X15132729Y-14307603D02*
X15132729Y-14298079D01*
X15132729Y-14298079D02*
X15142253Y-14279031D01*
X15142253Y-14279031D02*
X15151777Y-14269508D01*
X15151777Y-14269508D02*
X15170825Y-14259984D01*
X15170825Y-14259984D02*
X15208920Y-14259984D01*
X15208920Y-14259984D02*
X15227968Y-14269508D01*
X15227968Y-14269508D02*
X15237491Y-14279031D01*
X15237491Y-14279031D02*
X15247015Y-14298079D01*
X15247015Y-14298079D02*
X15247015Y-14307603D01*
X15247015Y-14307603D02*
X15237491Y-14326650D01*
X15237491Y-14326650D02*
X15227968Y-14336174D01*
X15227968Y-14336174D02*
X15208920Y-14345698D01*
X15208920Y-14345698D02*
X15170825Y-14345698D01*
X15170825Y-14345698D02*
X15151777Y-14355222D01*
X15151777Y-14355222D02*
X15142253Y-14364746D01*
X15142253Y-14364746D02*
X15132729Y-14383793D01*
X15132729Y-14383793D02*
X15132729Y-14421888D01*
X15132729Y-14421888D02*
X15142253Y-14440936D01*
X15142253Y-14440936D02*
X15151777Y-14450460D01*
X15151777Y-14450460D02*
X15170825Y-14459984D01*
X15170825Y-14459984D02*
X15208920Y-14459984D01*
X15208920Y-14459984D02*
X15227968Y-14450460D01*
X15227968Y-14450460D02*
X15237491Y-14440936D01*
X15237491Y-14440936D02*
X15247015Y-14421888D01*
X15247015Y-14421888D02*
X15247015Y-14383793D01*
X15247015Y-14383793D02*
X15237491Y-14364746D01*
X15237491Y-14364746D02*
X15227968Y-14355222D01*
X15227968Y-14355222D02*
X15208920Y-14345698D01*
X15485110Y-14459984D02*
X15485110Y-14259984D01*
X15570825Y-14459984D02*
X15570825Y-14355222D01*
X15570825Y-14355222D02*
X15561301Y-14336174D01*
X15561301Y-14336174D02*
X15542253Y-14326650D01*
X15542253Y-14326650D02*
X15513682Y-14326650D01*
X15513682Y-14326650D02*
X15494634Y-14336174D01*
X15494634Y-14336174D02*
X15485110Y-14345698D01*
X15694634Y-14459984D02*
X15675587Y-14450460D01*
X15675587Y-14450460D02*
X15666063Y-14440936D01*
X15666063Y-14440936D02*
X15656539Y-14421888D01*
X15656539Y-14421888D02*
X15656539Y-14364746D01*
X15656539Y-14364746D02*
X15666063Y-14345698D01*
X15666063Y-14345698D02*
X15675587Y-14336174D01*
X15675587Y-14336174D02*
X15694634Y-14326650D01*
X15694634Y-14326650D02*
X15723206Y-14326650D01*
X15723206Y-14326650D02*
X15742253Y-14336174D01*
X15742253Y-14336174D02*
X15751777Y-14345698D01*
X15751777Y-14345698D02*
X15761301Y-14364746D01*
X15761301Y-14364746D02*
X15761301Y-14421888D01*
X15761301Y-14421888D02*
X15751777Y-14440936D01*
X15751777Y-14440936D02*
X15742253Y-14450460D01*
X15742253Y-14450460D02*
X15723206Y-14459984D01*
X15723206Y-14459984D02*
X15694634Y-14459984D01*
X15875587Y-14459984D02*
X15856539Y-14450460D01*
X15856539Y-14450460D02*
X15847015Y-14431412D01*
X15847015Y-14431412D02*
X15847015Y-14259984D01*
X16027968Y-14450460D02*
X16008920Y-14459984D01*
X16008920Y-14459984D02*
X15970825Y-14459984D01*
X15970825Y-14459984D02*
X15951777Y-14450460D01*
X15951777Y-14450460D02*
X15942253Y-14431412D01*
X15942253Y-14431412D02*
X15942253Y-14355222D01*
X15942253Y-14355222D02*
X15951777Y-14336174D01*
X15951777Y-14336174D02*
X15970825Y-14326650D01*
X15970825Y-14326650D02*
X16008920Y-14326650D01*
X16008920Y-14326650D02*
X16027968Y-14336174D01*
X16027968Y-14336174D02*
X16037491Y-14355222D01*
X16037491Y-14355222D02*
X16037491Y-14374269D01*
X16037491Y-14374269D02*
X15942253Y-14393317D01*
X16113682Y-14450460D02*
X16132730Y-14459984D01*
X16132730Y-14459984D02*
X16170825Y-14459984D01*
X16170825Y-14459984D02*
X16189872Y-14450460D01*
X16189872Y-14450460D02*
X16199396Y-14431412D01*
X16199396Y-14431412D02*
X16199396Y-14421888D01*
X16199396Y-14421888D02*
X16189872Y-14402841D01*
X16189872Y-14402841D02*
X16170825Y-14393317D01*
X16170825Y-14393317D02*
X16142253Y-14393317D01*
X16142253Y-14393317D02*
X16123206Y-14383793D01*
X16123206Y-14383793D02*
X16113682Y-14364746D01*
X16113682Y-14364746D02*
X16113682Y-14355222D01*
X16113682Y-14355222D02*
X16123206Y-14336174D01*
X16123206Y-14336174D02*
X16142253Y-14326650D01*
X16142253Y-14326650D02*
X16170825Y-14326650D01*
X16170825Y-14326650D02*
X16189872Y-14336174D01*
X16266063Y-14536174D02*
X16275587Y-14526650D01*
X16275587Y-14526650D02*
X16294634Y-14498079D01*
X16294634Y-14498079D02*
X16304158Y-14479031D01*
X16304158Y-14479031D02*
X16313682Y-14450460D01*
X16313682Y-14450460D02*
X16323206Y-14402841D01*
X16323206Y-14402841D02*
X16323206Y-14364746D01*
X16323206Y-14364746D02*
X16313682Y-14317127D01*
X16313682Y-14317127D02*
X16304158Y-14288555D01*
X16304158Y-14288555D02*
X16294634Y-14269508D01*
X16294634Y-14269508D02*
X16275587Y-14240936D01*
X16275587Y-14240936D02*
X16266063Y-14231412D01*
D12*
X11441000Y-14582500D02*
X11441000Y-14682500D01*
X11391000Y-14632500D02*
X11491000Y-14632500D01*
D11*
X11856539Y-14723984D02*
X11742253Y-14723984D01*
X11799396Y-14723984D02*
X11799396Y-14523984D01*
X11799396Y-14523984D02*
X11780348Y-14552555D01*
X11780348Y-14552555D02*
X11761301Y-14571603D01*
X11761301Y-14571603D02*
X11742253Y-14581127D01*
X11942253Y-14704936D02*
X11951777Y-14714460D01*
X11951777Y-14714460D02*
X11942253Y-14723984D01*
X11942253Y-14723984D02*
X11932729Y-14714460D01*
X11932729Y-14714460D02*
X11942253Y-14704936D01*
X11942253Y-14704936D02*
X11942253Y-14723984D01*
X12075586Y-14523984D02*
X12094634Y-14523984D01*
X12094634Y-14523984D02*
X12113682Y-14533508D01*
X12113682Y-14533508D02*
X12123205Y-14543031D01*
X12123205Y-14543031D02*
X12132729Y-14562079D01*
X12132729Y-14562079D02*
X12142253Y-14600174D01*
X12142253Y-14600174D02*
X12142253Y-14647793D01*
X12142253Y-14647793D02*
X12132729Y-14685888D01*
X12132729Y-14685888D02*
X12123205Y-14704936D01*
X12123205Y-14704936D02*
X12113682Y-14714460D01*
X12113682Y-14714460D02*
X12094634Y-14723984D01*
X12094634Y-14723984D02*
X12075586Y-14723984D01*
X12075586Y-14723984D02*
X12056539Y-14714460D01*
X12056539Y-14714460D02*
X12047015Y-14704936D01*
X12047015Y-14704936D02*
X12037491Y-14685888D01*
X12037491Y-14685888D02*
X12027967Y-14647793D01*
X12027967Y-14647793D02*
X12027967Y-14600174D01*
X12027967Y-14600174D02*
X12037491Y-14562079D01*
X12037491Y-14562079D02*
X12047015Y-14543031D01*
X12047015Y-14543031D02*
X12056539Y-14533508D01*
X12056539Y-14533508D02*
X12075586Y-14523984D01*
X12266062Y-14523984D02*
X12285110Y-14523984D01*
X12285110Y-14523984D02*
X12304158Y-14533508D01*
X12304158Y-14533508D02*
X12313682Y-14543031D01*
X12313682Y-14543031D02*
X12323205Y-14562079D01*
X12323205Y-14562079D02*
X12332729Y-14600174D01*
X12332729Y-14600174D02*
X12332729Y-14647793D01*
X12332729Y-14647793D02*
X12323205Y-14685888D01*
X12323205Y-14685888D02*
X12313682Y-14704936D01*
X12313682Y-14704936D02*
X12304158Y-14714460D01*
X12304158Y-14714460D02*
X12285110Y-14723984D01*
X12285110Y-14723984D02*
X12266062Y-14723984D01*
X12266062Y-14723984D02*
X12247015Y-14714460D01*
X12247015Y-14714460D02*
X12237491Y-14704936D01*
X12237491Y-14704936D02*
X12227967Y-14685888D01*
X12227967Y-14685888D02*
X12218443Y-14647793D01*
X12218443Y-14647793D02*
X12218443Y-14600174D01*
X12218443Y-14600174D02*
X12227967Y-14562079D01*
X12227967Y-14562079D02*
X12237491Y-14543031D01*
X12237491Y-14543031D02*
X12247015Y-14533508D01*
X12247015Y-14533508D02*
X12266062Y-14523984D01*
X12456539Y-14523984D02*
X12475586Y-14523984D01*
X12475586Y-14523984D02*
X12494634Y-14533508D01*
X12494634Y-14533508D02*
X12504158Y-14543031D01*
X12504158Y-14543031D02*
X12513682Y-14562079D01*
X12513682Y-14562079D02*
X12523205Y-14600174D01*
X12523205Y-14600174D02*
X12523205Y-14647793D01*
X12523205Y-14647793D02*
X12513682Y-14685888D01*
X12513682Y-14685888D02*
X12504158Y-14704936D01*
X12504158Y-14704936D02*
X12494634Y-14714460D01*
X12494634Y-14714460D02*
X12475586Y-14723984D01*
X12475586Y-14723984D02*
X12456539Y-14723984D01*
X12456539Y-14723984D02*
X12437491Y-14714460D01*
X12437491Y-14714460D02*
X12427967Y-14704936D01*
X12427967Y-14704936D02*
X12418443Y-14685888D01*
X12418443Y-14685888D02*
X12408920Y-14647793D01*
X12408920Y-14647793D02*
X12408920Y-14600174D01*
X12408920Y-14600174D02*
X12418443Y-14562079D01*
X12418443Y-14562079D02*
X12427967Y-14543031D01*
X12427967Y-14543031D02*
X12437491Y-14533508D01*
X12437491Y-14533508D02*
X12456539Y-14523984D01*
X12608920Y-14723984D02*
X12608920Y-14590650D01*
X12608920Y-14609698D02*
X12618443Y-14600174D01*
X12618443Y-14600174D02*
X12637491Y-14590650D01*
X12637491Y-14590650D02*
X12666063Y-14590650D01*
X12666063Y-14590650D02*
X12685110Y-14600174D01*
X12685110Y-14600174D02*
X12694634Y-14619222D01*
X12694634Y-14619222D02*
X12694634Y-14723984D01*
X12694634Y-14619222D02*
X12704158Y-14600174D01*
X12704158Y-14600174D02*
X12723205Y-14590650D01*
X12723205Y-14590650D02*
X12751777Y-14590650D01*
X12751777Y-14590650D02*
X12770824Y-14600174D01*
X12770824Y-14600174D02*
X12780348Y-14619222D01*
X12780348Y-14619222D02*
X12780348Y-14723984D01*
X12875586Y-14723984D02*
X12875586Y-14590650D01*
X12875586Y-14609698D02*
X12885110Y-14600174D01*
X12885110Y-14600174D02*
X12904158Y-14590650D01*
X12904158Y-14590650D02*
X12932729Y-14590650D01*
X12932729Y-14590650D02*
X12951777Y-14600174D01*
X12951777Y-14600174D02*
X12961301Y-14619222D01*
X12961301Y-14619222D02*
X12961301Y-14723984D01*
X12961301Y-14619222D02*
X12970824Y-14600174D01*
X12970824Y-14600174D02*
X12989872Y-14590650D01*
X12989872Y-14590650D02*
X13018443Y-14590650D01*
X13018443Y-14590650D02*
X13037491Y-14600174D01*
X13037491Y-14600174D02*
X13047015Y-14619222D01*
X13047015Y-14619222D02*
X13047015Y-14723984D01*
X13437491Y-14514460D02*
X13266063Y-14771603D01*
X13694634Y-14523984D02*
X13713682Y-14523984D01*
X13713682Y-14523984D02*
X13732729Y-14533508D01*
X13732729Y-14533508D02*
X13742253Y-14543031D01*
X13742253Y-14543031D02*
X13751777Y-14562079D01*
X13751777Y-14562079D02*
X13761301Y-14600174D01*
X13761301Y-14600174D02*
X13761301Y-14647793D01*
X13761301Y-14647793D02*
X13751777Y-14685888D01*
X13751777Y-14685888D02*
X13742253Y-14704936D01*
X13742253Y-14704936D02*
X13732729Y-14714460D01*
X13732729Y-14714460D02*
X13713682Y-14723984D01*
X13713682Y-14723984D02*
X13694634Y-14723984D01*
X13694634Y-14723984D02*
X13675586Y-14714460D01*
X13675586Y-14714460D02*
X13666063Y-14704936D01*
X13666063Y-14704936D02*
X13656539Y-14685888D01*
X13656539Y-14685888D02*
X13647015Y-14647793D01*
X13647015Y-14647793D02*
X13647015Y-14600174D01*
X13647015Y-14600174D02*
X13656539Y-14562079D01*
X13656539Y-14562079D02*
X13666063Y-14543031D01*
X13666063Y-14543031D02*
X13675586Y-14533508D01*
X13675586Y-14533508D02*
X13694634Y-14523984D01*
X13847015Y-14704936D02*
X13856539Y-14714460D01*
X13856539Y-14714460D02*
X13847015Y-14723984D01*
X13847015Y-14723984D02*
X13837491Y-14714460D01*
X13837491Y-14714460D02*
X13847015Y-14704936D01*
X13847015Y-14704936D02*
X13847015Y-14723984D01*
X13980348Y-14523984D02*
X13999396Y-14523984D01*
X13999396Y-14523984D02*
X14018444Y-14533508D01*
X14018444Y-14533508D02*
X14027967Y-14543031D01*
X14027967Y-14543031D02*
X14037491Y-14562079D01*
X14037491Y-14562079D02*
X14047015Y-14600174D01*
X14047015Y-14600174D02*
X14047015Y-14647793D01*
X14047015Y-14647793D02*
X14037491Y-14685888D01*
X14037491Y-14685888D02*
X14027967Y-14704936D01*
X14027967Y-14704936D02*
X14018444Y-14714460D01*
X14018444Y-14714460D02*
X13999396Y-14723984D01*
X13999396Y-14723984D02*
X13980348Y-14723984D01*
X13980348Y-14723984D02*
X13961301Y-14714460D01*
X13961301Y-14714460D02*
X13951777Y-14704936D01*
X13951777Y-14704936D02*
X13942253Y-14685888D01*
X13942253Y-14685888D02*
X13932729Y-14647793D01*
X13932729Y-14647793D02*
X13932729Y-14600174D01*
X13932729Y-14600174D02*
X13942253Y-14562079D01*
X13942253Y-14562079D02*
X13951777Y-14543031D01*
X13951777Y-14543031D02*
X13961301Y-14533508D01*
X13961301Y-14533508D02*
X13980348Y-14523984D01*
X14113682Y-14523984D02*
X14237491Y-14523984D01*
X14237491Y-14523984D02*
X14170825Y-14600174D01*
X14170825Y-14600174D02*
X14199396Y-14600174D01*
X14199396Y-14600174D02*
X14218444Y-14609698D01*
X14218444Y-14609698D02*
X14227967Y-14619222D01*
X14227967Y-14619222D02*
X14237491Y-14638269D01*
X14237491Y-14638269D02*
X14237491Y-14685888D01*
X14237491Y-14685888D02*
X14227967Y-14704936D01*
X14227967Y-14704936D02*
X14218444Y-14714460D01*
X14218444Y-14714460D02*
X14199396Y-14723984D01*
X14199396Y-14723984D02*
X14142253Y-14723984D01*
X14142253Y-14723984D02*
X14123206Y-14714460D01*
X14123206Y-14714460D02*
X14113682Y-14704936D01*
X14332729Y-14723984D02*
X14370825Y-14723984D01*
X14370825Y-14723984D02*
X14389872Y-14714460D01*
X14389872Y-14714460D02*
X14399396Y-14704936D01*
X14399396Y-14704936D02*
X14418444Y-14676365D01*
X14418444Y-14676365D02*
X14427967Y-14638269D01*
X14427967Y-14638269D02*
X14427967Y-14562079D01*
X14427967Y-14562079D02*
X14418444Y-14543031D01*
X14418444Y-14543031D02*
X14408920Y-14533508D01*
X14408920Y-14533508D02*
X14389872Y-14523984D01*
X14389872Y-14523984D02*
X14351777Y-14523984D01*
X14351777Y-14523984D02*
X14332729Y-14533508D01*
X14332729Y-14533508D02*
X14323206Y-14543031D01*
X14323206Y-14543031D02*
X14313682Y-14562079D01*
X14313682Y-14562079D02*
X14313682Y-14609698D01*
X14313682Y-14609698D02*
X14323206Y-14628746D01*
X14323206Y-14628746D02*
X14332729Y-14638269D01*
X14332729Y-14638269D02*
X14351777Y-14647793D01*
X14351777Y-14647793D02*
X14389872Y-14647793D01*
X14389872Y-14647793D02*
X14408920Y-14638269D01*
X14408920Y-14638269D02*
X14418444Y-14628746D01*
X14418444Y-14628746D02*
X14427967Y-14609698D01*
X14599396Y-14590650D02*
X14599396Y-14723984D01*
X14551777Y-14514460D02*
X14504158Y-14657317D01*
X14504158Y-14657317D02*
X14627967Y-14657317D01*
X14694634Y-14523984D02*
X14694634Y-14562079D01*
X14770825Y-14523984D02*
X14770825Y-14562079D01*
X15066063Y-14800174D02*
X15056539Y-14790650D01*
X15056539Y-14790650D02*
X15037491Y-14762079D01*
X15037491Y-14762079D02*
X15027968Y-14743031D01*
X15027968Y-14743031D02*
X15018444Y-14714460D01*
X15018444Y-14714460D02*
X15008920Y-14666841D01*
X15008920Y-14666841D02*
X15008920Y-14628746D01*
X15008920Y-14628746D02*
X15018444Y-14581127D01*
X15018444Y-14581127D02*
X15027968Y-14552555D01*
X15027968Y-14552555D02*
X15037491Y-14533508D01*
X15037491Y-14533508D02*
X15056539Y-14504936D01*
X15056539Y-14504936D02*
X15066063Y-14495412D01*
X15247015Y-14723984D02*
X15132729Y-14723984D01*
X15189872Y-14723984D02*
X15189872Y-14523984D01*
X15189872Y-14523984D02*
X15170825Y-14552555D01*
X15170825Y-14552555D02*
X15151777Y-14571603D01*
X15151777Y-14571603D02*
X15132729Y-14581127D01*
X15418444Y-14590650D02*
X15418444Y-14723984D01*
X15370825Y-14514460D02*
X15323206Y-14657317D01*
X15323206Y-14657317D02*
X15447015Y-14657317D01*
X15675587Y-14723984D02*
X15675587Y-14523984D01*
X15761301Y-14723984D02*
X15761301Y-14619222D01*
X15761301Y-14619222D02*
X15751777Y-14600174D01*
X15751777Y-14600174D02*
X15732730Y-14590650D01*
X15732730Y-14590650D02*
X15704158Y-14590650D01*
X15704158Y-14590650D02*
X15685110Y-14600174D01*
X15685110Y-14600174D02*
X15675587Y-14609698D01*
X15885110Y-14723984D02*
X15866063Y-14714460D01*
X15866063Y-14714460D02*
X15856539Y-14704936D01*
X15856539Y-14704936D02*
X15847015Y-14685888D01*
X15847015Y-14685888D02*
X15847015Y-14628746D01*
X15847015Y-14628746D02*
X15856539Y-14609698D01*
X15856539Y-14609698D02*
X15866063Y-14600174D01*
X15866063Y-14600174D02*
X15885110Y-14590650D01*
X15885110Y-14590650D02*
X15913682Y-14590650D01*
X15913682Y-14590650D02*
X15932730Y-14600174D01*
X15932730Y-14600174D02*
X15942253Y-14609698D01*
X15942253Y-14609698D02*
X15951777Y-14628746D01*
X15951777Y-14628746D02*
X15951777Y-14685888D01*
X15951777Y-14685888D02*
X15942253Y-14704936D01*
X15942253Y-14704936D02*
X15932730Y-14714460D01*
X15932730Y-14714460D02*
X15913682Y-14723984D01*
X15913682Y-14723984D02*
X15885110Y-14723984D01*
X16066063Y-14723984D02*
X16047015Y-14714460D01*
X16047015Y-14714460D02*
X16037491Y-14695412D01*
X16037491Y-14695412D02*
X16037491Y-14523984D01*
X16218444Y-14714460D02*
X16199396Y-14723984D01*
X16199396Y-14723984D02*
X16161301Y-14723984D01*
X16161301Y-14723984D02*
X16142253Y-14714460D01*
X16142253Y-14714460D02*
X16132730Y-14695412D01*
X16132730Y-14695412D02*
X16132730Y-14619222D01*
X16132730Y-14619222D02*
X16142253Y-14600174D01*
X16142253Y-14600174D02*
X16161301Y-14590650D01*
X16161301Y-14590650D02*
X16199396Y-14590650D01*
X16199396Y-14590650D02*
X16218444Y-14600174D01*
X16218444Y-14600174D02*
X16227968Y-14619222D01*
X16227968Y-14619222D02*
X16227968Y-14638269D01*
X16227968Y-14638269D02*
X16132730Y-14657317D01*
X16304158Y-14714460D02*
X16323206Y-14723984D01*
X16323206Y-14723984D02*
X16361301Y-14723984D01*
X16361301Y-14723984D02*
X16380349Y-14714460D01*
X16380349Y-14714460D02*
X16389872Y-14695412D01*
X16389872Y-14695412D02*
X16389872Y-14685888D01*
X16389872Y-14685888D02*
X16380349Y-14666841D01*
X16380349Y-14666841D02*
X16361301Y-14657317D01*
X16361301Y-14657317D02*
X16332730Y-14657317D01*
X16332730Y-14657317D02*
X16313682Y-14647793D01*
X16313682Y-14647793D02*
X16304158Y-14628746D01*
X16304158Y-14628746D02*
X16304158Y-14619222D01*
X16304158Y-14619222D02*
X16313682Y-14600174D01*
X16313682Y-14600174D02*
X16332730Y-14590650D01*
X16332730Y-14590650D02*
X16361301Y-14590650D01*
X16361301Y-14590650D02*
X16380349Y-14600174D01*
X16456539Y-14800174D02*
X16466063Y-14790650D01*
X16466063Y-14790650D02*
X16485111Y-14762079D01*
X16485111Y-14762079D02*
X16494634Y-14743031D01*
X16494634Y-14743031D02*
X16504158Y-14714460D01*
X16504158Y-14714460D02*
X16513682Y-14666841D01*
X16513682Y-14666841D02*
X16513682Y-14628746D01*
X16513682Y-14628746D02*
X16504158Y-14581127D01*
X16504158Y-14581127D02*
X16494634Y-14552555D01*
X16494634Y-14552555D02*
X16485111Y-14533508D01*
X16485111Y-14533508D02*
X16466063Y-14504936D01*
X16466063Y-14504936D02*
X16456539Y-14495412D01*
D13*
X11473427Y-14938927D02*
X11473427Y-14854073D01*
X11388573Y-14854073D01*
X11388573Y-14938927D01*
X11473427Y-14938927D01*
D11*
X11856539Y-14987984D02*
X11742253Y-14987984D01*
X11799396Y-14987984D02*
X11799396Y-14787984D01*
X11799396Y-14787984D02*
X11780348Y-14816555D01*
X11780348Y-14816555D02*
X11761301Y-14835603D01*
X11761301Y-14835603D02*
X11742253Y-14845127D01*
X11942253Y-14968936D02*
X11951777Y-14978460D01*
X11951777Y-14978460D02*
X11942253Y-14987984D01*
X11942253Y-14987984D02*
X11932729Y-14978460D01*
X11932729Y-14978460D02*
X11942253Y-14968936D01*
X11942253Y-14968936D02*
X11942253Y-14987984D01*
X12027967Y-14807031D02*
X12037491Y-14797508D01*
X12037491Y-14797508D02*
X12056539Y-14787984D01*
X12056539Y-14787984D02*
X12104158Y-14787984D01*
X12104158Y-14787984D02*
X12123205Y-14797508D01*
X12123205Y-14797508D02*
X12132729Y-14807031D01*
X12132729Y-14807031D02*
X12142253Y-14826079D01*
X12142253Y-14826079D02*
X12142253Y-14845127D01*
X12142253Y-14845127D02*
X12132729Y-14873698D01*
X12132729Y-14873698D02*
X12018443Y-14987984D01*
X12018443Y-14987984D02*
X12142253Y-14987984D01*
X12266062Y-14787984D02*
X12285110Y-14787984D01*
X12285110Y-14787984D02*
X12304158Y-14797508D01*
X12304158Y-14797508D02*
X12313682Y-14807031D01*
X12313682Y-14807031D02*
X12323205Y-14826079D01*
X12323205Y-14826079D02*
X12332729Y-14864174D01*
X12332729Y-14864174D02*
X12332729Y-14911793D01*
X12332729Y-14911793D02*
X12323205Y-14949888D01*
X12323205Y-14949888D02*
X12313682Y-14968936D01*
X12313682Y-14968936D02*
X12304158Y-14978460D01*
X12304158Y-14978460D02*
X12285110Y-14987984D01*
X12285110Y-14987984D02*
X12266062Y-14987984D01*
X12266062Y-14987984D02*
X12247015Y-14978460D01*
X12247015Y-14978460D02*
X12237491Y-14968936D01*
X12237491Y-14968936D02*
X12227967Y-14949888D01*
X12227967Y-14949888D02*
X12218443Y-14911793D01*
X12218443Y-14911793D02*
X12218443Y-14864174D01*
X12218443Y-14864174D02*
X12227967Y-14826079D01*
X12227967Y-14826079D02*
X12237491Y-14807031D01*
X12237491Y-14807031D02*
X12247015Y-14797508D01*
X12247015Y-14797508D02*
X12266062Y-14787984D01*
X12456539Y-14787984D02*
X12475586Y-14787984D01*
X12475586Y-14787984D02*
X12494634Y-14797508D01*
X12494634Y-14797508D02*
X12504158Y-14807031D01*
X12504158Y-14807031D02*
X12513682Y-14826079D01*
X12513682Y-14826079D02*
X12523205Y-14864174D01*
X12523205Y-14864174D02*
X12523205Y-14911793D01*
X12523205Y-14911793D02*
X12513682Y-14949888D01*
X12513682Y-14949888D02*
X12504158Y-14968936D01*
X12504158Y-14968936D02*
X12494634Y-14978460D01*
X12494634Y-14978460D02*
X12475586Y-14987984D01*
X12475586Y-14987984D02*
X12456539Y-14987984D01*
X12456539Y-14987984D02*
X12437491Y-14978460D01*
X12437491Y-14978460D02*
X12427967Y-14968936D01*
X12427967Y-14968936D02*
X12418443Y-14949888D01*
X12418443Y-14949888D02*
X12408920Y-14911793D01*
X12408920Y-14911793D02*
X12408920Y-14864174D01*
X12408920Y-14864174D02*
X12418443Y-14826079D01*
X12418443Y-14826079D02*
X12427967Y-14807031D01*
X12427967Y-14807031D02*
X12437491Y-14797508D01*
X12437491Y-14797508D02*
X12456539Y-14787984D01*
X12608920Y-14987984D02*
X12608920Y-14854650D01*
X12608920Y-14873698D02*
X12618443Y-14864174D01*
X12618443Y-14864174D02*
X12637491Y-14854650D01*
X12637491Y-14854650D02*
X12666063Y-14854650D01*
X12666063Y-14854650D02*
X12685110Y-14864174D01*
X12685110Y-14864174D02*
X12694634Y-14883222D01*
X12694634Y-14883222D02*
X12694634Y-14987984D01*
X12694634Y-14883222D02*
X12704158Y-14864174D01*
X12704158Y-14864174D02*
X12723205Y-14854650D01*
X12723205Y-14854650D02*
X12751777Y-14854650D01*
X12751777Y-14854650D02*
X12770824Y-14864174D01*
X12770824Y-14864174D02*
X12780348Y-14883222D01*
X12780348Y-14883222D02*
X12780348Y-14987984D01*
X12875586Y-14987984D02*
X12875586Y-14854650D01*
X12875586Y-14873698D02*
X12885110Y-14864174D01*
X12885110Y-14864174D02*
X12904158Y-14854650D01*
X12904158Y-14854650D02*
X12932729Y-14854650D01*
X12932729Y-14854650D02*
X12951777Y-14864174D01*
X12951777Y-14864174D02*
X12961301Y-14883222D01*
X12961301Y-14883222D02*
X12961301Y-14987984D01*
X12961301Y-14883222D02*
X12970824Y-14864174D01*
X12970824Y-14864174D02*
X12989872Y-14854650D01*
X12989872Y-14854650D02*
X13018443Y-14854650D01*
X13018443Y-14854650D02*
X13037491Y-14864174D01*
X13037491Y-14864174D02*
X13047015Y-14883222D01*
X13047015Y-14883222D02*
X13047015Y-14987984D01*
X13437491Y-14778460D02*
X13266063Y-15035603D01*
X13694634Y-14787984D02*
X13713682Y-14787984D01*
X13713682Y-14787984D02*
X13732729Y-14797508D01*
X13732729Y-14797508D02*
X13742253Y-14807031D01*
X13742253Y-14807031D02*
X13751777Y-14826079D01*
X13751777Y-14826079D02*
X13761301Y-14864174D01*
X13761301Y-14864174D02*
X13761301Y-14911793D01*
X13761301Y-14911793D02*
X13751777Y-14949888D01*
X13751777Y-14949888D02*
X13742253Y-14968936D01*
X13742253Y-14968936D02*
X13732729Y-14978460D01*
X13732729Y-14978460D02*
X13713682Y-14987984D01*
X13713682Y-14987984D02*
X13694634Y-14987984D01*
X13694634Y-14987984D02*
X13675586Y-14978460D01*
X13675586Y-14978460D02*
X13666063Y-14968936D01*
X13666063Y-14968936D02*
X13656539Y-14949888D01*
X13656539Y-14949888D02*
X13647015Y-14911793D01*
X13647015Y-14911793D02*
X13647015Y-14864174D01*
X13647015Y-14864174D02*
X13656539Y-14826079D01*
X13656539Y-14826079D02*
X13666063Y-14807031D01*
X13666063Y-14807031D02*
X13675586Y-14797508D01*
X13675586Y-14797508D02*
X13694634Y-14787984D01*
X13847015Y-14968936D02*
X13856539Y-14978460D01*
X13856539Y-14978460D02*
X13847015Y-14987984D01*
X13847015Y-14987984D02*
X13837491Y-14978460D01*
X13837491Y-14978460D02*
X13847015Y-14968936D01*
X13847015Y-14968936D02*
X13847015Y-14987984D01*
X13980348Y-14787984D02*
X13999396Y-14787984D01*
X13999396Y-14787984D02*
X14018444Y-14797508D01*
X14018444Y-14797508D02*
X14027967Y-14807031D01*
X14027967Y-14807031D02*
X14037491Y-14826079D01*
X14037491Y-14826079D02*
X14047015Y-14864174D01*
X14047015Y-14864174D02*
X14047015Y-14911793D01*
X14047015Y-14911793D02*
X14037491Y-14949888D01*
X14037491Y-14949888D02*
X14027967Y-14968936D01*
X14027967Y-14968936D02*
X14018444Y-14978460D01*
X14018444Y-14978460D02*
X13999396Y-14987984D01*
X13999396Y-14987984D02*
X13980348Y-14987984D01*
X13980348Y-14987984D02*
X13961301Y-14978460D01*
X13961301Y-14978460D02*
X13951777Y-14968936D01*
X13951777Y-14968936D02*
X13942253Y-14949888D01*
X13942253Y-14949888D02*
X13932729Y-14911793D01*
X13932729Y-14911793D02*
X13932729Y-14864174D01*
X13932729Y-14864174D02*
X13942253Y-14826079D01*
X13942253Y-14826079D02*
X13951777Y-14807031D01*
X13951777Y-14807031D02*
X13961301Y-14797508D01*
X13961301Y-14797508D02*
X13980348Y-14787984D01*
X14218444Y-14854650D02*
X14218444Y-14987984D01*
X14170825Y-14778460D02*
X14123206Y-14921317D01*
X14123206Y-14921317D02*
X14247015Y-14921317D01*
X14304158Y-14787984D02*
X14437491Y-14787984D01*
X14437491Y-14787984D02*
X14351777Y-14987984D01*
X14504158Y-14807031D02*
X14513682Y-14797508D01*
X14513682Y-14797508D02*
X14532729Y-14787984D01*
X14532729Y-14787984D02*
X14580348Y-14787984D01*
X14580348Y-14787984D02*
X14599396Y-14797508D01*
X14599396Y-14797508D02*
X14608920Y-14807031D01*
X14608920Y-14807031D02*
X14618444Y-14826079D01*
X14618444Y-14826079D02*
X14618444Y-14845127D01*
X14618444Y-14845127D02*
X14608920Y-14873698D01*
X14608920Y-14873698D02*
X14494634Y-14987984D01*
X14494634Y-14987984D02*
X14618444Y-14987984D01*
X14694634Y-14787984D02*
X14694634Y-14826079D01*
X14770825Y-14787984D02*
X14770825Y-14826079D01*
X15066063Y-15064174D02*
X15056539Y-15054650D01*
X15056539Y-15054650D02*
X15037491Y-15026079D01*
X15037491Y-15026079D02*
X15027968Y-15007031D01*
X15027968Y-15007031D02*
X15018444Y-14978460D01*
X15018444Y-14978460D02*
X15008920Y-14930841D01*
X15008920Y-14930841D02*
X15008920Y-14892746D01*
X15008920Y-14892746D02*
X15018444Y-14845127D01*
X15018444Y-14845127D02*
X15027968Y-14816555D01*
X15027968Y-14816555D02*
X15037491Y-14797508D01*
X15037491Y-14797508D02*
X15056539Y-14768936D01*
X15056539Y-14768936D02*
X15066063Y-14759412D01*
X15132729Y-14807031D02*
X15142253Y-14797508D01*
X15142253Y-14797508D02*
X15161301Y-14787984D01*
X15161301Y-14787984D02*
X15208920Y-14787984D01*
X15208920Y-14787984D02*
X15227968Y-14797508D01*
X15227968Y-14797508D02*
X15237491Y-14807031D01*
X15237491Y-14807031D02*
X15247015Y-14826079D01*
X15247015Y-14826079D02*
X15247015Y-14845127D01*
X15247015Y-14845127D02*
X15237491Y-14873698D01*
X15237491Y-14873698D02*
X15123206Y-14987984D01*
X15123206Y-14987984D02*
X15247015Y-14987984D01*
X15485110Y-14987984D02*
X15485110Y-14787984D01*
X15570825Y-14987984D02*
X15570825Y-14883222D01*
X15570825Y-14883222D02*
X15561301Y-14864174D01*
X15561301Y-14864174D02*
X15542253Y-14854650D01*
X15542253Y-14854650D02*
X15513682Y-14854650D01*
X15513682Y-14854650D02*
X15494634Y-14864174D01*
X15494634Y-14864174D02*
X15485110Y-14873698D01*
X15694634Y-14987984D02*
X15675587Y-14978460D01*
X15675587Y-14978460D02*
X15666063Y-14968936D01*
X15666063Y-14968936D02*
X15656539Y-14949888D01*
X15656539Y-14949888D02*
X15656539Y-14892746D01*
X15656539Y-14892746D02*
X15666063Y-14873698D01*
X15666063Y-14873698D02*
X15675587Y-14864174D01*
X15675587Y-14864174D02*
X15694634Y-14854650D01*
X15694634Y-14854650D02*
X15723206Y-14854650D01*
X15723206Y-14854650D02*
X15742253Y-14864174D01*
X15742253Y-14864174D02*
X15751777Y-14873698D01*
X15751777Y-14873698D02*
X15761301Y-14892746D01*
X15761301Y-14892746D02*
X15761301Y-14949888D01*
X15761301Y-14949888D02*
X15751777Y-14968936D01*
X15751777Y-14968936D02*
X15742253Y-14978460D01*
X15742253Y-14978460D02*
X15723206Y-14987984D01*
X15723206Y-14987984D02*
X15694634Y-14987984D01*
X15875587Y-14987984D02*
X15856539Y-14978460D01*
X15856539Y-14978460D02*
X15847015Y-14959412D01*
X15847015Y-14959412D02*
X15847015Y-14787984D01*
X16027968Y-14978460D02*
X16008920Y-14987984D01*
X16008920Y-14987984D02*
X15970825Y-14987984D01*
X15970825Y-14987984D02*
X15951777Y-14978460D01*
X15951777Y-14978460D02*
X15942253Y-14959412D01*
X15942253Y-14959412D02*
X15942253Y-14883222D01*
X15942253Y-14883222D02*
X15951777Y-14864174D01*
X15951777Y-14864174D02*
X15970825Y-14854650D01*
X15970825Y-14854650D02*
X16008920Y-14854650D01*
X16008920Y-14854650D02*
X16027968Y-14864174D01*
X16027968Y-14864174D02*
X16037491Y-14883222D01*
X16037491Y-14883222D02*
X16037491Y-14902269D01*
X16037491Y-14902269D02*
X15942253Y-14921317D01*
X16113682Y-14978460D02*
X16132730Y-14987984D01*
X16132730Y-14987984D02*
X16170825Y-14987984D01*
X16170825Y-14987984D02*
X16189872Y-14978460D01*
X16189872Y-14978460D02*
X16199396Y-14959412D01*
X16199396Y-14959412D02*
X16199396Y-14949888D01*
X16199396Y-14949888D02*
X16189872Y-14930841D01*
X16189872Y-14930841D02*
X16170825Y-14921317D01*
X16170825Y-14921317D02*
X16142253Y-14921317D01*
X16142253Y-14921317D02*
X16123206Y-14911793D01*
X16123206Y-14911793D02*
X16113682Y-14892746D01*
X16113682Y-14892746D02*
X16113682Y-14883222D01*
X16113682Y-14883222D02*
X16123206Y-14864174D01*
X16123206Y-14864174D02*
X16142253Y-14854650D01*
X16142253Y-14854650D02*
X16170825Y-14854650D01*
X16170825Y-14854650D02*
X16189872Y-14864174D01*
X16266063Y-15064174D02*
X16275587Y-15054650D01*
X16275587Y-15054650D02*
X16294634Y-15026079D01*
X16294634Y-15026079D02*
X16304158Y-15007031D01*
X16304158Y-15007031D02*
X16313682Y-14978460D01*
X16313682Y-14978460D02*
X16323206Y-14930841D01*
X16323206Y-14930841D02*
X16323206Y-14892746D01*
X16323206Y-14892746D02*
X16313682Y-14845127D01*
X16313682Y-14845127D02*
X16304158Y-14816555D01*
X16304158Y-14816555D02*
X16294634Y-14797508D01*
X16294634Y-14797508D02*
X16275587Y-14768936D01*
X16275587Y-14768936D02*
X16266063Y-14759412D01*
X11391000Y-15260500D02*
X11491000Y-15160500D01*
X11391000Y-15060500D01*
X11291000Y-15160500D01*
X11391000Y-15260500D01*
X11732729Y-15051984D02*
X11856539Y-15051984D01*
X11856539Y-15051984D02*
X11789872Y-15128174D01*
X11789872Y-15128174D02*
X11818443Y-15128174D01*
X11818443Y-15128174D02*
X11837491Y-15137698D01*
X11837491Y-15137698D02*
X11847015Y-15147222D01*
X11847015Y-15147222D02*
X11856539Y-15166269D01*
X11856539Y-15166269D02*
X11856539Y-15213888D01*
X11856539Y-15213888D02*
X11847015Y-15232936D01*
X11847015Y-15232936D02*
X11837491Y-15242460D01*
X11837491Y-15242460D02*
X11818443Y-15251984D01*
X11818443Y-15251984D02*
X11761301Y-15251984D01*
X11761301Y-15251984D02*
X11742253Y-15242460D01*
X11742253Y-15242460D02*
X11732729Y-15232936D01*
X11942253Y-15232936D02*
X11951777Y-15242460D01*
X11951777Y-15242460D02*
X11942253Y-15251984D01*
X11942253Y-15251984D02*
X11932729Y-15242460D01*
X11932729Y-15242460D02*
X11942253Y-15232936D01*
X11942253Y-15232936D02*
X11942253Y-15251984D01*
X12075586Y-15051984D02*
X12094634Y-15051984D01*
X12094634Y-15051984D02*
X12113682Y-15061508D01*
X12113682Y-15061508D02*
X12123205Y-15071031D01*
X12123205Y-15071031D02*
X12132729Y-15090079D01*
X12132729Y-15090079D02*
X12142253Y-15128174D01*
X12142253Y-15128174D02*
X12142253Y-15175793D01*
X12142253Y-15175793D02*
X12132729Y-15213888D01*
X12132729Y-15213888D02*
X12123205Y-15232936D01*
X12123205Y-15232936D02*
X12113682Y-15242460D01*
X12113682Y-15242460D02*
X12094634Y-15251984D01*
X12094634Y-15251984D02*
X12075586Y-15251984D01*
X12075586Y-15251984D02*
X12056539Y-15242460D01*
X12056539Y-15242460D02*
X12047015Y-15232936D01*
X12047015Y-15232936D02*
X12037491Y-15213888D01*
X12037491Y-15213888D02*
X12027967Y-15175793D01*
X12027967Y-15175793D02*
X12027967Y-15128174D01*
X12027967Y-15128174D02*
X12037491Y-15090079D01*
X12037491Y-15090079D02*
X12047015Y-15071031D01*
X12047015Y-15071031D02*
X12056539Y-15061508D01*
X12056539Y-15061508D02*
X12075586Y-15051984D01*
X12266062Y-15051984D02*
X12285110Y-15051984D01*
X12285110Y-15051984D02*
X12304158Y-15061508D01*
X12304158Y-15061508D02*
X12313682Y-15071031D01*
X12313682Y-15071031D02*
X12323205Y-15090079D01*
X12323205Y-15090079D02*
X12332729Y-15128174D01*
X12332729Y-15128174D02*
X12332729Y-15175793D01*
X12332729Y-15175793D02*
X12323205Y-15213888D01*
X12323205Y-15213888D02*
X12313682Y-15232936D01*
X12313682Y-15232936D02*
X12304158Y-15242460D01*
X12304158Y-15242460D02*
X12285110Y-15251984D01*
X12285110Y-15251984D02*
X12266062Y-15251984D01*
X12266062Y-15251984D02*
X12247015Y-15242460D01*
X12247015Y-15242460D02*
X12237491Y-15232936D01*
X12237491Y-15232936D02*
X12227967Y-15213888D01*
X12227967Y-15213888D02*
X12218443Y-15175793D01*
X12218443Y-15175793D02*
X12218443Y-15128174D01*
X12218443Y-15128174D02*
X12227967Y-15090079D01*
X12227967Y-15090079D02*
X12237491Y-15071031D01*
X12237491Y-15071031D02*
X12247015Y-15061508D01*
X12247015Y-15061508D02*
X12266062Y-15051984D01*
X12456539Y-15051984D02*
X12475586Y-15051984D01*
X12475586Y-15051984D02*
X12494634Y-15061508D01*
X12494634Y-15061508D02*
X12504158Y-15071031D01*
X12504158Y-15071031D02*
X12513682Y-15090079D01*
X12513682Y-15090079D02*
X12523205Y-15128174D01*
X12523205Y-15128174D02*
X12523205Y-15175793D01*
X12523205Y-15175793D02*
X12513682Y-15213888D01*
X12513682Y-15213888D02*
X12504158Y-15232936D01*
X12504158Y-15232936D02*
X12494634Y-15242460D01*
X12494634Y-15242460D02*
X12475586Y-15251984D01*
X12475586Y-15251984D02*
X12456539Y-15251984D01*
X12456539Y-15251984D02*
X12437491Y-15242460D01*
X12437491Y-15242460D02*
X12427967Y-15232936D01*
X12427967Y-15232936D02*
X12418443Y-15213888D01*
X12418443Y-15213888D02*
X12408920Y-15175793D01*
X12408920Y-15175793D02*
X12408920Y-15128174D01*
X12408920Y-15128174D02*
X12418443Y-15090079D01*
X12418443Y-15090079D02*
X12427967Y-15071031D01*
X12427967Y-15071031D02*
X12437491Y-15061508D01*
X12437491Y-15061508D02*
X12456539Y-15051984D01*
X12608920Y-15251984D02*
X12608920Y-15118650D01*
X12608920Y-15137698D02*
X12618443Y-15128174D01*
X12618443Y-15128174D02*
X12637491Y-15118650D01*
X12637491Y-15118650D02*
X12666063Y-15118650D01*
X12666063Y-15118650D02*
X12685110Y-15128174D01*
X12685110Y-15128174D02*
X12694634Y-15147222D01*
X12694634Y-15147222D02*
X12694634Y-15251984D01*
X12694634Y-15147222D02*
X12704158Y-15128174D01*
X12704158Y-15128174D02*
X12723205Y-15118650D01*
X12723205Y-15118650D02*
X12751777Y-15118650D01*
X12751777Y-15118650D02*
X12770824Y-15128174D01*
X12770824Y-15128174D02*
X12780348Y-15147222D01*
X12780348Y-15147222D02*
X12780348Y-15251984D01*
X12875586Y-15251984D02*
X12875586Y-15118650D01*
X12875586Y-15137698D02*
X12885110Y-15128174D01*
X12885110Y-15128174D02*
X12904158Y-15118650D01*
X12904158Y-15118650D02*
X12932729Y-15118650D01*
X12932729Y-15118650D02*
X12951777Y-15128174D01*
X12951777Y-15128174D02*
X12961301Y-15147222D01*
X12961301Y-15147222D02*
X12961301Y-15251984D01*
X12961301Y-15147222D02*
X12970824Y-15128174D01*
X12970824Y-15128174D02*
X12989872Y-15118650D01*
X12989872Y-15118650D02*
X13018443Y-15118650D01*
X13018443Y-15118650D02*
X13037491Y-15128174D01*
X13037491Y-15128174D02*
X13047015Y-15147222D01*
X13047015Y-15147222D02*
X13047015Y-15251984D01*
X13437491Y-15042460D02*
X13266063Y-15299603D01*
X13694634Y-15051984D02*
X13713682Y-15051984D01*
X13713682Y-15051984D02*
X13732729Y-15061508D01*
X13732729Y-15061508D02*
X13742253Y-15071031D01*
X13742253Y-15071031D02*
X13751777Y-15090079D01*
X13751777Y-15090079D02*
X13761301Y-15128174D01*
X13761301Y-15128174D02*
X13761301Y-15175793D01*
X13761301Y-15175793D02*
X13751777Y-15213888D01*
X13751777Y-15213888D02*
X13742253Y-15232936D01*
X13742253Y-15232936D02*
X13732729Y-15242460D01*
X13732729Y-15242460D02*
X13713682Y-15251984D01*
X13713682Y-15251984D02*
X13694634Y-15251984D01*
X13694634Y-15251984D02*
X13675586Y-15242460D01*
X13675586Y-15242460D02*
X13666063Y-15232936D01*
X13666063Y-15232936D02*
X13656539Y-15213888D01*
X13656539Y-15213888D02*
X13647015Y-15175793D01*
X13647015Y-15175793D02*
X13647015Y-15128174D01*
X13647015Y-15128174D02*
X13656539Y-15090079D01*
X13656539Y-15090079D02*
X13666063Y-15071031D01*
X13666063Y-15071031D02*
X13675586Y-15061508D01*
X13675586Y-15061508D02*
X13694634Y-15051984D01*
X13847015Y-15232936D02*
X13856539Y-15242460D01*
X13856539Y-15242460D02*
X13847015Y-15251984D01*
X13847015Y-15251984D02*
X13837491Y-15242460D01*
X13837491Y-15242460D02*
X13847015Y-15232936D01*
X13847015Y-15232936D02*
X13847015Y-15251984D01*
X14047015Y-15251984D02*
X13932729Y-15251984D01*
X13989872Y-15251984D02*
X13989872Y-15051984D01*
X13989872Y-15051984D02*
X13970825Y-15080555D01*
X13970825Y-15080555D02*
X13951777Y-15099603D01*
X13951777Y-15099603D02*
X13932729Y-15109127D01*
X14237491Y-15251984D02*
X14123206Y-15251984D01*
X14180348Y-15251984D02*
X14180348Y-15051984D01*
X14180348Y-15051984D02*
X14161301Y-15080555D01*
X14161301Y-15080555D02*
X14142253Y-15099603D01*
X14142253Y-15099603D02*
X14123206Y-15109127D01*
X14351777Y-15137698D02*
X14332729Y-15128174D01*
X14332729Y-15128174D02*
X14323206Y-15118650D01*
X14323206Y-15118650D02*
X14313682Y-15099603D01*
X14313682Y-15099603D02*
X14313682Y-15090079D01*
X14313682Y-15090079D02*
X14323206Y-15071031D01*
X14323206Y-15071031D02*
X14332729Y-15061508D01*
X14332729Y-15061508D02*
X14351777Y-15051984D01*
X14351777Y-15051984D02*
X14389872Y-15051984D01*
X14389872Y-15051984D02*
X14408920Y-15061508D01*
X14408920Y-15061508D02*
X14418444Y-15071031D01*
X14418444Y-15071031D02*
X14427967Y-15090079D01*
X14427967Y-15090079D02*
X14427967Y-15099603D01*
X14427967Y-15099603D02*
X14418444Y-15118650D01*
X14418444Y-15118650D02*
X14408920Y-15128174D01*
X14408920Y-15128174D02*
X14389872Y-15137698D01*
X14389872Y-15137698D02*
X14351777Y-15137698D01*
X14351777Y-15137698D02*
X14332729Y-15147222D01*
X14332729Y-15147222D02*
X14323206Y-15156746D01*
X14323206Y-15156746D02*
X14313682Y-15175793D01*
X14313682Y-15175793D02*
X14313682Y-15213888D01*
X14313682Y-15213888D02*
X14323206Y-15232936D01*
X14323206Y-15232936D02*
X14332729Y-15242460D01*
X14332729Y-15242460D02*
X14351777Y-15251984D01*
X14351777Y-15251984D02*
X14389872Y-15251984D01*
X14389872Y-15251984D02*
X14408920Y-15242460D01*
X14408920Y-15242460D02*
X14418444Y-15232936D01*
X14418444Y-15232936D02*
X14427967Y-15213888D01*
X14427967Y-15213888D02*
X14427967Y-15175793D01*
X14427967Y-15175793D02*
X14418444Y-15156746D01*
X14418444Y-15156746D02*
X14408920Y-15147222D01*
X14408920Y-15147222D02*
X14389872Y-15137698D01*
X14618444Y-15251984D02*
X14504158Y-15251984D01*
X14561301Y-15251984D02*
X14561301Y-15051984D01*
X14561301Y-15051984D02*
X14542253Y-15080555D01*
X14542253Y-15080555D02*
X14523206Y-15099603D01*
X14523206Y-15099603D02*
X14504158Y-15109127D01*
X14694634Y-15051984D02*
X14694634Y-15090079D01*
X14770825Y-15051984D02*
X14770825Y-15090079D01*
X15066063Y-15328174D02*
X15056539Y-15318650D01*
X15056539Y-15318650D02*
X15037491Y-15290079D01*
X15037491Y-15290079D02*
X15027968Y-15271031D01*
X15027968Y-15271031D02*
X15018444Y-15242460D01*
X15018444Y-15242460D02*
X15008920Y-15194841D01*
X15008920Y-15194841D02*
X15008920Y-15156746D01*
X15008920Y-15156746D02*
X15018444Y-15109127D01*
X15018444Y-15109127D02*
X15027968Y-15080555D01*
X15027968Y-15080555D02*
X15037491Y-15061508D01*
X15037491Y-15061508D02*
X15056539Y-15032936D01*
X15056539Y-15032936D02*
X15066063Y-15023412D01*
X15132729Y-15071031D02*
X15142253Y-15061508D01*
X15142253Y-15061508D02*
X15161301Y-15051984D01*
X15161301Y-15051984D02*
X15208920Y-15051984D01*
X15208920Y-15051984D02*
X15227968Y-15061508D01*
X15227968Y-15061508D02*
X15237491Y-15071031D01*
X15237491Y-15071031D02*
X15247015Y-15090079D01*
X15247015Y-15090079D02*
X15247015Y-15109127D01*
X15247015Y-15109127D02*
X15237491Y-15137698D01*
X15237491Y-15137698D02*
X15123206Y-15251984D01*
X15123206Y-15251984D02*
X15247015Y-15251984D01*
X15485110Y-15251984D02*
X15485110Y-15051984D01*
X15570825Y-15251984D02*
X15570825Y-15147222D01*
X15570825Y-15147222D02*
X15561301Y-15128174D01*
X15561301Y-15128174D02*
X15542253Y-15118650D01*
X15542253Y-15118650D02*
X15513682Y-15118650D01*
X15513682Y-15118650D02*
X15494634Y-15128174D01*
X15494634Y-15128174D02*
X15485110Y-15137698D01*
X15694634Y-15251984D02*
X15675587Y-15242460D01*
X15675587Y-15242460D02*
X15666063Y-15232936D01*
X15666063Y-15232936D02*
X15656539Y-15213888D01*
X15656539Y-15213888D02*
X15656539Y-15156746D01*
X15656539Y-15156746D02*
X15666063Y-15137698D01*
X15666063Y-15137698D02*
X15675587Y-15128174D01*
X15675587Y-15128174D02*
X15694634Y-15118650D01*
X15694634Y-15118650D02*
X15723206Y-15118650D01*
X15723206Y-15118650D02*
X15742253Y-15128174D01*
X15742253Y-15128174D02*
X15751777Y-15137698D01*
X15751777Y-15137698D02*
X15761301Y-15156746D01*
X15761301Y-15156746D02*
X15761301Y-15213888D01*
X15761301Y-15213888D02*
X15751777Y-15232936D01*
X15751777Y-15232936D02*
X15742253Y-15242460D01*
X15742253Y-15242460D02*
X15723206Y-15251984D01*
X15723206Y-15251984D02*
X15694634Y-15251984D01*
X15875587Y-15251984D02*
X15856539Y-15242460D01*
X15856539Y-15242460D02*
X15847015Y-15223412D01*
X15847015Y-15223412D02*
X15847015Y-15051984D01*
X16027968Y-15242460D02*
X16008920Y-15251984D01*
X16008920Y-15251984D02*
X15970825Y-15251984D01*
X15970825Y-15251984D02*
X15951777Y-15242460D01*
X15951777Y-15242460D02*
X15942253Y-15223412D01*
X15942253Y-15223412D02*
X15942253Y-15147222D01*
X15942253Y-15147222D02*
X15951777Y-15128174D01*
X15951777Y-15128174D02*
X15970825Y-15118650D01*
X15970825Y-15118650D02*
X16008920Y-15118650D01*
X16008920Y-15118650D02*
X16027968Y-15128174D01*
X16027968Y-15128174D02*
X16037491Y-15147222D01*
X16037491Y-15147222D02*
X16037491Y-15166269D01*
X16037491Y-15166269D02*
X15942253Y-15185317D01*
X16113682Y-15242460D02*
X16132730Y-15251984D01*
X16132730Y-15251984D02*
X16170825Y-15251984D01*
X16170825Y-15251984D02*
X16189872Y-15242460D01*
X16189872Y-15242460D02*
X16199396Y-15223412D01*
X16199396Y-15223412D02*
X16199396Y-15213888D01*
X16199396Y-15213888D02*
X16189872Y-15194841D01*
X16189872Y-15194841D02*
X16170825Y-15185317D01*
X16170825Y-15185317D02*
X16142253Y-15185317D01*
X16142253Y-15185317D02*
X16123206Y-15175793D01*
X16123206Y-15175793D02*
X16113682Y-15156746D01*
X16113682Y-15156746D02*
X16113682Y-15147222D01*
X16113682Y-15147222D02*
X16123206Y-15128174D01*
X16123206Y-15128174D02*
X16142253Y-15118650D01*
X16142253Y-15118650D02*
X16170825Y-15118650D01*
X16170825Y-15118650D02*
X16189872Y-15128174D01*
X16266063Y-15328174D02*
X16275587Y-15318650D01*
X16275587Y-15318650D02*
X16294634Y-15290079D01*
X16294634Y-15290079D02*
X16304158Y-15271031D01*
X16304158Y-15271031D02*
X16313682Y-15242460D01*
X16313682Y-15242460D02*
X16323206Y-15194841D01*
X16323206Y-15194841D02*
X16323206Y-15156746D01*
X16323206Y-15156746D02*
X16313682Y-15109127D01*
X16313682Y-15109127D02*
X16304158Y-15080555D01*
X16304158Y-15080555D02*
X16294634Y-15061508D01*
X16294634Y-15061508D02*
X16275587Y-15032936D01*
X16275587Y-15032936D02*
X16266063Y-15023412D01*
M02*
