M48
; DRILL file {KiCad (5.1.6)-1} date 07/15/23 17:20:32
; FORMAT={-:-/ absolute / metric / decimal}
; #@! TF.CreationDate,2023-07-15T17:20:32+02:00
; #@! TF.GenerationSoftware,Kicad,Pcbnew,(5.1.6)-1
; #@! TF.FileFunction,Plated,1,2,PTH
FMAT,2
METRIC
T1C0.400
T2C0.600
T3C0.700
T4C0.800
T5C1.100
T6C1.200
T7C1.500
T8C3.200
%
G90
G05
T1
X179.578Y-39.116
X133.35Y-79.375
X179.07Y-111.76
X41.275Y-12.065
X141.605Y-47.625
X179.578Y-35.306
X106.68Y-7.62
X194.945Y-99.06
X163.83Y-9.525
X130.175Y-58.42
X153.67Y-17.145
X142.875Y-92.075
X128.27Y-115.57
X86.106Y-36.068
X117.475Y-5.715
X191.135Y-83.185
X94.615Y-83.82
X117.475Y-9.525
X93.345Y6.35
X165.1Y-91.44
X189.865Y-48.895
X163.322Y-40.64
X62.23Y-9.525
X114.935Y-103.505
X165.735Y-9.525
X196.85Y6.35
X69.85Y-118.11
X131.445Y-119.38
X137.16Y-31.75
X62.23Y-7.62
X55.245Y-73.66
X146.685Y-9.525
X143.51Y6.35
X64.77Y-121.285
X131.445Y-121.92
X58.42Y-9.525
X111.125Y-120.65
X176.53Y-5.715
X160.655Y-142.875
X144.145Y-62.865
X138.43Y-56.515
X95.885Y-113.665
X146.685Y-7.62
X218.44Y-13.335
X175.895Y-55.88
X59.055Y-55.88
X83.82Y-116.84
X129.286Y-36.83
X80.01Y6.35
X211.455Y-56.515
X109.855Y-56.515
X82.55Y-90.17
X194.945Y-7.62
X145.415Y-2.54
X130.302Y-66.675
X102.87Y-55.88
X202.692Y-36.83
X56.896Y-36.068
X47.625Y-5.715
X205.74Y-7.62
X85.725Y-2.54
X125.984Y-70.739
X134.62Y-84.455
X94.615Y-56.515
X48.26Y-113.665
X93.98Y-41.275
X118.11Y-0.635
X120.65Y-59.69
X50.165Y-41.275
X58.42Y-48.895
X43.815Y-5.715
X176.53Y-7.62
X167.005Y-1.27
X149.86Y-59.69
X139.065Y-84.455
X86.995Y-47.625
X58.42Y-5.715
X116.84Y-0.635
X208.28Y-59.69
X100.33Y-26.67
X97.79Y-47.625
X46.355Y-87.63
X132.08Y-68.58
X114.935Y-31.115
X98.425Y-36.195
X53.34Y6.35
X200.66Y-125.73
X130.81Y-47.625
X121.285Y-76.835
X196.215Y-17.145
X81.915Y-133.985
X45.72Y-36.83
X180.975Y-40.005
X150.622Y-39.116
X66.675Y6.35
X162.56Y-86.995
X83.185Y-47.625
X194.31Y-35.306
X89.535Y-7.62
X180.975Y-69.85
X148.59Y-7.62
X109.855Y-116.205
X159.385Y-34.29
X88.9Y-125.095
X167.005Y-123.19
X130.81Y-113.03
X115.316Y-35.814
X104.775Y-9.525
X173.355Y-104.14
X80.645Y-80.645
X133.985Y-9.525
X112.395Y-67.31
X31.75Y-1.27
X46.99Y-35.56
X126.365Y-127.635
X130.048Y-34.29
X76.835Y-7.62
X60.325Y-78.74
X133.985Y-5.715
X31.75Y-58.42
X93.345Y-104.775
X65.405Y-86.995
X54.61Y-36.195
X87.63Y-9.525
X88.9Y-116.84
X135.89Y-9.525
X179.07Y-91.44
X156.845Y6.35
X46.99Y-38.735
X136.525Y-132.715
X73.025Y-5.715
X217.805Y-114.3
X117.475Y-7.62
X151.13Y-142.875
X146.685Y-55.88
X132.08Y-55.88
X83.82Y-110.49
X118.11Y-120.65
X205.105Y-55.88
X57.785Y-62.865
X44.45Y-116.84
X49.53Y-36.195
X106.68Y6.35
X64.77Y-3.175
X205.105Y-62.865
X109.855Y-62.865
X48.768Y-31.242
X88.265Y-90.17
X194.945Y-9.525
X182.88Y-2.54
X132.715Y-67.31
X123.825Y-56.515
X39.37Y-7.62
X47.625Y-9.525
X209.55Y-9.525
X112.395Y-2.54
X139.7Y-72.39
X160.655Y-93.98
X99.822Y-68.58
X55.88Y-130.175
X48.26Y-110.49
X178.435Y-5.715
X111.125Y-1.27
X76.835Y-59.69
X71.12Y-31.115
X67.31Y-36.195
X92.075Y-110.49
X176.53Y-9.525
X146.685Y-1.27
X193.675Y-59.69
X69.215Y-12.065
X109.22Y-39.37
X78.74Y-130.175
X63.5Y-1.905
X122.555Y-68.58
X96.52Y-36.195
X152.4Y-17.145
X33.655Y-74.93
X203.835Y-2.54
X131.445Y-69.85
X45.72Y-35.56
X101.6Y-47.625
X57.785Y-100.965
X188.595Y-34.29
X93.98Y-130.175
X135.89Y-63.5
X145.415Y-47.625
X197.485Y-17.145
X89.535Y-138.43
X59.69Y-124.46
X160.655Y-48.895
X146.812Y-38.1
X169.545Y-36.195
X31.75Y-39.37
X41.275Y-47.625
X87.63Y-48.895
X194.31Y-39.116
X106.68Y-5.715
X65.405Y-90.17
X150.495Y-5.715
X211.455Y-17.145
X90.805Y-123.825
X100.33Y-31.115
X103.632Y-76.2
X90.424Y-39.116
X104.775Y-5.715
X160.02Y-84.455
X118.11Y-111.125
X150.495Y-9.525
X218.44Y-0.635
X69.215Y-86.995
X132.715Y-129.54
X165.1Y-39.116
X60.325Y-5.715
X217.805Y-133.985
X163.83Y-5.715
X218.44Y-20.32
X63.5Y-86.995
X201.93Y-13.97
X87.63Y-5.715
X92.075Y-116.84
X165.735Y-7.62
X195.58Y-74.295
X170.18Y6.35
X53.34Y-121.92
X98.552Y-69.85
X74.93Y-9.525
X217.805Y-104.14
X163.83Y-7.62
X157.48Y-88.9
X118.11Y-130.175
X161.29Y-55.88
X99.822Y-74.295
X76.2Y-110.49
X31.115Y-86.995
X190.5Y-55.88
X88.265Y-55.88
X43.815Y-7.62
X191.135Y-9.525
X83.82Y-104.775
X57.785Y-0.635
X211.455Y-62.865
X50.8Y-56.515
X209.55Y-39.116
X75.946Y-39.116
X56.515Y-110.49
X193.04Y-9.525
X175.26Y-2.54
X179.07Y-59.69
X80.01Y-62.865
X53.975Y-47.625
X50.8Y-31.242
X52.07Y-116.84
X64.135Y-36.195
X173.99Y-1.27
X142.24Y-64.77
X203.2Y-130.81
X102.362Y-75.565
X54.61Y-130.175
X44.45Y-110.49
X193.04Y-5.715
X181.61Y-1.27
X119.38Y-78.105
X56.515Y-31.115
X67.945Y-6.985
X80.01Y-110.49
X178.435Y-9.525
X160.655Y-1.27
X111.252Y-77.724
X84.455Y-12.065
X127.0Y-47.625
X211.455Y-2.54
X164.465Y-59.69
X113.665Y-12.065
X166.37Y-40.005
X187.96Y-1.27
X133.985Y-66.04
X161.29Y-72.39
X102.235Y-48.895
X37.465Y-78.74
X167.005Y-17.145
X87.757Y-130.175
X46.99Y-45.085
X174.625Y-47.625
X173.228Y-36.83
X144.78Y-34.036
X90.17Y-136.525
X149.225Y-78.74
X175.26Y-48.895
X135.89Y-39.116
X184.15Y-36.195
X126.365Y-104.775
X62.23Y-130.175
X97.155Y-6.985
X192.532Y-40.64
X73.025Y-9.525
X119.38Y-5.715
X158.115Y-13.97
X40.386Y-43.18
X185.42Y-47.625
X122.174Y-36.195
X102.87Y-7.62
X184.15Y-71.755
X107.95Y-97.155
X119.38Y-9.525
X170.18Y-142.875
X46.99Y-36.83
X132.715Y-119.38
X165.1Y-35.306
X102.87Y-5.715
X88.9Y-110.49
X161.925Y-9.525
X189.23Y-142.875
X67.31Y-86.995
X131.445Y-124.46
X76.835Y-9.525
X111.125Y-130.175
X165.735Y-5.715
X155.575Y-98.425
X31.115Y-96.52
X50.8Y-3.175
X153.035Y-62.865
X101.092Y-74.93
X91.44Y-5.715
X111.125Y-111.125
X146.685Y-5.715
X157.48Y-81.28
X120.65Y-142.875
X153.035Y-56.515
X98.552Y-73.66
X76.2Y-116.84
X136.525Y-142.875
X174.625Y-62.865
X103.632Y-67.31
X52.07Y-113.665
X209.55Y-7.62
X77.47Y-1.905
X131.445Y-74.93
X64.77Y-62.865
X53.34Y-6.985
X204.978Y-37.846
X61.214Y-39.116
X64.135Y-110.49
X93.345Y-36.195
X104.775Y-1.27
X91.44Y-59.69
X94.615Y-62.865
X64.77Y-41.275
X45.72Y-9.525
X207.645Y-5.715
X90.17Y-1.905
X106.68Y-77.724
X71.12Y-26.67
X114.3Y-62.865
X52.705Y-36.195
X211.455Y-40.386
X44.45Y-113.665
X180.34Y-5.715
X133.985Y-1.27
X112.776Y-77.724
X130.175Y-84.455
X73.025Y-48.895
X76.2Y-113.665
X180.34Y-9.525
X153.67Y-2.54
X109.728Y-70.104
X85.852Y-26.67
X116.205Y-47.625
X41.91Y-83.185
X71.12Y-1.905
X109.728Y-77.724
X114.935Y-26.67
X172.72Y-13.97
X196.215Y-1.27
X112.776Y-71.12
X154.94Y-41.275
X111.125Y-36.195
X133.604Y-76.2
X203.2Y-34.29
X61.595Y-104.775
X151.765Y-93.98
X131.445Y-48.895
X135.636Y-35.306
X168.275Y-17.145
X50.8Y-137.795
X72.39Y-47.625
X133.858Y-40.64
X200.152Y-36.195
X31.75Y-20.32
X201.93Y-122.555
X127.381Y-125.73
X144.272Y-37.084
X134.62Y-33.02
X91.44Y-7.62
X180.975Y-87.63
X121.285Y-5.715
X130.175Y-60.96
X173.99Y-34.29
X58.42Y-135.89
X189.23Y-47.625
X119.634Y-39.116
X89.535Y-5.715
X87.63Y-80.645
X121.285Y-9.525
X218.44Y-35.56
X46.99Y-40.005
X203.835Y-47.625
X158.242Y-36.83
X62.23Y-5.715
X107.95Y-142.875
X133.985Y-7.62
X31.75Y-10.795
X52.07Y-104.775
X44.45Y-0.635
X62.865Y-132.08
X131.445Y-125.73
X87.63Y-7.62
X95.885Y-110.49
X150.495Y-7.62
X179.07Y-89.535
X40.64Y-142.875
X122.555Y-74.93
X86.995Y-62.865
X106.68Y-9.525
X99.695Y-142.875
X135.89Y-7.62
X186.69Y-92.075
X31.115Y-106.045
X44.45Y-1.905
X167.64Y-56.515
X97.282Y-71.12
X80.01Y-116.84
X31.115Y-67.945
X189.865Y-62.865
X104.902Y-67.31
X45.72Y-7.62
X39.37Y6.35
X103.505Y-1.27
X130.175Y-74.93
X50.8Y-62.865
X209.55Y-35.052
X71.628Y-36.068
X64.135Y-113.665
X205.74Y-5.715
X57.785Y-1.905
X111.252Y-70.612
X172.339Y-100.33
X128.905Y-62.865
X45.72Y-5.715
X207.645Y-9.525
X91.44Y-1.905
X116.84Y-84.455
X125.73Y-84.455
X101.092Y-67.31
X68.58Y-47.625
X207.264Y-40.64
X60.325Y-110.49
X78.74Y-36.195
X202.565Y-1.27
X135.255Y-59.69
X166.37Y-93.98
X80.01Y-39.37
X47.625Y-7.62
X191.135Y-5.715
X76.2Y-1.905
X47.625Y-59.69
X85.852Y-31.115
X112.395Y-6.985
X168.275Y-2.54
X132.715Y-74.93
X140.335Y-76.2
X170.815Y-47.625
X123.19Y-39.37
X169.545Y-41.275
X112.395Y-47.625
X107.95Y-135.89
X151.765Y-40.005
X81.915Y-137.795
X161.925Y-76.2
X187.325Y-13.97
X178.054Y-40.64
X137.795Y-17.145
X50.8Y-133.985
X79.375Y-41.275
X131.826Y-38.1
X166.37Y-86.995
X146.05Y-76.2
X200.025Y-47.625
X150.368Y-35.306
X187.96Y-36.83
X89.535Y-9.525
X184.15Y-76.835
X121.285Y-7.62
X31.75Y-29.845
X96.52Y-121.285
X113.03Y-36.195
X195.58Y-40.005
X58.42Y-7.62
X71.12Y-90.17
X65.405Y-80.645
X132.08Y-5.715
X31.115Y-77.47
X45.72Y-40.005
X134.62Y-119.38
X105.156Y-39.116
X60.325Y-7.62
X95.885Y-116.84
X148.59Y-5.715
X198.755Y-142.875
X50.165Y-1.905
X65.405Y-134.62
X131.445Y-120.65
X102.87Y-9.525
X217.805Y-121.285
X161.925Y-7.62
X192.405Y-73.025
X208.28Y-142.875
X167.64Y-62.865
X97.282Y-73.025
X72.957Y-7.62
X92.075Y-113.665
X148.59Y-9.525
X193.675Y-78.74
X51.435Y-142.875
X182.245Y-62.865
X117.475Y-55.88
X80.01Y-113.665
X205.74Y-9.525
X31.115Y-115.57
X182.245Y-56.515
X80.01Y-56.515
X78.74Y-123.825
X194.945Y-5.715
X133.985Y-2.54
X128.905Y-74.93
X64.77Y-56.515
X50.8Y-39.37
X41.656Y-25.908
X64.135Y-116.84
X154.94Y-36.195
X71.12Y-0.635
X62.23Y-59.69
X200.66Y-130.81
X132.715Y-62.865
X56.515Y-116.84
X108.585Y-41.275
X99.06Y-2.54
X108.204Y-69.088
X205.105Y-126.365
X65.405Y-39.37
X76.835Y-90.17
X180.34Y-7.62
X152.4Y-1.27
X108.204Y-77.724
X176.276Y-113.792
X81.915Y-36.195
X43.815Y-9.525
X209.55Y-5.715
X159.385Y-2.54
X121.285Y-84.455
X83.82Y-36.195
X156.21Y-47.625
X89.535Y-100.965
X189.23Y-2.54
X125.095Y-66.675
X154.94Y-83.185
X146.05Y-48.895
X184.15Y-41.275
X124.46Y-13.97
X120.65Y-99.06
X94.742Y-132.334
X151.765Y-93.98
X160.02Y-47.625
X175.768Y-38.1
X182.88Y-17.145
X84.455Y-121.92
X55.245Y-121.92
X116.84Y-48.895
X128.778Y-35.56
X74.93Y-7.62
X59.69Y-90.17
X139.065Y-17.145
X139.065Y-63.5
X205.105Y-48.895
X100.838Y-36.195
X190.246Y-38.1
X91.44Y-9.525
X171.45Y-81.915
X100.965Y-90.805
X119.38Y-7.62
X31.75Y-48.895
X86.995Y-121.92
X69.85Y-124.46
X212.725Y-17.145
X161.036Y-38.1
X74.93Y-5.715
X51.435Y-92.71
X50.165Y-68.58
X135.89Y-5.715
X121.285Y-79.375
X218.44Y-6.985
X73.025Y-136.525
X212.725Y-47.625
X148.59Y-40.64
X76.835Y-5.715
X107.315Y-105.41
X132.08Y-7.62
X31.115Y-125.095
X57.15Y-125.095
X104.902Y-76.835
X60.325Y-9.525
X90.17Y-142.875
X161.925Y-5.715
X193.04Y-92.075
X179.705Y-142.875
X159.385Y-62.865
X123.825Y-62.865
X104.775Y-7.62
X88.9Y-113.665
X132.08Y-9.525
X183.515Y6.35
X196.85Y-62.865
X102.362Y-67.31
X83.82Y-113.665
X193.04Y-7.62
X31.115Y-134.62
X196.85Y-56.515
X101.6Y-62.865
X48.26Y-116.84
X191.135Y-7.62
X139.065Y-1.27
X128.016Y-74.422
X73.025Y-55.88
X57.785Y-47.625
X42.418Y-34.29
X60.325Y-116.84
X207.645Y-7.62
X210.185Y-1.27
X139.446Y-70.866
X56.515Y-26.67
X71.755Y-62.865
X60.325Y-113.665
X107.95Y-36.195
X97.79Y-1.27
X106.426Y-59.69
X54.61Y-12.065
X44.323Y-48.895
X52.07Y-110.49
X178.435Y-7.62
X139.065Y-2.54
X120.015Y-68.58
X69.215Y-36.195
X83.185Y-6.985
X56.515Y-113.665
X84.455Y-1.27
X106.68Y-68.58
X99.06Y-12.065
X94.615Y-39.37
X197.485Y-2.54
X138.43Y-74.295
X45.72Y-38.735
X128.905Y-13.97
X198.755Y-41.275
X143.51Y-13.97
X139.7Y-41.275
X86.233Y-130.175
X212.09Y-83.185
X181.61Y-17.145
T2
X136.588Y-118.11
X136.588Y-123.19
X139.141Y-120.65
T3
X116.136Y-42.545
X118.676Y-42.545
X203.835Y-42.545
X206.375Y-42.545
X189.218Y-42.545
X191.758Y-42.545
X66.194Y-128.0
X68.734Y-128.0
X104.194Y-128.0
X106.734Y-128.0
X57.67Y-42.545
X60.21Y-42.545
X142.194Y-128.0
X144.734Y-128.0
X145.369Y-42.545
X147.909Y-42.545
X43.053Y-42.545
X45.593Y-42.545
X72.286Y-42.545
X74.826Y-42.545
X86.903Y-42.545
X89.443Y-42.545
X180.194Y-119.38
X182.734Y-119.38
X130.752Y-42.545
X133.292Y-42.545
X180.194Y-128.0
X182.734Y-128.0
X101.519Y-42.545
X104.059Y-42.545
X174.602Y-42.545
X177.142Y-42.545
X159.985Y-42.545
X162.525Y-42.545
T4
X206.756Y-81.914
X206.756Y-84.454
X206.756Y-86.994
X206.756Y-89.534
X209.296Y-83.184
X209.296Y-85.724
X209.296Y-88.264
X209.296Y-90.804
T5
X181.229Y-99.06
X181.229Y-101.6
X181.229Y-104.14
X181.229Y-106.68
X181.229Y-109.22
X190.488Y-22.225
X190.488Y-24.765
X190.488Y-27.305
X190.488Y-29.845
X190.488Y-32.385
X88.173Y-22.225
X88.173Y-24.765
X88.173Y-27.305
X88.173Y-29.845
X88.173Y-32.385
X73.556Y-22.225
X73.556Y-24.765
X73.556Y-27.305
X73.556Y-29.845
X73.556Y-32.385
X175.872Y-22.225
X175.872Y-24.765
X175.872Y-27.305
X175.872Y-29.845
X175.872Y-32.385
X44.323Y-22.225
X44.323Y-24.765
X44.323Y-27.305
X44.323Y-29.845
X44.323Y-32.385
X161.255Y-22.225
X161.255Y-24.765
X161.255Y-27.305
X161.255Y-29.845
X161.255Y-32.385
X102.789Y-22.225
X102.789Y-24.765
X102.789Y-27.305
X102.789Y-29.845
X102.789Y-32.385
X58.94Y-22.225
X58.94Y-24.765
X58.94Y-27.305
X58.94Y-29.845
X58.94Y-32.385
X117.406Y-22.225
X117.406Y-24.765
X117.406Y-27.305
X117.406Y-29.845
X117.406Y-32.385
X205.105Y-22.225
X205.105Y-24.765
X205.105Y-27.305
X205.105Y-29.845
X205.105Y-32.385
X132.022Y-22.225
X132.022Y-24.765
X132.022Y-27.305
X132.022Y-29.845
X132.022Y-32.385
X146.639Y-22.225
X146.639Y-24.765
X146.639Y-27.305
X146.639Y-29.845
X146.639Y-32.385
T6
X43.815Y5.08
X48.895Y5.08
X216.408Y-40.132
X216.408Y-45.212
X216.408Y-125.095
X216.408Y-130.175
X57.15Y5.08
X62.23Y5.08
X187.325Y5.08
X192.405Y5.08
X110.49Y5.08
X115.57Y5.08
X67.945Y-141.732
X73.025Y-141.732
X127.508Y-141.732
X132.588Y-141.732
X200.66Y5.08
X205.74Y5.08
X97.155Y5.08
X102.235Y5.08
X147.32Y5.08
X152.4Y5.08
X173.99Y5.08
X179.07Y5.08
X133.985Y5.08
X139.065Y5.08
X70.485Y5.08
X75.565Y5.08
X160.655Y5.08
X165.735Y5.08
X83.82Y5.08
X88.9Y5.08
T7
X201.17Y-100.965
X204.81Y-100.965
X208.45Y-100.965
X212.09Y-100.965
X201.17Y-117.475
X204.81Y-117.475
X208.45Y-117.475
X212.09Y-117.475
T8
X34.925Y3.175
X214.63Y3.175
X214.63Y-139.7
X114.3Y-139.7
X211.455Y-73.025
X73.66Y-78.105
X214.63Y-27.305
X34.925Y-139.7
X139.7Y-35.052
X34.925Y-90.17
X142.24Y-139.7
X124.714Y3.175
X175.895Y-78.105
T0
M30
