G04 #@! TF.GenerationSoftware,KiCad,Pcbnew,(5.1.6)-1*
G04 #@! TF.CreationDate,2023-07-15T17:20:03+02:00*
G04 #@! TF.ProjectId,zone-controller,7a6f6e65-2d63-46f6-9e74-726f6c6c6572,rev?*
G04 #@! TF.SameCoordinates,Original*
G04 #@! TF.FileFunction,Paste,Bot*
G04 #@! TF.FilePolarity,Positive*
%FSLAX46Y46*%
G04 Gerber Fmt 4.6, Leading zero omitted, Abs format (unit mm)*
G04 Created by KiCad (PCBNEW (5.1.6)-1) date 2023-07-15 17:20:03*
%MOMM*%
%LPD*%
G01*
G04 APERTURE LIST*
%ADD10C,0.100000*%
%ADD11R,1.000000X1.000000*%
%ADD12R,2.500000X2.500000*%
%ADD13R,1.300000X2.000000*%
%ADD14R,2.000000X0.800000*%
%ADD15R,2.000000X0.500000*%
%ADD16R,0.800000X0.800000*%
G04 APERTURE END LIST*
D10*
G36*
X132222000Y-34406000D02*
G01*
X132222000Y-36206000D01*
X130922000Y-36206000D01*
X130922000Y-34406000D01*
X132222000Y-34406000D01*
G37*
G36*
X134762000Y-34406000D02*
G01*
X134762000Y-36206000D01*
X133462000Y-36206000D01*
X133462000Y-34406000D01*
X134762000Y-34406000D01*
G37*
G36*
X205628000Y-34152000D02*
G01*
X205628000Y-35952000D01*
X204328000Y-35952000D01*
X204328000Y-34152000D01*
X205628000Y-34152000D01*
G37*
G36*
X208168000Y-34152000D02*
G01*
X208168000Y-35952000D01*
X206868000Y-35952000D01*
X206868000Y-34152000D01*
X208168000Y-34152000D01*
G37*
G36*
X146954000Y-34406000D02*
G01*
X146954000Y-36206000D01*
X145654000Y-36206000D01*
X145654000Y-34406000D01*
X146954000Y-34406000D01*
G37*
G36*
X149494000Y-34406000D02*
G01*
X149494000Y-36206000D01*
X148194000Y-36206000D01*
X148194000Y-34406000D01*
X149494000Y-34406000D01*
G37*
G36*
X161686000Y-34406000D02*
G01*
X161686000Y-36206000D01*
X160386000Y-36206000D01*
X160386000Y-34406000D01*
X161686000Y-34406000D01*
G37*
G36*
X164226000Y-34406000D02*
G01*
X164226000Y-36206000D01*
X162926000Y-36206000D01*
X162926000Y-34406000D01*
X164226000Y-34406000D01*
G37*
G36*
X190896000Y-34406000D02*
G01*
X190896000Y-36206000D01*
X189596000Y-36206000D01*
X189596000Y-34406000D01*
X190896000Y-34406000D01*
G37*
G36*
X193436000Y-34406000D02*
G01*
X193436000Y-36206000D01*
X192136000Y-36206000D01*
X192136000Y-34406000D01*
X193436000Y-34406000D01*
G37*
G36*
X176418000Y-34406000D02*
G01*
X176418000Y-36206000D01*
X175118000Y-36206000D01*
X175118000Y-34406000D01*
X176418000Y-34406000D01*
G37*
G36*
X178958000Y-34406000D02*
G01*
X178958000Y-36206000D01*
X177658000Y-36206000D01*
X177658000Y-34406000D01*
X178958000Y-34406000D01*
G37*
D11*
X41148000Y-38030000D03*
X42098000Y-35830000D03*
X40198000Y-35830000D03*
D10*
G36*
X205725000Y-61860000D02*
G01*
X205725000Y-60060000D01*
X207025000Y-60060000D01*
X207025000Y-61860000D01*
X205725000Y-61860000D01*
G37*
G36*
X203185000Y-61860000D02*
G01*
X203185000Y-60060000D01*
X204485000Y-60060000D01*
X204485000Y-61860000D01*
X203185000Y-61860000D01*
G37*
G36*
X147305000Y-61860000D02*
G01*
X147305000Y-60060000D01*
X148605000Y-60060000D01*
X148605000Y-61860000D01*
X147305000Y-61860000D01*
G37*
G36*
X144765000Y-61860000D02*
G01*
X144765000Y-60060000D01*
X146065000Y-60060000D01*
X146065000Y-61860000D01*
X144765000Y-61860000D01*
G37*
G36*
X88885000Y-61860000D02*
G01*
X88885000Y-60060000D01*
X90185000Y-60060000D01*
X90185000Y-61860000D01*
X88885000Y-61860000D01*
G37*
G36*
X86345000Y-61860000D02*
G01*
X86345000Y-60060000D01*
X87645000Y-60060000D01*
X87645000Y-61860000D01*
X86345000Y-61860000D01*
G37*
G36*
X149875000Y-75300000D02*
G01*
X149875000Y-77100000D01*
X148575000Y-77100000D01*
X148575000Y-75300000D01*
X149875000Y-75300000D01*
G37*
G36*
X152415000Y-75300000D02*
G01*
X152415000Y-77100000D01*
X151115000Y-77100000D01*
X151115000Y-75300000D01*
X152415000Y-75300000D01*
G37*
G36*
X191120000Y-61860000D02*
G01*
X191120000Y-60060000D01*
X192420000Y-60060000D01*
X192420000Y-61860000D01*
X191120000Y-61860000D01*
G37*
G36*
X188580000Y-61860000D02*
G01*
X188580000Y-60060000D01*
X189880000Y-60060000D01*
X189880000Y-61860000D01*
X188580000Y-61860000D01*
G37*
G36*
X74280000Y-61860000D02*
G01*
X74280000Y-60060000D01*
X75580000Y-60060000D01*
X75580000Y-61860000D01*
X74280000Y-61860000D01*
G37*
G36*
X71740000Y-61860000D02*
G01*
X71740000Y-60060000D01*
X73040000Y-60060000D01*
X73040000Y-61860000D01*
X71740000Y-61860000D01*
G37*
G36*
X132345000Y-80660000D02*
G01*
X130545000Y-80660000D01*
X130545000Y-79360000D01*
X132345000Y-79360000D01*
X132345000Y-80660000D01*
G37*
G36*
X132345000Y-83200000D02*
G01*
X130545000Y-83200000D01*
X130545000Y-81900000D01*
X132345000Y-81900000D01*
X132345000Y-83200000D01*
G37*
G36*
X176515000Y-61860000D02*
G01*
X176515000Y-60060000D01*
X177815000Y-60060000D01*
X177815000Y-61860000D01*
X176515000Y-61860000D01*
G37*
G36*
X173975000Y-61860000D02*
G01*
X173975000Y-60060000D01*
X175275000Y-60060000D01*
X175275000Y-61860000D01*
X173975000Y-61860000D01*
G37*
G36*
X118095000Y-61860000D02*
G01*
X118095000Y-60060000D01*
X119395000Y-60060000D01*
X119395000Y-61860000D01*
X118095000Y-61860000D01*
G37*
G36*
X115555000Y-61860000D02*
G01*
X115555000Y-60060000D01*
X116855000Y-60060000D01*
X116855000Y-61860000D01*
X115555000Y-61860000D01*
G37*
G36*
X59675000Y-61860000D02*
G01*
X59675000Y-60060000D01*
X60975000Y-60060000D01*
X60975000Y-61860000D01*
X59675000Y-61860000D01*
G37*
G36*
X57135000Y-61860000D02*
G01*
X57135000Y-60060000D01*
X58435000Y-60060000D01*
X58435000Y-61860000D01*
X57135000Y-61860000D01*
G37*
G36*
X124090000Y-80660000D02*
G01*
X122290000Y-80660000D01*
X122290000Y-79360000D01*
X124090000Y-79360000D01*
X124090000Y-80660000D01*
G37*
G36*
X124090000Y-83200000D02*
G01*
X122290000Y-83200000D01*
X122290000Y-81900000D01*
X124090000Y-81900000D01*
X124090000Y-83200000D01*
G37*
G36*
X161910000Y-61860000D02*
G01*
X161910000Y-60060000D01*
X163210000Y-60060000D01*
X163210000Y-61860000D01*
X161910000Y-61860000D01*
G37*
G36*
X159370000Y-61860000D02*
G01*
X159370000Y-60060000D01*
X160670000Y-60060000D01*
X160670000Y-61860000D01*
X159370000Y-61860000D01*
G37*
G36*
X103490000Y-61860000D02*
G01*
X103490000Y-60060000D01*
X104790000Y-60060000D01*
X104790000Y-61860000D01*
X103490000Y-61860000D01*
G37*
G36*
X100950000Y-61860000D02*
G01*
X100950000Y-60060000D01*
X102250000Y-60060000D01*
X102250000Y-61860000D01*
X100950000Y-61860000D01*
G37*
G36*
X45070000Y-61860000D02*
G01*
X45070000Y-60060000D01*
X46370000Y-60060000D01*
X46370000Y-61860000D01*
X45070000Y-61860000D01*
G37*
G36*
X42530000Y-61860000D02*
G01*
X42530000Y-60060000D01*
X43830000Y-60060000D01*
X43830000Y-61860000D01*
X42530000Y-61860000D01*
G37*
D12*
X44355000Y1270000D03*
X48355000Y1270000D03*
D13*
X52860000Y-120015000D03*
X56360000Y-120015000D03*
X84229000Y-120015000D03*
X87729000Y-120015000D03*
D10*
G36*
X60975000Y-121655000D02*
G01*
X60975000Y-123455000D01*
X59675000Y-123455000D01*
X59675000Y-121655000D01*
X60975000Y-121655000D01*
G37*
G36*
X63515000Y-121655000D02*
G01*
X63515000Y-123455000D01*
X62215000Y-123455000D01*
X62215000Y-121655000D01*
X63515000Y-121655000D01*
G37*
D12*
X201105000Y1270000D03*
X205105000Y1270000D03*
D14*
X197705000Y-85725000D03*
X192185000Y-86995000D03*
X192185000Y-85725000D03*
X197705000Y-84455000D03*
X192185000Y-88265000D03*
X192185000Y-84455000D03*
X197705000Y-86995000D03*
X197705000Y-88265000D03*
D15*
X118422500Y-72375000D03*
D10*
G36*
X117422500Y-71325000D02*
G01*
X117422500Y-70825000D01*
X119422500Y-70825000D01*
X119422500Y-71325000D01*
X117422500Y-71325000D01*
G37*
D15*
X124147500Y-73025000D03*
X118422500Y-71725000D03*
X118422500Y-73675000D03*
X124147500Y-73675000D03*
X124147500Y-71725000D03*
X118422500Y-74975000D03*
X118422500Y-74325000D03*
X118422500Y-73025000D03*
X124147500Y-72375000D03*
X124147500Y-74325000D03*
X124147500Y-71075000D03*
X124147500Y-74975000D03*
X141800500Y-73675000D03*
D10*
G36*
X142800500Y-74725000D02*
G01*
X142800500Y-75225000D01*
X140800500Y-75225000D01*
X140800500Y-74725000D01*
X142800500Y-74725000D01*
G37*
D15*
X136075500Y-73025000D03*
X141800500Y-74325000D03*
X141800500Y-72375000D03*
X136075500Y-72375000D03*
X136075500Y-74325000D03*
X141800500Y-71075000D03*
X141800500Y-71725000D03*
X141800500Y-73025000D03*
X136075500Y-73675000D03*
X136075500Y-71725000D03*
X136075500Y-74975000D03*
X136075500Y-71075000D03*
D10*
G36*
X163460000Y-94630000D02*
G01*
X161660000Y-94630000D01*
X161660000Y-93330000D01*
X163460000Y-93330000D01*
X163460000Y-94630000D01*
G37*
G36*
X163460000Y-97170000D02*
G01*
X161660000Y-97170000D01*
X161660000Y-95870000D01*
X163460000Y-95870000D01*
X163460000Y-97170000D01*
G37*
G36*
X169175000Y-94630000D02*
G01*
X167375000Y-94630000D01*
X167375000Y-93330000D01*
X169175000Y-93330000D01*
X169175000Y-94630000D01*
G37*
G36*
X169175000Y-97170000D02*
G01*
X167375000Y-97170000D01*
X167375000Y-95870000D01*
X169175000Y-95870000D01*
X169175000Y-97170000D01*
G37*
G36*
X92725000Y-121782000D02*
G01*
X92725000Y-123582000D01*
X91425000Y-123582000D01*
X91425000Y-121782000D01*
X92725000Y-121782000D01*
G37*
G36*
X95265000Y-121782000D02*
G01*
X95265000Y-123582000D01*
X93965000Y-123582000D01*
X93965000Y-121782000D01*
X95265000Y-121782000D01*
G37*
G36*
X201945000Y-91175000D02*
G01*
X201945000Y-92975000D01*
X200645000Y-92975000D01*
X200645000Y-91175000D01*
X201945000Y-91175000D01*
G37*
G36*
X204485000Y-91175000D02*
G01*
X204485000Y-92975000D01*
X203185000Y-92975000D01*
X203185000Y-91175000D01*
X204485000Y-91175000D01*
G37*
G36*
X201945000Y-88635000D02*
G01*
X201945000Y-90435000D01*
X200645000Y-90435000D01*
X200645000Y-88635000D01*
X201945000Y-88635000D01*
G37*
G36*
X204485000Y-88635000D02*
G01*
X204485000Y-90435000D01*
X203185000Y-90435000D01*
X203185000Y-88635000D01*
X204485000Y-88635000D01*
G37*
G36*
X201945000Y-82285000D02*
G01*
X201945000Y-84085000D01*
X200645000Y-84085000D01*
X200645000Y-82285000D01*
X201945000Y-82285000D01*
G37*
G36*
X204485000Y-82285000D02*
G01*
X204485000Y-84085000D01*
X203185000Y-84085000D01*
X203185000Y-82285000D01*
X204485000Y-82285000D01*
G37*
G36*
X201945000Y-79745000D02*
G01*
X201945000Y-81545000D01*
X200645000Y-81545000D01*
X200645000Y-79745000D01*
X201945000Y-79745000D01*
G37*
G36*
X204485000Y-79745000D02*
G01*
X204485000Y-81545000D01*
X203185000Y-81545000D01*
X203185000Y-79745000D01*
X204485000Y-79745000D01*
G37*
G36*
X83809000Y-125842000D02*
G01*
X85609000Y-125842000D01*
X85609000Y-127142000D01*
X83809000Y-127142000D01*
X83809000Y-125842000D01*
G37*
G36*
X83809000Y-123302000D02*
G01*
X85609000Y-123302000D01*
X85609000Y-124602000D01*
X83809000Y-124602000D01*
X83809000Y-123302000D01*
G37*
G36*
X86980000Y-136790000D02*
G01*
X86980000Y-134990000D01*
X88280000Y-134990000D01*
X88280000Y-136790000D01*
X86980000Y-136790000D01*
G37*
G36*
X84440000Y-136790000D02*
G01*
X84440000Y-134990000D01*
X85740000Y-134990000D01*
X85740000Y-136790000D01*
X84440000Y-136790000D01*
G37*
G36*
X91324000Y-133111000D02*
G01*
X89524000Y-133111000D01*
X89524000Y-131811000D01*
X91324000Y-131811000D01*
X91324000Y-133111000D01*
G37*
G36*
X91324000Y-135651000D02*
G01*
X89524000Y-135651000D01*
X89524000Y-134351000D01*
X91324000Y-134351000D01*
X91324000Y-135651000D01*
G37*
G36*
X86853000Y-133107000D02*
G01*
X86853000Y-131307000D01*
X88153000Y-131307000D01*
X88153000Y-133107000D01*
X86853000Y-133107000D01*
G37*
G36*
X84313000Y-133107000D02*
G01*
X84313000Y-131307000D01*
X85613000Y-131307000D01*
X85613000Y-133107000D01*
X84313000Y-133107000D01*
G37*
G36*
X138318000Y-77205000D02*
G01*
X138318000Y-79005000D01*
X137018000Y-79005000D01*
X137018000Y-77205000D01*
X138318000Y-77205000D01*
G37*
G36*
X140858000Y-77205000D02*
G01*
X140858000Y-79005000D01*
X139558000Y-79005000D01*
X139558000Y-77205000D01*
X140858000Y-77205000D01*
G37*
G36*
X52440000Y-125715000D02*
G01*
X54240000Y-125715000D01*
X54240000Y-127015000D01*
X52440000Y-127015000D01*
X52440000Y-125715000D01*
G37*
G36*
X52440000Y-123175000D02*
G01*
X54240000Y-123175000D01*
X54240000Y-124475000D01*
X52440000Y-124475000D01*
X52440000Y-123175000D01*
G37*
G36*
X55230000Y-136155000D02*
G01*
X55230000Y-134355000D01*
X56530000Y-134355000D01*
X56530000Y-136155000D01*
X55230000Y-136155000D01*
G37*
G36*
X52690000Y-136155000D02*
G01*
X52690000Y-134355000D01*
X53990000Y-134355000D01*
X53990000Y-136155000D01*
X52690000Y-136155000D01*
G37*
G36*
X204100000Y-127269000D02*
G01*
X202300000Y-127269000D01*
X202300000Y-125969000D01*
X204100000Y-125969000D01*
X204100000Y-127269000D01*
G37*
G36*
X204100000Y-129809000D02*
G01*
X202300000Y-129809000D01*
X202300000Y-128509000D01*
X204100000Y-128509000D01*
X204100000Y-129809000D01*
G37*
G36*
X59320000Y-132730000D02*
G01*
X57520000Y-132730000D01*
X57520000Y-131430000D01*
X59320000Y-131430000D01*
X59320000Y-132730000D01*
G37*
G36*
X59320000Y-135270000D02*
G01*
X57520000Y-135270000D01*
X57520000Y-133970000D01*
X59320000Y-133970000D01*
X59320000Y-135270000D01*
G37*
G36*
X55230000Y-132980000D02*
G01*
X55230000Y-131180000D01*
X56530000Y-131180000D01*
X56530000Y-132980000D01*
X55230000Y-132980000D01*
G37*
G36*
X52690000Y-132980000D02*
G01*
X52690000Y-131180000D01*
X53990000Y-131180000D01*
X53990000Y-132980000D01*
X52690000Y-132980000D01*
G37*
G36*
X133615000Y-121300000D02*
G01*
X131815000Y-121300000D01*
X131815000Y-120000000D01*
X133615000Y-120000000D01*
X133615000Y-121300000D01*
G37*
G36*
X133615000Y-123840000D02*
G01*
X131815000Y-123840000D01*
X131815000Y-122540000D01*
X133615000Y-122540000D01*
X133615000Y-123840000D01*
G37*
G36*
X131815000Y-127620000D02*
G01*
X133615000Y-127620000D01*
X133615000Y-128920000D01*
X131815000Y-128920000D01*
X131815000Y-127620000D01*
G37*
G36*
X131815000Y-125080000D02*
G01*
X133615000Y-125080000D01*
X133615000Y-126380000D01*
X131815000Y-126380000D01*
X131815000Y-125080000D01*
G37*
G36*
X129525000Y-128662000D02*
G01*
X129525000Y-126862000D01*
X130825000Y-126862000D01*
X130825000Y-128662000D01*
X129525000Y-128662000D01*
G37*
G36*
X126985000Y-128662000D02*
G01*
X126985000Y-126862000D01*
X128285000Y-126862000D01*
X128285000Y-128662000D01*
X126985000Y-128662000D01*
G37*
D11*
X94234000Y-128962000D03*
X95184000Y-126762000D03*
X93284000Y-126762000D03*
X61595000Y-128835000D03*
X62545000Y-126635000D03*
X60645000Y-126635000D03*
D16*
X87249000Y-126492000D03*
X87249000Y-123952000D03*
X55880000Y-126365000D03*
X55880000Y-123825000D03*
D12*
X187865000Y1270000D03*
X191865000Y1270000D03*
X174530000Y1270000D03*
X178530000Y1270000D03*
X161195000Y1270000D03*
X165195000Y1270000D03*
X147860000Y1270000D03*
X151860000Y1270000D03*
X134525000Y1270000D03*
X138525000Y1270000D03*
X111030000Y1270000D03*
X115030000Y1270000D03*
X97695000Y1270000D03*
X101695000Y1270000D03*
X84360000Y1270000D03*
X88360000Y1270000D03*
X71025000Y1270000D03*
X75025000Y1270000D03*
X57690000Y1270000D03*
X61690000Y1270000D03*
D10*
G36*
X89524000Y-128509000D02*
G01*
X91324000Y-128509000D01*
X91324000Y-129809000D01*
X89524000Y-129809000D01*
X89524000Y-128509000D01*
G37*
G36*
X89524000Y-125969000D02*
G01*
X91324000Y-125969000D01*
X91324000Y-127269000D01*
X89524000Y-127269000D01*
X89524000Y-125969000D01*
G37*
G36*
X139558000Y-69480000D02*
G01*
X139558000Y-67680000D01*
X140858000Y-67680000D01*
X140858000Y-69480000D01*
X139558000Y-69480000D01*
G37*
G36*
X137018000Y-69480000D02*
G01*
X137018000Y-67680000D01*
X138318000Y-67680000D01*
X138318000Y-69480000D01*
X137018000Y-69480000D01*
G37*
G36*
X121905000Y-69480000D02*
G01*
X121905000Y-67680000D01*
X123205000Y-67680000D01*
X123205000Y-69480000D01*
X121905000Y-69480000D01*
G37*
G36*
X119365000Y-69480000D02*
G01*
X119365000Y-67680000D01*
X120665000Y-67680000D01*
X120665000Y-69480000D01*
X119365000Y-69480000D01*
G37*
G36*
X139558000Y-66940000D02*
G01*
X139558000Y-65140000D01*
X140858000Y-65140000D01*
X140858000Y-66940000D01*
X139558000Y-66940000D01*
G37*
G36*
X137018000Y-66940000D02*
G01*
X137018000Y-65140000D01*
X138318000Y-65140000D01*
X138318000Y-66940000D01*
X137018000Y-66940000D01*
G37*
G36*
X121905000Y-66940000D02*
G01*
X121905000Y-65140000D01*
X123205000Y-65140000D01*
X123205000Y-66940000D01*
X121905000Y-66940000D01*
G37*
G36*
X119365000Y-66940000D02*
G01*
X119365000Y-65140000D01*
X120665000Y-65140000D01*
X120665000Y-66940000D01*
X119365000Y-66940000D01*
G37*
G36*
X57520000Y-128890000D02*
G01*
X59320000Y-128890000D01*
X59320000Y-130190000D01*
X57520000Y-130190000D01*
X57520000Y-128890000D01*
G37*
G36*
X57520000Y-126350000D02*
G01*
X59320000Y-126350000D01*
X59320000Y-127650000D01*
X57520000Y-127650000D01*
X57520000Y-126350000D01*
G37*
G36*
X210555000Y-60310000D02*
G01*
X212355000Y-60310000D01*
X212355000Y-61610000D01*
X210555000Y-61610000D01*
X210555000Y-60310000D01*
G37*
G36*
X210555000Y-57770000D02*
G01*
X212355000Y-57770000D01*
X212355000Y-59070000D01*
X210555000Y-59070000D01*
X210555000Y-57770000D01*
G37*
G36*
X152135000Y-60310000D02*
G01*
X153935000Y-60310000D01*
X153935000Y-61610000D01*
X152135000Y-61610000D01*
X152135000Y-60310000D01*
G37*
G36*
X152135000Y-57770000D02*
G01*
X153935000Y-57770000D01*
X153935000Y-59070000D01*
X152135000Y-59070000D01*
X152135000Y-57770000D01*
G37*
G36*
X181345000Y-60310000D02*
G01*
X183145000Y-60310000D01*
X183145000Y-61610000D01*
X181345000Y-61610000D01*
X181345000Y-60310000D01*
G37*
G36*
X181345000Y-57770000D02*
G01*
X183145000Y-57770000D01*
X183145000Y-59070000D01*
X181345000Y-59070000D01*
X181345000Y-57770000D01*
G37*
G36*
X195950000Y-60310000D02*
G01*
X197750000Y-60310000D01*
X197750000Y-61610000D01*
X195950000Y-61610000D01*
X195950000Y-60310000D01*
G37*
G36*
X195950000Y-57770000D02*
G01*
X197750000Y-57770000D01*
X197750000Y-59070000D01*
X195950000Y-59070000D01*
X195950000Y-57770000D01*
G37*
G36*
X166740000Y-60310000D02*
G01*
X168540000Y-60310000D01*
X168540000Y-61610000D01*
X166740000Y-61610000D01*
X166740000Y-60310000D01*
G37*
G36*
X166740000Y-57770000D02*
G01*
X168540000Y-57770000D01*
X168540000Y-59070000D01*
X166740000Y-59070000D01*
X166740000Y-57770000D01*
G37*
G36*
X137530000Y-60310000D02*
G01*
X139330000Y-60310000D01*
X139330000Y-61610000D01*
X137530000Y-61610000D01*
X137530000Y-60310000D01*
G37*
G36*
X137530000Y-57770000D02*
G01*
X139330000Y-57770000D01*
X139330000Y-59070000D01*
X137530000Y-59070000D01*
X137530000Y-57770000D01*
G37*
G36*
X93715000Y-60310000D02*
G01*
X95515000Y-60310000D01*
X95515000Y-61610000D01*
X93715000Y-61610000D01*
X93715000Y-60310000D01*
G37*
G36*
X93715000Y-57770000D02*
G01*
X95515000Y-57770000D01*
X95515000Y-59070000D01*
X93715000Y-59070000D01*
X93715000Y-57770000D01*
G37*
G36*
X63870000Y-60310000D02*
G01*
X65670000Y-60310000D01*
X65670000Y-61610000D01*
X63870000Y-61610000D01*
X63870000Y-60310000D01*
G37*
G36*
X63870000Y-57770000D02*
G01*
X65670000Y-57770000D01*
X65670000Y-59070000D01*
X63870000Y-59070000D01*
X63870000Y-57770000D01*
G37*
G36*
X122925000Y-60310000D02*
G01*
X124725000Y-60310000D01*
X124725000Y-61610000D01*
X122925000Y-61610000D01*
X122925000Y-60310000D01*
G37*
G36*
X122925000Y-57770000D02*
G01*
X124725000Y-57770000D01*
X124725000Y-59070000D01*
X122925000Y-59070000D01*
X122925000Y-57770000D01*
G37*
G36*
X108955000Y-60310000D02*
G01*
X110755000Y-60310000D01*
X110755000Y-61610000D01*
X108955000Y-61610000D01*
X108955000Y-60310000D01*
G37*
G36*
X108955000Y-57770000D02*
G01*
X110755000Y-57770000D01*
X110755000Y-59070000D01*
X108955000Y-59070000D01*
X108955000Y-57770000D01*
G37*
G36*
X79110000Y-60310000D02*
G01*
X80910000Y-60310000D01*
X80910000Y-61610000D01*
X79110000Y-61610000D01*
X79110000Y-60310000D01*
G37*
G36*
X79110000Y-57770000D02*
G01*
X80910000Y-57770000D01*
X80910000Y-59070000D01*
X79110000Y-59070000D01*
X79110000Y-57770000D01*
G37*
G36*
X49900000Y-60310000D02*
G01*
X51700000Y-60310000D01*
X51700000Y-61610000D01*
X49900000Y-61610000D01*
X49900000Y-60310000D01*
G37*
G36*
X49900000Y-57770000D02*
G01*
X51700000Y-57770000D01*
X51700000Y-59070000D01*
X49900000Y-59070000D01*
X49900000Y-57770000D01*
G37*
G36*
X131815000Y-117460000D02*
G01*
X133615000Y-117460000D01*
X133615000Y-118760000D01*
X131815000Y-118760000D01*
X131815000Y-117460000D01*
G37*
G36*
X131815000Y-114920000D02*
G01*
X133615000Y-114920000D01*
X133615000Y-116220000D01*
X131815000Y-116220000D01*
X131815000Y-114920000D01*
G37*
M02*
