%FSLAX45Y45*%
G04 Gerber Fmt 4.5, Leading zero omitted, Abs format (unit mm)*
G04 Created by KiCad (PCBNEW (5.1.6)-1) date 2023-07-15 17:20:58*
%MOMM*%
%LPD*%
G01*
G04 APERTURE LIST*
%TA.AperFunction,Profile*%
%ADD10C,0.050000*%
%TD*%
%ADD11C,0.200000*%
%ADD12C,0.300000*%
G04 APERTURE END LIST*
D10*
X21082000Y-5143500D02*
X12776200Y-5143500D01*
X21082000Y-5397500D02*
X12776200Y-5397500D01*
X12776200Y-5397500D02*
G75*
G02*
X12776200Y-5143500I0J127000D01*
G01*
X12179300Y-5143500D02*
G75*
G02*
X12179300Y-5397500I0J-127000D01*
G01*
X21763000Y-11239500D02*
G75*
G03*
X21763000Y-11239500I-150000J0D01*
G01*
X21763000Y-10604500D02*
G75*
G03*
X21763000Y-10604500I-150000J0D01*
G01*
X19659600Y-3556000D02*
X19659600Y-3683000D01*
X19659600Y-3556000D02*
G75*
G02*
X19913600Y-3556000I127000J0D01*
G01*
X19913600Y-3683000D02*
G75*
G02*
X19659600Y-3683000I-127000J0D01*
G01*
X19913600Y-3556000D02*
X19913600Y-3683000D01*
X5270500Y-4953000D02*
G75*
G02*
X5016500Y-4953000I-127000J0D01*
G01*
X5016500Y-4826000D02*
G75*
G02*
X5270500Y-4826000I127000J0D01*
G01*
X5270500Y-4953000D02*
X5270500Y-4826000D01*
X5016500Y-4826000D02*
X5016500Y-4953000D01*
X4127500Y-5397500D02*
G75*
G02*
X4127500Y-5143500I0J127000D01*
G01*
X21082000Y-5143500D02*
G75*
G02*
X21082000Y-5397500I0J-127000D01*
G01*
X12179300Y-5397500D02*
X4127500Y-5397500D01*
X4127500Y-5143500D02*
X12179300Y-5143500D01*
X2966500Y-14478000D02*
X21966500Y-14478000D01*
X21966500Y841500D02*
X21966500Y-14478000D01*
X2966500Y841500D02*
X21966500Y841500D01*
X2966500Y841500D02*
X2966500Y-14478000D01*
D11*
X21399600Y-7899400D02*
X21729600Y-8229400D01*
X21729600Y-7899400D02*
X21399600Y-8229400D01*
X21399600Y-9042600D02*
X21729600Y-9372600D01*
X21729600Y-9042600D02*
X21399600Y-9372600D01*
D12*
X3250428Y-14946214D02*
X3250428Y-14646214D01*
X3321857Y-14646214D01*
X3364714Y-14660500D01*
X3393286Y-14689071D01*
X3407571Y-14717643D01*
X3421857Y-14774786D01*
X3421857Y-14817643D01*
X3407571Y-14874786D01*
X3393286Y-14903357D01*
X3364714Y-14931929D01*
X3321857Y-14946214D01*
X3250428Y-14946214D01*
X3550428Y-14946214D02*
X3550428Y-14746214D01*
X3550428Y-14803357D02*
X3564714Y-14774786D01*
X3579000Y-14760500D01*
X3607571Y-14746214D01*
X3636143Y-14746214D01*
X3736143Y-14946214D02*
X3736143Y-14746214D01*
X3736143Y-14646214D02*
X3721857Y-14660500D01*
X3736143Y-14674786D01*
X3750428Y-14660500D01*
X3736143Y-14646214D01*
X3736143Y-14674786D01*
X3921857Y-14946214D02*
X3893286Y-14931929D01*
X3879000Y-14903357D01*
X3879000Y-14646214D01*
X4079000Y-14946214D02*
X4050428Y-14931929D01*
X4036143Y-14903357D01*
X4036143Y-14646214D01*
X4421857Y-14946214D02*
X4421857Y-14646214D01*
X4521857Y-14860500D01*
X4621857Y-14646214D01*
X4621857Y-14946214D01*
X4893286Y-14946214D02*
X4893286Y-14789071D01*
X4879000Y-14760500D01*
X4850428Y-14746214D01*
X4793286Y-14746214D01*
X4764714Y-14760500D01*
X4893286Y-14931929D02*
X4864714Y-14946214D01*
X4793286Y-14946214D01*
X4764714Y-14931929D01*
X4750428Y-14903357D01*
X4750428Y-14874786D01*
X4764714Y-14846214D01*
X4793286Y-14831929D01*
X4864714Y-14831929D01*
X4893286Y-14817643D01*
X5036143Y-14746214D02*
X5036143Y-15046214D01*
X5036143Y-14760500D02*
X5064714Y-14746214D01*
X5121857Y-14746214D01*
X5150428Y-14760500D01*
X5164714Y-14774786D01*
X5179000Y-14803357D01*
X5179000Y-14889071D01*
X5164714Y-14917643D01*
X5150428Y-14931929D01*
X5121857Y-14946214D01*
X5064714Y-14946214D01*
X5036143Y-14931929D01*
X5307571Y-14917643D02*
X5321857Y-14931929D01*
X5307571Y-14946214D01*
X5293286Y-14931929D01*
X5307571Y-14917643D01*
X5307571Y-14946214D01*
X5307571Y-14760500D02*
X5321857Y-14774786D01*
X5307571Y-14789071D01*
X5293286Y-14774786D01*
X5307571Y-14760500D01*
X5307571Y-14789071D01*
X2634000Y-15275500D02*
X2964000Y-15605500D01*
X2964000Y-15275500D02*
X2634000Y-15605500D01*
X3221857Y-15276214D02*
X3407571Y-15276214D01*
X3307571Y-15390500D01*
X3350428Y-15390500D01*
X3379000Y-15404786D01*
X3393286Y-15419071D01*
X3407571Y-15447643D01*
X3407571Y-15519071D01*
X3393286Y-15547643D01*
X3379000Y-15561929D01*
X3350428Y-15576214D01*
X3264714Y-15576214D01*
X3236143Y-15561929D01*
X3221857Y-15547643D01*
X3536143Y-15547643D02*
X3550428Y-15561929D01*
X3536143Y-15576214D01*
X3521857Y-15561929D01*
X3536143Y-15547643D01*
X3536143Y-15576214D01*
X3650428Y-15276214D02*
X3836143Y-15276214D01*
X3736143Y-15390500D01*
X3779000Y-15390500D01*
X3807571Y-15404786D01*
X3821857Y-15419071D01*
X3836143Y-15447643D01*
X3836143Y-15519071D01*
X3821857Y-15547643D01*
X3807571Y-15561929D01*
X3779000Y-15576214D01*
X3693286Y-15576214D01*
X3664714Y-15561929D01*
X3650428Y-15547643D01*
X4021857Y-15276214D02*
X4050428Y-15276214D01*
X4079000Y-15290500D01*
X4093286Y-15304786D01*
X4107571Y-15333357D01*
X4121857Y-15390500D01*
X4121857Y-15461929D01*
X4107571Y-15519071D01*
X4093286Y-15547643D01*
X4079000Y-15561929D01*
X4050428Y-15576214D01*
X4021857Y-15576214D01*
X3993286Y-15561929D01*
X3979000Y-15547643D01*
X3964714Y-15519071D01*
X3950428Y-15461929D01*
X3950428Y-15390500D01*
X3964714Y-15333357D01*
X3979000Y-15304786D01*
X3993286Y-15290500D01*
X4021857Y-15276214D01*
X4250428Y-15576214D02*
X4250428Y-15376214D01*
X4250428Y-15404786D02*
X4264714Y-15390500D01*
X4293286Y-15376214D01*
X4336143Y-15376214D01*
X4364714Y-15390500D01*
X4379000Y-15419071D01*
X4379000Y-15576214D01*
X4379000Y-15419071D02*
X4393286Y-15390500D01*
X4421857Y-15376214D01*
X4464714Y-15376214D01*
X4493286Y-15390500D01*
X4507571Y-15419071D01*
X4507571Y-15576214D01*
X4650428Y-15576214D02*
X4650428Y-15376214D01*
X4650428Y-15404786D02*
X4664714Y-15390500D01*
X4693286Y-15376214D01*
X4736143Y-15376214D01*
X4764714Y-15390500D01*
X4779000Y-15419071D01*
X4779000Y-15576214D01*
X4779000Y-15419071D02*
X4793286Y-15390500D01*
X4821857Y-15376214D01*
X4864714Y-15376214D01*
X4893286Y-15390500D01*
X4907571Y-15419071D01*
X4907571Y-15576214D01*
X5493286Y-15261929D02*
X5236143Y-15647643D01*
X5879000Y-15276214D02*
X5907571Y-15276214D01*
X5936143Y-15290500D01*
X5950428Y-15304786D01*
X5964714Y-15333357D01*
X5979000Y-15390500D01*
X5979000Y-15461929D01*
X5964714Y-15519071D01*
X5950428Y-15547643D01*
X5936143Y-15561929D01*
X5907571Y-15576214D01*
X5879000Y-15576214D01*
X5850428Y-15561929D01*
X5836143Y-15547643D01*
X5821857Y-15519071D01*
X5807571Y-15461929D01*
X5807571Y-15390500D01*
X5821857Y-15333357D01*
X5836143Y-15304786D01*
X5850428Y-15290500D01*
X5879000Y-15276214D01*
X6107571Y-15547643D02*
X6121857Y-15561929D01*
X6107571Y-15576214D01*
X6093286Y-15561929D01*
X6107571Y-15547643D01*
X6107571Y-15576214D01*
X6407571Y-15576214D02*
X6236143Y-15576214D01*
X6321857Y-15576214D02*
X6321857Y-15276214D01*
X6293286Y-15319071D01*
X6264714Y-15347643D01*
X6236143Y-15361929D01*
X6507571Y-15276214D02*
X6693286Y-15276214D01*
X6593286Y-15390500D01*
X6636143Y-15390500D01*
X6664714Y-15404786D01*
X6679000Y-15419071D01*
X6693286Y-15447643D01*
X6693286Y-15519071D01*
X6679000Y-15547643D01*
X6664714Y-15561929D01*
X6636143Y-15576214D01*
X6550428Y-15576214D01*
X6521857Y-15561929D01*
X6507571Y-15547643D01*
X6879000Y-15276214D02*
X6907571Y-15276214D01*
X6936143Y-15290500D01*
X6950428Y-15304786D01*
X6964714Y-15333357D01*
X6979000Y-15390500D01*
X6979000Y-15461929D01*
X6964714Y-15519071D01*
X6950428Y-15547643D01*
X6936143Y-15561929D01*
X6907571Y-15576214D01*
X6879000Y-15576214D01*
X6850428Y-15561929D01*
X6836143Y-15547643D01*
X6821857Y-15519071D01*
X6807571Y-15461929D01*
X6807571Y-15390500D01*
X6821857Y-15333357D01*
X6836143Y-15304786D01*
X6850428Y-15290500D01*
X6879000Y-15276214D01*
X7093286Y-15276214D02*
X7093286Y-15333357D01*
X7207571Y-15276214D02*
X7207571Y-15333357D01*
X7650428Y-15690500D02*
X7636143Y-15676214D01*
X7607571Y-15633357D01*
X7593286Y-15604786D01*
X7579000Y-15561929D01*
X7564714Y-15490500D01*
X7564714Y-15433357D01*
X7579000Y-15361929D01*
X7593286Y-15319071D01*
X7607571Y-15290500D01*
X7636143Y-15247643D01*
X7650428Y-15233357D01*
X7750428Y-15304786D02*
X7764714Y-15290500D01*
X7793286Y-15276214D01*
X7864714Y-15276214D01*
X7893286Y-15290500D01*
X7907571Y-15304786D01*
X7921857Y-15333357D01*
X7921857Y-15361929D01*
X7907571Y-15404786D01*
X7736143Y-15576214D01*
X7921857Y-15576214D01*
X8279000Y-15576214D02*
X8279000Y-15276214D01*
X8407571Y-15576214D02*
X8407571Y-15419071D01*
X8393286Y-15390500D01*
X8364714Y-15376214D01*
X8321857Y-15376214D01*
X8293286Y-15390500D01*
X8279000Y-15404786D01*
X8593286Y-15576214D02*
X8564714Y-15561929D01*
X8550428Y-15547643D01*
X8536143Y-15519071D01*
X8536143Y-15433357D01*
X8550428Y-15404786D01*
X8564714Y-15390500D01*
X8593286Y-15376214D01*
X8636143Y-15376214D01*
X8664714Y-15390500D01*
X8679000Y-15404786D01*
X8693286Y-15433357D01*
X8693286Y-15519071D01*
X8679000Y-15547643D01*
X8664714Y-15561929D01*
X8636143Y-15576214D01*
X8593286Y-15576214D01*
X8864714Y-15576214D02*
X8836143Y-15561929D01*
X8821857Y-15533357D01*
X8821857Y-15276214D01*
X9093286Y-15561929D02*
X9064714Y-15576214D01*
X9007571Y-15576214D01*
X8979000Y-15561929D01*
X8964714Y-15533357D01*
X8964714Y-15419071D01*
X8979000Y-15390500D01*
X9007571Y-15376214D01*
X9064714Y-15376214D01*
X9093286Y-15390500D01*
X9107571Y-15419071D01*
X9107571Y-15447643D01*
X8964714Y-15476214D01*
X9221857Y-15561929D02*
X9250428Y-15576214D01*
X9307571Y-15576214D01*
X9336143Y-15561929D01*
X9350428Y-15533357D01*
X9350428Y-15519071D01*
X9336143Y-15490500D01*
X9307571Y-15476214D01*
X9264714Y-15476214D01*
X9236143Y-15461929D01*
X9221857Y-15433357D01*
X9221857Y-15419071D01*
X9236143Y-15390500D01*
X9264714Y-15376214D01*
X9307571Y-15376214D01*
X9336143Y-15390500D01*
X9450428Y-15690500D02*
X9464714Y-15676214D01*
X9493286Y-15633357D01*
X9507571Y-15604786D01*
X9521857Y-15561929D01*
X9536143Y-15490500D01*
X9536143Y-15433357D01*
X9521857Y-15361929D01*
X9507571Y-15319071D01*
X9493286Y-15290500D01*
X9464714Y-15247643D01*
X9450428Y-15233357D01*
X9993286Y-15690500D02*
X9979000Y-15676214D01*
X9950428Y-15633357D01*
X9936143Y-15604786D01*
X9921857Y-15561929D01*
X9907571Y-15490500D01*
X9907571Y-15433357D01*
X9921857Y-15361929D01*
X9936143Y-15319071D01*
X9950428Y-15290500D01*
X9979000Y-15247643D01*
X9993286Y-15233357D01*
X10107571Y-15376214D02*
X10107571Y-15576214D01*
X10107571Y-15404786D02*
X10121857Y-15390500D01*
X10150428Y-15376214D01*
X10193286Y-15376214D01*
X10221857Y-15390500D01*
X10236143Y-15419071D01*
X10236143Y-15576214D01*
X10421857Y-15576214D02*
X10393286Y-15561929D01*
X10379000Y-15547643D01*
X10364714Y-15519071D01*
X10364714Y-15433357D01*
X10379000Y-15404786D01*
X10393286Y-15390500D01*
X10421857Y-15376214D01*
X10464714Y-15376214D01*
X10493286Y-15390500D01*
X10507571Y-15404786D01*
X10521857Y-15433357D01*
X10521857Y-15519071D01*
X10507571Y-15547643D01*
X10493286Y-15561929D01*
X10464714Y-15576214D01*
X10421857Y-15576214D01*
X10607571Y-15376214D02*
X10721857Y-15376214D01*
X10650428Y-15276214D02*
X10650428Y-15533357D01*
X10664714Y-15561929D01*
X10693286Y-15576214D01*
X10721857Y-15576214D01*
X11050428Y-15376214D02*
X11050428Y-15676214D01*
X11050428Y-15390500D02*
X11079000Y-15376214D01*
X11136143Y-15376214D01*
X11164714Y-15390500D01*
X11179000Y-15404786D01*
X11193286Y-15433357D01*
X11193286Y-15519071D01*
X11179000Y-15547643D01*
X11164714Y-15561929D01*
X11136143Y-15576214D01*
X11079000Y-15576214D01*
X11050428Y-15561929D01*
X11364714Y-15576214D02*
X11336143Y-15561929D01*
X11321857Y-15533357D01*
X11321857Y-15276214D01*
X11607571Y-15576214D02*
X11607571Y-15419071D01*
X11593286Y-15390500D01*
X11564714Y-15376214D01*
X11507571Y-15376214D01*
X11479000Y-15390500D01*
X11607571Y-15561929D02*
X11579000Y-15576214D01*
X11507571Y-15576214D01*
X11479000Y-15561929D01*
X11464714Y-15533357D01*
X11464714Y-15504786D01*
X11479000Y-15476214D01*
X11507571Y-15461929D01*
X11579000Y-15461929D01*
X11607571Y-15447643D01*
X11707571Y-15376214D02*
X11821857Y-15376214D01*
X11750428Y-15276214D02*
X11750428Y-15533357D01*
X11764714Y-15561929D01*
X11793286Y-15576214D01*
X11821857Y-15576214D01*
X12036143Y-15561929D02*
X12007571Y-15576214D01*
X11950428Y-15576214D01*
X11921857Y-15561929D01*
X11907571Y-15533357D01*
X11907571Y-15419071D01*
X11921857Y-15390500D01*
X11950428Y-15376214D01*
X12007571Y-15376214D01*
X12036143Y-15390500D01*
X12050428Y-15419071D01*
X12050428Y-15447643D01*
X11907571Y-15476214D01*
X12307571Y-15576214D02*
X12307571Y-15276214D01*
X12307571Y-15561929D02*
X12279000Y-15576214D01*
X12221857Y-15576214D01*
X12193286Y-15561929D01*
X12179000Y-15547643D01*
X12164714Y-15519071D01*
X12164714Y-15433357D01*
X12179000Y-15404786D01*
X12193286Y-15390500D01*
X12221857Y-15376214D01*
X12279000Y-15376214D01*
X12307571Y-15390500D01*
X12421857Y-15690500D02*
X12436143Y-15676214D01*
X12464714Y-15633357D01*
X12479000Y-15604786D01*
X12493286Y-15561929D01*
X12507571Y-15490500D01*
X12507571Y-15433357D01*
X12493286Y-15361929D01*
X12479000Y-15319071D01*
X12464714Y-15290500D01*
X12436143Y-15247643D01*
X12421857Y-15233357D01*
M02*
