G04 #@! TF.GenerationSoftware,KiCad,Pcbnew,(5.1.6)-1*
G04 #@! TF.CreationDate,2023-07-15T17:20:03+02:00*
G04 #@! TF.ProjectId,zone-controller,7a6f6e65-2d63-46f6-9e74-726f6c6c6572,rev?*
G04 #@! TF.SameCoordinates,Original*
G04 #@! TF.FileFunction,Legend,Bot*
G04 #@! TF.FilePolarity,Positive*
%FSLAX46Y46*%
G04 Gerber Fmt 4.6, Leading zero omitted, Abs format (unit mm)*
G04 Created by KiCad (PCBNEW (5.1.6)-1) date 2023-07-15 17:20:03*
%MOMM*%
%LPD*%
G01*
G04 APERTURE LIST*
%ADD10C,0.500000*%
%ADD11C,0.160000*%
%ADD12C,0.120000*%
%ADD13C,0.900000*%
%ADD14C,0.100000*%
%ADD15R,1.100000X1.100000*%
%ADD16C,6.100000*%
%ADD17C,2.200000*%
%ADD18R,2.600000X2.600000*%
%ADD19R,1.400000X2.100000*%
%ADD20R,2.100000X2.100000*%
%ADD21C,2.100000*%
%ADD22R,3.600000X3.600000*%
%ADD23C,3.600000*%
%ADD24R,2.100000X0.900000*%
%ADD25R,2.100000X0.600000*%
%ADD26O,3.200000X3.200000*%
%ADD27R,3.200000X3.200000*%
%ADD28C,1.600000*%
%ADD29C,3.400000*%
%ADD30R,0.900000X0.900000*%
G04 APERTURE END LIST*
D10*
X202533571Y-20145238D02*
X203200238Y-18145238D01*
X203866904Y-20145238D01*
X205581190Y-18145238D02*
X204438333Y-18145238D01*
X205009761Y-18145238D02*
X205009761Y-20145238D01*
X204819285Y-19859523D01*
X204628809Y-19669047D01*
X204438333Y-19573809D01*
X206343095Y-19954761D02*
X206438333Y-20050000D01*
X206628809Y-20145238D01*
X207105000Y-20145238D01*
X207295476Y-20050000D01*
X207390714Y-19954761D01*
X207485952Y-19764285D01*
X207485952Y-19573809D01*
X207390714Y-19288095D01*
X206247857Y-18145238D01*
X207485952Y-18145238D01*
X187928571Y-20145238D02*
X188595238Y-18145238D01*
X189261904Y-20145238D01*
X190976190Y-18145238D02*
X189833333Y-18145238D01*
X190404761Y-18145238D02*
X190404761Y-20145238D01*
X190214285Y-19859523D01*
X190023809Y-19669047D01*
X189833333Y-19573809D01*
X192880952Y-18145238D02*
X191738095Y-18145238D01*
X192309523Y-18145238D02*
X192309523Y-20145238D01*
X192119047Y-19859523D01*
X191928571Y-19669047D01*
X191738095Y-19573809D01*
X173323571Y-20145238D02*
X173990238Y-18145238D01*
X174656904Y-20145238D01*
X176371190Y-18145238D02*
X175228333Y-18145238D01*
X175799761Y-18145238D02*
X175799761Y-20145238D01*
X175609285Y-19859523D01*
X175418809Y-19669047D01*
X175228333Y-19573809D01*
X177609285Y-20145238D02*
X177799761Y-20145238D01*
X177990238Y-20050000D01*
X178085476Y-19954761D01*
X178180714Y-19764285D01*
X178275952Y-19383333D01*
X178275952Y-18907142D01*
X178180714Y-18526190D01*
X178085476Y-18335714D01*
X177990238Y-18240476D01*
X177799761Y-18145238D01*
X177609285Y-18145238D01*
X177418809Y-18240476D01*
X177323571Y-18335714D01*
X177228333Y-18526190D01*
X177133095Y-18907142D01*
X177133095Y-19383333D01*
X177228333Y-19764285D01*
X177323571Y-19954761D01*
X177418809Y-20050000D01*
X177609285Y-20145238D01*
X159670952Y-20145238D02*
X160337619Y-18145238D01*
X161004285Y-20145238D01*
X161766190Y-18145238D02*
X162147142Y-18145238D01*
X162337619Y-18240476D01*
X162432857Y-18335714D01*
X162623333Y-18621428D01*
X162718571Y-19002380D01*
X162718571Y-19764285D01*
X162623333Y-19954761D01*
X162528095Y-20050000D01*
X162337619Y-20145238D01*
X161956666Y-20145238D01*
X161766190Y-20050000D01*
X161670952Y-19954761D01*
X161575714Y-19764285D01*
X161575714Y-19288095D01*
X161670952Y-19097619D01*
X161766190Y-19002380D01*
X161956666Y-18907142D01*
X162337619Y-18907142D01*
X162528095Y-19002380D01*
X162623333Y-19097619D01*
X162718571Y-19288095D01*
X145065952Y-20145238D02*
X145732619Y-18145238D01*
X146399285Y-20145238D01*
X147351666Y-19288095D02*
X147161190Y-19383333D01*
X147065952Y-19478571D01*
X146970714Y-19669047D01*
X146970714Y-19764285D01*
X147065952Y-19954761D01*
X147161190Y-20050000D01*
X147351666Y-20145238D01*
X147732619Y-20145238D01*
X147923095Y-20050000D01*
X148018333Y-19954761D01*
X148113571Y-19764285D01*
X148113571Y-19669047D01*
X148018333Y-19478571D01*
X147923095Y-19383333D01*
X147732619Y-19288095D01*
X147351666Y-19288095D01*
X147161190Y-19192857D01*
X147065952Y-19097619D01*
X146970714Y-18907142D01*
X146970714Y-18526190D01*
X147065952Y-18335714D01*
X147161190Y-18240476D01*
X147351666Y-18145238D01*
X147732619Y-18145238D01*
X147923095Y-18240476D01*
X148018333Y-18335714D01*
X148113571Y-18526190D01*
X148113571Y-18907142D01*
X148018333Y-19097619D01*
X147923095Y-19192857D01*
X147732619Y-19288095D01*
X130460952Y-20145238D02*
X131127619Y-18145238D01*
X131794285Y-20145238D01*
X132270476Y-20145238D02*
X133603809Y-20145238D01*
X132746666Y-18145238D01*
X115728952Y-19891238D02*
X116395619Y-17891238D01*
X117062285Y-19891238D01*
X118586095Y-19891238D02*
X118205142Y-19891238D01*
X118014666Y-19796000D01*
X117919428Y-19700761D01*
X117728952Y-19415047D01*
X117633714Y-19034095D01*
X117633714Y-18272190D01*
X117728952Y-18081714D01*
X117824190Y-17986476D01*
X118014666Y-17891238D01*
X118395619Y-17891238D01*
X118586095Y-17986476D01*
X118681333Y-18081714D01*
X118776571Y-18272190D01*
X118776571Y-18748380D01*
X118681333Y-18938857D01*
X118586095Y-19034095D01*
X118395619Y-19129333D01*
X118014666Y-19129333D01*
X117824190Y-19034095D01*
X117728952Y-18938857D01*
X117633714Y-18748380D01*
X101250952Y-19891238D02*
X101917619Y-17891238D01*
X102584285Y-19891238D01*
X104203333Y-19891238D02*
X103250952Y-19891238D01*
X103155714Y-18938857D01*
X103250952Y-19034095D01*
X103441428Y-19129333D01*
X103917619Y-19129333D01*
X104108095Y-19034095D01*
X104203333Y-18938857D01*
X104298571Y-18748380D01*
X104298571Y-18272190D01*
X104203333Y-18081714D01*
X104108095Y-17986476D01*
X103917619Y-17891238D01*
X103441428Y-17891238D01*
X103250952Y-17986476D01*
X103155714Y-18081714D01*
X86518952Y-19891238D02*
X87185619Y-17891238D01*
X87852285Y-19891238D01*
X89376095Y-19224571D02*
X89376095Y-17891238D01*
X88899904Y-19986476D02*
X88423714Y-18557904D01*
X89661809Y-18557904D01*
X72040952Y-19891238D02*
X72707619Y-17891238D01*
X73374285Y-19891238D01*
X73850476Y-19891238D02*
X75088571Y-19891238D01*
X74421904Y-19129333D01*
X74707619Y-19129333D01*
X74898095Y-19034095D01*
X74993333Y-18938857D01*
X75088571Y-18748380D01*
X75088571Y-18272190D01*
X74993333Y-18081714D01*
X74898095Y-17986476D01*
X74707619Y-17891238D01*
X74136190Y-17891238D01*
X73945714Y-17986476D01*
X73850476Y-18081714D01*
X57308952Y-19891238D02*
X57975619Y-17891238D01*
X58642285Y-19891238D01*
X59213714Y-19700761D02*
X59308952Y-19796000D01*
X59499428Y-19891238D01*
X59975619Y-19891238D01*
X60166095Y-19796000D01*
X60261333Y-19700761D01*
X60356571Y-19510285D01*
X60356571Y-19319809D01*
X60261333Y-19034095D01*
X59118476Y-17891238D01*
X60356571Y-17891238D01*
X42830952Y-19891238D02*
X43497619Y-17891238D01*
X44164285Y-19891238D01*
X45878571Y-17891238D02*
X44735714Y-17891238D01*
X45307142Y-17891238D02*
X45307142Y-19891238D01*
X45116666Y-19605523D01*
X44926190Y-19415047D01*
X44735714Y-19319809D01*
X179102000Y-97107238D02*
X179482952Y-97107238D01*
X179673428Y-97012000D01*
X179863904Y-96821523D01*
X179959142Y-96440571D01*
X179959142Y-95773904D01*
X179863904Y-95392952D01*
X179673428Y-95202476D01*
X179482952Y-95107238D01*
X179102000Y-95107238D01*
X178911523Y-95202476D01*
X178721047Y-95392952D01*
X178625809Y-95773904D01*
X178625809Y-96440571D01*
X178721047Y-96821523D01*
X178911523Y-97012000D01*
X179102000Y-97107238D01*
X180816285Y-97107238D02*
X180816285Y-95488190D01*
X180911523Y-95297714D01*
X181006761Y-95202476D01*
X181197238Y-95107238D01*
X181578190Y-95107238D01*
X181768666Y-95202476D01*
X181863904Y-95297714D01*
X181959142Y-95488190D01*
X181959142Y-97107238D01*
X182625809Y-97107238D02*
X183768666Y-97107238D01*
X183197238Y-95107238D02*
X183197238Y-97107238D01*
D11*
X130642000Y-36486000D02*
X135042000Y-36486000D01*
X135042000Y-36486000D02*
X135042000Y-34126000D01*
X135042000Y-34126000D02*
X130642000Y-34126000D01*
X130642000Y-34126000D02*
X130642000Y-36486000D01*
X204048000Y-36232000D02*
X208448000Y-36232000D01*
X208448000Y-36232000D02*
X208448000Y-33872000D01*
X208448000Y-33872000D02*
X204048000Y-33872000D01*
X204048000Y-33872000D02*
X204048000Y-36232000D01*
X145374000Y-36486000D02*
X149774000Y-36486000D01*
X149774000Y-36486000D02*
X149774000Y-34126000D01*
X149774000Y-34126000D02*
X145374000Y-34126000D01*
X145374000Y-34126000D02*
X145374000Y-36486000D01*
X160106000Y-36486000D02*
X164506000Y-36486000D01*
X164506000Y-36486000D02*
X164506000Y-34126000D01*
X164506000Y-34126000D02*
X160106000Y-34126000D01*
X160106000Y-34126000D02*
X160106000Y-36486000D01*
X189316000Y-36486000D02*
X193716000Y-36486000D01*
X193716000Y-36486000D02*
X193716000Y-34126000D01*
X193716000Y-34126000D02*
X189316000Y-34126000D01*
X189316000Y-34126000D02*
X189316000Y-36486000D01*
X174838000Y-36486000D02*
X179238000Y-36486000D01*
X179238000Y-36486000D02*
X179238000Y-34126000D01*
X179238000Y-34126000D02*
X174838000Y-34126000D01*
X174838000Y-34126000D02*
X174838000Y-36486000D01*
X40894000Y-35941000D02*
X41402000Y-35941000D01*
X42799000Y-37590000D02*
X41869000Y-37590000D01*
X39497000Y-37590000D02*
X40427000Y-37590000D01*
X39497000Y-37590000D02*
X39497000Y-36068000D01*
X42799000Y-37590000D02*
X42799000Y-36130000D01*
X207305000Y-59780000D02*
X202905000Y-59780000D01*
X202905000Y-59780000D02*
X202905000Y-62140000D01*
X202905000Y-62140000D02*
X207305000Y-62140000D01*
X207305000Y-62140000D02*
X207305000Y-59780000D01*
X148885000Y-59780000D02*
X144485000Y-59780000D01*
X144485000Y-59780000D02*
X144485000Y-62140000D01*
X144485000Y-62140000D02*
X148885000Y-62140000D01*
X148885000Y-62140000D02*
X148885000Y-59780000D01*
X90465000Y-59780000D02*
X86065000Y-59780000D01*
X86065000Y-59780000D02*
X86065000Y-62140000D01*
X86065000Y-62140000D02*
X90465000Y-62140000D01*
X90465000Y-62140000D02*
X90465000Y-59780000D01*
X148295000Y-77380000D02*
X152695000Y-77380000D01*
X152695000Y-77380000D02*
X152695000Y-75020000D01*
X152695000Y-75020000D02*
X148295000Y-75020000D01*
X148295000Y-75020000D02*
X148295000Y-77380000D01*
X192700000Y-59780000D02*
X188300000Y-59780000D01*
X188300000Y-59780000D02*
X188300000Y-62140000D01*
X188300000Y-62140000D02*
X192700000Y-62140000D01*
X192700000Y-62140000D02*
X192700000Y-59780000D01*
X75860000Y-59780000D02*
X71460000Y-59780000D01*
X71460000Y-59780000D02*
X71460000Y-62140000D01*
X71460000Y-62140000D02*
X75860000Y-62140000D01*
X75860000Y-62140000D02*
X75860000Y-59780000D01*
X130265000Y-79080000D02*
X130265000Y-83480000D01*
X130265000Y-83480000D02*
X132625000Y-83480000D01*
X132625000Y-83480000D02*
X132625000Y-79080000D01*
X132625000Y-79080000D02*
X130265000Y-79080000D01*
X178095000Y-59780000D02*
X173695000Y-59780000D01*
X173695000Y-59780000D02*
X173695000Y-62140000D01*
X173695000Y-62140000D02*
X178095000Y-62140000D01*
X178095000Y-62140000D02*
X178095000Y-59780000D01*
X119675000Y-59780000D02*
X115275000Y-59780000D01*
X115275000Y-59780000D02*
X115275000Y-62140000D01*
X115275000Y-62140000D02*
X119675000Y-62140000D01*
X119675000Y-62140000D02*
X119675000Y-59780000D01*
X61255000Y-59780000D02*
X56855000Y-59780000D01*
X56855000Y-59780000D02*
X56855000Y-62140000D01*
X56855000Y-62140000D02*
X61255000Y-62140000D01*
X61255000Y-62140000D02*
X61255000Y-59780000D01*
X122010000Y-79080000D02*
X122010000Y-83480000D01*
X122010000Y-83480000D02*
X124370000Y-83480000D01*
X124370000Y-83480000D02*
X124370000Y-79080000D01*
X124370000Y-79080000D02*
X122010000Y-79080000D01*
X163490000Y-59780000D02*
X159090000Y-59780000D01*
X159090000Y-59780000D02*
X159090000Y-62140000D01*
X159090000Y-62140000D02*
X163490000Y-62140000D01*
X163490000Y-62140000D02*
X163490000Y-59780000D01*
X105070000Y-59780000D02*
X100670000Y-59780000D01*
X100670000Y-59780000D02*
X100670000Y-62140000D01*
X100670000Y-62140000D02*
X105070000Y-62140000D01*
X105070000Y-62140000D02*
X105070000Y-59780000D01*
X46650000Y-59780000D02*
X42250000Y-59780000D01*
X42250000Y-59780000D02*
X42250000Y-62140000D01*
X42250000Y-62140000D02*
X46650000Y-62140000D01*
X46650000Y-62140000D02*
X46650000Y-59780000D01*
X46923000Y-22005000D02*
X45720000Y-22005000D01*
X42926000Y-22005000D02*
X41723000Y-22005000D01*
X42926000Y-32605000D02*
X41723000Y-32605000D01*
X46923000Y-32605000D02*
X45720000Y-32605000D01*
X41723000Y-22005000D02*
X41723000Y-32605000D01*
X46923000Y-32605000D02*
X46923000Y-22005000D01*
X61539540Y-22005000D02*
X60336540Y-22005000D01*
X57542540Y-22005000D02*
X56339540Y-22005000D01*
X57542540Y-32605000D02*
X56339540Y-32605000D01*
X61539540Y-32605000D02*
X60336540Y-32605000D01*
X56339540Y-22005000D02*
X56339540Y-32605000D01*
X61539540Y-32605000D02*
X61539540Y-22005000D01*
X49911000Y2921000D02*
X44355000Y2920000D01*
X49911000Y2921000D02*
X49911000Y-379000D01*
X49911000Y-379000D02*
X44355000Y-380000D01*
X149238818Y-22005000D02*
X148035818Y-22005000D01*
X145241818Y-22005000D02*
X144038818Y-22005000D01*
X145241818Y-32605000D02*
X144038818Y-32605000D01*
X149238818Y-32605000D02*
X148035818Y-32605000D01*
X144038818Y-22005000D02*
X144038818Y-32605000D01*
X149238818Y-32605000D02*
X149238818Y-22005000D01*
X120005727Y-22005000D02*
X118802727Y-22005000D01*
X116008727Y-22005000D02*
X114805727Y-22005000D01*
X116008727Y-32605000D02*
X114805727Y-32605000D01*
X120005727Y-32605000D02*
X118802727Y-32605000D01*
X114805727Y-22005000D02*
X114805727Y-32605000D01*
X120005727Y-32605000D02*
X120005727Y-22005000D01*
X134622273Y-22005000D02*
X133419273Y-22005000D01*
X130625273Y-22005000D02*
X129422273Y-22005000D01*
X130625273Y-32605000D02*
X129422273Y-32605000D01*
X134622273Y-32605000D02*
X133419273Y-32605000D01*
X129422273Y-22005000D02*
X129422273Y-32605000D01*
X134622273Y-32605000D02*
X134622273Y-22005000D01*
X207705000Y-22005000D02*
X206502000Y-22005000D01*
X203708000Y-22005000D02*
X202505000Y-22005000D01*
X203708000Y-32605000D02*
X202505000Y-32605000D01*
X207705000Y-32605000D02*
X206502000Y-32605000D01*
X202505000Y-22005000D02*
X202505000Y-32605000D01*
X207705000Y-32605000D02*
X207705000Y-22005000D01*
X193088455Y-22005000D02*
X191885455Y-22005000D01*
X189091455Y-22005000D02*
X187888455Y-22005000D01*
X189091455Y-32605000D02*
X187888455Y-32605000D01*
X193088455Y-32605000D02*
X191885455Y-32605000D01*
X187888455Y-22005000D02*
X187888455Y-32605000D01*
X193088455Y-32605000D02*
X193088455Y-22005000D01*
X178471909Y-22005000D02*
X177268909Y-22005000D01*
X174474909Y-22005000D02*
X173271909Y-22005000D01*
X174474909Y-32605000D02*
X173271909Y-32605000D01*
X178471909Y-32605000D02*
X177268909Y-32605000D01*
X173271909Y-22005000D02*
X173271909Y-32605000D01*
X178471909Y-32605000D02*
X178471909Y-22005000D01*
X163855364Y-22005000D02*
X162652364Y-22005000D01*
X159858364Y-22005000D02*
X158655364Y-22005000D01*
X159858364Y-32605000D02*
X158655364Y-32605000D01*
X163855364Y-32605000D02*
X162652364Y-32605000D01*
X158655364Y-22005000D02*
X158655364Y-32605000D01*
X163855364Y-32605000D02*
X163855364Y-22005000D01*
X105389182Y-22005000D02*
X104186182Y-22005000D01*
X101392182Y-22005000D02*
X100189182Y-22005000D01*
X101392182Y-32605000D02*
X100189182Y-32605000D01*
X105389182Y-32605000D02*
X104186182Y-32605000D01*
X100189182Y-22005000D02*
X100189182Y-32605000D01*
X105389182Y-32605000D02*
X105389182Y-22005000D01*
X90772636Y-22005000D02*
X89569636Y-22005000D01*
X86775636Y-22005000D02*
X85572636Y-22005000D01*
X86775636Y-32605000D02*
X85572636Y-32605000D01*
X90772636Y-32605000D02*
X89569636Y-32605000D01*
X85572636Y-22005000D02*
X85572636Y-32605000D01*
X90772636Y-32605000D02*
X90772636Y-22005000D01*
X76156091Y-22005000D02*
X74953091Y-22005000D01*
X72159091Y-22005000D02*
X70956091Y-22005000D01*
X72159091Y-32605000D02*
X70956091Y-32605000D01*
X76156091Y-32605000D02*
X74953091Y-32605000D01*
X70956091Y-22005000D02*
X70956091Y-32605000D01*
X76156091Y-32605000D02*
X76156091Y-22005000D01*
X183829000Y-98840000D02*
X182626000Y-98840000D01*
X179832000Y-98840000D02*
X178629000Y-98840000D01*
X179832000Y-109440000D02*
X178629000Y-109440000D01*
X183829000Y-109440000D02*
X182626000Y-109440000D01*
X178629000Y-98840000D02*
X178629000Y-109440000D01*
X183829000Y-109440000D02*
X183829000Y-98840000D01*
X56360000Y-121285000D02*
X51816000Y-121285000D01*
X51816000Y-118745000D02*
X56360000Y-118745000D01*
X51816000Y-121285000D02*
X51816000Y-118745000D01*
X87729000Y-121285000D02*
X83185000Y-121285000D01*
X83185000Y-118745000D02*
X87729000Y-118745000D01*
X83185000Y-121285000D02*
X83185000Y-118745000D01*
X59395000Y-123735000D02*
X63795000Y-123735000D01*
X63795000Y-123735000D02*
X63795000Y-121375000D01*
X63795000Y-121375000D02*
X59395000Y-121375000D01*
X59395000Y-121375000D02*
X59395000Y-123735000D01*
X46823000Y-42545000D02*
G75*
G03*
X46823000Y-42545000I-2500000J0D01*
G01*
X41763000Y-44090000D02*
X41763000Y-41000000D01*
X47313000Y-42545462D02*
G75*
G03*
X41763000Y-41000170I-2990000J462D01*
G01*
X47313000Y-42544538D02*
G75*
G02*
X41763000Y-44089830I-2990000J-462D01*
G01*
X206661000Y2921000D02*
X201105000Y2920000D01*
X206661000Y2921000D02*
X206661000Y-379000D01*
X206661000Y-379000D02*
X201105000Y-380000D01*
X197670000Y-89085000D02*
X192220000Y-89085000D01*
X197670000Y-89085000D02*
X197670000Y-88900000D01*
X192220000Y-83635000D02*
X192220000Y-83820000D01*
X192220000Y-89085000D02*
X192220000Y-88900000D01*
X198501000Y-83635000D02*
X192220000Y-83635000D01*
D12*
X197993000Y-83058000D02*
G75*
G03*
X197993000Y-83058000I-254000J0D01*
G01*
X197918605Y-83058000D02*
G75*
G03*
X197918605Y-83058000I-179605J0D01*
G01*
X197866000Y-83058000D02*
G75*
G03*
X197866000Y-83058000I-127000J0D01*
G01*
X197795796Y-83058000D02*
G75*
G03*
X197795796Y-83058000I-56796J0D01*
G01*
X118491000Y-76009500D02*
G75*
G03*
X118491000Y-76009500I-63500J0D01*
G01*
X118554500Y-76009500D02*
G75*
G03*
X118554500Y-76009500I-127000J0D01*
G01*
X118618000Y-76009500D02*
G75*
G03*
X118618000Y-76009500I-190500J0D01*
G01*
D11*
X123485000Y-70415000D02*
X119085000Y-70415000D01*
X123485000Y-75635000D02*
X117685000Y-75635000D01*
D12*
X141859000Y-70040500D02*
G75*
G03*
X141859000Y-70040500I-63500J0D01*
G01*
X141922500Y-70040500D02*
G75*
G03*
X141922500Y-70040500I-127000J0D01*
G01*
X141986000Y-70040500D02*
G75*
G03*
X141986000Y-70040500I-190500J0D01*
G01*
D11*
X136738000Y-75635000D02*
X141138000Y-75635000D01*
X136738000Y-70415000D02*
X142538000Y-70415000D01*
X161380000Y-93050000D02*
X161380000Y-97450000D01*
X161380000Y-97450000D02*
X163740000Y-97450000D01*
X163740000Y-97450000D02*
X163740000Y-93050000D01*
X163740000Y-93050000D02*
X161380000Y-93050000D01*
X167095000Y-93050000D02*
X167095000Y-97450000D01*
X167095000Y-97450000D02*
X169455000Y-97450000D01*
X169455000Y-97450000D02*
X169455000Y-93050000D01*
X169455000Y-93050000D02*
X167095000Y-93050000D01*
X91145000Y-123862000D02*
X95545000Y-123862000D01*
X95545000Y-123862000D02*
X95545000Y-121502000D01*
X95545000Y-121502000D02*
X91145000Y-121502000D01*
X91145000Y-121502000D02*
X91145000Y-123862000D01*
X200365000Y-93255000D02*
X204765000Y-93255000D01*
X204765000Y-93255000D02*
X204765000Y-90895000D01*
X204765000Y-90895000D02*
X200365000Y-90895000D01*
X200365000Y-90895000D02*
X200365000Y-93255000D01*
X200365000Y-90715000D02*
X204765000Y-90715000D01*
X204765000Y-90715000D02*
X204765000Y-88355000D01*
X204765000Y-88355000D02*
X200365000Y-88355000D01*
X200365000Y-88355000D02*
X200365000Y-90715000D01*
X200365000Y-84365000D02*
X204765000Y-84365000D01*
X204765000Y-84365000D02*
X204765000Y-82005000D01*
X204765000Y-82005000D02*
X200365000Y-82005000D01*
X200365000Y-82005000D02*
X200365000Y-84365000D01*
X200365000Y-81825000D02*
X204765000Y-81825000D01*
X204765000Y-81825000D02*
X204765000Y-79465000D01*
X204765000Y-79465000D02*
X200365000Y-79465000D01*
X200365000Y-79465000D02*
X200365000Y-81825000D01*
X85889000Y-127422000D02*
X85889000Y-123022000D01*
X85889000Y-123022000D02*
X83529000Y-123022000D01*
X83529000Y-123022000D02*
X83529000Y-127422000D01*
X83529000Y-127422000D02*
X85889000Y-127422000D01*
X88560000Y-134710000D02*
X84160000Y-134710000D01*
X84160000Y-134710000D02*
X84160000Y-137070000D01*
X84160000Y-137070000D02*
X88560000Y-137070000D01*
X88560000Y-137070000D02*
X88560000Y-134710000D01*
X89244000Y-131531000D02*
X89244000Y-135931000D01*
X89244000Y-135931000D02*
X91604000Y-135931000D01*
X91604000Y-135931000D02*
X91604000Y-131531000D01*
X91604000Y-131531000D02*
X89244000Y-131531000D01*
X88433000Y-131027000D02*
X84033000Y-131027000D01*
X84033000Y-131027000D02*
X84033000Y-133387000D01*
X84033000Y-133387000D02*
X88433000Y-133387000D01*
X88433000Y-133387000D02*
X88433000Y-131027000D01*
X136738000Y-79285000D02*
X141138000Y-79285000D01*
X141138000Y-79285000D02*
X141138000Y-76925000D01*
X141138000Y-76925000D02*
X136738000Y-76925000D01*
X136738000Y-76925000D02*
X136738000Y-79285000D01*
X54520000Y-127295000D02*
X54520000Y-122895000D01*
X54520000Y-122895000D02*
X52160000Y-122895000D01*
X52160000Y-122895000D02*
X52160000Y-127295000D01*
X52160000Y-127295000D02*
X54520000Y-127295000D01*
X56810000Y-134075000D02*
X52410000Y-134075000D01*
X52410000Y-134075000D02*
X52410000Y-136435000D01*
X52410000Y-136435000D02*
X56810000Y-136435000D01*
X56810000Y-136435000D02*
X56810000Y-134075000D01*
X202020000Y-125689000D02*
X202020000Y-130089000D01*
X202020000Y-130089000D02*
X204380000Y-130089000D01*
X204380000Y-130089000D02*
X204380000Y-125689000D01*
X204380000Y-125689000D02*
X202020000Y-125689000D01*
X57240000Y-131150000D02*
X57240000Y-135550000D01*
X57240000Y-135550000D02*
X59600000Y-135550000D01*
X59600000Y-135550000D02*
X59600000Y-131150000D01*
X59600000Y-131150000D02*
X57240000Y-131150000D01*
X56810000Y-130900000D02*
X52410000Y-130900000D01*
X52410000Y-130900000D02*
X52410000Y-133260000D01*
X52410000Y-133260000D02*
X56810000Y-133260000D01*
X56810000Y-133260000D02*
X56810000Y-130900000D01*
X131535000Y-119720000D02*
X131535000Y-124120000D01*
X131535000Y-124120000D02*
X133895000Y-124120000D01*
X133895000Y-124120000D02*
X133895000Y-119720000D01*
X133895000Y-119720000D02*
X131535000Y-119720000D01*
X133895000Y-129200000D02*
X133895000Y-124800000D01*
X133895000Y-124800000D02*
X131535000Y-124800000D01*
X131535000Y-124800000D02*
X131535000Y-129200000D01*
X131535000Y-129200000D02*
X133895000Y-129200000D01*
X131105000Y-126582000D02*
X126705000Y-126582000D01*
X126705000Y-126582000D02*
X126705000Y-128942000D01*
X126705000Y-128942000D02*
X131105000Y-128942000D01*
X131105000Y-128942000D02*
X131105000Y-126582000D01*
X93980000Y-126873000D02*
X94488000Y-126873000D01*
X95885000Y-128522000D02*
X94955000Y-128522000D01*
X92583000Y-128522000D02*
X93513000Y-128522000D01*
X92583000Y-128522000D02*
X92583000Y-127000000D01*
X95885000Y-128522000D02*
X95885000Y-127062000D01*
X61341000Y-126746000D02*
X61849000Y-126746000D01*
X63246000Y-128395000D02*
X62316000Y-128395000D01*
X59944000Y-128395000D02*
X60874000Y-128395000D01*
X59944000Y-128395000D02*
X59944000Y-126873000D01*
X63246000Y-128395000D02*
X63246000Y-126935000D01*
X107964000Y-128000000D02*
G75*
G03*
X107964000Y-128000000I-2500000J0D01*
G01*
X102904000Y-129545000D02*
X102904000Y-126455000D01*
X108454000Y-128000462D02*
G75*
G03*
X102904000Y-126455170I-2990000J462D01*
G01*
X108454000Y-127999538D02*
G75*
G02*
X102904000Y-129544830I-2990000J-462D01*
G01*
X88099000Y-127190500D02*
X88099000Y-124172000D01*
X86399000Y-127190500D02*
X86399000Y-124172000D01*
X88099000Y-127190500D02*
X86399000Y-127190500D01*
X69964000Y-128000000D02*
G75*
G03*
X69964000Y-128000000I-2500000J0D01*
G01*
X64904000Y-129545000D02*
X64904000Y-126455000D01*
X70454000Y-128000462D02*
G75*
G03*
X64904000Y-126455170I-2990000J462D01*
G01*
X70454000Y-127999538D02*
G75*
G02*
X64904000Y-129544830I-2990000J-462D01*
G01*
X183964000Y-119380000D02*
G75*
G03*
X183964000Y-119380000I-2500000J0D01*
G01*
X178904000Y-120925000D02*
X178904000Y-117835000D01*
X184454000Y-119380462D02*
G75*
G03*
X178904000Y-117835170I-2990000J462D01*
G01*
X184454000Y-119379538D02*
G75*
G02*
X178904000Y-120924830I-2990000J-462D01*
G01*
X56730000Y-127063500D02*
X56730000Y-124045000D01*
X55030000Y-127063500D02*
X55030000Y-124045000D01*
X56730000Y-127063500D02*
X55030000Y-127063500D01*
X183964000Y-128000000D02*
G75*
G03*
X183964000Y-128000000I-2500000J0D01*
G01*
X178904000Y-129545000D02*
X178904000Y-126455000D01*
X184454000Y-128000462D02*
G75*
G03*
X178904000Y-126455170I-2990000J462D01*
G01*
X184454000Y-127999538D02*
G75*
G02*
X178904000Y-129544830I-2990000J-462D01*
G01*
X207605000Y-42545000D02*
G75*
G03*
X207605000Y-42545000I-2500000J0D01*
G01*
X202545000Y-44090000D02*
X202545000Y-41000000D01*
X208095000Y-42545462D02*
G75*
G03*
X202545000Y-41000170I-2990000J462D01*
G01*
X208095000Y-42544538D02*
G75*
G02*
X202545000Y-44089830I-2990000J-462D01*
G01*
X192988455Y-42545000D02*
G75*
G03*
X192988455Y-42545000I-2500000J0D01*
G01*
X187928455Y-44090000D02*
X187928455Y-41000000D01*
X193478455Y-42545462D02*
G75*
G03*
X187928455Y-41000170I-2990000J462D01*
G01*
X193478455Y-42544538D02*
G75*
G02*
X187928455Y-44089830I-2990000J-462D01*
G01*
X178371909Y-42545000D02*
G75*
G03*
X178371909Y-42545000I-2500000J0D01*
G01*
X173311909Y-44090000D02*
X173311909Y-41000000D01*
X178861909Y-42545462D02*
G75*
G03*
X173311909Y-41000170I-2990000J462D01*
G01*
X178861909Y-42544538D02*
G75*
G02*
X173311909Y-44089830I-2990000J-462D01*
G01*
X163755364Y-42545000D02*
G75*
G03*
X163755364Y-42545000I-2500000J0D01*
G01*
X158695364Y-44090000D02*
X158695364Y-41000000D01*
X164245364Y-42545462D02*
G75*
G03*
X158695364Y-41000170I-2990000J462D01*
G01*
X164245364Y-42544538D02*
G75*
G02*
X158695364Y-44089830I-2990000J-462D01*
G01*
X149138818Y-42545000D02*
G75*
G03*
X149138818Y-42545000I-2500000J0D01*
G01*
X144078818Y-44090000D02*
X144078818Y-41000000D01*
X149628818Y-42545462D02*
G75*
G03*
X144078818Y-41000170I-2990000J462D01*
G01*
X149628818Y-42544538D02*
G75*
G02*
X144078818Y-44089830I-2990000J-462D01*
G01*
X134522273Y-42545000D02*
G75*
G03*
X134522273Y-42545000I-2500000J0D01*
G01*
X129462273Y-44090000D02*
X129462273Y-41000000D01*
X135012273Y-42545462D02*
G75*
G03*
X129462273Y-41000170I-2990000J462D01*
G01*
X135012273Y-42544538D02*
G75*
G02*
X129462273Y-44089830I-2990000J-462D01*
G01*
X193421000Y2921000D02*
X187865000Y2920000D01*
X193421000Y2921000D02*
X193421000Y-379000D01*
X193421000Y-379000D02*
X187865000Y-380000D01*
X180086000Y2921000D02*
X174530000Y2920000D01*
X180086000Y2921000D02*
X180086000Y-379000D01*
X180086000Y-379000D02*
X174530000Y-380000D01*
X166751000Y2921000D02*
X161195000Y2920000D01*
X166751000Y2921000D02*
X166751000Y-379000D01*
X166751000Y-379000D02*
X161195000Y-380000D01*
X153416000Y2921000D02*
X147860000Y2920000D01*
X153416000Y2921000D02*
X153416000Y-379000D01*
X153416000Y-379000D02*
X147860000Y-380000D01*
X140081000Y2921000D02*
X134525000Y2920000D01*
X140081000Y2921000D02*
X140081000Y-379000D01*
X140081000Y-379000D02*
X134525000Y-380000D01*
X145964000Y-128000000D02*
G75*
G03*
X145964000Y-128000000I-2500000J0D01*
G01*
X140904000Y-129545000D02*
X140904000Y-126455000D01*
X146454000Y-128000462D02*
G75*
G03*
X140904000Y-126455170I-2990000J462D01*
G01*
X146454000Y-127999538D02*
G75*
G02*
X140904000Y-129544830I-2990000J-462D01*
G01*
X119905727Y-42545000D02*
G75*
G03*
X119905727Y-42545000I-2500000J0D01*
G01*
X114845727Y-44090000D02*
X114845727Y-41000000D01*
X120395727Y-42545462D02*
G75*
G03*
X114845727Y-41000170I-2990000J462D01*
G01*
X120395727Y-42544538D02*
G75*
G02*
X114845727Y-44089830I-2990000J-462D01*
G01*
X105289182Y-42545000D02*
G75*
G03*
X105289182Y-42545000I-2500000J0D01*
G01*
X100229182Y-44090000D02*
X100229182Y-41000000D01*
X105779182Y-42545462D02*
G75*
G03*
X100229182Y-41000170I-2990000J462D01*
G01*
X105779182Y-42544538D02*
G75*
G02*
X100229182Y-44089830I-2990000J-462D01*
G01*
X90672636Y-42545000D02*
G75*
G03*
X90672636Y-42545000I-2500000J0D01*
G01*
X85612636Y-44090000D02*
X85612636Y-41000000D01*
X91162636Y-42545462D02*
G75*
G03*
X85612636Y-41000170I-2990000J462D01*
G01*
X91162636Y-42544538D02*
G75*
G02*
X85612636Y-44089830I-2990000J-462D01*
G01*
X76056091Y-42545000D02*
G75*
G03*
X76056091Y-42545000I-2500000J0D01*
G01*
X70996091Y-44090000D02*
X70996091Y-41000000D01*
X76546091Y-42545462D02*
G75*
G03*
X70996091Y-41000170I-2990000J462D01*
G01*
X76546091Y-42544538D02*
G75*
G02*
X70996091Y-44089830I-2990000J-462D01*
G01*
X61439540Y-42545000D02*
G75*
G03*
X61439540Y-42545000I-2500000J0D01*
G01*
X56379540Y-44090000D02*
X56379540Y-41000000D01*
X61929540Y-42545462D02*
G75*
G03*
X56379540Y-41000170I-2990000J462D01*
G01*
X61929540Y-42544538D02*
G75*
G02*
X56379540Y-44089830I-2990000J-462D01*
G01*
X116586000Y2921000D02*
X111030000Y2920000D01*
X116586000Y2921000D02*
X116586000Y-379000D01*
X116586000Y-379000D02*
X111030000Y-380000D01*
X103251000Y2921000D02*
X97695000Y2920000D01*
X103251000Y2921000D02*
X103251000Y-379000D01*
X103251000Y-379000D02*
X97695000Y-380000D01*
X89916000Y2921000D02*
X84360000Y2920000D01*
X89916000Y2921000D02*
X89916000Y-379000D01*
X89916000Y-379000D02*
X84360000Y-380000D01*
X76581000Y2921000D02*
X71025000Y2920000D01*
X76581000Y2921000D02*
X76581000Y-379000D01*
X76581000Y-379000D02*
X71025000Y-380000D01*
X63246000Y2921000D02*
X57690000Y2920000D01*
X63246000Y2921000D02*
X63246000Y-379000D01*
X63246000Y-379000D02*
X57690000Y-380000D01*
X89244000Y-125689000D02*
X89244000Y-130089000D01*
X91604000Y-130089000D02*
X91604000Y-125689000D01*
X91604000Y-125689000D02*
X89244000Y-125689000D01*
X89244000Y-130089000D02*
X91604000Y-130089000D01*
X136738000Y-69760000D02*
X141138000Y-69760000D01*
X141138000Y-67400000D02*
X136738000Y-67400000D01*
X136738000Y-67400000D02*
X136738000Y-69760000D01*
X141138000Y-69760000D02*
X141138000Y-67400000D01*
X119085000Y-69760000D02*
X123485000Y-69760000D01*
X123485000Y-67400000D02*
X119085000Y-67400000D01*
X119085000Y-67400000D02*
X119085000Y-69760000D01*
X123485000Y-69760000D02*
X123485000Y-67400000D01*
X136738000Y-67220000D02*
X141138000Y-67220000D01*
X141138000Y-64860000D02*
X136738000Y-64860000D01*
X136738000Y-64860000D02*
X136738000Y-67220000D01*
X141138000Y-67220000D02*
X141138000Y-64860000D01*
X119085000Y-67220000D02*
X123485000Y-67220000D01*
X123485000Y-64860000D02*
X119085000Y-64860000D01*
X119085000Y-64860000D02*
X119085000Y-67220000D01*
X123485000Y-67220000D02*
X123485000Y-64860000D01*
X57240000Y-126070000D02*
X57240000Y-130470000D01*
X59600000Y-130470000D02*
X59600000Y-126070000D01*
X59600000Y-126070000D02*
X57240000Y-126070000D01*
X57240000Y-130470000D02*
X59600000Y-130470000D01*
X210275000Y-57490000D02*
X210275000Y-61890000D01*
X212635000Y-61890000D02*
X212635000Y-57490000D01*
X212635000Y-57490000D02*
X210275000Y-57490000D01*
X210275000Y-61890000D02*
X212635000Y-61890000D01*
X151855000Y-57490000D02*
X151855000Y-61890000D01*
X154215000Y-61890000D02*
X154215000Y-57490000D01*
X154215000Y-57490000D02*
X151855000Y-57490000D01*
X151855000Y-61890000D02*
X154215000Y-61890000D01*
X181065000Y-57490000D02*
X181065000Y-61890000D01*
X183425000Y-61890000D02*
X183425000Y-57490000D01*
X183425000Y-57490000D02*
X181065000Y-57490000D01*
X181065000Y-61890000D02*
X183425000Y-61890000D01*
X195670000Y-57490000D02*
X195670000Y-61890000D01*
X198030000Y-61890000D02*
X198030000Y-57490000D01*
X198030000Y-57490000D02*
X195670000Y-57490000D01*
X195670000Y-61890000D02*
X198030000Y-61890000D01*
X166460000Y-57490000D02*
X166460000Y-61890000D01*
X168820000Y-61890000D02*
X168820000Y-57490000D01*
X168820000Y-57490000D02*
X166460000Y-57490000D01*
X166460000Y-61890000D02*
X168820000Y-61890000D01*
X137250000Y-57490000D02*
X137250000Y-61890000D01*
X139610000Y-61890000D02*
X139610000Y-57490000D01*
X139610000Y-57490000D02*
X137250000Y-57490000D01*
X137250000Y-61890000D02*
X139610000Y-61890000D01*
X93435000Y-57490000D02*
X93435000Y-61890000D01*
X95795000Y-61890000D02*
X95795000Y-57490000D01*
X95795000Y-57490000D02*
X93435000Y-57490000D01*
X93435000Y-61890000D02*
X95795000Y-61890000D01*
X63590000Y-57490000D02*
X63590000Y-61890000D01*
X65950000Y-61890000D02*
X65950000Y-57490000D01*
X65950000Y-57490000D02*
X63590000Y-57490000D01*
X63590000Y-61890000D02*
X65950000Y-61890000D01*
X122645000Y-57490000D02*
X122645000Y-61890000D01*
X125005000Y-61890000D02*
X125005000Y-57490000D01*
X125005000Y-57490000D02*
X122645000Y-57490000D01*
X122645000Y-61890000D02*
X125005000Y-61890000D01*
X108675000Y-57490000D02*
X108675000Y-61890000D01*
X111035000Y-61890000D02*
X111035000Y-57490000D01*
X111035000Y-57490000D02*
X108675000Y-57490000D01*
X108675000Y-61890000D02*
X111035000Y-61890000D01*
X78830000Y-57490000D02*
X78830000Y-61890000D01*
X81190000Y-61890000D02*
X81190000Y-57490000D01*
X81190000Y-57490000D02*
X78830000Y-57490000D01*
X78830000Y-61890000D02*
X81190000Y-61890000D01*
X49620000Y-57490000D02*
X49620000Y-61890000D01*
X51980000Y-61890000D02*
X51980000Y-57490000D01*
X51980000Y-57490000D02*
X49620000Y-57490000D01*
X49620000Y-61890000D02*
X51980000Y-61890000D01*
X131535000Y-114640000D02*
X131535000Y-119040000D01*
X133895000Y-119040000D02*
X133895000Y-114640000D01*
X133895000Y-114640000D02*
X131535000Y-114640000D01*
X131535000Y-119040000D02*
X133895000Y-119040000D01*
X135485047Y-37790380D02*
X135818380Y-37314190D01*
X136056476Y-37790380D02*
X136056476Y-36790380D01*
X135675523Y-36790380D01*
X135580285Y-36838000D01*
X135532666Y-36885619D01*
X135485047Y-36980857D01*
X135485047Y-37123714D01*
X135532666Y-37218952D01*
X135580285Y-37266571D01*
X135675523Y-37314190D01*
X136056476Y-37314190D01*
X134532666Y-37790380D02*
X135104095Y-37790380D01*
X134818380Y-37790380D02*
X134818380Y-36790380D01*
X134913619Y-36933238D01*
X135008857Y-37028476D01*
X135104095Y-37076095D01*
X133627904Y-36790380D02*
X134104095Y-36790380D01*
X134151714Y-37266571D01*
X134104095Y-37218952D01*
X134008857Y-37171333D01*
X133770761Y-37171333D01*
X133675523Y-37218952D01*
X133627904Y-37266571D01*
X133580285Y-37361809D01*
X133580285Y-37599904D01*
X133627904Y-37695142D01*
X133675523Y-37742761D01*
X133770761Y-37790380D01*
X134008857Y-37790380D01*
X134104095Y-37742761D01*
X134151714Y-37695142D01*
X133199333Y-36885619D02*
X133151714Y-36838000D01*
X133056476Y-36790380D01*
X132818380Y-36790380D01*
X132723142Y-36838000D01*
X132675523Y-36885619D01*
X132627904Y-36980857D01*
X132627904Y-37076095D01*
X132675523Y-37218952D01*
X133246952Y-37790380D01*
X132627904Y-37790380D01*
X208637047Y-37536380D02*
X208970380Y-37060190D01*
X209208476Y-37536380D02*
X209208476Y-36536380D01*
X208827523Y-36536380D01*
X208732285Y-36584000D01*
X208684666Y-36631619D01*
X208637047Y-36726857D01*
X208637047Y-36869714D01*
X208684666Y-36964952D01*
X208732285Y-37012571D01*
X208827523Y-37060190D01*
X209208476Y-37060190D01*
X207684666Y-37536380D02*
X208256095Y-37536380D01*
X207970380Y-37536380D02*
X207970380Y-36536380D01*
X208065619Y-36679238D01*
X208160857Y-36774476D01*
X208256095Y-36822095D01*
X206779904Y-36536380D02*
X207256095Y-36536380D01*
X207303714Y-37012571D01*
X207256095Y-36964952D01*
X207160857Y-36917333D01*
X206922761Y-36917333D01*
X206827523Y-36964952D01*
X206779904Y-37012571D01*
X206732285Y-37107809D01*
X206732285Y-37345904D01*
X206779904Y-37441142D01*
X206827523Y-37488761D01*
X206922761Y-37536380D01*
X207160857Y-37536380D01*
X207256095Y-37488761D01*
X207303714Y-37441142D01*
X205779904Y-37536380D02*
X206351333Y-37536380D01*
X206065619Y-37536380D02*
X206065619Y-36536380D01*
X206160857Y-36679238D01*
X206256095Y-36774476D01*
X206351333Y-36822095D01*
X150471047Y-37790380D02*
X150804380Y-37314190D01*
X151042476Y-37790380D02*
X151042476Y-36790380D01*
X150661523Y-36790380D01*
X150566285Y-36838000D01*
X150518666Y-36885619D01*
X150471047Y-36980857D01*
X150471047Y-37123714D01*
X150518666Y-37218952D01*
X150566285Y-37266571D01*
X150661523Y-37314190D01*
X151042476Y-37314190D01*
X149518666Y-37790380D02*
X150090095Y-37790380D01*
X149804380Y-37790380D02*
X149804380Y-36790380D01*
X149899619Y-36933238D01*
X149994857Y-37028476D01*
X150090095Y-37076095D01*
X148661523Y-37123714D02*
X148661523Y-37790380D01*
X148899619Y-36742761D02*
X149137714Y-37457047D01*
X148518666Y-37457047D01*
X147994857Y-37218952D02*
X148090095Y-37171333D01*
X148137714Y-37123714D01*
X148185333Y-37028476D01*
X148185333Y-36980857D01*
X148137714Y-36885619D01*
X148090095Y-36838000D01*
X147994857Y-36790380D01*
X147804380Y-36790380D01*
X147709142Y-36838000D01*
X147661523Y-36885619D01*
X147613904Y-36980857D01*
X147613904Y-37028476D01*
X147661523Y-37123714D01*
X147709142Y-37171333D01*
X147804380Y-37218952D01*
X147994857Y-37218952D01*
X148090095Y-37266571D01*
X148137714Y-37314190D01*
X148185333Y-37409428D01*
X148185333Y-37599904D01*
X148137714Y-37695142D01*
X148090095Y-37742761D01*
X147994857Y-37790380D01*
X147804380Y-37790380D01*
X147709142Y-37742761D01*
X147661523Y-37695142D01*
X147613904Y-37599904D01*
X147613904Y-37409428D01*
X147661523Y-37314190D01*
X147709142Y-37266571D01*
X147804380Y-37218952D01*
X165457047Y-38044380D02*
X165790380Y-37568190D01*
X166028476Y-38044380D02*
X166028476Y-37044380D01*
X165647523Y-37044380D01*
X165552285Y-37092000D01*
X165504666Y-37139619D01*
X165457047Y-37234857D01*
X165457047Y-37377714D01*
X165504666Y-37472952D01*
X165552285Y-37520571D01*
X165647523Y-37568190D01*
X166028476Y-37568190D01*
X164504666Y-38044380D02*
X165076095Y-38044380D01*
X164790380Y-38044380D02*
X164790380Y-37044380D01*
X164885619Y-37187238D01*
X164980857Y-37282476D01*
X165076095Y-37330095D01*
X163647523Y-37377714D02*
X163647523Y-38044380D01*
X163885619Y-36996761D02*
X164123714Y-37711047D01*
X163504666Y-37711047D01*
X163218952Y-37044380D02*
X162552285Y-37044380D01*
X162980857Y-38044380D01*
X194413047Y-37790380D02*
X194746380Y-37314190D01*
X194984476Y-37790380D02*
X194984476Y-36790380D01*
X194603523Y-36790380D01*
X194508285Y-36838000D01*
X194460666Y-36885619D01*
X194413047Y-36980857D01*
X194413047Y-37123714D01*
X194460666Y-37218952D01*
X194508285Y-37266571D01*
X194603523Y-37314190D01*
X194984476Y-37314190D01*
X193460666Y-37790380D02*
X194032095Y-37790380D01*
X193746380Y-37790380D02*
X193746380Y-36790380D01*
X193841619Y-36933238D01*
X193936857Y-37028476D01*
X194032095Y-37076095D01*
X192603523Y-37123714D02*
X192603523Y-37790380D01*
X192841619Y-36742761D02*
X193079714Y-37457047D01*
X192460666Y-37457047D01*
X191651142Y-36790380D02*
X191841619Y-36790380D01*
X191936857Y-36838000D01*
X191984476Y-36885619D01*
X192079714Y-37028476D01*
X192127333Y-37218952D01*
X192127333Y-37599904D01*
X192079714Y-37695142D01*
X192032095Y-37742761D01*
X191936857Y-37790380D01*
X191746380Y-37790380D01*
X191651142Y-37742761D01*
X191603523Y-37695142D01*
X191555904Y-37599904D01*
X191555904Y-37361809D01*
X191603523Y-37266571D01*
X191651142Y-37218952D01*
X191746380Y-37171333D01*
X191936857Y-37171333D01*
X192032095Y-37218952D01*
X192079714Y-37266571D01*
X192127333Y-37361809D01*
X180189047Y-37790380D02*
X180522380Y-37314190D01*
X180760476Y-37790380D02*
X180760476Y-36790380D01*
X180379523Y-36790380D01*
X180284285Y-36838000D01*
X180236666Y-36885619D01*
X180189047Y-36980857D01*
X180189047Y-37123714D01*
X180236666Y-37218952D01*
X180284285Y-37266571D01*
X180379523Y-37314190D01*
X180760476Y-37314190D01*
X179236666Y-37790380D02*
X179808095Y-37790380D01*
X179522380Y-37790380D02*
X179522380Y-36790380D01*
X179617619Y-36933238D01*
X179712857Y-37028476D01*
X179808095Y-37076095D01*
X178379523Y-37123714D02*
X178379523Y-37790380D01*
X178617619Y-36742761D02*
X178855714Y-37457047D01*
X178236666Y-37457047D01*
X177379523Y-36790380D02*
X177855714Y-36790380D01*
X177903333Y-37266571D01*
X177855714Y-37218952D01*
X177760476Y-37171333D01*
X177522380Y-37171333D01*
X177427142Y-37218952D01*
X177379523Y-37266571D01*
X177331904Y-37361809D01*
X177331904Y-37599904D01*
X177379523Y-37695142D01*
X177427142Y-37742761D01*
X177522380Y-37790380D01*
X177760476Y-37790380D01*
X177855714Y-37742761D01*
X177903333Y-37695142D01*
X39155619Y-36512571D02*
X39108000Y-36417333D01*
X39012761Y-36322095D01*
X38869904Y-36179238D01*
X38822285Y-36084000D01*
X38822285Y-35988761D01*
X39060380Y-36036380D02*
X39012761Y-35941142D01*
X38917523Y-35845904D01*
X38727047Y-35798285D01*
X38393714Y-35798285D01*
X38203238Y-35845904D01*
X38108000Y-35941142D01*
X38060380Y-36036380D01*
X38060380Y-36226857D01*
X38108000Y-36322095D01*
X38203238Y-36417333D01*
X38393714Y-36464952D01*
X38727047Y-36464952D01*
X38917523Y-36417333D01*
X39012761Y-36322095D01*
X39060380Y-36226857D01*
X39060380Y-36036380D01*
X38155619Y-36845904D02*
X38108000Y-36893523D01*
X38060380Y-36988761D01*
X38060380Y-37226857D01*
X38108000Y-37322095D01*
X38155619Y-37369714D01*
X38250857Y-37417333D01*
X38346095Y-37417333D01*
X38488952Y-37369714D01*
X39060380Y-36798285D01*
X39060380Y-37417333D01*
X39060380Y-37893523D02*
X39060380Y-38084000D01*
X39012761Y-38179238D01*
X38965142Y-38226857D01*
X38822285Y-38322095D01*
X38631809Y-38369714D01*
X38250857Y-38369714D01*
X38155619Y-38322095D01*
X38108000Y-38274476D01*
X38060380Y-38179238D01*
X38060380Y-37988761D01*
X38108000Y-37893523D01*
X38155619Y-37845904D01*
X38250857Y-37798285D01*
X38488952Y-37798285D01*
X38584190Y-37845904D01*
X38631809Y-37893523D01*
X38679428Y-37988761D01*
X38679428Y-38179238D01*
X38631809Y-38274476D01*
X38584190Y-38322095D01*
X38488952Y-38369714D01*
X206224047Y-59507380D02*
X206557380Y-59031190D01*
X206795476Y-59507380D02*
X206795476Y-58507380D01*
X206414523Y-58507380D01*
X206319285Y-58555000D01*
X206271666Y-58602619D01*
X206224047Y-58697857D01*
X206224047Y-58840714D01*
X206271666Y-58935952D01*
X206319285Y-58983571D01*
X206414523Y-59031190D01*
X206795476Y-59031190D01*
X205271666Y-59507380D02*
X205843095Y-59507380D01*
X205557380Y-59507380D02*
X205557380Y-58507380D01*
X205652619Y-58650238D01*
X205747857Y-58745476D01*
X205843095Y-58793095D01*
X204319285Y-59507380D02*
X204890714Y-59507380D01*
X204605000Y-59507380D02*
X204605000Y-58507380D01*
X204700238Y-58650238D01*
X204795476Y-58745476D01*
X204890714Y-58793095D01*
X203462142Y-58507380D02*
X203652619Y-58507380D01*
X203747857Y-58555000D01*
X203795476Y-58602619D01*
X203890714Y-58745476D01*
X203938333Y-58935952D01*
X203938333Y-59316904D01*
X203890714Y-59412142D01*
X203843095Y-59459761D01*
X203747857Y-59507380D01*
X203557380Y-59507380D01*
X203462142Y-59459761D01*
X203414523Y-59412142D01*
X203366904Y-59316904D01*
X203366904Y-59078809D01*
X203414523Y-58983571D01*
X203462142Y-58935952D01*
X203557380Y-58888333D01*
X203747857Y-58888333D01*
X203843095Y-58935952D01*
X203890714Y-58983571D01*
X203938333Y-59078809D01*
X147804047Y-59507380D02*
X148137380Y-59031190D01*
X148375476Y-59507380D02*
X148375476Y-58507380D01*
X147994523Y-58507380D01*
X147899285Y-58555000D01*
X147851666Y-58602619D01*
X147804047Y-58697857D01*
X147804047Y-58840714D01*
X147851666Y-58935952D01*
X147899285Y-58983571D01*
X147994523Y-59031190D01*
X148375476Y-59031190D01*
X146851666Y-59507380D02*
X147423095Y-59507380D01*
X147137380Y-59507380D02*
X147137380Y-58507380D01*
X147232619Y-58650238D01*
X147327857Y-58745476D01*
X147423095Y-58793095D01*
X145899285Y-59507380D02*
X146470714Y-59507380D01*
X146185000Y-59507380D02*
X146185000Y-58507380D01*
X146280238Y-58650238D01*
X146375476Y-58745476D01*
X146470714Y-58793095D01*
X144994523Y-58507380D02*
X145470714Y-58507380D01*
X145518333Y-58983571D01*
X145470714Y-58935952D01*
X145375476Y-58888333D01*
X145137380Y-58888333D01*
X145042142Y-58935952D01*
X144994523Y-58983571D01*
X144946904Y-59078809D01*
X144946904Y-59316904D01*
X144994523Y-59412142D01*
X145042142Y-59459761D01*
X145137380Y-59507380D01*
X145375476Y-59507380D01*
X145470714Y-59459761D01*
X145518333Y-59412142D01*
X89384047Y-59507380D02*
X89717380Y-59031190D01*
X89955476Y-59507380D02*
X89955476Y-58507380D01*
X89574523Y-58507380D01*
X89479285Y-58555000D01*
X89431666Y-58602619D01*
X89384047Y-58697857D01*
X89384047Y-58840714D01*
X89431666Y-58935952D01*
X89479285Y-58983571D01*
X89574523Y-59031190D01*
X89955476Y-59031190D01*
X88431666Y-59507380D02*
X89003095Y-59507380D01*
X88717380Y-59507380D02*
X88717380Y-58507380D01*
X88812619Y-58650238D01*
X88907857Y-58745476D01*
X89003095Y-58793095D01*
X87479285Y-59507380D02*
X88050714Y-59507380D01*
X87765000Y-59507380D02*
X87765000Y-58507380D01*
X87860238Y-58650238D01*
X87955476Y-58745476D01*
X88050714Y-58793095D01*
X86622142Y-58840714D02*
X86622142Y-59507380D01*
X86860238Y-58459761D02*
X87098333Y-59174047D01*
X86479285Y-59174047D01*
X151868047Y-74620380D02*
X152201380Y-74144190D01*
X152439476Y-74620380D02*
X152439476Y-73620380D01*
X152058523Y-73620380D01*
X151963285Y-73668000D01*
X151915666Y-73715619D01*
X151868047Y-73810857D01*
X151868047Y-73953714D01*
X151915666Y-74048952D01*
X151963285Y-74096571D01*
X152058523Y-74144190D01*
X152439476Y-74144190D01*
X150915666Y-74620380D02*
X151487095Y-74620380D01*
X151201380Y-74620380D02*
X151201380Y-73620380D01*
X151296619Y-73763238D01*
X151391857Y-73858476D01*
X151487095Y-73906095D01*
X149963285Y-74620380D02*
X150534714Y-74620380D01*
X150249000Y-74620380D02*
X150249000Y-73620380D01*
X150344238Y-73763238D01*
X150439476Y-73858476D01*
X150534714Y-73906095D01*
X149629952Y-73620380D02*
X149010904Y-73620380D01*
X149344238Y-74001333D01*
X149201380Y-74001333D01*
X149106142Y-74048952D01*
X149058523Y-74096571D01*
X149010904Y-74191809D01*
X149010904Y-74429904D01*
X149058523Y-74525142D01*
X149106142Y-74572761D01*
X149201380Y-74620380D01*
X149487095Y-74620380D01*
X149582333Y-74572761D01*
X149629952Y-74525142D01*
X191619047Y-59507380D02*
X191952380Y-59031190D01*
X192190476Y-59507380D02*
X192190476Y-58507380D01*
X191809523Y-58507380D01*
X191714285Y-58555000D01*
X191666666Y-58602619D01*
X191619047Y-58697857D01*
X191619047Y-58840714D01*
X191666666Y-58935952D01*
X191714285Y-58983571D01*
X191809523Y-59031190D01*
X192190476Y-59031190D01*
X190666666Y-59507380D02*
X191238095Y-59507380D01*
X190952380Y-59507380D02*
X190952380Y-58507380D01*
X191047619Y-58650238D01*
X191142857Y-58745476D01*
X191238095Y-58793095D01*
X189714285Y-59507380D02*
X190285714Y-59507380D01*
X190000000Y-59507380D02*
X190000000Y-58507380D01*
X190095238Y-58650238D01*
X190190476Y-58745476D01*
X190285714Y-58793095D01*
X189333333Y-58602619D02*
X189285714Y-58555000D01*
X189190476Y-58507380D01*
X188952380Y-58507380D01*
X188857142Y-58555000D01*
X188809523Y-58602619D01*
X188761904Y-58697857D01*
X188761904Y-58793095D01*
X188809523Y-58935952D01*
X189380952Y-59507380D01*
X188761904Y-59507380D01*
X74779047Y-59507380D02*
X75112380Y-59031190D01*
X75350476Y-59507380D02*
X75350476Y-58507380D01*
X74969523Y-58507380D01*
X74874285Y-58555000D01*
X74826666Y-58602619D01*
X74779047Y-58697857D01*
X74779047Y-58840714D01*
X74826666Y-58935952D01*
X74874285Y-58983571D01*
X74969523Y-59031190D01*
X75350476Y-59031190D01*
X73826666Y-59507380D02*
X74398095Y-59507380D01*
X74112380Y-59507380D02*
X74112380Y-58507380D01*
X74207619Y-58650238D01*
X74302857Y-58745476D01*
X74398095Y-58793095D01*
X72874285Y-59507380D02*
X73445714Y-59507380D01*
X73160000Y-59507380D02*
X73160000Y-58507380D01*
X73255238Y-58650238D01*
X73350476Y-58745476D01*
X73445714Y-58793095D01*
X72255238Y-58507380D02*
X72160000Y-58507380D01*
X72064761Y-58555000D01*
X72017142Y-58602619D01*
X71969523Y-58697857D01*
X71921904Y-58888333D01*
X71921904Y-59126428D01*
X71969523Y-59316904D01*
X72017142Y-59412142D01*
X72064761Y-59459761D01*
X72160000Y-59507380D01*
X72255238Y-59507380D01*
X72350476Y-59459761D01*
X72398095Y-59412142D01*
X72445714Y-59316904D01*
X72493333Y-59126428D01*
X72493333Y-58888333D01*
X72445714Y-58697857D01*
X72398095Y-58602619D01*
X72350476Y-58555000D01*
X72255238Y-58507380D01*
X129992380Y-80160952D02*
X129516190Y-79827619D01*
X129992380Y-79589523D02*
X128992380Y-79589523D01*
X128992380Y-79970476D01*
X129040000Y-80065714D01*
X129087619Y-80113333D01*
X129182857Y-80160952D01*
X129325714Y-80160952D01*
X129420952Y-80113333D01*
X129468571Y-80065714D01*
X129516190Y-79970476D01*
X129516190Y-79589523D01*
X129992380Y-81113333D02*
X129992380Y-80541904D01*
X129992380Y-80827619D02*
X128992380Y-80827619D01*
X129135238Y-80732380D01*
X129230476Y-80637142D01*
X129278095Y-80541904D01*
X128992380Y-81732380D02*
X128992380Y-81827619D01*
X129040000Y-81922857D01*
X129087619Y-81970476D01*
X129182857Y-82018095D01*
X129373333Y-82065714D01*
X129611428Y-82065714D01*
X129801904Y-82018095D01*
X129897142Y-81970476D01*
X129944761Y-81922857D01*
X129992380Y-81827619D01*
X129992380Y-81732380D01*
X129944761Y-81637142D01*
X129897142Y-81589523D01*
X129801904Y-81541904D01*
X129611428Y-81494285D01*
X129373333Y-81494285D01*
X129182857Y-81541904D01*
X129087619Y-81589523D01*
X129040000Y-81637142D01*
X128992380Y-81732380D01*
X129992380Y-82541904D02*
X129992380Y-82732380D01*
X129944761Y-82827619D01*
X129897142Y-82875238D01*
X129754285Y-82970476D01*
X129563809Y-83018095D01*
X129182857Y-83018095D01*
X129087619Y-82970476D01*
X129040000Y-82922857D01*
X128992380Y-82827619D01*
X128992380Y-82637142D01*
X129040000Y-82541904D01*
X129087619Y-82494285D01*
X129182857Y-82446666D01*
X129420952Y-82446666D01*
X129516190Y-82494285D01*
X129563809Y-82541904D01*
X129611428Y-82637142D01*
X129611428Y-82827619D01*
X129563809Y-82922857D01*
X129516190Y-82970476D01*
X129420952Y-83018095D01*
X177014047Y-59507380D02*
X177347380Y-59031190D01*
X177585476Y-59507380D02*
X177585476Y-58507380D01*
X177204523Y-58507380D01*
X177109285Y-58555000D01*
X177061666Y-58602619D01*
X177014047Y-58697857D01*
X177014047Y-58840714D01*
X177061666Y-58935952D01*
X177109285Y-58983571D01*
X177204523Y-59031190D01*
X177585476Y-59031190D01*
X176061666Y-59507380D02*
X176633095Y-59507380D01*
X176347380Y-59507380D02*
X176347380Y-58507380D01*
X176442619Y-58650238D01*
X176537857Y-58745476D01*
X176633095Y-58793095D01*
X175442619Y-58507380D02*
X175347380Y-58507380D01*
X175252142Y-58555000D01*
X175204523Y-58602619D01*
X175156904Y-58697857D01*
X175109285Y-58888333D01*
X175109285Y-59126428D01*
X175156904Y-59316904D01*
X175204523Y-59412142D01*
X175252142Y-59459761D01*
X175347380Y-59507380D01*
X175442619Y-59507380D01*
X175537857Y-59459761D01*
X175585476Y-59412142D01*
X175633095Y-59316904D01*
X175680714Y-59126428D01*
X175680714Y-58888333D01*
X175633095Y-58697857D01*
X175585476Y-58602619D01*
X175537857Y-58555000D01*
X175442619Y-58507380D01*
X174537857Y-58935952D02*
X174633095Y-58888333D01*
X174680714Y-58840714D01*
X174728333Y-58745476D01*
X174728333Y-58697857D01*
X174680714Y-58602619D01*
X174633095Y-58555000D01*
X174537857Y-58507380D01*
X174347380Y-58507380D01*
X174252142Y-58555000D01*
X174204523Y-58602619D01*
X174156904Y-58697857D01*
X174156904Y-58745476D01*
X174204523Y-58840714D01*
X174252142Y-58888333D01*
X174347380Y-58935952D01*
X174537857Y-58935952D01*
X174633095Y-58983571D01*
X174680714Y-59031190D01*
X174728333Y-59126428D01*
X174728333Y-59316904D01*
X174680714Y-59412142D01*
X174633095Y-59459761D01*
X174537857Y-59507380D01*
X174347380Y-59507380D01*
X174252142Y-59459761D01*
X174204523Y-59412142D01*
X174156904Y-59316904D01*
X174156904Y-59126428D01*
X174204523Y-59031190D01*
X174252142Y-58983571D01*
X174347380Y-58935952D01*
X118594047Y-59507380D02*
X118927380Y-59031190D01*
X119165476Y-59507380D02*
X119165476Y-58507380D01*
X118784523Y-58507380D01*
X118689285Y-58555000D01*
X118641666Y-58602619D01*
X118594047Y-58697857D01*
X118594047Y-58840714D01*
X118641666Y-58935952D01*
X118689285Y-58983571D01*
X118784523Y-59031190D01*
X119165476Y-59031190D01*
X117641666Y-59507380D02*
X118213095Y-59507380D01*
X117927380Y-59507380D02*
X117927380Y-58507380D01*
X118022619Y-58650238D01*
X118117857Y-58745476D01*
X118213095Y-58793095D01*
X117022619Y-58507380D02*
X116927380Y-58507380D01*
X116832142Y-58555000D01*
X116784523Y-58602619D01*
X116736904Y-58697857D01*
X116689285Y-58888333D01*
X116689285Y-59126428D01*
X116736904Y-59316904D01*
X116784523Y-59412142D01*
X116832142Y-59459761D01*
X116927380Y-59507380D01*
X117022619Y-59507380D01*
X117117857Y-59459761D01*
X117165476Y-59412142D01*
X117213095Y-59316904D01*
X117260714Y-59126428D01*
X117260714Y-58888333D01*
X117213095Y-58697857D01*
X117165476Y-58602619D01*
X117117857Y-58555000D01*
X117022619Y-58507380D01*
X116355952Y-58507380D02*
X115689285Y-58507380D01*
X116117857Y-59507380D01*
X60174047Y-59507380D02*
X60507380Y-59031190D01*
X60745476Y-59507380D02*
X60745476Y-58507380D01*
X60364523Y-58507380D01*
X60269285Y-58555000D01*
X60221666Y-58602619D01*
X60174047Y-58697857D01*
X60174047Y-58840714D01*
X60221666Y-58935952D01*
X60269285Y-58983571D01*
X60364523Y-59031190D01*
X60745476Y-59031190D01*
X59221666Y-59507380D02*
X59793095Y-59507380D01*
X59507380Y-59507380D02*
X59507380Y-58507380D01*
X59602619Y-58650238D01*
X59697857Y-58745476D01*
X59793095Y-58793095D01*
X58602619Y-58507380D02*
X58507380Y-58507380D01*
X58412142Y-58555000D01*
X58364523Y-58602619D01*
X58316904Y-58697857D01*
X58269285Y-58888333D01*
X58269285Y-59126428D01*
X58316904Y-59316904D01*
X58364523Y-59412142D01*
X58412142Y-59459761D01*
X58507380Y-59507380D01*
X58602619Y-59507380D01*
X58697857Y-59459761D01*
X58745476Y-59412142D01*
X58793095Y-59316904D01*
X58840714Y-59126428D01*
X58840714Y-58888333D01*
X58793095Y-58697857D01*
X58745476Y-58602619D01*
X58697857Y-58555000D01*
X58602619Y-58507380D01*
X57412142Y-58507380D02*
X57602619Y-58507380D01*
X57697857Y-58555000D01*
X57745476Y-58602619D01*
X57840714Y-58745476D01*
X57888333Y-58935952D01*
X57888333Y-59316904D01*
X57840714Y-59412142D01*
X57793095Y-59459761D01*
X57697857Y-59507380D01*
X57507380Y-59507380D01*
X57412142Y-59459761D01*
X57364523Y-59412142D01*
X57316904Y-59316904D01*
X57316904Y-59078809D01*
X57364523Y-58983571D01*
X57412142Y-58935952D01*
X57507380Y-58888333D01*
X57697857Y-58888333D01*
X57793095Y-58935952D01*
X57840714Y-58983571D01*
X57888333Y-59078809D01*
X125674380Y-80160952D02*
X125198190Y-79827619D01*
X125674380Y-79589523D02*
X124674380Y-79589523D01*
X124674380Y-79970476D01*
X124722000Y-80065714D01*
X124769619Y-80113333D01*
X124864857Y-80160952D01*
X125007714Y-80160952D01*
X125102952Y-80113333D01*
X125150571Y-80065714D01*
X125198190Y-79970476D01*
X125198190Y-79589523D01*
X125674380Y-81113333D02*
X125674380Y-80541904D01*
X125674380Y-80827619D02*
X124674380Y-80827619D01*
X124817238Y-80732380D01*
X124912476Y-80637142D01*
X124960095Y-80541904D01*
X124674380Y-81732380D02*
X124674380Y-81827619D01*
X124722000Y-81922857D01*
X124769619Y-81970476D01*
X124864857Y-82018095D01*
X125055333Y-82065714D01*
X125293428Y-82065714D01*
X125483904Y-82018095D01*
X125579142Y-81970476D01*
X125626761Y-81922857D01*
X125674380Y-81827619D01*
X125674380Y-81732380D01*
X125626761Y-81637142D01*
X125579142Y-81589523D01*
X125483904Y-81541904D01*
X125293428Y-81494285D01*
X125055333Y-81494285D01*
X124864857Y-81541904D01*
X124769619Y-81589523D01*
X124722000Y-81637142D01*
X124674380Y-81732380D01*
X124674380Y-82970476D02*
X124674380Y-82494285D01*
X125150571Y-82446666D01*
X125102952Y-82494285D01*
X125055333Y-82589523D01*
X125055333Y-82827619D01*
X125102952Y-82922857D01*
X125150571Y-82970476D01*
X125245809Y-83018095D01*
X125483904Y-83018095D01*
X125579142Y-82970476D01*
X125626761Y-82922857D01*
X125674380Y-82827619D01*
X125674380Y-82589523D01*
X125626761Y-82494285D01*
X125579142Y-82446666D01*
X162409047Y-59507380D02*
X162742380Y-59031190D01*
X162980476Y-59507380D02*
X162980476Y-58507380D01*
X162599523Y-58507380D01*
X162504285Y-58555000D01*
X162456666Y-58602619D01*
X162409047Y-58697857D01*
X162409047Y-58840714D01*
X162456666Y-58935952D01*
X162504285Y-58983571D01*
X162599523Y-59031190D01*
X162980476Y-59031190D01*
X161456666Y-59507380D02*
X162028095Y-59507380D01*
X161742380Y-59507380D02*
X161742380Y-58507380D01*
X161837619Y-58650238D01*
X161932857Y-58745476D01*
X162028095Y-58793095D01*
X160837619Y-58507380D02*
X160742380Y-58507380D01*
X160647142Y-58555000D01*
X160599523Y-58602619D01*
X160551904Y-58697857D01*
X160504285Y-58888333D01*
X160504285Y-59126428D01*
X160551904Y-59316904D01*
X160599523Y-59412142D01*
X160647142Y-59459761D01*
X160742380Y-59507380D01*
X160837619Y-59507380D01*
X160932857Y-59459761D01*
X160980476Y-59412142D01*
X161028095Y-59316904D01*
X161075714Y-59126428D01*
X161075714Y-58888333D01*
X161028095Y-58697857D01*
X160980476Y-58602619D01*
X160932857Y-58555000D01*
X160837619Y-58507380D01*
X159647142Y-58840714D02*
X159647142Y-59507380D01*
X159885238Y-58459761D02*
X160123333Y-59174047D01*
X159504285Y-59174047D01*
X103989047Y-59507380D02*
X104322380Y-59031190D01*
X104560476Y-59507380D02*
X104560476Y-58507380D01*
X104179523Y-58507380D01*
X104084285Y-58555000D01*
X104036666Y-58602619D01*
X103989047Y-58697857D01*
X103989047Y-58840714D01*
X104036666Y-58935952D01*
X104084285Y-58983571D01*
X104179523Y-59031190D01*
X104560476Y-59031190D01*
X103036666Y-59507380D02*
X103608095Y-59507380D01*
X103322380Y-59507380D02*
X103322380Y-58507380D01*
X103417619Y-58650238D01*
X103512857Y-58745476D01*
X103608095Y-58793095D01*
X102417619Y-58507380D02*
X102322380Y-58507380D01*
X102227142Y-58555000D01*
X102179523Y-58602619D01*
X102131904Y-58697857D01*
X102084285Y-58888333D01*
X102084285Y-59126428D01*
X102131904Y-59316904D01*
X102179523Y-59412142D01*
X102227142Y-59459761D01*
X102322380Y-59507380D01*
X102417619Y-59507380D01*
X102512857Y-59459761D01*
X102560476Y-59412142D01*
X102608095Y-59316904D01*
X102655714Y-59126428D01*
X102655714Y-58888333D01*
X102608095Y-58697857D01*
X102560476Y-58602619D01*
X102512857Y-58555000D01*
X102417619Y-58507380D01*
X101750952Y-58507380D02*
X101131904Y-58507380D01*
X101465238Y-58888333D01*
X101322380Y-58888333D01*
X101227142Y-58935952D01*
X101179523Y-58983571D01*
X101131904Y-59078809D01*
X101131904Y-59316904D01*
X101179523Y-59412142D01*
X101227142Y-59459761D01*
X101322380Y-59507380D01*
X101608095Y-59507380D01*
X101703333Y-59459761D01*
X101750952Y-59412142D01*
X45092857Y-59507380D02*
X45426190Y-59031190D01*
X45664285Y-59507380D02*
X45664285Y-58507380D01*
X45283333Y-58507380D01*
X45188095Y-58555000D01*
X45140476Y-58602619D01*
X45092857Y-58697857D01*
X45092857Y-58840714D01*
X45140476Y-58935952D01*
X45188095Y-58983571D01*
X45283333Y-59031190D01*
X45664285Y-59031190D01*
X44759523Y-58507380D02*
X44092857Y-58507380D01*
X44521428Y-59507380D01*
X43664285Y-59507380D02*
X43473809Y-59507380D01*
X43378571Y-59459761D01*
X43330952Y-59412142D01*
X43235714Y-59269285D01*
X43188095Y-59078809D01*
X43188095Y-58697857D01*
X43235714Y-58602619D01*
X43283333Y-58555000D01*
X43378571Y-58507380D01*
X43569047Y-58507380D01*
X43664285Y-58555000D01*
X43711904Y-58602619D01*
X43759523Y-58697857D01*
X43759523Y-58935952D01*
X43711904Y-59031190D01*
X43664285Y-59078809D01*
X43569047Y-59126428D01*
X43378571Y-59126428D01*
X43283333Y-59078809D01*
X43235714Y-59031190D01*
X43188095Y-58935952D01*
X48537761Y-25971666D02*
X48585380Y-26114523D01*
X48585380Y-26352619D01*
X48537761Y-26447857D01*
X48490142Y-26495476D01*
X48394904Y-26543095D01*
X48299666Y-26543095D01*
X48204428Y-26495476D01*
X48156809Y-26447857D01*
X48109190Y-26352619D01*
X48061571Y-26162142D01*
X48013952Y-26066904D01*
X47966333Y-26019285D01*
X47871095Y-25971666D01*
X47775857Y-25971666D01*
X47680619Y-26019285D01*
X47633000Y-26066904D01*
X47585380Y-26162142D01*
X47585380Y-26400238D01*
X47633000Y-26543095D01*
X47585380Y-26876428D02*
X48585380Y-27114523D01*
X47871095Y-27305000D01*
X48585380Y-27495476D01*
X47585380Y-27733571D01*
X48585380Y-28638333D02*
X48585380Y-28066904D01*
X48585380Y-28352619D02*
X47585380Y-28352619D01*
X47728238Y-28257380D01*
X47823476Y-28162142D01*
X47871095Y-28066904D01*
X63154301Y-25971666D02*
X63201920Y-26114523D01*
X63201920Y-26352619D01*
X63154301Y-26447857D01*
X63106682Y-26495476D01*
X63011444Y-26543095D01*
X62916206Y-26543095D01*
X62820968Y-26495476D01*
X62773349Y-26447857D01*
X62725730Y-26352619D01*
X62678111Y-26162142D01*
X62630492Y-26066904D01*
X62582873Y-26019285D01*
X62487635Y-25971666D01*
X62392397Y-25971666D01*
X62297159Y-26019285D01*
X62249540Y-26066904D01*
X62201920Y-26162142D01*
X62201920Y-26400238D01*
X62249540Y-26543095D01*
X62201920Y-26876428D02*
X63201920Y-27114523D01*
X62487635Y-27305000D01*
X63201920Y-27495476D01*
X62201920Y-27733571D01*
X62297159Y-28066904D02*
X62249540Y-28114523D01*
X62201920Y-28209761D01*
X62201920Y-28447857D01*
X62249540Y-28543095D01*
X62297159Y-28590714D01*
X62392397Y-28638333D01*
X62487635Y-28638333D01*
X62630492Y-28590714D01*
X63201920Y-28019285D01*
X63201920Y-28638333D01*
X47093095Y-1976380D02*
X47093095Y-976380D01*
X46855000Y-976380D01*
X46712142Y-1024000D01*
X46616904Y-1119238D01*
X46569285Y-1214476D01*
X46521666Y-1404952D01*
X46521666Y-1547809D01*
X46569285Y-1738285D01*
X46616904Y-1833523D01*
X46712142Y-1928761D01*
X46855000Y-1976380D01*
X47093095Y-1976380D01*
X46140714Y-1071619D02*
X46093095Y-1024000D01*
X45997857Y-976380D01*
X45759761Y-976380D01*
X45664523Y-1024000D01*
X45616904Y-1071619D01*
X45569285Y-1166857D01*
X45569285Y-1262095D01*
X45616904Y-1404952D01*
X46188333Y-1976380D01*
X45569285Y-1976380D01*
X150853579Y-25971666D02*
X150901198Y-26114523D01*
X150901198Y-26352619D01*
X150853579Y-26447857D01*
X150805960Y-26495476D01*
X150710722Y-26543095D01*
X150615484Y-26543095D01*
X150520246Y-26495476D01*
X150472627Y-26447857D01*
X150425008Y-26352619D01*
X150377389Y-26162142D01*
X150329770Y-26066904D01*
X150282151Y-26019285D01*
X150186913Y-25971666D01*
X150091675Y-25971666D01*
X149996437Y-26019285D01*
X149948818Y-26066904D01*
X149901198Y-26162142D01*
X149901198Y-26400238D01*
X149948818Y-26543095D01*
X149901198Y-26876428D02*
X150901198Y-27114523D01*
X150186913Y-27305000D01*
X150901198Y-27495476D01*
X149901198Y-27733571D01*
X150329770Y-28257380D02*
X150282151Y-28162142D01*
X150234532Y-28114523D01*
X150139294Y-28066904D01*
X150091675Y-28066904D01*
X149996437Y-28114523D01*
X149948818Y-28162142D01*
X149901198Y-28257380D01*
X149901198Y-28447857D01*
X149948818Y-28543095D01*
X149996437Y-28590714D01*
X150091675Y-28638333D01*
X150139294Y-28638333D01*
X150234532Y-28590714D01*
X150282151Y-28543095D01*
X150329770Y-28447857D01*
X150329770Y-28257380D01*
X150377389Y-28162142D01*
X150425008Y-28114523D01*
X150520246Y-28066904D01*
X150710722Y-28066904D01*
X150805960Y-28114523D01*
X150853579Y-28162142D01*
X150901198Y-28257380D01*
X150901198Y-28447857D01*
X150853579Y-28543095D01*
X150805960Y-28590714D01*
X150710722Y-28638333D01*
X150520246Y-28638333D01*
X150425008Y-28590714D01*
X150377389Y-28543095D01*
X150329770Y-28447857D01*
X121620488Y-25971666D02*
X121668107Y-26114523D01*
X121668107Y-26352619D01*
X121620488Y-26447857D01*
X121572869Y-26495476D01*
X121477631Y-26543095D01*
X121382393Y-26543095D01*
X121287155Y-26495476D01*
X121239536Y-26447857D01*
X121191917Y-26352619D01*
X121144298Y-26162142D01*
X121096679Y-26066904D01*
X121049060Y-26019285D01*
X120953822Y-25971666D01*
X120858584Y-25971666D01*
X120763346Y-26019285D01*
X120715727Y-26066904D01*
X120668107Y-26162142D01*
X120668107Y-26400238D01*
X120715727Y-26543095D01*
X120668107Y-26876428D02*
X121668107Y-27114523D01*
X120953822Y-27305000D01*
X121668107Y-27495476D01*
X120668107Y-27733571D01*
X120668107Y-28543095D02*
X120668107Y-28352619D01*
X120715727Y-28257380D01*
X120763346Y-28209761D01*
X120906203Y-28114523D01*
X121096679Y-28066904D01*
X121477631Y-28066904D01*
X121572869Y-28114523D01*
X121620488Y-28162142D01*
X121668107Y-28257380D01*
X121668107Y-28447857D01*
X121620488Y-28543095D01*
X121572869Y-28590714D01*
X121477631Y-28638333D01*
X121239536Y-28638333D01*
X121144298Y-28590714D01*
X121096679Y-28543095D01*
X121049060Y-28447857D01*
X121049060Y-28257380D01*
X121096679Y-28162142D01*
X121144298Y-28114523D01*
X121239536Y-28066904D01*
X136237034Y-25971666D02*
X136284653Y-26114523D01*
X136284653Y-26352619D01*
X136237034Y-26447857D01*
X136189415Y-26495476D01*
X136094177Y-26543095D01*
X135998939Y-26543095D01*
X135903701Y-26495476D01*
X135856082Y-26447857D01*
X135808463Y-26352619D01*
X135760844Y-26162142D01*
X135713225Y-26066904D01*
X135665606Y-26019285D01*
X135570368Y-25971666D01*
X135475130Y-25971666D01*
X135379892Y-26019285D01*
X135332273Y-26066904D01*
X135284653Y-26162142D01*
X135284653Y-26400238D01*
X135332273Y-26543095D01*
X135284653Y-26876428D02*
X136284653Y-27114523D01*
X135570368Y-27305000D01*
X136284653Y-27495476D01*
X135284653Y-27733571D01*
X135284653Y-28019285D02*
X135284653Y-28685952D01*
X136284653Y-28257380D01*
X209319761Y-25495476D02*
X209367380Y-25638333D01*
X209367380Y-25876428D01*
X209319761Y-25971666D01*
X209272142Y-26019285D01*
X209176904Y-26066904D01*
X209081666Y-26066904D01*
X208986428Y-26019285D01*
X208938809Y-25971666D01*
X208891190Y-25876428D01*
X208843571Y-25685952D01*
X208795952Y-25590714D01*
X208748333Y-25543095D01*
X208653095Y-25495476D01*
X208557857Y-25495476D01*
X208462619Y-25543095D01*
X208415000Y-25590714D01*
X208367380Y-25685952D01*
X208367380Y-25924047D01*
X208415000Y-26066904D01*
X208367380Y-26400238D02*
X209367380Y-26638333D01*
X208653095Y-26828809D01*
X209367380Y-27019285D01*
X208367380Y-27257380D01*
X209367380Y-28162142D02*
X209367380Y-27590714D01*
X209367380Y-27876428D02*
X208367380Y-27876428D01*
X208510238Y-27781190D01*
X208605476Y-27685952D01*
X208653095Y-27590714D01*
X208462619Y-28543095D02*
X208415000Y-28590714D01*
X208367380Y-28685952D01*
X208367380Y-28924047D01*
X208415000Y-29019285D01*
X208462619Y-29066904D01*
X208557857Y-29114523D01*
X208653095Y-29114523D01*
X208795952Y-29066904D01*
X209367380Y-28495476D01*
X209367380Y-29114523D01*
X194703216Y-25495476D02*
X194750835Y-25638333D01*
X194750835Y-25876428D01*
X194703216Y-25971666D01*
X194655597Y-26019285D01*
X194560359Y-26066904D01*
X194465121Y-26066904D01*
X194369883Y-26019285D01*
X194322264Y-25971666D01*
X194274645Y-25876428D01*
X194227026Y-25685952D01*
X194179407Y-25590714D01*
X194131788Y-25543095D01*
X194036550Y-25495476D01*
X193941312Y-25495476D01*
X193846074Y-25543095D01*
X193798455Y-25590714D01*
X193750835Y-25685952D01*
X193750835Y-25924047D01*
X193798455Y-26066904D01*
X193750835Y-26400238D02*
X194750835Y-26638333D01*
X194036550Y-26828809D01*
X194750835Y-27019285D01*
X193750835Y-27257380D01*
X194750835Y-28162142D02*
X194750835Y-27590714D01*
X194750835Y-27876428D02*
X193750835Y-27876428D01*
X193893693Y-27781190D01*
X193988931Y-27685952D01*
X194036550Y-27590714D01*
X194750835Y-29114523D02*
X194750835Y-28543095D01*
X194750835Y-28828809D02*
X193750835Y-28828809D01*
X193893693Y-28733571D01*
X193988931Y-28638333D01*
X194036550Y-28543095D01*
X180086670Y-25495476D02*
X180134289Y-25638333D01*
X180134289Y-25876428D01*
X180086670Y-25971666D01*
X180039051Y-26019285D01*
X179943813Y-26066904D01*
X179848575Y-26066904D01*
X179753337Y-26019285D01*
X179705718Y-25971666D01*
X179658099Y-25876428D01*
X179610480Y-25685952D01*
X179562861Y-25590714D01*
X179515242Y-25543095D01*
X179420004Y-25495476D01*
X179324766Y-25495476D01*
X179229528Y-25543095D01*
X179181909Y-25590714D01*
X179134289Y-25685952D01*
X179134289Y-25924047D01*
X179181909Y-26066904D01*
X179134289Y-26400238D02*
X180134289Y-26638333D01*
X179420004Y-26828809D01*
X180134289Y-27019285D01*
X179134289Y-27257380D01*
X180134289Y-28162142D02*
X180134289Y-27590714D01*
X180134289Y-27876428D02*
X179134289Y-27876428D01*
X179277147Y-27781190D01*
X179372385Y-27685952D01*
X179420004Y-27590714D01*
X179134289Y-28781190D02*
X179134289Y-28876428D01*
X179181909Y-28971666D01*
X179229528Y-29019285D01*
X179324766Y-29066904D01*
X179515242Y-29114523D01*
X179753337Y-29114523D01*
X179943813Y-29066904D01*
X180039051Y-29019285D01*
X180086670Y-28971666D01*
X180134289Y-28876428D01*
X180134289Y-28781190D01*
X180086670Y-28685952D01*
X180039051Y-28638333D01*
X179943813Y-28590714D01*
X179753337Y-28543095D01*
X179515242Y-28543095D01*
X179324766Y-28590714D01*
X179229528Y-28638333D01*
X179181909Y-28685952D01*
X179134289Y-28781190D01*
X165470125Y-25971666D02*
X165517744Y-26114523D01*
X165517744Y-26352619D01*
X165470125Y-26447857D01*
X165422506Y-26495476D01*
X165327268Y-26543095D01*
X165232030Y-26543095D01*
X165136792Y-26495476D01*
X165089173Y-26447857D01*
X165041554Y-26352619D01*
X164993935Y-26162142D01*
X164946316Y-26066904D01*
X164898697Y-26019285D01*
X164803459Y-25971666D01*
X164708221Y-25971666D01*
X164612983Y-26019285D01*
X164565364Y-26066904D01*
X164517744Y-26162142D01*
X164517744Y-26400238D01*
X164565364Y-26543095D01*
X164517744Y-26876428D02*
X165517744Y-27114523D01*
X164803459Y-27305000D01*
X165517744Y-27495476D01*
X164517744Y-27733571D01*
X165517744Y-28162142D02*
X165517744Y-28352619D01*
X165470125Y-28447857D01*
X165422506Y-28495476D01*
X165279649Y-28590714D01*
X165089173Y-28638333D01*
X164708221Y-28638333D01*
X164612983Y-28590714D01*
X164565364Y-28543095D01*
X164517744Y-28447857D01*
X164517744Y-28257380D01*
X164565364Y-28162142D01*
X164612983Y-28114523D01*
X164708221Y-28066904D01*
X164946316Y-28066904D01*
X165041554Y-28114523D01*
X165089173Y-28162142D01*
X165136792Y-28257380D01*
X165136792Y-28447857D01*
X165089173Y-28543095D01*
X165041554Y-28590714D01*
X164946316Y-28638333D01*
X107003943Y-25971666D02*
X107051562Y-26114523D01*
X107051562Y-26352619D01*
X107003943Y-26447857D01*
X106956324Y-26495476D01*
X106861086Y-26543095D01*
X106765848Y-26543095D01*
X106670610Y-26495476D01*
X106622991Y-26447857D01*
X106575372Y-26352619D01*
X106527753Y-26162142D01*
X106480134Y-26066904D01*
X106432515Y-26019285D01*
X106337277Y-25971666D01*
X106242039Y-25971666D01*
X106146801Y-26019285D01*
X106099182Y-26066904D01*
X106051562Y-26162142D01*
X106051562Y-26400238D01*
X106099182Y-26543095D01*
X106051562Y-26876428D02*
X107051562Y-27114523D01*
X106337277Y-27305000D01*
X107051562Y-27495476D01*
X106051562Y-27733571D01*
X106051562Y-28590714D02*
X106051562Y-28114523D01*
X106527753Y-28066904D01*
X106480134Y-28114523D01*
X106432515Y-28209761D01*
X106432515Y-28447857D01*
X106480134Y-28543095D01*
X106527753Y-28590714D01*
X106622991Y-28638333D01*
X106861086Y-28638333D01*
X106956324Y-28590714D01*
X107003943Y-28543095D01*
X107051562Y-28447857D01*
X107051562Y-28209761D01*
X107003943Y-28114523D01*
X106956324Y-28066904D01*
X92387397Y-25971666D02*
X92435016Y-26114523D01*
X92435016Y-26352619D01*
X92387397Y-26447857D01*
X92339778Y-26495476D01*
X92244540Y-26543095D01*
X92149302Y-26543095D01*
X92054064Y-26495476D01*
X92006445Y-26447857D01*
X91958826Y-26352619D01*
X91911207Y-26162142D01*
X91863588Y-26066904D01*
X91815969Y-26019285D01*
X91720731Y-25971666D01*
X91625493Y-25971666D01*
X91530255Y-26019285D01*
X91482636Y-26066904D01*
X91435016Y-26162142D01*
X91435016Y-26400238D01*
X91482636Y-26543095D01*
X91435016Y-26876428D02*
X92435016Y-27114523D01*
X91720731Y-27305000D01*
X92435016Y-27495476D01*
X91435016Y-27733571D01*
X91768350Y-28543095D02*
X92435016Y-28543095D01*
X91387397Y-28305000D02*
X92101683Y-28066904D01*
X92101683Y-28685952D01*
X77770852Y-25971666D02*
X77818471Y-26114523D01*
X77818471Y-26352619D01*
X77770852Y-26447857D01*
X77723233Y-26495476D01*
X77627995Y-26543095D01*
X77532757Y-26543095D01*
X77437519Y-26495476D01*
X77389900Y-26447857D01*
X77342281Y-26352619D01*
X77294662Y-26162142D01*
X77247043Y-26066904D01*
X77199424Y-26019285D01*
X77104186Y-25971666D01*
X77008948Y-25971666D01*
X76913710Y-26019285D01*
X76866091Y-26066904D01*
X76818471Y-26162142D01*
X76818471Y-26400238D01*
X76866091Y-26543095D01*
X76818471Y-26876428D02*
X77818471Y-27114523D01*
X77104186Y-27305000D01*
X77818471Y-27495476D01*
X76818471Y-27733571D01*
X76818471Y-28019285D02*
X76818471Y-28638333D01*
X77199424Y-28305000D01*
X77199424Y-28447857D01*
X77247043Y-28543095D01*
X77294662Y-28590714D01*
X77389900Y-28638333D01*
X77627995Y-28638333D01*
X77723233Y-28590714D01*
X77770852Y-28543095D01*
X77818471Y-28447857D01*
X77818471Y-28162142D01*
X77770852Y-28066904D01*
X77723233Y-28019285D01*
X185443761Y-102330476D02*
X185491380Y-102473333D01*
X185491380Y-102711428D01*
X185443761Y-102806666D01*
X185396142Y-102854285D01*
X185300904Y-102901904D01*
X185205666Y-102901904D01*
X185110428Y-102854285D01*
X185062809Y-102806666D01*
X185015190Y-102711428D01*
X184967571Y-102520952D01*
X184919952Y-102425714D01*
X184872333Y-102378095D01*
X184777095Y-102330476D01*
X184681857Y-102330476D01*
X184586619Y-102378095D01*
X184539000Y-102425714D01*
X184491380Y-102520952D01*
X184491380Y-102759047D01*
X184539000Y-102901904D01*
X184491380Y-103235238D02*
X185491380Y-103473333D01*
X184777095Y-103663809D01*
X185491380Y-103854285D01*
X184491380Y-104092380D01*
X185491380Y-104997142D02*
X185491380Y-104425714D01*
X185491380Y-104711428D02*
X184491380Y-104711428D01*
X184634238Y-104616190D01*
X184729476Y-104520952D01*
X184777095Y-104425714D01*
X184491380Y-105330476D02*
X184491380Y-105949523D01*
X184872333Y-105616190D01*
X184872333Y-105759047D01*
X184919952Y-105854285D01*
X184967571Y-105901904D01*
X185062809Y-105949523D01*
X185300904Y-105949523D01*
X185396142Y-105901904D01*
X185443761Y-105854285D01*
X185491380Y-105759047D01*
X185491380Y-105473333D01*
X185443761Y-105378095D01*
X185396142Y-105330476D01*
X51506285Y-120594380D02*
X51506285Y-119594380D01*
X51268190Y-119594380D01*
X51125333Y-119642000D01*
X51030095Y-119737238D01*
X50982476Y-119832476D01*
X50934857Y-120022952D01*
X50934857Y-120165809D01*
X50982476Y-120356285D01*
X51030095Y-120451523D01*
X51125333Y-120546761D01*
X51268190Y-120594380D01*
X51506285Y-120594380D01*
X50077714Y-119927714D02*
X50077714Y-120594380D01*
X50315809Y-119546761D02*
X50553904Y-120261047D01*
X49934857Y-120261047D01*
X49649142Y-119594380D02*
X49030095Y-119594380D01*
X49363428Y-119975333D01*
X49220571Y-119975333D01*
X49125333Y-120022952D01*
X49077714Y-120070571D01*
X49030095Y-120165809D01*
X49030095Y-120403904D01*
X49077714Y-120499142D01*
X49125333Y-120546761D01*
X49220571Y-120594380D01*
X49506285Y-120594380D01*
X49601523Y-120546761D01*
X49649142Y-120499142D01*
X82748285Y-120340380D02*
X82748285Y-119340380D01*
X82510190Y-119340380D01*
X82367333Y-119388000D01*
X82272095Y-119483238D01*
X82224476Y-119578476D01*
X82176857Y-119768952D01*
X82176857Y-119911809D01*
X82224476Y-120102285D01*
X82272095Y-120197523D01*
X82367333Y-120292761D01*
X82510190Y-120340380D01*
X82748285Y-120340380D01*
X81272095Y-119340380D02*
X81748285Y-119340380D01*
X81795904Y-119816571D01*
X81748285Y-119768952D01*
X81653047Y-119721333D01*
X81414952Y-119721333D01*
X81319714Y-119768952D01*
X81272095Y-119816571D01*
X81224476Y-119911809D01*
X81224476Y-120149904D01*
X81272095Y-120245142D01*
X81319714Y-120292761D01*
X81414952Y-120340380D01*
X81653047Y-120340380D01*
X81748285Y-120292761D01*
X81795904Y-120245142D01*
X80891142Y-119340380D02*
X80272095Y-119340380D01*
X80605428Y-119721333D01*
X80462571Y-119721333D01*
X80367333Y-119768952D01*
X80319714Y-119816571D01*
X80272095Y-119911809D01*
X80272095Y-120149904D01*
X80319714Y-120245142D01*
X80367333Y-120292761D01*
X80462571Y-120340380D01*
X80748285Y-120340380D01*
X80843523Y-120292761D01*
X80891142Y-120245142D01*
X62491857Y-120975380D02*
X62825190Y-120499190D01*
X63063285Y-120975380D02*
X63063285Y-119975380D01*
X62682333Y-119975380D01*
X62587095Y-120023000D01*
X62539476Y-120070619D01*
X62491857Y-120165857D01*
X62491857Y-120308714D01*
X62539476Y-120403952D01*
X62587095Y-120451571D01*
X62682333Y-120499190D01*
X63063285Y-120499190D01*
X61920428Y-120403952D02*
X62015666Y-120356333D01*
X62063285Y-120308714D01*
X62110904Y-120213476D01*
X62110904Y-120165857D01*
X62063285Y-120070619D01*
X62015666Y-120023000D01*
X61920428Y-119975380D01*
X61729952Y-119975380D01*
X61634714Y-120023000D01*
X61587095Y-120070619D01*
X61539476Y-120165857D01*
X61539476Y-120213476D01*
X61587095Y-120308714D01*
X61634714Y-120356333D01*
X61729952Y-120403952D01*
X61920428Y-120403952D01*
X62015666Y-120451571D01*
X62063285Y-120499190D01*
X62110904Y-120594428D01*
X62110904Y-120784904D01*
X62063285Y-120880142D01*
X62015666Y-120927761D01*
X61920428Y-120975380D01*
X61729952Y-120975380D01*
X61634714Y-120927761D01*
X61587095Y-120880142D01*
X61539476Y-120784904D01*
X61539476Y-120594428D01*
X61587095Y-120499190D01*
X61634714Y-120451571D01*
X61729952Y-120403952D01*
X60587095Y-120975380D02*
X61158523Y-120975380D01*
X60872809Y-120975380D02*
X60872809Y-119975380D01*
X60968047Y-120118238D01*
X61063285Y-120213476D01*
X61158523Y-120261095D01*
X45061095Y-47061380D02*
X45061095Y-46061380D01*
X44823000Y-46061380D01*
X44680142Y-46109000D01*
X44584904Y-46204238D01*
X44537285Y-46299476D01*
X44489666Y-46489952D01*
X44489666Y-46632809D01*
X44537285Y-46823285D01*
X44584904Y-46918523D01*
X44680142Y-47013761D01*
X44823000Y-47061380D01*
X45061095Y-47061380D01*
X43537285Y-47061380D02*
X44108714Y-47061380D01*
X43823000Y-47061380D02*
X43823000Y-46061380D01*
X43918238Y-46204238D01*
X44013476Y-46299476D01*
X44108714Y-46347095D01*
X206192285Y-1722380D02*
X206192285Y-722380D01*
X205954190Y-722380D01*
X205811333Y-770000D01*
X205716095Y-865238D01*
X205668476Y-960476D01*
X205620857Y-1150952D01*
X205620857Y-1293809D01*
X205668476Y-1484285D01*
X205716095Y-1579523D01*
X205811333Y-1674761D01*
X205954190Y-1722380D01*
X206192285Y-1722380D01*
X205239904Y-817619D02*
X205192285Y-770000D01*
X205097047Y-722380D01*
X204858952Y-722380D01*
X204763714Y-770000D01*
X204716095Y-817619D01*
X204668476Y-912857D01*
X204668476Y-1008095D01*
X204716095Y-1150952D01*
X205287523Y-1722380D01*
X204668476Y-1722380D01*
X203763714Y-722380D02*
X204239904Y-722380D01*
X204287523Y-1198571D01*
X204239904Y-1150952D01*
X204144666Y-1103333D01*
X203906571Y-1103333D01*
X203811333Y-1150952D01*
X203763714Y-1198571D01*
X203716095Y-1293809D01*
X203716095Y-1531904D01*
X203763714Y-1627142D01*
X203811333Y-1674761D01*
X203906571Y-1722380D01*
X204144666Y-1722380D01*
X204239904Y-1674761D01*
X204287523Y-1627142D01*
X196159285Y-83256380D02*
X196159285Y-82256380D01*
X195921190Y-82256380D01*
X195778333Y-82304000D01*
X195683095Y-82399238D01*
X195635476Y-82494476D01*
X195587857Y-82684952D01*
X195587857Y-82827809D01*
X195635476Y-83018285D01*
X195683095Y-83113523D01*
X195778333Y-83208761D01*
X195921190Y-83256380D01*
X196159285Y-83256380D01*
X194683095Y-82256380D02*
X195159285Y-82256380D01*
X195206904Y-82732571D01*
X195159285Y-82684952D01*
X195064047Y-82637333D01*
X194825952Y-82637333D01*
X194730714Y-82684952D01*
X194683095Y-82732571D01*
X194635476Y-82827809D01*
X194635476Y-83065904D01*
X194683095Y-83161142D01*
X194730714Y-83208761D01*
X194825952Y-83256380D01*
X195064047Y-83256380D01*
X195159285Y-83208761D01*
X195206904Y-83161142D01*
X194254523Y-82351619D02*
X194206904Y-82304000D01*
X194111666Y-82256380D01*
X193873571Y-82256380D01*
X193778333Y-82304000D01*
X193730714Y-82351619D01*
X193683095Y-82446857D01*
X193683095Y-82542095D01*
X193730714Y-82684952D01*
X194302142Y-83256380D01*
X193683095Y-83256380D01*
X124682095Y-76160380D02*
X124682095Y-76969904D01*
X124634476Y-77065142D01*
X124586857Y-77112761D01*
X124491619Y-77160380D01*
X124301142Y-77160380D01*
X124205904Y-77112761D01*
X124158285Y-77065142D01*
X124110666Y-76969904D01*
X124110666Y-76160380D01*
X123682095Y-76255619D02*
X123634476Y-76208000D01*
X123539238Y-76160380D01*
X123301142Y-76160380D01*
X123205904Y-76208000D01*
X123158285Y-76255619D01*
X123110666Y-76350857D01*
X123110666Y-76446095D01*
X123158285Y-76588952D01*
X123729714Y-77160380D01*
X123110666Y-77160380D01*
X122539238Y-76588952D02*
X122634476Y-76541333D01*
X122682095Y-76493714D01*
X122729714Y-76398476D01*
X122729714Y-76350857D01*
X122682095Y-76255619D01*
X122634476Y-76208000D01*
X122539238Y-76160380D01*
X122348761Y-76160380D01*
X122253523Y-76208000D01*
X122205904Y-76255619D01*
X122158285Y-76350857D01*
X122158285Y-76398476D01*
X122205904Y-76493714D01*
X122253523Y-76541333D01*
X122348761Y-76588952D01*
X122539238Y-76588952D01*
X122634476Y-76636571D01*
X122682095Y-76684190D01*
X122729714Y-76779428D01*
X122729714Y-76969904D01*
X122682095Y-77065142D01*
X122634476Y-77112761D01*
X122539238Y-77160380D01*
X122348761Y-77160380D01*
X122253523Y-77112761D01*
X122205904Y-77065142D01*
X122158285Y-76969904D01*
X122158285Y-76779428D01*
X122205904Y-76684190D01*
X122253523Y-76636571D01*
X122348761Y-76588952D01*
X144240095Y-75652380D02*
X144240095Y-76461904D01*
X144192476Y-76557142D01*
X144144857Y-76604761D01*
X144049619Y-76652380D01*
X143859142Y-76652380D01*
X143763904Y-76604761D01*
X143716285Y-76557142D01*
X143668666Y-76461904D01*
X143668666Y-75652380D01*
X143240095Y-75747619D02*
X143192476Y-75700000D01*
X143097238Y-75652380D01*
X142859142Y-75652380D01*
X142763904Y-75700000D01*
X142716285Y-75747619D01*
X142668666Y-75842857D01*
X142668666Y-75938095D01*
X142716285Y-76080952D01*
X143287714Y-76652380D01*
X142668666Y-76652380D01*
X142192476Y-76652380D02*
X142002000Y-76652380D01*
X141906761Y-76604761D01*
X141859142Y-76557142D01*
X141763904Y-76414285D01*
X141716285Y-76223809D01*
X141716285Y-75842857D01*
X141763904Y-75747619D01*
X141811523Y-75700000D01*
X141906761Y-75652380D01*
X142097238Y-75652380D01*
X142192476Y-75700000D01*
X142240095Y-75747619D01*
X142287714Y-75842857D01*
X142287714Y-76080952D01*
X142240095Y-76176190D01*
X142192476Y-76223809D01*
X142097238Y-76271428D01*
X141906761Y-76271428D01*
X141811523Y-76223809D01*
X141763904Y-76176190D01*
X141716285Y-76080952D01*
X165044380Y-94384952D02*
X164568190Y-94051619D01*
X165044380Y-93813523D02*
X164044380Y-93813523D01*
X164044380Y-94194476D01*
X164092000Y-94289714D01*
X164139619Y-94337333D01*
X164234857Y-94384952D01*
X164377714Y-94384952D01*
X164472952Y-94337333D01*
X164520571Y-94289714D01*
X164568190Y-94194476D01*
X164568190Y-93813523D01*
X165044380Y-95337333D02*
X165044380Y-94765904D01*
X165044380Y-95051619D02*
X164044380Y-95051619D01*
X164187238Y-94956380D01*
X164282476Y-94861142D01*
X164330095Y-94765904D01*
X164044380Y-95956380D02*
X164044380Y-96051619D01*
X164092000Y-96146857D01*
X164139619Y-96194476D01*
X164234857Y-96242095D01*
X164425333Y-96289714D01*
X164663428Y-96289714D01*
X164853904Y-96242095D01*
X164949142Y-96194476D01*
X164996761Y-96146857D01*
X165044380Y-96051619D01*
X165044380Y-95956380D01*
X164996761Y-95861142D01*
X164949142Y-95813523D01*
X164853904Y-95765904D01*
X164663428Y-95718285D01*
X164425333Y-95718285D01*
X164234857Y-95765904D01*
X164139619Y-95813523D01*
X164092000Y-95861142D01*
X164044380Y-95956380D01*
X165044380Y-97242095D02*
X165044380Y-96670666D01*
X165044380Y-96956380D02*
X164044380Y-96956380D01*
X164187238Y-96861142D01*
X164282476Y-96765904D01*
X164330095Y-96670666D01*
X170759380Y-94384952D02*
X170283190Y-94051619D01*
X170759380Y-93813523D02*
X169759380Y-93813523D01*
X169759380Y-94194476D01*
X169807000Y-94289714D01*
X169854619Y-94337333D01*
X169949857Y-94384952D01*
X170092714Y-94384952D01*
X170187952Y-94337333D01*
X170235571Y-94289714D01*
X170283190Y-94194476D01*
X170283190Y-93813523D01*
X170759380Y-95337333D02*
X170759380Y-94765904D01*
X170759380Y-95051619D02*
X169759380Y-95051619D01*
X169902238Y-94956380D01*
X169997476Y-94861142D01*
X170045095Y-94765904D01*
X169759380Y-95956380D02*
X169759380Y-96051619D01*
X169807000Y-96146857D01*
X169854619Y-96194476D01*
X169949857Y-96242095D01*
X170140333Y-96289714D01*
X170378428Y-96289714D01*
X170568904Y-96242095D01*
X170664142Y-96194476D01*
X170711761Y-96146857D01*
X170759380Y-96051619D01*
X170759380Y-95956380D01*
X170711761Y-95861142D01*
X170664142Y-95813523D01*
X170568904Y-95765904D01*
X170378428Y-95718285D01*
X170140333Y-95718285D01*
X169949857Y-95765904D01*
X169854619Y-95813523D01*
X169807000Y-95861142D01*
X169759380Y-95956380D01*
X169759380Y-96908761D02*
X169759380Y-97004000D01*
X169807000Y-97099238D01*
X169854619Y-97146857D01*
X169949857Y-97194476D01*
X170140333Y-97242095D01*
X170378428Y-97242095D01*
X170568904Y-97194476D01*
X170664142Y-97146857D01*
X170711761Y-97099238D01*
X170759380Y-97004000D01*
X170759380Y-96908761D01*
X170711761Y-96813523D01*
X170664142Y-96765904D01*
X170568904Y-96718285D01*
X170378428Y-96670666D01*
X170140333Y-96670666D01*
X169949857Y-96718285D01*
X169854619Y-96765904D01*
X169807000Y-96813523D01*
X169759380Y-96908761D01*
X94241857Y-121102380D02*
X94575190Y-120626190D01*
X94813285Y-121102380D02*
X94813285Y-120102380D01*
X94432333Y-120102380D01*
X94337095Y-120150000D01*
X94289476Y-120197619D01*
X94241857Y-120292857D01*
X94241857Y-120435714D01*
X94289476Y-120530952D01*
X94337095Y-120578571D01*
X94432333Y-120626190D01*
X94813285Y-120626190D01*
X93765666Y-121102380D02*
X93575190Y-121102380D01*
X93479952Y-121054761D01*
X93432333Y-121007142D01*
X93337095Y-120864285D01*
X93289476Y-120673809D01*
X93289476Y-120292857D01*
X93337095Y-120197619D01*
X93384714Y-120150000D01*
X93479952Y-120102380D01*
X93670428Y-120102380D01*
X93765666Y-120150000D01*
X93813285Y-120197619D01*
X93860904Y-120292857D01*
X93860904Y-120530952D01*
X93813285Y-120626190D01*
X93765666Y-120673809D01*
X93670428Y-120721428D01*
X93479952Y-120721428D01*
X93384714Y-120673809D01*
X93337095Y-120626190D01*
X93289476Y-120530952D01*
X92718047Y-120530952D02*
X92813285Y-120483333D01*
X92860904Y-120435714D01*
X92908523Y-120340476D01*
X92908523Y-120292857D01*
X92860904Y-120197619D01*
X92813285Y-120150000D01*
X92718047Y-120102380D01*
X92527571Y-120102380D01*
X92432333Y-120150000D01*
X92384714Y-120197619D01*
X92337095Y-120292857D01*
X92337095Y-120340476D01*
X92384714Y-120435714D01*
X92432333Y-120483333D01*
X92527571Y-120530952D01*
X92718047Y-120530952D01*
X92813285Y-120578571D01*
X92860904Y-120626190D01*
X92908523Y-120721428D01*
X92908523Y-120911904D01*
X92860904Y-121007142D01*
X92813285Y-121054761D01*
X92718047Y-121102380D01*
X92527571Y-121102380D01*
X92432333Y-121054761D01*
X92384714Y-121007142D01*
X92337095Y-120911904D01*
X92337095Y-120721428D01*
X92384714Y-120626190D01*
X92432333Y-120578571D01*
X92527571Y-120530952D01*
X203080857Y-94686380D02*
X203414190Y-94210190D01*
X203652285Y-94686380D02*
X203652285Y-93686380D01*
X203271333Y-93686380D01*
X203176095Y-93734000D01*
X203128476Y-93781619D01*
X203080857Y-93876857D01*
X203080857Y-94019714D01*
X203128476Y-94114952D01*
X203176095Y-94162571D01*
X203271333Y-94210190D01*
X203652285Y-94210190D01*
X202604666Y-94686380D02*
X202414190Y-94686380D01*
X202318952Y-94638761D01*
X202271333Y-94591142D01*
X202176095Y-94448285D01*
X202128476Y-94257809D01*
X202128476Y-93876857D01*
X202176095Y-93781619D01*
X202223714Y-93734000D01*
X202318952Y-93686380D01*
X202509428Y-93686380D01*
X202604666Y-93734000D01*
X202652285Y-93781619D01*
X202699904Y-93876857D01*
X202699904Y-94114952D01*
X202652285Y-94210190D01*
X202604666Y-94257809D01*
X202509428Y-94305428D01*
X202318952Y-94305428D01*
X202223714Y-94257809D01*
X202176095Y-94210190D01*
X202128476Y-94114952D01*
X201795142Y-93686380D02*
X201128476Y-93686380D01*
X201557047Y-94686380D01*
X203080857Y-87955380D02*
X203414190Y-87479190D01*
X203652285Y-87955380D02*
X203652285Y-86955380D01*
X203271333Y-86955380D01*
X203176095Y-87003000D01*
X203128476Y-87050619D01*
X203080857Y-87145857D01*
X203080857Y-87288714D01*
X203128476Y-87383952D01*
X203176095Y-87431571D01*
X203271333Y-87479190D01*
X203652285Y-87479190D01*
X202604666Y-87955380D02*
X202414190Y-87955380D01*
X202318952Y-87907761D01*
X202271333Y-87860142D01*
X202176095Y-87717285D01*
X202128476Y-87526809D01*
X202128476Y-87145857D01*
X202176095Y-87050619D01*
X202223714Y-87003000D01*
X202318952Y-86955380D01*
X202509428Y-86955380D01*
X202604666Y-87003000D01*
X202652285Y-87050619D01*
X202699904Y-87145857D01*
X202699904Y-87383952D01*
X202652285Y-87479190D01*
X202604666Y-87526809D01*
X202509428Y-87574428D01*
X202318952Y-87574428D01*
X202223714Y-87526809D01*
X202176095Y-87479190D01*
X202128476Y-87383952D01*
X201271333Y-86955380D02*
X201461809Y-86955380D01*
X201557047Y-87003000D01*
X201604666Y-87050619D01*
X201699904Y-87193476D01*
X201747523Y-87383952D01*
X201747523Y-87764904D01*
X201699904Y-87860142D01*
X201652285Y-87907761D01*
X201557047Y-87955380D01*
X201366571Y-87955380D01*
X201271333Y-87907761D01*
X201223714Y-87860142D01*
X201176095Y-87764904D01*
X201176095Y-87526809D01*
X201223714Y-87431571D01*
X201271333Y-87383952D01*
X201366571Y-87336333D01*
X201557047Y-87336333D01*
X201652285Y-87383952D01*
X201699904Y-87431571D01*
X201747523Y-87526809D01*
X203080857Y-85796380D02*
X203414190Y-85320190D01*
X203652285Y-85796380D02*
X203652285Y-84796380D01*
X203271333Y-84796380D01*
X203176095Y-84844000D01*
X203128476Y-84891619D01*
X203080857Y-84986857D01*
X203080857Y-85129714D01*
X203128476Y-85224952D01*
X203176095Y-85272571D01*
X203271333Y-85320190D01*
X203652285Y-85320190D01*
X202604666Y-85796380D02*
X202414190Y-85796380D01*
X202318952Y-85748761D01*
X202271333Y-85701142D01*
X202176095Y-85558285D01*
X202128476Y-85367809D01*
X202128476Y-84986857D01*
X202176095Y-84891619D01*
X202223714Y-84844000D01*
X202318952Y-84796380D01*
X202509428Y-84796380D01*
X202604666Y-84844000D01*
X202652285Y-84891619D01*
X202699904Y-84986857D01*
X202699904Y-85224952D01*
X202652285Y-85320190D01*
X202604666Y-85367809D01*
X202509428Y-85415428D01*
X202318952Y-85415428D01*
X202223714Y-85367809D01*
X202176095Y-85320190D01*
X202128476Y-85224952D01*
X201223714Y-84796380D02*
X201699904Y-84796380D01*
X201747523Y-85272571D01*
X201699904Y-85224952D01*
X201604666Y-85177333D01*
X201366571Y-85177333D01*
X201271333Y-85224952D01*
X201223714Y-85272571D01*
X201176095Y-85367809D01*
X201176095Y-85605904D01*
X201223714Y-85701142D01*
X201271333Y-85748761D01*
X201366571Y-85796380D01*
X201604666Y-85796380D01*
X201699904Y-85748761D01*
X201747523Y-85701142D01*
X203461857Y-79065380D02*
X203795190Y-78589190D01*
X204033285Y-79065380D02*
X204033285Y-78065380D01*
X203652333Y-78065380D01*
X203557095Y-78113000D01*
X203509476Y-78160619D01*
X203461857Y-78255857D01*
X203461857Y-78398714D01*
X203509476Y-78493952D01*
X203557095Y-78541571D01*
X203652333Y-78589190D01*
X204033285Y-78589190D01*
X202985666Y-79065380D02*
X202795190Y-79065380D01*
X202699952Y-79017761D01*
X202652333Y-78970142D01*
X202557095Y-78827285D01*
X202509476Y-78636809D01*
X202509476Y-78255857D01*
X202557095Y-78160619D01*
X202604714Y-78113000D01*
X202699952Y-78065380D01*
X202890428Y-78065380D01*
X202985666Y-78113000D01*
X203033285Y-78160619D01*
X203080904Y-78255857D01*
X203080904Y-78493952D01*
X203033285Y-78589190D01*
X202985666Y-78636809D01*
X202890428Y-78684428D01*
X202699952Y-78684428D01*
X202604714Y-78636809D01*
X202557095Y-78589190D01*
X202509476Y-78493952D01*
X201652333Y-78398714D02*
X201652333Y-79065380D01*
X201890428Y-78017761D02*
X202128523Y-78732047D01*
X201509476Y-78732047D01*
X83129380Y-124325142D02*
X82653190Y-123991809D01*
X83129380Y-123753714D02*
X82129380Y-123753714D01*
X82129380Y-124134666D01*
X82177000Y-124229904D01*
X82224619Y-124277523D01*
X82319857Y-124325142D01*
X82462714Y-124325142D01*
X82557952Y-124277523D01*
X82605571Y-124229904D01*
X82653190Y-124134666D01*
X82653190Y-123753714D01*
X83129380Y-124801333D02*
X83129380Y-124991809D01*
X83081761Y-125087047D01*
X83034142Y-125134666D01*
X82891285Y-125229904D01*
X82700809Y-125277523D01*
X82319857Y-125277523D01*
X82224619Y-125229904D01*
X82177000Y-125182285D01*
X82129380Y-125087047D01*
X82129380Y-124896571D01*
X82177000Y-124801333D01*
X82224619Y-124753714D01*
X82319857Y-124706095D01*
X82557952Y-124706095D01*
X82653190Y-124753714D01*
X82700809Y-124801333D01*
X82748428Y-124896571D01*
X82748428Y-125087047D01*
X82700809Y-125182285D01*
X82653190Y-125229904D01*
X82557952Y-125277523D01*
X82224619Y-125658476D02*
X82177000Y-125706095D01*
X82129380Y-125801333D01*
X82129380Y-126039428D01*
X82177000Y-126134666D01*
X82224619Y-126182285D01*
X82319857Y-126229904D01*
X82415095Y-126229904D01*
X82557952Y-126182285D01*
X83129380Y-125610857D01*
X83129380Y-126229904D01*
X83192857Y-136342380D02*
X83526190Y-135866190D01*
X83764285Y-136342380D02*
X83764285Y-135342380D01*
X83383333Y-135342380D01*
X83288095Y-135390000D01*
X83240476Y-135437619D01*
X83192857Y-135532857D01*
X83192857Y-135675714D01*
X83240476Y-135770952D01*
X83288095Y-135818571D01*
X83383333Y-135866190D01*
X83764285Y-135866190D01*
X82621428Y-135770952D02*
X82716666Y-135723333D01*
X82764285Y-135675714D01*
X82811904Y-135580476D01*
X82811904Y-135532857D01*
X82764285Y-135437619D01*
X82716666Y-135390000D01*
X82621428Y-135342380D01*
X82430952Y-135342380D01*
X82335714Y-135390000D01*
X82288095Y-135437619D01*
X82240476Y-135532857D01*
X82240476Y-135580476D01*
X82288095Y-135675714D01*
X82335714Y-135723333D01*
X82430952Y-135770952D01*
X82621428Y-135770952D01*
X82716666Y-135818571D01*
X82764285Y-135866190D01*
X82811904Y-135961428D01*
X82811904Y-136151904D01*
X82764285Y-136247142D01*
X82716666Y-136294761D01*
X82621428Y-136342380D01*
X82430952Y-136342380D01*
X82335714Y-136294761D01*
X82288095Y-136247142D01*
X82240476Y-136151904D01*
X82240476Y-135961428D01*
X82288095Y-135866190D01*
X82335714Y-135818571D01*
X82430952Y-135770952D01*
X81764285Y-136342380D02*
X81573809Y-136342380D01*
X81478571Y-136294761D01*
X81430952Y-136247142D01*
X81335714Y-136104285D01*
X81288095Y-135913809D01*
X81288095Y-135532857D01*
X81335714Y-135437619D01*
X81383333Y-135390000D01*
X81478571Y-135342380D01*
X81669047Y-135342380D01*
X81764285Y-135390000D01*
X81811904Y-135437619D01*
X81859523Y-135532857D01*
X81859523Y-135770952D01*
X81811904Y-135866190D01*
X81764285Y-135913809D01*
X81669047Y-135961428D01*
X81478571Y-135961428D01*
X81383333Y-135913809D01*
X81335714Y-135866190D01*
X81288095Y-135770952D01*
X92908380Y-133342142D02*
X92432190Y-133008809D01*
X92908380Y-132770714D02*
X91908380Y-132770714D01*
X91908380Y-133151666D01*
X91956000Y-133246904D01*
X92003619Y-133294523D01*
X92098857Y-133342142D01*
X92241714Y-133342142D01*
X92336952Y-133294523D01*
X92384571Y-133246904D01*
X92432190Y-133151666D01*
X92432190Y-132770714D01*
X92336952Y-133913571D02*
X92289333Y-133818333D01*
X92241714Y-133770714D01*
X92146476Y-133723095D01*
X92098857Y-133723095D01*
X92003619Y-133770714D01*
X91956000Y-133818333D01*
X91908380Y-133913571D01*
X91908380Y-134104047D01*
X91956000Y-134199285D01*
X92003619Y-134246904D01*
X92098857Y-134294523D01*
X92146476Y-134294523D01*
X92241714Y-134246904D01*
X92289333Y-134199285D01*
X92336952Y-134104047D01*
X92336952Y-133913571D01*
X92384571Y-133818333D01*
X92432190Y-133770714D01*
X92527428Y-133723095D01*
X92717904Y-133723095D01*
X92813142Y-133770714D01*
X92860761Y-133818333D01*
X92908380Y-133913571D01*
X92908380Y-134104047D01*
X92860761Y-134199285D01*
X92813142Y-134246904D01*
X92717904Y-134294523D01*
X92527428Y-134294523D01*
X92432190Y-134246904D01*
X92384571Y-134199285D01*
X92336952Y-134104047D01*
X92336952Y-134865952D02*
X92289333Y-134770714D01*
X92241714Y-134723095D01*
X92146476Y-134675476D01*
X92098857Y-134675476D01*
X92003619Y-134723095D01*
X91956000Y-134770714D01*
X91908380Y-134865952D01*
X91908380Y-135056428D01*
X91956000Y-135151666D01*
X92003619Y-135199285D01*
X92098857Y-135246904D01*
X92146476Y-135246904D01*
X92241714Y-135199285D01*
X92289333Y-135151666D01*
X92336952Y-135056428D01*
X92336952Y-134865952D01*
X92384571Y-134770714D01*
X92432190Y-134723095D01*
X92527428Y-134675476D01*
X92717904Y-134675476D01*
X92813142Y-134723095D01*
X92860761Y-134770714D01*
X92908380Y-134865952D01*
X92908380Y-135056428D01*
X92860761Y-135151666D01*
X92813142Y-135199285D01*
X92717904Y-135246904D01*
X92527428Y-135246904D01*
X92432190Y-135199285D01*
X92384571Y-135151666D01*
X92336952Y-135056428D01*
X83192857Y-132532380D02*
X83526190Y-132056190D01*
X83764285Y-132532380D02*
X83764285Y-131532380D01*
X83383333Y-131532380D01*
X83288095Y-131580000D01*
X83240476Y-131627619D01*
X83192857Y-131722857D01*
X83192857Y-131865714D01*
X83240476Y-131960952D01*
X83288095Y-132008571D01*
X83383333Y-132056190D01*
X83764285Y-132056190D01*
X82621428Y-131960952D02*
X82716666Y-131913333D01*
X82764285Y-131865714D01*
X82811904Y-131770476D01*
X82811904Y-131722857D01*
X82764285Y-131627619D01*
X82716666Y-131580000D01*
X82621428Y-131532380D01*
X82430952Y-131532380D01*
X82335714Y-131580000D01*
X82288095Y-131627619D01*
X82240476Y-131722857D01*
X82240476Y-131770476D01*
X82288095Y-131865714D01*
X82335714Y-131913333D01*
X82430952Y-131960952D01*
X82621428Y-131960952D01*
X82716666Y-132008571D01*
X82764285Y-132056190D01*
X82811904Y-132151428D01*
X82811904Y-132341904D01*
X82764285Y-132437142D01*
X82716666Y-132484761D01*
X82621428Y-132532380D01*
X82430952Y-132532380D01*
X82335714Y-132484761D01*
X82288095Y-132437142D01*
X82240476Y-132341904D01*
X82240476Y-132151428D01*
X82288095Y-132056190D01*
X82335714Y-132008571D01*
X82430952Y-131960952D01*
X81907142Y-131532380D02*
X81240476Y-131532380D01*
X81669047Y-132532380D01*
X139580857Y-80716380D02*
X139914190Y-80240190D01*
X140152285Y-80716380D02*
X140152285Y-79716380D01*
X139771333Y-79716380D01*
X139676095Y-79764000D01*
X139628476Y-79811619D01*
X139580857Y-79906857D01*
X139580857Y-80049714D01*
X139628476Y-80144952D01*
X139676095Y-80192571D01*
X139771333Y-80240190D01*
X140152285Y-80240190D01*
X139009428Y-80144952D02*
X139104666Y-80097333D01*
X139152285Y-80049714D01*
X139199904Y-79954476D01*
X139199904Y-79906857D01*
X139152285Y-79811619D01*
X139104666Y-79764000D01*
X139009428Y-79716380D01*
X138818952Y-79716380D01*
X138723714Y-79764000D01*
X138676095Y-79811619D01*
X138628476Y-79906857D01*
X138628476Y-79954476D01*
X138676095Y-80049714D01*
X138723714Y-80097333D01*
X138818952Y-80144952D01*
X139009428Y-80144952D01*
X139104666Y-80192571D01*
X139152285Y-80240190D01*
X139199904Y-80335428D01*
X139199904Y-80525904D01*
X139152285Y-80621142D01*
X139104666Y-80668761D01*
X139009428Y-80716380D01*
X138818952Y-80716380D01*
X138723714Y-80668761D01*
X138676095Y-80621142D01*
X138628476Y-80525904D01*
X138628476Y-80335428D01*
X138676095Y-80240190D01*
X138723714Y-80192571D01*
X138818952Y-80144952D01*
X137723714Y-79716380D02*
X138199904Y-79716380D01*
X138247523Y-80192571D01*
X138199904Y-80144952D01*
X138104666Y-80097333D01*
X137866571Y-80097333D01*
X137771333Y-80144952D01*
X137723714Y-80192571D01*
X137676095Y-80287809D01*
X137676095Y-80525904D01*
X137723714Y-80621142D01*
X137771333Y-80668761D01*
X137866571Y-80716380D01*
X138104666Y-80716380D01*
X138199904Y-80668761D01*
X138247523Y-80621142D01*
X51760380Y-124198142D02*
X51284190Y-123864809D01*
X51760380Y-123626714D02*
X50760380Y-123626714D01*
X50760380Y-124007666D01*
X50808000Y-124102904D01*
X50855619Y-124150523D01*
X50950857Y-124198142D01*
X51093714Y-124198142D01*
X51188952Y-124150523D01*
X51236571Y-124102904D01*
X51284190Y-124007666D01*
X51284190Y-123626714D01*
X50760380Y-124531476D02*
X50760380Y-125198142D01*
X51760380Y-124769571D01*
X50760380Y-126007666D02*
X50760380Y-125817190D01*
X50808000Y-125721952D01*
X50855619Y-125674333D01*
X50998476Y-125579095D01*
X51188952Y-125531476D01*
X51569904Y-125531476D01*
X51665142Y-125579095D01*
X51712761Y-125626714D01*
X51760380Y-125721952D01*
X51760380Y-125912428D01*
X51712761Y-126007666D01*
X51665142Y-126055285D01*
X51569904Y-126102904D01*
X51331809Y-126102904D01*
X51236571Y-126055285D01*
X51188952Y-126007666D01*
X51141333Y-125912428D01*
X51141333Y-125721952D01*
X51188952Y-125626714D01*
X51236571Y-125579095D01*
X51331809Y-125531476D01*
X51442857Y-135580380D02*
X51776190Y-135104190D01*
X52014285Y-135580380D02*
X52014285Y-134580380D01*
X51633333Y-134580380D01*
X51538095Y-134628000D01*
X51490476Y-134675619D01*
X51442857Y-134770857D01*
X51442857Y-134913714D01*
X51490476Y-135008952D01*
X51538095Y-135056571D01*
X51633333Y-135104190D01*
X52014285Y-135104190D01*
X51109523Y-134580380D02*
X50442857Y-134580380D01*
X50871428Y-135580380D01*
X50157142Y-134580380D02*
X49538095Y-134580380D01*
X49871428Y-134961333D01*
X49728571Y-134961333D01*
X49633333Y-135008952D01*
X49585714Y-135056571D01*
X49538095Y-135151809D01*
X49538095Y-135389904D01*
X49585714Y-135485142D01*
X49633333Y-135532761D01*
X49728571Y-135580380D01*
X50014285Y-135580380D01*
X50109523Y-135532761D01*
X50157142Y-135485142D01*
X203652380Y-123309142D02*
X203176190Y-122975809D01*
X203652380Y-122737714D02*
X202652380Y-122737714D01*
X202652380Y-123118666D01*
X202700000Y-123213904D01*
X202747619Y-123261523D01*
X202842857Y-123309142D01*
X202985714Y-123309142D01*
X203080952Y-123261523D01*
X203128571Y-123213904D01*
X203176190Y-123118666D01*
X203176190Y-122737714D01*
X202652380Y-123642476D02*
X202652380Y-124309142D01*
X203652380Y-123880571D01*
X202747619Y-124642476D02*
X202700000Y-124690095D01*
X202652380Y-124785333D01*
X202652380Y-125023428D01*
X202700000Y-125118666D01*
X202747619Y-125166285D01*
X202842857Y-125213904D01*
X202938095Y-125213904D01*
X203080952Y-125166285D01*
X203652380Y-124594857D01*
X203652380Y-125213904D01*
X60904380Y-132961142D02*
X60428190Y-132627809D01*
X60904380Y-132389714D02*
X59904380Y-132389714D01*
X59904380Y-132770666D01*
X59952000Y-132865904D01*
X59999619Y-132913523D01*
X60094857Y-132961142D01*
X60237714Y-132961142D01*
X60332952Y-132913523D01*
X60380571Y-132865904D01*
X60428190Y-132770666D01*
X60428190Y-132389714D01*
X59904380Y-133294476D02*
X59904380Y-133961142D01*
X60904380Y-133532571D01*
X60904380Y-134865904D02*
X60904380Y-134294476D01*
X60904380Y-134580190D02*
X59904380Y-134580190D01*
X60047238Y-134484952D01*
X60142476Y-134389714D01*
X60190095Y-134294476D01*
X51442857Y-132532380D02*
X51776190Y-132056190D01*
X52014285Y-132532380D02*
X52014285Y-131532380D01*
X51633333Y-131532380D01*
X51538095Y-131580000D01*
X51490476Y-131627619D01*
X51442857Y-131722857D01*
X51442857Y-131865714D01*
X51490476Y-131960952D01*
X51538095Y-132008571D01*
X51633333Y-132056190D01*
X52014285Y-132056190D01*
X51109523Y-131532380D02*
X50442857Y-131532380D01*
X50871428Y-132532380D01*
X49871428Y-131532380D02*
X49776190Y-131532380D01*
X49680952Y-131580000D01*
X49633333Y-131627619D01*
X49585714Y-131722857D01*
X49538095Y-131913333D01*
X49538095Y-132151428D01*
X49585714Y-132341904D01*
X49633333Y-132437142D01*
X49680952Y-132484761D01*
X49776190Y-132532380D01*
X49871428Y-132532380D01*
X49966666Y-132484761D01*
X50014285Y-132437142D01*
X50061904Y-132341904D01*
X50109523Y-132151428D01*
X50109523Y-131913333D01*
X50061904Y-131722857D01*
X50014285Y-131627619D01*
X49966666Y-131580000D01*
X49871428Y-131532380D01*
X135199380Y-121531142D02*
X134723190Y-121197809D01*
X135199380Y-120959714D02*
X134199380Y-120959714D01*
X134199380Y-121340666D01*
X134247000Y-121435904D01*
X134294619Y-121483523D01*
X134389857Y-121531142D01*
X134532714Y-121531142D01*
X134627952Y-121483523D01*
X134675571Y-121435904D01*
X134723190Y-121340666D01*
X134723190Y-120959714D01*
X134532714Y-122388285D02*
X135199380Y-122388285D01*
X134151761Y-122150190D02*
X134866047Y-121912095D01*
X134866047Y-122531142D01*
X135199380Y-122959714D02*
X135199380Y-123150190D01*
X135151761Y-123245428D01*
X135104142Y-123293047D01*
X134961285Y-123388285D01*
X134770809Y-123435904D01*
X134389857Y-123435904D01*
X134294619Y-123388285D01*
X134247000Y-123340666D01*
X134199380Y-123245428D01*
X134199380Y-123054952D01*
X134247000Y-122959714D01*
X134294619Y-122912095D01*
X134389857Y-122864476D01*
X134627952Y-122864476D01*
X134723190Y-122912095D01*
X134770809Y-122959714D01*
X134818428Y-123054952D01*
X134818428Y-123245428D01*
X134770809Y-123340666D01*
X134723190Y-123388285D01*
X134627952Y-123435904D01*
X135326380Y-126357142D02*
X134850190Y-126023809D01*
X135326380Y-125785714D02*
X134326380Y-125785714D01*
X134326380Y-126166666D01*
X134374000Y-126261904D01*
X134421619Y-126309523D01*
X134516857Y-126357142D01*
X134659714Y-126357142D01*
X134754952Y-126309523D01*
X134802571Y-126261904D01*
X134850190Y-126166666D01*
X134850190Y-125785714D01*
X134659714Y-127214285D02*
X135326380Y-127214285D01*
X134278761Y-126976190D02*
X134993047Y-126738095D01*
X134993047Y-127357142D01*
X134754952Y-127880952D02*
X134707333Y-127785714D01*
X134659714Y-127738095D01*
X134564476Y-127690476D01*
X134516857Y-127690476D01*
X134421619Y-127738095D01*
X134374000Y-127785714D01*
X134326380Y-127880952D01*
X134326380Y-128071428D01*
X134374000Y-128166666D01*
X134421619Y-128214285D01*
X134516857Y-128261904D01*
X134564476Y-128261904D01*
X134659714Y-128214285D01*
X134707333Y-128166666D01*
X134754952Y-128071428D01*
X134754952Y-127880952D01*
X134802571Y-127785714D01*
X134850190Y-127738095D01*
X134945428Y-127690476D01*
X135135904Y-127690476D01*
X135231142Y-127738095D01*
X135278761Y-127785714D01*
X135326380Y-127880952D01*
X135326380Y-128071428D01*
X135278761Y-128166666D01*
X135231142Y-128214285D01*
X135135904Y-128261904D01*
X134945428Y-128261904D01*
X134850190Y-128214285D01*
X134802571Y-128166666D01*
X134754952Y-128071428D01*
X129293857Y-130246380D02*
X129627190Y-129770190D01*
X129865285Y-130246380D02*
X129865285Y-129246380D01*
X129484333Y-129246380D01*
X129389095Y-129294000D01*
X129341476Y-129341619D01*
X129293857Y-129436857D01*
X129293857Y-129579714D01*
X129341476Y-129674952D01*
X129389095Y-129722571D01*
X129484333Y-129770190D01*
X129865285Y-129770190D01*
X128436714Y-129579714D02*
X128436714Y-130246380D01*
X128674809Y-129198761D02*
X128912904Y-129913047D01*
X128293857Y-129913047D01*
X127484333Y-129246380D02*
X127674809Y-129246380D01*
X127770047Y-129294000D01*
X127817666Y-129341619D01*
X127912904Y-129484476D01*
X127960523Y-129674952D01*
X127960523Y-130055904D01*
X127912904Y-130151142D01*
X127865285Y-130198761D01*
X127770047Y-130246380D01*
X127579571Y-130246380D01*
X127484333Y-130198761D01*
X127436714Y-130151142D01*
X127389095Y-130055904D01*
X127389095Y-129817809D01*
X127436714Y-129722571D01*
X127484333Y-129674952D01*
X127579571Y-129627333D01*
X127770047Y-129627333D01*
X127865285Y-129674952D01*
X127912904Y-129722571D01*
X127960523Y-129817809D01*
X97321619Y-127190571D02*
X97274000Y-127095333D01*
X97178761Y-127000095D01*
X97035904Y-126857238D01*
X96988285Y-126762000D01*
X96988285Y-126666761D01*
X97226380Y-126714380D02*
X97178761Y-126619142D01*
X97083523Y-126523904D01*
X96893047Y-126476285D01*
X96559714Y-126476285D01*
X96369238Y-126523904D01*
X96274000Y-126619142D01*
X96226380Y-126714380D01*
X96226380Y-126904857D01*
X96274000Y-127000095D01*
X96369238Y-127095333D01*
X96559714Y-127142952D01*
X96893047Y-127142952D01*
X97083523Y-127095333D01*
X97178761Y-127000095D01*
X97226380Y-126904857D01*
X97226380Y-126714380D01*
X96321619Y-127523904D02*
X96274000Y-127571523D01*
X96226380Y-127666761D01*
X96226380Y-127904857D01*
X96274000Y-128000095D01*
X96321619Y-128047714D01*
X96416857Y-128095333D01*
X96512095Y-128095333D01*
X96654952Y-128047714D01*
X97226380Y-127476285D01*
X97226380Y-128095333D01*
X96321619Y-128476285D02*
X96274000Y-128523904D01*
X96226380Y-128619142D01*
X96226380Y-128857238D01*
X96274000Y-128952476D01*
X96321619Y-129000095D01*
X96416857Y-129047714D01*
X96512095Y-129047714D01*
X96654952Y-129000095D01*
X97226380Y-128428666D01*
X97226380Y-129047714D01*
X62293428Y-125769619D02*
X62388666Y-125722000D01*
X62483904Y-125626761D01*
X62626761Y-125483904D01*
X62722000Y-125436285D01*
X62817238Y-125436285D01*
X62769619Y-125674380D02*
X62864857Y-125626761D01*
X62960095Y-125531523D01*
X63007714Y-125341047D01*
X63007714Y-125007714D01*
X62960095Y-124817238D01*
X62864857Y-124722000D01*
X62769619Y-124674380D01*
X62579142Y-124674380D01*
X62483904Y-124722000D01*
X62388666Y-124817238D01*
X62341047Y-125007714D01*
X62341047Y-125341047D01*
X62388666Y-125531523D01*
X62483904Y-125626761D01*
X62579142Y-125674380D01*
X62769619Y-125674380D01*
X61388666Y-125674380D02*
X61960095Y-125674380D01*
X61674380Y-125674380D02*
X61674380Y-124674380D01*
X61769619Y-124817238D01*
X61864857Y-124912476D01*
X61960095Y-124960095D01*
X60817238Y-125102952D02*
X60912476Y-125055333D01*
X60960095Y-125007714D01*
X61007714Y-124912476D01*
X61007714Y-124864857D01*
X60960095Y-124769619D01*
X60912476Y-124722000D01*
X60817238Y-124674380D01*
X60626761Y-124674380D01*
X60531523Y-124722000D01*
X60483904Y-124769619D01*
X60436285Y-124864857D01*
X60436285Y-124912476D01*
X60483904Y-125007714D01*
X60531523Y-125055333D01*
X60626761Y-125102952D01*
X60817238Y-125102952D01*
X60912476Y-125150571D01*
X60960095Y-125198190D01*
X61007714Y-125293428D01*
X61007714Y-125483904D01*
X60960095Y-125579142D01*
X60912476Y-125626761D01*
X60817238Y-125674380D01*
X60626761Y-125674380D01*
X60531523Y-125626761D01*
X60483904Y-125579142D01*
X60436285Y-125483904D01*
X60436285Y-125293428D01*
X60483904Y-125198190D01*
X60531523Y-125150571D01*
X60626761Y-125102952D01*
X106678285Y-132516380D02*
X106678285Y-131516380D01*
X106440190Y-131516380D01*
X106297333Y-131564000D01*
X106202095Y-131659238D01*
X106154476Y-131754476D01*
X106106857Y-131944952D01*
X106106857Y-132087809D01*
X106154476Y-132278285D01*
X106202095Y-132373523D01*
X106297333Y-132468761D01*
X106440190Y-132516380D01*
X106678285Y-132516380D01*
X105202095Y-131516380D02*
X105678285Y-131516380D01*
X105725904Y-131992571D01*
X105678285Y-131944952D01*
X105583047Y-131897333D01*
X105344952Y-131897333D01*
X105249714Y-131944952D01*
X105202095Y-131992571D01*
X105154476Y-132087809D01*
X105154476Y-132325904D01*
X105202095Y-132421142D01*
X105249714Y-132468761D01*
X105344952Y-132516380D01*
X105583047Y-132516380D01*
X105678285Y-132468761D01*
X105725904Y-132421142D01*
X104297333Y-131849714D02*
X104297333Y-132516380D01*
X104535428Y-131468761D02*
X104773523Y-132183047D01*
X104154476Y-132183047D01*
X88590285Y-128722380D02*
X88590285Y-127722380D01*
X88352190Y-127722380D01*
X88209333Y-127770000D01*
X88114095Y-127865238D01*
X88066476Y-127960476D01*
X88018857Y-128150952D01*
X88018857Y-128293809D01*
X88066476Y-128484285D01*
X88114095Y-128579523D01*
X88209333Y-128674761D01*
X88352190Y-128722380D01*
X88590285Y-128722380D01*
X87161714Y-128055714D02*
X87161714Y-128722380D01*
X87399809Y-127674761D02*
X87637904Y-128389047D01*
X87018857Y-128389047D01*
X86590285Y-128722380D02*
X86399809Y-128722380D01*
X86304571Y-128674761D01*
X86256952Y-128627142D01*
X86161714Y-128484285D01*
X86114095Y-128293809D01*
X86114095Y-127912857D01*
X86161714Y-127817619D01*
X86209333Y-127770000D01*
X86304571Y-127722380D01*
X86495047Y-127722380D01*
X86590285Y-127770000D01*
X86637904Y-127817619D01*
X86685523Y-127912857D01*
X86685523Y-128150952D01*
X86637904Y-128246190D01*
X86590285Y-128293809D01*
X86495047Y-128341428D01*
X86304571Y-128341428D01*
X86209333Y-128293809D01*
X86161714Y-128246190D01*
X86114095Y-128150952D01*
X68678285Y-132516380D02*
X68678285Y-131516380D01*
X68440190Y-131516380D01*
X68297333Y-131564000D01*
X68202095Y-131659238D01*
X68154476Y-131754476D01*
X68106857Y-131944952D01*
X68106857Y-132087809D01*
X68154476Y-132278285D01*
X68202095Y-132373523D01*
X68297333Y-132468761D01*
X68440190Y-132516380D01*
X68678285Y-132516380D01*
X67249714Y-131849714D02*
X67249714Y-132516380D01*
X67487809Y-131468761D02*
X67725904Y-132183047D01*
X67106857Y-132183047D01*
X66249714Y-131516380D02*
X66725904Y-131516380D01*
X66773523Y-131992571D01*
X66725904Y-131944952D01*
X66630666Y-131897333D01*
X66392571Y-131897333D01*
X66297333Y-131944952D01*
X66249714Y-131992571D01*
X66202095Y-132087809D01*
X66202095Y-132325904D01*
X66249714Y-132421142D01*
X66297333Y-132468761D01*
X66392571Y-132516380D01*
X66630666Y-132516380D01*
X66725904Y-132468761D01*
X66773523Y-132421142D01*
X177998285Y-119832380D02*
X177998285Y-118832380D01*
X177760190Y-118832380D01*
X177617333Y-118880000D01*
X177522095Y-118975238D01*
X177474476Y-119070476D01*
X177426857Y-119260952D01*
X177426857Y-119403809D01*
X177474476Y-119594285D01*
X177522095Y-119689523D01*
X177617333Y-119784761D01*
X177760190Y-119832380D01*
X177998285Y-119832380D01*
X176569714Y-119165714D02*
X176569714Y-119832380D01*
X176807809Y-118784761D02*
X177045904Y-119499047D01*
X176426857Y-119499047D01*
X176093523Y-118927619D02*
X176045904Y-118880000D01*
X175950666Y-118832380D01*
X175712571Y-118832380D01*
X175617333Y-118880000D01*
X175569714Y-118927619D01*
X175522095Y-119022857D01*
X175522095Y-119118095D01*
X175569714Y-119260952D01*
X176141142Y-119832380D01*
X175522095Y-119832380D01*
X56840285Y-128722380D02*
X56840285Y-127722380D01*
X56602190Y-127722380D01*
X56459333Y-127770000D01*
X56364095Y-127865238D01*
X56316476Y-127960476D01*
X56268857Y-128150952D01*
X56268857Y-128293809D01*
X56316476Y-128484285D01*
X56364095Y-128579523D01*
X56459333Y-128674761D01*
X56602190Y-128722380D01*
X56840285Y-128722380D01*
X55411714Y-128055714D02*
X55411714Y-128722380D01*
X55649809Y-127674761D02*
X55887904Y-128389047D01*
X55268857Y-128389047D01*
X54697428Y-127722380D02*
X54602190Y-127722380D01*
X54506952Y-127770000D01*
X54459333Y-127817619D01*
X54411714Y-127912857D01*
X54364095Y-128103333D01*
X54364095Y-128341428D01*
X54411714Y-128531904D01*
X54459333Y-128627142D01*
X54506952Y-128674761D01*
X54602190Y-128722380D01*
X54697428Y-128722380D01*
X54792666Y-128674761D01*
X54840285Y-128627142D01*
X54887904Y-128531904D01*
X54935523Y-128341428D01*
X54935523Y-128103333D01*
X54887904Y-127912857D01*
X54840285Y-127817619D01*
X54792666Y-127770000D01*
X54697428Y-127722380D01*
X177998285Y-128468380D02*
X177998285Y-127468380D01*
X177760190Y-127468380D01*
X177617333Y-127516000D01*
X177522095Y-127611238D01*
X177474476Y-127706476D01*
X177426857Y-127896952D01*
X177426857Y-128039809D01*
X177474476Y-128230285D01*
X177522095Y-128325523D01*
X177617333Y-128420761D01*
X177760190Y-128468380D01*
X177998285Y-128468380D01*
X177093523Y-127468380D02*
X176474476Y-127468380D01*
X176807809Y-127849333D01*
X176664952Y-127849333D01*
X176569714Y-127896952D01*
X176522095Y-127944571D01*
X176474476Y-128039809D01*
X176474476Y-128277904D01*
X176522095Y-128373142D01*
X176569714Y-128420761D01*
X176664952Y-128468380D01*
X176950666Y-128468380D01*
X177045904Y-128420761D01*
X177093523Y-128373142D01*
X175903047Y-127896952D02*
X175998285Y-127849333D01*
X176045904Y-127801714D01*
X176093523Y-127706476D01*
X176093523Y-127658857D01*
X176045904Y-127563619D01*
X175998285Y-127516000D01*
X175903047Y-127468380D01*
X175712571Y-127468380D01*
X175617333Y-127516000D01*
X175569714Y-127563619D01*
X175522095Y-127658857D01*
X175522095Y-127706476D01*
X175569714Y-127801714D01*
X175617333Y-127849333D01*
X175712571Y-127896952D01*
X175903047Y-127896952D01*
X175998285Y-127944571D01*
X176045904Y-127992190D01*
X176093523Y-128087428D01*
X176093523Y-128277904D01*
X176045904Y-128373142D01*
X175998285Y-128420761D01*
X175903047Y-128468380D01*
X175712571Y-128468380D01*
X175617333Y-128420761D01*
X175569714Y-128373142D01*
X175522095Y-128277904D01*
X175522095Y-128087428D01*
X175569714Y-127992190D01*
X175617333Y-127944571D01*
X175712571Y-127896952D01*
X206319285Y-47061380D02*
X206319285Y-46061380D01*
X206081190Y-46061380D01*
X205938333Y-46109000D01*
X205843095Y-46204238D01*
X205795476Y-46299476D01*
X205747857Y-46489952D01*
X205747857Y-46632809D01*
X205795476Y-46823285D01*
X205843095Y-46918523D01*
X205938333Y-47013761D01*
X206081190Y-47061380D01*
X206319285Y-47061380D01*
X205414523Y-46061380D02*
X204795476Y-46061380D01*
X205128809Y-46442333D01*
X204985952Y-46442333D01*
X204890714Y-46489952D01*
X204843095Y-46537571D01*
X204795476Y-46632809D01*
X204795476Y-46870904D01*
X204843095Y-46966142D01*
X204890714Y-47013761D01*
X204985952Y-47061380D01*
X205271666Y-47061380D01*
X205366904Y-47013761D01*
X205414523Y-46966142D01*
X203843095Y-47061380D02*
X204414523Y-47061380D01*
X204128809Y-47061380D02*
X204128809Y-46061380D01*
X204224047Y-46204238D01*
X204319285Y-46299476D01*
X204414523Y-46347095D01*
X191702740Y-47061380D02*
X191702740Y-46061380D01*
X191464645Y-46061380D01*
X191321788Y-46109000D01*
X191226550Y-46204238D01*
X191178931Y-46299476D01*
X191131312Y-46489952D01*
X191131312Y-46632809D01*
X191178931Y-46823285D01*
X191226550Y-46918523D01*
X191321788Y-47013761D01*
X191464645Y-47061380D01*
X191702740Y-47061380D01*
X190797978Y-46061380D02*
X190178931Y-46061380D01*
X190512264Y-46442333D01*
X190369407Y-46442333D01*
X190274169Y-46489952D01*
X190226550Y-46537571D01*
X190178931Y-46632809D01*
X190178931Y-46870904D01*
X190226550Y-46966142D01*
X190274169Y-47013761D01*
X190369407Y-47061380D01*
X190655121Y-47061380D01*
X190750359Y-47013761D01*
X190797978Y-46966142D01*
X189559883Y-46061380D02*
X189464645Y-46061380D01*
X189369407Y-46109000D01*
X189321788Y-46156619D01*
X189274169Y-46251857D01*
X189226550Y-46442333D01*
X189226550Y-46680428D01*
X189274169Y-46870904D01*
X189321788Y-46966142D01*
X189369407Y-47013761D01*
X189464645Y-47061380D01*
X189559883Y-47061380D01*
X189655121Y-47013761D01*
X189702740Y-46966142D01*
X189750359Y-46870904D01*
X189797978Y-46680428D01*
X189797978Y-46442333D01*
X189750359Y-46251857D01*
X189702740Y-46156619D01*
X189655121Y-46109000D01*
X189559883Y-46061380D01*
X177086194Y-47061380D02*
X177086194Y-46061380D01*
X176848099Y-46061380D01*
X176705242Y-46109000D01*
X176610004Y-46204238D01*
X176562385Y-46299476D01*
X176514766Y-46489952D01*
X176514766Y-46632809D01*
X176562385Y-46823285D01*
X176610004Y-46918523D01*
X176705242Y-47013761D01*
X176848099Y-47061380D01*
X177086194Y-47061380D01*
X176133813Y-46156619D02*
X176086194Y-46109000D01*
X175990956Y-46061380D01*
X175752861Y-46061380D01*
X175657623Y-46109000D01*
X175610004Y-46156619D01*
X175562385Y-46251857D01*
X175562385Y-46347095D01*
X175610004Y-46489952D01*
X176181432Y-47061380D01*
X175562385Y-47061380D01*
X175086194Y-47061380D02*
X174895718Y-47061380D01*
X174800480Y-47013761D01*
X174752861Y-46966142D01*
X174657623Y-46823285D01*
X174610004Y-46632809D01*
X174610004Y-46251857D01*
X174657623Y-46156619D01*
X174705242Y-46109000D01*
X174800480Y-46061380D01*
X174990956Y-46061380D01*
X175086194Y-46109000D01*
X175133813Y-46156619D01*
X175181432Y-46251857D01*
X175181432Y-46489952D01*
X175133813Y-46585190D01*
X175086194Y-46632809D01*
X174990956Y-46680428D01*
X174800480Y-46680428D01*
X174705242Y-46632809D01*
X174657623Y-46585190D01*
X174610004Y-46489952D01*
X162469649Y-47061380D02*
X162469649Y-46061380D01*
X162231554Y-46061380D01*
X162088697Y-46109000D01*
X161993459Y-46204238D01*
X161945840Y-46299476D01*
X161898221Y-46489952D01*
X161898221Y-46632809D01*
X161945840Y-46823285D01*
X161993459Y-46918523D01*
X162088697Y-47013761D01*
X162231554Y-47061380D01*
X162469649Y-47061380D01*
X161517268Y-46156619D02*
X161469649Y-46109000D01*
X161374411Y-46061380D01*
X161136316Y-46061380D01*
X161041078Y-46109000D01*
X160993459Y-46156619D01*
X160945840Y-46251857D01*
X160945840Y-46347095D01*
X160993459Y-46489952D01*
X161564887Y-47061380D01*
X160945840Y-47061380D01*
X160374411Y-46489952D02*
X160469649Y-46442333D01*
X160517268Y-46394714D01*
X160564887Y-46299476D01*
X160564887Y-46251857D01*
X160517268Y-46156619D01*
X160469649Y-46109000D01*
X160374411Y-46061380D01*
X160183935Y-46061380D01*
X160088697Y-46109000D01*
X160041078Y-46156619D01*
X159993459Y-46251857D01*
X159993459Y-46299476D01*
X160041078Y-46394714D01*
X160088697Y-46442333D01*
X160183935Y-46489952D01*
X160374411Y-46489952D01*
X160469649Y-46537571D01*
X160517268Y-46585190D01*
X160564887Y-46680428D01*
X160564887Y-46870904D01*
X160517268Y-46966142D01*
X160469649Y-47013761D01*
X160374411Y-47061380D01*
X160183935Y-47061380D01*
X160088697Y-47013761D01*
X160041078Y-46966142D01*
X159993459Y-46870904D01*
X159993459Y-46680428D01*
X160041078Y-46585190D01*
X160088697Y-46537571D01*
X160183935Y-46489952D01*
X147853103Y-47061380D02*
X147853103Y-46061380D01*
X147615008Y-46061380D01*
X147472151Y-46109000D01*
X147376913Y-46204238D01*
X147329294Y-46299476D01*
X147281675Y-46489952D01*
X147281675Y-46632809D01*
X147329294Y-46823285D01*
X147376913Y-46918523D01*
X147472151Y-47013761D01*
X147615008Y-47061380D01*
X147853103Y-47061380D01*
X146900722Y-46156619D02*
X146853103Y-46109000D01*
X146757865Y-46061380D01*
X146519770Y-46061380D01*
X146424532Y-46109000D01*
X146376913Y-46156619D01*
X146329294Y-46251857D01*
X146329294Y-46347095D01*
X146376913Y-46489952D01*
X146948341Y-47061380D01*
X146329294Y-47061380D01*
X145995960Y-46061380D02*
X145329294Y-46061380D01*
X145757865Y-47061380D01*
X133236558Y-47061380D02*
X133236558Y-46061380D01*
X132998463Y-46061380D01*
X132855606Y-46109000D01*
X132760368Y-46204238D01*
X132712749Y-46299476D01*
X132665130Y-46489952D01*
X132665130Y-46632809D01*
X132712749Y-46823285D01*
X132760368Y-46918523D01*
X132855606Y-47013761D01*
X132998463Y-47061380D01*
X133236558Y-47061380D01*
X132284177Y-46156619D02*
X132236558Y-46109000D01*
X132141320Y-46061380D01*
X131903225Y-46061380D01*
X131807987Y-46109000D01*
X131760368Y-46156619D01*
X131712749Y-46251857D01*
X131712749Y-46347095D01*
X131760368Y-46489952D01*
X132331796Y-47061380D01*
X131712749Y-47061380D01*
X130855606Y-46061380D02*
X131046082Y-46061380D01*
X131141320Y-46109000D01*
X131188939Y-46156619D01*
X131284177Y-46299476D01*
X131331796Y-46489952D01*
X131331796Y-46870904D01*
X131284177Y-46966142D01*
X131236558Y-47013761D01*
X131141320Y-47061380D01*
X130950844Y-47061380D01*
X130855606Y-47013761D01*
X130807987Y-46966142D01*
X130760368Y-46870904D01*
X130760368Y-46632809D01*
X130807987Y-46537571D01*
X130855606Y-46489952D01*
X130950844Y-46442333D01*
X131141320Y-46442333D01*
X131236558Y-46489952D01*
X131284177Y-46537571D01*
X131331796Y-46632809D01*
X191714285Y-1722380D02*
X191714285Y-722380D01*
X191476190Y-722380D01*
X191333333Y-770000D01*
X191238095Y-865238D01*
X191190476Y-960476D01*
X191142857Y-1150952D01*
X191142857Y-1293809D01*
X191190476Y-1484285D01*
X191238095Y-1579523D01*
X191333333Y-1674761D01*
X191476190Y-1722380D01*
X191714285Y-1722380D01*
X190761904Y-817619D02*
X190714285Y-770000D01*
X190619047Y-722380D01*
X190380952Y-722380D01*
X190285714Y-770000D01*
X190238095Y-817619D01*
X190190476Y-912857D01*
X190190476Y-1008095D01*
X190238095Y-1150952D01*
X190809523Y-1722380D01*
X190190476Y-1722380D01*
X189333333Y-1055714D02*
X189333333Y-1722380D01*
X189571428Y-674761D02*
X189809523Y-1389047D01*
X189190476Y-1389047D01*
X177744285Y-1722380D02*
X177744285Y-722380D01*
X177506190Y-722380D01*
X177363333Y-770000D01*
X177268095Y-865238D01*
X177220476Y-960476D01*
X177172857Y-1150952D01*
X177172857Y-1293809D01*
X177220476Y-1484285D01*
X177268095Y-1579523D01*
X177363333Y-1674761D01*
X177506190Y-1722380D01*
X177744285Y-1722380D01*
X176791904Y-817619D02*
X176744285Y-770000D01*
X176649047Y-722380D01*
X176410952Y-722380D01*
X176315714Y-770000D01*
X176268095Y-817619D01*
X176220476Y-912857D01*
X176220476Y-1008095D01*
X176268095Y-1150952D01*
X176839523Y-1722380D01*
X176220476Y-1722380D01*
X175887142Y-722380D02*
X175268095Y-722380D01*
X175601428Y-1103333D01*
X175458571Y-1103333D01*
X175363333Y-1150952D01*
X175315714Y-1198571D01*
X175268095Y-1293809D01*
X175268095Y-1531904D01*
X175315714Y-1627142D01*
X175363333Y-1674761D01*
X175458571Y-1722380D01*
X175744285Y-1722380D01*
X175839523Y-1674761D01*
X175887142Y-1627142D01*
X164409285Y-1722380D02*
X164409285Y-722380D01*
X164171190Y-722380D01*
X164028333Y-770000D01*
X163933095Y-865238D01*
X163885476Y-960476D01*
X163837857Y-1150952D01*
X163837857Y-1293809D01*
X163885476Y-1484285D01*
X163933095Y-1579523D01*
X164028333Y-1674761D01*
X164171190Y-1722380D01*
X164409285Y-1722380D01*
X163456904Y-817619D02*
X163409285Y-770000D01*
X163314047Y-722380D01*
X163075952Y-722380D01*
X162980714Y-770000D01*
X162933095Y-817619D01*
X162885476Y-912857D01*
X162885476Y-1008095D01*
X162933095Y-1150952D01*
X163504523Y-1722380D01*
X162885476Y-1722380D01*
X162504523Y-817619D02*
X162456904Y-770000D01*
X162361666Y-722380D01*
X162123571Y-722380D01*
X162028333Y-770000D01*
X161980714Y-817619D01*
X161933095Y-912857D01*
X161933095Y-1008095D01*
X161980714Y-1150952D01*
X162552142Y-1722380D01*
X161933095Y-1722380D01*
X151074285Y-1722380D02*
X151074285Y-722380D01*
X150836190Y-722380D01*
X150693333Y-770000D01*
X150598095Y-865238D01*
X150550476Y-960476D01*
X150502857Y-1150952D01*
X150502857Y-1293809D01*
X150550476Y-1484285D01*
X150598095Y-1579523D01*
X150693333Y-1674761D01*
X150836190Y-1722380D01*
X151074285Y-1722380D01*
X150121904Y-817619D02*
X150074285Y-770000D01*
X149979047Y-722380D01*
X149740952Y-722380D01*
X149645714Y-770000D01*
X149598095Y-817619D01*
X149550476Y-912857D01*
X149550476Y-1008095D01*
X149598095Y-1150952D01*
X150169523Y-1722380D01*
X149550476Y-1722380D01*
X148598095Y-1722380D02*
X149169523Y-1722380D01*
X148883809Y-1722380D02*
X148883809Y-722380D01*
X148979047Y-865238D01*
X149074285Y-960476D01*
X149169523Y-1008095D01*
X137739285Y-1722380D02*
X137739285Y-722380D01*
X137501190Y-722380D01*
X137358333Y-770000D01*
X137263095Y-865238D01*
X137215476Y-960476D01*
X137167857Y-1150952D01*
X137167857Y-1293809D01*
X137215476Y-1484285D01*
X137263095Y-1579523D01*
X137358333Y-1674761D01*
X137501190Y-1722380D01*
X137739285Y-1722380D01*
X136786904Y-817619D02*
X136739285Y-770000D01*
X136644047Y-722380D01*
X136405952Y-722380D01*
X136310714Y-770000D01*
X136263095Y-817619D01*
X136215476Y-912857D01*
X136215476Y-1008095D01*
X136263095Y-1150952D01*
X136834523Y-1722380D01*
X136215476Y-1722380D01*
X135596428Y-722380D02*
X135501190Y-722380D01*
X135405952Y-770000D01*
X135358333Y-817619D01*
X135310714Y-912857D01*
X135263095Y-1103333D01*
X135263095Y-1341428D01*
X135310714Y-1531904D01*
X135358333Y-1627142D01*
X135405952Y-1674761D01*
X135501190Y-1722380D01*
X135596428Y-1722380D01*
X135691666Y-1674761D01*
X135739285Y-1627142D01*
X135786904Y-1531904D01*
X135834523Y-1341428D01*
X135834523Y-1103333D01*
X135786904Y-912857D01*
X135739285Y-817619D01*
X135691666Y-770000D01*
X135596428Y-722380D01*
X144678285Y-132516380D02*
X144678285Y-131516380D01*
X144440190Y-131516380D01*
X144297333Y-131564000D01*
X144202095Y-131659238D01*
X144154476Y-131754476D01*
X144106857Y-131944952D01*
X144106857Y-132087809D01*
X144154476Y-132278285D01*
X144202095Y-132373523D01*
X144297333Y-132468761D01*
X144440190Y-132516380D01*
X144678285Y-132516380D01*
X143154476Y-132516380D02*
X143725904Y-132516380D01*
X143440190Y-132516380D02*
X143440190Y-131516380D01*
X143535428Y-131659238D01*
X143630666Y-131754476D01*
X143725904Y-131802095D01*
X142821142Y-131516380D02*
X142154476Y-131516380D01*
X142583047Y-132516380D01*
X118620012Y-47061380D02*
X118620012Y-46061380D01*
X118381917Y-46061380D01*
X118239060Y-46109000D01*
X118143822Y-46204238D01*
X118096203Y-46299476D01*
X118048584Y-46489952D01*
X118048584Y-46632809D01*
X118096203Y-46823285D01*
X118143822Y-46918523D01*
X118239060Y-47013761D01*
X118381917Y-47061380D01*
X118620012Y-47061380D01*
X117096203Y-47061380D02*
X117667631Y-47061380D01*
X117381917Y-47061380D02*
X117381917Y-46061380D01*
X117477155Y-46204238D01*
X117572393Y-46299476D01*
X117667631Y-46347095D01*
X116715250Y-46156619D02*
X116667631Y-46109000D01*
X116572393Y-46061380D01*
X116334298Y-46061380D01*
X116239060Y-46109000D01*
X116191441Y-46156619D01*
X116143822Y-46251857D01*
X116143822Y-46347095D01*
X116191441Y-46489952D01*
X116762869Y-47061380D01*
X116143822Y-47061380D01*
X104003467Y-47061380D02*
X104003467Y-46061380D01*
X103765372Y-46061380D01*
X103622515Y-46109000D01*
X103527277Y-46204238D01*
X103479658Y-46299476D01*
X103432039Y-46489952D01*
X103432039Y-46632809D01*
X103479658Y-46823285D01*
X103527277Y-46918523D01*
X103622515Y-47013761D01*
X103765372Y-47061380D01*
X104003467Y-47061380D01*
X102479658Y-47061380D02*
X103051086Y-47061380D01*
X102765372Y-47061380D02*
X102765372Y-46061380D01*
X102860610Y-46204238D01*
X102955848Y-46299476D01*
X103051086Y-46347095D01*
X101527277Y-47061380D02*
X102098705Y-47061380D01*
X101812991Y-47061380D02*
X101812991Y-46061380D01*
X101908229Y-46204238D01*
X102003467Y-46299476D01*
X102098705Y-46347095D01*
X89386921Y-47061380D02*
X89386921Y-46061380D01*
X89148826Y-46061380D01*
X89005969Y-46109000D01*
X88910731Y-46204238D01*
X88863112Y-46299476D01*
X88815493Y-46489952D01*
X88815493Y-46632809D01*
X88863112Y-46823285D01*
X88910731Y-46918523D01*
X89005969Y-47013761D01*
X89148826Y-47061380D01*
X89386921Y-47061380D01*
X87863112Y-47061380D02*
X88434540Y-47061380D01*
X88148826Y-47061380D02*
X88148826Y-46061380D01*
X88244064Y-46204238D01*
X88339302Y-46299476D01*
X88434540Y-46347095D01*
X87244064Y-46061380D02*
X87148826Y-46061380D01*
X87053588Y-46109000D01*
X87005969Y-46156619D01*
X86958350Y-46251857D01*
X86910731Y-46442333D01*
X86910731Y-46680428D01*
X86958350Y-46870904D01*
X87005969Y-46966142D01*
X87053588Y-47013761D01*
X87148826Y-47061380D01*
X87244064Y-47061380D01*
X87339302Y-47013761D01*
X87386921Y-46966142D01*
X87434540Y-46870904D01*
X87482159Y-46680428D01*
X87482159Y-46442333D01*
X87434540Y-46251857D01*
X87386921Y-46156619D01*
X87339302Y-46109000D01*
X87244064Y-46061380D01*
X74294186Y-47061380D02*
X74294186Y-46061380D01*
X74056091Y-46061380D01*
X73913233Y-46109000D01*
X73817995Y-46204238D01*
X73770376Y-46299476D01*
X73722757Y-46489952D01*
X73722757Y-46632809D01*
X73770376Y-46823285D01*
X73817995Y-46918523D01*
X73913233Y-47013761D01*
X74056091Y-47061380D01*
X74294186Y-47061380D01*
X73246567Y-47061380D02*
X73056091Y-47061380D01*
X72960852Y-47013761D01*
X72913233Y-46966142D01*
X72817995Y-46823285D01*
X72770376Y-46632809D01*
X72770376Y-46251857D01*
X72817995Y-46156619D01*
X72865614Y-46109000D01*
X72960852Y-46061380D01*
X73151329Y-46061380D01*
X73246567Y-46109000D01*
X73294186Y-46156619D01*
X73341805Y-46251857D01*
X73341805Y-46489952D01*
X73294186Y-46585190D01*
X73246567Y-46632809D01*
X73151329Y-46680428D01*
X72960852Y-46680428D01*
X72865614Y-46632809D01*
X72817995Y-46585190D01*
X72770376Y-46489952D01*
X59677635Y-47061380D02*
X59677635Y-46061380D01*
X59439540Y-46061380D01*
X59296682Y-46109000D01*
X59201444Y-46204238D01*
X59153825Y-46299476D01*
X59106206Y-46489952D01*
X59106206Y-46632809D01*
X59153825Y-46823285D01*
X59201444Y-46918523D01*
X59296682Y-47013761D01*
X59439540Y-47061380D01*
X59677635Y-47061380D01*
X58534778Y-46489952D02*
X58630016Y-46442333D01*
X58677635Y-46394714D01*
X58725254Y-46299476D01*
X58725254Y-46251857D01*
X58677635Y-46156619D01*
X58630016Y-46109000D01*
X58534778Y-46061380D01*
X58344301Y-46061380D01*
X58249063Y-46109000D01*
X58201444Y-46156619D01*
X58153825Y-46251857D01*
X58153825Y-46299476D01*
X58201444Y-46394714D01*
X58249063Y-46442333D01*
X58344301Y-46489952D01*
X58534778Y-46489952D01*
X58630016Y-46537571D01*
X58677635Y-46585190D01*
X58725254Y-46680428D01*
X58725254Y-46870904D01*
X58677635Y-46966142D01*
X58630016Y-47013761D01*
X58534778Y-47061380D01*
X58344301Y-47061380D01*
X58249063Y-47013761D01*
X58201444Y-46966142D01*
X58153825Y-46870904D01*
X58153825Y-46680428D01*
X58201444Y-46585190D01*
X58249063Y-46537571D01*
X58344301Y-46489952D01*
X113768095Y-1722380D02*
X113768095Y-722380D01*
X113530000Y-722380D01*
X113387142Y-770000D01*
X113291904Y-865238D01*
X113244285Y-960476D01*
X113196666Y-1150952D01*
X113196666Y-1293809D01*
X113244285Y-1484285D01*
X113291904Y-1579523D01*
X113387142Y-1674761D01*
X113530000Y-1722380D01*
X113768095Y-1722380D01*
X112863333Y-722380D02*
X112196666Y-722380D01*
X112625238Y-1722380D01*
X100433095Y-1722380D02*
X100433095Y-722380D01*
X100195000Y-722380D01*
X100052142Y-770000D01*
X99956904Y-865238D01*
X99909285Y-960476D01*
X99861666Y-1150952D01*
X99861666Y-1293809D01*
X99909285Y-1484285D01*
X99956904Y-1579523D01*
X100052142Y-1674761D01*
X100195000Y-1722380D01*
X100433095Y-1722380D01*
X99004523Y-722380D02*
X99195000Y-722380D01*
X99290238Y-770000D01*
X99337857Y-817619D01*
X99433095Y-960476D01*
X99480714Y-1150952D01*
X99480714Y-1531904D01*
X99433095Y-1627142D01*
X99385476Y-1674761D01*
X99290238Y-1722380D01*
X99099761Y-1722380D01*
X99004523Y-1674761D01*
X98956904Y-1627142D01*
X98909285Y-1531904D01*
X98909285Y-1293809D01*
X98956904Y-1198571D01*
X99004523Y-1150952D01*
X99099761Y-1103333D01*
X99290238Y-1103333D01*
X99385476Y-1150952D01*
X99433095Y-1198571D01*
X99480714Y-1293809D01*
X86844095Y-1722380D02*
X86844095Y-722380D01*
X86606000Y-722380D01*
X86463142Y-770000D01*
X86367904Y-865238D01*
X86320285Y-960476D01*
X86272666Y-1150952D01*
X86272666Y-1293809D01*
X86320285Y-1484285D01*
X86367904Y-1579523D01*
X86463142Y-1674761D01*
X86606000Y-1722380D01*
X86844095Y-1722380D01*
X85367904Y-722380D02*
X85844095Y-722380D01*
X85891714Y-1198571D01*
X85844095Y-1150952D01*
X85748857Y-1103333D01*
X85510761Y-1103333D01*
X85415523Y-1150952D01*
X85367904Y-1198571D01*
X85320285Y-1293809D01*
X85320285Y-1531904D01*
X85367904Y-1627142D01*
X85415523Y-1674761D01*
X85510761Y-1722380D01*
X85748857Y-1722380D01*
X85844095Y-1674761D01*
X85891714Y-1627142D01*
X73763095Y-1976380D02*
X73763095Y-976380D01*
X73525000Y-976380D01*
X73382142Y-1024000D01*
X73286904Y-1119238D01*
X73239285Y-1214476D01*
X73191666Y-1404952D01*
X73191666Y-1547809D01*
X73239285Y-1738285D01*
X73286904Y-1833523D01*
X73382142Y-1928761D01*
X73525000Y-1976380D01*
X73763095Y-1976380D01*
X72334523Y-1309714D02*
X72334523Y-1976380D01*
X72572619Y-928761D02*
X72810714Y-1643047D01*
X72191666Y-1643047D01*
X60682095Y-1976380D02*
X60682095Y-976380D01*
X60444000Y-976380D01*
X60301142Y-1024000D01*
X60205904Y-1119238D01*
X60158285Y-1214476D01*
X60110666Y-1404952D01*
X60110666Y-1547809D01*
X60158285Y-1738285D01*
X60205904Y-1833523D01*
X60301142Y-1928761D01*
X60444000Y-1976380D01*
X60682095Y-1976380D01*
X59777333Y-976380D02*
X59158285Y-976380D01*
X59491619Y-1357333D01*
X59348761Y-1357333D01*
X59253523Y-1404952D01*
X59205904Y-1452571D01*
X59158285Y-1547809D01*
X59158285Y-1785904D01*
X59205904Y-1881142D01*
X59253523Y-1928761D01*
X59348761Y-1976380D01*
X59634476Y-1976380D01*
X59729714Y-1928761D01*
X59777333Y-1881142D01*
X90273142Y-123563142D02*
X90320761Y-123515523D01*
X90368380Y-123372666D01*
X90368380Y-123277428D01*
X90320761Y-123134571D01*
X90225523Y-123039333D01*
X90130285Y-122991714D01*
X89939809Y-122944095D01*
X89796952Y-122944095D01*
X89606476Y-122991714D01*
X89511238Y-123039333D01*
X89416000Y-123134571D01*
X89368380Y-123277428D01*
X89368380Y-123372666D01*
X89416000Y-123515523D01*
X89463619Y-123563142D01*
X89368380Y-124420285D02*
X89368380Y-124229809D01*
X89416000Y-124134571D01*
X89463619Y-124086952D01*
X89606476Y-123991714D01*
X89796952Y-123944095D01*
X90177904Y-123944095D01*
X90273142Y-123991714D01*
X90320761Y-124039333D01*
X90368380Y-124134571D01*
X90368380Y-124325047D01*
X90320761Y-124420285D01*
X90273142Y-124467904D01*
X90177904Y-124515523D01*
X89939809Y-124515523D01*
X89844571Y-124467904D01*
X89796952Y-124420285D01*
X89749333Y-124325047D01*
X89749333Y-124134571D01*
X89796952Y-124039333D01*
X89844571Y-123991714D01*
X89939809Y-123944095D01*
X89368380Y-125420285D02*
X89368380Y-124944095D01*
X89844571Y-124896476D01*
X89796952Y-124944095D01*
X89749333Y-125039333D01*
X89749333Y-125277428D01*
X89796952Y-125372666D01*
X89844571Y-125420285D01*
X89939809Y-125467904D01*
X90177904Y-125467904D01*
X90273142Y-125420285D01*
X90320761Y-125372666D01*
X90368380Y-125277428D01*
X90368380Y-125039333D01*
X90320761Y-124944095D01*
X90273142Y-124896476D01*
X143390857Y-68810142D02*
X143438476Y-68857761D01*
X143581333Y-68905380D01*
X143676571Y-68905380D01*
X143819428Y-68857761D01*
X143914666Y-68762523D01*
X143962285Y-68667285D01*
X144009904Y-68476809D01*
X144009904Y-68333952D01*
X143962285Y-68143476D01*
X143914666Y-68048238D01*
X143819428Y-67953000D01*
X143676571Y-67905380D01*
X143581333Y-67905380D01*
X143438476Y-67953000D01*
X143390857Y-68000619D01*
X142533714Y-67905380D02*
X142724190Y-67905380D01*
X142819428Y-67953000D01*
X142867047Y-68000619D01*
X142962285Y-68143476D01*
X143009904Y-68333952D01*
X143009904Y-68714904D01*
X142962285Y-68810142D01*
X142914666Y-68857761D01*
X142819428Y-68905380D01*
X142628952Y-68905380D01*
X142533714Y-68857761D01*
X142486095Y-68810142D01*
X142438476Y-68714904D01*
X142438476Y-68476809D01*
X142486095Y-68381571D01*
X142533714Y-68333952D01*
X142628952Y-68286333D01*
X142819428Y-68286333D01*
X142914666Y-68333952D01*
X142962285Y-68381571D01*
X143009904Y-68476809D01*
X142057523Y-68000619D02*
X142009904Y-67953000D01*
X141914666Y-67905380D01*
X141676571Y-67905380D01*
X141581333Y-67953000D01*
X141533714Y-68000619D01*
X141486095Y-68095857D01*
X141486095Y-68191095D01*
X141533714Y-68333952D01*
X142105142Y-68905380D01*
X141486095Y-68905380D01*
X117990857Y-69191142D02*
X118038476Y-69238761D01*
X118181333Y-69286380D01*
X118276571Y-69286380D01*
X118419428Y-69238761D01*
X118514666Y-69143523D01*
X118562285Y-69048285D01*
X118609904Y-68857809D01*
X118609904Y-68714952D01*
X118562285Y-68524476D01*
X118514666Y-68429238D01*
X118419428Y-68334000D01*
X118276571Y-68286380D01*
X118181333Y-68286380D01*
X118038476Y-68334000D01*
X117990857Y-68381619D01*
X117133714Y-68286380D02*
X117324190Y-68286380D01*
X117419428Y-68334000D01*
X117467047Y-68381619D01*
X117562285Y-68524476D01*
X117609904Y-68714952D01*
X117609904Y-69095904D01*
X117562285Y-69191142D01*
X117514666Y-69238761D01*
X117419428Y-69286380D01*
X117228952Y-69286380D01*
X117133714Y-69238761D01*
X117086095Y-69191142D01*
X117038476Y-69095904D01*
X117038476Y-68857809D01*
X117086095Y-68762571D01*
X117133714Y-68714952D01*
X117228952Y-68667333D01*
X117419428Y-68667333D01*
X117514666Y-68714952D01*
X117562285Y-68762571D01*
X117609904Y-68857809D01*
X116086095Y-69286380D02*
X116657523Y-69286380D01*
X116371809Y-69286380D02*
X116371809Y-68286380D01*
X116467047Y-68429238D01*
X116562285Y-68524476D01*
X116657523Y-68572095D01*
X143390857Y-66524142D02*
X143438476Y-66571761D01*
X143581333Y-66619380D01*
X143676571Y-66619380D01*
X143819428Y-66571761D01*
X143914666Y-66476523D01*
X143962285Y-66381285D01*
X144009904Y-66190809D01*
X144009904Y-66047952D01*
X143962285Y-65857476D01*
X143914666Y-65762238D01*
X143819428Y-65667000D01*
X143676571Y-65619380D01*
X143581333Y-65619380D01*
X143438476Y-65667000D01*
X143390857Y-65714619D01*
X142533714Y-65619380D02*
X142724190Y-65619380D01*
X142819428Y-65667000D01*
X142867047Y-65714619D01*
X142962285Y-65857476D01*
X143009904Y-66047952D01*
X143009904Y-66428904D01*
X142962285Y-66524142D01*
X142914666Y-66571761D01*
X142819428Y-66619380D01*
X142628952Y-66619380D01*
X142533714Y-66571761D01*
X142486095Y-66524142D01*
X142438476Y-66428904D01*
X142438476Y-66190809D01*
X142486095Y-66095571D01*
X142533714Y-66047952D01*
X142628952Y-66000333D01*
X142819428Y-66000333D01*
X142914666Y-66047952D01*
X142962285Y-66095571D01*
X143009904Y-66190809D01*
X141819428Y-65619380D02*
X141724190Y-65619380D01*
X141628952Y-65667000D01*
X141581333Y-65714619D01*
X141533714Y-65809857D01*
X141486095Y-66000333D01*
X141486095Y-66238428D01*
X141533714Y-66428904D01*
X141581333Y-66524142D01*
X141628952Y-66571761D01*
X141724190Y-66619380D01*
X141819428Y-66619380D01*
X141914666Y-66571761D01*
X141962285Y-66524142D01*
X142009904Y-66428904D01*
X142057523Y-66238428D01*
X142057523Y-66000333D01*
X142009904Y-65809857D01*
X141962285Y-65714619D01*
X141914666Y-65667000D01*
X141819428Y-65619380D01*
X118244857Y-66397142D02*
X118292476Y-66444761D01*
X118435333Y-66492380D01*
X118530571Y-66492380D01*
X118673428Y-66444761D01*
X118768666Y-66349523D01*
X118816285Y-66254285D01*
X118863904Y-66063809D01*
X118863904Y-65920952D01*
X118816285Y-65730476D01*
X118768666Y-65635238D01*
X118673428Y-65540000D01*
X118530571Y-65492380D01*
X118435333Y-65492380D01*
X118292476Y-65540000D01*
X118244857Y-65587619D01*
X117340095Y-65492380D02*
X117816285Y-65492380D01*
X117863904Y-65968571D01*
X117816285Y-65920952D01*
X117721047Y-65873333D01*
X117482952Y-65873333D01*
X117387714Y-65920952D01*
X117340095Y-65968571D01*
X117292476Y-66063809D01*
X117292476Y-66301904D01*
X117340095Y-66397142D01*
X117387714Y-66444761D01*
X117482952Y-66492380D01*
X117721047Y-66492380D01*
X117816285Y-66444761D01*
X117863904Y-66397142D01*
X116816285Y-66492380D02*
X116625809Y-66492380D01*
X116530571Y-66444761D01*
X116482952Y-66397142D01*
X116387714Y-66254285D01*
X116340095Y-66063809D01*
X116340095Y-65682857D01*
X116387714Y-65587619D01*
X116435333Y-65540000D01*
X116530571Y-65492380D01*
X116721047Y-65492380D01*
X116816285Y-65540000D01*
X116863904Y-65587619D01*
X116911523Y-65682857D01*
X116911523Y-65920952D01*
X116863904Y-66016190D01*
X116816285Y-66063809D01*
X116721047Y-66111428D01*
X116530571Y-66111428D01*
X116435333Y-66063809D01*
X116387714Y-66016190D01*
X116340095Y-65920952D01*
X58777142Y-123817142D02*
X58824761Y-123769523D01*
X58872380Y-123626666D01*
X58872380Y-123531428D01*
X58824761Y-123388571D01*
X58729523Y-123293333D01*
X58634285Y-123245714D01*
X58443809Y-123198095D01*
X58300952Y-123198095D01*
X58110476Y-123245714D01*
X58015238Y-123293333D01*
X57920000Y-123388571D01*
X57872380Y-123531428D01*
X57872380Y-123626666D01*
X57920000Y-123769523D01*
X57967619Y-123817142D01*
X57872380Y-124721904D02*
X57872380Y-124245714D01*
X58348571Y-124198095D01*
X58300952Y-124245714D01*
X58253333Y-124340952D01*
X58253333Y-124579047D01*
X58300952Y-124674285D01*
X58348571Y-124721904D01*
X58443809Y-124769523D01*
X58681904Y-124769523D01*
X58777142Y-124721904D01*
X58824761Y-124674285D01*
X58872380Y-124579047D01*
X58872380Y-124340952D01*
X58824761Y-124245714D01*
X58777142Y-124198095D01*
X57872380Y-125626666D02*
X57872380Y-125436190D01*
X57920000Y-125340952D01*
X57967619Y-125293333D01*
X58110476Y-125198095D01*
X58300952Y-125150476D01*
X58681904Y-125150476D01*
X58777142Y-125198095D01*
X58824761Y-125245714D01*
X58872380Y-125340952D01*
X58872380Y-125531428D01*
X58824761Y-125626666D01*
X58777142Y-125674285D01*
X58681904Y-125721904D01*
X58443809Y-125721904D01*
X58348571Y-125674285D01*
X58300952Y-125626666D01*
X58253333Y-125531428D01*
X58253333Y-125340952D01*
X58300952Y-125245714D01*
X58348571Y-125198095D01*
X58443809Y-125150476D01*
X213971142Y-59047142D02*
X214018761Y-58999523D01*
X214066380Y-58856666D01*
X214066380Y-58761428D01*
X214018761Y-58618571D01*
X213923523Y-58523333D01*
X213828285Y-58475714D01*
X213637809Y-58428095D01*
X213494952Y-58428095D01*
X213304476Y-58475714D01*
X213209238Y-58523333D01*
X213114000Y-58618571D01*
X213066380Y-58761428D01*
X213066380Y-58856666D01*
X213114000Y-58999523D01*
X213161619Y-59047142D01*
X213066380Y-59951904D02*
X213066380Y-59475714D01*
X213542571Y-59428095D01*
X213494952Y-59475714D01*
X213447333Y-59570952D01*
X213447333Y-59809047D01*
X213494952Y-59904285D01*
X213542571Y-59951904D01*
X213637809Y-59999523D01*
X213875904Y-59999523D01*
X213971142Y-59951904D01*
X214018761Y-59904285D01*
X214066380Y-59809047D01*
X214066380Y-59570952D01*
X214018761Y-59475714D01*
X213971142Y-59428095D01*
X213066380Y-60332857D02*
X213066380Y-60951904D01*
X213447333Y-60618571D01*
X213447333Y-60761428D01*
X213494952Y-60856666D01*
X213542571Y-60904285D01*
X213637809Y-60951904D01*
X213875904Y-60951904D01*
X213971142Y-60904285D01*
X214018761Y-60856666D01*
X214066380Y-60761428D01*
X214066380Y-60475714D01*
X214018761Y-60380476D01*
X213971142Y-60332857D01*
X155551142Y-59047142D02*
X155598761Y-58999523D01*
X155646380Y-58856666D01*
X155646380Y-58761428D01*
X155598761Y-58618571D01*
X155503523Y-58523333D01*
X155408285Y-58475714D01*
X155217809Y-58428095D01*
X155074952Y-58428095D01*
X154884476Y-58475714D01*
X154789238Y-58523333D01*
X154694000Y-58618571D01*
X154646380Y-58761428D01*
X154646380Y-58856666D01*
X154694000Y-58999523D01*
X154741619Y-59047142D01*
X154646380Y-59951904D02*
X154646380Y-59475714D01*
X155122571Y-59428095D01*
X155074952Y-59475714D01*
X155027333Y-59570952D01*
X155027333Y-59809047D01*
X155074952Y-59904285D01*
X155122571Y-59951904D01*
X155217809Y-59999523D01*
X155455904Y-59999523D01*
X155551142Y-59951904D01*
X155598761Y-59904285D01*
X155646380Y-59809047D01*
X155646380Y-59570952D01*
X155598761Y-59475714D01*
X155551142Y-59428095D01*
X154741619Y-60380476D02*
X154694000Y-60428095D01*
X154646380Y-60523333D01*
X154646380Y-60761428D01*
X154694000Y-60856666D01*
X154741619Y-60904285D01*
X154836857Y-60951904D01*
X154932095Y-60951904D01*
X155074952Y-60904285D01*
X155646380Y-60332857D01*
X155646380Y-60951904D01*
X184761142Y-59047142D02*
X184808761Y-58999523D01*
X184856380Y-58856666D01*
X184856380Y-58761428D01*
X184808761Y-58618571D01*
X184713523Y-58523333D01*
X184618285Y-58475714D01*
X184427809Y-58428095D01*
X184284952Y-58428095D01*
X184094476Y-58475714D01*
X183999238Y-58523333D01*
X183904000Y-58618571D01*
X183856380Y-58761428D01*
X183856380Y-58856666D01*
X183904000Y-58999523D01*
X183951619Y-59047142D01*
X183856380Y-59951904D02*
X183856380Y-59475714D01*
X184332571Y-59428095D01*
X184284952Y-59475714D01*
X184237333Y-59570952D01*
X184237333Y-59809047D01*
X184284952Y-59904285D01*
X184332571Y-59951904D01*
X184427809Y-59999523D01*
X184665904Y-59999523D01*
X184761142Y-59951904D01*
X184808761Y-59904285D01*
X184856380Y-59809047D01*
X184856380Y-59570952D01*
X184808761Y-59475714D01*
X184761142Y-59428095D01*
X184856380Y-60951904D02*
X184856380Y-60380476D01*
X184856380Y-60666190D02*
X183856380Y-60666190D01*
X183999238Y-60570952D01*
X184094476Y-60475714D01*
X184142095Y-60380476D01*
X199239142Y-59047142D02*
X199286761Y-58999523D01*
X199334380Y-58856666D01*
X199334380Y-58761428D01*
X199286761Y-58618571D01*
X199191523Y-58523333D01*
X199096285Y-58475714D01*
X198905809Y-58428095D01*
X198762952Y-58428095D01*
X198572476Y-58475714D01*
X198477238Y-58523333D01*
X198382000Y-58618571D01*
X198334380Y-58761428D01*
X198334380Y-58856666D01*
X198382000Y-58999523D01*
X198429619Y-59047142D01*
X198667714Y-59904285D02*
X199334380Y-59904285D01*
X198286761Y-59666190D02*
X199001047Y-59428095D01*
X199001047Y-60047142D01*
X199334380Y-60951904D02*
X199334380Y-60380476D01*
X199334380Y-60666190D02*
X198334380Y-60666190D01*
X198477238Y-60570952D01*
X198572476Y-60475714D01*
X198620095Y-60380476D01*
X170029142Y-59047142D02*
X170076761Y-58999523D01*
X170124380Y-58856666D01*
X170124380Y-58761428D01*
X170076761Y-58618571D01*
X169981523Y-58523333D01*
X169886285Y-58475714D01*
X169695809Y-58428095D01*
X169552952Y-58428095D01*
X169362476Y-58475714D01*
X169267238Y-58523333D01*
X169172000Y-58618571D01*
X169124380Y-58761428D01*
X169124380Y-58856666D01*
X169172000Y-58999523D01*
X169219619Y-59047142D01*
X169457714Y-59904285D02*
X170124380Y-59904285D01*
X169076761Y-59666190D02*
X169791047Y-59428095D01*
X169791047Y-60047142D01*
X169124380Y-60618571D02*
X169124380Y-60713809D01*
X169172000Y-60809047D01*
X169219619Y-60856666D01*
X169314857Y-60904285D01*
X169505333Y-60951904D01*
X169743428Y-60951904D01*
X169933904Y-60904285D01*
X170029142Y-60856666D01*
X170076761Y-60809047D01*
X170124380Y-60713809D01*
X170124380Y-60618571D01*
X170076761Y-60523333D01*
X170029142Y-60475714D01*
X169933904Y-60428095D01*
X169743428Y-60380476D01*
X169505333Y-60380476D01*
X169314857Y-60428095D01*
X169219619Y-60475714D01*
X169172000Y-60523333D01*
X169124380Y-60618571D01*
X140819142Y-59047142D02*
X140866761Y-58999523D01*
X140914380Y-58856666D01*
X140914380Y-58761428D01*
X140866761Y-58618571D01*
X140771523Y-58523333D01*
X140676285Y-58475714D01*
X140485809Y-58428095D01*
X140342952Y-58428095D01*
X140152476Y-58475714D01*
X140057238Y-58523333D01*
X139962000Y-58618571D01*
X139914380Y-58761428D01*
X139914380Y-58856666D01*
X139962000Y-58999523D01*
X140009619Y-59047142D01*
X139914380Y-59380476D02*
X139914380Y-59999523D01*
X140295333Y-59666190D01*
X140295333Y-59809047D01*
X140342952Y-59904285D01*
X140390571Y-59951904D01*
X140485809Y-59999523D01*
X140723904Y-59999523D01*
X140819142Y-59951904D01*
X140866761Y-59904285D01*
X140914380Y-59809047D01*
X140914380Y-59523333D01*
X140866761Y-59428095D01*
X140819142Y-59380476D01*
X140914380Y-60475714D02*
X140914380Y-60666190D01*
X140866761Y-60761428D01*
X140819142Y-60809047D01*
X140676285Y-60904285D01*
X140485809Y-60951904D01*
X140104857Y-60951904D01*
X140009619Y-60904285D01*
X139962000Y-60856666D01*
X139914380Y-60761428D01*
X139914380Y-60570952D01*
X139962000Y-60475714D01*
X140009619Y-60428095D01*
X140104857Y-60380476D01*
X140342952Y-60380476D01*
X140438190Y-60428095D01*
X140485809Y-60475714D01*
X140533428Y-60570952D01*
X140533428Y-60761428D01*
X140485809Y-60856666D01*
X140438190Y-60904285D01*
X140342952Y-60951904D01*
X97131142Y-59047142D02*
X97178761Y-58999523D01*
X97226380Y-58856666D01*
X97226380Y-58761428D01*
X97178761Y-58618571D01*
X97083523Y-58523333D01*
X96988285Y-58475714D01*
X96797809Y-58428095D01*
X96654952Y-58428095D01*
X96464476Y-58475714D01*
X96369238Y-58523333D01*
X96274000Y-58618571D01*
X96226380Y-58761428D01*
X96226380Y-58856666D01*
X96274000Y-58999523D01*
X96321619Y-59047142D01*
X96321619Y-59428095D02*
X96274000Y-59475714D01*
X96226380Y-59570952D01*
X96226380Y-59809047D01*
X96274000Y-59904285D01*
X96321619Y-59951904D01*
X96416857Y-59999523D01*
X96512095Y-59999523D01*
X96654952Y-59951904D01*
X97226380Y-59380476D01*
X97226380Y-59999523D01*
X97226380Y-60475714D02*
X97226380Y-60666190D01*
X97178761Y-60761428D01*
X97131142Y-60809047D01*
X96988285Y-60904285D01*
X96797809Y-60951904D01*
X96416857Y-60951904D01*
X96321619Y-60904285D01*
X96274000Y-60856666D01*
X96226380Y-60761428D01*
X96226380Y-60570952D01*
X96274000Y-60475714D01*
X96321619Y-60428095D01*
X96416857Y-60380476D01*
X96654952Y-60380476D01*
X96750190Y-60428095D01*
X96797809Y-60475714D01*
X96845428Y-60570952D01*
X96845428Y-60761428D01*
X96797809Y-60856666D01*
X96750190Y-60904285D01*
X96654952Y-60951904D01*
X67159142Y-59047142D02*
X67206761Y-58999523D01*
X67254380Y-58856666D01*
X67254380Y-58761428D01*
X67206761Y-58618571D01*
X67111523Y-58523333D01*
X67016285Y-58475714D01*
X66825809Y-58428095D01*
X66682952Y-58428095D01*
X66492476Y-58475714D01*
X66397238Y-58523333D01*
X66302000Y-58618571D01*
X66254380Y-58761428D01*
X66254380Y-58856666D01*
X66302000Y-58999523D01*
X66349619Y-59047142D01*
X66349619Y-59428095D02*
X66302000Y-59475714D01*
X66254380Y-59570952D01*
X66254380Y-59809047D01*
X66302000Y-59904285D01*
X66349619Y-59951904D01*
X66444857Y-59999523D01*
X66540095Y-59999523D01*
X66682952Y-59951904D01*
X67254380Y-59380476D01*
X67254380Y-59999523D01*
X66682952Y-60570952D02*
X66635333Y-60475714D01*
X66587714Y-60428095D01*
X66492476Y-60380476D01*
X66444857Y-60380476D01*
X66349619Y-60428095D01*
X66302000Y-60475714D01*
X66254380Y-60570952D01*
X66254380Y-60761428D01*
X66302000Y-60856666D01*
X66349619Y-60904285D01*
X66444857Y-60951904D01*
X66492476Y-60951904D01*
X66587714Y-60904285D01*
X66635333Y-60856666D01*
X66682952Y-60761428D01*
X66682952Y-60570952D01*
X66730571Y-60475714D01*
X66778190Y-60428095D01*
X66873428Y-60380476D01*
X67063904Y-60380476D01*
X67159142Y-60428095D01*
X67206761Y-60475714D01*
X67254380Y-60570952D01*
X67254380Y-60761428D01*
X67206761Y-60856666D01*
X67159142Y-60904285D01*
X67063904Y-60951904D01*
X66873428Y-60951904D01*
X66778190Y-60904285D01*
X66730571Y-60856666D01*
X66682952Y-60761428D01*
X126341142Y-59047142D02*
X126388761Y-58999523D01*
X126436380Y-58856666D01*
X126436380Y-58761428D01*
X126388761Y-58618571D01*
X126293523Y-58523333D01*
X126198285Y-58475714D01*
X126007809Y-58428095D01*
X125864952Y-58428095D01*
X125674476Y-58475714D01*
X125579238Y-58523333D01*
X125484000Y-58618571D01*
X125436380Y-58761428D01*
X125436380Y-58856666D01*
X125484000Y-58999523D01*
X125531619Y-59047142D01*
X125531619Y-59428095D02*
X125484000Y-59475714D01*
X125436380Y-59570952D01*
X125436380Y-59809047D01*
X125484000Y-59904285D01*
X125531619Y-59951904D01*
X125626857Y-59999523D01*
X125722095Y-59999523D01*
X125864952Y-59951904D01*
X126436380Y-59380476D01*
X126436380Y-59999523D01*
X125436380Y-60332857D02*
X125436380Y-60999523D01*
X126436380Y-60570952D01*
X112371142Y-59047142D02*
X112418761Y-58999523D01*
X112466380Y-58856666D01*
X112466380Y-58761428D01*
X112418761Y-58618571D01*
X112323523Y-58523333D01*
X112228285Y-58475714D01*
X112037809Y-58428095D01*
X111894952Y-58428095D01*
X111704476Y-58475714D01*
X111609238Y-58523333D01*
X111514000Y-58618571D01*
X111466380Y-58761428D01*
X111466380Y-58856666D01*
X111514000Y-58999523D01*
X111561619Y-59047142D01*
X112466380Y-59999523D02*
X112466380Y-59428095D01*
X112466380Y-59713809D02*
X111466380Y-59713809D01*
X111609238Y-59618571D01*
X111704476Y-59523333D01*
X111752095Y-59428095D01*
X111466380Y-60332857D02*
X111466380Y-60999523D01*
X112466380Y-60570952D01*
X82399142Y-59047142D02*
X82446761Y-58999523D01*
X82494380Y-58856666D01*
X82494380Y-58761428D01*
X82446761Y-58618571D01*
X82351523Y-58523333D01*
X82256285Y-58475714D01*
X82065809Y-58428095D01*
X81922952Y-58428095D01*
X81732476Y-58475714D01*
X81637238Y-58523333D01*
X81542000Y-58618571D01*
X81494380Y-58761428D01*
X81494380Y-58856666D01*
X81542000Y-58999523D01*
X81589619Y-59047142D01*
X82494380Y-59999523D02*
X82494380Y-59428095D01*
X82494380Y-59713809D02*
X81494380Y-59713809D01*
X81637238Y-59618571D01*
X81732476Y-59523333D01*
X81780095Y-59428095D01*
X81494380Y-60856666D02*
X81494380Y-60666190D01*
X81542000Y-60570952D01*
X81589619Y-60523333D01*
X81732476Y-60428095D01*
X81922952Y-60380476D01*
X82303904Y-60380476D01*
X82399142Y-60428095D01*
X82446761Y-60475714D01*
X82494380Y-60570952D01*
X82494380Y-60761428D01*
X82446761Y-60856666D01*
X82399142Y-60904285D01*
X82303904Y-60951904D01*
X82065809Y-60951904D01*
X81970571Y-60904285D01*
X81922952Y-60856666D01*
X81875333Y-60761428D01*
X81875333Y-60570952D01*
X81922952Y-60475714D01*
X81970571Y-60428095D01*
X82065809Y-60380476D01*
X53189142Y-59047142D02*
X53236761Y-58999523D01*
X53284380Y-58856666D01*
X53284380Y-58761428D01*
X53236761Y-58618571D01*
X53141523Y-58523333D01*
X53046285Y-58475714D01*
X52855809Y-58428095D01*
X52712952Y-58428095D01*
X52522476Y-58475714D01*
X52427238Y-58523333D01*
X52332000Y-58618571D01*
X52284380Y-58761428D01*
X52284380Y-58856666D01*
X52332000Y-58999523D01*
X52379619Y-59047142D01*
X53284380Y-59999523D02*
X53284380Y-59428095D01*
X53284380Y-59713809D02*
X52284380Y-59713809D01*
X52427238Y-59618571D01*
X52522476Y-59523333D01*
X52570095Y-59428095D01*
X52284380Y-60904285D02*
X52284380Y-60428095D01*
X52760571Y-60380476D01*
X52712952Y-60428095D01*
X52665333Y-60523333D01*
X52665333Y-60761428D01*
X52712952Y-60856666D01*
X52760571Y-60904285D01*
X52855809Y-60951904D01*
X53093904Y-60951904D01*
X53189142Y-60904285D01*
X53236761Y-60856666D01*
X53284380Y-60761428D01*
X53284380Y-60523333D01*
X53236761Y-60428095D01*
X53189142Y-60380476D01*
X135231142Y-116197142D02*
X135278761Y-116149523D01*
X135326380Y-116006666D01*
X135326380Y-115911428D01*
X135278761Y-115768571D01*
X135183523Y-115673333D01*
X135088285Y-115625714D01*
X134897809Y-115578095D01*
X134754952Y-115578095D01*
X134564476Y-115625714D01*
X134469238Y-115673333D01*
X134374000Y-115768571D01*
X134326380Y-115911428D01*
X134326380Y-116006666D01*
X134374000Y-116149523D01*
X134421619Y-116197142D01*
X135326380Y-117149523D02*
X135326380Y-116578095D01*
X135326380Y-116863809D02*
X134326380Y-116863809D01*
X134469238Y-116768571D01*
X134564476Y-116673333D01*
X134612095Y-116578095D01*
X134326380Y-117768571D02*
X134326380Y-117863809D01*
X134374000Y-117959047D01*
X134421619Y-118006666D01*
X134516857Y-118054285D01*
X134707333Y-118101904D01*
X134945428Y-118101904D01*
X135135904Y-118054285D01*
X135231142Y-118006666D01*
X135278761Y-117959047D01*
X135326380Y-117863809D01*
X135326380Y-117768571D01*
X135278761Y-117673333D01*
X135231142Y-117625714D01*
X135135904Y-117578095D01*
X134945428Y-117530476D01*
X134707333Y-117530476D01*
X134516857Y-117578095D01*
X134421619Y-117625714D01*
X134374000Y-117673333D01*
X134326380Y-117768571D01*
%LPC*%
D13*
X42418000Y-34290000D03*
X202692000Y-36830000D03*
X41656000Y-25908000D03*
X209550000Y-35052000D03*
X204978000Y-37846000D03*
X209550000Y-39116000D03*
X211455000Y-40386000D03*
X207264000Y-40640000D03*
X194310000Y-35306000D03*
X190246000Y-38100000D03*
X192532000Y-40640000D03*
X194310000Y-39116000D03*
X187960000Y-36830000D03*
X179578000Y-35306000D03*
X179578000Y-39116000D03*
X175768000Y-38100000D03*
X173228000Y-36830000D03*
X178054000Y-40640000D03*
X133858000Y-40640000D03*
X134620000Y-33020000D03*
X128778000Y-35560000D03*
X131826000Y-38100000D03*
X135636000Y-35306000D03*
X135890000Y-39116000D03*
X146812000Y-38100000D03*
X150622000Y-39116000D03*
X150368000Y-35306000D03*
X144272000Y-37084000D03*
X158242000Y-36830000D03*
X165100000Y-35306000D03*
X165100000Y-39116000D03*
X161036000Y-38100000D03*
X163322000Y-40640000D03*
X148590000Y-40640000D03*
X130048000Y-34290000D03*
X137160000Y-31750000D03*
X122174000Y-36195000D03*
X115316000Y-35814000D03*
X119634000Y-39116000D03*
X105156000Y-39116000D03*
X100838000Y-36195000D03*
X86106000Y-36068000D03*
X90424000Y-39116000D03*
X71628000Y-36068000D03*
X75946000Y-39116000D03*
X56896000Y-36068000D03*
X61214000Y-39116000D03*
X48768000Y-31242000D03*
X50800000Y-31242000D03*
D14*
G36*
X132272000Y-34356000D02*
G01*
X132272000Y-36256000D01*
X130872000Y-36256000D01*
X130872000Y-34356000D01*
X132272000Y-34356000D01*
G37*
G36*
X134812000Y-34356000D02*
G01*
X134812000Y-36256000D01*
X133412000Y-36256000D01*
X133412000Y-34356000D01*
X134812000Y-34356000D01*
G37*
G36*
X205678000Y-34102000D02*
G01*
X205678000Y-36002000D01*
X204278000Y-36002000D01*
X204278000Y-34102000D01*
X205678000Y-34102000D01*
G37*
G36*
X208218000Y-34102000D02*
G01*
X208218000Y-36002000D01*
X206818000Y-36002000D01*
X206818000Y-34102000D01*
X208218000Y-34102000D01*
G37*
G36*
X147004000Y-34356000D02*
G01*
X147004000Y-36256000D01*
X145604000Y-36256000D01*
X145604000Y-34356000D01*
X147004000Y-34356000D01*
G37*
G36*
X149544000Y-34356000D02*
G01*
X149544000Y-36256000D01*
X148144000Y-36256000D01*
X148144000Y-34356000D01*
X149544000Y-34356000D01*
G37*
G36*
X161736000Y-34356000D02*
G01*
X161736000Y-36256000D01*
X160336000Y-36256000D01*
X160336000Y-34356000D01*
X161736000Y-34356000D01*
G37*
G36*
X164276000Y-34356000D02*
G01*
X164276000Y-36256000D01*
X162876000Y-36256000D01*
X162876000Y-34356000D01*
X164276000Y-34356000D01*
G37*
G36*
X190946000Y-34356000D02*
G01*
X190946000Y-36256000D01*
X189546000Y-36256000D01*
X189546000Y-34356000D01*
X190946000Y-34356000D01*
G37*
G36*
X193486000Y-34356000D02*
G01*
X193486000Y-36256000D01*
X192086000Y-36256000D01*
X192086000Y-34356000D01*
X193486000Y-34356000D01*
G37*
G36*
X176468000Y-34356000D02*
G01*
X176468000Y-36256000D01*
X175068000Y-36256000D01*
X175068000Y-34356000D01*
X176468000Y-34356000D01*
G37*
G36*
X179008000Y-34356000D02*
G01*
X179008000Y-36256000D01*
X177608000Y-36256000D01*
X177608000Y-34356000D01*
X179008000Y-34356000D01*
G37*
D15*
X41148000Y-38030000D03*
X42098000Y-35830000D03*
X40198000Y-35830000D03*
D13*
X89535000Y-100965000D03*
X57785000Y-100965000D03*
X107950000Y-135890000D03*
X33655000Y-74930000D03*
X37465000Y-78740000D03*
X46355000Y-87630000D03*
X41910000Y-83185000D03*
X51435000Y-92710000D03*
X59690000Y-90170000D03*
X65405000Y-90170000D03*
X71120000Y-90170000D03*
D16*
X34925000Y-90170000D03*
X214630000Y-27305000D03*
X114300000Y-139700000D03*
X211455000Y-73025000D03*
D13*
X184150000Y-71755000D03*
X184150000Y-76835000D03*
X160020000Y-84455000D03*
X171450000Y-81915000D03*
X173355000Y-104140000D03*
X180975000Y-69850000D03*
X180975000Y-87630000D03*
X191135000Y-83185000D03*
X194945000Y-99060000D03*
X193040000Y-92075000D03*
X193675000Y-78740000D03*
X195580000Y-74295000D03*
X192405000Y-73025000D03*
X186690000Y-92075000D03*
X179070000Y-91440000D03*
X179070000Y-89535000D03*
X155575000Y-98425000D03*
X157480000Y-88900000D03*
X157480000Y-81280000D03*
X133604000Y-76200000D03*
X121285000Y-76835000D03*
X121285000Y-79375000D03*
X133350000Y-79375000D03*
X130175000Y-60960000D03*
X130175000Y-58420000D03*
D14*
G36*
X205675000Y-61910000D02*
G01*
X205675000Y-60010000D01*
X207075000Y-60010000D01*
X207075000Y-61910000D01*
X205675000Y-61910000D01*
G37*
G36*
X203135000Y-61910000D02*
G01*
X203135000Y-60010000D01*
X204535000Y-60010000D01*
X204535000Y-61910000D01*
X203135000Y-61910000D01*
G37*
G36*
X147255000Y-61910000D02*
G01*
X147255000Y-60010000D01*
X148655000Y-60010000D01*
X148655000Y-61910000D01*
X147255000Y-61910000D01*
G37*
G36*
X144715000Y-61910000D02*
G01*
X144715000Y-60010000D01*
X146115000Y-60010000D01*
X146115000Y-61910000D01*
X144715000Y-61910000D01*
G37*
G36*
X88835000Y-61910000D02*
G01*
X88835000Y-60010000D01*
X90235000Y-60010000D01*
X90235000Y-61910000D01*
X88835000Y-61910000D01*
G37*
G36*
X86295000Y-61910000D02*
G01*
X86295000Y-60010000D01*
X87695000Y-60010000D01*
X87695000Y-61910000D01*
X86295000Y-61910000D01*
G37*
G36*
X149925000Y-75250000D02*
G01*
X149925000Y-77150000D01*
X148525000Y-77150000D01*
X148525000Y-75250000D01*
X149925000Y-75250000D01*
G37*
G36*
X152465000Y-75250000D02*
G01*
X152465000Y-77150000D01*
X151065000Y-77150000D01*
X151065000Y-75250000D01*
X152465000Y-75250000D01*
G37*
G36*
X191070000Y-61910000D02*
G01*
X191070000Y-60010000D01*
X192470000Y-60010000D01*
X192470000Y-61910000D01*
X191070000Y-61910000D01*
G37*
G36*
X188530000Y-61910000D02*
G01*
X188530000Y-60010000D01*
X189930000Y-60010000D01*
X189930000Y-61910000D01*
X188530000Y-61910000D01*
G37*
G36*
X74230000Y-61910000D02*
G01*
X74230000Y-60010000D01*
X75630000Y-60010000D01*
X75630000Y-61910000D01*
X74230000Y-61910000D01*
G37*
G36*
X71690000Y-61910000D02*
G01*
X71690000Y-60010000D01*
X73090000Y-60010000D01*
X73090000Y-61910000D01*
X71690000Y-61910000D01*
G37*
G36*
X132395000Y-80710000D02*
G01*
X130495000Y-80710000D01*
X130495000Y-79310000D01*
X132395000Y-79310000D01*
X132395000Y-80710000D01*
G37*
G36*
X132395000Y-83250000D02*
G01*
X130495000Y-83250000D01*
X130495000Y-81850000D01*
X132395000Y-81850000D01*
X132395000Y-83250000D01*
G37*
G36*
X176465000Y-61910000D02*
G01*
X176465000Y-60010000D01*
X177865000Y-60010000D01*
X177865000Y-61910000D01*
X176465000Y-61910000D01*
G37*
G36*
X173925000Y-61910000D02*
G01*
X173925000Y-60010000D01*
X175325000Y-60010000D01*
X175325000Y-61910000D01*
X173925000Y-61910000D01*
G37*
G36*
X118045000Y-61910000D02*
G01*
X118045000Y-60010000D01*
X119445000Y-60010000D01*
X119445000Y-61910000D01*
X118045000Y-61910000D01*
G37*
G36*
X115505000Y-61910000D02*
G01*
X115505000Y-60010000D01*
X116905000Y-60010000D01*
X116905000Y-61910000D01*
X115505000Y-61910000D01*
G37*
G36*
X59625000Y-61910000D02*
G01*
X59625000Y-60010000D01*
X61025000Y-60010000D01*
X61025000Y-61910000D01*
X59625000Y-61910000D01*
G37*
G36*
X57085000Y-61910000D02*
G01*
X57085000Y-60010000D01*
X58485000Y-60010000D01*
X58485000Y-61910000D01*
X57085000Y-61910000D01*
G37*
G36*
X124140000Y-80710000D02*
G01*
X122240000Y-80710000D01*
X122240000Y-79310000D01*
X124140000Y-79310000D01*
X124140000Y-80710000D01*
G37*
G36*
X124140000Y-83250000D02*
G01*
X122240000Y-83250000D01*
X122240000Y-81850000D01*
X124140000Y-81850000D01*
X124140000Y-83250000D01*
G37*
G36*
X161860000Y-61910000D02*
G01*
X161860000Y-60010000D01*
X163260000Y-60010000D01*
X163260000Y-61910000D01*
X161860000Y-61910000D01*
G37*
G36*
X159320000Y-61910000D02*
G01*
X159320000Y-60010000D01*
X160720000Y-60010000D01*
X160720000Y-61910000D01*
X159320000Y-61910000D01*
G37*
G36*
X103440000Y-61910000D02*
G01*
X103440000Y-60010000D01*
X104840000Y-60010000D01*
X104840000Y-61910000D01*
X103440000Y-61910000D01*
G37*
G36*
X100900000Y-61910000D02*
G01*
X100900000Y-60010000D01*
X102300000Y-60010000D01*
X102300000Y-61910000D01*
X100900000Y-61910000D01*
G37*
G36*
X45020000Y-61910000D02*
G01*
X45020000Y-60010000D01*
X46420000Y-60010000D01*
X46420000Y-61910000D01*
X45020000Y-61910000D01*
G37*
G36*
X42480000Y-61910000D02*
G01*
X42480000Y-60010000D01*
X43880000Y-60010000D01*
X43880000Y-61910000D01*
X42480000Y-61910000D01*
G37*
D13*
X112395000Y-67310000D03*
X109855000Y-116205000D03*
X200152000Y-36195000D03*
X184150000Y-36195000D03*
X169545000Y-36195000D03*
X154940000Y-36195000D03*
X39370000Y6350000D03*
X49530000Y-36195000D03*
X64135000Y-36195000D03*
X78740000Y-36195000D03*
X93345000Y-36195000D03*
X93980000Y-41275000D03*
X107950000Y-36195000D03*
X108585000Y-41275000D03*
X129286000Y-36830000D03*
X209550000Y-9525000D03*
X207645000Y-9525000D03*
X205740000Y-9525000D03*
X205740000Y-7620000D03*
X207645000Y-7620000D03*
X209550000Y-7620000D03*
X209550000Y-5715000D03*
X207645000Y-5715000D03*
X205740000Y-5715000D03*
X191135000Y-9525000D03*
X193040000Y-9525000D03*
X194945000Y-9525000D03*
X194945000Y-7620000D03*
X193040000Y-7620000D03*
X191135000Y-7620000D03*
X194945000Y-5715000D03*
X193040000Y-5715000D03*
X191135000Y-5715000D03*
X180340000Y-9525000D03*
X178435000Y-9525000D03*
X176530000Y-9525000D03*
X176530000Y-7620000D03*
X178435000Y-7620000D03*
X180340000Y-7620000D03*
X180340000Y-5715000D03*
X178435000Y-5715000D03*
X176530000Y-5715000D03*
X165735000Y-9525000D03*
X163830000Y-9525000D03*
X161925000Y-9525000D03*
X161925000Y-7620000D03*
X163830000Y-7620000D03*
X165735000Y-7620000D03*
X165735000Y-5715000D03*
X163830000Y-5715000D03*
X161925000Y-5715000D03*
X146685000Y-9525000D03*
X148590000Y-9525000D03*
X150495000Y-9525000D03*
X150495000Y-7620000D03*
X148590000Y-7620000D03*
X146685000Y-7620000D03*
X150495000Y-5715000D03*
X148590000Y-5715000D03*
X146685000Y-5715000D03*
X135890000Y-9525000D03*
X133985000Y-9525000D03*
X132080000Y-9525000D03*
X132080000Y-7620000D03*
X133985000Y-7620000D03*
X135890000Y-7620000D03*
X135890000Y-5715000D03*
X133985000Y-5715000D03*
X132080000Y-5715000D03*
X121285000Y-9525000D03*
X119380000Y-9525000D03*
X117475000Y-9525000D03*
X117475000Y-7620000D03*
X119380000Y-7620000D03*
X121285000Y-7620000D03*
X121285000Y-5715000D03*
X119380000Y-5715000D03*
X117475000Y-5715000D03*
X106680000Y-9525000D03*
X104775000Y-9525000D03*
X102870000Y-9525000D03*
X106680000Y-7620000D03*
X104775000Y-7620000D03*
X102870000Y-7620000D03*
X106680000Y-5715000D03*
X104775000Y-5715000D03*
X102870000Y-5715000D03*
X91440000Y-9525000D03*
X89535000Y-9525000D03*
X87630000Y-9525000D03*
X87630000Y-7620000D03*
X89535000Y-7620000D03*
X91440000Y-7620000D03*
X91440000Y-5715000D03*
X89535000Y-5715000D03*
X87630000Y-5715000D03*
X73025000Y-9525000D03*
X74930000Y-9525000D03*
X76835000Y-9525000D03*
X76835000Y-7620000D03*
X74930000Y-7620000D03*
X72957000Y-7620000D03*
X76835000Y-5715000D03*
X74930000Y-5715000D03*
X73025000Y-5715000D03*
X58420000Y-9525000D03*
X58420000Y-7620000D03*
X60325000Y-7620000D03*
X60325000Y-9525000D03*
X62230000Y-9525000D03*
X62230000Y-7620000D03*
X62230000Y-5715000D03*
X60325000Y-5715000D03*
X58420000Y-5715000D03*
X45720000Y-9525000D03*
X45720000Y-5715000D03*
X45720000Y-7620000D03*
X47625000Y-7620000D03*
X47625000Y-9525000D03*
X43815000Y-9525000D03*
X43815000Y-7620000D03*
X47625000Y-5715000D03*
X43815000Y-5715000D03*
X44450000Y-116840000D03*
X48260000Y-116840000D03*
X52070000Y-116840000D03*
X52070000Y-113665000D03*
X48260000Y-113665000D03*
X44450000Y-113665000D03*
X44450000Y-110490000D03*
X48260000Y-110490000D03*
X52070000Y-110490000D03*
X60325000Y-113665000D03*
X56515000Y-113665000D03*
X56515000Y-116840000D03*
X60325000Y-116840000D03*
X64135000Y-116840000D03*
X64135000Y-113665000D03*
X64135000Y-110490000D03*
X60325000Y-110490000D03*
X56515000Y-110490000D03*
X88265000Y-90170000D03*
X82550000Y-90170000D03*
X76835000Y-90170000D03*
X78740000Y-123825000D03*
X78740000Y-130175000D03*
X83820000Y-116840000D03*
X83820000Y-113665000D03*
X80010000Y-113665000D03*
X80010000Y-116840000D03*
X76200000Y-116840000D03*
X76200000Y-113665000D03*
X76200000Y-110490000D03*
X80010000Y-110490000D03*
X83820000Y-110490000D03*
X92075000Y-110490000D03*
X95885000Y-113665000D03*
X88900000Y-113665000D03*
X92075000Y-113665000D03*
X92075000Y-116840000D03*
X95885000Y-116840000D03*
X95885000Y-110490000D03*
X88900000Y-110490000D03*
X88900000Y-116840000D03*
X107315000Y-105410000D03*
X111125000Y-111125000D03*
X111125000Y-120650000D03*
X111125000Y-130175000D03*
X107950000Y-142875000D03*
X99695000Y-142875000D03*
X90170000Y-142875000D03*
X217805000Y-104140000D03*
X217805000Y-114300000D03*
X217805000Y-121285000D03*
X217805000Y-133985000D03*
X55245000Y-73660000D03*
X60325000Y-78740000D03*
X65405000Y-80645000D03*
X80645000Y-80645000D03*
X87630000Y-80645000D03*
X94615000Y-83820000D03*
X100965000Y-90805000D03*
X107950000Y-97155000D03*
X114935000Y-103505000D03*
X50165000Y-68580000D03*
X118110000Y-111125000D03*
X118110000Y-120650000D03*
X118110000Y-130175000D03*
X136525000Y-142875000D03*
X120650000Y-142875000D03*
X151130000Y-142875000D03*
X160655000Y-142875000D03*
X170180000Y-142875000D03*
X179705000Y-142875000D03*
X189230000Y-142875000D03*
X198755000Y-142875000D03*
X208280000Y-142875000D03*
X51435000Y-142875000D03*
X40640000Y-142875000D03*
X31115000Y-134620000D03*
X31115000Y-125095000D03*
X31115000Y-115570000D03*
X31115000Y-106045000D03*
X31115000Y-96520000D03*
X31115000Y-86995000D03*
X31115000Y-77470000D03*
X31115000Y-67945000D03*
X31750000Y-58420000D03*
X218440000Y-35560000D03*
X218440000Y-13335000D03*
X218440000Y-20320000D03*
X218440000Y-6985000D03*
X218440000Y-635000D03*
X196850000Y6350000D03*
X183515000Y6350000D03*
X170180000Y6350000D03*
X156845000Y6350000D03*
X143510000Y6350000D03*
X31750000Y-1270000D03*
X31750000Y-10795000D03*
X106680000Y6350000D03*
X93345000Y6350000D03*
X80010000Y6350000D03*
X66675000Y6350000D03*
X53340000Y6350000D03*
X31750000Y-48895000D03*
X31750000Y-39370000D03*
X31750000Y-29845000D03*
X31750000Y-20320000D03*
X166370000Y-86995000D03*
X120650000Y-99060000D03*
X126365000Y-104775000D03*
X179070000Y-111760000D03*
X137795000Y-17145000D03*
X211455000Y-17145000D03*
X203200000Y-34290000D03*
X188595000Y-34290000D03*
X173990000Y-34290000D03*
X197485000Y-17145000D03*
X182880000Y-17145000D03*
X168275000Y-17145000D03*
X144780000Y-34036000D03*
X159385000Y-34290000D03*
X153670000Y-17145000D03*
X139065000Y-17145000D03*
X196215000Y-17145000D03*
X158115000Y-13970000D03*
X167005000Y-17145000D03*
X151765000Y-40005000D03*
X139700000Y-41275000D03*
X123190000Y-39370000D03*
D17*
X44323000Y-22225000D03*
X44323000Y-32385000D03*
X44323000Y-27305000D03*
X44323000Y-29845000D03*
X44323000Y-24765000D03*
X58939540Y-22225000D03*
X58939540Y-32385000D03*
X58939540Y-27305000D03*
X58939540Y-29845000D03*
X58939540Y-24765000D03*
D16*
X142240000Y-139700000D03*
D13*
X197485000Y-2540000D03*
X196215000Y-1270000D03*
X189230000Y-2540000D03*
X187960000Y-1270000D03*
X203835000Y-2540000D03*
X202565000Y-1270000D03*
X211455000Y-2540000D03*
X210185000Y-1270000D03*
X175260000Y-2540000D03*
X173990000Y-1270000D03*
X182880000Y-2540000D03*
X181610000Y-1270000D03*
X159385000Y-2540000D03*
X160655000Y-1270000D03*
X168275000Y-2540000D03*
X167005000Y-1270000D03*
X145415000Y-2540000D03*
X146685000Y-1270000D03*
X153670000Y-2540000D03*
X152400000Y-1270000D03*
X139065000Y-2540000D03*
X139065000Y-1270000D03*
X133985000Y-2540000D03*
X133985000Y-1270000D03*
X112395000Y-2540000D03*
X111125000Y-1270000D03*
X118110000Y-635000D03*
X116840000Y-635000D03*
X104775000Y-1270000D03*
X103505000Y-1270000D03*
X99060000Y-2540000D03*
X97790000Y-1270000D03*
X91440000Y-1905000D03*
X90170000Y-1905000D03*
X85725000Y-2540000D03*
X84455000Y-1270000D03*
X77470000Y-1905000D03*
X76200000Y-1905000D03*
X71120000Y-1905000D03*
X71120000Y-635000D03*
X57785000Y-1905000D03*
X57785000Y-635000D03*
X64770000Y-3175000D03*
X63500000Y-1905000D03*
X50800000Y-3175000D03*
X50165000Y-1905000D03*
X44450000Y-1905000D03*
X44450000Y-635000D03*
D18*
X44355000Y1270000D03*
X48355000Y1270000D03*
D16*
X124714000Y3175000D03*
X139700000Y-35052000D03*
X175895000Y-78105000D03*
X73660000Y-78105000D03*
X34925000Y-139700000D03*
X214630000Y-139700000D03*
X214630000Y3175000D03*
X34925000Y3175000D03*
D17*
X146638818Y-22225000D03*
X146638818Y-32385000D03*
X146638818Y-27305000D03*
X146638818Y-29845000D03*
X146638818Y-24765000D03*
X117405727Y-22225000D03*
X117405727Y-32385000D03*
X117405727Y-27305000D03*
X117405727Y-29845000D03*
X117405727Y-24765000D03*
X132022273Y-22225000D03*
X132022273Y-32385000D03*
X132022273Y-27305000D03*
X132022273Y-29845000D03*
X132022273Y-24765000D03*
X205105000Y-22225000D03*
X205105000Y-32385000D03*
X205105000Y-27305000D03*
X205105000Y-29845000D03*
X205105000Y-24765000D03*
X190488455Y-22225000D03*
X190488455Y-32385000D03*
X190488455Y-27305000D03*
X190488455Y-29845000D03*
X190488455Y-24765000D03*
X175871909Y-22225000D03*
X175871909Y-32385000D03*
X175871909Y-27305000D03*
X175871909Y-29845000D03*
X175871909Y-24765000D03*
X161255364Y-22225000D03*
X161255364Y-32385000D03*
X161255364Y-27305000D03*
X161255364Y-29845000D03*
X161255364Y-24765000D03*
X102789182Y-22225000D03*
X102789182Y-32385000D03*
X102789182Y-27305000D03*
X102789182Y-29845000D03*
X102789182Y-24765000D03*
X88172636Y-22225000D03*
X88172636Y-32385000D03*
X88172636Y-27305000D03*
X88172636Y-29845000D03*
X88172636Y-24765000D03*
X73556091Y-22225000D03*
X73556091Y-32385000D03*
X73556091Y-27305000D03*
X73556091Y-29845000D03*
X73556091Y-24765000D03*
X181229000Y-99060000D03*
X181229000Y-109220000D03*
X181229000Y-104140000D03*
X181229000Y-106680000D03*
X181229000Y-101600000D03*
D19*
X52860000Y-120015000D03*
X56360000Y-120015000D03*
X84229000Y-120015000D03*
X87729000Y-120015000D03*
D14*
G36*
X61025000Y-121605000D02*
G01*
X61025000Y-123505000D01*
X59625000Y-123505000D01*
X59625000Y-121605000D01*
X61025000Y-121605000D01*
G37*
G36*
X63565000Y-121605000D02*
G01*
X63565000Y-123505000D01*
X62165000Y-123505000D01*
X62165000Y-121605000D01*
X63565000Y-121605000D01*
G37*
D20*
X43053000Y-42545000D03*
D21*
X45593000Y-42545000D03*
D13*
X83820000Y-104775000D03*
X52070000Y-104775000D03*
D18*
X201105000Y1270000D03*
X205105000Y1270000D03*
D22*
X205740000Y5080000D03*
D23*
X200660000Y5080000D03*
D22*
X192405000Y5080000D03*
D23*
X187325000Y5080000D03*
D22*
X179070000Y5080000D03*
D23*
X173990000Y5080000D03*
D22*
X165735000Y5080000D03*
D23*
X160655000Y5080000D03*
D22*
X152400000Y5080000D03*
D23*
X147320000Y5080000D03*
D22*
X139065000Y5080000D03*
D23*
X133985000Y5080000D03*
D22*
X115570000Y5080000D03*
D23*
X110490000Y5080000D03*
D22*
X102235000Y5080000D03*
D23*
X97155000Y5080000D03*
D22*
X88900000Y5080000D03*
D23*
X83820000Y5080000D03*
D22*
X75565000Y5080000D03*
D23*
X70485000Y5080000D03*
D22*
X62230000Y5080000D03*
D23*
X57150000Y5080000D03*
D22*
X216408000Y-45212000D03*
D23*
X216408000Y-40132000D03*
D22*
X216408000Y-130175000D03*
D23*
X216408000Y-125095000D03*
D22*
X48895000Y5080000D03*
D23*
X43815000Y5080000D03*
D22*
X127508000Y-141732000D03*
D23*
X132588000Y-141732000D03*
D22*
X67945000Y-141732000D03*
D23*
X73025000Y-141732000D03*
D24*
X197705000Y-85725000D03*
X192185000Y-86995000D03*
X192185000Y-85725000D03*
X197705000Y-84455000D03*
X192185000Y-88265000D03*
X192185000Y-84455000D03*
X197705000Y-86995000D03*
X197705000Y-88265000D03*
D25*
X118422500Y-72375000D03*
D14*
G36*
X117372500Y-71375000D02*
G01*
X117372500Y-70775000D01*
X119472500Y-70775000D01*
X119472500Y-71375000D01*
X117372500Y-71375000D01*
G37*
D25*
X124147500Y-73025000D03*
X118422500Y-71725000D03*
X118422500Y-73675000D03*
X124147500Y-73675000D03*
X124147500Y-71725000D03*
X118422500Y-74975000D03*
X118422500Y-74325000D03*
X118422500Y-73025000D03*
X124147500Y-72375000D03*
X124147500Y-74325000D03*
X124147500Y-71075000D03*
X124147500Y-74975000D03*
X141800500Y-73675000D03*
D14*
G36*
X142850500Y-74675000D02*
G01*
X142850500Y-75275000D01*
X140750500Y-75275000D01*
X140750500Y-74675000D01*
X142850500Y-74675000D01*
G37*
D25*
X136075500Y-73025000D03*
X141800500Y-74325000D03*
X141800500Y-72375000D03*
X136075500Y-72375000D03*
X136075500Y-74325000D03*
X141800500Y-71075000D03*
X141800500Y-71725000D03*
X141800500Y-73025000D03*
X136075500Y-73675000D03*
X136075500Y-71725000D03*
X136075500Y-74975000D03*
X136075500Y-71075000D03*
D13*
X93345000Y-104775000D03*
X84455000Y-121920000D03*
X86995000Y-121920000D03*
X96520000Y-121285000D03*
X90805000Y-123825000D03*
X88900000Y-125095000D03*
X86233000Y-130175000D03*
X87757000Y-130175000D03*
X93980000Y-130175000D03*
X94742000Y-132334000D03*
X90170000Y-136525000D03*
X89535000Y-138430000D03*
X81915000Y-133985000D03*
X81915000Y-137795000D03*
X61595000Y-104775000D03*
X53340000Y-121920000D03*
X55245000Y-121920000D03*
X59690000Y-124460000D03*
X64770000Y-121285000D03*
X57150000Y-125095000D03*
X62230000Y-130175000D03*
X62865000Y-132080000D03*
X58420000Y-135890000D03*
X50800000Y-133985000D03*
X50800000Y-137795000D03*
X69850000Y-124460000D03*
X65405000Y-134620000D03*
X73025000Y-136525000D03*
X69850000Y-118110000D03*
X149225000Y-78740000D03*
X63500000Y-86995000D03*
X69215000Y-86995000D03*
X67310000Y-86995000D03*
X65405000Y-86995000D03*
X45720000Y-40005000D03*
X46990000Y-40005000D03*
X45720000Y-36830000D03*
X46990000Y-36830000D03*
X46990000Y-38735000D03*
X46990000Y-35560000D03*
X46990000Y-45085000D03*
X41275000Y-47625000D03*
X40386000Y-43180000D03*
X161925000Y-76200000D03*
X146050000Y-76200000D03*
X162560000Y-86995000D03*
X165100000Y-91440000D03*
X212090000Y-83185000D03*
X167005000Y-123190000D03*
X154940000Y-83185000D03*
X161290000Y-72390000D03*
X151765000Y-93980000D03*
X151765000Y-93980000D03*
X139065000Y-63500000D03*
X135890000Y-63500000D03*
X142875000Y-92075000D03*
X200660000Y-125730000D03*
X201930000Y-122555000D03*
X140335000Y-76200000D03*
X45720000Y-35560000D03*
X45720000Y-38735000D03*
X41275000Y-12065000D03*
X198755000Y-41275000D03*
X184150000Y-41275000D03*
X169545000Y-41275000D03*
X154940000Y-41275000D03*
X113030000Y-36195000D03*
X114935000Y-31115000D03*
X114935000Y-26670000D03*
X113665000Y-12065000D03*
X96520000Y-36195000D03*
X100330000Y-31115000D03*
X100330000Y-26670000D03*
X99060000Y-12065000D03*
X83820000Y-36195000D03*
X85852000Y-31115000D03*
X85852000Y-26670000D03*
X84455000Y-12065000D03*
X69215000Y-12065000D03*
X69215000Y-36195000D03*
X71120000Y-31115000D03*
X71120000Y-26670000D03*
X54610000Y-12065000D03*
X50165000Y-41275000D03*
X56515000Y-31115000D03*
X56515000Y-26670000D03*
X176276000Y-113792000D03*
X203200000Y-130810000D03*
X200660000Y-130810000D03*
X205105000Y-126365000D03*
X172339000Y-100330000D03*
X166370000Y-93980000D03*
X160655000Y-93980000D03*
X139065000Y-84455000D03*
X134620000Y-84455000D03*
X130175000Y-84455000D03*
X125730000Y-84455000D03*
X121285000Y-84455000D03*
X116840000Y-84455000D03*
X47625000Y-59690000D03*
X62230000Y-59690000D03*
X76835000Y-59690000D03*
X91440000Y-59690000D03*
X106680000Y-68580000D03*
X108204000Y-69088000D03*
X109728000Y-70104000D03*
X111252000Y-70612000D03*
X106680000Y-77724000D03*
X108204000Y-77724000D03*
X109728000Y-77724000D03*
X111252000Y-77724000D03*
X112776000Y-71120000D03*
X112776000Y-77724000D03*
X106426000Y-59690000D03*
X135255000Y-59690000D03*
X120650000Y-59690000D03*
X208280000Y-59690000D03*
X193675000Y-59690000D03*
X179070000Y-59690000D03*
X164465000Y-59690000D03*
X149860000Y-59690000D03*
X119380000Y-78105000D03*
X120015000Y-68580000D03*
X122555000Y-68580000D03*
X142240000Y-64770000D03*
X139446000Y-70866000D03*
X138430000Y-74295000D03*
X139700000Y-72390000D03*
X125095000Y-66675000D03*
X125984000Y-70739000D03*
X133985000Y-66040000D03*
X132715000Y-67310000D03*
X132080000Y-68580000D03*
X131445000Y-69850000D03*
X130302000Y-66675000D03*
X128016000Y-74422000D03*
X128905000Y-74930000D03*
X130175000Y-74930000D03*
X132715000Y-74930000D03*
X131445000Y-74930000D03*
X122555000Y-74930000D03*
X205105000Y-55880000D03*
X211455000Y-62865000D03*
X205105000Y-62865000D03*
X211455000Y-56515000D03*
X196850000Y-56515000D03*
X182245000Y-56515000D03*
X189865000Y-62865000D03*
X174625000Y-62865000D03*
X190500000Y-55880000D03*
X175895000Y-55880000D03*
X196850000Y-62865000D03*
X182245000Y-62865000D03*
X167640000Y-56515000D03*
X153035000Y-56515000D03*
X161290000Y-55880000D03*
X146685000Y-55880000D03*
X144145000Y-62865000D03*
X159385000Y-62865000D03*
X167640000Y-62865000D03*
X153035000Y-62865000D03*
X138430000Y-56515000D03*
X123825000Y-56515000D03*
X132080000Y-55880000D03*
X117475000Y-55880000D03*
X128905000Y-62865000D03*
X114300000Y-62865000D03*
X132715000Y-62865000D03*
X123825000Y-62865000D03*
X109855000Y-56515000D03*
X109855000Y-62865000D03*
X102870000Y-55880000D03*
X101600000Y-62865000D03*
X94615000Y-62865000D03*
X88265000Y-55880000D03*
X86995000Y-62865000D03*
X94615000Y-56515000D03*
X80010000Y-56515000D03*
X71755000Y-62865000D03*
X57785000Y-62865000D03*
X80010000Y-62865000D03*
X73025000Y-55880000D03*
X59055000Y-55880000D03*
X64770000Y-56515000D03*
X64770000Y-62865000D03*
X50800000Y-62865000D03*
X50800000Y-56515000D03*
X104902000Y-67310000D03*
X103632000Y-67310000D03*
X102362000Y-67310000D03*
X101092000Y-67310000D03*
X99822000Y-68580000D03*
X98552000Y-69850000D03*
X97282000Y-71120000D03*
X97282000Y-73025000D03*
X98552000Y-73660000D03*
X99822000Y-74295000D03*
X101092000Y-74930000D03*
X102362000Y-75565000D03*
X103632000Y-76200000D03*
X104902000Y-76835000D03*
X54610000Y-36195000D03*
X131445000Y-121920000D03*
X131445000Y-119380000D03*
X131445000Y-120650000D03*
X136525000Y-132715000D03*
X132715000Y-119380000D03*
X130810000Y-113030000D03*
X134620000Y-119380000D03*
X131445000Y-125730000D03*
X128270000Y-115570000D03*
X132715000Y-129540000D03*
X127381000Y-125730000D03*
X126365000Y-127635000D03*
X131445000Y-124460000D03*
X212725000Y-47625000D03*
X205105000Y-48895000D03*
X203835000Y-47625000D03*
X200025000Y-47625000D03*
X201930000Y-13970000D03*
X212725000Y-17145000D03*
X189865000Y-48895000D03*
X195580000Y-40005000D03*
X189230000Y-47625000D03*
X185420000Y-47625000D03*
X181610000Y-17145000D03*
X187325000Y-13970000D03*
X172720000Y-13970000D03*
X175260000Y-48895000D03*
X160655000Y-48895000D03*
X146050000Y-48895000D03*
X131445000Y-48895000D03*
X180975000Y-40005000D03*
X174625000Y-47625000D03*
X170815000Y-47625000D03*
X166370000Y-40005000D03*
X160020000Y-47625000D03*
X156210000Y-47625000D03*
X145415000Y-47625000D03*
X141605000Y-47625000D03*
X130810000Y-47625000D03*
X127000000Y-47625000D03*
X152400000Y-17145000D03*
X143510000Y-13970000D03*
X128905000Y-13970000D03*
X124460000Y-13970000D03*
X116840000Y-48895000D03*
X116205000Y-47625000D03*
X112395000Y-47625000D03*
X112395000Y-6985000D03*
X97155000Y-6985000D03*
X111125000Y-36195000D03*
X109220000Y-39370000D03*
X102235000Y-48895000D03*
X101600000Y-47625000D03*
X97790000Y-47625000D03*
X98425000Y-36195000D03*
X94615000Y-39370000D03*
X87630000Y-48895000D03*
X86995000Y-47625000D03*
X83185000Y-47625000D03*
X83185000Y-6985000D03*
X81915000Y-36195000D03*
X80010000Y-39370000D03*
X79375000Y-41275000D03*
X73025000Y-48895000D03*
X72390000Y-47625000D03*
X68580000Y-47625000D03*
X67945000Y-6985000D03*
X67310000Y-36195000D03*
X64770000Y-41275000D03*
X58420000Y-48895000D03*
X57785000Y-47625000D03*
X53975000Y-47625000D03*
X65405000Y-39370000D03*
X50800000Y-39370000D03*
X52705000Y-36195000D03*
X53340000Y-6985000D03*
X44323000Y-48895000D03*
X39370000Y-7620000D03*
X54610000Y-130175000D03*
X55880000Y-130175000D03*
D14*
G36*
X163510000Y-94680000D02*
G01*
X161610000Y-94680000D01*
X161610000Y-93280000D01*
X163510000Y-93280000D01*
X163510000Y-94680000D01*
G37*
G36*
X163510000Y-97220000D02*
G01*
X161610000Y-97220000D01*
X161610000Y-95820000D01*
X163510000Y-95820000D01*
X163510000Y-97220000D01*
G37*
G36*
X169225000Y-94680000D02*
G01*
X167325000Y-94680000D01*
X167325000Y-93280000D01*
X169225000Y-93280000D01*
X169225000Y-94680000D01*
G37*
G36*
X169225000Y-97220000D02*
G01*
X167325000Y-97220000D01*
X167325000Y-95820000D01*
X169225000Y-95820000D01*
X169225000Y-97220000D01*
G37*
G36*
X92775000Y-121732000D02*
G01*
X92775000Y-123632000D01*
X91375000Y-123632000D01*
X91375000Y-121732000D01*
X92775000Y-121732000D01*
G37*
G36*
X95315000Y-121732000D02*
G01*
X95315000Y-123632000D01*
X93915000Y-123632000D01*
X93915000Y-121732000D01*
X95315000Y-121732000D01*
G37*
G36*
X201995000Y-91125000D02*
G01*
X201995000Y-93025000D01*
X200595000Y-93025000D01*
X200595000Y-91125000D01*
X201995000Y-91125000D01*
G37*
G36*
X204535000Y-91125000D02*
G01*
X204535000Y-93025000D01*
X203135000Y-93025000D01*
X203135000Y-91125000D01*
X204535000Y-91125000D01*
G37*
G36*
X201995000Y-88585000D02*
G01*
X201995000Y-90485000D01*
X200595000Y-90485000D01*
X200595000Y-88585000D01*
X201995000Y-88585000D01*
G37*
G36*
X204535000Y-88585000D02*
G01*
X204535000Y-90485000D01*
X203135000Y-90485000D01*
X203135000Y-88585000D01*
X204535000Y-88585000D01*
G37*
G36*
X201995000Y-82235000D02*
G01*
X201995000Y-84135000D01*
X200595000Y-84135000D01*
X200595000Y-82235000D01*
X201995000Y-82235000D01*
G37*
G36*
X204535000Y-82235000D02*
G01*
X204535000Y-84135000D01*
X203135000Y-84135000D01*
X203135000Y-82235000D01*
X204535000Y-82235000D01*
G37*
G36*
X201995000Y-79695000D02*
G01*
X201995000Y-81595000D01*
X200595000Y-81595000D01*
X200595000Y-79695000D01*
X201995000Y-79695000D01*
G37*
G36*
X204535000Y-79695000D02*
G01*
X204535000Y-81595000D01*
X203135000Y-81595000D01*
X203135000Y-79695000D01*
X204535000Y-79695000D01*
G37*
G36*
X83759000Y-125792000D02*
G01*
X85659000Y-125792000D01*
X85659000Y-127192000D01*
X83759000Y-127192000D01*
X83759000Y-125792000D01*
G37*
G36*
X83759000Y-123252000D02*
G01*
X85659000Y-123252000D01*
X85659000Y-124652000D01*
X83759000Y-124652000D01*
X83759000Y-123252000D01*
G37*
G36*
X86930000Y-136840000D02*
G01*
X86930000Y-134940000D01*
X88330000Y-134940000D01*
X88330000Y-136840000D01*
X86930000Y-136840000D01*
G37*
G36*
X84390000Y-136840000D02*
G01*
X84390000Y-134940000D01*
X85790000Y-134940000D01*
X85790000Y-136840000D01*
X84390000Y-136840000D01*
G37*
G36*
X91374000Y-133161000D02*
G01*
X89474000Y-133161000D01*
X89474000Y-131761000D01*
X91374000Y-131761000D01*
X91374000Y-133161000D01*
G37*
G36*
X91374000Y-135701000D02*
G01*
X89474000Y-135701000D01*
X89474000Y-134301000D01*
X91374000Y-134301000D01*
X91374000Y-135701000D01*
G37*
G36*
X86803000Y-133157000D02*
G01*
X86803000Y-131257000D01*
X88203000Y-131257000D01*
X88203000Y-133157000D01*
X86803000Y-133157000D01*
G37*
G36*
X84263000Y-133157000D02*
G01*
X84263000Y-131257000D01*
X85663000Y-131257000D01*
X85663000Y-133157000D01*
X84263000Y-133157000D01*
G37*
G36*
X138368000Y-77155000D02*
G01*
X138368000Y-79055000D01*
X136968000Y-79055000D01*
X136968000Y-77155000D01*
X138368000Y-77155000D01*
G37*
G36*
X140908000Y-77155000D02*
G01*
X140908000Y-79055000D01*
X139508000Y-79055000D01*
X139508000Y-77155000D01*
X140908000Y-77155000D01*
G37*
G36*
X52390000Y-125665000D02*
G01*
X54290000Y-125665000D01*
X54290000Y-127065000D01*
X52390000Y-127065000D01*
X52390000Y-125665000D01*
G37*
G36*
X52390000Y-123125000D02*
G01*
X54290000Y-123125000D01*
X54290000Y-124525000D01*
X52390000Y-124525000D01*
X52390000Y-123125000D01*
G37*
G36*
X55180000Y-136205000D02*
G01*
X55180000Y-134305000D01*
X56580000Y-134305000D01*
X56580000Y-136205000D01*
X55180000Y-136205000D01*
G37*
G36*
X52640000Y-136205000D02*
G01*
X52640000Y-134305000D01*
X54040000Y-134305000D01*
X54040000Y-136205000D01*
X52640000Y-136205000D01*
G37*
G36*
X204150000Y-127319000D02*
G01*
X202250000Y-127319000D01*
X202250000Y-125919000D01*
X204150000Y-125919000D01*
X204150000Y-127319000D01*
G37*
G36*
X204150000Y-129859000D02*
G01*
X202250000Y-129859000D01*
X202250000Y-128459000D01*
X204150000Y-128459000D01*
X204150000Y-129859000D01*
G37*
G36*
X59370000Y-132780000D02*
G01*
X57470000Y-132780000D01*
X57470000Y-131380000D01*
X59370000Y-131380000D01*
X59370000Y-132780000D01*
G37*
G36*
X59370000Y-135320000D02*
G01*
X57470000Y-135320000D01*
X57470000Y-133920000D01*
X59370000Y-133920000D01*
X59370000Y-135320000D01*
G37*
G36*
X55180000Y-133030000D02*
G01*
X55180000Y-131130000D01*
X56580000Y-131130000D01*
X56580000Y-133030000D01*
X55180000Y-133030000D01*
G37*
G36*
X52640000Y-133030000D02*
G01*
X52640000Y-131130000D01*
X54040000Y-131130000D01*
X54040000Y-133030000D01*
X52640000Y-133030000D01*
G37*
D21*
X139141200Y-120650000D03*
X136588500Y-123190000D03*
X136588500Y-118110000D03*
D14*
G36*
X133665000Y-121350000D02*
G01*
X131765000Y-121350000D01*
X131765000Y-119950000D01*
X133665000Y-119950000D01*
X133665000Y-121350000D01*
G37*
G36*
X133665000Y-123890000D02*
G01*
X131765000Y-123890000D01*
X131765000Y-122490000D01*
X133665000Y-122490000D01*
X133665000Y-123890000D01*
G37*
G36*
X131765000Y-127570000D02*
G01*
X133665000Y-127570000D01*
X133665000Y-128970000D01*
X131765000Y-128970000D01*
X131765000Y-127570000D01*
G37*
G36*
X131765000Y-125030000D02*
G01*
X133665000Y-125030000D01*
X133665000Y-126430000D01*
X131765000Y-126430000D01*
X131765000Y-125030000D01*
G37*
G36*
X129475000Y-128712000D02*
G01*
X129475000Y-126812000D01*
X130875000Y-126812000D01*
X130875000Y-128712000D01*
X129475000Y-128712000D01*
G37*
G36*
X126935000Y-128712000D02*
G01*
X126935000Y-126812000D01*
X128335000Y-126812000D01*
X128335000Y-128712000D01*
X126935000Y-128712000D01*
G37*
D15*
X94234000Y-128962000D03*
X95184000Y-126762000D03*
X93284000Y-126762000D03*
X61595000Y-128835000D03*
X62545000Y-126635000D03*
X60645000Y-126635000D03*
D26*
X201170000Y-117475000D03*
X204810000Y-117475000D03*
D27*
X212090000Y-117475000D03*
D26*
X208450000Y-117475000D03*
D28*
X209296000Y-88264000D03*
X206756000Y-81914000D03*
D29*
X215646000Y-92076000D03*
D28*
X209296000Y-83184000D03*
X206756000Y-89534000D03*
X209296000Y-85724000D03*
X206756000Y-86994000D03*
X206756000Y-84454000D03*
X209296000Y-90804000D03*
D29*
X215646000Y-80644000D03*
D26*
X201170000Y-100965000D03*
X204810000Y-100965000D03*
D27*
X212090000Y-100965000D03*
D26*
X208450000Y-100965000D03*
D20*
X104194000Y-128000000D03*
D21*
X106734000Y-128000000D03*
D30*
X87249000Y-126492000D03*
X87249000Y-123952000D03*
D20*
X66194000Y-128000000D03*
D21*
X68734000Y-128000000D03*
D20*
X180194000Y-119380000D03*
D21*
X182734000Y-119380000D03*
D30*
X55880000Y-126365000D03*
X55880000Y-123825000D03*
D20*
X180194000Y-128000000D03*
D21*
X182734000Y-128000000D03*
D20*
X203835000Y-42545000D03*
D21*
X206375000Y-42545000D03*
D20*
X189218455Y-42545000D03*
D21*
X191758455Y-42545000D03*
D20*
X174601909Y-42545000D03*
D21*
X177141909Y-42545000D03*
D20*
X159985364Y-42545000D03*
D21*
X162525364Y-42545000D03*
D20*
X145368818Y-42545000D03*
D21*
X147908818Y-42545000D03*
D20*
X130752273Y-42545000D03*
D21*
X133292273Y-42545000D03*
D18*
X187865000Y1270000D03*
X191865000Y1270000D03*
X174530000Y1270000D03*
X178530000Y1270000D03*
X161195000Y1270000D03*
X165195000Y1270000D03*
X147860000Y1270000D03*
X151860000Y1270000D03*
X134525000Y1270000D03*
X138525000Y1270000D03*
D20*
X142194000Y-128000000D03*
D21*
X144734000Y-128000000D03*
D20*
X116135727Y-42545000D03*
D21*
X118675727Y-42545000D03*
D20*
X101519182Y-42545000D03*
D21*
X104059182Y-42545000D03*
D20*
X86902636Y-42545000D03*
D21*
X89442636Y-42545000D03*
D20*
X72286091Y-42545000D03*
D21*
X74826091Y-42545000D03*
D20*
X57669540Y-42545000D03*
D21*
X60209540Y-42545000D03*
D18*
X111030000Y1270000D03*
X115030000Y1270000D03*
X97695000Y1270000D03*
X101695000Y1270000D03*
X84360000Y1270000D03*
X88360000Y1270000D03*
X71025000Y1270000D03*
X75025000Y1270000D03*
X57690000Y1270000D03*
X61690000Y1270000D03*
D14*
G36*
X89474000Y-128459000D02*
G01*
X91374000Y-128459000D01*
X91374000Y-129859000D01*
X89474000Y-129859000D01*
X89474000Y-128459000D01*
G37*
G36*
X89474000Y-125919000D02*
G01*
X91374000Y-125919000D01*
X91374000Y-127319000D01*
X89474000Y-127319000D01*
X89474000Y-125919000D01*
G37*
G36*
X139508000Y-69530000D02*
G01*
X139508000Y-67630000D01*
X140908000Y-67630000D01*
X140908000Y-69530000D01*
X139508000Y-69530000D01*
G37*
G36*
X136968000Y-69530000D02*
G01*
X136968000Y-67630000D01*
X138368000Y-67630000D01*
X138368000Y-69530000D01*
X136968000Y-69530000D01*
G37*
G36*
X121855000Y-69530000D02*
G01*
X121855000Y-67630000D01*
X123255000Y-67630000D01*
X123255000Y-69530000D01*
X121855000Y-69530000D01*
G37*
G36*
X119315000Y-69530000D02*
G01*
X119315000Y-67630000D01*
X120715000Y-67630000D01*
X120715000Y-69530000D01*
X119315000Y-69530000D01*
G37*
G36*
X139508000Y-66990000D02*
G01*
X139508000Y-65090000D01*
X140908000Y-65090000D01*
X140908000Y-66990000D01*
X139508000Y-66990000D01*
G37*
G36*
X136968000Y-66990000D02*
G01*
X136968000Y-65090000D01*
X138368000Y-65090000D01*
X138368000Y-66990000D01*
X136968000Y-66990000D01*
G37*
G36*
X121855000Y-66990000D02*
G01*
X121855000Y-65090000D01*
X123255000Y-65090000D01*
X123255000Y-66990000D01*
X121855000Y-66990000D01*
G37*
G36*
X119315000Y-66990000D02*
G01*
X119315000Y-65090000D01*
X120715000Y-65090000D01*
X120715000Y-66990000D01*
X119315000Y-66990000D01*
G37*
G36*
X57470000Y-128840000D02*
G01*
X59370000Y-128840000D01*
X59370000Y-130240000D01*
X57470000Y-130240000D01*
X57470000Y-128840000D01*
G37*
G36*
X57470000Y-126300000D02*
G01*
X59370000Y-126300000D01*
X59370000Y-127700000D01*
X57470000Y-127700000D01*
X57470000Y-126300000D01*
G37*
G36*
X210505000Y-60260000D02*
G01*
X212405000Y-60260000D01*
X212405000Y-61660000D01*
X210505000Y-61660000D01*
X210505000Y-60260000D01*
G37*
G36*
X210505000Y-57720000D02*
G01*
X212405000Y-57720000D01*
X212405000Y-59120000D01*
X210505000Y-59120000D01*
X210505000Y-57720000D01*
G37*
G36*
X152085000Y-60260000D02*
G01*
X153985000Y-60260000D01*
X153985000Y-61660000D01*
X152085000Y-61660000D01*
X152085000Y-60260000D01*
G37*
G36*
X152085000Y-57720000D02*
G01*
X153985000Y-57720000D01*
X153985000Y-59120000D01*
X152085000Y-59120000D01*
X152085000Y-57720000D01*
G37*
G36*
X181295000Y-60260000D02*
G01*
X183195000Y-60260000D01*
X183195000Y-61660000D01*
X181295000Y-61660000D01*
X181295000Y-60260000D01*
G37*
G36*
X181295000Y-57720000D02*
G01*
X183195000Y-57720000D01*
X183195000Y-59120000D01*
X181295000Y-59120000D01*
X181295000Y-57720000D01*
G37*
G36*
X195900000Y-60260000D02*
G01*
X197800000Y-60260000D01*
X197800000Y-61660000D01*
X195900000Y-61660000D01*
X195900000Y-60260000D01*
G37*
G36*
X195900000Y-57720000D02*
G01*
X197800000Y-57720000D01*
X197800000Y-59120000D01*
X195900000Y-59120000D01*
X195900000Y-57720000D01*
G37*
G36*
X166690000Y-60260000D02*
G01*
X168590000Y-60260000D01*
X168590000Y-61660000D01*
X166690000Y-61660000D01*
X166690000Y-60260000D01*
G37*
G36*
X166690000Y-57720000D02*
G01*
X168590000Y-57720000D01*
X168590000Y-59120000D01*
X166690000Y-59120000D01*
X166690000Y-57720000D01*
G37*
G36*
X137480000Y-60260000D02*
G01*
X139380000Y-60260000D01*
X139380000Y-61660000D01*
X137480000Y-61660000D01*
X137480000Y-60260000D01*
G37*
G36*
X137480000Y-57720000D02*
G01*
X139380000Y-57720000D01*
X139380000Y-59120000D01*
X137480000Y-59120000D01*
X137480000Y-57720000D01*
G37*
G36*
X93665000Y-60260000D02*
G01*
X95565000Y-60260000D01*
X95565000Y-61660000D01*
X93665000Y-61660000D01*
X93665000Y-60260000D01*
G37*
G36*
X93665000Y-57720000D02*
G01*
X95565000Y-57720000D01*
X95565000Y-59120000D01*
X93665000Y-59120000D01*
X93665000Y-57720000D01*
G37*
G36*
X63820000Y-60260000D02*
G01*
X65720000Y-60260000D01*
X65720000Y-61660000D01*
X63820000Y-61660000D01*
X63820000Y-60260000D01*
G37*
G36*
X63820000Y-57720000D02*
G01*
X65720000Y-57720000D01*
X65720000Y-59120000D01*
X63820000Y-59120000D01*
X63820000Y-57720000D01*
G37*
G36*
X122875000Y-60260000D02*
G01*
X124775000Y-60260000D01*
X124775000Y-61660000D01*
X122875000Y-61660000D01*
X122875000Y-60260000D01*
G37*
G36*
X122875000Y-57720000D02*
G01*
X124775000Y-57720000D01*
X124775000Y-59120000D01*
X122875000Y-59120000D01*
X122875000Y-57720000D01*
G37*
G36*
X108905000Y-60260000D02*
G01*
X110805000Y-60260000D01*
X110805000Y-61660000D01*
X108905000Y-61660000D01*
X108905000Y-60260000D01*
G37*
G36*
X108905000Y-57720000D02*
G01*
X110805000Y-57720000D01*
X110805000Y-59120000D01*
X108905000Y-59120000D01*
X108905000Y-57720000D01*
G37*
G36*
X79060000Y-60260000D02*
G01*
X80960000Y-60260000D01*
X80960000Y-61660000D01*
X79060000Y-61660000D01*
X79060000Y-60260000D01*
G37*
G36*
X79060000Y-57720000D02*
G01*
X80960000Y-57720000D01*
X80960000Y-59120000D01*
X79060000Y-59120000D01*
X79060000Y-57720000D01*
G37*
G36*
X49850000Y-60260000D02*
G01*
X51750000Y-60260000D01*
X51750000Y-61660000D01*
X49850000Y-61660000D01*
X49850000Y-60260000D01*
G37*
G36*
X49850000Y-57720000D02*
G01*
X51750000Y-57720000D01*
X51750000Y-59120000D01*
X49850000Y-59120000D01*
X49850000Y-57720000D01*
G37*
G36*
X131765000Y-117410000D02*
G01*
X133665000Y-117410000D01*
X133665000Y-118810000D01*
X131765000Y-118810000D01*
X131765000Y-117410000D01*
G37*
G36*
X131765000Y-114870000D02*
G01*
X133665000Y-114870000D01*
X133665000Y-116270000D01*
X131765000Y-116270000D01*
X131765000Y-114870000D01*
G37*
M02*
