G04 #@! TF.GenerationSoftware,KiCad,Pcbnew,(5.1.6)-1*
G04 #@! TF.CreationDate,2023-04-30T23:27:37+02:00*
G04 #@! TF.ProjectId,connecting-connector-1-wire,636f6e6e-6563-4746-996e-672d636f6e6e,rev?*
G04 #@! TF.SameCoordinates,Original*
G04 #@! TF.FileFunction,Legend,Top*
G04 #@! TF.FilePolarity,Positive*
%FSLAX46Y46*%
G04 Gerber Fmt 4.6, Leading zero omitted, Abs format (unit mm)*
G04 Created by KiCad (PCBNEW (5.1.6)-1) date 2023-04-30 23:27:37*
%MOMM*%
%LPD*%
G01*
G04 APERTURE LIST*
%ADD10C,0.375000*%
%ADD11C,0.160000*%
%ADD12C,0.120000*%
%ADD13C,0.150000*%
%ADD14C,6.102000*%
%ADD15C,0.902000*%
%ADD16R,1.002000X1.002000*%
%ADD17R,3.602000X3.602000*%
%ADD18C,3.602000*%
%ADD19C,1.602000*%
%ADD20C,3.402000*%
%ADD21R,2.302000X0.902000*%
G04 APERTURE END LIST*
D10*
X211217142Y-72576571D02*
X211574285Y-73576571D01*
X211931428Y-72576571D01*
X213288571Y-73576571D02*
X212431428Y-73576571D01*
X212860000Y-73576571D02*
X212860000Y-72076571D01*
X212717142Y-72290857D01*
X212574285Y-72433714D01*
X212431428Y-72505142D01*
X213931428Y-73433714D02*
X214002857Y-73505142D01*
X213931428Y-73576571D01*
X213860000Y-73505142D01*
X213931428Y-73433714D01*
X213931428Y-73576571D01*
X214931428Y-72076571D02*
X215074285Y-72076571D01*
X215217142Y-72148000D01*
X215288571Y-72219428D01*
X215360000Y-72362285D01*
X215431428Y-72648000D01*
X215431428Y-73005142D01*
X215360000Y-73290857D01*
X215288571Y-73433714D01*
X215217142Y-73505142D01*
X215074285Y-73576571D01*
X214931428Y-73576571D01*
X214788571Y-73505142D01*
X214717142Y-73433714D01*
X214645714Y-73290857D01*
X214574285Y-73005142D01*
X214574285Y-72648000D01*
X214645714Y-72362285D01*
X214717142Y-72219428D01*
X214788571Y-72148000D01*
X214931428Y-72076571D01*
X207637428Y-95814642D02*
X207494571Y-95886071D01*
X207208857Y-95886071D01*
X207066000Y-95814642D01*
X206994571Y-95743214D01*
X206923142Y-95600357D01*
X206923142Y-95171785D01*
X206994571Y-95028928D01*
X207066000Y-94957500D01*
X207208857Y-94886071D01*
X207494571Y-94886071D01*
X207637428Y-94957500D01*
X208851714Y-95814642D02*
X208708857Y-95886071D01*
X208423142Y-95886071D01*
X208280285Y-95814642D01*
X208208857Y-95671785D01*
X208208857Y-95100357D01*
X208280285Y-94957500D01*
X208423142Y-94886071D01*
X208708857Y-94886071D01*
X208851714Y-94957500D01*
X208923142Y-95100357D01*
X208923142Y-95243214D01*
X208208857Y-95386071D01*
X209566000Y-94886071D02*
X209566000Y-95886071D01*
X209566000Y-95028928D02*
X209637428Y-94957500D01*
X209780285Y-94886071D01*
X209994571Y-94886071D01*
X210137428Y-94957500D01*
X210208857Y-95100357D01*
X210208857Y-95886071D01*
X210708857Y-94886071D02*
X211280285Y-94886071D01*
X210923142Y-94386071D02*
X210923142Y-95671785D01*
X210994571Y-95814642D01*
X211137428Y-95886071D01*
X211280285Y-95886071D01*
X211780285Y-95886071D02*
X211780285Y-94886071D01*
X211780285Y-95171785D02*
X211851714Y-95028928D01*
X211923142Y-94957500D01*
X212066000Y-94886071D01*
X212208857Y-94886071D01*
X213351714Y-95886071D02*
X213351714Y-95100357D01*
X213280285Y-94957500D01*
X213137428Y-94886071D01*
X212851714Y-94886071D01*
X212708857Y-94957500D01*
X213351714Y-95814642D02*
X213208857Y-95886071D01*
X212851714Y-95886071D01*
X212708857Y-95814642D01*
X212637428Y-95671785D01*
X212637428Y-95528928D01*
X212708857Y-95386071D01*
X212851714Y-95314642D01*
X213208857Y-95314642D01*
X213351714Y-95243214D01*
X214280285Y-95886071D02*
X214137428Y-95814642D01*
X214066000Y-95671785D01*
X214066000Y-94386071D01*
X204887428Y-98439642D02*
X204744571Y-98511071D01*
X204458857Y-98511071D01*
X204316000Y-98439642D01*
X204244571Y-98368214D01*
X204173142Y-98225357D01*
X204173142Y-97796785D01*
X204244571Y-97653928D01*
X204316000Y-97582500D01*
X204458857Y-97511071D01*
X204744571Y-97511071D01*
X204887428Y-97582500D01*
X205744571Y-98511071D02*
X205601714Y-98439642D01*
X205530285Y-98368214D01*
X205458857Y-98225357D01*
X205458857Y-97796785D01*
X205530285Y-97653928D01*
X205601714Y-97582500D01*
X205744571Y-97511071D01*
X205958857Y-97511071D01*
X206101714Y-97582500D01*
X206173142Y-97653928D01*
X206244571Y-97796785D01*
X206244571Y-98225357D01*
X206173142Y-98368214D01*
X206101714Y-98439642D01*
X205958857Y-98511071D01*
X205744571Y-98511071D01*
X206887428Y-97511071D02*
X206887428Y-98511071D01*
X206887428Y-97653928D02*
X206958857Y-97582500D01*
X207101714Y-97511071D01*
X207316000Y-97511071D01*
X207458857Y-97582500D01*
X207530285Y-97725357D01*
X207530285Y-98511071D01*
X208030285Y-97511071D02*
X208601714Y-97511071D01*
X208244571Y-97011071D02*
X208244571Y-98296785D01*
X208316000Y-98439642D01*
X208458857Y-98511071D01*
X208601714Y-98511071D01*
X209101714Y-98511071D02*
X209101714Y-97511071D01*
X209101714Y-97796785D02*
X209173142Y-97653928D01*
X209244571Y-97582500D01*
X209387428Y-97511071D01*
X209530285Y-97511071D01*
X210244571Y-98511071D02*
X210101714Y-98439642D01*
X210030285Y-98368214D01*
X209958857Y-98225357D01*
X209958857Y-97796785D01*
X210030285Y-97653928D01*
X210101714Y-97582500D01*
X210244571Y-97511071D01*
X210458857Y-97511071D01*
X210601714Y-97582500D01*
X210673142Y-97653928D01*
X210744571Y-97796785D01*
X210744571Y-98225357D01*
X210673142Y-98368214D01*
X210601714Y-98439642D01*
X210458857Y-98511071D01*
X210244571Y-98511071D01*
X211601714Y-98511071D02*
X211458857Y-98439642D01*
X211387428Y-98296785D01*
X211387428Y-97011071D01*
X213958857Y-97511071D02*
X213958857Y-98511071D01*
X213316000Y-97511071D02*
X213316000Y-98296785D01*
X213387428Y-98439642D01*
X213530285Y-98511071D01*
X213744571Y-98511071D01*
X213887428Y-98439642D01*
X213958857Y-98368214D01*
X214673142Y-97511071D02*
X214673142Y-98511071D01*
X214673142Y-97653928D02*
X214744571Y-97582500D01*
X214887428Y-97511071D01*
X215101714Y-97511071D01*
X215244571Y-97582500D01*
X215316000Y-97725357D01*
X215316000Y-98511071D01*
X216030285Y-98511071D02*
X216030285Y-97511071D01*
X216030285Y-97011071D02*
X215958857Y-97082500D01*
X216030285Y-97153928D01*
X216101714Y-97082500D01*
X216030285Y-97011071D01*
X216030285Y-97153928D01*
X216530285Y-97511071D02*
X217101714Y-97511071D01*
X216744571Y-97011071D02*
X216744571Y-98296785D01*
X216816000Y-98439642D01*
X216958857Y-98511071D01*
X217101714Y-98511071D01*
X197671714Y-84244571D02*
X197671714Y-82744571D01*
X197671714Y-84173142D02*
X197528857Y-84244571D01*
X197243142Y-84244571D01*
X197100285Y-84173142D01*
X197028857Y-84101714D01*
X196957428Y-83958857D01*
X196957428Y-83530285D01*
X197028857Y-83387428D01*
X197100285Y-83316000D01*
X197243142Y-83244571D01*
X197528857Y-83244571D01*
X197671714Y-83316000D01*
X199028857Y-84244571D02*
X199028857Y-83458857D01*
X198957428Y-83316000D01*
X198814571Y-83244571D01*
X198528857Y-83244571D01*
X198386000Y-83316000D01*
X199028857Y-84173142D02*
X198886000Y-84244571D01*
X198528857Y-84244571D01*
X198386000Y-84173142D01*
X198314571Y-84030285D01*
X198314571Y-83887428D01*
X198386000Y-83744571D01*
X198528857Y-83673142D01*
X198886000Y-83673142D01*
X199028857Y-83601714D01*
X199528857Y-83244571D02*
X200100285Y-83244571D01*
X199743142Y-82744571D02*
X199743142Y-84030285D01*
X199814571Y-84173142D01*
X199957428Y-84244571D01*
X200100285Y-84244571D01*
X201243142Y-84244571D02*
X201243142Y-83458857D01*
X201171714Y-83316000D01*
X201028857Y-83244571D01*
X200743142Y-83244571D01*
X200600285Y-83316000D01*
X201243142Y-84173142D02*
X201100285Y-84244571D01*
X200743142Y-84244571D01*
X200600285Y-84173142D01*
X200528857Y-84030285D01*
X200528857Y-83887428D01*
X200600285Y-83744571D01*
X200743142Y-83673142D01*
X201100285Y-83673142D01*
X201243142Y-83601714D01*
X196953428Y-79609142D02*
X198096285Y-79609142D01*
X197524857Y-80180571D02*
X197524857Y-79037714D01*
X199524857Y-78680571D02*
X198810571Y-78680571D01*
X198739142Y-79394857D01*
X198810571Y-79323428D01*
X198953428Y-79252000D01*
X199310571Y-79252000D01*
X199453428Y-79323428D01*
X199524857Y-79394857D01*
X199596285Y-79537714D01*
X199596285Y-79894857D01*
X199524857Y-80037714D01*
X199453428Y-80109142D01*
X199310571Y-80180571D01*
X198953428Y-80180571D01*
X198810571Y-80109142D01*
X198739142Y-80037714D01*
X200024857Y-78680571D02*
X200524857Y-80180571D01*
X201024857Y-78680571D01*
X197993142Y-91960000D02*
X197850285Y-91888571D01*
X197636000Y-91888571D01*
X197421714Y-91960000D01*
X197278857Y-92102857D01*
X197207428Y-92245714D01*
X197136000Y-92531428D01*
X197136000Y-92745714D01*
X197207428Y-93031428D01*
X197278857Y-93174285D01*
X197421714Y-93317142D01*
X197636000Y-93388571D01*
X197778857Y-93388571D01*
X197993142Y-93317142D01*
X198064571Y-93245714D01*
X198064571Y-92745714D01*
X197778857Y-92745714D01*
X198707428Y-93388571D02*
X198707428Y-91888571D01*
X199564571Y-93388571D01*
X199564571Y-91888571D01*
X200278857Y-93388571D02*
X200278857Y-91888571D01*
X200636000Y-91888571D01*
X200850285Y-91960000D01*
X200993142Y-92102857D01*
X201064571Y-92245714D01*
X201136000Y-92531428D01*
X201136000Y-92745714D01*
X201064571Y-93031428D01*
X200993142Y-93174285D01*
X200850285Y-93317142D01*
X200636000Y-93388571D01*
X200278857Y-93388571D01*
X189393142Y-94841142D02*
X189536000Y-94912571D01*
X189821714Y-94912571D01*
X189964571Y-94841142D01*
X190036000Y-94698285D01*
X190036000Y-94626857D01*
X189964571Y-94484000D01*
X189821714Y-94412571D01*
X189607428Y-94412571D01*
X189464571Y-94341142D01*
X189393142Y-94198285D01*
X189393142Y-94126857D01*
X189464571Y-93984000D01*
X189607428Y-93912571D01*
X189821714Y-93912571D01*
X189964571Y-93984000D01*
X191250285Y-94841142D02*
X191107428Y-94912571D01*
X190821714Y-94912571D01*
X190678857Y-94841142D01*
X190607428Y-94698285D01*
X190607428Y-94126857D01*
X190678857Y-93984000D01*
X190821714Y-93912571D01*
X191107428Y-93912571D01*
X191250285Y-93984000D01*
X191321714Y-94126857D01*
X191321714Y-94269714D01*
X190607428Y-94412571D01*
X191964571Y-93912571D02*
X191964571Y-94912571D01*
X191964571Y-94055428D02*
X192036000Y-93984000D01*
X192178857Y-93912571D01*
X192393142Y-93912571D01*
X192536000Y-93984000D01*
X192607428Y-94126857D01*
X192607428Y-94912571D01*
X193250285Y-94841142D02*
X193393142Y-94912571D01*
X193678857Y-94912571D01*
X193821714Y-94841142D01*
X193893142Y-94698285D01*
X193893142Y-94626857D01*
X193821714Y-94484000D01*
X193678857Y-94412571D01*
X193464571Y-94412571D01*
X193321714Y-94341142D01*
X193250285Y-94198285D01*
X193250285Y-94126857D01*
X193321714Y-93984000D01*
X193464571Y-93912571D01*
X193678857Y-93912571D01*
X193821714Y-93984000D01*
X194750285Y-94912571D02*
X194607428Y-94841142D01*
X194536000Y-94769714D01*
X194464571Y-94626857D01*
X194464571Y-94198285D01*
X194536000Y-94055428D01*
X194607428Y-93984000D01*
X194750285Y-93912571D01*
X194964571Y-93912571D01*
X195107428Y-93984000D01*
X195178857Y-94055428D01*
X195250285Y-94198285D01*
X195250285Y-94626857D01*
X195178857Y-94769714D01*
X195107428Y-94841142D01*
X194964571Y-94912571D01*
X194750285Y-94912571D01*
X195893142Y-94912571D02*
X195893142Y-93912571D01*
X195893142Y-94198285D02*
X195964571Y-94055428D01*
X196036000Y-93984000D01*
X196178857Y-93912571D01*
X196321714Y-93912571D01*
X197330857Y-70880142D02*
X197188000Y-70951571D01*
X196902285Y-70951571D01*
X196759428Y-70880142D01*
X196688000Y-70808714D01*
X196616571Y-70665857D01*
X196616571Y-70237285D01*
X196688000Y-70094428D01*
X196759428Y-70023000D01*
X196902285Y-69951571D01*
X197188000Y-69951571D01*
X197330857Y-70023000D01*
X198188000Y-70951571D02*
X198045142Y-70880142D01*
X197973714Y-70808714D01*
X197902285Y-70665857D01*
X197902285Y-70237285D01*
X197973714Y-70094428D01*
X198045142Y-70023000D01*
X198188000Y-69951571D01*
X198402285Y-69951571D01*
X198545142Y-70023000D01*
X198616571Y-70094428D01*
X198688000Y-70237285D01*
X198688000Y-70665857D01*
X198616571Y-70808714D01*
X198545142Y-70880142D01*
X198402285Y-70951571D01*
X198188000Y-70951571D01*
X199330857Y-69951571D02*
X199330857Y-70951571D01*
X199330857Y-70094428D02*
X199402285Y-70023000D01*
X199545142Y-69951571D01*
X199759428Y-69951571D01*
X199902285Y-70023000D01*
X199973714Y-70165857D01*
X199973714Y-70951571D01*
X200688000Y-69951571D02*
X200688000Y-70951571D01*
X200688000Y-70094428D02*
X200759428Y-70023000D01*
X200902285Y-69951571D01*
X201116571Y-69951571D01*
X201259428Y-70023000D01*
X201330857Y-70165857D01*
X201330857Y-70951571D01*
X202616571Y-70880142D02*
X202473714Y-70951571D01*
X202188000Y-70951571D01*
X202045142Y-70880142D01*
X201973714Y-70737285D01*
X201973714Y-70165857D01*
X202045142Y-70023000D01*
X202188000Y-69951571D01*
X202473714Y-69951571D01*
X202616571Y-70023000D01*
X202688000Y-70165857D01*
X202688000Y-70308714D01*
X201973714Y-70451571D01*
X203973714Y-70880142D02*
X203830857Y-70951571D01*
X203545142Y-70951571D01*
X203402285Y-70880142D01*
X203330857Y-70808714D01*
X203259428Y-70665857D01*
X203259428Y-70237285D01*
X203330857Y-70094428D01*
X203402285Y-70023000D01*
X203545142Y-69951571D01*
X203830857Y-69951571D01*
X203973714Y-70023000D01*
X204402285Y-69951571D02*
X204973714Y-69951571D01*
X204616571Y-69451571D02*
X204616571Y-70737285D01*
X204688000Y-70880142D01*
X204830857Y-70951571D01*
X204973714Y-70951571D01*
X205473714Y-70951571D02*
X205473714Y-69951571D01*
X205473714Y-69451571D02*
X205402285Y-69523000D01*
X205473714Y-69594428D01*
X205545142Y-69523000D01*
X205473714Y-69451571D01*
X205473714Y-69594428D01*
X206188000Y-69951571D02*
X206188000Y-70951571D01*
X206188000Y-70094428D02*
X206259428Y-70023000D01*
X206402285Y-69951571D01*
X206616571Y-69951571D01*
X206759428Y-70023000D01*
X206830857Y-70165857D01*
X206830857Y-70951571D01*
X208188000Y-69951571D02*
X208188000Y-71165857D01*
X208116571Y-71308714D01*
X208045142Y-71380142D01*
X207902285Y-71451571D01*
X207688000Y-71451571D01*
X207545142Y-71380142D01*
X208188000Y-70880142D02*
X208045142Y-70951571D01*
X207759428Y-70951571D01*
X207616571Y-70880142D01*
X207545142Y-70808714D01*
X207473714Y-70665857D01*
X207473714Y-70237285D01*
X207545142Y-70094428D01*
X207616571Y-70023000D01*
X207759428Y-69951571D01*
X208045142Y-69951571D01*
X208188000Y-70023000D01*
X197902285Y-73505142D02*
X197759428Y-73576571D01*
X197473714Y-73576571D01*
X197330857Y-73505142D01*
X197259428Y-73433714D01*
X197188000Y-73290857D01*
X197188000Y-72862285D01*
X197259428Y-72719428D01*
X197330857Y-72648000D01*
X197473714Y-72576571D01*
X197759428Y-72576571D01*
X197902285Y-72648000D01*
X198759428Y-73576571D02*
X198616571Y-73505142D01*
X198545142Y-73433714D01*
X198473714Y-73290857D01*
X198473714Y-72862285D01*
X198545142Y-72719428D01*
X198616571Y-72648000D01*
X198759428Y-72576571D01*
X198973714Y-72576571D01*
X199116571Y-72648000D01*
X199188000Y-72719428D01*
X199259428Y-72862285D01*
X199259428Y-73290857D01*
X199188000Y-73433714D01*
X199116571Y-73505142D01*
X198973714Y-73576571D01*
X198759428Y-73576571D01*
X199902285Y-72576571D02*
X199902285Y-73576571D01*
X199902285Y-72719428D02*
X199973714Y-72648000D01*
X200116571Y-72576571D01*
X200330857Y-72576571D01*
X200473714Y-72648000D01*
X200545142Y-72790857D01*
X200545142Y-73576571D01*
X201259428Y-72576571D02*
X201259428Y-73576571D01*
X201259428Y-72719428D02*
X201330857Y-72648000D01*
X201473714Y-72576571D01*
X201688000Y-72576571D01*
X201830857Y-72648000D01*
X201902285Y-72790857D01*
X201902285Y-73576571D01*
X203188000Y-73505142D02*
X203045142Y-73576571D01*
X202759428Y-73576571D01*
X202616571Y-73505142D01*
X202545142Y-73362285D01*
X202545142Y-72790857D01*
X202616571Y-72648000D01*
X202759428Y-72576571D01*
X203045142Y-72576571D01*
X203188000Y-72648000D01*
X203259428Y-72790857D01*
X203259428Y-72933714D01*
X202545142Y-73076571D01*
X204545142Y-73505142D02*
X204402285Y-73576571D01*
X204116571Y-73576571D01*
X203973714Y-73505142D01*
X203902285Y-73433714D01*
X203830857Y-73290857D01*
X203830857Y-72862285D01*
X203902285Y-72719428D01*
X203973714Y-72648000D01*
X204116571Y-72576571D01*
X204402285Y-72576571D01*
X204545142Y-72648000D01*
X204973714Y-72576571D02*
X205545142Y-72576571D01*
X205188000Y-72076571D02*
X205188000Y-73362285D01*
X205259428Y-73505142D01*
X205402285Y-73576571D01*
X205545142Y-73576571D01*
X206259428Y-73576571D02*
X206116571Y-73505142D01*
X206045142Y-73433714D01*
X205973714Y-73290857D01*
X205973714Y-72862285D01*
X206045142Y-72719428D01*
X206116571Y-72648000D01*
X206259428Y-72576571D01*
X206473714Y-72576571D01*
X206616571Y-72648000D01*
X206688000Y-72719428D01*
X206759428Y-72862285D01*
X206759428Y-73290857D01*
X206688000Y-73433714D01*
X206616571Y-73505142D01*
X206473714Y-73576571D01*
X206259428Y-73576571D01*
X207402285Y-73576571D02*
X207402285Y-72576571D01*
X207402285Y-72862285D02*
X207473714Y-72719428D01*
X207545142Y-72648000D01*
X207688000Y-72576571D01*
X207830857Y-72576571D01*
X199688000Y-76201571D02*
X198830857Y-76201571D01*
X199259428Y-76201571D02*
X199259428Y-74701571D01*
X199116571Y-74915857D01*
X198973714Y-75058714D01*
X198830857Y-75130142D01*
X200330857Y-75630142D02*
X201473714Y-75630142D01*
X202045142Y-75201571D02*
X202330857Y-76201571D01*
X202616571Y-75487285D01*
X202902285Y-76201571D01*
X203188000Y-75201571D01*
X203759428Y-76201571D02*
X203759428Y-75201571D01*
X203759428Y-74701571D02*
X203688000Y-74773000D01*
X203759428Y-74844428D01*
X203830857Y-74773000D01*
X203759428Y-74701571D01*
X203759428Y-74844428D01*
X204473714Y-76201571D02*
X204473714Y-75201571D01*
X204473714Y-75487285D02*
X204545142Y-75344428D01*
X204616571Y-75273000D01*
X204759428Y-75201571D01*
X204902285Y-75201571D01*
X205973714Y-76130142D02*
X205830857Y-76201571D01*
X205545142Y-76201571D01*
X205402285Y-76130142D01*
X205330857Y-75987285D01*
X205330857Y-75415857D01*
X205402285Y-75273000D01*
X205545142Y-75201571D01*
X205830857Y-75201571D01*
X205973714Y-75273000D01*
X206045142Y-75415857D01*
X206045142Y-75558714D01*
X205330857Y-75701571D01*
X195910714Y-100754571D02*
X195910714Y-99754571D01*
X195910714Y-100040285D02*
X195982142Y-99897428D01*
X196053571Y-99826000D01*
X196196428Y-99754571D01*
X196339285Y-99754571D01*
X197053571Y-100754571D02*
X196910714Y-100683142D01*
X196839285Y-100611714D01*
X196767857Y-100468857D01*
X196767857Y-100040285D01*
X196839285Y-99897428D01*
X196910714Y-99826000D01*
X197053571Y-99754571D01*
X197267857Y-99754571D01*
X197410714Y-99826000D01*
X197482142Y-99897428D01*
X197553571Y-100040285D01*
X197553571Y-100468857D01*
X197482142Y-100611714D01*
X197410714Y-100683142D01*
X197267857Y-100754571D01*
X197053571Y-100754571D01*
X198196428Y-100754571D02*
X198196428Y-99754571D01*
X198196428Y-99897428D02*
X198267857Y-99826000D01*
X198410714Y-99754571D01*
X198625000Y-99754571D01*
X198767857Y-99826000D01*
X198839285Y-99968857D01*
X198839285Y-100754571D01*
X198839285Y-99968857D02*
X198910714Y-99826000D01*
X199053571Y-99754571D01*
X199267857Y-99754571D01*
X199410714Y-99826000D01*
X199482142Y-99968857D01*
X199482142Y-100754571D01*
X200839285Y-100754571D02*
X200839285Y-99968857D01*
X200767857Y-99826000D01*
X200625000Y-99754571D01*
X200339285Y-99754571D01*
X200196428Y-99826000D01*
X200839285Y-100683142D02*
X200696428Y-100754571D01*
X200339285Y-100754571D01*
X200196428Y-100683142D01*
X200125000Y-100540285D01*
X200125000Y-100397428D01*
X200196428Y-100254571D01*
X200339285Y-100183142D01*
X200696428Y-100183142D01*
X200839285Y-100111714D01*
X201553571Y-99754571D02*
X201553571Y-100754571D01*
X201553571Y-99897428D02*
X201625000Y-99826000D01*
X201767857Y-99754571D01*
X201982142Y-99754571D01*
X202125000Y-99826000D01*
X202196428Y-99968857D01*
X202196428Y-100754571D01*
X202910714Y-100183142D02*
X204053571Y-100183142D01*
X204982142Y-100754571D02*
X204839285Y-100683142D01*
X204767857Y-100540285D01*
X204767857Y-99254571D01*
X206196428Y-100754571D02*
X206196428Y-99968857D01*
X206125000Y-99826000D01*
X205982142Y-99754571D01*
X205696428Y-99754571D01*
X205553571Y-99826000D01*
X206196428Y-100683142D02*
X206053571Y-100754571D01*
X205696428Y-100754571D01*
X205553571Y-100683142D01*
X205482142Y-100540285D01*
X205482142Y-100397428D01*
X205553571Y-100254571D01*
X205696428Y-100183142D01*
X206053571Y-100183142D01*
X206196428Y-100111714D01*
X206910714Y-100754571D02*
X206910714Y-99254571D01*
X206910714Y-99826000D02*
X207053571Y-99754571D01*
X207339285Y-99754571D01*
X207482142Y-99826000D01*
X207553571Y-99897428D01*
X207625000Y-100040285D01*
X207625000Y-100468857D01*
X207553571Y-100611714D01*
X207482142Y-100683142D01*
X207339285Y-100754571D01*
X207053571Y-100754571D01*
X206910714Y-100683142D01*
X208482142Y-100754571D02*
X208339285Y-100683142D01*
X208267857Y-100611714D01*
X208196428Y-100468857D01*
X208196428Y-100040285D01*
X208267857Y-99897428D01*
X208339285Y-99826000D01*
X208482142Y-99754571D01*
X208696428Y-99754571D01*
X208839285Y-99826000D01*
X208910714Y-99897428D01*
X208982142Y-100040285D01*
X208982142Y-100468857D01*
X208910714Y-100611714D01*
X208839285Y-100683142D01*
X208696428Y-100754571D01*
X208482142Y-100754571D01*
X209482142Y-99754571D02*
X209839285Y-100754571D01*
X210196428Y-99754571D01*
X210696428Y-100683142D02*
X210839285Y-100754571D01*
X211125000Y-100754571D01*
X211267857Y-100683142D01*
X211339285Y-100540285D01*
X211339285Y-100468857D01*
X211267857Y-100326000D01*
X211125000Y-100254571D01*
X210910714Y-100254571D01*
X210767857Y-100183142D01*
X210696428Y-100040285D01*
X210696428Y-99968857D01*
X210767857Y-99826000D01*
X210910714Y-99754571D01*
X211125000Y-99754571D01*
X211267857Y-99826000D01*
X211982142Y-100754571D02*
X211982142Y-99254571D01*
X212125000Y-100183142D02*
X212553571Y-100754571D01*
X212553571Y-99754571D02*
X211982142Y-100326000D01*
X213053571Y-99754571D02*
X213410714Y-100754571D01*
X213767857Y-99754571D02*
X213410714Y-100754571D01*
X213267857Y-101111714D01*
X213196428Y-101183142D01*
X213053571Y-101254571D01*
X214339285Y-100611714D02*
X214410714Y-100683142D01*
X214339285Y-100754571D01*
X214267857Y-100683142D01*
X214339285Y-100611714D01*
X214339285Y-100754571D01*
X215696428Y-100683142D02*
X215553571Y-100754571D01*
X215267857Y-100754571D01*
X215125000Y-100683142D01*
X215053571Y-100611714D01*
X214982142Y-100468857D01*
X214982142Y-100040285D01*
X215053571Y-99897428D01*
X215125000Y-99826000D01*
X215267857Y-99754571D01*
X215553571Y-99754571D01*
X215696428Y-99826000D01*
X216196428Y-99754571D02*
X216982142Y-99754571D01*
X216196428Y-100754571D01*
X216982142Y-100754571D01*
D11*
X199478000Y-85598000D02*
X197778000Y-85598000D01*
X197778000Y-85598000D02*
X197778000Y-88172000D01*
X199478000Y-85598000D02*
X199478000Y-88172000D01*
X196270000Y-93345000D02*
X188670000Y-93345000D01*
X194310000Y-93345000D02*
X194310000Y-78105000D01*
X196270000Y-93345000D02*
X196270000Y-78105000D01*
X196270000Y-78105000D02*
X188670000Y-78105000D01*
X188670000Y-93345000D02*
X188670000Y-78105000D01*
X206375000Y-77470000D02*
X206375000Y-93980000D01*
X225425000Y-77470000D02*
X206375000Y-77470000D01*
X225425000Y-93980000D02*
X225425000Y-77470000D01*
X206375000Y-93980000D02*
X225425000Y-93980000D01*
X204936000Y-85550000D02*
X204936000Y-85661500D01*
X204936000Y-89598500D02*
X204936000Y-89710000D01*
X200956000Y-89710000D02*
X204936000Y-89710000D01*
X200956000Y-89598500D02*
X200956000Y-89710000D01*
X200406000Y-85550000D02*
X204936000Y-85550000D01*
D12*
X200914000Y-85075010D02*
G75*
G03*
X200914000Y-85075010I-254000J0D01*
G01*
X200801990Y-85075010D02*
G75*
G03*
X200801990Y-85075010I-141990J0D01*
G01*
X200723500Y-85075010D02*
G75*
G03*
X200723500Y-85075010I-63500J0D01*
G01*
D13*
D11*
X197889904Y-91384380D02*
X197889904Y-90384380D01*
X198128000Y-90384380D01*
X198270857Y-90432000D01*
X198366095Y-90527238D01*
X198413714Y-90622476D01*
X198461333Y-90812952D01*
X198461333Y-90955809D01*
X198413714Y-91146285D01*
X198366095Y-91241523D01*
X198270857Y-91336761D01*
X198128000Y-91384380D01*
X197889904Y-91384380D01*
X198842285Y-90479619D02*
X198889904Y-90432000D01*
X198985142Y-90384380D01*
X199223238Y-90384380D01*
X199318476Y-90432000D01*
X199366095Y-90479619D01*
X199413714Y-90574857D01*
X199413714Y-90670095D01*
X199366095Y-90812952D01*
X198794666Y-91384380D01*
X199413714Y-91384380D01*
X195246666Y-76287380D02*
X195246666Y-77001666D01*
X195199047Y-77144523D01*
X195103809Y-77239761D01*
X194960952Y-77287380D01*
X194865714Y-77287380D01*
X195675238Y-76382619D02*
X195722857Y-76335000D01*
X195818095Y-76287380D01*
X196056190Y-76287380D01*
X196151428Y-76335000D01*
X196199047Y-76382619D01*
X196246666Y-76477857D01*
X196246666Y-76573095D01*
X196199047Y-76715952D01*
X195627619Y-77287380D01*
X196246666Y-77287380D01*
X214042666Y-76160380D02*
X214042666Y-76874666D01*
X213995047Y-77017523D01*
X213899809Y-77112761D01*
X213756952Y-77160380D01*
X213661714Y-77160380D01*
X215042666Y-77160380D02*
X214471238Y-77160380D01*
X214756952Y-77160380D02*
X214756952Y-76160380D01*
X214661714Y-76303238D01*
X214566476Y-76398476D01*
X214471238Y-76446095D01*
X202207904Y-91257380D02*
X202207904Y-90257380D01*
X202446000Y-90257380D01*
X202588857Y-90305000D01*
X202684095Y-90400238D01*
X202731714Y-90495476D01*
X202779333Y-90685952D01*
X202779333Y-90828809D01*
X202731714Y-91019285D01*
X202684095Y-91114523D01*
X202588857Y-91209761D01*
X202446000Y-91257380D01*
X202207904Y-91257380D01*
X203636476Y-90590714D02*
X203636476Y-91257380D01*
X203398380Y-90209761D02*
X203160285Y-90924047D01*
X203779333Y-90924047D01*
%LPC*%
D14*
X192532000Y-98298000D03*
X220980000Y-98298000D03*
X220980000Y-72390000D03*
X192278000Y-72390000D03*
D15*
X198628000Y-89662000D03*
D16*
X198628000Y-87847000D03*
X198628000Y-86397000D03*
D17*
X191770000Y-80645000D03*
D18*
X191770000Y-90805000D03*
X191770000Y-85725000D03*
D19*
X210820000Y-87629000D03*
X208280000Y-81279000D03*
D20*
X217170000Y-91441000D03*
D19*
X210820000Y-82549000D03*
X208280000Y-88899000D03*
X210820000Y-85089000D03*
X208280000Y-86359000D03*
X208280000Y-83819000D03*
X210820000Y-90169000D03*
D20*
X217170000Y-80009000D03*
D21*
X201218800Y-87630000D03*
X201218800Y-88900000D03*
X201218800Y-86360000D03*
X204673200Y-88900000D03*
X204673200Y-87630000D03*
X204673200Y-86360000D03*
M02*
