G04 #@! TF.GenerationSoftware,KiCad,Pcbnew,7.0.9*
G04 #@! TF.CreationDate,2023-12-21T14:40:27+01:00*
G04 #@! TF.ProjectId,zone-controller,7a6f6e65-2d63-46f6-9e74-726f6c6c6572,v2.0*
G04 #@! TF.SameCoordinates,Original*
G04 #@! TF.FileFunction,Paste,Bot*
G04 #@! TF.FilePolarity,Positive*
%FSLAX46Y46*%
G04 Gerber Fmt 4.6, Leading zero omitted, Abs format (unit mm)*
G04 Created by KiCad (PCBNEW 7.0.9) date 2023-12-21 14:40:27*
%MOMM*%
%LPD*%
G01*
G04 APERTURE LIST*
G04 Aperture macros list*
%AMOutline4P*
0 Free polygon, 4 corners , with rotation*
0 The origin of the aperture is its center*
0 number of corners: always 4*
0 $1 to $8 corner X, Y*
0 $9 Rotation angle, in degrees counterclockwise*
0 create outline with 4 corners*
4,1,4,$1,$2,$3,$4,$5,$6,$7,$8,$1,$2,$9*%
G04 Aperture macros list end*
%ADD10Outline4P,-0.650000X-0.900000X0.650000X-0.900000X0.650000X0.900000X-0.650000X0.900000X90.000000*%
%ADD11Outline4P,-0.650000X-0.900000X0.650000X-0.900000X0.650000X0.900000X-0.650000X0.900000X180.000000*%
%ADD12Outline4P,-0.650000X-0.900000X0.650000X-0.900000X0.650000X0.900000X-0.650000X0.900000X0.000000*%
%ADD13Outline4P,-0.650000X-0.900000X0.650000X-0.900000X0.650000X0.900000X-0.650000X0.900000X270.000000*%
%ADD14R,2.500000X2.500000*%
%ADD15R,0.800000X0.800000*%
%ADD16R,2.000000X0.500000*%
%ADD17Outline4P,-1.000000X-0.250000X1.000000X-0.250000X1.000000X0.250000X-1.000000X0.250000X180.000000*%
%ADD18R,1.300000X2.000000*%
%ADD19R,2.000000X0.800000*%
%ADD20R,1.000000X1.000000*%
%ADD21Outline4P,-1.000000X-0.250000X1.000000X-0.250000X1.000000X0.250000X-1.000000X0.250000X0.000000*%
G04 APERTURE END LIST*
D10*
X226695000Y-147447000D03*
X226695000Y-144907000D03*
D11*
X302768000Y-99949000D03*
X300228000Y-99949000D03*
D12*
X138430000Y-125857000D03*
X140970000Y-125857000D03*
X148590000Y-196977000D03*
X151130000Y-196977000D03*
D13*
X179959000Y-188849000D03*
X179959000Y-191389000D03*
X153670000Y-191897000D03*
X153670000Y-194437000D03*
D12*
X153035000Y-125857000D03*
X155575000Y-125857000D03*
D14*
X247110000Y-63627000D03*
X243110000Y-63627000D03*
D11*
X299085000Y-145542000D03*
X296545000Y-145542000D03*
D12*
X222885000Y-192659000D03*
X225425000Y-192659000D03*
X180213000Y-197104000D03*
X182753000Y-197104000D03*
X215265000Y-130937000D03*
X217805000Y-130937000D03*
D11*
X299085000Y-154432000D03*
X296545000Y-154432000D03*
D15*
X151130000Y-191262000D03*
X151130000Y-188722000D03*
D13*
X292100000Y-123317000D03*
X292100000Y-125857000D03*
X148590000Y-188722000D03*
X148590000Y-191262000D03*
D14*
X273780000Y-63627000D03*
X269780000Y-63627000D03*
D12*
X211455000Y-125857000D03*
X213995000Y-125857000D03*
D10*
X263525000Y-161417000D03*
X263525000Y-158877000D03*
X153670000Y-199517000D03*
X153670000Y-196977000D03*
D13*
X146050000Y-123317000D03*
X146050000Y-125857000D03*
X233680000Y-123317000D03*
X233680000Y-125857000D03*
D14*
X156940000Y-63627000D03*
X152940000Y-63627000D03*
D13*
X227965000Y-180467000D03*
X227965000Y-183007000D03*
D10*
X227965000Y-188087000D03*
X227965000Y-185547000D03*
X218440000Y-147447000D03*
X218440000Y-144907000D03*
D11*
X244094000Y-100203000D03*
X241554000Y-100203000D03*
D13*
X248285000Y-123317000D03*
X248285000Y-125857000D03*
D12*
X255270000Y-125857000D03*
X257810000Y-125857000D03*
D10*
X257810000Y-161417000D03*
X257810000Y-158877000D03*
D11*
X247015000Y-141097000D03*
X244475000Y-141097000D03*
D10*
X298450000Y-194056000D03*
X298450000Y-191516000D03*
D16*
X237050500Y-135972000D03*
X237050500Y-136622000D03*
X237050500Y-137272000D03*
X237050500Y-137922000D03*
X237050500Y-138572000D03*
X237050500Y-139222000D03*
D17*
X237050500Y-139872000D03*
D16*
X231325500Y-139872000D03*
X231325500Y-139222000D03*
X231325500Y-138572000D03*
X231325500Y-137922000D03*
X231325500Y-137272000D03*
X231325500Y-136622000D03*
X231325500Y-135972000D03*
D12*
X299085000Y-125857000D03*
X301625000Y-125857000D03*
D14*
X260445000Y-63627000D03*
X256445000Y-63627000D03*
D12*
X196850000Y-125857000D03*
X199390000Y-125857000D03*
D13*
X205105000Y-123317000D03*
X205105000Y-125857000D03*
D11*
X273558000Y-100203000D03*
X271018000Y-100203000D03*
D14*
X170275000Y-63627000D03*
X166275000Y-63627000D03*
D18*
X148110000Y-184912000D03*
X151610000Y-184912000D03*
D13*
X306705000Y-123317000D03*
X306705000Y-125857000D03*
D11*
X235458000Y-143002000D03*
X232918000Y-143002000D03*
D19*
X292955000Y-149352000D03*
X292955000Y-150622000D03*
X292955000Y-151892000D03*
X292955000Y-153162000D03*
X287435000Y-153162000D03*
X287435000Y-151892000D03*
X287435000Y-150622000D03*
X287435000Y-149352000D03*
D12*
X182245000Y-125857000D03*
X184785000Y-125857000D03*
D14*
X233775000Y-63627000D03*
X229775000Y-63627000D03*
D20*
X188534000Y-191659000D03*
X190434000Y-191659000D03*
X189484000Y-193859000D03*
D14*
X210280000Y-63627000D03*
X206280000Y-63627000D03*
D12*
X232918000Y-133477000D03*
X235458000Y-133477000D03*
D13*
X189865000Y-123317000D03*
X189865000Y-125857000D03*
X175260000Y-123317000D03*
X175260000Y-125857000D03*
D18*
X179479000Y-184912000D03*
X182979000Y-184912000D03*
D20*
X155895000Y-191532000D03*
X157795000Y-191532000D03*
X156845000Y-193732000D03*
D14*
X287115000Y-63627000D03*
X283115000Y-63627000D03*
X143605000Y-63627000D03*
X139605000Y-63627000D03*
D12*
X240665000Y-125857000D03*
X243205000Y-125857000D03*
D13*
X227965000Y-190627000D03*
X227965000Y-193167000D03*
D16*
X213672500Y-139872000D03*
X213672500Y-139222000D03*
X213672500Y-138572000D03*
X213672500Y-137922000D03*
X213672500Y-137272000D03*
X213672500Y-136622000D03*
D21*
X213672500Y-135972000D03*
D16*
X219397500Y-135972000D03*
X219397500Y-136622000D03*
X219397500Y-137272000D03*
X219397500Y-137922000D03*
X219397500Y-138572000D03*
X219397500Y-139222000D03*
X219397500Y-139872000D03*
D13*
X219075000Y-123317000D03*
X219075000Y-125857000D03*
D11*
X258826000Y-100203000D03*
X256286000Y-100203000D03*
D12*
X232918000Y-130937000D03*
X235458000Y-130937000D03*
D11*
X299085000Y-156972000D03*
X296545000Y-156972000D03*
X299085000Y-148082000D03*
X296545000Y-148082000D03*
D12*
X269875000Y-125857000D03*
X272415000Y-125857000D03*
D11*
X190119000Y-187579000D03*
X187579000Y-187579000D03*
X229362000Y-100203000D03*
X226822000Y-100203000D03*
X288036000Y-100203000D03*
X285496000Y-100203000D03*
D13*
X262890000Y-123317000D03*
X262890000Y-125857000D03*
X185674000Y-191516000D03*
X185674000Y-194056000D03*
D12*
X215265000Y-133477000D03*
X217805000Y-133477000D03*
D11*
X158115000Y-187452000D03*
X155575000Y-187452000D03*
D15*
X182499000Y-191389000D03*
X182499000Y-188849000D03*
D12*
X284480000Y-125857000D03*
X287020000Y-125857000D03*
D13*
X277495000Y-123317000D03*
X277495000Y-125857000D03*
X160020000Y-123317000D03*
X160020000Y-125857000D03*
D14*
X300355000Y-63627000D03*
X296355000Y-63627000D03*
D12*
X167640000Y-125857000D03*
X170180000Y-125857000D03*
D14*
X196945000Y-63627000D03*
X192945000Y-63627000D03*
D10*
X185674000Y-199898000D03*
X185674000Y-197358000D03*
D14*
X183610000Y-63627000D03*
X179610000Y-63627000D03*
D12*
X148590000Y-200152000D03*
X151130000Y-200152000D03*
D20*
X135448000Y-100219000D03*
X137348000Y-100219000D03*
X136398000Y-102419000D03*
D12*
X180340000Y-200787000D03*
X182880000Y-200787000D03*
M02*
