M48
; DRILL file {KiCad 7.0.9} date Thu Dec 21 14:41:10 2023
; FORMAT={-:-/ absolute / inch / decimal}
; #@! TF.CreationDate,2023-12-21T14:41:10+01:00
; #@! TF.GenerationSoftware,Kicad,Pcbnew,7.0.9
; #@! TF.FileFunction,Plated,1,2,PTH
FMAT,2
INCH
; #@! TA.AperFunction,Plated,PTH,ViaDrill
T1C0.0157
; #@! TA.AperFunction,Plated,PTH,ComponentDrill
T2C0.0157
; #@! TA.AperFunction,Plated,PTH,ComponentDrill
T3C0.0236
; #@! TA.AperFunction,Plated,PTH,ComponentDrill
T4C0.0276
; #@! TA.AperFunction,Plated,PTH,ComponentDrill
T5C0.0315
; #@! TA.AperFunction,Plated,PTH,ComponentDrill
T6C0.0433
; #@! TA.AperFunction,Plated,PTH,ComponentDrill
T7C0.0472
; #@! TA.AperFunction,Plated,PTH,ComponentDrill
T8C0.0591
; #@! TA.AperFunction,Plated,PTH,ComponentDrill
T9C0.1260
%
G90
G05
T1
X4.975Y-5.23
X4.975Y-5.605
X4.975Y-5.98
X4.975Y-7.48
X4.975Y-7.855
X5.0Y-2.605
X5.0Y-2.98
X5.0Y-3.355
X5.0Y-3.73
X5.0Y-4.105
X5.0Y-4.48
X5.0Y-4.855
X5.075Y-5.505
X5.225Y-5.655
X5.3Y-2.305
X5.3Y-2.855
X5.34Y-4.255
X5.35Y-8.18
X5.375Y-3.03
X5.375Y-4.43
X5.39Y-3.575
X5.4Y-5.83
X5.42Y-3.885
X5.495Y-4.48
X5.5Y-2.58
X5.5Y-2.63
X5.55Y-3.955
X5.55Y-4.005
X5.55Y-4.08
X5.55Y-4.13
X5.575Y-6.005
X5.6Y-3.955
X5.6Y-4.005
X5.6Y-4.08
X5.6Y-4.13
X5.6Y-4.33
X5.625Y-4.905
X5.66Y-3.785
X5.7Y-3.98
X5.725Y-2.63
X5.725Y-4.18
X5.725Y-5.255
X5.75Y-2.68
X5.75Y-3.785
X5.75Y-4.105
X5.75Y-4.78
X5.75Y-5.03
X5.75Y-7.83
X5.775Y-6.205
X5.775Y-8.18
X5.805Y-6.68
X5.825Y-3.98
X5.85Y-2.305
X5.85Y-2.83
X5.85Y-7.355
X5.875Y-4.43
X5.9Y-3.03
X5.9Y-3.98
X5.9Y-7.68
X5.925Y-5.455
X5.925Y-7.355
X5.95Y-7.68
X5.975Y-3.605
X5.975Y-3.78
X5.99Y-3.975
X6.0Y-7.48
X6.025Y-2.58
X6.025Y-2.63
X6.025Y-4.43
X6.025Y-5.03
X6.025Y-6.53
X6.05Y-4.48
X6.05Y-7.905
X6.075Y-4.755
X6.1Y-6.105
X6.1Y-7.455
X6.125Y-5.655
X6.16Y-4.095
X6.175Y-6.68
X6.2Y-4.905
X6.2Y-7.68
X6.225Y-7.755
X6.25Y-2.63
X6.25Y-5.98
X6.275Y-3.98
X6.3Y-2.68
X6.3Y-4.18
X6.3Y-4.78
X6.3Y-5.03
X6.3Y-7.33
X6.325Y-4.105
X6.325Y-5.73
X6.325Y-5.98
X6.325Y-6.105
X6.325Y-7.855
X6.375Y-2.305
X6.4Y-3.98
X6.4Y-5.98
X6.425Y-2.83
X6.45Y-4.43
X6.475Y-3.03
X6.475Y-3.98
X6.475Y-5.98
X6.5Y-7.205
X6.55Y-2.58
X6.55Y-2.63
X6.55Y-3.605
X6.55Y-3.78
X6.55Y-6.105
X6.57Y-3.975
X6.575Y-5.03
X6.6Y-4.43
X6.625Y-4.48
X6.625Y-4.755
X6.625Y-7.93
X6.74Y-4.095
X6.75Y-2.63
X6.775Y-4.905
X6.775Y-6.105
X6.8Y-2.63
X6.85Y-3.98
X6.85Y-7.43
X6.85Y-7.68
X6.875Y-4.18
X6.9Y-2.305
X6.9Y-4.105
X6.9Y-4.78
X6.9Y-5.03
X6.925Y-5.73
X6.975Y-3.98
X6.975Y-7.83
X7.0Y-6.105
X7.025Y-2.83
X7.025Y-4.43
X7.05Y-3.98
X7.06Y-6.68
X7.075Y-2.605
X7.075Y-3.03
X7.075Y-7.355
X7.125Y-2.655
X7.13Y-3.605
X7.13Y-3.78
X7.14Y-3.975
X7.145Y-7.68
X7.175Y-4.43
X7.175Y-5.03
X7.175Y-7.355
X7.2Y-4.48
X7.2Y-5.73
X7.205Y-7.68
X7.225Y-4.755
X7.225Y-6.105
X7.25Y-7.48
X7.275Y-6.53
X7.275Y-8.005
X7.3Y-2.63
X7.3Y-7.93
X7.3Y-8.18
X7.31Y-4.095
X7.325Y-7.43
X7.35Y-2.63
X7.35Y-4.905
X7.425Y-2.305
X7.425Y-3.98
X7.425Y-6.68
X7.45Y-4.18
X7.45Y-7.68
X7.475Y-4.105
X7.475Y-4.78
X7.475Y-5.03
X7.475Y-5.855
X7.48Y-7.765
X7.55Y-3.98
X7.55Y-7.33
X7.575Y-2.83
X7.58Y-5.355
X7.58Y-5.43
X7.6Y-2.605
X7.6Y-4.43
X7.625Y-3.98
X7.63Y-5.305
X7.63Y-5.455
X7.65Y-2.655
X7.65Y-3.03
X7.675Y-8.18
X7.68Y-5.255
X7.68Y-5.48
X7.7Y-3.605
X7.7Y-3.78
X7.72Y-3.98
X7.725Y-6.13
X7.73Y-5.205
X7.73Y-5.505
X7.75Y-4.43
X7.75Y-5.03
X7.775Y-4.48
X7.78Y-5.205
X7.78Y-5.53
X7.8Y-4.755
X7.825Y-2.605
X7.83Y-5.205
X7.83Y-5.555
X7.875Y-2.605
X7.88Y-5.205
X7.88Y-5.58
X7.89Y-4.095
X7.94Y-4.905
X7.95Y-2.305
X7.95Y-5.255
X7.95Y-5.615
X7.975Y-6.705
X8.0Y-3.98
X8.0Y-6.38
X8.0Y-7.905
X8.0Y-8.18
X8.01Y-5.275
X8.01Y-5.615
X8.025Y-4.18
X8.05Y-4.105
X8.07Y-5.315
X8.07Y-5.615
X8.075Y-4.78
X8.075Y-5.03
X8.075Y-7.13
X8.125Y-2.605
X8.125Y-3.98
X8.125Y-6.93
X8.125Y-7.305
X8.125Y-7.68
X8.13Y-5.335
X8.13Y-5.615
X8.175Y-2.655
X8.175Y-2.83
X8.175Y-4.43
X8.175Y-5.205
X8.19Y-5.355
X8.19Y-5.615
X8.2Y-3.98
X8.225Y-3.03
X8.25Y-5.03
X8.275Y-3.605
X8.275Y-3.78
X8.275Y-6.63
X8.29Y-3.965
X8.325Y-4.43
X8.35Y-2.58
X8.35Y-4.48
X8.35Y-5.88
X8.375Y-4.755
X8.4Y-2.58
X8.4Y-6.93
X8.4Y-7.305
X8.4Y-7.68
X8.45Y-5.63
X8.46Y-4.095
X8.48Y-5.265
X8.5Y-4.905
X8.5Y-6.455
X8.5Y-8.18
X8.525Y-5.58
X8.525Y-5.68
X8.525Y-5.88
X8.56Y-3.98
X8.575Y-5.505
X8.585Y-5.26
X8.61Y-4.105
X8.625Y-4.78
X8.625Y-5.03
X8.66Y-3.105
X8.675Y-5.18
X8.7Y-5.88
X8.71Y-5.34
X8.725Y-6.68
X8.725Y-7.58
X8.75Y-4.43
X8.765Y-7.505
X8.79Y-5.485
X8.8Y-7.105
X8.82Y-3.955
X8.825Y-3.105
X8.825Y-5.03
X8.825Y-5.505
X8.84Y-4.005
X8.87Y-3.905
X8.875Y-4.855
X8.875Y-4.955
X8.875Y-5.505
X8.875Y-5.88
X8.88Y-5.18
X8.9Y-4.43
X8.9Y-7.005
X8.91Y-7.505
X8.925Y-4.48
X8.925Y-5.305
X8.925Y-5.505
X8.925Y-7.255
X8.925Y-7.305
X8.925Y-7.355
X8.925Y-7.455
X8.95Y-4.755
X8.95Y-5.255
X8.975Y-5.03
X8.975Y-5.205
X8.975Y-5.505
X8.975Y-7.255
X8.975Y-7.655
X9.0Y-5.68
X9.01Y-5.555
X9.02Y-4.155
X9.025Y-2.605
X9.025Y-2.655
X9.025Y-5.155
X9.05Y-3.855
X9.05Y-5.88
X9.05Y-7.255
X9.075Y-4.905
X9.09Y-3.945
X9.1Y-5.055
X9.125Y-7.78
X9.125Y-8.18
X9.14Y-6.455
X9.15Y-3.805
X9.175Y-3.23
X9.2Y-4.78
X9.2Y-5.48
X9.225Y-2.605
X9.225Y-2.655
X9.225Y-3.23
X9.225Y-5.055
X9.225Y-5.88
X9.24Y-5.345
X9.25Y-4.18
X9.25Y-5.405
X9.275Y-5.555
X9.325Y-4.43
X9.35Y-5.105
X9.4Y-2.305
X9.4Y-3.105
X9.42Y-6.225
X9.425Y-5.03
X9.43Y-4.015
X9.45Y-3.895
X9.475Y-2.655
X9.475Y-4.43
X9.5Y-4.48
X9.5Y-5.555
X9.525Y-2.605
X9.525Y-4.755
X9.6Y-4.155
X9.6Y-6.125
X9.625Y-5.655
X9.65Y-4.905
X9.67Y-3.945
X9.7Y-7.225
X9.7Y-7.595
X9.7Y-8.18
X9.725Y-4.13
X9.725Y-6.255
X9.75Y-2.605
X9.75Y-3.23
X9.775Y-4.78
X9.775Y-5.03
X9.8Y-2.655
X9.8Y-3.23
X9.85Y-3.98
X9.85Y-4.18
X9.85Y-5.83
X9.875Y-6.43
X9.9Y-4.43
X9.925Y-2.305
X9.95Y-5.755
X9.95Y-6.055
X9.975Y-3.105
X9.98Y-4.005
X10.025Y-2.655
X10.025Y-3.905
X10.025Y-5.03
X10.05Y-4.43
X10.05Y-5.88
X10.07Y-7.225
X10.07Y-7.595
X10.075Y-2.605
X10.075Y-4.48
X10.075Y-6.255
X10.075Y-8.18
X10.09Y-4.055
X10.1Y-4.755
X10.1Y-5.405
X10.125Y-5.555
X10.15Y-5.98
X10.18Y-4.155
X10.225Y-4.905
X10.25Y-3.945
X10.25Y-6.155
X10.3Y-4.13
X10.3Y-5.98
X10.3Y-6.255
X10.325Y-2.605
X10.325Y-3.23
X10.325Y-7.405
X10.35Y-4.78
X10.35Y-5.03
X10.375Y-2.655
X10.375Y-3.23
X10.425Y-3.98
X10.425Y-4.18
X10.44Y-7.195
X10.44Y-7.595
X10.45Y-2.305
X10.45Y-8.18
X10.475Y-4.43
X10.5Y-5.78
X10.535Y-6.505
X10.54Y-5.415
X10.55Y-3.105
X10.57Y-4.005
X10.575Y-6.655
X10.6Y-2.605
X10.6Y-3.905
X10.625Y-4.43
X10.625Y-5.03
X10.65Y-2.655
X10.65Y-4.48
X10.675Y-4.755
X10.69Y-7.035
X10.76Y-4.155
X10.8Y-4.905
X10.8Y-6.08
X10.8Y-6.155
X10.8Y-6.955
X10.82Y-3.945
X10.825Y-8.18
X10.875Y-4.13
X10.875Y-5.305
X10.875Y-6.005
X10.9Y-2.605
X10.9Y-3.23
X10.925Y-4.78
X10.925Y-5.03
X10.95Y-2.655
X10.95Y-3.23
X10.975Y-2.305
X11.0Y-3.98
X11.0Y-4.18
X11.0Y-5.38
X11.0Y-5.58
X11.05Y-4.43
X11.1Y-6.18
X11.125Y-3.105
X11.15Y-2.605
X11.15Y-4.005
X11.175Y-3.905
X11.18Y-7.195
X11.2Y-2.655
X11.2Y-4.43
X11.2Y-8.18
X11.225Y-4.48
X11.225Y-5.03
X11.25Y-4.755
X11.275Y-5.83
X11.325Y-5.43
X11.33Y-4.155
X11.35Y-6.18
X11.375Y-4.905
X11.375Y-5.655
X11.4Y-3.945
X11.425Y-6.455
X11.44Y-7.195
X11.45Y-4.13
X11.45Y-5.48
X11.475Y-2.605
X11.475Y-3.23
X11.5Y-2.305
X11.5Y-4.78
X11.5Y-5.03
X11.525Y-2.655
X11.525Y-3.23
X11.575Y-4.18
X11.575Y-8.18
X11.625Y-4.43
X11.63Y-3.98
X11.65Y-7.505
X11.65Y-7.705
X11.7Y-3.105
X11.7Y-7.38
X11.725Y-2.605
X11.73Y-4.005
X11.75Y-3.905
X11.75Y-7.705
X11.775Y-2.655
X11.775Y-4.43
X11.825Y-4.48
X11.825Y-4.755
X11.825Y-5.03
X11.825Y-7.53
X11.91Y-4.155
X11.95Y-4.905
X11.95Y-8.18
X12.0Y-3.935
X12.025Y-2.605
X12.075Y-2.655
X12.075Y-3.23
X12.075Y-4.145
X12.075Y-4.78
X12.075Y-5.03
X12.1Y-5.83
X12.125Y-3.23
X12.125Y-4.43
X12.25Y-5.435
X12.25Y-5.965
X12.25Y-6.385
X12.325Y-6.655
X12.325Y-7.055
X12.325Y-7.33
X12.325Y-7.83
X12.35Y-2.58
X12.35Y-2.83
X12.35Y-3.08
X12.35Y-3.355
X12.35Y-3.955
T2
X5.475Y-2.78
X5.475Y-2.855
X5.48Y-2.93
X5.5Y-6.905
X5.5Y-7.03
X5.5Y-7.155
X5.55Y-2.78
X5.55Y-2.855
X5.55Y-2.93
X5.625Y-2.78
X5.625Y-2.855
X5.625Y-2.93
X5.65Y-6.905
X5.65Y-7.03
X5.65Y-7.155
X5.8Y-6.905
X5.8Y-7.03
X5.8Y-7.155
X5.975Y-6.905
X5.975Y-7.03
X5.975Y-7.155
X6.05Y-2.78
X6.05Y-2.855
X6.05Y-2.93
X6.125Y-2.78
X6.125Y-2.855
X6.125Y-2.93
X6.125Y-6.905
X6.125Y-7.03
X6.125Y-7.155
X6.2Y-2.78
X6.2Y-2.855
X6.2Y-2.93
X6.275Y-6.905
X6.275Y-7.03
X6.275Y-7.155
X6.6223Y-2.855
X6.625Y-2.78
X6.625Y-2.93
X6.7Y-2.78
X6.7Y-2.855
X6.7Y-2.93
X6.75Y-6.905
X6.75Y-7.03
X6.75Y-7.155
X6.775Y-2.78
X6.775Y-2.855
X6.775Y-2.93
X6.9Y-6.905
X6.9Y-7.03
X6.9Y-7.155
X7.05Y-6.905
X7.05Y-7.03
X7.05Y-7.155
X7.2Y-2.78
X7.2Y-2.855
X7.2Y-2.93
X7.25Y-6.905
X7.25Y-7.03
X7.25Y-7.155
X7.275Y-2.78
X7.275Y-2.855
X7.275Y-2.93
X7.35Y-2.78
X7.35Y-2.855
X7.35Y-2.93
X7.375Y-6.905
X7.375Y-7.03
X7.375Y-7.155
X7.525Y-6.905
X7.525Y-7.03
X7.525Y-7.155
X7.8Y-2.78
X7.8Y-2.855
X7.8Y-2.93
X7.875Y-2.78
X7.875Y-2.855
X7.875Y-2.93
X7.95Y-2.78
X7.95Y-2.855
X7.95Y-2.93
X8.375Y-2.78
X8.375Y-2.855
X8.375Y-2.93
X8.45Y-2.78
X8.45Y-2.855
X8.45Y-2.93
X8.525Y-2.78
X8.525Y-2.855
X8.525Y-2.93
X8.95Y-2.78
X8.95Y-2.855
X8.95Y-2.93
X9.025Y-2.78
X9.025Y-2.855
X9.025Y-2.93
X9.1Y-2.78
X9.1Y-2.855
X9.1Y-2.93
X9.525Y-2.78
X9.525Y-2.855
X9.525Y-2.93
X9.6Y-2.78
X9.6Y-2.855
X9.6Y-2.93
X9.675Y-2.78
X9.675Y-2.855
X9.675Y-2.93
X10.125Y-2.78
X10.125Y-2.855
X10.125Y-2.93
X10.2Y-2.78
X10.2Y-2.855
X10.2Y-2.93
X10.275Y-2.78
X10.275Y-2.855
X10.275Y-2.93
X10.7Y-2.78
X10.7Y-2.855
X10.7Y-2.93
X10.775Y-2.78
X10.775Y-2.855
X10.775Y-2.93
X10.85Y-2.78
X10.85Y-2.855
X10.85Y-2.93
X11.275Y-2.78
X11.275Y-2.855
X11.275Y-2.93
X11.35Y-2.78
X11.35Y-2.855
X11.35Y-2.93
X11.425Y-2.78
X11.425Y-2.855
X11.425Y-2.93
X11.85Y-2.78
X11.85Y-2.855
X11.85Y-2.93
X11.925Y-2.78
X11.925Y-2.855
X11.925Y-2.93
X12.0Y-2.78
X12.0Y-2.855
X12.0Y-2.93
T3
X9.1275Y-7.205
X9.1275Y-7.405
X9.228Y-7.305
T4
X5.445Y-4.23
X5.545Y-4.23
X6.0205Y-4.23
X6.1205Y-4.23
X6.3561Y-7.5944
X6.4561Y-7.5944
X6.5959Y-4.23
X6.6959Y-4.23
X7.1714Y-4.23
X7.2714Y-4.23
X7.7468Y-4.23
X7.8468Y-4.23
X7.8521Y-7.5944
X7.9521Y-7.5944
X8.3223Y-4.23
X8.4223Y-4.23
X8.8977Y-4.23
X8.9977Y-4.23
X9.3482Y-7.5944
X9.4482Y-7.5944
X9.4732Y-4.23
X9.5732Y-4.23
X10.0486Y-4.23
X10.1486Y-4.23
X10.6241Y-4.23
X10.7241Y-4.23
X10.8443Y-7.255
X10.8443Y-7.5944
X10.9443Y-7.255
X10.9443Y-7.5944
X11.1995Y-4.23
X11.2995Y-4.23
X11.775Y-4.23
X11.875Y-4.23
T5
X11.89Y-5.78
X11.89Y-5.88
X11.89Y-5.98
X11.89Y-6.08
X11.99Y-5.83
X11.99Y-5.93
X11.99Y-6.03
X11.99Y-6.13
T6
X5.495Y-3.43
X5.495Y-3.53
X5.495Y-3.63
X5.495Y-3.73
X5.495Y-3.83
X6.0705Y-3.43
X6.0705Y-3.53
X6.0705Y-3.63
X6.0705Y-3.73
X6.0705Y-3.83
X6.6459Y-3.43
X6.6459Y-3.53
X6.6459Y-3.63
X6.6459Y-3.73
X6.6459Y-3.83
X7.2214Y-3.43
X7.2214Y-3.53
X7.2214Y-3.63
X7.2214Y-3.73
X7.2214Y-3.83
X7.7968Y-3.43
X7.7968Y-3.53
X7.7968Y-3.63
X7.7968Y-3.73
X7.7968Y-3.83
X8.3723Y-3.43
X8.3723Y-3.53
X8.3723Y-3.63
X8.3723Y-3.73
X8.3723Y-3.83
X8.9477Y-3.43
X8.9477Y-3.53
X8.9477Y-3.63
X8.9477Y-3.73
X8.9477Y-3.83
X9.5232Y-3.43
X9.5232Y-3.53
X9.5232Y-3.63
X9.5232Y-3.73
X9.5232Y-3.83
X10.0986Y-3.43
X10.0986Y-3.53
X10.0986Y-3.63
X10.0986Y-3.73
X10.0986Y-3.83
X10.6741Y-3.43
X10.6741Y-3.53
X10.6741Y-3.63
X10.6741Y-3.73
X10.6741Y-3.83
X10.885Y-6.455
X10.885Y-6.555
X10.885Y-6.655
X10.885Y-6.755
X10.885Y-6.855
X11.2495Y-3.43
X11.2495Y-3.53
X11.2495Y-3.63
X11.2495Y-3.73
X11.2495Y-3.83
X11.825Y-3.43
X11.825Y-3.53
X11.825Y-3.63
X11.825Y-3.73
X11.825Y-3.83
T7
X5.475Y-2.355
X5.675Y-2.355
X6.0Y-2.355
X6.2Y-2.355
X6.425Y-8.135
X6.525Y-2.355
X6.625Y-8.135
X6.725Y-2.355
X7.05Y-2.355
X7.25Y-2.355
X7.575Y-2.355
X7.775Y-2.355
X8.1Y-2.355
X8.3Y-2.355
X8.77Y-8.135
X8.97Y-8.135
X9.025Y-2.355
X9.225Y-2.355
X9.55Y-2.355
X9.75Y-2.355
X10.075Y-2.355
X10.275Y-2.355
X10.6Y-2.355
X10.8Y-2.355
X11.125Y-2.355
X11.325Y-2.355
X11.65Y-2.355
X11.85Y-2.355
X12.27Y-4.135
X12.27Y-4.335
X12.27Y-7.48
X12.27Y-7.68
T8
X11.6701Y-6.53
X11.6701Y-7.18
X11.8134Y-6.53
X11.8134Y-7.18
X11.9567Y-6.53
X11.9567Y-7.18
X12.1Y-6.53
X12.1Y-7.18
T9
X5.125Y-2.43
X5.125Y-6.105
X5.125Y-8.055
X6.65Y-5.63
X8.25Y-8.055
X8.66Y-2.43
X9.25Y-3.935
X9.35Y-8.055
X10.675Y-5.63
X12.075Y-5.43
X12.2Y-2.43
X12.2Y-3.63
X12.2Y-8.055
T0
M30
