%FSLAX45Y45*%
G04 Gerber Fmt 4.5, Leading zero omitted, Abs format (unit mm)*
G04 Created by KiCad (PCBNEW (5.1.6)-1) date 2023-04-30 23:27:59*
%MOMM*%
%LPD*%
G01*
G04 APERTURE LIST*
%TA.AperFunction,Profile*%
%ADD10C,0.150000*%
%TD*%
%ADD11C,0.200000*%
%ADD12C,0.300000*%
G04 APERTURE END LIST*
D10*
X18859500Y-10223500D02*
X18859500Y-6858000D01*
X22479000Y-10223500D02*
X18859500Y-10223500D01*
X22479000Y-6858000D02*
X22479000Y-10223500D01*
X18859500Y-6858000D02*
X22479000Y-6858000D01*
D11*
X19842800Y-8946200D02*
X19882800Y-8986200D01*
X19882800Y-8946200D02*
X19842800Y-8986200D01*
X20868000Y-8127900D02*
G75*
G03*
X20868000Y-8127900I-40000J0D01*
G01*
X20868000Y-8381900D02*
G75*
G03*
X20868000Y-8381900I-40000J0D01*
G01*
X20868000Y-8635900D02*
G75*
G03*
X20868000Y-8635900I-40000J0D01*
G01*
X20868000Y-8889900D02*
G75*
G03*
X20868000Y-8889900I-40000J0D01*
G01*
X21122000Y-8254900D02*
G75*
G03*
X21122000Y-8254900I-40000J0D01*
G01*
X21122000Y-8508900D02*
G75*
G03*
X21122000Y-8508900I-40000J0D01*
G01*
X21122000Y-8762900D02*
G75*
G03*
X21122000Y-8762900I-40000J0D01*
G01*
X21122000Y-9016900D02*
G75*
G03*
X21122000Y-9016900I-40000J0D01*
G01*
X19177000Y-8004500D02*
X19177000Y-8124500D01*
X19117000Y-8064500D02*
X19237000Y-8064500D01*
X19177000Y-8512500D02*
X19177000Y-8632500D01*
X19117000Y-8572500D02*
X19237000Y-8572500D01*
X19177000Y-9020500D02*
X19177000Y-9140500D01*
X19117000Y-9080500D02*
X19237000Y-9080500D01*
X22204067Y-7345067D02*
X22204067Y-7132933D01*
X21991933Y-7132933D01*
X21991933Y-7345067D01*
X22204067Y-7345067D01*
X19359267Y-9935867D02*
X19359267Y-9723733D01*
X19147133Y-9723733D01*
X19147133Y-9935867D01*
X19359267Y-9935867D01*
X19333867Y-7345067D02*
X19333867Y-7132933D01*
X19121733Y-7132933D01*
X19121733Y-7345067D01*
X19333867Y-7345067D01*
X22204067Y-9935867D02*
X22204067Y-9723733D01*
X21991933Y-9723733D01*
X21991933Y-9935867D01*
X22204067Y-9935867D01*
D12*
X19138428Y-10696714D02*
X19138428Y-10396714D01*
X19209857Y-10396714D01*
X19252714Y-10411000D01*
X19281286Y-10439572D01*
X19295571Y-10468143D01*
X19309857Y-10525286D01*
X19309857Y-10568143D01*
X19295571Y-10625286D01*
X19281286Y-10653857D01*
X19252714Y-10682429D01*
X19209857Y-10696714D01*
X19138428Y-10696714D01*
X19438428Y-10696714D02*
X19438428Y-10496714D01*
X19438428Y-10553857D02*
X19452714Y-10525286D01*
X19467000Y-10511000D01*
X19495571Y-10496714D01*
X19524143Y-10496714D01*
X19624143Y-10696714D02*
X19624143Y-10496714D01*
X19624143Y-10396714D02*
X19609857Y-10411000D01*
X19624143Y-10425286D01*
X19638428Y-10411000D01*
X19624143Y-10396714D01*
X19624143Y-10425286D01*
X19809857Y-10696714D02*
X19781286Y-10682429D01*
X19767000Y-10653857D01*
X19767000Y-10396714D01*
X19967000Y-10696714D02*
X19938428Y-10682429D01*
X19924143Y-10653857D01*
X19924143Y-10396714D01*
X20309857Y-10696714D02*
X20309857Y-10396714D01*
X20409857Y-10611000D01*
X20509857Y-10396714D01*
X20509857Y-10696714D01*
X20781286Y-10696714D02*
X20781286Y-10539572D01*
X20767000Y-10511000D01*
X20738428Y-10496714D01*
X20681286Y-10496714D01*
X20652714Y-10511000D01*
X20781286Y-10682429D02*
X20752714Y-10696714D01*
X20681286Y-10696714D01*
X20652714Y-10682429D01*
X20638428Y-10653857D01*
X20638428Y-10625286D01*
X20652714Y-10596714D01*
X20681286Y-10582429D01*
X20752714Y-10582429D01*
X20781286Y-10568143D01*
X20924143Y-10496714D02*
X20924143Y-10796714D01*
X20924143Y-10511000D02*
X20952714Y-10496714D01*
X21009857Y-10496714D01*
X21038428Y-10511000D01*
X21052714Y-10525286D01*
X21067000Y-10553857D01*
X21067000Y-10639572D01*
X21052714Y-10668143D01*
X21038428Y-10682429D01*
X21009857Y-10696714D01*
X20952714Y-10696714D01*
X20924143Y-10682429D01*
X21195571Y-10668143D02*
X21209857Y-10682429D01*
X21195571Y-10696714D01*
X21181286Y-10682429D01*
X21195571Y-10668143D01*
X21195571Y-10696714D01*
X21195571Y-10511000D02*
X21209857Y-10525286D01*
X21195571Y-10539572D01*
X21181286Y-10525286D01*
X21195571Y-10511000D01*
X21195571Y-10539572D01*
X18812000Y-11171000D02*
X18852000Y-11211000D01*
X18852000Y-11171000D02*
X18812000Y-11211000D01*
X19195571Y-11026714D02*
X19224143Y-11026714D01*
X19252714Y-11041000D01*
X19267000Y-11055286D01*
X19281286Y-11083857D01*
X19295571Y-11141000D01*
X19295571Y-11212429D01*
X19281286Y-11269571D01*
X19267000Y-11298143D01*
X19252714Y-11312429D01*
X19224143Y-11326714D01*
X19195571Y-11326714D01*
X19167000Y-11312429D01*
X19152714Y-11298143D01*
X19138428Y-11269571D01*
X19124143Y-11212429D01*
X19124143Y-11141000D01*
X19138428Y-11083857D01*
X19152714Y-11055286D01*
X19167000Y-11041000D01*
X19195571Y-11026714D01*
X19424143Y-11298143D02*
X19438428Y-11312429D01*
X19424143Y-11326714D01*
X19409857Y-11312429D01*
X19424143Y-11298143D01*
X19424143Y-11326714D01*
X19695571Y-11126714D02*
X19695571Y-11326714D01*
X19624143Y-11012429D02*
X19552714Y-11226714D01*
X19738428Y-11226714D01*
X19909857Y-11026714D02*
X19938428Y-11026714D01*
X19967000Y-11041000D01*
X19981286Y-11055286D01*
X19995571Y-11083857D01*
X20009857Y-11141000D01*
X20009857Y-11212429D01*
X19995571Y-11269571D01*
X19981286Y-11298143D01*
X19967000Y-11312429D01*
X19938428Y-11326714D01*
X19909857Y-11326714D01*
X19881286Y-11312429D01*
X19867000Y-11298143D01*
X19852714Y-11269571D01*
X19838428Y-11212429D01*
X19838428Y-11141000D01*
X19852714Y-11083857D01*
X19867000Y-11055286D01*
X19881286Y-11041000D01*
X19909857Y-11026714D01*
X20138428Y-11326714D02*
X20138428Y-11126714D01*
X20138428Y-11155286D02*
X20152714Y-11141000D01*
X20181286Y-11126714D01*
X20224143Y-11126714D01*
X20252714Y-11141000D01*
X20267000Y-11169572D01*
X20267000Y-11326714D01*
X20267000Y-11169572D02*
X20281286Y-11141000D01*
X20309857Y-11126714D01*
X20352714Y-11126714D01*
X20381286Y-11141000D01*
X20395571Y-11169572D01*
X20395571Y-11326714D01*
X20538428Y-11326714D02*
X20538428Y-11126714D01*
X20538428Y-11155286D02*
X20552714Y-11141000D01*
X20581286Y-11126714D01*
X20624143Y-11126714D01*
X20652714Y-11141000D01*
X20667000Y-11169572D01*
X20667000Y-11326714D01*
X20667000Y-11169572D02*
X20681286Y-11141000D01*
X20709857Y-11126714D01*
X20752714Y-11126714D01*
X20781286Y-11141000D01*
X20795571Y-11169572D01*
X20795571Y-11326714D01*
X21381286Y-11012429D02*
X21124143Y-11398143D01*
X21767000Y-11026714D02*
X21795571Y-11026714D01*
X21824143Y-11041000D01*
X21838428Y-11055286D01*
X21852714Y-11083857D01*
X21867000Y-11141000D01*
X21867000Y-11212429D01*
X21852714Y-11269571D01*
X21838428Y-11298143D01*
X21824143Y-11312429D01*
X21795571Y-11326714D01*
X21767000Y-11326714D01*
X21738428Y-11312429D01*
X21724143Y-11298143D01*
X21709857Y-11269571D01*
X21695571Y-11212429D01*
X21695571Y-11141000D01*
X21709857Y-11083857D01*
X21724143Y-11055286D01*
X21738428Y-11041000D01*
X21767000Y-11026714D01*
X21995571Y-11298143D02*
X22009857Y-11312429D01*
X21995571Y-11326714D01*
X21981286Y-11312429D01*
X21995571Y-11298143D01*
X21995571Y-11326714D01*
X22195571Y-11026714D02*
X22224143Y-11026714D01*
X22252714Y-11041000D01*
X22267000Y-11055286D01*
X22281286Y-11083857D01*
X22295571Y-11141000D01*
X22295571Y-11212429D01*
X22281286Y-11269571D01*
X22267000Y-11298143D01*
X22252714Y-11312429D01*
X22224143Y-11326714D01*
X22195571Y-11326714D01*
X22167000Y-11312429D01*
X22152714Y-11298143D01*
X22138428Y-11269571D01*
X22124143Y-11212429D01*
X22124143Y-11141000D01*
X22138428Y-11083857D01*
X22152714Y-11055286D01*
X22167000Y-11041000D01*
X22195571Y-11026714D01*
X22581286Y-11326714D02*
X22409857Y-11326714D01*
X22495571Y-11326714D02*
X22495571Y-11026714D01*
X22467000Y-11069572D01*
X22438428Y-11098143D01*
X22409857Y-11112429D01*
X22838428Y-11026714D02*
X22781286Y-11026714D01*
X22752714Y-11041000D01*
X22738428Y-11055286D01*
X22709857Y-11098143D01*
X22695571Y-11155286D01*
X22695571Y-11269571D01*
X22709857Y-11298143D01*
X22724143Y-11312429D01*
X22752714Y-11326714D01*
X22809857Y-11326714D01*
X22838428Y-11312429D01*
X22852714Y-11298143D01*
X22867000Y-11269571D01*
X22867000Y-11198143D01*
X22852714Y-11169572D01*
X22838428Y-11155286D01*
X22809857Y-11141000D01*
X22752714Y-11141000D01*
X22724143Y-11155286D01*
X22709857Y-11169572D01*
X22695571Y-11198143D01*
X22981286Y-11026714D02*
X22981286Y-11083857D01*
X23095571Y-11026714D02*
X23095571Y-11083857D01*
X23538428Y-11441000D02*
X23524143Y-11426714D01*
X23495571Y-11383857D01*
X23481286Y-11355286D01*
X23467000Y-11312429D01*
X23452714Y-11241000D01*
X23452714Y-11183857D01*
X23467000Y-11112429D01*
X23481286Y-11069572D01*
X23495571Y-11041000D01*
X23524143Y-10998143D01*
X23538428Y-10983857D01*
X23809857Y-11326714D02*
X23638428Y-11326714D01*
X23724143Y-11326714D02*
X23724143Y-11026714D01*
X23695571Y-11069572D01*
X23667000Y-11098143D01*
X23638428Y-11112429D01*
X24167000Y-11326714D02*
X24167000Y-11026714D01*
X24295571Y-11326714D02*
X24295571Y-11169572D01*
X24281286Y-11141000D01*
X24252714Y-11126714D01*
X24209857Y-11126714D01*
X24181286Y-11141000D01*
X24167000Y-11155286D01*
X24481286Y-11326714D02*
X24452714Y-11312429D01*
X24438428Y-11298143D01*
X24424143Y-11269571D01*
X24424143Y-11183857D01*
X24438428Y-11155286D01*
X24452714Y-11141000D01*
X24481286Y-11126714D01*
X24524143Y-11126714D01*
X24552714Y-11141000D01*
X24567000Y-11155286D01*
X24581286Y-11183857D01*
X24581286Y-11269571D01*
X24567000Y-11298143D01*
X24552714Y-11312429D01*
X24524143Y-11326714D01*
X24481286Y-11326714D01*
X24752714Y-11326714D02*
X24724143Y-11312429D01*
X24709857Y-11283857D01*
X24709857Y-11026714D01*
X24981286Y-11312429D02*
X24952714Y-11326714D01*
X24895571Y-11326714D01*
X24867000Y-11312429D01*
X24852714Y-11283857D01*
X24852714Y-11169572D01*
X24867000Y-11141000D01*
X24895571Y-11126714D01*
X24952714Y-11126714D01*
X24981286Y-11141000D01*
X24995571Y-11169572D01*
X24995571Y-11198143D01*
X24852714Y-11226714D01*
X25095571Y-11441000D02*
X25109857Y-11426714D01*
X25138428Y-11383857D01*
X25152714Y-11355286D01*
X25167000Y-11312429D01*
X25181286Y-11241000D01*
X25181286Y-11183857D01*
X25167000Y-11112429D01*
X25152714Y-11069572D01*
X25138428Y-11041000D01*
X25109857Y-10998143D01*
X25095571Y-10983857D01*
X18852000Y-11587000D02*
G75*
G03*
X18852000Y-11587000I-40000J0D01*
G01*
X19195571Y-11422714D02*
X19224143Y-11422714D01*
X19252714Y-11437000D01*
X19267000Y-11451286D01*
X19281286Y-11479857D01*
X19295571Y-11537000D01*
X19295571Y-11608429D01*
X19281286Y-11665571D01*
X19267000Y-11694143D01*
X19252714Y-11708429D01*
X19224143Y-11722714D01*
X19195571Y-11722714D01*
X19167000Y-11708429D01*
X19152714Y-11694143D01*
X19138428Y-11665571D01*
X19124143Y-11608429D01*
X19124143Y-11537000D01*
X19138428Y-11479857D01*
X19152714Y-11451286D01*
X19167000Y-11437000D01*
X19195571Y-11422714D01*
X19424143Y-11694143D02*
X19438428Y-11708429D01*
X19424143Y-11722714D01*
X19409857Y-11708429D01*
X19424143Y-11694143D01*
X19424143Y-11722714D01*
X19609857Y-11551286D02*
X19581286Y-11537000D01*
X19567000Y-11522714D01*
X19552714Y-11494143D01*
X19552714Y-11479857D01*
X19567000Y-11451286D01*
X19581286Y-11437000D01*
X19609857Y-11422714D01*
X19667000Y-11422714D01*
X19695571Y-11437000D01*
X19709857Y-11451286D01*
X19724143Y-11479857D01*
X19724143Y-11494143D01*
X19709857Y-11522714D01*
X19695571Y-11537000D01*
X19667000Y-11551286D01*
X19609857Y-11551286D01*
X19581286Y-11565571D01*
X19567000Y-11579857D01*
X19552714Y-11608429D01*
X19552714Y-11665571D01*
X19567000Y-11694143D01*
X19581286Y-11708429D01*
X19609857Y-11722714D01*
X19667000Y-11722714D01*
X19695571Y-11708429D01*
X19709857Y-11694143D01*
X19724143Y-11665571D01*
X19724143Y-11608429D01*
X19709857Y-11579857D01*
X19695571Y-11565571D01*
X19667000Y-11551286D01*
X19909857Y-11422714D02*
X19938428Y-11422714D01*
X19967000Y-11437000D01*
X19981286Y-11451286D01*
X19995571Y-11479857D01*
X20009857Y-11537000D01*
X20009857Y-11608429D01*
X19995571Y-11665571D01*
X19981286Y-11694143D01*
X19967000Y-11708429D01*
X19938428Y-11722714D01*
X19909857Y-11722714D01*
X19881286Y-11708429D01*
X19867000Y-11694143D01*
X19852714Y-11665571D01*
X19838428Y-11608429D01*
X19838428Y-11537000D01*
X19852714Y-11479857D01*
X19867000Y-11451286D01*
X19881286Y-11437000D01*
X19909857Y-11422714D01*
X20138428Y-11722714D02*
X20138428Y-11522714D01*
X20138428Y-11551286D02*
X20152714Y-11537000D01*
X20181286Y-11522714D01*
X20224143Y-11522714D01*
X20252714Y-11537000D01*
X20267000Y-11565571D01*
X20267000Y-11722714D01*
X20267000Y-11565571D02*
X20281286Y-11537000D01*
X20309857Y-11522714D01*
X20352714Y-11522714D01*
X20381286Y-11537000D01*
X20395571Y-11565571D01*
X20395571Y-11722714D01*
X20538428Y-11722714D02*
X20538428Y-11522714D01*
X20538428Y-11551286D02*
X20552714Y-11537000D01*
X20581286Y-11522714D01*
X20624143Y-11522714D01*
X20652714Y-11537000D01*
X20667000Y-11565571D01*
X20667000Y-11722714D01*
X20667000Y-11565571D02*
X20681286Y-11537000D01*
X20709857Y-11522714D01*
X20752714Y-11522714D01*
X20781286Y-11537000D01*
X20795571Y-11565571D01*
X20795571Y-11722714D01*
X21381286Y-11408429D02*
X21124143Y-11794143D01*
X21767000Y-11422714D02*
X21795571Y-11422714D01*
X21824143Y-11437000D01*
X21838428Y-11451286D01*
X21852714Y-11479857D01*
X21867000Y-11537000D01*
X21867000Y-11608429D01*
X21852714Y-11665571D01*
X21838428Y-11694143D01*
X21824143Y-11708429D01*
X21795571Y-11722714D01*
X21767000Y-11722714D01*
X21738428Y-11708429D01*
X21724143Y-11694143D01*
X21709857Y-11665571D01*
X21695571Y-11608429D01*
X21695571Y-11537000D01*
X21709857Y-11479857D01*
X21724143Y-11451286D01*
X21738428Y-11437000D01*
X21767000Y-11422714D01*
X21995571Y-11694143D02*
X22009857Y-11708429D01*
X21995571Y-11722714D01*
X21981286Y-11708429D01*
X21995571Y-11694143D01*
X21995571Y-11722714D01*
X22195571Y-11422714D02*
X22224143Y-11422714D01*
X22252714Y-11437000D01*
X22267000Y-11451286D01*
X22281286Y-11479857D01*
X22295571Y-11537000D01*
X22295571Y-11608429D01*
X22281286Y-11665571D01*
X22267000Y-11694143D01*
X22252714Y-11708429D01*
X22224143Y-11722714D01*
X22195571Y-11722714D01*
X22167000Y-11708429D01*
X22152714Y-11694143D01*
X22138428Y-11665571D01*
X22124143Y-11608429D01*
X22124143Y-11537000D01*
X22138428Y-11479857D01*
X22152714Y-11451286D01*
X22167000Y-11437000D01*
X22195571Y-11422714D01*
X22395571Y-11422714D02*
X22581286Y-11422714D01*
X22481286Y-11537000D01*
X22524143Y-11537000D01*
X22552714Y-11551286D01*
X22567000Y-11565571D01*
X22581286Y-11594143D01*
X22581286Y-11665571D01*
X22567000Y-11694143D01*
X22552714Y-11708429D01*
X22524143Y-11722714D01*
X22438428Y-11722714D01*
X22409857Y-11708429D01*
X22395571Y-11694143D01*
X22867000Y-11722714D02*
X22695571Y-11722714D01*
X22781286Y-11722714D02*
X22781286Y-11422714D01*
X22752714Y-11465571D01*
X22724143Y-11494143D01*
X22695571Y-11508429D01*
X22981286Y-11422714D02*
X22981286Y-11479857D01*
X23095571Y-11422714D02*
X23095571Y-11479857D01*
X23538428Y-11837000D02*
X23524143Y-11822714D01*
X23495571Y-11779857D01*
X23481286Y-11751286D01*
X23467000Y-11708429D01*
X23452714Y-11637000D01*
X23452714Y-11579857D01*
X23467000Y-11508429D01*
X23481286Y-11465571D01*
X23495571Y-11437000D01*
X23524143Y-11394143D01*
X23538428Y-11379857D01*
X23695571Y-11551286D02*
X23667000Y-11537000D01*
X23652714Y-11522714D01*
X23638428Y-11494143D01*
X23638428Y-11479857D01*
X23652714Y-11451286D01*
X23667000Y-11437000D01*
X23695571Y-11422714D01*
X23752714Y-11422714D01*
X23781286Y-11437000D01*
X23795571Y-11451286D01*
X23809857Y-11479857D01*
X23809857Y-11494143D01*
X23795571Y-11522714D01*
X23781286Y-11537000D01*
X23752714Y-11551286D01*
X23695571Y-11551286D01*
X23667000Y-11565571D01*
X23652714Y-11579857D01*
X23638428Y-11608429D01*
X23638428Y-11665571D01*
X23652714Y-11694143D01*
X23667000Y-11708429D01*
X23695571Y-11722714D01*
X23752714Y-11722714D01*
X23781286Y-11708429D01*
X23795571Y-11694143D01*
X23809857Y-11665571D01*
X23809857Y-11608429D01*
X23795571Y-11579857D01*
X23781286Y-11565571D01*
X23752714Y-11551286D01*
X24167000Y-11722714D02*
X24167000Y-11422714D01*
X24295571Y-11722714D02*
X24295571Y-11565571D01*
X24281286Y-11537000D01*
X24252714Y-11522714D01*
X24209857Y-11522714D01*
X24181286Y-11537000D01*
X24167000Y-11551286D01*
X24481286Y-11722714D02*
X24452714Y-11708429D01*
X24438428Y-11694143D01*
X24424143Y-11665571D01*
X24424143Y-11579857D01*
X24438428Y-11551286D01*
X24452714Y-11537000D01*
X24481286Y-11522714D01*
X24524143Y-11522714D01*
X24552714Y-11537000D01*
X24567000Y-11551286D01*
X24581286Y-11579857D01*
X24581286Y-11665571D01*
X24567000Y-11694143D01*
X24552714Y-11708429D01*
X24524143Y-11722714D01*
X24481286Y-11722714D01*
X24752714Y-11722714D02*
X24724143Y-11708429D01*
X24709857Y-11679857D01*
X24709857Y-11422714D01*
X24981286Y-11708429D02*
X24952714Y-11722714D01*
X24895571Y-11722714D01*
X24867000Y-11708429D01*
X24852714Y-11679857D01*
X24852714Y-11565571D01*
X24867000Y-11537000D01*
X24895571Y-11522714D01*
X24952714Y-11522714D01*
X24981286Y-11537000D01*
X24995571Y-11565571D01*
X24995571Y-11594143D01*
X24852714Y-11622714D01*
X25109857Y-11708429D02*
X25138428Y-11722714D01*
X25195571Y-11722714D01*
X25224143Y-11708429D01*
X25238428Y-11679857D01*
X25238428Y-11665571D01*
X25224143Y-11637000D01*
X25195571Y-11622714D01*
X25152714Y-11622714D01*
X25124143Y-11608429D01*
X25109857Y-11579857D01*
X25109857Y-11565571D01*
X25124143Y-11537000D01*
X25152714Y-11522714D01*
X25195571Y-11522714D01*
X25224143Y-11537000D01*
X25338428Y-11837000D02*
X25352714Y-11822714D01*
X25381286Y-11779857D01*
X25395571Y-11751286D01*
X25409857Y-11708429D01*
X25424143Y-11637000D01*
X25424143Y-11579857D01*
X25409857Y-11508429D01*
X25395571Y-11465571D01*
X25381286Y-11437000D01*
X25352714Y-11394143D01*
X25338428Y-11379857D01*
X18792000Y-11923000D02*
X18792000Y-12043000D01*
X18732000Y-11983000D02*
X18852000Y-11983000D01*
X19295571Y-12118714D02*
X19124143Y-12118714D01*
X19209857Y-12118714D02*
X19209857Y-11818714D01*
X19181286Y-11861571D01*
X19152714Y-11890143D01*
X19124143Y-11904429D01*
X19424143Y-12090143D02*
X19438428Y-12104429D01*
X19424143Y-12118714D01*
X19409857Y-12104429D01*
X19424143Y-12090143D01*
X19424143Y-12118714D01*
X19552714Y-11847286D02*
X19567000Y-11833000D01*
X19595571Y-11818714D01*
X19667000Y-11818714D01*
X19695571Y-11833000D01*
X19709857Y-11847286D01*
X19724143Y-11875857D01*
X19724143Y-11904429D01*
X19709857Y-11947286D01*
X19538428Y-12118714D01*
X19724143Y-12118714D01*
X19909857Y-11818714D02*
X19938428Y-11818714D01*
X19967000Y-11833000D01*
X19981286Y-11847286D01*
X19995571Y-11875857D01*
X20009857Y-11933000D01*
X20009857Y-12004429D01*
X19995571Y-12061571D01*
X19981286Y-12090143D01*
X19967000Y-12104429D01*
X19938428Y-12118714D01*
X19909857Y-12118714D01*
X19881286Y-12104429D01*
X19867000Y-12090143D01*
X19852714Y-12061571D01*
X19838428Y-12004429D01*
X19838428Y-11933000D01*
X19852714Y-11875857D01*
X19867000Y-11847286D01*
X19881286Y-11833000D01*
X19909857Y-11818714D01*
X20138428Y-12118714D02*
X20138428Y-11918714D01*
X20138428Y-11947286D02*
X20152714Y-11933000D01*
X20181286Y-11918714D01*
X20224143Y-11918714D01*
X20252714Y-11933000D01*
X20267000Y-11961571D01*
X20267000Y-12118714D01*
X20267000Y-11961571D02*
X20281286Y-11933000D01*
X20309857Y-11918714D01*
X20352714Y-11918714D01*
X20381286Y-11933000D01*
X20395571Y-11961571D01*
X20395571Y-12118714D01*
X20538428Y-12118714D02*
X20538428Y-11918714D01*
X20538428Y-11947286D02*
X20552714Y-11933000D01*
X20581286Y-11918714D01*
X20624143Y-11918714D01*
X20652714Y-11933000D01*
X20667000Y-11961571D01*
X20667000Y-12118714D01*
X20667000Y-11961571D02*
X20681286Y-11933000D01*
X20709857Y-11918714D01*
X20752714Y-11918714D01*
X20781286Y-11933000D01*
X20795571Y-11961571D01*
X20795571Y-12118714D01*
X21381286Y-11804429D02*
X21124143Y-12190143D01*
X21767000Y-11818714D02*
X21795571Y-11818714D01*
X21824143Y-11833000D01*
X21838428Y-11847286D01*
X21852714Y-11875857D01*
X21867000Y-11933000D01*
X21867000Y-12004429D01*
X21852714Y-12061571D01*
X21838428Y-12090143D01*
X21824143Y-12104429D01*
X21795571Y-12118714D01*
X21767000Y-12118714D01*
X21738428Y-12104429D01*
X21724143Y-12090143D01*
X21709857Y-12061571D01*
X21695571Y-12004429D01*
X21695571Y-11933000D01*
X21709857Y-11875857D01*
X21724143Y-11847286D01*
X21738428Y-11833000D01*
X21767000Y-11818714D01*
X21995571Y-12090143D02*
X22009857Y-12104429D01*
X21995571Y-12118714D01*
X21981286Y-12104429D01*
X21995571Y-12090143D01*
X21995571Y-12118714D01*
X22195571Y-11818714D02*
X22224143Y-11818714D01*
X22252714Y-11833000D01*
X22267000Y-11847286D01*
X22281286Y-11875857D01*
X22295571Y-11933000D01*
X22295571Y-12004429D01*
X22281286Y-12061571D01*
X22267000Y-12090143D01*
X22252714Y-12104429D01*
X22224143Y-12118714D01*
X22195571Y-12118714D01*
X22167000Y-12104429D01*
X22152714Y-12090143D01*
X22138428Y-12061571D01*
X22124143Y-12004429D01*
X22124143Y-11933000D01*
X22138428Y-11875857D01*
X22152714Y-11847286D01*
X22167000Y-11833000D01*
X22195571Y-11818714D01*
X22552714Y-11918714D02*
X22552714Y-12118714D01*
X22481286Y-11804429D02*
X22409857Y-12018714D01*
X22595571Y-12018714D01*
X22681286Y-11818714D02*
X22881286Y-11818714D01*
X22752714Y-12118714D01*
X22981286Y-11818714D02*
X22981286Y-11875857D01*
X23095571Y-11818714D02*
X23095571Y-11875857D01*
X23538428Y-12233000D02*
X23524143Y-12218714D01*
X23495571Y-12175857D01*
X23481286Y-12147286D01*
X23467000Y-12104429D01*
X23452714Y-12033000D01*
X23452714Y-11975857D01*
X23467000Y-11904429D01*
X23481286Y-11861571D01*
X23495571Y-11833000D01*
X23524143Y-11790143D01*
X23538428Y-11775857D01*
X23624143Y-11818714D02*
X23809857Y-11818714D01*
X23709857Y-11933000D01*
X23752714Y-11933000D01*
X23781286Y-11947286D01*
X23795571Y-11961571D01*
X23809857Y-11990143D01*
X23809857Y-12061571D01*
X23795571Y-12090143D01*
X23781286Y-12104429D01*
X23752714Y-12118714D01*
X23667000Y-12118714D01*
X23638428Y-12104429D01*
X23624143Y-12090143D01*
X24167000Y-12118714D02*
X24167000Y-11818714D01*
X24295571Y-12118714D02*
X24295571Y-11961571D01*
X24281286Y-11933000D01*
X24252714Y-11918714D01*
X24209857Y-11918714D01*
X24181286Y-11933000D01*
X24167000Y-11947286D01*
X24481286Y-12118714D02*
X24452714Y-12104429D01*
X24438428Y-12090143D01*
X24424143Y-12061571D01*
X24424143Y-11975857D01*
X24438428Y-11947286D01*
X24452714Y-11933000D01*
X24481286Y-11918714D01*
X24524143Y-11918714D01*
X24552714Y-11933000D01*
X24567000Y-11947286D01*
X24581286Y-11975857D01*
X24581286Y-12061571D01*
X24567000Y-12090143D01*
X24552714Y-12104429D01*
X24524143Y-12118714D01*
X24481286Y-12118714D01*
X24752714Y-12118714D02*
X24724143Y-12104429D01*
X24709857Y-12075857D01*
X24709857Y-11818714D01*
X24981286Y-12104429D02*
X24952714Y-12118714D01*
X24895571Y-12118714D01*
X24867000Y-12104429D01*
X24852714Y-12075857D01*
X24852714Y-11961571D01*
X24867000Y-11933000D01*
X24895571Y-11918714D01*
X24952714Y-11918714D01*
X24981286Y-11933000D01*
X24995571Y-11961571D01*
X24995571Y-11990143D01*
X24852714Y-12018714D01*
X25109857Y-12104429D02*
X25138428Y-12118714D01*
X25195571Y-12118714D01*
X25224143Y-12104429D01*
X25238428Y-12075857D01*
X25238428Y-12061571D01*
X25224143Y-12033000D01*
X25195571Y-12018714D01*
X25152714Y-12018714D01*
X25124143Y-12004429D01*
X25109857Y-11975857D01*
X25109857Y-11961571D01*
X25124143Y-11933000D01*
X25152714Y-11918714D01*
X25195571Y-11918714D01*
X25224143Y-11933000D01*
X25338428Y-12233000D02*
X25352714Y-12218714D01*
X25381286Y-12175857D01*
X25395571Y-12147286D01*
X25409857Y-12104429D01*
X25424143Y-12033000D01*
X25424143Y-11975857D01*
X25409857Y-11904429D01*
X25395571Y-11861571D01*
X25381286Y-11833000D01*
X25352714Y-11790143D01*
X25338428Y-11775857D01*
X18808067Y-12485067D02*
X18808067Y-12272933D01*
X18595933Y-12272933D01*
X18595933Y-12485067D01*
X18808067Y-12485067D01*
X19109857Y-12214714D02*
X19295571Y-12214714D01*
X19195571Y-12329000D01*
X19238428Y-12329000D01*
X19267000Y-12343286D01*
X19281286Y-12357571D01*
X19295571Y-12386143D01*
X19295571Y-12457571D01*
X19281286Y-12486143D01*
X19267000Y-12500429D01*
X19238428Y-12514714D01*
X19152714Y-12514714D01*
X19124143Y-12500429D01*
X19109857Y-12486143D01*
X19424143Y-12486143D02*
X19438428Y-12500429D01*
X19424143Y-12514714D01*
X19409857Y-12500429D01*
X19424143Y-12486143D01*
X19424143Y-12514714D01*
X19624143Y-12214714D02*
X19652714Y-12214714D01*
X19681286Y-12229000D01*
X19695571Y-12243286D01*
X19709857Y-12271857D01*
X19724143Y-12329000D01*
X19724143Y-12400429D01*
X19709857Y-12457571D01*
X19695571Y-12486143D01*
X19681286Y-12500429D01*
X19652714Y-12514714D01*
X19624143Y-12514714D01*
X19595571Y-12500429D01*
X19581286Y-12486143D01*
X19567000Y-12457571D01*
X19552714Y-12400429D01*
X19552714Y-12329000D01*
X19567000Y-12271857D01*
X19581286Y-12243286D01*
X19595571Y-12229000D01*
X19624143Y-12214714D01*
X19909857Y-12214714D02*
X19938428Y-12214714D01*
X19967000Y-12229000D01*
X19981286Y-12243286D01*
X19995571Y-12271857D01*
X20009857Y-12329000D01*
X20009857Y-12400429D01*
X19995571Y-12457571D01*
X19981286Y-12486143D01*
X19967000Y-12500429D01*
X19938428Y-12514714D01*
X19909857Y-12514714D01*
X19881286Y-12500429D01*
X19867000Y-12486143D01*
X19852714Y-12457571D01*
X19838428Y-12400429D01*
X19838428Y-12329000D01*
X19852714Y-12271857D01*
X19867000Y-12243286D01*
X19881286Y-12229000D01*
X19909857Y-12214714D01*
X20138428Y-12514714D02*
X20138428Y-12314714D01*
X20138428Y-12343286D02*
X20152714Y-12329000D01*
X20181286Y-12314714D01*
X20224143Y-12314714D01*
X20252714Y-12329000D01*
X20267000Y-12357571D01*
X20267000Y-12514714D01*
X20267000Y-12357571D02*
X20281286Y-12329000D01*
X20309857Y-12314714D01*
X20352714Y-12314714D01*
X20381286Y-12329000D01*
X20395571Y-12357571D01*
X20395571Y-12514714D01*
X20538428Y-12514714D02*
X20538428Y-12314714D01*
X20538428Y-12343286D02*
X20552714Y-12329000D01*
X20581286Y-12314714D01*
X20624143Y-12314714D01*
X20652714Y-12329000D01*
X20667000Y-12357571D01*
X20667000Y-12514714D01*
X20667000Y-12357571D02*
X20681286Y-12329000D01*
X20709857Y-12314714D01*
X20752714Y-12314714D01*
X20781286Y-12329000D01*
X20795571Y-12357571D01*
X20795571Y-12514714D01*
X21381286Y-12200429D02*
X21124143Y-12586143D01*
X21767000Y-12214714D02*
X21795571Y-12214714D01*
X21824143Y-12229000D01*
X21838428Y-12243286D01*
X21852714Y-12271857D01*
X21867000Y-12329000D01*
X21867000Y-12400429D01*
X21852714Y-12457571D01*
X21838428Y-12486143D01*
X21824143Y-12500429D01*
X21795571Y-12514714D01*
X21767000Y-12514714D01*
X21738428Y-12500429D01*
X21724143Y-12486143D01*
X21709857Y-12457571D01*
X21695571Y-12400429D01*
X21695571Y-12329000D01*
X21709857Y-12271857D01*
X21724143Y-12243286D01*
X21738428Y-12229000D01*
X21767000Y-12214714D01*
X21995571Y-12486143D02*
X22009857Y-12500429D01*
X21995571Y-12514714D01*
X21981286Y-12500429D01*
X21995571Y-12486143D01*
X21995571Y-12514714D01*
X22295571Y-12514714D02*
X22124143Y-12514714D01*
X22209857Y-12514714D02*
X22209857Y-12214714D01*
X22181286Y-12257571D01*
X22152714Y-12286143D01*
X22124143Y-12300429D01*
X22581286Y-12514714D02*
X22409857Y-12514714D01*
X22495571Y-12514714D02*
X22495571Y-12214714D01*
X22467000Y-12257571D01*
X22438428Y-12286143D01*
X22409857Y-12300429D01*
X22752714Y-12343286D02*
X22724143Y-12329000D01*
X22709857Y-12314714D01*
X22695571Y-12286143D01*
X22695571Y-12271857D01*
X22709857Y-12243286D01*
X22724143Y-12229000D01*
X22752714Y-12214714D01*
X22809857Y-12214714D01*
X22838428Y-12229000D01*
X22852714Y-12243286D01*
X22867000Y-12271857D01*
X22867000Y-12286143D01*
X22852714Y-12314714D01*
X22838428Y-12329000D01*
X22809857Y-12343286D01*
X22752714Y-12343286D01*
X22724143Y-12357571D01*
X22709857Y-12371857D01*
X22695571Y-12400429D01*
X22695571Y-12457571D01*
X22709857Y-12486143D01*
X22724143Y-12500429D01*
X22752714Y-12514714D01*
X22809857Y-12514714D01*
X22838428Y-12500429D01*
X22852714Y-12486143D01*
X22867000Y-12457571D01*
X22867000Y-12400429D01*
X22852714Y-12371857D01*
X22838428Y-12357571D01*
X22809857Y-12343286D01*
X22981286Y-12214714D02*
X22981286Y-12271857D01*
X23095571Y-12214714D02*
X23095571Y-12271857D01*
X23538428Y-12629000D02*
X23524143Y-12614714D01*
X23495571Y-12571857D01*
X23481286Y-12543286D01*
X23467000Y-12500429D01*
X23452714Y-12429000D01*
X23452714Y-12371857D01*
X23467000Y-12300429D01*
X23481286Y-12257571D01*
X23495571Y-12229000D01*
X23524143Y-12186143D01*
X23538428Y-12171857D01*
X23781286Y-12314714D02*
X23781286Y-12514714D01*
X23709857Y-12200429D02*
X23638428Y-12414714D01*
X23824143Y-12414714D01*
X24167000Y-12514714D02*
X24167000Y-12214714D01*
X24295571Y-12514714D02*
X24295571Y-12357571D01*
X24281286Y-12329000D01*
X24252714Y-12314714D01*
X24209857Y-12314714D01*
X24181286Y-12329000D01*
X24167000Y-12343286D01*
X24481286Y-12514714D02*
X24452714Y-12500429D01*
X24438428Y-12486143D01*
X24424143Y-12457571D01*
X24424143Y-12371857D01*
X24438428Y-12343286D01*
X24452714Y-12329000D01*
X24481286Y-12314714D01*
X24524143Y-12314714D01*
X24552714Y-12329000D01*
X24567000Y-12343286D01*
X24581286Y-12371857D01*
X24581286Y-12457571D01*
X24567000Y-12486143D01*
X24552714Y-12500429D01*
X24524143Y-12514714D01*
X24481286Y-12514714D01*
X24752714Y-12514714D02*
X24724143Y-12500429D01*
X24709857Y-12471857D01*
X24709857Y-12214714D01*
X24981286Y-12500429D02*
X24952714Y-12514714D01*
X24895571Y-12514714D01*
X24867000Y-12500429D01*
X24852714Y-12471857D01*
X24852714Y-12357571D01*
X24867000Y-12329000D01*
X24895571Y-12314714D01*
X24952714Y-12314714D01*
X24981286Y-12329000D01*
X24995571Y-12357571D01*
X24995571Y-12386143D01*
X24852714Y-12414714D01*
X25109857Y-12500429D02*
X25138428Y-12514714D01*
X25195571Y-12514714D01*
X25224143Y-12500429D01*
X25238428Y-12471857D01*
X25238428Y-12457571D01*
X25224143Y-12429000D01*
X25195571Y-12414714D01*
X25152714Y-12414714D01*
X25124143Y-12400429D01*
X25109857Y-12371857D01*
X25109857Y-12357571D01*
X25124143Y-12329000D01*
X25152714Y-12314714D01*
X25195571Y-12314714D01*
X25224143Y-12329000D01*
X25338428Y-12629000D02*
X25352714Y-12614714D01*
X25381286Y-12571857D01*
X25395571Y-12543286D01*
X25409857Y-12500429D01*
X25424143Y-12429000D01*
X25424143Y-12371857D01*
X25409857Y-12300429D01*
X25395571Y-12257571D01*
X25381286Y-12229000D01*
X25352714Y-12186143D01*
X25338428Y-12171857D01*
M02*
