G04 #@! TF.GenerationSoftware,KiCad,Pcbnew,(5.1.6)-1*
G04 #@! TF.CreationDate,2023-04-30T23:27:37+02:00*
G04 #@! TF.ProjectId,connecting-connector-1-wire,636f6e6e-6563-4746-996e-672d636f6e6e,rev?*
G04 #@! TF.SameCoordinates,Original*
G04 #@! TF.FileFunction,Legend,Bot*
G04 #@! TF.FilePolarity,Positive*
%FSLAX46Y46*%
G04 Gerber Fmt 4.6, Leading zero omitted, Abs format (unit mm)*
G04 Created by KiCad (PCBNEW (5.1.6)-1) date 2023-04-30 23:27:37*
%MOMM*%
%LPD*%
G01*
G04 APERTURE LIST*
%ADD10C,0.160000*%
%ADD11R,1.102000X1.102000*%
%ADD12C,6.102000*%
%ADD13C,0.902000*%
%ADD14C,0.100000*%
%ADD15R,0.902000X0.902000*%
%ADD16R,3.602000X3.602000*%
%ADD17C,3.602000*%
%ADD18C,1.602000*%
%ADD19C,3.402000*%
%ADD20R,1.002000X1.002000*%
G04 APERTURE END LIST*
D10*
X202565000Y-78742000D02*
X202565000Y-80202000D01*
X205867000Y-78742000D02*
X205867000Y-80264000D01*
X205867000Y-78742000D02*
X204937000Y-78742000D01*
X202565000Y-78742000D02*
X203495000Y-78742000D01*
X204470000Y-80391000D02*
X203962000Y-80391000D01*
X205908000Y-81878000D02*
X201508000Y-81878000D01*
X201508000Y-81878000D02*
X201508000Y-84238000D01*
X201508000Y-84238000D02*
X205908000Y-84238000D01*
X205908000Y-84238000D02*
X205908000Y-81878000D01*
X216322000Y-86450000D02*
X211922000Y-86450000D01*
X211922000Y-86450000D02*
X211922000Y-88810000D01*
X211922000Y-88810000D02*
X216322000Y-88810000D01*
X216322000Y-88810000D02*
X216322000Y-86450000D01*
X216090500Y-83986000D02*
X213072000Y-83986000D01*
X216090500Y-85686000D02*
X213072000Y-85686000D01*
X216090500Y-83986000D02*
X216090500Y-85686000D01*
X194400000Y-79080000D02*
X194400000Y-83480000D01*
X196760000Y-83480000D02*
X196760000Y-79080000D01*
X196760000Y-79080000D02*
X194400000Y-79080000D01*
X194400000Y-83480000D02*
X196760000Y-83480000D01*
X200318000Y-77978000D02*
X202018000Y-77978000D01*
X202018000Y-77978000D02*
X202018000Y-80552000D01*
X200318000Y-77978000D02*
X200318000Y-80552000D01*
X207303619Y-79152761D02*
X207256000Y-79057523D01*
X207160761Y-78962285D01*
X207017904Y-78819428D01*
X206970285Y-78724190D01*
X206970285Y-78628952D01*
X207208380Y-78676571D02*
X207160761Y-78581333D01*
X207065523Y-78486095D01*
X206875047Y-78438476D01*
X206541714Y-78438476D01*
X206351238Y-78486095D01*
X206256000Y-78581333D01*
X206208380Y-78676571D01*
X206208380Y-78867047D01*
X206256000Y-78962285D01*
X206351238Y-79057523D01*
X206541714Y-79105142D01*
X206875047Y-79105142D01*
X207065523Y-79057523D01*
X207160761Y-78962285D01*
X207208380Y-78867047D01*
X207208380Y-78676571D01*
X207208380Y-80057523D02*
X207208380Y-79486095D01*
X207208380Y-79771809D02*
X206208380Y-79771809D01*
X206351238Y-79676571D01*
X206446476Y-79581333D01*
X206494095Y-79486095D01*
X200572666Y-83510380D02*
X200906000Y-83034190D01*
X201144095Y-83510380D02*
X201144095Y-82510380D01*
X200763142Y-82510380D01*
X200667904Y-82558000D01*
X200620285Y-82605619D01*
X200572666Y-82700857D01*
X200572666Y-82843714D01*
X200620285Y-82938952D01*
X200667904Y-82986571D01*
X200763142Y-83034190D01*
X201144095Y-83034190D01*
X200191714Y-82605619D02*
X200144095Y-82558000D01*
X200048857Y-82510380D01*
X199810761Y-82510380D01*
X199715523Y-82558000D01*
X199667904Y-82605619D01*
X199620285Y-82700857D01*
X199620285Y-82796095D01*
X199667904Y-82938952D01*
X200239333Y-83510380D01*
X199620285Y-83510380D01*
X214034666Y-90114380D02*
X214368000Y-89638190D01*
X214606095Y-90114380D02*
X214606095Y-89114380D01*
X214225142Y-89114380D01*
X214129904Y-89162000D01*
X214082285Y-89209619D01*
X214034666Y-89304857D01*
X214034666Y-89447714D01*
X214082285Y-89542952D01*
X214129904Y-89590571D01*
X214225142Y-89638190D01*
X214606095Y-89638190D01*
X213082285Y-90114380D02*
X213653714Y-90114380D01*
X213368000Y-90114380D02*
X213368000Y-89114380D01*
X213463238Y-89257238D01*
X213558476Y-89352476D01*
X213653714Y-89400095D01*
X214606095Y-83510380D02*
X214606095Y-82510380D01*
X214368000Y-82510380D01*
X214225142Y-82558000D01*
X214129904Y-82653238D01*
X214082285Y-82748476D01*
X214034666Y-82938952D01*
X214034666Y-83081809D01*
X214082285Y-83272285D01*
X214129904Y-83367523D01*
X214225142Y-83462761D01*
X214368000Y-83510380D01*
X214606095Y-83510380D01*
X213701333Y-82510380D02*
X213082285Y-82510380D01*
X213415619Y-82891333D01*
X213272761Y-82891333D01*
X213177523Y-82938952D01*
X213129904Y-82986571D01*
X213082285Y-83081809D01*
X213082285Y-83319904D01*
X213129904Y-83415142D01*
X213177523Y-83462761D01*
X213272761Y-83510380D01*
X213558476Y-83510380D01*
X213653714Y-83462761D01*
X213701333Y-83415142D01*
X195937142Y-77938333D02*
X195984761Y-77890714D01*
X196032380Y-77747857D01*
X196032380Y-77652619D01*
X195984761Y-77509761D01*
X195889523Y-77414523D01*
X195794285Y-77366904D01*
X195603809Y-77319285D01*
X195460952Y-77319285D01*
X195270476Y-77366904D01*
X195175238Y-77414523D01*
X195080000Y-77509761D01*
X195032380Y-77652619D01*
X195032380Y-77747857D01*
X195080000Y-77890714D01*
X195127619Y-77938333D01*
X196032380Y-78890714D02*
X196032380Y-78319285D01*
X196032380Y-78605000D02*
X195032380Y-78605000D01*
X195175238Y-78509761D01*
X195270476Y-78414523D01*
X195318095Y-78319285D01*
X201620380Y-75969904D02*
X200620380Y-75969904D01*
X200620380Y-76208000D01*
X200668000Y-76350857D01*
X200763238Y-76446095D01*
X200858476Y-76493714D01*
X201048952Y-76541333D01*
X201191809Y-76541333D01*
X201382285Y-76493714D01*
X201477523Y-76446095D01*
X201572761Y-76350857D01*
X201620380Y-76208000D01*
X201620380Y-75969904D01*
X201620380Y-77493714D02*
X201620380Y-76922285D01*
X201620380Y-77208000D02*
X200620380Y-77208000D01*
X200763238Y-77112761D01*
X200858476Y-77017523D01*
X200906095Y-76922285D01*
%LPC*%
D11*
X204216000Y-78302000D03*
X203266000Y-80502000D03*
X205166000Y-80502000D03*
D12*
X192532000Y-98298000D03*
X220980000Y-98298000D03*
X220980000Y-72390000D03*
X192278000Y-72390000D03*
D13*
X198628000Y-89662000D03*
D14*
G36*
X204277000Y-84009000D02*
G01*
X204277000Y-82107000D01*
X205679000Y-82107000D01*
X205679000Y-84009000D01*
X204277000Y-84009000D01*
G37*
G36*
X201737000Y-84009000D02*
G01*
X201737000Y-82107000D01*
X203139000Y-82107000D01*
X203139000Y-84009000D01*
X201737000Y-84009000D01*
G37*
G36*
X214691000Y-88581000D02*
G01*
X214691000Y-86679000D01*
X216093000Y-86679000D01*
X216093000Y-88581000D01*
X214691000Y-88581000D01*
G37*
G36*
X212151000Y-88581000D02*
G01*
X212151000Y-86679000D01*
X213553000Y-86679000D01*
X213553000Y-88581000D01*
X212151000Y-88581000D01*
G37*
D15*
X215392000Y-84836000D03*
X212852000Y-84836000D03*
D14*
G36*
X194629000Y-81849000D02*
G01*
X196531000Y-81849000D01*
X196531000Y-83251000D01*
X194629000Y-83251000D01*
X194629000Y-81849000D01*
G37*
G36*
X194629000Y-79309000D02*
G01*
X196531000Y-79309000D01*
X196531000Y-80711000D01*
X194629000Y-80711000D01*
X194629000Y-79309000D01*
G37*
D16*
X191770000Y-80645000D03*
D17*
X191770000Y-90805000D03*
X191770000Y-85725000D03*
D18*
X210820000Y-87629000D03*
X208280000Y-81279000D03*
D19*
X217170000Y-91441000D03*
D18*
X210820000Y-82549000D03*
X208280000Y-88899000D03*
X210820000Y-85089000D03*
X208280000Y-86359000D03*
X208280000Y-83819000D03*
X210820000Y-90169000D03*
D19*
X217170000Y-80009000D03*
D20*
X201168000Y-80227000D03*
X201168000Y-78777000D03*
M02*
