%TF.GenerationSoftware,KiCad,Pcbnew,7.0.9*%
%TF.CreationDate,2023-12-23T15:45:47+01:00*%
%TF.ProjectId,connecting-connector-1-wire,636f6e6e-6563-4746-996e-672d636f6e6e,v1.0*%
%TF.SameCoordinates,Original*%
%TF.FileFunction,Drillmap*%
%TF.FilePolarity,Positive*%
%FSLAX45Y45*%
G04 Gerber Fmt 4.5, Leading zero omitted, Abs format (unit mm)*
G04 Created by KiCad (PCBNEW 7.0.9) date 2023-12-23 15:45:47*
%MOMM*%
%LPD*%
G01*
G04 APERTURE LIST*
%ADD10C,0.150000*%
%ADD11C,0.200000*%
%ADD12C,0.100000*%
%ADD13C,0.120000*%
%ADD14C,0.300000*%
G04 APERTURE END LIST*
D10*
X12425100Y-10126400D02*
X12425100Y-6760900D01*
X16044600Y-6760900D02*
X16044600Y-10126400D01*
X12425100Y-6760900D02*
X16044600Y-6760900D01*
X16044600Y-10126400D02*
X12425100Y-10126400D01*
D11*
D12*
X13408400Y-8849100D02*
X13448400Y-8889100D01*
X13448400Y-8849100D02*
X13408400Y-8889100D01*
X14433600Y-8030800D02*
G75*
G03*
X14433600Y-8030800I-40000J0D01*
G01*
X14433600Y-8284800D02*
G75*
G03*
X14433600Y-8284800I-40000J0D01*
G01*
X14433600Y-8538800D02*
G75*
G03*
X14433600Y-8538800I-40000J0D01*
G01*
X14433600Y-8792800D02*
G75*
G03*
X14433600Y-8792800I-40000J0D01*
G01*
X14687600Y-8157800D02*
G75*
G03*
X14687600Y-8157800I-40000J0D01*
G01*
X14687600Y-8411800D02*
G75*
G03*
X14687600Y-8411800I-40000J0D01*
G01*
X14687600Y-8665800D02*
G75*
G03*
X14687600Y-8665800I-40000J0D01*
G01*
X14687600Y-8919800D02*
G75*
G03*
X14687600Y-8919800I-40000J0D01*
G01*
D13*
X12742600Y-7907400D02*
X12742600Y-8027400D01*
X12682600Y-7967400D02*
X12802600Y-7967400D01*
X12742600Y-8415400D02*
X12742600Y-8535400D01*
X12682600Y-8475400D02*
X12802600Y-8475400D01*
X12742600Y-8923400D02*
X12742600Y-9043400D01*
X12682600Y-8983400D02*
X12802600Y-8983400D01*
D14*
X12899467Y-7247967D02*
X12899467Y-7035833D01*
X12687333Y-7035833D01*
X12687333Y-7247967D01*
X12899467Y-7247967D01*
X12924867Y-9838767D02*
X12924867Y-9626633D01*
X12712733Y-9626633D01*
X12712733Y-9838767D01*
X12924867Y-9838767D01*
X15769667Y-7247967D02*
X15769667Y-7035833D01*
X15557533Y-7035833D01*
X15557533Y-7247967D01*
X15769667Y-7247967D01*
X15769667Y-9838767D02*
X15769667Y-9626633D01*
X15557533Y-9626633D01*
X15557533Y-9838767D01*
X15769667Y-9838767D01*
D11*
X12678377Y-10445384D02*
X12678377Y-10245384D01*
X12678377Y-10245384D02*
X12725996Y-10245384D01*
X12725996Y-10245384D02*
X12754567Y-10254908D01*
X12754567Y-10254908D02*
X12773615Y-10273955D01*
X12773615Y-10273955D02*
X12783139Y-10293003D01*
X12783139Y-10293003D02*
X12792662Y-10331098D01*
X12792662Y-10331098D02*
X12792662Y-10359670D01*
X12792662Y-10359670D02*
X12783139Y-10397765D01*
X12783139Y-10397765D02*
X12773615Y-10416812D01*
X12773615Y-10416812D02*
X12754567Y-10435860D01*
X12754567Y-10435860D02*
X12725996Y-10445384D01*
X12725996Y-10445384D02*
X12678377Y-10445384D01*
X12878377Y-10445384D02*
X12878377Y-10312050D01*
X12878377Y-10350146D02*
X12887901Y-10331098D01*
X12887901Y-10331098D02*
X12897424Y-10321574D01*
X12897424Y-10321574D02*
X12916472Y-10312050D01*
X12916472Y-10312050D02*
X12935520Y-10312050D01*
X13002186Y-10445384D02*
X13002186Y-10312050D01*
X13002186Y-10245384D02*
X12992662Y-10254908D01*
X12992662Y-10254908D02*
X13002186Y-10264431D01*
X13002186Y-10264431D02*
X13011710Y-10254908D01*
X13011710Y-10254908D02*
X13002186Y-10245384D01*
X13002186Y-10245384D02*
X13002186Y-10264431D01*
X13125996Y-10445384D02*
X13106948Y-10435860D01*
X13106948Y-10435860D02*
X13097424Y-10416812D01*
X13097424Y-10416812D02*
X13097424Y-10245384D01*
X13230758Y-10445384D02*
X13211710Y-10435860D01*
X13211710Y-10435860D02*
X13202186Y-10416812D01*
X13202186Y-10416812D02*
X13202186Y-10245384D01*
X13459329Y-10445384D02*
X13459329Y-10245384D01*
X13459329Y-10245384D02*
X13525996Y-10388241D01*
X13525996Y-10388241D02*
X13592662Y-10245384D01*
X13592662Y-10245384D02*
X13592662Y-10445384D01*
X13773615Y-10445384D02*
X13773615Y-10340622D01*
X13773615Y-10340622D02*
X13764091Y-10321574D01*
X13764091Y-10321574D02*
X13745043Y-10312050D01*
X13745043Y-10312050D02*
X13706948Y-10312050D01*
X13706948Y-10312050D02*
X13687901Y-10321574D01*
X13773615Y-10435860D02*
X13754567Y-10445384D01*
X13754567Y-10445384D02*
X13706948Y-10445384D01*
X13706948Y-10445384D02*
X13687901Y-10435860D01*
X13687901Y-10435860D02*
X13678377Y-10416812D01*
X13678377Y-10416812D02*
X13678377Y-10397765D01*
X13678377Y-10397765D02*
X13687901Y-10378717D01*
X13687901Y-10378717D02*
X13706948Y-10369193D01*
X13706948Y-10369193D02*
X13754567Y-10369193D01*
X13754567Y-10369193D02*
X13773615Y-10359670D01*
X13868853Y-10312050D02*
X13868853Y-10512050D01*
X13868853Y-10321574D02*
X13887901Y-10312050D01*
X13887901Y-10312050D02*
X13925996Y-10312050D01*
X13925996Y-10312050D02*
X13945043Y-10321574D01*
X13945043Y-10321574D02*
X13954567Y-10331098D01*
X13954567Y-10331098D02*
X13964091Y-10350146D01*
X13964091Y-10350146D02*
X13964091Y-10407289D01*
X13964091Y-10407289D02*
X13954567Y-10426336D01*
X13954567Y-10426336D02*
X13945043Y-10435860D01*
X13945043Y-10435860D02*
X13925996Y-10445384D01*
X13925996Y-10445384D02*
X13887901Y-10445384D01*
X13887901Y-10445384D02*
X13868853Y-10435860D01*
X14049805Y-10426336D02*
X14059329Y-10435860D01*
X14059329Y-10435860D02*
X14049805Y-10445384D01*
X14049805Y-10445384D02*
X14040282Y-10435860D01*
X14040282Y-10435860D02*
X14049805Y-10426336D01*
X14049805Y-10426336D02*
X14049805Y-10445384D01*
X14049805Y-10321574D02*
X14059329Y-10331098D01*
X14059329Y-10331098D02*
X14049805Y-10340622D01*
X14049805Y-10340622D02*
X14040282Y-10331098D01*
X14040282Y-10331098D02*
X14049805Y-10321574D01*
X14049805Y-10321574D02*
X14049805Y-10340622D01*
D12*
X12377600Y-10753900D02*
X12417600Y-10793900D01*
X12417600Y-10753900D02*
X12377600Y-10793900D01*
D11*
X12716472Y-10665384D02*
X12735520Y-10665384D01*
X12735520Y-10665384D02*
X12754567Y-10674908D01*
X12754567Y-10674908D02*
X12764091Y-10684431D01*
X12764091Y-10684431D02*
X12773615Y-10703479D01*
X12773615Y-10703479D02*
X12783139Y-10741574D01*
X12783139Y-10741574D02*
X12783139Y-10789193D01*
X12783139Y-10789193D02*
X12773615Y-10827289D01*
X12773615Y-10827289D02*
X12764091Y-10846336D01*
X12764091Y-10846336D02*
X12754567Y-10855860D01*
X12754567Y-10855860D02*
X12735520Y-10865384D01*
X12735520Y-10865384D02*
X12716472Y-10865384D01*
X12716472Y-10865384D02*
X12697424Y-10855860D01*
X12697424Y-10855860D02*
X12687901Y-10846336D01*
X12687901Y-10846336D02*
X12678377Y-10827289D01*
X12678377Y-10827289D02*
X12668853Y-10789193D01*
X12668853Y-10789193D02*
X12668853Y-10741574D01*
X12668853Y-10741574D02*
X12678377Y-10703479D01*
X12678377Y-10703479D02*
X12687901Y-10684431D01*
X12687901Y-10684431D02*
X12697424Y-10674908D01*
X12697424Y-10674908D02*
X12716472Y-10665384D01*
X12868853Y-10846336D02*
X12878377Y-10855860D01*
X12878377Y-10855860D02*
X12868853Y-10865384D01*
X12868853Y-10865384D02*
X12859329Y-10855860D01*
X12859329Y-10855860D02*
X12868853Y-10846336D01*
X12868853Y-10846336D02*
X12868853Y-10865384D01*
X13049805Y-10732050D02*
X13049805Y-10865384D01*
X13002186Y-10655860D02*
X12954567Y-10798717D01*
X12954567Y-10798717D02*
X13078377Y-10798717D01*
X13192662Y-10665384D02*
X13211710Y-10665384D01*
X13211710Y-10665384D02*
X13230758Y-10674908D01*
X13230758Y-10674908D02*
X13240282Y-10684431D01*
X13240282Y-10684431D02*
X13249805Y-10703479D01*
X13249805Y-10703479D02*
X13259329Y-10741574D01*
X13259329Y-10741574D02*
X13259329Y-10789193D01*
X13259329Y-10789193D02*
X13249805Y-10827289D01*
X13249805Y-10827289D02*
X13240282Y-10846336D01*
X13240282Y-10846336D02*
X13230758Y-10855860D01*
X13230758Y-10855860D02*
X13211710Y-10865384D01*
X13211710Y-10865384D02*
X13192662Y-10865384D01*
X13192662Y-10865384D02*
X13173615Y-10855860D01*
X13173615Y-10855860D02*
X13164091Y-10846336D01*
X13164091Y-10846336D02*
X13154567Y-10827289D01*
X13154567Y-10827289D02*
X13145043Y-10789193D01*
X13145043Y-10789193D02*
X13145043Y-10741574D01*
X13145043Y-10741574D02*
X13154567Y-10703479D01*
X13154567Y-10703479D02*
X13164091Y-10684431D01*
X13164091Y-10684431D02*
X13173615Y-10674908D01*
X13173615Y-10674908D02*
X13192662Y-10665384D01*
X13383139Y-10665384D02*
X13402186Y-10665384D01*
X13402186Y-10665384D02*
X13421234Y-10674908D01*
X13421234Y-10674908D02*
X13430758Y-10684431D01*
X13430758Y-10684431D02*
X13440282Y-10703479D01*
X13440282Y-10703479D02*
X13449805Y-10741574D01*
X13449805Y-10741574D02*
X13449805Y-10789193D01*
X13449805Y-10789193D02*
X13440282Y-10827289D01*
X13440282Y-10827289D02*
X13430758Y-10846336D01*
X13430758Y-10846336D02*
X13421234Y-10855860D01*
X13421234Y-10855860D02*
X13402186Y-10865384D01*
X13402186Y-10865384D02*
X13383139Y-10865384D01*
X13383139Y-10865384D02*
X13364091Y-10855860D01*
X13364091Y-10855860D02*
X13354567Y-10846336D01*
X13354567Y-10846336D02*
X13345043Y-10827289D01*
X13345043Y-10827289D02*
X13335520Y-10789193D01*
X13335520Y-10789193D02*
X13335520Y-10741574D01*
X13335520Y-10741574D02*
X13345043Y-10703479D01*
X13345043Y-10703479D02*
X13354567Y-10684431D01*
X13354567Y-10684431D02*
X13364091Y-10674908D01*
X13364091Y-10674908D02*
X13383139Y-10665384D01*
X13535520Y-10865384D02*
X13535520Y-10732050D01*
X13535520Y-10751098D02*
X13545043Y-10741574D01*
X13545043Y-10741574D02*
X13564091Y-10732050D01*
X13564091Y-10732050D02*
X13592663Y-10732050D01*
X13592663Y-10732050D02*
X13611710Y-10741574D01*
X13611710Y-10741574D02*
X13621234Y-10760622D01*
X13621234Y-10760622D02*
X13621234Y-10865384D01*
X13621234Y-10760622D02*
X13630758Y-10741574D01*
X13630758Y-10741574D02*
X13649805Y-10732050D01*
X13649805Y-10732050D02*
X13678377Y-10732050D01*
X13678377Y-10732050D02*
X13697424Y-10741574D01*
X13697424Y-10741574D02*
X13706948Y-10760622D01*
X13706948Y-10760622D02*
X13706948Y-10865384D01*
X13802186Y-10865384D02*
X13802186Y-10732050D01*
X13802186Y-10751098D02*
X13811710Y-10741574D01*
X13811710Y-10741574D02*
X13830758Y-10732050D01*
X13830758Y-10732050D02*
X13859329Y-10732050D01*
X13859329Y-10732050D02*
X13878377Y-10741574D01*
X13878377Y-10741574D02*
X13887901Y-10760622D01*
X13887901Y-10760622D02*
X13887901Y-10865384D01*
X13887901Y-10760622D02*
X13897424Y-10741574D01*
X13897424Y-10741574D02*
X13916472Y-10732050D01*
X13916472Y-10732050D02*
X13945043Y-10732050D01*
X13945043Y-10732050D02*
X13964091Y-10741574D01*
X13964091Y-10741574D02*
X13973615Y-10760622D01*
X13973615Y-10760622D02*
X13973615Y-10865384D01*
X14364091Y-10655860D02*
X14192663Y-10913003D01*
X14621234Y-10665384D02*
X14640282Y-10665384D01*
X14640282Y-10665384D02*
X14659329Y-10674908D01*
X14659329Y-10674908D02*
X14668853Y-10684431D01*
X14668853Y-10684431D02*
X14678377Y-10703479D01*
X14678377Y-10703479D02*
X14687901Y-10741574D01*
X14687901Y-10741574D02*
X14687901Y-10789193D01*
X14687901Y-10789193D02*
X14678377Y-10827289D01*
X14678377Y-10827289D02*
X14668853Y-10846336D01*
X14668853Y-10846336D02*
X14659329Y-10855860D01*
X14659329Y-10855860D02*
X14640282Y-10865384D01*
X14640282Y-10865384D02*
X14621234Y-10865384D01*
X14621234Y-10865384D02*
X14602186Y-10855860D01*
X14602186Y-10855860D02*
X14592663Y-10846336D01*
X14592663Y-10846336D02*
X14583139Y-10827289D01*
X14583139Y-10827289D02*
X14573615Y-10789193D01*
X14573615Y-10789193D02*
X14573615Y-10741574D01*
X14573615Y-10741574D02*
X14583139Y-10703479D01*
X14583139Y-10703479D02*
X14592663Y-10684431D01*
X14592663Y-10684431D02*
X14602186Y-10674908D01*
X14602186Y-10674908D02*
X14621234Y-10665384D01*
X14773615Y-10846336D02*
X14783139Y-10855860D01*
X14783139Y-10855860D02*
X14773615Y-10865384D01*
X14773615Y-10865384D02*
X14764091Y-10855860D01*
X14764091Y-10855860D02*
X14773615Y-10846336D01*
X14773615Y-10846336D02*
X14773615Y-10865384D01*
X14906948Y-10665384D02*
X14925996Y-10665384D01*
X14925996Y-10665384D02*
X14945044Y-10674908D01*
X14945044Y-10674908D02*
X14954567Y-10684431D01*
X14954567Y-10684431D02*
X14964091Y-10703479D01*
X14964091Y-10703479D02*
X14973615Y-10741574D01*
X14973615Y-10741574D02*
X14973615Y-10789193D01*
X14973615Y-10789193D02*
X14964091Y-10827289D01*
X14964091Y-10827289D02*
X14954567Y-10846336D01*
X14954567Y-10846336D02*
X14945044Y-10855860D01*
X14945044Y-10855860D02*
X14925996Y-10865384D01*
X14925996Y-10865384D02*
X14906948Y-10865384D01*
X14906948Y-10865384D02*
X14887901Y-10855860D01*
X14887901Y-10855860D02*
X14878377Y-10846336D01*
X14878377Y-10846336D02*
X14868853Y-10827289D01*
X14868853Y-10827289D02*
X14859329Y-10789193D01*
X14859329Y-10789193D02*
X14859329Y-10741574D01*
X14859329Y-10741574D02*
X14868853Y-10703479D01*
X14868853Y-10703479D02*
X14878377Y-10684431D01*
X14878377Y-10684431D02*
X14887901Y-10674908D01*
X14887901Y-10674908D02*
X14906948Y-10665384D01*
X15164091Y-10865384D02*
X15049806Y-10865384D01*
X15106948Y-10865384D02*
X15106948Y-10665384D01*
X15106948Y-10665384D02*
X15087901Y-10693955D01*
X15087901Y-10693955D02*
X15068853Y-10713003D01*
X15068853Y-10713003D02*
X15049806Y-10722527D01*
X15345044Y-10665384D02*
X15249806Y-10665384D01*
X15249806Y-10665384D02*
X15240282Y-10760622D01*
X15240282Y-10760622D02*
X15249806Y-10751098D01*
X15249806Y-10751098D02*
X15268853Y-10741574D01*
X15268853Y-10741574D02*
X15316472Y-10741574D01*
X15316472Y-10741574D02*
X15335520Y-10751098D01*
X15335520Y-10751098D02*
X15345044Y-10760622D01*
X15345044Y-10760622D02*
X15354567Y-10779670D01*
X15354567Y-10779670D02*
X15354567Y-10827289D01*
X15354567Y-10827289D02*
X15345044Y-10846336D01*
X15345044Y-10846336D02*
X15335520Y-10855860D01*
X15335520Y-10855860D02*
X15316472Y-10865384D01*
X15316472Y-10865384D02*
X15268853Y-10865384D01*
X15268853Y-10865384D02*
X15249806Y-10855860D01*
X15249806Y-10855860D02*
X15240282Y-10846336D01*
X15421234Y-10665384D02*
X15554567Y-10665384D01*
X15554567Y-10665384D02*
X15468853Y-10865384D01*
X15621234Y-10665384D02*
X15621234Y-10703479D01*
X15697425Y-10665384D02*
X15697425Y-10703479D01*
X15992663Y-10941574D02*
X15983139Y-10932050D01*
X15983139Y-10932050D02*
X15964091Y-10903479D01*
X15964091Y-10903479D02*
X15954568Y-10884431D01*
X15954568Y-10884431D02*
X15945044Y-10855860D01*
X15945044Y-10855860D02*
X15935520Y-10808241D01*
X15935520Y-10808241D02*
X15935520Y-10770146D01*
X15935520Y-10770146D02*
X15945044Y-10722527D01*
X15945044Y-10722527D02*
X15954568Y-10693955D01*
X15954568Y-10693955D02*
X15964091Y-10674908D01*
X15964091Y-10674908D02*
X15983139Y-10646336D01*
X15983139Y-10646336D02*
X15992663Y-10636812D01*
X16173615Y-10865384D02*
X16059329Y-10865384D01*
X16116472Y-10865384D02*
X16116472Y-10665384D01*
X16116472Y-10665384D02*
X16097425Y-10693955D01*
X16097425Y-10693955D02*
X16078377Y-10713003D01*
X16078377Y-10713003D02*
X16059329Y-10722527D01*
X16411710Y-10865384D02*
X16411710Y-10665384D01*
X16497425Y-10865384D02*
X16497425Y-10760622D01*
X16497425Y-10760622D02*
X16487901Y-10741574D01*
X16487901Y-10741574D02*
X16468853Y-10732050D01*
X16468853Y-10732050D02*
X16440282Y-10732050D01*
X16440282Y-10732050D02*
X16421234Y-10741574D01*
X16421234Y-10741574D02*
X16411710Y-10751098D01*
X16621234Y-10865384D02*
X16602187Y-10855860D01*
X16602187Y-10855860D02*
X16592663Y-10846336D01*
X16592663Y-10846336D02*
X16583139Y-10827289D01*
X16583139Y-10827289D02*
X16583139Y-10770146D01*
X16583139Y-10770146D02*
X16592663Y-10751098D01*
X16592663Y-10751098D02*
X16602187Y-10741574D01*
X16602187Y-10741574D02*
X16621234Y-10732050D01*
X16621234Y-10732050D02*
X16649806Y-10732050D01*
X16649806Y-10732050D02*
X16668853Y-10741574D01*
X16668853Y-10741574D02*
X16678377Y-10751098D01*
X16678377Y-10751098D02*
X16687901Y-10770146D01*
X16687901Y-10770146D02*
X16687901Y-10827289D01*
X16687901Y-10827289D02*
X16678377Y-10846336D01*
X16678377Y-10846336D02*
X16668853Y-10855860D01*
X16668853Y-10855860D02*
X16649806Y-10865384D01*
X16649806Y-10865384D02*
X16621234Y-10865384D01*
X16802187Y-10865384D02*
X16783139Y-10855860D01*
X16783139Y-10855860D02*
X16773615Y-10836812D01*
X16773615Y-10836812D02*
X16773615Y-10665384D01*
X16954568Y-10855860D02*
X16935520Y-10865384D01*
X16935520Y-10865384D02*
X16897425Y-10865384D01*
X16897425Y-10865384D02*
X16878377Y-10855860D01*
X16878377Y-10855860D02*
X16868853Y-10836812D01*
X16868853Y-10836812D02*
X16868853Y-10760622D01*
X16868853Y-10760622D02*
X16878377Y-10741574D01*
X16878377Y-10741574D02*
X16897425Y-10732050D01*
X16897425Y-10732050D02*
X16935520Y-10732050D01*
X16935520Y-10732050D02*
X16954568Y-10741574D01*
X16954568Y-10741574D02*
X16964092Y-10760622D01*
X16964092Y-10760622D02*
X16964092Y-10779670D01*
X16964092Y-10779670D02*
X16868853Y-10798717D01*
X17030758Y-10941574D02*
X17040282Y-10932050D01*
X17040282Y-10932050D02*
X17059330Y-10903479D01*
X17059330Y-10903479D02*
X17068853Y-10884431D01*
X17068853Y-10884431D02*
X17078377Y-10855860D01*
X17078377Y-10855860D02*
X17087901Y-10808241D01*
X17087901Y-10808241D02*
X17087901Y-10770146D01*
X17087901Y-10770146D02*
X17078377Y-10722527D01*
X17078377Y-10722527D02*
X17068853Y-10693955D01*
X17068853Y-10693955D02*
X17059330Y-10674908D01*
X17059330Y-10674908D02*
X17040282Y-10646336D01*
X17040282Y-10646336D02*
X17030758Y-10636812D01*
D12*
X12417600Y-11037900D02*
G75*
G03*
X12417600Y-11037900I-40000J0D01*
G01*
D11*
X12716472Y-10929384D02*
X12735520Y-10929384D01*
X12735520Y-10929384D02*
X12754567Y-10938908D01*
X12754567Y-10938908D02*
X12764091Y-10948431D01*
X12764091Y-10948431D02*
X12773615Y-10967479D01*
X12773615Y-10967479D02*
X12783139Y-11005574D01*
X12783139Y-11005574D02*
X12783139Y-11053193D01*
X12783139Y-11053193D02*
X12773615Y-11091289D01*
X12773615Y-11091289D02*
X12764091Y-11110336D01*
X12764091Y-11110336D02*
X12754567Y-11119860D01*
X12754567Y-11119860D02*
X12735520Y-11129384D01*
X12735520Y-11129384D02*
X12716472Y-11129384D01*
X12716472Y-11129384D02*
X12697424Y-11119860D01*
X12697424Y-11119860D02*
X12687901Y-11110336D01*
X12687901Y-11110336D02*
X12678377Y-11091289D01*
X12678377Y-11091289D02*
X12668853Y-11053193D01*
X12668853Y-11053193D02*
X12668853Y-11005574D01*
X12668853Y-11005574D02*
X12678377Y-10967479D01*
X12678377Y-10967479D02*
X12687901Y-10948431D01*
X12687901Y-10948431D02*
X12697424Y-10938908D01*
X12697424Y-10938908D02*
X12716472Y-10929384D01*
X12868853Y-11110336D02*
X12878377Y-11119860D01*
X12878377Y-11119860D02*
X12868853Y-11129384D01*
X12868853Y-11129384D02*
X12859329Y-11119860D01*
X12859329Y-11119860D02*
X12868853Y-11110336D01*
X12868853Y-11110336D02*
X12868853Y-11129384D01*
X12992662Y-11015098D02*
X12973615Y-11005574D01*
X12973615Y-11005574D02*
X12964091Y-10996050D01*
X12964091Y-10996050D02*
X12954567Y-10977003D01*
X12954567Y-10977003D02*
X12954567Y-10967479D01*
X12954567Y-10967479D02*
X12964091Y-10948431D01*
X12964091Y-10948431D02*
X12973615Y-10938908D01*
X12973615Y-10938908D02*
X12992662Y-10929384D01*
X12992662Y-10929384D02*
X13030758Y-10929384D01*
X13030758Y-10929384D02*
X13049805Y-10938908D01*
X13049805Y-10938908D02*
X13059329Y-10948431D01*
X13059329Y-10948431D02*
X13068853Y-10967479D01*
X13068853Y-10967479D02*
X13068853Y-10977003D01*
X13068853Y-10977003D02*
X13059329Y-10996050D01*
X13059329Y-10996050D02*
X13049805Y-11005574D01*
X13049805Y-11005574D02*
X13030758Y-11015098D01*
X13030758Y-11015098D02*
X12992662Y-11015098D01*
X12992662Y-11015098D02*
X12973615Y-11024622D01*
X12973615Y-11024622D02*
X12964091Y-11034146D01*
X12964091Y-11034146D02*
X12954567Y-11053193D01*
X12954567Y-11053193D02*
X12954567Y-11091289D01*
X12954567Y-11091289D02*
X12964091Y-11110336D01*
X12964091Y-11110336D02*
X12973615Y-11119860D01*
X12973615Y-11119860D02*
X12992662Y-11129384D01*
X12992662Y-11129384D02*
X13030758Y-11129384D01*
X13030758Y-11129384D02*
X13049805Y-11119860D01*
X13049805Y-11119860D02*
X13059329Y-11110336D01*
X13059329Y-11110336D02*
X13068853Y-11091289D01*
X13068853Y-11091289D02*
X13068853Y-11053193D01*
X13068853Y-11053193D02*
X13059329Y-11034146D01*
X13059329Y-11034146D02*
X13049805Y-11024622D01*
X13049805Y-11024622D02*
X13030758Y-11015098D01*
X13192662Y-10929384D02*
X13211710Y-10929384D01*
X13211710Y-10929384D02*
X13230758Y-10938908D01*
X13230758Y-10938908D02*
X13240282Y-10948431D01*
X13240282Y-10948431D02*
X13249805Y-10967479D01*
X13249805Y-10967479D02*
X13259329Y-11005574D01*
X13259329Y-11005574D02*
X13259329Y-11053193D01*
X13259329Y-11053193D02*
X13249805Y-11091289D01*
X13249805Y-11091289D02*
X13240282Y-11110336D01*
X13240282Y-11110336D02*
X13230758Y-11119860D01*
X13230758Y-11119860D02*
X13211710Y-11129384D01*
X13211710Y-11129384D02*
X13192662Y-11129384D01*
X13192662Y-11129384D02*
X13173615Y-11119860D01*
X13173615Y-11119860D02*
X13164091Y-11110336D01*
X13164091Y-11110336D02*
X13154567Y-11091289D01*
X13154567Y-11091289D02*
X13145043Y-11053193D01*
X13145043Y-11053193D02*
X13145043Y-11005574D01*
X13145043Y-11005574D02*
X13154567Y-10967479D01*
X13154567Y-10967479D02*
X13164091Y-10948431D01*
X13164091Y-10948431D02*
X13173615Y-10938908D01*
X13173615Y-10938908D02*
X13192662Y-10929384D01*
X13383139Y-10929384D02*
X13402186Y-10929384D01*
X13402186Y-10929384D02*
X13421234Y-10938908D01*
X13421234Y-10938908D02*
X13430758Y-10948431D01*
X13430758Y-10948431D02*
X13440282Y-10967479D01*
X13440282Y-10967479D02*
X13449805Y-11005574D01*
X13449805Y-11005574D02*
X13449805Y-11053193D01*
X13449805Y-11053193D02*
X13440282Y-11091289D01*
X13440282Y-11091289D02*
X13430758Y-11110336D01*
X13430758Y-11110336D02*
X13421234Y-11119860D01*
X13421234Y-11119860D02*
X13402186Y-11129384D01*
X13402186Y-11129384D02*
X13383139Y-11129384D01*
X13383139Y-11129384D02*
X13364091Y-11119860D01*
X13364091Y-11119860D02*
X13354567Y-11110336D01*
X13354567Y-11110336D02*
X13345043Y-11091289D01*
X13345043Y-11091289D02*
X13335520Y-11053193D01*
X13335520Y-11053193D02*
X13335520Y-11005574D01*
X13335520Y-11005574D02*
X13345043Y-10967479D01*
X13345043Y-10967479D02*
X13354567Y-10948431D01*
X13354567Y-10948431D02*
X13364091Y-10938908D01*
X13364091Y-10938908D02*
X13383139Y-10929384D01*
X13535520Y-11129384D02*
X13535520Y-10996050D01*
X13535520Y-11015098D02*
X13545043Y-11005574D01*
X13545043Y-11005574D02*
X13564091Y-10996050D01*
X13564091Y-10996050D02*
X13592663Y-10996050D01*
X13592663Y-10996050D02*
X13611710Y-11005574D01*
X13611710Y-11005574D02*
X13621234Y-11024622D01*
X13621234Y-11024622D02*
X13621234Y-11129384D01*
X13621234Y-11024622D02*
X13630758Y-11005574D01*
X13630758Y-11005574D02*
X13649805Y-10996050D01*
X13649805Y-10996050D02*
X13678377Y-10996050D01*
X13678377Y-10996050D02*
X13697424Y-11005574D01*
X13697424Y-11005574D02*
X13706948Y-11024622D01*
X13706948Y-11024622D02*
X13706948Y-11129384D01*
X13802186Y-11129384D02*
X13802186Y-10996050D01*
X13802186Y-11015098D02*
X13811710Y-11005574D01*
X13811710Y-11005574D02*
X13830758Y-10996050D01*
X13830758Y-10996050D02*
X13859329Y-10996050D01*
X13859329Y-10996050D02*
X13878377Y-11005574D01*
X13878377Y-11005574D02*
X13887901Y-11024622D01*
X13887901Y-11024622D02*
X13887901Y-11129384D01*
X13887901Y-11024622D02*
X13897424Y-11005574D01*
X13897424Y-11005574D02*
X13916472Y-10996050D01*
X13916472Y-10996050D02*
X13945043Y-10996050D01*
X13945043Y-10996050D02*
X13964091Y-11005574D01*
X13964091Y-11005574D02*
X13973615Y-11024622D01*
X13973615Y-11024622D02*
X13973615Y-11129384D01*
X14364091Y-10919860D02*
X14192663Y-11177003D01*
X14621234Y-10929384D02*
X14640282Y-10929384D01*
X14640282Y-10929384D02*
X14659329Y-10938908D01*
X14659329Y-10938908D02*
X14668853Y-10948431D01*
X14668853Y-10948431D02*
X14678377Y-10967479D01*
X14678377Y-10967479D02*
X14687901Y-11005574D01*
X14687901Y-11005574D02*
X14687901Y-11053193D01*
X14687901Y-11053193D02*
X14678377Y-11091289D01*
X14678377Y-11091289D02*
X14668853Y-11110336D01*
X14668853Y-11110336D02*
X14659329Y-11119860D01*
X14659329Y-11119860D02*
X14640282Y-11129384D01*
X14640282Y-11129384D02*
X14621234Y-11129384D01*
X14621234Y-11129384D02*
X14602186Y-11119860D01*
X14602186Y-11119860D02*
X14592663Y-11110336D01*
X14592663Y-11110336D02*
X14583139Y-11091289D01*
X14583139Y-11091289D02*
X14573615Y-11053193D01*
X14573615Y-11053193D02*
X14573615Y-11005574D01*
X14573615Y-11005574D02*
X14583139Y-10967479D01*
X14583139Y-10967479D02*
X14592663Y-10948431D01*
X14592663Y-10948431D02*
X14602186Y-10938908D01*
X14602186Y-10938908D02*
X14621234Y-10929384D01*
X14773615Y-11110336D02*
X14783139Y-11119860D01*
X14783139Y-11119860D02*
X14773615Y-11129384D01*
X14773615Y-11129384D02*
X14764091Y-11119860D01*
X14764091Y-11119860D02*
X14773615Y-11110336D01*
X14773615Y-11110336D02*
X14773615Y-11129384D01*
X14906948Y-10929384D02*
X14925996Y-10929384D01*
X14925996Y-10929384D02*
X14945044Y-10938908D01*
X14945044Y-10938908D02*
X14954567Y-10948431D01*
X14954567Y-10948431D02*
X14964091Y-10967479D01*
X14964091Y-10967479D02*
X14973615Y-11005574D01*
X14973615Y-11005574D02*
X14973615Y-11053193D01*
X14973615Y-11053193D02*
X14964091Y-11091289D01*
X14964091Y-11091289D02*
X14954567Y-11110336D01*
X14954567Y-11110336D02*
X14945044Y-11119860D01*
X14945044Y-11119860D02*
X14925996Y-11129384D01*
X14925996Y-11129384D02*
X14906948Y-11129384D01*
X14906948Y-11129384D02*
X14887901Y-11119860D01*
X14887901Y-11119860D02*
X14878377Y-11110336D01*
X14878377Y-11110336D02*
X14868853Y-11091289D01*
X14868853Y-11091289D02*
X14859329Y-11053193D01*
X14859329Y-11053193D02*
X14859329Y-11005574D01*
X14859329Y-11005574D02*
X14868853Y-10967479D01*
X14868853Y-10967479D02*
X14878377Y-10948431D01*
X14878377Y-10948431D02*
X14887901Y-10938908D01*
X14887901Y-10938908D02*
X14906948Y-10929384D01*
X15040282Y-10929384D02*
X15164091Y-10929384D01*
X15164091Y-10929384D02*
X15097425Y-11005574D01*
X15097425Y-11005574D02*
X15125996Y-11005574D01*
X15125996Y-11005574D02*
X15145044Y-11015098D01*
X15145044Y-11015098D02*
X15154567Y-11024622D01*
X15154567Y-11024622D02*
X15164091Y-11043670D01*
X15164091Y-11043670D02*
X15164091Y-11091289D01*
X15164091Y-11091289D02*
X15154567Y-11110336D01*
X15154567Y-11110336D02*
X15145044Y-11119860D01*
X15145044Y-11119860D02*
X15125996Y-11129384D01*
X15125996Y-11129384D02*
X15068853Y-11129384D01*
X15068853Y-11129384D02*
X15049806Y-11119860D01*
X15049806Y-11119860D02*
X15040282Y-11110336D01*
X15354567Y-11129384D02*
X15240282Y-11129384D01*
X15297425Y-11129384D02*
X15297425Y-10929384D01*
X15297425Y-10929384D02*
X15278377Y-10957955D01*
X15278377Y-10957955D02*
X15259329Y-10977003D01*
X15259329Y-10977003D02*
X15240282Y-10986527D01*
X15535520Y-10929384D02*
X15440282Y-10929384D01*
X15440282Y-10929384D02*
X15430758Y-11024622D01*
X15430758Y-11024622D02*
X15440282Y-11015098D01*
X15440282Y-11015098D02*
X15459329Y-11005574D01*
X15459329Y-11005574D02*
X15506948Y-11005574D01*
X15506948Y-11005574D02*
X15525996Y-11015098D01*
X15525996Y-11015098D02*
X15535520Y-11024622D01*
X15535520Y-11024622D02*
X15545044Y-11043670D01*
X15545044Y-11043670D02*
X15545044Y-11091289D01*
X15545044Y-11091289D02*
X15535520Y-11110336D01*
X15535520Y-11110336D02*
X15525996Y-11119860D01*
X15525996Y-11119860D02*
X15506948Y-11129384D01*
X15506948Y-11129384D02*
X15459329Y-11129384D01*
X15459329Y-11129384D02*
X15440282Y-11119860D01*
X15440282Y-11119860D02*
X15430758Y-11110336D01*
X15621234Y-10929384D02*
X15621234Y-10967479D01*
X15697425Y-10929384D02*
X15697425Y-10967479D01*
X15992663Y-11205574D02*
X15983139Y-11196050D01*
X15983139Y-11196050D02*
X15964091Y-11167479D01*
X15964091Y-11167479D02*
X15954568Y-11148431D01*
X15954568Y-11148431D02*
X15945044Y-11119860D01*
X15945044Y-11119860D02*
X15935520Y-11072241D01*
X15935520Y-11072241D02*
X15935520Y-11034146D01*
X15935520Y-11034146D02*
X15945044Y-10986527D01*
X15945044Y-10986527D02*
X15954568Y-10957955D01*
X15954568Y-10957955D02*
X15964091Y-10938908D01*
X15964091Y-10938908D02*
X15983139Y-10910336D01*
X15983139Y-10910336D02*
X15992663Y-10900812D01*
X16097425Y-11015098D02*
X16078377Y-11005574D01*
X16078377Y-11005574D02*
X16068853Y-10996050D01*
X16068853Y-10996050D02*
X16059329Y-10977003D01*
X16059329Y-10977003D02*
X16059329Y-10967479D01*
X16059329Y-10967479D02*
X16068853Y-10948431D01*
X16068853Y-10948431D02*
X16078377Y-10938908D01*
X16078377Y-10938908D02*
X16097425Y-10929384D01*
X16097425Y-10929384D02*
X16135520Y-10929384D01*
X16135520Y-10929384D02*
X16154568Y-10938908D01*
X16154568Y-10938908D02*
X16164091Y-10948431D01*
X16164091Y-10948431D02*
X16173615Y-10967479D01*
X16173615Y-10967479D02*
X16173615Y-10977003D01*
X16173615Y-10977003D02*
X16164091Y-10996050D01*
X16164091Y-10996050D02*
X16154568Y-11005574D01*
X16154568Y-11005574D02*
X16135520Y-11015098D01*
X16135520Y-11015098D02*
X16097425Y-11015098D01*
X16097425Y-11015098D02*
X16078377Y-11024622D01*
X16078377Y-11024622D02*
X16068853Y-11034146D01*
X16068853Y-11034146D02*
X16059329Y-11053193D01*
X16059329Y-11053193D02*
X16059329Y-11091289D01*
X16059329Y-11091289D02*
X16068853Y-11110336D01*
X16068853Y-11110336D02*
X16078377Y-11119860D01*
X16078377Y-11119860D02*
X16097425Y-11129384D01*
X16097425Y-11129384D02*
X16135520Y-11129384D01*
X16135520Y-11129384D02*
X16154568Y-11119860D01*
X16154568Y-11119860D02*
X16164091Y-11110336D01*
X16164091Y-11110336D02*
X16173615Y-11091289D01*
X16173615Y-11091289D02*
X16173615Y-11053193D01*
X16173615Y-11053193D02*
X16164091Y-11034146D01*
X16164091Y-11034146D02*
X16154568Y-11024622D01*
X16154568Y-11024622D02*
X16135520Y-11015098D01*
X16411710Y-11129384D02*
X16411710Y-10929384D01*
X16497425Y-11129384D02*
X16497425Y-11024622D01*
X16497425Y-11024622D02*
X16487901Y-11005574D01*
X16487901Y-11005574D02*
X16468853Y-10996050D01*
X16468853Y-10996050D02*
X16440282Y-10996050D01*
X16440282Y-10996050D02*
X16421234Y-11005574D01*
X16421234Y-11005574D02*
X16411710Y-11015098D01*
X16621234Y-11129384D02*
X16602187Y-11119860D01*
X16602187Y-11119860D02*
X16592663Y-11110336D01*
X16592663Y-11110336D02*
X16583139Y-11091289D01*
X16583139Y-11091289D02*
X16583139Y-11034146D01*
X16583139Y-11034146D02*
X16592663Y-11015098D01*
X16592663Y-11015098D02*
X16602187Y-11005574D01*
X16602187Y-11005574D02*
X16621234Y-10996050D01*
X16621234Y-10996050D02*
X16649806Y-10996050D01*
X16649806Y-10996050D02*
X16668853Y-11005574D01*
X16668853Y-11005574D02*
X16678377Y-11015098D01*
X16678377Y-11015098D02*
X16687901Y-11034146D01*
X16687901Y-11034146D02*
X16687901Y-11091289D01*
X16687901Y-11091289D02*
X16678377Y-11110336D01*
X16678377Y-11110336D02*
X16668853Y-11119860D01*
X16668853Y-11119860D02*
X16649806Y-11129384D01*
X16649806Y-11129384D02*
X16621234Y-11129384D01*
X16802187Y-11129384D02*
X16783139Y-11119860D01*
X16783139Y-11119860D02*
X16773615Y-11100812D01*
X16773615Y-11100812D02*
X16773615Y-10929384D01*
X16954568Y-11119860D02*
X16935520Y-11129384D01*
X16935520Y-11129384D02*
X16897425Y-11129384D01*
X16897425Y-11129384D02*
X16878377Y-11119860D01*
X16878377Y-11119860D02*
X16868853Y-11100812D01*
X16868853Y-11100812D02*
X16868853Y-11024622D01*
X16868853Y-11024622D02*
X16878377Y-11005574D01*
X16878377Y-11005574D02*
X16897425Y-10996050D01*
X16897425Y-10996050D02*
X16935520Y-10996050D01*
X16935520Y-10996050D02*
X16954568Y-11005574D01*
X16954568Y-11005574D02*
X16964092Y-11024622D01*
X16964092Y-11024622D02*
X16964092Y-11043670D01*
X16964092Y-11043670D02*
X16868853Y-11062717D01*
X17040282Y-11119860D02*
X17059330Y-11129384D01*
X17059330Y-11129384D02*
X17097425Y-11129384D01*
X17097425Y-11129384D02*
X17116473Y-11119860D01*
X17116473Y-11119860D02*
X17125996Y-11100812D01*
X17125996Y-11100812D02*
X17125996Y-11091289D01*
X17125996Y-11091289D02*
X17116473Y-11072241D01*
X17116473Y-11072241D02*
X17097425Y-11062717D01*
X17097425Y-11062717D02*
X17068853Y-11062717D01*
X17068853Y-11062717D02*
X17049806Y-11053193D01*
X17049806Y-11053193D02*
X17040282Y-11034146D01*
X17040282Y-11034146D02*
X17040282Y-11024622D01*
X17040282Y-11024622D02*
X17049806Y-11005574D01*
X17049806Y-11005574D02*
X17068853Y-10996050D01*
X17068853Y-10996050D02*
X17097425Y-10996050D01*
X17097425Y-10996050D02*
X17116473Y-11005574D01*
X17192663Y-11205574D02*
X17202187Y-11196050D01*
X17202187Y-11196050D02*
X17221234Y-11167479D01*
X17221234Y-11167479D02*
X17230758Y-11148431D01*
X17230758Y-11148431D02*
X17240282Y-11119860D01*
X17240282Y-11119860D02*
X17249806Y-11072241D01*
X17249806Y-11072241D02*
X17249806Y-11034146D01*
X17249806Y-11034146D02*
X17240282Y-10986527D01*
X17240282Y-10986527D02*
X17230758Y-10957955D01*
X17230758Y-10957955D02*
X17221234Y-10938908D01*
X17221234Y-10938908D02*
X17202187Y-10910336D01*
X17202187Y-10910336D02*
X17192663Y-10900812D01*
D13*
X12357600Y-11241900D02*
X12357600Y-11361900D01*
X12297600Y-11301900D02*
X12417600Y-11301900D01*
D11*
X12783139Y-11393384D02*
X12668853Y-11393384D01*
X12725996Y-11393384D02*
X12725996Y-11193384D01*
X12725996Y-11193384D02*
X12706948Y-11221955D01*
X12706948Y-11221955D02*
X12687901Y-11241003D01*
X12687901Y-11241003D02*
X12668853Y-11250527D01*
X12868853Y-11374336D02*
X12878377Y-11383860D01*
X12878377Y-11383860D02*
X12868853Y-11393384D01*
X12868853Y-11393384D02*
X12859329Y-11383860D01*
X12859329Y-11383860D02*
X12868853Y-11374336D01*
X12868853Y-11374336D02*
X12868853Y-11393384D01*
X12954567Y-11212431D02*
X12964091Y-11202908D01*
X12964091Y-11202908D02*
X12983139Y-11193384D01*
X12983139Y-11193384D02*
X13030758Y-11193384D01*
X13030758Y-11193384D02*
X13049805Y-11202908D01*
X13049805Y-11202908D02*
X13059329Y-11212431D01*
X13059329Y-11212431D02*
X13068853Y-11231479D01*
X13068853Y-11231479D02*
X13068853Y-11250527D01*
X13068853Y-11250527D02*
X13059329Y-11279098D01*
X13059329Y-11279098D02*
X12945043Y-11393384D01*
X12945043Y-11393384D02*
X13068853Y-11393384D01*
X13192662Y-11193384D02*
X13211710Y-11193384D01*
X13211710Y-11193384D02*
X13230758Y-11202908D01*
X13230758Y-11202908D02*
X13240282Y-11212431D01*
X13240282Y-11212431D02*
X13249805Y-11231479D01*
X13249805Y-11231479D02*
X13259329Y-11269574D01*
X13259329Y-11269574D02*
X13259329Y-11317193D01*
X13259329Y-11317193D02*
X13249805Y-11355288D01*
X13249805Y-11355288D02*
X13240282Y-11374336D01*
X13240282Y-11374336D02*
X13230758Y-11383860D01*
X13230758Y-11383860D02*
X13211710Y-11393384D01*
X13211710Y-11393384D02*
X13192662Y-11393384D01*
X13192662Y-11393384D02*
X13173615Y-11383860D01*
X13173615Y-11383860D02*
X13164091Y-11374336D01*
X13164091Y-11374336D02*
X13154567Y-11355288D01*
X13154567Y-11355288D02*
X13145043Y-11317193D01*
X13145043Y-11317193D02*
X13145043Y-11269574D01*
X13145043Y-11269574D02*
X13154567Y-11231479D01*
X13154567Y-11231479D02*
X13164091Y-11212431D01*
X13164091Y-11212431D02*
X13173615Y-11202908D01*
X13173615Y-11202908D02*
X13192662Y-11193384D01*
X13383139Y-11193384D02*
X13402186Y-11193384D01*
X13402186Y-11193384D02*
X13421234Y-11202908D01*
X13421234Y-11202908D02*
X13430758Y-11212431D01*
X13430758Y-11212431D02*
X13440282Y-11231479D01*
X13440282Y-11231479D02*
X13449805Y-11269574D01*
X13449805Y-11269574D02*
X13449805Y-11317193D01*
X13449805Y-11317193D02*
X13440282Y-11355288D01*
X13440282Y-11355288D02*
X13430758Y-11374336D01*
X13430758Y-11374336D02*
X13421234Y-11383860D01*
X13421234Y-11383860D02*
X13402186Y-11393384D01*
X13402186Y-11393384D02*
X13383139Y-11393384D01*
X13383139Y-11393384D02*
X13364091Y-11383860D01*
X13364091Y-11383860D02*
X13354567Y-11374336D01*
X13354567Y-11374336D02*
X13345043Y-11355288D01*
X13345043Y-11355288D02*
X13335520Y-11317193D01*
X13335520Y-11317193D02*
X13335520Y-11269574D01*
X13335520Y-11269574D02*
X13345043Y-11231479D01*
X13345043Y-11231479D02*
X13354567Y-11212431D01*
X13354567Y-11212431D02*
X13364091Y-11202908D01*
X13364091Y-11202908D02*
X13383139Y-11193384D01*
X13535520Y-11393384D02*
X13535520Y-11260050D01*
X13535520Y-11279098D02*
X13545043Y-11269574D01*
X13545043Y-11269574D02*
X13564091Y-11260050D01*
X13564091Y-11260050D02*
X13592663Y-11260050D01*
X13592663Y-11260050D02*
X13611710Y-11269574D01*
X13611710Y-11269574D02*
X13621234Y-11288622D01*
X13621234Y-11288622D02*
X13621234Y-11393384D01*
X13621234Y-11288622D02*
X13630758Y-11269574D01*
X13630758Y-11269574D02*
X13649805Y-11260050D01*
X13649805Y-11260050D02*
X13678377Y-11260050D01*
X13678377Y-11260050D02*
X13697424Y-11269574D01*
X13697424Y-11269574D02*
X13706948Y-11288622D01*
X13706948Y-11288622D02*
X13706948Y-11393384D01*
X13802186Y-11393384D02*
X13802186Y-11260050D01*
X13802186Y-11279098D02*
X13811710Y-11269574D01*
X13811710Y-11269574D02*
X13830758Y-11260050D01*
X13830758Y-11260050D02*
X13859329Y-11260050D01*
X13859329Y-11260050D02*
X13878377Y-11269574D01*
X13878377Y-11269574D02*
X13887901Y-11288622D01*
X13887901Y-11288622D02*
X13887901Y-11393384D01*
X13887901Y-11288622D02*
X13897424Y-11269574D01*
X13897424Y-11269574D02*
X13916472Y-11260050D01*
X13916472Y-11260050D02*
X13945043Y-11260050D01*
X13945043Y-11260050D02*
X13964091Y-11269574D01*
X13964091Y-11269574D02*
X13973615Y-11288622D01*
X13973615Y-11288622D02*
X13973615Y-11393384D01*
X14364091Y-11183860D02*
X14192663Y-11441003D01*
X14621234Y-11193384D02*
X14640282Y-11193384D01*
X14640282Y-11193384D02*
X14659329Y-11202908D01*
X14659329Y-11202908D02*
X14668853Y-11212431D01*
X14668853Y-11212431D02*
X14678377Y-11231479D01*
X14678377Y-11231479D02*
X14687901Y-11269574D01*
X14687901Y-11269574D02*
X14687901Y-11317193D01*
X14687901Y-11317193D02*
X14678377Y-11355288D01*
X14678377Y-11355288D02*
X14668853Y-11374336D01*
X14668853Y-11374336D02*
X14659329Y-11383860D01*
X14659329Y-11383860D02*
X14640282Y-11393384D01*
X14640282Y-11393384D02*
X14621234Y-11393384D01*
X14621234Y-11393384D02*
X14602186Y-11383860D01*
X14602186Y-11383860D02*
X14592663Y-11374336D01*
X14592663Y-11374336D02*
X14583139Y-11355288D01*
X14583139Y-11355288D02*
X14573615Y-11317193D01*
X14573615Y-11317193D02*
X14573615Y-11269574D01*
X14573615Y-11269574D02*
X14583139Y-11231479D01*
X14583139Y-11231479D02*
X14592663Y-11212431D01*
X14592663Y-11212431D02*
X14602186Y-11202908D01*
X14602186Y-11202908D02*
X14621234Y-11193384D01*
X14773615Y-11374336D02*
X14783139Y-11383860D01*
X14783139Y-11383860D02*
X14773615Y-11393384D01*
X14773615Y-11393384D02*
X14764091Y-11383860D01*
X14764091Y-11383860D02*
X14773615Y-11374336D01*
X14773615Y-11374336D02*
X14773615Y-11393384D01*
X14906948Y-11193384D02*
X14925996Y-11193384D01*
X14925996Y-11193384D02*
X14945044Y-11202908D01*
X14945044Y-11202908D02*
X14954567Y-11212431D01*
X14954567Y-11212431D02*
X14964091Y-11231479D01*
X14964091Y-11231479D02*
X14973615Y-11269574D01*
X14973615Y-11269574D02*
X14973615Y-11317193D01*
X14973615Y-11317193D02*
X14964091Y-11355288D01*
X14964091Y-11355288D02*
X14954567Y-11374336D01*
X14954567Y-11374336D02*
X14945044Y-11383860D01*
X14945044Y-11383860D02*
X14925996Y-11393384D01*
X14925996Y-11393384D02*
X14906948Y-11393384D01*
X14906948Y-11393384D02*
X14887901Y-11383860D01*
X14887901Y-11383860D02*
X14878377Y-11374336D01*
X14878377Y-11374336D02*
X14868853Y-11355288D01*
X14868853Y-11355288D02*
X14859329Y-11317193D01*
X14859329Y-11317193D02*
X14859329Y-11269574D01*
X14859329Y-11269574D02*
X14868853Y-11231479D01*
X14868853Y-11231479D02*
X14878377Y-11212431D01*
X14878377Y-11212431D02*
X14887901Y-11202908D01*
X14887901Y-11202908D02*
X14906948Y-11193384D01*
X15145044Y-11260050D02*
X15145044Y-11393384D01*
X15097425Y-11183860D02*
X15049806Y-11326717D01*
X15049806Y-11326717D02*
X15173615Y-11326717D01*
X15230758Y-11193384D02*
X15364091Y-11193384D01*
X15364091Y-11193384D02*
X15278377Y-11393384D01*
X15430758Y-11212431D02*
X15440282Y-11202908D01*
X15440282Y-11202908D02*
X15459329Y-11193384D01*
X15459329Y-11193384D02*
X15506948Y-11193384D01*
X15506948Y-11193384D02*
X15525996Y-11202908D01*
X15525996Y-11202908D02*
X15535520Y-11212431D01*
X15535520Y-11212431D02*
X15545044Y-11231479D01*
X15545044Y-11231479D02*
X15545044Y-11250527D01*
X15545044Y-11250527D02*
X15535520Y-11279098D01*
X15535520Y-11279098D02*
X15421234Y-11393384D01*
X15421234Y-11393384D02*
X15545044Y-11393384D01*
X15621234Y-11193384D02*
X15621234Y-11231479D01*
X15697425Y-11193384D02*
X15697425Y-11231479D01*
X15992663Y-11469574D02*
X15983139Y-11460050D01*
X15983139Y-11460050D02*
X15964091Y-11431479D01*
X15964091Y-11431479D02*
X15954568Y-11412431D01*
X15954568Y-11412431D02*
X15945044Y-11383860D01*
X15945044Y-11383860D02*
X15935520Y-11336241D01*
X15935520Y-11336241D02*
X15935520Y-11298146D01*
X15935520Y-11298146D02*
X15945044Y-11250527D01*
X15945044Y-11250527D02*
X15954568Y-11221955D01*
X15954568Y-11221955D02*
X15964091Y-11202908D01*
X15964091Y-11202908D02*
X15983139Y-11174336D01*
X15983139Y-11174336D02*
X15992663Y-11164812D01*
X16049806Y-11193384D02*
X16173615Y-11193384D01*
X16173615Y-11193384D02*
X16106948Y-11269574D01*
X16106948Y-11269574D02*
X16135520Y-11269574D01*
X16135520Y-11269574D02*
X16154568Y-11279098D01*
X16154568Y-11279098D02*
X16164091Y-11288622D01*
X16164091Y-11288622D02*
X16173615Y-11307669D01*
X16173615Y-11307669D02*
X16173615Y-11355288D01*
X16173615Y-11355288D02*
X16164091Y-11374336D01*
X16164091Y-11374336D02*
X16154568Y-11383860D01*
X16154568Y-11383860D02*
X16135520Y-11393384D01*
X16135520Y-11393384D02*
X16078377Y-11393384D01*
X16078377Y-11393384D02*
X16059329Y-11383860D01*
X16059329Y-11383860D02*
X16049806Y-11374336D01*
X16411710Y-11393384D02*
X16411710Y-11193384D01*
X16497425Y-11393384D02*
X16497425Y-11288622D01*
X16497425Y-11288622D02*
X16487901Y-11269574D01*
X16487901Y-11269574D02*
X16468853Y-11260050D01*
X16468853Y-11260050D02*
X16440282Y-11260050D01*
X16440282Y-11260050D02*
X16421234Y-11269574D01*
X16421234Y-11269574D02*
X16411710Y-11279098D01*
X16621234Y-11393384D02*
X16602187Y-11383860D01*
X16602187Y-11383860D02*
X16592663Y-11374336D01*
X16592663Y-11374336D02*
X16583139Y-11355288D01*
X16583139Y-11355288D02*
X16583139Y-11298146D01*
X16583139Y-11298146D02*
X16592663Y-11279098D01*
X16592663Y-11279098D02*
X16602187Y-11269574D01*
X16602187Y-11269574D02*
X16621234Y-11260050D01*
X16621234Y-11260050D02*
X16649806Y-11260050D01*
X16649806Y-11260050D02*
X16668853Y-11269574D01*
X16668853Y-11269574D02*
X16678377Y-11279098D01*
X16678377Y-11279098D02*
X16687901Y-11298146D01*
X16687901Y-11298146D02*
X16687901Y-11355288D01*
X16687901Y-11355288D02*
X16678377Y-11374336D01*
X16678377Y-11374336D02*
X16668853Y-11383860D01*
X16668853Y-11383860D02*
X16649806Y-11393384D01*
X16649806Y-11393384D02*
X16621234Y-11393384D01*
X16802187Y-11393384D02*
X16783139Y-11383860D01*
X16783139Y-11383860D02*
X16773615Y-11364812D01*
X16773615Y-11364812D02*
X16773615Y-11193384D01*
X16954568Y-11383860D02*
X16935520Y-11393384D01*
X16935520Y-11393384D02*
X16897425Y-11393384D01*
X16897425Y-11393384D02*
X16878377Y-11383860D01*
X16878377Y-11383860D02*
X16868853Y-11364812D01*
X16868853Y-11364812D02*
X16868853Y-11288622D01*
X16868853Y-11288622D02*
X16878377Y-11269574D01*
X16878377Y-11269574D02*
X16897425Y-11260050D01*
X16897425Y-11260050D02*
X16935520Y-11260050D01*
X16935520Y-11260050D02*
X16954568Y-11269574D01*
X16954568Y-11269574D02*
X16964092Y-11288622D01*
X16964092Y-11288622D02*
X16964092Y-11307669D01*
X16964092Y-11307669D02*
X16868853Y-11326717D01*
X17040282Y-11383860D02*
X17059330Y-11393384D01*
X17059330Y-11393384D02*
X17097425Y-11393384D01*
X17097425Y-11393384D02*
X17116473Y-11383860D01*
X17116473Y-11383860D02*
X17125996Y-11364812D01*
X17125996Y-11364812D02*
X17125996Y-11355288D01*
X17125996Y-11355288D02*
X17116473Y-11336241D01*
X17116473Y-11336241D02*
X17097425Y-11326717D01*
X17097425Y-11326717D02*
X17068853Y-11326717D01*
X17068853Y-11326717D02*
X17049806Y-11317193D01*
X17049806Y-11317193D02*
X17040282Y-11298146D01*
X17040282Y-11298146D02*
X17040282Y-11288622D01*
X17040282Y-11288622D02*
X17049806Y-11269574D01*
X17049806Y-11269574D02*
X17068853Y-11260050D01*
X17068853Y-11260050D02*
X17097425Y-11260050D01*
X17097425Y-11260050D02*
X17116473Y-11269574D01*
X17192663Y-11469574D02*
X17202187Y-11460050D01*
X17202187Y-11460050D02*
X17221234Y-11431479D01*
X17221234Y-11431479D02*
X17230758Y-11412431D01*
X17230758Y-11412431D02*
X17240282Y-11383860D01*
X17240282Y-11383860D02*
X17249806Y-11336241D01*
X17249806Y-11336241D02*
X17249806Y-11298146D01*
X17249806Y-11298146D02*
X17240282Y-11250527D01*
X17240282Y-11250527D02*
X17230758Y-11221955D01*
X17230758Y-11221955D02*
X17221234Y-11202908D01*
X17221234Y-11202908D02*
X17202187Y-11174336D01*
X17202187Y-11174336D02*
X17192663Y-11164812D01*
X12388311Y-11636611D02*
X12388311Y-11495189D01*
X12246889Y-11495189D01*
X12246889Y-11636611D01*
X12388311Y-11636611D01*
X12659329Y-11457384D02*
X12783139Y-11457384D01*
X12783139Y-11457384D02*
X12716472Y-11533574D01*
X12716472Y-11533574D02*
X12745043Y-11533574D01*
X12745043Y-11533574D02*
X12764091Y-11543098D01*
X12764091Y-11543098D02*
X12773615Y-11552622D01*
X12773615Y-11552622D02*
X12783139Y-11571669D01*
X12783139Y-11571669D02*
X12783139Y-11619288D01*
X12783139Y-11619288D02*
X12773615Y-11638336D01*
X12773615Y-11638336D02*
X12764091Y-11647860D01*
X12764091Y-11647860D02*
X12745043Y-11657384D01*
X12745043Y-11657384D02*
X12687901Y-11657384D01*
X12687901Y-11657384D02*
X12668853Y-11647860D01*
X12668853Y-11647860D02*
X12659329Y-11638336D01*
X12868853Y-11638336D02*
X12878377Y-11647860D01*
X12878377Y-11647860D02*
X12868853Y-11657384D01*
X12868853Y-11657384D02*
X12859329Y-11647860D01*
X12859329Y-11647860D02*
X12868853Y-11638336D01*
X12868853Y-11638336D02*
X12868853Y-11657384D01*
X13002186Y-11457384D02*
X13021234Y-11457384D01*
X13021234Y-11457384D02*
X13040282Y-11466908D01*
X13040282Y-11466908D02*
X13049805Y-11476431D01*
X13049805Y-11476431D02*
X13059329Y-11495479D01*
X13059329Y-11495479D02*
X13068853Y-11533574D01*
X13068853Y-11533574D02*
X13068853Y-11581193D01*
X13068853Y-11581193D02*
X13059329Y-11619288D01*
X13059329Y-11619288D02*
X13049805Y-11638336D01*
X13049805Y-11638336D02*
X13040282Y-11647860D01*
X13040282Y-11647860D02*
X13021234Y-11657384D01*
X13021234Y-11657384D02*
X13002186Y-11657384D01*
X13002186Y-11657384D02*
X12983139Y-11647860D01*
X12983139Y-11647860D02*
X12973615Y-11638336D01*
X12973615Y-11638336D02*
X12964091Y-11619288D01*
X12964091Y-11619288D02*
X12954567Y-11581193D01*
X12954567Y-11581193D02*
X12954567Y-11533574D01*
X12954567Y-11533574D02*
X12964091Y-11495479D01*
X12964091Y-11495479D02*
X12973615Y-11476431D01*
X12973615Y-11476431D02*
X12983139Y-11466908D01*
X12983139Y-11466908D02*
X13002186Y-11457384D01*
X13192662Y-11457384D02*
X13211710Y-11457384D01*
X13211710Y-11457384D02*
X13230758Y-11466908D01*
X13230758Y-11466908D02*
X13240282Y-11476431D01*
X13240282Y-11476431D02*
X13249805Y-11495479D01*
X13249805Y-11495479D02*
X13259329Y-11533574D01*
X13259329Y-11533574D02*
X13259329Y-11581193D01*
X13259329Y-11581193D02*
X13249805Y-11619288D01*
X13249805Y-11619288D02*
X13240282Y-11638336D01*
X13240282Y-11638336D02*
X13230758Y-11647860D01*
X13230758Y-11647860D02*
X13211710Y-11657384D01*
X13211710Y-11657384D02*
X13192662Y-11657384D01*
X13192662Y-11657384D02*
X13173615Y-11647860D01*
X13173615Y-11647860D02*
X13164091Y-11638336D01*
X13164091Y-11638336D02*
X13154567Y-11619288D01*
X13154567Y-11619288D02*
X13145043Y-11581193D01*
X13145043Y-11581193D02*
X13145043Y-11533574D01*
X13145043Y-11533574D02*
X13154567Y-11495479D01*
X13154567Y-11495479D02*
X13164091Y-11476431D01*
X13164091Y-11476431D02*
X13173615Y-11466908D01*
X13173615Y-11466908D02*
X13192662Y-11457384D01*
X13383139Y-11457384D02*
X13402186Y-11457384D01*
X13402186Y-11457384D02*
X13421234Y-11466908D01*
X13421234Y-11466908D02*
X13430758Y-11476431D01*
X13430758Y-11476431D02*
X13440282Y-11495479D01*
X13440282Y-11495479D02*
X13449805Y-11533574D01*
X13449805Y-11533574D02*
X13449805Y-11581193D01*
X13449805Y-11581193D02*
X13440282Y-11619288D01*
X13440282Y-11619288D02*
X13430758Y-11638336D01*
X13430758Y-11638336D02*
X13421234Y-11647860D01*
X13421234Y-11647860D02*
X13402186Y-11657384D01*
X13402186Y-11657384D02*
X13383139Y-11657384D01*
X13383139Y-11657384D02*
X13364091Y-11647860D01*
X13364091Y-11647860D02*
X13354567Y-11638336D01*
X13354567Y-11638336D02*
X13345043Y-11619288D01*
X13345043Y-11619288D02*
X13335520Y-11581193D01*
X13335520Y-11581193D02*
X13335520Y-11533574D01*
X13335520Y-11533574D02*
X13345043Y-11495479D01*
X13345043Y-11495479D02*
X13354567Y-11476431D01*
X13354567Y-11476431D02*
X13364091Y-11466908D01*
X13364091Y-11466908D02*
X13383139Y-11457384D01*
X13535520Y-11657384D02*
X13535520Y-11524050D01*
X13535520Y-11543098D02*
X13545043Y-11533574D01*
X13545043Y-11533574D02*
X13564091Y-11524050D01*
X13564091Y-11524050D02*
X13592663Y-11524050D01*
X13592663Y-11524050D02*
X13611710Y-11533574D01*
X13611710Y-11533574D02*
X13621234Y-11552622D01*
X13621234Y-11552622D02*
X13621234Y-11657384D01*
X13621234Y-11552622D02*
X13630758Y-11533574D01*
X13630758Y-11533574D02*
X13649805Y-11524050D01*
X13649805Y-11524050D02*
X13678377Y-11524050D01*
X13678377Y-11524050D02*
X13697424Y-11533574D01*
X13697424Y-11533574D02*
X13706948Y-11552622D01*
X13706948Y-11552622D02*
X13706948Y-11657384D01*
X13802186Y-11657384D02*
X13802186Y-11524050D01*
X13802186Y-11543098D02*
X13811710Y-11533574D01*
X13811710Y-11533574D02*
X13830758Y-11524050D01*
X13830758Y-11524050D02*
X13859329Y-11524050D01*
X13859329Y-11524050D02*
X13878377Y-11533574D01*
X13878377Y-11533574D02*
X13887901Y-11552622D01*
X13887901Y-11552622D02*
X13887901Y-11657384D01*
X13887901Y-11552622D02*
X13897424Y-11533574D01*
X13897424Y-11533574D02*
X13916472Y-11524050D01*
X13916472Y-11524050D02*
X13945043Y-11524050D01*
X13945043Y-11524050D02*
X13964091Y-11533574D01*
X13964091Y-11533574D02*
X13973615Y-11552622D01*
X13973615Y-11552622D02*
X13973615Y-11657384D01*
X14364091Y-11447860D02*
X14192663Y-11705003D01*
X14621234Y-11457384D02*
X14640282Y-11457384D01*
X14640282Y-11457384D02*
X14659329Y-11466908D01*
X14659329Y-11466908D02*
X14668853Y-11476431D01*
X14668853Y-11476431D02*
X14678377Y-11495479D01*
X14678377Y-11495479D02*
X14687901Y-11533574D01*
X14687901Y-11533574D02*
X14687901Y-11581193D01*
X14687901Y-11581193D02*
X14678377Y-11619288D01*
X14678377Y-11619288D02*
X14668853Y-11638336D01*
X14668853Y-11638336D02*
X14659329Y-11647860D01*
X14659329Y-11647860D02*
X14640282Y-11657384D01*
X14640282Y-11657384D02*
X14621234Y-11657384D01*
X14621234Y-11657384D02*
X14602186Y-11647860D01*
X14602186Y-11647860D02*
X14592663Y-11638336D01*
X14592663Y-11638336D02*
X14583139Y-11619288D01*
X14583139Y-11619288D02*
X14573615Y-11581193D01*
X14573615Y-11581193D02*
X14573615Y-11533574D01*
X14573615Y-11533574D02*
X14583139Y-11495479D01*
X14583139Y-11495479D02*
X14592663Y-11476431D01*
X14592663Y-11476431D02*
X14602186Y-11466908D01*
X14602186Y-11466908D02*
X14621234Y-11457384D01*
X14773615Y-11638336D02*
X14783139Y-11647860D01*
X14783139Y-11647860D02*
X14773615Y-11657384D01*
X14773615Y-11657384D02*
X14764091Y-11647860D01*
X14764091Y-11647860D02*
X14773615Y-11638336D01*
X14773615Y-11638336D02*
X14773615Y-11657384D01*
X14973615Y-11657384D02*
X14859329Y-11657384D01*
X14916472Y-11657384D02*
X14916472Y-11457384D01*
X14916472Y-11457384D02*
X14897425Y-11485955D01*
X14897425Y-11485955D02*
X14878377Y-11505003D01*
X14878377Y-11505003D02*
X14859329Y-11514527D01*
X15164091Y-11657384D02*
X15049806Y-11657384D01*
X15106948Y-11657384D02*
X15106948Y-11457384D01*
X15106948Y-11457384D02*
X15087901Y-11485955D01*
X15087901Y-11485955D02*
X15068853Y-11505003D01*
X15068853Y-11505003D02*
X15049806Y-11514527D01*
X15278377Y-11543098D02*
X15259329Y-11533574D01*
X15259329Y-11533574D02*
X15249806Y-11524050D01*
X15249806Y-11524050D02*
X15240282Y-11505003D01*
X15240282Y-11505003D02*
X15240282Y-11495479D01*
X15240282Y-11495479D02*
X15249806Y-11476431D01*
X15249806Y-11476431D02*
X15259329Y-11466908D01*
X15259329Y-11466908D02*
X15278377Y-11457384D01*
X15278377Y-11457384D02*
X15316472Y-11457384D01*
X15316472Y-11457384D02*
X15335520Y-11466908D01*
X15335520Y-11466908D02*
X15345044Y-11476431D01*
X15345044Y-11476431D02*
X15354567Y-11495479D01*
X15354567Y-11495479D02*
X15354567Y-11505003D01*
X15354567Y-11505003D02*
X15345044Y-11524050D01*
X15345044Y-11524050D02*
X15335520Y-11533574D01*
X15335520Y-11533574D02*
X15316472Y-11543098D01*
X15316472Y-11543098D02*
X15278377Y-11543098D01*
X15278377Y-11543098D02*
X15259329Y-11552622D01*
X15259329Y-11552622D02*
X15249806Y-11562146D01*
X15249806Y-11562146D02*
X15240282Y-11581193D01*
X15240282Y-11581193D02*
X15240282Y-11619288D01*
X15240282Y-11619288D02*
X15249806Y-11638336D01*
X15249806Y-11638336D02*
X15259329Y-11647860D01*
X15259329Y-11647860D02*
X15278377Y-11657384D01*
X15278377Y-11657384D02*
X15316472Y-11657384D01*
X15316472Y-11657384D02*
X15335520Y-11647860D01*
X15335520Y-11647860D02*
X15345044Y-11638336D01*
X15345044Y-11638336D02*
X15354567Y-11619288D01*
X15354567Y-11619288D02*
X15354567Y-11581193D01*
X15354567Y-11581193D02*
X15345044Y-11562146D01*
X15345044Y-11562146D02*
X15335520Y-11552622D01*
X15335520Y-11552622D02*
X15316472Y-11543098D01*
X15545044Y-11657384D02*
X15430758Y-11657384D01*
X15487901Y-11657384D02*
X15487901Y-11457384D01*
X15487901Y-11457384D02*
X15468853Y-11485955D01*
X15468853Y-11485955D02*
X15449806Y-11505003D01*
X15449806Y-11505003D02*
X15430758Y-11514527D01*
X15621234Y-11457384D02*
X15621234Y-11495479D01*
X15697425Y-11457384D02*
X15697425Y-11495479D01*
X15992663Y-11733574D02*
X15983139Y-11724050D01*
X15983139Y-11724050D02*
X15964091Y-11695479D01*
X15964091Y-11695479D02*
X15954568Y-11676431D01*
X15954568Y-11676431D02*
X15945044Y-11647860D01*
X15945044Y-11647860D02*
X15935520Y-11600241D01*
X15935520Y-11600241D02*
X15935520Y-11562146D01*
X15935520Y-11562146D02*
X15945044Y-11514527D01*
X15945044Y-11514527D02*
X15954568Y-11485955D01*
X15954568Y-11485955D02*
X15964091Y-11466908D01*
X15964091Y-11466908D02*
X15983139Y-11438336D01*
X15983139Y-11438336D02*
X15992663Y-11428812D01*
X16154568Y-11524050D02*
X16154568Y-11657384D01*
X16106948Y-11447860D02*
X16059329Y-11590717D01*
X16059329Y-11590717D02*
X16183139Y-11590717D01*
X16411710Y-11657384D02*
X16411710Y-11457384D01*
X16497425Y-11657384D02*
X16497425Y-11552622D01*
X16497425Y-11552622D02*
X16487901Y-11533574D01*
X16487901Y-11533574D02*
X16468853Y-11524050D01*
X16468853Y-11524050D02*
X16440282Y-11524050D01*
X16440282Y-11524050D02*
X16421234Y-11533574D01*
X16421234Y-11533574D02*
X16411710Y-11543098D01*
X16621234Y-11657384D02*
X16602187Y-11647860D01*
X16602187Y-11647860D02*
X16592663Y-11638336D01*
X16592663Y-11638336D02*
X16583139Y-11619288D01*
X16583139Y-11619288D02*
X16583139Y-11562146D01*
X16583139Y-11562146D02*
X16592663Y-11543098D01*
X16592663Y-11543098D02*
X16602187Y-11533574D01*
X16602187Y-11533574D02*
X16621234Y-11524050D01*
X16621234Y-11524050D02*
X16649806Y-11524050D01*
X16649806Y-11524050D02*
X16668853Y-11533574D01*
X16668853Y-11533574D02*
X16678377Y-11543098D01*
X16678377Y-11543098D02*
X16687901Y-11562146D01*
X16687901Y-11562146D02*
X16687901Y-11619288D01*
X16687901Y-11619288D02*
X16678377Y-11638336D01*
X16678377Y-11638336D02*
X16668853Y-11647860D01*
X16668853Y-11647860D02*
X16649806Y-11657384D01*
X16649806Y-11657384D02*
X16621234Y-11657384D01*
X16802187Y-11657384D02*
X16783139Y-11647860D01*
X16783139Y-11647860D02*
X16773615Y-11628812D01*
X16773615Y-11628812D02*
X16773615Y-11457384D01*
X16954568Y-11647860D02*
X16935520Y-11657384D01*
X16935520Y-11657384D02*
X16897425Y-11657384D01*
X16897425Y-11657384D02*
X16878377Y-11647860D01*
X16878377Y-11647860D02*
X16868853Y-11628812D01*
X16868853Y-11628812D02*
X16868853Y-11552622D01*
X16868853Y-11552622D02*
X16878377Y-11533574D01*
X16878377Y-11533574D02*
X16897425Y-11524050D01*
X16897425Y-11524050D02*
X16935520Y-11524050D01*
X16935520Y-11524050D02*
X16954568Y-11533574D01*
X16954568Y-11533574D02*
X16964092Y-11552622D01*
X16964092Y-11552622D02*
X16964092Y-11571669D01*
X16964092Y-11571669D02*
X16868853Y-11590717D01*
X17040282Y-11647860D02*
X17059330Y-11657384D01*
X17059330Y-11657384D02*
X17097425Y-11657384D01*
X17097425Y-11657384D02*
X17116473Y-11647860D01*
X17116473Y-11647860D02*
X17125996Y-11628812D01*
X17125996Y-11628812D02*
X17125996Y-11619288D01*
X17125996Y-11619288D02*
X17116473Y-11600241D01*
X17116473Y-11600241D02*
X17097425Y-11590717D01*
X17097425Y-11590717D02*
X17068853Y-11590717D01*
X17068853Y-11590717D02*
X17049806Y-11581193D01*
X17049806Y-11581193D02*
X17040282Y-11562146D01*
X17040282Y-11562146D02*
X17040282Y-11552622D01*
X17040282Y-11552622D02*
X17049806Y-11533574D01*
X17049806Y-11533574D02*
X17068853Y-11524050D01*
X17068853Y-11524050D02*
X17097425Y-11524050D01*
X17097425Y-11524050D02*
X17116473Y-11533574D01*
X17192663Y-11733574D02*
X17202187Y-11724050D01*
X17202187Y-11724050D02*
X17221234Y-11695479D01*
X17221234Y-11695479D02*
X17230758Y-11676431D01*
X17230758Y-11676431D02*
X17240282Y-11647860D01*
X17240282Y-11647860D02*
X17249806Y-11600241D01*
X17249806Y-11600241D02*
X17249806Y-11562146D01*
X17249806Y-11562146D02*
X17240282Y-11514527D01*
X17240282Y-11514527D02*
X17230758Y-11485955D01*
X17230758Y-11485955D02*
X17221234Y-11466908D01*
X17221234Y-11466908D02*
X17202187Y-11438336D01*
X17202187Y-11438336D02*
X17192663Y-11428812D01*
M02*
