G04 #@! TF.GenerationSoftware,KiCad,Pcbnew,7.0.9*
G04 #@! TF.CreationDate,2023-12-23T15:45:12+01:00*
G04 #@! TF.ProjectId,connecting-connector-1-wire,636f6e6e-6563-4746-996e-672d636f6e6e,v1.0*
G04 #@! TF.SameCoordinates,Original*
G04 #@! TF.FileFunction,Copper,L2,Bot*
G04 #@! TF.FilePolarity,Positive*
%FSLAX46Y46*%
G04 Gerber Fmt 4.6, Leading zero omitted, Abs format (unit mm)*
G04 Created by KiCad (PCBNEW 7.0.9) date 2023-12-23 15:45:12*
%MOMM*%
%LPD*%
G01*
G04 APERTURE LIST*
G04 Aperture macros list*
%AMOutline4P*
0 Free polygon, 4 corners , with rotation*
0 The origin of the aperture is its center*
0 number of corners: always 4*
0 $1 to $8 corner X, Y*
0 $9 Rotation angle, in degrees counterclockwise*
0 create outline with 4 corners*
4,1,4,$1,$2,$3,$4,$5,$6,$7,$8,$1,$2,$9*%
G04 Aperture macros list end*
G04 #@! TA.AperFunction,ComponentPad*
%ADD10C,6.000000*%
G04 #@! TD*
G04 #@! TA.AperFunction,ComponentPad*
%ADD11C,1.500000*%
G04 #@! TD*
G04 #@! TA.AperFunction,ComponentPad*
%ADD12R,3.500000X3.500000*%
G04 #@! TD*
G04 #@! TA.AperFunction,ComponentPad*
%ADD13C,3.500000*%
G04 #@! TD*
G04 #@! TA.AperFunction,SMDPad,CuDef*
%ADD14R,0.900000X0.900000*%
G04 #@! TD*
G04 #@! TA.AperFunction,SMDPad,CuDef*
%ADD15Outline4P,-0.650000X-0.900000X0.650000X-0.900000X0.650000X0.900000X-0.650000X0.900000X270.000000*%
G04 #@! TD*
G04 #@! TA.AperFunction,SMDPad,CuDef*
%ADD16R,0.800000X0.800000*%
G04 #@! TD*
G04 #@! TA.AperFunction,SMDPad,CuDef*
%ADD17R,1.000000X1.000000*%
G04 #@! TD*
G04 #@! TA.AperFunction,SMDPad,CuDef*
%ADD18Outline4P,-0.650000X-0.900000X0.650000X-0.900000X0.650000X0.900000X-0.650000X0.900000X0.000000*%
G04 #@! TD*
G04 #@! TA.AperFunction,ViaPad*
%ADD19C,0.800000*%
G04 #@! TD*
G04 #@! TA.AperFunction,Conductor*
%ADD20C,1.000000*%
G04 #@! TD*
G04 #@! TA.AperFunction,Conductor*
%ADD21C,0.500000*%
G04 #@! TD*
G04 APERTURE END LIST*
D10*
X127934000Y-71419000D03*
X156636000Y-71419000D03*
X156636000Y-97327000D03*
X128188000Y-97327000D03*
D11*
X146476000Y-89198000D03*
X143936000Y-87928000D03*
X146476000Y-86658000D03*
X143936000Y-85388000D03*
X146476000Y-84118000D03*
X143936000Y-82848000D03*
X146476000Y-81578000D03*
X143936000Y-80308000D03*
D12*
X127426000Y-79674000D03*
D13*
X127426000Y-84754000D03*
X127426000Y-89834000D03*
D14*
X136824000Y-77806000D03*
X136824000Y-79256000D03*
D15*
X131236000Y-79039000D03*
X131236000Y-81579000D03*
D16*
X151048000Y-83865000D03*
X148508000Y-83865000D03*
D17*
X140822000Y-79531000D03*
X138922000Y-79531000D03*
X139872000Y-77331000D03*
D18*
X148508000Y-86659000D03*
X151048000Y-86659000D03*
X138094000Y-82087000D03*
X140634000Y-82087000D03*
D19*
X134284000Y-88691000D03*
D20*
X131236000Y-81579000D02*
X134284000Y-81579000D01*
D21*
X142341001Y-84048001D02*
X144514999Y-84048001D01*
D20*
X136824000Y-81579000D02*
X136824000Y-79256000D01*
D21*
X147421001Y-82778001D02*
X148508000Y-83865000D01*
X138602000Y-83611000D02*
X141904000Y-83611000D01*
X127426000Y-90469000D02*
X126791000Y-89834000D01*
D20*
X137332000Y-82087000D02*
X136824000Y-81579000D01*
D21*
X141904000Y-83611000D02*
X142341001Y-84048001D01*
X145077501Y-83485499D02*
X144514999Y-84048001D01*
D20*
X134284000Y-81579000D02*
X134284000Y-88691000D01*
D21*
X145077501Y-83482501D02*
X145077501Y-83485499D01*
X145077501Y-83482501D02*
X145782001Y-82778001D01*
D20*
X134284000Y-81579000D02*
X136824000Y-81579000D01*
D21*
X138094000Y-82087000D02*
X138094000Y-83103000D01*
D20*
X138094000Y-82087000D02*
X137332000Y-82087000D01*
D21*
X145782001Y-82778001D02*
X147421001Y-82778001D01*
X138094000Y-83103000D02*
X138602000Y-83611000D01*
D20*
X145784000Y-77331000D02*
X139872000Y-77331000D01*
X151048000Y-86659000D02*
X151048000Y-83865000D01*
X151048000Y-83865000D02*
X151048000Y-82595000D01*
X151048000Y-82595000D02*
X145784000Y-77331000D01*
X140822000Y-81899000D02*
X140634000Y-82087000D01*
X131236000Y-79039000D02*
X133776000Y-79039000D01*
D21*
X139298000Y-80497000D02*
X138922000Y-80121000D01*
D20*
X136787000Y-77769000D02*
X136824000Y-77806000D01*
X133776000Y-79039000D02*
X135046000Y-77769000D01*
X128061000Y-79039000D02*
X127426000Y-79674000D01*
X136824000Y-77806000D02*
X137877000Y-77806000D01*
X131236000Y-79039000D02*
X128061000Y-79039000D01*
X138922000Y-78851000D02*
X138922000Y-79531000D01*
D21*
X138922000Y-80121000D02*
X138922000Y-79531000D01*
D20*
X140822000Y-80497000D02*
X140822000Y-81899000D01*
X140822000Y-79531000D02*
X140822000Y-80497000D01*
D21*
X140822000Y-80497000D02*
X139298000Y-80497000D01*
D20*
X135046000Y-77769000D02*
X136787000Y-77769000D01*
X137877000Y-77806000D02*
X138922000Y-78851000D01*
X148507000Y-86658000D02*
X148508000Y-86659000D01*
X146476000Y-86658000D02*
X148507000Y-86658000D01*
M02*
