G04 #@! TF.GenerationSoftware,KiCad,Pcbnew,7.0.9*
G04 #@! TF.CreationDate,2023-12-23T15:45:12+01:00*
G04 #@! TF.ProjectId,connecting-connector-1-wire,636f6e6e-6563-4746-996e-672d636f6e6e,v1.0*
G04 #@! TF.SameCoordinates,Original*
G04 #@! TF.FileFunction,Copper,L1,Top*
G04 #@! TF.FilePolarity,Positive*
%FSLAX46Y46*%
G04 Gerber Fmt 4.6, Leading zero omitted, Abs format (unit mm)*
G04 Created by KiCad (PCBNEW 7.0.9) date 2023-12-23 15:45:12*
%MOMM*%
%LPD*%
G01*
G04 APERTURE LIST*
G04 #@! TA.AperFunction,ComponentPad*
%ADD10C,6.000000*%
G04 #@! TD*
G04 #@! TA.AperFunction,ComponentPad*
%ADD11C,1.500000*%
G04 #@! TD*
G04 #@! TA.AperFunction,SMDPad,CuDef*
%ADD12R,0.900000X0.900000*%
G04 #@! TD*
G04 #@! TA.AperFunction,ComponentPad*
%ADD13R,3.500000X3.500000*%
G04 #@! TD*
G04 #@! TA.AperFunction,ComponentPad*
%ADD14C,3.500000*%
G04 #@! TD*
G04 #@! TA.AperFunction,SMDPad,CuDef*
%ADD15R,2.200000X0.800000*%
G04 #@! TD*
G04 #@! TA.AperFunction,ViaPad*
%ADD16C,0.800000*%
G04 #@! TD*
G04 #@! TA.AperFunction,Conductor*
%ADD17C,0.900000*%
G04 #@! TD*
G04 #@! TA.AperFunction,Conductor*
%ADD18C,1.000000*%
G04 #@! TD*
G04 #@! TA.AperFunction,Conductor*
%ADD19C,0.500000*%
G04 #@! TD*
G04 APERTURE END LIST*
D10*
X127934000Y-71419000D03*
X156636000Y-71419000D03*
X156636000Y-97327000D03*
X128188000Y-97327000D03*
D11*
X146476000Y-89198000D03*
X143936000Y-87928000D03*
X146476000Y-86658000D03*
X143936000Y-85388000D03*
X146476000Y-84118000D03*
X143936000Y-82848000D03*
X146476000Y-81578000D03*
X143936000Y-80308000D03*
D12*
X134284000Y-85426000D03*
X134284000Y-86876000D03*
D13*
X127426000Y-79674000D03*
D14*
X127426000Y-84754000D03*
X127426000Y-89834000D03*
D15*
X136874800Y-85389000D03*
X136874800Y-86659000D03*
X136874800Y-87929000D03*
X140329200Y-87929000D03*
X140329200Y-86659000D03*
X140329200Y-85389000D03*
D16*
X134284000Y-88691000D03*
D17*
X134284000Y-86876000D02*
X134829000Y-86876000D01*
D18*
X127426000Y-89834000D02*
X131326000Y-89834000D01*
X134284000Y-88691000D02*
X134284000Y-87421000D01*
X134284000Y-87421000D02*
X134011500Y-87148500D01*
D17*
X136874800Y-86659000D02*
X135046000Y-86659000D01*
X135046000Y-86659000D02*
X134829000Y-86876000D01*
D18*
X131326000Y-89834000D02*
X134011500Y-87148500D01*
D19*
X137038800Y-86569000D02*
X137128800Y-86659000D01*
D18*
X134011500Y-87148500D02*
X134284000Y-86876000D01*
D19*
X127426000Y-90469000D02*
X126791000Y-89834000D01*
D18*
X133305000Y-85426000D02*
X132633000Y-84754000D01*
D17*
X136874800Y-85389000D02*
X134321000Y-85389000D01*
D18*
X134284000Y-85426000D02*
X133305000Y-85426000D01*
D17*
X134321000Y-85389000D02*
X134284000Y-85426000D01*
D18*
X127426000Y-84754000D02*
X131236000Y-84754000D01*
X132633000Y-84754000D02*
X131236000Y-84754000D01*
D19*
X143936000Y-86659000D02*
X144441002Y-86659000D01*
X144441002Y-86659000D02*
X146476000Y-84624002D01*
X146476000Y-84624002D02*
X146476000Y-84118000D01*
X140583200Y-86659000D02*
X141396000Y-86659000D01*
X140329200Y-86659000D02*
X143936000Y-86659000D01*
D18*
X143936000Y-85388000D02*
X141854200Y-85388000D01*
D17*
X140329200Y-85389000D02*
X141853200Y-85389000D01*
X141853200Y-85389000D02*
X141854200Y-85388000D01*
M02*
