%FSLAX45Y45*%
G04 Gerber Fmt 4.5, Leading zero omitted, Abs format (unit mm)*
G04 Created by KiCad (PCBNEW (5.1.6)-1) date 2023-01-22 16:10:45*
%MOMM*%
%LPD*%
G01*
G04 APERTURE LIST*
%TA.AperFunction,Profile*%
%ADD10C,0.050000*%
%TD*%
%ADD11C,0.200000*%
%ADD12C,0.300000*%
G04 APERTURE END LIST*
D10*
X4318000Y-8242300D02*
G75*
G02*
X4127500Y-8242300I-95250J0D01*
G01*
X12242800Y-7759700D02*
G75*
G02*
X12433300Y-7759700I95250J0D01*
G01*
X12433300Y-8242300D02*
X12433300Y-7759700D01*
X12242800Y-7759700D02*
X12242800Y-8242300D01*
X12433300Y-8242300D02*
G75*
G02*
X12242800Y-8242300I-95250J0D01*
G01*
X4127500Y-7759700D02*
G75*
G02*
X4318000Y-7759700I95250J0D01*
G01*
X4318000Y-8242300D02*
X4318000Y-7759700D01*
X4127500Y-7759700D02*
X4127500Y-8242300D01*
X2540000Y-7620000D02*
X14040000Y-7620000D01*
X14040000Y-16120000D02*
X14040000Y-7620000D01*
X2540000Y-16120000D02*
X14040000Y-16120000D01*
X2540000Y-7620000D02*
X2540000Y-16120000D01*
D11*
D12*
X2823928Y-16588214D02*
X2823928Y-16288214D01*
X2895357Y-16288214D01*
X2938214Y-16302500D01*
X2966786Y-16331071D01*
X2981071Y-16359643D01*
X2995357Y-16416786D01*
X2995357Y-16459643D01*
X2981071Y-16516786D01*
X2966786Y-16545357D01*
X2938214Y-16573929D01*
X2895357Y-16588214D01*
X2823928Y-16588214D01*
X3123928Y-16588214D02*
X3123928Y-16388214D01*
X3123928Y-16445357D02*
X3138214Y-16416786D01*
X3152500Y-16402500D01*
X3181071Y-16388214D01*
X3209643Y-16388214D01*
X3309643Y-16588214D02*
X3309643Y-16388214D01*
X3309643Y-16288214D02*
X3295357Y-16302500D01*
X3309643Y-16316786D01*
X3323928Y-16302500D01*
X3309643Y-16288214D01*
X3309643Y-16316786D01*
X3495357Y-16588214D02*
X3466786Y-16573929D01*
X3452500Y-16545357D01*
X3452500Y-16288214D01*
X3652500Y-16588214D02*
X3623928Y-16573929D01*
X3609643Y-16545357D01*
X3609643Y-16288214D01*
X3995357Y-16588214D02*
X3995357Y-16288214D01*
X4095357Y-16502500D01*
X4195357Y-16288214D01*
X4195357Y-16588214D01*
X4466786Y-16588214D02*
X4466786Y-16431071D01*
X4452500Y-16402500D01*
X4423928Y-16388214D01*
X4366786Y-16388214D01*
X4338214Y-16402500D01*
X4466786Y-16573929D02*
X4438214Y-16588214D01*
X4366786Y-16588214D01*
X4338214Y-16573929D01*
X4323928Y-16545357D01*
X4323928Y-16516786D01*
X4338214Y-16488214D01*
X4366786Y-16473929D01*
X4438214Y-16473929D01*
X4466786Y-16459643D01*
X4609643Y-16388214D02*
X4609643Y-16688214D01*
X4609643Y-16402500D02*
X4638214Y-16388214D01*
X4695357Y-16388214D01*
X4723928Y-16402500D01*
X4738214Y-16416786D01*
X4752500Y-16445357D01*
X4752500Y-16531071D01*
X4738214Y-16559643D01*
X4723928Y-16573929D01*
X4695357Y-16588214D01*
X4638214Y-16588214D01*
X4609643Y-16573929D01*
X4881071Y-16559643D02*
X4895357Y-16573929D01*
X4881071Y-16588214D01*
X4866786Y-16573929D01*
X4881071Y-16559643D01*
X4881071Y-16588214D01*
X4881071Y-16402500D02*
X4895357Y-16416786D01*
X4881071Y-16431071D01*
X4866786Y-16416786D01*
X4881071Y-16402500D01*
X4881071Y-16431071D01*
M02*
