G04 #@! TF.GenerationSoftware,KiCad,Pcbnew,(5.1.6)-1*
G04 #@! TF.CreationDate,2023-01-22T16:10:02+01:00*
G04 #@! TF.ProjectId,switches-with-lcd-display,73776974-6368-4657-932d-776974682d6c,rev?*
G04 #@! TF.SameCoordinates,Original*
G04 #@! TF.FileFunction,Soldermask,Top*
G04 #@! TF.FilePolarity,Negative*
%FSLAX46Y46*%
G04 Gerber Fmt 4.6, Leading zero omitted, Abs format (unit mm)*
G04 Created by KiCad (PCBNEW (5.1.6)-1) date 2023-01-22 16:10:02*
%MOMM*%
%LPD*%
G01*
G04 APERTURE LIST*
%ADD10C,0.900000*%
%ADD11R,2.200000X2.200000*%
%ADD12C,2.200000*%
%ADD13C,5.200000*%
%ADD14R,1.400000X2.100000*%
%ADD15R,2.100000X2.100000*%
%ADD16C,6.100000*%
%ADD17O,2.200000X2.200000*%
%ADD18C,2.100000*%
G04 APERTURE END LIST*
D10*
X135382000Y-96520000D03*
D11*
X43804000Y-103350000D03*
D12*
X46344000Y-103350000D03*
X48884000Y-103350000D03*
X51424000Y-103350000D03*
X53964000Y-103350000D03*
X56504000Y-103350000D03*
X59044000Y-103350000D03*
X61584000Y-103350000D03*
X64124000Y-103350000D03*
X66664000Y-103350000D03*
X69204000Y-103350000D03*
X71744000Y-103350000D03*
X74284000Y-103350000D03*
X76824000Y-103350000D03*
X79364000Y-103350000D03*
X81904000Y-103350000D03*
D13*
X36304000Y-103310000D03*
X129304000Y-103310000D03*
X36304000Y-158310000D03*
X129304000Y-158310000D03*
D14*
X30037000Y-114337000D03*
D15*
X28887000Y-110337000D03*
D14*
X27737000Y-114337000D03*
D16*
X29210000Y-157480000D03*
X136525000Y-157480000D03*
X136525000Y-80010000D03*
X29210000Y-80010000D03*
D10*
X101346000Y-100076000D03*
X48514000Y-109220000D03*
X42672000Y-114300000D03*
X43434000Y-116840000D03*
X37846000Y-128270000D03*
X43434000Y-130302000D03*
X52324000Y-130302000D03*
X61214000Y-130302000D03*
X81026000Y-119888000D03*
X73914000Y-128778000D03*
X76454000Y-123190000D03*
X60325000Y-127000000D03*
X64770000Y-120015000D03*
X59055000Y-120650000D03*
X60325000Y-109220000D03*
X67310000Y-123444000D03*
X70612000Y-120650000D03*
X81534000Y-109220000D03*
X76454000Y-111760000D03*
X83312000Y-105410000D03*
X80772000Y-105410000D03*
X78232000Y-105410000D03*
X75692000Y-105410000D03*
X73152000Y-105410000D03*
X70612000Y-105410000D03*
X58166000Y-105410000D03*
X55372000Y-105410000D03*
X52832000Y-105410000D03*
X50292000Y-105410000D03*
X47752000Y-105410000D03*
X133985000Y-91440000D03*
X123825000Y-91440000D03*
X113665000Y-91440000D03*
X103505000Y-91440000D03*
X93345000Y-91440000D03*
X83185000Y-91440000D03*
X73025000Y-91440000D03*
X62865000Y-91440000D03*
X52705000Y-91440000D03*
X42545000Y-91440000D03*
D12*
X128524000Y-96520000D03*
X128524000Y-86360000D03*
X128524000Y-91440000D03*
X128524000Y-88900000D03*
X128524000Y-93980000D03*
X108204000Y-96520000D03*
X108204000Y-86360000D03*
X108204000Y-91440000D03*
X108204000Y-88900000D03*
X108204000Y-93980000D03*
X98044000Y-96520000D03*
X98044000Y-86360000D03*
X98044000Y-91440000D03*
X98044000Y-88900000D03*
X98044000Y-93980000D03*
X118364000Y-96520000D03*
X118364000Y-86360000D03*
X118364000Y-91440000D03*
X118364000Y-88900000D03*
X118364000Y-93980000D03*
X57404000Y-96520000D03*
X57404000Y-86360000D03*
X57404000Y-91440000D03*
X57404000Y-88900000D03*
X57404000Y-93980000D03*
X77724000Y-96520000D03*
X77724000Y-86360000D03*
X77724000Y-91440000D03*
X77724000Y-88900000D03*
X77724000Y-93980000D03*
X87884000Y-96520000D03*
X87884000Y-86360000D03*
X87884000Y-91440000D03*
X87884000Y-88900000D03*
X87884000Y-93980000D03*
X67564000Y-96520000D03*
X67564000Y-86360000D03*
X67564000Y-91440000D03*
X67564000Y-88900000D03*
X67564000Y-93980000D03*
X37084000Y-96520000D03*
X37084000Y-86360000D03*
X37084000Y-91440000D03*
X37084000Y-88900000D03*
X37084000Y-93980000D03*
X47244000Y-96520000D03*
X47244000Y-86360000D03*
X47244000Y-91440000D03*
X47244000Y-88900000D03*
X47244000Y-93980000D03*
D17*
X129159000Y-113030000D03*
X101219000Y-113030000D03*
X111379000Y-113030000D03*
X106299000Y-113030000D03*
X121539000Y-113030000D03*
X108839000Y-113030000D03*
X118999000Y-113030000D03*
D11*
X80899000Y-113030000D03*
D17*
X91059000Y-113030000D03*
X93599000Y-113030000D03*
X126619000Y-113030000D03*
X113919000Y-113030000D03*
X88519000Y-113030000D03*
X83439000Y-113030000D03*
X85979000Y-113030000D03*
X103759000Y-113030000D03*
X98679000Y-113030000D03*
X124079000Y-113030000D03*
X116459000Y-113030000D03*
X96139000Y-113030000D03*
D15*
X127254000Y-80010000D03*
D18*
X129794000Y-80010000D03*
D15*
X106934000Y-80010000D03*
D18*
X109474000Y-80010000D03*
D15*
X96774000Y-80010000D03*
D18*
X99314000Y-80010000D03*
D15*
X117094000Y-80010000D03*
D18*
X119634000Y-80010000D03*
D15*
X56134000Y-80010000D03*
D18*
X58674000Y-80010000D03*
D15*
X76454000Y-80010000D03*
D18*
X78994000Y-80010000D03*
D15*
X86614000Y-80010000D03*
D18*
X89154000Y-80010000D03*
D15*
X66294000Y-80010000D03*
D18*
X68834000Y-80010000D03*
D15*
X35814000Y-80010000D03*
D18*
X38354000Y-80010000D03*
D15*
X45974000Y-80010000D03*
D18*
X48514000Y-80010000D03*
M02*
