%TF.GenerationSoftware,KiCad,Pcbnew,7.0.9*%
%TF.CreationDate,2023-12-21T14:41:17+01:00*%
%TF.ProjectId,zone-controller,7a6f6e65-2d63-46f6-9e74-726f6c6c6572,v2.0*%
%TF.SameCoordinates,Original*%
%TF.FileFunction,Drillmap*%
%TF.FilePolarity,Positive*%
%FSLAX45Y45*%
G04 Gerber Fmt 4.5, Leading zero omitted, Abs format (unit mm)*
G04 Created by KiCad (PCBNEW 7.0.9) date 2023-12-21 14:41:17*
%MOMM*%
%LPD*%
G01*
G04 APERTURE LIST*
%ADD10C,0.050000*%
%ADD11C,0.200000*%
%ADD12C,0.330000*%
G04 APERTURE END LIST*
D10*
X29184600Y-10045700D02*
X29184600Y-10172700D01*
X22301200Y-11633200D02*
G75*
G03*
X22301200Y-11887200I0J-127000D01*
G01*
X12491500Y-20967700D02*
X31491500Y-20967700D01*
X12491500Y-5648200D02*
X12491500Y-20967700D01*
X31288000Y-17094200D02*
G75*
G03*
X31288000Y-17094200I-150000J0D01*
G01*
X29184600Y-10172700D02*
G75*
G03*
X29438600Y-10172700I127000J0D01*
G01*
X30607000Y-11633200D02*
X22301200Y-11633200D01*
X21704300Y-11887200D02*
G75*
G03*
X21704300Y-11633200I0J127000D01*
G01*
X14795500Y-11442700D02*
X14795500Y-11315700D01*
X12491500Y-5648200D02*
X31491500Y-5648200D01*
X29438600Y-10045700D02*
X29438600Y-10172700D01*
X21704300Y-11887200D02*
X13652500Y-11887200D01*
X13652500Y-11633200D02*
X21704300Y-11633200D01*
X31491500Y-5648200D02*
X31491500Y-20967700D01*
X29438600Y-10045700D02*
G75*
G03*
X29184600Y-10045700I-127000J0D01*
G01*
X14541500Y-11315700D02*
X14541500Y-11442700D01*
X14541500Y-11442700D02*
G75*
G03*
X14795500Y-11442700I127000J0D01*
G01*
X14795500Y-11315700D02*
G75*
G03*
X14541500Y-11315700I-127000J0D01*
G01*
X30607000Y-11887200D02*
X22301200Y-11887200D01*
X31288000Y-17729200D02*
G75*
G03*
X31288000Y-17729200I-150000J0D01*
G01*
X13652500Y-11633200D02*
G75*
G03*
X13652500Y-11887200I0J-127000D01*
G01*
X30607000Y-11887200D02*
G75*
G03*
X30607000Y-11633200I0J127000D01*
G01*
D11*
D12*
X30924600Y-14389100D02*
X31254600Y-14719100D01*
X31254600Y-14389100D02*
X30924600Y-14719100D01*
X30924600Y-15532300D02*
X31254600Y-15862300D01*
X31254600Y-15532300D02*
X30924600Y-15862300D01*
D11*
X12749777Y-21281684D02*
X12749777Y-21081684D01*
X12749777Y-21081684D02*
X12797396Y-21081684D01*
X12797396Y-21081684D02*
X12825967Y-21091208D01*
X12825967Y-21091208D02*
X12845015Y-21110255D01*
X12845015Y-21110255D02*
X12854539Y-21129303D01*
X12854539Y-21129303D02*
X12864062Y-21167398D01*
X12864062Y-21167398D02*
X12864062Y-21195970D01*
X12864062Y-21195970D02*
X12854539Y-21234065D01*
X12854539Y-21234065D02*
X12845015Y-21253112D01*
X12845015Y-21253112D02*
X12825967Y-21272160D01*
X12825967Y-21272160D02*
X12797396Y-21281684D01*
X12797396Y-21281684D02*
X12749777Y-21281684D01*
X12949777Y-21281684D02*
X12949777Y-21148350D01*
X12949777Y-21186446D02*
X12959301Y-21167398D01*
X12959301Y-21167398D02*
X12968824Y-21157874D01*
X12968824Y-21157874D02*
X12987872Y-21148350D01*
X12987872Y-21148350D02*
X13006920Y-21148350D01*
X13073586Y-21281684D02*
X13073586Y-21148350D01*
X13073586Y-21081684D02*
X13064062Y-21091208D01*
X13064062Y-21091208D02*
X13073586Y-21100731D01*
X13073586Y-21100731D02*
X13083110Y-21091208D01*
X13083110Y-21091208D02*
X13073586Y-21081684D01*
X13073586Y-21081684D02*
X13073586Y-21100731D01*
X13197396Y-21281684D02*
X13178348Y-21272160D01*
X13178348Y-21272160D02*
X13168824Y-21253112D01*
X13168824Y-21253112D02*
X13168824Y-21081684D01*
X13302158Y-21281684D02*
X13283110Y-21272160D01*
X13283110Y-21272160D02*
X13273586Y-21253112D01*
X13273586Y-21253112D02*
X13273586Y-21081684D01*
X13530729Y-21281684D02*
X13530729Y-21081684D01*
X13530729Y-21081684D02*
X13597396Y-21224541D01*
X13597396Y-21224541D02*
X13664062Y-21081684D01*
X13664062Y-21081684D02*
X13664062Y-21281684D01*
X13845015Y-21281684D02*
X13845015Y-21176922D01*
X13845015Y-21176922D02*
X13835491Y-21157874D01*
X13835491Y-21157874D02*
X13816443Y-21148350D01*
X13816443Y-21148350D02*
X13778348Y-21148350D01*
X13778348Y-21148350D02*
X13759301Y-21157874D01*
X13845015Y-21272160D02*
X13825967Y-21281684D01*
X13825967Y-21281684D02*
X13778348Y-21281684D01*
X13778348Y-21281684D02*
X13759301Y-21272160D01*
X13759301Y-21272160D02*
X13749777Y-21253112D01*
X13749777Y-21253112D02*
X13749777Y-21234065D01*
X13749777Y-21234065D02*
X13759301Y-21215017D01*
X13759301Y-21215017D02*
X13778348Y-21205493D01*
X13778348Y-21205493D02*
X13825967Y-21205493D01*
X13825967Y-21205493D02*
X13845015Y-21195970D01*
X13940253Y-21148350D02*
X13940253Y-21348350D01*
X13940253Y-21157874D02*
X13959301Y-21148350D01*
X13959301Y-21148350D02*
X13997396Y-21148350D01*
X13997396Y-21148350D02*
X14016443Y-21157874D01*
X14016443Y-21157874D02*
X14025967Y-21167398D01*
X14025967Y-21167398D02*
X14035491Y-21186446D01*
X14035491Y-21186446D02*
X14035491Y-21243589D01*
X14035491Y-21243589D02*
X14025967Y-21262636D01*
X14025967Y-21262636D02*
X14016443Y-21272160D01*
X14016443Y-21272160D02*
X13997396Y-21281684D01*
X13997396Y-21281684D02*
X13959301Y-21281684D01*
X13959301Y-21281684D02*
X13940253Y-21272160D01*
X14121205Y-21262636D02*
X14130729Y-21272160D01*
X14130729Y-21272160D02*
X14121205Y-21281684D01*
X14121205Y-21281684D02*
X14111682Y-21272160D01*
X14111682Y-21272160D02*
X14121205Y-21262636D01*
X14121205Y-21262636D02*
X14121205Y-21281684D01*
X14121205Y-21157874D02*
X14130729Y-21167398D01*
X14130729Y-21167398D02*
X14121205Y-21176922D01*
X14121205Y-21176922D02*
X14111682Y-21167398D01*
X14111682Y-21167398D02*
X14121205Y-21157874D01*
X14121205Y-21157874D02*
X14121205Y-21176922D01*
X12289000Y-21510200D02*
X12489000Y-21710200D01*
X12489000Y-21510200D02*
X12289000Y-21710200D01*
X12730729Y-21501684D02*
X12854539Y-21501684D01*
X12854539Y-21501684D02*
X12787872Y-21577874D01*
X12787872Y-21577874D02*
X12816443Y-21577874D01*
X12816443Y-21577874D02*
X12835491Y-21587398D01*
X12835491Y-21587398D02*
X12845015Y-21596922D01*
X12845015Y-21596922D02*
X12854539Y-21615970D01*
X12854539Y-21615970D02*
X12854539Y-21663589D01*
X12854539Y-21663589D02*
X12845015Y-21682636D01*
X12845015Y-21682636D02*
X12835491Y-21692160D01*
X12835491Y-21692160D02*
X12816443Y-21701684D01*
X12816443Y-21701684D02*
X12759301Y-21701684D01*
X12759301Y-21701684D02*
X12740253Y-21692160D01*
X12740253Y-21692160D02*
X12730729Y-21682636D01*
X12940253Y-21682636D02*
X12949777Y-21692160D01*
X12949777Y-21692160D02*
X12940253Y-21701684D01*
X12940253Y-21701684D02*
X12930729Y-21692160D01*
X12930729Y-21692160D02*
X12940253Y-21682636D01*
X12940253Y-21682636D02*
X12940253Y-21701684D01*
X13016443Y-21501684D02*
X13140253Y-21501684D01*
X13140253Y-21501684D02*
X13073586Y-21577874D01*
X13073586Y-21577874D02*
X13102158Y-21577874D01*
X13102158Y-21577874D02*
X13121205Y-21587398D01*
X13121205Y-21587398D02*
X13130729Y-21596922D01*
X13130729Y-21596922D02*
X13140253Y-21615970D01*
X13140253Y-21615970D02*
X13140253Y-21663589D01*
X13140253Y-21663589D02*
X13130729Y-21682636D01*
X13130729Y-21682636D02*
X13121205Y-21692160D01*
X13121205Y-21692160D02*
X13102158Y-21701684D01*
X13102158Y-21701684D02*
X13045015Y-21701684D01*
X13045015Y-21701684D02*
X13025967Y-21692160D01*
X13025967Y-21692160D02*
X13016443Y-21682636D01*
X13264062Y-21501684D02*
X13283110Y-21501684D01*
X13283110Y-21501684D02*
X13302158Y-21511208D01*
X13302158Y-21511208D02*
X13311682Y-21520731D01*
X13311682Y-21520731D02*
X13321205Y-21539779D01*
X13321205Y-21539779D02*
X13330729Y-21577874D01*
X13330729Y-21577874D02*
X13330729Y-21625493D01*
X13330729Y-21625493D02*
X13321205Y-21663589D01*
X13321205Y-21663589D02*
X13311682Y-21682636D01*
X13311682Y-21682636D02*
X13302158Y-21692160D01*
X13302158Y-21692160D02*
X13283110Y-21701684D01*
X13283110Y-21701684D02*
X13264062Y-21701684D01*
X13264062Y-21701684D02*
X13245015Y-21692160D01*
X13245015Y-21692160D02*
X13235491Y-21682636D01*
X13235491Y-21682636D02*
X13225967Y-21663589D01*
X13225967Y-21663589D02*
X13216443Y-21625493D01*
X13216443Y-21625493D02*
X13216443Y-21577874D01*
X13216443Y-21577874D02*
X13225967Y-21539779D01*
X13225967Y-21539779D02*
X13235491Y-21520731D01*
X13235491Y-21520731D02*
X13245015Y-21511208D01*
X13245015Y-21511208D02*
X13264062Y-21501684D01*
X13454539Y-21501684D02*
X13473586Y-21501684D01*
X13473586Y-21501684D02*
X13492634Y-21511208D01*
X13492634Y-21511208D02*
X13502158Y-21520731D01*
X13502158Y-21520731D02*
X13511682Y-21539779D01*
X13511682Y-21539779D02*
X13521205Y-21577874D01*
X13521205Y-21577874D02*
X13521205Y-21625493D01*
X13521205Y-21625493D02*
X13511682Y-21663589D01*
X13511682Y-21663589D02*
X13502158Y-21682636D01*
X13502158Y-21682636D02*
X13492634Y-21692160D01*
X13492634Y-21692160D02*
X13473586Y-21701684D01*
X13473586Y-21701684D02*
X13454539Y-21701684D01*
X13454539Y-21701684D02*
X13435491Y-21692160D01*
X13435491Y-21692160D02*
X13425967Y-21682636D01*
X13425967Y-21682636D02*
X13416443Y-21663589D01*
X13416443Y-21663589D02*
X13406920Y-21625493D01*
X13406920Y-21625493D02*
X13406920Y-21577874D01*
X13406920Y-21577874D02*
X13416443Y-21539779D01*
X13416443Y-21539779D02*
X13425967Y-21520731D01*
X13425967Y-21520731D02*
X13435491Y-21511208D01*
X13435491Y-21511208D02*
X13454539Y-21501684D01*
X13606920Y-21701684D02*
X13606920Y-21568350D01*
X13606920Y-21587398D02*
X13616443Y-21577874D01*
X13616443Y-21577874D02*
X13635491Y-21568350D01*
X13635491Y-21568350D02*
X13664063Y-21568350D01*
X13664063Y-21568350D02*
X13683110Y-21577874D01*
X13683110Y-21577874D02*
X13692634Y-21596922D01*
X13692634Y-21596922D02*
X13692634Y-21701684D01*
X13692634Y-21596922D02*
X13702158Y-21577874D01*
X13702158Y-21577874D02*
X13721205Y-21568350D01*
X13721205Y-21568350D02*
X13749777Y-21568350D01*
X13749777Y-21568350D02*
X13768824Y-21577874D01*
X13768824Y-21577874D02*
X13778348Y-21596922D01*
X13778348Y-21596922D02*
X13778348Y-21701684D01*
X13873586Y-21701684D02*
X13873586Y-21568350D01*
X13873586Y-21587398D02*
X13883110Y-21577874D01*
X13883110Y-21577874D02*
X13902158Y-21568350D01*
X13902158Y-21568350D02*
X13930729Y-21568350D01*
X13930729Y-21568350D02*
X13949777Y-21577874D01*
X13949777Y-21577874D02*
X13959301Y-21596922D01*
X13959301Y-21596922D02*
X13959301Y-21701684D01*
X13959301Y-21596922D02*
X13968824Y-21577874D01*
X13968824Y-21577874D02*
X13987872Y-21568350D01*
X13987872Y-21568350D02*
X14016443Y-21568350D01*
X14016443Y-21568350D02*
X14035491Y-21577874D01*
X14035491Y-21577874D02*
X14045015Y-21596922D01*
X14045015Y-21596922D02*
X14045015Y-21701684D01*
X14435491Y-21492160D02*
X14264063Y-21749303D01*
X14692634Y-21501684D02*
X14711682Y-21501684D01*
X14711682Y-21501684D02*
X14730729Y-21511208D01*
X14730729Y-21511208D02*
X14740253Y-21520731D01*
X14740253Y-21520731D02*
X14749777Y-21539779D01*
X14749777Y-21539779D02*
X14759301Y-21577874D01*
X14759301Y-21577874D02*
X14759301Y-21625493D01*
X14759301Y-21625493D02*
X14749777Y-21663589D01*
X14749777Y-21663589D02*
X14740253Y-21682636D01*
X14740253Y-21682636D02*
X14730729Y-21692160D01*
X14730729Y-21692160D02*
X14711682Y-21701684D01*
X14711682Y-21701684D02*
X14692634Y-21701684D01*
X14692634Y-21701684D02*
X14673586Y-21692160D01*
X14673586Y-21692160D02*
X14664063Y-21682636D01*
X14664063Y-21682636D02*
X14654539Y-21663589D01*
X14654539Y-21663589D02*
X14645015Y-21625493D01*
X14645015Y-21625493D02*
X14645015Y-21577874D01*
X14645015Y-21577874D02*
X14654539Y-21539779D01*
X14654539Y-21539779D02*
X14664063Y-21520731D01*
X14664063Y-21520731D02*
X14673586Y-21511208D01*
X14673586Y-21511208D02*
X14692634Y-21501684D01*
X14845015Y-21682636D02*
X14854539Y-21692160D01*
X14854539Y-21692160D02*
X14845015Y-21701684D01*
X14845015Y-21701684D02*
X14835491Y-21692160D01*
X14835491Y-21692160D02*
X14845015Y-21682636D01*
X14845015Y-21682636D02*
X14845015Y-21701684D01*
X15045015Y-21701684D02*
X14930729Y-21701684D01*
X14987872Y-21701684D02*
X14987872Y-21501684D01*
X14987872Y-21501684D02*
X14968825Y-21530255D01*
X14968825Y-21530255D02*
X14949777Y-21549303D01*
X14949777Y-21549303D02*
X14930729Y-21558827D01*
X15121206Y-21520731D02*
X15130729Y-21511208D01*
X15130729Y-21511208D02*
X15149777Y-21501684D01*
X15149777Y-21501684D02*
X15197396Y-21501684D01*
X15197396Y-21501684D02*
X15216444Y-21511208D01*
X15216444Y-21511208D02*
X15225967Y-21520731D01*
X15225967Y-21520731D02*
X15235491Y-21539779D01*
X15235491Y-21539779D02*
X15235491Y-21558827D01*
X15235491Y-21558827D02*
X15225967Y-21587398D01*
X15225967Y-21587398D02*
X15111682Y-21701684D01*
X15111682Y-21701684D02*
X15235491Y-21701684D01*
X15330729Y-21701684D02*
X15368825Y-21701684D01*
X15368825Y-21701684D02*
X15387872Y-21692160D01*
X15387872Y-21692160D02*
X15397396Y-21682636D01*
X15397396Y-21682636D02*
X15416444Y-21654065D01*
X15416444Y-21654065D02*
X15425967Y-21615970D01*
X15425967Y-21615970D02*
X15425967Y-21539779D01*
X15425967Y-21539779D02*
X15416444Y-21520731D01*
X15416444Y-21520731D02*
X15406920Y-21511208D01*
X15406920Y-21511208D02*
X15387872Y-21501684D01*
X15387872Y-21501684D02*
X15349777Y-21501684D01*
X15349777Y-21501684D02*
X15330729Y-21511208D01*
X15330729Y-21511208D02*
X15321206Y-21520731D01*
X15321206Y-21520731D02*
X15311682Y-21539779D01*
X15311682Y-21539779D02*
X15311682Y-21587398D01*
X15311682Y-21587398D02*
X15321206Y-21606446D01*
X15321206Y-21606446D02*
X15330729Y-21615970D01*
X15330729Y-21615970D02*
X15349777Y-21625493D01*
X15349777Y-21625493D02*
X15387872Y-21625493D01*
X15387872Y-21625493D02*
X15406920Y-21615970D01*
X15406920Y-21615970D02*
X15416444Y-21606446D01*
X15416444Y-21606446D02*
X15425967Y-21587398D01*
X15521206Y-21701684D02*
X15559301Y-21701684D01*
X15559301Y-21701684D02*
X15578348Y-21692160D01*
X15578348Y-21692160D02*
X15587872Y-21682636D01*
X15587872Y-21682636D02*
X15606920Y-21654065D01*
X15606920Y-21654065D02*
X15616444Y-21615970D01*
X15616444Y-21615970D02*
X15616444Y-21539779D01*
X15616444Y-21539779D02*
X15606920Y-21520731D01*
X15606920Y-21520731D02*
X15597396Y-21511208D01*
X15597396Y-21511208D02*
X15578348Y-21501684D01*
X15578348Y-21501684D02*
X15540253Y-21501684D01*
X15540253Y-21501684D02*
X15521206Y-21511208D01*
X15521206Y-21511208D02*
X15511682Y-21520731D01*
X15511682Y-21520731D02*
X15502158Y-21539779D01*
X15502158Y-21539779D02*
X15502158Y-21587398D01*
X15502158Y-21587398D02*
X15511682Y-21606446D01*
X15511682Y-21606446D02*
X15521206Y-21615970D01*
X15521206Y-21615970D02*
X15540253Y-21625493D01*
X15540253Y-21625493D02*
X15578348Y-21625493D01*
X15578348Y-21625493D02*
X15597396Y-21615970D01*
X15597396Y-21615970D02*
X15606920Y-21606446D01*
X15606920Y-21606446D02*
X15616444Y-21587398D01*
X15692634Y-21501684D02*
X15692634Y-21539779D01*
X15768825Y-21501684D02*
X15768825Y-21539779D01*
X16064063Y-21777874D02*
X16054539Y-21768350D01*
X16054539Y-21768350D02*
X16035491Y-21739779D01*
X16035491Y-21739779D02*
X16025968Y-21720731D01*
X16025968Y-21720731D02*
X16016444Y-21692160D01*
X16016444Y-21692160D02*
X16006920Y-21644541D01*
X16006920Y-21644541D02*
X16006920Y-21606446D01*
X16006920Y-21606446D02*
X16016444Y-21558827D01*
X16016444Y-21558827D02*
X16025968Y-21530255D01*
X16025968Y-21530255D02*
X16035491Y-21511208D01*
X16035491Y-21511208D02*
X16054539Y-21482636D01*
X16054539Y-21482636D02*
X16064063Y-21473112D01*
X16130729Y-21520731D02*
X16140253Y-21511208D01*
X16140253Y-21511208D02*
X16159301Y-21501684D01*
X16159301Y-21501684D02*
X16206920Y-21501684D01*
X16206920Y-21501684D02*
X16225968Y-21511208D01*
X16225968Y-21511208D02*
X16235491Y-21520731D01*
X16235491Y-21520731D02*
X16245015Y-21539779D01*
X16245015Y-21539779D02*
X16245015Y-21558827D01*
X16245015Y-21558827D02*
X16235491Y-21587398D01*
X16235491Y-21587398D02*
X16121206Y-21701684D01*
X16121206Y-21701684D02*
X16245015Y-21701684D01*
X16483110Y-21701684D02*
X16483110Y-21501684D01*
X16568825Y-21701684D02*
X16568825Y-21596922D01*
X16568825Y-21596922D02*
X16559301Y-21577874D01*
X16559301Y-21577874D02*
X16540253Y-21568350D01*
X16540253Y-21568350D02*
X16511682Y-21568350D01*
X16511682Y-21568350D02*
X16492634Y-21577874D01*
X16492634Y-21577874D02*
X16483110Y-21587398D01*
X16692634Y-21701684D02*
X16673587Y-21692160D01*
X16673587Y-21692160D02*
X16664063Y-21682636D01*
X16664063Y-21682636D02*
X16654539Y-21663589D01*
X16654539Y-21663589D02*
X16654539Y-21606446D01*
X16654539Y-21606446D02*
X16664063Y-21587398D01*
X16664063Y-21587398D02*
X16673587Y-21577874D01*
X16673587Y-21577874D02*
X16692634Y-21568350D01*
X16692634Y-21568350D02*
X16721206Y-21568350D01*
X16721206Y-21568350D02*
X16740253Y-21577874D01*
X16740253Y-21577874D02*
X16749777Y-21587398D01*
X16749777Y-21587398D02*
X16759301Y-21606446D01*
X16759301Y-21606446D02*
X16759301Y-21663589D01*
X16759301Y-21663589D02*
X16749777Y-21682636D01*
X16749777Y-21682636D02*
X16740253Y-21692160D01*
X16740253Y-21692160D02*
X16721206Y-21701684D01*
X16721206Y-21701684D02*
X16692634Y-21701684D01*
X16873587Y-21701684D02*
X16854539Y-21692160D01*
X16854539Y-21692160D02*
X16845015Y-21673112D01*
X16845015Y-21673112D02*
X16845015Y-21501684D01*
X17025968Y-21692160D02*
X17006920Y-21701684D01*
X17006920Y-21701684D02*
X16968825Y-21701684D01*
X16968825Y-21701684D02*
X16949777Y-21692160D01*
X16949777Y-21692160D02*
X16940253Y-21673112D01*
X16940253Y-21673112D02*
X16940253Y-21596922D01*
X16940253Y-21596922D02*
X16949777Y-21577874D01*
X16949777Y-21577874D02*
X16968825Y-21568350D01*
X16968825Y-21568350D02*
X17006920Y-21568350D01*
X17006920Y-21568350D02*
X17025968Y-21577874D01*
X17025968Y-21577874D02*
X17035492Y-21596922D01*
X17035492Y-21596922D02*
X17035492Y-21615970D01*
X17035492Y-21615970D02*
X16940253Y-21635017D01*
X17111682Y-21692160D02*
X17130730Y-21701684D01*
X17130730Y-21701684D02*
X17168825Y-21701684D01*
X17168825Y-21701684D02*
X17187873Y-21692160D01*
X17187873Y-21692160D02*
X17197396Y-21673112D01*
X17197396Y-21673112D02*
X17197396Y-21663589D01*
X17197396Y-21663589D02*
X17187873Y-21644541D01*
X17187873Y-21644541D02*
X17168825Y-21635017D01*
X17168825Y-21635017D02*
X17140253Y-21635017D01*
X17140253Y-21635017D02*
X17121206Y-21625493D01*
X17121206Y-21625493D02*
X17111682Y-21606446D01*
X17111682Y-21606446D02*
X17111682Y-21596922D01*
X17111682Y-21596922D02*
X17121206Y-21577874D01*
X17121206Y-21577874D02*
X17140253Y-21568350D01*
X17140253Y-21568350D02*
X17168825Y-21568350D01*
X17168825Y-21568350D02*
X17187873Y-21577874D01*
X17264063Y-21777874D02*
X17273587Y-21768350D01*
X17273587Y-21768350D02*
X17292634Y-21739779D01*
X17292634Y-21739779D02*
X17302158Y-21720731D01*
X17302158Y-21720731D02*
X17311682Y-21692160D01*
X17311682Y-21692160D02*
X17321206Y-21644541D01*
X17321206Y-21644541D02*
X17321206Y-21606446D01*
X17321206Y-21606446D02*
X17311682Y-21558827D01*
X17311682Y-21558827D02*
X17302158Y-21530255D01*
X17302158Y-21530255D02*
X17292634Y-21511208D01*
X17292634Y-21511208D02*
X17273587Y-21482636D01*
X17273587Y-21482636D02*
X17264063Y-21473112D01*
X17625968Y-21777874D02*
X17616444Y-21768350D01*
X17616444Y-21768350D02*
X17597396Y-21739779D01*
X17597396Y-21739779D02*
X17587873Y-21720731D01*
X17587873Y-21720731D02*
X17578349Y-21692160D01*
X17578349Y-21692160D02*
X17568825Y-21644541D01*
X17568825Y-21644541D02*
X17568825Y-21606446D01*
X17568825Y-21606446D02*
X17578349Y-21558827D01*
X17578349Y-21558827D02*
X17587873Y-21530255D01*
X17587873Y-21530255D02*
X17597396Y-21511208D01*
X17597396Y-21511208D02*
X17616444Y-21482636D01*
X17616444Y-21482636D02*
X17625968Y-21473112D01*
X17702158Y-21568350D02*
X17702158Y-21701684D01*
X17702158Y-21587398D02*
X17711682Y-21577874D01*
X17711682Y-21577874D02*
X17730730Y-21568350D01*
X17730730Y-21568350D02*
X17759301Y-21568350D01*
X17759301Y-21568350D02*
X17778349Y-21577874D01*
X17778349Y-21577874D02*
X17787873Y-21596922D01*
X17787873Y-21596922D02*
X17787873Y-21701684D01*
X17911682Y-21701684D02*
X17892634Y-21692160D01*
X17892634Y-21692160D02*
X17883111Y-21682636D01*
X17883111Y-21682636D02*
X17873587Y-21663589D01*
X17873587Y-21663589D02*
X17873587Y-21606446D01*
X17873587Y-21606446D02*
X17883111Y-21587398D01*
X17883111Y-21587398D02*
X17892634Y-21577874D01*
X17892634Y-21577874D02*
X17911682Y-21568350D01*
X17911682Y-21568350D02*
X17940254Y-21568350D01*
X17940254Y-21568350D02*
X17959301Y-21577874D01*
X17959301Y-21577874D02*
X17968825Y-21587398D01*
X17968825Y-21587398D02*
X17978349Y-21606446D01*
X17978349Y-21606446D02*
X17978349Y-21663589D01*
X17978349Y-21663589D02*
X17968825Y-21682636D01*
X17968825Y-21682636D02*
X17959301Y-21692160D01*
X17959301Y-21692160D02*
X17940254Y-21701684D01*
X17940254Y-21701684D02*
X17911682Y-21701684D01*
X18035492Y-21568350D02*
X18111682Y-21568350D01*
X18064063Y-21501684D02*
X18064063Y-21673112D01*
X18064063Y-21673112D02*
X18073587Y-21692160D01*
X18073587Y-21692160D02*
X18092634Y-21701684D01*
X18092634Y-21701684D02*
X18111682Y-21701684D01*
X18330730Y-21568350D02*
X18330730Y-21768350D01*
X18330730Y-21577874D02*
X18349777Y-21568350D01*
X18349777Y-21568350D02*
X18387873Y-21568350D01*
X18387873Y-21568350D02*
X18406920Y-21577874D01*
X18406920Y-21577874D02*
X18416444Y-21587398D01*
X18416444Y-21587398D02*
X18425968Y-21606446D01*
X18425968Y-21606446D02*
X18425968Y-21663589D01*
X18425968Y-21663589D02*
X18416444Y-21682636D01*
X18416444Y-21682636D02*
X18406920Y-21692160D01*
X18406920Y-21692160D02*
X18387873Y-21701684D01*
X18387873Y-21701684D02*
X18349777Y-21701684D01*
X18349777Y-21701684D02*
X18330730Y-21692160D01*
X18540254Y-21701684D02*
X18521206Y-21692160D01*
X18521206Y-21692160D02*
X18511682Y-21673112D01*
X18511682Y-21673112D02*
X18511682Y-21501684D01*
X18702158Y-21701684D02*
X18702158Y-21596922D01*
X18702158Y-21596922D02*
X18692635Y-21577874D01*
X18692635Y-21577874D02*
X18673587Y-21568350D01*
X18673587Y-21568350D02*
X18635492Y-21568350D01*
X18635492Y-21568350D02*
X18616444Y-21577874D01*
X18702158Y-21692160D02*
X18683111Y-21701684D01*
X18683111Y-21701684D02*
X18635492Y-21701684D01*
X18635492Y-21701684D02*
X18616444Y-21692160D01*
X18616444Y-21692160D02*
X18606920Y-21673112D01*
X18606920Y-21673112D02*
X18606920Y-21654065D01*
X18606920Y-21654065D02*
X18616444Y-21635017D01*
X18616444Y-21635017D02*
X18635492Y-21625493D01*
X18635492Y-21625493D02*
X18683111Y-21625493D01*
X18683111Y-21625493D02*
X18702158Y-21615970D01*
X18768825Y-21568350D02*
X18845015Y-21568350D01*
X18797396Y-21501684D02*
X18797396Y-21673112D01*
X18797396Y-21673112D02*
X18806920Y-21692160D01*
X18806920Y-21692160D02*
X18825968Y-21701684D01*
X18825968Y-21701684D02*
X18845015Y-21701684D01*
X18987873Y-21692160D02*
X18968825Y-21701684D01*
X18968825Y-21701684D02*
X18930730Y-21701684D01*
X18930730Y-21701684D02*
X18911682Y-21692160D01*
X18911682Y-21692160D02*
X18902158Y-21673112D01*
X18902158Y-21673112D02*
X18902158Y-21596922D01*
X18902158Y-21596922D02*
X18911682Y-21577874D01*
X18911682Y-21577874D02*
X18930730Y-21568350D01*
X18930730Y-21568350D02*
X18968825Y-21568350D01*
X18968825Y-21568350D02*
X18987873Y-21577874D01*
X18987873Y-21577874D02*
X18997396Y-21596922D01*
X18997396Y-21596922D02*
X18997396Y-21615970D01*
X18997396Y-21615970D02*
X18902158Y-21635017D01*
X19168825Y-21701684D02*
X19168825Y-21501684D01*
X19168825Y-21692160D02*
X19149777Y-21701684D01*
X19149777Y-21701684D02*
X19111682Y-21701684D01*
X19111682Y-21701684D02*
X19092635Y-21692160D01*
X19092635Y-21692160D02*
X19083111Y-21682636D01*
X19083111Y-21682636D02*
X19073587Y-21663589D01*
X19073587Y-21663589D02*
X19073587Y-21606446D01*
X19073587Y-21606446D02*
X19083111Y-21587398D01*
X19083111Y-21587398D02*
X19092635Y-21577874D01*
X19092635Y-21577874D02*
X19111682Y-21568350D01*
X19111682Y-21568350D02*
X19149777Y-21568350D01*
X19149777Y-21568350D02*
X19168825Y-21577874D01*
X19245016Y-21777874D02*
X19254539Y-21768350D01*
X19254539Y-21768350D02*
X19273587Y-21739779D01*
X19273587Y-21739779D02*
X19283111Y-21720731D01*
X19283111Y-21720731D02*
X19292635Y-21692160D01*
X19292635Y-21692160D02*
X19302158Y-21644541D01*
X19302158Y-21644541D02*
X19302158Y-21606446D01*
X19302158Y-21606446D02*
X19292635Y-21558827D01*
X19292635Y-21558827D02*
X19283111Y-21530255D01*
X19283111Y-21530255D02*
X19273587Y-21511208D01*
X19273587Y-21511208D02*
X19254539Y-21482636D01*
X19254539Y-21482636D02*
X19245016Y-21473112D01*
M02*
