G04 #@! TF.GenerationSoftware,KiCad,Pcbnew,7.0.9*
G04 #@! TF.CreationDate,2023-12-21T14:40:28+01:00*
G04 #@! TF.ProjectId,zone-controller,7a6f6e65-2d63-46f6-9e74-726f6c6c6572,v2.0*
G04 #@! TF.SameCoordinates,Original*
G04 #@! TF.FileFunction,Soldermask,Top*
G04 #@! TF.FilePolarity,Negative*
%FSLAX46Y46*%
G04 Gerber Fmt 4.6, Leading zero omitted, Abs format (unit mm)*
G04 Created by KiCad (PCBNEW 7.0.9) date 2023-12-21 14:40:28*
%MOMM*%
%LPD*%
G01*
G04 APERTURE LIST*
G04 Aperture macros list*
%AMRoundRect*
0 Rectangle with rounded corners*
0 $1 Rounding radius*
0 $2 $3 $4 $5 $6 $7 $8 $9 X,Y pos of 4 corners*
0 Add a 4 corners polygon primitive as box body*
4,1,4,$2,$3,$4,$5,$6,$7,$8,$9,$2,$3,0*
0 Add four circle primitives for the rounded corners*
1,1,$1+$1,$2,$3*
1,1,$1+$1,$4,$5*
1,1,$1+$1,$6,$7*
1,1,$1+$1,$8,$9*
0 Add four rect primitives between the rounded corners*
20,1,$1+$1,$2,$3,$4,$5,0*
20,1,$1+$1,$4,$5,$6,$7,0*
20,1,$1+$1,$6,$7,$8,$9,0*
20,1,$1+$1,$8,$9,$2,$3,0*%
%AMFreePoly0*
4,1,13,0.685355,0.935355,0.700000,0.900000,0.700000,-0.900000,0.685355,-0.935355,0.650000,-0.950000,-0.650000,-0.950000,-0.685355,-0.935355,-0.700000,-0.900000,-0.700000,0.900000,-0.685355,0.935355,-0.650000,0.950000,0.650000,0.950000,0.685355,0.935355,0.685355,0.935355,$1*%
G04 Aperture macros list end*
%ADD10FreePoly0,270.000000*%
%ADD11C,6.100000*%
%ADD12RoundRect,0.050000X0.450000X-1.000000X0.450000X1.000000X-0.450000X1.000000X-0.450000X-1.000000X0*%
%ADD13FreePoly0,90.000000*%
%ADD14C,0.900000*%
%ADD15RoundRect,0.050000X-0.450000X1.000000X-0.450000X-1.000000X0.450000X-1.000000X0.450000X1.000000X0*%
%ADD16FreePoly0,0.000000*%
%ADD17RoundRect,0.050000X-1.250000X-0.750000X1.250000X-0.750000X1.250000X0.750000X-1.250000X0.750000X0*%
%ADD18RoundRect,0.050000X-3.500000X-3.500000X3.500000X-3.500000X3.500000X3.500000X-3.500000X3.500000X0*%
%ADD19RoundRect,0.050000X-1.750000X-1.750000X1.750000X-1.750000X1.750000X1.750000X-1.750000X1.750000X0*%
%ADD20C,3.600000*%
%ADD21FreePoly0,180.000000*%
%ADD22RoundRect,0.050000X-1.500000X0.625000X-1.500000X-0.625000X1.500000X-0.625000X1.500000X0.625000X0*%
%ADD23RoundRect,0.050000X-0.500000X0.500000X-0.500000X-0.500000X0.500000X-0.500000X0.500000X0.500000X0*%
%ADD24RoundRect,0.050000X1.500000X-0.625000X1.500000X0.625000X-1.500000X0.625000X-1.500000X-0.625000X0*%
%ADD25RoundRect,0.050000X-0.625000X2.300000X-0.625000X-2.300000X0.625000X-2.300000X0.625000X2.300000X0*%
%ADD26RoundRect,0.050000X-5.400000X4.700000X-5.400000X-4.700000X5.400000X-4.700000X5.400000X4.700000X0*%
%ADD27RoundRect,0.050000X0.500000X0.500000X-0.500000X0.500000X-0.500000X-0.500000X0.500000X-0.500000X0*%
%ADD28RoundRect,0.050000X-1.250000X-1.250000X1.250000X-1.250000X1.250000X1.250000X-1.250000X1.250000X0*%
%ADD29RoundRect,0.050000X-0.400000X-0.400000X0.400000X-0.400000X0.400000X0.400000X-0.400000X0.400000X0*%
%ADD30RoundRect,0.050000X-1.650000X2.000000X-1.650000X-2.000000X1.650000X-2.000000X1.650000X2.000000X0*%
%ADD31RoundRect,0.050000X0.500000X-0.500000X0.500000X0.500000X-0.500000X0.500000X-0.500000X-0.500000X0*%
%ADD32RoundRect,0.050000X-1.750000X1.750000X-1.750000X-1.750000X1.750000X-1.750000X1.750000X1.750000X0*%
%ADD33RoundRect,0.050000X-1.550000X1.550000X-1.550000X-1.550000X1.550000X-1.550000X1.550000X1.550000X0*%
%ADD34O,3.200000X3.200000*%
%ADD35RoundRect,0.050000X-0.500000X-0.500000X0.500000X-0.500000X0.500000X0.500000X-0.500000X0.500000X0*%
%ADD36C,3.400000*%
%ADD37C,1.600000*%
%ADD38RoundRect,0.050000X1.250000X-1.250000X1.250000X1.250000X-1.250000X1.250000X-1.250000X-1.250000X0*%
%ADD39C,2.100000*%
%ADD40RoundRect,0.050000X1.750000X1.750000X-1.750000X1.750000X-1.750000X-1.750000X1.750000X-1.750000X0*%
%ADD41RoundRect,0.050000X0.400000X-0.400000X0.400000X0.400000X-0.400000X0.400000X-0.400000X-0.400000X0*%
%ADD42RoundRect,0.050000X-1.000000X-0.250000X1.000000X-0.250000X1.000000X0.250000X-1.000000X0.250000X0*%
%ADD43RoundRect,0.050000X0.450000X-0.450000X0.450000X0.450000X-0.450000X0.450000X-0.450000X-0.450000X0*%
%ADD44RoundRect,0.050000X0.175000X-0.750000X0.175000X0.750000X-0.175000X0.750000X-0.175000X-0.750000X0*%
%ADD45RoundRect,0.050000X-0.175000X0.750000X-0.175000X-0.750000X0.175000X-0.750000X0.175000X0.750000X0*%
%ADD46RoundRect,0.050000X0.250000X-1.000000X0.250000X1.000000X-0.250000X1.000000X-0.250000X-1.000000X0*%
%ADD47RoundRect,0.050000X2.500000X-1.700000X2.500000X1.700000X-2.500000X1.700000X-2.500000X-1.700000X0*%
%ADD48RoundRect,0.050000X-0.750000X-0.175000X0.750000X-0.175000X0.750000X0.175000X-0.750000X0.175000X0*%
%ADD49RoundRect,0.050000X1.650000X-2.000000X1.650000X2.000000X-1.650000X2.000000X-1.650000X-2.000000X0*%
%ADD50C,2.200000*%
%ADD51RoundRect,0.050000X-1.000000X-1.000000X1.000000X-1.000000X1.000000X1.000000X-1.000000X1.000000X0*%
G04 APERTURE END LIST*
D10*
X149860000Y-123317000D03*
X149860000Y-125857000D03*
D11*
X234950000Y-99949000D03*
D10*
X142240000Y-91059000D03*
X142240000Y-93599000D03*
D12*
X252095000Y-120752000D03*
X253365000Y-120752000D03*
X254635000Y-120752000D03*
X254635000Y-114452000D03*
X253365000Y-114452000D03*
X252095000Y-114452000D03*
D10*
X193802000Y-87757000D03*
X193802000Y-90297000D03*
D13*
X258572000Y-104013000D03*
X258572000Y-101473000D03*
D14*
X186690000Y-72517000D03*
D15*
X202946000Y-114452000D03*
X201676000Y-114452000D03*
X200406000Y-114452000D03*
X200406000Y-120752000D03*
X201676000Y-120752000D03*
X202946000Y-120752000D03*
D14*
X179070000Y-175387000D03*
X139700000Y-175387000D03*
D16*
X240665000Y-110617000D03*
X243205000Y-110617000D03*
D14*
X229235000Y-70612000D03*
D17*
X296595000Y-70237000D03*
X296595000Y-74797000D03*
D18*
X302895000Y-72517000D03*
D14*
X140970000Y-74422000D03*
D19*
X184150000Y-59817000D03*
D20*
X179070000Y-59817000D03*
D13*
X266065000Y-110617000D03*
X266065000Y-108077000D03*
D10*
X200406000Y-92075000D03*
X200406000Y-94615000D03*
D21*
X182753000Y-197104000D03*
X180213000Y-197104000D03*
D14*
X147320000Y-175387000D03*
X184785000Y-72517000D03*
X182880000Y-72517000D03*
D13*
X265430000Y-95377000D03*
X265430000Y-92837000D03*
D22*
X281835000Y-163957000D03*
X284585000Y-161417000D03*
X234210000Y-156464000D03*
X236960000Y-153924000D03*
X234210000Y-151384000D03*
D14*
X142875000Y-70612000D03*
D13*
X227965000Y-193167000D03*
X227965000Y-190627000D03*
D23*
X300162000Y-103013000D03*
X298262000Y-103013000D03*
X299212000Y-105213000D03*
D13*
X236220000Y-90297000D03*
X236220000Y-87757000D03*
D23*
X198308000Y-99457000D03*
X196408000Y-99457000D03*
X197358000Y-101657000D03*
D19*
X287655000Y-59817000D03*
D20*
X282575000Y-59817000D03*
D16*
X200406000Y-98933000D03*
X202946000Y-98933000D03*
D13*
X295275000Y-110617000D03*
X295275000Y-108077000D03*
D17*
X252399000Y-70237000D03*
X252399000Y-74797000D03*
D18*
X258699000Y-72517000D03*
D13*
X158115000Y-108712000D03*
X158115000Y-106172000D03*
D16*
X221615000Y-177927000D03*
X224155000Y-177927000D03*
D21*
X290830000Y-134747000D03*
X288290000Y-134747000D03*
D15*
X246380000Y-114452000D03*
X245110000Y-114452000D03*
X243840000Y-114452000D03*
X243840000Y-120752000D03*
X245110000Y-120752000D03*
X246380000Y-120752000D03*
D14*
X139065000Y-70612000D03*
D13*
X208915000Y-155194000D03*
X208915000Y-152654000D03*
D24*
X259185000Y-158877000D03*
X256435000Y-161417000D03*
D16*
X187579000Y-187579000D03*
X190119000Y-187579000D03*
D14*
X302895000Y-70612000D03*
X259080000Y-74422000D03*
X212725000Y-70612000D03*
X187325000Y-178562000D03*
X241935000Y-72517000D03*
X257175000Y-72517000D03*
D12*
X164338000Y-120879000D03*
X165608000Y-120879000D03*
X166878000Y-120879000D03*
X166878000Y-114579000D03*
X165608000Y-114579000D03*
X164338000Y-114579000D03*
D17*
X164007000Y-70237000D03*
X164007000Y-74797000D03*
D18*
X170307000Y-72517000D03*
D10*
X292100000Y-123317000D03*
X292100000Y-125857000D03*
D14*
X260985000Y-74422000D03*
X179070000Y-181737000D03*
D10*
X164338000Y-92837000D03*
X164338000Y-95377000D03*
X288290000Y-92202000D03*
X288290000Y-94742000D03*
D16*
X214376000Y-99187000D03*
X216916000Y-99187000D03*
D14*
X231140000Y-74422000D03*
D13*
X236220000Y-95377000D03*
X236220000Y-92837000D03*
D14*
X184785000Y-70612000D03*
X229235000Y-72517000D03*
D10*
X163830000Y-178562000D03*
X163830000Y-181102000D03*
D25*
X189865000Y-169412000D03*
X184785000Y-169412000D03*
D26*
X187325000Y-178562000D03*
D14*
X155575000Y-72517000D03*
X139700000Y-178562000D03*
X260985000Y-70612000D03*
X288290000Y-70612000D03*
D21*
X218440000Y-88773000D03*
X215900000Y-88773000D03*
X212090000Y-131572000D03*
X209550000Y-131572000D03*
D27*
X295640000Y-194117000D03*
X295640000Y-192217000D03*
X293440000Y-193167000D03*
D13*
X250825000Y-95377000D03*
X250825000Y-92837000D03*
D23*
X227010000Y-99441000D03*
X225110000Y-99441000D03*
X226060000Y-101641000D03*
D13*
X200406000Y-104013000D03*
X200406000Y-101473000D03*
D10*
X156718000Y-92075000D03*
X156718000Y-94615000D03*
X237490000Y-123317000D03*
X237490000Y-125857000D03*
D14*
X171450000Y-175387000D03*
X214630000Y-70612000D03*
D10*
X142240000Y-96139000D03*
X142240000Y-98679000D03*
D22*
X288185000Y-158242000D03*
X290935000Y-155702000D03*
D15*
X231775000Y-114452000D03*
X230505000Y-114452000D03*
X229235000Y-114452000D03*
X229235000Y-120752000D03*
X230505000Y-120752000D03*
X231775000Y-120752000D03*
D14*
X140970000Y-70612000D03*
X142875000Y-72517000D03*
D13*
X163830000Y-110617000D03*
X163830000Y-108077000D03*
D28*
X163435000Y-199517000D03*
X168035000Y-199517000D03*
D23*
X241742000Y-99457000D03*
X239842000Y-99457000D03*
X240792000Y-101657000D03*
D13*
X161290000Y-110617000D03*
X161290000Y-108077000D03*
D23*
X285430000Y-99457000D03*
X283530000Y-99457000D03*
X284480000Y-101657000D03*
D14*
X273685000Y-74422000D03*
D23*
X256220000Y-103267000D03*
X254320000Y-103267000D03*
X255270000Y-105467000D03*
D14*
X212725000Y-72517000D03*
D29*
X148590000Y-200152000D03*
X151130000Y-200152000D03*
D12*
X295910000Y-120752000D03*
X297180000Y-120752000D03*
X298450000Y-120752000D03*
X298450000Y-114452000D03*
X297180000Y-114452000D03*
X295910000Y-114452000D03*
D30*
X274545000Y-82042000D03*
X267745000Y-82042000D03*
D19*
X197485000Y-59817000D03*
D20*
X192405000Y-59817000D03*
D14*
X245745000Y-70612000D03*
D30*
X215998000Y-81661000D03*
X209198000Y-81661000D03*
D14*
X200025000Y-70612000D03*
D23*
X212532000Y-103267000D03*
X210632000Y-103267000D03*
X211582000Y-105467000D03*
D14*
X151765000Y-178562000D03*
X143510000Y-178562000D03*
X200025000Y-74422000D03*
D11*
X309880000Y-204597000D03*
D14*
X302895000Y-72517000D03*
X151765000Y-181737000D03*
D23*
X300096000Y-99441000D03*
X298196000Y-99441000D03*
X299146000Y-101641000D03*
D13*
X143510000Y-108712000D03*
X143510000Y-106172000D03*
D16*
X180340000Y-203327000D03*
X182880000Y-203327000D03*
D17*
X149275000Y-70237000D03*
X149275000Y-74797000D03*
D18*
X155575000Y-72517000D03*
D24*
X290935000Y-143637000D03*
X288185000Y-146177000D03*
D14*
X151765000Y-175387000D03*
D10*
X259080000Y-92202000D03*
X259080000Y-94742000D03*
D12*
X179070000Y-120752000D03*
X180340000Y-120752000D03*
X181610000Y-120752000D03*
X181610000Y-114452000D03*
X180340000Y-114452000D03*
X179070000Y-114452000D03*
D10*
X177419000Y-192659000D03*
X177419000Y-195199000D03*
X306705000Y-123317000D03*
X306705000Y-125857000D03*
D30*
X186534000Y-81661000D03*
X179734000Y-81661000D03*
D16*
X238125000Y-188722000D03*
X240665000Y-188722000D03*
X167640000Y-110617000D03*
X170180000Y-110617000D03*
D10*
X164465000Y-123317000D03*
X164465000Y-125857000D03*
D14*
X227330000Y-74422000D03*
D16*
X226060000Y-110617000D03*
X228600000Y-110617000D03*
D14*
X157480000Y-72517000D03*
X198120000Y-70612000D03*
X139700000Y-181737000D03*
X275590000Y-74422000D03*
D13*
X250825000Y-90297000D03*
X250825000Y-87757000D03*
D10*
X266700000Y-123317000D03*
X266700000Y-125857000D03*
D23*
X154366000Y-103267000D03*
X152466000Y-103267000D03*
X153416000Y-105467000D03*
D14*
X288290000Y-72517000D03*
D21*
X276606000Y-88773000D03*
X274066000Y-88773000D03*
D14*
X304800000Y-72517000D03*
D29*
X180340000Y-200787000D03*
X182880000Y-200787000D03*
D14*
X170180000Y-72517000D03*
X153670000Y-70612000D03*
D13*
X140970000Y-112141000D03*
X140970000Y-109601000D03*
X185674000Y-199898000D03*
X185674000Y-197358000D03*
D23*
X183576000Y-103267000D03*
X181676000Y-103267000D03*
X182626000Y-105467000D03*
D12*
X135128000Y-120752000D03*
X136398000Y-120752000D03*
X137668000Y-120752000D03*
X137668000Y-114452000D03*
X136398000Y-114452000D03*
X135128000Y-114452000D03*
D13*
X244094000Y-104013000D03*
X244094000Y-101473000D03*
X265430000Y-90297000D03*
X265430000Y-87757000D03*
D10*
X179070000Y-87503000D03*
X179070000Y-90043000D03*
D13*
X219710000Y-110617000D03*
X219710000Y-108077000D03*
D14*
X275590000Y-72517000D03*
D10*
X134366000Y-86741000D03*
X134366000Y-89281000D03*
D14*
X191135000Y-175387000D03*
X216535000Y-74422000D03*
D13*
X135890000Y-110617000D03*
X135890000Y-108077000D03*
D22*
X216430000Y-156464000D03*
X219180000Y-153924000D03*
X216430000Y-151384000D03*
D31*
X156530000Y-193532000D03*
X158430000Y-193532000D03*
X157480000Y-191332000D03*
D14*
X200025000Y-72517000D03*
D11*
X309880000Y-92202000D03*
D10*
X222885000Y-123317000D03*
X222885000Y-125857000D03*
D13*
X214884000Y-104013000D03*
X214884000Y-101473000D03*
D10*
X215138000Y-92075000D03*
X215138000Y-94615000D03*
D13*
X263525000Y-110617000D03*
X263525000Y-108077000D03*
D10*
X208280000Y-87757000D03*
X208280000Y-90297000D03*
D23*
X270952000Y-99441000D03*
X269052000Y-99441000D03*
X270002000Y-101641000D03*
D25*
X146050000Y-169612000D03*
X140970000Y-169612000D03*
D26*
X143510000Y-178762000D03*
D17*
X237667000Y-70237000D03*
X237667000Y-74797000D03*
D18*
X243967000Y-72517000D03*
D10*
X208280000Y-123317000D03*
X208280000Y-125857000D03*
X171450000Y-92075000D03*
X171450000Y-94615000D03*
D13*
X248920000Y-110617000D03*
X248920000Y-108077000D03*
D14*
X286385000Y-72517000D03*
X155575000Y-181737000D03*
D32*
X311658000Y-195072000D03*
D20*
X311658000Y-189992000D03*
D14*
X184150000Y-175387000D03*
X155575000Y-74422000D03*
D10*
X175260000Y-123317000D03*
X175260000Y-125857000D03*
D19*
X144145000Y-59817000D03*
D20*
X139065000Y-59817000D03*
D14*
X259080000Y-70612000D03*
X175260000Y-178562000D03*
X304800000Y-74422000D03*
D23*
X183576000Y-99457000D03*
X181676000Y-99457000D03*
X182626000Y-101657000D03*
D14*
X184150000Y-181737000D03*
D33*
X307340000Y-165862000D03*
D34*
X303700000Y-165862000D03*
X300060000Y-165862000D03*
X296420000Y-165862000D03*
D14*
X170180000Y-74422000D03*
D23*
X256220000Y-99457000D03*
X254320000Y-99457000D03*
X255270000Y-101657000D03*
D21*
X222885000Y-131572000D03*
X220345000Y-131572000D03*
D11*
X237490000Y-204597000D03*
D13*
X193040000Y-110617000D03*
X193040000Y-108077000D03*
X149225000Y-110617000D03*
X149225000Y-108077000D03*
X251460000Y-110617000D03*
X251460000Y-108077000D03*
D16*
X288290000Y-149352000D03*
X290830000Y-149352000D03*
D14*
X212725000Y-74422000D03*
X153670000Y-72517000D03*
D11*
X130175000Y-204597000D03*
D21*
X247396000Y-88773000D03*
X244856000Y-88773000D03*
D13*
X294640000Y-90297000D03*
X294640000Y-87757000D03*
D10*
X146050000Y-123317000D03*
X146050000Y-125857000D03*
D16*
X170942000Y-98933000D03*
X173482000Y-98933000D03*
D13*
X172720000Y-108839000D03*
X172720000Y-106299000D03*
X175895000Y-110617000D03*
X175895000Y-108077000D03*
D19*
X300990000Y-59817000D03*
D20*
X295910000Y-59817000D03*
D14*
X182880000Y-74422000D03*
D23*
X241742000Y-103267000D03*
X239842000Y-103267000D03*
X240792000Y-105467000D03*
D14*
X147320000Y-178562000D03*
X198120000Y-74422000D03*
X143510000Y-175387000D03*
D13*
X146685000Y-110617000D03*
X146685000Y-108077000D03*
D14*
X290195000Y-70612000D03*
D35*
X297434000Y-192156000D03*
X297434000Y-194056000D03*
X299634000Y-193106000D03*
D13*
X222758000Y-90424000D03*
X222758000Y-87884000D03*
D10*
X233680000Y-123317000D03*
X233680000Y-125857000D03*
D19*
X210820000Y-59817000D03*
D20*
X205740000Y-59817000D03*
D14*
X159385000Y-181737000D03*
D10*
X248285000Y-123317000D03*
X248285000Y-125857000D03*
D13*
X222758000Y-95504000D03*
X222758000Y-92964000D03*
X269875000Y-151892000D03*
X269875000Y-149352000D03*
D10*
X149860000Y-87757000D03*
X149860000Y-90297000D03*
X295910000Y-123317000D03*
X295910000Y-125857000D03*
D30*
X245335000Y-82042000D03*
X238535000Y-82042000D03*
D14*
X155575000Y-70612000D03*
D30*
X142846000Y-81661000D03*
X136046000Y-81661000D03*
D23*
X227010000Y-103267000D03*
X225110000Y-103267000D03*
X226060000Y-105467000D03*
D19*
X170815000Y-59817000D03*
D20*
X165735000Y-59817000D03*
D14*
X155575000Y-178562000D03*
X273685000Y-72517000D03*
D25*
X158115000Y-169612000D03*
X153035000Y-169612000D03*
D26*
X155575000Y-178762000D03*
D14*
X271780000Y-70612000D03*
D21*
X189992000Y-88773000D03*
X187452000Y-88773000D03*
D16*
X284480000Y-110617000D03*
X287020000Y-110617000D03*
D21*
X204470000Y-88773000D03*
X201930000Y-88773000D03*
D36*
X310896000Y-156973000D03*
X310896000Y-145541000D03*
D37*
X304546000Y-155701000D03*
X302006000Y-154431000D03*
X304546000Y-153161000D03*
X302006000Y-151891000D03*
X304546000Y-150621000D03*
X302006000Y-149351000D03*
X304546000Y-148081000D03*
X302006000Y-146811000D03*
D14*
X201930000Y-70612000D03*
D10*
X229870000Y-92075000D03*
X229870000Y-94615000D03*
D14*
X172085000Y-74422000D03*
X170180000Y-70612000D03*
D21*
X146050000Y-88773000D03*
X143510000Y-88773000D03*
D14*
X184785000Y-74422000D03*
D15*
X290195000Y-114452000D03*
X288925000Y-114452000D03*
X287655000Y-114452000D03*
X287655000Y-120752000D03*
X288925000Y-120752000D03*
X290195000Y-120752000D03*
D14*
X142875000Y-74422000D03*
X227330000Y-72517000D03*
D15*
X144018000Y-114452000D03*
X142748000Y-114452000D03*
X141478000Y-114452000D03*
X141478000Y-120752000D03*
X142748000Y-120752000D03*
X144018000Y-120752000D03*
D13*
X287782000Y-104013000D03*
X287782000Y-101473000D03*
D14*
X175260000Y-175387000D03*
X243840000Y-72517000D03*
X187325000Y-181737000D03*
D22*
X225320000Y-156464000D03*
X228070000Y-153924000D03*
X225320000Y-151384000D03*
D13*
X280035000Y-95377000D03*
X280035000Y-92837000D03*
D38*
X158115000Y-204357000D03*
X158115000Y-199757000D03*
D14*
X191135000Y-178562000D03*
X245745000Y-72517000D03*
D10*
X278130000Y-155702000D03*
X278130000Y-158242000D03*
D17*
X222935000Y-70237000D03*
X222935000Y-74797000D03*
D18*
X229235000Y-72517000D03*
D13*
X222250000Y-110617000D03*
X222250000Y-108077000D03*
D11*
X168910000Y-143002000D03*
D15*
X217170000Y-114452000D03*
X215900000Y-114452000D03*
X214630000Y-114452000D03*
X214630000Y-120752000D03*
X215900000Y-120752000D03*
X217170000Y-120752000D03*
D30*
X259940000Y-82042000D03*
X253140000Y-82042000D03*
D14*
X304800000Y-70612000D03*
D16*
X281940000Y-152527000D03*
X284480000Y-152527000D03*
D39*
X231838500Y-188087000D03*
X234391200Y-185547000D03*
X231838500Y-183007000D03*
D10*
X160020000Y-123317000D03*
X160020000Y-125857000D03*
D14*
X275590000Y-70612000D03*
X198120000Y-72517000D03*
D12*
X266700000Y-120752000D03*
X267970000Y-120752000D03*
X269240000Y-120752000D03*
X269240000Y-114452000D03*
X267970000Y-114452000D03*
X266700000Y-114452000D03*
D14*
X231140000Y-70612000D03*
D15*
X187960000Y-114452000D03*
X186690000Y-114452000D03*
X185420000Y-114452000D03*
X185420000Y-120752000D03*
X186690000Y-120752000D03*
X187960000Y-120752000D03*
D30*
X172310000Y-81661000D03*
X165510000Y-81661000D03*
D16*
X211455000Y-110617000D03*
X213995000Y-110617000D03*
D13*
X304800000Y-108712000D03*
X304800000Y-106172000D03*
D14*
X168275000Y-70612000D03*
D10*
X244475000Y-92202000D03*
X244475000Y-94742000D03*
D14*
X300990000Y-70612000D03*
D22*
X288185000Y-140462000D03*
X290935000Y-137922000D03*
D16*
X269875000Y-110617000D03*
X272415000Y-110617000D03*
D14*
X259080000Y-72517000D03*
D40*
X163195000Y-206629000D03*
D20*
X168275000Y-206629000D03*
D41*
X302260000Y-193802000D03*
X302260000Y-191262000D03*
D42*
X213632500Y-133697000D03*
X213632500Y-134347000D03*
X213632500Y-134997000D03*
X213632500Y-135647000D03*
X213632500Y-136297000D03*
X213632500Y-136947000D03*
X213632500Y-137597000D03*
X213632500Y-138247000D03*
X213632500Y-138897000D03*
X213632500Y-139547000D03*
X213632500Y-140197000D03*
X213632500Y-140847000D03*
X213632500Y-141497000D03*
X213632500Y-142147000D03*
X219437500Y-142147000D03*
X219437500Y-141497000D03*
X219437500Y-140847000D03*
X219437500Y-140197000D03*
X219437500Y-139547000D03*
X219437500Y-138897000D03*
X219437500Y-138247000D03*
X219437500Y-137597000D03*
X219437500Y-136947000D03*
X219437500Y-136297000D03*
X219437500Y-135647000D03*
X219437500Y-134997000D03*
X219437500Y-134347000D03*
X219437500Y-133697000D03*
D10*
X153670000Y-191897000D03*
X153670000Y-194437000D03*
D13*
X292735000Y-110617000D03*
X292735000Y-108077000D03*
D11*
X306705000Y-137922000D03*
D33*
X307340000Y-182372000D03*
D34*
X303700000Y-182372000D03*
X300060000Y-182372000D03*
X296420000Y-182372000D03*
D14*
X300990000Y-74422000D03*
X139192000Y-74422000D03*
D19*
X274320000Y-59817000D03*
D20*
X269240000Y-59817000D03*
D43*
X273939000Y-170397000D03*
X273939000Y-168947000D03*
D12*
X193802000Y-120752000D03*
X195072000Y-120752000D03*
X196342000Y-120752000D03*
X196342000Y-114452000D03*
X195072000Y-114452000D03*
X193802000Y-114452000D03*
D13*
X216535000Y-108712000D03*
X216535000Y-106172000D03*
X278130000Y-110617000D03*
X278130000Y-108077000D03*
D23*
X169098000Y-99457000D03*
X167198000Y-99457000D03*
X168148000Y-101657000D03*
D13*
X260350000Y-108712000D03*
X260350000Y-106172000D03*
D21*
X291084000Y-88773000D03*
X288544000Y-88773000D03*
X284480000Y-134747000D03*
X281940000Y-134747000D03*
D14*
X290195000Y-72517000D03*
D30*
X303755000Y-82042000D03*
X296955000Y-82042000D03*
D22*
X211985000Y-156464000D03*
X214735000Y-153924000D03*
X211985000Y-151384000D03*
D14*
X271780000Y-74422000D03*
D13*
X273304000Y-104013000D03*
X273304000Y-101473000D03*
D44*
X148860000Y-192827000D03*
X149360000Y-192827000D03*
X149860000Y-192827000D03*
X150360000Y-192827000D03*
X150860000Y-192827000D03*
X150860000Y-188427000D03*
X150360000Y-188427000D03*
X149860000Y-188427000D03*
D45*
X149360000Y-188427000D03*
D44*
X148860000Y-188427000D03*
D10*
X164338000Y-87757000D03*
X164338000Y-90297000D03*
D14*
X257175000Y-74422000D03*
D13*
X271399000Y-172847000D03*
X271399000Y-170307000D03*
D14*
X229235000Y-74422000D03*
D22*
X229765000Y-156464000D03*
X232515000Y-153924000D03*
X229765000Y-151384000D03*
D16*
X215265000Y-131572000D03*
X217805000Y-131572000D03*
D10*
X208280000Y-92837000D03*
X208280000Y-95377000D03*
D14*
X241935000Y-70612000D03*
D24*
X284585000Y-137922000D03*
X281835000Y-140462000D03*
D13*
X274955000Y-108712000D03*
X274955000Y-106172000D03*
D19*
X234315000Y-59817000D03*
D20*
X229235000Y-59817000D03*
D14*
X231140000Y-72517000D03*
D10*
X195580000Y-178562000D03*
X195580000Y-181102000D03*
D14*
X143510000Y-181737000D03*
X159385000Y-175387000D03*
D10*
X277495000Y-123317000D03*
X277495000Y-125857000D03*
D16*
X275336000Y-181737000D03*
X277876000Y-181737000D03*
D40*
X222758000Y-206629000D03*
D20*
X227838000Y-206629000D03*
D14*
X214630000Y-72517000D03*
X157480000Y-74422000D03*
D11*
X219964000Y-61722000D03*
D15*
X304800000Y-114452000D03*
X303530000Y-114452000D03*
X302260000Y-114452000D03*
X302260000Y-120752000D03*
X303530000Y-120752000D03*
X304800000Y-120752000D03*
D17*
X281863000Y-70237000D03*
X281863000Y-74797000D03*
D18*
X288163000Y-72517000D03*
D14*
X227330000Y-70612000D03*
D12*
X237490000Y-120752000D03*
X238760000Y-120752000D03*
X240030000Y-120752000D03*
X240030000Y-114452000D03*
X238760000Y-114452000D03*
X237490000Y-114452000D03*
X149860000Y-120752000D03*
X151130000Y-120752000D03*
X152400000Y-120752000D03*
X152400000Y-114452000D03*
X151130000Y-114452000D03*
X149860000Y-114452000D03*
D13*
X272415000Y-151892000D03*
X272415000Y-149352000D03*
D14*
X157480000Y-70612000D03*
D46*
X221245000Y-188797000D03*
X221895000Y-188797000D03*
X222545000Y-188797000D03*
X223195000Y-188797000D03*
X223845000Y-188797000D03*
X224495000Y-188797000D03*
X225145000Y-188797000D03*
X225795000Y-188797000D03*
X225795000Y-182297000D03*
X225145000Y-182297000D03*
X224495000Y-182297000D03*
X223845000Y-182297000D03*
X223195000Y-182297000D03*
X222545000Y-182297000D03*
X221895000Y-182297000D03*
X221245000Y-182297000D03*
D47*
X223520000Y-185547000D03*
D13*
X201930000Y-108712000D03*
X201930000Y-106172000D03*
D14*
X201930000Y-72517000D03*
D10*
X193675000Y-123317000D03*
X193675000Y-125857000D03*
X281305000Y-123317000D03*
X281305000Y-125857000D03*
D13*
X231140000Y-108712000D03*
X231140000Y-106172000D03*
D23*
X212532000Y-99457000D03*
X210632000Y-99457000D03*
X211582000Y-101657000D03*
D14*
X302895000Y-74422000D03*
X271780000Y-72517000D03*
D17*
X267131000Y-70237000D03*
X267131000Y-74797000D03*
D18*
X273431000Y-72517000D03*
D14*
X171450000Y-181737000D03*
D48*
X265430000Y-154067000D03*
X265430000Y-154567000D03*
X265430000Y-155067000D03*
X265430000Y-155567000D03*
X265430000Y-156067000D03*
X270510000Y-156067000D03*
X270510000Y-155567000D03*
X270510000Y-155067000D03*
X270510000Y-154567000D03*
X270510000Y-154067000D03*
D15*
X275590000Y-114452000D03*
X274320000Y-114452000D03*
X273050000Y-114452000D03*
X273050000Y-120752000D03*
X274320000Y-120752000D03*
X275590000Y-120752000D03*
D21*
X175260000Y-88773000D03*
X172720000Y-88773000D03*
D10*
X252095000Y-123317000D03*
X252095000Y-125857000D03*
D13*
X205105000Y-110617000D03*
X205105000Y-108077000D03*
D10*
X149860000Y-92837000D03*
X149860000Y-95377000D03*
D14*
X168275000Y-74422000D03*
D10*
X205105000Y-123317000D03*
X205105000Y-125857000D03*
D23*
X198308000Y-103267000D03*
X196408000Y-103267000D03*
X197358000Y-105467000D03*
D21*
X261874000Y-88773000D03*
X259334000Y-88773000D03*
D10*
X179070000Y-92837000D03*
X179070000Y-95377000D03*
D17*
X193471000Y-70237000D03*
X193471000Y-74797000D03*
D18*
X199771000Y-72517000D03*
D19*
X260985000Y-59817000D03*
D20*
X255905000Y-59817000D03*
D17*
X178739000Y-70237000D03*
X178739000Y-74797000D03*
D18*
X185039000Y-72517000D03*
D14*
X245745000Y-74422000D03*
D24*
X290935000Y-161417000D03*
X288185000Y-163957000D03*
D16*
X153035000Y-110617000D03*
X155575000Y-110617000D03*
D30*
X157578000Y-81661000D03*
X150778000Y-81661000D03*
D10*
X262890000Y-123317000D03*
X262890000Y-125857000D03*
D23*
X137348000Y-96409000D03*
X135448000Y-96409000D03*
X136398000Y-98609000D03*
D14*
X155575000Y-175387000D03*
D10*
X193802000Y-92837000D03*
X193802000Y-95377000D03*
D21*
X305816000Y-88773000D03*
X303276000Y-88773000D03*
D16*
X299085000Y-110617000D03*
X301625000Y-110617000D03*
D13*
X236855000Y-110617000D03*
X236855000Y-108077000D03*
D10*
X294005000Y-139827000D03*
X294005000Y-142367000D03*
D23*
X270952000Y-103267000D03*
X269052000Y-103267000D03*
X270002000Y-105467000D03*
D49*
X222025000Y-197739000D03*
X228825000Y-197739000D03*
D13*
X187325000Y-108712000D03*
X187325000Y-106172000D03*
D10*
X302895000Y-92202000D03*
X302895000Y-94742000D03*
D15*
X158750000Y-114452000D03*
X157480000Y-114452000D03*
X156210000Y-114452000D03*
X156210000Y-120752000D03*
X157480000Y-120752000D03*
X158750000Y-120752000D03*
D22*
X281835000Y-146177000D03*
X284585000Y-143637000D03*
D23*
X285430000Y-103267000D03*
X283530000Y-103267000D03*
X284480000Y-105467000D03*
D14*
X201930000Y-74422000D03*
D13*
X289560000Y-108712000D03*
X289560000Y-106172000D03*
D16*
X281940000Y-149352000D03*
X284480000Y-149352000D03*
D14*
X260985000Y-72517000D03*
D12*
X208280000Y-120752000D03*
X209550000Y-120752000D03*
X210820000Y-120752000D03*
X210820000Y-114452000D03*
X209550000Y-114452000D03*
X208280000Y-114452000D03*
X222885000Y-120752000D03*
X224155000Y-120752000D03*
X225425000Y-120752000D03*
X225425000Y-114452000D03*
X224155000Y-114452000D03*
X222885000Y-114452000D03*
D13*
X294640000Y-95377000D03*
X294640000Y-92837000D03*
X156464000Y-104013000D03*
X156464000Y-101473000D03*
D15*
X173482000Y-114579000D03*
X172212000Y-114579000D03*
X170942000Y-114579000D03*
X170942000Y-120879000D03*
X172212000Y-120879000D03*
X173482000Y-120879000D03*
D17*
X208203000Y-70237000D03*
X208203000Y-74797000D03*
D18*
X214503000Y-72517000D03*
D32*
X311658000Y-110109000D03*
D20*
X311658000Y-105029000D03*
D14*
X179070000Y-178562000D03*
X300990000Y-72517000D03*
D15*
X260985000Y-114452000D03*
X259715000Y-114452000D03*
X258445000Y-114452000D03*
X258445000Y-120752000D03*
X259715000Y-120752000D03*
X260985000Y-120752000D03*
D13*
X271399000Y-167767000D03*
X271399000Y-165227000D03*
D24*
X264900000Y-158877000D03*
X262150000Y-161417000D03*
D14*
X288290000Y-74422000D03*
D22*
X220875000Y-156464000D03*
X223625000Y-153924000D03*
X220875000Y-151384000D03*
D16*
X275590000Y-195707000D03*
X278130000Y-195707000D03*
D14*
X286385000Y-74422000D03*
D10*
X135128000Y-123317000D03*
X135128000Y-125857000D03*
D19*
X157480000Y-59817000D03*
D20*
X152400000Y-59817000D03*
D14*
X186690000Y-74422000D03*
X243840000Y-70612000D03*
X257175000Y-70612000D03*
D13*
X266065000Y-151892000D03*
X266065000Y-149352000D03*
D10*
X136906000Y-86741000D03*
X136906000Y-89281000D03*
D14*
X175260000Y-181737000D03*
D23*
X169098000Y-103267000D03*
X167198000Y-103267000D03*
X168148000Y-105467000D03*
D16*
X199390000Y-189992000D03*
X201930000Y-189992000D03*
D21*
X160528000Y-88773000D03*
X157988000Y-88773000D03*
D31*
X188534000Y-193659000D03*
X190434000Y-193659000D03*
X189484000Y-191459000D03*
D13*
X233680000Y-110617000D03*
X233680000Y-108077000D03*
D14*
X182880000Y-70612000D03*
X171450000Y-178562000D03*
D12*
X281305000Y-120752000D03*
X282575000Y-120752000D03*
X283845000Y-120752000D03*
X283845000Y-114452000D03*
X282575000Y-114452000D03*
X281305000Y-114452000D03*
D16*
X255270000Y-110617000D03*
X257810000Y-110617000D03*
D13*
X280035000Y-90297000D03*
X280035000Y-87757000D03*
D16*
X148590000Y-202692000D03*
X151130000Y-202692000D03*
D10*
X304800000Y-191262000D03*
X304800000Y-193802000D03*
D21*
X232918000Y-88773000D03*
X230378000Y-88773000D03*
D44*
X180499000Y-192614000D03*
X180999000Y-192614000D03*
X181499000Y-192614000D03*
X181999000Y-192614000D03*
X182499000Y-192614000D03*
X182499000Y-188214000D03*
X181999000Y-188214000D03*
X181499000Y-188214000D03*
D45*
X180999000Y-188214000D03*
D44*
X180499000Y-188214000D03*
D21*
X151130000Y-196977000D03*
X148590000Y-196977000D03*
D24*
X284585000Y-155702000D03*
X281835000Y-158242000D03*
D14*
X168207000Y-72517000D03*
D30*
X201266000Y-81661000D03*
X194466000Y-81661000D03*
D13*
X190500000Y-110617000D03*
X190500000Y-108077000D03*
D16*
X155575000Y-187452000D03*
X158115000Y-187452000D03*
D10*
X167005000Y-189992000D03*
X167005000Y-192532000D03*
D19*
X247650000Y-59817000D03*
D20*
X242570000Y-59817000D03*
D21*
X137160000Y-94361000D03*
X134620000Y-94361000D03*
D10*
X186182000Y-92075000D03*
X186182000Y-94615000D03*
X227965000Y-185547000D03*
X227965000Y-188087000D03*
X185674000Y-191516000D03*
X185674000Y-194056000D03*
D17*
X134543000Y-70491000D03*
X134543000Y-75051000D03*
D18*
X140843000Y-72771000D03*
D11*
X130175000Y-155067000D03*
D30*
X230730000Y-82042000D03*
X223930000Y-82042000D03*
D14*
X172085000Y-70612000D03*
D13*
X229362000Y-104013000D03*
X229362000Y-101473000D03*
D14*
X140970000Y-72517000D03*
D13*
X178435000Y-110617000D03*
X178435000Y-108077000D03*
X302514000Y-104013000D03*
X302514000Y-101473000D03*
D16*
X222885000Y-192659000D03*
X225425000Y-192659000D03*
X288290000Y-152527000D03*
X290830000Y-152527000D03*
D13*
X245745000Y-108712000D03*
X245745000Y-106172000D03*
D14*
X191135000Y-181737000D03*
X216535000Y-70612000D03*
D10*
X189865000Y-123317000D03*
X189865000Y-125857000D03*
D11*
X209550000Y-204597000D03*
D14*
X290195000Y-74422000D03*
D10*
X146050000Y-192532000D03*
X146050000Y-195072000D03*
D16*
X156464000Y-98933000D03*
X159004000Y-98933000D03*
D21*
X290830000Y-167132000D03*
X288290000Y-167132000D03*
D13*
X153670000Y-199517000D03*
X153670000Y-196977000D03*
D14*
X243840000Y-74422000D03*
D13*
X207645000Y-110617000D03*
X207645000Y-108077000D03*
D11*
X130175000Y-61722000D03*
D13*
X263525000Y-151892000D03*
X263525000Y-149352000D03*
D16*
X185420000Y-98933000D03*
X187960000Y-98933000D03*
D14*
X172085000Y-72517000D03*
X241935000Y-74422000D03*
D21*
X284480000Y-167132000D03*
X281940000Y-167132000D03*
D14*
X159385000Y-178562000D03*
X214630000Y-74422000D03*
D13*
X280670000Y-110617000D03*
X280670000Y-108077000D03*
D14*
X286385000Y-70612000D03*
D10*
X179070000Y-123317000D03*
X179070000Y-125857000D03*
D14*
X184150000Y-178562000D03*
D16*
X196850000Y-110617000D03*
X199390000Y-110617000D03*
D14*
X273685000Y-70612000D03*
X187325000Y-175387000D03*
D13*
X138430000Y-112141000D03*
X138430000Y-109601000D03*
D16*
X182245000Y-110617000D03*
X184785000Y-110617000D03*
D14*
X147320000Y-181737000D03*
X139065000Y-72517000D03*
X153670000Y-74422000D03*
D13*
X171196000Y-104013000D03*
X171196000Y-101473000D03*
D14*
X186690000Y-70612000D03*
D25*
X177800000Y-169612000D03*
X172720000Y-169612000D03*
D26*
X175260000Y-178762000D03*
D23*
X154366000Y-99457000D03*
X152466000Y-99457000D03*
X153416000Y-101657000D03*
D10*
X219075000Y-123317000D03*
X219075000Y-125857000D03*
X273685000Y-92075000D03*
X273685000Y-94615000D03*
D11*
X271145000Y-143002000D03*
D30*
X289150000Y-82042000D03*
X282350000Y-82042000D03*
D13*
X185674000Y-104013000D03*
X185674000Y-101473000D03*
D11*
X309880000Y-61722000D03*
D14*
X216535000Y-72517000D03*
D10*
X225425000Y-123317000D03*
X225425000Y-125857000D03*
D50*
X168806091Y-97282000D03*
X168806091Y-94742000D03*
X168806091Y-92202000D03*
X168806091Y-89662000D03*
X168806091Y-87122000D03*
X212655727Y-97282000D03*
X212655727Y-94742000D03*
X212655727Y-92202000D03*
X212655727Y-89662000D03*
X212655727Y-87122000D03*
X227272273Y-97282000D03*
X227272273Y-94742000D03*
X227272273Y-92202000D03*
X227272273Y-89662000D03*
X227272273Y-87122000D03*
D51*
X161444000Y-192897000D03*
D39*
X163984000Y-192897000D03*
D50*
X271121909Y-97282000D03*
X271121909Y-94742000D03*
X271121909Y-92202000D03*
X271121909Y-89662000D03*
X271121909Y-87122000D03*
X198039182Y-97282000D03*
X198039182Y-94742000D03*
X198039182Y-92202000D03*
X198039182Y-89662000D03*
X198039182Y-87122000D03*
D51*
X237444000Y-192897000D03*
D39*
X239984000Y-192897000D03*
D51*
X167536091Y-107442000D03*
D39*
X170076091Y-107442000D03*
D51*
X226002273Y-107442000D03*
D39*
X228542273Y-107442000D03*
D50*
X241888818Y-97282000D03*
X241888818Y-94742000D03*
X241888818Y-92202000D03*
X241888818Y-89662000D03*
X241888818Y-87122000D03*
D51*
X275444000Y-192897000D03*
D39*
X277984000Y-192897000D03*
D51*
X138303000Y-107442000D03*
D39*
X140843000Y-107442000D03*
D51*
X299085000Y-107442000D03*
D39*
X301625000Y-107442000D03*
D50*
X154189540Y-97282000D03*
X154189540Y-94742000D03*
X154189540Y-92202000D03*
X154189540Y-89662000D03*
X154189540Y-87122000D03*
X300355000Y-97282000D03*
X300355000Y-94742000D03*
X300355000Y-92202000D03*
X300355000Y-89662000D03*
X300355000Y-87122000D03*
D51*
X255235364Y-107442000D03*
D39*
X257775364Y-107442000D03*
D51*
X275444000Y-184277000D03*
D39*
X277984000Y-184277000D03*
D51*
X269851909Y-107442000D03*
D39*
X272391909Y-107442000D03*
D50*
X183422636Y-97282000D03*
X183422636Y-94742000D03*
X183422636Y-92202000D03*
X183422636Y-89662000D03*
X183422636Y-87122000D03*
X139573000Y-97282000D03*
X139573000Y-94742000D03*
X139573000Y-92202000D03*
X139573000Y-89662000D03*
X139573000Y-87122000D03*
D51*
X182152636Y-107442000D03*
D39*
X184692636Y-107442000D03*
D51*
X196769182Y-107442000D03*
D39*
X199309182Y-107442000D03*
D50*
X256505364Y-97282000D03*
X256505364Y-94742000D03*
X256505364Y-92202000D03*
X256505364Y-89662000D03*
X256505364Y-87122000D03*
X285738455Y-97282000D03*
X285738455Y-94742000D03*
X285738455Y-92202000D03*
X285738455Y-89662000D03*
X285738455Y-87122000D03*
D51*
X152919540Y-107442000D03*
D39*
X155459540Y-107442000D03*
D50*
X276479000Y-174117000D03*
X276479000Y-171577000D03*
X276479000Y-169037000D03*
X276479000Y-166497000D03*
X276479000Y-163957000D03*
D51*
X284468455Y-107442000D03*
D39*
X287008455Y-107442000D03*
D51*
X199444000Y-192897000D03*
D39*
X201984000Y-192897000D03*
D51*
X211385727Y-107442000D03*
D39*
X213925727Y-107442000D03*
D51*
X240618818Y-107442000D03*
D39*
X243158818Y-107442000D03*
D14*
X286385000Y-148082000D03*
X189865000Y-127762000D03*
X182880000Y-145542000D03*
X207645000Y-132207000D03*
X196850000Y-127762000D03*
X224155000Y-127762000D03*
X294005000Y-207772000D03*
X311150000Y-151511000D03*
X262890000Y-127762000D03*
X246380000Y-207772000D03*
X279400000Y-136652000D03*
X257175000Y-141097000D03*
X213360000Y-185547000D03*
X292100000Y-127762000D03*
X269875000Y-127762000D03*
X267589000Y-165227000D03*
X306705000Y-127762000D03*
X209550000Y-127762000D03*
X168275000Y-120777000D03*
X311150000Y-162179000D03*
X283972000Y-182753000D03*
X183515000Y-120777000D03*
X198120000Y-120777000D03*
X160020000Y-127762000D03*
X255905000Y-207772000D03*
X311150000Y-138049000D03*
X175895000Y-145542000D03*
X246380000Y-192913000D03*
X213360000Y-195072000D03*
X313055000Y-179197000D03*
X313055000Y-186182000D03*
X153035000Y-127762000D03*
X313055000Y-198882000D03*
X271145000Y-120777000D03*
X212725000Y-120777000D03*
X219075000Y-127762000D03*
X227330000Y-120777000D03*
X265176000Y-182753000D03*
X239395000Y-127762000D03*
X215900000Y-207772000D03*
X285115000Y-127762000D03*
X215392000Y-133731000D03*
X303530000Y-207772000D03*
X232156000Y-163957000D03*
X265430000Y-207772000D03*
X241935000Y-120777000D03*
X221234000Y-135636000D03*
X313055000Y-169037000D03*
X150495000Y-138557000D03*
X145415000Y-133477000D03*
X241300000Y-141097000D03*
X189865000Y-148717000D03*
X300355000Y-127762000D03*
X155575000Y-143637000D03*
X285750000Y-120777000D03*
X246380000Y-183515000D03*
X210185000Y-168402000D03*
X160655000Y-145542000D03*
X297180000Y-187452000D03*
X295910000Y-190627000D03*
X255270000Y-149352000D03*
X256540000Y-120777000D03*
X265176000Y-192913000D03*
X175260000Y-127762000D03*
X239268000Y-158115000D03*
X205105000Y-127762000D03*
X274955000Y-207772000D03*
X284480000Y-207772000D03*
X229870000Y-184277000D03*
X300355000Y-120777000D03*
X231775000Y-197612000D03*
X254635000Y-127762000D03*
X227965000Y-127762000D03*
X196215000Y-155702000D03*
X226060000Y-177927000D03*
X279400000Y-141732000D03*
X255778000Y-183515000D03*
X255778000Y-192913000D03*
X220345000Y-131572000D03*
X290576000Y-182753000D03*
X214630000Y-143002000D03*
X243840000Y-155575000D03*
X213360000Y-176022000D03*
X231775000Y-207772000D03*
X248285000Y-127762000D03*
X146050000Y-127762000D03*
X182245000Y-127762000D03*
X277495000Y-127762000D03*
X154305000Y-120777000D03*
X267716000Y-137541000D03*
X203200000Y-162052000D03*
X167005000Y-127762000D03*
X256540000Y-137287000D03*
X250190000Y-148082000D03*
X175260000Y-121412000D03*
X298450000Y-195707000D03*
X215900000Y-163957000D03*
X219075000Y-121412000D03*
X276225000Y-134747000D03*
X292100000Y-121412000D03*
X146050000Y-121412000D03*
X262890000Y-121412000D03*
X221615000Y-169672000D03*
X225425000Y-123317000D03*
X234696000Y-135763000D03*
X235585000Y-141097000D03*
X233680000Y-121412000D03*
X189865000Y-121412000D03*
X233680000Y-139192000D03*
X205105000Y-121412000D03*
X217805000Y-139827000D03*
X247015000Y-158877000D03*
X271526000Y-178689000D03*
X160020000Y-121412000D03*
X277495000Y-121412000D03*
X237490000Y-129667000D03*
X262255000Y-188087000D03*
X250825000Y-163322000D03*
X261620000Y-151892000D03*
X218059000Y-133604000D03*
X306705000Y-121412000D03*
X248285000Y-121412000D03*
X276225000Y-152527000D03*
X175260000Y-104267000D03*
X167640000Y-112522000D03*
X185420000Y-66802000D03*
X171450000Y-66802000D03*
X163830000Y-112522000D03*
X142240000Y-103632000D03*
X158750000Y-66802000D03*
X214884000Y-104013000D03*
X212090000Y-65532000D03*
X198755000Y-66167000D03*
X153035000Y-112522000D03*
X146050000Y-68072000D03*
X140970000Y-103632000D03*
X193040000Y-112522000D03*
X178435000Y-112522000D03*
X182245000Y-112522000D03*
X146050000Y-96139000D03*
X171196000Y-104013000D03*
X160655000Y-104267000D03*
X146050000Y-104267000D03*
X145415000Y-66802000D03*
X185674000Y-104013000D03*
X213360000Y-65532000D03*
X160020000Y-68072000D03*
X156464000Y-104013000D03*
X196850000Y-112522000D03*
X140970000Y-104902000D03*
X149225000Y-112522000D03*
X204470000Y-104267000D03*
X211455000Y-112522000D03*
X200025000Y-66167000D03*
X207645000Y-112522000D03*
X200406000Y-104013000D03*
X189865000Y-104267000D03*
X172720000Y-66802000D03*
X186690000Y-66802000D03*
X142240000Y-104902000D03*
X218694000Y-104267000D03*
X143764000Y-96139000D03*
X306705000Y-105283000D03*
X247650000Y-82042000D03*
X307975000Y-82042000D03*
X164465000Y-151892000D03*
X255270000Y-112522000D03*
X263525000Y-67437000D03*
X234315000Y-66167000D03*
X263525000Y-82042000D03*
X290830000Y-104902000D03*
X158750000Y-151892000D03*
X240665000Y-112522000D03*
X248920000Y-82042000D03*
X305435000Y-66167000D03*
X278130000Y-82042000D03*
X266065000Y-112522000D03*
X226060000Y-112522000D03*
X284480000Y-112522000D03*
X229870000Y-97917000D03*
X229108000Y-105537000D03*
X291465000Y-66167000D03*
X262255000Y-66167000D03*
X291465000Y-82042000D03*
X278130000Y-67437000D03*
X273304000Y-105537000D03*
X160655000Y-151892000D03*
X233045000Y-82042000D03*
X243840000Y-105537000D03*
X306705000Y-67437000D03*
X299085000Y-112522000D03*
X236855000Y-112522000D03*
X262255000Y-82042000D03*
X234315000Y-82042000D03*
X295275000Y-112522000D03*
X222250000Y-112522000D03*
X248920000Y-67437000D03*
X280670000Y-112522000D03*
X292735000Y-82042000D03*
X269875000Y-112522000D03*
X306705000Y-82042000D03*
X232410000Y-96647000D03*
X224028000Y-100457000D03*
X234315000Y-67437000D03*
X258572000Y-105537000D03*
X287782000Y-105537000D03*
X292735000Y-67437000D03*
X276860000Y-66167000D03*
X261620000Y-104902000D03*
X247015000Y-104902000D03*
X247650000Y-66167000D03*
X302514000Y-105537000D03*
X276225000Y-104902000D03*
X276860000Y-82042000D03*
X251460000Y-112522000D03*
X162560000Y-151892000D03*
X141605000Y-152527000D03*
X173990000Y-101092000D03*
X159385000Y-101092000D03*
X154940000Y-155067000D03*
X188595000Y-58547000D03*
X160655000Y-155067000D03*
X153670000Y-113792000D03*
X224155000Y-78867000D03*
X142240000Y-100457000D03*
X135890000Y-207772000D03*
X219964000Y-78867000D03*
X238760000Y-58547000D03*
X126365000Y-199517000D03*
X152146000Y-100965000D03*
X132715000Y-143637000D03*
X184785000Y-203327000D03*
X160020000Y-106172000D03*
X197485000Y-113792000D03*
X175260000Y-58547000D03*
X295402000Y-101092000D03*
X202565000Y-170307000D03*
X140970000Y-101727000D03*
X191770000Y-101092000D03*
X161925000Y-58547000D03*
X313690000Y-100457000D03*
X196088000Y-101092000D03*
X172085000Y-155067000D03*
X208280000Y-101092000D03*
X283210000Y-101727000D03*
X160655000Y-199517000D03*
X146685000Y-157607000D03*
X253492000Y-101727000D03*
X292100000Y-58547000D03*
X179070000Y-101092000D03*
X140970000Y-100457000D03*
X283845000Y-99187000D03*
X182880000Y-113792000D03*
X255905000Y-113792000D03*
X168275000Y-201422000D03*
X177800000Y-155067000D03*
X252095000Y-58547000D03*
X264795000Y-101092000D03*
X127000000Y-94742000D03*
X144780000Y-101092000D03*
X127000000Y-85217000D03*
X241300000Y-113792000D03*
X238760000Y-78867000D03*
X203200000Y-207772000D03*
X226695000Y-113792000D03*
X127000000Y-104267000D03*
X240030000Y-98933000D03*
X162560000Y-101092000D03*
X164465000Y-101092000D03*
X264795000Y-106172000D03*
X126365000Y-132842000D03*
X165100000Y-183007000D03*
X127000000Y-123317000D03*
X168275000Y-113792000D03*
X279400000Y-106172000D03*
X126365000Y-142367000D03*
X137160000Y-148082000D03*
X278765000Y-58547000D03*
X146685000Y-207772000D03*
X206375000Y-101092000D03*
X189230000Y-106172000D03*
X174625000Y-106172000D03*
X313690000Y-71882000D03*
X194945000Y-207772000D03*
X210566000Y-100711000D03*
X254635000Y-99187000D03*
X181356000Y-100965000D03*
X224536000Y-101727000D03*
X173990000Y-195072000D03*
X234950000Y-106172000D03*
X294005000Y-106172000D03*
X201930000Y-58547000D03*
X203200000Y-101092000D03*
X126365000Y-189992000D03*
X149860000Y-101092000D03*
X205105000Y-181102000D03*
X127000000Y-113792000D03*
X297180000Y-78867000D03*
X127000000Y-66167000D03*
X225298000Y-99187000D03*
X265430000Y-58547000D03*
X188595000Y-101092000D03*
X250190000Y-101092000D03*
X270510000Y-113792000D03*
X185420000Y-207772000D03*
X239522000Y-101981000D03*
X148590000Y-58547000D03*
X300355000Y-113792000D03*
X297942000Y-101727000D03*
X269240000Y-99187000D03*
X134620000Y-58547000D03*
X298450000Y-99187000D03*
X268478000Y-101727000D03*
X135636000Y-108077000D03*
X267970000Y-78867000D03*
X145415000Y-106172000D03*
X253365000Y-78867000D03*
X183515000Y-155067000D03*
X206375000Y-185547000D03*
X193675000Y-101092000D03*
X313690000Y-85217000D03*
X166878000Y-100965000D03*
X279400000Y-101092000D03*
X177165000Y-101092000D03*
X307975000Y-112522000D03*
X126365000Y-151892000D03*
X206375000Y-195072000D03*
X128905000Y-139827000D03*
X142240000Y-101727000D03*
X250190000Y-106172000D03*
X166370000Y-155067000D03*
X313690000Y-78232000D03*
X203200000Y-200787000D03*
X212090000Y-113792000D03*
X217424000Y-101092000D03*
X285115000Y-113792000D03*
X127000000Y-75692000D03*
X142240000Y-109982000D03*
X206375000Y-176022000D03*
X313690000Y-65532000D03*
X139573000Y-113792000D03*
X282575000Y-78867000D03*
X147955000Y-101092000D03*
X173990000Y-188722000D03*
X203835000Y-106172000D03*
X154940000Y-189357000D03*
X158115000Y-196977000D03*
X268605000Y-169037000D03*
X274320000Y-176657000D03*
X266700000Y-146812000D03*
X234950000Y-137287000D03*
X186055000Y-188722000D03*
X189992000Y-197231000D03*
X221615000Y-192532000D03*
X226695000Y-184277000D03*
X226695000Y-185547000D03*
X226695000Y-189357000D03*
X226695000Y-186817000D03*
X227965000Y-184277000D03*
X223520000Y-180467000D03*
X177165000Y-198882000D03*
X146050000Y-198882000D03*
X152400000Y-189992000D03*
X184150000Y-189992000D03*
X300355000Y-191262000D03*
X295910000Y-195707000D03*
X216535000Y-149352000D03*
X229870000Y-149352000D03*
X234315000Y-149352000D03*
X225425000Y-149352000D03*
X212090000Y-149352000D03*
X220980000Y-149352000D03*
X201930000Y-142621000D03*
X201930000Y-133477000D03*
X203454000Y-133985000D03*
X203454000Y-142621000D03*
X204978000Y-142621000D03*
X204978000Y-135001000D03*
X206502000Y-142621000D03*
X206502000Y-135509000D03*
X208026000Y-136017000D03*
X208026000Y-142621000D03*
X261620000Y-158877000D03*
X255905000Y-158877000D03*
X252730000Y-153797000D03*
X252730000Y-146177000D03*
X244475000Y-143637000D03*
X156845000Y-169672000D03*
X148590000Y-186817000D03*
X147447000Y-169672000D03*
X216535000Y-144272000D03*
X216535000Y-141732000D03*
X228600000Y-144272000D03*
X228854000Y-141097000D03*
X290195000Y-163957000D03*
X288290000Y-156972000D03*
X281940000Y-156972000D03*
X274320000Y-156337000D03*
X288925000Y-143637000D03*
X290830000Y-139192000D03*
X287655000Y-137922000D03*
X274320000Y-154432000D03*
X188595000Y-169672000D03*
X179324000Y-169672000D03*
X179705000Y-186817000D03*
X307340000Y-148082000D03*
X257810000Y-151892000D03*
X260350000Y-156337000D03*
X136525000Y-76962000D03*
X134620000Y-72517000D03*
X149860000Y-76962000D03*
X148590000Y-71882000D03*
X163195000Y-71882000D03*
X164465000Y-76962000D03*
X179705000Y-76962000D03*
X178435000Y-71882000D03*
X192405000Y-71882000D03*
X194310000Y-76962000D03*
X207645000Y-71882000D03*
X208915000Y-76962000D03*
X153035000Y-165862000D03*
X160020000Y-186182000D03*
X137668000Y-98679000D03*
X157480000Y-195072000D03*
X150495000Y-186817000D03*
X184785000Y-165862000D03*
X191770000Y-186182000D03*
X189230000Y-195072000D03*
X182245000Y-186817000D03*
X256286000Y-102997000D03*
X223266000Y-139319000D03*
X225552000Y-131572000D03*
X227965000Y-194437000D03*
X222631000Y-190627000D03*
X226314000Y-190627000D03*
X151130000Y-195072000D03*
X149860000Y-195072000D03*
X153670000Y-200787000D03*
X183007000Y-195072000D03*
X181483000Y-195072000D03*
X185420000Y-201422000D03*
X229235000Y-67437000D03*
X230886000Y-100203000D03*
X229235000Y-66167000D03*
X139700000Y-65532000D03*
X139700000Y-66802000D03*
X136906000Y-90805000D03*
X136525000Y-112522000D03*
X153035000Y-66802000D03*
X153035000Y-65532000D03*
X151765000Y-96012000D03*
X151765000Y-91567000D03*
X166370000Y-66802000D03*
X166370000Y-65532000D03*
X180975000Y-67437000D03*
X179705000Y-66167000D03*
X193040000Y-66167000D03*
X194310000Y-67437000D03*
X206375000Y-66167000D03*
X207645000Y-67437000D03*
X240665000Y-67437000D03*
X245618000Y-100203000D03*
X241935000Y-66167000D03*
X260350000Y-100203000D03*
X255905000Y-66167000D03*
X254635000Y-67437000D03*
X270510000Y-67437000D03*
X274828000Y-100203000D03*
X269240000Y-66167000D03*
X283210000Y-66167000D03*
X284480000Y-67437000D03*
X289560000Y-100203000D03*
X304800000Y-99949000D03*
X297815000Y-66167000D03*
X299085000Y-67437000D03*
X192532000Y-137922000D03*
X192532000Y-136017000D03*
X193802000Y-138557000D03*
X193802000Y-134747000D03*
X195072000Y-139192000D03*
X195072000Y-133477000D03*
X196342000Y-139827000D03*
X196342000Y-132207000D03*
X197612000Y-132207000D03*
X197612000Y-140462000D03*
X166370000Y-91567000D03*
X166370000Y-96012000D03*
X181102000Y-96012000D03*
X181102000Y-91567000D03*
X195580000Y-91567000D03*
X195580000Y-96012000D03*
X210185000Y-91567000D03*
X210185000Y-96012000D03*
X198882000Y-141097000D03*
X198882000Y-132207000D03*
X200152000Y-132207000D03*
X200152000Y-141732000D03*
X227965000Y-139827000D03*
X229235000Y-130937000D03*
X227965000Y-132207000D03*
X226695000Y-139827000D03*
X225425000Y-139827000D03*
X227330000Y-133477000D03*
X226695000Y-134747000D03*
X224155000Y-139827000D03*
X142875000Y-124587000D03*
X157480000Y-124587000D03*
X172085000Y-124587000D03*
X186690000Y-124587000D03*
X201676000Y-124587000D03*
X215900000Y-124587000D03*
X230505000Y-124587000D03*
X225425000Y-125857000D03*
X245110000Y-124587000D03*
X234315000Y-128397000D03*
X231140000Y-128397000D03*
X259715000Y-124587000D03*
X274320000Y-124587000D03*
X288925000Y-124587000D03*
X303530000Y-124587000D03*
M02*
