G04 #@! TF.GenerationSoftware,KiCad,Pcbnew,(5.1.6)-1*
G04 #@! TF.CreationDate,2023-04-30T23:16:11+02:00*
G04 #@! TF.ProjectId,hub-1-wire,6875622d-312d-4776-9972-652e6b696361,rev?*
G04 #@! TF.SameCoordinates,Original*
G04 #@! TF.FileFunction,Copper,L1,Top*
G04 #@! TF.FilePolarity,Positive*
%FSLAX46Y46*%
G04 Gerber Fmt 4.6, Leading zero omitted, Abs format (unit mm)*
G04 Created by KiCad (PCBNEW (5.1.6)-1) date 2023-04-30 23:16:11*
%MOMM*%
%LPD*%
G01*
G04 APERTURE LIST*
G04 #@! TA.AperFunction,ComponentPad*
%ADD10C,6.000000*%
G04 #@! TD*
G04 #@! TA.AperFunction,ComponentPad*
%ADD11C,0.800000*%
G04 #@! TD*
G04 #@! TA.AperFunction,ComponentPad*
%ADD12R,3.500000X3.500000*%
G04 #@! TD*
G04 #@! TA.AperFunction,ComponentPad*
%ADD13C,3.500000*%
G04 #@! TD*
G04 #@! TA.AperFunction,ComponentPad*
%ADD14C,1.500000*%
G04 #@! TD*
G04 #@! TA.AperFunction,SMDPad,CuDef*
%ADD15R,0.800000X2.200000*%
G04 #@! TD*
G04 #@! TA.AperFunction,SMDPad,CuDef*
%ADD16R,0.900000X0.900000*%
G04 #@! TD*
G04 #@! TA.AperFunction,Conductor*
%ADD17C,0.900000*%
G04 #@! TD*
G04 #@! TA.AperFunction,Conductor*
%ADD18C,1.000000*%
G04 #@! TD*
G04 #@! TA.AperFunction,Conductor*
%ADD19C,0.500000*%
G04 #@! TD*
G04 APERTURE END LIST*
D10*
X236220000Y-111760000D03*
X196850000Y-111760000D03*
X236220000Y-73660000D03*
X196850000Y-73660000D03*
D11*
X205105000Y-83185000D03*
X201295000Y-79375000D03*
X218440000Y-100965000D03*
X216535000Y-104775000D03*
X203835000Y-104140000D03*
X201295000Y-94996000D03*
X229870000Y-80645000D03*
X213995000Y-80645000D03*
X208026000Y-86106000D03*
D12*
X218948000Y-109855000D03*
D13*
X229108000Y-109855000D03*
X224028000Y-109855000D03*
D12*
X203962000Y-109855000D03*
D13*
X214122000Y-109855000D03*
X209042000Y-109855000D03*
D12*
X195580000Y-94996000D03*
D13*
X195580000Y-105156000D03*
X195580000Y-100076000D03*
D12*
X195580000Y-80010000D03*
D13*
X195580000Y-90170000D03*
X195580000Y-85090000D03*
D12*
X214122000Y-74930000D03*
D13*
X203962000Y-74930000D03*
X209042000Y-74930000D03*
D12*
X229108000Y-74930000D03*
D13*
X218948000Y-74930000D03*
X224028000Y-74930000D03*
D14*
X221615000Y-94360000D03*
X219075000Y-88010000D03*
X221615000Y-89280000D03*
X219075000Y-95630000D03*
X221615000Y-91820000D03*
X219075000Y-93090000D03*
X219075000Y-90550000D03*
X221615000Y-96900000D03*
D15*
X213995000Y-98882200D03*
X215265000Y-98882200D03*
X212725000Y-98882200D03*
X215265000Y-95427800D03*
X213995000Y-95427800D03*
X212725000Y-95427800D03*
D16*
X214085000Y-101600000D03*
X212635000Y-101600000D03*
D17*
X213995000Y-98882200D02*
X213995000Y-100965000D01*
X213995000Y-101510000D02*
X214085000Y-101600000D01*
X213995000Y-100965000D02*
X213995000Y-101510000D01*
D18*
X215900000Y-100965000D02*
X218440000Y-100965000D01*
D17*
X215900000Y-100965000D02*
X213995000Y-100965000D01*
X217170000Y-100965000D02*
X215900000Y-100965000D01*
D19*
X212725000Y-94615000D02*
X212725000Y-95427800D01*
X212725000Y-93980000D02*
X212725000Y-94615000D01*
X214122500Y-92582500D02*
X212725000Y-93980000D01*
X218567500Y-92582500D02*
X214122500Y-92582500D01*
X219075000Y-93090000D02*
X218567500Y-92582500D01*
D17*
X212635000Y-98972200D02*
X212725000Y-98882200D01*
X212635000Y-101600000D02*
X212635000Y-98972200D01*
D18*
X212635000Y-102780000D02*
X212635000Y-101600000D01*
X213042500Y-103187500D02*
X212635000Y-102780000D01*
X221932500Y-103187500D02*
X213042500Y-103187500D01*
X208915000Y-76200000D02*
X210185000Y-74930000D01*
X208915000Y-108585000D02*
X210185000Y-109855000D01*
X224790000Y-108585000D02*
X223520000Y-109855000D01*
X195580000Y-100076000D02*
X198755000Y-100076000D01*
X198755000Y-101981000D02*
X198755000Y-100076000D01*
X202565000Y-106045000D02*
X198755000Y-102235000D01*
X203200000Y-106680000D02*
X202565000Y-106045000D01*
X208915000Y-109855000D02*
X208915000Y-106680000D01*
X224155000Y-105410000D02*
X222567500Y-103822500D01*
X222567500Y-103822500D02*
X221932500Y-103187500D01*
X224155000Y-106680000D02*
X224155000Y-105410000D01*
X224155000Y-109855000D02*
X224155000Y-106680000D01*
X208280000Y-106680000D02*
X203200000Y-106680000D01*
X208280000Y-106680000D02*
X224155000Y-106680000D01*
X208915000Y-106680000D02*
X208280000Y-106680000D01*
X208915000Y-76200000D02*
X208915000Y-74930000D01*
X195580000Y-84836000D02*
X200025000Y-84836000D01*
X223520000Y-78105000D02*
X212725000Y-78105000D01*
X212725000Y-78105000D02*
X212090000Y-78105000D01*
X208915000Y-74930000D02*
X208915000Y-78105000D01*
X212725000Y-78105000D02*
X208915000Y-78105000D01*
X224155000Y-77470000D02*
X223520000Y-78105000D01*
X224155000Y-74930000D02*
X224155000Y-77470000D01*
X198755000Y-86360000D02*
X207010000Y-78105000D01*
X207010000Y-78105000D02*
X208915000Y-78105000D01*
X198755000Y-87757000D02*
X198755000Y-86360000D01*
X198755000Y-100076000D02*
X198755000Y-87757000D01*
X229870000Y-80645000D02*
X213995000Y-80645000D01*
X208026000Y-86106000D02*
X208026000Y-85344000D01*
X212725000Y-80645000D02*
X213995000Y-80645000D01*
X208026000Y-85344000D02*
X212725000Y-80645000D01*
X208026000Y-90551000D02*
X208026000Y-91694000D01*
X208026000Y-90551000D02*
X208026000Y-94869000D01*
X208026000Y-86106000D02*
X208026000Y-90551000D01*
X208026000Y-97409000D02*
X208026000Y-94869000D01*
X216535000Y-104775000D02*
X210820000Y-104775000D01*
X208026000Y-101981000D02*
X208026000Y-97409000D01*
X205105000Y-83185000D02*
X208026000Y-86106000D01*
X208280000Y-104140000D02*
X209232500Y-103187500D01*
X203835000Y-104140000D02*
X208280000Y-104140000D01*
X210820000Y-104775000D02*
X209232500Y-103187500D01*
X209232500Y-103187500D02*
X208026000Y-101981000D01*
X207899000Y-94996000D02*
X208026000Y-94869000D01*
X201295000Y-94996000D02*
X207899000Y-94996000D01*
D19*
X213995000Y-95427800D02*
X213995000Y-93980000D01*
X213995000Y-93980000D02*
X214630000Y-93345000D01*
X214630000Y-93345000D02*
X216535000Y-93345000D01*
X221615000Y-92326002D02*
X221615000Y-91820000D01*
X219651001Y-94290001D02*
X221615000Y-92326002D01*
X217480001Y-94290001D02*
X219651001Y-94290001D01*
X216535000Y-93345000D02*
X217480001Y-94290001D01*
X221615000Y-91820000D02*
X221615000Y-91313998D01*
M02*
