<?xml version="1.0" standalone="no"?>
 <!DOCTYPE svg PUBLIC "-//W3C//DTD SVG 1.1//EN" 
 "http://www.w3.org/Graphics/SVG/1.1/DTD/svg11.dtd"> 
<svg
  xmlns:svg="http://www.w3.org/2000/svg"
  xmlns="http://www.w3.org/2000/svg"
  xmlns:xlink="http://www.w3.org/1999/xlink"
  version="1.1"
  width="29.700220cm" height="21.000720cm" viewBox="0 0 116930 82680">
<title>SVG Picture created as wall-sensor-of-room-temperature-F_SilkS.svg date 2021/07/01 10:03:41 </title>
  <desc>Picture generated by PCBNEW </desc>
<g style="fill:#000000; fill-opacity:1;stroke:#000000; stroke-opacity:1;
stroke-linecap:round; stroke-linejoin:round;"
 transform="translate(0 0) scale(1 1)">
</g>
<g style="fill:#000000; fill-opacity:0.0; 
stroke:#000000; stroke-width:-0.000393701; stroke-opacity:1; 
stroke-linecap:round; stroke-linejoin:round;">
</g>
<g style="fill:#000000; fill-opacity:0.0; 
stroke:#000000; stroke-width:19.685; stroke-opacity:1; 
stroke-linecap:round; stroke-linejoin:round;">
<circle cx="32750" cy="57500" r="433.071" /> 
<circle cx="55750" cy="43500" r="433.071" /> 
<circle cx="55750" cy="61250" r="433.071" /> 
<circle cx="16250" cy="31500" r="433.071" /> 
<circle cx="41500" cy="33750" r="433.071" /> 
<circle cx="25250" cy="39250" r="433.071" /> 
<circle cx="16500" cy="53000" r="433.071" /> 
<circle cx="32750" cy="48750" r="433.071" /> 
<circle cx="23250" cy="61250" r="433.071" /> 
</g>
<g style="fill:#000000; fill-opacity:0.0; 
stroke:#000000; stroke-width:78.7402; stroke-opacity:1; 
stroke-linecap:round; stroke-linejoin:round;">
<path d="M24250 62500
L24250 58551
" />
<path d="M47000 62500
L47000 58551
" />
<path d="M57086 62500
L47000 62500
" />
<path d="M57086 62500
L57086 58551
" />
<path d="M14960 62500
L24250 62500
" />
<path d="M38500 58551
L47000 58551
" />
<path d="M38500 62500
L38500 58551
" />
<path d="M38500 62500
L33500 62500
" />
<path d="M33500 62500
L33500 58551
" />
<text x="39250" y="31545.3"
textLength="1996.63" font-size="787.402" lengthAdjust="spacingAndGlyphs"
text-anchor="middle" opacity="0">Boot</text>
<path d="M38589 31207
L38673 31235
L38701 31264
L38729 31320
L38729 31404
L38701 31460
L38673 31489
L38617 31517
L38392 31517
L38392 30926
L38589 30926
L38645 30954
L38673 30982
L38701 31039
L38701 31095
L38673 31151
L38645 31179
L38589 31207
L38392 31207
" />
<path d="M39067 31517
L39010 31489
L38982 31460
L38954 31404
L38954 31235
L38982 31179
L39010 31151
L39067 31123
L39151 31123
L39207 31151
L39235 31179
L39264 31235
L39264 31404
L39235 31460
L39207 31489
L39151 31517
L39067 31517
" />
<path d="M39601 31517
L39545 31489
L39517 31460
L39489 31404
L39489 31235
L39517 31179
L39545 31151
L39601 31123
L39685 31123
L39742 31151
L39770 31179
L39798 31235
L39798 31404
L39770 31460
L39742 31489
L39685 31517
L39601 31517
" />
<path d="M39967 31123
L40192 31123
" />
<path d="M40051 30926
L40051 31432
L40079 31489
L40135 31517
L40192 31517
" />
<text x="39000" y="29545.3"
textLength="2520.81" font-size="787.402" lengthAdjust="spacingAndGlyphs"
text-anchor="middle" opacity="0">Reset</text>
<path d="M38268 29517
L38071 29235
" />
<path d="M37931 29517
L37931 28926
L38156 28926
L38212 28954
L38240 28982
L38268 29039
L38268 29123
L38240 29179
L38212 29207
L38156 29235
L37931 29235
" />
<path d="M38746 29489
L38690 29517
L38578 29517
L38521 29489
L38493 29432
L38493 29207
L38521 29151
L38578 29123
L38690 29123
L38746 29151
L38775 29207
L38775 29264
L38493 29320
" />
<path d="M39000 29489
L39056 29517
L39168 29517
L39224 29489
L39253 29432
L39253 29404
L39224 29348
L39168 29320
L39084 29320
L39028 29292
L39000 29235
L39000 29207
L39028 29151
L39084 29123
L39168 29123
L39224 29151
" />
<path d="M39731 29489
L39674 29517
L39562 29517
L39506 29489
L39478 29432
L39478 29207
L39506 29151
L39562 29123
L39674 29123
L39731 29151
L39759 29207
L39759 29264
L39478 29320
" />
<path d="M39928 29123
L40152 29123
" />
<path d="M40012 28926
L40012 29432
L40040 29489
L40096 29517
L40152 29517
" />
</g>
<g style="fill:#000000; fill-opacity:0.0; 
stroke:#000000; stroke-width:196.85; stroke-opacity:1; 
stroke-linecap:round; stroke-linejoin:round;">
<text x="30250" y="45643.7"
textLength="11463.4" font-size="1049.87" lengthAdjust="spacingAndGlyphs"
text-anchor="middle" opacity="0">roman-labovsky.cz</text>
<path d="M24756 45606
L24756 45081
" />
<path d="M24756 45231
L24794 45156
L24831 45118
L24906 45081
L24981 45081
" />
<path d="M25356 45606
L25281 45568
L25244 45531
L25206 45456
L25206 45231
L25244 45156
L25281 45118
L25356 45081
L25469 45081
L25544 45118
L25581 45156
L25619 45231
L25619 45456
L25581 45531
L25544 45568
L25469 45606
L25356 45606
" />
<path d="M25956 45606
L25956 45081
" />
<path d="M25956 45156
L25994 45118
L26069 45081
L26181 45081
L26256 45118
L26294 45193
L26294 45606
" />
<path d="M26294 45193
L26331 45118
L26406 45081
L26519 45081
L26594 45118
L26631 45193
L26631 45606
" />
<path d="M27344 45606
L27344 45193
L27306 45118
L27231 45081
L27081 45081
L27006 45118
" />
<path d="M27344 45568
L27269 45606
L27081 45606
L27006 45568
L26969 45493
L26969 45418
L27006 45343
L27081 45306
L27269 45306
L27344 45268
" />
<path d="M27719 45081
L27719 45606
" />
<path d="M27719 45156
L27756 45118
L27831 45081
L27944 45081
L28019 45118
L28056 45193
L28056 45606
" />
<path d="M28431 45306
L29031 45306
" />
<path d="M29518 45606
L29443 45568
L29406 45493
L29406 44818
" />
<path d="M30156 45606
L30156 45193
L30118 45118
L30043 45081
L29893 45081
L29818 45118
" />
<path d="M30156 45568
L30081 45606
L29893 45606
L29818 45568
L29781 45493
L29781 45418
L29818 45343
L29893 45306
L30081 45306
L30156 45268
" />
<path d="M30531 45606
L30531 44818
" />
<path d="M30531 45118
L30606 45081
L30756 45081
L30831 45118
L30868 45156
L30906 45231
L30906 45456
L30868 45531
L30831 45568
L30756 45606
L30606 45606
L30531 45568
" />
<path d="M31356 45606
L31281 45568
L31243 45531
L31206 45456
L31206 45231
L31243 45156
L31281 45118
L31356 45081
L31468 45081
L31543 45118
L31581 45156
L31618 45231
L31618 45456
L31581 45531
L31543 45568
L31468 45606
L31356 45606
" />
<path d="M31881 45081
L32068 45606
L32255 45081
" />
<path d="M32518 45568
L32593 45606
L32743 45606
L32818 45568
L32855 45493
L32855 45456
L32818 45381
L32743 45343
L32630 45343
L32555 45306
L32518 45231
L32518 45193
L32555 45118
L32630 45081
L32743 45081
L32818 45118
" />
<path d="M33193 45606
L33193 44818
" />
<path d="M33268 45306
L33493 45606
" />
<path d="M33493 45081
L33193 45381
" />
<path d="M33755 45081
L33943 45606
" />
<path d="M34130 45081
L33943 45606
L33868 45793
L33830 45831
L33755 45868
" />
<path d="M34430 45531
L34468 45568
L34430 45606
L34393 45568
L34430 45531
L34430 45606
" />
<path d="M35143 45568
L35068 45606
L34918 45606
L34843 45568
L34805 45531
L34768 45456
L34768 45231
L34805 45156
L34843 45118
L34918 45081
L35068 45081
L35143 45118
" />
<path d="M35405 45081
L35818 45081
L35405 45606
L35818 45606
" />
<text x="30250" y="42143.7"
textLength="10079.7" font-size="1049.87" lengthAdjust="spacingAndGlyphs"
text-anchor="middle" opacity="0">Roman Labovsky</text>
<path d="M25975 42106
L25713 41731
" />
<path d="M25525 42106
L25525 41318
L25825 41318
L25900 41356
L25938 41393
L25975 41468
L25975 41581
L25938 41656
L25900 41693
L25825 41731
L25525 41731
" />
<path d="M26425 42106
L26350 42068
L26312 42031
L26275 41956
L26275 41731
L26312 41656
L26350 41618
L26425 41581
L26537 41581
L26612 41618
L26650 41656
L26687 41731
L26687 41956
L26650 42031
L26612 42068
L26537 42106
L26425 42106
" />
<path d="M27025 42106
L27025 41581
" />
<path d="M27025 41656
L27062 41618
L27137 41581
L27250 41581
L27325 41618
L27362 41693
L27362 42106
" />
<path d="M27362 41693
L27400 41618
L27475 41581
L27587 41581
L27662 41618
L27700 41693
L27700 42106
" />
<path d="M28412 42106
L28412 41693
L28375 41618
L28300 41581
L28150 41581
L28075 41618
" />
<path d="M28412 42068
L28337 42106
L28150 42106
L28075 42068
L28037 41993
L28037 41918
L28075 41843
L28150 41806
L28337 41806
L28412 41768
" />
<path d="M28787 41581
L28787 42106
" />
<path d="M28787 41656
L28825 41618
L28900 41581
L29012 41581
L29087 41618
L29125 41693
L29125 42106
" />
<path d="M30474 42106
L30100 42106
L30100 41318
" />
<path d="M31074 42106
L31074 41693
L31037 41618
L30962 41581
L30812 41581
L30737 41618
" />
<path d="M31074 42068
L30999 42106
L30812 42106
L30737 42068
L30699 41993
L30699 41918
L30737 41843
L30812 41806
L30999 41806
L31074 41768
" />
<path d="M31449 42106
L31449 41318
" />
<path d="M31449 41618
L31524 41581
L31674 41581
L31749 41618
L31787 41656
L31824 41731
L31824 41956
L31787 42031
L31749 42068
L31674 42106
L31524 42106
L31449 42068
" />
<path d="M32274 42106
L32199 42068
L32162 42031
L32124 41956
L32124 41731
L32162 41656
L32199 41618
L32274 41581
L32387 41581
L32462 41618
L32499 41656
L32537 41731
L32537 41956
L32499 42031
L32462 42068
L32387 42106
L32274 42106
" />
<path d="M32799 41581
L32987 42106
L33174 41581
" />
<path d="M33437 42068
L33512 42106
L33662 42106
L33737 42068
L33774 41993
L33774 41956
L33737 41881
L33662 41843
L33549 41843
L33474 41806
L33437 41731
L33437 41693
L33474 41618
L33549 41581
L33662 41581
L33737 41618
" />
<path d="M34112 42106
L34112 41318
" />
<path d="M34187 41806
L34411 42106
" />
<path d="M34411 41581
L34112 41881
" />
<path d="M34674 41581
L34861 42106
" />
<path d="M35049 41581
L34861 42106
L34786 42293
L34749 42331
L34674 42368
" />
<g transform="rotate(-90 18250 43750)">
<text x="18250" y="44143.7"
textLength="24815.3" font-size="1049.87" lengthAdjust="spacingAndGlyphs"
text-anchor="middle" opacity="0">Nastenny snimac prostorove teploty v1.0</text>
</g>
<path d="M18606 55842
L17818 55842
L18606 55392
L17818 55392
" />
<path d="M18606 54679
L18193 54679
L18118 54717
L18081 54792
L18081 54942
L18118 55017
" />
<path d="M18568 54679
L18606 54754
L18606 54942
L18568 55017
L18493 55054
L18418 55054
L18343 55017
L18306 54942
L18306 54754
L18268 54679
" />
<path d="M18568 54342
L18606 54267
L18606 54117
L18568 54042
L18493 54004
L18456 54004
L18381 54042
L18343 54117
L18343 54229
L18306 54304
L18231 54342
L18193 54342
L18118 54304
L18081 54229
L18081 54117
L18118 54042
" />
<path d="M18081 53779
L18081 53480
" />
<path d="M17818 53667
L18493 53667
L18568 53630
L18606 53555
L18606 53480
" />
<path d="M18568 52917
L18606 52992
L18606 53142
L18568 53217
L18493 53255
L18193 53255
L18118 53217
L18081 53142
L18081 52992
L18118 52917
L18193 52880
L18268 52880
L18343 53255
" />
<path d="M18081 52542
L18606 52542
" />
<path d="M18156 52542
L18118 52505
L18081 52430
L18081 52317
L18118 52242
L18193 52205
L18606 52205
" />
<path d="M18081 51830
L18606 51830
" />
<path d="M18156 51830
L18118 51792
L18081 51717
L18081 51605
L18118 51530
L18193 51492
L18606 51492
" />
<path d="M18081 51192
L18606 51005
" />
<path d="M18081 50817
L18606 51005
L18793 51080
L18831 51117
L18868 51192
" />
<path d="M18568 49955
L18606 49880
L18606 49730
L18568 49655
L18493 49618
L18456 49618
L18381 49655
L18343 49730
L18343 49842
L18306 49917
L18231 49955
L18193 49955
L18118 49917
L18081 49842
L18081 49730
L18118 49655
" />
<path d="M18081 49280
L18606 49280
" />
<path d="M18156 49280
L18118 49243
L18081 49168
L18081 49055
L18118 48980
L18193 48943
L18606 48943
" />
<path d="M18606 48568
L18081 48568
" />
<path d="M17818 48568
L17856 48605
L17893 48568
L17856 48530
L17818 48568
L17893 48568
" />
<path d="M18606 48193
L18081 48193
" />
<path d="M18156 48193
L18118 48155
L18081 48080
L18081 47968
L18118 47893
L18193 47855
L18606 47855
" />
<path d="M18193 47855
L18118 47818
L18081 47743
L18081 47630
L18118 47555
L18193 47518
L18606 47518
" />
<path d="M18606 46805
L18193 46805
L18118 46843
L18081 46918
L18081 47068
L18118 47143
" />
<path d="M18568 46805
L18606 46880
L18606 47068
L18568 47143
L18493 47180
L18418 47180
L18343 47143
L18306 47068
L18306 46880
L18268 46805
" />
<path d="M18568 46093
L18606 46168
L18606 46318
L18568 46393
L18531 46430
L18456 46468
L18231 46468
L18156 46430
L18118 46393
L18081 46318
L18081 46168
L18118 46093
" />
<path d="M18081 45156
L18868 45156
" />
<path d="M18118 45156
L18081 45081
L18081 44931
L18118 44856
L18156 44818
L18231 44781
L18456 44781
L18531 44818
L18568 44856
L18606 44931
L18606 45081
L18568 45156
" />
<path d="M18606 44443
L18081 44443
" />
<path d="M18231 44443
L18156 44406
L18118 44368
L18081 44293
L18081 44218
" />
<path d="M18606 43843
L18568 43918
L18531 43956
L18456 43993
L18231 43993
L18156 43956
L18118 43918
L18081 43843
L18081 43731
L18118 43656
L18156 43618
L18231 43581
L18456 43581
L18531 43618
L18568 43656
L18606 43731
L18606 43843
" />
<path d="M18568 43281
L18606 43206
L18606 43056
L18568 42981
L18493 42943
L18456 42943
L18381 42981
L18343 43056
L18343 43168
L18306 43243
L18231 43281
L18193 43281
L18118 43243
L18081 43168
L18081 43056
L18118 42981
" />
<path d="M18081 42718
L18081 42418
" />
<path d="M17818 42606
L18493 42606
L18568 42568
L18606 42493
L18606 42418
" />
<path d="M18606 42043
L18568 42118
L18531 42156
L18456 42193
L18231 42193
L18156 42156
L18118 42118
L18081 42043
L18081 41931
L18118 41856
L18156 41818
L18231 41781
L18456 41781
L18531 41818
L18568 41856
L18606 41931
L18606 42043
" />
<path d="M18606 41444
L18081 41444
" />
<path d="M18231 41444
L18156 41406
L18118 41369
L18081 41294
L18081 41219
" />
<path d="M18606 40844
L18568 40919
L18531 40956
L18456 40994
L18231 40994
L18156 40956
L18118 40919
L18081 40844
L18081 40731
L18118 40656
L18156 40619
L18231 40581
L18456 40581
L18531 40619
L18568 40656
L18606 40731
L18606 40844
" />
<path d="M18081 40319
L18606 40131
L18081 39944
" />
<path d="M18568 39344
L18606 39419
L18606 39569
L18568 39644
L18493 39681
L18193 39681
L18118 39644
L18081 39569
L18081 39419
L18118 39344
L18193 39306
L18268 39306
L18343 39681
" />
<path d="M18081 38481
L18081 38181
" />
<path d="M17818 38369
L18493 38369
L18568 38331
L18606 38256
L18606 38181
" />
<path d="M18568 37619
L18606 37694
L18606 37844
L18568 37919
L18493 37956
L18193 37956
L18118 37919
L18081 37844
L18081 37694
L18118 37619
L18193 37582
L18268 37582
L18343 37956
" />
<path d="M18081 37244
L18868 37244
" />
<path d="M18118 37244
L18081 37169
L18081 37019
L18118 36944
L18156 36907
L18231 36869
L18456 36869
L18531 36907
L18568 36944
L18606 37019
L18606 37169
L18568 37244
" />
<path d="M18606 36419
L18568 36494
L18493 36532
L17818 36532
" />
<path d="M18606 36007
L18568 36082
L18531 36119
L18456 36157
L18231 36157
L18156 36119
L18118 36082
L18081 36007
L18081 35894
L18118 35819
L18156 35782
L18231 35744
L18456 35744
L18531 35782
L18568 35819
L18606 35894
L18606 36007
" />
<path d="M18081 35519
L18081 35219
" />
<path d="M17818 35407
L18493 35407
L18568 35369
L18606 35294
L18606 35219
" />
<path d="M18081 35032
L18606 34844
" />
<path d="M18081 34657
L18606 34844
L18793 34919
L18831 34957
L18868 35032
" />
<path d="M18081 33832
L18606 33645
L18081 33457
" />
<path d="M18606 32745
L18606 33195
" />
<path d="M18606 32970
L17818 32970
L17931 33045
L18006 33120
L18043 33195
" />
<path d="M18531 32407
L18568 32370
L18606 32407
L18568 32445
L18531 32407
L18606 32407
" />
<path d="M17818 31882
L17818 31807
L17856 31732
L17893 31695
L17968 31657
L18118 31620
L18306 31620
L18456 31657
L18531 31695
L18568 31732
L18606 31807
L18606 31882
L18568 31957
L18531 31995
L18456 32032
L18306 32070
L18118 32070
L17968 32032
L17893 31995
L17856 31957
L17818 31882
" />
</g>
<g style="fill:#000000; fill-opacity:0.0; 
stroke:#000000; stroke-width:78.7402; stroke-opacity:1; 
stroke-linecap:round; stroke-linejoin:round;">
<path d="M54250 41500
L54250 27055
" />
<path d="M57086 41500
L54250 41500
" />
<path d="M14960 27055
L54250 27055
" />
<path d="M24250 58551
L33500 58551
" />
<path d="M57086 41500
L57086 58551
" />
<path d="M14960 27055
L14960 62500
" />
</g>
<g style="fill:#000000; fill-opacity:0.0; 
stroke:#000000; stroke-width:66.9291; stroke-opacity:1; 
stroke-linecap:round; stroke-linejoin:round;">
<path d="M54500 64500
L54500 60500
" />
<path d="M54500 60500
L52750 60500
" />
<path d="M52750 60500
L52750 58500
" />
<path d="M52750 58500
L49750 58500
" />
<path d="M49750 58500
L49750 60500
" />
<path d="M49750 60500
L48000 60500
" />
<path d="M48000 60500
L48000 64500
" />
<path d="M48000 64500
L54500 64500
" />
<path d="M34750 37800
L34159 37800
" />
<path d="M35340 36700
L34159 36700
" />
</g>
<g style="fill:#000000; fill-opacity:0.0; 
stroke:#000000; stroke-width:47.2441; stroke-opacity:1; 
stroke-linecap:round; stroke-linejoin:round;">
<circle cx="35250" cy="37850" r="75" /> 
<circle cx="35250" cy="37850" r="50" /> 
<circle cx="35250" cy="37850" r="25" /> 
</g>
<g style="fill:#000000; fill-opacity:0.0; 
stroke:#000000; stroke-width:66.9291; stroke-opacity:1; 
stroke-linecap:round; stroke-linejoin:round;">
<path d="M20475 57915
L21663 57915
" />
<path d="M20475 58584
L21663 58584
" />
<path d="M20475 57915
L20475 58584
" />
<path d="M21150 61250
L21150 64500
" />
<path d="M21150 64500
L17350 64500
" />
<path d="M17350 64500
L17350 58900
" />
<path d="M17350 58900
L18250 58900
" />
<path d="M20300 58900
L21150 58900
" />
<path d="M21150 58900
L21150 59150
" />
<path d="M33271 30452
L32759 30452
" />
<path d="M32759 34547
L32759 34173
" />
<path d="M32759 30452
L32759 30826
" />
<path d="M32759 30826
L30742 30826
" />
<path d="M32759 34173
L32326 34173
" />
<path d="M33271 34547
L32759 34547
" />
<path d="M50200 43800
L49800 43800
" />
<path d="M50200 42700
L49925 42700
" />
<path d="M49925 42700
L49800 42700
" />
</g>
<g style="fill:#000000; fill-opacity:0.0; 
stroke:#000000; stroke-width:47.2441; stroke-opacity:1; 
stroke-linecap:round; stroke-linejoin:round;">
<circle cx="49700" cy="42625" r="75" /> 
<circle cx="49700" cy="42625" r="50" /> 
<circle cx="49700" cy="42625" r="25" /> 
</g>
<g style="fill:#000000; fill-opacity:0.0; 
stroke:#000000; stroke-width:66.9291; stroke-opacity:1; 
stroke-linecap:round; stroke-linejoin:round;">
<path d="M50200 40550
L49800 40550
" />
<path d="M50200 39450
L49925 39450
" />
<path d="M49925 39450
L49800 39450
" />
</g>
<g style="fill:#000000; fill-opacity:0.0; 
stroke:#000000; stroke-width:47.2441; stroke-opacity:1; 
stroke-linecap:round; stroke-linejoin:round;">
<circle cx="49700" cy="39375" r="75" /> 
<circle cx="49700" cy="39375" r="50" /> 
<circle cx="49700" cy="39375" r="25" /> 
</g>
<g style="fill:#000000; fill-opacity:0.0; 
stroke:#000000; stroke-width:66.9291; stroke-opacity:1; 
stroke-linecap:round; stroke-linejoin:round;">
<path d="M56907 35344
L56907 34679
" />
<path d="M56234 35344
L56907 35344
" />
<path d="M53983 27484
L53869 27721
" />
<path d="M53869 27721
L53766 27484
" />
<path d="M56232 28157
L56907 28157
" />
<path d="M56907 28157
L56907 28824
" />
<path d="M53766 27484
L53983 27484
" />
<path d="M44550 28150
L44450 28150
" />
<path d="M44450 28150
L44450 35350
" />
<path d="M44450 35350
L44550 35350
" />
<path d="M49151 46665
L49151 47188
" />
<path d="M49151 47188
L48627 47188
" />
<path d="M48104 46165
L48104 38141
" />
<path d="M49151 38141
L48104 38141
" />
<path d="M49151 46165
L48104 46165
" />
<path d="M49151 46165
L49151 38141
" />
<path d="M35204 61919
L36720 61919
" />
<path d="M36735.3 61915.9 A1015.53 1015.53 0.0 1 0 35204.7 61919.3" />
<path d="M41050 31850
L41050 31650
" />
<path d="M42450 31850
L42450 31650
" />
<path d="M42350 31050
L41150 31050
" />
<path d="M42350 32450
L41150 32450
" />
<path d="M41050 29850
L41050 29650
" />
<path d="M42450 29850
L42450 29650
" />
<path d="M42350 29050
L41150 29050
" />
<path d="M42350 30450
L41150 30450
" />
<path d="M37165 61775
L37834 61775
" />
<path d="M37834 61775
L37834 60586
" />
<path d="M37165 61775
L37165 60586
" />
<path d="M46600 36259
L46600 37740
" />
<path d="M47400 36259
L47400 37740
" />
<path d="M46600 37740
L47400 37740
" />
<path d="M46600 36259
L47400 36259
" />
<path d="M31750 54050
L31750 54450
" />
<path d="M26750 54050
L26750 54450
" />
<path d="M31750 56750
L31750 56050
" />
<path d="M30000 56750
L31750 56750
" />
<path d="M26750 56750
L28500 56750
" />
<path d="M26750 56050
L26750 56750
" />
<path d="M31750 51750
L31750 52450
" />
<path d="M26750 51750
L31750 51750
" />
<path d="M26750 52450
L26750 51750
" />
<path d="M38523 54050
L38523 54450
" />
<path d="M33523 54050
L33523 54450
" />
<path d="M38523 56750
L38523 56050
" />
<path d="M36773 56750
L38523 56750
" />
<path d="M33523 56750
L35273 56750
" />
<path d="M33523 56050
L33523 56750
" />
<path d="M38523 51750
L38523 52450
" />
<path d="M33523 51750
L38523 51750
" />
<path d="M33523 52450
L33523 51750
" />
<path d="M45250 54050
L45250 54450
" />
<path d="M40250 54050
L40250 54450
" />
<path d="M45250 56750
L45250 56050
" />
<path d="M43500 56750
L45250 56750
" />
<path d="M40250 56750
L42000 56750
" />
<path d="M40250 56050
L40250 56750
" />
<path d="M45250 51750
L45250 52450
" />
<path d="M40250 51750
L45250 51750
" />
<path d="M40250 52450
L40250 51750
" />
<path d="M29509 51400
L30990 51400
" />
<path d="M29509 50600
L30990 50600
" />
<path d="M30990 51400
L30990 50600
" />
<path d="M29509 51400
L29509 50600
" />
<path d="M36259 51400
L37740 51400
" />
<path d="M36259 50600
L37740 50600
" />
<path d="M37740 51400
L37740 50600
" />
<path d="M36259 51400
L36259 50600
" />
<path d="M43009 51400
L44490 51400
" />
<path d="M43009 50600
L44490 50600
" />
<path d="M44490 51400
L44490 50600
" />
<path d="M43009 51400
L43009 50600
" />
<path d="M48400 37740
L48400 36259
" />
<path d="M47600 37740
L47600 36259
" />
<path d="M48400 36259
L47600 36259
" />
<path d="M48400 37740
L47600 37740
" />
<path d="M49475 46415
L49475 47084
" />
<path d="M49475 47084
L50663 47084
" />
<path d="M49475 46415
L50663 46415
" />
<path d="M49584 58725
L48915 58725
" />
<path d="M48915 58725
L48915 59913
" />
<path d="M49584 58725
L49584 59913
" />
<path d="M29275 30084
L29275 29415
" />
<path d="M29275 29415
L28086 29415
" />
<path d="M29275 30084
L28086 30084
" />
<path d="M43900 32490
L43900 31009
" />
<path d="M43900 32490
L43100 32490
" />
<path d="M43100 32490
L43100 31009
" />
<path d="M43900 31009
L43100 31009
" />
<path d="M43900 30490
L43900 29009
" />
<path d="M43900 30490
L43100 30490
" />
<path d="M43100 30490
L43100 29009
" />
<path d="M43900 29009
L43100 29009
" />
<path d="M36650 37740
L36650 36259
" />
<path d="M36650 37740
L35850 37740
" />
<path d="M35850 37740
L35850 36259
" />
<path d="M36650 36259
L35850 36259
" />
<path d="M30400 33740
L30400 32259
" />
<path d="M30400 33740
L29600 33740
" />
<path d="M29600 33740
L29600 32259
" />
<path d="M30400 32259
L29600 32259
" />
<path d="M30759 35650
L32240 35650
" />
<path d="M30759 35650
L30759 34850
" />
<path d="M30759 34850
L32240 34850
" />
<path d="M32240 35650
L32240 34850
" />
<path d="M34009 36400
L35490 36400
" />
<path d="M34009 36400
L34009 35600
" />
<path d="M34009 35600
L35490 35600
" />
<path d="M35490 36400
L35490 35600
" />
<path d="M33400 37740
L33400 36259
" />
<path d="M33400 37740
L32600 37740
" />
<path d="M32600 37740
L32600 36259
" />
<path d="M33400 36259
L32600 36259
" />
<path d="M29600 30627
L29600 32108
" />
<path d="M29600 30627
L30400 30627
" />
<path d="M30400 30627
L30400 32108
" />
<path d="M29600 32108
L30400 32108
" />
<g >
</g>
<g >
</g>
<g >
</g>
<g >
</g>
<g >
</g>
<g >
</g>
<g >
</g>
<g >
</g>
<g >
</g>
<g >
</g>
<g >
</g>
<g >
</g>
<g >
</g>
<g >
</g>
<g >
</g>
<g >
</g>
<g >
</g>
<g >
</g>
<g >
</g>
<g >
</g>
<g >
</g>
<g >
</g>
<g >
</g>
<g >
</g>
<g >
</g>
<g >
</g>
<g >
</g>
<g >
</g>
<g >
</g>
<g >
</g>
<g >
</g>
<g >
</g>
<g >
</g>
<g >
</g>
<g >
</g>
<g >
</g>
<g >
</g>
<g >
</g>
<g >
</g>
<g >
</g>
<g >
</g>
<g >
</g>
<g >
</g>
<g >
</g>
<g >
</g>
<g >
</g>
<g >
</g>
<g >
</g>
<g >
</g>
<g >
</g>
<g >
</g>
<g >
</g>
<g >
</g>
<g >
</g>
<g >
</g>
<g >
</g>
<g >
</g>
<g >
</g>
<g >
</g>
<g >
</g>
<g >
</g>
<g >
</g>
<g >
</g>
<g >
</g>
<g >
</g>
<g >
</g>
<g >
</g>
<g >
</g>
<g >
</g>
<g >
</g>
<g >
</g>
<g >
</g>
<g >
</g>
<g >
</g>
<g >
</g>
<g >
</g>
<g >
</g>
<g >
</g>
<g >
</g>
<g >
</g>
<g >
</g>
<g >
</g>
<g >
</g>
<g >
</g>
<g >
</g>
<g >
</g>
<g >
</g>
<g >
</g>
<g >
</g>
<g >
</g>
<g >
</g>
<g >
</g>
<g >
</g>
<g >
</g>
<g >
</g>
<g >
</g>
<g >
</g>
<g >
</g>
<g >
</g>
<g >
</g>
<g >
</g>
<g >
</g>
<g >
</g>
<g >
</g>
<g >
</g>
<g >
</g>
<g >
</g>
<g >
</g>
<g >
</g>
<g >
</g>
<g >
</g>
<g >
</g>
<g >
</g>
<g >
</g>
<g >
</g>
<g >
</g>
<g >
</g>
<g >
</g>
<g >
</g>
<g >
</g>
<g >
</g>
<g >
</g>
<g >
</g>
<g >
</g>
<g >
</g>
<g >
</g>
<g >
</g>
<g >
</g>
<g >
</g>
<g >
</g>
<g >
</g>
<g >
</g>
<g >
</g>
<g >
</g>
<g >
</g>
<g >
</g>
<g >
</g>
<g >
</g>
<g >
</g>
<g >
</g>
<g >
</g>
<g >
</g>
<g >
</g>
<g >
</g>
<g >
</g>
<g >
</g>
<g >
</g>
<g >
</g>
<g >
</g>
<g >
</g>
<g >
</g>
<g >
</g>
<g >
</g>
</g>
<g style="fill:#000000; fill-opacity:0.0; 
stroke:#000000; stroke-width:66.9291; stroke-opacity:1; 
stroke-linecap:round; stroke-linejoin:round;">
</g>
<g style="fill:#000000; fill-opacity:0.0; 
stroke:#000000; stroke-width:59.0551; stroke-opacity:1; 
stroke-linecap:round; stroke-linejoin:round;">
<text x="36750" y="30446.9"
textLength="255.906" font-size="524.934" lengthAdjust="spacingAndGlyphs"
text-anchor="middle" opacity="0">~</text>
<text x="46500" y="45946.9"
textLength="76.7717" font-size="524.934" lengthAdjust="spacingAndGlyphs"
text-anchor="middle" opacity="0">~</text>
<text x="50250" y="56946.9"
textLength="76.7717" font-size="524.934" lengthAdjust="spacingAndGlyphs"
text-anchor="middle" opacity="0">~</text>
<text x="36250" y="30446.9"
textLength="76.7717" font-size="524.934" lengthAdjust="spacingAndGlyphs"
text-anchor="middle" opacity="0">~</text>
<text x="35000" y="36696.9"
textLength="76.7717" font-size="524.934" lengthAdjust="spacingAndGlyphs"
text-anchor="middle" opacity="0">~</text>
<text x="35250" y="36946.9"
textLength="76.7717" font-size="524.934" lengthAdjust="spacingAndGlyphs"
text-anchor="middle" opacity="0">~</text>
<text x="39750" y="39946.9"
textLength="76.7717" font-size="524.934" lengthAdjust="spacingAndGlyphs"
text-anchor="middle" opacity="0">~</text>
<text x="39750" y="38696.9"
textLength="76.7717" font-size="524.934" lengthAdjust="spacingAndGlyphs"
text-anchor="middle" opacity="0">~</text>
<text x="38500" y="39946.9"
textLength="76.7717" font-size="524.934" lengthAdjust="spacingAndGlyphs"
text-anchor="middle" opacity="0">~</text>
<text x="38500" y="38696.9"
textLength="76.7717" font-size="524.934" lengthAdjust="spacingAndGlyphs"
text-anchor="middle" opacity="0">~</text>
<text x="37250" y="39946.9"
textLength="76.7717" font-size="524.934" lengthAdjust="spacingAndGlyphs"
text-anchor="middle" opacity="0">~</text>
<text x="37250" y="38696.9"
textLength="76.7717" font-size="524.934" lengthAdjust="spacingAndGlyphs"
text-anchor="middle" opacity="0">~</text>
<text x="30250" y="37196.9"
textLength="76.7717" font-size="524.934" lengthAdjust="spacingAndGlyphs"
text-anchor="middle" opacity="0">~</text>
<text x="30000" y="36696.9"
textLength="76.7717" font-size="524.934" lengthAdjust="spacingAndGlyphs"
text-anchor="middle" opacity="0">~</text>
<text x="30000" y="35946.9"
textLength="76.7717" font-size="524.934" lengthAdjust="spacingAndGlyphs"
text-anchor="middle" opacity="0">~</text>
<text x="30000" y="35446.9"
textLength="76.7717" font-size="524.934" lengthAdjust="spacingAndGlyphs"
text-anchor="middle" opacity="0">~</text>
<text x="35250" y="40946.9"
textLength="76.7717" font-size="524.934" lengthAdjust="spacingAndGlyphs"
text-anchor="middle" opacity="0">~</text>
<text x="36250" y="40946.9"
textLength="76.7717" font-size="524.934" lengthAdjust="spacingAndGlyphs"
text-anchor="middle" opacity="0">~</text>
<text x="34250" y="40946.9"
textLength="76.7717" font-size="524.934" lengthAdjust="spacingAndGlyphs"
text-anchor="middle" opacity="0">~</text>
<text x="33000" y="40946.9"
textLength="76.7717" font-size="524.934" lengthAdjust="spacingAndGlyphs"
text-anchor="middle" opacity="0">~</text>
<text x="35250" y="40196.9"
textLength="76.7717" font-size="524.934" lengthAdjust="spacingAndGlyphs"
text-anchor="middle" opacity="0">~</text>
<text x="34250" y="40196.9"
textLength="76.7717" font-size="524.934" lengthAdjust="spacingAndGlyphs"
text-anchor="middle" opacity="0">~</text>
<text x="35250" y="39446.9"
textLength="76.7717" font-size="524.934" lengthAdjust="spacingAndGlyphs"
text-anchor="middle" opacity="0">~</text>
<text x="34250" y="39446.9"
textLength="76.7717" font-size="524.934" lengthAdjust="spacingAndGlyphs"
text-anchor="middle" opacity="0">~</text>
<text x="32000" y="39946.9"
textLength="76.7717" font-size="524.934" lengthAdjust="spacingAndGlyphs"
text-anchor="middle" opacity="0">~</text>
<text x="33500" y="39946.9"
textLength="76.7717" font-size="524.934" lengthAdjust="spacingAndGlyphs"
text-anchor="middle" opacity="0">~</text>
<text x="29250" y="39196.9"
textLength="76.7717" font-size="524.934" lengthAdjust="spacingAndGlyphs"
text-anchor="middle" opacity="0">~</text>
<text x="32000" y="39196.9"
textLength="76.7717" font-size="524.934" lengthAdjust="spacingAndGlyphs"
text-anchor="middle" opacity="0">~</text>
<text x="30750" y="38946.9"
textLength="76.7717" font-size="524.934" lengthAdjust="spacingAndGlyphs"
text-anchor="middle" opacity="0">~</text>
<text x="29750" y="39446.9"
textLength="76.7717" font-size="524.934" lengthAdjust="spacingAndGlyphs"
text-anchor="middle" opacity="0">~</text>
<text x="30500" y="31446.9"
textLength="76.7717" font-size="524.934" lengthAdjust="spacingAndGlyphs"
text-anchor="middle" opacity="0">~</text>
<text x="30000" y="31446.9"
textLength="76.7717" font-size="524.934" lengthAdjust="spacingAndGlyphs"
text-anchor="middle" opacity="0">~</text>
<text x="29000" y="33446.9"
textLength="76.7717" font-size="524.934" lengthAdjust="spacingAndGlyphs"
text-anchor="middle" opacity="0">~</text>
<text x="29000" y="32446.9"
textLength="76.7717" font-size="524.934" lengthAdjust="spacingAndGlyphs"
text-anchor="middle" opacity="0">~</text>
<text x="30500" y="39946.9"
textLength="76.7717" font-size="524.934" lengthAdjust="spacingAndGlyphs"
text-anchor="middle" opacity="0">~</text>
<text x="28750" y="39946.9"
textLength="76.7717" font-size="524.934" lengthAdjust="spacingAndGlyphs"
text-anchor="middle" opacity="0">~</text>
<text x="33000" y="30446.9"
textLength="76.7717" font-size="524.934" lengthAdjust="spacingAndGlyphs"
text-anchor="middle" opacity="0">~</text>
<text x="37750" y="33196.9"
textLength="76.7717" font-size="524.934" lengthAdjust="spacingAndGlyphs"
text-anchor="middle" opacity="0">~</text>
<text x="37750" y="34696.9"
textLength="76.7717" font-size="524.934" lengthAdjust="spacingAndGlyphs"
text-anchor="middle" opacity="0">~</text>
<text x="37750" y="36196.9"
textLength="76.7717" font-size="524.934" lengthAdjust="spacingAndGlyphs"
text-anchor="middle" opacity="0">~</text>
<text x="39000" y="36196.9"
textLength="76.7717" font-size="524.934" lengthAdjust="spacingAndGlyphs"
text-anchor="middle" opacity="0">~</text>
<text x="39000" y="34696.9"
textLength="76.7717" font-size="524.934" lengthAdjust="spacingAndGlyphs"
text-anchor="middle" opacity="0">~</text>
<text x="39000" y="33196.9"
textLength="76.7717" font-size="524.934" lengthAdjust="spacingAndGlyphs"
text-anchor="middle" opacity="0">~</text>
<text x="39000" y="31696.9"
textLength="76.7717" font-size="524.934" lengthAdjust="spacingAndGlyphs"
text-anchor="middle" opacity="0">~</text>
<text x="37750" y="31696.9"
textLength="76.7717" font-size="524.934" lengthAdjust="spacingAndGlyphs"
text-anchor="middle" opacity="0">~</text>
<text x="15750" y="36446.9"
textLength="76.7717" font-size="524.934" lengthAdjust="spacingAndGlyphs"
text-anchor="middle" opacity="0">~</text>
<text x="15750" y="29196.9"
textLength="76.7717" font-size="524.934" lengthAdjust="spacingAndGlyphs"
text-anchor="middle" opacity="0">~</text>
<text x="21750" y="29196.9"
textLength="76.7717" font-size="524.934" lengthAdjust="spacingAndGlyphs"
text-anchor="middle" opacity="0">~</text>
<text x="28750" y="29196.9"
textLength="76.7717" font-size="524.934" lengthAdjust="spacingAndGlyphs"
text-anchor="middle" opacity="0">~</text>
<text x="35250" y="29196.9"
textLength="76.7717" font-size="524.934" lengthAdjust="spacingAndGlyphs"
text-anchor="middle" opacity="0">~</text>
<text x="42000" y="29196.9"
textLength="76.7717" font-size="524.934" lengthAdjust="spacingAndGlyphs"
text-anchor="middle" opacity="0">~</text>
<text x="42750" y="35196.9"
textLength="76.7717" font-size="524.934" lengthAdjust="spacingAndGlyphs"
text-anchor="middle" opacity="0">~</text>
<text x="43250" y="34696.9"
textLength="76.7717" font-size="524.934" lengthAdjust="spacingAndGlyphs"
text-anchor="middle" opacity="0">~</text>
<text x="55300" y="38046.9"
textLength="76.7717" font-size="524.934" lengthAdjust="spacingAndGlyphs"
text-anchor="middle" opacity="0">~</text>
<text x="54750" y="37196.9"
textLength="76.7717" font-size="524.934" lengthAdjust="spacingAndGlyphs"
text-anchor="middle" opacity="0">~</text>
<text x="48750" y="38696.9"
textLength="76.7717" font-size="524.934" lengthAdjust="spacingAndGlyphs"
text-anchor="middle" opacity="0">~</text>
<text x="46750" y="39446.9"
textLength="76.7717" font-size="524.934" lengthAdjust="spacingAndGlyphs"
text-anchor="middle" opacity="0">~</text>
<text x="47250" y="37446.9"
textLength="76.7717" font-size="524.934" lengthAdjust="spacingAndGlyphs"
text-anchor="middle" opacity="0">~</text>
<text x="48000" y="37446.9"
textLength="76.7717" font-size="524.934" lengthAdjust="spacingAndGlyphs"
text-anchor="middle" opacity="0">~</text>
<text x="50000" y="37446.9"
textLength="76.7717" font-size="524.934" lengthAdjust="spacingAndGlyphs"
text-anchor="middle" opacity="0">~</text>
<text x="51250" y="37446.9"
textLength="76.7717" font-size="524.934" lengthAdjust="spacingAndGlyphs"
text-anchor="middle" opacity="0">~</text>
<text x="52750" y="38196.9"
textLength="76.7717" font-size="524.934" lengthAdjust="spacingAndGlyphs"
text-anchor="middle" opacity="0">~</text>
<text x="52750" y="40446.9"
textLength="76.7717" font-size="524.934" lengthAdjust="spacingAndGlyphs"
text-anchor="middle" opacity="0">~</text>
<text x="52750" y="42196.9"
textLength="76.7717" font-size="524.934" lengthAdjust="spacingAndGlyphs"
text-anchor="middle" opacity="0">~</text>
<text x="53000" y="48946.9"
textLength="76.7717" font-size="524.934" lengthAdjust="spacingAndGlyphs"
text-anchor="middle" opacity="0">~</text>
<text x="46500" y="46446.9"
textLength="76.7717" font-size="524.934" lengthAdjust="spacingAndGlyphs"
text-anchor="middle" opacity="0">~</text>
<text x="41500" y="46196.9"
textLength="76.7717" font-size="524.934" lengthAdjust="spacingAndGlyphs"
text-anchor="middle" opacity="0">~</text>
<text x="41500" y="47946.9"
textLength="76.7717" font-size="524.934" lengthAdjust="spacingAndGlyphs"
text-anchor="middle" opacity="0">~</text>
<text x="40500" y="49696.9"
textLength="76.7717" font-size="524.934" lengthAdjust="spacingAndGlyphs"
text-anchor="middle" opacity="0">~</text>
<text x="36500" y="49696.9"
textLength="76.7717" font-size="524.934" lengthAdjust="spacingAndGlyphs"
text-anchor="middle" opacity="0">~</text>
<text x="36500" y="51696.9"
textLength="76.7717" font-size="524.934" lengthAdjust="spacingAndGlyphs"
text-anchor="middle" opacity="0">~</text>
<text x="56500" y="50446.9"
textLength="76.7717" font-size="524.934" lengthAdjust="spacingAndGlyphs"
text-anchor="middle" opacity="0">~</text>
<text x="34750" y="51696.9"
textLength="76.7717" font-size="524.934" lengthAdjust="spacingAndGlyphs"
text-anchor="middle" opacity="0">~</text>
<text x="56500" y="43696.9"
textLength="76.7717" font-size="524.934" lengthAdjust="spacingAndGlyphs"
text-anchor="middle" opacity="0">~</text>
<text x="49750" y="49946.9"
textLength="76.7717" font-size="524.934" lengthAdjust="spacingAndGlyphs"
text-anchor="middle" opacity="0">~</text>
<text x="47750" y="59446.9"
textLength="76.7717" font-size="524.934" lengthAdjust="spacingAndGlyphs"
text-anchor="middle" opacity="0">~</text>
<text x="50250" y="56446.9"
textLength="76.7717" font-size="524.934" lengthAdjust="spacingAndGlyphs"
text-anchor="middle" opacity="0">~</text>
<text x="47750" y="57696.9"
textLength="76.7717" font-size="524.934" lengthAdjust="spacingAndGlyphs"
text-anchor="middle" opacity="0">~</text>
<text x="51250" y="59696.9"
textLength="76.7717" font-size="524.934" lengthAdjust="spacingAndGlyphs"
text-anchor="middle" opacity="0">~</text>
<text x="47750" y="63196.9"
textLength="76.7717" font-size="524.934" lengthAdjust="spacingAndGlyphs"
text-anchor="middle" opacity="0">~</text>
<text x="48500" y="58696.9"
textLength="76.7717" font-size="524.934" lengthAdjust="spacingAndGlyphs"
text-anchor="middle" opacity="0">~</text>
<text x="41500" y="57696.9"
textLength="76.7717" font-size="524.934" lengthAdjust="spacingAndGlyphs"
text-anchor="middle" opacity="0">~</text>
<text x="56500" y="63196.9"
textLength="76.7717" font-size="524.934" lengthAdjust="spacingAndGlyphs"
text-anchor="middle" opacity="0">~</text>
<text x="41000" y="58946.9"
textLength="76.7717" font-size="524.934" lengthAdjust="spacingAndGlyphs"
text-anchor="middle" opacity="0">~</text>
<text x="56500" y="57446.9"
textLength="76.7717" font-size="524.934" lengthAdjust="spacingAndGlyphs"
text-anchor="middle" opacity="0">~</text>
<text x="28000" y="48196.9"
textLength="76.7717" font-size="524.934" lengthAdjust="spacingAndGlyphs"
text-anchor="middle" opacity="0">~</text>
<text x="28000" y="44446.9"
textLength="76.7717" font-size="524.934" lengthAdjust="spacingAndGlyphs"
text-anchor="middle" opacity="0">~</text>
<text x="37500" y="60946.9"
textLength="76.7717" font-size="524.934" lengthAdjust="spacingAndGlyphs"
text-anchor="middle" opacity="0">~</text>
<text x="37500" y="58196.9"
textLength="76.7717" font-size="524.934" lengthAdjust="spacingAndGlyphs"
text-anchor="middle" opacity="0">~</text>
<text x="32500" y="44446.9"
textLength="76.7717" font-size="524.934" lengthAdjust="spacingAndGlyphs"
text-anchor="middle" opacity="0">~</text>
<text x="37000" y="44446.9"
textLength="76.7717" font-size="524.934" lengthAdjust="spacingAndGlyphs"
text-anchor="middle" opacity="0">~</text>
<text x="32500" y="48196.9"
textLength="76.7717" font-size="524.934" lengthAdjust="spacingAndGlyphs"
text-anchor="middle" opacity="0">~</text>
<text x="37000" y="48196.9"
textLength="76.7717" font-size="524.934" lengthAdjust="spacingAndGlyphs"
text-anchor="middle" opacity="0">~</text>
<text x="23500" y="48196.9"
textLength="76.7717" font-size="524.934" lengthAdjust="spacingAndGlyphs"
text-anchor="middle" opacity="0">~</text>
<text x="26500" y="59446.9"
textLength="76.7717" font-size="524.934" lengthAdjust="spacingAndGlyphs"
text-anchor="middle" opacity="0">~</text>
<text x="35750" y="59696.9"
textLength="76.7717" font-size="524.934" lengthAdjust="spacingAndGlyphs"
text-anchor="middle" opacity="0">~</text>
<text x="15750" y="43196.9"
textLength="76.7717" font-size="524.934" lengthAdjust="spacingAndGlyphs"
text-anchor="middle" opacity="0">~</text>
<text x="23500" y="44446.9"
textLength="76.7717" font-size="524.934" lengthAdjust="spacingAndGlyphs"
text-anchor="middle" opacity="0">~</text>
<text x="15750" y="49196.9"
textLength="76.7717" font-size="524.934" lengthAdjust="spacingAndGlyphs"
text-anchor="middle" opacity="0">~</text>
<text x="15750" y="57196.9"
textLength="76.7717" font-size="524.934" lengthAdjust="spacingAndGlyphs"
text-anchor="middle" opacity="0">~</text>
<text x="15750" y="63196.9"
textLength="76.7717" font-size="524.934" lengthAdjust="spacingAndGlyphs"
text-anchor="middle" opacity="0">~</text>
</g>
<g style="fill:#000000; fill-opacity:0.0; 
stroke:#000000; stroke-width:66.9291; stroke-opacity:1; 
stroke-linecap:round; stroke-linejoin:round;">
<text x="53500" y="60196.9"
textLength="845.426" font-size="524.934" lengthAdjust="spacingAndGlyphs"
text-anchor="middle" opacity="0">P1</text>
<path d="M53209 60178
L53209 59784
L53359 59784
L53396 59803
L53415 59821
L53434 59859
L53434 59915
L53415 59953
L53396 59971
L53359 59990
L53209 59990
" />
<path d="M53809 60178
L53584 60178
" />
<path d="M53696 60178
L53696 59784
L53659 59840
L53621 59878
L53584 59896
" />
<text x="36000" y="38446.9"
textLength="874.409" font-size="524.934" lengthAdjust="spacingAndGlyphs"
text-anchor="middle" opacity="0">U2</text>
<path d="M35700 38034
L35700 38353
L35718 38390
L35737 38409
L35775 38428
L35850 38428
L35887 38409
L35906 38390
L35925 38353
L35925 38034
" />
<path d="M36093 38071
L36112 38053
L36149 38034
L36243 38034
L36281 38053
L36299 38071
L36318 38109
L36318 38146
L36299 38203
L36074 38428
L36318 38428
" />
<text x="21000" y="57696.9"
textLength="1230.61" font-size="524.934" lengthAdjust="spacingAndGlyphs"
text-anchor="middle" opacity="0">D12</text>
<path d="M20521 57678
L20521 57284
L20615 57284
L20671 57303
L20709 57340
L20728 57378
L20746 57453
L20746 57509
L20728 57584
L20709 57621
L20671 57659
L20615 57678
L20521 57678
" />
<path d="M21121 57678
L20896 57678
" />
<path d="M21009 57678
L21009 57284
L20971 57340
L20934 57378
L20896 57396
" />
<path d="M21271 57321
L21290 57303
L21328 57284
L21421 57284
L21459 57303
L21478 57321
L21496 57359
L21496 57396
L21478 57453
L21253 57678
L21496 57678
" />
</g>
<g style="fill:#000000; fill-opacity:0.0; 
stroke:#000000; stroke-width:59.0551; stroke-opacity:1; 
stroke-linecap:round; stroke-linejoin:round;">
<text x="24515.7" y="44403.5"
textLength="87.0079" font-size="524.934" lengthAdjust="spacingAndGlyphs"
text-anchor="middle" opacity="0">~</text>
<text x="24265.7" y="34153.5"
textLength="76.7717" font-size="524.934" lengthAdjust="spacingAndGlyphs"
text-anchor="middle" opacity="0">~</text>
</g>
<g style="fill:#000000; fill-opacity:0.0; 
stroke:#000000; stroke-width:66.9291; stroke-opacity:1; 
stroke-linecap:round; stroke-linejoin:round;">
<g transform="rotate(-90 17000 60250)">
<text x="17000" y="60446.9"
textLength="751.687" font-size="524.934" lengthAdjust="spacingAndGlyphs"
text-anchor="middle" opacity="0">J1</text>
</g>
<path d="M16784 60381
L17065 60381
L17121 60399
L17159 60437
L17178 60493
L17178 60531
" />
<path d="M17178 59987
L17178 60212
" />
<path d="M17178 60100
L16784 60100
L16840 60137
L16878 60175
L16896 60212
" />
<text x="33921.3" y="30196.9"
textLength="874.409" font-size="524.934" lengthAdjust="spacingAndGlyphs"
text-anchor="middle" opacity="0">U1</text>
<path d="M33621 29784
L33621 30103
L33640 30140
L33658 30159
L33696 30178
L33771 30178
L33808 30159
L33827 30140
L33846 30103
L33846 29784
" />
<path d="M34239 30178
L34014 30178
" />
<path d="M34127 30178
L34127 29784
L34089 29840
L34052 29878
L34014 29896
" />
<g transform="rotate(-90 51000 43250)">
<text x="51000" y="43446.9"
textLength="855.662" font-size="524.934" lengthAdjust="spacingAndGlyphs"
text-anchor="middle" opacity="0">D7</text>
</g>
<path d="M51178 43540
L50784 43540
L50784 43446
L50803 43390
L50840 43353
L50878 43334
L50953 43315
L51009 43315
L51084 43334
L51121 43353
L51159 43390
L51178 43446
L51178 43540
" />
<path d="M50784 43184
L50784 42921
L51178 43090
" />
<g transform="rotate(-90 51000 40000)">
<text x="51000" y="40196.9"
textLength="855.662" font-size="524.934" lengthAdjust="spacingAndGlyphs"
text-anchor="middle" opacity="0">D6</text>
</g>
<path d="M51178 40290
L50784 40290
L50784 40196
L50803 40140
L50840 40103
L50878 40084
L50953 40065
L51009 40065
L51084 40084
L51121 40103
L51159 40140
L51178 40196
L51178 40290
" />
<path d="M50784 39728
L50784 39803
L50803 39840
L50821 39859
L50878 39896
L50953 39915
L51103 39915
L51140 39896
L51159 39878
L51178 39840
L51178 39765
L51159 39728
L51140 39709
L51103 39690
L51009 39690
L50971 39709
L50953 39728
L50934 39765
L50934 39840
L50953 39878
L50971 39896
L51009 39915
" />
<text x="52000" y="36446.9"
textLength="874.409" font-size="524.934" lengthAdjust="spacingAndGlyphs"
text-anchor="middle" opacity="0">U3</text>
<path d="M51700 36034
L51700 36353
L51718 36390
L51737 36409
L51775 36428
L51850 36428
L51887 36409
L51906 36390
L51925 36353
L51925 36034
" />
<path d="M52074 36034
L52318 36034
L52187 36184
L52243 36184
L52281 36203
L52299 36221
L52318 36259
L52318 36353
L52299 36390
L52281 36409
L52243 36428
L52131 36428
L52093 36409
L52074 36390
" />
<text x="48500" y="47946.9"
textLength="855.662" font-size="524.934" lengthAdjust="spacingAndGlyphs"
text-anchor="middle" opacity="0">P2</text>
<path d="M48209 47928
L48209 47534
L48359 47534
L48396 47553
L48415 47571
L48434 47609
L48434 47665
L48415 47703
L48396 47721
L48359 47740
L48209 47740
" />
<path d="M48584 47571
L48603 47553
L48640 47534
L48734 47534
L48771 47553
L48790 47571
L48809 47609
L48809 47646
L48790 47703
L48565 47928
L48809 47928
" />
<g transform="rotate(-90 34500 61100)">
<text x="34500" y="61296.9"
textLength="874.409" font-size="524.934" lengthAdjust="spacingAndGlyphs"
text-anchor="middle" opacity="0">U4</text>
</g>
<path d="M34284 61399
L34603 61399
L34640 61381
L34659 61362
L34678 61324
L34678 61249
L34659 61212
L34640 61193
L34603 61174
L34284 61174
" />
<path d="M34415 60818
L34678 60818
" />
<path d="M34265 60912
L34546 61006
L34546 60762
" />
<text x="39750" y="32446.9"
textLength="1286.86" font-size="524.934" lengthAdjust="spacingAndGlyphs"
text-anchor="middle" opacity="0">SW2</text>
<path d="M39225 32409
L39281 32428
L39375 32428
L39412 32409
L39431 32390
L39450 32353
L39450 32315
L39431 32278
L39412 32259
L39375 32240
L39300 32221
L39262 32203
L39243 32184
L39225 32146
L39225 32109
L39243 32071
L39262 32053
L39300 32034
L39393 32034
L39450 32053
" />
<path d="M39581 32034
L39675 32428
L39750 32146
L39824 32428
L39918 32034
" />
<path d="M40049 32071
L40068 32053
L40106 32034
L40199 32034
L40237 32053
L40256 32071
L40274 32109
L40274 32146
L40256 32203
L40031 32428
L40274 32428
" />
<text x="39750" y="30446.9"
textLength="1286.86" font-size="524.934" lengthAdjust="spacingAndGlyphs"
text-anchor="middle" opacity="0">SW1</text>
<path d="M39225 30409
L39281 30428
L39375 30428
L39412 30409
L39431 30390
L39450 30353
L39450 30315
L39431 30278
L39412 30259
L39375 30240
L39300 30221
L39262 30203
L39243 30184
L39225 30146
L39225 30109
L39243 30071
L39262 30053
L39300 30034
L39393 30034
L39450 30053
" />
<path d="M39581 30034
L39675 30428
L39750 30146
L39824 30428
L39918 30034
" />
<path d="M40274 30428
L40049 30428
" />
<path d="M40162 30428
L40162 30034
L40124 30090
L40087 30128
L40049 30146
" />
<g transform="rotate(-90 38000 60000)">
<text x="38000" y="60196.9"
textLength="855.662" font-size="524.934" lengthAdjust="spacingAndGlyphs"
text-anchor="middle" opacity="0">D4</text>
</g>
<path d="M38178 60290
L37784 60290
L37784 60196
L37803 60140
L37840 60103
L37878 60084
L37953 60065
L38009 60065
L38084 60084
L38121 60103
L38159 60140
L38178 60196
L38178 60290
" />
<path d="M37915 59728
L38178 59728
" />
<path d="M37765 59821
L38046 59915
L38046 59671
" />
<g transform="rotate(-90 46250 37000)">
<text x="46250" y="37196.9"
textLength="855.662" font-size="524.934" lengthAdjust="spacingAndGlyphs"
text-anchor="middle" opacity="0">R5</text>
</g>
<path d="M46428 37065
L46240 37196
" />
<path d="M46428 37290
L46034 37290
L46034 37140
L46053 37103
L46071 37084
L46109 37065
L46165 37065
L46203 37084
L46221 37103
L46240 37140
L46240 37290
" />
<path d="M46034 36709
L46034 36896
L46221 36915
L46203 36896
L46184 36859
L46184 36765
L46203 36728
L46221 36709
L46259 36690
L46353 36690
L46390 36709
L46409 36728
L46428 36765
L46428 36859
L46409 36896
L46390 36915
" />
<text x="28250" y="51446.9"
textLength="1286.86" font-size="524.934" lengthAdjust="spacingAndGlyphs"
text-anchor="middle" opacity="0">SW5</text>
<path d="M27725 51409
L27781 51428
L27875 51428
L27912 51409
L27931 51390
L27950 51353
L27950 51315
L27931 51278
L27912 51259
L27875 51240
L27800 51221
L27762 51203
L27743 51184
L27725 51146
L27725 51109
L27743 51071
L27762 51053
L27800 51034
L27893 51034
L27950 51053
" />
<path d="M28081 51034
L28175 51428
L28250 51146
L28324 51428
L28418 51034
" />
<path d="M28756 51034
L28568 51034
L28549 51221
L28568 51203
L28606 51184
L28699 51184
L28737 51203
L28756 51221
L28774 51259
L28774 51353
L28756 51390
L28737 51409
L28699 51428
L28606 51428
L28568 51409
L28549 51390
" />
<text x="35000" y="51446.9"
textLength="1286.86" font-size="524.934" lengthAdjust="spacingAndGlyphs"
text-anchor="middle" opacity="0">SW4</text>
<path d="M34475 51409
L34531 51428
L34625 51428
L34662 51409
L34681 51390
L34700 51353
L34700 51315
L34681 51278
L34662 51259
L34625 51240
L34550 51221
L34512 51203
L34493 51184
L34475 51146
L34475 51109
L34493 51071
L34512 51053
L34550 51034
L34643 51034
L34700 51053
" />
<path d="M34831 51034
L34925 51428
L35000 51146
L35074 51428
L35168 51034
" />
<path d="M35487 51165
L35487 51428
" />
<path d="M35393 51015
L35299 51296
L35543 51296
" />
<text x="41750" y="51446.9"
textLength="1286.86" font-size="524.934" lengthAdjust="spacingAndGlyphs"
text-anchor="middle" opacity="0">SW3</text>
<path d="M41225 51409
L41281 51428
L41375 51428
L41412 51409
L41431 51390
L41450 51353
L41450 51315
L41431 51278
L41412 51259
L41375 51240
L41300 51221
L41262 51203
L41243 51184
L41225 51146
L41225 51109
L41243 51071
L41262 51053
L41300 51034
L41393 51034
L41450 51053
" />
<path d="M41581 51034
L41675 51428
L41750 51146
L41824 51428
L41918 51034
" />
<path d="M42031 51034
L42274 51034
L42143 51184
L42199 51184
L42237 51203
L42256 51221
L42274 51259
L42274 51353
L42256 51390
L42237 51409
L42199 51428
L42087 51428
L42049 51409
L42031 51390
" />
<text x="30350" y="50496.9"
textLength="855.662" font-size="524.934" lengthAdjust="spacingAndGlyphs"
text-anchor="middle" opacity="0">R9</text>
<path d="M30284 50478
L30153 50290
" />
<path d="M30059 50478
L30059 50084
L30209 50084
L30246 50103
L30265 50121
L30284 50159
L30284 50215
L30265 50253
L30246 50271
L30209 50290
L30059 50290
" />
<path d="M30471 50478
L30546 50478
L30584 50459
L30603 50440
L30640 50384
L30659 50309
L30659 50159
L30640 50121
L30621 50103
L30584 50084
L30509 50084
L30471 50103
L30453 50121
L30434 50159
L30434 50253
L30453 50290
L30471 50309
L30509 50328
L30584 50328
L30621 50309
L30640 50290
L30659 50253
" />
<text x="37100" y="50496.9"
textLength="855.662" font-size="524.934" lengthAdjust="spacingAndGlyphs"
text-anchor="middle" opacity="0">R8</text>
<path d="M37034 50478
L36903 50290
" />
<path d="M36809 50478
L36809 50084
L36959 50084
L36996 50103
L37015 50121
L37034 50159
L37034 50215
L37015 50253
L36996 50271
L36959 50290
L36809 50290
" />
<path d="M37259 50253
L37221 50234
L37203 50215
L37184 50178
L37184 50159
L37203 50121
L37221 50103
L37259 50084
L37334 50084
L37371 50103
L37390 50121
L37409 50159
L37409 50178
L37390 50215
L37371 50234
L37334 50253
L37259 50253
L37221 50271
L37203 50290
L37184 50328
L37184 50403
L37203 50440
L37221 50459
L37259 50478
L37334 50478
L37371 50459
L37390 50440
L37409 50403
L37409 50328
L37390 50290
L37371 50271
L37334 50253
" />
<text x="43850" y="50496.9"
textLength="855.662" font-size="524.934" lengthAdjust="spacingAndGlyphs"
text-anchor="middle" opacity="0">R7</text>
<path d="M43784 50478
L43653 50290
" />
<path d="M43559 50478
L43559 50084
L43709 50084
L43746 50103
L43765 50121
L43784 50159
L43784 50215
L43765 50253
L43746 50271
L43709 50290
L43559 50290
" />
<path d="M43915 50084
L44178 50084
L44009 50478
" />
<g transform="rotate(-90 48750 36500)">
<text x="48750" y="36696.9"
textLength="855.662" font-size="524.934" lengthAdjust="spacingAndGlyphs"
text-anchor="middle" opacity="0">R4</text>
</g>
<path d="M48928 36565
L48740 36696
" />
<path d="M48928 36790
L48534 36790
L48534 36640
L48553 36603
L48571 36584
L48609 36565
L48665 36565
L48703 36584
L48721 36603
L48740 36640
L48740 36790
" />
<path d="M48665 36228
L48928 36228
" />
<path d="M48515 36321
L48796 36415
L48796 36171
" />
<text x="50250" y="46246.9"
textLength="1230.61" font-size="524.934" lengthAdjust="spacingAndGlyphs"
text-anchor="middle" opacity="0">D11</text>
<path d="M49771 46228
L49771 45834
L49865 45834
L49921 45853
L49959 45890
L49978 45928
L49996 46003
L49996 46059
L49978 46134
L49959 46171
L49921 46209
L49865 46228
L49771 46228
" />
<path d="M50371 46228
L50146 46228
" />
<path d="M50259 46228
L50259 45834
L50221 45890
L50184 45928
L50146 45946
" />
<path d="M50746 46228
L50521 46228
" />
<path d="M50634 46228
L50634 45834
L50596 45890
L50559 45928
L50521 45946
" />
<g transform="rotate(-90 48500 59250)">
<text x="48500" y="59446.9"
textLength="855.662" font-size="524.934" lengthAdjust="spacingAndGlyphs"
text-anchor="middle" opacity="0">D2</text>
</g>
<path d="M48678 59540
L48284 59540
L48284 59446
L48303 59390
L48340 59353
L48378 59334
L48453 59315
L48509 59315
L48584 59334
L48621 59353
L48659 59390
L48678 59446
L48678 59540
" />
<path d="M48321 59165
L48303 59146
L48284 59109
L48284 59015
L48303 58978
L48321 58959
L48359 58940
L48396 58940
L48453 58959
L48678 59184
L48678 58940
" />
<g transform="rotate(90 27500 29750)">
<text x="27500" y="29946.9"
textLength="855.662" font-size="524.934" lengthAdjust="spacingAndGlyphs"
text-anchor="middle" opacity="0">D1</text>
</g>
<path d="M27321 29459
L27715 29459
L27715 29553
L27696 29609
L27659 29646
L27621 29665
L27546 29684
L27490 29684
L27415 29665
L27378 29646
L27340 29609
L27321 29553
L27321 29459
" />
<path d="M27321 30059
L27321 29834
" />
<path d="M27321 29946
L27715 29946
L27659 29909
L27621 29871
L27603 29834
" />
<g transform="rotate(-90 44000 33250)">
<text x="44000" y="33446.9"
textLength="1230.61" font-size="524.934" lengthAdjust="spacingAndGlyphs"
text-anchor="middle" opacity="0">C13</text>
</g>
<path d="M44140 33503
L44159 33521
L44178 33578
L44178 33615
L44159 33671
L44121 33709
L44084 33728
L44009 33746
L43953 33746
L43878 33728
L43840 33709
L43803 33671
L43784 33615
L43784 33578
L43803 33521
L43821 33503
" />
<path d="M44178 33128
L44178 33353
" />
<path d="M44178 33240
L43784 33240
L43840 33278
L43878 33315
L43896 33353
" />
<path d="M43784 32996
L43784 32753
L43934 32884
L43934 32828
L43953 32790
L43971 32771
L44009 32753
L44103 32753
L44140 32771
L44159 32790
L44178 32828
L44178 32940
L44159 32978
L44140 32996
" />
<g transform="rotate(-90 43500 28250)">
<text x="43500" y="28446.9"
textLength="1230.61" font-size="524.934" lengthAdjust="spacingAndGlyphs"
text-anchor="middle" opacity="0">C12</text>
</g>
<path d="M43640 28503
L43659 28521
L43678 28578
L43678 28615
L43659 28671
L43621 28709
L43584 28728
L43509 28746
L43453 28746
L43378 28728
L43340 28709
L43303 28671
L43284 28615
L43284 28578
L43303 28521
L43321 28503
" />
<path d="M43678 28128
L43678 28353
" />
<path d="M43678 28240
L43284 28240
L43340 28278
L43378 28315
L43396 28353
" />
<path d="M43321 27978
L43303 27959
L43284 27921
L43284 27828
L43303 27790
L43321 27771
L43359 27753
L43396 27753
L43453 27771
L43678 27996
L43678 27753
" />
<g transform="rotate(-90 37000 36500)">
<text x="37000" y="36696.9"
textLength="855.662" font-size="524.934" lengthAdjust="spacingAndGlyphs"
text-anchor="middle" opacity="0">C8</text>
</g>
<path d="M37140 36565
L37159 36584
L37178 36640
L37178 36678
L37159 36734
L37121 36771
L37084 36790
L37009 36809
L36953 36809
L36878 36790
L36840 36771
L36803 36734
L36784 36678
L36784 36640
L36803 36584
L36821 36565
" />
<path d="M36953 36340
L36934 36378
L36915 36396
L36878 36415
L36859 36415
L36821 36396
L36803 36378
L36784 36340
L36784 36265
L36803 36228
L36821 36209
L36859 36190
L36878 36190
L36915 36209
L36934 36228
L36953 36265
L36953 36340
L36971 36378
L36990 36396
L37028 36415
L37103 36415
L37140 36396
L37159 36378
L37178 36340
L37178 36265
L37159 36228
L37140 36209
L37103 36190
L37028 36190
L36990 36209
L36971 36228
L36953 36265
" />
<g transform="rotate(-90 29250 33000)">
<text x="29250" y="33196.9"
textLength="855.662" font-size="524.934" lengthAdjust="spacingAndGlyphs"
text-anchor="middle" opacity="0">C7</text>
</g>
<path d="M29390 33065
L29409 33084
L29428 33140
L29428 33178
L29409 33234
L29371 33271
L29334 33290
L29259 33309
L29203 33309
L29128 33290
L29090 33271
L29053 33234
L29034 33178
L29034 33140
L29053 33084
L29071 33065
" />
<path d="M29034 32934
L29034 32671
L29428 32840
" />
<text x="31500" y="36196.9"
textLength="855.662" font-size="524.934" lengthAdjust="spacingAndGlyphs"
text-anchor="middle" opacity="0">C6</text>
<path d="M31434 36140
L31415 36159
L31359 36178
L31321 36178
L31265 36159
L31228 36121
L31209 36084
L31190 36009
L31190 35953
L31209 35878
L31228 35840
L31265 35803
L31321 35784
L31359 35784
L31415 35803
L31434 35821
" />
<path d="M31771 35784
L31696 35784
L31659 35803
L31640 35821
L31603 35878
L31584 35953
L31584 36103
L31603 36140
L31621 36159
L31659 36178
L31734 36178
L31771 36159
L31790 36140
L31809 36103
L31809 36009
L31790 35971
L31771 35953
L31734 35934
L31659 35934
L31621 35953
L31603 35971
L31584 36009
" />
<text x="34750" y="35446.9"
textLength="855.662" font-size="524.934" lengthAdjust="spacingAndGlyphs"
text-anchor="middle" opacity="0">C5</text>
<path d="M34684 35390
L34665 35409
L34609 35428
L34571 35428
L34515 35409
L34478 35371
L34459 35334
L34440 35259
L34440 35203
L34459 35128
L34478 35090
L34515 35053
L34571 35034
L34609 35034
L34665 35053
L34684 35071
" />
<path d="M35040 35034
L34853 35034
L34834 35221
L34853 35203
L34890 35184
L34984 35184
L35021 35203
L35040 35221
L35059 35259
L35059 35353
L35040 35390
L35021 35409
L34984 35428
L34890 35428
L34853 35409
L34834 35390
" />
<g transform="rotate(-90 32250 36750)">
<text x="32250" y="36946.9"
textLength="855.662" font-size="524.934" lengthAdjust="spacingAndGlyphs"
text-anchor="middle" opacity="0">C4</text>
</g>
<path d="M32390 36815
L32409 36834
L32428 36890
L32428 36928
L32409 36984
L32371 37021
L32334 37040
L32259 37059
L32203 37059
L32128 37040
L32090 37021
L32053 36984
L32034 36928
L32034 36890
L32053 36834
L32071 36815
" />
<path d="M32165 36478
L32428 36478
" />
<path d="M32015 36571
L32296 36665
L32296 36421
" />
<text x="29000" y="30696.9"
textLength="855.662" font-size="524.934" lengthAdjust="spacingAndGlyphs"
text-anchor="middle" opacity="0">C3</text>
<path d="M28934 30640
L28915 30659
L28859 30678
L28821 30678
L28765 30659
L28728 30621
L28709 30584
L28690 30509
L28690 30453
L28709 30378
L28728 30340
L28765 30303
L28821 30284
L28859 30284
L28915 30303
L28934 30321
" />
<path d="M29065 30284
L29309 30284
L29178 30434
L29234 30434
L29271 30453
L29290 30471
L29309 30509
L29309 30603
L29290 30640
L29271 30659
L29234 30678
L29121 30678
L29084 30659
L29065 30640
" />
<g >
</g>
</g> 
</svg>
