%FSLAX45Y45*%
G04 Gerber Fmt 4.5, Leading zero omitted, Abs format (unit mm)*
G04 Created by KiCad (PCBNEW (5.1.6)-1) date 2021-06-16 15:59:07*
%MOMM*%
%LPD*%
G01*
G04 APERTURE LIST*
%TA.AperFunction,Profile*%
%ADD10C,0.050000*%
%TD*%
%TA.AperFunction,Profile*%
%ADD11C,0.200000*%
%TD*%
%ADD12C,0.200000*%
%ADD13C,0.300000*%
G04 APERTURE END LIST*
D10*
X8428500Y-14605000D02*
G75*
G03*
X8428500Y-14605000I-110000J0D01*
G01*
X14270500Y-11049000D02*
G75*
G03*
X14270500Y-11049000I-110000J0D01*
G01*
X14270500Y-15557500D02*
G75*
G03*
X14270500Y-15557500I-110000J0D01*
G01*
X4237500Y-8001000D02*
G75*
G03*
X4237500Y-8001000I-110000J0D01*
G01*
X10651000Y-8572500D02*
G75*
G03*
X10651000Y-8572500I-110000J0D01*
G01*
X6523500Y-9969500D02*
G75*
G03*
X6523500Y-9969500I-110000J0D01*
G01*
X4301000Y-13462000D02*
G75*
G03*
X4301000Y-13462000I-110000J0D01*
G01*
X8428500Y-12382500D02*
G75*
G03*
X8428500Y-12382500I-110000J0D01*
G01*
X6015500Y-15557500D02*
G75*
G03*
X6015500Y-15557500I-110000J0D01*
G01*
D11*
X6159500Y-15875000D02*
X6159500Y-14872000D01*
X11938000Y-15875000D02*
X11938000Y-14872000D01*
X14500000Y-15875000D02*
X11938000Y-15875000D01*
X14500000Y-15875000D02*
X14500000Y-14872000D01*
X3800000Y-15875000D02*
X6159500Y-15875000D01*
X9779000Y-14872000D02*
X11938000Y-14872000D01*
X9779000Y-15875000D02*
X9779000Y-14872000D01*
X9779000Y-15875000D02*
X8509000Y-15875000D01*
X8509000Y-15875000D02*
X8509000Y-14872000D01*
X13779500Y-10541000D02*
X13779500Y-6872000D01*
X14500000Y-10541000D02*
X13779500Y-10541000D01*
X3800000Y-6872000D02*
X13779500Y-6872000D01*
X6159500Y-14872000D02*
X8509000Y-14872000D01*
X14500000Y-10541000D02*
X14500000Y-14872000D01*
X3800000Y-6872000D02*
X3800000Y-15875000D01*
D12*
X9057500Y-13234500D02*
X9242500Y-13419500D01*
X9242500Y-13234500D02*
X9057500Y-13419500D01*
X9057500Y-14139500D02*
X9242500Y-14324500D01*
X9242500Y-14139500D02*
X9057500Y-14324500D01*
X10766000Y-13234500D02*
X10951000Y-13419500D01*
X10951000Y-13234500D02*
X10766000Y-13419500D01*
X10766000Y-14139500D02*
X10951000Y-14324500D01*
X10951000Y-14139500D02*
X10766000Y-14324500D01*
X7337000Y-13234500D02*
X7522000Y-13419500D01*
X7522000Y-13234500D02*
X7337000Y-13419500D01*
X7337000Y-14139500D02*
X7522000Y-14324500D01*
X7522000Y-14139500D02*
X7337000Y-14324500D01*
X6260000Y-9172000D02*
G75*
G03*
X6260000Y-9172000I-160000J0D01*
G01*
X6260000Y-12572000D02*
G75*
G03*
X6260000Y-12572000I-160000J0D01*
G01*
D13*
X4076428Y-16350714D02*
X4076428Y-16050714D01*
X4147857Y-16050714D01*
X4190714Y-16065000D01*
X4219286Y-16093571D01*
X4233571Y-16122143D01*
X4247857Y-16179286D01*
X4247857Y-16222143D01*
X4233571Y-16279286D01*
X4219286Y-16307857D01*
X4190714Y-16336429D01*
X4147857Y-16350714D01*
X4076428Y-16350714D01*
X4376428Y-16350714D02*
X4376428Y-16150714D01*
X4376428Y-16207857D02*
X4390714Y-16179286D01*
X4405000Y-16165000D01*
X4433571Y-16150714D01*
X4462143Y-16150714D01*
X4562143Y-16350714D02*
X4562143Y-16150714D01*
X4562143Y-16050714D02*
X4547857Y-16065000D01*
X4562143Y-16079286D01*
X4576428Y-16065000D01*
X4562143Y-16050714D01*
X4562143Y-16079286D01*
X4747857Y-16350714D02*
X4719286Y-16336429D01*
X4705000Y-16307857D01*
X4705000Y-16050714D01*
X4905000Y-16350714D02*
X4876428Y-16336429D01*
X4862143Y-16307857D01*
X4862143Y-16050714D01*
X5247857Y-16350714D02*
X5247857Y-16050714D01*
X5347857Y-16265000D01*
X5447857Y-16050714D01*
X5447857Y-16350714D01*
X5719286Y-16350714D02*
X5719286Y-16193571D01*
X5705000Y-16165000D01*
X5676428Y-16150714D01*
X5619286Y-16150714D01*
X5590714Y-16165000D01*
X5719286Y-16336429D02*
X5690714Y-16350714D01*
X5619286Y-16350714D01*
X5590714Y-16336429D01*
X5576428Y-16307857D01*
X5576428Y-16279286D01*
X5590714Y-16250714D01*
X5619286Y-16236429D01*
X5690714Y-16236429D01*
X5719286Y-16222143D01*
X5862143Y-16150714D02*
X5862143Y-16450714D01*
X5862143Y-16165000D02*
X5890714Y-16150714D01*
X5947857Y-16150714D01*
X5976428Y-16165000D01*
X5990714Y-16179286D01*
X6005000Y-16207857D01*
X6005000Y-16293571D01*
X5990714Y-16322143D01*
X5976428Y-16336429D01*
X5947857Y-16350714D01*
X5890714Y-16350714D01*
X5862143Y-16336429D01*
X6133571Y-16322143D02*
X6147857Y-16336429D01*
X6133571Y-16350714D01*
X6119286Y-16336429D01*
X6133571Y-16322143D01*
X6133571Y-16350714D01*
X6133571Y-16165000D02*
X6147857Y-16179286D01*
X6133571Y-16193571D01*
X6119286Y-16179286D01*
X6133571Y-16165000D01*
X6133571Y-16193571D01*
X3605000Y-16752500D02*
X3790000Y-16937500D01*
X3790000Y-16752500D02*
X3605000Y-16937500D01*
X4233571Y-16980714D02*
X4062143Y-16980714D01*
X4147857Y-16980714D02*
X4147857Y-16680714D01*
X4119286Y-16723571D01*
X4090714Y-16752143D01*
X4062143Y-16766429D01*
X4362143Y-16952143D02*
X4376428Y-16966429D01*
X4362143Y-16980714D01*
X4347857Y-16966429D01*
X4362143Y-16952143D01*
X4362143Y-16980714D01*
X4547857Y-16809286D02*
X4519286Y-16795000D01*
X4505000Y-16780714D01*
X4490714Y-16752143D01*
X4490714Y-16737857D01*
X4505000Y-16709286D01*
X4519286Y-16695000D01*
X4547857Y-16680714D01*
X4605000Y-16680714D01*
X4633571Y-16695000D01*
X4647857Y-16709286D01*
X4662143Y-16737857D01*
X4662143Y-16752143D01*
X4647857Y-16780714D01*
X4633571Y-16795000D01*
X4605000Y-16809286D01*
X4547857Y-16809286D01*
X4519286Y-16823572D01*
X4505000Y-16837857D01*
X4490714Y-16866429D01*
X4490714Y-16923572D01*
X4505000Y-16952143D01*
X4519286Y-16966429D01*
X4547857Y-16980714D01*
X4605000Y-16980714D01*
X4633571Y-16966429D01*
X4647857Y-16952143D01*
X4662143Y-16923572D01*
X4662143Y-16866429D01*
X4647857Y-16837857D01*
X4633571Y-16823572D01*
X4605000Y-16809286D01*
X4933571Y-16680714D02*
X4790714Y-16680714D01*
X4776428Y-16823572D01*
X4790714Y-16809286D01*
X4819286Y-16795000D01*
X4890714Y-16795000D01*
X4919286Y-16809286D01*
X4933571Y-16823572D01*
X4947857Y-16852143D01*
X4947857Y-16923572D01*
X4933571Y-16952143D01*
X4919286Y-16966429D01*
X4890714Y-16980714D01*
X4819286Y-16980714D01*
X4790714Y-16966429D01*
X4776428Y-16952143D01*
X5076428Y-16980714D02*
X5076428Y-16780714D01*
X5076428Y-16809286D02*
X5090714Y-16795000D01*
X5119286Y-16780714D01*
X5162143Y-16780714D01*
X5190714Y-16795000D01*
X5205000Y-16823572D01*
X5205000Y-16980714D01*
X5205000Y-16823572D02*
X5219286Y-16795000D01*
X5247857Y-16780714D01*
X5290714Y-16780714D01*
X5319286Y-16795000D01*
X5333571Y-16823572D01*
X5333571Y-16980714D01*
X5476428Y-16980714D02*
X5476428Y-16780714D01*
X5476428Y-16809286D02*
X5490714Y-16795000D01*
X5519286Y-16780714D01*
X5562143Y-16780714D01*
X5590714Y-16795000D01*
X5605000Y-16823572D01*
X5605000Y-16980714D01*
X5605000Y-16823572D02*
X5619286Y-16795000D01*
X5647857Y-16780714D01*
X5690714Y-16780714D01*
X5719286Y-16795000D01*
X5733571Y-16823572D01*
X5733571Y-16980714D01*
X6319286Y-16666429D02*
X6062143Y-17052143D01*
X6705000Y-16680714D02*
X6733571Y-16680714D01*
X6762143Y-16695000D01*
X6776428Y-16709286D01*
X6790714Y-16737857D01*
X6805000Y-16795000D01*
X6805000Y-16866429D01*
X6790714Y-16923572D01*
X6776428Y-16952143D01*
X6762143Y-16966429D01*
X6733571Y-16980714D01*
X6705000Y-16980714D01*
X6676428Y-16966429D01*
X6662143Y-16952143D01*
X6647857Y-16923572D01*
X6633571Y-16866429D01*
X6633571Y-16795000D01*
X6647857Y-16737857D01*
X6662143Y-16709286D01*
X6676428Y-16695000D01*
X6705000Y-16680714D01*
X6933571Y-16952143D02*
X6947857Y-16966429D01*
X6933571Y-16980714D01*
X6919286Y-16966429D01*
X6933571Y-16952143D01*
X6933571Y-16980714D01*
X7133571Y-16680714D02*
X7162143Y-16680714D01*
X7190714Y-16695000D01*
X7205000Y-16709286D01*
X7219286Y-16737857D01*
X7233571Y-16795000D01*
X7233571Y-16866429D01*
X7219286Y-16923572D01*
X7205000Y-16952143D01*
X7190714Y-16966429D01*
X7162143Y-16980714D01*
X7133571Y-16980714D01*
X7105000Y-16966429D01*
X7090714Y-16952143D01*
X7076428Y-16923572D01*
X7062143Y-16866429D01*
X7062143Y-16795000D01*
X7076428Y-16737857D01*
X7090714Y-16709286D01*
X7105000Y-16695000D01*
X7133571Y-16680714D01*
X7333571Y-16680714D02*
X7533571Y-16680714D01*
X7405000Y-16980714D01*
X7619286Y-16680714D02*
X7805000Y-16680714D01*
X7705000Y-16795000D01*
X7747857Y-16795000D01*
X7776428Y-16809286D01*
X7790714Y-16823572D01*
X7805000Y-16852143D01*
X7805000Y-16923572D01*
X7790714Y-16952143D01*
X7776428Y-16966429D01*
X7747857Y-16980714D01*
X7662143Y-16980714D01*
X7633571Y-16966429D01*
X7619286Y-16952143D01*
X7919286Y-16680714D02*
X7919286Y-16737857D01*
X8033571Y-16680714D02*
X8033571Y-16737857D01*
X8476428Y-17095000D02*
X8462143Y-17080714D01*
X8433571Y-17037857D01*
X8419286Y-17009286D01*
X8405000Y-16966429D01*
X8390714Y-16895000D01*
X8390714Y-16837857D01*
X8405000Y-16766429D01*
X8419286Y-16723571D01*
X8433571Y-16695000D01*
X8462143Y-16652143D01*
X8476428Y-16637857D01*
X8719286Y-16680714D02*
X8662143Y-16680714D01*
X8633571Y-16695000D01*
X8619286Y-16709286D01*
X8590714Y-16752143D01*
X8576428Y-16809286D01*
X8576428Y-16923572D01*
X8590714Y-16952143D01*
X8605000Y-16966429D01*
X8633571Y-16980714D01*
X8690714Y-16980714D01*
X8719286Y-16966429D01*
X8733571Y-16952143D01*
X8747857Y-16923572D01*
X8747857Y-16852143D01*
X8733571Y-16823572D01*
X8719286Y-16809286D01*
X8690714Y-16795000D01*
X8633571Y-16795000D01*
X8605000Y-16809286D01*
X8590714Y-16823572D01*
X8576428Y-16852143D01*
X9105000Y-16980714D02*
X9105000Y-16680714D01*
X9233571Y-16980714D02*
X9233571Y-16823572D01*
X9219286Y-16795000D01*
X9190714Y-16780714D01*
X9147857Y-16780714D01*
X9119286Y-16795000D01*
X9105000Y-16809286D01*
X9419286Y-16980714D02*
X9390714Y-16966429D01*
X9376428Y-16952143D01*
X9362143Y-16923572D01*
X9362143Y-16837857D01*
X9376428Y-16809286D01*
X9390714Y-16795000D01*
X9419286Y-16780714D01*
X9462143Y-16780714D01*
X9490714Y-16795000D01*
X9505000Y-16809286D01*
X9519286Y-16837857D01*
X9519286Y-16923572D01*
X9505000Y-16952143D01*
X9490714Y-16966429D01*
X9462143Y-16980714D01*
X9419286Y-16980714D01*
X9690714Y-16980714D02*
X9662143Y-16966429D01*
X9647857Y-16937857D01*
X9647857Y-16680714D01*
X9919286Y-16966429D02*
X9890714Y-16980714D01*
X9833571Y-16980714D01*
X9805000Y-16966429D01*
X9790714Y-16937857D01*
X9790714Y-16823572D01*
X9805000Y-16795000D01*
X9833571Y-16780714D01*
X9890714Y-16780714D01*
X9919286Y-16795000D01*
X9933571Y-16823572D01*
X9933571Y-16852143D01*
X9790714Y-16880714D01*
X10047857Y-16966429D02*
X10076428Y-16980714D01*
X10133571Y-16980714D01*
X10162143Y-16966429D01*
X10176428Y-16937857D01*
X10176428Y-16923572D01*
X10162143Y-16895000D01*
X10133571Y-16880714D01*
X10090714Y-16880714D01*
X10062143Y-16866429D01*
X10047857Y-16837857D01*
X10047857Y-16823572D01*
X10062143Y-16795000D01*
X10090714Y-16780714D01*
X10133571Y-16780714D01*
X10162143Y-16795000D01*
X10276428Y-17095000D02*
X10290714Y-17080714D01*
X10319286Y-17037857D01*
X10333571Y-17009286D01*
X10347857Y-16966429D01*
X10362143Y-16895000D01*
X10362143Y-16837857D01*
X10347857Y-16766429D01*
X10333571Y-16723571D01*
X10319286Y-16695000D01*
X10290714Y-16652143D01*
X10276428Y-16637857D01*
X10819286Y-17095000D02*
X10805000Y-17080714D01*
X10776428Y-17037857D01*
X10762143Y-17009286D01*
X10747857Y-16966429D01*
X10733571Y-16895000D01*
X10733571Y-16837857D01*
X10747857Y-16766429D01*
X10762143Y-16723571D01*
X10776428Y-16695000D01*
X10805000Y-16652143D01*
X10819286Y-16637857D01*
X10933571Y-16780714D02*
X10933571Y-16980714D01*
X10933571Y-16809286D02*
X10947857Y-16795000D01*
X10976428Y-16780714D01*
X11019286Y-16780714D01*
X11047857Y-16795000D01*
X11062143Y-16823572D01*
X11062143Y-16980714D01*
X11247857Y-16980714D02*
X11219286Y-16966429D01*
X11205000Y-16952143D01*
X11190714Y-16923572D01*
X11190714Y-16837857D01*
X11205000Y-16809286D01*
X11219286Y-16795000D01*
X11247857Y-16780714D01*
X11290714Y-16780714D01*
X11319286Y-16795000D01*
X11333571Y-16809286D01*
X11347857Y-16837857D01*
X11347857Y-16923572D01*
X11333571Y-16952143D01*
X11319286Y-16966429D01*
X11290714Y-16980714D01*
X11247857Y-16980714D01*
X11433571Y-16780714D02*
X11547857Y-16780714D01*
X11476428Y-16680714D02*
X11476428Y-16937857D01*
X11490714Y-16966429D01*
X11519286Y-16980714D01*
X11547857Y-16980714D01*
X11876428Y-16780714D02*
X11876428Y-17080714D01*
X11876428Y-16795000D02*
X11905000Y-16780714D01*
X11962143Y-16780714D01*
X11990714Y-16795000D01*
X12005000Y-16809286D01*
X12019286Y-16837857D01*
X12019286Y-16923572D01*
X12005000Y-16952143D01*
X11990714Y-16966429D01*
X11962143Y-16980714D01*
X11905000Y-16980714D01*
X11876428Y-16966429D01*
X12190714Y-16980714D02*
X12162143Y-16966429D01*
X12147857Y-16937857D01*
X12147857Y-16680714D01*
X12433571Y-16980714D02*
X12433571Y-16823572D01*
X12419286Y-16795000D01*
X12390714Y-16780714D01*
X12333571Y-16780714D01*
X12305000Y-16795000D01*
X12433571Y-16966429D02*
X12405000Y-16980714D01*
X12333571Y-16980714D01*
X12305000Y-16966429D01*
X12290714Y-16937857D01*
X12290714Y-16909286D01*
X12305000Y-16880714D01*
X12333571Y-16866429D01*
X12405000Y-16866429D01*
X12433571Y-16852143D01*
X12533571Y-16780714D02*
X12647857Y-16780714D01*
X12576428Y-16680714D02*
X12576428Y-16937857D01*
X12590714Y-16966429D01*
X12619286Y-16980714D01*
X12647857Y-16980714D01*
X12862143Y-16966429D02*
X12833571Y-16980714D01*
X12776428Y-16980714D01*
X12747857Y-16966429D01*
X12733571Y-16937857D01*
X12733571Y-16823572D01*
X12747857Y-16795000D01*
X12776428Y-16780714D01*
X12833571Y-16780714D01*
X12862143Y-16795000D01*
X12876428Y-16823572D01*
X12876428Y-16852143D01*
X12733571Y-16880714D01*
X13133571Y-16980714D02*
X13133571Y-16680714D01*
X13133571Y-16966429D02*
X13105000Y-16980714D01*
X13047857Y-16980714D01*
X13019286Y-16966429D01*
X13005000Y-16952143D01*
X12990714Y-16923572D01*
X12990714Y-16837857D01*
X13005000Y-16809286D01*
X13019286Y-16795000D01*
X13047857Y-16780714D01*
X13105000Y-16780714D01*
X13133571Y-16795000D01*
X13247857Y-17095000D02*
X13262143Y-17080714D01*
X13290714Y-17037857D01*
X13305000Y-17009286D01*
X13319286Y-16966429D01*
X13333571Y-16895000D01*
X13333571Y-16837857D01*
X13319286Y-16766429D01*
X13305000Y-16723571D01*
X13290714Y-16695000D01*
X13262143Y-16652143D01*
X13247857Y-16637857D01*
X3790000Y-17241000D02*
G75*
G03*
X3790000Y-17241000I-160000J0D01*
G01*
X4047857Y-17076714D02*
X4233571Y-17076714D01*
X4133571Y-17191000D01*
X4176428Y-17191000D01*
X4205000Y-17205286D01*
X4219286Y-17219572D01*
X4233571Y-17248143D01*
X4233571Y-17319572D01*
X4219286Y-17348143D01*
X4205000Y-17362429D01*
X4176428Y-17376714D01*
X4090714Y-17376714D01*
X4062143Y-17362429D01*
X4047857Y-17348143D01*
X4362143Y-17348143D02*
X4376428Y-17362429D01*
X4362143Y-17376714D01*
X4347857Y-17362429D01*
X4362143Y-17348143D01*
X4362143Y-17376714D01*
X4490714Y-17105286D02*
X4505000Y-17091000D01*
X4533571Y-17076714D01*
X4605000Y-17076714D01*
X4633571Y-17091000D01*
X4647857Y-17105286D01*
X4662143Y-17133857D01*
X4662143Y-17162429D01*
X4647857Y-17205286D01*
X4476428Y-17376714D01*
X4662143Y-17376714D01*
X4847857Y-17076714D02*
X4876428Y-17076714D01*
X4905000Y-17091000D01*
X4919286Y-17105286D01*
X4933571Y-17133857D01*
X4947857Y-17191000D01*
X4947857Y-17262429D01*
X4933571Y-17319572D01*
X4919286Y-17348143D01*
X4905000Y-17362429D01*
X4876428Y-17376714D01*
X4847857Y-17376714D01*
X4819286Y-17362429D01*
X4805000Y-17348143D01*
X4790714Y-17319572D01*
X4776428Y-17262429D01*
X4776428Y-17191000D01*
X4790714Y-17133857D01*
X4805000Y-17105286D01*
X4819286Y-17091000D01*
X4847857Y-17076714D01*
X5076428Y-17376714D02*
X5076428Y-17176714D01*
X5076428Y-17205286D02*
X5090714Y-17191000D01*
X5119286Y-17176714D01*
X5162143Y-17176714D01*
X5190714Y-17191000D01*
X5205000Y-17219572D01*
X5205000Y-17376714D01*
X5205000Y-17219572D02*
X5219286Y-17191000D01*
X5247857Y-17176714D01*
X5290714Y-17176714D01*
X5319286Y-17191000D01*
X5333571Y-17219572D01*
X5333571Y-17376714D01*
X5476428Y-17376714D02*
X5476428Y-17176714D01*
X5476428Y-17205286D02*
X5490714Y-17191000D01*
X5519286Y-17176714D01*
X5562143Y-17176714D01*
X5590714Y-17191000D01*
X5605000Y-17219572D01*
X5605000Y-17376714D01*
X5605000Y-17219572D02*
X5619286Y-17191000D01*
X5647857Y-17176714D01*
X5690714Y-17176714D01*
X5719286Y-17191000D01*
X5733571Y-17219572D01*
X5733571Y-17376714D01*
X6319286Y-17062429D02*
X6062143Y-17448143D01*
X6705000Y-17076714D02*
X6733571Y-17076714D01*
X6762143Y-17091000D01*
X6776428Y-17105286D01*
X6790714Y-17133857D01*
X6805000Y-17191000D01*
X6805000Y-17262429D01*
X6790714Y-17319572D01*
X6776428Y-17348143D01*
X6762143Y-17362429D01*
X6733571Y-17376714D01*
X6705000Y-17376714D01*
X6676428Y-17362429D01*
X6662143Y-17348143D01*
X6647857Y-17319572D01*
X6633571Y-17262429D01*
X6633571Y-17191000D01*
X6647857Y-17133857D01*
X6662143Y-17105286D01*
X6676428Y-17091000D01*
X6705000Y-17076714D01*
X6933571Y-17348143D02*
X6947857Y-17362429D01*
X6933571Y-17376714D01*
X6919286Y-17362429D01*
X6933571Y-17348143D01*
X6933571Y-17376714D01*
X7233571Y-17376714D02*
X7062143Y-17376714D01*
X7147857Y-17376714D02*
X7147857Y-17076714D01*
X7119286Y-17119572D01*
X7090714Y-17148143D01*
X7062143Y-17162429D01*
X7347857Y-17105286D02*
X7362143Y-17091000D01*
X7390714Y-17076714D01*
X7462143Y-17076714D01*
X7490714Y-17091000D01*
X7505000Y-17105286D01*
X7519286Y-17133857D01*
X7519286Y-17162429D01*
X7505000Y-17205286D01*
X7333571Y-17376714D01*
X7519286Y-17376714D01*
X7776428Y-17076714D02*
X7719286Y-17076714D01*
X7690714Y-17091000D01*
X7676428Y-17105286D01*
X7647857Y-17148143D01*
X7633571Y-17205286D01*
X7633571Y-17319572D01*
X7647857Y-17348143D01*
X7662143Y-17362429D01*
X7690714Y-17376714D01*
X7747857Y-17376714D01*
X7776428Y-17362429D01*
X7790714Y-17348143D01*
X7805000Y-17319572D01*
X7805000Y-17248143D01*
X7790714Y-17219572D01*
X7776428Y-17205286D01*
X7747857Y-17191000D01*
X7690714Y-17191000D01*
X7662143Y-17205286D01*
X7647857Y-17219572D01*
X7633571Y-17248143D01*
X7919286Y-17076714D02*
X7919286Y-17133857D01*
X8033571Y-17076714D02*
X8033571Y-17133857D01*
X8476428Y-17491000D02*
X8462143Y-17476714D01*
X8433571Y-17433857D01*
X8419286Y-17405286D01*
X8405000Y-17362429D01*
X8390714Y-17291000D01*
X8390714Y-17233857D01*
X8405000Y-17162429D01*
X8419286Y-17119572D01*
X8433571Y-17091000D01*
X8462143Y-17048143D01*
X8476428Y-17033857D01*
X8576428Y-17105286D02*
X8590714Y-17091000D01*
X8619286Y-17076714D01*
X8690714Y-17076714D01*
X8719286Y-17091000D01*
X8733571Y-17105286D01*
X8747857Y-17133857D01*
X8747857Y-17162429D01*
X8733571Y-17205286D01*
X8562143Y-17376714D01*
X8747857Y-17376714D01*
X9105000Y-17376714D02*
X9105000Y-17076714D01*
X9233571Y-17376714D02*
X9233571Y-17219572D01*
X9219286Y-17191000D01*
X9190714Y-17176714D01*
X9147857Y-17176714D01*
X9119286Y-17191000D01*
X9105000Y-17205286D01*
X9419286Y-17376714D02*
X9390714Y-17362429D01*
X9376428Y-17348143D01*
X9362143Y-17319572D01*
X9362143Y-17233857D01*
X9376428Y-17205286D01*
X9390714Y-17191000D01*
X9419286Y-17176714D01*
X9462143Y-17176714D01*
X9490714Y-17191000D01*
X9505000Y-17205286D01*
X9519286Y-17233857D01*
X9519286Y-17319572D01*
X9505000Y-17348143D01*
X9490714Y-17362429D01*
X9462143Y-17376714D01*
X9419286Y-17376714D01*
X9690714Y-17376714D02*
X9662143Y-17362429D01*
X9647857Y-17333857D01*
X9647857Y-17076714D01*
X9919286Y-17362429D02*
X9890714Y-17376714D01*
X9833571Y-17376714D01*
X9805000Y-17362429D01*
X9790714Y-17333857D01*
X9790714Y-17219572D01*
X9805000Y-17191000D01*
X9833571Y-17176714D01*
X9890714Y-17176714D01*
X9919286Y-17191000D01*
X9933571Y-17219572D01*
X9933571Y-17248143D01*
X9790714Y-17276714D01*
X10047857Y-17362429D02*
X10076428Y-17376714D01*
X10133571Y-17376714D01*
X10162143Y-17362429D01*
X10176428Y-17333857D01*
X10176428Y-17319572D01*
X10162143Y-17291000D01*
X10133571Y-17276714D01*
X10090714Y-17276714D01*
X10062143Y-17262429D01*
X10047857Y-17233857D01*
X10047857Y-17219572D01*
X10062143Y-17191000D01*
X10090714Y-17176714D01*
X10133571Y-17176714D01*
X10162143Y-17191000D01*
X10276428Y-17491000D02*
X10290714Y-17476714D01*
X10319286Y-17433857D01*
X10333571Y-17405286D01*
X10347857Y-17362429D01*
X10362143Y-17291000D01*
X10362143Y-17233857D01*
X10347857Y-17162429D01*
X10333571Y-17119572D01*
X10319286Y-17091000D01*
X10290714Y-17048143D01*
X10276428Y-17033857D01*
X10819286Y-17491000D02*
X10805000Y-17476714D01*
X10776428Y-17433857D01*
X10762143Y-17405286D01*
X10747857Y-17362429D01*
X10733571Y-17291000D01*
X10733571Y-17233857D01*
X10747857Y-17162429D01*
X10762143Y-17119572D01*
X10776428Y-17091000D01*
X10805000Y-17048143D01*
X10819286Y-17033857D01*
X10933571Y-17176714D02*
X10933571Y-17376714D01*
X10933571Y-17205286D02*
X10947857Y-17191000D01*
X10976428Y-17176714D01*
X11019286Y-17176714D01*
X11047857Y-17191000D01*
X11062143Y-17219572D01*
X11062143Y-17376714D01*
X11247857Y-17376714D02*
X11219286Y-17362429D01*
X11205000Y-17348143D01*
X11190714Y-17319572D01*
X11190714Y-17233857D01*
X11205000Y-17205286D01*
X11219286Y-17191000D01*
X11247857Y-17176714D01*
X11290714Y-17176714D01*
X11319286Y-17191000D01*
X11333571Y-17205286D01*
X11347857Y-17233857D01*
X11347857Y-17319572D01*
X11333571Y-17348143D01*
X11319286Y-17362429D01*
X11290714Y-17376714D01*
X11247857Y-17376714D01*
X11433571Y-17176714D02*
X11547857Y-17176714D01*
X11476428Y-17076714D02*
X11476428Y-17333857D01*
X11490714Y-17362429D01*
X11519286Y-17376714D01*
X11547857Y-17376714D01*
X11876428Y-17176714D02*
X11876428Y-17476714D01*
X11876428Y-17191000D02*
X11905000Y-17176714D01*
X11962143Y-17176714D01*
X11990714Y-17191000D01*
X12005000Y-17205286D01*
X12019286Y-17233857D01*
X12019286Y-17319572D01*
X12005000Y-17348143D01*
X11990714Y-17362429D01*
X11962143Y-17376714D01*
X11905000Y-17376714D01*
X11876428Y-17362429D01*
X12190714Y-17376714D02*
X12162143Y-17362429D01*
X12147857Y-17333857D01*
X12147857Y-17076714D01*
X12433571Y-17376714D02*
X12433571Y-17219572D01*
X12419286Y-17191000D01*
X12390714Y-17176714D01*
X12333571Y-17176714D01*
X12305000Y-17191000D01*
X12433571Y-17362429D02*
X12405000Y-17376714D01*
X12333571Y-17376714D01*
X12305000Y-17362429D01*
X12290714Y-17333857D01*
X12290714Y-17305286D01*
X12305000Y-17276714D01*
X12333571Y-17262429D01*
X12405000Y-17262429D01*
X12433571Y-17248143D01*
X12533571Y-17176714D02*
X12647857Y-17176714D01*
X12576428Y-17076714D02*
X12576428Y-17333857D01*
X12590714Y-17362429D01*
X12619286Y-17376714D01*
X12647857Y-17376714D01*
X12862143Y-17362429D02*
X12833571Y-17376714D01*
X12776428Y-17376714D01*
X12747857Y-17362429D01*
X12733571Y-17333857D01*
X12733571Y-17219572D01*
X12747857Y-17191000D01*
X12776428Y-17176714D01*
X12833571Y-17176714D01*
X12862143Y-17191000D01*
X12876428Y-17219572D01*
X12876428Y-17248143D01*
X12733571Y-17276714D01*
X13133571Y-17376714D02*
X13133571Y-17076714D01*
X13133571Y-17362429D02*
X13105000Y-17376714D01*
X13047857Y-17376714D01*
X13019286Y-17362429D01*
X13005000Y-17348143D01*
X12990714Y-17319572D01*
X12990714Y-17233857D01*
X13005000Y-17205286D01*
X13019286Y-17191000D01*
X13047857Y-17176714D01*
X13105000Y-17176714D01*
X13133571Y-17191000D01*
X13247857Y-17491000D02*
X13262143Y-17476714D01*
X13290714Y-17433857D01*
X13305000Y-17405286D01*
X13319286Y-17362429D01*
X13333571Y-17291000D01*
X13333571Y-17233857D01*
X13319286Y-17162429D01*
X13305000Y-17119572D01*
X13290714Y-17091000D01*
X13262143Y-17048143D01*
X13247857Y-17033857D01*
M02*
