G04 #@! TF.GenerationSoftware,KiCad,Pcbnew,(5.1.6)-1*
G04 #@! TF.CreationDate,2023-01-22T16:57:25+01:00*
G04 #@! TF.ProjectId,testing-board,74657374-696e-4672-9d62-6f6172642e6b,rev?*
G04 #@! TF.SameCoordinates,Original*
G04 #@! TF.FileFunction,Legend,Top*
G04 #@! TF.FilePolarity,Positive*
%FSLAX46Y46*%
G04 Gerber Fmt 4.6, Leading zero omitted, Abs format (unit mm)*
G04 Created by KiCad (PCBNEW (5.1.6)-1) date 2023-01-22 16:57:25*
%MOMM*%
%LPD*%
G01*
G04 APERTURE LIST*
%ADD10C,0.160000*%
%ADD11C,0.250000*%
%ADD12C,0.625000*%
%ADD13C,0.120000*%
%ADD14C,0.150000*%
%ADD15C,5.100000*%
%ADD16C,0.900000*%
%ADD17R,0.450000X1.600000*%
%ADD18C,0.100000*%
%ADD19R,1.350000X3.100000*%
%ADD20O,2.200000X2.200000*%
%ADD21R,2.200000X2.200000*%
%ADD22R,3.600000X3.600000*%
%ADD23C,3.600000*%
%ADD24C,1.600000*%
%ADD25C,3.400000*%
G04 APERTURE END LIST*
D10*
X129508952Y-87828380D02*
X129508952Y-86828380D01*
X129937523Y-86923619D02*
X129985142Y-86876000D01*
X130080380Y-86828380D01*
X130318476Y-86828380D01*
X130413714Y-86876000D01*
X130461333Y-86923619D01*
X130508952Y-87018857D01*
X130508952Y-87114095D01*
X130461333Y-87256952D01*
X129889904Y-87828380D01*
X130508952Y-87828380D01*
X131508952Y-87733142D02*
X131461333Y-87780761D01*
X131318476Y-87828380D01*
X131223238Y-87828380D01*
X131080380Y-87780761D01*
X130985142Y-87685523D01*
X130937523Y-87590285D01*
X130889904Y-87399809D01*
X130889904Y-87256952D01*
X130937523Y-87066476D01*
X130985142Y-86971238D01*
X131080380Y-86876000D01*
X131223238Y-86828380D01*
X131318476Y-86828380D01*
X131461333Y-86876000D01*
X131508952Y-86923619D01*
X132556571Y-87161714D02*
X132937523Y-87161714D01*
X132699428Y-86828380D02*
X132699428Y-87685523D01*
X132747047Y-87780761D01*
X132842285Y-87828380D01*
X132937523Y-87828380D01*
X133651809Y-87780761D02*
X133556571Y-87828380D01*
X133366095Y-87828380D01*
X133270857Y-87780761D01*
X133223238Y-87685523D01*
X133223238Y-87304571D01*
X133270857Y-87209333D01*
X133366095Y-87161714D01*
X133556571Y-87161714D01*
X133651809Y-87209333D01*
X133699428Y-87304571D01*
X133699428Y-87399809D01*
X133223238Y-87495047D01*
X134128000Y-87828380D02*
X134128000Y-87161714D01*
X134128000Y-87352190D02*
X134175619Y-87256952D01*
X134223238Y-87209333D01*
X134318476Y-87161714D01*
X134413714Y-87161714D01*
X134747047Y-87828380D02*
X134747047Y-87161714D01*
X134747047Y-87256952D02*
X134794666Y-87209333D01*
X134889904Y-87161714D01*
X135032761Y-87161714D01*
X135128000Y-87209333D01*
X135175619Y-87304571D01*
X135175619Y-87828380D01*
X135175619Y-87304571D02*
X135223238Y-87209333D01*
X135318476Y-87161714D01*
X135461333Y-87161714D01*
X135556571Y-87209333D01*
X135604190Y-87304571D01*
X135604190Y-87828380D01*
X136080380Y-87828380D02*
X136080380Y-87161714D01*
X136080380Y-86828380D02*
X136032761Y-86876000D01*
X136080380Y-86923619D01*
X136128000Y-86876000D01*
X136080380Y-86828380D01*
X136080380Y-86923619D01*
X136556571Y-87161714D02*
X136556571Y-87828380D01*
X136556571Y-87256952D02*
X136604190Y-87209333D01*
X136699428Y-87161714D01*
X136842285Y-87161714D01*
X136937523Y-87209333D01*
X136985142Y-87304571D01*
X136985142Y-87828380D01*
X137889904Y-87828380D02*
X137889904Y-87304571D01*
X137842285Y-87209333D01*
X137747047Y-87161714D01*
X137556571Y-87161714D01*
X137461333Y-87209333D01*
X137889904Y-87780761D02*
X137794666Y-87828380D01*
X137556571Y-87828380D01*
X137461333Y-87780761D01*
X137413714Y-87685523D01*
X137413714Y-87590285D01*
X137461333Y-87495047D01*
X137556571Y-87447428D01*
X137794666Y-87447428D01*
X137889904Y-87399809D01*
X138223238Y-87161714D02*
X138604190Y-87161714D01*
X138366095Y-86828380D02*
X138366095Y-87685523D01*
X138413714Y-87780761D01*
X138508952Y-87828380D01*
X138604190Y-87828380D01*
X138937523Y-87828380D02*
X138937523Y-87161714D01*
X138937523Y-86828380D02*
X138889904Y-86876000D01*
X138937523Y-86923619D01*
X138985142Y-86876000D01*
X138937523Y-86828380D01*
X138937523Y-86923619D01*
X139556571Y-87828380D02*
X139461333Y-87780761D01*
X139413714Y-87733142D01*
X139366095Y-87637904D01*
X139366095Y-87352190D01*
X139413714Y-87256952D01*
X139461333Y-87209333D01*
X139556571Y-87161714D01*
X139699428Y-87161714D01*
X139794666Y-87209333D01*
X139842285Y-87256952D01*
X139889904Y-87352190D01*
X139889904Y-87637904D01*
X139842285Y-87733142D01*
X139794666Y-87780761D01*
X139699428Y-87828380D01*
X139556571Y-87828380D01*
X140318476Y-87161714D02*
X140318476Y-87828380D01*
X140318476Y-87256952D02*
X140366095Y-87209333D01*
X140461333Y-87161714D01*
X140604190Y-87161714D01*
X140699428Y-87209333D01*
X140747047Y-87304571D01*
X140747047Y-87828380D01*
X132667523Y-73302761D02*
X132810380Y-73350380D01*
X133048476Y-73350380D01*
X133143714Y-73302761D01*
X133191333Y-73255142D01*
X133238952Y-73159904D01*
X133238952Y-73064666D01*
X133191333Y-72969428D01*
X133143714Y-72921809D01*
X133048476Y-72874190D01*
X132858000Y-72826571D01*
X132762761Y-72778952D01*
X132715142Y-72731333D01*
X132667523Y-72636095D01*
X132667523Y-72540857D01*
X132715142Y-72445619D01*
X132762761Y-72398000D01*
X132858000Y-72350380D01*
X133096095Y-72350380D01*
X133238952Y-72398000D01*
X134238952Y-73255142D02*
X134191333Y-73302761D01*
X134048476Y-73350380D01*
X133953238Y-73350380D01*
X133810380Y-73302761D01*
X133715142Y-73207523D01*
X133667523Y-73112285D01*
X133619904Y-72921809D01*
X133619904Y-72778952D01*
X133667523Y-72588476D01*
X133715142Y-72493238D01*
X133810380Y-72398000D01*
X133953238Y-72350380D01*
X134048476Y-72350380D01*
X134191333Y-72398000D01*
X134238952Y-72445619D01*
X135143714Y-73350380D02*
X134667523Y-73350380D01*
X134667523Y-72350380D01*
X138993714Y-73302761D02*
X139136571Y-73350380D01*
X139374666Y-73350380D01*
X139469904Y-73302761D01*
X139517523Y-73255142D01*
X139565142Y-73159904D01*
X139565142Y-73064666D01*
X139517523Y-72969428D01*
X139469904Y-72921809D01*
X139374666Y-72874190D01*
X139184190Y-72826571D01*
X139088952Y-72778952D01*
X139041333Y-72731333D01*
X138993714Y-72636095D01*
X138993714Y-72540857D01*
X139041333Y-72445619D01*
X139088952Y-72398000D01*
X139184190Y-72350380D01*
X139422285Y-72350380D01*
X139565142Y-72398000D01*
X139993714Y-73350380D02*
X139993714Y-72350380D01*
X140231809Y-72350380D01*
X140374666Y-72398000D01*
X140469904Y-72493238D01*
X140517523Y-72588476D01*
X140565142Y-72778952D01*
X140565142Y-72921809D01*
X140517523Y-73112285D01*
X140469904Y-73207523D01*
X140374666Y-73302761D01*
X140231809Y-73350380D01*
X139993714Y-73350380D01*
X140946095Y-73064666D02*
X141422285Y-73064666D01*
X140850857Y-73350380D02*
X141184190Y-72350380D01*
X141517523Y-73350380D01*
X125769714Y-80787142D02*
X126769714Y-80787142D01*
X125817333Y-80787142D02*
X125769714Y-80691904D01*
X125769714Y-80501428D01*
X125817333Y-80406190D01*
X125864952Y-80358571D01*
X125960190Y-80310952D01*
X126245904Y-80310952D01*
X126341142Y-80358571D01*
X126388761Y-80406190D01*
X126436380Y-80501428D01*
X126436380Y-80691904D01*
X126388761Y-80787142D01*
X125769714Y-79453809D02*
X126436380Y-79453809D01*
X125769714Y-79882380D02*
X126293523Y-79882380D01*
X126388761Y-79834761D01*
X126436380Y-79739523D01*
X126436380Y-79596666D01*
X126388761Y-79501428D01*
X126341142Y-79453809D01*
X126436380Y-78834761D02*
X126388761Y-78930000D01*
X126293523Y-78977619D01*
X125436380Y-78977619D01*
X126436380Y-78310952D02*
X126388761Y-78406190D01*
X126293523Y-78453809D01*
X125436380Y-78453809D01*
X126055428Y-77930000D02*
X126055428Y-77168095D01*
X125769714Y-76263333D02*
X126436380Y-76263333D01*
X125769714Y-76691904D02*
X126293523Y-76691904D01*
X126388761Y-76644285D01*
X126436380Y-76549047D01*
X126436380Y-76406190D01*
X126388761Y-76310952D01*
X126341142Y-76263333D01*
X125769714Y-75787142D02*
X126769714Y-75787142D01*
X125817333Y-75787142D02*
X125769714Y-75691904D01*
X125769714Y-75501428D01*
X125817333Y-75406190D01*
X125864952Y-75358571D01*
X125960190Y-75310952D01*
X126245904Y-75310952D01*
X126341142Y-75358571D01*
X126388761Y-75406190D01*
X126436380Y-75501428D01*
X126436380Y-75691904D01*
X126388761Y-75787142D01*
X126436380Y-73549047D02*
X125960190Y-73882380D01*
X126436380Y-74120476D02*
X125436380Y-74120476D01*
X125436380Y-73739523D01*
X125484000Y-73644285D01*
X125531619Y-73596666D01*
X125626857Y-73549047D01*
X125769714Y-73549047D01*
X125864952Y-73596666D01*
X125912571Y-73644285D01*
X125960190Y-73739523D01*
X125960190Y-74120476D01*
X126817333Y-72072857D02*
X126769714Y-72120476D01*
X126626857Y-72215714D01*
X126531619Y-72263333D01*
X126388761Y-72310952D01*
X126150666Y-72358571D01*
X125960190Y-72358571D01*
X125722095Y-72310952D01*
X125579238Y-72263333D01*
X125484000Y-72215714D01*
X125341142Y-72120476D01*
X125293523Y-72072857D01*
X126436380Y-71691904D02*
X125436380Y-71691904D01*
X125531619Y-71263333D02*
X125484000Y-71215714D01*
X125436380Y-71120476D01*
X125436380Y-70882380D01*
X125484000Y-70787142D01*
X125531619Y-70739523D01*
X125626857Y-70691904D01*
X125722095Y-70691904D01*
X125864952Y-70739523D01*
X126436380Y-71310952D01*
X126436380Y-70691904D01*
X126341142Y-69691904D02*
X126388761Y-69739523D01*
X126436380Y-69882380D01*
X126436380Y-69977619D01*
X126388761Y-70120476D01*
X126293523Y-70215714D01*
X126198285Y-70263333D01*
X126007809Y-70310952D01*
X125864952Y-70310952D01*
X125674476Y-70263333D01*
X125579238Y-70215714D01*
X125484000Y-70120476D01*
X125436380Y-69977619D01*
X125436380Y-69882380D01*
X125484000Y-69739523D01*
X125531619Y-69691904D01*
X126817333Y-69358571D02*
X126769714Y-69310952D01*
X126626857Y-69215714D01*
X126531619Y-69168095D01*
X126388761Y-69120476D01*
X126150666Y-69072857D01*
X125960190Y-69072857D01*
X125722095Y-69120476D01*
X125579238Y-69168095D01*
X125484000Y-69215714D01*
X125341142Y-69310952D01*
X125293523Y-69358571D01*
D11*
X126547714Y-95400761D02*
X126690571Y-95448380D01*
X126928666Y-95448380D01*
X127023904Y-95400761D01*
X127071523Y-95353142D01*
X127119142Y-95257904D01*
X127119142Y-95162666D01*
X127071523Y-95067428D01*
X127023904Y-95019809D01*
X126928666Y-94972190D01*
X126738190Y-94924571D01*
X126642952Y-94876952D01*
X126595333Y-94829333D01*
X126547714Y-94734095D01*
X126547714Y-94638857D01*
X126595333Y-94543619D01*
X126642952Y-94496000D01*
X126738190Y-94448380D01*
X126976285Y-94448380D01*
X127119142Y-94496000D01*
X127547714Y-95448380D02*
X127547714Y-94448380D01*
X127785809Y-94448380D01*
X127928666Y-94496000D01*
X128023904Y-94591238D01*
X128071523Y-94686476D01*
X128119142Y-94876952D01*
X128119142Y-95019809D01*
X128071523Y-95210285D01*
X128023904Y-95305523D01*
X127928666Y-95400761D01*
X127785809Y-95448380D01*
X127547714Y-95448380D01*
X128500095Y-95162666D02*
X128976285Y-95162666D01*
X128404857Y-95448380D02*
X128738190Y-94448380D01*
X129071523Y-95448380D01*
X126571523Y-109370761D02*
X126714380Y-109418380D01*
X126952476Y-109418380D01*
X127047714Y-109370761D01*
X127095333Y-109323142D01*
X127142952Y-109227904D01*
X127142952Y-109132666D01*
X127095333Y-109037428D01*
X127047714Y-108989809D01*
X126952476Y-108942190D01*
X126762000Y-108894571D01*
X126666761Y-108846952D01*
X126619142Y-108799333D01*
X126571523Y-108704095D01*
X126571523Y-108608857D01*
X126619142Y-108513619D01*
X126666761Y-108466000D01*
X126762000Y-108418380D01*
X127000095Y-108418380D01*
X127142952Y-108466000D01*
X128142952Y-109323142D02*
X128095333Y-109370761D01*
X127952476Y-109418380D01*
X127857238Y-109418380D01*
X127714380Y-109370761D01*
X127619142Y-109275523D01*
X127571523Y-109180285D01*
X127523904Y-108989809D01*
X127523904Y-108846952D01*
X127571523Y-108656476D01*
X127619142Y-108561238D01*
X127714380Y-108466000D01*
X127857238Y-108418380D01*
X127952476Y-108418380D01*
X128095333Y-108466000D01*
X128142952Y-108513619D01*
X129047714Y-109418380D02*
X128571523Y-109418380D01*
X128571523Y-108418380D01*
D10*
X132040476Y-95718380D02*
X132611904Y-95718380D01*
X132326190Y-96718380D02*
X132326190Y-95718380D01*
X133135714Y-95718380D02*
X133326190Y-95718380D01*
X133421428Y-95766000D01*
X133516666Y-95861238D01*
X133564285Y-96051714D01*
X133564285Y-96385047D01*
X133516666Y-96575523D01*
X133421428Y-96670761D01*
X133326190Y-96718380D01*
X133135714Y-96718380D01*
X133040476Y-96670761D01*
X132945238Y-96575523D01*
X132897619Y-96385047D01*
X132897619Y-96051714D01*
X132945238Y-95861238D01*
X133040476Y-95766000D01*
X133135714Y-95718380D01*
X133992857Y-96718380D02*
X133992857Y-95718380D01*
X134373809Y-95718380D01*
X134469047Y-95766000D01*
X134516666Y-95813619D01*
X134564285Y-95908857D01*
X134564285Y-96051714D01*
X134516666Y-96146952D01*
X134469047Y-96194571D01*
X134373809Y-96242190D01*
X133992857Y-96242190D01*
X133040571Y-89860380D02*
X133040571Y-88860380D01*
X133373904Y-89574666D01*
X133707238Y-88860380D01*
X133707238Y-89860380D01*
X134183428Y-89860380D02*
X134183428Y-88860380D01*
X134659619Y-89860380D02*
X134659619Y-88860380D01*
X134897714Y-88860380D01*
X135040571Y-88908000D01*
X135135809Y-89003238D01*
X135183428Y-89098476D01*
X135231047Y-89288952D01*
X135231047Y-89431809D01*
X135183428Y-89622285D01*
X135135809Y-89717523D01*
X135040571Y-89812761D01*
X134897714Y-89860380D01*
X134659619Y-89860380D01*
X138612666Y-89082571D02*
X138755523Y-89130190D01*
X138803142Y-89177809D01*
X138850761Y-89273047D01*
X138850761Y-89415904D01*
X138803142Y-89511142D01*
X138755523Y-89558761D01*
X138660285Y-89606380D01*
X138279333Y-89606380D01*
X138279333Y-88606380D01*
X138612666Y-88606380D01*
X138707904Y-88654000D01*
X138755523Y-88701619D01*
X138803142Y-88796857D01*
X138803142Y-88892095D01*
X138755523Y-88987333D01*
X138707904Y-89034952D01*
X138612666Y-89082571D01*
X138279333Y-89082571D01*
X139469809Y-88606380D02*
X139660285Y-88606380D01*
X139755523Y-88654000D01*
X139850761Y-88749238D01*
X139898380Y-88939714D01*
X139898380Y-89273047D01*
X139850761Y-89463523D01*
X139755523Y-89558761D01*
X139660285Y-89606380D01*
X139469809Y-89606380D01*
X139374571Y-89558761D01*
X139279333Y-89463523D01*
X139231714Y-89273047D01*
X139231714Y-88939714D01*
X139279333Y-88749238D01*
X139374571Y-88654000D01*
X139469809Y-88606380D01*
X140184095Y-88606380D02*
X140755523Y-88606380D01*
X140469809Y-89606380D02*
X140469809Y-88606380D01*
X138628571Y-96718380D02*
X138628571Y-95718380D01*
X138961904Y-96432666D01*
X139295238Y-95718380D01*
X139295238Y-96718380D01*
X139771428Y-96718380D02*
X139771428Y-95718380D01*
X140247619Y-96718380D02*
X140247619Y-95718380D01*
X140485714Y-95718380D01*
X140628571Y-95766000D01*
X140723809Y-95861238D01*
X140771428Y-95956476D01*
X140819047Y-96146952D01*
X140819047Y-96289809D01*
X140771428Y-96480285D01*
X140723809Y-96575523D01*
X140628571Y-96670761D01*
X140485714Y-96718380D01*
X140247619Y-96718380D01*
X131786476Y-109942380D02*
X132357904Y-109942380D01*
X132072190Y-110942380D02*
X132072190Y-109942380D01*
X132881714Y-109942380D02*
X133072190Y-109942380D01*
X133167428Y-109990000D01*
X133262666Y-110085238D01*
X133310285Y-110275714D01*
X133310285Y-110609047D01*
X133262666Y-110799523D01*
X133167428Y-110894761D01*
X133072190Y-110942380D01*
X132881714Y-110942380D01*
X132786476Y-110894761D01*
X132691238Y-110799523D01*
X132643619Y-110609047D01*
X132643619Y-110275714D01*
X132691238Y-110085238D01*
X132786476Y-109990000D01*
X132881714Y-109942380D01*
X133738857Y-110942380D02*
X133738857Y-109942380D01*
X134119809Y-109942380D01*
X134215047Y-109990000D01*
X134262666Y-110037619D01*
X134310285Y-110132857D01*
X134310285Y-110275714D01*
X134262666Y-110370952D01*
X134215047Y-110418571D01*
X134119809Y-110466190D01*
X133738857Y-110466190D01*
X132278571Y-103830380D02*
X132278571Y-102830380D01*
X132611904Y-103544666D01*
X132945238Y-102830380D01*
X132945238Y-103830380D01*
X133421428Y-103830380D02*
X133421428Y-102830380D01*
X133897619Y-103830380D02*
X133897619Y-102830380D01*
X134135714Y-102830380D01*
X134278571Y-102878000D01*
X134373809Y-102973238D01*
X134421428Y-103068476D01*
X134469047Y-103258952D01*
X134469047Y-103401809D01*
X134421428Y-103592285D01*
X134373809Y-103687523D01*
X134278571Y-103782761D01*
X134135714Y-103830380D01*
X133897619Y-103830380D01*
X138374571Y-110688380D02*
X138374571Y-109688380D01*
X138707904Y-110402666D01*
X139041238Y-109688380D01*
X139041238Y-110688380D01*
X139517428Y-110688380D02*
X139517428Y-109688380D01*
X139993619Y-110688380D02*
X139993619Y-109688380D01*
X140231714Y-109688380D01*
X140374571Y-109736000D01*
X140469809Y-109831238D01*
X140517428Y-109926476D01*
X140565047Y-110116952D01*
X140565047Y-110259809D01*
X140517428Y-110450285D01*
X140469809Y-110545523D01*
X140374571Y-110640761D01*
X140231714Y-110688380D01*
X139993619Y-110688380D01*
X138612666Y-103306571D02*
X138755523Y-103354190D01*
X138803142Y-103401809D01*
X138850761Y-103497047D01*
X138850761Y-103639904D01*
X138803142Y-103735142D01*
X138755523Y-103782761D01*
X138660285Y-103830380D01*
X138279333Y-103830380D01*
X138279333Y-102830380D01*
X138612666Y-102830380D01*
X138707904Y-102878000D01*
X138755523Y-102925619D01*
X138803142Y-103020857D01*
X138803142Y-103116095D01*
X138755523Y-103211333D01*
X138707904Y-103258952D01*
X138612666Y-103306571D01*
X138279333Y-103306571D01*
X139469809Y-102830380D02*
X139660285Y-102830380D01*
X139755523Y-102878000D01*
X139850761Y-102973238D01*
X139898380Y-103163714D01*
X139898380Y-103497047D01*
X139850761Y-103687523D01*
X139755523Y-103782761D01*
X139660285Y-103830380D01*
X139469809Y-103830380D01*
X139374571Y-103782761D01*
X139279333Y-103687523D01*
X139231714Y-103497047D01*
X139231714Y-103163714D01*
X139279333Y-102973238D01*
X139374571Y-102878000D01*
X139469809Y-102830380D01*
X140184095Y-102830380D02*
X140755523Y-102830380D01*
X140469809Y-103830380D02*
X140469809Y-102830380D01*
D11*
X123063095Y-125230000D02*
X122967857Y-125182380D01*
X122825000Y-125182380D01*
X122682142Y-125230000D01*
X122586904Y-125325238D01*
X122539285Y-125420476D01*
X122491666Y-125610952D01*
X122491666Y-125753809D01*
X122539285Y-125944285D01*
X122586904Y-126039523D01*
X122682142Y-126134761D01*
X122825000Y-126182380D01*
X122920238Y-126182380D01*
X123063095Y-126134761D01*
X123110714Y-126087142D01*
X123110714Y-125753809D01*
X122920238Y-125753809D01*
X123539285Y-126182380D02*
X123539285Y-125182380D01*
X124110714Y-126182380D01*
X124110714Y-125182380D01*
X124586904Y-126182380D02*
X124586904Y-125182380D01*
X124825000Y-125182380D01*
X124967857Y-125230000D01*
X125063095Y-125325238D01*
X125110714Y-125420476D01*
X125158333Y-125610952D01*
X125158333Y-125753809D01*
X125110714Y-125944285D01*
X125063095Y-126039523D01*
X124967857Y-126134761D01*
X124825000Y-126182380D01*
X124586904Y-126182380D01*
X116189285Y-125801428D02*
X116951190Y-125801428D01*
X116570238Y-126182380D02*
X116570238Y-125420476D01*
X117903571Y-125182380D02*
X117427380Y-125182380D01*
X117379761Y-125658571D01*
X117427380Y-125610952D01*
X117522619Y-125563333D01*
X117760714Y-125563333D01*
X117855952Y-125610952D01*
X117903571Y-125658571D01*
X117951190Y-125753809D01*
X117951190Y-125991904D01*
X117903571Y-126087142D01*
X117855952Y-126134761D01*
X117760714Y-126182380D01*
X117522619Y-126182380D01*
X117427380Y-126134761D01*
X117379761Y-126087142D01*
X118236904Y-125182380D02*
X118570238Y-126182380D01*
X118903571Y-125182380D01*
X118554761Y-120594380D02*
X117983333Y-120594380D01*
X118269047Y-120594380D02*
X118269047Y-119594380D01*
X118173809Y-119737238D01*
X118078571Y-119832476D01*
X117983333Y-119880095D01*
X118983333Y-120213428D02*
X119745238Y-120213428D01*
X120126190Y-119594380D02*
X120364285Y-120594380D01*
X120554761Y-119880095D01*
X120745238Y-120594380D01*
X120983333Y-119594380D01*
X121364285Y-120594380D02*
X121364285Y-119594380D01*
X122411904Y-120594380D02*
X122078571Y-120118190D01*
X121840476Y-120594380D02*
X121840476Y-119594380D01*
X122221428Y-119594380D01*
X122316666Y-119642000D01*
X122364285Y-119689619D01*
X122411904Y-119784857D01*
X122411904Y-119927714D01*
X122364285Y-120022952D01*
X122316666Y-120070571D01*
X122221428Y-120118190D01*
X121840476Y-120118190D01*
X122840476Y-120070571D02*
X123173809Y-120070571D01*
X123316666Y-120594380D02*
X122840476Y-120594380D01*
X122840476Y-119594380D01*
X123316666Y-119594380D01*
X128468380Y-67524190D02*
X127468380Y-67524190D01*
X127563619Y-67095619D02*
X127516000Y-67048000D01*
X127468380Y-66952761D01*
X127468380Y-66714666D01*
X127516000Y-66619428D01*
X127563619Y-66571809D01*
X127658857Y-66524190D01*
X127754095Y-66524190D01*
X127896952Y-66571809D01*
X128468380Y-67143238D01*
X128468380Y-66524190D01*
X128373142Y-65524190D02*
X128420761Y-65571809D01*
X128468380Y-65714666D01*
X128468380Y-65809904D01*
X128420761Y-65952761D01*
X128325523Y-66048000D01*
X128230285Y-66095619D01*
X128039809Y-66143238D01*
X127896952Y-66143238D01*
X127706476Y-66095619D01*
X127611238Y-66048000D01*
X127516000Y-65952761D01*
X127468380Y-65809904D01*
X127468380Y-65714666D01*
X127516000Y-65571809D01*
X127563619Y-65524190D01*
X123642380Y-115800000D02*
X122642380Y-115800000D01*
X122642380Y-115561904D01*
X122690000Y-115419047D01*
X122785238Y-115323809D01*
X122880476Y-115276190D01*
X123070952Y-115228571D01*
X123213809Y-115228571D01*
X123404285Y-115276190D01*
X123499523Y-115323809D01*
X123594761Y-115419047D01*
X123642380Y-115561904D01*
X123642380Y-115800000D01*
X123356666Y-114847619D02*
X123356666Y-114371428D01*
X123642380Y-114942857D02*
X122642380Y-114609523D01*
X123642380Y-114276190D01*
X122642380Y-114085714D02*
X122642380Y-113514285D01*
X123642380Y-113800000D02*
X122642380Y-113800000D01*
X123356666Y-113228571D02*
X123356666Y-112752380D01*
X123642380Y-113323809D02*
X122642380Y-112990476D01*
X123642380Y-112657142D01*
X120721428Y-115585714D02*
X120721428Y-114823809D01*
X121102380Y-115204761D02*
X120340476Y-115204761D01*
X120102380Y-113871428D02*
X120102380Y-114347619D01*
X120578571Y-114395238D01*
X120530952Y-114347619D01*
X120483333Y-114252380D01*
X120483333Y-114014285D01*
X120530952Y-113919047D01*
X120578571Y-113871428D01*
X120673809Y-113823809D01*
X120911904Y-113823809D01*
X121007142Y-113871428D01*
X121054761Y-113919047D01*
X121102380Y-114014285D01*
X121102380Y-114252380D01*
X121054761Y-114347619D01*
X121007142Y-114395238D01*
X120102380Y-113538095D02*
X121102380Y-113204761D01*
X120102380Y-112871428D01*
X117610000Y-115061904D02*
X117562380Y-115157142D01*
X117562380Y-115300000D01*
X117610000Y-115442857D01*
X117705238Y-115538095D01*
X117800476Y-115585714D01*
X117990952Y-115633333D01*
X118133809Y-115633333D01*
X118324285Y-115585714D01*
X118419523Y-115538095D01*
X118514761Y-115442857D01*
X118562380Y-115300000D01*
X118562380Y-115204761D01*
X118514761Y-115061904D01*
X118467142Y-115014285D01*
X118133809Y-115014285D01*
X118133809Y-115204761D01*
X118562380Y-114585714D02*
X117562380Y-114585714D01*
X118562380Y-114014285D01*
X117562380Y-114014285D01*
X118562380Y-113538095D02*
X117562380Y-113538095D01*
X117562380Y-113300000D01*
X117610000Y-113157142D01*
X117705238Y-113061904D01*
X117800476Y-113014285D01*
X117990952Y-112966666D01*
X118133809Y-112966666D01*
X118324285Y-113014285D01*
X118419523Y-113061904D01*
X118514761Y-113157142D01*
X118562380Y-113300000D01*
X118562380Y-113538095D01*
D10*
X130048095Y-66175000D02*
X129952857Y-66127380D01*
X129810000Y-66127380D01*
X129667142Y-66175000D01*
X129571904Y-66270238D01*
X129524285Y-66365476D01*
X129476666Y-66555952D01*
X129476666Y-66698809D01*
X129524285Y-66889285D01*
X129571904Y-66984523D01*
X129667142Y-67079761D01*
X129810000Y-67127380D01*
X129905238Y-67127380D01*
X130048095Y-67079761D01*
X130095714Y-67032142D01*
X130095714Y-66698809D01*
X129905238Y-66698809D01*
X130524285Y-67127380D02*
X130524285Y-66127380D01*
X131095714Y-67127380D01*
X131095714Y-66127380D01*
X131571904Y-67127380D02*
X131571904Y-66127380D01*
X131810000Y-66127380D01*
X131952857Y-66175000D01*
X132048095Y-66270238D01*
X132095714Y-66365476D01*
X132143333Y-66555952D01*
X132143333Y-66698809D01*
X132095714Y-66889285D01*
X132048095Y-66984523D01*
X131952857Y-67079761D01*
X131810000Y-67127380D01*
X131571904Y-67127380D01*
X132826285Y-66746428D02*
X133588190Y-66746428D01*
X133207238Y-67127380D02*
X133207238Y-66365476D01*
X134540571Y-66127380D02*
X134064380Y-66127380D01*
X134016761Y-66603571D01*
X134064380Y-66555952D01*
X134159619Y-66508333D01*
X134397714Y-66508333D01*
X134492952Y-66555952D01*
X134540571Y-66603571D01*
X134588190Y-66698809D01*
X134588190Y-66936904D01*
X134540571Y-67032142D01*
X134492952Y-67079761D01*
X134397714Y-67127380D01*
X134159619Y-67127380D01*
X134064380Y-67079761D01*
X134016761Y-67032142D01*
X134873904Y-66127380D02*
X135207238Y-67127380D01*
X135540571Y-66127380D01*
X136223523Y-67079761D02*
X136366380Y-67127380D01*
X136604476Y-67127380D01*
X136699714Y-67079761D01*
X136747333Y-67032142D01*
X136794952Y-66936904D01*
X136794952Y-66841666D01*
X136747333Y-66746428D01*
X136699714Y-66698809D01*
X136604476Y-66651190D01*
X136414000Y-66603571D01*
X136318761Y-66555952D01*
X136271142Y-66508333D01*
X136223523Y-66413095D01*
X136223523Y-66317857D01*
X136271142Y-66222619D01*
X136318761Y-66175000D01*
X136414000Y-66127380D01*
X136652095Y-66127380D01*
X136794952Y-66175000D01*
X137794952Y-67032142D02*
X137747333Y-67079761D01*
X137604476Y-67127380D01*
X137509238Y-67127380D01*
X137366380Y-67079761D01*
X137271142Y-66984523D01*
X137223523Y-66889285D01*
X137175904Y-66698809D01*
X137175904Y-66555952D01*
X137223523Y-66365476D01*
X137271142Y-66270238D01*
X137366380Y-66175000D01*
X137509238Y-66127380D01*
X137604476Y-66127380D01*
X137747333Y-66175000D01*
X137794952Y-66222619D01*
X138699714Y-67127380D02*
X138223523Y-67127380D01*
X138223523Y-66127380D01*
X139501714Y-67079761D02*
X139644571Y-67127380D01*
X139882666Y-67127380D01*
X139977904Y-67079761D01*
X140025523Y-67032142D01*
X140073142Y-66936904D01*
X140073142Y-66841666D01*
X140025523Y-66746428D01*
X139977904Y-66698809D01*
X139882666Y-66651190D01*
X139692190Y-66603571D01*
X139596952Y-66555952D01*
X139549333Y-66508333D01*
X139501714Y-66413095D01*
X139501714Y-66317857D01*
X139549333Y-66222619D01*
X139596952Y-66175000D01*
X139692190Y-66127380D01*
X139930285Y-66127380D01*
X140073142Y-66175000D01*
X140501714Y-67127380D02*
X140501714Y-66127380D01*
X140739809Y-66127380D01*
X140882666Y-66175000D01*
X140977904Y-66270238D01*
X141025523Y-66365476D01*
X141073142Y-66555952D01*
X141073142Y-66698809D01*
X141025523Y-66889285D01*
X140977904Y-66984523D01*
X140882666Y-67079761D01*
X140739809Y-67127380D01*
X140501714Y-67127380D01*
X141454095Y-66841666D02*
X141930285Y-66841666D01*
X141358857Y-67127380D02*
X141692190Y-66127380D01*
X142025523Y-67127380D01*
D12*
X117828285Y-94867809D02*
X117828285Y-93915428D01*
X116994952Y-94510666D02*
X119137809Y-94510666D01*
X119375904Y-94391619D01*
X119494952Y-94153523D01*
X119494952Y-93915428D01*
X119375904Y-92129714D02*
X119494952Y-92367809D01*
X119494952Y-92844000D01*
X119375904Y-93082095D01*
X119137809Y-93201142D01*
X118185428Y-93201142D01*
X117947333Y-93082095D01*
X117828285Y-92844000D01*
X117828285Y-92367809D01*
X117947333Y-92129714D01*
X118185428Y-92010666D01*
X118423523Y-92010666D01*
X118661619Y-93201142D01*
X119375904Y-91058285D02*
X119494952Y-90820190D01*
X119494952Y-90344000D01*
X119375904Y-90105904D01*
X119137809Y-89986857D01*
X119018761Y-89986857D01*
X118780666Y-90105904D01*
X118661619Y-90344000D01*
X118661619Y-90701142D01*
X118542571Y-90939238D01*
X118304476Y-91058285D01*
X118185428Y-91058285D01*
X117947333Y-90939238D01*
X117828285Y-90701142D01*
X117828285Y-90344000D01*
X117947333Y-90105904D01*
X117828285Y-89272571D02*
X117828285Y-88320190D01*
X116994952Y-88915428D02*
X119137809Y-88915428D01*
X119375904Y-88796380D01*
X119494952Y-88558285D01*
X119494952Y-88320190D01*
X119494952Y-85582095D02*
X116994952Y-85582095D01*
X117947333Y-85582095D02*
X117828285Y-85344000D01*
X117828285Y-84867809D01*
X117947333Y-84629714D01*
X118066380Y-84510666D01*
X118304476Y-84391619D01*
X119018761Y-84391619D01*
X119256857Y-84510666D01*
X119375904Y-84629714D01*
X119494952Y-84867809D01*
X119494952Y-85344000D01*
X119375904Y-85582095D01*
X119494952Y-82963047D02*
X119375904Y-83201142D01*
X119256857Y-83320190D01*
X119018761Y-83439238D01*
X118304476Y-83439238D01*
X118066380Y-83320190D01*
X117947333Y-83201142D01*
X117828285Y-82963047D01*
X117828285Y-82605904D01*
X117947333Y-82367809D01*
X118066380Y-82248761D01*
X118304476Y-82129714D01*
X119018761Y-82129714D01*
X119256857Y-82248761D01*
X119375904Y-82367809D01*
X119494952Y-82605904D01*
X119494952Y-82963047D01*
X119494952Y-79986857D02*
X118185428Y-79986857D01*
X117947333Y-80105904D01*
X117828285Y-80344000D01*
X117828285Y-80820190D01*
X117947333Y-81058285D01*
X119375904Y-79986857D02*
X119494952Y-80224952D01*
X119494952Y-80820190D01*
X119375904Y-81058285D01*
X119137809Y-81177333D01*
X118899714Y-81177333D01*
X118661619Y-81058285D01*
X118542571Y-80820190D01*
X118542571Y-80224952D01*
X118423523Y-79986857D01*
X119494952Y-78796380D02*
X117828285Y-78796380D01*
X118304476Y-78796380D02*
X118066380Y-78677333D01*
X117947333Y-78558285D01*
X117828285Y-78320190D01*
X117828285Y-78082095D01*
X119494952Y-76177333D02*
X116994952Y-76177333D01*
X119375904Y-76177333D02*
X119494952Y-76415428D01*
X119494952Y-76891619D01*
X119375904Y-77129714D01*
X119256857Y-77248761D01*
X119018761Y-77367809D01*
X118304476Y-77367809D01*
X118066380Y-77248761D01*
X117947333Y-77129714D01*
X117828285Y-76891619D01*
X117828285Y-76415428D01*
X117947333Y-76177333D01*
X123812952Y-104054476D02*
X122146285Y-104054476D01*
X122622476Y-104054476D02*
X122384380Y-103935428D01*
X122265333Y-103816380D01*
X122146285Y-103578285D01*
X122146285Y-103340190D01*
X123812952Y-102149714D02*
X123693904Y-102387809D01*
X123574857Y-102506857D01*
X123336761Y-102625904D01*
X122622476Y-102625904D01*
X122384380Y-102506857D01*
X122265333Y-102387809D01*
X122146285Y-102149714D01*
X122146285Y-101792571D01*
X122265333Y-101554476D01*
X122384380Y-101435428D01*
X122622476Y-101316380D01*
X123336761Y-101316380D01*
X123574857Y-101435428D01*
X123693904Y-101554476D01*
X123812952Y-101792571D01*
X123812952Y-102149714D01*
X123812952Y-100244952D02*
X122146285Y-100244952D01*
X122384380Y-100244952D02*
X122265333Y-100125904D01*
X122146285Y-99887809D01*
X122146285Y-99530666D01*
X122265333Y-99292571D01*
X122503428Y-99173523D01*
X123812952Y-99173523D01*
X122503428Y-99173523D02*
X122265333Y-99054476D01*
X122146285Y-98816380D01*
X122146285Y-98459238D01*
X122265333Y-98221142D01*
X122503428Y-98102095D01*
X123812952Y-98102095D01*
X123812952Y-95840190D02*
X122503428Y-95840190D01*
X122265333Y-95959238D01*
X122146285Y-96197333D01*
X122146285Y-96673523D01*
X122265333Y-96911619D01*
X123693904Y-95840190D02*
X123812952Y-96078285D01*
X123812952Y-96673523D01*
X123693904Y-96911619D01*
X123455809Y-97030666D01*
X123217714Y-97030666D01*
X122979619Y-96911619D01*
X122860571Y-96673523D01*
X122860571Y-96078285D01*
X122741523Y-95840190D01*
X122146285Y-94649714D02*
X123812952Y-94649714D01*
X122384380Y-94649714D02*
X122265333Y-94530666D01*
X122146285Y-94292571D01*
X122146285Y-93935428D01*
X122265333Y-93697333D01*
X122503428Y-93578285D01*
X123812952Y-93578285D01*
X122860571Y-92387809D02*
X122860571Y-90483047D01*
X123812952Y-88935428D02*
X123693904Y-89173523D01*
X123455809Y-89292571D01*
X121312952Y-89292571D01*
X123812952Y-86911619D02*
X122503428Y-86911619D01*
X122265333Y-87030666D01*
X122146285Y-87268761D01*
X122146285Y-87744952D01*
X122265333Y-87983047D01*
X123693904Y-86911619D02*
X123812952Y-87149714D01*
X123812952Y-87744952D01*
X123693904Y-87983047D01*
X123455809Y-88102095D01*
X123217714Y-88102095D01*
X122979619Y-87983047D01*
X122860571Y-87744952D01*
X122860571Y-87149714D01*
X122741523Y-86911619D01*
X123812952Y-85721142D02*
X121312952Y-85721142D01*
X122265333Y-85721142D02*
X122146285Y-85483047D01*
X122146285Y-85006857D01*
X122265333Y-84768761D01*
X122384380Y-84649714D01*
X122622476Y-84530666D01*
X123336761Y-84530666D01*
X123574857Y-84649714D01*
X123693904Y-84768761D01*
X123812952Y-85006857D01*
X123812952Y-85483047D01*
X123693904Y-85721142D01*
X123812952Y-83102095D02*
X123693904Y-83340190D01*
X123574857Y-83459238D01*
X123336761Y-83578285D01*
X122622476Y-83578285D01*
X122384380Y-83459238D01*
X122265333Y-83340190D01*
X122146285Y-83102095D01*
X122146285Y-82744952D01*
X122265333Y-82506857D01*
X122384380Y-82387809D01*
X122622476Y-82268761D01*
X123336761Y-82268761D01*
X123574857Y-82387809D01*
X123693904Y-82506857D01*
X123812952Y-82744952D01*
X123812952Y-83102095D01*
X122146285Y-81435428D02*
X123812952Y-80840190D01*
X122146285Y-80244952D01*
X123693904Y-79411619D02*
X123812952Y-79173523D01*
X123812952Y-78697333D01*
X123693904Y-78459238D01*
X123455809Y-78340190D01*
X123336761Y-78340190D01*
X123098666Y-78459238D01*
X122979619Y-78697333D01*
X122979619Y-79054476D01*
X122860571Y-79292571D01*
X122622476Y-79411619D01*
X122503428Y-79411619D01*
X122265333Y-79292571D01*
X122146285Y-79054476D01*
X122146285Y-78697333D01*
X122265333Y-78459238D01*
X123812952Y-77268761D02*
X121312952Y-77268761D01*
X122860571Y-77030666D02*
X123812952Y-76316380D01*
X122146285Y-76316380D02*
X123098666Y-77268761D01*
X122146285Y-75483047D02*
X123812952Y-74887809D01*
X122146285Y-74292571D02*
X123812952Y-74887809D01*
X124408190Y-75125904D01*
X124527238Y-75244952D01*
X124646285Y-75483047D01*
X123574857Y-73340190D02*
X123693904Y-73221142D01*
X123812952Y-73340190D01*
X123693904Y-73459238D01*
X123574857Y-73340190D01*
X123812952Y-73340190D01*
X123693904Y-71078285D02*
X123812952Y-71316380D01*
X123812952Y-71792571D01*
X123693904Y-72030666D01*
X123574857Y-72149714D01*
X123336761Y-72268761D01*
X122622476Y-72268761D01*
X122384380Y-72149714D01*
X122265333Y-72030666D01*
X122146285Y-71792571D01*
X122146285Y-71316380D01*
X122265333Y-71078285D01*
X122146285Y-70244952D02*
X122146285Y-68935428D01*
X123812952Y-70244952D01*
X123812952Y-68935428D01*
D13*
X137210800Y-79375000D02*
G75*
G03*
X137210800Y-79375000I-50800J0D01*
G01*
D10*
X133665325Y-80375836D02*
X133665325Y-83475836D01*
X136765325Y-78867000D02*
X136765325Y-83475836D01*
D14*
X137307762Y-79375000D02*
G75*
G03*
X137307762Y-79375000I-147762J0D01*
G01*
D10*
X141695000Y-100625000D02*
X141695000Y-96225000D01*
X141695000Y-96225000D02*
X144055000Y-96225000D01*
X144055000Y-96225000D02*
X144055000Y-100625000D01*
X144055000Y-100625000D02*
X141695000Y-100625000D01*
X141695000Y-93640000D02*
X141695000Y-89240000D01*
X141695000Y-89240000D02*
X144055000Y-89240000D01*
X144055000Y-89240000D02*
X144055000Y-93640000D01*
X144055000Y-93640000D02*
X141695000Y-93640000D01*
X126455000Y-100625000D02*
X126455000Y-96225000D01*
X126455000Y-96225000D02*
X128815000Y-96225000D01*
X128815000Y-96225000D02*
X128815000Y-100625000D01*
X128815000Y-100625000D02*
X126455000Y-100625000D01*
X126455000Y-93640000D02*
X126455000Y-89240000D01*
X126455000Y-89240000D02*
X128815000Y-89240000D01*
X128815000Y-89240000D02*
X128815000Y-93640000D01*
X128815000Y-93640000D02*
X126455000Y-93640000D01*
X141695000Y-114595000D02*
X141695000Y-110195000D01*
X141695000Y-110195000D02*
X144055000Y-110195000D01*
X144055000Y-110195000D02*
X144055000Y-114595000D01*
X144055000Y-114595000D02*
X141695000Y-114595000D01*
X141695000Y-107610000D02*
X141695000Y-103210000D01*
X141695000Y-103210000D02*
X144055000Y-103210000D01*
X144055000Y-103210000D02*
X144055000Y-107610000D01*
X144055000Y-107610000D02*
X141695000Y-107610000D01*
X126455000Y-114595000D02*
X126455000Y-110195000D01*
X126455000Y-110195000D02*
X128815000Y-110195000D01*
X128815000Y-110195000D02*
X128815000Y-114595000D01*
X128815000Y-114595000D02*
X126455000Y-114595000D01*
X126455000Y-107610000D02*
X126455000Y-103210000D01*
X126455000Y-103210000D02*
X128815000Y-103210000D01*
X128815000Y-103210000D02*
X128815000Y-107610000D01*
X128815000Y-107610000D02*
X126455000Y-107610000D01*
X144690000Y-72730000D02*
X144690000Y-77130000D01*
X144690000Y-77130000D02*
X142330000Y-77130000D01*
X142330000Y-77130000D02*
X142330000Y-72730000D01*
X142330000Y-72730000D02*
X144690000Y-72730000D01*
X129450000Y-72730000D02*
X129450000Y-77130000D01*
X129450000Y-77130000D02*
X127090000Y-77130000D01*
X127090000Y-77130000D02*
X127090000Y-72730000D01*
X127090000Y-72730000D02*
X129450000Y-72730000D01*
X140970000Y-90190000D02*
X138049000Y-90190000D01*
X140970000Y-92690000D02*
X140970000Y-90190000D01*
X140970000Y-92690000D02*
X140589000Y-92690000D01*
X136144000Y-88603000D02*
X136144000Y-90043000D01*
X135890000Y-92710000D02*
X138430000Y-92710000D01*
X135890000Y-90043000D02*
X135890000Y-92710000D01*
X136144000Y-90043000D02*
X135890000Y-90043000D01*
X129540000Y-92690000D02*
X132461000Y-92690000D01*
X129540000Y-90190000D02*
X129540000Y-92690000D01*
X129540000Y-90190000D02*
X129921000Y-90190000D01*
X134366000Y-94277000D02*
X134366000Y-92837000D01*
X134620000Y-90170000D02*
X132080000Y-90170000D01*
X134620000Y-92837000D02*
X134620000Y-90170000D01*
X134366000Y-92837000D02*
X134620000Y-92837000D01*
X140970000Y-97175000D02*
X138049000Y-97175000D01*
X140970000Y-99675000D02*
X140970000Y-97175000D01*
X140970000Y-99675000D02*
X140589000Y-99675000D01*
X136144000Y-95588000D02*
X136144000Y-97028000D01*
X135890000Y-99695000D02*
X138430000Y-99695000D01*
X135890000Y-97028000D02*
X135890000Y-99695000D01*
X136144000Y-97028000D02*
X135890000Y-97028000D01*
X129540000Y-99675000D02*
X132461000Y-99675000D01*
X129540000Y-97175000D02*
X129540000Y-99675000D01*
X129540000Y-97175000D02*
X129921000Y-97175000D01*
X134366000Y-101262000D02*
X134366000Y-99822000D01*
X134620000Y-97155000D02*
X132080000Y-97155000D01*
X134620000Y-99822000D02*
X134620000Y-97155000D01*
X134366000Y-99822000D02*
X134620000Y-99822000D01*
X140970000Y-104160000D02*
X138049000Y-104160000D01*
X140970000Y-106660000D02*
X140970000Y-104160000D01*
X140970000Y-106660000D02*
X140589000Y-106660000D01*
X136144000Y-102573000D02*
X136144000Y-104013000D01*
X135890000Y-106680000D02*
X138430000Y-106680000D01*
X135890000Y-104013000D02*
X135890000Y-106680000D01*
X136144000Y-104013000D02*
X135890000Y-104013000D01*
X129540000Y-106660000D02*
X132461000Y-106660000D01*
X129540000Y-104160000D02*
X129540000Y-106660000D01*
X129540000Y-104160000D02*
X129921000Y-104160000D01*
X134366000Y-108247000D02*
X134366000Y-106807000D01*
X134620000Y-104140000D02*
X132080000Y-104140000D01*
X134620000Y-106807000D02*
X134620000Y-104140000D01*
X134366000Y-106807000D02*
X134620000Y-106807000D01*
X140970000Y-111145000D02*
X138049000Y-111145000D01*
X140970000Y-113645000D02*
X140970000Y-111145000D01*
X140970000Y-113645000D02*
X140589000Y-113645000D01*
X136144000Y-109558000D02*
X136144000Y-110998000D01*
X135890000Y-113665000D02*
X138430000Y-113665000D01*
X135890000Y-110998000D02*
X135890000Y-113665000D01*
X136144000Y-110998000D02*
X135890000Y-110998000D01*
X129540000Y-113750000D02*
X132461000Y-113750000D01*
X129540000Y-111250000D02*
X129540000Y-113750000D01*
X129540000Y-111250000D02*
X129921000Y-111250000D01*
X134366000Y-115337000D02*
X134366000Y-113897000D01*
X134620000Y-111230000D02*
X132080000Y-111230000D01*
X134620000Y-113897000D02*
X134620000Y-111230000D01*
X134366000Y-113897000D02*
X134620000Y-113897000D01*
X141605000Y-73680000D02*
X138684000Y-73680000D01*
X141605000Y-76180000D02*
X141605000Y-73680000D01*
X141605000Y-76180000D02*
X141224000Y-76180000D01*
X136779000Y-72093000D02*
X136779000Y-73533000D01*
X136525000Y-76200000D02*
X139065000Y-76200000D01*
X136525000Y-73533000D02*
X136525000Y-76200000D01*
X136779000Y-73533000D02*
X136525000Y-73533000D01*
X130175000Y-76180000D02*
X133096000Y-76180000D01*
X130175000Y-73680000D02*
X130175000Y-76180000D01*
X130175000Y-73680000D02*
X130556000Y-73680000D01*
X135001000Y-77767000D02*
X135001000Y-76327000D01*
X135255000Y-73660000D02*
X132715000Y-73660000D01*
X135255000Y-76327000D02*
X135255000Y-73660000D01*
X135001000Y-76327000D02*
X135255000Y-76327000D01*
X133350000Y-70545000D02*
X133350000Y-67885000D01*
X130750000Y-69215000D02*
X130750000Y-67885000D01*
X130750000Y-67885000D02*
X132080000Y-67885000D01*
X133350000Y-70545000D02*
X141030000Y-70545000D01*
X133350000Y-67885000D02*
X141030000Y-67885000D01*
X141030000Y-70545000D02*
X141030000Y-67885000D01*
X130750000Y-65465000D02*
X130750000Y-64135000D01*
X132080000Y-65465000D02*
X130750000Y-65465000D01*
X133350000Y-65465000D02*
X140970000Y-65465000D01*
X133350000Y-65465000D02*
X133350000Y-62805000D01*
X133350000Y-62805000D02*
X140970000Y-62805000D01*
X140970000Y-65465000D02*
X140970000Y-62805000D01*
X119380000Y-123885000D02*
X124714000Y-123885000D01*
X124714000Y-123892000D02*
X124714000Y-121232000D01*
X116780000Y-122555000D02*
X116780000Y-121225000D01*
X119380000Y-123885000D02*
X119380000Y-121225000D01*
X116780000Y-121225000D02*
X118110000Y-121225000D01*
X119380000Y-121225000D02*
X124714000Y-121225000D01*
X124460000Y-118805000D02*
X124460000Y-116145000D01*
X119380000Y-116145000D02*
X124460000Y-116145000D01*
X118110000Y-118805000D02*
X116780000Y-118805000D01*
X119380000Y-118805000D02*
X119380000Y-116145000D01*
X116780000Y-118805000D02*
X116780000Y-117475000D01*
X119380000Y-118805000D02*
X124460000Y-118805000D01*
X115570000Y-134418000D02*
X125730000Y-134418000D01*
X125730000Y-134418000D02*
X125730000Y-126818000D01*
X125730000Y-126818000D02*
X115570000Y-126818000D01*
X115570000Y-126818000D02*
X115570000Y-134418000D01*
X115570000Y-128778000D02*
X125730000Y-128778000D01*
X143510000Y-116205000D02*
X127000000Y-116205000D01*
X143510000Y-135255000D02*
X143510000Y-116205000D01*
X127000000Y-135255000D02*
X143510000Y-135255000D01*
X127000000Y-116205000D02*
X127000000Y-135255000D01*
X137500000Y-82640000D02*
X141900000Y-82640000D01*
X141900000Y-85000000D02*
X137500000Y-85000000D01*
X137500000Y-85000000D02*
X137500000Y-82640000D01*
X141900000Y-82640000D02*
X141900000Y-85000000D01*
X137500000Y-79465000D02*
X141900000Y-79465000D01*
X141900000Y-81825000D02*
X137500000Y-81825000D01*
X137500000Y-81825000D02*
X137500000Y-79465000D01*
X141900000Y-79465000D02*
X141900000Y-81825000D01*
D14*
D10*
X132167380Y-82676904D02*
X132976904Y-82676904D01*
X133072142Y-82629285D01*
X133119761Y-82581666D01*
X133167380Y-82486428D01*
X133167380Y-82295952D01*
X133119761Y-82200714D01*
X133072142Y-82153095D01*
X132976904Y-82105476D01*
X132167380Y-82105476D01*
X133167380Y-81105476D02*
X133167380Y-81676904D01*
X133167380Y-81391190D02*
X132167380Y-81391190D01*
X132310238Y-81486428D01*
X132405476Y-81581666D01*
X132453095Y-81676904D01*
X145359380Y-98813857D02*
X144883190Y-99147190D01*
X145359380Y-99385285D02*
X144359380Y-99385285D01*
X144359380Y-99004333D01*
X144407000Y-98909095D01*
X144454619Y-98861476D01*
X144549857Y-98813857D01*
X144692714Y-98813857D01*
X144787952Y-98861476D01*
X144835571Y-98909095D01*
X144883190Y-99004333D01*
X144883190Y-99385285D01*
X145359380Y-97861476D02*
X145359380Y-98432904D01*
X145359380Y-98147190D02*
X144359380Y-98147190D01*
X144502238Y-98242428D01*
X144597476Y-98337666D01*
X144645095Y-98432904D01*
X144359380Y-97004333D02*
X144359380Y-97194809D01*
X144407000Y-97290047D01*
X144454619Y-97337666D01*
X144597476Y-97432904D01*
X144787952Y-97480523D01*
X145168904Y-97480523D01*
X145264142Y-97432904D01*
X145311761Y-97385285D01*
X145359380Y-97290047D01*
X145359380Y-97099571D01*
X145311761Y-97004333D01*
X145264142Y-96956714D01*
X145168904Y-96909095D01*
X144930809Y-96909095D01*
X144835571Y-96956714D01*
X144787952Y-97004333D01*
X144740333Y-97099571D01*
X144740333Y-97290047D01*
X144787952Y-97385285D01*
X144835571Y-97432904D01*
X144930809Y-97480523D01*
X145359380Y-91828857D02*
X144883190Y-92162190D01*
X145359380Y-92400285D02*
X144359380Y-92400285D01*
X144359380Y-92019333D01*
X144407000Y-91924095D01*
X144454619Y-91876476D01*
X144549857Y-91828857D01*
X144692714Y-91828857D01*
X144787952Y-91876476D01*
X144835571Y-91924095D01*
X144883190Y-92019333D01*
X144883190Y-92400285D01*
X145359380Y-90876476D02*
X145359380Y-91447904D01*
X145359380Y-91162190D02*
X144359380Y-91162190D01*
X144502238Y-91257428D01*
X144597476Y-91352666D01*
X144645095Y-91447904D01*
X144359380Y-89971714D02*
X144359380Y-90447904D01*
X144835571Y-90495523D01*
X144787952Y-90447904D01*
X144740333Y-90352666D01*
X144740333Y-90114571D01*
X144787952Y-90019333D01*
X144835571Y-89971714D01*
X144930809Y-89924095D01*
X145168904Y-89924095D01*
X145264142Y-89971714D01*
X145311761Y-90019333D01*
X145359380Y-90114571D01*
X145359380Y-90352666D01*
X145311761Y-90447904D01*
X145264142Y-90495523D01*
X126182380Y-98813857D02*
X125706190Y-99147190D01*
X126182380Y-99385285D02*
X125182380Y-99385285D01*
X125182380Y-99004333D01*
X125230000Y-98909095D01*
X125277619Y-98861476D01*
X125372857Y-98813857D01*
X125515714Y-98813857D01*
X125610952Y-98861476D01*
X125658571Y-98909095D01*
X125706190Y-99004333D01*
X125706190Y-99385285D01*
X126182380Y-97861476D02*
X126182380Y-98432904D01*
X126182380Y-98147190D02*
X125182380Y-98147190D01*
X125325238Y-98242428D01*
X125420476Y-98337666D01*
X125468095Y-98432904D01*
X125182380Y-97528142D02*
X125182380Y-96909095D01*
X125563333Y-97242428D01*
X125563333Y-97099571D01*
X125610952Y-97004333D01*
X125658571Y-96956714D01*
X125753809Y-96909095D01*
X125991904Y-96909095D01*
X126087142Y-96956714D01*
X126134761Y-97004333D01*
X126182380Y-97099571D01*
X126182380Y-97385285D01*
X126134761Y-97480523D01*
X126087142Y-97528142D01*
X126182380Y-91828857D02*
X125706190Y-92162190D01*
X126182380Y-92400285D02*
X125182380Y-92400285D01*
X125182380Y-92019333D01*
X125230000Y-91924095D01*
X125277619Y-91876476D01*
X125372857Y-91828857D01*
X125515714Y-91828857D01*
X125610952Y-91876476D01*
X125658571Y-91924095D01*
X125706190Y-92019333D01*
X125706190Y-92400285D01*
X126182380Y-90876476D02*
X126182380Y-91447904D01*
X126182380Y-91162190D02*
X125182380Y-91162190D01*
X125325238Y-91257428D01*
X125420476Y-91352666D01*
X125468095Y-91447904D01*
X125277619Y-90495523D02*
X125230000Y-90447904D01*
X125182380Y-90352666D01*
X125182380Y-90114571D01*
X125230000Y-90019333D01*
X125277619Y-89971714D01*
X125372857Y-89924095D01*
X125468095Y-89924095D01*
X125610952Y-89971714D01*
X126182380Y-90543142D01*
X126182380Y-89924095D01*
X145359380Y-112783857D02*
X144883190Y-113117190D01*
X145359380Y-113355285D02*
X144359380Y-113355285D01*
X144359380Y-112974333D01*
X144407000Y-112879095D01*
X144454619Y-112831476D01*
X144549857Y-112783857D01*
X144692714Y-112783857D01*
X144787952Y-112831476D01*
X144835571Y-112879095D01*
X144883190Y-112974333D01*
X144883190Y-113355285D01*
X145359380Y-111831476D02*
X145359380Y-112402904D01*
X145359380Y-112117190D02*
X144359380Y-112117190D01*
X144502238Y-112212428D01*
X144597476Y-112307666D01*
X144645095Y-112402904D01*
X145359380Y-110879095D02*
X145359380Y-111450523D01*
X145359380Y-111164809D02*
X144359380Y-111164809D01*
X144502238Y-111260047D01*
X144597476Y-111355285D01*
X144645095Y-111450523D01*
X145359380Y-105798857D02*
X144883190Y-106132190D01*
X145359380Y-106370285D02*
X144359380Y-106370285D01*
X144359380Y-105989333D01*
X144407000Y-105894095D01*
X144454619Y-105846476D01*
X144549857Y-105798857D01*
X144692714Y-105798857D01*
X144787952Y-105846476D01*
X144835571Y-105894095D01*
X144883190Y-105989333D01*
X144883190Y-106370285D01*
X145359380Y-104846476D02*
X145359380Y-105417904D01*
X145359380Y-105132190D02*
X144359380Y-105132190D01*
X144502238Y-105227428D01*
X144597476Y-105322666D01*
X144645095Y-105417904D01*
X144359380Y-104227428D02*
X144359380Y-104132190D01*
X144407000Y-104036952D01*
X144454619Y-103989333D01*
X144549857Y-103941714D01*
X144740333Y-103894095D01*
X144978428Y-103894095D01*
X145168904Y-103941714D01*
X145264142Y-103989333D01*
X145311761Y-104036952D01*
X145359380Y-104132190D01*
X145359380Y-104227428D01*
X145311761Y-104322666D01*
X145264142Y-104370285D01*
X145168904Y-104417904D01*
X144978428Y-104465523D01*
X144740333Y-104465523D01*
X144549857Y-104417904D01*
X144454619Y-104370285D01*
X144407000Y-104322666D01*
X144359380Y-104227428D01*
X126182380Y-112561666D02*
X125706190Y-112895000D01*
X126182380Y-113133095D02*
X125182380Y-113133095D01*
X125182380Y-112752142D01*
X125230000Y-112656904D01*
X125277619Y-112609285D01*
X125372857Y-112561666D01*
X125515714Y-112561666D01*
X125610952Y-112609285D01*
X125658571Y-112656904D01*
X125706190Y-112752142D01*
X125706190Y-113133095D01*
X125610952Y-111990238D02*
X125563333Y-112085476D01*
X125515714Y-112133095D01*
X125420476Y-112180714D01*
X125372857Y-112180714D01*
X125277619Y-112133095D01*
X125230000Y-112085476D01*
X125182380Y-111990238D01*
X125182380Y-111799761D01*
X125230000Y-111704523D01*
X125277619Y-111656904D01*
X125372857Y-111609285D01*
X125420476Y-111609285D01*
X125515714Y-111656904D01*
X125563333Y-111704523D01*
X125610952Y-111799761D01*
X125610952Y-111990238D01*
X125658571Y-112085476D01*
X125706190Y-112133095D01*
X125801428Y-112180714D01*
X125991904Y-112180714D01*
X126087142Y-112133095D01*
X126134761Y-112085476D01*
X126182380Y-111990238D01*
X126182380Y-111799761D01*
X126134761Y-111704523D01*
X126087142Y-111656904D01*
X125991904Y-111609285D01*
X125801428Y-111609285D01*
X125706190Y-111656904D01*
X125658571Y-111704523D01*
X125610952Y-111799761D01*
X126182380Y-105322666D02*
X125706190Y-105656000D01*
X126182380Y-105894095D02*
X125182380Y-105894095D01*
X125182380Y-105513142D01*
X125230000Y-105417904D01*
X125277619Y-105370285D01*
X125372857Y-105322666D01*
X125515714Y-105322666D01*
X125610952Y-105370285D01*
X125658571Y-105417904D01*
X125706190Y-105513142D01*
X125706190Y-105894095D01*
X125182380Y-104989333D02*
X125182380Y-104322666D01*
X126182380Y-104751238D01*
X143962380Y-71794666D02*
X143486190Y-72128000D01*
X143962380Y-72366095D02*
X142962380Y-72366095D01*
X142962380Y-71985142D01*
X143010000Y-71889904D01*
X143057619Y-71842285D01*
X143152857Y-71794666D01*
X143295714Y-71794666D01*
X143390952Y-71842285D01*
X143438571Y-71889904D01*
X143486190Y-71985142D01*
X143486190Y-72366095D01*
X142962380Y-70937523D02*
X142962380Y-71128000D01*
X143010000Y-71223238D01*
X143057619Y-71270857D01*
X143200476Y-71366095D01*
X143390952Y-71413714D01*
X143771904Y-71413714D01*
X143867142Y-71366095D01*
X143914761Y-71318476D01*
X143962380Y-71223238D01*
X143962380Y-71032761D01*
X143914761Y-70937523D01*
X143867142Y-70889904D01*
X143771904Y-70842285D01*
X143533809Y-70842285D01*
X143438571Y-70889904D01*
X143390952Y-70937523D01*
X143343333Y-71032761D01*
X143343333Y-71223238D01*
X143390952Y-71318476D01*
X143438571Y-71366095D01*
X143533809Y-71413714D01*
X128722380Y-78398666D02*
X128246190Y-78732000D01*
X128722380Y-78970095D02*
X127722380Y-78970095D01*
X127722380Y-78589142D01*
X127770000Y-78493904D01*
X127817619Y-78446285D01*
X127912857Y-78398666D01*
X128055714Y-78398666D01*
X128150952Y-78446285D01*
X128198571Y-78493904D01*
X128246190Y-78589142D01*
X128246190Y-78970095D01*
X127722380Y-77493904D02*
X127722380Y-77970095D01*
X128198571Y-78017714D01*
X128150952Y-77970095D01*
X128103333Y-77874857D01*
X128103333Y-77636761D01*
X128150952Y-77541523D01*
X128198571Y-77493904D01*
X128293809Y-77446285D01*
X128531904Y-77446285D01*
X128627142Y-77493904D01*
X128674761Y-77541523D01*
X128722380Y-77636761D01*
X128722380Y-77874857D01*
X128674761Y-77970095D01*
X128627142Y-78017714D01*
X135945714Y-94432380D02*
X135945714Y-93432380D01*
X136326666Y-93432380D01*
X136421904Y-93480000D01*
X136469523Y-93527619D01*
X136517142Y-93622857D01*
X136517142Y-93765714D01*
X136469523Y-93860952D01*
X136421904Y-93908571D01*
X136326666Y-93956190D01*
X135945714Y-93956190D01*
X137469523Y-94432380D02*
X136898095Y-94432380D01*
X137183809Y-94432380D02*
X137183809Y-93432380D01*
X137088571Y-93575238D01*
X136993333Y-93670476D01*
X136898095Y-93718095D01*
X138326666Y-93765714D02*
X138326666Y-94432380D01*
X138088571Y-93384761D02*
X137850476Y-94099047D01*
X138469523Y-94099047D01*
X129595714Y-94432380D02*
X129595714Y-93432380D01*
X129976666Y-93432380D01*
X130071904Y-93480000D01*
X130119523Y-93527619D01*
X130167142Y-93622857D01*
X130167142Y-93765714D01*
X130119523Y-93860952D01*
X130071904Y-93908571D01*
X129976666Y-93956190D01*
X129595714Y-93956190D01*
X131119523Y-94432380D02*
X130548095Y-94432380D01*
X130833809Y-94432380D02*
X130833809Y-93432380D01*
X130738571Y-93575238D01*
X130643333Y-93670476D01*
X130548095Y-93718095D01*
X131452857Y-93432380D02*
X132071904Y-93432380D01*
X131738571Y-93813333D01*
X131881428Y-93813333D01*
X131976666Y-93860952D01*
X132024285Y-93908571D01*
X132071904Y-94003809D01*
X132071904Y-94241904D01*
X132024285Y-94337142D01*
X131976666Y-94384761D01*
X131881428Y-94432380D01*
X131595714Y-94432380D01*
X131500476Y-94384761D01*
X131452857Y-94337142D01*
X135945714Y-101417380D02*
X135945714Y-100417380D01*
X136326666Y-100417380D01*
X136421904Y-100465000D01*
X136469523Y-100512619D01*
X136517142Y-100607857D01*
X136517142Y-100750714D01*
X136469523Y-100845952D01*
X136421904Y-100893571D01*
X136326666Y-100941190D01*
X135945714Y-100941190D01*
X137469523Y-101417380D02*
X136898095Y-101417380D01*
X137183809Y-101417380D02*
X137183809Y-100417380D01*
X137088571Y-100560238D01*
X136993333Y-100655476D01*
X136898095Y-100703095D01*
X137850476Y-100512619D02*
X137898095Y-100465000D01*
X137993333Y-100417380D01*
X138231428Y-100417380D01*
X138326666Y-100465000D01*
X138374285Y-100512619D01*
X138421904Y-100607857D01*
X138421904Y-100703095D01*
X138374285Y-100845952D01*
X137802857Y-101417380D01*
X138421904Y-101417380D01*
X129595714Y-101417380D02*
X129595714Y-100417380D01*
X129976666Y-100417380D01*
X130071904Y-100465000D01*
X130119523Y-100512619D01*
X130167142Y-100607857D01*
X130167142Y-100750714D01*
X130119523Y-100845952D01*
X130071904Y-100893571D01*
X129976666Y-100941190D01*
X129595714Y-100941190D01*
X131119523Y-101417380D02*
X130548095Y-101417380D01*
X130833809Y-101417380D02*
X130833809Y-100417380D01*
X130738571Y-100560238D01*
X130643333Y-100655476D01*
X130548095Y-100703095D01*
X132071904Y-101417380D02*
X131500476Y-101417380D01*
X131786190Y-101417380D02*
X131786190Y-100417380D01*
X131690952Y-100560238D01*
X131595714Y-100655476D01*
X131500476Y-100703095D01*
X135945714Y-108402380D02*
X135945714Y-107402380D01*
X136326666Y-107402380D01*
X136421904Y-107450000D01*
X136469523Y-107497619D01*
X136517142Y-107592857D01*
X136517142Y-107735714D01*
X136469523Y-107830952D01*
X136421904Y-107878571D01*
X136326666Y-107926190D01*
X135945714Y-107926190D01*
X137469523Y-108402380D02*
X136898095Y-108402380D01*
X137183809Y-108402380D02*
X137183809Y-107402380D01*
X137088571Y-107545238D01*
X136993333Y-107640476D01*
X136898095Y-107688095D01*
X138088571Y-107402380D02*
X138183809Y-107402380D01*
X138279047Y-107450000D01*
X138326666Y-107497619D01*
X138374285Y-107592857D01*
X138421904Y-107783333D01*
X138421904Y-108021428D01*
X138374285Y-108211904D01*
X138326666Y-108307142D01*
X138279047Y-108354761D01*
X138183809Y-108402380D01*
X138088571Y-108402380D01*
X137993333Y-108354761D01*
X137945714Y-108307142D01*
X137898095Y-108211904D01*
X137850476Y-108021428D01*
X137850476Y-107783333D01*
X137898095Y-107592857D01*
X137945714Y-107497619D01*
X137993333Y-107450000D01*
X138088571Y-107402380D01*
X130627380Y-108688095D02*
X129627380Y-108688095D01*
X129627380Y-108307142D01*
X129675000Y-108211904D01*
X129722619Y-108164285D01*
X129817857Y-108116666D01*
X129960714Y-108116666D01*
X130055952Y-108164285D01*
X130103571Y-108211904D01*
X130151190Y-108307142D01*
X130151190Y-108688095D01*
X130627380Y-107640476D02*
X130627380Y-107450000D01*
X130579761Y-107354761D01*
X130532142Y-107307142D01*
X130389285Y-107211904D01*
X130198809Y-107164285D01*
X129817857Y-107164285D01*
X129722619Y-107211904D01*
X129675000Y-107259523D01*
X129627380Y-107354761D01*
X129627380Y-107545238D01*
X129675000Y-107640476D01*
X129722619Y-107688095D01*
X129817857Y-107735714D01*
X130055952Y-107735714D01*
X130151190Y-107688095D01*
X130198809Y-107640476D01*
X130246428Y-107545238D01*
X130246428Y-107354761D01*
X130198809Y-107259523D01*
X130151190Y-107211904D01*
X130055952Y-107164285D01*
X136421904Y-115387380D02*
X136421904Y-114387380D01*
X136802857Y-114387380D01*
X136898095Y-114435000D01*
X136945714Y-114482619D01*
X136993333Y-114577857D01*
X136993333Y-114720714D01*
X136945714Y-114815952D01*
X136898095Y-114863571D01*
X136802857Y-114911190D01*
X136421904Y-114911190D01*
X137564761Y-114815952D02*
X137469523Y-114768333D01*
X137421904Y-114720714D01*
X137374285Y-114625476D01*
X137374285Y-114577857D01*
X137421904Y-114482619D01*
X137469523Y-114435000D01*
X137564761Y-114387380D01*
X137755238Y-114387380D01*
X137850476Y-114435000D01*
X137898095Y-114482619D01*
X137945714Y-114577857D01*
X137945714Y-114625476D01*
X137898095Y-114720714D01*
X137850476Y-114768333D01*
X137755238Y-114815952D01*
X137564761Y-114815952D01*
X137469523Y-114863571D01*
X137421904Y-114911190D01*
X137374285Y-115006428D01*
X137374285Y-115196904D01*
X137421904Y-115292142D01*
X137469523Y-115339761D01*
X137564761Y-115387380D01*
X137755238Y-115387380D01*
X137850476Y-115339761D01*
X137898095Y-115292142D01*
X137945714Y-115196904D01*
X137945714Y-115006428D01*
X137898095Y-114911190D01*
X137850476Y-114863571D01*
X137755238Y-114815952D01*
X130071904Y-115387380D02*
X130071904Y-114387380D01*
X130452857Y-114387380D01*
X130548095Y-114435000D01*
X130595714Y-114482619D01*
X130643333Y-114577857D01*
X130643333Y-114720714D01*
X130595714Y-114815952D01*
X130548095Y-114863571D01*
X130452857Y-114911190D01*
X130071904Y-114911190D01*
X130976666Y-114387380D02*
X131643333Y-114387380D01*
X131214761Y-115387380D01*
X137056904Y-77922380D02*
X137056904Y-76922380D01*
X137437857Y-76922380D01*
X137533095Y-76970000D01*
X137580714Y-77017619D01*
X137628333Y-77112857D01*
X137628333Y-77255714D01*
X137580714Y-77350952D01*
X137533095Y-77398571D01*
X137437857Y-77446190D01*
X137056904Y-77446190D01*
X138485476Y-76922380D02*
X138295000Y-76922380D01*
X138199761Y-76970000D01*
X138152142Y-77017619D01*
X138056904Y-77160476D01*
X138009285Y-77350952D01*
X138009285Y-77731904D01*
X138056904Y-77827142D01*
X138104523Y-77874761D01*
X138199761Y-77922380D01*
X138390238Y-77922380D01*
X138485476Y-77874761D01*
X138533095Y-77827142D01*
X138580714Y-77731904D01*
X138580714Y-77493809D01*
X138533095Y-77398571D01*
X138485476Y-77350952D01*
X138390238Y-77303333D01*
X138199761Y-77303333D01*
X138104523Y-77350952D01*
X138056904Y-77398571D01*
X138009285Y-77493809D01*
X130706904Y-77922380D02*
X130706904Y-76922380D01*
X131087857Y-76922380D01*
X131183095Y-76970000D01*
X131230714Y-77017619D01*
X131278333Y-77112857D01*
X131278333Y-77255714D01*
X131230714Y-77350952D01*
X131183095Y-77398571D01*
X131087857Y-77446190D01*
X130706904Y-77446190D01*
X132183095Y-76922380D02*
X131706904Y-76922380D01*
X131659285Y-77398571D01*
X131706904Y-77350952D01*
X131802142Y-77303333D01*
X132040238Y-77303333D01*
X132135476Y-77350952D01*
X132183095Y-77398571D01*
X132230714Y-77493809D01*
X132230714Y-77731904D01*
X132183095Y-77827142D01*
X132135476Y-77874761D01*
X132040238Y-77922380D01*
X131802142Y-77922380D01*
X131706904Y-77874761D01*
X131659285Y-77827142D01*
D14*
X129992380Y-69953095D02*
X128992380Y-69953095D01*
X128992380Y-69572142D01*
X129040000Y-69476904D01*
X129087619Y-69429285D01*
X129182857Y-69381666D01*
X129325714Y-69381666D01*
X129420952Y-69429285D01*
X129468571Y-69476904D01*
X129516190Y-69572142D01*
X129516190Y-69953095D01*
X129325714Y-68524523D02*
X129992380Y-68524523D01*
X128944761Y-68762619D02*
X129659047Y-69000714D01*
X129659047Y-68381666D01*
D10*
X129992380Y-64873095D02*
X128992380Y-64873095D01*
X128992380Y-64492142D01*
X129040000Y-64396904D01*
X129087619Y-64349285D01*
X129182857Y-64301666D01*
X129325714Y-64301666D01*
X129420952Y-64349285D01*
X129468571Y-64396904D01*
X129516190Y-64492142D01*
X129516190Y-64873095D01*
X128992380Y-63968333D02*
X128992380Y-63349285D01*
X129373333Y-63682619D01*
X129373333Y-63539761D01*
X129420952Y-63444523D01*
X129468571Y-63396904D01*
X129563809Y-63349285D01*
X129801904Y-63349285D01*
X129897142Y-63396904D01*
X129944761Y-63444523D01*
X129992380Y-63539761D01*
X129992380Y-63825476D01*
X129944761Y-63920714D01*
X129897142Y-63968333D01*
D14*
X126182380Y-123293095D02*
X125182380Y-123293095D01*
X125182380Y-122912142D01*
X125230000Y-122816904D01*
X125277619Y-122769285D01*
X125372857Y-122721666D01*
X125515714Y-122721666D01*
X125610952Y-122769285D01*
X125658571Y-122816904D01*
X125706190Y-122912142D01*
X125706190Y-123293095D01*
X125277619Y-122340714D02*
X125230000Y-122293095D01*
X125182380Y-122197857D01*
X125182380Y-121959761D01*
X125230000Y-121864523D01*
X125277619Y-121816904D01*
X125372857Y-121769285D01*
X125468095Y-121769285D01*
X125610952Y-121816904D01*
X126182380Y-122388333D01*
X126182380Y-121769285D01*
D10*
X125928380Y-118340095D02*
X124928380Y-118340095D01*
X124928380Y-117959142D01*
X124976000Y-117863904D01*
X125023619Y-117816285D01*
X125118857Y-117768666D01*
X125261714Y-117768666D01*
X125356952Y-117816285D01*
X125404571Y-117863904D01*
X125452190Y-117959142D01*
X125452190Y-118340095D01*
X125928380Y-116816285D02*
X125928380Y-117387714D01*
X125928380Y-117102000D02*
X124928380Y-117102000D01*
X125071238Y-117197238D01*
X125166476Y-117292476D01*
X125214095Y-117387714D01*
X120316666Y-125182380D02*
X120316666Y-125896666D01*
X120269047Y-126039523D01*
X120173809Y-126134761D01*
X120030952Y-126182380D01*
X119935714Y-126182380D01*
X120745238Y-125277619D02*
X120792857Y-125230000D01*
X120888095Y-125182380D01*
X121126190Y-125182380D01*
X121221428Y-125230000D01*
X121269047Y-125277619D01*
X121316666Y-125372857D01*
X121316666Y-125468095D01*
X121269047Y-125610952D01*
X120697619Y-126182380D01*
X121316666Y-126182380D01*
X144446666Y-132802380D02*
X144446666Y-133516666D01*
X144399047Y-133659523D01*
X144303809Y-133754761D01*
X144160952Y-133802380D01*
X144065714Y-133802380D01*
X145446666Y-133802380D02*
X144875238Y-133802380D01*
X145160952Y-133802380D02*
X145160952Y-132802380D01*
X145065714Y-132945238D01*
X144970476Y-133040476D01*
X144875238Y-133088095D01*
X142835333Y-84177142D02*
X142787714Y-84224761D01*
X142644857Y-84272380D01*
X142549619Y-84272380D01*
X142406761Y-84224761D01*
X142311523Y-84129523D01*
X142263904Y-84034285D01*
X142216285Y-83843809D01*
X142216285Y-83700952D01*
X142263904Y-83510476D01*
X142311523Y-83415238D01*
X142406761Y-83320000D01*
X142549619Y-83272380D01*
X142644857Y-83272380D01*
X142787714Y-83320000D01*
X142835333Y-83367619D01*
X143692476Y-83605714D02*
X143692476Y-84272380D01*
X143454380Y-83224761D02*
X143216285Y-83939047D01*
X143835333Y-83939047D01*
X142835333Y-81002142D02*
X142787714Y-81049761D01*
X142644857Y-81097380D01*
X142549619Y-81097380D01*
X142406761Y-81049761D01*
X142311523Y-80954523D01*
X142263904Y-80859285D01*
X142216285Y-80668809D01*
X142216285Y-80525952D01*
X142263904Y-80335476D01*
X142311523Y-80240238D01*
X142406761Y-80145000D01*
X142549619Y-80097380D01*
X142644857Y-80097380D01*
X142787714Y-80145000D01*
X142835333Y-80192619D01*
X143168666Y-80097380D02*
X143787714Y-80097380D01*
X143454380Y-80478333D01*
X143597238Y-80478333D01*
X143692476Y-80525952D01*
X143740095Y-80573571D01*
X143787714Y-80668809D01*
X143787714Y-80906904D01*
X143740095Y-81002142D01*
X143692476Y-81049761D01*
X143597238Y-81097380D01*
X143311523Y-81097380D01*
X143216285Y-81049761D01*
X143168666Y-81002142D01*
%LPC*%
D15*
X118745000Y-106045000D03*
X118745000Y-65405000D03*
D16*
X132080000Y-89535000D03*
X132080000Y-79375000D03*
X140970000Y-82296000D03*
X138430000Y-82296000D03*
X131445000Y-85725000D03*
X133350000Y-86360000D03*
X131445000Y-107315000D03*
X135255000Y-97790000D03*
X141605000Y-101600000D03*
X137160000Y-92710000D03*
X132715000Y-109855000D03*
X135255000Y-113030000D03*
X135255000Y-104140000D03*
X135255000Y-111125000D03*
D17*
X136255000Y-84455000D03*
X135755000Y-84455000D03*
X135255000Y-84455000D03*
X134755000Y-84455000D03*
X134255000Y-84455000D03*
X134255000Y-79375000D03*
X134755000Y-79375000D03*
X135255000Y-79375000D03*
X136255000Y-79375000D03*
X135755000Y-79375000D03*
D18*
G36*
X141925000Y-98995000D02*
G01*
X143825000Y-98995000D01*
X143825000Y-100395000D01*
X141925000Y-100395000D01*
X141925000Y-98995000D01*
G37*
G36*
X141925000Y-96455000D02*
G01*
X143825000Y-96455000D01*
X143825000Y-97855000D01*
X141925000Y-97855000D01*
X141925000Y-96455000D01*
G37*
G36*
X141925000Y-92010000D02*
G01*
X143825000Y-92010000D01*
X143825000Y-93410000D01*
X141925000Y-93410000D01*
X141925000Y-92010000D01*
G37*
G36*
X141925000Y-89470000D02*
G01*
X143825000Y-89470000D01*
X143825000Y-90870000D01*
X141925000Y-90870000D01*
X141925000Y-89470000D01*
G37*
G36*
X126685000Y-98995000D02*
G01*
X128585000Y-98995000D01*
X128585000Y-100395000D01*
X126685000Y-100395000D01*
X126685000Y-98995000D01*
G37*
G36*
X126685000Y-96455000D02*
G01*
X128585000Y-96455000D01*
X128585000Y-97855000D01*
X126685000Y-97855000D01*
X126685000Y-96455000D01*
G37*
G36*
X126685000Y-92010000D02*
G01*
X128585000Y-92010000D01*
X128585000Y-93410000D01*
X126685000Y-93410000D01*
X126685000Y-92010000D01*
G37*
G36*
X126685000Y-89470000D02*
G01*
X128585000Y-89470000D01*
X128585000Y-90870000D01*
X126685000Y-90870000D01*
X126685000Y-89470000D01*
G37*
G36*
X141925000Y-112965000D02*
G01*
X143825000Y-112965000D01*
X143825000Y-114365000D01*
X141925000Y-114365000D01*
X141925000Y-112965000D01*
G37*
G36*
X141925000Y-110425000D02*
G01*
X143825000Y-110425000D01*
X143825000Y-111825000D01*
X141925000Y-111825000D01*
X141925000Y-110425000D01*
G37*
G36*
X141925000Y-105980000D02*
G01*
X143825000Y-105980000D01*
X143825000Y-107380000D01*
X141925000Y-107380000D01*
X141925000Y-105980000D01*
G37*
G36*
X141925000Y-103440000D02*
G01*
X143825000Y-103440000D01*
X143825000Y-104840000D01*
X141925000Y-104840000D01*
X141925000Y-103440000D01*
G37*
G36*
X126685000Y-112965000D02*
G01*
X128585000Y-112965000D01*
X128585000Y-114365000D01*
X126685000Y-114365000D01*
X126685000Y-112965000D01*
G37*
G36*
X126685000Y-110425000D02*
G01*
X128585000Y-110425000D01*
X128585000Y-111825000D01*
X126685000Y-111825000D01*
X126685000Y-110425000D01*
G37*
G36*
X126685000Y-105980000D02*
G01*
X128585000Y-105980000D01*
X128585000Y-107380000D01*
X126685000Y-107380000D01*
X126685000Y-105980000D01*
G37*
G36*
X126685000Y-103440000D02*
G01*
X128585000Y-103440000D01*
X128585000Y-104840000D01*
X126685000Y-104840000D01*
X126685000Y-103440000D01*
G37*
G36*
X144460000Y-74360000D02*
G01*
X142560000Y-74360000D01*
X142560000Y-72960000D01*
X144460000Y-72960000D01*
X144460000Y-74360000D01*
G37*
G36*
X144460000Y-76900000D02*
G01*
X142560000Y-76900000D01*
X142560000Y-75500000D01*
X144460000Y-75500000D01*
X144460000Y-76900000D01*
G37*
G36*
X129220000Y-74360000D02*
G01*
X127320000Y-74360000D01*
X127320000Y-72960000D01*
X129220000Y-72960000D01*
X129220000Y-74360000D01*
G37*
G36*
X129220000Y-76900000D02*
G01*
X127320000Y-76900000D01*
X127320000Y-75500000D01*
X129220000Y-75500000D01*
X129220000Y-76900000D01*
G37*
D19*
X139700000Y-92815000D03*
X137160000Y-90065000D03*
X130810000Y-90065000D03*
X133350000Y-92815000D03*
X139700000Y-99800000D03*
X137160000Y-97050000D03*
X130810000Y-97050000D03*
X133350000Y-99800000D03*
X139700000Y-106785000D03*
X137160000Y-104035000D03*
X130810000Y-104035000D03*
X133350000Y-106785000D03*
X139700000Y-113770000D03*
X137160000Y-111020000D03*
X130810000Y-111125000D03*
X133350000Y-113875000D03*
X140335000Y-76305000D03*
X137795000Y-73555000D03*
X131445000Y-73555000D03*
X133985000Y-76305000D03*
D20*
X134620000Y-69215000D03*
X139700000Y-69215000D03*
D21*
X132080000Y-69215000D03*
D20*
X137160000Y-69215000D03*
X139700000Y-64135000D03*
X137160000Y-64135000D03*
X134620000Y-64135000D03*
D21*
X132080000Y-64135000D03*
X118110000Y-122555000D03*
D20*
X123190000Y-122555000D03*
X120650000Y-122555000D03*
D21*
X118110000Y-117475000D03*
D20*
X123190000Y-117475000D03*
X120650000Y-117475000D03*
D22*
X118110000Y-131318000D03*
D23*
X123190000Y-131318000D03*
D24*
X133351000Y-120650000D03*
X139701000Y-118110000D03*
D25*
X129539000Y-127000000D03*
D24*
X138431000Y-120650000D03*
X132081000Y-118110000D03*
X135891000Y-120650000D03*
X134621000Y-118110000D03*
X137161000Y-118110000D03*
X130811000Y-120650000D03*
D25*
X140971000Y-127000000D03*
D18*
G36*
X140270000Y-84770000D02*
G01*
X140270000Y-82870000D01*
X141670000Y-82870000D01*
X141670000Y-84770000D01*
X140270000Y-84770000D01*
G37*
G36*
X137730000Y-84770000D02*
G01*
X137730000Y-82870000D01*
X139130000Y-82870000D01*
X139130000Y-84770000D01*
X137730000Y-84770000D01*
G37*
G36*
X140270000Y-81595000D02*
G01*
X140270000Y-79695000D01*
X141670000Y-79695000D01*
X141670000Y-81595000D01*
X140270000Y-81595000D01*
G37*
G36*
X137730000Y-81595000D02*
G01*
X137730000Y-79695000D01*
X139130000Y-79695000D01*
X139130000Y-81595000D01*
X137730000Y-81595000D01*
G37*
M02*
