G04 #@! TF.GenerationSoftware,KiCad,Pcbnew,(5.1.6)-1*
G04 #@! TF.CreationDate,2023-01-22T16:57:25+01:00*
G04 #@! TF.ProjectId,testing-board,74657374-696e-4672-9d62-6f6172642e6b,rev?*
G04 #@! TF.SameCoordinates,Original*
G04 #@! TF.FileFunction,Soldermask,Top*
G04 #@! TF.FilePolarity,Negative*
%FSLAX46Y46*%
G04 Gerber Fmt 4.6, Leading zero omitted, Abs format (unit mm)*
G04 Created by KiCad (PCBNEW (5.1.6)-1) date 2023-01-22 16:57:25*
%MOMM*%
%LPD*%
G01*
G04 APERTURE LIST*
%ADD10C,5.100000*%
%ADD11C,0.900000*%
%ADD12R,0.450000X1.600000*%
%ADD13C,0.100000*%
%ADD14R,1.350000X3.100000*%
%ADD15O,2.200000X2.200000*%
%ADD16R,2.200000X2.200000*%
%ADD17R,3.600000X3.600000*%
%ADD18C,3.600000*%
%ADD19C,1.600000*%
%ADD20C,3.400000*%
G04 APERTURE END LIST*
D10*
X118745000Y-106045000D03*
X118745000Y-65405000D03*
D11*
X132080000Y-89535000D03*
X132080000Y-79375000D03*
X140970000Y-82296000D03*
X138430000Y-82296000D03*
X131445000Y-85725000D03*
X133350000Y-86360000D03*
X131445000Y-107315000D03*
X135255000Y-97790000D03*
X141605000Y-101600000D03*
X137160000Y-92710000D03*
X132715000Y-109855000D03*
X135255000Y-113030000D03*
X135255000Y-104140000D03*
X135255000Y-111125000D03*
D12*
X136255000Y-84455000D03*
X135755000Y-84455000D03*
X135255000Y-84455000D03*
X134755000Y-84455000D03*
X134255000Y-84455000D03*
X134255000Y-79375000D03*
X134755000Y-79375000D03*
X135255000Y-79375000D03*
X136255000Y-79375000D03*
X135755000Y-79375000D03*
D13*
G36*
X141925000Y-98995000D02*
G01*
X143825000Y-98995000D01*
X143825000Y-100395000D01*
X141925000Y-100395000D01*
X141925000Y-98995000D01*
G37*
G36*
X141925000Y-96455000D02*
G01*
X143825000Y-96455000D01*
X143825000Y-97855000D01*
X141925000Y-97855000D01*
X141925000Y-96455000D01*
G37*
G36*
X141925000Y-92010000D02*
G01*
X143825000Y-92010000D01*
X143825000Y-93410000D01*
X141925000Y-93410000D01*
X141925000Y-92010000D01*
G37*
G36*
X141925000Y-89470000D02*
G01*
X143825000Y-89470000D01*
X143825000Y-90870000D01*
X141925000Y-90870000D01*
X141925000Y-89470000D01*
G37*
G36*
X126685000Y-98995000D02*
G01*
X128585000Y-98995000D01*
X128585000Y-100395000D01*
X126685000Y-100395000D01*
X126685000Y-98995000D01*
G37*
G36*
X126685000Y-96455000D02*
G01*
X128585000Y-96455000D01*
X128585000Y-97855000D01*
X126685000Y-97855000D01*
X126685000Y-96455000D01*
G37*
G36*
X126685000Y-92010000D02*
G01*
X128585000Y-92010000D01*
X128585000Y-93410000D01*
X126685000Y-93410000D01*
X126685000Y-92010000D01*
G37*
G36*
X126685000Y-89470000D02*
G01*
X128585000Y-89470000D01*
X128585000Y-90870000D01*
X126685000Y-90870000D01*
X126685000Y-89470000D01*
G37*
G36*
X141925000Y-112965000D02*
G01*
X143825000Y-112965000D01*
X143825000Y-114365000D01*
X141925000Y-114365000D01*
X141925000Y-112965000D01*
G37*
G36*
X141925000Y-110425000D02*
G01*
X143825000Y-110425000D01*
X143825000Y-111825000D01*
X141925000Y-111825000D01*
X141925000Y-110425000D01*
G37*
G36*
X141925000Y-105980000D02*
G01*
X143825000Y-105980000D01*
X143825000Y-107380000D01*
X141925000Y-107380000D01*
X141925000Y-105980000D01*
G37*
G36*
X141925000Y-103440000D02*
G01*
X143825000Y-103440000D01*
X143825000Y-104840000D01*
X141925000Y-104840000D01*
X141925000Y-103440000D01*
G37*
G36*
X126685000Y-112965000D02*
G01*
X128585000Y-112965000D01*
X128585000Y-114365000D01*
X126685000Y-114365000D01*
X126685000Y-112965000D01*
G37*
G36*
X126685000Y-110425000D02*
G01*
X128585000Y-110425000D01*
X128585000Y-111825000D01*
X126685000Y-111825000D01*
X126685000Y-110425000D01*
G37*
G36*
X126685000Y-105980000D02*
G01*
X128585000Y-105980000D01*
X128585000Y-107380000D01*
X126685000Y-107380000D01*
X126685000Y-105980000D01*
G37*
G36*
X126685000Y-103440000D02*
G01*
X128585000Y-103440000D01*
X128585000Y-104840000D01*
X126685000Y-104840000D01*
X126685000Y-103440000D01*
G37*
G36*
X144460000Y-74360000D02*
G01*
X142560000Y-74360000D01*
X142560000Y-72960000D01*
X144460000Y-72960000D01*
X144460000Y-74360000D01*
G37*
G36*
X144460000Y-76900000D02*
G01*
X142560000Y-76900000D01*
X142560000Y-75500000D01*
X144460000Y-75500000D01*
X144460000Y-76900000D01*
G37*
G36*
X129220000Y-74360000D02*
G01*
X127320000Y-74360000D01*
X127320000Y-72960000D01*
X129220000Y-72960000D01*
X129220000Y-74360000D01*
G37*
G36*
X129220000Y-76900000D02*
G01*
X127320000Y-76900000D01*
X127320000Y-75500000D01*
X129220000Y-75500000D01*
X129220000Y-76900000D01*
G37*
D14*
X139700000Y-92815000D03*
X137160000Y-90065000D03*
X130810000Y-90065000D03*
X133350000Y-92815000D03*
X139700000Y-99800000D03*
X137160000Y-97050000D03*
X130810000Y-97050000D03*
X133350000Y-99800000D03*
X139700000Y-106785000D03*
X137160000Y-104035000D03*
X130810000Y-104035000D03*
X133350000Y-106785000D03*
X139700000Y-113770000D03*
X137160000Y-111020000D03*
X130810000Y-111125000D03*
X133350000Y-113875000D03*
X140335000Y-76305000D03*
X137795000Y-73555000D03*
X131445000Y-73555000D03*
X133985000Y-76305000D03*
D15*
X134620000Y-69215000D03*
X139700000Y-69215000D03*
D16*
X132080000Y-69215000D03*
D15*
X137160000Y-69215000D03*
X139700000Y-64135000D03*
X137160000Y-64135000D03*
X134620000Y-64135000D03*
D16*
X132080000Y-64135000D03*
X118110000Y-122555000D03*
D15*
X123190000Y-122555000D03*
X120650000Y-122555000D03*
D16*
X118110000Y-117475000D03*
D15*
X123190000Y-117475000D03*
X120650000Y-117475000D03*
D17*
X118110000Y-131318000D03*
D18*
X123190000Y-131318000D03*
D19*
X133351000Y-120650000D03*
X139701000Y-118110000D03*
D20*
X129539000Y-127000000D03*
D19*
X138431000Y-120650000D03*
X132081000Y-118110000D03*
X135891000Y-120650000D03*
X134621000Y-118110000D03*
X137161000Y-118110000D03*
X130811000Y-120650000D03*
D20*
X140971000Y-127000000D03*
D13*
G36*
X140270000Y-84770000D02*
G01*
X140270000Y-82870000D01*
X141670000Y-82870000D01*
X141670000Y-84770000D01*
X140270000Y-84770000D01*
G37*
G36*
X137730000Y-84770000D02*
G01*
X137730000Y-82870000D01*
X139130000Y-82870000D01*
X139130000Y-84770000D01*
X137730000Y-84770000D01*
G37*
G36*
X140270000Y-81595000D02*
G01*
X140270000Y-79695000D01*
X141670000Y-79695000D01*
X141670000Y-81595000D01*
X140270000Y-81595000D01*
G37*
G36*
X137730000Y-81595000D02*
G01*
X137730000Y-79695000D01*
X139130000Y-79695000D01*
X139130000Y-81595000D01*
X137730000Y-81595000D01*
G37*
M02*
