M48
; DRILL file {KiCad (5.1.6)-1} date 01/22/23 16:57:34
; FORMAT={-:-/ absolute / metric / decimal}
; #@! TF.CreationDate,2023-01-22T16:57:34+01:00
; #@! TF.GenerationSoftware,Kicad,Pcbnew,(5.1.6)-1
; #@! TF.FileFunction,Plated,1,2,PTH
FMAT,2
METRIC
T1C0.400
T2C0.800
T3C1.000
T4C1.200
T5C3.000
%
G90
G05
T1
X135.255Y-104.14
X135.255Y-113.03
X137.16Y-92.71
X141.605Y-101.6
X135.255Y-97.79
X131.445Y-107.315
X135.255Y-111.125
X140.97Y-82.296
X133.35Y-86.36
X132.08Y-79.375
X131.445Y-85.725
X132.08Y-89.535
X138.43Y-82.296
X132.715Y-109.855
T2
X130.811Y-120.65
X132.081Y-118.11
X133.351Y-120.65
X134.621Y-118.11
X135.891Y-120.65
X137.161Y-118.11
X138.431Y-120.65
X139.701Y-118.11
T3
X118.11Y-122.555
X120.65Y-122.555
X123.19Y-122.555
X118.11Y-117.475
X120.65Y-117.475
X123.19Y-117.475
X132.08Y-64.135
X134.62Y-64.135
X137.16Y-64.135
X139.7Y-64.135
X132.08Y-69.215
X134.62Y-69.215
X137.16Y-69.215
X139.7Y-69.215
T4
X118.11Y-131.318
X123.19Y-131.318
T5
X118.745Y-65.405
X118.745Y-106.045
T0
M30
