G04 #@! TF.GenerationSoftware,KiCad,Pcbnew,(5.1.6)-1*
G04 #@! TF.CreationDate,2023-01-22T16:57:25+01:00*
G04 #@! TF.ProjectId,testing-board,74657374-696e-4672-9d62-6f6172642e6b,rev?*
G04 #@! TF.SameCoordinates,Original*
G04 #@! TF.FileFunction,Copper,L2,Bot*
G04 #@! TF.FilePolarity,Positive*
%FSLAX46Y46*%
G04 Gerber Fmt 4.6, Leading zero omitted, Abs format (unit mm)*
G04 Created by KiCad (PCBNEW (5.1.6)-1) date 2023-01-22 16:57:25*
%MOMM*%
%LPD*%
G01*
G04 APERTURE LIST*
G04 #@! TA.AperFunction,ComponentPad*
%ADD10C,5.000000*%
G04 #@! TD*
G04 #@! TA.AperFunction,ComponentPad*
%ADD11C,0.800000*%
G04 #@! TD*
G04 #@! TA.AperFunction,SMDPad,CuDef*
%ADD12C,0.100000*%
G04 #@! TD*
G04 #@! TA.AperFunction,ComponentPad*
%ADD13O,2.100000X2.100000*%
G04 #@! TD*
G04 #@! TA.AperFunction,ComponentPad*
%ADD14R,2.100000X2.100000*%
G04 #@! TD*
G04 #@! TA.AperFunction,ComponentPad*
%ADD15R,3.500000X3.500000*%
G04 #@! TD*
G04 #@! TA.AperFunction,ComponentPad*
%ADD16C,3.500000*%
G04 #@! TD*
G04 #@! TA.AperFunction,ComponentPad*
%ADD17C,1.500000*%
G04 #@! TD*
G04 #@! TA.AperFunction,Conductor*
%ADD18C,0.500000*%
G04 #@! TD*
G04 #@! TA.AperFunction,Conductor*
%ADD19C,0.254000*%
G04 #@! TD*
G04 APERTURE END LIST*
D10*
X118745000Y-106045000D03*
X118745000Y-65405000D03*
D11*
X132080000Y-89535000D03*
X132080000Y-79375000D03*
X140970000Y-82296000D03*
X138430000Y-82296000D03*
X131445000Y-85725000D03*
X133350000Y-86360000D03*
X131445000Y-107315000D03*
X135255000Y-97790000D03*
X141605000Y-101600000D03*
X137160000Y-92710000D03*
X132715000Y-109855000D03*
X135255000Y-113030000D03*
X135255000Y-104140000D03*
X135255000Y-111125000D03*
G04 #@! TA.AperFunction,SMDPad,CuDef*
D12*
G36*
X136155000Y-94630000D02*
G01*
X134355000Y-94630000D01*
X134355000Y-93330000D01*
X136155000Y-93330000D01*
X136155000Y-94630000D01*
G37*
G04 #@! TD.AperFunction*
G04 #@! TA.AperFunction,SMDPad,CuDef*
G36*
X136155000Y-97170000D02*
G01*
X134355000Y-97170000D01*
X134355000Y-95870000D01*
X136155000Y-95870000D01*
X136155000Y-97170000D01*
G37*
G04 #@! TD.AperFunction*
G04 #@! TA.AperFunction,SMDPad,CuDef*
G36*
X136155000Y-107965000D02*
G01*
X134355000Y-107965000D01*
X134355000Y-106665000D01*
X136155000Y-106665000D01*
X136155000Y-107965000D01*
G37*
G04 #@! TD.AperFunction*
G04 #@! TA.AperFunction,SMDPad,CuDef*
G36*
X136155000Y-110505000D02*
G01*
X134355000Y-110505000D01*
X134355000Y-109205000D01*
X136155000Y-109205000D01*
X136155000Y-110505000D01*
G37*
G04 #@! TD.AperFunction*
G04 #@! TA.AperFunction,SMDPad,CuDef*
G36*
X129170000Y-113045000D02*
G01*
X127370000Y-113045000D01*
X127370000Y-111745000D01*
X129170000Y-111745000D01*
X129170000Y-113045000D01*
G37*
G04 #@! TD.AperFunction*
G04 #@! TA.AperFunction,SMDPad,CuDef*
G36*
X129170000Y-115585000D02*
G01*
X127370000Y-115585000D01*
X127370000Y-114285000D01*
X129170000Y-114285000D01*
X129170000Y-115585000D01*
G37*
G04 #@! TD.AperFunction*
G04 #@! TA.AperFunction,SMDPad,CuDef*
G36*
X132980000Y-113045000D02*
G01*
X131180000Y-113045000D01*
X131180000Y-111745000D01*
X132980000Y-111745000D01*
X132980000Y-113045000D01*
G37*
G04 #@! TD.AperFunction*
G04 #@! TA.AperFunction,SMDPad,CuDef*
G36*
X132980000Y-115585000D02*
G01*
X131180000Y-115585000D01*
X131180000Y-114285000D01*
X132980000Y-114285000D01*
X132980000Y-115585000D01*
G37*
G04 #@! TD.AperFunction*
G04 #@! TA.AperFunction,SMDPad,CuDef*
G36*
X139330000Y-113045000D02*
G01*
X137530000Y-113045000D01*
X137530000Y-111745000D01*
X139330000Y-111745000D01*
X139330000Y-113045000D01*
G37*
G04 #@! TD.AperFunction*
G04 #@! TA.AperFunction,SMDPad,CuDef*
G36*
X139330000Y-115585000D02*
G01*
X137530000Y-115585000D01*
X137530000Y-114285000D01*
X139330000Y-114285000D01*
X139330000Y-115585000D01*
G37*
G04 #@! TD.AperFunction*
G04 #@! TA.AperFunction,SMDPad,CuDef*
G36*
X143140000Y-113045000D02*
G01*
X141340000Y-113045000D01*
X141340000Y-111745000D01*
X143140000Y-111745000D01*
X143140000Y-113045000D01*
G37*
G04 #@! TD.AperFunction*
G04 #@! TA.AperFunction,SMDPad,CuDef*
G36*
X143140000Y-115585000D02*
G01*
X141340000Y-115585000D01*
X141340000Y-114285000D01*
X143140000Y-114285000D01*
X143140000Y-115585000D01*
G37*
G04 #@! TD.AperFunction*
D13*
X134620000Y-69215000D03*
X139700000Y-69215000D03*
D14*
X132080000Y-69215000D03*
D13*
X137160000Y-69215000D03*
X139700000Y-64135000D03*
X137160000Y-64135000D03*
X134620000Y-64135000D03*
D14*
X132080000Y-64135000D03*
X118110000Y-122555000D03*
D13*
X123190000Y-122555000D03*
X120650000Y-122555000D03*
D14*
X118110000Y-117475000D03*
D13*
X123190000Y-117475000D03*
X120650000Y-117475000D03*
D15*
X118110000Y-131318000D03*
D16*
X123190000Y-131318000D03*
D17*
X133351000Y-120650000D03*
X139701000Y-118110000D03*
X138431000Y-120650000D03*
X132081000Y-118110000D03*
X135891000Y-120650000D03*
X134621000Y-118110000D03*
X137161000Y-118110000D03*
X130811000Y-120650000D03*
G04 #@! TA.AperFunction,SMDPad,CuDef*
D12*
G36*
X140320000Y-84720000D02*
G01*
X140320000Y-82920000D01*
X141620000Y-82920000D01*
X141620000Y-84720000D01*
X140320000Y-84720000D01*
G37*
G04 #@! TD.AperFunction*
G04 #@! TA.AperFunction,SMDPad,CuDef*
G36*
X137780000Y-84720000D02*
G01*
X137780000Y-82920000D01*
X139080000Y-82920000D01*
X139080000Y-84720000D01*
X137780000Y-84720000D01*
G37*
G04 #@! TD.AperFunction*
G04 #@! TA.AperFunction,SMDPad,CuDef*
G36*
X140320000Y-81545000D02*
G01*
X140320000Y-79745000D01*
X141620000Y-79745000D01*
X141620000Y-81545000D01*
X140320000Y-81545000D01*
G37*
G04 #@! TD.AperFunction*
G04 #@! TA.AperFunction,SMDPad,CuDef*
G36*
X137780000Y-81545000D02*
G01*
X137780000Y-79745000D01*
X139080000Y-79745000D01*
X139080000Y-81545000D01*
X137780000Y-81545000D01*
G37*
G04 #@! TD.AperFunction*
D18*
X140970000Y-83820000D02*
X140970000Y-80645000D01*
X140335000Y-78740000D02*
X140970000Y-79375000D01*
X140970000Y-79375000D02*
X140970000Y-80645000D01*
X132080000Y-64135000D02*
X132080000Y-69215000D01*
X132715000Y-78740000D02*
X133096000Y-78740000D01*
X133096000Y-78740000D02*
X140335000Y-78740000D01*
X133096000Y-78740000D02*
X132334000Y-78740000D01*
X132080000Y-69215000D02*
X132080000Y-78486000D01*
X132080000Y-78486000D02*
X132080000Y-79375000D01*
X138430000Y-83820000D02*
X138430000Y-80645000D01*
X133351000Y-120650000D02*
X133351000Y-121919000D01*
X133351000Y-121919000D02*
X132715000Y-122555000D01*
X132715000Y-122555000D02*
X127635000Y-122555000D01*
X120650000Y-122555000D02*
X120650000Y-123825000D01*
X120650000Y-123825000D02*
X121285000Y-124460000D01*
X125730000Y-124460000D02*
X127635000Y-122555000D01*
X121285000Y-124460000D02*
X125730000Y-124460000D01*
X120650000Y-122555000D02*
X120650000Y-117475000D01*
X139701000Y-118110000D02*
X140970000Y-118110000D01*
X142240000Y-116840000D02*
X142240000Y-114935000D01*
X140970000Y-118110000D02*
X142240000Y-116840000D01*
X138430000Y-120649000D02*
X138431000Y-120650000D01*
X138430000Y-114935000D02*
X138430000Y-120649000D01*
X132080000Y-118109000D02*
X132081000Y-118110000D01*
X132080000Y-114935000D02*
X132080000Y-118109000D01*
X135891000Y-120650000D02*
X135891000Y-121919000D01*
X135891000Y-121919000D02*
X133985000Y-123825000D01*
X133985000Y-123825000D02*
X128270000Y-123825000D01*
X128270000Y-123825000D02*
X126365000Y-125730000D01*
X126365000Y-125730000D02*
X118745000Y-125730000D01*
X118110000Y-125095000D02*
X118110000Y-122555000D01*
X118745000Y-125730000D02*
X118110000Y-125095000D01*
X118110000Y-122555000D02*
X118110000Y-117475000D01*
X128270000Y-118109000D02*
X130811000Y-120650000D01*
X128270000Y-114935000D02*
X128270000Y-118109000D01*
X134620000Y-112395000D02*
X135255000Y-113030000D01*
X132080000Y-112395000D02*
X134620000Y-112395000D01*
X137160000Y-111125000D02*
X137160000Y-102870000D01*
X135255000Y-113030000D02*
X137160000Y-111125000D01*
X137160000Y-102870000D02*
X130810000Y-96520000D01*
X130810000Y-88900000D02*
X133350000Y-86360000D01*
X130810000Y-89916000D02*
X130810000Y-96520000D01*
X130810000Y-89916000D02*
X130810000Y-88900000D01*
X130810000Y-89535000D02*
X130810000Y-89916000D01*
X135255000Y-109855000D02*
X135255000Y-111125000D01*
X135255000Y-104140000D02*
X135255000Y-107315000D01*
X129540000Y-109855000D02*
X128270000Y-111125000D01*
X132715000Y-109855000D02*
X129540000Y-109855000D01*
X128270000Y-112395000D02*
X128270000Y-111125000D01*
X130810000Y-107315000D02*
X131445000Y-107315000D01*
X129222500Y-105727500D02*
X130810000Y-107315000D01*
X129222500Y-89217500D02*
X129222500Y-105727500D01*
X129222500Y-87947500D02*
X131445000Y-85725000D01*
X129222500Y-89217500D02*
X129222500Y-87947500D01*
X135255000Y-96520000D02*
X135255000Y-97790000D01*
X134620000Y-90170000D02*
X135255000Y-90805000D01*
X135255000Y-93980000D02*
X135255000Y-90805000D01*
X133985000Y-89535000D02*
X134620000Y-90170000D01*
X132080000Y-89535000D02*
X133985000Y-89535000D01*
X142240000Y-112395000D02*
X142240000Y-102235000D01*
X142240000Y-102235000D02*
X141605000Y-101600000D01*
X138430000Y-112395000D02*
X138430000Y-93980000D01*
X138430000Y-93980000D02*
X137160000Y-92710000D01*
D19*
G36*
X145288000Y-63224346D02*
G01*
X145061309Y-63182112D01*
X145001716Y-63176947D01*
X144942199Y-63170950D01*
X144932984Y-63170990D01*
X144932981Y-63170990D01*
X144624651Y-63174468D01*
X144565193Y-63180976D01*
X144505635Y-63186654D01*
X144496603Y-63188483D01*
X144194818Y-63251785D01*
X144137777Y-63269712D01*
X144080442Y-63286854D01*
X144071938Y-63290403D01*
X143788194Y-63411115D01*
X143735709Y-63439786D01*
X143682804Y-63467734D01*
X143675150Y-63472867D01*
X143420257Y-63646394D01*
X143374319Y-63684732D01*
X143327873Y-63722405D01*
X143321362Y-63728926D01*
X143105029Y-63948656D01*
X143067433Y-63995161D01*
X143029168Y-64041163D01*
X143024048Y-64048826D01*
X142854514Y-64306391D01*
X142826674Y-64359297D01*
X142798065Y-64411871D01*
X142794531Y-64420382D01*
X142678254Y-64705971D01*
X142661226Y-64763262D01*
X142643368Y-64820407D01*
X142641554Y-64829442D01*
X142582963Y-65132177D01*
X142577384Y-65191715D01*
X142570969Y-65251207D01*
X142570945Y-65260422D01*
X142572270Y-65568772D01*
X142578362Y-65628267D01*
X142583625Y-65687869D01*
X142585391Y-65696914D01*
X142646584Y-65999134D01*
X142664121Y-66056328D01*
X142680855Y-66113755D01*
X142684344Y-66122284D01*
X142803073Y-66406862D01*
X142831367Y-66459528D01*
X142858955Y-66512646D01*
X142864034Y-66520335D01*
X143035777Y-66776432D01*
X143073781Y-66822622D01*
X143111140Y-66869344D01*
X143117616Y-66875900D01*
X143335831Y-67093762D01*
X143382088Y-67131695D01*
X143427806Y-67170267D01*
X143435433Y-67175441D01*
X143691808Y-67346769D01*
X143744560Y-67374999D01*
X143796892Y-67403952D01*
X143805377Y-67407546D01*
X144090148Y-67525814D01*
X144147364Y-67543256D01*
X144204336Y-67561497D01*
X144213358Y-67563374D01*
X144515677Y-67624078D01*
X144575150Y-67630070D01*
X144634623Y-67636903D01*
X144643838Y-67636992D01*
X144952190Y-67637819D01*
X145011750Y-67632140D01*
X145071363Y-67627295D01*
X145080419Y-67625593D01*
X145288000Y-67585069D01*
X145288000Y-124983158D01*
X145259523Y-124992191D01*
X145204588Y-125015737D01*
X145149235Y-125038551D01*
X145141129Y-125042935D01*
X144884592Y-125183968D01*
X144835247Y-125217755D01*
X144785409Y-125250867D01*
X144778309Y-125256741D01*
X144554051Y-125444916D01*
X144512207Y-125487646D01*
X144469751Y-125529806D01*
X144463927Y-125536947D01*
X144280491Y-125765097D01*
X144247744Y-125815139D01*
X144214286Y-125864742D01*
X144209960Y-125872879D01*
X144074330Y-126132313D01*
X144051918Y-126187785D01*
X144028740Y-126242923D01*
X144026077Y-126251745D01*
X143943422Y-126532583D01*
X143932224Y-126591284D01*
X143920184Y-126649940D01*
X143919285Y-126659112D01*
X143892753Y-126950656D01*
X143893171Y-127010472D01*
X143892753Y-127070288D01*
X143893652Y-127079460D01*
X143924252Y-127370605D01*
X143936283Y-127429217D01*
X143947489Y-127487963D01*
X143950153Y-127496784D01*
X144036721Y-127776440D01*
X144059899Y-127831578D01*
X144082311Y-127887050D01*
X144086638Y-127895186D01*
X144225877Y-128152702D01*
X144259304Y-128202259D01*
X144292080Y-128252347D01*
X144297905Y-128259488D01*
X144484510Y-128485056D01*
X144526965Y-128527215D01*
X144568809Y-128569945D01*
X144575909Y-128575819D01*
X144802773Y-128760845D01*
X144852566Y-128793927D01*
X144901955Y-128827745D01*
X144910061Y-128832127D01*
X145168542Y-128969564D01*
X145223836Y-128992355D01*
X145278829Y-129015925D01*
X145287632Y-129018650D01*
X145288000Y-129018761D01*
X145288000Y-133858000D01*
X115697000Y-133858000D01*
X115697000Y-129568000D01*
X115721928Y-129568000D01*
X115721928Y-133068000D01*
X115734188Y-133192482D01*
X115770498Y-133312180D01*
X115829463Y-133422494D01*
X115908815Y-133519185D01*
X116005506Y-133598537D01*
X116115820Y-133657502D01*
X116235518Y-133693812D01*
X116360000Y-133706072D01*
X119860000Y-133706072D01*
X119984482Y-133693812D01*
X120104180Y-133657502D01*
X120214494Y-133598537D01*
X120311185Y-133519185D01*
X120390537Y-133422494D01*
X120449502Y-133312180D01*
X120485812Y-133192482D01*
X120498072Y-133068000D01*
X120498072Y-132987609D01*
X121699997Y-132987609D01*
X121886073Y-133328766D01*
X122303409Y-133544513D01*
X122754815Y-133674696D01*
X123222946Y-133714313D01*
X123689811Y-133661842D01*
X124137468Y-133519297D01*
X124493927Y-133328766D01*
X124680003Y-132987609D01*
X123190000Y-131497605D01*
X121699997Y-132987609D01*
X120498072Y-132987609D01*
X120498072Y-131350946D01*
X120793687Y-131350946D01*
X120846158Y-131817811D01*
X120988703Y-132265468D01*
X121179234Y-132621927D01*
X121520391Y-132808003D01*
X123010395Y-131318000D01*
X123369605Y-131318000D01*
X124859609Y-132808003D01*
X125200766Y-132621927D01*
X125416513Y-132204591D01*
X125546696Y-131753185D01*
X125586313Y-131285054D01*
X125533842Y-130818189D01*
X125391297Y-130370532D01*
X125200766Y-130014073D01*
X124859609Y-129827997D01*
X123369605Y-131318000D01*
X123010395Y-131318000D01*
X121520391Y-129827997D01*
X121179234Y-130014073D01*
X120963487Y-130431409D01*
X120833304Y-130882815D01*
X120793687Y-131350946D01*
X120498072Y-131350946D01*
X120498072Y-129648391D01*
X121699997Y-129648391D01*
X123190000Y-131138395D01*
X124680003Y-129648391D01*
X124493927Y-129307234D01*
X124076591Y-129091487D01*
X123625185Y-128961304D01*
X123157054Y-128921687D01*
X122690189Y-128974158D01*
X122242532Y-129116703D01*
X121886073Y-129307234D01*
X121699997Y-129648391D01*
X120498072Y-129648391D01*
X120498072Y-129568000D01*
X120485812Y-129443518D01*
X120449502Y-129323820D01*
X120390537Y-129213506D01*
X120311185Y-129116815D01*
X120214494Y-129037463D01*
X120104180Y-128978498D01*
X119984482Y-128942188D01*
X119860000Y-128929928D01*
X116360000Y-128929928D01*
X116235518Y-128942188D01*
X116115820Y-128978498D01*
X116005506Y-129037463D01*
X115908815Y-129116815D01*
X115829463Y-129213506D01*
X115770498Y-129323820D01*
X115734188Y-129443518D01*
X115721928Y-129568000D01*
X115697000Y-129568000D01*
X115697000Y-116425000D01*
X116421928Y-116425000D01*
X116421928Y-118525000D01*
X116434188Y-118649482D01*
X116470498Y-118769180D01*
X116529463Y-118879494D01*
X116608815Y-118976185D01*
X116705506Y-119055537D01*
X116815820Y-119114502D01*
X116935518Y-119150812D01*
X117060000Y-119163072D01*
X117225001Y-119163072D01*
X117225000Y-120866928D01*
X117060000Y-120866928D01*
X116935518Y-120879188D01*
X116815820Y-120915498D01*
X116705506Y-120974463D01*
X116608815Y-121053815D01*
X116529463Y-121150506D01*
X116470498Y-121260820D01*
X116434188Y-121380518D01*
X116421928Y-121505000D01*
X116421928Y-123605000D01*
X116434188Y-123729482D01*
X116470498Y-123849180D01*
X116529463Y-123959494D01*
X116608815Y-124056185D01*
X116705506Y-124135537D01*
X116815820Y-124194502D01*
X116935518Y-124230812D01*
X117060000Y-124243072D01*
X117225000Y-124243072D01*
X117225000Y-125051531D01*
X117220719Y-125095000D01*
X117225000Y-125138469D01*
X117225000Y-125138476D01*
X117236069Y-125250866D01*
X117237805Y-125268490D01*
X117241779Y-125281589D01*
X117288411Y-125435312D01*
X117370589Y-125589058D01*
X117481183Y-125723817D01*
X117514956Y-125751534D01*
X118088470Y-126325049D01*
X118116183Y-126358817D01*
X118149951Y-126386530D01*
X118149953Y-126386532D01*
X118250941Y-126469411D01*
X118404686Y-126551589D01*
X118530554Y-126589771D01*
X118571510Y-126602195D01*
X118701523Y-126615000D01*
X118701531Y-126615000D01*
X118745000Y-126619281D01*
X118788469Y-126615000D01*
X126321531Y-126615000D01*
X126365000Y-126619281D01*
X126408469Y-126615000D01*
X126408477Y-126615000D01*
X126538490Y-126602195D01*
X126705313Y-126551589D01*
X126859059Y-126469411D01*
X126993817Y-126358817D01*
X127021534Y-126325044D01*
X127685478Y-125661100D01*
X127514059Y-125917647D01*
X127341811Y-126333490D01*
X127254000Y-126774947D01*
X127254000Y-127225053D01*
X127341811Y-127666510D01*
X127514059Y-128082353D01*
X127764125Y-128456603D01*
X128082397Y-128774875D01*
X128456647Y-129024941D01*
X128872490Y-129197189D01*
X129313947Y-129285000D01*
X129764053Y-129285000D01*
X130205510Y-129197189D01*
X130621353Y-129024941D01*
X130995603Y-128774875D01*
X131313875Y-128456603D01*
X131563941Y-128082353D01*
X131736189Y-127666510D01*
X131824000Y-127225053D01*
X131824000Y-126774947D01*
X138686000Y-126774947D01*
X138686000Y-127225053D01*
X138773811Y-127666510D01*
X138946059Y-128082353D01*
X139196125Y-128456603D01*
X139514397Y-128774875D01*
X139888647Y-129024941D01*
X140304490Y-129197189D01*
X140745947Y-129285000D01*
X141196053Y-129285000D01*
X141637510Y-129197189D01*
X142053353Y-129024941D01*
X142427603Y-128774875D01*
X142745875Y-128456603D01*
X142995941Y-128082353D01*
X143168189Y-127666510D01*
X143256000Y-127225053D01*
X143256000Y-126774947D01*
X143168189Y-126333490D01*
X142995941Y-125917647D01*
X142745875Y-125543397D01*
X142427603Y-125225125D01*
X142053353Y-124975059D01*
X141637510Y-124802811D01*
X141196053Y-124715000D01*
X140745947Y-124715000D01*
X140304490Y-124802811D01*
X139888647Y-124975059D01*
X139514397Y-125225125D01*
X139196125Y-125543397D01*
X138946059Y-125917647D01*
X138773811Y-126333490D01*
X138686000Y-126774947D01*
X131824000Y-126774947D01*
X131736189Y-126333490D01*
X131563941Y-125917647D01*
X131313875Y-125543397D01*
X130995603Y-125225125D01*
X130621353Y-124975059D01*
X130205510Y-124802811D01*
X129764053Y-124715000D01*
X129313947Y-124715000D01*
X128872490Y-124802811D01*
X128456647Y-124975059D01*
X128200101Y-125146478D01*
X128636579Y-124710000D01*
X133941531Y-124710000D01*
X133985000Y-124714281D01*
X134028469Y-124710000D01*
X134028477Y-124710000D01*
X134158490Y-124697195D01*
X134325313Y-124646589D01*
X134479059Y-124564411D01*
X134613817Y-124453817D01*
X134641534Y-124420044D01*
X136486049Y-122575530D01*
X136519817Y-122547817D01*
X136549603Y-122511524D01*
X136630410Y-122413060D01*
X136643248Y-122389042D01*
X136712589Y-122259313D01*
X136763195Y-122092490D01*
X136776000Y-121962477D01*
X136776000Y-121962467D01*
X136780281Y-121919001D01*
X136776000Y-121875534D01*
X136776000Y-121723685D01*
X136966799Y-121532886D01*
X137118371Y-121306043D01*
X137161000Y-121203127D01*
X137203629Y-121306043D01*
X137355201Y-121532886D01*
X137548114Y-121725799D01*
X137774957Y-121877371D01*
X138027011Y-121981775D01*
X138294589Y-122035000D01*
X138567411Y-122035000D01*
X138834989Y-121981775D01*
X139087043Y-121877371D01*
X139313886Y-121725799D01*
X139506799Y-121532886D01*
X139658371Y-121306043D01*
X139762775Y-121053989D01*
X139816000Y-120786411D01*
X139816000Y-120513589D01*
X139762775Y-120246011D01*
X139658371Y-119993957D01*
X139506799Y-119767114D01*
X139315000Y-119575315D01*
X139315000Y-119445353D01*
X139564589Y-119495000D01*
X139837411Y-119495000D01*
X140104989Y-119441775D01*
X140357043Y-119337371D01*
X140583886Y-119185799D01*
X140774685Y-118995000D01*
X140926531Y-118995000D01*
X140970000Y-118999281D01*
X141013469Y-118995000D01*
X141013477Y-118995000D01*
X141143490Y-118982195D01*
X141310313Y-118931589D01*
X141464059Y-118849411D01*
X141598817Y-118738817D01*
X141626534Y-118705044D01*
X142835050Y-117496529D01*
X142868817Y-117468817D01*
X142979411Y-117334059D01*
X143061589Y-117180313D01*
X143112195Y-117013490D01*
X143125000Y-116883477D01*
X143125000Y-116883467D01*
X143129281Y-116840001D01*
X143125000Y-116796535D01*
X143125000Y-116223072D01*
X143140000Y-116223072D01*
X143264482Y-116210812D01*
X143384180Y-116174502D01*
X143494494Y-116115537D01*
X143591185Y-116036185D01*
X143670537Y-115939494D01*
X143729502Y-115829180D01*
X143765812Y-115709482D01*
X143778072Y-115585000D01*
X143778072Y-114285000D01*
X143765812Y-114160518D01*
X143729502Y-114040820D01*
X143670537Y-113930506D01*
X143591185Y-113833815D01*
X143494494Y-113754463D01*
X143384180Y-113695498D01*
X143283642Y-113665000D01*
X143384180Y-113634502D01*
X143494494Y-113575537D01*
X143591185Y-113496185D01*
X143670537Y-113399494D01*
X143729502Y-113289180D01*
X143765812Y-113169482D01*
X143778072Y-113045000D01*
X143778072Y-111745000D01*
X143765812Y-111620518D01*
X143729502Y-111500820D01*
X143670537Y-111390506D01*
X143591185Y-111293815D01*
X143494494Y-111214463D01*
X143384180Y-111155498D01*
X143264482Y-111119188D01*
X143140000Y-111106928D01*
X143125000Y-111106928D01*
X143125000Y-102278469D01*
X143129281Y-102235000D01*
X143125000Y-102191531D01*
X143125000Y-102191523D01*
X143112195Y-102061510D01*
X143075430Y-101940313D01*
X143061589Y-101894686D01*
X142979411Y-101740941D01*
X142896532Y-101639953D01*
X142896530Y-101639951D01*
X142868817Y-101606183D01*
X142835049Y-101578470D01*
X142611535Y-101354956D01*
X142600226Y-101298102D01*
X142522205Y-101109744D01*
X142408937Y-100940226D01*
X142264774Y-100796063D01*
X142095256Y-100682795D01*
X141906898Y-100604774D01*
X141706939Y-100565000D01*
X141503061Y-100565000D01*
X141303102Y-100604774D01*
X141114744Y-100682795D01*
X140945226Y-100796063D01*
X140801063Y-100940226D01*
X140687795Y-101109744D01*
X140609774Y-101298102D01*
X140570000Y-101498061D01*
X140570000Y-101701939D01*
X140609774Y-101901898D01*
X140687795Y-102090256D01*
X140801063Y-102259774D01*
X140945226Y-102403937D01*
X141114744Y-102517205D01*
X141303102Y-102595226D01*
X141355001Y-102605549D01*
X141355000Y-111106928D01*
X141340000Y-111106928D01*
X141215518Y-111119188D01*
X141095820Y-111155498D01*
X140985506Y-111214463D01*
X140888815Y-111293815D01*
X140809463Y-111390506D01*
X140750498Y-111500820D01*
X140714188Y-111620518D01*
X140701928Y-111745000D01*
X140701928Y-113045000D01*
X140714188Y-113169482D01*
X140750498Y-113289180D01*
X140809463Y-113399494D01*
X140888815Y-113496185D01*
X140985506Y-113575537D01*
X141095820Y-113634502D01*
X141196358Y-113665000D01*
X141095820Y-113695498D01*
X140985506Y-113754463D01*
X140888815Y-113833815D01*
X140809463Y-113930506D01*
X140750498Y-114040820D01*
X140714188Y-114160518D01*
X140701928Y-114285000D01*
X140701928Y-115585000D01*
X140714188Y-115709482D01*
X140750498Y-115829180D01*
X140809463Y-115939494D01*
X140888815Y-116036185D01*
X140985506Y-116115537D01*
X141095820Y-116174502D01*
X141215518Y-116210812D01*
X141340000Y-116223072D01*
X141355000Y-116223072D01*
X141355000Y-116473421D01*
X140689053Y-117139368D01*
X140583886Y-117034201D01*
X140357043Y-116882629D01*
X140104989Y-116778225D01*
X139837411Y-116725000D01*
X139564589Y-116725000D01*
X139315000Y-116774647D01*
X139315000Y-116223072D01*
X139330000Y-116223072D01*
X139454482Y-116210812D01*
X139574180Y-116174502D01*
X139684494Y-116115537D01*
X139781185Y-116036185D01*
X139860537Y-115939494D01*
X139919502Y-115829180D01*
X139955812Y-115709482D01*
X139968072Y-115585000D01*
X139968072Y-114285000D01*
X139955812Y-114160518D01*
X139919502Y-114040820D01*
X139860537Y-113930506D01*
X139781185Y-113833815D01*
X139684494Y-113754463D01*
X139574180Y-113695498D01*
X139473642Y-113665000D01*
X139574180Y-113634502D01*
X139684494Y-113575537D01*
X139781185Y-113496185D01*
X139860537Y-113399494D01*
X139919502Y-113289180D01*
X139955812Y-113169482D01*
X139968072Y-113045000D01*
X139968072Y-111745000D01*
X139955812Y-111620518D01*
X139919502Y-111500820D01*
X139860537Y-111390506D01*
X139781185Y-111293815D01*
X139684494Y-111214463D01*
X139574180Y-111155498D01*
X139454482Y-111119188D01*
X139330000Y-111106928D01*
X139315000Y-111106928D01*
X139315000Y-94023465D01*
X139319281Y-93979999D01*
X139315000Y-93936533D01*
X139315000Y-93936523D01*
X139302195Y-93806510D01*
X139251589Y-93639687D01*
X139169411Y-93485941D01*
X139058817Y-93351183D01*
X139025049Y-93323470D01*
X138166535Y-92464957D01*
X138155226Y-92408102D01*
X138077205Y-92219744D01*
X137963937Y-92050226D01*
X137819774Y-91906063D01*
X137650256Y-91792795D01*
X137461898Y-91714774D01*
X137261939Y-91675000D01*
X137058061Y-91675000D01*
X136858102Y-91714774D01*
X136669744Y-91792795D01*
X136500226Y-91906063D01*
X136356063Y-92050226D01*
X136242795Y-92219744D01*
X136164774Y-92408102D01*
X136140000Y-92532650D01*
X136140000Y-90848469D01*
X136144281Y-90805000D01*
X136140000Y-90761531D01*
X136140000Y-90761523D01*
X136127195Y-90631510D01*
X136100897Y-90544817D01*
X136076589Y-90464686D01*
X135994411Y-90310941D01*
X135911532Y-90209953D01*
X135911530Y-90209951D01*
X135883817Y-90176183D01*
X135850049Y-90148470D01*
X135276536Y-89574958D01*
X135276532Y-89574953D01*
X134641534Y-88939956D01*
X134613817Y-88906183D01*
X134479059Y-88795589D01*
X134325313Y-88713411D01*
X134158490Y-88662805D01*
X134028477Y-88650000D01*
X134028469Y-88650000D01*
X133985000Y-88645719D01*
X133941531Y-88650000D01*
X132618454Y-88650000D01*
X132570256Y-88617795D01*
X132410116Y-88551462D01*
X133595044Y-87366535D01*
X133651898Y-87355226D01*
X133840256Y-87277205D01*
X134009774Y-87163937D01*
X134153937Y-87019774D01*
X134267205Y-86850256D01*
X134345226Y-86661898D01*
X134385000Y-86461939D01*
X134385000Y-86258061D01*
X134345226Y-86058102D01*
X134267205Y-85869744D01*
X134153937Y-85700226D01*
X134009774Y-85556063D01*
X133840256Y-85442795D01*
X133651898Y-85364774D01*
X133451939Y-85325000D01*
X133248061Y-85325000D01*
X133048102Y-85364774D01*
X132859744Y-85442795D01*
X132690226Y-85556063D01*
X132546063Y-85700226D01*
X132480000Y-85799097D01*
X132480000Y-85623061D01*
X132440226Y-85423102D01*
X132362205Y-85234744D01*
X132248937Y-85065226D01*
X132104774Y-84921063D01*
X131935256Y-84807795D01*
X131746898Y-84729774D01*
X131546939Y-84690000D01*
X131343061Y-84690000D01*
X131143102Y-84729774D01*
X130954744Y-84807795D01*
X130785226Y-84921063D01*
X130641063Y-85065226D01*
X130527795Y-85234744D01*
X130449774Y-85423102D01*
X130438465Y-85479956D01*
X128627451Y-87290971D01*
X128593684Y-87318683D01*
X128565971Y-87352451D01*
X128565968Y-87352454D01*
X128483090Y-87453441D01*
X128400912Y-87607187D01*
X128350305Y-87774010D01*
X128333219Y-87947500D01*
X128337501Y-87990978D01*
X128337500Y-89174023D01*
X128337500Y-89174024D01*
X128337501Y-105684021D01*
X128333219Y-105727500D01*
X128350305Y-105900990D01*
X128400912Y-106067813D01*
X128483090Y-106221559D01*
X128565968Y-106322546D01*
X128565971Y-106322549D01*
X128593684Y-106356317D01*
X128627451Y-106384029D01*
X130153470Y-107910049D01*
X130181183Y-107943817D01*
X130214951Y-107971530D01*
X130214953Y-107971532D01*
X130286452Y-108030210D01*
X130315941Y-108054411D01*
X130469687Y-108136589D01*
X130636510Y-108187195D01*
X130766523Y-108200000D01*
X130766533Y-108200000D01*
X130809999Y-108204281D01*
X130853466Y-108200000D01*
X130906546Y-108200000D01*
X130954744Y-108232205D01*
X131143102Y-108310226D01*
X131343061Y-108350000D01*
X131546939Y-108350000D01*
X131746898Y-108310226D01*
X131935256Y-108232205D01*
X132104774Y-108118937D01*
X132248937Y-107974774D01*
X132362205Y-107805256D01*
X132440226Y-107616898D01*
X132480000Y-107416939D01*
X132480000Y-107213061D01*
X132440226Y-107013102D01*
X132362205Y-106824744D01*
X132248937Y-106655226D01*
X132104774Y-106511063D01*
X131935256Y-106397795D01*
X131746898Y-106319774D01*
X131546939Y-106280000D01*
X131343061Y-106280000D01*
X131143102Y-106319774D01*
X131088832Y-106342253D01*
X130107500Y-105360922D01*
X130107500Y-97059034D01*
X130153468Y-97115046D01*
X130153471Y-97115049D01*
X130181184Y-97148817D01*
X130214952Y-97176530D01*
X136275001Y-103236580D01*
X136275001Y-103962655D01*
X136250226Y-103838102D01*
X136172205Y-103649744D01*
X136058937Y-103480226D01*
X135914774Y-103336063D01*
X135745256Y-103222795D01*
X135556898Y-103144774D01*
X135356939Y-103105000D01*
X135153061Y-103105000D01*
X134953102Y-103144774D01*
X134764744Y-103222795D01*
X134595226Y-103336063D01*
X134451063Y-103480226D01*
X134337795Y-103649744D01*
X134259774Y-103838102D01*
X134220000Y-104038061D01*
X134220000Y-104241939D01*
X134259774Y-104441898D01*
X134337795Y-104630256D01*
X134370000Y-104678455D01*
X134370001Y-106026928D01*
X134355000Y-106026928D01*
X134230518Y-106039188D01*
X134110820Y-106075498D01*
X134000506Y-106134463D01*
X133903815Y-106213815D01*
X133824463Y-106310506D01*
X133765498Y-106420820D01*
X133729188Y-106540518D01*
X133716928Y-106665000D01*
X133716928Y-107965000D01*
X133729188Y-108089482D01*
X133765498Y-108209180D01*
X133824463Y-108319494D01*
X133903815Y-108416185D01*
X134000506Y-108495537D01*
X134110820Y-108554502D01*
X134211358Y-108585000D01*
X134110820Y-108615498D01*
X134000506Y-108674463D01*
X133903815Y-108753815D01*
X133824463Y-108850506D01*
X133765498Y-108960820D01*
X133729188Y-109080518D01*
X133716928Y-109205000D01*
X133716928Y-109586795D01*
X133710226Y-109553102D01*
X133632205Y-109364744D01*
X133518937Y-109195226D01*
X133374774Y-109051063D01*
X133205256Y-108937795D01*
X133016898Y-108859774D01*
X132816939Y-108820000D01*
X132613061Y-108820000D01*
X132413102Y-108859774D01*
X132224744Y-108937795D01*
X132176546Y-108970000D01*
X129583465Y-108970000D01*
X129539999Y-108965719D01*
X129496533Y-108970000D01*
X129496523Y-108970000D01*
X129366510Y-108982805D01*
X129199687Y-109033411D01*
X129045941Y-109115589D01*
X129045939Y-109115590D01*
X129045940Y-109115590D01*
X128944953Y-109198468D01*
X128944951Y-109198470D01*
X128911183Y-109226183D01*
X128883470Y-109259951D01*
X127674951Y-110468471D01*
X127641184Y-110496183D01*
X127613471Y-110529951D01*
X127613468Y-110529954D01*
X127530590Y-110630941D01*
X127448412Y-110784687D01*
X127397805Y-110951510D01*
X127382499Y-111106928D01*
X127370000Y-111106928D01*
X127245518Y-111119188D01*
X127125820Y-111155498D01*
X127015506Y-111214463D01*
X126918815Y-111293815D01*
X126839463Y-111390506D01*
X126780498Y-111500820D01*
X126744188Y-111620518D01*
X126731928Y-111745000D01*
X126731928Y-113045000D01*
X126744188Y-113169482D01*
X126780498Y-113289180D01*
X126839463Y-113399494D01*
X126918815Y-113496185D01*
X127015506Y-113575537D01*
X127125820Y-113634502D01*
X127226358Y-113665000D01*
X127125820Y-113695498D01*
X127015506Y-113754463D01*
X126918815Y-113833815D01*
X126839463Y-113930506D01*
X126780498Y-114040820D01*
X126744188Y-114160518D01*
X126731928Y-114285000D01*
X126731928Y-115585000D01*
X126744188Y-115709482D01*
X126780498Y-115829180D01*
X126839463Y-115939494D01*
X126918815Y-116036185D01*
X127015506Y-116115537D01*
X127125820Y-116174502D01*
X127245518Y-116210812D01*
X127370000Y-116223072D01*
X127385000Y-116223072D01*
X127385001Y-118065521D01*
X127380719Y-118109000D01*
X127397805Y-118282490D01*
X127448412Y-118449313D01*
X127530590Y-118603059D01*
X127613468Y-118704046D01*
X127613471Y-118704049D01*
X127641184Y-118737817D01*
X127674951Y-118765529D01*
X129426000Y-120516579D01*
X129426000Y-120786411D01*
X129479225Y-121053989D01*
X129583629Y-121306043D01*
X129735201Y-121532886D01*
X129872315Y-121670000D01*
X127678469Y-121670000D01*
X127635000Y-121665719D01*
X127591531Y-121670000D01*
X127591523Y-121670000D01*
X127461510Y-121682805D01*
X127294687Y-121733411D01*
X127250830Y-121756853D01*
X127140941Y-121815589D01*
X127039953Y-121898468D01*
X127039951Y-121898470D01*
X127006183Y-121926183D01*
X126978470Y-121959951D01*
X125363422Y-123575000D01*
X124534990Y-123575000D01*
X124683228Y-123353147D01*
X124810246Y-123046496D01*
X124875000Y-122720958D01*
X124875000Y-122389042D01*
X124810246Y-122063504D01*
X124683228Y-121756853D01*
X124498825Y-121480875D01*
X124264125Y-121246175D01*
X123988147Y-121061772D01*
X123681496Y-120934754D01*
X123355958Y-120870000D01*
X123024042Y-120870000D01*
X122698504Y-120934754D01*
X122391853Y-121061772D01*
X122115875Y-121246175D01*
X121920000Y-121442050D01*
X121724125Y-121246175D01*
X121535000Y-121119805D01*
X121535000Y-118910195D01*
X121724125Y-118783825D01*
X121920000Y-118587950D01*
X122115875Y-118783825D01*
X122391853Y-118968228D01*
X122698504Y-119095246D01*
X123024042Y-119160000D01*
X123355958Y-119160000D01*
X123681496Y-119095246D01*
X123988147Y-118968228D01*
X124264125Y-118783825D01*
X124498825Y-118549125D01*
X124683228Y-118273147D01*
X124810246Y-117966496D01*
X124875000Y-117640958D01*
X124875000Y-117309042D01*
X124810246Y-116983504D01*
X124683228Y-116676853D01*
X124498825Y-116400875D01*
X124264125Y-116166175D01*
X123988147Y-115981772D01*
X123681496Y-115854754D01*
X123355958Y-115790000D01*
X123024042Y-115790000D01*
X122698504Y-115854754D01*
X122391853Y-115981772D01*
X122115875Y-116166175D01*
X121920000Y-116362050D01*
X121724125Y-116166175D01*
X121448147Y-115981772D01*
X121141496Y-115854754D01*
X120815958Y-115790000D01*
X120484042Y-115790000D01*
X120158504Y-115854754D01*
X119851853Y-115981772D01*
X119698042Y-116084546D01*
X119690537Y-116070506D01*
X119611185Y-115973815D01*
X119514494Y-115894463D01*
X119404180Y-115835498D01*
X119284482Y-115799188D01*
X119160000Y-115786928D01*
X117060000Y-115786928D01*
X116935518Y-115799188D01*
X116815820Y-115835498D01*
X116705506Y-115894463D01*
X116608815Y-115973815D01*
X116529463Y-116070506D01*
X116470498Y-116180820D01*
X116434188Y-116300518D01*
X116421928Y-116425000D01*
X115697000Y-116425000D01*
X115697000Y-106791150D01*
X115730476Y-106959446D01*
X115966799Y-107529979D01*
X116309886Y-108043446D01*
X116746554Y-108480114D01*
X117260021Y-108823201D01*
X117830554Y-109059524D01*
X118436229Y-109180000D01*
X119053771Y-109180000D01*
X119659446Y-109059524D01*
X120229979Y-108823201D01*
X120743446Y-108480114D01*
X121180114Y-108043446D01*
X121523201Y-107529979D01*
X121759524Y-106959446D01*
X121880000Y-106353771D01*
X121880000Y-105736229D01*
X121759524Y-105130554D01*
X121523201Y-104560021D01*
X121180114Y-104046554D01*
X120743446Y-103609886D01*
X120229979Y-103266799D01*
X119659446Y-103030476D01*
X119053771Y-102910000D01*
X118436229Y-102910000D01*
X117830554Y-103030476D01*
X117260021Y-103266799D01*
X116746554Y-103609886D01*
X116309886Y-104046554D01*
X115966799Y-104560021D01*
X115730476Y-105130554D01*
X115697000Y-105298850D01*
X115697000Y-80081441D01*
X131553164Y-80081441D01*
X131576019Y-80284736D01*
X131763184Y-80365577D01*
X131962523Y-80408351D01*
X132166377Y-80411413D01*
X132366912Y-80374647D01*
X132556420Y-80299466D01*
X132583981Y-80284736D01*
X132606836Y-80081441D01*
X132080000Y-79554605D01*
X131553164Y-80081441D01*
X115697000Y-80081441D01*
X115697000Y-79461377D01*
X131043587Y-79461377D01*
X131080353Y-79661912D01*
X131155534Y-79851420D01*
X131170264Y-79878981D01*
X131373559Y-79901836D01*
X131900395Y-79375000D01*
X132259605Y-79375000D01*
X132786441Y-79901836D01*
X132989736Y-79878981D01*
X133047605Y-79745000D01*
X137141928Y-79745000D01*
X137141928Y-81545000D01*
X137154188Y-81669482D01*
X137190498Y-81789180D01*
X137249463Y-81899494D01*
X137328815Y-81996185D01*
X137419548Y-82070648D01*
X137395000Y-82194061D01*
X137395000Y-82397939D01*
X137397832Y-82412175D01*
X137328815Y-82468815D01*
X137249463Y-82565506D01*
X137190498Y-82675820D01*
X137154188Y-82795518D01*
X137141928Y-82920000D01*
X137141928Y-84720000D01*
X137154188Y-84844482D01*
X137190498Y-84964180D01*
X137249463Y-85074494D01*
X137328815Y-85171185D01*
X137425506Y-85250537D01*
X137535820Y-85309502D01*
X137655518Y-85345812D01*
X137780000Y-85358072D01*
X139080000Y-85358072D01*
X139204482Y-85345812D01*
X139324180Y-85309502D01*
X139434494Y-85250537D01*
X139531185Y-85171185D01*
X139610537Y-85074494D01*
X139669502Y-84964180D01*
X139700000Y-84863642D01*
X139730498Y-84964180D01*
X139789463Y-85074494D01*
X139868815Y-85171185D01*
X139965506Y-85250537D01*
X140075820Y-85309502D01*
X140195518Y-85345812D01*
X140320000Y-85358072D01*
X140843000Y-85358072D01*
X140843000Y-83947000D01*
X141097000Y-83947000D01*
X141097000Y-85358072D01*
X141620000Y-85358072D01*
X141744482Y-85345812D01*
X141864180Y-85309502D01*
X141974494Y-85250537D01*
X142071185Y-85171185D01*
X142150537Y-85074494D01*
X142209502Y-84964180D01*
X142245812Y-84844482D01*
X142258072Y-84720000D01*
X142258072Y-83947000D01*
X141097000Y-83947000D01*
X140843000Y-83947000D01*
X140823000Y-83947000D01*
X140823000Y-83693000D01*
X140843000Y-83693000D01*
X140843000Y-83327308D01*
X140852523Y-83329351D01*
X141056377Y-83332413D01*
X141097000Y-83324965D01*
X141097000Y-83693000D01*
X142258072Y-83693000D01*
X142258072Y-82920000D01*
X142245812Y-82795518D01*
X142209502Y-82675820D01*
X142150537Y-82565506D01*
X142071185Y-82468815D01*
X142003356Y-82413149D01*
X142006413Y-82209623D01*
X141980870Y-82070304D01*
X142071185Y-81996185D01*
X142150537Y-81899494D01*
X142209502Y-81789180D01*
X142245812Y-81669482D01*
X142258072Y-81545000D01*
X142258072Y-80772000D01*
X141097000Y-80772000D01*
X141097000Y-81264692D01*
X141087477Y-81262649D01*
X140883623Y-81259587D01*
X140843000Y-81267035D01*
X140843000Y-80772000D01*
X140823000Y-80772000D01*
X140823000Y-80518000D01*
X140843000Y-80518000D01*
X140843000Y-79106928D01*
X141097000Y-79106928D01*
X141097000Y-80518000D01*
X142258072Y-80518000D01*
X142258072Y-79745000D01*
X142245812Y-79620518D01*
X142209502Y-79500820D01*
X142150537Y-79390506D01*
X142071185Y-79293815D01*
X141974494Y-79214463D01*
X141864180Y-79155498D01*
X141744482Y-79119188D01*
X141620000Y-79106928D01*
X141097000Y-79106928D01*
X140843000Y-79106928D01*
X140320000Y-79106928D01*
X140195518Y-79119188D01*
X140075820Y-79155498D01*
X139965506Y-79214463D01*
X139868815Y-79293815D01*
X139789463Y-79390506D01*
X139730498Y-79500820D01*
X139700000Y-79601358D01*
X139669502Y-79500820D01*
X139610537Y-79390506D01*
X139531185Y-79293815D01*
X139434494Y-79214463D01*
X139324180Y-79155498D01*
X139204482Y-79119188D01*
X139080000Y-79106928D01*
X137780000Y-79106928D01*
X137655518Y-79119188D01*
X137535820Y-79155498D01*
X137425506Y-79214463D01*
X137328815Y-79293815D01*
X137249463Y-79390506D01*
X137190498Y-79500820D01*
X137154188Y-79620518D01*
X137141928Y-79745000D01*
X133047605Y-79745000D01*
X133070577Y-79691816D01*
X133113351Y-79492477D01*
X133116413Y-79288623D01*
X133079647Y-79088088D01*
X133004466Y-78898580D01*
X132989736Y-78871019D01*
X132786441Y-78848164D01*
X132259605Y-79375000D01*
X131900395Y-79375000D01*
X131373559Y-78848164D01*
X131170264Y-78871019D01*
X131089423Y-79058184D01*
X131046649Y-79257523D01*
X131043587Y-79461377D01*
X115697000Y-79461377D01*
X115697000Y-78668559D01*
X131553164Y-78668559D01*
X132080000Y-79195395D01*
X132606836Y-78668559D01*
X132583981Y-78465264D01*
X132396816Y-78384423D01*
X132197477Y-78341649D01*
X131993623Y-78338587D01*
X131793088Y-78375353D01*
X131603580Y-78450534D01*
X131576019Y-78465264D01*
X131553164Y-78668559D01*
X115697000Y-78668559D01*
X115697000Y-70265000D01*
X130391928Y-70265000D01*
X130404188Y-70389482D01*
X130440498Y-70509180D01*
X130499463Y-70619494D01*
X130578815Y-70716185D01*
X130675506Y-70795537D01*
X130785820Y-70854502D01*
X130905518Y-70890812D01*
X131030000Y-70903072D01*
X131794250Y-70900000D01*
X131953000Y-70741250D01*
X131953000Y-69342000D01*
X130553750Y-69342000D01*
X130395000Y-69500750D01*
X130391928Y-70265000D01*
X115697000Y-70265000D01*
X115697000Y-66151150D01*
X115730476Y-66319446D01*
X115966799Y-66889979D01*
X116309886Y-67403446D01*
X116746554Y-67840114D01*
X117260021Y-68183201D01*
X117830554Y-68419524D01*
X118436229Y-68540000D01*
X119053771Y-68540000D01*
X119659446Y-68419524D01*
X120229979Y-68183201D01*
X120257218Y-68165000D01*
X130391928Y-68165000D01*
X130395000Y-68929250D01*
X130553750Y-69088000D01*
X131953000Y-69088000D01*
X131953000Y-67688750D01*
X132207000Y-67688750D01*
X132207000Y-69088000D01*
X132227000Y-69088000D01*
X132227000Y-69342000D01*
X132207000Y-69342000D01*
X132207000Y-70741250D01*
X132365750Y-70900000D01*
X133130000Y-70903072D01*
X133254482Y-70890812D01*
X133374180Y-70854502D01*
X133484494Y-70795537D01*
X133581185Y-70716185D01*
X133660537Y-70619494D01*
X133668042Y-70605454D01*
X133821853Y-70708228D01*
X134128504Y-70835246D01*
X134454042Y-70900000D01*
X134785958Y-70900000D01*
X135111496Y-70835246D01*
X135418147Y-70708228D01*
X135694125Y-70523825D01*
X135890000Y-70327950D01*
X136085875Y-70523825D01*
X136361853Y-70708228D01*
X136668504Y-70835246D01*
X136994042Y-70900000D01*
X137325958Y-70900000D01*
X137651496Y-70835246D01*
X137958147Y-70708228D01*
X138234125Y-70523825D01*
X138430000Y-70327950D01*
X138625875Y-70523825D01*
X138901853Y-70708228D01*
X139208504Y-70835246D01*
X139534042Y-70900000D01*
X139865958Y-70900000D01*
X140191496Y-70835246D01*
X140498147Y-70708228D01*
X140774125Y-70523825D01*
X141008825Y-70289125D01*
X141193228Y-70013147D01*
X141320246Y-69706496D01*
X141385000Y-69380958D01*
X141385000Y-69049042D01*
X141320246Y-68723504D01*
X141193228Y-68416853D01*
X141008825Y-68140875D01*
X140774125Y-67906175D01*
X140498147Y-67721772D01*
X140191496Y-67594754D01*
X139865958Y-67530000D01*
X139534042Y-67530000D01*
X139208504Y-67594754D01*
X138901853Y-67721772D01*
X138625875Y-67906175D01*
X138430000Y-68102050D01*
X138234125Y-67906175D01*
X137958147Y-67721772D01*
X137651496Y-67594754D01*
X137325958Y-67530000D01*
X136994042Y-67530000D01*
X136668504Y-67594754D01*
X136361853Y-67721772D01*
X136085875Y-67906175D01*
X135890000Y-68102050D01*
X135694125Y-67906175D01*
X135418147Y-67721772D01*
X135111496Y-67594754D01*
X134785958Y-67530000D01*
X134454042Y-67530000D01*
X134128504Y-67594754D01*
X133821853Y-67721772D01*
X133668042Y-67824546D01*
X133660537Y-67810506D01*
X133581185Y-67713815D01*
X133484494Y-67634463D01*
X133374180Y-67575498D01*
X133254482Y-67539188D01*
X133130000Y-67526928D01*
X132365750Y-67530000D01*
X132207000Y-67688750D01*
X131953000Y-67688750D01*
X131794250Y-67530000D01*
X131030000Y-67526928D01*
X130905518Y-67539188D01*
X130785820Y-67575498D01*
X130675506Y-67634463D01*
X130578815Y-67713815D01*
X130499463Y-67810506D01*
X130440498Y-67920820D01*
X130404188Y-68040518D01*
X130391928Y-68165000D01*
X120257218Y-68165000D01*
X120743446Y-67840114D01*
X121180114Y-67403446D01*
X121523201Y-66889979D01*
X121759524Y-66319446D01*
X121880000Y-65713771D01*
X121880000Y-65185000D01*
X130391928Y-65185000D01*
X130404188Y-65309482D01*
X130440498Y-65429180D01*
X130499463Y-65539494D01*
X130578815Y-65636185D01*
X130675506Y-65715537D01*
X130785820Y-65774502D01*
X130905518Y-65810812D01*
X131030000Y-65823072D01*
X131794250Y-65820000D01*
X131953000Y-65661250D01*
X131953000Y-64262000D01*
X130553750Y-64262000D01*
X130395000Y-64420750D01*
X130391928Y-65185000D01*
X121880000Y-65185000D01*
X121880000Y-65096229D01*
X121759524Y-64490554D01*
X121523201Y-63920021D01*
X121180114Y-63406554D01*
X120858560Y-63085000D01*
X130391928Y-63085000D01*
X130395000Y-63849250D01*
X130553750Y-64008000D01*
X131953000Y-64008000D01*
X131953000Y-62608750D01*
X132207000Y-62608750D01*
X132207000Y-64008000D01*
X132227000Y-64008000D01*
X132227000Y-64262000D01*
X132207000Y-64262000D01*
X132207000Y-65661250D01*
X132365750Y-65820000D01*
X133130000Y-65823072D01*
X133254482Y-65810812D01*
X133374180Y-65774502D01*
X133484494Y-65715537D01*
X133581185Y-65636185D01*
X133660537Y-65539494D01*
X133668042Y-65525454D01*
X133821853Y-65628228D01*
X134128504Y-65755246D01*
X134454042Y-65820000D01*
X134785958Y-65820000D01*
X135111496Y-65755246D01*
X135418147Y-65628228D01*
X135694125Y-65443825D01*
X135890000Y-65247950D01*
X136085875Y-65443825D01*
X136361853Y-65628228D01*
X136668504Y-65755246D01*
X136994042Y-65820000D01*
X137325958Y-65820000D01*
X137651496Y-65755246D01*
X137958147Y-65628228D01*
X138234125Y-65443825D01*
X138430000Y-65247950D01*
X138625875Y-65443825D01*
X138901853Y-65628228D01*
X139208504Y-65755246D01*
X139534042Y-65820000D01*
X139865958Y-65820000D01*
X140191496Y-65755246D01*
X140498147Y-65628228D01*
X140774125Y-65443825D01*
X141008825Y-65209125D01*
X141193228Y-64933147D01*
X141320246Y-64626496D01*
X141385000Y-64300958D01*
X141385000Y-63969042D01*
X141320246Y-63643504D01*
X141193228Y-63336853D01*
X141008825Y-63060875D01*
X140774125Y-62826175D01*
X140498147Y-62641772D01*
X140191496Y-62514754D01*
X139865958Y-62450000D01*
X139534042Y-62450000D01*
X139208504Y-62514754D01*
X138901853Y-62641772D01*
X138625875Y-62826175D01*
X138430000Y-63022050D01*
X138234125Y-62826175D01*
X137958147Y-62641772D01*
X137651496Y-62514754D01*
X137325958Y-62450000D01*
X136994042Y-62450000D01*
X136668504Y-62514754D01*
X136361853Y-62641772D01*
X136085875Y-62826175D01*
X135890000Y-63022050D01*
X135694125Y-62826175D01*
X135418147Y-62641772D01*
X135111496Y-62514754D01*
X134785958Y-62450000D01*
X134454042Y-62450000D01*
X134128504Y-62514754D01*
X133821853Y-62641772D01*
X133668042Y-62744546D01*
X133660537Y-62730506D01*
X133581185Y-62633815D01*
X133484494Y-62554463D01*
X133374180Y-62495498D01*
X133254482Y-62459188D01*
X133130000Y-62446928D01*
X132365750Y-62450000D01*
X132207000Y-62608750D01*
X131953000Y-62608750D01*
X131794250Y-62450000D01*
X131030000Y-62446928D01*
X130905518Y-62459188D01*
X130785820Y-62495498D01*
X130675506Y-62554463D01*
X130578815Y-62633815D01*
X130499463Y-62730506D01*
X130440498Y-62840820D01*
X130404188Y-62960518D01*
X130391928Y-63085000D01*
X120858560Y-63085000D01*
X120743446Y-62969886D01*
X120229979Y-62626799D01*
X119659446Y-62390476D01*
X119491150Y-62357000D01*
X145288000Y-62357000D01*
X145288000Y-63224346D01*
G37*
X145288000Y-63224346D02*
X145061309Y-63182112D01*
X145001716Y-63176947D01*
X144942199Y-63170950D01*
X144932984Y-63170990D01*
X144932981Y-63170990D01*
X144624651Y-63174468D01*
X144565193Y-63180976D01*
X144505635Y-63186654D01*
X144496603Y-63188483D01*
X144194818Y-63251785D01*
X144137777Y-63269712D01*
X144080442Y-63286854D01*
X144071938Y-63290403D01*
X143788194Y-63411115D01*
X143735709Y-63439786D01*
X143682804Y-63467734D01*
X143675150Y-63472867D01*
X143420257Y-63646394D01*
X143374319Y-63684732D01*
X143327873Y-63722405D01*
X143321362Y-63728926D01*
X143105029Y-63948656D01*
X143067433Y-63995161D01*
X143029168Y-64041163D01*
X143024048Y-64048826D01*
X142854514Y-64306391D01*
X142826674Y-64359297D01*
X142798065Y-64411871D01*
X142794531Y-64420382D01*
X142678254Y-64705971D01*
X142661226Y-64763262D01*
X142643368Y-64820407D01*
X142641554Y-64829442D01*
X142582963Y-65132177D01*
X142577384Y-65191715D01*
X142570969Y-65251207D01*
X142570945Y-65260422D01*
X142572270Y-65568772D01*
X142578362Y-65628267D01*
X142583625Y-65687869D01*
X142585391Y-65696914D01*
X142646584Y-65999134D01*
X142664121Y-66056328D01*
X142680855Y-66113755D01*
X142684344Y-66122284D01*
X142803073Y-66406862D01*
X142831367Y-66459528D01*
X142858955Y-66512646D01*
X142864034Y-66520335D01*
X143035777Y-66776432D01*
X143073781Y-66822622D01*
X143111140Y-66869344D01*
X143117616Y-66875900D01*
X143335831Y-67093762D01*
X143382088Y-67131695D01*
X143427806Y-67170267D01*
X143435433Y-67175441D01*
X143691808Y-67346769D01*
X143744560Y-67374999D01*
X143796892Y-67403952D01*
X143805377Y-67407546D01*
X144090148Y-67525814D01*
X144147364Y-67543256D01*
X144204336Y-67561497D01*
X144213358Y-67563374D01*
X144515677Y-67624078D01*
X144575150Y-67630070D01*
X144634623Y-67636903D01*
X144643838Y-67636992D01*
X144952190Y-67637819D01*
X145011750Y-67632140D01*
X145071363Y-67627295D01*
X145080419Y-67625593D01*
X145288000Y-67585069D01*
X145288000Y-124983158D01*
X145259523Y-124992191D01*
X145204588Y-125015737D01*
X145149235Y-125038551D01*
X145141129Y-125042935D01*
X144884592Y-125183968D01*
X144835247Y-125217755D01*
X144785409Y-125250867D01*
X144778309Y-125256741D01*
X144554051Y-125444916D01*
X144512207Y-125487646D01*
X144469751Y-125529806D01*
X144463927Y-125536947D01*
X144280491Y-125765097D01*
X144247744Y-125815139D01*
X144214286Y-125864742D01*
X144209960Y-125872879D01*
X144074330Y-126132313D01*
X144051918Y-126187785D01*
X144028740Y-126242923D01*
X144026077Y-126251745D01*
X143943422Y-126532583D01*
X143932224Y-126591284D01*
X143920184Y-126649940D01*
X143919285Y-126659112D01*
X143892753Y-126950656D01*
X143893171Y-127010472D01*
X143892753Y-127070288D01*
X143893652Y-127079460D01*
X143924252Y-127370605D01*
X143936283Y-127429217D01*
X143947489Y-127487963D01*
X143950153Y-127496784D01*
X144036721Y-127776440D01*
X144059899Y-127831578D01*
X144082311Y-127887050D01*
X144086638Y-127895186D01*
X144225877Y-128152702D01*
X144259304Y-128202259D01*
X144292080Y-128252347D01*
X144297905Y-128259488D01*
X144484510Y-128485056D01*
X144526965Y-128527215D01*
X144568809Y-128569945D01*
X144575909Y-128575819D01*
X144802773Y-128760845D01*
X144852566Y-128793927D01*
X144901955Y-128827745D01*
X144910061Y-128832127D01*
X145168542Y-128969564D01*
X145223836Y-128992355D01*
X145278829Y-129015925D01*
X145287632Y-129018650D01*
X145288000Y-129018761D01*
X145288000Y-133858000D01*
X115697000Y-133858000D01*
X115697000Y-129568000D01*
X115721928Y-129568000D01*
X115721928Y-133068000D01*
X115734188Y-133192482D01*
X115770498Y-133312180D01*
X115829463Y-133422494D01*
X115908815Y-133519185D01*
X116005506Y-133598537D01*
X116115820Y-133657502D01*
X116235518Y-133693812D01*
X116360000Y-133706072D01*
X119860000Y-133706072D01*
X119984482Y-133693812D01*
X120104180Y-133657502D01*
X120214494Y-133598537D01*
X120311185Y-133519185D01*
X120390537Y-133422494D01*
X120449502Y-133312180D01*
X120485812Y-133192482D01*
X120498072Y-133068000D01*
X120498072Y-132987609D01*
X121699997Y-132987609D01*
X121886073Y-133328766D01*
X122303409Y-133544513D01*
X122754815Y-133674696D01*
X123222946Y-133714313D01*
X123689811Y-133661842D01*
X124137468Y-133519297D01*
X124493927Y-133328766D01*
X124680003Y-132987609D01*
X123190000Y-131497605D01*
X121699997Y-132987609D01*
X120498072Y-132987609D01*
X120498072Y-131350946D01*
X120793687Y-131350946D01*
X120846158Y-131817811D01*
X120988703Y-132265468D01*
X121179234Y-132621927D01*
X121520391Y-132808003D01*
X123010395Y-131318000D01*
X123369605Y-131318000D01*
X124859609Y-132808003D01*
X125200766Y-132621927D01*
X125416513Y-132204591D01*
X125546696Y-131753185D01*
X125586313Y-131285054D01*
X125533842Y-130818189D01*
X125391297Y-130370532D01*
X125200766Y-130014073D01*
X124859609Y-129827997D01*
X123369605Y-131318000D01*
X123010395Y-131318000D01*
X121520391Y-129827997D01*
X121179234Y-130014073D01*
X120963487Y-130431409D01*
X120833304Y-130882815D01*
X120793687Y-131350946D01*
X120498072Y-131350946D01*
X120498072Y-129648391D01*
X121699997Y-129648391D01*
X123190000Y-131138395D01*
X124680003Y-129648391D01*
X124493927Y-129307234D01*
X124076591Y-129091487D01*
X123625185Y-128961304D01*
X123157054Y-128921687D01*
X122690189Y-128974158D01*
X122242532Y-129116703D01*
X121886073Y-129307234D01*
X121699997Y-129648391D01*
X120498072Y-129648391D01*
X120498072Y-129568000D01*
X120485812Y-129443518D01*
X120449502Y-129323820D01*
X120390537Y-129213506D01*
X120311185Y-129116815D01*
X120214494Y-129037463D01*
X120104180Y-128978498D01*
X119984482Y-128942188D01*
X119860000Y-128929928D01*
X116360000Y-128929928D01*
X116235518Y-128942188D01*
X116115820Y-128978498D01*
X116005506Y-129037463D01*
X115908815Y-129116815D01*
X115829463Y-129213506D01*
X115770498Y-129323820D01*
X115734188Y-129443518D01*
X115721928Y-129568000D01*
X115697000Y-129568000D01*
X115697000Y-116425000D01*
X116421928Y-116425000D01*
X116421928Y-118525000D01*
X116434188Y-118649482D01*
X116470498Y-118769180D01*
X116529463Y-118879494D01*
X116608815Y-118976185D01*
X116705506Y-119055537D01*
X116815820Y-119114502D01*
X116935518Y-119150812D01*
X117060000Y-119163072D01*
X117225001Y-119163072D01*
X117225000Y-120866928D01*
X117060000Y-120866928D01*
X116935518Y-120879188D01*
X116815820Y-120915498D01*
X116705506Y-120974463D01*
X116608815Y-121053815D01*
X116529463Y-121150506D01*
X116470498Y-121260820D01*
X116434188Y-121380518D01*
X116421928Y-121505000D01*
X116421928Y-123605000D01*
X116434188Y-123729482D01*
X116470498Y-123849180D01*
X116529463Y-123959494D01*
X116608815Y-124056185D01*
X116705506Y-124135537D01*
X116815820Y-124194502D01*
X116935518Y-124230812D01*
X117060000Y-124243072D01*
X117225000Y-124243072D01*
X117225000Y-125051531D01*
X117220719Y-125095000D01*
X117225000Y-125138469D01*
X117225000Y-125138476D01*
X117236069Y-125250866D01*
X117237805Y-125268490D01*
X117241779Y-125281589D01*
X117288411Y-125435312D01*
X117370589Y-125589058D01*
X117481183Y-125723817D01*
X117514956Y-125751534D01*
X118088470Y-126325049D01*
X118116183Y-126358817D01*
X118149951Y-126386530D01*
X118149953Y-126386532D01*
X118250941Y-126469411D01*
X118404686Y-126551589D01*
X118530554Y-126589771D01*
X118571510Y-126602195D01*
X118701523Y-126615000D01*
X118701531Y-126615000D01*
X118745000Y-126619281D01*
X118788469Y-126615000D01*
X126321531Y-126615000D01*
X126365000Y-126619281D01*
X126408469Y-126615000D01*
X126408477Y-126615000D01*
X126538490Y-126602195D01*
X126705313Y-126551589D01*
X126859059Y-126469411D01*
X126993817Y-126358817D01*
X127021534Y-126325044D01*
X127685478Y-125661100D01*
X127514059Y-125917647D01*
X127341811Y-126333490D01*
X127254000Y-126774947D01*
X127254000Y-127225053D01*
X127341811Y-127666510D01*
X127514059Y-128082353D01*
X127764125Y-128456603D01*
X128082397Y-128774875D01*
X128456647Y-129024941D01*
X128872490Y-129197189D01*
X129313947Y-129285000D01*
X129764053Y-129285000D01*
X130205510Y-129197189D01*
X130621353Y-129024941D01*
X130995603Y-128774875D01*
X131313875Y-128456603D01*
X131563941Y-128082353D01*
X131736189Y-127666510D01*
X131824000Y-127225053D01*
X131824000Y-126774947D01*
X138686000Y-126774947D01*
X138686000Y-127225053D01*
X138773811Y-127666510D01*
X138946059Y-128082353D01*
X139196125Y-128456603D01*
X139514397Y-128774875D01*
X139888647Y-129024941D01*
X140304490Y-129197189D01*
X140745947Y-129285000D01*
X141196053Y-129285000D01*
X141637510Y-129197189D01*
X142053353Y-129024941D01*
X142427603Y-128774875D01*
X142745875Y-128456603D01*
X142995941Y-128082353D01*
X143168189Y-127666510D01*
X143256000Y-127225053D01*
X143256000Y-126774947D01*
X143168189Y-126333490D01*
X142995941Y-125917647D01*
X142745875Y-125543397D01*
X142427603Y-125225125D01*
X142053353Y-124975059D01*
X141637510Y-124802811D01*
X141196053Y-124715000D01*
X140745947Y-124715000D01*
X140304490Y-124802811D01*
X139888647Y-124975059D01*
X139514397Y-125225125D01*
X139196125Y-125543397D01*
X138946059Y-125917647D01*
X138773811Y-126333490D01*
X138686000Y-126774947D01*
X131824000Y-126774947D01*
X131736189Y-126333490D01*
X131563941Y-125917647D01*
X131313875Y-125543397D01*
X130995603Y-125225125D01*
X130621353Y-124975059D01*
X130205510Y-124802811D01*
X129764053Y-124715000D01*
X129313947Y-124715000D01*
X128872490Y-124802811D01*
X128456647Y-124975059D01*
X128200101Y-125146478D01*
X128636579Y-124710000D01*
X133941531Y-124710000D01*
X133985000Y-124714281D01*
X134028469Y-124710000D01*
X134028477Y-124710000D01*
X134158490Y-124697195D01*
X134325313Y-124646589D01*
X134479059Y-124564411D01*
X134613817Y-124453817D01*
X134641534Y-124420044D01*
X136486049Y-122575530D01*
X136519817Y-122547817D01*
X136549603Y-122511524D01*
X136630410Y-122413060D01*
X136643248Y-122389042D01*
X136712589Y-122259313D01*
X136763195Y-122092490D01*
X136776000Y-121962477D01*
X136776000Y-121962467D01*
X136780281Y-121919001D01*
X136776000Y-121875534D01*
X136776000Y-121723685D01*
X136966799Y-121532886D01*
X137118371Y-121306043D01*
X137161000Y-121203127D01*
X137203629Y-121306043D01*
X137355201Y-121532886D01*
X137548114Y-121725799D01*
X137774957Y-121877371D01*
X138027011Y-121981775D01*
X138294589Y-122035000D01*
X138567411Y-122035000D01*
X138834989Y-121981775D01*
X139087043Y-121877371D01*
X139313886Y-121725799D01*
X139506799Y-121532886D01*
X139658371Y-121306043D01*
X139762775Y-121053989D01*
X139816000Y-120786411D01*
X139816000Y-120513589D01*
X139762775Y-120246011D01*
X139658371Y-119993957D01*
X139506799Y-119767114D01*
X139315000Y-119575315D01*
X139315000Y-119445353D01*
X139564589Y-119495000D01*
X139837411Y-119495000D01*
X140104989Y-119441775D01*
X140357043Y-119337371D01*
X140583886Y-119185799D01*
X140774685Y-118995000D01*
X140926531Y-118995000D01*
X140970000Y-118999281D01*
X141013469Y-118995000D01*
X141013477Y-118995000D01*
X141143490Y-118982195D01*
X141310313Y-118931589D01*
X141464059Y-118849411D01*
X141598817Y-118738817D01*
X141626534Y-118705044D01*
X142835050Y-117496529D01*
X142868817Y-117468817D01*
X142979411Y-117334059D01*
X143061589Y-117180313D01*
X143112195Y-117013490D01*
X143125000Y-116883477D01*
X143125000Y-116883467D01*
X143129281Y-116840001D01*
X143125000Y-116796535D01*
X143125000Y-116223072D01*
X143140000Y-116223072D01*
X143264482Y-116210812D01*
X143384180Y-116174502D01*
X143494494Y-116115537D01*
X143591185Y-116036185D01*
X143670537Y-115939494D01*
X143729502Y-115829180D01*
X143765812Y-115709482D01*
X143778072Y-115585000D01*
X143778072Y-114285000D01*
X143765812Y-114160518D01*
X143729502Y-114040820D01*
X143670537Y-113930506D01*
X143591185Y-113833815D01*
X143494494Y-113754463D01*
X143384180Y-113695498D01*
X143283642Y-113665000D01*
X143384180Y-113634502D01*
X143494494Y-113575537D01*
X143591185Y-113496185D01*
X143670537Y-113399494D01*
X143729502Y-113289180D01*
X143765812Y-113169482D01*
X143778072Y-113045000D01*
X143778072Y-111745000D01*
X143765812Y-111620518D01*
X143729502Y-111500820D01*
X143670537Y-111390506D01*
X143591185Y-111293815D01*
X143494494Y-111214463D01*
X143384180Y-111155498D01*
X143264482Y-111119188D01*
X143140000Y-111106928D01*
X143125000Y-111106928D01*
X143125000Y-102278469D01*
X143129281Y-102235000D01*
X143125000Y-102191531D01*
X143125000Y-102191523D01*
X143112195Y-102061510D01*
X143075430Y-101940313D01*
X143061589Y-101894686D01*
X142979411Y-101740941D01*
X142896532Y-101639953D01*
X142896530Y-101639951D01*
X142868817Y-101606183D01*
X142835049Y-101578470D01*
X142611535Y-101354956D01*
X142600226Y-101298102D01*
X142522205Y-101109744D01*
X142408937Y-100940226D01*
X142264774Y-100796063D01*
X142095256Y-100682795D01*
X141906898Y-100604774D01*
X141706939Y-100565000D01*
X141503061Y-100565000D01*
X141303102Y-100604774D01*
X141114744Y-100682795D01*
X140945226Y-100796063D01*
X140801063Y-100940226D01*
X140687795Y-101109744D01*
X140609774Y-101298102D01*
X140570000Y-101498061D01*
X140570000Y-101701939D01*
X140609774Y-101901898D01*
X140687795Y-102090256D01*
X140801063Y-102259774D01*
X140945226Y-102403937D01*
X141114744Y-102517205D01*
X141303102Y-102595226D01*
X141355001Y-102605549D01*
X141355000Y-111106928D01*
X141340000Y-111106928D01*
X141215518Y-111119188D01*
X141095820Y-111155498D01*
X140985506Y-111214463D01*
X140888815Y-111293815D01*
X140809463Y-111390506D01*
X140750498Y-111500820D01*
X140714188Y-111620518D01*
X140701928Y-111745000D01*
X140701928Y-113045000D01*
X140714188Y-113169482D01*
X140750498Y-113289180D01*
X140809463Y-113399494D01*
X140888815Y-113496185D01*
X140985506Y-113575537D01*
X141095820Y-113634502D01*
X141196358Y-113665000D01*
X141095820Y-113695498D01*
X140985506Y-113754463D01*
X140888815Y-113833815D01*
X140809463Y-113930506D01*
X140750498Y-114040820D01*
X140714188Y-114160518D01*
X140701928Y-114285000D01*
X140701928Y-115585000D01*
X140714188Y-115709482D01*
X140750498Y-115829180D01*
X140809463Y-115939494D01*
X140888815Y-116036185D01*
X140985506Y-116115537D01*
X141095820Y-116174502D01*
X141215518Y-116210812D01*
X141340000Y-116223072D01*
X141355000Y-116223072D01*
X141355000Y-116473421D01*
X140689053Y-117139368D01*
X140583886Y-117034201D01*
X140357043Y-116882629D01*
X140104989Y-116778225D01*
X139837411Y-116725000D01*
X139564589Y-116725000D01*
X139315000Y-116774647D01*
X139315000Y-116223072D01*
X139330000Y-116223072D01*
X139454482Y-116210812D01*
X139574180Y-116174502D01*
X139684494Y-116115537D01*
X139781185Y-116036185D01*
X139860537Y-115939494D01*
X139919502Y-115829180D01*
X139955812Y-115709482D01*
X139968072Y-115585000D01*
X139968072Y-114285000D01*
X139955812Y-114160518D01*
X139919502Y-114040820D01*
X139860537Y-113930506D01*
X139781185Y-113833815D01*
X139684494Y-113754463D01*
X139574180Y-113695498D01*
X139473642Y-113665000D01*
X139574180Y-113634502D01*
X139684494Y-113575537D01*
X139781185Y-113496185D01*
X139860537Y-113399494D01*
X139919502Y-113289180D01*
X139955812Y-113169482D01*
X139968072Y-113045000D01*
X139968072Y-111745000D01*
X139955812Y-111620518D01*
X139919502Y-111500820D01*
X139860537Y-111390506D01*
X139781185Y-111293815D01*
X139684494Y-111214463D01*
X139574180Y-111155498D01*
X139454482Y-111119188D01*
X139330000Y-111106928D01*
X139315000Y-111106928D01*
X139315000Y-94023465D01*
X139319281Y-93979999D01*
X139315000Y-93936533D01*
X139315000Y-93936523D01*
X139302195Y-93806510D01*
X139251589Y-93639687D01*
X139169411Y-93485941D01*
X139058817Y-93351183D01*
X139025049Y-93323470D01*
X138166535Y-92464957D01*
X138155226Y-92408102D01*
X138077205Y-92219744D01*
X137963937Y-92050226D01*
X137819774Y-91906063D01*
X137650256Y-91792795D01*
X137461898Y-91714774D01*
X137261939Y-91675000D01*
X137058061Y-91675000D01*
X136858102Y-91714774D01*
X136669744Y-91792795D01*
X136500226Y-91906063D01*
X136356063Y-92050226D01*
X136242795Y-92219744D01*
X136164774Y-92408102D01*
X136140000Y-92532650D01*
X136140000Y-90848469D01*
X136144281Y-90805000D01*
X136140000Y-90761531D01*
X136140000Y-90761523D01*
X136127195Y-90631510D01*
X136100897Y-90544817D01*
X136076589Y-90464686D01*
X135994411Y-90310941D01*
X135911532Y-90209953D01*
X135911530Y-90209951D01*
X135883817Y-90176183D01*
X135850049Y-90148470D01*
X135276536Y-89574958D01*
X135276532Y-89574953D01*
X134641534Y-88939956D01*
X134613817Y-88906183D01*
X134479059Y-88795589D01*
X134325313Y-88713411D01*
X134158490Y-88662805D01*
X134028477Y-88650000D01*
X134028469Y-88650000D01*
X133985000Y-88645719D01*
X133941531Y-88650000D01*
X132618454Y-88650000D01*
X132570256Y-88617795D01*
X132410116Y-88551462D01*
X133595044Y-87366535D01*
X133651898Y-87355226D01*
X133840256Y-87277205D01*
X134009774Y-87163937D01*
X134153937Y-87019774D01*
X134267205Y-86850256D01*
X134345226Y-86661898D01*
X134385000Y-86461939D01*
X134385000Y-86258061D01*
X134345226Y-86058102D01*
X134267205Y-85869744D01*
X134153937Y-85700226D01*
X134009774Y-85556063D01*
X133840256Y-85442795D01*
X133651898Y-85364774D01*
X133451939Y-85325000D01*
X133248061Y-85325000D01*
X133048102Y-85364774D01*
X132859744Y-85442795D01*
X132690226Y-85556063D01*
X132546063Y-85700226D01*
X132480000Y-85799097D01*
X132480000Y-85623061D01*
X132440226Y-85423102D01*
X132362205Y-85234744D01*
X132248937Y-85065226D01*
X132104774Y-84921063D01*
X131935256Y-84807795D01*
X131746898Y-84729774D01*
X131546939Y-84690000D01*
X131343061Y-84690000D01*
X131143102Y-84729774D01*
X130954744Y-84807795D01*
X130785226Y-84921063D01*
X130641063Y-85065226D01*
X130527795Y-85234744D01*
X130449774Y-85423102D01*
X130438465Y-85479956D01*
X128627451Y-87290971D01*
X128593684Y-87318683D01*
X128565971Y-87352451D01*
X128565968Y-87352454D01*
X128483090Y-87453441D01*
X128400912Y-87607187D01*
X128350305Y-87774010D01*
X128333219Y-87947500D01*
X128337501Y-87990978D01*
X128337500Y-89174023D01*
X128337500Y-89174024D01*
X128337501Y-105684021D01*
X128333219Y-105727500D01*
X128350305Y-105900990D01*
X128400912Y-106067813D01*
X128483090Y-106221559D01*
X128565968Y-106322546D01*
X128565971Y-106322549D01*
X128593684Y-106356317D01*
X128627451Y-106384029D01*
X130153470Y-107910049D01*
X130181183Y-107943817D01*
X130214951Y-107971530D01*
X130214953Y-107971532D01*
X130286452Y-108030210D01*
X130315941Y-108054411D01*
X130469687Y-108136589D01*
X130636510Y-108187195D01*
X130766523Y-108200000D01*
X130766533Y-108200000D01*
X130809999Y-108204281D01*
X130853466Y-108200000D01*
X130906546Y-108200000D01*
X130954744Y-108232205D01*
X131143102Y-108310226D01*
X131343061Y-108350000D01*
X131546939Y-108350000D01*
X131746898Y-108310226D01*
X131935256Y-108232205D01*
X132104774Y-108118937D01*
X132248937Y-107974774D01*
X132362205Y-107805256D01*
X132440226Y-107616898D01*
X132480000Y-107416939D01*
X132480000Y-107213061D01*
X132440226Y-107013102D01*
X132362205Y-106824744D01*
X132248937Y-106655226D01*
X132104774Y-106511063D01*
X131935256Y-106397795D01*
X131746898Y-106319774D01*
X131546939Y-106280000D01*
X131343061Y-106280000D01*
X131143102Y-106319774D01*
X131088832Y-106342253D01*
X130107500Y-105360922D01*
X130107500Y-97059034D01*
X130153468Y-97115046D01*
X130153471Y-97115049D01*
X130181184Y-97148817D01*
X130214952Y-97176530D01*
X136275001Y-103236580D01*
X136275001Y-103962655D01*
X136250226Y-103838102D01*
X136172205Y-103649744D01*
X136058937Y-103480226D01*
X135914774Y-103336063D01*
X135745256Y-103222795D01*
X135556898Y-103144774D01*
X135356939Y-103105000D01*
X135153061Y-103105000D01*
X134953102Y-103144774D01*
X134764744Y-103222795D01*
X134595226Y-103336063D01*
X134451063Y-103480226D01*
X134337795Y-103649744D01*
X134259774Y-103838102D01*
X134220000Y-104038061D01*
X134220000Y-104241939D01*
X134259774Y-104441898D01*
X134337795Y-104630256D01*
X134370000Y-104678455D01*
X134370001Y-106026928D01*
X134355000Y-106026928D01*
X134230518Y-106039188D01*
X134110820Y-106075498D01*
X134000506Y-106134463D01*
X133903815Y-106213815D01*
X133824463Y-106310506D01*
X133765498Y-106420820D01*
X133729188Y-106540518D01*
X133716928Y-106665000D01*
X133716928Y-107965000D01*
X133729188Y-108089482D01*
X133765498Y-108209180D01*
X133824463Y-108319494D01*
X133903815Y-108416185D01*
X134000506Y-108495537D01*
X134110820Y-108554502D01*
X134211358Y-108585000D01*
X134110820Y-108615498D01*
X134000506Y-108674463D01*
X133903815Y-108753815D01*
X133824463Y-108850506D01*
X133765498Y-108960820D01*
X133729188Y-109080518D01*
X133716928Y-109205000D01*
X133716928Y-109586795D01*
X133710226Y-109553102D01*
X133632205Y-109364744D01*
X133518937Y-109195226D01*
X133374774Y-109051063D01*
X133205256Y-108937795D01*
X133016898Y-108859774D01*
X132816939Y-108820000D01*
X132613061Y-108820000D01*
X132413102Y-108859774D01*
X132224744Y-108937795D01*
X132176546Y-108970000D01*
X129583465Y-108970000D01*
X129539999Y-108965719D01*
X129496533Y-108970000D01*
X129496523Y-108970000D01*
X129366510Y-108982805D01*
X129199687Y-109033411D01*
X129045941Y-109115589D01*
X129045939Y-109115590D01*
X129045940Y-109115590D01*
X128944953Y-109198468D01*
X128944951Y-109198470D01*
X128911183Y-109226183D01*
X128883470Y-109259951D01*
X127674951Y-110468471D01*
X127641184Y-110496183D01*
X127613471Y-110529951D01*
X127613468Y-110529954D01*
X127530590Y-110630941D01*
X127448412Y-110784687D01*
X127397805Y-110951510D01*
X127382499Y-111106928D01*
X127370000Y-111106928D01*
X127245518Y-111119188D01*
X127125820Y-111155498D01*
X127015506Y-111214463D01*
X126918815Y-111293815D01*
X126839463Y-111390506D01*
X126780498Y-111500820D01*
X126744188Y-111620518D01*
X126731928Y-111745000D01*
X126731928Y-113045000D01*
X126744188Y-113169482D01*
X126780498Y-113289180D01*
X126839463Y-113399494D01*
X126918815Y-113496185D01*
X127015506Y-113575537D01*
X127125820Y-113634502D01*
X127226358Y-113665000D01*
X127125820Y-113695498D01*
X127015506Y-113754463D01*
X126918815Y-113833815D01*
X126839463Y-113930506D01*
X126780498Y-114040820D01*
X126744188Y-114160518D01*
X126731928Y-114285000D01*
X126731928Y-115585000D01*
X126744188Y-115709482D01*
X126780498Y-115829180D01*
X126839463Y-115939494D01*
X126918815Y-116036185D01*
X127015506Y-116115537D01*
X127125820Y-116174502D01*
X127245518Y-116210812D01*
X127370000Y-116223072D01*
X127385000Y-116223072D01*
X127385001Y-118065521D01*
X127380719Y-118109000D01*
X127397805Y-118282490D01*
X127448412Y-118449313D01*
X127530590Y-118603059D01*
X127613468Y-118704046D01*
X127613471Y-118704049D01*
X127641184Y-118737817D01*
X127674951Y-118765529D01*
X129426000Y-120516579D01*
X129426000Y-120786411D01*
X129479225Y-121053989D01*
X129583629Y-121306043D01*
X129735201Y-121532886D01*
X129872315Y-121670000D01*
X127678469Y-121670000D01*
X127635000Y-121665719D01*
X127591531Y-121670000D01*
X127591523Y-121670000D01*
X127461510Y-121682805D01*
X127294687Y-121733411D01*
X127250830Y-121756853D01*
X127140941Y-121815589D01*
X127039953Y-121898468D01*
X127039951Y-121898470D01*
X127006183Y-121926183D01*
X126978470Y-121959951D01*
X125363422Y-123575000D01*
X124534990Y-123575000D01*
X124683228Y-123353147D01*
X124810246Y-123046496D01*
X124875000Y-122720958D01*
X124875000Y-122389042D01*
X124810246Y-122063504D01*
X124683228Y-121756853D01*
X124498825Y-121480875D01*
X124264125Y-121246175D01*
X123988147Y-121061772D01*
X123681496Y-120934754D01*
X123355958Y-120870000D01*
X123024042Y-120870000D01*
X122698504Y-120934754D01*
X122391853Y-121061772D01*
X122115875Y-121246175D01*
X121920000Y-121442050D01*
X121724125Y-121246175D01*
X121535000Y-121119805D01*
X121535000Y-118910195D01*
X121724125Y-118783825D01*
X121920000Y-118587950D01*
X122115875Y-118783825D01*
X122391853Y-118968228D01*
X122698504Y-119095246D01*
X123024042Y-119160000D01*
X123355958Y-119160000D01*
X123681496Y-119095246D01*
X123988147Y-118968228D01*
X124264125Y-118783825D01*
X124498825Y-118549125D01*
X124683228Y-118273147D01*
X124810246Y-117966496D01*
X124875000Y-117640958D01*
X124875000Y-117309042D01*
X124810246Y-116983504D01*
X124683228Y-116676853D01*
X124498825Y-116400875D01*
X124264125Y-116166175D01*
X123988147Y-115981772D01*
X123681496Y-115854754D01*
X123355958Y-115790000D01*
X123024042Y-115790000D01*
X122698504Y-115854754D01*
X122391853Y-115981772D01*
X122115875Y-116166175D01*
X121920000Y-116362050D01*
X121724125Y-116166175D01*
X121448147Y-115981772D01*
X121141496Y-115854754D01*
X120815958Y-115790000D01*
X120484042Y-115790000D01*
X120158504Y-115854754D01*
X119851853Y-115981772D01*
X119698042Y-116084546D01*
X119690537Y-116070506D01*
X119611185Y-115973815D01*
X119514494Y-115894463D01*
X119404180Y-115835498D01*
X119284482Y-115799188D01*
X119160000Y-115786928D01*
X117060000Y-115786928D01*
X116935518Y-115799188D01*
X116815820Y-115835498D01*
X116705506Y-115894463D01*
X116608815Y-115973815D01*
X116529463Y-116070506D01*
X116470498Y-116180820D01*
X116434188Y-116300518D01*
X116421928Y-116425000D01*
X115697000Y-116425000D01*
X115697000Y-106791150D01*
X115730476Y-106959446D01*
X115966799Y-107529979D01*
X116309886Y-108043446D01*
X116746554Y-108480114D01*
X117260021Y-108823201D01*
X117830554Y-109059524D01*
X118436229Y-109180000D01*
X119053771Y-109180000D01*
X119659446Y-109059524D01*
X120229979Y-108823201D01*
X120743446Y-108480114D01*
X121180114Y-108043446D01*
X121523201Y-107529979D01*
X121759524Y-106959446D01*
X121880000Y-106353771D01*
X121880000Y-105736229D01*
X121759524Y-105130554D01*
X121523201Y-104560021D01*
X121180114Y-104046554D01*
X120743446Y-103609886D01*
X120229979Y-103266799D01*
X119659446Y-103030476D01*
X119053771Y-102910000D01*
X118436229Y-102910000D01*
X117830554Y-103030476D01*
X117260021Y-103266799D01*
X116746554Y-103609886D01*
X116309886Y-104046554D01*
X115966799Y-104560021D01*
X115730476Y-105130554D01*
X115697000Y-105298850D01*
X115697000Y-80081441D01*
X131553164Y-80081441D01*
X131576019Y-80284736D01*
X131763184Y-80365577D01*
X131962523Y-80408351D01*
X132166377Y-80411413D01*
X132366912Y-80374647D01*
X132556420Y-80299466D01*
X132583981Y-80284736D01*
X132606836Y-80081441D01*
X132080000Y-79554605D01*
X131553164Y-80081441D01*
X115697000Y-80081441D01*
X115697000Y-79461377D01*
X131043587Y-79461377D01*
X131080353Y-79661912D01*
X131155534Y-79851420D01*
X131170264Y-79878981D01*
X131373559Y-79901836D01*
X131900395Y-79375000D01*
X132259605Y-79375000D01*
X132786441Y-79901836D01*
X132989736Y-79878981D01*
X133047605Y-79745000D01*
X137141928Y-79745000D01*
X137141928Y-81545000D01*
X137154188Y-81669482D01*
X137190498Y-81789180D01*
X137249463Y-81899494D01*
X137328815Y-81996185D01*
X137419548Y-82070648D01*
X137395000Y-82194061D01*
X137395000Y-82397939D01*
X137397832Y-82412175D01*
X137328815Y-82468815D01*
X137249463Y-82565506D01*
X137190498Y-82675820D01*
X137154188Y-82795518D01*
X137141928Y-82920000D01*
X137141928Y-84720000D01*
X137154188Y-84844482D01*
X137190498Y-84964180D01*
X137249463Y-85074494D01*
X137328815Y-85171185D01*
X137425506Y-85250537D01*
X137535820Y-85309502D01*
X137655518Y-85345812D01*
X137780000Y-85358072D01*
X139080000Y-85358072D01*
X139204482Y-85345812D01*
X139324180Y-85309502D01*
X139434494Y-85250537D01*
X139531185Y-85171185D01*
X139610537Y-85074494D01*
X139669502Y-84964180D01*
X139700000Y-84863642D01*
X139730498Y-84964180D01*
X139789463Y-85074494D01*
X139868815Y-85171185D01*
X139965506Y-85250537D01*
X140075820Y-85309502D01*
X140195518Y-85345812D01*
X140320000Y-85358072D01*
X140843000Y-85358072D01*
X140843000Y-83947000D01*
X141097000Y-83947000D01*
X141097000Y-85358072D01*
X141620000Y-85358072D01*
X141744482Y-85345812D01*
X141864180Y-85309502D01*
X141974494Y-85250537D01*
X142071185Y-85171185D01*
X142150537Y-85074494D01*
X142209502Y-84964180D01*
X142245812Y-84844482D01*
X142258072Y-84720000D01*
X142258072Y-83947000D01*
X141097000Y-83947000D01*
X140843000Y-83947000D01*
X140823000Y-83947000D01*
X140823000Y-83693000D01*
X140843000Y-83693000D01*
X140843000Y-83327308D01*
X140852523Y-83329351D01*
X141056377Y-83332413D01*
X141097000Y-83324965D01*
X141097000Y-83693000D01*
X142258072Y-83693000D01*
X142258072Y-82920000D01*
X142245812Y-82795518D01*
X142209502Y-82675820D01*
X142150537Y-82565506D01*
X142071185Y-82468815D01*
X142003356Y-82413149D01*
X142006413Y-82209623D01*
X141980870Y-82070304D01*
X142071185Y-81996185D01*
X142150537Y-81899494D01*
X142209502Y-81789180D01*
X142245812Y-81669482D01*
X142258072Y-81545000D01*
X142258072Y-80772000D01*
X141097000Y-80772000D01*
X141097000Y-81264692D01*
X141087477Y-81262649D01*
X140883623Y-81259587D01*
X140843000Y-81267035D01*
X140843000Y-80772000D01*
X140823000Y-80772000D01*
X140823000Y-80518000D01*
X140843000Y-80518000D01*
X140843000Y-79106928D01*
X141097000Y-79106928D01*
X141097000Y-80518000D01*
X142258072Y-80518000D01*
X142258072Y-79745000D01*
X142245812Y-79620518D01*
X142209502Y-79500820D01*
X142150537Y-79390506D01*
X142071185Y-79293815D01*
X141974494Y-79214463D01*
X141864180Y-79155498D01*
X141744482Y-79119188D01*
X141620000Y-79106928D01*
X141097000Y-79106928D01*
X140843000Y-79106928D01*
X140320000Y-79106928D01*
X140195518Y-79119188D01*
X140075820Y-79155498D01*
X139965506Y-79214463D01*
X139868815Y-79293815D01*
X139789463Y-79390506D01*
X139730498Y-79500820D01*
X139700000Y-79601358D01*
X139669502Y-79500820D01*
X139610537Y-79390506D01*
X139531185Y-79293815D01*
X139434494Y-79214463D01*
X139324180Y-79155498D01*
X139204482Y-79119188D01*
X139080000Y-79106928D01*
X137780000Y-79106928D01*
X137655518Y-79119188D01*
X137535820Y-79155498D01*
X137425506Y-79214463D01*
X137328815Y-79293815D01*
X137249463Y-79390506D01*
X137190498Y-79500820D01*
X137154188Y-79620518D01*
X137141928Y-79745000D01*
X133047605Y-79745000D01*
X133070577Y-79691816D01*
X133113351Y-79492477D01*
X133116413Y-79288623D01*
X133079647Y-79088088D01*
X133004466Y-78898580D01*
X132989736Y-78871019D01*
X132786441Y-78848164D01*
X132259605Y-79375000D01*
X131900395Y-79375000D01*
X131373559Y-78848164D01*
X131170264Y-78871019D01*
X131089423Y-79058184D01*
X131046649Y-79257523D01*
X131043587Y-79461377D01*
X115697000Y-79461377D01*
X115697000Y-78668559D01*
X131553164Y-78668559D01*
X132080000Y-79195395D01*
X132606836Y-78668559D01*
X132583981Y-78465264D01*
X132396816Y-78384423D01*
X132197477Y-78341649D01*
X131993623Y-78338587D01*
X131793088Y-78375353D01*
X131603580Y-78450534D01*
X131576019Y-78465264D01*
X131553164Y-78668559D01*
X115697000Y-78668559D01*
X115697000Y-70265000D01*
X130391928Y-70265000D01*
X130404188Y-70389482D01*
X130440498Y-70509180D01*
X130499463Y-70619494D01*
X130578815Y-70716185D01*
X130675506Y-70795537D01*
X130785820Y-70854502D01*
X130905518Y-70890812D01*
X131030000Y-70903072D01*
X131794250Y-70900000D01*
X131953000Y-70741250D01*
X131953000Y-69342000D01*
X130553750Y-69342000D01*
X130395000Y-69500750D01*
X130391928Y-70265000D01*
X115697000Y-70265000D01*
X115697000Y-66151150D01*
X115730476Y-66319446D01*
X115966799Y-66889979D01*
X116309886Y-67403446D01*
X116746554Y-67840114D01*
X117260021Y-68183201D01*
X117830554Y-68419524D01*
X118436229Y-68540000D01*
X119053771Y-68540000D01*
X119659446Y-68419524D01*
X120229979Y-68183201D01*
X120257218Y-68165000D01*
X130391928Y-68165000D01*
X130395000Y-68929250D01*
X130553750Y-69088000D01*
X131953000Y-69088000D01*
X131953000Y-67688750D01*
X132207000Y-67688750D01*
X132207000Y-69088000D01*
X132227000Y-69088000D01*
X132227000Y-69342000D01*
X132207000Y-69342000D01*
X132207000Y-70741250D01*
X132365750Y-70900000D01*
X133130000Y-70903072D01*
X133254482Y-70890812D01*
X133374180Y-70854502D01*
X133484494Y-70795537D01*
X133581185Y-70716185D01*
X133660537Y-70619494D01*
X133668042Y-70605454D01*
X133821853Y-70708228D01*
X134128504Y-70835246D01*
X134454042Y-70900000D01*
X134785958Y-70900000D01*
X135111496Y-70835246D01*
X135418147Y-70708228D01*
X135694125Y-70523825D01*
X135890000Y-70327950D01*
X136085875Y-70523825D01*
X136361853Y-70708228D01*
X136668504Y-70835246D01*
X136994042Y-70900000D01*
X137325958Y-70900000D01*
X137651496Y-70835246D01*
X137958147Y-70708228D01*
X138234125Y-70523825D01*
X138430000Y-70327950D01*
X138625875Y-70523825D01*
X138901853Y-70708228D01*
X139208504Y-70835246D01*
X139534042Y-70900000D01*
X139865958Y-70900000D01*
X140191496Y-70835246D01*
X140498147Y-70708228D01*
X140774125Y-70523825D01*
X141008825Y-70289125D01*
X141193228Y-70013147D01*
X141320246Y-69706496D01*
X141385000Y-69380958D01*
X141385000Y-69049042D01*
X141320246Y-68723504D01*
X141193228Y-68416853D01*
X141008825Y-68140875D01*
X140774125Y-67906175D01*
X140498147Y-67721772D01*
X140191496Y-67594754D01*
X139865958Y-67530000D01*
X139534042Y-67530000D01*
X139208504Y-67594754D01*
X138901853Y-67721772D01*
X138625875Y-67906175D01*
X138430000Y-68102050D01*
X138234125Y-67906175D01*
X137958147Y-67721772D01*
X137651496Y-67594754D01*
X137325958Y-67530000D01*
X136994042Y-67530000D01*
X136668504Y-67594754D01*
X136361853Y-67721772D01*
X136085875Y-67906175D01*
X135890000Y-68102050D01*
X135694125Y-67906175D01*
X135418147Y-67721772D01*
X135111496Y-67594754D01*
X134785958Y-67530000D01*
X134454042Y-67530000D01*
X134128504Y-67594754D01*
X133821853Y-67721772D01*
X133668042Y-67824546D01*
X133660537Y-67810506D01*
X133581185Y-67713815D01*
X133484494Y-67634463D01*
X133374180Y-67575498D01*
X133254482Y-67539188D01*
X133130000Y-67526928D01*
X132365750Y-67530000D01*
X132207000Y-67688750D01*
X131953000Y-67688750D01*
X131794250Y-67530000D01*
X131030000Y-67526928D01*
X130905518Y-67539188D01*
X130785820Y-67575498D01*
X130675506Y-67634463D01*
X130578815Y-67713815D01*
X130499463Y-67810506D01*
X130440498Y-67920820D01*
X130404188Y-68040518D01*
X130391928Y-68165000D01*
X120257218Y-68165000D01*
X120743446Y-67840114D01*
X121180114Y-67403446D01*
X121523201Y-66889979D01*
X121759524Y-66319446D01*
X121880000Y-65713771D01*
X121880000Y-65185000D01*
X130391928Y-65185000D01*
X130404188Y-65309482D01*
X130440498Y-65429180D01*
X130499463Y-65539494D01*
X130578815Y-65636185D01*
X130675506Y-65715537D01*
X130785820Y-65774502D01*
X130905518Y-65810812D01*
X131030000Y-65823072D01*
X131794250Y-65820000D01*
X131953000Y-65661250D01*
X131953000Y-64262000D01*
X130553750Y-64262000D01*
X130395000Y-64420750D01*
X130391928Y-65185000D01*
X121880000Y-65185000D01*
X121880000Y-65096229D01*
X121759524Y-64490554D01*
X121523201Y-63920021D01*
X121180114Y-63406554D01*
X120858560Y-63085000D01*
X130391928Y-63085000D01*
X130395000Y-63849250D01*
X130553750Y-64008000D01*
X131953000Y-64008000D01*
X131953000Y-62608750D01*
X132207000Y-62608750D01*
X132207000Y-64008000D01*
X132227000Y-64008000D01*
X132227000Y-64262000D01*
X132207000Y-64262000D01*
X132207000Y-65661250D01*
X132365750Y-65820000D01*
X133130000Y-65823072D01*
X133254482Y-65810812D01*
X133374180Y-65774502D01*
X133484494Y-65715537D01*
X133581185Y-65636185D01*
X133660537Y-65539494D01*
X133668042Y-65525454D01*
X133821853Y-65628228D01*
X134128504Y-65755246D01*
X134454042Y-65820000D01*
X134785958Y-65820000D01*
X135111496Y-65755246D01*
X135418147Y-65628228D01*
X135694125Y-65443825D01*
X135890000Y-65247950D01*
X136085875Y-65443825D01*
X136361853Y-65628228D01*
X136668504Y-65755246D01*
X136994042Y-65820000D01*
X137325958Y-65820000D01*
X137651496Y-65755246D01*
X137958147Y-65628228D01*
X138234125Y-65443825D01*
X138430000Y-65247950D01*
X138625875Y-65443825D01*
X138901853Y-65628228D01*
X139208504Y-65755246D01*
X139534042Y-65820000D01*
X139865958Y-65820000D01*
X140191496Y-65755246D01*
X140498147Y-65628228D01*
X140774125Y-65443825D01*
X141008825Y-65209125D01*
X141193228Y-64933147D01*
X141320246Y-64626496D01*
X141385000Y-64300958D01*
X141385000Y-63969042D01*
X141320246Y-63643504D01*
X141193228Y-63336853D01*
X141008825Y-63060875D01*
X140774125Y-62826175D01*
X140498147Y-62641772D01*
X140191496Y-62514754D01*
X139865958Y-62450000D01*
X139534042Y-62450000D01*
X139208504Y-62514754D01*
X138901853Y-62641772D01*
X138625875Y-62826175D01*
X138430000Y-63022050D01*
X138234125Y-62826175D01*
X137958147Y-62641772D01*
X137651496Y-62514754D01*
X137325958Y-62450000D01*
X136994042Y-62450000D01*
X136668504Y-62514754D01*
X136361853Y-62641772D01*
X136085875Y-62826175D01*
X135890000Y-63022050D01*
X135694125Y-62826175D01*
X135418147Y-62641772D01*
X135111496Y-62514754D01*
X134785958Y-62450000D01*
X134454042Y-62450000D01*
X134128504Y-62514754D01*
X133821853Y-62641772D01*
X133668042Y-62744546D01*
X133660537Y-62730506D01*
X133581185Y-62633815D01*
X133484494Y-62554463D01*
X133374180Y-62495498D01*
X133254482Y-62459188D01*
X133130000Y-62446928D01*
X132365750Y-62450000D01*
X132207000Y-62608750D01*
X131953000Y-62608750D01*
X131794250Y-62450000D01*
X131030000Y-62446928D01*
X130905518Y-62459188D01*
X130785820Y-62495498D01*
X130675506Y-62554463D01*
X130578815Y-62633815D01*
X130499463Y-62730506D01*
X130440498Y-62840820D01*
X130404188Y-62960518D01*
X130391928Y-63085000D01*
X120858560Y-63085000D01*
X120743446Y-62969886D01*
X120229979Y-62626799D01*
X119659446Y-62390476D01*
X119491150Y-62357000D01*
X145288000Y-62357000D01*
X145288000Y-63224346D01*
G36*
X141163748Y-82281858D02*
G01*
X141163677Y-82281928D01*
X141097000Y-82281928D01*
X141097000Y-82376890D01*
X140984143Y-82489748D01*
X140970000Y-82475605D01*
X140955858Y-82489748D01*
X140843000Y-82376890D01*
X140843000Y-82281928D01*
X140776323Y-82281928D01*
X140776253Y-82281858D01*
X140955858Y-82102253D01*
X140970000Y-82116395D01*
X140984143Y-82102253D01*
X141163748Y-82281858D01*
G37*
X141163748Y-82281858D02*
X141163677Y-82281928D01*
X141097000Y-82281928D01*
X141097000Y-82376890D01*
X140984143Y-82489748D01*
X140970000Y-82475605D01*
X140955858Y-82489748D01*
X140843000Y-82376890D01*
X140843000Y-82281928D01*
X140776323Y-82281928D01*
X140776253Y-82281858D01*
X140955858Y-82102253D01*
X140970000Y-82116395D01*
X140984143Y-82102253D01*
X141163748Y-82281858D01*
M02*
