%FSLAX45Y45*%
G04 Gerber Fmt 4.5, Leading zero omitted, Abs format (unit mm)*
G04 Created by KiCad (PCBNEW (5.1.6)-1) date 2023-04-30 23:17:15*
%MOMM*%
%LPD*%
G01*
G04 APERTURE LIST*
%TA.AperFunction,Profile*%
%ADD10C,0.150000*%
%TD*%
%ADD11C,0.200000*%
%ADD12C,0.300000*%
G04 APERTURE END LIST*
D10*
X24066500Y-10160000D02*
X24066500Y-11557000D01*
X23495000Y-10160000D02*
X24066500Y-10160000D01*
X23495000Y-8318500D02*
X23495000Y-10160000D01*
X23495000Y-8318500D02*
X24066500Y-8318500D01*
X19240500Y-11557000D02*
X24066500Y-11557000D01*
X19240500Y-11557000D02*
X19240500Y-6985000D01*
X24066500Y-6985000D02*
X24066500Y-8318500D01*
X19240500Y-6985000D02*
X24066500Y-6985000D01*
D11*
X21824000Y-10076500D02*
X21864000Y-10116500D01*
X21864000Y-10076500D02*
X21824000Y-10116500D01*
X20109500Y-7917500D02*
X20149500Y-7957500D01*
X20149500Y-7917500D02*
X20109500Y-7957500D01*
X20490500Y-8298500D02*
X20530500Y-8338500D01*
X20530500Y-8298500D02*
X20490500Y-8338500D01*
X20782600Y-8590600D02*
X20822600Y-8630600D01*
X20822600Y-8590600D02*
X20782600Y-8630600D01*
X21379500Y-8044500D02*
X21419500Y-8084500D01*
X21419500Y-8044500D02*
X21379500Y-8084500D01*
X22967000Y-8044500D02*
X23007000Y-8084500D01*
X23007000Y-8044500D02*
X22967000Y-8084500D01*
X20363500Y-10394000D02*
X20403500Y-10434000D01*
X20403500Y-10394000D02*
X20363500Y-10434000D01*
X20109500Y-9479600D02*
X20149500Y-9519600D01*
X20149500Y-9479600D02*
X20109500Y-9519600D01*
X21633500Y-10457500D02*
X21673500Y-10497500D01*
X21673500Y-10457500D02*
X21633500Y-10497500D01*
X21947500Y-8801000D02*
G75*
G03*
X21947500Y-8801000I-40000J0D01*
G01*
X21947500Y-9055000D02*
G75*
G03*
X21947500Y-9055000I-40000J0D01*
G01*
X21947500Y-9309000D02*
G75*
G03*
X21947500Y-9309000I-40000J0D01*
G01*
X21947500Y-9563000D02*
G75*
G03*
X21947500Y-9563000I-40000J0D01*
G01*
X22201500Y-8928000D02*
G75*
G03*
X22201500Y-8928000I-40000J0D01*
G01*
X22201500Y-9182000D02*
G75*
G03*
X22201500Y-9182000I-40000J0D01*
G01*
X22201500Y-9436000D02*
G75*
G03*
X22201500Y-9436000I-40000J0D01*
G01*
X22201500Y-9690000D02*
G75*
G03*
X22201500Y-9690000I-40000J0D01*
G01*
X20396200Y-7433000D02*
X20396200Y-7553000D01*
X20336200Y-7493000D02*
X20456200Y-7493000D01*
X20904200Y-7433000D02*
X20904200Y-7553000D01*
X20844200Y-7493000D02*
X20964200Y-7493000D01*
X21412200Y-7433000D02*
X21412200Y-7553000D01*
X21352200Y-7493000D02*
X21472200Y-7493000D01*
X19558000Y-7941000D02*
X19558000Y-8061000D01*
X19498000Y-8001000D02*
X19618000Y-8001000D01*
X19558000Y-8449000D02*
X19558000Y-8569000D01*
X19498000Y-8509000D02*
X19618000Y-8509000D01*
X19558000Y-8957000D02*
X19558000Y-9077000D01*
X19498000Y-9017000D02*
X19618000Y-9017000D01*
X19558000Y-9439600D02*
X19558000Y-9559600D01*
X19498000Y-9499600D02*
X19618000Y-9499600D01*
X19558000Y-9947600D02*
X19558000Y-10067600D01*
X19498000Y-10007600D02*
X19618000Y-10007600D01*
X19558000Y-10455600D02*
X19558000Y-10575600D01*
X19498000Y-10515600D02*
X19618000Y-10515600D01*
X20396200Y-10925500D02*
X20396200Y-11045500D01*
X20336200Y-10985500D02*
X20456200Y-10985500D01*
X20904200Y-10925500D02*
X20904200Y-11045500D01*
X20844200Y-10985500D02*
X20964200Y-10985500D01*
X21412200Y-10925500D02*
X21412200Y-11045500D01*
X21352200Y-10985500D02*
X21472200Y-10985500D01*
X21894800Y-10925500D02*
X21894800Y-11045500D01*
X21834800Y-10985500D02*
X21954800Y-10985500D01*
X22402800Y-10925500D02*
X22402800Y-11045500D01*
X22342800Y-10985500D02*
X22462800Y-10985500D01*
X22910800Y-10925500D02*
X22910800Y-11045500D01*
X22850800Y-10985500D02*
X22970800Y-10985500D01*
X21894800Y-7433000D02*
X21894800Y-7553000D01*
X21834800Y-7493000D02*
X21954800Y-7493000D01*
X22402800Y-7433000D02*
X22402800Y-7553000D01*
X22342800Y-7493000D02*
X22462800Y-7493000D01*
X22910800Y-7433000D02*
X22910800Y-7553000D01*
X22850800Y-7493000D02*
X22970800Y-7493000D01*
X23728067Y-7472067D02*
X23728067Y-7259933D01*
X23515933Y-7259933D01*
X23515933Y-7472067D01*
X23728067Y-7472067D01*
X19791067Y-7472067D02*
X19791067Y-7259933D01*
X19578933Y-7259933D01*
X19578933Y-7472067D01*
X19791067Y-7472067D01*
X23728067Y-11282067D02*
X23728067Y-11069933D01*
X23515933Y-11069933D01*
X23515933Y-11282067D01*
X23728067Y-11282067D01*
X19791067Y-11282067D02*
X19791067Y-11069933D01*
X19578933Y-11069933D01*
X19578933Y-11282067D01*
X19791067Y-11282067D01*
D12*
X19519428Y-12030214D02*
X19519428Y-11730214D01*
X19590857Y-11730214D01*
X19633714Y-11744500D01*
X19662286Y-11773071D01*
X19676571Y-11801643D01*
X19690857Y-11858786D01*
X19690857Y-11901643D01*
X19676571Y-11958786D01*
X19662286Y-11987357D01*
X19633714Y-12015929D01*
X19590857Y-12030214D01*
X19519428Y-12030214D01*
X19819428Y-12030214D02*
X19819428Y-11830214D01*
X19819428Y-11887357D02*
X19833714Y-11858786D01*
X19848000Y-11844500D01*
X19876571Y-11830214D01*
X19905143Y-11830214D01*
X20005143Y-12030214D02*
X20005143Y-11830214D01*
X20005143Y-11730214D02*
X19990857Y-11744500D01*
X20005143Y-11758786D01*
X20019428Y-11744500D01*
X20005143Y-11730214D01*
X20005143Y-11758786D01*
X20190857Y-12030214D02*
X20162286Y-12015929D01*
X20148000Y-11987357D01*
X20148000Y-11730214D01*
X20348000Y-12030214D02*
X20319428Y-12015929D01*
X20305143Y-11987357D01*
X20305143Y-11730214D01*
X20690857Y-12030214D02*
X20690857Y-11730214D01*
X20790857Y-11944500D01*
X20890857Y-11730214D01*
X20890857Y-12030214D01*
X21162286Y-12030214D02*
X21162286Y-11873071D01*
X21148000Y-11844500D01*
X21119428Y-11830214D01*
X21062286Y-11830214D01*
X21033714Y-11844500D01*
X21162286Y-12015929D02*
X21133714Y-12030214D01*
X21062286Y-12030214D01*
X21033714Y-12015929D01*
X21019428Y-11987357D01*
X21019428Y-11958786D01*
X21033714Y-11930214D01*
X21062286Y-11915929D01*
X21133714Y-11915929D01*
X21162286Y-11901643D01*
X21305143Y-11830214D02*
X21305143Y-12130214D01*
X21305143Y-11844500D02*
X21333714Y-11830214D01*
X21390857Y-11830214D01*
X21419428Y-11844500D01*
X21433714Y-11858786D01*
X21448000Y-11887357D01*
X21448000Y-11973071D01*
X21433714Y-12001643D01*
X21419428Y-12015929D01*
X21390857Y-12030214D01*
X21333714Y-12030214D01*
X21305143Y-12015929D01*
X21576571Y-12001643D02*
X21590857Y-12015929D01*
X21576571Y-12030214D01*
X21562286Y-12015929D01*
X21576571Y-12001643D01*
X21576571Y-12030214D01*
X21576571Y-11844500D02*
X21590857Y-11858786D01*
X21576571Y-11873071D01*
X21562286Y-11858786D01*
X21576571Y-11844500D01*
X21576571Y-11873071D01*
X19193000Y-12504500D02*
X19233000Y-12544500D01*
X19233000Y-12504500D02*
X19193000Y-12544500D01*
X19576571Y-12360214D02*
X19605143Y-12360214D01*
X19633714Y-12374500D01*
X19648000Y-12388786D01*
X19662286Y-12417357D01*
X19676571Y-12474500D01*
X19676571Y-12545929D01*
X19662286Y-12603071D01*
X19648000Y-12631643D01*
X19633714Y-12645929D01*
X19605143Y-12660214D01*
X19576571Y-12660214D01*
X19548000Y-12645929D01*
X19533714Y-12631643D01*
X19519428Y-12603071D01*
X19505143Y-12545929D01*
X19505143Y-12474500D01*
X19519428Y-12417357D01*
X19533714Y-12388786D01*
X19548000Y-12374500D01*
X19576571Y-12360214D01*
X19805143Y-12631643D02*
X19819428Y-12645929D01*
X19805143Y-12660214D01*
X19790857Y-12645929D01*
X19805143Y-12631643D01*
X19805143Y-12660214D01*
X20076571Y-12460214D02*
X20076571Y-12660214D01*
X20005143Y-12345929D02*
X19933714Y-12560214D01*
X20119428Y-12560214D01*
X20290857Y-12360214D02*
X20319428Y-12360214D01*
X20348000Y-12374500D01*
X20362286Y-12388786D01*
X20376571Y-12417357D01*
X20390857Y-12474500D01*
X20390857Y-12545929D01*
X20376571Y-12603071D01*
X20362286Y-12631643D01*
X20348000Y-12645929D01*
X20319428Y-12660214D01*
X20290857Y-12660214D01*
X20262286Y-12645929D01*
X20248000Y-12631643D01*
X20233714Y-12603071D01*
X20219428Y-12545929D01*
X20219428Y-12474500D01*
X20233714Y-12417357D01*
X20248000Y-12388786D01*
X20262286Y-12374500D01*
X20290857Y-12360214D01*
X20519428Y-12660214D02*
X20519428Y-12460214D01*
X20519428Y-12488786D02*
X20533714Y-12474500D01*
X20562286Y-12460214D01*
X20605143Y-12460214D01*
X20633714Y-12474500D01*
X20648000Y-12503071D01*
X20648000Y-12660214D01*
X20648000Y-12503071D02*
X20662286Y-12474500D01*
X20690857Y-12460214D01*
X20733714Y-12460214D01*
X20762286Y-12474500D01*
X20776571Y-12503071D01*
X20776571Y-12660214D01*
X20919428Y-12660214D02*
X20919428Y-12460214D01*
X20919428Y-12488786D02*
X20933714Y-12474500D01*
X20962286Y-12460214D01*
X21005143Y-12460214D01*
X21033714Y-12474500D01*
X21048000Y-12503071D01*
X21048000Y-12660214D01*
X21048000Y-12503071D02*
X21062286Y-12474500D01*
X21090857Y-12460214D01*
X21133714Y-12460214D01*
X21162286Y-12474500D01*
X21176571Y-12503071D01*
X21176571Y-12660214D01*
X21762286Y-12345929D02*
X21505143Y-12731643D01*
X22148000Y-12360214D02*
X22176571Y-12360214D01*
X22205143Y-12374500D01*
X22219428Y-12388786D01*
X22233714Y-12417357D01*
X22248000Y-12474500D01*
X22248000Y-12545929D01*
X22233714Y-12603071D01*
X22219428Y-12631643D01*
X22205143Y-12645929D01*
X22176571Y-12660214D01*
X22148000Y-12660214D01*
X22119428Y-12645929D01*
X22105143Y-12631643D01*
X22090857Y-12603071D01*
X22076571Y-12545929D01*
X22076571Y-12474500D01*
X22090857Y-12417357D01*
X22105143Y-12388786D01*
X22119428Y-12374500D01*
X22148000Y-12360214D01*
X22376571Y-12631643D02*
X22390857Y-12645929D01*
X22376571Y-12660214D01*
X22362286Y-12645929D01*
X22376571Y-12631643D01*
X22376571Y-12660214D01*
X22576571Y-12360214D02*
X22605143Y-12360214D01*
X22633714Y-12374500D01*
X22648000Y-12388786D01*
X22662286Y-12417357D01*
X22676571Y-12474500D01*
X22676571Y-12545929D01*
X22662286Y-12603071D01*
X22648000Y-12631643D01*
X22633714Y-12645929D01*
X22605143Y-12660214D01*
X22576571Y-12660214D01*
X22548000Y-12645929D01*
X22533714Y-12631643D01*
X22519428Y-12603071D01*
X22505143Y-12545929D01*
X22505143Y-12474500D01*
X22519428Y-12417357D01*
X22533714Y-12388786D01*
X22548000Y-12374500D01*
X22576571Y-12360214D01*
X22962286Y-12660214D02*
X22790857Y-12660214D01*
X22876571Y-12660214D02*
X22876571Y-12360214D01*
X22848000Y-12403071D01*
X22819428Y-12431643D01*
X22790857Y-12445929D01*
X23219428Y-12360214D02*
X23162286Y-12360214D01*
X23133714Y-12374500D01*
X23119428Y-12388786D01*
X23090857Y-12431643D01*
X23076571Y-12488786D01*
X23076571Y-12603071D01*
X23090857Y-12631643D01*
X23105143Y-12645929D01*
X23133714Y-12660214D01*
X23190857Y-12660214D01*
X23219428Y-12645929D01*
X23233714Y-12631643D01*
X23248000Y-12603071D01*
X23248000Y-12531643D01*
X23233714Y-12503071D01*
X23219428Y-12488786D01*
X23190857Y-12474500D01*
X23133714Y-12474500D01*
X23105143Y-12488786D01*
X23090857Y-12503071D01*
X23076571Y-12531643D01*
X23362286Y-12360214D02*
X23362286Y-12417357D01*
X23476571Y-12360214D02*
X23476571Y-12417357D01*
X23919428Y-12774500D02*
X23905143Y-12760214D01*
X23876571Y-12717357D01*
X23862286Y-12688786D01*
X23848000Y-12645929D01*
X23833714Y-12574500D01*
X23833714Y-12517357D01*
X23848000Y-12445929D01*
X23862286Y-12403071D01*
X23876571Y-12374500D01*
X23905143Y-12331643D01*
X23919428Y-12317357D01*
X24048000Y-12660214D02*
X24105143Y-12660214D01*
X24133714Y-12645929D01*
X24148000Y-12631643D01*
X24176571Y-12588786D01*
X24190857Y-12531643D01*
X24190857Y-12417357D01*
X24176571Y-12388786D01*
X24162286Y-12374500D01*
X24133714Y-12360214D01*
X24076571Y-12360214D01*
X24048000Y-12374500D01*
X24033714Y-12388786D01*
X24019428Y-12417357D01*
X24019428Y-12488786D01*
X24033714Y-12517357D01*
X24048000Y-12531643D01*
X24076571Y-12545929D01*
X24133714Y-12545929D01*
X24162286Y-12531643D01*
X24176571Y-12517357D01*
X24190857Y-12488786D01*
X24548000Y-12660214D02*
X24548000Y-12360214D01*
X24676571Y-12660214D02*
X24676571Y-12503071D01*
X24662286Y-12474500D01*
X24633714Y-12460214D01*
X24590857Y-12460214D01*
X24562286Y-12474500D01*
X24548000Y-12488786D01*
X24862286Y-12660214D02*
X24833714Y-12645929D01*
X24819428Y-12631643D01*
X24805143Y-12603071D01*
X24805143Y-12517357D01*
X24819428Y-12488786D01*
X24833714Y-12474500D01*
X24862286Y-12460214D01*
X24905143Y-12460214D01*
X24933714Y-12474500D01*
X24948000Y-12488786D01*
X24962286Y-12517357D01*
X24962286Y-12603071D01*
X24948000Y-12631643D01*
X24933714Y-12645929D01*
X24905143Y-12660214D01*
X24862286Y-12660214D01*
X25133714Y-12660214D02*
X25105143Y-12645929D01*
X25090857Y-12617357D01*
X25090857Y-12360214D01*
X25362286Y-12645929D02*
X25333714Y-12660214D01*
X25276571Y-12660214D01*
X25248000Y-12645929D01*
X25233714Y-12617357D01*
X25233714Y-12503071D01*
X25248000Y-12474500D01*
X25276571Y-12460214D01*
X25333714Y-12460214D01*
X25362286Y-12474500D01*
X25376571Y-12503071D01*
X25376571Y-12531643D01*
X25233714Y-12560214D01*
X25490857Y-12645929D02*
X25519428Y-12660214D01*
X25576571Y-12660214D01*
X25605143Y-12645929D01*
X25619428Y-12617357D01*
X25619428Y-12603071D01*
X25605143Y-12574500D01*
X25576571Y-12560214D01*
X25533714Y-12560214D01*
X25505143Y-12545929D01*
X25490857Y-12517357D01*
X25490857Y-12503071D01*
X25505143Y-12474500D01*
X25533714Y-12460214D01*
X25576571Y-12460214D01*
X25605143Y-12474500D01*
X25719428Y-12774500D02*
X25733714Y-12760214D01*
X25762286Y-12717357D01*
X25776571Y-12688786D01*
X25790857Y-12645929D01*
X25805143Y-12574500D01*
X25805143Y-12517357D01*
X25790857Y-12445929D01*
X25776571Y-12403071D01*
X25762286Y-12374500D01*
X25733714Y-12331643D01*
X25719428Y-12317357D01*
X19233000Y-12920500D02*
G75*
G03*
X19233000Y-12920500I-40000J0D01*
G01*
X19576571Y-12756214D02*
X19605143Y-12756214D01*
X19633714Y-12770500D01*
X19648000Y-12784786D01*
X19662286Y-12813357D01*
X19676571Y-12870500D01*
X19676571Y-12941929D01*
X19662286Y-12999071D01*
X19648000Y-13027643D01*
X19633714Y-13041929D01*
X19605143Y-13056214D01*
X19576571Y-13056214D01*
X19548000Y-13041929D01*
X19533714Y-13027643D01*
X19519428Y-12999071D01*
X19505143Y-12941929D01*
X19505143Y-12870500D01*
X19519428Y-12813357D01*
X19533714Y-12784786D01*
X19548000Y-12770500D01*
X19576571Y-12756214D01*
X19805143Y-13027643D02*
X19819428Y-13041929D01*
X19805143Y-13056214D01*
X19790857Y-13041929D01*
X19805143Y-13027643D01*
X19805143Y-13056214D01*
X19990857Y-12884786D02*
X19962286Y-12870500D01*
X19948000Y-12856214D01*
X19933714Y-12827643D01*
X19933714Y-12813357D01*
X19948000Y-12784786D01*
X19962286Y-12770500D01*
X19990857Y-12756214D01*
X20048000Y-12756214D01*
X20076571Y-12770500D01*
X20090857Y-12784786D01*
X20105143Y-12813357D01*
X20105143Y-12827643D01*
X20090857Y-12856214D01*
X20076571Y-12870500D01*
X20048000Y-12884786D01*
X19990857Y-12884786D01*
X19962286Y-12899071D01*
X19948000Y-12913357D01*
X19933714Y-12941929D01*
X19933714Y-12999071D01*
X19948000Y-13027643D01*
X19962286Y-13041929D01*
X19990857Y-13056214D01*
X20048000Y-13056214D01*
X20076571Y-13041929D01*
X20090857Y-13027643D01*
X20105143Y-12999071D01*
X20105143Y-12941929D01*
X20090857Y-12913357D01*
X20076571Y-12899071D01*
X20048000Y-12884786D01*
X20290857Y-12756214D02*
X20319428Y-12756214D01*
X20348000Y-12770500D01*
X20362286Y-12784786D01*
X20376571Y-12813357D01*
X20390857Y-12870500D01*
X20390857Y-12941929D01*
X20376571Y-12999071D01*
X20362286Y-13027643D01*
X20348000Y-13041929D01*
X20319428Y-13056214D01*
X20290857Y-13056214D01*
X20262286Y-13041929D01*
X20248000Y-13027643D01*
X20233714Y-12999071D01*
X20219428Y-12941929D01*
X20219428Y-12870500D01*
X20233714Y-12813357D01*
X20248000Y-12784786D01*
X20262286Y-12770500D01*
X20290857Y-12756214D01*
X20519428Y-13056214D02*
X20519428Y-12856214D01*
X20519428Y-12884786D02*
X20533714Y-12870500D01*
X20562286Y-12856214D01*
X20605143Y-12856214D01*
X20633714Y-12870500D01*
X20648000Y-12899071D01*
X20648000Y-13056214D01*
X20648000Y-12899071D02*
X20662286Y-12870500D01*
X20690857Y-12856214D01*
X20733714Y-12856214D01*
X20762286Y-12870500D01*
X20776571Y-12899071D01*
X20776571Y-13056214D01*
X20919428Y-13056214D02*
X20919428Y-12856214D01*
X20919428Y-12884786D02*
X20933714Y-12870500D01*
X20962286Y-12856214D01*
X21005143Y-12856214D01*
X21033714Y-12870500D01*
X21048000Y-12899071D01*
X21048000Y-13056214D01*
X21048000Y-12899071D02*
X21062286Y-12870500D01*
X21090857Y-12856214D01*
X21133714Y-12856214D01*
X21162286Y-12870500D01*
X21176571Y-12899071D01*
X21176571Y-13056214D01*
X21762286Y-12741929D02*
X21505143Y-13127643D01*
X22148000Y-12756214D02*
X22176571Y-12756214D01*
X22205143Y-12770500D01*
X22219428Y-12784786D01*
X22233714Y-12813357D01*
X22248000Y-12870500D01*
X22248000Y-12941929D01*
X22233714Y-12999071D01*
X22219428Y-13027643D01*
X22205143Y-13041929D01*
X22176571Y-13056214D01*
X22148000Y-13056214D01*
X22119428Y-13041929D01*
X22105143Y-13027643D01*
X22090857Y-12999071D01*
X22076571Y-12941929D01*
X22076571Y-12870500D01*
X22090857Y-12813357D01*
X22105143Y-12784786D01*
X22119428Y-12770500D01*
X22148000Y-12756214D01*
X22376571Y-13027643D02*
X22390857Y-13041929D01*
X22376571Y-13056214D01*
X22362286Y-13041929D01*
X22376571Y-13027643D01*
X22376571Y-13056214D01*
X22576571Y-12756214D02*
X22605143Y-12756214D01*
X22633714Y-12770500D01*
X22648000Y-12784786D01*
X22662286Y-12813357D01*
X22676571Y-12870500D01*
X22676571Y-12941929D01*
X22662286Y-12999071D01*
X22648000Y-13027643D01*
X22633714Y-13041929D01*
X22605143Y-13056214D01*
X22576571Y-13056214D01*
X22548000Y-13041929D01*
X22533714Y-13027643D01*
X22519428Y-12999071D01*
X22505143Y-12941929D01*
X22505143Y-12870500D01*
X22519428Y-12813357D01*
X22533714Y-12784786D01*
X22548000Y-12770500D01*
X22576571Y-12756214D01*
X22776571Y-12756214D02*
X22962286Y-12756214D01*
X22862286Y-12870500D01*
X22905143Y-12870500D01*
X22933714Y-12884786D01*
X22948000Y-12899071D01*
X22962286Y-12927643D01*
X22962286Y-12999071D01*
X22948000Y-13027643D01*
X22933714Y-13041929D01*
X22905143Y-13056214D01*
X22819428Y-13056214D01*
X22790857Y-13041929D01*
X22776571Y-13027643D01*
X23248000Y-13056214D02*
X23076571Y-13056214D01*
X23162286Y-13056214D02*
X23162286Y-12756214D01*
X23133714Y-12799071D01*
X23105143Y-12827643D01*
X23076571Y-12841929D01*
X23362286Y-12756214D02*
X23362286Y-12813357D01*
X23476571Y-12756214D02*
X23476571Y-12813357D01*
X23919428Y-13170500D02*
X23905143Y-13156214D01*
X23876571Y-13113357D01*
X23862286Y-13084786D01*
X23848000Y-13041929D01*
X23833714Y-12970500D01*
X23833714Y-12913357D01*
X23848000Y-12841929D01*
X23862286Y-12799071D01*
X23876571Y-12770500D01*
X23905143Y-12727643D01*
X23919428Y-12713357D01*
X24076571Y-12884786D02*
X24048000Y-12870500D01*
X24033714Y-12856214D01*
X24019428Y-12827643D01*
X24019428Y-12813357D01*
X24033714Y-12784786D01*
X24048000Y-12770500D01*
X24076571Y-12756214D01*
X24133714Y-12756214D01*
X24162286Y-12770500D01*
X24176571Y-12784786D01*
X24190857Y-12813357D01*
X24190857Y-12827643D01*
X24176571Y-12856214D01*
X24162286Y-12870500D01*
X24133714Y-12884786D01*
X24076571Y-12884786D01*
X24048000Y-12899071D01*
X24033714Y-12913357D01*
X24019428Y-12941929D01*
X24019428Y-12999071D01*
X24033714Y-13027643D01*
X24048000Y-13041929D01*
X24076571Y-13056214D01*
X24133714Y-13056214D01*
X24162286Y-13041929D01*
X24176571Y-13027643D01*
X24190857Y-12999071D01*
X24190857Y-12941929D01*
X24176571Y-12913357D01*
X24162286Y-12899071D01*
X24133714Y-12884786D01*
X24548000Y-13056214D02*
X24548000Y-12756214D01*
X24676571Y-13056214D02*
X24676571Y-12899071D01*
X24662286Y-12870500D01*
X24633714Y-12856214D01*
X24590857Y-12856214D01*
X24562286Y-12870500D01*
X24548000Y-12884786D01*
X24862286Y-13056214D02*
X24833714Y-13041929D01*
X24819428Y-13027643D01*
X24805143Y-12999071D01*
X24805143Y-12913357D01*
X24819428Y-12884786D01*
X24833714Y-12870500D01*
X24862286Y-12856214D01*
X24905143Y-12856214D01*
X24933714Y-12870500D01*
X24948000Y-12884786D01*
X24962286Y-12913357D01*
X24962286Y-12999071D01*
X24948000Y-13027643D01*
X24933714Y-13041929D01*
X24905143Y-13056214D01*
X24862286Y-13056214D01*
X25133714Y-13056214D02*
X25105143Y-13041929D01*
X25090857Y-13013357D01*
X25090857Y-12756214D01*
X25362286Y-13041929D02*
X25333714Y-13056214D01*
X25276571Y-13056214D01*
X25248000Y-13041929D01*
X25233714Y-13013357D01*
X25233714Y-12899071D01*
X25248000Y-12870500D01*
X25276571Y-12856214D01*
X25333714Y-12856214D01*
X25362286Y-12870500D01*
X25376571Y-12899071D01*
X25376571Y-12927643D01*
X25233714Y-12956214D01*
X25490857Y-13041929D02*
X25519428Y-13056214D01*
X25576571Y-13056214D01*
X25605143Y-13041929D01*
X25619428Y-13013357D01*
X25619428Y-12999071D01*
X25605143Y-12970500D01*
X25576571Y-12956214D01*
X25533714Y-12956214D01*
X25505143Y-12941929D01*
X25490857Y-12913357D01*
X25490857Y-12899071D01*
X25505143Y-12870500D01*
X25533714Y-12856214D01*
X25576571Y-12856214D01*
X25605143Y-12870500D01*
X25719428Y-13170500D02*
X25733714Y-13156214D01*
X25762286Y-13113357D01*
X25776571Y-13084786D01*
X25790857Y-13041929D01*
X25805143Y-12970500D01*
X25805143Y-12913357D01*
X25790857Y-12841929D01*
X25776571Y-12799071D01*
X25762286Y-12770500D01*
X25733714Y-12727643D01*
X25719428Y-12713357D01*
X19173000Y-13256500D02*
X19173000Y-13376500D01*
X19113000Y-13316500D02*
X19233000Y-13316500D01*
X19676571Y-13452214D02*
X19505143Y-13452214D01*
X19590857Y-13452214D02*
X19590857Y-13152214D01*
X19562286Y-13195071D01*
X19533714Y-13223643D01*
X19505143Y-13237929D01*
X19805143Y-13423643D02*
X19819428Y-13437929D01*
X19805143Y-13452214D01*
X19790857Y-13437929D01*
X19805143Y-13423643D01*
X19805143Y-13452214D01*
X19933714Y-13180786D02*
X19948000Y-13166500D01*
X19976571Y-13152214D01*
X20048000Y-13152214D01*
X20076571Y-13166500D01*
X20090857Y-13180786D01*
X20105143Y-13209357D01*
X20105143Y-13237929D01*
X20090857Y-13280786D01*
X19919428Y-13452214D01*
X20105143Y-13452214D01*
X20290857Y-13152214D02*
X20319428Y-13152214D01*
X20348000Y-13166500D01*
X20362286Y-13180786D01*
X20376571Y-13209357D01*
X20390857Y-13266500D01*
X20390857Y-13337929D01*
X20376571Y-13395071D01*
X20362286Y-13423643D01*
X20348000Y-13437929D01*
X20319428Y-13452214D01*
X20290857Y-13452214D01*
X20262286Y-13437929D01*
X20248000Y-13423643D01*
X20233714Y-13395071D01*
X20219428Y-13337929D01*
X20219428Y-13266500D01*
X20233714Y-13209357D01*
X20248000Y-13180786D01*
X20262286Y-13166500D01*
X20290857Y-13152214D01*
X20519428Y-13452214D02*
X20519428Y-13252214D01*
X20519428Y-13280786D02*
X20533714Y-13266500D01*
X20562286Y-13252214D01*
X20605143Y-13252214D01*
X20633714Y-13266500D01*
X20648000Y-13295071D01*
X20648000Y-13452214D01*
X20648000Y-13295071D02*
X20662286Y-13266500D01*
X20690857Y-13252214D01*
X20733714Y-13252214D01*
X20762286Y-13266500D01*
X20776571Y-13295071D01*
X20776571Y-13452214D01*
X20919428Y-13452214D02*
X20919428Y-13252214D01*
X20919428Y-13280786D02*
X20933714Y-13266500D01*
X20962286Y-13252214D01*
X21005143Y-13252214D01*
X21033714Y-13266500D01*
X21048000Y-13295071D01*
X21048000Y-13452214D01*
X21048000Y-13295071D02*
X21062286Y-13266500D01*
X21090857Y-13252214D01*
X21133714Y-13252214D01*
X21162286Y-13266500D01*
X21176571Y-13295071D01*
X21176571Y-13452214D01*
X21762286Y-13137929D02*
X21505143Y-13523643D01*
X22148000Y-13152214D02*
X22176571Y-13152214D01*
X22205143Y-13166500D01*
X22219428Y-13180786D01*
X22233714Y-13209357D01*
X22248000Y-13266500D01*
X22248000Y-13337929D01*
X22233714Y-13395071D01*
X22219428Y-13423643D01*
X22205143Y-13437929D01*
X22176571Y-13452214D01*
X22148000Y-13452214D01*
X22119428Y-13437929D01*
X22105143Y-13423643D01*
X22090857Y-13395071D01*
X22076571Y-13337929D01*
X22076571Y-13266500D01*
X22090857Y-13209357D01*
X22105143Y-13180786D01*
X22119428Y-13166500D01*
X22148000Y-13152214D01*
X22376571Y-13423643D02*
X22390857Y-13437929D01*
X22376571Y-13452214D01*
X22362286Y-13437929D01*
X22376571Y-13423643D01*
X22376571Y-13452214D01*
X22576571Y-13152214D02*
X22605143Y-13152214D01*
X22633714Y-13166500D01*
X22648000Y-13180786D01*
X22662286Y-13209357D01*
X22676571Y-13266500D01*
X22676571Y-13337929D01*
X22662286Y-13395071D01*
X22648000Y-13423643D01*
X22633714Y-13437929D01*
X22605143Y-13452214D01*
X22576571Y-13452214D01*
X22548000Y-13437929D01*
X22533714Y-13423643D01*
X22519428Y-13395071D01*
X22505143Y-13337929D01*
X22505143Y-13266500D01*
X22519428Y-13209357D01*
X22533714Y-13180786D01*
X22548000Y-13166500D01*
X22576571Y-13152214D01*
X22933714Y-13252214D02*
X22933714Y-13452214D01*
X22862286Y-13137929D02*
X22790857Y-13352214D01*
X22976571Y-13352214D01*
X23062286Y-13152214D02*
X23262286Y-13152214D01*
X23133714Y-13452214D01*
X23362286Y-13152214D02*
X23362286Y-13209357D01*
X23476571Y-13152214D02*
X23476571Y-13209357D01*
X23919428Y-13566500D02*
X23905143Y-13552214D01*
X23876571Y-13509357D01*
X23862286Y-13480786D01*
X23848000Y-13437929D01*
X23833714Y-13366500D01*
X23833714Y-13309357D01*
X23848000Y-13237929D01*
X23862286Y-13195071D01*
X23876571Y-13166500D01*
X23905143Y-13123643D01*
X23919428Y-13109357D01*
X24190857Y-13452214D02*
X24019428Y-13452214D01*
X24105143Y-13452214D02*
X24105143Y-13152214D01*
X24076571Y-13195071D01*
X24048000Y-13223643D01*
X24019428Y-13237929D01*
X24362286Y-13280786D02*
X24333714Y-13266500D01*
X24319428Y-13252214D01*
X24305143Y-13223643D01*
X24305143Y-13209357D01*
X24319428Y-13180786D01*
X24333714Y-13166500D01*
X24362286Y-13152214D01*
X24419428Y-13152214D01*
X24448000Y-13166500D01*
X24462286Y-13180786D01*
X24476571Y-13209357D01*
X24476571Y-13223643D01*
X24462286Y-13252214D01*
X24448000Y-13266500D01*
X24419428Y-13280786D01*
X24362286Y-13280786D01*
X24333714Y-13295071D01*
X24319428Y-13309357D01*
X24305143Y-13337929D01*
X24305143Y-13395071D01*
X24319428Y-13423643D01*
X24333714Y-13437929D01*
X24362286Y-13452214D01*
X24419428Y-13452214D01*
X24448000Y-13437929D01*
X24462286Y-13423643D01*
X24476571Y-13395071D01*
X24476571Y-13337929D01*
X24462286Y-13309357D01*
X24448000Y-13295071D01*
X24419428Y-13280786D01*
X24833714Y-13452214D02*
X24833714Y-13152214D01*
X24962286Y-13452214D02*
X24962286Y-13295071D01*
X24948000Y-13266500D01*
X24919428Y-13252214D01*
X24876571Y-13252214D01*
X24848000Y-13266500D01*
X24833714Y-13280786D01*
X25148000Y-13452214D02*
X25119428Y-13437929D01*
X25105143Y-13423643D01*
X25090857Y-13395071D01*
X25090857Y-13309357D01*
X25105143Y-13280786D01*
X25119428Y-13266500D01*
X25148000Y-13252214D01*
X25190857Y-13252214D01*
X25219428Y-13266500D01*
X25233714Y-13280786D01*
X25248000Y-13309357D01*
X25248000Y-13395071D01*
X25233714Y-13423643D01*
X25219428Y-13437929D01*
X25190857Y-13452214D01*
X25148000Y-13452214D01*
X25419428Y-13452214D02*
X25390857Y-13437929D01*
X25376571Y-13409357D01*
X25376571Y-13152214D01*
X25648000Y-13437929D02*
X25619428Y-13452214D01*
X25562286Y-13452214D01*
X25533714Y-13437929D01*
X25519428Y-13409357D01*
X25519428Y-13295071D01*
X25533714Y-13266500D01*
X25562286Y-13252214D01*
X25619428Y-13252214D01*
X25648000Y-13266500D01*
X25662286Y-13295071D01*
X25662286Y-13323643D01*
X25519428Y-13352214D01*
X25776571Y-13437929D02*
X25805143Y-13452214D01*
X25862286Y-13452214D01*
X25890857Y-13437929D01*
X25905143Y-13409357D01*
X25905143Y-13395071D01*
X25890857Y-13366500D01*
X25862286Y-13352214D01*
X25819428Y-13352214D01*
X25790857Y-13337929D01*
X25776571Y-13309357D01*
X25776571Y-13295071D01*
X25790857Y-13266500D01*
X25819428Y-13252214D01*
X25862286Y-13252214D01*
X25890857Y-13266500D01*
X26005143Y-13566500D02*
X26019428Y-13552214D01*
X26048000Y-13509357D01*
X26062286Y-13480786D01*
X26076571Y-13437929D01*
X26090857Y-13366500D01*
X26090857Y-13309357D01*
X26076571Y-13237929D01*
X26062286Y-13195071D01*
X26048000Y-13166500D01*
X26019428Y-13123643D01*
X26005143Y-13109357D01*
X19189067Y-13818567D02*
X19189067Y-13606433D01*
X18976933Y-13606433D01*
X18976933Y-13818567D01*
X19189067Y-13818567D01*
X19490857Y-13548214D02*
X19676571Y-13548214D01*
X19576571Y-13662500D01*
X19619428Y-13662500D01*
X19648000Y-13676786D01*
X19662286Y-13691071D01*
X19676571Y-13719643D01*
X19676571Y-13791071D01*
X19662286Y-13819643D01*
X19648000Y-13833929D01*
X19619428Y-13848214D01*
X19533714Y-13848214D01*
X19505143Y-13833929D01*
X19490857Y-13819643D01*
X19805143Y-13819643D02*
X19819428Y-13833929D01*
X19805143Y-13848214D01*
X19790857Y-13833929D01*
X19805143Y-13819643D01*
X19805143Y-13848214D01*
X20005143Y-13548214D02*
X20033714Y-13548214D01*
X20062286Y-13562500D01*
X20076571Y-13576786D01*
X20090857Y-13605357D01*
X20105143Y-13662500D01*
X20105143Y-13733929D01*
X20090857Y-13791071D01*
X20076571Y-13819643D01*
X20062286Y-13833929D01*
X20033714Y-13848214D01*
X20005143Y-13848214D01*
X19976571Y-13833929D01*
X19962286Y-13819643D01*
X19948000Y-13791071D01*
X19933714Y-13733929D01*
X19933714Y-13662500D01*
X19948000Y-13605357D01*
X19962286Y-13576786D01*
X19976571Y-13562500D01*
X20005143Y-13548214D01*
X20290857Y-13548214D02*
X20319428Y-13548214D01*
X20348000Y-13562500D01*
X20362286Y-13576786D01*
X20376571Y-13605357D01*
X20390857Y-13662500D01*
X20390857Y-13733929D01*
X20376571Y-13791071D01*
X20362286Y-13819643D01*
X20348000Y-13833929D01*
X20319428Y-13848214D01*
X20290857Y-13848214D01*
X20262286Y-13833929D01*
X20248000Y-13819643D01*
X20233714Y-13791071D01*
X20219428Y-13733929D01*
X20219428Y-13662500D01*
X20233714Y-13605357D01*
X20248000Y-13576786D01*
X20262286Y-13562500D01*
X20290857Y-13548214D01*
X20519428Y-13848214D02*
X20519428Y-13648214D01*
X20519428Y-13676786D02*
X20533714Y-13662500D01*
X20562286Y-13648214D01*
X20605143Y-13648214D01*
X20633714Y-13662500D01*
X20648000Y-13691071D01*
X20648000Y-13848214D01*
X20648000Y-13691071D02*
X20662286Y-13662500D01*
X20690857Y-13648214D01*
X20733714Y-13648214D01*
X20762286Y-13662500D01*
X20776571Y-13691071D01*
X20776571Y-13848214D01*
X20919428Y-13848214D02*
X20919428Y-13648214D01*
X20919428Y-13676786D02*
X20933714Y-13662500D01*
X20962286Y-13648214D01*
X21005143Y-13648214D01*
X21033714Y-13662500D01*
X21048000Y-13691071D01*
X21048000Y-13848214D01*
X21048000Y-13691071D02*
X21062286Y-13662500D01*
X21090857Y-13648214D01*
X21133714Y-13648214D01*
X21162286Y-13662500D01*
X21176571Y-13691071D01*
X21176571Y-13848214D01*
X21762286Y-13533929D02*
X21505143Y-13919643D01*
X22148000Y-13548214D02*
X22176571Y-13548214D01*
X22205143Y-13562500D01*
X22219428Y-13576786D01*
X22233714Y-13605357D01*
X22248000Y-13662500D01*
X22248000Y-13733929D01*
X22233714Y-13791071D01*
X22219428Y-13819643D01*
X22205143Y-13833929D01*
X22176571Y-13848214D01*
X22148000Y-13848214D01*
X22119428Y-13833929D01*
X22105143Y-13819643D01*
X22090857Y-13791071D01*
X22076571Y-13733929D01*
X22076571Y-13662500D01*
X22090857Y-13605357D01*
X22105143Y-13576786D01*
X22119428Y-13562500D01*
X22148000Y-13548214D01*
X22376571Y-13819643D02*
X22390857Y-13833929D01*
X22376571Y-13848214D01*
X22362286Y-13833929D01*
X22376571Y-13819643D01*
X22376571Y-13848214D01*
X22676571Y-13848214D02*
X22505143Y-13848214D01*
X22590857Y-13848214D02*
X22590857Y-13548214D01*
X22562286Y-13591071D01*
X22533714Y-13619643D01*
X22505143Y-13633929D01*
X22962286Y-13848214D02*
X22790857Y-13848214D01*
X22876571Y-13848214D02*
X22876571Y-13548214D01*
X22848000Y-13591071D01*
X22819428Y-13619643D01*
X22790857Y-13633929D01*
X23133714Y-13676786D02*
X23105143Y-13662500D01*
X23090857Y-13648214D01*
X23076571Y-13619643D01*
X23076571Y-13605357D01*
X23090857Y-13576786D01*
X23105143Y-13562500D01*
X23133714Y-13548214D01*
X23190857Y-13548214D01*
X23219428Y-13562500D01*
X23233714Y-13576786D01*
X23248000Y-13605357D01*
X23248000Y-13619643D01*
X23233714Y-13648214D01*
X23219428Y-13662500D01*
X23190857Y-13676786D01*
X23133714Y-13676786D01*
X23105143Y-13691071D01*
X23090857Y-13705357D01*
X23076571Y-13733929D01*
X23076571Y-13791071D01*
X23090857Y-13819643D01*
X23105143Y-13833929D01*
X23133714Y-13848214D01*
X23190857Y-13848214D01*
X23219428Y-13833929D01*
X23233714Y-13819643D01*
X23248000Y-13791071D01*
X23248000Y-13733929D01*
X23233714Y-13705357D01*
X23219428Y-13691071D01*
X23190857Y-13676786D01*
X23362286Y-13548214D02*
X23362286Y-13605357D01*
X23476571Y-13548214D02*
X23476571Y-13605357D01*
X23919428Y-13962500D02*
X23905143Y-13948214D01*
X23876571Y-13905357D01*
X23862286Y-13876786D01*
X23848000Y-13833929D01*
X23833714Y-13762500D01*
X23833714Y-13705357D01*
X23848000Y-13633929D01*
X23862286Y-13591071D01*
X23876571Y-13562500D01*
X23905143Y-13519643D01*
X23919428Y-13505357D01*
X24162286Y-13648214D02*
X24162286Y-13848214D01*
X24090857Y-13533929D02*
X24019428Y-13748214D01*
X24205143Y-13748214D01*
X24548000Y-13848214D02*
X24548000Y-13548214D01*
X24676571Y-13848214D02*
X24676571Y-13691071D01*
X24662286Y-13662500D01*
X24633714Y-13648214D01*
X24590857Y-13648214D01*
X24562286Y-13662500D01*
X24548000Y-13676786D01*
X24862286Y-13848214D02*
X24833714Y-13833929D01*
X24819428Y-13819643D01*
X24805143Y-13791071D01*
X24805143Y-13705357D01*
X24819428Y-13676786D01*
X24833714Y-13662500D01*
X24862286Y-13648214D01*
X24905143Y-13648214D01*
X24933714Y-13662500D01*
X24948000Y-13676786D01*
X24962286Y-13705357D01*
X24962286Y-13791071D01*
X24948000Y-13819643D01*
X24933714Y-13833929D01*
X24905143Y-13848214D01*
X24862286Y-13848214D01*
X25133714Y-13848214D02*
X25105143Y-13833929D01*
X25090857Y-13805357D01*
X25090857Y-13548214D01*
X25362286Y-13833929D02*
X25333714Y-13848214D01*
X25276571Y-13848214D01*
X25248000Y-13833929D01*
X25233714Y-13805357D01*
X25233714Y-13691071D01*
X25248000Y-13662500D01*
X25276571Y-13648214D01*
X25333714Y-13648214D01*
X25362286Y-13662500D01*
X25376571Y-13691071D01*
X25376571Y-13719643D01*
X25233714Y-13748214D01*
X25490857Y-13833929D02*
X25519428Y-13848214D01*
X25576571Y-13848214D01*
X25605143Y-13833929D01*
X25619428Y-13805357D01*
X25619428Y-13791071D01*
X25605143Y-13762500D01*
X25576571Y-13748214D01*
X25533714Y-13748214D01*
X25505143Y-13733929D01*
X25490857Y-13705357D01*
X25490857Y-13691071D01*
X25505143Y-13662500D01*
X25533714Y-13648214D01*
X25576571Y-13648214D01*
X25605143Y-13662500D01*
X25719428Y-13962500D02*
X25733714Y-13948214D01*
X25762286Y-13905357D01*
X25776571Y-13876786D01*
X25790857Y-13833929D01*
X25805143Y-13762500D01*
X25805143Y-13705357D01*
X25790857Y-13633929D01*
X25776571Y-13591071D01*
X25762286Y-13562500D01*
X25733714Y-13519643D01*
X25719428Y-13505357D01*
M02*
