G04 #@! TF.GenerationSoftware,KiCad,Pcbnew,7.0.9*
G04 #@! TF.CreationDate,2023-12-25T16:07:17+01:00*
G04 #@! TF.ProjectId,wall-mounted-room-temperature-sensor-ethernet,77616c6c-2d6d-46f7-956e-7465642d726f,v1.0*
G04 #@! TF.SameCoordinates,Original*
G04 #@! TF.FileFunction,Soldermask,Bot*
G04 #@! TF.FilePolarity,Negative*
%FSLAX46Y46*%
G04 Gerber Fmt 4.6, Leading zero omitted, Abs format (unit mm)*
G04 Created by KiCad (PCBNEW 7.0.9) date 2023-12-25 16:07:17*
%MOMM*%
%LPD*%
G01*
G04 APERTURE LIST*
G04 Aperture macros list*
%AMRoundRect*
0 Rectangle with rounded corners*
0 $1 Rounding radius*
0 $2 $3 $4 $5 $6 $7 $8 $9 X,Y pos of 4 corners*
0 Add a 4 corners polygon primitive as box body*
4,1,4,$2,$3,$4,$5,$6,$7,$8,$9,$2,$3,0*
0 Add four circle primitives for the rounded corners*
1,1,$1+$1,$2,$3*
1,1,$1+$1,$4,$5*
1,1,$1+$1,$6,$7*
1,1,$1+$1,$8,$9*
0 Add four rect primitives between the rounded corners*
20,1,$1+$1,$2,$3,$4,$5,0*
20,1,$1+$1,$4,$5,$6,$7,0*
20,1,$1+$1,$6,$7,$8,$9,0*
20,1,$1+$1,$8,$9,$2,$3,0*%
%AMFreePoly0*
4,1,13,0.685355,0.935355,0.700000,0.900000,0.700000,-0.900000,0.685355,-0.935355,0.650000,-0.950000,-0.650000,-0.950000,-0.685355,-0.935355,-0.700000,-0.900000,-0.700000,0.900000,-0.685355,0.935355,-0.650000,0.950000,0.650000,0.950000,0.685355,0.935355,0.685355,0.935355,$1*%
%AMFreePoly1*
4,1,13,1.035355,0.285355,1.050000,0.250000,1.050000,-0.250000,1.035355,-0.285355,1.000000,-0.300000,-1.000000,-0.300000,-1.035355,-0.285355,-1.050000,-0.250000,-1.050000,0.250000,-1.035355,0.285355,-1.000000,0.300000,1.000000,0.300000,1.035355,0.285355,1.035355,0.285355,$1*%
G04 Aperture macros list end*
%ADD10RoundRect,0.050000X-1.250000X1.250000X-1.250000X-1.250000X1.250000X-1.250000X1.250000X1.250000X0*%
%ADD11RoundRect,0.050000X-0.525000X-0.750000X0.525000X-0.750000X0.525000X0.750000X-0.525000X0.750000X0*%
%ADD12RoundRect,0.312500X-0.262500X-0.487500X0.262500X-0.487500X0.262500X0.487500X-0.262500X0.487500X0*%
%ADD13RoundRect,0.050000X0.150000X0.400000X-0.150000X0.400000X-0.150000X-0.400000X0.150000X-0.400000X0*%
%ADD14RoundRect,0.050000X0.400000X-0.150000X0.400000X0.150000X-0.400000X0.150000X-0.400000X-0.150000X0*%
%ADD15C,1.950000*%
%ADD16C,3.600000*%
%ADD17C,3.100000*%
%ADD18RoundRect,0.050000X-0.900000X0.900000X-0.900000X-0.900000X0.900000X-0.900000X0.900000X0.900000X0*%
%ADD19O,1.900000X1.900000*%
%ADD20RoundRect,0.050000X1.050000X1.050000X-1.050000X1.050000X-1.050000X-1.050000X1.050000X-1.050000X0*%
%ADD21O,2.200000X2.200000*%
%ADD22RoundRect,0.050000X0.750000X-0.650000X0.750000X0.650000X-0.750000X0.650000X-0.750000X-0.650000X0*%
%ADD23RoundRect,0.050000X0.650000X0.750000X-0.650000X0.750000X-0.650000X-0.750000X0.650000X-0.750000X0*%
%ADD24RoundRect,0.050000X-0.750000X0.650000X-0.750000X-0.650000X0.750000X-0.650000X0.750000X0.650000X0*%
%ADD25RoundRect,0.050000X-0.650000X-0.750000X0.650000X-0.750000X0.650000X0.750000X-0.650000X0.750000X0*%
%ADD26C,2.300000*%
%ADD27C,3.300000*%
%ADD28C,1.600000*%
%ADD29C,3.400000*%
%ADD30RoundRect,0.050000X0.650000X0.500000X-0.650000X0.500000X-0.650000X-0.500000X0.650000X-0.500000X0*%
%ADD31RoundRect,0.050000X0.400000X-0.400000X0.400000X0.400000X-0.400000X0.400000X-0.400000X-0.400000X0*%
%ADD32RoundRect,0.050000X-0.400000X0.400000X-0.400000X-0.400000X0.400000X-0.400000X0.400000X0.400000X0*%
%ADD33FreePoly0,90.000000*%
%ADD34FreePoly0,180.000000*%
%ADD35RoundRect,0.050000X-0.250000X1.000000X-0.250000X-1.000000X0.250000X-1.000000X0.250000X1.000000X0*%
%ADD36FreePoly1,270.000000*%
%ADD37RoundRect,0.050000X1.100000X0.400000X-1.100000X0.400000X-1.100000X-0.400000X1.100000X-0.400000X0*%
%ADD38RoundRect,0.050000X-0.650000X-0.500000X0.650000X-0.500000X0.650000X0.500000X-0.650000X0.500000X0*%
%ADD39FreePoly0,0.000000*%
%ADD40C,0.900000*%
G04 APERTURE END LIST*
D10*
X46780000Y-118110000D03*
X52280000Y-118110000D03*
D11*
X90170000Y-155575000D03*
D12*
X91440000Y-155575000D03*
X92710000Y-155575000D03*
D13*
X131175000Y-142145000D03*
X130675000Y-142145000D03*
X130175000Y-142145000D03*
X129675000Y-142145000D03*
X129175000Y-142145000D03*
X129175000Y-141065000D03*
X129675000Y-141065000D03*
X130175000Y-141065000D03*
X130675000Y-141065000D03*
X131175000Y-141065000D03*
D14*
X78200000Y-110220000D03*
X78200000Y-109720000D03*
X78200000Y-109220000D03*
X78200000Y-108720000D03*
X78200000Y-108220000D03*
X79280000Y-108220000D03*
X79280000Y-108720000D03*
X79280000Y-109220000D03*
X79280000Y-109720000D03*
X79280000Y-110220000D03*
D15*
X108585000Y-133270000D03*
X108585000Y-142320000D03*
D16*
X114885000Y-140345000D03*
X102285000Y-140345000D03*
X114885000Y-135245000D03*
X102285000Y-135245000D03*
D17*
X108585000Y-144745000D03*
D15*
X91500000Y-133270000D03*
X91500000Y-142320000D03*
D16*
X97800000Y-140345000D03*
X85200000Y-140345000D03*
X97800000Y-135245000D03*
X85200000Y-135245000D03*
D17*
X91500000Y-144745000D03*
D15*
X74295000Y-133270000D03*
X74295000Y-142320000D03*
D16*
X80595000Y-140345000D03*
X67995000Y-140345000D03*
X80595000Y-135245000D03*
X67995000Y-135245000D03*
D17*
X74295000Y-144745000D03*
D18*
X127635000Y-145415000D03*
D19*
X127635000Y-147955000D03*
X130175000Y-145415000D03*
X130175000Y-147955000D03*
X132715000Y-145415000D03*
X132715000Y-147955000D03*
D20*
X123515000Y-118745000D03*
D21*
X123515000Y-116205000D03*
X123515000Y-113665000D03*
X123515000Y-111125000D03*
X123515000Y-108585000D03*
X123515000Y-106045000D03*
X123515000Y-103505000D03*
X123515000Y-100965000D03*
X123515000Y-98425000D03*
D22*
X79375000Y-73360000D03*
X79375000Y-71420000D03*
X76835000Y-73360000D03*
X76835000Y-71420000D03*
D23*
X82885000Y-107315000D03*
X80945000Y-107315000D03*
X82885000Y-104775000D03*
X80945000Y-104775000D03*
D24*
X99060000Y-117140000D03*
X99060000Y-119080000D03*
X95885000Y-117140000D03*
X95885000Y-119080000D03*
X48895000Y-99995000D03*
X48895000Y-101935000D03*
X49530000Y-105710000D03*
X49530000Y-107650000D03*
D22*
X52070000Y-101935000D03*
X52070000Y-99995000D03*
X68580000Y-73360000D03*
X68580000Y-71420000D03*
D23*
X64470000Y-78740000D03*
X62530000Y-78740000D03*
D25*
X58085000Y-72390000D03*
X60025000Y-72390000D03*
D23*
X49865000Y-75565000D03*
X47925000Y-75565000D03*
D22*
X71120000Y-73360000D03*
X71120000Y-71420000D03*
D25*
X133650000Y-78105000D03*
X135590000Y-78105000D03*
X133650000Y-75565000D03*
X135590000Y-75565000D03*
X133650000Y-83185000D03*
X135590000Y-83185000D03*
D24*
X109220000Y-136825000D03*
X109220000Y-138765000D03*
X92075000Y-136825000D03*
X92075000Y-138765000D03*
X74930000Y-136825000D03*
X74930000Y-138765000D03*
D25*
X41575000Y-95885000D03*
X43515000Y-95885000D03*
D24*
X104140000Y-111425000D03*
X104140000Y-113365000D03*
D22*
X81915000Y-73360000D03*
X81915000Y-71420000D03*
D24*
X85725000Y-71420000D03*
X85725000Y-73360000D03*
D23*
X85425000Y-114300000D03*
X83485000Y-114300000D03*
X84155000Y-111125000D03*
X82215000Y-111125000D03*
X87330000Y-107315000D03*
X85390000Y-107315000D03*
X87330000Y-104775000D03*
X85390000Y-104775000D03*
D24*
X104140000Y-106980000D03*
X104140000Y-108920000D03*
D22*
X81280000Y-116540000D03*
X81280000Y-114600000D03*
D24*
X99060000Y-99995000D03*
X99060000Y-101935000D03*
X96520000Y-99995000D03*
X96520000Y-101935000D03*
X93980000Y-99995000D03*
X93980000Y-101935000D03*
X91440000Y-99995000D03*
X91440000Y-101935000D03*
D23*
X88600000Y-111125000D03*
X86660000Y-111125000D03*
D22*
X59055000Y-101935000D03*
X59055000Y-99995000D03*
X55880000Y-101935000D03*
X55880000Y-99995000D03*
D23*
X54310000Y-96520000D03*
X52370000Y-96520000D03*
D24*
X69215000Y-75865000D03*
X69215000Y-77805000D03*
D22*
X66675000Y-77805000D03*
X66675000Y-75865000D03*
X60325000Y-80980000D03*
X60325000Y-79040000D03*
D23*
X54945000Y-75565000D03*
X53005000Y-75565000D03*
D22*
X62230000Y-72725000D03*
X62230000Y-70785000D03*
X66040000Y-73360000D03*
X66040000Y-71420000D03*
D25*
X133650000Y-80645000D03*
X135590000Y-80645000D03*
D23*
X105110000Y-144145000D03*
X103170000Y-144145000D03*
D24*
X55880000Y-113330000D03*
X55880000Y-115270000D03*
D22*
X46990000Y-112095000D03*
X46990000Y-110155000D03*
X49530000Y-112095000D03*
X49530000Y-110155000D03*
X46990000Y-134320000D03*
X46990000Y-132380000D03*
D24*
X53340000Y-113330000D03*
X53340000Y-115270000D03*
D26*
X141605000Y-155575000D03*
X141605000Y-110490000D03*
X83185000Y-123825000D03*
X105410000Y-85725000D03*
X41275000Y-80010000D03*
X64135000Y-99695000D03*
D27*
X61000000Y-125720000D03*
X61000000Y-91720000D03*
D26*
X83185000Y-146050000D03*
D28*
X52071000Y-142875000D03*
X50801000Y-145415000D03*
X49531000Y-142875000D03*
X48261000Y-145415000D03*
X46991000Y-142875000D03*
X45721000Y-145415000D03*
X44451000Y-142875000D03*
X43181000Y-145415000D03*
D29*
X53341000Y-151765000D03*
X41909000Y-151765000D03*
D26*
X41910000Y-134620000D03*
X120015000Y-142240000D03*
X59055000Y-155575000D03*
D30*
X60055000Y-74615000D03*
X60055000Y-76515000D03*
X57855000Y-75565000D03*
D31*
X73660000Y-73660000D03*
X73660000Y-71120000D03*
D32*
X111760000Y-136525000D03*
X111760000Y-139065000D03*
X94615000Y-136525000D03*
X94615000Y-139065000D03*
X77470000Y-136525000D03*
X77470000Y-139065000D03*
D30*
X81010000Y-75250000D03*
X81010000Y-77150000D03*
X78810000Y-76200000D03*
D33*
X83185000Y-102235000D03*
X83185000Y-99695000D03*
D34*
X43815000Y-93345000D03*
X41275000Y-93345000D03*
D35*
X52025000Y-104960500D03*
X52675000Y-104960500D03*
X53325000Y-104960500D03*
X53975000Y-104960500D03*
X54625000Y-104960500D03*
X55275000Y-104960500D03*
D36*
X55925000Y-104960500D03*
D35*
X55925000Y-110685500D03*
X55275000Y-110685500D03*
X54625000Y-110685500D03*
X53975000Y-110685500D03*
X53325000Y-110685500D03*
X52675000Y-110685500D03*
X52025000Y-110685500D03*
D37*
X100787200Y-144145000D03*
X100787200Y-145415000D03*
X100787200Y-146685000D03*
X97332800Y-146685000D03*
X97332800Y-145415000D03*
X97332800Y-144145000D03*
D38*
X62500000Y-76515000D03*
X62500000Y-74615000D03*
X64700000Y-75565000D03*
D39*
X41275000Y-118110000D03*
X43815000Y-118110000D03*
D40*
X106045000Y-108585000D03*
X95885000Y-88265000D03*
X99060000Y-76835000D03*
X99060000Y-80645000D03*
X99060000Y-84455000D03*
X99060000Y-88265000D03*
X137160000Y-156845000D03*
X121285000Y-156845000D03*
X142875000Y-132080000D03*
X130175000Y-114935000D03*
X46990000Y-83185000D03*
X59690000Y-83185000D03*
X89535000Y-70485000D03*
X39370000Y-81915000D03*
X142875000Y-115570000D03*
X120015000Y-137795000D03*
X125730000Y-127635000D03*
X72390000Y-130175000D03*
X86995000Y-96520000D03*
X136940001Y-82769999D03*
X88475001Y-92920001D03*
X130175000Y-139700000D03*
X39370000Y-70485000D03*
X99060000Y-120650000D03*
X88265000Y-117475000D03*
X109855000Y-95250000D03*
X102235000Y-111125000D03*
X69215000Y-146685000D03*
X95250000Y-151130000D03*
X95885000Y-76835000D03*
X106680000Y-98425000D03*
X76200000Y-120015000D03*
X105410000Y-99695000D03*
X136940001Y-76419999D03*
X123190000Y-145415000D03*
X105410000Y-70485000D03*
X59830001Y-69709999D03*
X88910332Y-104764668D03*
X95885000Y-84455000D03*
X118530000Y-115990000D03*
X91440000Y-104775000D03*
X80645000Y-109220000D03*
X142875000Y-150495000D03*
X95885000Y-80645000D03*
X89662000Y-97155000D03*
X111125000Y-95250000D03*
X85090000Y-109220000D03*
X95885000Y-120650000D03*
X78740000Y-146685000D03*
X83820000Y-96520000D03*
X73660000Y-95885000D03*
X73660000Y-78740000D03*
X73660000Y-81280000D03*
X76200000Y-76200000D03*
X81580000Y-94950000D03*
X85205000Y-95135000D03*
X77470000Y-76200000D03*
X77470000Y-96520000D03*
X86995000Y-92790002D03*
X81280000Y-99695000D03*
X117475000Y-122555000D03*
X113665000Y-122555000D03*
X111125000Y-100965000D03*
X112395000Y-122555000D03*
X116205000Y-122555000D03*
X97155000Y-94615000D03*
X106045000Y-135255000D03*
X87122000Y-99695000D03*
X102870000Y-115570000D03*
X78740000Y-121285000D03*
X99060000Y-110490000D03*
X80645000Y-118110000D03*
X99060000Y-94615000D03*
X88900000Y-128270000D03*
X99060000Y-128270000D03*
X78740000Y-127635000D03*
X108585000Y-98425000D03*
X94615000Y-94615000D03*
X105745000Y-142540000D03*
X57150000Y-111125000D03*
X57150000Y-109855000D03*
X39370000Y-118745000D03*
X57150000Y-112395000D03*
X46355000Y-120015000D03*
X42210000Y-120315000D03*
X54610000Y-118745000D03*
X55880000Y-118745000D03*
X57150000Y-118745000D03*
X83820000Y-108585000D03*
X79375000Y-107315000D03*
X76835000Y-107315000D03*
X76835000Y-104775000D03*
X99060000Y-111760000D03*
X96520000Y-111760000D03*
X76200000Y-87630000D03*
X127000000Y-86995000D03*
X76835000Y-90805000D03*
X123825000Y-94615000D03*
X109855000Y-84455000D03*
X76200000Y-86360000D03*
X134620000Y-79375000D03*
X135128000Y-74114999D03*
X134620000Y-76835000D03*
X52070000Y-109093000D03*
X54610000Y-90170000D03*
X48895000Y-90170000D03*
X46482000Y-95758000D03*
X48260000Y-111125000D03*
X45593000Y-101600000D03*
X66040000Y-93345000D03*
X52070000Y-114300000D03*
X53870000Y-108690000D03*
X45720000Y-91440000D03*
X45593000Y-100330000D03*
X45466000Y-113792000D03*
X67310000Y-100965000D03*
X53870000Y-100330000D03*
X45212000Y-95758000D03*
X57150000Y-99695000D03*
X48260000Y-106680000D03*
X42545000Y-111125000D03*
X39370000Y-109220000D03*
X39370000Y-156845000D03*
X58420000Y-144145000D03*
X59690000Y-135890000D03*
X39370000Y-139700000D03*
X56515000Y-156845000D03*
X57785000Y-127635000D03*
X39370000Y-127635000D03*
X49530000Y-135255000D03*
X46355000Y-135890000D03*
X66040000Y-80010000D03*
X83820000Y-73660000D03*
X50800000Y-73660000D03*
X71120000Y-76835000D03*
X130175000Y-143510000D03*
X130810000Y-74295000D03*
X123190000Y-137160000D03*
X120015000Y-133985000D03*
X121285000Y-84455000D03*
X120015000Y-91440000D03*
X121285000Y-81615000D03*
X128270000Y-74295000D03*
X127000000Y-74295000D03*
X125730000Y-74295000D03*
X93345000Y-122555000D03*
X104775000Y-122555000D03*
X76835000Y-113665000D03*
X79375000Y-111125000D03*
X76835000Y-111125000D03*
X109855000Y-97155000D03*
X125412500Y-134937500D03*
X92075000Y-73660000D03*
X111570000Y-99060000D03*
X121920000Y-131445000D03*
X121920000Y-124460000D03*
X127000000Y-91440000D03*
X130175000Y-91440000D03*
X121920000Y-91440000D03*
X118745000Y-96520000D03*
X134330000Y-91150000D03*
X133985000Y-103505000D03*
X133985000Y-99060000D03*
X135600000Y-91150000D03*
X64135000Y-107315000D03*
X64135000Y-111125000D03*
X64135000Y-104775000D03*
X62865000Y-113665000D03*
X43815000Y-91440000D03*
X53340000Y-73660000D03*
X96635001Y-107430001D03*
X95885000Y-106680000D03*
X93980000Y-109220000D03*
X94730000Y-108470000D03*
X116205000Y-76200000D03*
X99060000Y-103505000D03*
X68580000Y-80010000D03*
X137160000Y-151130000D03*
X133985000Y-93345000D03*
X104140000Y-146050000D03*
X124460000Y-151130000D03*
X127635000Y-84455000D03*
X124460000Y-74295000D03*
X122555000Y-84455000D03*
X121285000Y-74295000D03*
X98394671Y-108189668D03*
X98425000Y-107188000D03*
X120015000Y-74295000D03*
X117475000Y-74295000D03*
X99187000Y-106426000D03*
X111125000Y-91440000D03*
X98425000Y-109220000D03*
X90805000Y-147955000D03*
X95250000Y-144145000D03*
X94615000Y-103505000D03*
X95725178Y-103554517D03*
X96723245Y-103492338D03*
X40005000Y-102235000D03*
X44450000Y-103505000D03*
X39370000Y-106680000D03*
X39370000Y-104902000D03*
X102350000Y-107315000D03*
X90170000Y-111125000D03*
M02*
