G04 #@! TF.GenerationSoftware,KiCad,Pcbnew,7.0.9*
G04 #@! TF.CreationDate,2023-12-25T16:07:17+01:00*
G04 #@! TF.ProjectId,wall-mounted-room-temperature-sensor-ethernet,77616c6c-2d6d-46f7-956e-7465642d726f,v1.0*
G04 #@! TF.SameCoordinates,Original*
G04 #@! TF.FileFunction,Paste,Bot*
G04 #@! TF.FilePolarity,Positive*
%FSLAX46Y46*%
G04 Gerber Fmt 4.6, Leading zero omitted, Abs format (unit mm)*
G04 Created by KiCad (PCBNEW 7.0.9) date 2023-12-25 16:07:17*
%MOMM*%
%LPD*%
G01*
G04 APERTURE LIST*
G04 Aperture macros list*
%AMOutline4P*
0 Free polygon, 4 corners , with rotation*
0 The origin of the aperture is its center*
0 number of corners: always 4*
0 $1 to $8 corner X, Y*
0 $9 Rotation angle, in degrees counterclockwise*
0 create outline with 4 corners*
4,1,4,$1,$2,$3,$4,$5,$6,$7,$8,$1,$2,$9*%
G04 Aperture macros list end*
%ADD10R,2.500000X2.500000*%
%ADD11R,0.300000X0.800000*%
%ADD12R,0.800000X0.300000*%
%ADD13R,1.500000X1.300000*%
%ADD14R,1.300000X1.500000*%
%ADD15R,1.300000X1.000000*%
%ADD16R,0.800000X0.800000*%
%ADD17Outline4P,-0.650000X-0.900000X0.650000X-0.900000X0.650000X0.900000X-0.650000X0.900000X90.000000*%
%ADD18Outline4P,-0.650000X-0.900000X0.650000X-0.900000X0.650000X0.900000X-0.650000X0.900000X180.000000*%
%ADD19R,0.500000X2.000000*%
%ADD20Outline4P,-1.000000X-0.250000X1.000000X-0.250000X1.000000X0.250000X-1.000000X0.250000X270.000000*%
%ADD21R,2.200000X0.800000*%
%ADD22Outline4P,-0.650000X-0.900000X0.650000X-0.900000X0.650000X0.900000X-0.650000X0.900000X0.000000*%
G04 APERTURE END LIST*
D10*
X46780000Y-118110000D03*
X52280000Y-118110000D03*
D11*
X131175000Y-142145000D03*
X130675000Y-142145000D03*
X130175000Y-142145000D03*
X129675000Y-142145000D03*
X129175000Y-142145000D03*
X129175000Y-141065000D03*
X129675000Y-141065000D03*
X130175000Y-141065000D03*
X130675000Y-141065000D03*
X131175000Y-141065000D03*
D12*
X78200000Y-110220000D03*
X78200000Y-109720000D03*
X78200000Y-109220000D03*
X78200000Y-108720000D03*
X78200000Y-108220000D03*
X79280000Y-108220000D03*
X79280000Y-108720000D03*
X79280000Y-109220000D03*
X79280000Y-109720000D03*
X79280000Y-110220000D03*
D13*
X79375000Y-73360000D03*
X79375000Y-71420000D03*
X76835000Y-73360000D03*
X76835000Y-71420000D03*
D14*
X82885000Y-107315000D03*
X80945000Y-107315000D03*
X82885000Y-104775000D03*
X80945000Y-104775000D03*
D13*
X99060000Y-117140000D03*
X99060000Y-119080000D03*
X95885000Y-117140000D03*
X95885000Y-119080000D03*
X48895000Y-99995000D03*
X48895000Y-101935000D03*
X49530000Y-105710000D03*
X49530000Y-107650000D03*
X52070000Y-101935000D03*
X52070000Y-99995000D03*
X68580000Y-73360000D03*
X68580000Y-71420000D03*
D14*
X64470000Y-78740000D03*
X62530000Y-78740000D03*
X58085000Y-72390000D03*
X60025000Y-72390000D03*
X49865000Y-75565000D03*
X47925000Y-75565000D03*
D13*
X71120000Y-73360000D03*
X71120000Y-71420000D03*
D14*
X133650000Y-78105000D03*
X135590000Y-78105000D03*
X133650000Y-75565000D03*
X135590000Y-75565000D03*
X133650000Y-83185000D03*
X135590000Y-83185000D03*
D13*
X109220000Y-136825000D03*
X109220000Y-138765000D03*
X92075000Y-136825000D03*
X92075000Y-138765000D03*
X74930000Y-136825000D03*
X74930000Y-138765000D03*
D14*
X41575000Y-95885000D03*
X43515000Y-95885000D03*
D13*
X104140000Y-111425000D03*
X104140000Y-113365000D03*
X81915000Y-73360000D03*
X81915000Y-71420000D03*
X85725000Y-71420000D03*
X85725000Y-73360000D03*
D14*
X85425000Y-114300000D03*
X83485000Y-114300000D03*
X84155000Y-111125000D03*
X82215000Y-111125000D03*
X87330000Y-107315000D03*
X85390000Y-107315000D03*
X87330000Y-104775000D03*
X85390000Y-104775000D03*
D13*
X104140000Y-106980000D03*
X104140000Y-108920000D03*
X81280000Y-116540000D03*
X81280000Y-114600000D03*
X99060000Y-99995000D03*
X99060000Y-101935000D03*
X96520000Y-99995000D03*
X96520000Y-101935000D03*
X93980000Y-99995000D03*
X93980000Y-101935000D03*
X91440000Y-99995000D03*
X91440000Y-101935000D03*
D14*
X88600000Y-111125000D03*
X86660000Y-111125000D03*
D13*
X59055000Y-101935000D03*
X59055000Y-99995000D03*
X55880000Y-101935000D03*
X55880000Y-99995000D03*
D14*
X54310000Y-96520000D03*
X52370000Y-96520000D03*
D13*
X69215000Y-75865000D03*
X69215000Y-77805000D03*
X66675000Y-77805000D03*
X66675000Y-75865000D03*
X60325000Y-80980000D03*
X60325000Y-79040000D03*
D14*
X54945000Y-75565000D03*
X53005000Y-75565000D03*
D13*
X62230000Y-72725000D03*
X62230000Y-70785000D03*
X66040000Y-73360000D03*
X66040000Y-71420000D03*
D14*
X133650000Y-80645000D03*
X135590000Y-80645000D03*
X105110000Y-144145000D03*
X103170000Y-144145000D03*
D13*
X55880000Y-113330000D03*
X55880000Y-115270000D03*
X46990000Y-112095000D03*
X46990000Y-110155000D03*
X49530000Y-112095000D03*
X49530000Y-110155000D03*
X46990000Y-134320000D03*
X46990000Y-132380000D03*
X53340000Y-113330000D03*
X53340000Y-115270000D03*
D15*
X60055000Y-74615000D03*
X60055000Y-76515000D03*
X57855000Y-75565000D03*
D16*
X73660000Y-73660000D03*
X73660000Y-71120000D03*
X111760000Y-136525000D03*
X111760000Y-139065000D03*
X94615000Y-136525000D03*
X94615000Y-139065000D03*
X77470000Y-136525000D03*
X77470000Y-139065000D03*
D15*
X81010000Y-75250000D03*
X81010000Y-77150000D03*
X78810000Y-76200000D03*
D17*
X83185000Y-102235000D03*
X83185000Y-99695000D03*
D18*
X43815000Y-93345000D03*
X41275000Y-93345000D03*
D19*
X52025000Y-104960500D03*
X52675000Y-104960500D03*
X53325000Y-104960500D03*
X53975000Y-104960500D03*
X54625000Y-104960500D03*
X55275000Y-104960500D03*
D20*
X55925000Y-104960500D03*
D19*
X55925000Y-110685500D03*
X55275000Y-110685500D03*
X54625000Y-110685500D03*
X53975000Y-110685500D03*
X53325000Y-110685500D03*
X52675000Y-110685500D03*
X52025000Y-110685500D03*
D21*
X100787200Y-144145000D03*
X100787200Y-145415000D03*
X100787200Y-146685000D03*
X97332800Y-146685000D03*
X97332800Y-145415000D03*
X97332800Y-144145000D03*
D15*
X62500000Y-76515000D03*
X62500000Y-74615000D03*
X64700000Y-75565000D03*
D22*
X41275000Y-118110000D03*
X43815000Y-118110000D03*
M02*
