G04 #@! TF.GenerationSoftware,KiCad,Pcbnew,7.0.9*
G04 #@! TF.CreationDate,2023-12-25T16:07:17+01:00*
G04 #@! TF.ProjectId,wall-mounted-room-temperature-sensor-ethernet,77616c6c-2d6d-46f7-956e-7465642d726f,v1.0*
G04 #@! TF.SameCoordinates,Original*
G04 #@! TF.FileFunction,Legend,Bot*
G04 #@! TF.FilePolarity,Positive*
%FSLAX46Y46*%
G04 Gerber Fmt 4.6, Leading zero omitted, Abs format (unit mm)*
G04 Created by KiCad (PCBNEW 7.0.9) date 2023-12-25 16:07:17*
%MOMM*%
%LPD*%
G01*
G04 APERTURE LIST*
G04 Aperture macros list*
%AMRoundRect*
0 Rectangle with rounded corners*
0 $1 Rounding radius*
0 $2 $3 $4 $5 $6 $7 $8 $9 X,Y pos of 4 corners*
0 Add a 4 corners polygon primitive as box body*
4,1,4,$2,$3,$4,$5,$6,$7,$8,$9,$2,$3,0*
0 Add four circle primitives for the rounded corners*
1,1,$1+$1,$2,$3*
1,1,$1+$1,$4,$5*
1,1,$1+$1,$6,$7*
1,1,$1+$1,$8,$9*
0 Add four rect primitives between the rounded corners*
20,1,$1+$1,$2,$3,$4,$5,0*
20,1,$1+$1,$4,$5,$6,$7,0*
20,1,$1+$1,$6,$7,$8,$9,0*
20,1,$1+$1,$8,$9,$2,$3,0*%
%AMFreePoly0*
4,1,13,0.685355,0.935355,0.700000,0.900000,0.700000,-0.900000,0.685355,-0.935355,0.650000,-0.950000,-0.650000,-0.950000,-0.685355,-0.935355,-0.700000,-0.900000,-0.700000,0.900000,-0.685355,0.935355,-0.650000,0.950000,0.650000,0.950000,0.685355,0.935355,0.685355,0.935355,$1*%
%AMFreePoly1*
4,1,13,1.035355,0.285355,1.050000,0.250000,1.050000,-0.250000,1.035355,-0.285355,1.000000,-0.300000,-1.000000,-0.300000,-1.035355,-0.285355,-1.050000,-0.250000,-1.050000,0.250000,-1.035355,0.285355,-1.000000,0.300000,1.000000,0.300000,1.035355,0.285355,1.035355,0.285355,$1*%
G04 Aperture macros list end*
%ADD10C,0.170000*%
%ADD11C,0.160000*%
%ADD12C,0.120000*%
%ADD13C,3.300000*%
%ADD14RoundRect,0.050000X-1.250000X1.250000X-1.250000X-1.250000X1.250000X-1.250000X1.250000X1.250000X0*%
%ADD15RoundRect,0.050000X-0.525000X-0.750000X0.525000X-0.750000X0.525000X0.750000X-0.525000X0.750000X0*%
%ADD16RoundRect,0.312500X-0.262500X-0.487500X0.262500X-0.487500X0.262500X0.487500X-0.262500X0.487500X0*%
%ADD17RoundRect,0.050000X0.150000X0.400000X-0.150000X0.400000X-0.150000X-0.400000X0.150000X-0.400000X0*%
%ADD18RoundRect,0.050000X0.400000X-0.150000X0.400000X0.150000X-0.400000X0.150000X-0.400000X-0.150000X0*%
%ADD19C,1.950000*%
%ADD20C,3.600000*%
%ADD21C,3.100000*%
%ADD22RoundRect,0.050000X-0.900000X0.900000X-0.900000X-0.900000X0.900000X-0.900000X0.900000X0.900000X0*%
%ADD23O,1.900000X1.900000*%
%ADD24RoundRect,0.050000X1.050000X1.050000X-1.050000X1.050000X-1.050000X-1.050000X1.050000X-1.050000X0*%
%ADD25O,2.200000X2.200000*%
%ADD26RoundRect,0.050000X0.750000X-0.650000X0.750000X0.650000X-0.750000X0.650000X-0.750000X-0.650000X0*%
%ADD27RoundRect,0.050000X0.650000X0.750000X-0.650000X0.750000X-0.650000X-0.750000X0.650000X-0.750000X0*%
%ADD28RoundRect,0.050000X-0.750000X0.650000X-0.750000X-0.650000X0.750000X-0.650000X0.750000X0.650000X0*%
%ADD29RoundRect,0.050000X-0.650000X-0.750000X0.650000X-0.750000X0.650000X0.750000X-0.650000X0.750000X0*%
%ADD30C,2.300000*%
%ADD31C,1.600000*%
%ADD32C,3.400000*%
%ADD33RoundRect,0.050000X0.650000X0.500000X-0.650000X0.500000X-0.650000X-0.500000X0.650000X-0.500000X0*%
%ADD34RoundRect,0.050000X0.400000X-0.400000X0.400000X0.400000X-0.400000X0.400000X-0.400000X-0.400000X0*%
%ADD35RoundRect,0.050000X-0.400000X0.400000X-0.400000X-0.400000X0.400000X-0.400000X0.400000X0.400000X0*%
%ADD36FreePoly0,90.000000*%
%ADD37FreePoly0,180.000000*%
%ADD38RoundRect,0.050000X-0.250000X1.000000X-0.250000X-1.000000X0.250000X-1.000000X0.250000X1.000000X0*%
%ADD39FreePoly1,270.000000*%
%ADD40RoundRect,0.050000X1.100000X0.400000X-1.100000X0.400000X-1.100000X-0.400000X1.100000X-0.400000X0*%
%ADD41RoundRect,0.050000X-0.650000X-0.500000X0.650000X-0.500000X0.650000X0.500000X-0.650000X0.500000X0*%
%ADD42FreePoly0,0.000000*%
%ADD43C,0.900000*%
G04 APERTURE END LIST*
D10*
X50268094Y-121103779D02*
X50268094Y-120103779D01*
X50268094Y-120103779D02*
X50029999Y-120103779D01*
X50029999Y-120103779D02*
X49887142Y-120151398D01*
X49887142Y-120151398D02*
X49791904Y-120246636D01*
X49791904Y-120246636D02*
X49744285Y-120341874D01*
X49744285Y-120341874D02*
X49696666Y-120532350D01*
X49696666Y-120532350D02*
X49696666Y-120675207D01*
X49696666Y-120675207D02*
X49744285Y-120865683D01*
X49744285Y-120865683D02*
X49791904Y-120960921D01*
X49791904Y-120960921D02*
X49887142Y-121056160D01*
X49887142Y-121056160D02*
X50029999Y-121103779D01*
X50029999Y-121103779D02*
X50268094Y-121103779D01*
X48839523Y-120437112D02*
X48839523Y-121103779D01*
X49077618Y-120056160D02*
X49315713Y-120770445D01*
X49315713Y-120770445D02*
X48696666Y-120770445D01*
X133295779Y-140390714D02*
X132295779Y-140390714D01*
X132295779Y-140390714D02*
X132295779Y-140628809D01*
X132295779Y-140628809D02*
X132343398Y-140771666D01*
X132343398Y-140771666D02*
X132438636Y-140866904D01*
X132438636Y-140866904D02*
X132533874Y-140914523D01*
X132533874Y-140914523D02*
X132724350Y-140962142D01*
X132724350Y-140962142D02*
X132867207Y-140962142D01*
X132867207Y-140962142D02*
X133057683Y-140914523D01*
X133057683Y-140914523D02*
X133152921Y-140866904D01*
X133152921Y-140866904D02*
X133248160Y-140771666D01*
X133248160Y-140771666D02*
X133295779Y-140628809D01*
X133295779Y-140628809D02*
X133295779Y-140390714D01*
X133295779Y-141914523D02*
X133295779Y-141343095D01*
X133295779Y-141628809D02*
X132295779Y-141628809D01*
X132295779Y-141628809D02*
X132438636Y-141533571D01*
X132438636Y-141533571D02*
X132533874Y-141438333D01*
X132533874Y-141438333D02*
X132581493Y-141343095D01*
X132295779Y-142247857D02*
X132295779Y-142866904D01*
X132295779Y-142866904D02*
X132676731Y-142533571D01*
X132676731Y-142533571D02*
X132676731Y-142676428D01*
X132676731Y-142676428D02*
X132724350Y-142771666D01*
X132724350Y-142771666D02*
X132771969Y-142819285D01*
X132771969Y-142819285D02*
X132867207Y-142866904D01*
X132867207Y-142866904D02*
X133105302Y-142866904D01*
X133105302Y-142866904D02*
X133200540Y-142819285D01*
X133200540Y-142819285D02*
X133248160Y-142771666D01*
X133248160Y-142771666D02*
X133295779Y-142676428D01*
X133295779Y-142676428D02*
X133295779Y-142390714D01*
X133295779Y-142390714D02*
X133248160Y-142295476D01*
X133248160Y-142295476D02*
X133200540Y-142247857D01*
X79478094Y-112086779D02*
X79478094Y-111086779D01*
X79478094Y-111086779D02*
X79239999Y-111086779D01*
X79239999Y-111086779D02*
X79097142Y-111134398D01*
X79097142Y-111134398D02*
X79001904Y-111229636D01*
X79001904Y-111229636D02*
X78954285Y-111324874D01*
X78954285Y-111324874D02*
X78906666Y-111515350D01*
X78906666Y-111515350D02*
X78906666Y-111658207D01*
X78906666Y-111658207D02*
X78954285Y-111848683D01*
X78954285Y-111848683D02*
X79001904Y-111943921D01*
X79001904Y-111943921D02*
X79097142Y-112039160D01*
X79097142Y-112039160D02*
X79239999Y-112086779D01*
X79239999Y-112086779D02*
X79478094Y-112086779D01*
X78001904Y-111086779D02*
X78478094Y-111086779D01*
X78478094Y-111086779D02*
X78525713Y-111562969D01*
X78525713Y-111562969D02*
X78478094Y-111515350D01*
X78478094Y-111515350D02*
X78382856Y-111467731D01*
X78382856Y-111467731D02*
X78144761Y-111467731D01*
X78144761Y-111467731D02*
X78049523Y-111515350D01*
X78049523Y-111515350D02*
X78001904Y-111562969D01*
X78001904Y-111562969D02*
X77954285Y-111658207D01*
X77954285Y-111658207D02*
X77954285Y-111896302D01*
X77954285Y-111896302D02*
X78001904Y-111991540D01*
X78001904Y-111991540D02*
X78049523Y-112039160D01*
X78049523Y-112039160D02*
X78144761Y-112086779D01*
X78144761Y-112086779D02*
X78382856Y-112086779D01*
X78382856Y-112086779D02*
X78478094Y-112039160D01*
X78478094Y-112039160D02*
X78525713Y-111991540D01*
X79541666Y-70081540D02*
X79589285Y-70129160D01*
X79589285Y-70129160D02*
X79732142Y-70176779D01*
X79732142Y-70176779D02*
X79827380Y-70176779D01*
X79827380Y-70176779D02*
X79970237Y-70129160D01*
X79970237Y-70129160D02*
X80065475Y-70033921D01*
X80065475Y-70033921D02*
X80113094Y-69938683D01*
X80113094Y-69938683D02*
X80160713Y-69748207D01*
X80160713Y-69748207D02*
X80160713Y-69605350D01*
X80160713Y-69605350D02*
X80113094Y-69414874D01*
X80113094Y-69414874D02*
X80065475Y-69319636D01*
X80065475Y-69319636D02*
X79970237Y-69224398D01*
X79970237Y-69224398D02*
X79827380Y-69176779D01*
X79827380Y-69176779D02*
X79732142Y-69176779D01*
X79732142Y-69176779D02*
X79589285Y-69224398D01*
X79589285Y-69224398D02*
X79541666Y-69272017D01*
X79208332Y-69176779D02*
X78589285Y-69176779D01*
X78589285Y-69176779D02*
X78922618Y-69557731D01*
X78922618Y-69557731D02*
X78779761Y-69557731D01*
X78779761Y-69557731D02*
X78684523Y-69605350D01*
X78684523Y-69605350D02*
X78636904Y-69652969D01*
X78636904Y-69652969D02*
X78589285Y-69748207D01*
X78589285Y-69748207D02*
X78589285Y-69986302D01*
X78589285Y-69986302D02*
X78636904Y-70081540D01*
X78636904Y-70081540D02*
X78684523Y-70129160D01*
X78684523Y-70129160D02*
X78779761Y-70176779D01*
X78779761Y-70176779D02*
X79065475Y-70176779D01*
X79065475Y-70176779D02*
X79160713Y-70129160D01*
X79160713Y-70129160D02*
X79208332Y-70081540D01*
X77001666Y-70081540D02*
X77049285Y-70129160D01*
X77049285Y-70129160D02*
X77192142Y-70176779D01*
X77192142Y-70176779D02*
X77287380Y-70176779D01*
X77287380Y-70176779D02*
X77430237Y-70129160D01*
X77430237Y-70129160D02*
X77525475Y-70033921D01*
X77525475Y-70033921D02*
X77573094Y-69938683D01*
X77573094Y-69938683D02*
X77620713Y-69748207D01*
X77620713Y-69748207D02*
X77620713Y-69605350D01*
X77620713Y-69605350D02*
X77573094Y-69414874D01*
X77573094Y-69414874D02*
X77525475Y-69319636D01*
X77525475Y-69319636D02*
X77430237Y-69224398D01*
X77430237Y-69224398D02*
X77287380Y-69176779D01*
X77287380Y-69176779D02*
X77192142Y-69176779D01*
X77192142Y-69176779D02*
X77049285Y-69224398D01*
X77049285Y-69224398D02*
X77001666Y-69272017D01*
X76144523Y-69176779D02*
X76334999Y-69176779D01*
X76334999Y-69176779D02*
X76430237Y-69224398D01*
X76430237Y-69224398D02*
X76477856Y-69272017D01*
X76477856Y-69272017D02*
X76573094Y-69414874D01*
X76573094Y-69414874D02*
X76620713Y-69605350D01*
X76620713Y-69605350D02*
X76620713Y-69986302D01*
X76620713Y-69986302D02*
X76573094Y-70081540D01*
X76573094Y-70081540D02*
X76525475Y-70129160D01*
X76525475Y-70129160D02*
X76430237Y-70176779D01*
X76430237Y-70176779D02*
X76239761Y-70176779D01*
X76239761Y-70176779D02*
X76144523Y-70129160D01*
X76144523Y-70129160D02*
X76096904Y-70081540D01*
X76096904Y-70081540D02*
X76049285Y-69986302D01*
X76049285Y-69986302D02*
X76049285Y-69748207D01*
X76049285Y-69748207D02*
X76096904Y-69652969D01*
X76096904Y-69652969D02*
X76144523Y-69605350D01*
X76144523Y-69605350D02*
X76239761Y-69557731D01*
X76239761Y-69557731D02*
X76430237Y-69557731D01*
X76430237Y-69557731D02*
X76525475Y-69605350D01*
X76525475Y-69605350D02*
X76573094Y-69652969D01*
X76573094Y-69652969D02*
X76620713Y-69748207D01*
X79128857Y-107038540D02*
X79176476Y-107086160D01*
X79176476Y-107086160D02*
X79319333Y-107133779D01*
X79319333Y-107133779D02*
X79414571Y-107133779D01*
X79414571Y-107133779D02*
X79557428Y-107086160D01*
X79557428Y-107086160D02*
X79652666Y-106990921D01*
X79652666Y-106990921D02*
X79700285Y-106895683D01*
X79700285Y-106895683D02*
X79747904Y-106705207D01*
X79747904Y-106705207D02*
X79747904Y-106562350D01*
X79747904Y-106562350D02*
X79700285Y-106371874D01*
X79700285Y-106371874D02*
X79652666Y-106276636D01*
X79652666Y-106276636D02*
X79557428Y-106181398D01*
X79557428Y-106181398D02*
X79414571Y-106133779D01*
X79414571Y-106133779D02*
X79319333Y-106133779D01*
X79319333Y-106133779D02*
X79176476Y-106181398D01*
X79176476Y-106181398D02*
X79128857Y-106229017D01*
X78176476Y-107133779D02*
X78747904Y-107133779D01*
X78462190Y-107133779D02*
X78462190Y-106133779D01*
X78462190Y-106133779D02*
X78557428Y-106276636D01*
X78557428Y-106276636D02*
X78652666Y-106371874D01*
X78652666Y-106371874D02*
X78747904Y-106419493D01*
X77224095Y-107133779D02*
X77795523Y-107133779D01*
X77509809Y-107133779D02*
X77509809Y-106133779D01*
X77509809Y-106133779D02*
X77605047Y-106276636D01*
X77605047Y-106276636D02*
X77700285Y-106371874D01*
X77700285Y-106371874D02*
X77795523Y-106419493D01*
X79128857Y-105133540D02*
X79176476Y-105181160D01*
X79176476Y-105181160D02*
X79319333Y-105228779D01*
X79319333Y-105228779D02*
X79414571Y-105228779D01*
X79414571Y-105228779D02*
X79557428Y-105181160D01*
X79557428Y-105181160D02*
X79652666Y-105085921D01*
X79652666Y-105085921D02*
X79700285Y-104990683D01*
X79700285Y-104990683D02*
X79747904Y-104800207D01*
X79747904Y-104800207D02*
X79747904Y-104657350D01*
X79747904Y-104657350D02*
X79700285Y-104466874D01*
X79700285Y-104466874D02*
X79652666Y-104371636D01*
X79652666Y-104371636D02*
X79557428Y-104276398D01*
X79557428Y-104276398D02*
X79414571Y-104228779D01*
X79414571Y-104228779D02*
X79319333Y-104228779D01*
X79319333Y-104228779D02*
X79176476Y-104276398D01*
X79176476Y-104276398D02*
X79128857Y-104324017D01*
X78176476Y-105228779D02*
X78747904Y-105228779D01*
X78462190Y-105228779D02*
X78462190Y-104228779D01*
X78462190Y-104228779D02*
X78557428Y-104371636D01*
X78557428Y-104371636D02*
X78652666Y-104466874D01*
X78652666Y-104466874D02*
X78747904Y-104514493D01*
X77795523Y-104324017D02*
X77747904Y-104276398D01*
X77747904Y-104276398D02*
X77652666Y-104228779D01*
X77652666Y-104228779D02*
X77414571Y-104228779D01*
X77414571Y-104228779D02*
X77319333Y-104276398D01*
X77319333Y-104276398D02*
X77271714Y-104324017D01*
X77271714Y-104324017D02*
X77224095Y-104419255D01*
X77224095Y-104419255D02*
X77224095Y-104514493D01*
X77224095Y-104514493D02*
X77271714Y-104657350D01*
X77271714Y-104657350D02*
X77843142Y-105228779D01*
X77843142Y-105228779D02*
X77224095Y-105228779D01*
X99418540Y-114038142D02*
X99466160Y-113990523D01*
X99466160Y-113990523D02*
X99513779Y-113847666D01*
X99513779Y-113847666D02*
X99513779Y-113752428D01*
X99513779Y-113752428D02*
X99466160Y-113609571D01*
X99466160Y-113609571D02*
X99370921Y-113514333D01*
X99370921Y-113514333D02*
X99275683Y-113466714D01*
X99275683Y-113466714D02*
X99085207Y-113419095D01*
X99085207Y-113419095D02*
X98942350Y-113419095D01*
X98942350Y-113419095D02*
X98751874Y-113466714D01*
X98751874Y-113466714D02*
X98656636Y-113514333D01*
X98656636Y-113514333D02*
X98561398Y-113609571D01*
X98561398Y-113609571D02*
X98513779Y-113752428D01*
X98513779Y-113752428D02*
X98513779Y-113847666D01*
X98513779Y-113847666D02*
X98561398Y-113990523D01*
X98561398Y-113990523D02*
X98609017Y-114038142D01*
X99513779Y-114990523D02*
X99513779Y-114419095D01*
X99513779Y-114704809D02*
X98513779Y-114704809D01*
X98513779Y-114704809D02*
X98656636Y-114609571D01*
X98656636Y-114609571D02*
X98751874Y-114514333D01*
X98751874Y-114514333D02*
X98799493Y-114419095D01*
X98513779Y-115847666D02*
X98513779Y-115657190D01*
X98513779Y-115657190D02*
X98561398Y-115561952D01*
X98561398Y-115561952D02*
X98609017Y-115514333D01*
X98609017Y-115514333D02*
X98751874Y-115419095D01*
X98751874Y-115419095D02*
X98942350Y-115371476D01*
X98942350Y-115371476D02*
X99323302Y-115371476D01*
X99323302Y-115371476D02*
X99418540Y-115419095D01*
X99418540Y-115419095D02*
X99466160Y-115466714D01*
X99466160Y-115466714D02*
X99513779Y-115561952D01*
X99513779Y-115561952D02*
X99513779Y-115752428D01*
X99513779Y-115752428D02*
X99466160Y-115847666D01*
X99466160Y-115847666D02*
X99418540Y-115895285D01*
X99418540Y-115895285D02*
X99323302Y-115942904D01*
X99323302Y-115942904D02*
X99085207Y-115942904D01*
X99085207Y-115942904D02*
X98989969Y-115895285D01*
X98989969Y-115895285D02*
X98942350Y-115847666D01*
X98942350Y-115847666D02*
X98894731Y-115752428D01*
X98894731Y-115752428D02*
X98894731Y-115561952D01*
X98894731Y-115561952D02*
X98942350Y-115466714D01*
X98942350Y-115466714D02*
X98989969Y-115419095D01*
X98989969Y-115419095D02*
X99085207Y-115371476D01*
X96243540Y-113911142D02*
X96291160Y-113863523D01*
X96291160Y-113863523D02*
X96338779Y-113720666D01*
X96338779Y-113720666D02*
X96338779Y-113625428D01*
X96338779Y-113625428D02*
X96291160Y-113482571D01*
X96291160Y-113482571D02*
X96195921Y-113387333D01*
X96195921Y-113387333D02*
X96100683Y-113339714D01*
X96100683Y-113339714D02*
X95910207Y-113292095D01*
X95910207Y-113292095D02*
X95767350Y-113292095D01*
X95767350Y-113292095D02*
X95576874Y-113339714D01*
X95576874Y-113339714D02*
X95481636Y-113387333D01*
X95481636Y-113387333D02*
X95386398Y-113482571D01*
X95386398Y-113482571D02*
X95338779Y-113625428D01*
X95338779Y-113625428D02*
X95338779Y-113720666D01*
X95338779Y-113720666D02*
X95386398Y-113863523D01*
X95386398Y-113863523D02*
X95434017Y-113911142D01*
X96338779Y-114863523D02*
X96338779Y-114292095D01*
X96338779Y-114577809D02*
X95338779Y-114577809D01*
X95338779Y-114577809D02*
X95481636Y-114482571D01*
X95481636Y-114482571D02*
X95576874Y-114387333D01*
X95576874Y-114387333D02*
X95624493Y-114292095D01*
X95767350Y-115434952D02*
X95719731Y-115339714D01*
X95719731Y-115339714D02*
X95672112Y-115292095D01*
X95672112Y-115292095D02*
X95576874Y-115244476D01*
X95576874Y-115244476D02*
X95529255Y-115244476D01*
X95529255Y-115244476D02*
X95434017Y-115292095D01*
X95434017Y-115292095D02*
X95386398Y-115339714D01*
X95386398Y-115339714D02*
X95338779Y-115434952D01*
X95338779Y-115434952D02*
X95338779Y-115625428D01*
X95338779Y-115625428D02*
X95386398Y-115720666D01*
X95386398Y-115720666D02*
X95434017Y-115768285D01*
X95434017Y-115768285D02*
X95529255Y-115815904D01*
X95529255Y-115815904D02*
X95576874Y-115815904D01*
X95576874Y-115815904D02*
X95672112Y-115768285D01*
X95672112Y-115768285D02*
X95719731Y-115720666D01*
X95719731Y-115720666D02*
X95767350Y-115625428D01*
X95767350Y-115625428D02*
X95767350Y-115434952D01*
X95767350Y-115434952D02*
X95814969Y-115339714D01*
X95814969Y-115339714D02*
X95862588Y-115292095D01*
X95862588Y-115292095D02*
X95957826Y-115244476D01*
X95957826Y-115244476D02*
X96148302Y-115244476D01*
X96148302Y-115244476D02*
X96243540Y-115292095D01*
X96243540Y-115292095D02*
X96291160Y-115339714D01*
X96291160Y-115339714D02*
X96338779Y-115434952D01*
X96338779Y-115434952D02*
X96338779Y-115625428D01*
X96338779Y-115625428D02*
X96291160Y-115720666D01*
X96291160Y-115720666D02*
X96243540Y-115768285D01*
X96243540Y-115768285D02*
X96148302Y-115815904D01*
X96148302Y-115815904D02*
X95957826Y-115815904D01*
X95957826Y-115815904D02*
X95862588Y-115768285D01*
X95862588Y-115768285D02*
X95814969Y-115720666D01*
X95814969Y-115720666D02*
X95767350Y-115625428D01*
X47348540Y-100322142D02*
X47396160Y-100274523D01*
X47396160Y-100274523D02*
X47443779Y-100131666D01*
X47443779Y-100131666D02*
X47443779Y-100036428D01*
X47443779Y-100036428D02*
X47396160Y-99893571D01*
X47396160Y-99893571D02*
X47300921Y-99798333D01*
X47300921Y-99798333D02*
X47205683Y-99750714D01*
X47205683Y-99750714D02*
X47015207Y-99703095D01*
X47015207Y-99703095D02*
X46872350Y-99703095D01*
X46872350Y-99703095D02*
X46681874Y-99750714D01*
X46681874Y-99750714D02*
X46586636Y-99798333D01*
X46586636Y-99798333D02*
X46491398Y-99893571D01*
X46491398Y-99893571D02*
X46443779Y-100036428D01*
X46443779Y-100036428D02*
X46443779Y-100131666D01*
X46443779Y-100131666D02*
X46491398Y-100274523D01*
X46491398Y-100274523D02*
X46539017Y-100322142D01*
X46539017Y-100703095D02*
X46491398Y-100750714D01*
X46491398Y-100750714D02*
X46443779Y-100845952D01*
X46443779Y-100845952D02*
X46443779Y-101084047D01*
X46443779Y-101084047D02*
X46491398Y-101179285D01*
X46491398Y-101179285D02*
X46539017Y-101226904D01*
X46539017Y-101226904D02*
X46634255Y-101274523D01*
X46634255Y-101274523D02*
X46729493Y-101274523D01*
X46729493Y-101274523D02*
X46872350Y-101226904D01*
X46872350Y-101226904D02*
X47443779Y-100655476D01*
X47443779Y-100655476D02*
X47443779Y-101274523D01*
X46539017Y-101655476D02*
X46491398Y-101703095D01*
X46491398Y-101703095D02*
X46443779Y-101798333D01*
X46443779Y-101798333D02*
X46443779Y-102036428D01*
X46443779Y-102036428D02*
X46491398Y-102131666D01*
X46491398Y-102131666D02*
X46539017Y-102179285D01*
X46539017Y-102179285D02*
X46634255Y-102226904D01*
X46634255Y-102226904D02*
X46729493Y-102226904D01*
X46729493Y-102226904D02*
X46872350Y-102179285D01*
X46872350Y-102179285D02*
X47443779Y-101607857D01*
X47443779Y-101607857D02*
X47443779Y-102226904D01*
X47983540Y-106037142D02*
X48031160Y-105989523D01*
X48031160Y-105989523D02*
X48078779Y-105846666D01*
X48078779Y-105846666D02*
X48078779Y-105751428D01*
X48078779Y-105751428D02*
X48031160Y-105608571D01*
X48031160Y-105608571D02*
X47935921Y-105513333D01*
X47935921Y-105513333D02*
X47840683Y-105465714D01*
X47840683Y-105465714D02*
X47650207Y-105418095D01*
X47650207Y-105418095D02*
X47507350Y-105418095D01*
X47507350Y-105418095D02*
X47316874Y-105465714D01*
X47316874Y-105465714D02*
X47221636Y-105513333D01*
X47221636Y-105513333D02*
X47126398Y-105608571D01*
X47126398Y-105608571D02*
X47078779Y-105751428D01*
X47078779Y-105751428D02*
X47078779Y-105846666D01*
X47078779Y-105846666D02*
X47126398Y-105989523D01*
X47126398Y-105989523D02*
X47174017Y-106037142D01*
X47174017Y-106418095D02*
X47126398Y-106465714D01*
X47126398Y-106465714D02*
X47078779Y-106560952D01*
X47078779Y-106560952D02*
X47078779Y-106799047D01*
X47078779Y-106799047D02*
X47126398Y-106894285D01*
X47126398Y-106894285D02*
X47174017Y-106941904D01*
X47174017Y-106941904D02*
X47269255Y-106989523D01*
X47269255Y-106989523D02*
X47364493Y-106989523D01*
X47364493Y-106989523D02*
X47507350Y-106941904D01*
X47507350Y-106941904D02*
X48078779Y-106370476D01*
X48078779Y-106370476D02*
X48078779Y-106989523D01*
X47412112Y-107846666D02*
X48078779Y-107846666D01*
X47031160Y-107608571D02*
X47745445Y-107370476D01*
X47745445Y-107370476D02*
X47745445Y-107989523D01*
X50904540Y-96766142D02*
X50952160Y-96718523D01*
X50952160Y-96718523D02*
X50999779Y-96575666D01*
X50999779Y-96575666D02*
X50999779Y-96480428D01*
X50999779Y-96480428D02*
X50952160Y-96337571D01*
X50952160Y-96337571D02*
X50856921Y-96242333D01*
X50856921Y-96242333D02*
X50761683Y-96194714D01*
X50761683Y-96194714D02*
X50571207Y-96147095D01*
X50571207Y-96147095D02*
X50428350Y-96147095D01*
X50428350Y-96147095D02*
X50237874Y-96194714D01*
X50237874Y-96194714D02*
X50142636Y-96242333D01*
X50142636Y-96242333D02*
X50047398Y-96337571D01*
X50047398Y-96337571D02*
X49999779Y-96480428D01*
X49999779Y-96480428D02*
X49999779Y-96575666D01*
X49999779Y-96575666D02*
X50047398Y-96718523D01*
X50047398Y-96718523D02*
X50095017Y-96766142D01*
X50095017Y-97147095D02*
X50047398Y-97194714D01*
X50047398Y-97194714D02*
X49999779Y-97289952D01*
X49999779Y-97289952D02*
X49999779Y-97528047D01*
X49999779Y-97528047D02*
X50047398Y-97623285D01*
X50047398Y-97623285D02*
X50095017Y-97670904D01*
X50095017Y-97670904D02*
X50190255Y-97718523D01*
X50190255Y-97718523D02*
X50285493Y-97718523D01*
X50285493Y-97718523D02*
X50428350Y-97670904D01*
X50428350Y-97670904D02*
X50999779Y-97099476D01*
X50999779Y-97099476D02*
X50999779Y-97718523D01*
X49999779Y-98623285D02*
X49999779Y-98147095D01*
X49999779Y-98147095D02*
X50475969Y-98099476D01*
X50475969Y-98099476D02*
X50428350Y-98147095D01*
X50428350Y-98147095D02*
X50380731Y-98242333D01*
X50380731Y-98242333D02*
X50380731Y-98480428D01*
X50380731Y-98480428D02*
X50428350Y-98575666D01*
X50428350Y-98575666D02*
X50475969Y-98623285D01*
X50475969Y-98623285D02*
X50571207Y-98670904D01*
X50571207Y-98670904D02*
X50809302Y-98670904D01*
X50809302Y-98670904D02*
X50904540Y-98623285D01*
X50904540Y-98623285D02*
X50952160Y-98575666D01*
X50952160Y-98575666D02*
X50999779Y-98480428D01*
X50999779Y-98480428D02*
X50999779Y-98242333D01*
X50999779Y-98242333D02*
X50952160Y-98147095D01*
X50952160Y-98147095D02*
X50904540Y-98099476D01*
X69222857Y-70081540D02*
X69270476Y-70129160D01*
X69270476Y-70129160D02*
X69413333Y-70176779D01*
X69413333Y-70176779D02*
X69508571Y-70176779D01*
X69508571Y-70176779D02*
X69651428Y-70129160D01*
X69651428Y-70129160D02*
X69746666Y-70033921D01*
X69746666Y-70033921D02*
X69794285Y-69938683D01*
X69794285Y-69938683D02*
X69841904Y-69748207D01*
X69841904Y-69748207D02*
X69841904Y-69605350D01*
X69841904Y-69605350D02*
X69794285Y-69414874D01*
X69794285Y-69414874D02*
X69746666Y-69319636D01*
X69746666Y-69319636D02*
X69651428Y-69224398D01*
X69651428Y-69224398D02*
X69508571Y-69176779D01*
X69508571Y-69176779D02*
X69413333Y-69176779D01*
X69413333Y-69176779D02*
X69270476Y-69224398D01*
X69270476Y-69224398D02*
X69222857Y-69272017D01*
X68889523Y-69176779D02*
X68270476Y-69176779D01*
X68270476Y-69176779D02*
X68603809Y-69557731D01*
X68603809Y-69557731D02*
X68460952Y-69557731D01*
X68460952Y-69557731D02*
X68365714Y-69605350D01*
X68365714Y-69605350D02*
X68318095Y-69652969D01*
X68318095Y-69652969D02*
X68270476Y-69748207D01*
X68270476Y-69748207D02*
X68270476Y-69986302D01*
X68270476Y-69986302D02*
X68318095Y-70081540D01*
X68318095Y-70081540D02*
X68365714Y-70129160D01*
X68365714Y-70129160D02*
X68460952Y-70176779D01*
X68460952Y-70176779D02*
X68746666Y-70176779D01*
X68746666Y-70176779D02*
X68841904Y-70129160D01*
X68841904Y-70129160D02*
X68889523Y-70081540D01*
X67937142Y-69176779D02*
X67318095Y-69176779D01*
X67318095Y-69176779D02*
X67651428Y-69557731D01*
X67651428Y-69557731D02*
X67508571Y-69557731D01*
X67508571Y-69557731D02*
X67413333Y-69605350D01*
X67413333Y-69605350D02*
X67365714Y-69652969D01*
X67365714Y-69652969D02*
X67318095Y-69748207D01*
X67318095Y-69748207D02*
X67318095Y-69986302D01*
X67318095Y-69986302D02*
X67365714Y-70081540D01*
X67365714Y-70081540D02*
X67413333Y-70129160D01*
X67413333Y-70129160D02*
X67508571Y-70176779D01*
X67508571Y-70176779D02*
X67794285Y-70176779D01*
X67794285Y-70176779D02*
X67889523Y-70129160D01*
X67889523Y-70129160D02*
X67937142Y-70081540D01*
X64142857Y-81003540D02*
X64190476Y-81051160D01*
X64190476Y-81051160D02*
X64333333Y-81098779D01*
X64333333Y-81098779D02*
X64428571Y-81098779D01*
X64428571Y-81098779D02*
X64571428Y-81051160D01*
X64571428Y-81051160D02*
X64666666Y-80955921D01*
X64666666Y-80955921D02*
X64714285Y-80860683D01*
X64714285Y-80860683D02*
X64761904Y-80670207D01*
X64761904Y-80670207D02*
X64761904Y-80527350D01*
X64761904Y-80527350D02*
X64714285Y-80336874D01*
X64714285Y-80336874D02*
X64666666Y-80241636D01*
X64666666Y-80241636D02*
X64571428Y-80146398D01*
X64571428Y-80146398D02*
X64428571Y-80098779D01*
X64428571Y-80098779D02*
X64333333Y-80098779D01*
X64333333Y-80098779D02*
X64190476Y-80146398D01*
X64190476Y-80146398D02*
X64142857Y-80194017D01*
X63285714Y-80432112D02*
X63285714Y-81098779D01*
X63523809Y-80051160D02*
X63761904Y-80765445D01*
X63761904Y-80765445D02*
X63142857Y-80765445D01*
X62333333Y-80432112D02*
X62333333Y-81098779D01*
X62571428Y-80051160D02*
X62809523Y-80765445D01*
X62809523Y-80765445D02*
X62190476Y-80765445D01*
X56268857Y-72875540D02*
X56316476Y-72923160D01*
X56316476Y-72923160D02*
X56459333Y-72970779D01*
X56459333Y-72970779D02*
X56554571Y-72970779D01*
X56554571Y-72970779D02*
X56697428Y-72923160D01*
X56697428Y-72923160D02*
X56792666Y-72827921D01*
X56792666Y-72827921D02*
X56840285Y-72732683D01*
X56840285Y-72732683D02*
X56887904Y-72542207D01*
X56887904Y-72542207D02*
X56887904Y-72399350D01*
X56887904Y-72399350D02*
X56840285Y-72208874D01*
X56840285Y-72208874D02*
X56792666Y-72113636D01*
X56792666Y-72113636D02*
X56697428Y-72018398D01*
X56697428Y-72018398D02*
X56554571Y-71970779D01*
X56554571Y-71970779D02*
X56459333Y-71970779D01*
X56459333Y-71970779D02*
X56316476Y-72018398D01*
X56316476Y-72018398D02*
X56268857Y-72066017D01*
X55411714Y-72304112D02*
X55411714Y-72970779D01*
X55649809Y-71923160D02*
X55887904Y-72637445D01*
X55887904Y-72637445D02*
X55268857Y-72637445D01*
X54411714Y-71970779D02*
X54887904Y-71970779D01*
X54887904Y-71970779D02*
X54935523Y-72446969D01*
X54935523Y-72446969D02*
X54887904Y-72399350D01*
X54887904Y-72399350D02*
X54792666Y-72351731D01*
X54792666Y-72351731D02*
X54554571Y-72351731D01*
X54554571Y-72351731D02*
X54459333Y-72399350D01*
X54459333Y-72399350D02*
X54411714Y-72446969D01*
X54411714Y-72446969D02*
X54364095Y-72542207D01*
X54364095Y-72542207D02*
X54364095Y-72780302D01*
X54364095Y-72780302D02*
X54411714Y-72875540D01*
X54411714Y-72875540D02*
X54459333Y-72923160D01*
X54459333Y-72923160D02*
X54554571Y-72970779D01*
X54554571Y-72970779D02*
X54792666Y-72970779D01*
X54792666Y-72970779D02*
X54887904Y-72923160D01*
X54887904Y-72923160D02*
X54935523Y-72875540D01*
X49537857Y-74018540D02*
X49585476Y-74066160D01*
X49585476Y-74066160D02*
X49728333Y-74113779D01*
X49728333Y-74113779D02*
X49823571Y-74113779D01*
X49823571Y-74113779D02*
X49966428Y-74066160D01*
X49966428Y-74066160D02*
X50061666Y-73970921D01*
X50061666Y-73970921D02*
X50109285Y-73875683D01*
X50109285Y-73875683D02*
X50156904Y-73685207D01*
X50156904Y-73685207D02*
X50156904Y-73542350D01*
X50156904Y-73542350D02*
X50109285Y-73351874D01*
X50109285Y-73351874D02*
X50061666Y-73256636D01*
X50061666Y-73256636D02*
X49966428Y-73161398D01*
X49966428Y-73161398D02*
X49823571Y-73113779D01*
X49823571Y-73113779D02*
X49728333Y-73113779D01*
X49728333Y-73113779D02*
X49585476Y-73161398D01*
X49585476Y-73161398D02*
X49537857Y-73209017D01*
X48680714Y-73447112D02*
X48680714Y-74113779D01*
X48918809Y-73066160D02*
X49156904Y-73780445D01*
X49156904Y-73780445D02*
X48537857Y-73780445D01*
X47728333Y-73113779D02*
X47918809Y-73113779D01*
X47918809Y-73113779D02*
X48014047Y-73161398D01*
X48014047Y-73161398D02*
X48061666Y-73209017D01*
X48061666Y-73209017D02*
X48156904Y-73351874D01*
X48156904Y-73351874D02*
X48204523Y-73542350D01*
X48204523Y-73542350D02*
X48204523Y-73923302D01*
X48204523Y-73923302D02*
X48156904Y-74018540D01*
X48156904Y-74018540D02*
X48109285Y-74066160D01*
X48109285Y-74066160D02*
X48014047Y-74113779D01*
X48014047Y-74113779D02*
X47823571Y-74113779D01*
X47823571Y-74113779D02*
X47728333Y-74066160D01*
X47728333Y-74066160D02*
X47680714Y-74018540D01*
X47680714Y-74018540D02*
X47633095Y-73923302D01*
X47633095Y-73923302D02*
X47633095Y-73685207D01*
X47633095Y-73685207D02*
X47680714Y-73589969D01*
X47680714Y-73589969D02*
X47728333Y-73542350D01*
X47728333Y-73542350D02*
X47823571Y-73494731D01*
X47823571Y-73494731D02*
X48014047Y-73494731D01*
X48014047Y-73494731D02*
X48109285Y-73542350D01*
X48109285Y-73542350D02*
X48156904Y-73589969D01*
X48156904Y-73589969D02*
X48204523Y-73685207D01*
X72143857Y-70081540D02*
X72191476Y-70129160D01*
X72191476Y-70129160D02*
X72334333Y-70176779D01*
X72334333Y-70176779D02*
X72429571Y-70176779D01*
X72429571Y-70176779D02*
X72572428Y-70129160D01*
X72572428Y-70129160D02*
X72667666Y-70033921D01*
X72667666Y-70033921D02*
X72715285Y-69938683D01*
X72715285Y-69938683D02*
X72762904Y-69748207D01*
X72762904Y-69748207D02*
X72762904Y-69605350D01*
X72762904Y-69605350D02*
X72715285Y-69414874D01*
X72715285Y-69414874D02*
X72667666Y-69319636D01*
X72667666Y-69319636D02*
X72572428Y-69224398D01*
X72572428Y-69224398D02*
X72429571Y-69176779D01*
X72429571Y-69176779D02*
X72334333Y-69176779D01*
X72334333Y-69176779D02*
X72191476Y-69224398D01*
X72191476Y-69224398D02*
X72143857Y-69272017D01*
X71239095Y-69176779D02*
X71715285Y-69176779D01*
X71715285Y-69176779D02*
X71762904Y-69652969D01*
X71762904Y-69652969D02*
X71715285Y-69605350D01*
X71715285Y-69605350D02*
X71620047Y-69557731D01*
X71620047Y-69557731D02*
X71381952Y-69557731D01*
X71381952Y-69557731D02*
X71286714Y-69605350D01*
X71286714Y-69605350D02*
X71239095Y-69652969D01*
X71239095Y-69652969D02*
X71191476Y-69748207D01*
X71191476Y-69748207D02*
X71191476Y-69986302D01*
X71191476Y-69986302D02*
X71239095Y-70081540D01*
X71239095Y-70081540D02*
X71286714Y-70129160D01*
X71286714Y-70129160D02*
X71381952Y-70176779D01*
X71381952Y-70176779D02*
X71620047Y-70176779D01*
X71620047Y-70176779D02*
X71715285Y-70129160D01*
X71715285Y-70129160D02*
X71762904Y-70081540D01*
X70572428Y-69176779D02*
X70477190Y-69176779D01*
X70477190Y-69176779D02*
X70381952Y-69224398D01*
X70381952Y-69224398D02*
X70334333Y-69272017D01*
X70334333Y-69272017D02*
X70286714Y-69367255D01*
X70286714Y-69367255D02*
X70239095Y-69557731D01*
X70239095Y-69557731D02*
X70239095Y-69795826D01*
X70239095Y-69795826D02*
X70286714Y-69986302D01*
X70286714Y-69986302D02*
X70334333Y-70081540D01*
X70334333Y-70081540D02*
X70381952Y-70129160D01*
X70381952Y-70129160D02*
X70477190Y-70176779D01*
X70477190Y-70176779D02*
X70572428Y-70176779D01*
X70572428Y-70176779D02*
X70667666Y-70129160D01*
X70667666Y-70129160D02*
X70715285Y-70081540D01*
X70715285Y-70081540D02*
X70762904Y-69986302D01*
X70762904Y-69986302D02*
X70810523Y-69795826D01*
X70810523Y-69795826D02*
X70810523Y-69557731D01*
X70810523Y-69557731D02*
X70762904Y-69367255D01*
X70762904Y-69367255D02*
X70715285Y-69272017D01*
X70715285Y-69272017D02*
X70667666Y-69224398D01*
X70667666Y-69224398D02*
X70572428Y-69176779D01*
X131833857Y-78463540D02*
X131881476Y-78511160D01*
X131881476Y-78511160D02*
X132024333Y-78558779D01*
X132024333Y-78558779D02*
X132119571Y-78558779D01*
X132119571Y-78558779D02*
X132262428Y-78511160D01*
X132262428Y-78511160D02*
X132357666Y-78415921D01*
X132357666Y-78415921D02*
X132405285Y-78320683D01*
X132405285Y-78320683D02*
X132452904Y-78130207D01*
X132452904Y-78130207D02*
X132452904Y-77987350D01*
X132452904Y-77987350D02*
X132405285Y-77796874D01*
X132405285Y-77796874D02*
X132357666Y-77701636D01*
X132357666Y-77701636D02*
X132262428Y-77606398D01*
X132262428Y-77606398D02*
X132119571Y-77558779D01*
X132119571Y-77558779D02*
X132024333Y-77558779D01*
X132024333Y-77558779D02*
X131881476Y-77606398D01*
X131881476Y-77606398D02*
X131833857Y-77654017D01*
X130929095Y-77558779D02*
X131405285Y-77558779D01*
X131405285Y-77558779D02*
X131452904Y-78034969D01*
X131452904Y-78034969D02*
X131405285Y-77987350D01*
X131405285Y-77987350D02*
X131310047Y-77939731D01*
X131310047Y-77939731D02*
X131071952Y-77939731D01*
X131071952Y-77939731D02*
X130976714Y-77987350D01*
X130976714Y-77987350D02*
X130929095Y-78034969D01*
X130929095Y-78034969D02*
X130881476Y-78130207D01*
X130881476Y-78130207D02*
X130881476Y-78368302D01*
X130881476Y-78368302D02*
X130929095Y-78463540D01*
X130929095Y-78463540D02*
X130976714Y-78511160D01*
X130976714Y-78511160D02*
X131071952Y-78558779D01*
X131071952Y-78558779D02*
X131310047Y-78558779D01*
X131310047Y-78558779D02*
X131405285Y-78511160D01*
X131405285Y-78511160D02*
X131452904Y-78463540D01*
X129929095Y-78558779D02*
X130500523Y-78558779D01*
X130214809Y-78558779D02*
X130214809Y-77558779D01*
X130214809Y-77558779D02*
X130310047Y-77701636D01*
X130310047Y-77701636D02*
X130405285Y-77796874D01*
X130405285Y-77796874D02*
X130500523Y-77844493D01*
X131706857Y-75923540D02*
X131754476Y-75971160D01*
X131754476Y-75971160D02*
X131897333Y-76018779D01*
X131897333Y-76018779D02*
X131992571Y-76018779D01*
X131992571Y-76018779D02*
X132135428Y-75971160D01*
X132135428Y-75971160D02*
X132230666Y-75875921D01*
X132230666Y-75875921D02*
X132278285Y-75780683D01*
X132278285Y-75780683D02*
X132325904Y-75590207D01*
X132325904Y-75590207D02*
X132325904Y-75447350D01*
X132325904Y-75447350D02*
X132278285Y-75256874D01*
X132278285Y-75256874D02*
X132230666Y-75161636D01*
X132230666Y-75161636D02*
X132135428Y-75066398D01*
X132135428Y-75066398D02*
X131992571Y-75018779D01*
X131992571Y-75018779D02*
X131897333Y-75018779D01*
X131897333Y-75018779D02*
X131754476Y-75066398D01*
X131754476Y-75066398D02*
X131706857Y-75114017D01*
X130802095Y-75018779D02*
X131278285Y-75018779D01*
X131278285Y-75018779D02*
X131325904Y-75494969D01*
X131325904Y-75494969D02*
X131278285Y-75447350D01*
X131278285Y-75447350D02*
X131183047Y-75399731D01*
X131183047Y-75399731D02*
X130944952Y-75399731D01*
X130944952Y-75399731D02*
X130849714Y-75447350D01*
X130849714Y-75447350D02*
X130802095Y-75494969D01*
X130802095Y-75494969D02*
X130754476Y-75590207D01*
X130754476Y-75590207D02*
X130754476Y-75828302D01*
X130754476Y-75828302D02*
X130802095Y-75923540D01*
X130802095Y-75923540D02*
X130849714Y-75971160D01*
X130849714Y-75971160D02*
X130944952Y-76018779D01*
X130944952Y-76018779D02*
X131183047Y-76018779D01*
X131183047Y-76018779D02*
X131278285Y-75971160D01*
X131278285Y-75971160D02*
X131325904Y-75923540D01*
X130373523Y-75114017D02*
X130325904Y-75066398D01*
X130325904Y-75066398D02*
X130230666Y-75018779D01*
X130230666Y-75018779D02*
X129992571Y-75018779D01*
X129992571Y-75018779D02*
X129897333Y-75066398D01*
X129897333Y-75066398D02*
X129849714Y-75114017D01*
X129849714Y-75114017D02*
X129802095Y-75209255D01*
X129802095Y-75209255D02*
X129802095Y-75304493D01*
X129802095Y-75304493D02*
X129849714Y-75447350D01*
X129849714Y-75447350D02*
X130421142Y-76018779D01*
X130421142Y-76018779D02*
X129802095Y-76018779D01*
X131833857Y-83543540D02*
X131881476Y-83591160D01*
X131881476Y-83591160D02*
X132024333Y-83638779D01*
X132024333Y-83638779D02*
X132119571Y-83638779D01*
X132119571Y-83638779D02*
X132262428Y-83591160D01*
X132262428Y-83591160D02*
X132357666Y-83495921D01*
X132357666Y-83495921D02*
X132405285Y-83400683D01*
X132405285Y-83400683D02*
X132452904Y-83210207D01*
X132452904Y-83210207D02*
X132452904Y-83067350D01*
X132452904Y-83067350D02*
X132405285Y-82876874D01*
X132405285Y-82876874D02*
X132357666Y-82781636D01*
X132357666Y-82781636D02*
X132262428Y-82686398D01*
X132262428Y-82686398D02*
X132119571Y-82638779D01*
X132119571Y-82638779D02*
X132024333Y-82638779D01*
X132024333Y-82638779D02*
X131881476Y-82686398D01*
X131881476Y-82686398D02*
X131833857Y-82734017D01*
X130929095Y-82638779D02*
X131405285Y-82638779D01*
X131405285Y-82638779D02*
X131452904Y-83114969D01*
X131452904Y-83114969D02*
X131405285Y-83067350D01*
X131405285Y-83067350D02*
X131310047Y-83019731D01*
X131310047Y-83019731D02*
X131071952Y-83019731D01*
X131071952Y-83019731D02*
X130976714Y-83067350D01*
X130976714Y-83067350D02*
X130929095Y-83114969D01*
X130929095Y-83114969D02*
X130881476Y-83210207D01*
X130881476Y-83210207D02*
X130881476Y-83448302D01*
X130881476Y-83448302D02*
X130929095Y-83543540D01*
X130929095Y-83543540D02*
X130976714Y-83591160D01*
X130976714Y-83591160D02*
X131071952Y-83638779D01*
X131071952Y-83638779D02*
X131310047Y-83638779D01*
X131310047Y-83638779D02*
X131405285Y-83591160D01*
X131405285Y-83591160D02*
X131452904Y-83543540D01*
X130548142Y-82638779D02*
X129929095Y-82638779D01*
X129929095Y-82638779D02*
X130262428Y-83019731D01*
X130262428Y-83019731D02*
X130119571Y-83019731D01*
X130119571Y-83019731D02*
X130024333Y-83067350D01*
X130024333Y-83067350D02*
X129976714Y-83114969D01*
X129976714Y-83114969D02*
X129929095Y-83210207D01*
X129929095Y-83210207D02*
X129929095Y-83448302D01*
X129929095Y-83448302D02*
X129976714Y-83543540D01*
X129976714Y-83543540D02*
X130024333Y-83591160D01*
X130024333Y-83591160D02*
X130119571Y-83638779D01*
X130119571Y-83638779D02*
X130405285Y-83638779D01*
X130405285Y-83638779D02*
X130500523Y-83591160D01*
X130500523Y-83591160D02*
X130548142Y-83543540D01*
X107673540Y-137152142D02*
X107721160Y-137104523D01*
X107721160Y-137104523D02*
X107768779Y-136961666D01*
X107768779Y-136961666D02*
X107768779Y-136866428D01*
X107768779Y-136866428D02*
X107721160Y-136723571D01*
X107721160Y-136723571D02*
X107625921Y-136628333D01*
X107625921Y-136628333D02*
X107530683Y-136580714D01*
X107530683Y-136580714D02*
X107340207Y-136533095D01*
X107340207Y-136533095D02*
X107197350Y-136533095D01*
X107197350Y-136533095D02*
X107006874Y-136580714D01*
X107006874Y-136580714D02*
X106911636Y-136628333D01*
X106911636Y-136628333D02*
X106816398Y-136723571D01*
X106816398Y-136723571D02*
X106768779Y-136866428D01*
X106768779Y-136866428D02*
X106768779Y-136961666D01*
X106768779Y-136961666D02*
X106816398Y-137104523D01*
X106816398Y-137104523D02*
X106864017Y-137152142D01*
X106768779Y-138056904D02*
X106768779Y-137580714D01*
X106768779Y-137580714D02*
X107244969Y-137533095D01*
X107244969Y-137533095D02*
X107197350Y-137580714D01*
X107197350Y-137580714D02*
X107149731Y-137675952D01*
X107149731Y-137675952D02*
X107149731Y-137914047D01*
X107149731Y-137914047D02*
X107197350Y-138009285D01*
X107197350Y-138009285D02*
X107244969Y-138056904D01*
X107244969Y-138056904D02*
X107340207Y-138104523D01*
X107340207Y-138104523D02*
X107578302Y-138104523D01*
X107578302Y-138104523D02*
X107673540Y-138056904D01*
X107673540Y-138056904D02*
X107721160Y-138009285D01*
X107721160Y-138009285D02*
X107768779Y-137914047D01*
X107768779Y-137914047D02*
X107768779Y-137675952D01*
X107768779Y-137675952D02*
X107721160Y-137580714D01*
X107721160Y-137580714D02*
X107673540Y-137533095D01*
X106768779Y-138961666D02*
X106768779Y-138771190D01*
X106768779Y-138771190D02*
X106816398Y-138675952D01*
X106816398Y-138675952D02*
X106864017Y-138628333D01*
X106864017Y-138628333D02*
X107006874Y-138533095D01*
X107006874Y-138533095D02*
X107197350Y-138485476D01*
X107197350Y-138485476D02*
X107578302Y-138485476D01*
X107578302Y-138485476D02*
X107673540Y-138533095D01*
X107673540Y-138533095D02*
X107721160Y-138580714D01*
X107721160Y-138580714D02*
X107768779Y-138675952D01*
X107768779Y-138675952D02*
X107768779Y-138866428D01*
X107768779Y-138866428D02*
X107721160Y-138961666D01*
X107721160Y-138961666D02*
X107673540Y-139009285D01*
X107673540Y-139009285D02*
X107578302Y-139056904D01*
X107578302Y-139056904D02*
X107340207Y-139056904D01*
X107340207Y-139056904D02*
X107244969Y-139009285D01*
X107244969Y-139009285D02*
X107197350Y-138961666D01*
X107197350Y-138961666D02*
X107149731Y-138866428D01*
X107149731Y-138866428D02*
X107149731Y-138675952D01*
X107149731Y-138675952D02*
X107197350Y-138580714D01*
X107197350Y-138580714D02*
X107244969Y-138533095D01*
X107244969Y-138533095D02*
X107340207Y-138485476D01*
X90528540Y-137152142D02*
X90576160Y-137104523D01*
X90576160Y-137104523D02*
X90623779Y-136961666D01*
X90623779Y-136961666D02*
X90623779Y-136866428D01*
X90623779Y-136866428D02*
X90576160Y-136723571D01*
X90576160Y-136723571D02*
X90480921Y-136628333D01*
X90480921Y-136628333D02*
X90385683Y-136580714D01*
X90385683Y-136580714D02*
X90195207Y-136533095D01*
X90195207Y-136533095D02*
X90052350Y-136533095D01*
X90052350Y-136533095D02*
X89861874Y-136580714D01*
X89861874Y-136580714D02*
X89766636Y-136628333D01*
X89766636Y-136628333D02*
X89671398Y-136723571D01*
X89671398Y-136723571D02*
X89623779Y-136866428D01*
X89623779Y-136866428D02*
X89623779Y-136961666D01*
X89623779Y-136961666D02*
X89671398Y-137104523D01*
X89671398Y-137104523D02*
X89719017Y-137152142D01*
X89623779Y-138056904D02*
X89623779Y-137580714D01*
X89623779Y-137580714D02*
X90099969Y-137533095D01*
X90099969Y-137533095D02*
X90052350Y-137580714D01*
X90052350Y-137580714D02*
X90004731Y-137675952D01*
X90004731Y-137675952D02*
X90004731Y-137914047D01*
X90004731Y-137914047D02*
X90052350Y-138009285D01*
X90052350Y-138009285D02*
X90099969Y-138056904D01*
X90099969Y-138056904D02*
X90195207Y-138104523D01*
X90195207Y-138104523D02*
X90433302Y-138104523D01*
X90433302Y-138104523D02*
X90528540Y-138056904D01*
X90528540Y-138056904D02*
X90576160Y-138009285D01*
X90576160Y-138009285D02*
X90623779Y-137914047D01*
X90623779Y-137914047D02*
X90623779Y-137675952D01*
X90623779Y-137675952D02*
X90576160Y-137580714D01*
X90576160Y-137580714D02*
X90528540Y-137533095D01*
X89623779Y-138437857D02*
X89623779Y-139104523D01*
X89623779Y-139104523D02*
X90623779Y-138675952D01*
X73383540Y-137152142D02*
X73431160Y-137104523D01*
X73431160Y-137104523D02*
X73478779Y-136961666D01*
X73478779Y-136961666D02*
X73478779Y-136866428D01*
X73478779Y-136866428D02*
X73431160Y-136723571D01*
X73431160Y-136723571D02*
X73335921Y-136628333D01*
X73335921Y-136628333D02*
X73240683Y-136580714D01*
X73240683Y-136580714D02*
X73050207Y-136533095D01*
X73050207Y-136533095D02*
X72907350Y-136533095D01*
X72907350Y-136533095D02*
X72716874Y-136580714D01*
X72716874Y-136580714D02*
X72621636Y-136628333D01*
X72621636Y-136628333D02*
X72526398Y-136723571D01*
X72526398Y-136723571D02*
X72478779Y-136866428D01*
X72478779Y-136866428D02*
X72478779Y-136961666D01*
X72478779Y-136961666D02*
X72526398Y-137104523D01*
X72526398Y-137104523D02*
X72574017Y-137152142D01*
X72478779Y-138056904D02*
X72478779Y-137580714D01*
X72478779Y-137580714D02*
X72954969Y-137533095D01*
X72954969Y-137533095D02*
X72907350Y-137580714D01*
X72907350Y-137580714D02*
X72859731Y-137675952D01*
X72859731Y-137675952D02*
X72859731Y-137914047D01*
X72859731Y-137914047D02*
X72907350Y-138009285D01*
X72907350Y-138009285D02*
X72954969Y-138056904D01*
X72954969Y-138056904D02*
X73050207Y-138104523D01*
X73050207Y-138104523D02*
X73288302Y-138104523D01*
X73288302Y-138104523D02*
X73383540Y-138056904D01*
X73383540Y-138056904D02*
X73431160Y-138009285D01*
X73431160Y-138009285D02*
X73478779Y-137914047D01*
X73478779Y-137914047D02*
X73478779Y-137675952D01*
X73478779Y-137675952D02*
X73431160Y-137580714D01*
X73431160Y-137580714D02*
X73383540Y-137533095D01*
X72907350Y-138675952D02*
X72859731Y-138580714D01*
X72859731Y-138580714D02*
X72812112Y-138533095D01*
X72812112Y-138533095D02*
X72716874Y-138485476D01*
X72716874Y-138485476D02*
X72669255Y-138485476D01*
X72669255Y-138485476D02*
X72574017Y-138533095D01*
X72574017Y-138533095D02*
X72526398Y-138580714D01*
X72526398Y-138580714D02*
X72478779Y-138675952D01*
X72478779Y-138675952D02*
X72478779Y-138866428D01*
X72478779Y-138866428D02*
X72526398Y-138961666D01*
X72526398Y-138961666D02*
X72574017Y-139009285D01*
X72574017Y-139009285D02*
X72669255Y-139056904D01*
X72669255Y-139056904D02*
X72716874Y-139056904D01*
X72716874Y-139056904D02*
X72812112Y-139009285D01*
X72812112Y-139009285D02*
X72859731Y-138961666D01*
X72859731Y-138961666D02*
X72907350Y-138866428D01*
X72907350Y-138866428D02*
X72907350Y-138675952D01*
X72907350Y-138675952D02*
X72954969Y-138580714D01*
X72954969Y-138580714D02*
X73002588Y-138533095D01*
X73002588Y-138533095D02*
X73097826Y-138485476D01*
X73097826Y-138485476D02*
X73288302Y-138485476D01*
X73288302Y-138485476D02*
X73383540Y-138533095D01*
X73383540Y-138533095D02*
X73431160Y-138580714D01*
X73431160Y-138580714D02*
X73478779Y-138675952D01*
X73478779Y-138675952D02*
X73478779Y-138866428D01*
X73478779Y-138866428D02*
X73431160Y-138961666D01*
X73431160Y-138961666D02*
X73383540Y-139009285D01*
X73383540Y-139009285D02*
X73288302Y-139056904D01*
X73288302Y-139056904D02*
X73097826Y-139056904D01*
X73097826Y-139056904D02*
X73002588Y-139009285D01*
X73002588Y-139009285D02*
X72954969Y-138961666D01*
X72954969Y-138961666D02*
X72907350Y-138866428D01*
X43187857Y-98148540D02*
X43235476Y-98196160D01*
X43235476Y-98196160D02*
X43378333Y-98243779D01*
X43378333Y-98243779D02*
X43473571Y-98243779D01*
X43473571Y-98243779D02*
X43616428Y-98196160D01*
X43616428Y-98196160D02*
X43711666Y-98100921D01*
X43711666Y-98100921D02*
X43759285Y-98005683D01*
X43759285Y-98005683D02*
X43806904Y-97815207D01*
X43806904Y-97815207D02*
X43806904Y-97672350D01*
X43806904Y-97672350D02*
X43759285Y-97481874D01*
X43759285Y-97481874D02*
X43711666Y-97386636D01*
X43711666Y-97386636D02*
X43616428Y-97291398D01*
X43616428Y-97291398D02*
X43473571Y-97243779D01*
X43473571Y-97243779D02*
X43378333Y-97243779D01*
X43378333Y-97243779D02*
X43235476Y-97291398D01*
X43235476Y-97291398D02*
X43187857Y-97339017D01*
X42854523Y-97243779D02*
X42235476Y-97243779D01*
X42235476Y-97243779D02*
X42568809Y-97624731D01*
X42568809Y-97624731D02*
X42425952Y-97624731D01*
X42425952Y-97624731D02*
X42330714Y-97672350D01*
X42330714Y-97672350D02*
X42283095Y-97719969D01*
X42283095Y-97719969D02*
X42235476Y-97815207D01*
X42235476Y-97815207D02*
X42235476Y-98053302D01*
X42235476Y-98053302D02*
X42283095Y-98148540D01*
X42283095Y-98148540D02*
X42330714Y-98196160D01*
X42330714Y-98196160D02*
X42425952Y-98243779D01*
X42425952Y-98243779D02*
X42711666Y-98243779D01*
X42711666Y-98243779D02*
X42806904Y-98196160D01*
X42806904Y-98196160D02*
X42854523Y-98148540D01*
X41902142Y-97243779D02*
X41235476Y-97243779D01*
X41235476Y-97243779D02*
X41664047Y-98243779D01*
X102593540Y-112228333D02*
X102641160Y-112180714D01*
X102641160Y-112180714D02*
X102688779Y-112037857D01*
X102688779Y-112037857D02*
X102688779Y-111942619D01*
X102688779Y-111942619D02*
X102641160Y-111799762D01*
X102641160Y-111799762D02*
X102545921Y-111704524D01*
X102545921Y-111704524D02*
X102450683Y-111656905D01*
X102450683Y-111656905D02*
X102260207Y-111609286D01*
X102260207Y-111609286D02*
X102117350Y-111609286D01*
X102117350Y-111609286D02*
X101926874Y-111656905D01*
X101926874Y-111656905D02*
X101831636Y-111704524D01*
X101831636Y-111704524D02*
X101736398Y-111799762D01*
X101736398Y-111799762D02*
X101688779Y-111942619D01*
X101688779Y-111942619D02*
X101688779Y-112037857D01*
X101688779Y-112037857D02*
X101736398Y-112180714D01*
X101736398Y-112180714D02*
X101784017Y-112228333D01*
X101784017Y-112609286D02*
X101736398Y-112656905D01*
X101736398Y-112656905D02*
X101688779Y-112752143D01*
X101688779Y-112752143D02*
X101688779Y-112990238D01*
X101688779Y-112990238D02*
X101736398Y-113085476D01*
X101736398Y-113085476D02*
X101784017Y-113133095D01*
X101784017Y-113133095D02*
X101879255Y-113180714D01*
X101879255Y-113180714D02*
X101974493Y-113180714D01*
X101974493Y-113180714D02*
X102117350Y-113133095D01*
X102117350Y-113133095D02*
X102688779Y-112561667D01*
X102688779Y-112561667D02*
X102688779Y-113180714D01*
X82081666Y-70176779D02*
X82414999Y-69700588D01*
X82653094Y-70176779D02*
X82653094Y-69176779D01*
X82653094Y-69176779D02*
X82272142Y-69176779D01*
X82272142Y-69176779D02*
X82176904Y-69224398D01*
X82176904Y-69224398D02*
X82129285Y-69272017D01*
X82129285Y-69272017D02*
X82081666Y-69367255D01*
X82081666Y-69367255D02*
X82081666Y-69510112D01*
X82081666Y-69510112D02*
X82129285Y-69605350D01*
X82129285Y-69605350D02*
X82176904Y-69652969D01*
X82176904Y-69652969D02*
X82272142Y-69700588D01*
X82272142Y-69700588D02*
X82653094Y-69700588D01*
X81129285Y-70176779D02*
X81700713Y-70176779D01*
X81414999Y-70176779D02*
X81414999Y-69176779D01*
X81414999Y-69176779D02*
X81510237Y-69319636D01*
X81510237Y-69319636D02*
X81605475Y-69414874D01*
X81605475Y-69414874D02*
X81700713Y-69462493D01*
X85891666Y-70176779D02*
X86224999Y-69700588D01*
X86463094Y-70176779D02*
X86463094Y-69176779D01*
X86463094Y-69176779D02*
X86082142Y-69176779D01*
X86082142Y-69176779D02*
X85986904Y-69224398D01*
X85986904Y-69224398D02*
X85939285Y-69272017D01*
X85939285Y-69272017D02*
X85891666Y-69367255D01*
X85891666Y-69367255D02*
X85891666Y-69510112D01*
X85891666Y-69510112D02*
X85939285Y-69605350D01*
X85939285Y-69605350D02*
X85986904Y-69652969D01*
X85986904Y-69652969D02*
X86082142Y-69700588D01*
X86082142Y-69700588D02*
X86463094Y-69700588D01*
X85510713Y-69272017D02*
X85463094Y-69224398D01*
X85463094Y-69224398D02*
X85367856Y-69176779D01*
X85367856Y-69176779D02*
X85129761Y-69176779D01*
X85129761Y-69176779D02*
X85034523Y-69224398D01*
X85034523Y-69224398D02*
X84986904Y-69272017D01*
X84986904Y-69272017D02*
X84939285Y-69367255D01*
X84939285Y-69367255D02*
X84939285Y-69462493D01*
X84939285Y-69462493D02*
X84986904Y-69605350D01*
X84986904Y-69605350D02*
X85558332Y-70176779D01*
X85558332Y-70176779D02*
X84939285Y-70176779D01*
X87669666Y-114753779D02*
X88002999Y-114277588D01*
X88241094Y-114753779D02*
X88241094Y-113753779D01*
X88241094Y-113753779D02*
X87860142Y-113753779D01*
X87860142Y-113753779D02*
X87764904Y-113801398D01*
X87764904Y-113801398D02*
X87717285Y-113849017D01*
X87717285Y-113849017D02*
X87669666Y-113944255D01*
X87669666Y-113944255D02*
X87669666Y-114087112D01*
X87669666Y-114087112D02*
X87717285Y-114182350D01*
X87717285Y-114182350D02*
X87764904Y-114229969D01*
X87764904Y-114229969D02*
X87860142Y-114277588D01*
X87860142Y-114277588D02*
X88241094Y-114277588D01*
X87336332Y-113753779D02*
X86717285Y-113753779D01*
X86717285Y-113753779D02*
X87050618Y-114134731D01*
X87050618Y-114134731D02*
X86907761Y-114134731D01*
X86907761Y-114134731D02*
X86812523Y-114182350D01*
X86812523Y-114182350D02*
X86764904Y-114229969D01*
X86764904Y-114229969D02*
X86717285Y-114325207D01*
X86717285Y-114325207D02*
X86717285Y-114563302D01*
X86717285Y-114563302D02*
X86764904Y-114658540D01*
X86764904Y-114658540D02*
X86812523Y-114706160D01*
X86812523Y-114706160D02*
X86907761Y-114753779D01*
X86907761Y-114753779D02*
X87193475Y-114753779D01*
X87193475Y-114753779D02*
X87288713Y-114706160D01*
X87288713Y-114706160D02*
X87336332Y-114658540D01*
X83097666Y-109800779D02*
X83430999Y-109324588D01*
X83669094Y-109800779D02*
X83669094Y-108800779D01*
X83669094Y-108800779D02*
X83288142Y-108800779D01*
X83288142Y-108800779D02*
X83192904Y-108848398D01*
X83192904Y-108848398D02*
X83145285Y-108896017D01*
X83145285Y-108896017D02*
X83097666Y-108991255D01*
X83097666Y-108991255D02*
X83097666Y-109134112D01*
X83097666Y-109134112D02*
X83145285Y-109229350D01*
X83145285Y-109229350D02*
X83192904Y-109276969D01*
X83192904Y-109276969D02*
X83288142Y-109324588D01*
X83288142Y-109324588D02*
X83669094Y-109324588D01*
X82240523Y-109134112D02*
X82240523Y-109800779D01*
X82478618Y-108753160D02*
X82716713Y-109467445D01*
X82716713Y-109467445D02*
X82097666Y-109467445D01*
X89574666Y-107768779D02*
X89907999Y-107292588D01*
X90146094Y-107768779D02*
X90146094Y-106768779D01*
X90146094Y-106768779D02*
X89765142Y-106768779D01*
X89765142Y-106768779D02*
X89669904Y-106816398D01*
X89669904Y-106816398D02*
X89622285Y-106864017D01*
X89622285Y-106864017D02*
X89574666Y-106959255D01*
X89574666Y-106959255D02*
X89574666Y-107102112D01*
X89574666Y-107102112D02*
X89622285Y-107197350D01*
X89622285Y-107197350D02*
X89669904Y-107244969D01*
X89669904Y-107244969D02*
X89765142Y-107292588D01*
X89765142Y-107292588D02*
X90146094Y-107292588D01*
X88669904Y-106768779D02*
X89146094Y-106768779D01*
X89146094Y-106768779D02*
X89193713Y-107244969D01*
X89193713Y-107244969D02*
X89146094Y-107197350D01*
X89146094Y-107197350D02*
X89050856Y-107149731D01*
X89050856Y-107149731D02*
X88812761Y-107149731D01*
X88812761Y-107149731D02*
X88717523Y-107197350D01*
X88717523Y-107197350D02*
X88669904Y-107244969D01*
X88669904Y-107244969D02*
X88622285Y-107340207D01*
X88622285Y-107340207D02*
X88622285Y-107578302D01*
X88622285Y-107578302D02*
X88669904Y-107673540D01*
X88669904Y-107673540D02*
X88717523Y-107721160D01*
X88717523Y-107721160D02*
X88812761Y-107768779D01*
X88812761Y-107768779D02*
X89050856Y-107768779D01*
X89050856Y-107768779D02*
X89146094Y-107721160D01*
X89146094Y-107721160D02*
X89193713Y-107673540D01*
X89574666Y-105101779D02*
X89907999Y-104625588D01*
X90146094Y-105101779D02*
X90146094Y-104101779D01*
X90146094Y-104101779D02*
X89765142Y-104101779D01*
X89765142Y-104101779D02*
X89669904Y-104149398D01*
X89669904Y-104149398D02*
X89622285Y-104197017D01*
X89622285Y-104197017D02*
X89574666Y-104292255D01*
X89574666Y-104292255D02*
X89574666Y-104435112D01*
X89574666Y-104435112D02*
X89622285Y-104530350D01*
X89622285Y-104530350D02*
X89669904Y-104577969D01*
X89669904Y-104577969D02*
X89765142Y-104625588D01*
X89765142Y-104625588D02*
X90146094Y-104625588D01*
X88717523Y-104101779D02*
X88907999Y-104101779D01*
X88907999Y-104101779D02*
X89003237Y-104149398D01*
X89003237Y-104149398D02*
X89050856Y-104197017D01*
X89050856Y-104197017D02*
X89146094Y-104339874D01*
X89146094Y-104339874D02*
X89193713Y-104530350D01*
X89193713Y-104530350D02*
X89193713Y-104911302D01*
X89193713Y-104911302D02*
X89146094Y-105006540D01*
X89146094Y-105006540D02*
X89098475Y-105054160D01*
X89098475Y-105054160D02*
X89003237Y-105101779D01*
X89003237Y-105101779D02*
X88812761Y-105101779D01*
X88812761Y-105101779D02*
X88717523Y-105054160D01*
X88717523Y-105054160D02*
X88669904Y-105006540D01*
X88669904Y-105006540D02*
X88622285Y-104911302D01*
X88622285Y-104911302D02*
X88622285Y-104673207D01*
X88622285Y-104673207D02*
X88669904Y-104577969D01*
X88669904Y-104577969D02*
X88717523Y-104530350D01*
X88717523Y-104530350D02*
X88812761Y-104482731D01*
X88812761Y-104482731D02*
X89003237Y-104482731D01*
X89003237Y-104482731D02*
X89098475Y-104530350D01*
X89098475Y-104530350D02*
X89146094Y-104577969D01*
X89146094Y-104577969D02*
X89193713Y-104673207D01*
X102815779Y-108037333D02*
X102339588Y-107704000D01*
X102815779Y-107465905D02*
X101815779Y-107465905D01*
X101815779Y-107465905D02*
X101815779Y-107846857D01*
X101815779Y-107846857D02*
X101863398Y-107942095D01*
X101863398Y-107942095D02*
X101911017Y-107989714D01*
X101911017Y-107989714D02*
X102006255Y-108037333D01*
X102006255Y-108037333D02*
X102149112Y-108037333D01*
X102149112Y-108037333D02*
X102244350Y-107989714D01*
X102244350Y-107989714D02*
X102291969Y-107942095D01*
X102291969Y-107942095D02*
X102339588Y-107846857D01*
X102339588Y-107846857D02*
X102339588Y-107465905D01*
X101815779Y-108370667D02*
X101815779Y-109037333D01*
X101815779Y-109037333D02*
X102815779Y-108608762D01*
X83765779Y-116451142D02*
X83289588Y-116117809D01*
X83765779Y-115879714D02*
X82765779Y-115879714D01*
X82765779Y-115879714D02*
X82765779Y-116260666D01*
X82765779Y-116260666D02*
X82813398Y-116355904D01*
X82813398Y-116355904D02*
X82861017Y-116403523D01*
X82861017Y-116403523D02*
X82956255Y-116451142D01*
X82956255Y-116451142D02*
X83099112Y-116451142D01*
X83099112Y-116451142D02*
X83194350Y-116403523D01*
X83194350Y-116403523D02*
X83241969Y-116355904D01*
X83241969Y-116355904D02*
X83289588Y-116260666D01*
X83289588Y-116260666D02*
X83289588Y-115879714D01*
X83765779Y-117403523D02*
X83765779Y-116832095D01*
X83765779Y-117117809D02*
X82765779Y-117117809D01*
X82765779Y-117117809D02*
X82908636Y-117022571D01*
X82908636Y-117022571D02*
X83003874Y-116927333D01*
X83003874Y-116927333D02*
X83051493Y-116832095D01*
X83765779Y-118355904D02*
X83765779Y-117784476D01*
X83765779Y-118070190D02*
X82765779Y-118070190D01*
X82765779Y-118070190D02*
X82908636Y-117974952D01*
X82908636Y-117974952D02*
X83003874Y-117879714D01*
X83003874Y-117879714D02*
X83051493Y-117784476D01*
X99513779Y-96893142D02*
X99037588Y-96559809D01*
X99513779Y-96321714D02*
X98513779Y-96321714D01*
X98513779Y-96321714D02*
X98513779Y-96702666D01*
X98513779Y-96702666D02*
X98561398Y-96797904D01*
X98561398Y-96797904D02*
X98609017Y-96845523D01*
X98609017Y-96845523D02*
X98704255Y-96893142D01*
X98704255Y-96893142D02*
X98847112Y-96893142D01*
X98847112Y-96893142D02*
X98942350Y-96845523D01*
X98942350Y-96845523D02*
X98989969Y-96797904D01*
X98989969Y-96797904D02*
X99037588Y-96702666D01*
X99037588Y-96702666D02*
X99037588Y-96321714D01*
X99513779Y-97845523D02*
X99513779Y-97274095D01*
X99513779Y-97559809D02*
X98513779Y-97559809D01*
X98513779Y-97559809D02*
X98656636Y-97464571D01*
X98656636Y-97464571D02*
X98751874Y-97369333D01*
X98751874Y-97369333D02*
X98799493Y-97274095D01*
X98513779Y-98702666D02*
X98513779Y-98512190D01*
X98513779Y-98512190D02*
X98561398Y-98416952D01*
X98561398Y-98416952D02*
X98609017Y-98369333D01*
X98609017Y-98369333D02*
X98751874Y-98274095D01*
X98751874Y-98274095D02*
X98942350Y-98226476D01*
X98942350Y-98226476D02*
X99323302Y-98226476D01*
X99323302Y-98226476D02*
X99418540Y-98274095D01*
X99418540Y-98274095D02*
X99466160Y-98321714D01*
X99466160Y-98321714D02*
X99513779Y-98416952D01*
X99513779Y-98416952D02*
X99513779Y-98607428D01*
X99513779Y-98607428D02*
X99466160Y-98702666D01*
X99466160Y-98702666D02*
X99418540Y-98750285D01*
X99418540Y-98750285D02*
X99323302Y-98797904D01*
X99323302Y-98797904D02*
X99085207Y-98797904D01*
X99085207Y-98797904D02*
X98989969Y-98750285D01*
X98989969Y-98750285D02*
X98942350Y-98702666D01*
X98942350Y-98702666D02*
X98894731Y-98607428D01*
X98894731Y-98607428D02*
X98894731Y-98416952D01*
X98894731Y-98416952D02*
X98942350Y-98321714D01*
X98942350Y-98321714D02*
X98989969Y-98274095D01*
X98989969Y-98274095D02*
X99085207Y-98226476D01*
X96973779Y-96766142D02*
X96497588Y-96432809D01*
X96973779Y-96194714D02*
X95973779Y-96194714D01*
X95973779Y-96194714D02*
X95973779Y-96575666D01*
X95973779Y-96575666D02*
X96021398Y-96670904D01*
X96021398Y-96670904D02*
X96069017Y-96718523D01*
X96069017Y-96718523D02*
X96164255Y-96766142D01*
X96164255Y-96766142D02*
X96307112Y-96766142D01*
X96307112Y-96766142D02*
X96402350Y-96718523D01*
X96402350Y-96718523D02*
X96449969Y-96670904D01*
X96449969Y-96670904D02*
X96497588Y-96575666D01*
X96497588Y-96575666D02*
X96497588Y-96194714D01*
X96973779Y-97718523D02*
X96973779Y-97147095D01*
X96973779Y-97432809D02*
X95973779Y-97432809D01*
X95973779Y-97432809D02*
X96116636Y-97337571D01*
X96116636Y-97337571D02*
X96211874Y-97242333D01*
X96211874Y-97242333D02*
X96259493Y-97147095D01*
X96973779Y-98194714D02*
X96973779Y-98385190D01*
X96973779Y-98385190D02*
X96926160Y-98480428D01*
X96926160Y-98480428D02*
X96878540Y-98528047D01*
X96878540Y-98528047D02*
X96735683Y-98623285D01*
X96735683Y-98623285D02*
X96545207Y-98670904D01*
X96545207Y-98670904D02*
X96164255Y-98670904D01*
X96164255Y-98670904D02*
X96069017Y-98623285D01*
X96069017Y-98623285D02*
X96021398Y-98575666D01*
X96021398Y-98575666D02*
X95973779Y-98480428D01*
X95973779Y-98480428D02*
X95973779Y-98289952D01*
X95973779Y-98289952D02*
X96021398Y-98194714D01*
X96021398Y-98194714D02*
X96069017Y-98147095D01*
X96069017Y-98147095D02*
X96164255Y-98099476D01*
X96164255Y-98099476D02*
X96402350Y-98099476D01*
X96402350Y-98099476D02*
X96497588Y-98147095D01*
X96497588Y-98147095D02*
X96545207Y-98194714D01*
X96545207Y-98194714D02*
X96592826Y-98289952D01*
X96592826Y-98289952D02*
X96592826Y-98480428D01*
X96592826Y-98480428D02*
X96545207Y-98575666D01*
X96545207Y-98575666D02*
X96497588Y-98623285D01*
X96497588Y-98623285D02*
X96402350Y-98670904D01*
X94433779Y-96893142D02*
X93957588Y-96559809D01*
X94433779Y-96321714D02*
X93433779Y-96321714D01*
X93433779Y-96321714D02*
X93433779Y-96702666D01*
X93433779Y-96702666D02*
X93481398Y-96797904D01*
X93481398Y-96797904D02*
X93529017Y-96845523D01*
X93529017Y-96845523D02*
X93624255Y-96893142D01*
X93624255Y-96893142D02*
X93767112Y-96893142D01*
X93767112Y-96893142D02*
X93862350Y-96845523D01*
X93862350Y-96845523D02*
X93909969Y-96797904D01*
X93909969Y-96797904D02*
X93957588Y-96702666D01*
X93957588Y-96702666D02*
X93957588Y-96321714D01*
X93529017Y-97274095D02*
X93481398Y-97321714D01*
X93481398Y-97321714D02*
X93433779Y-97416952D01*
X93433779Y-97416952D02*
X93433779Y-97655047D01*
X93433779Y-97655047D02*
X93481398Y-97750285D01*
X93481398Y-97750285D02*
X93529017Y-97797904D01*
X93529017Y-97797904D02*
X93624255Y-97845523D01*
X93624255Y-97845523D02*
X93719493Y-97845523D01*
X93719493Y-97845523D02*
X93862350Y-97797904D01*
X93862350Y-97797904D02*
X94433779Y-97226476D01*
X94433779Y-97226476D02*
X94433779Y-97845523D01*
X93433779Y-98464571D02*
X93433779Y-98559809D01*
X93433779Y-98559809D02*
X93481398Y-98655047D01*
X93481398Y-98655047D02*
X93529017Y-98702666D01*
X93529017Y-98702666D02*
X93624255Y-98750285D01*
X93624255Y-98750285D02*
X93814731Y-98797904D01*
X93814731Y-98797904D02*
X94052826Y-98797904D01*
X94052826Y-98797904D02*
X94243302Y-98750285D01*
X94243302Y-98750285D02*
X94338540Y-98702666D01*
X94338540Y-98702666D02*
X94386160Y-98655047D01*
X94386160Y-98655047D02*
X94433779Y-98559809D01*
X94433779Y-98559809D02*
X94433779Y-98464571D01*
X94433779Y-98464571D02*
X94386160Y-98369333D01*
X94386160Y-98369333D02*
X94338540Y-98321714D01*
X94338540Y-98321714D02*
X94243302Y-98274095D01*
X94243302Y-98274095D02*
X94052826Y-98226476D01*
X94052826Y-98226476D02*
X93814731Y-98226476D01*
X93814731Y-98226476D02*
X93624255Y-98274095D01*
X93624255Y-98274095D02*
X93529017Y-98321714D01*
X93529017Y-98321714D02*
X93481398Y-98369333D01*
X93481398Y-98369333D02*
X93433779Y-98464571D01*
X91893779Y-96893142D02*
X91417588Y-96559809D01*
X91893779Y-96321714D02*
X90893779Y-96321714D01*
X90893779Y-96321714D02*
X90893779Y-96702666D01*
X90893779Y-96702666D02*
X90941398Y-96797904D01*
X90941398Y-96797904D02*
X90989017Y-96845523D01*
X90989017Y-96845523D02*
X91084255Y-96893142D01*
X91084255Y-96893142D02*
X91227112Y-96893142D01*
X91227112Y-96893142D02*
X91322350Y-96845523D01*
X91322350Y-96845523D02*
X91369969Y-96797904D01*
X91369969Y-96797904D02*
X91417588Y-96702666D01*
X91417588Y-96702666D02*
X91417588Y-96321714D01*
X90989017Y-97274095D02*
X90941398Y-97321714D01*
X90941398Y-97321714D02*
X90893779Y-97416952D01*
X90893779Y-97416952D02*
X90893779Y-97655047D01*
X90893779Y-97655047D02*
X90941398Y-97750285D01*
X90941398Y-97750285D02*
X90989017Y-97797904D01*
X90989017Y-97797904D02*
X91084255Y-97845523D01*
X91084255Y-97845523D02*
X91179493Y-97845523D01*
X91179493Y-97845523D02*
X91322350Y-97797904D01*
X91322350Y-97797904D02*
X91893779Y-97226476D01*
X91893779Y-97226476D02*
X91893779Y-97845523D01*
X91893779Y-98797904D02*
X91893779Y-98226476D01*
X91893779Y-98512190D02*
X90893779Y-98512190D01*
X90893779Y-98512190D02*
X91036636Y-98416952D01*
X91036636Y-98416952D02*
X91131874Y-98321714D01*
X91131874Y-98321714D02*
X91179493Y-98226476D01*
X88018857Y-109800779D02*
X88352190Y-109324588D01*
X88590285Y-109800779D02*
X88590285Y-108800779D01*
X88590285Y-108800779D02*
X88209333Y-108800779D01*
X88209333Y-108800779D02*
X88114095Y-108848398D01*
X88114095Y-108848398D02*
X88066476Y-108896017D01*
X88066476Y-108896017D02*
X88018857Y-108991255D01*
X88018857Y-108991255D02*
X88018857Y-109134112D01*
X88018857Y-109134112D02*
X88066476Y-109229350D01*
X88066476Y-109229350D02*
X88114095Y-109276969D01*
X88114095Y-109276969D02*
X88209333Y-109324588D01*
X88209333Y-109324588D02*
X88590285Y-109324588D01*
X87637904Y-108896017D02*
X87590285Y-108848398D01*
X87590285Y-108848398D02*
X87495047Y-108800779D01*
X87495047Y-108800779D02*
X87256952Y-108800779D01*
X87256952Y-108800779D02*
X87161714Y-108848398D01*
X87161714Y-108848398D02*
X87114095Y-108896017D01*
X87114095Y-108896017D02*
X87066476Y-108991255D01*
X87066476Y-108991255D02*
X87066476Y-109086493D01*
X87066476Y-109086493D02*
X87114095Y-109229350D01*
X87114095Y-109229350D02*
X87685523Y-109800779D01*
X87685523Y-109800779D02*
X87066476Y-109800779D01*
X86685523Y-108896017D02*
X86637904Y-108848398D01*
X86637904Y-108848398D02*
X86542666Y-108800779D01*
X86542666Y-108800779D02*
X86304571Y-108800779D01*
X86304571Y-108800779D02*
X86209333Y-108848398D01*
X86209333Y-108848398D02*
X86161714Y-108896017D01*
X86161714Y-108896017D02*
X86114095Y-108991255D01*
X86114095Y-108991255D02*
X86114095Y-109086493D01*
X86114095Y-109086493D02*
X86161714Y-109229350D01*
X86161714Y-109229350D02*
X86733142Y-109800779D01*
X86733142Y-109800779D02*
X86114095Y-109800779D01*
X61413779Y-100322142D02*
X60937588Y-99988809D01*
X61413779Y-99750714D02*
X60413779Y-99750714D01*
X60413779Y-99750714D02*
X60413779Y-100131666D01*
X60413779Y-100131666D02*
X60461398Y-100226904D01*
X60461398Y-100226904D02*
X60509017Y-100274523D01*
X60509017Y-100274523D02*
X60604255Y-100322142D01*
X60604255Y-100322142D02*
X60747112Y-100322142D01*
X60747112Y-100322142D02*
X60842350Y-100274523D01*
X60842350Y-100274523D02*
X60889969Y-100226904D01*
X60889969Y-100226904D02*
X60937588Y-100131666D01*
X60937588Y-100131666D02*
X60937588Y-99750714D01*
X60509017Y-100703095D02*
X60461398Y-100750714D01*
X60461398Y-100750714D02*
X60413779Y-100845952D01*
X60413779Y-100845952D02*
X60413779Y-101084047D01*
X60413779Y-101084047D02*
X60461398Y-101179285D01*
X60461398Y-101179285D02*
X60509017Y-101226904D01*
X60509017Y-101226904D02*
X60604255Y-101274523D01*
X60604255Y-101274523D02*
X60699493Y-101274523D01*
X60699493Y-101274523D02*
X60842350Y-101226904D01*
X60842350Y-101226904D02*
X61413779Y-100655476D01*
X61413779Y-100655476D02*
X61413779Y-101274523D01*
X60413779Y-101607857D02*
X60413779Y-102226904D01*
X60413779Y-102226904D02*
X60794731Y-101893571D01*
X60794731Y-101893571D02*
X60794731Y-102036428D01*
X60794731Y-102036428D02*
X60842350Y-102131666D01*
X60842350Y-102131666D02*
X60889969Y-102179285D01*
X60889969Y-102179285D02*
X60985207Y-102226904D01*
X60985207Y-102226904D02*
X61223302Y-102226904D01*
X61223302Y-102226904D02*
X61318540Y-102179285D01*
X61318540Y-102179285D02*
X61366160Y-102131666D01*
X61366160Y-102131666D02*
X61413779Y-102036428D01*
X61413779Y-102036428D02*
X61413779Y-101750714D01*
X61413779Y-101750714D02*
X61366160Y-101655476D01*
X61366160Y-101655476D02*
X61318540Y-101607857D01*
X56841779Y-96893142D02*
X56365588Y-96559809D01*
X56841779Y-96321714D02*
X55841779Y-96321714D01*
X55841779Y-96321714D02*
X55841779Y-96702666D01*
X55841779Y-96702666D02*
X55889398Y-96797904D01*
X55889398Y-96797904D02*
X55937017Y-96845523D01*
X55937017Y-96845523D02*
X56032255Y-96893142D01*
X56032255Y-96893142D02*
X56175112Y-96893142D01*
X56175112Y-96893142D02*
X56270350Y-96845523D01*
X56270350Y-96845523D02*
X56317969Y-96797904D01*
X56317969Y-96797904D02*
X56365588Y-96702666D01*
X56365588Y-96702666D02*
X56365588Y-96321714D01*
X55937017Y-97274095D02*
X55889398Y-97321714D01*
X55889398Y-97321714D02*
X55841779Y-97416952D01*
X55841779Y-97416952D02*
X55841779Y-97655047D01*
X55841779Y-97655047D02*
X55889398Y-97750285D01*
X55889398Y-97750285D02*
X55937017Y-97797904D01*
X55937017Y-97797904D02*
X56032255Y-97845523D01*
X56032255Y-97845523D02*
X56127493Y-97845523D01*
X56127493Y-97845523D02*
X56270350Y-97797904D01*
X56270350Y-97797904D02*
X56841779Y-97226476D01*
X56841779Y-97226476D02*
X56841779Y-97845523D01*
X56175112Y-98702666D02*
X56841779Y-98702666D01*
X55794160Y-98464571D02*
X56508445Y-98226476D01*
X56508445Y-98226476D02*
X56508445Y-98845523D01*
X53728857Y-95195779D02*
X54062190Y-94719588D01*
X54300285Y-95195779D02*
X54300285Y-94195779D01*
X54300285Y-94195779D02*
X53919333Y-94195779D01*
X53919333Y-94195779D02*
X53824095Y-94243398D01*
X53824095Y-94243398D02*
X53776476Y-94291017D01*
X53776476Y-94291017D02*
X53728857Y-94386255D01*
X53728857Y-94386255D02*
X53728857Y-94529112D01*
X53728857Y-94529112D02*
X53776476Y-94624350D01*
X53776476Y-94624350D02*
X53824095Y-94671969D01*
X53824095Y-94671969D02*
X53919333Y-94719588D01*
X53919333Y-94719588D02*
X54300285Y-94719588D01*
X53347904Y-94291017D02*
X53300285Y-94243398D01*
X53300285Y-94243398D02*
X53205047Y-94195779D01*
X53205047Y-94195779D02*
X52966952Y-94195779D01*
X52966952Y-94195779D02*
X52871714Y-94243398D01*
X52871714Y-94243398D02*
X52824095Y-94291017D01*
X52824095Y-94291017D02*
X52776476Y-94386255D01*
X52776476Y-94386255D02*
X52776476Y-94481493D01*
X52776476Y-94481493D02*
X52824095Y-94624350D01*
X52824095Y-94624350D02*
X53395523Y-95195779D01*
X53395523Y-95195779D02*
X52776476Y-95195779D01*
X51871714Y-94195779D02*
X52347904Y-94195779D01*
X52347904Y-94195779D02*
X52395523Y-94671969D01*
X52395523Y-94671969D02*
X52347904Y-94624350D01*
X52347904Y-94624350D02*
X52252666Y-94576731D01*
X52252666Y-94576731D02*
X52014571Y-94576731D01*
X52014571Y-94576731D02*
X51919333Y-94624350D01*
X51919333Y-94624350D02*
X51871714Y-94671969D01*
X51871714Y-94671969D02*
X51824095Y-94767207D01*
X51824095Y-94767207D02*
X51824095Y-95005302D01*
X51824095Y-95005302D02*
X51871714Y-95100540D01*
X51871714Y-95100540D02*
X51919333Y-95148160D01*
X51919333Y-95148160D02*
X52014571Y-95195779D01*
X52014571Y-95195779D02*
X52252666Y-95195779D01*
X52252666Y-95195779D02*
X52347904Y-95148160D01*
X52347904Y-95148160D02*
X52395523Y-95100540D01*
X71573779Y-76192142D02*
X71097588Y-75858809D01*
X71573779Y-75620714D02*
X70573779Y-75620714D01*
X70573779Y-75620714D02*
X70573779Y-76001666D01*
X70573779Y-76001666D02*
X70621398Y-76096904D01*
X70621398Y-76096904D02*
X70669017Y-76144523D01*
X70669017Y-76144523D02*
X70764255Y-76192142D01*
X70764255Y-76192142D02*
X70907112Y-76192142D01*
X70907112Y-76192142D02*
X71002350Y-76144523D01*
X71002350Y-76144523D02*
X71049969Y-76096904D01*
X71049969Y-76096904D02*
X71097588Y-76001666D01*
X71097588Y-76001666D02*
X71097588Y-75620714D01*
X70669017Y-76573095D02*
X70621398Y-76620714D01*
X70621398Y-76620714D02*
X70573779Y-76715952D01*
X70573779Y-76715952D02*
X70573779Y-76954047D01*
X70573779Y-76954047D02*
X70621398Y-77049285D01*
X70621398Y-77049285D02*
X70669017Y-77096904D01*
X70669017Y-77096904D02*
X70764255Y-77144523D01*
X70764255Y-77144523D02*
X70859493Y-77144523D01*
X70859493Y-77144523D02*
X71002350Y-77096904D01*
X71002350Y-77096904D02*
X71573779Y-76525476D01*
X71573779Y-76525476D02*
X71573779Y-77144523D01*
X71002350Y-77715952D02*
X70954731Y-77620714D01*
X70954731Y-77620714D02*
X70907112Y-77573095D01*
X70907112Y-77573095D02*
X70811874Y-77525476D01*
X70811874Y-77525476D02*
X70764255Y-77525476D01*
X70764255Y-77525476D02*
X70669017Y-77573095D01*
X70669017Y-77573095D02*
X70621398Y-77620714D01*
X70621398Y-77620714D02*
X70573779Y-77715952D01*
X70573779Y-77715952D02*
X70573779Y-77906428D01*
X70573779Y-77906428D02*
X70621398Y-78001666D01*
X70621398Y-78001666D02*
X70669017Y-78049285D01*
X70669017Y-78049285D02*
X70764255Y-78096904D01*
X70764255Y-78096904D02*
X70811874Y-78096904D01*
X70811874Y-78096904D02*
X70907112Y-78049285D01*
X70907112Y-78049285D02*
X70954731Y-78001666D01*
X70954731Y-78001666D02*
X71002350Y-77906428D01*
X71002350Y-77906428D02*
X71002350Y-77715952D01*
X71002350Y-77715952D02*
X71049969Y-77620714D01*
X71049969Y-77620714D02*
X71097588Y-77573095D01*
X71097588Y-77573095D02*
X71192826Y-77525476D01*
X71192826Y-77525476D02*
X71383302Y-77525476D01*
X71383302Y-77525476D02*
X71478540Y-77573095D01*
X71478540Y-77573095D02*
X71526160Y-77620714D01*
X71526160Y-77620714D02*
X71573779Y-77715952D01*
X71573779Y-77715952D02*
X71573779Y-77906428D01*
X71573779Y-77906428D02*
X71526160Y-78001666D01*
X71526160Y-78001666D02*
X71478540Y-78049285D01*
X71478540Y-78049285D02*
X71383302Y-78096904D01*
X71383302Y-78096904D02*
X71192826Y-78096904D01*
X71192826Y-78096904D02*
X71097588Y-78049285D01*
X71097588Y-78049285D02*
X71049969Y-78001666D01*
X71049969Y-78001666D02*
X71002350Y-77906428D01*
X67636779Y-79494142D02*
X67160588Y-79160809D01*
X67636779Y-78922714D02*
X66636779Y-78922714D01*
X66636779Y-78922714D02*
X66636779Y-79303666D01*
X66636779Y-79303666D02*
X66684398Y-79398904D01*
X66684398Y-79398904D02*
X66732017Y-79446523D01*
X66732017Y-79446523D02*
X66827255Y-79494142D01*
X66827255Y-79494142D02*
X66970112Y-79494142D01*
X66970112Y-79494142D02*
X67065350Y-79446523D01*
X67065350Y-79446523D02*
X67112969Y-79398904D01*
X67112969Y-79398904D02*
X67160588Y-79303666D01*
X67160588Y-79303666D02*
X67160588Y-78922714D01*
X66636779Y-79827476D02*
X66636779Y-80446523D01*
X66636779Y-80446523D02*
X67017731Y-80113190D01*
X67017731Y-80113190D02*
X67017731Y-80256047D01*
X67017731Y-80256047D02*
X67065350Y-80351285D01*
X67065350Y-80351285D02*
X67112969Y-80398904D01*
X67112969Y-80398904D02*
X67208207Y-80446523D01*
X67208207Y-80446523D02*
X67446302Y-80446523D01*
X67446302Y-80446523D02*
X67541540Y-80398904D01*
X67541540Y-80398904D02*
X67589160Y-80351285D01*
X67589160Y-80351285D02*
X67636779Y-80256047D01*
X67636779Y-80256047D02*
X67636779Y-79970333D01*
X67636779Y-79970333D02*
X67589160Y-79875095D01*
X67589160Y-79875095D02*
X67541540Y-79827476D01*
X67636779Y-81398904D02*
X67636779Y-80827476D01*
X67636779Y-81113190D02*
X66636779Y-81113190D01*
X66636779Y-81113190D02*
X66779636Y-81017952D01*
X66779636Y-81017952D02*
X66874874Y-80922714D01*
X66874874Y-80922714D02*
X66922493Y-80827476D01*
X59000779Y-79367142D02*
X58524588Y-79033809D01*
X59000779Y-78795714D02*
X58000779Y-78795714D01*
X58000779Y-78795714D02*
X58000779Y-79176666D01*
X58000779Y-79176666D02*
X58048398Y-79271904D01*
X58048398Y-79271904D02*
X58096017Y-79319523D01*
X58096017Y-79319523D02*
X58191255Y-79367142D01*
X58191255Y-79367142D02*
X58334112Y-79367142D01*
X58334112Y-79367142D02*
X58429350Y-79319523D01*
X58429350Y-79319523D02*
X58476969Y-79271904D01*
X58476969Y-79271904D02*
X58524588Y-79176666D01*
X58524588Y-79176666D02*
X58524588Y-78795714D01*
X58000779Y-79700476D02*
X58000779Y-80319523D01*
X58000779Y-80319523D02*
X58381731Y-79986190D01*
X58381731Y-79986190D02*
X58381731Y-80129047D01*
X58381731Y-80129047D02*
X58429350Y-80224285D01*
X58429350Y-80224285D02*
X58476969Y-80271904D01*
X58476969Y-80271904D02*
X58572207Y-80319523D01*
X58572207Y-80319523D02*
X58810302Y-80319523D01*
X58810302Y-80319523D02*
X58905540Y-80271904D01*
X58905540Y-80271904D02*
X58953160Y-80224285D01*
X58953160Y-80224285D02*
X59000779Y-80129047D01*
X59000779Y-80129047D02*
X59000779Y-79843333D01*
X59000779Y-79843333D02*
X58953160Y-79748095D01*
X58953160Y-79748095D02*
X58905540Y-79700476D01*
X58000779Y-81176666D02*
X58000779Y-80986190D01*
X58000779Y-80986190D02*
X58048398Y-80890952D01*
X58048398Y-80890952D02*
X58096017Y-80843333D01*
X58096017Y-80843333D02*
X58238874Y-80748095D01*
X58238874Y-80748095D02*
X58429350Y-80700476D01*
X58429350Y-80700476D02*
X58810302Y-80700476D01*
X58810302Y-80700476D02*
X58905540Y-80748095D01*
X58905540Y-80748095D02*
X58953160Y-80795714D01*
X58953160Y-80795714D02*
X59000779Y-80890952D01*
X59000779Y-80890952D02*
X59000779Y-81081428D01*
X59000779Y-81081428D02*
X58953160Y-81176666D01*
X58953160Y-81176666D02*
X58905540Y-81224285D01*
X58905540Y-81224285D02*
X58810302Y-81271904D01*
X58810302Y-81271904D02*
X58572207Y-81271904D01*
X58572207Y-81271904D02*
X58476969Y-81224285D01*
X58476969Y-81224285D02*
X58429350Y-81176666D01*
X58429350Y-81176666D02*
X58381731Y-81081428D01*
X58381731Y-81081428D02*
X58381731Y-80890952D01*
X58381731Y-80890952D02*
X58429350Y-80795714D01*
X58429350Y-80795714D02*
X58476969Y-80748095D01*
X58476969Y-80748095D02*
X58572207Y-80700476D01*
X54363857Y-74240779D02*
X54697190Y-73764588D01*
X54935285Y-74240779D02*
X54935285Y-73240779D01*
X54935285Y-73240779D02*
X54554333Y-73240779D01*
X54554333Y-73240779D02*
X54459095Y-73288398D01*
X54459095Y-73288398D02*
X54411476Y-73336017D01*
X54411476Y-73336017D02*
X54363857Y-73431255D01*
X54363857Y-73431255D02*
X54363857Y-73574112D01*
X54363857Y-73574112D02*
X54411476Y-73669350D01*
X54411476Y-73669350D02*
X54459095Y-73716969D01*
X54459095Y-73716969D02*
X54554333Y-73764588D01*
X54554333Y-73764588D02*
X54935285Y-73764588D01*
X54030523Y-73240779D02*
X53411476Y-73240779D01*
X53411476Y-73240779D02*
X53744809Y-73621731D01*
X53744809Y-73621731D02*
X53601952Y-73621731D01*
X53601952Y-73621731D02*
X53506714Y-73669350D01*
X53506714Y-73669350D02*
X53459095Y-73716969D01*
X53459095Y-73716969D02*
X53411476Y-73812207D01*
X53411476Y-73812207D02*
X53411476Y-74050302D01*
X53411476Y-74050302D02*
X53459095Y-74145540D01*
X53459095Y-74145540D02*
X53506714Y-74193160D01*
X53506714Y-74193160D02*
X53601952Y-74240779D01*
X53601952Y-74240779D02*
X53887666Y-74240779D01*
X53887666Y-74240779D02*
X53982904Y-74193160D01*
X53982904Y-74193160D02*
X54030523Y-74145540D01*
X53078142Y-73240779D02*
X52411476Y-73240779D01*
X52411476Y-73240779D02*
X52840047Y-74240779D01*
X60332857Y-70811779D02*
X60666190Y-70335588D01*
X60904285Y-70811779D02*
X60904285Y-69811779D01*
X60904285Y-69811779D02*
X60523333Y-69811779D01*
X60523333Y-69811779D02*
X60428095Y-69859398D01*
X60428095Y-69859398D02*
X60380476Y-69907017D01*
X60380476Y-69907017D02*
X60332857Y-70002255D01*
X60332857Y-70002255D02*
X60332857Y-70145112D01*
X60332857Y-70145112D02*
X60380476Y-70240350D01*
X60380476Y-70240350D02*
X60428095Y-70287969D01*
X60428095Y-70287969D02*
X60523333Y-70335588D01*
X60523333Y-70335588D02*
X60904285Y-70335588D01*
X59999523Y-69811779D02*
X59380476Y-69811779D01*
X59380476Y-69811779D02*
X59713809Y-70192731D01*
X59713809Y-70192731D02*
X59570952Y-70192731D01*
X59570952Y-70192731D02*
X59475714Y-70240350D01*
X59475714Y-70240350D02*
X59428095Y-70287969D01*
X59428095Y-70287969D02*
X59380476Y-70383207D01*
X59380476Y-70383207D02*
X59380476Y-70621302D01*
X59380476Y-70621302D02*
X59428095Y-70716540D01*
X59428095Y-70716540D02*
X59475714Y-70764160D01*
X59475714Y-70764160D02*
X59570952Y-70811779D01*
X59570952Y-70811779D02*
X59856666Y-70811779D01*
X59856666Y-70811779D02*
X59951904Y-70764160D01*
X59951904Y-70764160D02*
X59999523Y-70716540D01*
X58809047Y-70240350D02*
X58904285Y-70192731D01*
X58904285Y-70192731D02*
X58951904Y-70145112D01*
X58951904Y-70145112D02*
X58999523Y-70049874D01*
X58999523Y-70049874D02*
X58999523Y-70002255D01*
X58999523Y-70002255D02*
X58951904Y-69907017D01*
X58951904Y-69907017D02*
X58904285Y-69859398D01*
X58904285Y-69859398D02*
X58809047Y-69811779D01*
X58809047Y-69811779D02*
X58618571Y-69811779D01*
X58618571Y-69811779D02*
X58523333Y-69859398D01*
X58523333Y-69859398D02*
X58475714Y-69907017D01*
X58475714Y-69907017D02*
X58428095Y-70002255D01*
X58428095Y-70002255D02*
X58428095Y-70049874D01*
X58428095Y-70049874D02*
X58475714Y-70145112D01*
X58475714Y-70145112D02*
X58523333Y-70192731D01*
X58523333Y-70192731D02*
X58618571Y-70240350D01*
X58618571Y-70240350D02*
X58809047Y-70240350D01*
X58809047Y-70240350D02*
X58904285Y-70287969D01*
X58904285Y-70287969D02*
X58951904Y-70335588D01*
X58951904Y-70335588D02*
X58999523Y-70430826D01*
X58999523Y-70430826D02*
X58999523Y-70621302D01*
X58999523Y-70621302D02*
X58951904Y-70716540D01*
X58951904Y-70716540D02*
X58904285Y-70764160D01*
X58904285Y-70764160D02*
X58809047Y-70811779D01*
X58809047Y-70811779D02*
X58618571Y-70811779D01*
X58618571Y-70811779D02*
X58523333Y-70764160D01*
X58523333Y-70764160D02*
X58475714Y-70716540D01*
X58475714Y-70716540D02*
X58428095Y-70621302D01*
X58428095Y-70621302D02*
X58428095Y-70430826D01*
X58428095Y-70430826D02*
X58475714Y-70335588D01*
X58475714Y-70335588D02*
X58523333Y-70287969D01*
X58523333Y-70287969D02*
X58618571Y-70240350D01*
X66174857Y-70176779D02*
X66508190Y-69700588D01*
X66746285Y-70176779D02*
X66746285Y-69176779D01*
X66746285Y-69176779D02*
X66365333Y-69176779D01*
X66365333Y-69176779D02*
X66270095Y-69224398D01*
X66270095Y-69224398D02*
X66222476Y-69272017D01*
X66222476Y-69272017D02*
X66174857Y-69367255D01*
X66174857Y-69367255D02*
X66174857Y-69510112D01*
X66174857Y-69510112D02*
X66222476Y-69605350D01*
X66222476Y-69605350D02*
X66270095Y-69652969D01*
X66270095Y-69652969D02*
X66365333Y-69700588D01*
X66365333Y-69700588D02*
X66746285Y-69700588D01*
X65841523Y-69176779D02*
X65222476Y-69176779D01*
X65222476Y-69176779D02*
X65555809Y-69557731D01*
X65555809Y-69557731D02*
X65412952Y-69557731D01*
X65412952Y-69557731D02*
X65317714Y-69605350D01*
X65317714Y-69605350D02*
X65270095Y-69652969D01*
X65270095Y-69652969D02*
X65222476Y-69748207D01*
X65222476Y-69748207D02*
X65222476Y-69986302D01*
X65222476Y-69986302D02*
X65270095Y-70081540D01*
X65270095Y-70081540D02*
X65317714Y-70129160D01*
X65317714Y-70129160D02*
X65412952Y-70176779D01*
X65412952Y-70176779D02*
X65698666Y-70176779D01*
X65698666Y-70176779D02*
X65793904Y-70129160D01*
X65793904Y-70129160D02*
X65841523Y-70081540D01*
X64746285Y-70176779D02*
X64555809Y-70176779D01*
X64555809Y-70176779D02*
X64460571Y-70129160D01*
X64460571Y-70129160D02*
X64412952Y-70081540D01*
X64412952Y-70081540D02*
X64317714Y-69938683D01*
X64317714Y-69938683D02*
X64270095Y-69748207D01*
X64270095Y-69748207D02*
X64270095Y-69367255D01*
X64270095Y-69367255D02*
X64317714Y-69272017D01*
X64317714Y-69272017D02*
X64365333Y-69224398D01*
X64365333Y-69224398D02*
X64460571Y-69176779D01*
X64460571Y-69176779D02*
X64651047Y-69176779D01*
X64651047Y-69176779D02*
X64746285Y-69224398D01*
X64746285Y-69224398D02*
X64793904Y-69272017D01*
X64793904Y-69272017D02*
X64841523Y-69367255D01*
X64841523Y-69367255D02*
X64841523Y-69605350D01*
X64841523Y-69605350D02*
X64793904Y-69700588D01*
X64793904Y-69700588D02*
X64746285Y-69748207D01*
X64746285Y-69748207D02*
X64651047Y-69795826D01*
X64651047Y-69795826D02*
X64460571Y-69795826D01*
X64460571Y-69795826D02*
X64365333Y-69748207D01*
X64365333Y-69748207D02*
X64317714Y-69700588D01*
X64317714Y-69700588D02*
X64270095Y-69605350D01*
X131833857Y-81098779D02*
X132167190Y-80622588D01*
X132405285Y-81098779D02*
X132405285Y-80098779D01*
X132405285Y-80098779D02*
X132024333Y-80098779D01*
X132024333Y-80098779D02*
X131929095Y-80146398D01*
X131929095Y-80146398D02*
X131881476Y-80194017D01*
X131881476Y-80194017D02*
X131833857Y-80289255D01*
X131833857Y-80289255D02*
X131833857Y-80432112D01*
X131833857Y-80432112D02*
X131881476Y-80527350D01*
X131881476Y-80527350D02*
X131929095Y-80574969D01*
X131929095Y-80574969D02*
X132024333Y-80622588D01*
X132024333Y-80622588D02*
X132405285Y-80622588D01*
X130976714Y-80432112D02*
X130976714Y-81098779D01*
X131214809Y-80051160D02*
X131452904Y-80765445D01*
X131452904Y-80765445D02*
X130833857Y-80765445D01*
X130262428Y-80098779D02*
X130167190Y-80098779D01*
X130167190Y-80098779D02*
X130071952Y-80146398D01*
X130071952Y-80146398D02*
X130024333Y-80194017D01*
X130024333Y-80194017D02*
X129976714Y-80289255D01*
X129976714Y-80289255D02*
X129929095Y-80479731D01*
X129929095Y-80479731D02*
X129929095Y-80717826D01*
X129929095Y-80717826D02*
X129976714Y-80908302D01*
X129976714Y-80908302D02*
X130024333Y-81003540D01*
X130024333Y-81003540D02*
X130071952Y-81051160D01*
X130071952Y-81051160D02*
X130167190Y-81098779D01*
X130167190Y-81098779D02*
X130262428Y-81098779D01*
X130262428Y-81098779D02*
X130357666Y-81051160D01*
X130357666Y-81051160D02*
X130405285Y-81003540D01*
X130405285Y-81003540D02*
X130452904Y-80908302D01*
X130452904Y-80908302D02*
X130500523Y-80717826D01*
X130500523Y-80717826D02*
X130500523Y-80479731D01*
X130500523Y-80479731D02*
X130452904Y-80289255D01*
X130452904Y-80289255D02*
X130405285Y-80194017D01*
X130405285Y-80194017D02*
X130357666Y-80146398D01*
X130357666Y-80146398D02*
X130262428Y-80098779D01*
X104782857Y-146503779D02*
X105116190Y-146027588D01*
X105354285Y-146503779D02*
X105354285Y-145503779D01*
X105354285Y-145503779D02*
X104973333Y-145503779D01*
X104973333Y-145503779D02*
X104878095Y-145551398D01*
X104878095Y-145551398D02*
X104830476Y-145599017D01*
X104830476Y-145599017D02*
X104782857Y-145694255D01*
X104782857Y-145694255D02*
X104782857Y-145837112D01*
X104782857Y-145837112D02*
X104830476Y-145932350D01*
X104830476Y-145932350D02*
X104878095Y-145979969D01*
X104878095Y-145979969D02*
X104973333Y-146027588D01*
X104973333Y-146027588D02*
X105354285Y-146027588D01*
X103925714Y-145837112D02*
X103925714Y-146503779D01*
X104163809Y-145456160D02*
X104401904Y-146170445D01*
X104401904Y-146170445D02*
X103782857Y-146170445D01*
X103449523Y-145599017D02*
X103401904Y-145551398D01*
X103401904Y-145551398D02*
X103306666Y-145503779D01*
X103306666Y-145503779D02*
X103068571Y-145503779D01*
X103068571Y-145503779D02*
X102973333Y-145551398D01*
X102973333Y-145551398D02*
X102925714Y-145599017D01*
X102925714Y-145599017D02*
X102878095Y-145694255D01*
X102878095Y-145694255D02*
X102878095Y-145789493D01*
X102878095Y-145789493D02*
X102925714Y-145932350D01*
X102925714Y-145932350D02*
X103497142Y-146503779D01*
X103497142Y-146503779D02*
X102878095Y-146503779D01*
X58238779Y-113657142D02*
X57762588Y-113323809D01*
X58238779Y-113085714D02*
X57238779Y-113085714D01*
X57238779Y-113085714D02*
X57238779Y-113466666D01*
X57238779Y-113466666D02*
X57286398Y-113561904D01*
X57286398Y-113561904D02*
X57334017Y-113609523D01*
X57334017Y-113609523D02*
X57429255Y-113657142D01*
X57429255Y-113657142D02*
X57572112Y-113657142D01*
X57572112Y-113657142D02*
X57667350Y-113609523D01*
X57667350Y-113609523D02*
X57714969Y-113561904D01*
X57714969Y-113561904D02*
X57762588Y-113466666D01*
X57762588Y-113466666D02*
X57762588Y-113085714D01*
X58238779Y-114609523D02*
X58238779Y-114038095D01*
X58238779Y-114323809D02*
X57238779Y-114323809D01*
X57238779Y-114323809D02*
X57381636Y-114228571D01*
X57381636Y-114228571D02*
X57476874Y-114133333D01*
X57476874Y-114133333D02*
X57524493Y-114038095D01*
X57667350Y-115180952D02*
X57619731Y-115085714D01*
X57619731Y-115085714D02*
X57572112Y-115038095D01*
X57572112Y-115038095D02*
X57476874Y-114990476D01*
X57476874Y-114990476D02*
X57429255Y-114990476D01*
X57429255Y-114990476D02*
X57334017Y-115038095D01*
X57334017Y-115038095D02*
X57286398Y-115085714D01*
X57286398Y-115085714D02*
X57238779Y-115180952D01*
X57238779Y-115180952D02*
X57238779Y-115371428D01*
X57238779Y-115371428D02*
X57286398Y-115466666D01*
X57286398Y-115466666D02*
X57334017Y-115514285D01*
X57334017Y-115514285D02*
X57429255Y-115561904D01*
X57429255Y-115561904D02*
X57476874Y-115561904D01*
X57476874Y-115561904D02*
X57572112Y-115514285D01*
X57572112Y-115514285D02*
X57619731Y-115466666D01*
X57619731Y-115466666D02*
X57667350Y-115371428D01*
X57667350Y-115371428D02*
X57667350Y-115180952D01*
X57667350Y-115180952D02*
X57714969Y-115085714D01*
X57714969Y-115085714D02*
X57762588Y-115038095D01*
X57762588Y-115038095D02*
X57857826Y-114990476D01*
X57857826Y-114990476D02*
X58048302Y-114990476D01*
X58048302Y-114990476D02*
X58143540Y-115038095D01*
X58143540Y-115038095D02*
X58191160Y-115085714D01*
X58191160Y-115085714D02*
X58238779Y-115180952D01*
X58238779Y-115180952D02*
X58238779Y-115371428D01*
X58238779Y-115371428D02*
X58191160Y-115466666D01*
X58191160Y-115466666D02*
X58143540Y-115514285D01*
X58143540Y-115514285D02*
X58048302Y-115561904D01*
X58048302Y-115561904D02*
X57857826Y-115561904D01*
X57857826Y-115561904D02*
X57762588Y-115514285D01*
X57762588Y-115514285D02*
X57714969Y-115466666D01*
X57714969Y-115466666D02*
X57667350Y-115371428D01*
X45538779Y-110482142D02*
X45062588Y-110148809D01*
X45538779Y-109910714D02*
X44538779Y-109910714D01*
X44538779Y-109910714D02*
X44538779Y-110291666D01*
X44538779Y-110291666D02*
X44586398Y-110386904D01*
X44586398Y-110386904D02*
X44634017Y-110434523D01*
X44634017Y-110434523D02*
X44729255Y-110482142D01*
X44729255Y-110482142D02*
X44872112Y-110482142D01*
X44872112Y-110482142D02*
X44967350Y-110434523D01*
X44967350Y-110434523D02*
X45014969Y-110386904D01*
X45014969Y-110386904D02*
X45062588Y-110291666D01*
X45062588Y-110291666D02*
X45062588Y-109910714D01*
X45538779Y-111434523D02*
X45538779Y-110863095D01*
X45538779Y-111148809D02*
X44538779Y-111148809D01*
X44538779Y-111148809D02*
X44681636Y-111053571D01*
X44681636Y-111053571D02*
X44776874Y-110958333D01*
X44776874Y-110958333D02*
X44824493Y-110863095D01*
X44538779Y-112339285D02*
X44538779Y-111863095D01*
X44538779Y-111863095D02*
X45014969Y-111815476D01*
X45014969Y-111815476D02*
X44967350Y-111863095D01*
X44967350Y-111863095D02*
X44919731Y-111958333D01*
X44919731Y-111958333D02*
X44919731Y-112196428D01*
X44919731Y-112196428D02*
X44967350Y-112291666D01*
X44967350Y-112291666D02*
X45014969Y-112339285D01*
X45014969Y-112339285D02*
X45110207Y-112386904D01*
X45110207Y-112386904D02*
X45348302Y-112386904D01*
X45348302Y-112386904D02*
X45443540Y-112339285D01*
X45443540Y-112339285D02*
X45491160Y-112291666D01*
X45491160Y-112291666D02*
X45538779Y-112196428D01*
X45538779Y-112196428D02*
X45538779Y-111958333D01*
X45538779Y-111958333D02*
X45491160Y-111863095D01*
X45491160Y-111863095D02*
X45443540Y-111815476D01*
X49983779Y-113911142D02*
X49507588Y-113577809D01*
X49983779Y-113339714D02*
X48983779Y-113339714D01*
X48983779Y-113339714D02*
X48983779Y-113720666D01*
X48983779Y-113720666D02*
X49031398Y-113815904D01*
X49031398Y-113815904D02*
X49079017Y-113863523D01*
X49079017Y-113863523D02*
X49174255Y-113911142D01*
X49174255Y-113911142D02*
X49317112Y-113911142D01*
X49317112Y-113911142D02*
X49412350Y-113863523D01*
X49412350Y-113863523D02*
X49459969Y-113815904D01*
X49459969Y-113815904D02*
X49507588Y-113720666D01*
X49507588Y-113720666D02*
X49507588Y-113339714D01*
X49983779Y-114863523D02*
X49983779Y-114292095D01*
X49983779Y-114577809D02*
X48983779Y-114577809D01*
X48983779Y-114577809D02*
X49126636Y-114482571D01*
X49126636Y-114482571D02*
X49221874Y-114387333D01*
X49221874Y-114387333D02*
X49269493Y-114292095D01*
X49317112Y-115720666D02*
X49983779Y-115720666D01*
X48936160Y-115482571D02*
X49650445Y-115244476D01*
X49650445Y-115244476D02*
X49650445Y-115863523D01*
X49348779Y-132707142D02*
X48872588Y-132373809D01*
X49348779Y-132135714D02*
X48348779Y-132135714D01*
X48348779Y-132135714D02*
X48348779Y-132516666D01*
X48348779Y-132516666D02*
X48396398Y-132611904D01*
X48396398Y-132611904D02*
X48444017Y-132659523D01*
X48444017Y-132659523D02*
X48539255Y-132707142D01*
X48539255Y-132707142D02*
X48682112Y-132707142D01*
X48682112Y-132707142D02*
X48777350Y-132659523D01*
X48777350Y-132659523D02*
X48824969Y-132611904D01*
X48824969Y-132611904D02*
X48872588Y-132516666D01*
X48872588Y-132516666D02*
X48872588Y-132135714D01*
X48348779Y-133040476D02*
X48348779Y-133659523D01*
X48348779Y-133659523D02*
X48729731Y-133326190D01*
X48729731Y-133326190D02*
X48729731Y-133469047D01*
X48729731Y-133469047D02*
X48777350Y-133564285D01*
X48777350Y-133564285D02*
X48824969Y-133611904D01*
X48824969Y-133611904D02*
X48920207Y-133659523D01*
X48920207Y-133659523D02*
X49158302Y-133659523D01*
X49158302Y-133659523D02*
X49253540Y-133611904D01*
X49253540Y-133611904D02*
X49301160Y-133564285D01*
X49301160Y-133564285D02*
X49348779Y-133469047D01*
X49348779Y-133469047D02*
X49348779Y-133183333D01*
X49348779Y-133183333D02*
X49301160Y-133088095D01*
X49301160Y-133088095D02*
X49253540Y-133040476D01*
X48682112Y-134516666D02*
X49348779Y-134516666D01*
X48301160Y-134278571D02*
X49015445Y-134040476D01*
X49015445Y-134040476D02*
X49015445Y-134659523D01*
X52015779Y-113911142D02*
X51539588Y-113577809D01*
X52015779Y-113339714D02*
X51015779Y-113339714D01*
X51015779Y-113339714D02*
X51015779Y-113720666D01*
X51015779Y-113720666D02*
X51063398Y-113815904D01*
X51063398Y-113815904D02*
X51111017Y-113863523D01*
X51111017Y-113863523D02*
X51206255Y-113911142D01*
X51206255Y-113911142D02*
X51349112Y-113911142D01*
X51349112Y-113911142D02*
X51444350Y-113863523D01*
X51444350Y-113863523D02*
X51491969Y-113815904D01*
X51491969Y-113815904D02*
X51539588Y-113720666D01*
X51539588Y-113720666D02*
X51539588Y-113339714D01*
X52015779Y-114863523D02*
X52015779Y-114292095D01*
X52015779Y-114577809D02*
X51015779Y-114577809D01*
X51015779Y-114577809D02*
X51158636Y-114482571D01*
X51158636Y-114482571D02*
X51253874Y-114387333D01*
X51253874Y-114387333D02*
X51301493Y-114292095D01*
X51015779Y-115196857D02*
X51015779Y-115863523D01*
X51015779Y-115863523D02*
X52015779Y-115434952D01*
D11*
X58015094Y-77670299D02*
X58015094Y-76670299D01*
X58015094Y-76670299D02*
X57776999Y-76670299D01*
X57776999Y-76670299D02*
X57634142Y-76717918D01*
X57634142Y-76717918D02*
X57538904Y-76813156D01*
X57538904Y-76813156D02*
X57491285Y-76908394D01*
X57491285Y-76908394D02*
X57443666Y-77098870D01*
X57443666Y-77098870D02*
X57443666Y-77241727D01*
X57443666Y-77241727D02*
X57491285Y-77432203D01*
X57491285Y-77432203D02*
X57538904Y-77527441D01*
X57538904Y-77527441D02*
X57634142Y-77622680D01*
X57634142Y-77622680D02*
X57776999Y-77670299D01*
X57776999Y-77670299D02*
X58015094Y-77670299D01*
X56967475Y-77670299D02*
X56776999Y-77670299D01*
X56776999Y-77670299D02*
X56681761Y-77622680D01*
X56681761Y-77622680D02*
X56634142Y-77575060D01*
X56634142Y-77575060D02*
X56538904Y-77432203D01*
X56538904Y-77432203D02*
X56491285Y-77241727D01*
X56491285Y-77241727D02*
X56491285Y-76860775D01*
X56491285Y-76860775D02*
X56538904Y-76765537D01*
X56538904Y-76765537D02*
X56586523Y-76717918D01*
X56586523Y-76717918D02*
X56681761Y-76670299D01*
X56681761Y-76670299D02*
X56872237Y-76670299D01*
X56872237Y-76670299D02*
X56967475Y-76717918D01*
X56967475Y-76717918D02*
X57015094Y-76765537D01*
X57015094Y-76765537D02*
X57062713Y-76860775D01*
X57062713Y-76860775D02*
X57062713Y-77098870D01*
X57062713Y-77098870D02*
X57015094Y-77194108D01*
X57015094Y-77194108D02*
X56967475Y-77241727D01*
X56967475Y-77241727D02*
X56872237Y-77289346D01*
X56872237Y-77289346D02*
X56681761Y-77289346D01*
X56681761Y-77289346D02*
X56586523Y-77241727D01*
X56586523Y-77241727D02*
X56538904Y-77194108D01*
X56538904Y-77194108D02*
X56491285Y-77098870D01*
X74874285Y-75765299D02*
X74874285Y-74765299D01*
X74874285Y-74765299D02*
X74636190Y-74765299D01*
X74636190Y-74765299D02*
X74493333Y-74812918D01*
X74493333Y-74812918D02*
X74398095Y-74908156D01*
X74398095Y-74908156D02*
X74350476Y-75003394D01*
X74350476Y-75003394D02*
X74302857Y-75193870D01*
X74302857Y-75193870D02*
X74302857Y-75336727D01*
X74302857Y-75336727D02*
X74350476Y-75527203D01*
X74350476Y-75527203D02*
X74398095Y-75622441D01*
X74398095Y-75622441D02*
X74493333Y-75717680D01*
X74493333Y-75717680D02*
X74636190Y-75765299D01*
X74636190Y-75765299D02*
X74874285Y-75765299D01*
X73350476Y-75765299D02*
X73921904Y-75765299D01*
X73636190Y-75765299D02*
X73636190Y-74765299D01*
X73636190Y-74765299D02*
X73731428Y-74908156D01*
X73731428Y-74908156D02*
X73826666Y-75003394D01*
X73826666Y-75003394D02*
X73921904Y-75051013D01*
X72398095Y-75765299D02*
X72969523Y-75765299D01*
X72683809Y-75765299D02*
X72683809Y-74765299D01*
X72683809Y-74765299D02*
X72779047Y-74908156D01*
X72779047Y-74908156D02*
X72874285Y-75003394D01*
X72874285Y-75003394D02*
X72969523Y-75051013D01*
X112214299Y-133024714D02*
X111214299Y-133024714D01*
X111214299Y-133024714D02*
X111214299Y-133262809D01*
X111214299Y-133262809D02*
X111261918Y-133405666D01*
X111261918Y-133405666D02*
X111357156Y-133500904D01*
X111357156Y-133500904D02*
X111452394Y-133548523D01*
X111452394Y-133548523D02*
X111642870Y-133596142D01*
X111642870Y-133596142D02*
X111785727Y-133596142D01*
X111785727Y-133596142D02*
X111976203Y-133548523D01*
X111976203Y-133548523D02*
X112071441Y-133500904D01*
X112071441Y-133500904D02*
X112166680Y-133405666D01*
X112166680Y-133405666D02*
X112214299Y-133262809D01*
X112214299Y-133262809D02*
X112214299Y-133024714D01*
X112214299Y-134548523D02*
X112214299Y-133977095D01*
X112214299Y-134262809D02*
X111214299Y-134262809D01*
X111214299Y-134262809D02*
X111357156Y-134167571D01*
X111357156Y-134167571D02*
X111452394Y-134072333D01*
X111452394Y-134072333D02*
X111500013Y-133977095D01*
X111214299Y-135405666D02*
X111214299Y-135215190D01*
X111214299Y-135215190D02*
X111261918Y-135119952D01*
X111261918Y-135119952D02*
X111309537Y-135072333D01*
X111309537Y-135072333D02*
X111452394Y-134977095D01*
X111452394Y-134977095D02*
X111642870Y-134929476D01*
X111642870Y-134929476D02*
X112023822Y-134929476D01*
X112023822Y-134929476D02*
X112119060Y-134977095D01*
X112119060Y-134977095D02*
X112166680Y-135024714D01*
X112166680Y-135024714D02*
X112214299Y-135119952D01*
X112214299Y-135119952D02*
X112214299Y-135310428D01*
X112214299Y-135310428D02*
X112166680Y-135405666D01*
X112166680Y-135405666D02*
X112119060Y-135453285D01*
X112119060Y-135453285D02*
X112023822Y-135500904D01*
X112023822Y-135500904D02*
X111785727Y-135500904D01*
X111785727Y-135500904D02*
X111690489Y-135453285D01*
X111690489Y-135453285D02*
X111642870Y-135405666D01*
X111642870Y-135405666D02*
X111595251Y-135310428D01*
X111595251Y-135310428D02*
X111595251Y-135119952D01*
X111595251Y-135119952D02*
X111642870Y-135024714D01*
X111642870Y-135024714D02*
X111690489Y-134977095D01*
X111690489Y-134977095D02*
X111785727Y-134929476D01*
X95069299Y-133024714D02*
X94069299Y-133024714D01*
X94069299Y-133024714D02*
X94069299Y-133262809D01*
X94069299Y-133262809D02*
X94116918Y-133405666D01*
X94116918Y-133405666D02*
X94212156Y-133500904D01*
X94212156Y-133500904D02*
X94307394Y-133548523D01*
X94307394Y-133548523D02*
X94497870Y-133596142D01*
X94497870Y-133596142D02*
X94640727Y-133596142D01*
X94640727Y-133596142D02*
X94831203Y-133548523D01*
X94831203Y-133548523D02*
X94926441Y-133500904D01*
X94926441Y-133500904D02*
X95021680Y-133405666D01*
X95021680Y-133405666D02*
X95069299Y-133262809D01*
X95069299Y-133262809D02*
X95069299Y-133024714D01*
X95069299Y-134548523D02*
X95069299Y-133977095D01*
X95069299Y-134262809D02*
X94069299Y-134262809D01*
X94069299Y-134262809D02*
X94212156Y-134167571D01*
X94212156Y-134167571D02*
X94307394Y-134072333D01*
X94307394Y-134072333D02*
X94355013Y-133977095D01*
X94069299Y-134881857D02*
X94069299Y-135548523D01*
X94069299Y-135548523D02*
X95069299Y-135119952D01*
X77924299Y-133024714D02*
X76924299Y-133024714D01*
X76924299Y-133024714D02*
X76924299Y-133262809D01*
X76924299Y-133262809D02*
X76971918Y-133405666D01*
X76971918Y-133405666D02*
X77067156Y-133500904D01*
X77067156Y-133500904D02*
X77162394Y-133548523D01*
X77162394Y-133548523D02*
X77352870Y-133596142D01*
X77352870Y-133596142D02*
X77495727Y-133596142D01*
X77495727Y-133596142D02*
X77686203Y-133548523D01*
X77686203Y-133548523D02*
X77781441Y-133500904D01*
X77781441Y-133500904D02*
X77876680Y-133405666D01*
X77876680Y-133405666D02*
X77924299Y-133262809D01*
X77924299Y-133262809D02*
X77924299Y-133024714D01*
X77924299Y-134548523D02*
X77924299Y-133977095D01*
X77924299Y-134262809D02*
X76924299Y-134262809D01*
X76924299Y-134262809D02*
X77067156Y-134167571D01*
X77067156Y-134167571D02*
X77162394Y-134072333D01*
X77162394Y-134072333D02*
X77210013Y-133977095D01*
X77352870Y-135119952D02*
X77305251Y-135024714D01*
X77305251Y-135024714D02*
X77257632Y-134977095D01*
X77257632Y-134977095D02*
X77162394Y-134929476D01*
X77162394Y-134929476D02*
X77114775Y-134929476D01*
X77114775Y-134929476D02*
X77019537Y-134977095D01*
X77019537Y-134977095D02*
X76971918Y-135024714D01*
X76971918Y-135024714D02*
X76924299Y-135119952D01*
X76924299Y-135119952D02*
X76924299Y-135310428D01*
X76924299Y-135310428D02*
X76971918Y-135405666D01*
X76971918Y-135405666D02*
X77019537Y-135453285D01*
X77019537Y-135453285D02*
X77114775Y-135500904D01*
X77114775Y-135500904D02*
X77162394Y-135500904D01*
X77162394Y-135500904D02*
X77257632Y-135453285D01*
X77257632Y-135453285D02*
X77305251Y-135405666D01*
X77305251Y-135405666D02*
X77352870Y-135310428D01*
X77352870Y-135310428D02*
X77352870Y-135119952D01*
X77352870Y-135119952D02*
X77400489Y-135024714D01*
X77400489Y-135024714D02*
X77448108Y-134977095D01*
X77448108Y-134977095D02*
X77543346Y-134929476D01*
X77543346Y-134929476D02*
X77733822Y-134929476D01*
X77733822Y-134929476D02*
X77829060Y-134977095D01*
X77829060Y-134977095D02*
X77876680Y-135024714D01*
X77876680Y-135024714D02*
X77924299Y-135119952D01*
X77924299Y-135119952D02*
X77924299Y-135310428D01*
X77924299Y-135310428D02*
X77876680Y-135405666D01*
X77876680Y-135405666D02*
X77829060Y-135453285D01*
X77829060Y-135453285D02*
X77733822Y-135500904D01*
X77733822Y-135500904D02*
X77543346Y-135500904D01*
X77543346Y-135500904D02*
X77448108Y-135453285D01*
X77448108Y-135453285D02*
X77400489Y-135405666D01*
X77400489Y-135405666D02*
X77352870Y-135310428D01*
X78073238Y-78273537D02*
X78168476Y-78225918D01*
X78168476Y-78225918D02*
X78263714Y-78130680D01*
X78263714Y-78130680D02*
X78406571Y-77987822D01*
X78406571Y-77987822D02*
X78501809Y-77940203D01*
X78501809Y-77940203D02*
X78597047Y-77940203D01*
X78549428Y-78178299D02*
X78644666Y-78130680D01*
X78644666Y-78130680D02*
X78739904Y-78035441D01*
X78739904Y-78035441D02*
X78787523Y-77844965D01*
X78787523Y-77844965D02*
X78787523Y-77511632D01*
X78787523Y-77511632D02*
X78739904Y-77321156D01*
X78739904Y-77321156D02*
X78644666Y-77225918D01*
X78644666Y-77225918D02*
X78549428Y-77178299D01*
X78549428Y-77178299D02*
X78358952Y-77178299D01*
X78358952Y-77178299D02*
X78263714Y-77225918D01*
X78263714Y-77225918D02*
X78168476Y-77321156D01*
X78168476Y-77321156D02*
X78120857Y-77511632D01*
X78120857Y-77511632D02*
X78120857Y-77844965D01*
X78120857Y-77844965D02*
X78168476Y-78035441D01*
X78168476Y-78035441D02*
X78263714Y-78130680D01*
X78263714Y-78130680D02*
X78358952Y-78178299D01*
X78358952Y-78178299D02*
X78549428Y-78178299D01*
X77168476Y-78178299D02*
X77739904Y-78178299D01*
X77454190Y-78178299D02*
X77454190Y-77178299D01*
X77454190Y-77178299D02*
X77549428Y-77321156D01*
X77549428Y-77321156D02*
X77644666Y-77416394D01*
X77644666Y-77416394D02*
X77739904Y-77464013D01*
X85671299Y-100322142D02*
X85195108Y-99988809D01*
X85671299Y-99750714D02*
X84671299Y-99750714D01*
X84671299Y-99750714D02*
X84671299Y-100131666D01*
X84671299Y-100131666D02*
X84718918Y-100226904D01*
X84718918Y-100226904D02*
X84766537Y-100274523D01*
X84766537Y-100274523D02*
X84861775Y-100322142D01*
X84861775Y-100322142D02*
X85004632Y-100322142D01*
X85004632Y-100322142D02*
X85099870Y-100274523D01*
X85099870Y-100274523D02*
X85147489Y-100226904D01*
X85147489Y-100226904D02*
X85195108Y-100131666D01*
X85195108Y-100131666D02*
X85195108Y-99750714D01*
X85671299Y-101274523D02*
X85671299Y-100703095D01*
X85671299Y-100988809D02*
X84671299Y-100988809D01*
X84671299Y-100988809D02*
X84814156Y-100893571D01*
X84814156Y-100893571D02*
X84909394Y-100798333D01*
X84909394Y-100798333D02*
X84957013Y-100703095D01*
X84766537Y-101655476D02*
X84718918Y-101703095D01*
X84718918Y-101703095D02*
X84671299Y-101798333D01*
X84671299Y-101798333D02*
X84671299Y-102036428D01*
X84671299Y-102036428D02*
X84718918Y-102131666D01*
X84718918Y-102131666D02*
X84766537Y-102179285D01*
X84766537Y-102179285D02*
X84861775Y-102226904D01*
X84861775Y-102226904D02*
X84957013Y-102226904D01*
X84957013Y-102226904D02*
X85099870Y-102179285D01*
X85099870Y-102179285D02*
X85671299Y-101607857D01*
X85671299Y-101607857D02*
X85671299Y-102226904D01*
X43441857Y-91767299D02*
X43775190Y-91291108D01*
X44013285Y-91767299D02*
X44013285Y-90767299D01*
X44013285Y-90767299D02*
X43632333Y-90767299D01*
X43632333Y-90767299D02*
X43537095Y-90814918D01*
X43537095Y-90814918D02*
X43489476Y-90862537D01*
X43489476Y-90862537D02*
X43441857Y-90957775D01*
X43441857Y-90957775D02*
X43441857Y-91100632D01*
X43441857Y-91100632D02*
X43489476Y-91195870D01*
X43489476Y-91195870D02*
X43537095Y-91243489D01*
X43537095Y-91243489D02*
X43632333Y-91291108D01*
X43632333Y-91291108D02*
X44013285Y-91291108D01*
X43108523Y-90767299D02*
X42489476Y-90767299D01*
X42489476Y-90767299D02*
X42822809Y-91148251D01*
X42822809Y-91148251D02*
X42679952Y-91148251D01*
X42679952Y-91148251D02*
X42584714Y-91195870D01*
X42584714Y-91195870D02*
X42537095Y-91243489D01*
X42537095Y-91243489D02*
X42489476Y-91338727D01*
X42489476Y-91338727D02*
X42489476Y-91576822D01*
X42489476Y-91576822D02*
X42537095Y-91672060D01*
X42537095Y-91672060D02*
X42584714Y-91719680D01*
X42584714Y-91719680D02*
X42679952Y-91767299D01*
X42679952Y-91767299D02*
X42965666Y-91767299D01*
X42965666Y-91767299D02*
X43060904Y-91719680D01*
X43060904Y-91719680D02*
X43108523Y-91672060D01*
X42156142Y-90767299D02*
X41537095Y-90767299D01*
X41537095Y-90767299D02*
X41870428Y-91148251D01*
X41870428Y-91148251D02*
X41727571Y-91148251D01*
X41727571Y-91148251D02*
X41632333Y-91195870D01*
X41632333Y-91195870D02*
X41584714Y-91243489D01*
X41584714Y-91243489D02*
X41537095Y-91338727D01*
X41537095Y-91338727D02*
X41537095Y-91576822D01*
X41537095Y-91576822D02*
X41584714Y-91672060D01*
X41584714Y-91672060D02*
X41632333Y-91719680D01*
X41632333Y-91719680D02*
X41727571Y-91767299D01*
X41727571Y-91767299D02*
X42013285Y-91767299D01*
X42013285Y-91767299D02*
X42108523Y-91719680D01*
X42108523Y-91719680D02*
X42156142Y-91672060D01*
X56985299Y-107061095D02*
X57794822Y-107061095D01*
X57794822Y-107061095D02*
X57890060Y-107108714D01*
X57890060Y-107108714D02*
X57937680Y-107156333D01*
X57937680Y-107156333D02*
X57985299Y-107251571D01*
X57985299Y-107251571D02*
X57985299Y-107442047D01*
X57985299Y-107442047D02*
X57937680Y-107537285D01*
X57937680Y-107537285D02*
X57890060Y-107584904D01*
X57890060Y-107584904D02*
X57794822Y-107632523D01*
X57794822Y-107632523D02*
X56985299Y-107632523D01*
X57318632Y-108537285D02*
X57985299Y-108537285D01*
X56937680Y-108299190D02*
X57651965Y-108061095D01*
X57651965Y-108061095D02*
X57651965Y-108680142D01*
X95575285Y-145869299D02*
X95575285Y-144869299D01*
X95575285Y-144869299D02*
X95337190Y-144869299D01*
X95337190Y-144869299D02*
X95194333Y-144916918D01*
X95194333Y-144916918D02*
X95099095Y-145012156D01*
X95099095Y-145012156D02*
X95051476Y-145107394D01*
X95051476Y-145107394D02*
X95003857Y-145297870D01*
X95003857Y-145297870D02*
X95003857Y-145440727D01*
X95003857Y-145440727D02*
X95051476Y-145631203D01*
X95051476Y-145631203D02*
X95099095Y-145726441D01*
X95099095Y-145726441D02*
X95194333Y-145821680D01*
X95194333Y-145821680D02*
X95337190Y-145869299D01*
X95337190Y-145869299D02*
X95575285Y-145869299D01*
X94622904Y-144964537D02*
X94575285Y-144916918D01*
X94575285Y-144916918D02*
X94480047Y-144869299D01*
X94480047Y-144869299D02*
X94241952Y-144869299D01*
X94241952Y-144869299D02*
X94146714Y-144916918D01*
X94146714Y-144916918D02*
X94099095Y-144964537D01*
X94099095Y-144964537D02*
X94051476Y-145059775D01*
X94051476Y-145059775D02*
X94051476Y-145155013D01*
X94051476Y-145155013D02*
X94099095Y-145297870D01*
X94099095Y-145297870D02*
X94670523Y-145869299D01*
X94670523Y-145869299D02*
X94051476Y-145869299D01*
X93099095Y-145869299D02*
X93670523Y-145869299D01*
X93384809Y-145869299D02*
X93384809Y-144869299D01*
X93384809Y-144869299D02*
X93480047Y-145012156D01*
X93480047Y-145012156D02*
X93575285Y-145107394D01*
X93575285Y-145107394D02*
X93670523Y-145155013D01*
X64716299Y-72032905D02*
X63716299Y-72032905D01*
X63716299Y-72032905D02*
X63716299Y-72271000D01*
X63716299Y-72271000D02*
X63763918Y-72413857D01*
X63763918Y-72413857D02*
X63859156Y-72509095D01*
X63859156Y-72509095D02*
X63954394Y-72556714D01*
X63954394Y-72556714D02*
X64144870Y-72604333D01*
X64144870Y-72604333D02*
X64287727Y-72604333D01*
X64287727Y-72604333D02*
X64478203Y-72556714D01*
X64478203Y-72556714D02*
X64573441Y-72509095D01*
X64573441Y-72509095D02*
X64668680Y-72413857D01*
X64668680Y-72413857D02*
X64716299Y-72271000D01*
X64716299Y-72271000D02*
X64716299Y-72032905D01*
X64144870Y-73175762D02*
X64097251Y-73080524D01*
X64097251Y-73080524D02*
X64049632Y-73032905D01*
X64049632Y-73032905D02*
X63954394Y-72985286D01*
X63954394Y-72985286D02*
X63906775Y-72985286D01*
X63906775Y-72985286D02*
X63811537Y-73032905D01*
X63811537Y-73032905D02*
X63763918Y-73080524D01*
X63763918Y-73080524D02*
X63716299Y-73175762D01*
X63716299Y-73175762D02*
X63716299Y-73366238D01*
X63716299Y-73366238D02*
X63763918Y-73461476D01*
X63763918Y-73461476D02*
X63811537Y-73509095D01*
X63811537Y-73509095D02*
X63906775Y-73556714D01*
X63906775Y-73556714D02*
X63954394Y-73556714D01*
X63954394Y-73556714D02*
X64049632Y-73509095D01*
X64049632Y-73509095D02*
X64097251Y-73461476D01*
X64097251Y-73461476D02*
X64144870Y-73366238D01*
X64144870Y-73366238D02*
X64144870Y-73175762D01*
X64144870Y-73175762D02*
X64192489Y-73080524D01*
X64192489Y-73080524D02*
X64240108Y-73032905D01*
X64240108Y-73032905D02*
X64335346Y-72985286D01*
X64335346Y-72985286D02*
X64525822Y-72985286D01*
X64525822Y-72985286D02*
X64621060Y-73032905D01*
X64621060Y-73032905D02*
X64668680Y-73080524D01*
X64668680Y-73080524D02*
X64716299Y-73175762D01*
X64716299Y-73175762D02*
X64716299Y-73366238D01*
X64716299Y-73366238D02*
X64668680Y-73461476D01*
X64668680Y-73461476D02*
X64621060Y-73509095D01*
X64621060Y-73509095D02*
X64525822Y-73556714D01*
X64525822Y-73556714D02*
X64335346Y-73556714D01*
X64335346Y-73556714D02*
X64240108Y-73509095D01*
X64240108Y-73509095D02*
X64192489Y-73461476D01*
X64192489Y-73461476D02*
X64144870Y-73366238D01*
X42933857Y-120501060D02*
X42981476Y-120548680D01*
X42981476Y-120548680D02*
X43124333Y-120596299D01*
X43124333Y-120596299D02*
X43219571Y-120596299D01*
X43219571Y-120596299D02*
X43362428Y-120548680D01*
X43362428Y-120548680D02*
X43457666Y-120453441D01*
X43457666Y-120453441D02*
X43505285Y-120358203D01*
X43505285Y-120358203D02*
X43552904Y-120167727D01*
X43552904Y-120167727D02*
X43552904Y-120024870D01*
X43552904Y-120024870D02*
X43505285Y-119834394D01*
X43505285Y-119834394D02*
X43457666Y-119739156D01*
X43457666Y-119739156D02*
X43362428Y-119643918D01*
X43362428Y-119643918D02*
X43219571Y-119596299D01*
X43219571Y-119596299D02*
X43124333Y-119596299D01*
X43124333Y-119596299D02*
X42981476Y-119643918D01*
X42981476Y-119643918D02*
X42933857Y-119691537D01*
X42552904Y-119691537D02*
X42505285Y-119643918D01*
X42505285Y-119643918D02*
X42410047Y-119596299D01*
X42410047Y-119596299D02*
X42171952Y-119596299D01*
X42171952Y-119596299D02*
X42076714Y-119643918D01*
X42076714Y-119643918D02*
X42029095Y-119691537D01*
X42029095Y-119691537D02*
X41981476Y-119786775D01*
X41981476Y-119786775D02*
X41981476Y-119882013D01*
X41981476Y-119882013D02*
X42029095Y-120024870D01*
X42029095Y-120024870D02*
X42600523Y-120596299D01*
X42600523Y-120596299D02*
X41981476Y-120596299D01*
X41029095Y-120596299D02*
X41600523Y-120596299D01*
X41314809Y-120596299D02*
X41314809Y-119596299D01*
X41314809Y-119596299D02*
X41410047Y-119739156D01*
X41410047Y-119739156D02*
X41505285Y-119834394D01*
X41505285Y-119834394D02*
X41600523Y-119882013D01*
D10*
X45250100Y-119634000D02*
X51943000Y-119634000D01*
X45250100Y-116586000D02*
X45250100Y-119634000D01*
X45250100Y-116586000D02*
X51943000Y-116586000D01*
X131572000Y-141795500D02*
X131572000Y-142113000D01*
X131572000Y-141097000D02*
X131572000Y-141795500D01*
X128778000Y-141097000D02*
X128778000Y-142113000D01*
D12*
X131826000Y-142367000D02*
G75*
G03*
X131826000Y-142367000I-63500J0D01*
G01*
X131889500Y-142367000D02*
G75*
G03*
X131889500Y-142367000I-127000J0D01*
G01*
X131953000Y-142367000D02*
G75*
G03*
X131953000Y-142367000I-190500J0D01*
G01*
D10*
X78549500Y-110617000D02*
X78232000Y-110617000D01*
X79248000Y-110617000D02*
X78549500Y-110617000D01*
X79248000Y-107823000D02*
X78232000Y-107823000D01*
D12*
X78041500Y-110807500D02*
G75*
G03*
X78041500Y-110807500I-63500J0D01*
G01*
X78105000Y-110807500D02*
G75*
G03*
X78105000Y-110807500I-127000J0D01*
G01*
X78168500Y-110807500D02*
G75*
G03*
X78168500Y-110807500I-190500J0D01*
G01*
D10*
X80391000Y-74270000D02*
X80391000Y-70510000D01*
X78359000Y-74270000D02*
X80391000Y-74270000D01*
X78359000Y-74270000D02*
X78359000Y-70510000D01*
X78359000Y-70510000D02*
X80391000Y-70510000D01*
X77851000Y-74270000D02*
X77851000Y-70510000D01*
X75819000Y-74270000D02*
X77851000Y-74270000D01*
X75819000Y-74270000D02*
X75819000Y-70510000D01*
X75819000Y-70510000D02*
X77851000Y-70510000D01*
X83795000Y-106299000D02*
X80035000Y-106299000D01*
X83795000Y-108331000D02*
X83795000Y-106299000D01*
X83795000Y-108331000D02*
X80035000Y-108331000D01*
X80035000Y-108331000D02*
X80035000Y-106299000D01*
X83795000Y-103759000D02*
X80035000Y-103759000D01*
X83795000Y-105791000D02*
X83795000Y-103759000D01*
X83795000Y-105791000D02*
X80035000Y-105791000D01*
X80035000Y-105791000D02*
X80035000Y-103759000D01*
X98044000Y-116230000D02*
X98044000Y-119990000D01*
X100076000Y-116230000D02*
X98044000Y-116230000D01*
X100076000Y-116230000D02*
X100076000Y-119990000D01*
X100076000Y-119990000D02*
X98044000Y-119990000D01*
X94869000Y-116230000D02*
X94869000Y-119990000D01*
X96901000Y-116230000D02*
X94869000Y-116230000D01*
X96901000Y-116230000D02*
X96901000Y-119990000D01*
X96901000Y-119990000D02*
X94869000Y-119990000D01*
X47879000Y-99085000D02*
X47879000Y-102845000D01*
X49911000Y-99085000D02*
X47879000Y-99085000D01*
X49911000Y-99085000D02*
X49911000Y-102845000D01*
X49911000Y-102845000D02*
X47879000Y-102845000D01*
X48514000Y-104800000D02*
X48514000Y-108560000D01*
X50546000Y-104800000D02*
X48514000Y-104800000D01*
X50546000Y-104800000D02*
X50546000Y-108560000D01*
X50546000Y-108560000D02*
X48514000Y-108560000D01*
X53086000Y-102845000D02*
X53086000Y-99085000D01*
X51054000Y-102845000D02*
X53086000Y-102845000D01*
X51054000Y-102845000D02*
X51054000Y-99085000D01*
X51054000Y-99085000D02*
X53086000Y-99085000D01*
X69596000Y-74270000D02*
X69596000Y-70510000D01*
X67564000Y-74270000D02*
X69596000Y-74270000D01*
X67564000Y-74270000D02*
X67564000Y-70510000D01*
X67564000Y-70510000D02*
X69596000Y-70510000D01*
X65380000Y-77724000D02*
X61620000Y-77724000D01*
X65380000Y-79756000D02*
X65380000Y-77724000D01*
X65380000Y-79756000D02*
X61620000Y-79756000D01*
X61620000Y-79756000D02*
X61620000Y-77724000D01*
X57175000Y-73406000D02*
X60935000Y-73406000D01*
X57175000Y-71374000D02*
X57175000Y-73406000D01*
X57175000Y-71374000D02*
X60935000Y-71374000D01*
X60935000Y-71374000D02*
X60935000Y-73406000D01*
X50775000Y-74549000D02*
X47015000Y-74549000D01*
X50775000Y-76581000D02*
X50775000Y-74549000D01*
X50775000Y-76581000D02*
X47015000Y-76581000D01*
X47015000Y-76581000D02*
X47015000Y-74549000D01*
X72136000Y-74270000D02*
X72136000Y-70510000D01*
X70104000Y-74270000D02*
X72136000Y-74270000D01*
X70104000Y-74270000D02*
X70104000Y-70510000D01*
X70104000Y-70510000D02*
X72136000Y-70510000D01*
X132740000Y-79121000D02*
X136500000Y-79121000D01*
X132740000Y-77089000D02*
X132740000Y-79121000D01*
X132740000Y-77089000D02*
X136500000Y-77089000D01*
X136500000Y-77089000D02*
X136500000Y-79121000D01*
X132740000Y-76581000D02*
X136500000Y-76581000D01*
X132740000Y-74549000D02*
X132740000Y-76581000D01*
X132740000Y-74549000D02*
X136500000Y-74549000D01*
X136500000Y-74549000D02*
X136500000Y-76581000D01*
X132740000Y-84201000D02*
X136500000Y-84201000D01*
X132740000Y-82169000D02*
X132740000Y-84201000D01*
X132740000Y-82169000D02*
X136500000Y-82169000D01*
X136500000Y-82169000D02*
X136500000Y-84201000D01*
X108204000Y-135915000D02*
X108204000Y-139675000D01*
X110236000Y-135915000D02*
X108204000Y-135915000D01*
X110236000Y-135915000D02*
X110236000Y-139675000D01*
X110236000Y-139675000D02*
X108204000Y-139675000D01*
X91059000Y-135915000D02*
X91059000Y-139675000D01*
X93091000Y-135915000D02*
X91059000Y-135915000D01*
X93091000Y-135915000D02*
X93091000Y-139675000D01*
X93091000Y-139675000D02*
X91059000Y-139675000D01*
X73914000Y-135915000D02*
X73914000Y-139675000D01*
X75946000Y-135915000D02*
X73914000Y-135915000D01*
X75946000Y-135915000D02*
X75946000Y-139675000D01*
X75946000Y-139675000D02*
X73914000Y-139675000D01*
X40665000Y-96901000D02*
X44425000Y-96901000D01*
X40665000Y-94869000D02*
X40665000Y-96901000D01*
X40665000Y-94869000D02*
X44425000Y-94869000D01*
X44425000Y-94869000D02*
X44425000Y-96901000D01*
X103124000Y-110515000D02*
X103124000Y-114275000D01*
X105156000Y-110515000D02*
X103124000Y-110515000D01*
X105156000Y-110515000D02*
X105156000Y-114275000D01*
X105156000Y-114275000D02*
X103124000Y-114275000D01*
X82931000Y-74270000D02*
X82931000Y-70510000D01*
X80899000Y-74270000D02*
X82931000Y-74270000D01*
X80899000Y-74270000D02*
X80899000Y-70510000D01*
X80899000Y-70510000D02*
X82931000Y-70510000D01*
X84709000Y-70510000D02*
X84709000Y-74270000D01*
X86741000Y-70510000D02*
X84709000Y-70510000D01*
X86741000Y-70510000D02*
X86741000Y-74270000D01*
X86741000Y-74270000D02*
X84709000Y-74270000D01*
X86335000Y-113284000D02*
X82575000Y-113284000D01*
X86335000Y-115316000D02*
X86335000Y-113284000D01*
X86335000Y-115316000D02*
X82575000Y-115316000D01*
X82575000Y-115316000D02*
X82575000Y-113284000D01*
X85065000Y-110109000D02*
X81305000Y-110109000D01*
X85065000Y-112141000D02*
X85065000Y-110109000D01*
X85065000Y-112141000D02*
X81305000Y-112141000D01*
X81305000Y-112141000D02*
X81305000Y-110109000D01*
X88240000Y-106299000D02*
X84480000Y-106299000D01*
X88240000Y-108331000D02*
X88240000Y-106299000D01*
X88240000Y-108331000D02*
X84480000Y-108331000D01*
X84480000Y-108331000D02*
X84480000Y-106299000D01*
X88240000Y-103759000D02*
X84480000Y-103759000D01*
X88240000Y-105791000D02*
X88240000Y-103759000D01*
X88240000Y-105791000D02*
X84480000Y-105791000D01*
X84480000Y-105791000D02*
X84480000Y-103759000D01*
X103124000Y-106070000D02*
X103124000Y-109830000D01*
X105156000Y-106070000D02*
X103124000Y-106070000D01*
X105156000Y-106070000D02*
X105156000Y-109830000D01*
X105156000Y-109830000D02*
X103124000Y-109830000D01*
X82296000Y-117450000D02*
X82296000Y-113690000D01*
X80264000Y-117450000D02*
X82296000Y-117450000D01*
X80264000Y-117450000D02*
X80264000Y-113690000D01*
X80264000Y-113690000D02*
X82296000Y-113690000D01*
X98044000Y-99085000D02*
X98044000Y-102845000D01*
X100076000Y-99085000D02*
X98044000Y-99085000D01*
X100076000Y-99085000D02*
X100076000Y-102845000D01*
X100076000Y-102845000D02*
X98044000Y-102845000D01*
X95504000Y-99085000D02*
X95504000Y-102845000D01*
X97536000Y-99085000D02*
X95504000Y-99085000D01*
X97536000Y-99085000D02*
X97536000Y-102845000D01*
X97536000Y-102845000D02*
X95504000Y-102845000D01*
X92964000Y-99085000D02*
X92964000Y-102845000D01*
X94996000Y-99085000D02*
X92964000Y-99085000D01*
X94996000Y-99085000D02*
X94996000Y-102845000D01*
X94996000Y-102845000D02*
X92964000Y-102845000D01*
X90424000Y-99085000D02*
X90424000Y-102845000D01*
X92456000Y-99085000D02*
X90424000Y-99085000D01*
X92456000Y-99085000D02*
X92456000Y-102845000D01*
X92456000Y-102845000D02*
X90424000Y-102845000D01*
X89510000Y-110109000D02*
X85750000Y-110109000D01*
X89510000Y-112141000D02*
X89510000Y-110109000D01*
X89510000Y-112141000D02*
X85750000Y-112141000D01*
X85750000Y-112141000D02*
X85750000Y-110109000D01*
X60071000Y-102845000D02*
X60071000Y-99085000D01*
X58039000Y-102845000D02*
X60071000Y-102845000D01*
X58039000Y-102845000D02*
X58039000Y-99085000D01*
X58039000Y-99085000D02*
X60071000Y-99085000D01*
X56896000Y-102845000D02*
X56896000Y-99085000D01*
X54864000Y-102845000D02*
X56896000Y-102845000D01*
X54864000Y-102845000D02*
X54864000Y-99085000D01*
X54864000Y-99085000D02*
X56896000Y-99085000D01*
X55220000Y-95504000D02*
X51460000Y-95504000D01*
X55220000Y-97536000D02*
X55220000Y-95504000D01*
X55220000Y-97536000D02*
X51460000Y-97536000D01*
X51460000Y-97536000D02*
X51460000Y-95504000D01*
X68199000Y-74955000D02*
X68199000Y-78715000D01*
X70231000Y-74955000D02*
X68199000Y-74955000D01*
X70231000Y-74955000D02*
X70231000Y-78715000D01*
X70231000Y-78715000D02*
X68199000Y-78715000D01*
X67691000Y-78715000D02*
X67691000Y-74955000D01*
X65659000Y-78715000D02*
X67691000Y-78715000D01*
X65659000Y-78715000D02*
X65659000Y-74955000D01*
X65659000Y-74955000D02*
X67691000Y-74955000D01*
X61341000Y-81890000D02*
X61341000Y-78130000D01*
X59309000Y-81890000D02*
X61341000Y-81890000D01*
X59309000Y-81890000D02*
X59309000Y-78130000D01*
X59309000Y-78130000D02*
X61341000Y-78130000D01*
X55855000Y-74549000D02*
X52095000Y-74549000D01*
X55855000Y-76581000D02*
X55855000Y-74549000D01*
X55855000Y-76581000D02*
X52095000Y-76581000D01*
X52095000Y-76581000D02*
X52095000Y-74549000D01*
X63246000Y-73635000D02*
X63246000Y-69875000D01*
X61214000Y-73635000D02*
X63246000Y-73635000D01*
X61214000Y-73635000D02*
X61214000Y-69875000D01*
X61214000Y-69875000D02*
X63246000Y-69875000D01*
X67056000Y-74270000D02*
X67056000Y-70510000D01*
X65024000Y-74270000D02*
X67056000Y-74270000D01*
X65024000Y-74270000D02*
X65024000Y-70510000D01*
X65024000Y-70510000D02*
X67056000Y-70510000D01*
X132740000Y-81661000D02*
X136500000Y-81661000D01*
X132740000Y-79629000D02*
X132740000Y-81661000D01*
X132740000Y-79629000D02*
X136500000Y-79629000D01*
X136500000Y-79629000D02*
X136500000Y-81661000D01*
X106020000Y-143129000D02*
X102260000Y-143129000D01*
X106020000Y-145161000D02*
X106020000Y-143129000D01*
X106020000Y-145161000D02*
X102260000Y-145161000D01*
X102260000Y-145161000D02*
X102260000Y-143129000D01*
X54864000Y-112420000D02*
X54864000Y-116180000D01*
X56896000Y-112420000D02*
X54864000Y-112420000D01*
X56896000Y-112420000D02*
X56896000Y-116180000D01*
X56896000Y-116180000D02*
X54864000Y-116180000D01*
X48006000Y-113005000D02*
X48006000Y-109245000D01*
X45974000Y-113005000D02*
X48006000Y-113005000D01*
X45974000Y-113005000D02*
X45974000Y-109245000D01*
X45974000Y-109245000D02*
X48006000Y-109245000D01*
X50546000Y-113005000D02*
X50546000Y-109245000D01*
X48514000Y-113005000D02*
X50546000Y-113005000D01*
X48514000Y-113005000D02*
X48514000Y-109245000D01*
X48514000Y-109245000D02*
X50546000Y-109245000D01*
X48006000Y-135230000D02*
X48006000Y-131470000D01*
X45974000Y-135230000D02*
X48006000Y-135230000D01*
X45974000Y-135230000D02*
X45974000Y-131470000D01*
X45974000Y-131470000D02*
X48006000Y-131470000D01*
X52324000Y-112420000D02*
X52324000Y-116180000D01*
X54356000Y-112420000D02*
X52324000Y-112420000D01*
X54356000Y-112420000D02*
X54356000Y-116180000D01*
X54356000Y-116180000D02*
X52324000Y-116180000D01*
D11*
X60071000Y-75311000D02*
X60071000Y-75819000D01*
X58295000Y-77216000D02*
X59755000Y-77216000D01*
X58295000Y-73914000D02*
X58295000Y-74803000D01*
X58293000Y-77216000D02*
X58293000Y-76327000D01*
X58293000Y-73914000D02*
X59817000Y-73914000D01*
X72810000Y-74358500D02*
X72810000Y-71340000D01*
X74510000Y-74358500D02*
X72810000Y-74358500D01*
X74510000Y-74358500D02*
X74510000Y-71340000D01*
X112610000Y-135826500D02*
X112610000Y-138845000D01*
X110910000Y-135826500D02*
X112610000Y-135826500D01*
X110910000Y-135826500D02*
X110910000Y-138845000D01*
X95465000Y-135826500D02*
X95465000Y-138845000D01*
X93765000Y-135826500D02*
X95465000Y-135826500D01*
X93765000Y-135826500D02*
X93765000Y-138845000D01*
X78320000Y-135826500D02*
X78320000Y-138845000D01*
X76620000Y-135826500D02*
X78320000Y-135826500D01*
X76620000Y-135826500D02*
X76620000Y-138845000D01*
X81026000Y-75946000D02*
X81026000Y-76454000D01*
X79250000Y-77851000D02*
X80710000Y-77851000D01*
X79250000Y-74549000D02*
X79250000Y-75438000D01*
X79248000Y-77851000D02*
X79248000Y-76962000D01*
X79248000Y-74549000D02*
X80772000Y-74549000D01*
X82005000Y-103165000D02*
X84365000Y-103165000D01*
X84365000Y-103165000D02*
X84365000Y-98765000D01*
X82005000Y-98765000D02*
X82005000Y-103165000D01*
X84365000Y-98765000D02*
X82005000Y-98765000D01*
X44745000Y-94525000D02*
X44745000Y-92165000D01*
X44745000Y-92165000D02*
X40345000Y-92165000D01*
X40345000Y-94525000D02*
X44745000Y-94525000D01*
X40345000Y-92165000D02*
X40345000Y-94525000D01*
X56585000Y-110023000D02*
X56585000Y-105623000D01*
X51365000Y-110023000D02*
X51365000Y-104223000D01*
D12*
X51181000Y-104965500D02*
G75*
G03*
X51181000Y-104965500I-190500J0D01*
G01*
X51117500Y-104965500D02*
G75*
G03*
X51117500Y-104965500I-127000J0D01*
G01*
X51054000Y-104965500D02*
G75*
G03*
X51054000Y-104965500I-63500J0D01*
G01*
D11*
X101600000Y-143335000D02*
X97070000Y-143335000D01*
X101050000Y-147495000D02*
X97070000Y-147495000D01*
X101050000Y-147383500D02*
X101050000Y-147495000D01*
X97070000Y-147383500D02*
X97070000Y-147495000D01*
X97070000Y-143335000D02*
X97070000Y-143446500D01*
D12*
X101600000Y-142860010D02*
G75*
G03*
X101600000Y-142860010I-254000J0D01*
G01*
X101409500Y-142860010D02*
G75*
G03*
X101409500Y-142860010I-63500J0D01*
G01*
X101487990Y-142860010D02*
G75*
G03*
X101487990Y-142860010I-141990J0D01*
G01*
D11*
X62484000Y-75819000D02*
X62484000Y-75311000D01*
X64260000Y-73914000D02*
X62800000Y-73914000D01*
X64260000Y-77216000D02*
X64260000Y-76327000D01*
X64262000Y-73914000D02*
X64262000Y-74803000D01*
X64262000Y-77216000D02*
X62738000Y-77216000D01*
X40345000Y-116930000D02*
X40345000Y-119290000D01*
X40345000Y-119290000D02*
X44745000Y-119290000D01*
X44745000Y-116930000D02*
X40345000Y-116930000D01*
X44745000Y-119290000D02*
X44745000Y-116930000D01*
D13*
X53341000Y-151765000D03*
X41909000Y-151765000D03*
%LPC*%
D14*
X46780000Y-118110000D03*
X52280000Y-118110000D03*
D15*
X90170000Y-155575000D03*
D16*
X91440000Y-155575000D03*
X92710000Y-155575000D03*
D17*
X131175000Y-142145000D03*
X130675000Y-142145000D03*
X130175000Y-142145000D03*
X129675000Y-142145000D03*
X129175000Y-142145000D03*
X129175000Y-141065000D03*
X129675000Y-141065000D03*
X130175000Y-141065000D03*
X130675000Y-141065000D03*
X131175000Y-141065000D03*
D18*
X78200000Y-110220000D03*
X78200000Y-109720000D03*
X78200000Y-109220000D03*
X78200000Y-108720000D03*
X78200000Y-108220000D03*
X79280000Y-108220000D03*
X79280000Y-108720000D03*
X79280000Y-109220000D03*
X79280000Y-109720000D03*
X79280000Y-110220000D03*
D19*
X108585000Y-133270000D03*
X108585000Y-142320000D03*
D20*
X114885000Y-140345000D03*
X102285000Y-140345000D03*
X114885000Y-135245000D03*
X102285000Y-135245000D03*
D21*
X108585000Y-144745000D03*
D19*
X91500000Y-133270000D03*
X91500000Y-142320000D03*
D20*
X97800000Y-140345000D03*
X85200000Y-140345000D03*
X97800000Y-135245000D03*
X85200000Y-135245000D03*
D21*
X91500000Y-144745000D03*
D19*
X74295000Y-133270000D03*
X74295000Y-142320000D03*
D20*
X80595000Y-140345000D03*
X67995000Y-140345000D03*
X80595000Y-135245000D03*
X67995000Y-135245000D03*
D21*
X74295000Y-144745000D03*
D22*
X127635000Y-145415000D03*
D23*
X127635000Y-147955000D03*
X130175000Y-145415000D03*
X130175000Y-147955000D03*
X132715000Y-145415000D03*
X132715000Y-147955000D03*
D24*
X123515000Y-118745000D03*
D25*
X123515000Y-116205000D03*
X123515000Y-113665000D03*
X123515000Y-111125000D03*
X123515000Y-108585000D03*
X123515000Y-106045000D03*
X123515000Y-103505000D03*
X123515000Y-100965000D03*
X123515000Y-98425000D03*
D26*
X79375000Y-73360000D03*
X79375000Y-71420000D03*
X76835000Y-73360000D03*
X76835000Y-71420000D03*
D27*
X82885000Y-107315000D03*
X80945000Y-107315000D03*
X82885000Y-104775000D03*
X80945000Y-104775000D03*
D28*
X99060000Y-117140000D03*
X99060000Y-119080000D03*
X95885000Y-117140000D03*
X95885000Y-119080000D03*
X48895000Y-99995000D03*
X48895000Y-101935000D03*
X49530000Y-105710000D03*
X49530000Y-107650000D03*
D26*
X52070000Y-101935000D03*
X52070000Y-99995000D03*
X68580000Y-73360000D03*
X68580000Y-71420000D03*
D27*
X64470000Y-78740000D03*
X62530000Y-78740000D03*
D29*
X58085000Y-72390000D03*
X60025000Y-72390000D03*
D27*
X49865000Y-75565000D03*
X47925000Y-75565000D03*
D26*
X71120000Y-73360000D03*
X71120000Y-71420000D03*
D29*
X133650000Y-78105000D03*
X135590000Y-78105000D03*
X133650000Y-75565000D03*
X135590000Y-75565000D03*
X133650000Y-83185000D03*
X135590000Y-83185000D03*
D28*
X109220000Y-136825000D03*
X109220000Y-138765000D03*
X92075000Y-136825000D03*
X92075000Y-138765000D03*
X74930000Y-136825000D03*
X74930000Y-138765000D03*
D29*
X41575000Y-95885000D03*
X43515000Y-95885000D03*
D28*
X104140000Y-111425000D03*
X104140000Y-113365000D03*
D26*
X81915000Y-73360000D03*
X81915000Y-71420000D03*
D28*
X85725000Y-71420000D03*
X85725000Y-73360000D03*
D27*
X85425000Y-114300000D03*
X83485000Y-114300000D03*
X84155000Y-111125000D03*
X82215000Y-111125000D03*
X87330000Y-107315000D03*
X85390000Y-107315000D03*
X87330000Y-104775000D03*
X85390000Y-104775000D03*
D28*
X104140000Y-106980000D03*
X104140000Y-108920000D03*
D26*
X81280000Y-116540000D03*
X81280000Y-114600000D03*
D28*
X99060000Y-99995000D03*
X99060000Y-101935000D03*
X96520000Y-99995000D03*
X96520000Y-101935000D03*
X93980000Y-99995000D03*
X93980000Y-101935000D03*
X91440000Y-99995000D03*
X91440000Y-101935000D03*
D27*
X88600000Y-111125000D03*
X86660000Y-111125000D03*
D26*
X59055000Y-101935000D03*
X59055000Y-99995000D03*
X55880000Y-101935000D03*
X55880000Y-99995000D03*
D27*
X54310000Y-96520000D03*
X52370000Y-96520000D03*
D28*
X69215000Y-75865000D03*
X69215000Y-77805000D03*
D26*
X66675000Y-77805000D03*
X66675000Y-75865000D03*
X60325000Y-80980000D03*
X60325000Y-79040000D03*
D27*
X54945000Y-75565000D03*
X53005000Y-75565000D03*
D26*
X62230000Y-72725000D03*
X62230000Y-70785000D03*
X66040000Y-73360000D03*
X66040000Y-71420000D03*
D29*
X133650000Y-80645000D03*
X135590000Y-80645000D03*
D27*
X105110000Y-144145000D03*
X103170000Y-144145000D03*
D28*
X55880000Y-113330000D03*
X55880000Y-115270000D03*
D26*
X46990000Y-112095000D03*
X46990000Y-110155000D03*
X49530000Y-112095000D03*
X49530000Y-110155000D03*
X46990000Y-134320000D03*
X46990000Y-132380000D03*
D28*
X53340000Y-113330000D03*
X53340000Y-115270000D03*
D30*
X141605000Y-155575000D03*
X141605000Y-110490000D03*
X83185000Y-123825000D03*
X105410000Y-85725000D03*
X41275000Y-80010000D03*
X64135000Y-99695000D03*
D13*
X61000000Y-125720000D03*
X61000000Y-91720000D03*
D30*
X83185000Y-146050000D03*
D31*
X52071000Y-142875000D03*
X50801000Y-145415000D03*
X49531000Y-142875000D03*
X48261000Y-145415000D03*
X46991000Y-142875000D03*
X45721000Y-145415000D03*
X44451000Y-142875000D03*
X43181000Y-145415000D03*
D32*
X53341000Y-151765000D03*
X41909000Y-151765000D03*
D30*
X41910000Y-134620000D03*
X120015000Y-142240000D03*
X59055000Y-155575000D03*
D33*
X60055000Y-74615000D03*
X60055000Y-76515000D03*
X57855000Y-75565000D03*
D34*
X73660000Y-73660000D03*
X73660000Y-71120000D03*
D35*
X111760000Y-136525000D03*
X111760000Y-139065000D03*
X94615000Y-136525000D03*
X94615000Y-139065000D03*
X77470000Y-136525000D03*
X77470000Y-139065000D03*
D33*
X81010000Y-75250000D03*
X81010000Y-77150000D03*
X78810000Y-76200000D03*
D36*
X83185000Y-102235000D03*
X83185000Y-99695000D03*
D37*
X43815000Y-93345000D03*
X41275000Y-93345000D03*
D38*
X52025000Y-104960500D03*
X52675000Y-104960500D03*
X53325000Y-104960500D03*
X53975000Y-104960500D03*
X54625000Y-104960500D03*
X55275000Y-104960500D03*
D39*
X55925000Y-104960500D03*
D38*
X55925000Y-110685500D03*
X55275000Y-110685500D03*
X54625000Y-110685500D03*
X53975000Y-110685500D03*
X53325000Y-110685500D03*
X52675000Y-110685500D03*
X52025000Y-110685500D03*
D40*
X100787200Y-144145000D03*
X100787200Y-145415000D03*
X100787200Y-146685000D03*
X97332800Y-146685000D03*
X97332800Y-145415000D03*
X97332800Y-144145000D03*
D41*
X62500000Y-76515000D03*
X62500000Y-74615000D03*
X64700000Y-75565000D03*
D42*
X41275000Y-118110000D03*
X43815000Y-118110000D03*
D43*
X106045000Y-108585000D03*
X95885000Y-88265000D03*
X99060000Y-76835000D03*
X99060000Y-80645000D03*
X99060000Y-84455000D03*
X99060000Y-88265000D03*
X137160000Y-156845000D03*
X121285000Y-156845000D03*
X142875000Y-132080000D03*
X130175000Y-114935000D03*
X46990000Y-83185000D03*
X59690000Y-83185000D03*
X89535000Y-70485000D03*
X39370000Y-81915000D03*
X142875000Y-115570000D03*
X120015000Y-137795000D03*
X125730000Y-127635000D03*
X72390000Y-130175000D03*
X86995000Y-96520000D03*
X136940001Y-82769999D03*
X88475001Y-92920001D03*
X130175000Y-139700000D03*
X39370000Y-70485000D03*
X99060000Y-120650000D03*
X88265000Y-117475000D03*
X109855000Y-95250000D03*
X102235000Y-111125000D03*
X69215000Y-146685000D03*
X95250000Y-151130000D03*
X95885000Y-76835000D03*
X106680000Y-98425000D03*
X76200000Y-120015000D03*
X105410000Y-99695000D03*
X136940001Y-76419999D03*
X123190000Y-145415000D03*
X105410000Y-70485000D03*
X59830001Y-69709999D03*
X88910332Y-104764668D03*
X95885000Y-84455000D03*
X118530000Y-115990000D03*
X91440000Y-104775000D03*
X80645000Y-109220000D03*
X142875000Y-150495000D03*
X95885000Y-80645000D03*
X89662000Y-97155000D03*
X111125000Y-95250000D03*
X85090000Y-109220000D03*
X95885000Y-120650000D03*
X78740000Y-146685000D03*
X83820000Y-96520000D03*
X73660000Y-95885000D03*
X73660000Y-78740000D03*
X73660000Y-81280000D03*
X76200000Y-76200000D03*
X81580000Y-94950000D03*
X85205000Y-95135000D03*
X77470000Y-76200000D03*
X77470000Y-96520000D03*
X86995000Y-92790002D03*
X81280000Y-99695000D03*
X117475000Y-122555000D03*
X113665000Y-122555000D03*
X111125000Y-100965000D03*
X112395000Y-122555000D03*
X116205000Y-122555000D03*
X97155000Y-94615000D03*
X106045000Y-135255000D03*
X87122000Y-99695000D03*
X102870000Y-115570000D03*
X78740000Y-121285000D03*
X99060000Y-110490000D03*
X80645000Y-118110000D03*
X99060000Y-94615000D03*
X88900000Y-128270000D03*
X99060000Y-128270000D03*
X78740000Y-127635000D03*
X108585000Y-98425000D03*
X94615000Y-94615000D03*
X105745000Y-142540000D03*
X57150000Y-111125000D03*
X57150000Y-109855000D03*
X39370000Y-118745000D03*
X57150000Y-112395000D03*
X46355000Y-120015000D03*
X42210000Y-120315000D03*
X54610000Y-118745000D03*
X55880000Y-118745000D03*
X57150000Y-118745000D03*
X83820000Y-108585000D03*
X79375000Y-107315000D03*
X76835000Y-107315000D03*
X76835000Y-104775000D03*
X99060000Y-111760000D03*
X96520000Y-111760000D03*
X76200000Y-87630000D03*
X127000000Y-86995000D03*
X76835000Y-90805000D03*
X123825000Y-94615000D03*
X109855000Y-84455000D03*
X76200000Y-86360000D03*
X134620000Y-79375000D03*
X135128000Y-74114999D03*
X134620000Y-76835000D03*
X52070000Y-109093000D03*
X54610000Y-90170000D03*
X48895000Y-90170000D03*
X46482000Y-95758000D03*
X48260000Y-111125000D03*
X45593000Y-101600000D03*
X66040000Y-93345000D03*
X52070000Y-114300000D03*
X53870000Y-108690000D03*
X45720000Y-91440000D03*
X45593000Y-100330000D03*
X45466000Y-113792000D03*
X67310000Y-100965000D03*
X53870000Y-100330000D03*
X45212000Y-95758000D03*
X57150000Y-99695000D03*
X48260000Y-106680000D03*
X42545000Y-111125000D03*
X39370000Y-109220000D03*
X39370000Y-156845000D03*
X58420000Y-144145000D03*
X59690000Y-135890000D03*
X39370000Y-139700000D03*
X56515000Y-156845000D03*
X57785000Y-127635000D03*
X39370000Y-127635000D03*
X49530000Y-135255000D03*
X46355000Y-135890000D03*
X66040000Y-80010000D03*
X83820000Y-73660000D03*
X50800000Y-73660000D03*
X71120000Y-76835000D03*
X130175000Y-143510000D03*
X130810000Y-74295000D03*
X123190000Y-137160000D03*
X120015000Y-133985000D03*
X121285000Y-84455000D03*
X120015000Y-91440000D03*
X121285000Y-81615000D03*
X128270000Y-74295000D03*
X127000000Y-74295000D03*
X125730000Y-74295000D03*
X93345000Y-122555000D03*
X104775000Y-122555000D03*
X76835000Y-113665000D03*
X79375000Y-111125000D03*
X76835000Y-111125000D03*
X109855000Y-97155000D03*
X125412500Y-134937500D03*
X92075000Y-73660000D03*
X111570000Y-99060000D03*
X121920000Y-131445000D03*
X121920000Y-124460000D03*
X127000000Y-91440000D03*
X130175000Y-91440000D03*
X121920000Y-91440000D03*
X118745000Y-96520000D03*
X134330000Y-91150000D03*
X133985000Y-103505000D03*
X133985000Y-99060000D03*
X135600000Y-91150000D03*
X64135000Y-107315000D03*
X64135000Y-111125000D03*
X64135000Y-104775000D03*
X62865000Y-113665000D03*
X43815000Y-91440000D03*
X53340000Y-73660000D03*
X96635001Y-107430001D03*
X95885000Y-106680000D03*
X93980000Y-109220000D03*
X94730000Y-108470000D03*
X116205000Y-76200000D03*
X99060000Y-103505000D03*
X68580000Y-80010000D03*
X137160000Y-151130000D03*
X133985000Y-93345000D03*
X104140000Y-146050000D03*
X124460000Y-151130000D03*
X127635000Y-84455000D03*
X124460000Y-74295000D03*
X122555000Y-84455000D03*
X121285000Y-74295000D03*
X98394671Y-108189668D03*
X98425000Y-107188000D03*
X120015000Y-74295000D03*
X117475000Y-74295000D03*
X99187000Y-106426000D03*
X111125000Y-91440000D03*
X98425000Y-109220000D03*
X90805000Y-147955000D03*
X95250000Y-144145000D03*
X94615000Y-103505000D03*
X95725178Y-103554517D03*
X96723245Y-103492338D03*
X40005000Y-102235000D03*
X44450000Y-103505000D03*
X39370000Y-106680000D03*
X39370000Y-104902000D03*
X102350000Y-107315000D03*
X90170000Y-111125000D03*
%LPD*%
M02*
