%TF.GenerationSoftware,KiCad,Pcbnew,7.0.9*%
%TF.CreationDate,2023-12-25T16:07:33+01:00*%
%TF.ProjectId,wall-mounted-room-temperature-sensor-ethernet,77616c6c-2d6d-46f7-956e-7465642d726f,v1.0*%
%TF.SameCoordinates,Original*%
%TF.FileFunction,Drillmap*%
%TF.FilePolarity,Positive*%
%FSLAX45Y45*%
G04 Gerber Fmt 4.5, Leading zero omitted, Abs format (unit mm)*
G04 Created by KiCad (PCBNEW 7.0.9) date 2023-12-25 16:07:33*
%MOMM*%
%LPD*%
G01*
G04 APERTURE LIST*
%ADD10C,0.200000*%
%ADD11C,0.050000*%
%ADD12C,0.100000*%
%ADD13C,0.120000*%
G04 APERTURE END LIST*
D10*
X6159500Y-14872000D02*
X8509000Y-14872000D01*
X3800000Y-6872000D02*
X3800000Y-15875000D01*
X3800000Y-6872000D02*
X13779500Y-6872000D01*
X6902500Y-12382500D02*
X6902500Y-9842500D01*
X7192500Y-9842500D02*
X7192500Y-12382500D01*
X6261100Y-14414500D02*
G75*
G03*
X6553200Y-14414500I146050J0D01*
G01*
X6261100Y-14414500D02*
X6261100Y-13525500D01*
X6553200Y-13525500D02*
X6553200Y-14414500D01*
X6553200Y-13525500D02*
G75*
G03*
X6261100Y-13525500I-146050J0D01*
G01*
X9779000Y-15875000D02*
X8509000Y-15875000D01*
X9779000Y-15875000D02*
X9779000Y-14872000D01*
X9779000Y-14872000D02*
X11938000Y-14872000D01*
X14500000Y-15875000D02*
X14500000Y-14872000D01*
X14500000Y-15875000D02*
X11938000Y-15875000D01*
X11938000Y-15875000D02*
X11938000Y-14872000D01*
X6159500Y-15875000D02*
X6159500Y-14872000D01*
D11*
X6015500Y-15557500D02*
G75*
G03*
X6015500Y-15557500I-110000J0D01*
G01*
X8428500Y-12382500D02*
G75*
G03*
X8428500Y-12382500I-110000J0D01*
G01*
X4301000Y-13462000D02*
G75*
G03*
X4301000Y-13462000I-110000J0D01*
G01*
X6523500Y-9969500D02*
G75*
G03*
X6523500Y-9969500I-110000J0D01*
G01*
X10651000Y-8572500D02*
G75*
G03*
X10651000Y-8572500I-110000J0D01*
G01*
X4237500Y-8001000D02*
G75*
G03*
X4237500Y-8001000I-110000J0D01*
G01*
X14270500Y-15557500D02*
G75*
G03*
X14270500Y-15557500I-110000J0D01*
G01*
X14270500Y-11049000D02*
G75*
G03*
X14270500Y-11049000I-110000J0D01*
G01*
X8428500Y-14605000D02*
G75*
G03*
X8428500Y-14605000I-110000J0D01*
G01*
D10*
X14500000Y-10541000D02*
X14500000Y-14872000D01*
X7192500Y-9842500D02*
G75*
G03*
X6902500Y-9842500I-145000J0D01*
G01*
X4241800Y-8490000D02*
X7048500Y-8490000D01*
X13779500Y-10541000D02*
X13779500Y-6872000D01*
X3800000Y-15875000D02*
X6159500Y-15875000D01*
X7048500Y-8780000D02*
X4241800Y-8780000D01*
X4241800Y-8490000D02*
G75*
G03*
X4241800Y-8780000I0J-145000D01*
G01*
X6902500Y-12382500D02*
G75*
G03*
X7192500Y-12382500I145000J0D01*
G01*
X14500000Y-10541000D02*
X13779500Y-10541000D01*
X8509000Y-15875000D02*
X8509000Y-14872000D01*
X7048500Y-8780000D02*
G75*
G03*
X7048500Y-8490000I0J145000D01*
G01*
D12*
X3917000Y-7028500D02*
X3957000Y-7068500D01*
X3957000Y-7028500D02*
X3917000Y-7068500D01*
X3917000Y-8171500D02*
X3957000Y-8211500D01*
X3957000Y-8171500D02*
X3917000Y-8211500D01*
X3917000Y-10470200D02*
X3957000Y-10510200D01*
X3957000Y-10470200D02*
X3917000Y-10510200D01*
X3917000Y-10648000D02*
X3957000Y-10688000D01*
X3957000Y-10648000D02*
X3917000Y-10688000D01*
X3917000Y-10902000D02*
X3957000Y-10942000D01*
X3957000Y-10902000D02*
X3917000Y-10942000D01*
X3917000Y-11854500D02*
X3957000Y-11894500D01*
X3957000Y-11854500D02*
X3917000Y-11894500D01*
X3917000Y-12743500D02*
X3957000Y-12783500D01*
X3957000Y-12743500D02*
X3917000Y-12783500D01*
X3917000Y-13950000D02*
X3957000Y-13990000D01*
X3957000Y-13950000D02*
X3917000Y-13990000D01*
X3917000Y-15664500D02*
X3957000Y-15704500D01*
X3957000Y-15664500D02*
X3917000Y-15704500D01*
X3980500Y-10203500D02*
X4020500Y-10243500D01*
X4020500Y-10203500D02*
X3980500Y-10243500D01*
X4201000Y-12011500D02*
X4241000Y-12051500D01*
X4241000Y-12011500D02*
X4201000Y-12051500D01*
X4234500Y-11092500D02*
X4274500Y-11132500D01*
X4274500Y-11092500D02*
X4234500Y-11132500D01*
X4361500Y-9124000D02*
X4401500Y-9164000D01*
X4401500Y-9124000D02*
X4361500Y-9164000D01*
X4425000Y-10330500D02*
X4465000Y-10370500D01*
X4465000Y-10330500D02*
X4425000Y-10370500D01*
X4501200Y-9555800D02*
X4541200Y-9595800D01*
X4541200Y-9555800D02*
X4501200Y-9595800D01*
X4526600Y-11359200D02*
X4566600Y-11399200D01*
X4566600Y-11359200D02*
X4526600Y-11399200D01*
X4539300Y-10013000D02*
X4579300Y-10053000D01*
X4579300Y-10013000D02*
X4539300Y-10053000D01*
X4539300Y-10140000D02*
X4579300Y-10180000D01*
X4579300Y-10140000D02*
X4539300Y-10180000D01*
X4552000Y-9124000D02*
X4592000Y-9164000D01*
X4592000Y-9124000D02*
X4552000Y-9164000D01*
X4615500Y-11981500D02*
X4655500Y-12021500D01*
X4655500Y-11981500D02*
X4615500Y-12021500D01*
X4615500Y-13569000D02*
X4655500Y-13609000D01*
X4655500Y-13569000D02*
X4615500Y-13609000D01*
X4628200Y-9555800D02*
X4668200Y-9595800D01*
X4668200Y-9555800D02*
X4628200Y-9595800D01*
X4679000Y-8298500D02*
X4719000Y-8338500D01*
X4719000Y-8298500D02*
X4679000Y-8338500D01*
X4806000Y-10648000D02*
X4846000Y-10688000D01*
X4846000Y-10648000D02*
X4806000Y-10688000D01*
X4806000Y-11092500D02*
X4846000Y-11132500D01*
X4846000Y-11092500D02*
X4806000Y-11132500D01*
X4869500Y-8997000D02*
X4909500Y-9037000D01*
X4909500Y-8997000D02*
X4869500Y-9037000D01*
X4933000Y-13505500D02*
X4973000Y-13545500D01*
X4973000Y-13505500D02*
X4933000Y-13545500D01*
X5060000Y-7346000D02*
X5100000Y-7386000D01*
X5100000Y-7346000D02*
X5060000Y-7386000D01*
X5187000Y-10889300D02*
X5227000Y-10929300D01*
X5227000Y-10889300D02*
X5187000Y-10929300D01*
X5187000Y-11410000D02*
X5227000Y-11450000D01*
X5227000Y-11410000D02*
X5187000Y-11450000D01*
X5314000Y-7346000D02*
X5354000Y-7386000D01*
X5354000Y-7346000D02*
X5314000Y-7386000D01*
X5367000Y-10013000D02*
X5407000Y-10053000D01*
X5407000Y-10013000D02*
X5367000Y-10053000D01*
X5367000Y-10849000D02*
X5407000Y-10889000D01*
X5407000Y-10849000D02*
X5367000Y-10889000D01*
X5441000Y-8997000D02*
X5481000Y-9037000D01*
X5481000Y-8997000D02*
X5441000Y-9037000D01*
X5441000Y-11854500D02*
X5481000Y-11894500D01*
X5481000Y-11854500D02*
X5441000Y-11894500D01*
X5568000Y-11854500D02*
X5608000Y-11894500D01*
X5608000Y-11854500D02*
X5568000Y-11894500D01*
X5631500Y-15664500D02*
X5671500Y-15704500D01*
X5671500Y-15664500D02*
X5631500Y-15704500D01*
X5695000Y-9949500D02*
X5735000Y-9989500D01*
X5735000Y-9949500D02*
X5695000Y-9989500D01*
X5695000Y-10965500D02*
X5735000Y-11005500D01*
X5735000Y-10965500D02*
X5695000Y-11005500D01*
X5695000Y-11092500D02*
X5735000Y-11132500D01*
X5735000Y-11092500D02*
X5695000Y-11132500D01*
X5695000Y-11219500D02*
X5735000Y-11259500D01*
X5735000Y-11219500D02*
X5695000Y-11259500D01*
X5695000Y-11854500D02*
X5735000Y-11894500D01*
X5735000Y-11854500D02*
X5695000Y-11894500D01*
X5758500Y-12743500D02*
X5798500Y-12783500D01*
X5798500Y-12743500D02*
X5758500Y-12783500D01*
X5822000Y-14394500D02*
X5862000Y-14434500D01*
X5862000Y-14394500D02*
X5822000Y-14434500D01*
X5949000Y-8298500D02*
X5989000Y-8338500D01*
X5989000Y-8298500D02*
X5949000Y-8338500D01*
X5949000Y-13569000D02*
X5989000Y-13609000D01*
X5989000Y-13569000D02*
X5949000Y-13609000D01*
X5963000Y-6951000D02*
X6003000Y-6991000D01*
X6003000Y-6951000D02*
X5963000Y-6991000D01*
X6266500Y-11346500D02*
X6306500Y-11386500D01*
X6306500Y-11346500D02*
X6266500Y-11386500D01*
X6393500Y-10457500D02*
X6433500Y-10497500D01*
X6433500Y-10457500D02*
X6393500Y-10497500D01*
X6393500Y-10711500D02*
X6433500Y-10751500D01*
X6433500Y-10711500D02*
X6393500Y-10751500D01*
X6393500Y-11092500D02*
X6433500Y-11132500D01*
X6433500Y-11092500D02*
X6393500Y-11132500D01*
X6584000Y-7981000D02*
X6624000Y-8021000D01*
X6624000Y-7981000D02*
X6584000Y-8021000D01*
X6584000Y-9314500D02*
X6624000Y-9354500D01*
X6624000Y-9314500D02*
X6584000Y-9354500D01*
X6711000Y-10076500D02*
X6751000Y-10116500D01*
X6751000Y-10076500D02*
X6711000Y-10116500D01*
X6838000Y-7981000D02*
X6878000Y-8021000D01*
X6878000Y-7981000D02*
X6838000Y-8021000D01*
X6901500Y-14648500D02*
X6941500Y-14688500D01*
X6941500Y-14648500D02*
X6901500Y-14688500D01*
X7092000Y-7663500D02*
X7132000Y-7703500D01*
X7132000Y-7663500D02*
X7092000Y-7703500D01*
X7219000Y-12997500D02*
X7259000Y-13037500D01*
X7259000Y-12997500D02*
X7219000Y-13037500D01*
X7346000Y-7854000D02*
X7386000Y-7894000D01*
X7386000Y-7854000D02*
X7346000Y-7894000D01*
X7346000Y-8108000D02*
X7386000Y-8148000D01*
X7386000Y-8108000D02*
X7346000Y-8148000D01*
X7346000Y-9568500D02*
X7386000Y-9608500D01*
X7386000Y-9568500D02*
X7346000Y-9608500D01*
X7600000Y-7600000D02*
X7640000Y-7640000D01*
X7640000Y-7600000D02*
X7600000Y-7640000D01*
X7600000Y-8616000D02*
X7640000Y-8656000D01*
X7640000Y-8616000D02*
X7600000Y-8656000D01*
X7600000Y-8743000D02*
X7640000Y-8783000D01*
X7640000Y-8743000D02*
X7600000Y-8783000D01*
X7600000Y-11981500D02*
X7640000Y-12021500D01*
X7640000Y-11981500D02*
X7600000Y-12021500D01*
X7663500Y-9060500D02*
X7703500Y-9100500D01*
X7703500Y-9060500D02*
X7663500Y-9100500D01*
X7663500Y-10457500D02*
X7703500Y-10497500D01*
X7703500Y-10457500D02*
X7663500Y-10497500D01*
X7663500Y-10711500D02*
X7703500Y-10751500D01*
X7703500Y-10711500D02*
X7663500Y-10751500D01*
X7663500Y-11092500D02*
X7703500Y-11132500D01*
X7703500Y-11092500D02*
X7663500Y-11132500D01*
X7663500Y-11346500D02*
X7703500Y-11386500D01*
X7703500Y-11346500D02*
X7663500Y-11386500D01*
X7727000Y-7600000D02*
X7767000Y-7640000D01*
X7767000Y-7600000D02*
X7727000Y-7640000D01*
X7727000Y-9632000D02*
X7767000Y-9672000D01*
X7767000Y-9632000D02*
X7727000Y-9672000D01*
X7854000Y-12108500D02*
X7894000Y-12148500D01*
X7894000Y-12108500D02*
X7854000Y-12148500D01*
X7854000Y-12743500D02*
X7894000Y-12783500D01*
X7894000Y-12743500D02*
X7854000Y-12783500D01*
X7854000Y-14648500D02*
X7894000Y-14688500D01*
X7894000Y-14648500D02*
X7854000Y-14688500D01*
X7917500Y-10711500D02*
X7957500Y-10751500D01*
X7957500Y-10711500D02*
X7917500Y-10751500D01*
X7917500Y-11092500D02*
X7957500Y-11132500D01*
X7957500Y-11092500D02*
X7917500Y-11132500D01*
X8044500Y-10902000D02*
X8084500Y-10942000D01*
X8084500Y-10902000D02*
X8044500Y-10942000D01*
X8044500Y-11791000D02*
X8084500Y-11831000D01*
X8084500Y-11791000D02*
X8044500Y-11831000D01*
X8108000Y-9949500D02*
X8148000Y-9989500D01*
X8148000Y-9949500D02*
X8108000Y-9989500D01*
X8138000Y-9475000D02*
X8178000Y-9515000D01*
X8178000Y-9475000D02*
X8138000Y-9515000D01*
X8362000Y-7346000D02*
X8402000Y-7386000D01*
X8402000Y-7346000D02*
X8362000Y-7386000D01*
X8362000Y-9632000D02*
X8402000Y-9672000D01*
X8402000Y-9632000D02*
X8362000Y-9672000D01*
X8362000Y-10838500D02*
X8402000Y-10878500D01*
X8402000Y-10838500D02*
X8362000Y-10878500D01*
X8489000Y-10902000D02*
X8529000Y-10942000D01*
X8529000Y-10902000D02*
X8489000Y-10942000D01*
X8500500Y-9493500D02*
X8540500Y-9533500D01*
X8540500Y-9493500D02*
X8500500Y-9533500D01*
X8679500Y-9259000D02*
X8719500Y-9299000D01*
X8719500Y-9259000D02*
X8679500Y-9299000D01*
X8679500Y-9632000D02*
X8719500Y-9672000D01*
X8719500Y-9632000D02*
X8679500Y-9672000D01*
X8692200Y-9949500D02*
X8732200Y-9989500D01*
X8732200Y-9949500D02*
X8692200Y-9989500D01*
X8806500Y-11727500D02*
X8846500Y-11767500D01*
X8846500Y-11727500D02*
X8806500Y-11767500D01*
X8827500Y-9272000D02*
X8867500Y-9312000D01*
X8867500Y-9272000D02*
X8827500Y-9312000D01*
X8870000Y-12807000D02*
X8910000Y-12847000D01*
X8910000Y-12807000D02*
X8870000Y-12847000D01*
X8871033Y-10456467D02*
X8911033Y-10496467D01*
X8911033Y-10456467D02*
X8871033Y-10496467D01*
X8933500Y-7028500D02*
X8973500Y-7068500D01*
X8973500Y-7028500D02*
X8933500Y-7068500D01*
X8946200Y-9695500D02*
X8986200Y-9735500D01*
X8986200Y-9695500D02*
X8946200Y-9735500D01*
X8997000Y-11092500D02*
X9037000Y-11132500D01*
X9037000Y-11092500D02*
X8997000Y-11132500D01*
X9060500Y-14775500D02*
X9100500Y-14815500D01*
X9100500Y-14775500D02*
X9060500Y-14815500D01*
X9124000Y-10457500D02*
X9164000Y-10497500D01*
X9164000Y-10457500D02*
X9124000Y-10497500D01*
X9187500Y-7346000D02*
X9227500Y-7386000D01*
X9227500Y-7346000D02*
X9187500Y-7386000D01*
X9314500Y-12235500D02*
X9354500Y-12275500D01*
X9354500Y-12235500D02*
X9314500Y-12275500D01*
X9378000Y-10902000D02*
X9418000Y-10942000D01*
X9418000Y-10902000D02*
X9378000Y-10942000D01*
X9441500Y-9441500D02*
X9481500Y-9481500D01*
X9481500Y-9441500D02*
X9441500Y-9481500D01*
X9441500Y-10330500D02*
X9481500Y-10370500D01*
X9481500Y-10330500D02*
X9441500Y-10370500D01*
X9453000Y-10827000D02*
X9493000Y-10867000D01*
X9493000Y-10827000D02*
X9453000Y-10867000D01*
X9505000Y-14394500D02*
X9545000Y-14434500D01*
X9545000Y-14394500D02*
X9505000Y-14434500D01*
X9505000Y-15093000D02*
X9545000Y-15133000D01*
X9545000Y-15093000D02*
X9505000Y-15133000D01*
X9552518Y-10335452D02*
X9592518Y-10375452D01*
X9592518Y-10335452D02*
X9552518Y-10375452D01*
X9568500Y-7663500D02*
X9608500Y-7703500D01*
X9608500Y-7663500D02*
X9568500Y-7703500D01*
X9568500Y-8044500D02*
X9608500Y-8084500D01*
X9608500Y-8044500D02*
X9568500Y-8084500D01*
X9568500Y-8425500D02*
X9608500Y-8465500D01*
X9608500Y-8425500D02*
X9568500Y-8465500D01*
X9568500Y-8806500D02*
X9608500Y-8846500D01*
X9608500Y-8806500D02*
X9568500Y-8846500D01*
X9568500Y-10648000D02*
X9608500Y-10688000D01*
X9608500Y-10648000D02*
X9568500Y-10688000D01*
X9568500Y-12045000D02*
X9608500Y-12085000D01*
X9608500Y-12045000D02*
X9568500Y-12085000D01*
X9632000Y-11156000D02*
X9672000Y-11196000D01*
X9672000Y-11156000D02*
X9632000Y-11196000D01*
X9643500Y-10723000D02*
X9683500Y-10763000D01*
X9683500Y-10723000D02*
X9643500Y-10763000D01*
X9652325Y-10329234D02*
X9692325Y-10369234D01*
X9692325Y-10329234D02*
X9652325Y-10369234D01*
X9695500Y-9441500D02*
X9735500Y-9481500D01*
X9735500Y-9441500D02*
X9695500Y-9481500D01*
X9819467Y-10798967D02*
X9859467Y-10838967D01*
X9859467Y-10798967D02*
X9819467Y-10838967D01*
X9822500Y-10698800D02*
X9862500Y-10738800D01*
X9862500Y-10698800D02*
X9822500Y-10738800D01*
X9822500Y-10902000D02*
X9862500Y-10942000D01*
X9862500Y-10902000D02*
X9822500Y-10942000D01*
X9886000Y-7663500D02*
X9926000Y-7703500D01*
X9926000Y-7663500D02*
X9886000Y-7703500D01*
X9886000Y-8044500D02*
X9926000Y-8084500D01*
X9926000Y-8044500D02*
X9886000Y-8084500D01*
X9886000Y-8425500D02*
X9926000Y-8465500D01*
X9926000Y-8425500D02*
X9886000Y-8465500D01*
X9886000Y-8806500D02*
X9926000Y-8846500D01*
X9926000Y-8806500D02*
X9886000Y-8846500D01*
X9886000Y-9441500D02*
X9926000Y-9481500D01*
X9926000Y-9441500D02*
X9886000Y-9481500D01*
X9886000Y-10330500D02*
X9926000Y-10370500D01*
X9926000Y-10330500D02*
X9886000Y-10370500D01*
X9886000Y-11029000D02*
X9926000Y-11069000D01*
X9926000Y-11029000D02*
X9886000Y-11069000D01*
X9886000Y-11156000D02*
X9926000Y-11196000D01*
X9926000Y-11156000D02*
X9886000Y-11196000D01*
X9886000Y-12045000D02*
X9926000Y-12085000D01*
X9926000Y-12045000D02*
X9886000Y-12085000D01*
X9886000Y-12807000D02*
X9926000Y-12847000D01*
X9926000Y-12807000D02*
X9886000Y-12847000D01*
X9898700Y-10622600D02*
X9938700Y-10662600D01*
X9938700Y-10622600D02*
X9898700Y-10662600D01*
X10203500Y-11092500D02*
X10243500Y-11132500D01*
X10243500Y-11092500D02*
X10203500Y-11132500D01*
X10215000Y-10711500D02*
X10255000Y-10751500D01*
X10255000Y-10711500D02*
X10215000Y-10751500D01*
X10267000Y-11537000D02*
X10307000Y-11577000D01*
X10307000Y-11537000D02*
X10267000Y-11577000D01*
X10394000Y-14585000D02*
X10434000Y-14625000D01*
X10434000Y-14585000D02*
X10394000Y-14625000D01*
X10457500Y-12235500D02*
X10497500Y-12275500D01*
X10497500Y-12235500D02*
X10457500Y-12275500D01*
X10521000Y-7028500D02*
X10561000Y-7068500D01*
X10561000Y-7028500D02*
X10521000Y-7068500D01*
X10521000Y-9949500D02*
X10561000Y-9989500D01*
X10561000Y-9949500D02*
X10521000Y-9989500D01*
X10554500Y-14234000D02*
X10594500Y-14274000D01*
X10594500Y-14234000D02*
X10554500Y-14274000D01*
X10584500Y-10838500D02*
X10624500Y-10878500D01*
X10624500Y-10838500D02*
X10584500Y-10878500D01*
X10584500Y-13505500D02*
X10624500Y-13545500D01*
X10624500Y-13505500D02*
X10584500Y-13545500D01*
X10648000Y-9822500D02*
X10688000Y-9862500D01*
X10688000Y-9822500D02*
X10648000Y-9862500D01*
X10838500Y-9822500D02*
X10878500Y-9862500D01*
X10878500Y-9822500D02*
X10838500Y-9862500D01*
X10965500Y-8425500D02*
X11005500Y-8465500D01*
X11005500Y-8425500D02*
X10965500Y-8465500D01*
X10965500Y-9505000D02*
X11005500Y-9545000D01*
X11005500Y-9505000D02*
X10965500Y-9545000D01*
X10965500Y-9695500D02*
X11005500Y-9735500D01*
X11005500Y-9695500D02*
X10965500Y-9735500D01*
X11092500Y-9124000D02*
X11132500Y-9164000D01*
X11132500Y-9124000D02*
X11092500Y-9164000D01*
X11092500Y-9505000D02*
X11132500Y-9545000D01*
X11132500Y-9505000D02*
X11092500Y-9545000D01*
X11092500Y-10076500D02*
X11132500Y-10116500D01*
X11132500Y-10076500D02*
X11092500Y-10116500D01*
X11137000Y-9886000D02*
X11177000Y-9926000D01*
X11177000Y-9886000D02*
X11137000Y-9926000D01*
X11219500Y-12235500D02*
X11259500Y-12275500D01*
X11259500Y-12235500D02*
X11219500Y-12275500D01*
X11346500Y-12235500D02*
X11386500Y-12275500D01*
X11386500Y-12235500D02*
X11346500Y-12275500D01*
X11600500Y-7600000D02*
X11640500Y-7640000D01*
X11640500Y-7600000D02*
X11600500Y-7640000D01*
X11600500Y-12235500D02*
X11640500Y-12275500D01*
X11640500Y-12235500D02*
X11600500Y-12275500D01*
X11727500Y-7409500D02*
X11767500Y-7449500D01*
X11767500Y-7409500D02*
X11727500Y-7449500D01*
X11727500Y-12235500D02*
X11767500Y-12275500D01*
X11767500Y-12235500D02*
X11727500Y-12275500D01*
X11833000Y-11579000D02*
X11873000Y-11619000D01*
X11873000Y-11579000D02*
X11833000Y-11619000D01*
X11854500Y-9632000D02*
X11894500Y-9672000D01*
X11894500Y-9632000D02*
X11854500Y-9672000D01*
X11981500Y-7409500D02*
X12021500Y-7449500D01*
X12021500Y-7409500D02*
X11981500Y-7449500D01*
X11981500Y-9124000D02*
X12021500Y-9164000D01*
X12021500Y-9124000D02*
X11981500Y-9164000D01*
X11981500Y-13378500D02*
X12021500Y-13418500D01*
X12021500Y-13378500D02*
X11981500Y-13418500D01*
X11981500Y-13759500D02*
X12021500Y-13799500D01*
X12021500Y-13759500D02*
X11981500Y-13799500D01*
X12108500Y-7409500D02*
X12148500Y-7449500D01*
X12148500Y-7409500D02*
X12108500Y-7449500D01*
X12108500Y-8141500D02*
X12148500Y-8181500D01*
X12148500Y-8141500D02*
X12108500Y-8181500D01*
X12108500Y-8425500D02*
X12148500Y-8465500D01*
X12148500Y-8425500D02*
X12108500Y-8465500D01*
X12108500Y-15664500D02*
X12148500Y-15704500D01*
X12148500Y-15664500D02*
X12108500Y-15704500D01*
X12172000Y-9124000D02*
X12212000Y-9164000D01*
X12212000Y-9124000D02*
X12172000Y-9164000D01*
X12172000Y-12426000D02*
X12212000Y-12466000D01*
X12212000Y-12426000D02*
X12172000Y-12466000D01*
X12172000Y-13124500D02*
X12212000Y-13164500D01*
X12212000Y-13124500D02*
X12172000Y-13164500D01*
X12235500Y-8425500D02*
X12275500Y-8465500D01*
X12275500Y-8425500D02*
X12235500Y-8465500D01*
X12299000Y-13696000D02*
X12339000Y-13736000D01*
X12339000Y-13696000D02*
X12299000Y-13736000D01*
X12299000Y-14521500D02*
X12339000Y-14561500D01*
X12339000Y-14521500D02*
X12299000Y-14561500D01*
X12362500Y-9441500D02*
X12402500Y-9481500D01*
X12402500Y-9441500D02*
X12362500Y-9481500D01*
X12426000Y-7409500D02*
X12466000Y-7449500D01*
X12466000Y-7409500D02*
X12426000Y-7449500D01*
X12426000Y-15093000D02*
X12466000Y-15133000D01*
X12466000Y-15093000D02*
X12426000Y-15133000D01*
X12521250Y-13473750D02*
X12561250Y-13513750D01*
X12561250Y-13473750D02*
X12521250Y-13513750D01*
X12553000Y-7409500D02*
X12593000Y-7449500D01*
X12593000Y-7409500D02*
X12553000Y-7449500D01*
X12553000Y-12743500D02*
X12593000Y-12783500D01*
X12593000Y-12743500D02*
X12553000Y-12783500D01*
X12680000Y-7409500D02*
X12720000Y-7449500D01*
X12720000Y-7409500D02*
X12680000Y-7449500D01*
X12680000Y-8679500D02*
X12720000Y-8719500D01*
X12720000Y-8679500D02*
X12680000Y-8719500D01*
X12680000Y-9124000D02*
X12720000Y-9164000D01*
X12720000Y-9124000D02*
X12680000Y-9164000D01*
X12743500Y-8425500D02*
X12783500Y-8465500D01*
X12783500Y-8425500D02*
X12743500Y-8465500D01*
X12807000Y-7409500D02*
X12847000Y-7449500D01*
X12847000Y-7409500D02*
X12807000Y-7449500D01*
X12997500Y-9124000D02*
X13037500Y-9164000D01*
X13037500Y-9124000D02*
X12997500Y-9164000D01*
X12997500Y-11473500D02*
X13037500Y-11513500D01*
X13037500Y-11473500D02*
X12997500Y-11513500D01*
X12997500Y-13950000D02*
X13037500Y-13990000D01*
X13037500Y-13950000D02*
X12997500Y-13990000D01*
X12997500Y-14331000D02*
X13037500Y-14371000D01*
X13037500Y-14331000D02*
X12997500Y-14371000D01*
X13061000Y-7409500D02*
X13101000Y-7449500D01*
X13101000Y-7409500D02*
X13061000Y-7449500D01*
X13378500Y-9314500D02*
X13418500Y-9354500D01*
X13418500Y-9314500D02*
X13378500Y-9354500D01*
X13378500Y-9886000D02*
X13418500Y-9926000D01*
X13418500Y-9886000D02*
X13378500Y-9926000D01*
X13378500Y-10330500D02*
X13418500Y-10370500D01*
X13418500Y-10330500D02*
X13378500Y-10370500D01*
X13413000Y-9095000D02*
X13453000Y-9135000D01*
X13453000Y-9095000D02*
X13413000Y-9135000D01*
X13442000Y-7663500D02*
X13482000Y-7703500D01*
X13482000Y-7663500D02*
X13442000Y-7703500D01*
X13442000Y-7917500D02*
X13482000Y-7957500D01*
X13482000Y-7917500D02*
X13442000Y-7957500D01*
X13492800Y-7391500D02*
X13532800Y-7431500D01*
X13532800Y-7391500D02*
X13492800Y-7431500D01*
X13540000Y-9095000D02*
X13580000Y-9135000D01*
X13580000Y-9095000D02*
X13540000Y-9135000D01*
X13674000Y-7622000D02*
X13714000Y-7662000D01*
X13714000Y-7622000D02*
X13674000Y-7662000D01*
X13674000Y-8257000D02*
X13714000Y-8297000D01*
X13714000Y-8257000D02*
X13674000Y-8297000D01*
X13696000Y-15093000D02*
X13736000Y-15133000D01*
X13736000Y-15093000D02*
X13696000Y-15133000D01*
X13696000Y-15664500D02*
X13736000Y-15704500D01*
X13736000Y-15664500D02*
X13696000Y-15704500D01*
X14267500Y-11537000D02*
X14307500Y-11577000D01*
X14307500Y-11537000D02*
X14267500Y-11577000D01*
X14267500Y-13188000D02*
X14307500Y-13228000D01*
X14307500Y-13188000D02*
X14267500Y-13228000D01*
X14267500Y-15029500D02*
X14307500Y-15069500D01*
X14307500Y-15029500D02*
X14267500Y-15069500D01*
X9054500Y-15557500D02*
G75*
G03*
X9054500Y-15557500I-37500J0D01*
G01*
X9181500Y-15557500D02*
G75*
G03*
X9181500Y-15557500I-37500J0D01*
G01*
X9308500Y-15557500D02*
G75*
G03*
X9308500Y-15557500I-37500J0D01*
G01*
X4318100Y-14501500D02*
X4318100Y-14581500D01*
X4278100Y-14541500D02*
X4358100Y-14541500D01*
X4445100Y-14247500D02*
X4445100Y-14327500D01*
X4405100Y-14287500D02*
X4485100Y-14287500D01*
X4572100Y-14501500D02*
X4572100Y-14581500D01*
X4532100Y-14541500D02*
X4612100Y-14541500D01*
X4699100Y-14247500D02*
X4699100Y-14327500D01*
X4659100Y-14287500D02*
X4739100Y-14287500D01*
X4826100Y-14501500D02*
X4826100Y-14581500D01*
X4786100Y-14541500D02*
X4866100Y-14541500D01*
X4953100Y-14247500D02*
X4953100Y-14327500D01*
X4913100Y-14287500D02*
X4993100Y-14287500D01*
X5080100Y-14501500D02*
X5080100Y-14581500D01*
X5040100Y-14541500D02*
X5120100Y-14541500D01*
X5207100Y-14247500D02*
X5207100Y-14327500D01*
X5167100Y-14287500D02*
X5247100Y-14287500D01*
X12795320Y-14573320D02*
X12795320Y-14509680D01*
X12731680Y-14509680D01*
X12731680Y-14573320D01*
X12795320Y-14573320D01*
X12795320Y-14827320D02*
X12795320Y-14763680D01*
X12731680Y-14763680D01*
X12731680Y-14827320D01*
X12795320Y-14827320D01*
X13049320Y-14573320D02*
X13049320Y-14509680D01*
X12985680Y-14509680D01*
X12985680Y-14573320D01*
X13049320Y-14573320D01*
X13049320Y-14827320D02*
X13049320Y-14763680D01*
X12985680Y-14763680D01*
X12985680Y-14827320D01*
X13049320Y-14827320D01*
X13303320Y-14573320D02*
X13303320Y-14509680D01*
X13239680Y-14509680D01*
X13239680Y-14573320D01*
X13303320Y-14573320D01*
X13303320Y-14827320D02*
X13303320Y-14763680D01*
X13239680Y-14763680D01*
X13239680Y-14827320D01*
X13303320Y-14827320D01*
X12351500Y-9892500D02*
X12401500Y-9842500D01*
X12351500Y-9792500D01*
X12301500Y-9842500D01*
X12351500Y-9892500D01*
X12351500Y-10146500D02*
X12401500Y-10096500D01*
X12351500Y-10046500D01*
X12301500Y-10096500D01*
X12351500Y-10146500D01*
X12351500Y-10400500D02*
X12401500Y-10350500D01*
X12351500Y-10300500D01*
X12301500Y-10350500D01*
X12351500Y-10400500D01*
X12351500Y-10654500D02*
X12401500Y-10604500D01*
X12351500Y-10554500D01*
X12301500Y-10604500D01*
X12351500Y-10654500D01*
X12351500Y-10908500D02*
X12401500Y-10858500D01*
X12351500Y-10808500D01*
X12301500Y-10858500D01*
X12351500Y-10908500D01*
X12351500Y-11162500D02*
X12401500Y-11112500D01*
X12351500Y-11062500D01*
X12301500Y-11112500D01*
X12351500Y-11162500D01*
X12351500Y-11416500D02*
X12401500Y-11366500D01*
X12351500Y-11316500D01*
X12301500Y-11366500D01*
X12351500Y-11416500D01*
X12351500Y-11670500D02*
X12401500Y-11620500D01*
X12351500Y-11570500D01*
X12301500Y-11620500D01*
X12351500Y-11670500D01*
X12351500Y-11924500D02*
X12401500Y-11874500D01*
X12351500Y-11824500D01*
X12301500Y-11874500D01*
X12351500Y-11924500D01*
D13*
X6739500Y-13464500D02*
X6859500Y-13584500D01*
X6859500Y-13464500D02*
X6739500Y-13584500D01*
X6859500Y-13524500D02*
G75*
G03*
X6859500Y-13524500I-60000J0D01*
G01*
X6739500Y-13974500D02*
X6859500Y-14094500D01*
X6859500Y-13974500D02*
X6739500Y-14094500D01*
X6859500Y-14034500D02*
G75*
G03*
X6859500Y-14034500I-60000J0D01*
G01*
X7369500Y-14414500D02*
X7489500Y-14534500D01*
X7489500Y-14414500D02*
X7369500Y-14534500D01*
X7489500Y-14474500D02*
G75*
G03*
X7489500Y-14474500I-60000J0D01*
G01*
X7999500Y-13464500D02*
X8119500Y-13584500D01*
X8119500Y-13464500D02*
X7999500Y-13584500D01*
X8119500Y-13524500D02*
G75*
G03*
X8119500Y-13524500I-60000J0D01*
G01*
X7999500Y-13974500D02*
X8119500Y-14094500D01*
X8119500Y-13974500D02*
X7999500Y-14094500D01*
X8119500Y-14034500D02*
G75*
G03*
X8119500Y-14034500I-60000J0D01*
G01*
X8460000Y-13464500D02*
X8580000Y-13584500D01*
X8580000Y-13464500D02*
X8460000Y-13584500D01*
X8580000Y-13524500D02*
G75*
G03*
X8580000Y-13524500I-60000J0D01*
G01*
X8460000Y-13974500D02*
X8580000Y-14094500D01*
X8580000Y-13974500D02*
X8460000Y-14094500D01*
X8580000Y-14034500D02*
G75*
G03*
X8580000Y-14034500I-60000J0D01*
G01*
X9090000Y-14414500D02*
X9210000Y-14534500D01*
X9210000Y-14414500D02*
X9090000Y-14534500D01*
X9210000Y-14474500D02*
G75*
G03*
X9210000Y-14474500I-60000J0D01*
G01*
X9720000Y-13464500D02*
X9840000Y-13584500D01*
X9840000Y-13464500D02*
X9720000Y-13584500D01*
X9840000Y-13524500D02*
G75*
G03*
X9840000Y-13524500I-60000J0D01*
G01*
X9720000Y-13974500D02*
X9840000Y-14094500D01*
X9840000Y-13974500D02*
X9720000Y-14094500D01*
X9840000Y-14034500D02*
G75*
G03*
X9840000Y-14034500I-60000J0D01*
G01*
X10168500Y-13464500D02*
X10288500Y-13584500D01*
X10288500Y-13464500D02*
X10168500Y-13584500D01*
X10288500Y-13524500D02*
G75*
G03*
X10288500Y-13524500I-60000J0D01*
G01*
X10168500Y-13974500D02*
X10288500Y-14094500D01*
X10288500Y-13974500D02*
X10168500Y-14094500D01*
X10288500Y-14034500D02*
G75*
G03*
X10288500Y-14034500I-60000J0D01*
G01*
X10798500Y-14414500D02*
X10918500Y-14534500D01*
X10918500Y-14414500D02*
X10798500Y-14534500D01*
X10918500Y-14474500D02*
G75*
G03*
X10918500Y-14474500I-60000J0D01*
G01*
X11428500Y-13464500D02*
X11548500Y-13584500D01*
X11548500Y-13464500D02*
X11428500Y-13584500D01*
X11548500Y-13524500D02*
G75*
G03*
X11548500Y-13524500I-60000J0D01*
G01*
X11428500Y-13974500D02*
X11548500Y-14094500D01*
X11548500Y-13974500D02*
X11428500Y-14094500D01*
X11548500Y-14034500D02*
G75*
G03*
X11548500Y-14034500I-60000J0D01*
G01*
D10*
X4050777Y-16196484D02*
X4050777Y-15996484D01*
X4050777Y-15996484D02*
X4098396Y-15996484D01*
X4098396Y-15996484D02*
X4126967Y-16006008D01*
X4126967Y-16006008D02*
X4146015Y-16025055D01*
X4146015Y-16025055D02*
X4155539Y-16044103D01*
X4155539Y-16044103D02*
X4165062Y-16082198D01*
X4165062Y-16082198D02*
X4165062Y-16110769D01*
X4165062Y-16110769D02*
X4155539Y-16148865D01*
X4155539Y-16148865D02*
X4146015Y-16167912D01*
X4146015Y-16167912D02*
X4126967Y-16186960D01*
X4126967Y-16186960D02*
X4098396Y-16196484D01*
X4098396Y-16196484D02*
X4050777Y-16196484D01*
X4250777Y-16196484D02*
X4250777Y-16063150D01*
X4250777Y-16101246D02*
X4260301Y-16082198D01*
X4260301Y-16082198D02*
X4269824Y-16072674D01*
X4269824Y-16072674D02*
X4288872Y-16063150D01*
X4288872Y-16063150D02*
X4307920Y-16063150D01*
X4374586Y-16196484D02*
X4374586Y-16063150D01*
X4374586Y-15996484D02*
X4365063Y-16006008D01*
X4365063Y-16006008D02*
X4374586Y-16015531D01*
X4374586Y-16015531D02*
X4384110Y-16006008D01*
X4384110Y-16006008D02*
X4374586Y-15996484D01*
X4374586Y-15996484D02*
X4374586Y-16015531D01*
X4498396Y-16196484D02*
X4479348Y-16186960D01*
X4479348Y-16186960D02*
X4469824Y-16167912D01*
X4469824Y-16167912D02*
X4469824Y-15996484D01*
X4603158Y-16196484D02*
X4584110Y-16186960D01*
X4584110Y-16186960D02*
X4574586Y-16167912D01*
X4574586Y-16167912D02*
X4574586Y-15996484D01*
X4831729Y-16196484D02*
X4831729Y-15996484D01*
X4831729Y-15996484D02*
X4898396Y-16139341D01*
X4898396Y-16139341D02*
X4965063Y-15996484D01*
X4965063Y-15996484D02*
X4965063Y-16196484D01*
X5146015Y-16196484D02*
X5146015Y-16091722D01*
X5146015Y-16091722D02*
X5136491Y-16072674D01*
X5136491Y-16072674D02*
X5117444Y-16063150D01*
X5117444Y-16063150D02*
X5079348Y-16063150D01*
X5079348Y-16063150D02*
X5060301Y-16072674D01*
X5146015Y-16186960D02*
X5126967Y-16196484D01*
X5126967Y-16196484D02*
X5079348Y-16196484D01*
X5079348Y-16196484D02*
X5060301Y-16186960D01*
X5060301Y-16186960D02*
X5050777Y-16167912D01*
X5050777Y-16167912D02*
X5050777Y-16148865D01*
X5050777Y-16148865D02*
X5060301Y-16129817D01*
X5060301Y-16129817D02*
X5079348Y-16120293D01*
X5079348Y-16120293D02*
X5126967Y-16120293D01*
X5126967Y-16120293D02*
X5146015Y-16110769D01*
X5241253Y-16063150D02*
X5241253Y-16263150D01*
X5241253Y-16072674D02*
X5260301Y-16063150D01*
X5260301Y-16063150D02*
X5298396Y-16063150D01*
X5298396Y-16063150D02*
X5317444Y-16072674D01*
X5317444Y-16072674D02*
X5326967Y-16082198D01*
X5326967Y-16082198D02*
X5336491Y-16101246D01*
X5336491Y-16101246D02*
X5336491Y-16158388D01*
X5336491Y-16158388D02*
X5326967Y-16177436D01*
X5326967Y-16177436D02*
X5317444Y-16186960D01*
X5317444Y-16186960D02*
X5298396Y-16196484D01*
X5298396Y-16196484D02*
X5260301Y-16196484D01*
X5260301Y-16196484D02*
X5241253Y-16186960D01*
X5422205Y-16177436D02*
X5431729Y-16186960D01*
X5431729Y-16186960D02*
X5422205Y-16196484D01*
X5422205Y-16196484D02*
X5412682Y-16186960D01*
X5412682Y-16186960D02*
X5422205Y-16177436D01*
X5422205Y-16177436D02*
X5422205Y-16196484D01*
X5422205Y-16072674D02*
X5431729Y-16082198D01*
X5431729Y-16082198D02*
X5422205Y-16091722D01*
X5422205Y-16091722D02*
X5412682Y-16082198D01*
X5412682Y-16082198D02*
X5422205Y-16072674D01*
X5422205Y-16072674D02*
X5422205Y-16091722D01*
D12*
X3750000Y-16505000D02*
X3790000Y-16545000D01*
X3790000Y-16505000D02*
X3750000Y-16545000D01*
D10*
X4088872Y-16416484D02*
X4107920Y-16416484D01*
X4107920Y-16416484D02*
X4126967Y-16426008D01*
X4126967Y-16426008D02*
X4136491Y-16435531D01*
X4136491Y-16435531D02*
X4146015Y-16454579D01*
X4146015Y-16454579D02*
X4155539Y-16492674D01*
X4155539Y-16492674D02*
X4155539Y-16540293D01*
X4155539Y-16540293D02*
X4146015Y-16578388D01*
X4146015Y-16578388D02*
X4136491Y-16597436D01*
X4136491Y-16597436D02*
X4126967Y-16606960D01*
X4126967Y-16606960D02*
X4107920Y-16616484D01*
X4107920Y-16616484D02*
X4088872Y-16616484D01*
X4088872Y-16616484D02*
X4069824Y-16606960D01*
X4069824Y-16606960D02*
X4060301Y-16597436D01*
X4060301Y-16597436D02*
X4050777Y-16578388D01*
X4050777Y-16578388D02*
X4041253Y-16540293D01*
X4041253Y-16540293D02*
X4041253Y-16492674D01*
X4041253Y-16492674D02*
X4050777Y-16454579D01*
X4050777Y-16454579D02*
X4060301Y-16435531D01*
X4060301Y-16435531D02*
X4069824Y-16426008D01*
X4069824Y-16426008D02*
X4088872Y-16416484D01*
X4241253Y-16597436D02*
X4250777Y-16606960D01*
X4250777Y-16606960D02*
X4241253Y-16616484D01*
X4241253Y-16616484D02*
X4231729Y-16606960D01*
X4231729Y-16606960D02*
X4241253Y-16597436D01*
X4241253Y-16597436D02*
X4241253Y-16616484D01*
X4422205Y-16483150D02*
X4422205Y-16616484D01*
X4374586Y-16406960D02*
X4326967Y-16549817D01*
X4326967Y-16549817D02*
X4450777Y-16549817D01*
X4565063Y-16416484D02*
X4584110Y-16416484D01*
X4584110Y-16416484D02*
X4603158Y-16426008D01*
X4603158Y-16426008D02*
X4612682Y-16435531D01*
X4612682Y-16435531D02*
X4622205Y-16454579D01*
X4622205Y-16454579D02*
X4631729Y-16492674D01*
X4631729Y-16492674D02*
X4631729Y-16540293D01*
X4631729Y-16540293D02*
X4622205Y-16578388D01*
X4622205Y-16578388D02*
X4612682Y-16597436D01*
X4612682Y-16597436D02*
X4603158Y-16606960D01*
X4603158Y-16606960D02*
X4584110Y-16616484D01*
X4584110Y-16616484D02*
X4565063Y-16616484D01*
X4565063Y-16616484D02*
X4546015Y-16606960D01*
X4546015Y-16606960D02*
X4536491Y-16597436D01*
X4536491Y-16597436D02*
X4526967Y-16578388D01*
X4526967Y-16578388D02*
X4517444Y-16540293D01*
X4517444Y-16540293D02*
X4517444Y-16492674D01*
X4517444Y-16492674D02*
X4526967Y-16454579D01*
X4526967Y-16454579D02*
X4536491Y-16435531D01*
X4536491Y-16435531D02*
X4546015Y-16426008D01*
X4546015Y-16426008D02*
X4565063Y-16416484D01*
X4755539Y-16416484D02*
X4774586Y-16416484D01*
X4774586Y-16416484D02*
X4793634Y-16426008D01*
X4793634Y-16426008D02*
X4803158Y-16435531D01*
X4803158Y-16435531D02*
X4812682Y-16454579D01*
X4812682Y-16454579D02*
X4822205Y-16492674D01*
X4822205Y-16492674D02*
X4822205Y-16540293D01*
X4822205Y-16540293D02*
X4812682Y-16578388D01*
X4812682Y-16578388D02*
X4803158Y-16597436D01*
X4803158Y-16597436D02*
X4793634Y-16606960D01*
X4793634Y-16606960D02*
X4774586Y-16616484D01*
X4774586Y-16616484D02*
X4755539Y-16616484D01*
X4755539Y-16616484D02*
X4736491Y-16606960D01*
X4736491Y-16606960D02*
X4726967Y-16597436D01*
X4726967Y-16597436D02*
X4717444Y-16578388D01*
X4717444Y-16578388D02*
X4707920Y-16540293D01*
X4707920Y-16540293D02*
X4707920Y-16492674D01*
X4707920Y-16492674D02*
X4717444Y-16454579D01*
X4717444Y-16454579D02*
X4726967Y-16435531D01*
X4726967Y-16435531D02*
X4736491Y-16426008D01*
X4736491Y-16426008D02*
X4755539Y-16416484D01*
X4907920Y-16616484D02*
X4907920Y-16483150D01*
X4907920Y-16502198D02*
X4917444Y-16492674D01*
X4917444Y-16492674D02*
X4936491Y-16483150D01*
X4936491Y-16483150D02*
X4965063Y-16483150D01*
X4965063Y-16483150D02*
X4984110Y-16492674D01*
X4984110Y-16492674D02*
X4993634Y-16511722D01*
X4993634Y-16511722D02*
X4993634Y-16616484D01*
X4993634Y-16511722D02*
X5003158Y-16492674D01*
X5003158Y-16492674D02*
X5022205Y-16483150D01*
X5022205Y-16483150D02*
X5050777Y-16483150D01*
X5050777Y-16483150D02*
X5069825Y-16492674D01*
X5069825Y-16492674D02*
X5079348Y-16511722D01*
X5079348Y-16511722D02*
X5079348Y-16616484D01*
X5174586Y-16616484D02*
X5174586Y-16483150D01*
X5174586Y-16502198D02*
X5184110Y-16492674D01*
X5184110Y-16492674D02*
X5203158Y-16483150D01*
X5203158Y-16483150D02*
X5231729Y-16483150D01*
X5231729Y-16483150D02*
X5250777Y-16492674D01*
X5250777Y-16492674D02*
X5260301Y-16511722D01*
X5260301Y-16511722D02*
X5260301Y-16616484D01*
X5260301Y-16511722D02*
X5269825Y-16492674D01*
X5269825Y-16492674D02*
X5288872Y-16483150D01*
X5288872Y-16483150D02*
X5317444Y-16483150D01*
X5317444Y-16483150D02*
X5336491Y-16492674D01*
X5336491Y-16492674D02*
X5346015Y-16511722D01*
X5346015Y-16511722D02*
X5346015Y-16616484D01*
X5736491Y-16406960D02*
X5565063Y-16664103D01*
X5993634Y-16416484D02*
X6012682Y-16416484D01*
X6012682Y-16416484D02*
X6031729Y-16426008D01*
X6031729Y-16426008D02*
X6041253Y-16435531D01*
X6041253Y-16435531D02*
X6050777Y-16454579D01*
X6050777Y-16454579D02*
X6060301Y-16492674D01*
X6060301Y-16492674D02*
X6060301Y-16540293D01*
X6060301Y-16540293D02*
X6050777Y-16578388D01*
X6050777Y-16578388D02*
X6041253Y-16597436D01*
X6041253Y-16597436D02*
X6031729Y-16606960D01*
X6031729Y-16606960D02*
X6012682Y-16616484D01*
X6012682Y-16616484D02*
X5993634Y-16616484D01*
X5993634Y-16616484D02*
X5974586Y-16606960D01*
X5974586Y-16606960D02*
X5965063Y-16597436D01*
X5965063Y-16597436D02*
X5955539Y-16578388D01*
X5955539Y-16578388D02*
X5946015Y-16540293D01*
X5946015Y-16540293D02*
X5946015Y-16492674D01*
X5946015Y-16492674D02*
X5955539Y-16454579D01*
X5955539Y-16454579D02*
X5965063Y-16435531D01*
X5965063Y-16435531D02*
X5974586Y-16426008D01*
X5974586Y-16426008D02*
X5993634Y-16416484D01*
X6146015Y-16597436D02*
X6155539Y-16606960D01*
X6155539Y-16606960D02*
X6146015Y-16616484D01*
X6146015Y-16616484D02*
X6136491Y-16606960D01*
X6136491Y-16606960D02*
X6146015Y-16597436D01*
X6146015Y-16597436D02*
X6146015Y-16616484D01*
X6279348Y-16416484D02*
X6298396Y-16416484D01*
X6298396Y-16416484D02*
X6317444Y-16426008D01*
X6317444Y-16426008D02*
X6326967Y-16435531D01*
X6326967Y-16435531D02*
X6336491Y-16454579D01*
X6336491Y-16454579D02*
X6346015Y-16492674D01*
X6346015Y-16492674D02*
X6346015Y-16540293D01*
X6346015Y-16540293D02*
X6336491Y-16578388D01*
X6336491Y-16578388D02*
X6326967Y-16597436D01*
X6326967Y-16597436D02*
X6317444Y-16606960D01*
X6317444Y-16606960D02*
X6298396Y-16616484D01*
X6298396Y-16616484D02*
X6279348Y-16616484D01*
X6279348Y-16616484D02*
X6260301Y-16606960D01*
X6260301Y-16606960D02*
X6250777Y-16597436D01*
X6250777Y-16597436D02*
X6241253Y-16578388D01*
X6241253Y-16578388D02*
X6231729Y-16540293D01*
X6231729Y-16540293D02*
X6231729Y-16492674D01*
X6231729Y-16492674D02*
X6241253Y-16454579D01*
X6241253Y-16454579D02*
X6250777Y-16435531D01*
X6250777Y-16435531D02*
X6260301Y-16426008D01*
X6260301Y-16426008D02*
X6279348Y-16416484D01*
X6536491Y-16616484D02*
X6422206Y-16616484D01*
X6479348Y-16616484D02*
X6479348Y-16416484D01*
X6479348Y-16416484D02*
X6460301Y-16445055D01*
X6460301Y-16445055D02*
X6441253Y-16464103D01*
X6441253Y-16464103D02*
X6422206Y-16473627D01*
X6717444Y-16416484D02*
X6622206Y-16416484D01*
X6622206Y-16416484D02*
X6612682Y-16511722D01*
X6612682Y-16511722D02*
X6622206Y-16502198D01*
X6622206Y-16502198D02*
X6641253Y-16492674D01*
X6641253Y-16492674D02*
X6688872Y-16492674D01*
X6688872Y-16492674D02*
X6707920Y-16502198D01*
X6707920Y-16502198D02*
X6717444Y-16511722D01*
X6717444Y-16511722D02*
X6726967Y-16530769D01*
X6726967Y-16530769D02*
X6726967Y-16578388D01*
X6726967Y-16578388D02*
X6717444Y-16597436D01*
X6717444Y-16597436D02*
X6707920Y-16606960D01*
X6707920Y-16606960D02*
X6688872Y-16616484D01*
X6688872Y-16616484D02*
X6641253Y-16616484D01*
X6641253Y-16616484D02*
X6622206Y-16606960D01*
X6622206Y-16606960D02*
X6612682Y-16597436D01*
X6793634Y-16416484D02*
X6926967Y-16416484D01*
X6926967Y-16416484D02*
X6841253Y-16616484D01*
X6993634Y-16416484D02*
X6993634Y-16454579D01*
X7069825Y-16416484D02*
X7069825Y-16454579D01*
X7365063Y-16692674D02*
X7355539Y-16683150D01*
X7355539Y-16683150D02*
X7336491Y-16654579D01*
X7336491Y-16654579D02*
X7326968Y-16635531D01*
X7326968Y-16635531D02*
X7317444Y-16606960D01*
X7317444Y-16606960D02*
X7307920Y-16559341D01*
X7307920Y-16559341D02*
X7307920Y-16521246D01*
X7307920Y-16521246D02*
X7317444Y-16473627D01*
X7317444Y-16473627D02*
X7326968Y-16445055D01*
X7326968Y-16445055D02*
X7336491Y-16426008D01*
X7336491Y-16426008D02*
X7355539Y-16397436D01*
X7355539Y-16397436D02*
X7365063Y-16387912D01*
X7431729Y-16435531D02*
X7441253Y-16426008D01*
X7441253Y-16426008D02*
X7460301Y-16416484D01*
X7460301Y-16416484D02*
X7507920Y-16416484D01*
X7507920Y-16416484D02*
X7526968Y-16426008D01*
X7526968Y-16426008D02*
X7536491Y-16435531D01*
X7536491Y-16435531D02*
X7546015Y-16454579D01*
X7546015Y-16454579D02*
X7546015Y-16473627D01*
X7546015Y-16473627D02*
X7536491Y-16502198D01*
X7536491Y-16502198D02*
X7422206Y-16616484D01*
X7422206Y-16616484D02*
X7546015Y-16616484D01*
X7669825Y-16416484D02*
X7688872Y-16416484D01*
X7688872Y-16416484D02*
X7707920Y-16426008D01*
X7707920Y-16426008D02*
X7717444Y-16435531D01*
X7717444Y-16435531D02*
X7726968Y-16454579D01*
X7726968Y-16454579D02*
X7736491Y-16492674D01*
X7736491Y-16492674D02*
X7736491Y-16540293D01*
X7736491Y-16540293D02*
X7726968Y-16578388D01*
X7726968Y-16578388D02*
X7717444Y-16597436D01*
X7717444Y-16597436D02*
X7707920Y-16606960D01*
X7707920Y-16606960D02*
X7688872Y-16616484D01*
X7688872Y-16616484D02*
X7669825Y-16616484D01*
X7669825Y-16616484D02*
X7650777Y-16606960D01*
X7650777Y-16606960D02*
X7641253Y-16597436D01*
X7641253Y-16597436D02*
X7631729Y-16578388D01*
X7631729Y-16578388D02*
X7622206Y-16540293D01*
X7622206Y-16540293D02*
X7622206Y-16492674D01*
X7622206Y-16492674D02*
X7631729Y-16454579D01*
X7631729Y-16454579D02*
X7641253Y-16435531D01*
X7641253Y-16435531D02*
X7650777Y-16426008D01*
X7650777Y-16426008D02*
X7669825Y-16416484D01*
X7803158Y-16416484D02*
X7926968Y-16416484D01*
X7926968Y-16416484D02*
X7860301Y-16492674D01*
X7860301Y-16492674D02*
X7888872Y-16492674D01*
X7888872Y-16492674D02*
X7907920Y-16502198D01*
X7907920Y-16502198D02*
X7917444Y-16511722D01*
X7917444Y-16511722D02*
X7926968Y-16530769D01*
X7926968Y-16530769D02*
X7926968Y-16578388D01*
X7926968Y-16578388D02*
X7917444Y-16597436D01*
X7917444Y-16597436D02*
X7907920Y-16606960D01*
X7907920Y-16606960D02*
X7888872Y-16616484D01*
X7888872Y-16616484D02*
X7831729Y-16616484D01*
X7831729Y-16616484D02*
X7812682Y-16606960D01*
X7812682Y-16606960D02*
X7803158Y-16597436D01*
X8165063Y-16616484D02*
X8165063Y-16416484D01*
X8250777Y-16616484D02*
X8250777Y-16511722D01*
X8250777Y-16511722D02*
X8241253Y-16492674D01*
X8241253Y-16492674D02*
X8222206Y-16483150D01*
X8222206Y-16483150D02*
X8193634Y-16483150D01*
X8193634Y-16483150D02*
X8174587Y-16492674D01*
X8174587Y-16492674D02*
X8165063Y-16502198D01*
X8374587Y-16616484D02*
X8355539Y-16606960D01*
X8355539Y-16606960D02*
X8346015Y-16597436D01*
X8346015Y-16597436D02*
X8336491Y-16578388D01*
X8336491Y-16578388D02*
X8336491Y-16521246D01*
X8336491Y-16521246D02*
X8346015Y-16502198D01*
X8346015Y-16502198D02*
X8355539Y-16492674D01*
X8355539Y-16492674D02*
X8374587Y-16483150D01*
X8374587Y-16483150D02*
X8403158Y-16483150D01*
X8403158Y-16483150D02*
X8422206Y-16492674D01*
X8422206Y-16492674D02*
X8431730Y-16502198D01*
X8431730Y-16502198D02*
X8441253Y-16521246D01*
X8441253Y-16521246D02*
X8441253Y-16578388D01*
X8441253Y-16578388D02*
X8431730Y-16597436D01*
X8431730Y-16597436D02*
X8422206Y-16606960D01*
X8422206Y-16606960D02*
X8403158Y-16616484D01*
X8403158Y-16616484D02*
X8374587Y-16616484D01*
X8555539Y-16616484D02*
X8536492Y-16606960D01*
X8536492Y-16606960D02*
X8526968Y-16587912D01*
X8526968Y-16587912D02*
X8526968Y-16416484D01*
X8707920Y-16606960D02*
X8688873Y-16616484D01*
X8688873Y-16616484D02*
X8650777Y-16616484D01*
X8650777Y-16616484D02*
X8631730Y-16606960D01*
X8631730Y-16606960D02*
X8622206Y-16587912D01*
X8622206Y-16587912D02*
X8622206Y-16511722D01*
X8622206Y-16511722D02*
X8631730Y-16492674D01*
X8631730Y-16492674D02*
X8650777Y-16483150D01*
X8650777Y-16483150D02*
X8688873Y-16483150D01*
X8688873Y-16483150D02*
X8707920Y-16492674D01*
X8707920Y-16492674D02*
X8717444Y-16511722D01*
X8717444Y-16511722D02*
X8717444Y-16530769D01*
X8717444Y-16530769D02*
X8622206Y-16549817D01*
X8793634Y-16606960D02*
X8812682Y-16616484D01*
X8812682Y-16616484D02*
X8850777Y-16616484D01*
X8850777Y-16616484D02*
X8869825Y-16606960D01*
X8869825Y-16606960D02*
X8879349Y-16587912D01*
X8879349Y-16587912D02*
X8879349Y-16578388D01*
X8879349Y-16578388D02*
X8869825Y-16559341D01*
X8869825Y-16559341D02*
X8850777Y-16549817D01*
X8850777Y-16549817D02*
X8822206Y-16549817D01*
X8822206Y-16549817D02*
X8803158Y-16540293D01*
X8803158Y-16540293D02*
X8793634Y-16521246D01*
X8793634Y-16521246D02*
X8793634Y-16511722D01*
X8793634Y-16511722D02*
X8803158Y-16492674D01*
X8803158Y-16492674D02*
X8822206Y-16483150D01*
X8822206Y-16483150D02*
X8850777Y-16483150D01*
X8850777Y-16483150D02*
X8869825Y-16492674D01*
X8946015Y-16692674D02*
X8955539Y-16683150D01*
X8955539Y-16683150D02*
X8974587Y-16654579D01*
X8974587Y-16654579D02*
X8984111Y-16635531D01*
X8984111Y-16635531D02*
X8993634Y-16606960D01*
X8993634Y-16606960D02*
X9003158Y-16559341D01*
X9003158Y-16559341D02*
X9003158Y-16521246D01*
X9003158Y-16521246D02*
X8993634Y-16473627D01*
X8993634Y-16473627D02*
X8984111Y-16445055D01*
X8984111Y-16445055D02*
X8974587Y-16426008D01*
X8974587Y-16426008D02*
X8955539Y-16397436D01*
X8955539Y-16397436D02*
X8946015Y-16387912D01*
D12*
X3790000Y-16789000D02*
G75*
G03*
X3790000Y-16789000I-37500J0D01*
G01*
D10*
X4088872Y-16680484D02*
X4107920Y-16680484D01*
X4107920Y-16680484D02*
X4126967Y-16690008D01*
X4126967Y-16690008D02*
X4136491Y-16699531D01*
X4136491Y-16699531D02*
X4146015Y-16718579D01*
X4146015Y-16718579D02*
X4155539Y-16756674D01*
X4155539Y-16756674D02*
X4155539Y-16804293D01*
X4155539Y-16804293D02*
X4146015Y-16842389D01*
X4146015Y-16842389D02*
X4136491Y-16861436D01*
X4136491Y-16861436D02*
X4126967Y-16870960D01*
X4126967Y-16870960D02*
X4107920Y-16880484D01*
X4107920Y-16880484D02*
X4088872Y-16880484D01*
X4088872Y-16880484D02*
X4069824Y-16870960D01*
X4069824Y-16870960D02*
X4060301Y-16861436D01*
X4060301Y-16861436D02*
X4050777Y-16842389D01*
X4050777Y-16842389D02*
X4041253Y-16804293D01*
X4041253Y-16804293D02*
X4041253Y-16756674D01*
X4041253Y-16756674D02*
X4050777Y-16718579D01*
X4050777Y-16718579D02*
X4060301Y-16699531D01*
X4060301Y-16699531D02*
X4069824Y-16690008D01*
X4069824Y-16690008D02*
X4088872Y-16680484D01*
X4241253Y-16861436D02*
X4250777Y-16870960D01*
X4250777Y-16870960D02*
X4241253Y-16880484D01*
X4241253Y-16880484D02*
X4231729Y-16870960D01*
X4231729Y-16870960D02*
X4241253Y-16861436D01*
X4241253Y-16861436D02*
X4241253Y-16880484D01*
X4317444Y-16680484D02*
X4450777Y-16680484D01*
X4450777Y-16680484D02*
X4365063Y-16880484D01*
X4622205Y-16680484D02*
X4526967Y-16680484D01*
X4526967Y-16680484D02*
X4517444Y-16775722D01*
X4517444Y-16775722D02*
X4526967Y-16766198D01*
X4526967Y-16766198D02*
X4546015Y-16756674D01*
X4546015Y-16756674D02*
X4593634Y-16756674D01*
X4593634Y-16756674D02*
X4612682Y-16766198D01*
X4612682Y-16766198D02*
X4622205Y-16775722D01*
X4622205Y-16775722D02*
X4631729Y-16794770D01*
X4631729Y-16794770D02*
X4631729Y-16842389D01*
X4631729Y-16842389D02*
X4622205Y-16861436D01*
X4622205Y-16861436D02*
X4612682Y-16870960D01*
X4612682Y-16870960D02*
X4593634Y-16880484D01*
X4593634Y-16880484D02*
X4546015Y-16880484D01*
X4546015Y-16880484D02*
X4526967Y-16870960D01*
X4526967Y-16870960D02*
X4517444Y-16861436D01*
X4755539Y-16680484D02*
X4774586Y-16680484D01*
X4774586Y-16680484D02*
X4793634Y-16690008D01*
X4793634Y-16690008D02*
X4803158Y-16699531D01*
X4803158Y-16699531D02*
X4812682Y-16718579D01*
X4812682Y-16718579D02*
X4822205Y-16756674D01*
X4822205Y-16756674D02*
X4822205Y-16804293D01*
X4822205Y-16804293D02*
X4812682Y-16842389D01*
X4812682Y-16842389D02*
X4803158Y-16861436D01*
X4803158Y-16861436D02*
X4793634Y-16870960D01*
X4793634Y-16870960D02*
X4774586Y-16880484D01*
X4774586Y-16880484D02*
X4755539Y-16880484D01*
X4755539Y-16880484D02*
X4736491Y-16870960D01*
X4736491Y-16870960D02*
X4726967Y-16861436D01*
X4726967Y-16861436D02*
X4717444Y-16842389D01*
X4717444Y-16842389D02*
X4707920Y-16804293D01*
X4707920Y-16804293D02*
X4707920Y-16756674D01*
X4707920Y-16756674D02*
X4717444Y-16718579D01*
X4717444Y-16718579D02*
X4726967Y-16699531D01*
X4726967Y-16699531D02*
X4736491Y-16690008D01*
X4736491Y-16690008D02*
X4755539Y-16680484D01*
X4907920Y-16880484D02*
X4907920Y-16747150D01*
X4907920Y-16766198D02*
X4917444Y-16756674D01*
X4917444Y-16756674D02*
X4936491Y-16747150D01*
X4936491Y-16747150D02*
X4965063Y-16747150D01*
X4965063Y-16747150D02*
X4984110Y-16756674D01*
X4984110Y-16756674D02*
X4993634Y-16775722D01*
X4993634Y-16775722D02*
X4993634Y-16880484D01*
X4993634Y-16775722D02*
X5003158Y-16756674D01*
X5003158Y-16756674D02*
X5022205Y-16747150D01*
X5022205Y-16747150D02*
X5050777Y-16747150D01*
X5050777Y-16747150D02*
X5069825Y-16756674D01*
X5069825Y-16756674D02*
X5079348Y-16775722D01*
X5079348Y-16775722D02*
X5079348Y-16880484D01*
X5174586Y-16880484D02*
X5174586Y-16747150D01*
X5174586Y-16766198D02*
X5184110Y-16756674D01*
X5184110Y-16756674D02*
X5203158Y-16747150D01*
X5203158Y-16747150D02*
X5231729Y-16747150D01*
X5231729Y-16747150D02*
X5250777Y-16756674D01*
X5250777Y-16756674D02*
X5260301Y-16775722D01*
X5260301Y-16775722D02*
X5260301Y-16880484D01*
X5260301Y-16775722D02*
X5269825Y-16756674D01*
X5269825Y-16756674D02*
X5288872Y-16747150D01*
X5288872Y-16747150D02*
X5317444Y-16747150D01*
X5317444Y-16747150D02*
X5336491Y-16756674D01*
X5336491Y-16756674D02*
X5346015Y-16775722D01*
X5346015Y-16775722D02*
X5346015Y-16880484D01*
X5736491Y-16670960D02*
X5565063Y-16928103D01*
X5993634Y-16680484D02*
X6012682Y-16680484D01*
X6012682Y-16680484D02*
X6031729Y-16690008D01*
X6031729Y-16690008D02*
X6041253Y-16699531D01*
X6041253Y-16699531D02*
X6050777Y-16718579D01*
X6050777Y-16718579D02*
X6060301Y-16756674D01*
X6060301Y-16756674D02*
X6060301Y-16804293D01*
X6060301Y-16804293D02*
X6050777Y-16842389D01*
X6050777Y-16842389D02*
X6041253Y-16861436D01*
X6041253Y-16861436D02*
X6031729Y-16870960D01*
X6031729Y-16870960D02*
X6012682Y-16880484D01*
X6012682Y-16880484D02*
X5993634Y-16880484D01*
X5993634Y-16880484D02*
X5974586Y-16870960D01*
X5974586Y-16870960D02*
X5965063Y-16861436D01*
X5965063Y-16861436D02*
X5955539Y-16842389D01*
X5955539Y-16842389D02*
X5946015Y-16804293D01*
X5946015Y-16804293D02*
X5946015Y-16756674D01*
X5946015Y-16756674D02*
X5955539Y-16718579D01*
X5955539Y-16718579D02*
X5965063Y-16699531D01*
X5965063Y-16699531D02*
X5974586Y-16690008D01*
X5974586Y-16690008D02*
X5993634Y-16680484D01*
X6146015Y-16861436D02*
X6155539Y-16870960D01*
X6155539Y-16870960D02*
X6146015Y-16880484D01*
X6146015Y-16880484D02*
X6136491Y-16870960D01*
X6136491Y-16870960D02*
X6146015Y-16861436D01*
X6146015Y-16861436D02*
X6146015Y-16880484D01*
X6279348Y-16680484D02*
X6298396Y-16680484D01*
X6298396Y-16680484D02*
X6317444Y-16690008D01*
X6317444Y-16690008D02*
X6326967Y-16699531D01*
X6326967Y-16699531D02*
X6336491Y-16718579D01*
X6336491Y-16718579D02*
X6346015Y-16756674D01*
X6346015Y-16756674D02*
X6346015Y-16804293D01*
X6346015Y-16804293D02*
X6336491Y-16842389D01*
X6336491Y-16842389D02*
X6326967Y-16861436D01*
X6326967Y-16861436D02*
X6317444Y-16870960D01*
X6317444Y-16870960D02*
X6298396Y-16880484D01*
X6298396Y-16880484D02*
X6279348Y-16880484D01*
X6279348Y-16880484D02*
X6260301Y-16870960D01*
X6260301Y-16870960D02*
X6250777Y-16861436D01*
X6250777Y-16861436D02*
X6241253Y-16842389D01*
X6241253Y-16842389D02*
X6231729Y-16804293D01*
X6231729Y-16804293D02*
X6231729Y-16756674D01*
X6231729Y-16756674D02*
X6241253Y-16718579D01*
X6241253Y-16718579D02*
X6250777Y-16699531D01*
X6250777Y-16699531D02*
X6260301Y-16690008D01*
X6260301Y-16690008D02*
X6279348Y-16680484D01*
X6422206Y-16699531D02*
X6431729Y-16690008D01*
X6431729Y-16690008D02*
X6450777Y-16680484D01*
X6450777Y-16680484D02*
X6498396Y-16680484D01*
X6498396Y-16680484D02*
X6517444Y-16690008D01*
X6517444Y-16690008D02*
X6526967Y-16699531D01*
X6526967Y-16699531D02*
X6536491Y-16718579D01*
X6536491Y-16718579D02*
X6536491Y-16737627D01*
X6536491Y-16737627D02*
X6526967Y-16766198D01*
X6526967Y-16766198D02*
X6412682Y-16880484D01*
X6412682Y-16880484D02*
X6536491Y-16880484D01*
X6631729Y-16880484D02*
X6669825Y-16880484D01*
X6669825Y-16880484D02*
X6688872Y-16870960D01*
X6688872Y-16870960D02*
X6698396Y-16861436D01*
X6698396Y-16861436D02*
X6717444Y-16832865D01*
X6717444Y-16832865D02*
X6726967Y-16794770D01*
X6726967Y-16794770D02*
X6726967Y-16718579D01*
X6726967Y-16718579D02*
X6717444Y-16699531D01*
X6717444Y-16699531D02*
X6707920Y-16690008D01*
X6707920Y-16690008D02*
X6688872Y-16680484D01*
X6688872Y-16680484D02*
X6650777Y-16680484D01*
X6650777Y-16680484D02*
X6631729Y-16690008D01*
X6631729Y-16690008D02*
X6622206Y-16699531D01*
X6622206Y-16699531D02*
X6612682Y-16718579D01*
X6612682Y-16718579D02*
X6612682Y-16766198D01*
X6612682Y-16766198D02*
X6622206Y-16785246D01*
X6622206Y-16785246D02*
X6631729Y-16794770D01*
X6631729Y-16794770D02*
X6650777Y-16804293D01*
X6650777Y-16804293D02*
X6688872Y-16804293D01*
X6688872Y-16804293D02*
X6707920Y-16794770D01*
X6707920Y-16794770D02*
X6717444Y-16785246D01*
X6717444Y-16785246D02*
X6726967Y-16766198D01*
X6907920Y-16680484D02*
X6812682Y-16680484D01*
X6812682Y-16680484D02*
X6803158Y-16775722D01*
X6803158Y-16775722D02*
X6812682Y-16766198D01*
X6812682Y-16766198D02*
X6831729Y-16756674D01*
X6831729Y-16756674D02*
X6879348Y-16756674D01*
X6879348Y-16756674D02*
X6898396Y-16766198D01*
X6898396Y-16766198D02*
X6907920Y-16775722D01*
X6907920Y-16775722D02*
X6917444Y-16794770D01*
X6917444Y-16794770D02*
X6917444Y-16842389D01*
X6917444Y-16842389D02*
X6907920Y-16861436D01*
X6907920Y-16861436D02*
X6898396Y-16870960D01*
X6898396Y-16870960D02*
X6879348Y-16880484D01*
X6879348Y-16880484D02*
X6831729Y-16880484D01*
X6831729Y-16880484D02*
X6812682Y-16870960D01*
X6812682Y-16870960D02*
X6803158Y-16861436D01*
X6993634Y-16680484D02*
X6993634Y-16718579D01*
X7069825Y-16680484D02*
X7069825Y-16718579D01*
X7365063Y-16956674D02*
X7355539Y-16947150D01*
X7355539Y-16947150D02*
X7336491Y-16918579D01*
X7336491Y-16918579D02*
X7326968Y-16899531D01*
X7326968Y-16899531D02*
X7317444Y-16870960D01*
X7317444Y-16870960D02*
X7307920Y-16823341D01*
X7307920Y-16823341D02*
X7307920Y-16785246D01*
X7307920Y-16785246D02*
X7317444Y-16737627D01*
X7317444Y-16737627D02*
X7326968Y-16709055D01*
X7326968Y-16709055D02*
X7336491Y-16690008D01*
X7336491Y-16690008D02*
X7355539Y-16661436D01*
X7355539Y-16661436D02*
X7365063Y-16651912D01*
X7422206Y-16680484D02*
X7546015Y-16680484D01*
X7546015Y-16680484D02*
X7479348Y-16756674D01*
X7479348Y-16756674D02*
X7507920Y-16756674D01*
X7507920Y-16756674D02*
X7526968Y-16766198D01*
X7526968Y-16766198D02*
X7536491Y-16775722D01*
X7536491Y-16775722D02*
X7546015Y-16794770D01*
X7546015Y-16794770D02*
X7546015Y-16842389D01*
X7546015Y-16842389D02*
X7536491Y-16861436D01*
X7536491Y-16861436D02*
X7526968Y-16870960D01*
X7526968Y-16870960D02*
X7507920Y-16880484D01*
X7507920Y-16880484D02*
X7450777Y-16880484D01*
X7450777Y-16880484D02*
X7431729Y-16870960D01*
X7431729Y-16870960D02*
X7422206Y-16861436D01*
X7784110Y-16880484D02*
X7784110Y-16680484D01*
X7869825Y-16880484D02*
X7869825Y-16775722D01*
X7869825Y-16775722D02*
X7860301Y-16756674D01*
X7860301Y-16756674D02*
X7841253Y-16747150D01*
X7841253Y-16747150D02*
X7812682Y-16747150D01*
X7812682Y-16747150D02*
X7793634Y-16756674D01*
X7793634Y-16756674D02*
X7784110Y-16766198D01*
X7993634Y-16880484D02*
X7974587Y-16870960D01*
X7974587Y-16870960D02*
X7965063Y-16861436D01*
X7965063Y-16861436D02*
X7955539Y-16842389D01*
X7955539Y-16842389D02*
X7955539Y-16785246D01*
X7955539Y-16785246D02*
X7965063Y-16766198D01*
X7965063Y-16766198D02*
X7974587Y-16756674D01*
X7974587Y-16756674D02*
X7993634Y-16747150D01*
X7993634Y-16747150D02*
X8022206Y-16747150D01*
X8022206Y-16747150D02*
X8041253Y-16756674D01*
X8041253Y-16756674D02*
X8050777Y-16766198D01*
X8050777Y-16766198D02*
X8060301Y-16785246D01*
X8060301Y-16785246D02*
X8060301Y-16842389D01*
X8060301Y-16842389D02*
X8050777Y-16861436D01*
X8050777Y-16861436D02*
X8041253Y-16870960D01*
X8041253Y-16870960D02*
X8022206Y-16880484D01*
X8022206Y-16880484D02*
X7993634Y-16880484D01*
X8174587Y-16880484D02*
X8155539Y-16870960D01*
X8155539Y-16870960D02*
X8146015Y-16851912D01*
X8146015Y-16851912D02*
X8146015Y-16680484D01*
X8326968Y-16870960D02*
X8307920Y-16880484D01*
X8307920Y-16880484D02*
X8269825Y-16880484D01*
X8269825Y-16880484D02*
X8250777Y-16870960D01*
X8250777Y-16870960D02*
X8241253Y-16851912D01*
X8241253Y-16851912D02*
X8241253Y-16775722D01*
X8241253Y-16775722D02*
X8250777Y-16756674D01*
X8250777Y-16756674D02*
X8269825Y-16747150D01*
X8269825Y-16747150D02*
X8307920Y-16747150D01*
X8307920Y-16747150D02*
X8326968Y-16756674D01*
X8326968Y-16756674D02*
X8336491Y-16775722D01*
X8336491Y-16775722D02*
X8336491Y-16794770D01*
X8336491Y-16794770D02*
X8241253Y-16813817D01*
X8412682Y-16870960D02*
X8431730Y-16880484D01*
X8431730Y-16880484D02*
X8469825Y-16880484D01*
X8469825Y-16880484D02*
X8488873Y-16870960D01*
X8488873Y-16870960D02*
X8498396Y-16851912D01*
X8498396Y-16851912D02*
X8498396Y-16842389D01*
X8498396Y-16842389D02*
X8488873Y-16823341D01*
X8488873Y-16823341D02*
X8469825Y-16813817D01*
X8469825Y-16813817D02*
X8441253Y-16813817D01*
X8441253Y-16813817D02*
X8422206Y-16804293D01*
X8422206Y-16804293D02*
X8412682Y-16785246D01*
X8412682Y-16785246D02*
X8412682Y-16775722D01*
X8412682Y-16775722D02*
X8422206Y-16756674D01*
X8422206Y-16756674D02*
X8441253Y-16747150D01*
X8441253Y-16747150D02*
X8469825Y-16747150D01*
X8469825Y-16747150D02*
X8488873Y-16756674D01*
X8565063Y-16956674D02*
X8574587Y-16947150D01*
X8574587Y-16947150D02*
X8593634Y-16918579D01*
X8593634Y-16918579D02*
X8603158Y-16899531D01*
X8603158Y-16899531D02*
X8612682Y-16870960D01*
X8612682Y-16870960D02*
X8622206Y-16823341D01*
X8622206Y-16823341D02*
X8622206Y-16785246D01*
X8622206Y-16785246D02*
X8612682Y-16737627D01*
X8612682Y-16737627D02*
X8603158Y-16709055D01*
X8603158Y-16709055D02*
X8593634Y-16690008D01*
X8593634Y-16690008D02*
X8574587Y-16661436D01*
X8574587Y-16661436D02*
X8565063Y-16651912D01*
D12*
X3750000Y-17013000D02*
X3750000Y-17093000D01*
X3710000Y-17053000D02*
X3790000Y-17053000D01*
D10*
X4088872Y-16944484D02*
X4107920Y-16944484D01*
X4107920Y-16944484D02*
X4126967Y-16954008D01*
X4126967Y-16954008D02*
X4136491Y-16963531D01*
X4136491Y-16963531D02*
X4146015Y-16982579D01*
X4146015Y-16982579D02*
X4155539Y-17020674D01*
X4155539Y-17020674D02*
X4155539Y-17068293D01*
X4155539Y-17068293D02*
X4146015Y-17106389D01*
X4146015Y-17106389D02*
X4136491Y-17125436D01*
X4136491Y-17125436D02*
X4126967Y-17134960D01*
X4126967Y-17134960D02*
X4107920Y-17144484D01*
X4107920Y-17144484D02*
X4088872Y-17144484D01*
X4088872Y-17144484D02*
X4069824Y-17134960D01*
X4069824Y-17134960D02*
X4060301Y-17125436D01*
X4060301Y-17125436D02*
X4050777Y-17106389D01*
X4050777Y-17106389D02*
X4041253Y-17068293D01*
X4041253Y-17068293D02*
X4041253Y-17020674D01*
X4041253Y-17020674D02*
X4050777Y-16982579D01*
X4050777Y-16982579D02*
X4060301Y-16963531D01*
X4060301Y-16963531D02*
X4069824Y-16954008D01*
X4069824Y-16954008D02*
X4088872Y-16944484D01*
X4241253Y-17125436D02*
X4250777Y-17134960D01*
X4250777Y-17134960D02*
X4241253Y-17144484D01*
X4241253Y-17144484D02*
X4231729Y-17134960D01*
X4231729Y-17134960D02*
X4241253Y-17125436D01*
X4241253Y-17125436D02*
X4241253Y-17144484D01*
X4365063Y-17030198D02*
X4346015Y-17020674D01*
X4346015Y-17020674D02*
X4336491Y-17011150D01*
X4336491Y-17011150D02*
X4326967Y-16992103D01*
X4326967Y-16992103D02*
X4326967Y-16982579D01*
X4326967Y-16982579D02*
X4336491Y-16963531D01*
X4336491Y-16963531D02*
X4346015Y-16954008D01*
X4346015Y-16954008D02*
X4365063Y-16944484D01*
X4365063Y-16944484D02*
X4403158Y-16944484D01*
X4403158Y-16944484D02*
X4422205Y-16954008D01*
X4422205Y-16954008D02*
X4431729Y-16963531D01*
X4431729Y-16963531D02*
X4441253Y-16982579D01*
X4441253Y-16982579D02*
X4441253Y-16992103D01*
X4441253Y-16992103D02*
X4431729Y-17011150D01*
X4431729Y-17011150D02*
X4422205Y-17020674D01*
X4422205Y-17020674D02*
X4403158Y-17030198D01*
X4403158Y-17030198D02*
X4365063Y-17030198D01*
X4365063Y-17030198D02*
X4346015Y-17039722D01*
X4346015Y-17039722D02*
X4336491Y-17049246D01*
X4336491Y-17049246D02*
X4326967Y-17068293D01*
X4326967Y-17068293D02*
X4326967Y-17106389D01*
X4326967Y-17106389D02*
X4336491Y-17125436D01*
X4336491Y-17125436D02*
X4346015Y-17134960D01*
X4346015Y-17134960D02*
X4365063Y-17144484D01*
X4365063Y-17144484D02*
X4403158Y-17144484D01*
X4403158Y-17144484D02*
X4422205Y-17134960D01*
X4422205Y-17134960D02*
X4431729Y-17125436D01*
X4431729Y-17125436D02*
X4441253Y-17106389D01*
X4441253Y-17106389D02*
X4441253Y-17068293D01*
X4441253Y-17068293D02*
X4431729Y-17049246D01*
X4431729Y-17049246D02*
X4422205Y-17039722D01*
X4422205Y-17039722D02*
X4403158Y-17030198D01*
X4565063Y-16944484D02*
X4584110Y-16944484D01*
X4584110Y-16944484D02*
X4603158Y-16954008D01*
X4603158Y-16954008D02*
X4612682Y-16963531D01*
X4612682Y-16963531D02*
X4622205Y-16982579D01*
X4622205Y-16982579D02*
X4631729Y-17020674D01*
X4631729Y-17020674D02*
X4631729Y-17068293D01*
X4631729Y-17068293D02*
X4622205Y-17106389D01*
X4622205Y-17106389D02*
X4612682Y-17125436D01*
X4612682Y-17125436D02*
X4603158Y-17134960D01*
X4603158Y-17134960D02*
X4584110Y-17144484D01*
X4584110Y-17144484D02*
X4565063Y-17144484D01*
X4565063Y-17144484D02*
X4546015Y-17134960D01*
X4546015Y-17134960D02*
X4536491Y-17125436D01*
X4536491Y-17125436D02*
X4526967Y-17106389D01*
X4526967Y-17106389D02*
X4517444Y-17068293D01*
X4517444Y-17068293D02*
X4517444Y-17020674D01*
X4517444Y-17020674D02*
X4526967Y-16982579D01*
X4526967Y-16982579D02*
X4536491Y-16963531D01*
X4536491Y-16963531D02*
X4546015Y-16954008D01*
X4546015Y-16954008D02*
X4565063Y-16944484D01*
X4755539Y-16944484D02*
X4774586Y-16944484D01*
X4774586Y-16944484D02*
X4793634Y-16954008D01*
X4793634Y-16954008D02*
X4803158Y-16963531D01*
X4803158Y-16963531D02*
X4812682Y-16982579D01*
X4812682Y-16982579D02*
X4822205Y-17020674D01*
X4822205Y-17020674D02*
X4822205Y-17068293D01*
X4822205Y-17068293D02*
X4812682Y-17106389D01*
X4812682Y-17106389D02*
X4803158Y-17125436D01*
X4803158Y-17125436D02*
X4793634Y-17134960D01*
X4793634Y-17134960D02*
X4774586Y-17144484D01*
X4774586Y-17144484D02*
X4755539Y-17144484D01*
X4755539Y-17144484D02*
X4736491Y-17134960D01*
X4736491Y-17134960D02*
X4726967Y-17125436D01*
X4726967Y-17125436D02*
X4717444Y-17106389D01*
X4717444Y-17106389D02*
X4707920Y-17068293D01*
X4707920Y-17068293D02*
X4707920Y-17020674D01*
X4707920Y-17020674D02*
X4717444Y-16982579D01*
X4717444Y-16982579D02*
X4726967Y-16963531D01*
X4726967Y-16963531D02*
X4736491Y-16954008D01*
X4736491Y-16954008D02*
X4755539Y-16944484D01*
X4907920Y-17144484D02*
X4907920Y-17011150D01*
X4907920Y-17030198D02*
X4917444Y-17020674D01*
X4917444Y-17020674D02*
X4936491Y-17011150D01*
X4936491Y-17011150D02*
X4965063Y-17011150D01*
X4965063Y-17011150D02*
X4984110Y-17020674D01*
X4984110Y-17020674D02*
X4993634Y-17039722D01*
X4993634Y-17039722D02*
X4993634Y-17144484D01*
X4993634Y-17039722D02*
X5003158Y-17020674D01*
X5003158Y-17020674D02*
X5022205Y-17011150D01*
X5022205Y-17011150D02*
X5050777Y-17011150D01*
X5050777Y-17011150D02*
X5069825Y-17020674D01*
X5069825Y-17020674D02*
X5079348Y-17039722D01*
X5079348Y-17039722D02*
X5079348Y-17144484D01*
X5174586Y-17144484D02*
X5174586Y-17011150D01*
X5174586Y-17030198D02*
X5184110Y-17020674D01*
X5184110Y-17020674D02*
X5203158Y-17011150D01*
X5203158Y-17011150D02*
X5231729Y-17011150D01*
X5231729Y-17011150D02*
X5250777Y-17020674D01*
X5250777Y-17020674D02*
X5260301Y-17039722D01*
X5260301Y-17039722D02*
X5260301Y-17144484D01*
X5260301Y-17039722D02*
X5269825Y-17020674D01*
X5269825Y-17020674D02*
X5288872Y-17011150D01*
X5288872Y-17011150D02*
X5317444Y-17011150D01*
X5317444Y-17011150D02*
X5336491Y-17020674D01*
X5336491Y-17020674D02*
X5346015Y-17039722D01*
X5346015Y-17039722D02*
X5346015Y-17144484D01*
X5736491Y-16934960D02*
X5565063Y-17192103D01*
X5993634Y-16944484D02*
X6012682Y-16944484D01*
X6012682Y-16944484D02*
X6031729Y-16954008D01*
X6031729Y-16954008D02*
X6041253Y-16963531D01*
X6041253Y-16963531D02*
X6050777Y-16982579D01*
X6050777Y-16982579D02*
X6060301Y-17020674D01*
X6060301Y-17020674D02*
X6060301Y-17068293D01*
X6060301Y-17068293D02*
X6050777Y-17106389D01*
X6050777Y-17106389D02*
X6041253Y-17125436D01*
X6041253Y-17125436D02*
X6031729Y-17134960D01*
X6031729Y-17134960D02*
X6012682Y-17144484D01*
X6012682Y-17144484D02*
X5993634Y-17144484D01*
X5993634Y-17144484D02*
X5974586Y-17134960D01*
X5974586Y-17134960D02*
X5965063Y-17125436D01*
X5965063Y-17125436D02*
X5955539Y-17106389D01*
X5955539Y-17106389D02*
X5946015Y-17068293D01*
X5946015Y-17068293D02*
X5946015Y-17020674D01*
X5946015Y-17020674D02*
X5955539Y-16982579D01*
X5955539Y-16982579D02*
X5965063Y-16963531D01*
X5965063Y-16963531D02*
X5974586Y-16954008D01*
X5974586Y-16954008D02*
X5993634Y-16944484D01*
X6146015Y-17125436D02*
X6155539Y-17134960D01*
X6155539Y-17134960D02*
X6146015Y-17144484D01*
X6146015Y-17144484D02*
X6136491Y-17134960D01*
X6136491Y-17134960D02*
X6146015Y-17125436D01*
X6146015Y-17125436D02*
X6146015Y-17144484D01*
X6279348Y-16944484D02*
X6298396Y-16944484D01*
X6298396Y-16944484D02*
X6317444Y-16954008D01*
X6317444Y-16954008D02*
X6326967Y-16963531D01*
X6326967Y-16963531D02*
X6336491Y-16982579D01*
X6336491Y-16982579D02*
X6346015Y-17020674D01*
X6346015Y-17020674D02*
X6346015Y-17068293D01*
X6346015Y-17068293D02*
X6336491Y-17106389D01*
X6336491Y-17106389D02*
X6326967Y-17125436D01*
X6326967Y-17125436D02*
X6317444Y-17134960D01*
X6317444Y-17134960D02*
X6298396Y-17144484D01*
X6298396Y-17144484D02*
X6279348Y-17144484D01*
X6279348Y-17144484D02*
X6260301Y-17134960D01*
X6260301Y-17134960D02*
X6250777Y-17125436D01*
X6250777Y-17125436D02*
X6241253Y-17106389D01*
X6241253Y-17106389D02*
X6231729Y-17068293D01*
X6231729Y-17068293D02*
X6231729Y-17020674D01*
X6231729Y-17020674D02*
X6241253Y-16982579D01*
X6241253Y-16982579D02*
X6250777Y-16963531D01*
X6250777Y-16963531D02*
X6260301Y-16954008D01*
X6260301Y-16954008D02*
X6279348Y-16944484D01*
X6412682Y-16944484D02*
X6536491Y-16944484D01*
X6536491Y-16944484D02*
X6469825Y-17020674D01*
X6469825Y-17020674D02*
X6498396Y-17020674D01*
X6498396Y-17020674D02*
X6517444Y-17030198D01*
X6517444Y-17030198D02*
X6526967Y-17039722D01*
X6526967Y-17039722D02*
X6536491Y-17058770D01*
X6536491Y-17058770D02*
X6536491Y-17106389D01*
X6536491Y-17106389D02*
X6526967Y-17125436D01*
X6526967Y-17125436D02*
X6517444Y-17134960D01*
X6517444Y-17134960D02*
X6498396Y-17144484D01*
X6498396Y-17144484D02*
X6441253Y-17144484D01*
X6441253Y-17144484D02*
X6422206Y-17134960D01*
X6422206Y-17134960D02*
X6412682Y-17125436D01*
X6726967Y-17144484D02*
X6612682Y-17144484D01*
X6669825Y-17144484D02*
X6669825Y-16944484D01*
X6669825Y-16944484D02*
X6650777Y-16973055D01*
X6650777Y-16973055D02*
X6631729Y-16992103D01*
X6631729Y-16992103D02*
X6612682Y-17001627D01*
X6907920Y-16944484D02*
X6812682Y-16944484D01*
X6812682Y-16944484D02*
X6803158Y-17039722D01*
X6803158Y-17039722D02*
X6812682Y-17030198D01*
X6812682Y-17030198D02*
X6831729Y-17020674D01*
X6831729Y-17020674D02*
X6879348Y-17020674D01*
X6879348Y-17020674D02*
X6898396Y-17030198D01*
X6898396Y-17030198D02*
X6907920Y-17039722D01*
X6907920Y-17039722D02*
X6917444Y-17058770D01*
X6917444Y-17058770D02*
X6917444Y-17106389D01*
X6917444Y-17106389D02*
X6907920Y-17125436D01*
X6907920Y-17125436D02*
X6898396Y-17134960D01*
X6898396Y-17134960D02*
X6879348Y-17144484D01*
X6879348Y-17144484D02*
X6831729Y-17144484D01*
X6831729Y-17144484D02*
X6812682Y-17134960D01*
X6812682Y-17134960D02*
X6803158Y-17125436D01*
X6993634Y-16944484D02*
X6993634Y-16982579D01*
X7069825Y-16944484D02*
X7069825Y-16982579D01*
X7365063Y-17220674D02*
X7355539Y-17211150D01*
X7355539Y-17211150D02*
X7336491Y-17182579D01*
X7336491Y-17182579D02*
X7326968Y-17163531D01*
X7326968Y-17163531D02*
X7317444Y-17134960D01*
X7317444Y-17134960D02*
X7307920Y-17087341D01*
X7307920Y-17087341D02*
X7307920Y-17049246D01*
X7307920Y-17049246D02*
X7317444Y-17001627D01*
X7317444Y-17001627D02*
X7326968Y-16973055D01*
X7326968Y-16973055D02*
X7336491Y-16954008D01*
X7336491Y-16954008D02*
X7355539Y-16925436D01*
X7355539Y-16925436D02*
X7365063Y-16915912D01*
X7469825Y-17030198D02*
X7450777Y-17020674D01*
X7450777Y-17020674D02*
X7441253Y-17011150D01*
X7441253Y-17011150D02*
X7431729Y-16992103D01*
X7431729Y-16992103D02*
X7431729Y-16982579D01*
X7431729Y-16982579D02*
X7441253Y-16963531D01*
X7441253Y-16963531D02*
X7450777Y-16954008D01*
X7450777Y-16954008D02*
X7469825Y-16944484D01*
X7469825Y-16944484D02*
X7507920Y-16944484D01*
X7507920Y-16944484D02*
X7526968Y-16954008D01*
X7526968Y-16954008D02*
X7536491Y-16963531D01*
X7536491Y-16963531D02*
X7546015Y-16982579D01*
X7546015Y-16982579D02*
X7546015Y-16992103D01*
X7546015Y-16992103D02*
X7536491Y-17011150D01*
X7536491Y-17011150D02*
X7526968Y-17020674D01*
X7526968Y-17020674D02*
X7507920Y-17030198D01*
X7507920Y-17030198D02*
X7469825Y-17030198D01*
X7469825Y-17030198D02*
X7450777Y-17039722D01*
X7450777Y-17039722D02*
X7441253Y-17049246D01*
X7441253Y-17049246D02*
X7431729Y-17068293D01*
X7431729Y-17068293D02*
X7431729Y-17106389D01*
X7431729Y-17106389D02*
X7441253Y-17125436D01*
X7441253Y-17125436D02*
X7450777Y-17134960D01*
X7450777Y-17134960D02*
X7469825Y-17144484D01*
X7469825Y-17144484D02*
X7507920Y-17144484D01*
X7507920Y-17144484D02*
X7526968Y-17134960D01*
X7526968Y-17134960D02*
X7536491Y-17125436D01*
X7536491Y-17125436D02*
X7546015Y-17106389D01*
X7546015Y-17106389D02*
X7546015Y-17068293D01*
X7546015Y-17068293D02*
X7536491Y-17049246D01*
X7536491Y-17049246D02*
X7526968Y-17039722D01*
X7526968Y-17039722D02*
X7507920Y-17030198D01*
X7784110Y-17144484D02*
X7784110Y-16944484D01*
X7869825Y-17144484D02*
X7869825Y-17039722D01*
X7869825Y-17039722D02*
X7860301Y-17020674D01*
X7860301Y-17020674D02*
X7841253Y-17011150D01*
X7841253Y-17011150D02*
X7812682Y-17011150D01*
X7812682Y-17011150D02*
X7793634Y-17020674D01*
X7793634Y-17020674D02*
X7784110Y-17030198D01*
X7993634Y-17144484D02*
X7974587Y-17134960D01*
X7974587Y-17134960D02*
X7965063Y-17125436D01*
X7965063Y-17125436D02*
X7955539Y-17106389D01*
X7955539Y-17106389D02*
X7955539Y-17049246D01*
X7955539Y-17049246D02*
X7965063Y-17030198D01*
X7965063Y-17030198D02*
X7974587Y-17020674D01*
X7974587Y-17020674D02*
X7993634Y-17011150D01*
X7993634Y-17011150D02*
X8022206Y-17011150D01*
X8022206Y-17011150D02*
X8041253Y-17020674D01*
X8041253Y-17020674D02*
X8050777Y-17030198D01*
X8050777Y-17030198D02*
X8060301Y-17049246D01*
X8060301Y-17049246D02*
X8060301Y-17106389D01*
X8060301Y-17106389D02*
X8050777Y-17125436D01*
X8050777Y-17125436D02*
X8041253Y-17134960D01*
X8041253Y-17134960D02*
X8022206Y-17144484D01*
X8022206Y-17144484D02*
X7993634Y-17144484D01*
X8174587Y-17144484D02*
X8155539Y-17134960D01*
X8155539Y-17134960D02*
X8146015Y-17115912D01*
X8146015Y-17115912D02*
X8146015Y-16944484D01*
X8326968Y-17134960D02*
X8307920Y-17144484D01*
X8307920Y-17144484D02*
X8269825Y-17144484D01*
X8269825Y-17144484D02*
X8250777Y-17134960D01*
X8250777Y-17134960D02*
X8241253Y-17115912D01*
X8241253Y-17115912D02*
X8241253Y-17039722D01*
X8241253Y-17039722D02*
X8250777Y-17020674D01*
X8250777Y-17020674D02*
X8269825Y-17011150D01*
X8269825Y-17011150D02*
X8307920Y-17011150D01*
X8307920Y-17011150D02*
X8326968Y-17020674D01*
X8326968Y-17020674D02*
X8336491Y-17039722D01*
X8336491Y-17039722D02*
X8336491Y-17058770D01*
X8336491Y-17058770D02*
X8241253Y-17077817D01*
X8412682Y-17134960D02*
X8431730Y-17144484D01*
X8431730Y-17144484D02*
X8469825Y-17144484D01*
X8469825Y-17144484D02*
X8488873Y-17134960D01*
X8488873Y-17134960D02*
X8498396Y-17115912D01*
X8498396Y-17115912D02*
X8498396Y-17106389D01*
X8498396Y-17106389D02*
X8488873Y-17087341D01*
X8488873Y-17087341D02*
X8469825Y-17077817D01*
X8469825Y-17077817D02*
X8441253Y-17077817D01*
X8441253Y-17077817D02*
X8422206Y-17068293D01*
X8422206Y-17068293D02*
X8412682Y-17049246D01*
X8412682Y-17049246D02*
X8412682Y-17039722D01*
X8412682Y-17039722D02*
X8422206Y-17020674D01*
X8422206Y-17020674D02*
X8441253Y-17011150D01*
X8441253Y-17011150D02*
X8469825Y-17011150D01*
X8469825Y-17011150D02*
X8488873Y-17020674D01*
X8565063Y-17220674D02*
X8574587Y-17211150D01*
X8574587Y-17211150D02*
X8593634Y-17182579D01*
X8593634Y-17182579D02*
X8603158Y-17163531D01*
X8603158Y-17163531D02*
X8612682Y-17134960D01*
X8612682Y-17134960D02*
X8622206Y-17087341D01*
X8622206Y-17087341D02*
X8622206Y-17049246D01*
X8622206Y-17049246D02*
X8612682Y-17001627D01*
X8612682Y-17001627D02*
X8603158Y-16973055D01*
X8603158Y-16973055D02*
X8593634Y-16954008D01*
X8593634Y-16954008D02*
X8574587Y-16925436D01*
X8574587Y-16925436D02*
X8565063Y-16915912D01*
D12*
X3776820Y-17348820D02*
X3776820Y-17285180D01*
X3713180Y-17285180D01*
X3713180Y-17348820D01*
X3776820Y-17348820D01*
D10*
X4088872Y-17208484D02*
X4107920Y-17208484D01*
X4107920Y-17208484D02*
X4126967Y-17218008D01*
X4126967Y-17218008D02*
X4136491Y-17227531D01*
X4136491Y-17227531D02*
X4146015Y-17246579D01*
X4146015Y-17246579D02*
X4155539Y-17284674D01*
X4155539Y-17284674D02*
X4155539Y-17332293D01*
X4155539Y-17332293D02*
X4146015Y-17370389D01*
X4146015Y-17370389D02*
X4136491Y-17389436D01*
X4136491Y-17389436D02*
X4126967Y-17398960D01*
X4126967Y-17398960D02*
X4107920Y-17408484D01*
X4107920Y-17408484D02*
X4088872Y-17408484D01*
X4088872Y-17408484D02*
X4069824Y-17398960D01*
X4069824Y-17398960D02*
X4060301Y-17389436D01*
X4060301Y-17389436D02*
X4050777Y-17370389D01*
X4050777Y-17370389D02*
X4041253Y-17332293D01*
X4041253Y-17332293D02*
X4041253Y-17284674D01*
X4041253Y-17284674D02*
X4050777Y-17246579D01*
X4050777Y-17246579D02*
X4060301Y-17227531D01*
X4060301Y-17227531D02*
X4069824Y-17218008D01*
X4069824Y-17218008D02*
X4088872Y-17208484D01*
X4241253Y-17389436D02*
X4250777Y-17398960D01*
X4250777Y-17398960D02*
X4241253Y-17408484D01*
X4241253Y-17408484D02*
X4231729Y-17398960D01*
X4231729Y-17398960D02*
X4241253Y-17389436D01*
X4241253Y-17389436D02*
X4241253Y-17408484D01*
X4346015Y-17408484D02*
X4384110Y-17408484D01*
X4384110Y-17408484D02*
X4403158Y-17398960D01*
X4403158Y-17398960D02*
X4412682Y-17389436D01*
X4412682Y-17389436D02*
X4431729Y-17360865D01*
X4431729Y-17360865D02*
X4441253Y-17322770D01*
X4441253Y-17322770D02*
X4441253Y-17246579D01*
X4441253Y-17246579D02*
X4431729Y-17227531D01*
X4431729Y-17227531D02*
X4422205Y-17218008D01*
X4422205Y-17218008D02*
X4403158Y-17208484D01*
X4403158Y-17208484D02*
X4365063Y-17208484D01*
X4365063Y-17208484D02*
X4346015Y-17218008D01*
X4346015Y-17218008D02*
X4336491Y-17227531D01*
X4336491Y-17227531D02*
X4326967Y-17246579D01*
X4326967Y-17246579D02*
X4326967Y-17294198D01*
X4326967Y-17294198D02*
X4336491Y-17313246D01*
X4336491Y-17313246D02*
X4346015Y-17322770D01*
X4346015Y-17322770D02*
X4365063Y-17332293D01*
X4365063Y-17332293D02*
X4403158Y-17332293D01*
X4403158Y-17332293D02*
X4422205Y-17322770D01*
X4422205Y-17322770D02*
X4431729Y-17313246D01*
X4431729Y-17313246D02*
X4441253Y-17294198D01*
X4565063Y-17208484D02*
X4584110Y-17208484D01*
X4584110Y-17208484D02*
X4603158Y-17218008D01*
X4603158Y-17218008D02*
X4612682Y-17227531D01*
X4612682Y-17227531D02*
X4622205Y-17246579D01*
X4622205Y-17246579D02*
X4631729Y-17284674D01*
X4631729Y-17284674D02*
X4631729Y-17332293D01*
X4631729Y-17332293D02*
X4622205Y-17370389D01*
X4622205Y-17370389D02*
X4612682Y-17389436D01*
X4612682Y-17389436D02*
X4603158Y-17398960D01*
X4603158Y-17398960D02*
X4584110Y-17408484D01*
X4584110Y-17408484D02*
X4565063Y-17408484D01*
X4565063Y-17408484D02*
X4546015Y-17398960D01*
X4546015Y-17398960D02*
X4536491Y-17389436D01*
X4536491Y-17389436D02*
X4526967Y-17370389D01*
X4526967Y-17370389D02*
X4517444Y-17332293D01*
X4517444Y-17332293D02*
X4517444Y-17284674D01*
X4517444Y-17284674D02*
X4526967Y-17246579D01*
X4526967Y-17246579D02*
X4536491Y-17227531D01*
X4536491Y-17227531D02*
X4546015Y-17218008D01*
X4546015Y-17218008D02*
X4565063Y-17208484D01*
X4755539Y-17208484D02*
X4774586Y-17208484D01*
X4774586Y-17208484D02*
X4793634Y-17218008D01*
X4793634Y-17218008D02*
X4803158Y-17227531D01*
X4803158Y-17227531D02*
X4812682Y-17246579D01*
X4812682Y-17246579D02*
X4822205Y-17284674D01*
X4822205Y-17284674D02*
X4822205Y-17332293D01*
X4822205Y-17332293D02*
X4812682Y-17370389D01*
X4812682Y-17370389D02*
X4803158Y-17389436D01*
X4803158Y-17389436D02*
X4793634Y-17398960D01*
X4793634Y-17398960D02*
X4774586Y-17408484D01*
X4774586Y-17408484D02*
X4755539Y-17408484D01*
X4755539Y-17408484D02*
X4736491Y-17398960D01*
X4736491Y-17398960D02*
X4726967Y-17389436D01*
X4726967Y-17389436D02*
X4717444Y-17370389D01*
X4717444Y-17370389D02*
X4707920Y-17332293D01*
X4707920Y-17332293D02*
X4707920Y-17284674D01*
X4707920Y-17284674D02*
X4717444Y-17246579D01*
X4717444Y-17246579D02*
X4726967Y-17227531D01*
X4726967Y-17227531D02*
X4736491Y-17218008D01*
X4736491Y-17218008D02*
X4755539Y-17208484D01*
X4907920Y-17408484D02*
X4907920Y-17275150D01*
X4907920Y-17294198D02*
X4917444Y-17284674D01*
X4917444Y-17284674D02*
X4936491Y-17275150D01*
X4936491Y-17275150D02*
X4965063Y-17275150D01*
X4965063Y-17275150D02*
X4984110Y-17284674D01*
X4984110Y-17284674D02*
X4993634Y-17303722D01*
X4993634Y-17303722D02*
X4993634Y-17408484D01*
X4993634Y-17303722D02*
X5003158Y-17284674D01*
X5003158Y-17284674D02*
X5022205Y-17275150D01*
X5022205Y-17275150D02*
X5050777Y-17275150D01*
X5050777Y-17275150D02*
X5069825Y-17284674D01*
X5069825Y-17284674D02*
X5079348Y-17303722D01*
X5079348Y-17303722D02*
X5079348Y-17408484D01*
X5174586Y-17408484D02*
X5174586Y-17275150D01*
X5174586Y-17294198D02*
X5184110Y-17284674D01*
X5184110Y-17284674D02*
X5203158Y-17275150D01*
X5203158Y-17275150D02*
X5231729Y-17275150D01*
X5231729Y-17275150D02*
X5250777Y-17284674D01*
X5250777Y-17284674D02*
X5260301Y-17303722D01*
X5260301Y-17303722D02*
X5260301Y-17408484D01*
X5260301Y-17303722D02*
X5269825Y-17284674D01*
X5269825Y-17284674D02*
X5288872Y-17275150D01*
X5288872Y-17275150D02*
X5317444Y-17275150D01*
X5317444Y-17275150D02*
X5336491Y-17284674D01*
X5336491Y-17284674D02*
X5346015Y-17303722D01*
X5346015Y-17303722D02*
X5346015Y-17408484D01*
X5736491Y-17198960D02*
X5565063Y-17456103D01*
X5993634Y-17208484D02*
X6012682Y-17208484D01*
X6012682Y-17208484D02*
X6031729Y-17218008D01*
X6031729Y-17218008D02*
X6041253Y-17227531D01*
X6041253Y-17227531D02*
X6050777Y-17246579D01*
X6050777Y-17246579D02*
X6060301Y-17284674D01*
X6060301Y-17284674D02*
X6060301Y-17332293D01*
X6060301Y-17332293D02*
X6050777Y-17370389D01*
X6050777Y-17370389D02*
X6041253Y-17389436D01*
X6041253Y-17389436D02*
X6031729Y-17398960D01*
X6031729Y-17398960D02*
X6012682Y-17408484D01*
X6012682Y-17408484D02*
X5993634Y-17408484D01*
X5993634Y-17408484D02*
X5974586Y-17398960D01*
X5974586Y-17398960D02*
X5965063Y-17389436D01*
X5965063Y-17389436D02*
X5955539Y-17370389D01*
X5955539Y-17370389D02*
X5946015Y-17332293D01*
X5946015Y-17332293D02*
X5946015Y-17284674D01*
X5946015Y-17284674D02*
X5955539Y-17246579D01*
X5955539Y-17246579D02*
X5965063Y-17227531D01*
X5965063Y-17227531D02*
X5974586Y-17218008D01*
X5974586Y-17218008D02*
X5993634Y-17208484D01*
X6146015Y-17389436D02*
X6155539Y-17398960D01*
X6155539Y-17398960D02*
X6146015Y-17408484D01*
X6146015Y-17408484D02*
X6136491Y-17398960D01*
X6136491Y-17398960D02*
X6146015Y-17389436D01*
X6146015Y-17389436D02*
X6146015Y-17408484D01*
X6279348Y-17208484D02*
X6298396Y-17208484D01*
X6298396Y-17208484D02*
X6317444Y-17218008D01*
X6317444Y-17218008D02*
X6326967Y-17227531D01*
X6326967Y-17227531D02*
X6336491Y-17246579D01*
X6336491Y-17246579D02*
X6346015Y-17284674D01*
X6346015Y-17284674D02*
X6346015Y-17332293D01*
X6346015Y-17332293D02*
X6336491Y-17370389D01*
X6336491Y-17370389D02*
X6326967Y-17389436D01*
X6326967Y-17389436D02*
X6317444Y-17398960D01*
X6317444Y-17398960D02*
X6298396Y-17408484D01*
X6298396Y-17408484D02*
X6279348Y-17408484D01*
X6279348Y-17408484D02*
X6260301Y-17398960D01*
X6260301Y-17398960D02*
X6250777Y-17389436D01*
X6250777Y-17389436D02*
X6241253Y-17370389D01*
X6241253Y-17370389D02*
X6231729Y-17332293D01*
X6231729Y-17332293D02*
X6231729Y-17284674D01*
X6231729Y-17284674D02*
X6241253Y-17246579D01*
X6241253Y-17246579D02*
X6250777Y-17227531D01*
X6250777Y-17227531D02*
X6260301Y-17218008D01*
X6260301Y-17218008D02*
X6279348Y-17208484D01*
X6412682Y-17208484D02*
X6536491Y-17208484D01*
X6536491Y-17208484D02*
X6469825Y-17284674D01*
X6469825Y-17284674D02*
X6498396Y-17284674D01*
X6498396Y-17284674D02*
X6517444Y-17294198D01*
X6517444Y-17294198D02*
X6526967Y-17303722D01*
X6526967Y-17303722D02*
X6536491Y-17322770D01*
X6536491Y-17322770D02*
X6536491Y-17370389D01*
X6536491Y-17370389D02*
X6526967Y-17389436D01*
X6526967Y-17389436D02*
X6517444Y-17398960D01*
X6517444Y-17398960D02*
X6498396Y-17408484D01*
X6498396Y-17408484D02*
X6441253Y-17408484D01*
X6441253Y-17408484D02*
X6422206Y-17398960D01*
X6422206Y-17398960D02*
X6412682Y-17389436D01*
X6717444Y-17208484D02*
X6622206Y-17208484D01*
X6622206Y-17208484D02*
X6612682Y-17303722D01*
X6612682Y-17303722D02*
X6622206Y-17294198D01*
X6622206Y-17294198D02*
X6641253Y-17284674D01*
X6641253Y-17284674D02*
X6688872Y-17284674D01*
X6688872Y-17284674D02*
X6707920Y-17294198D01*
X6707920Y-17294198D02*
X6717444Y-17303722D01*
X6717444Y-17303722D02*
X6726967Y-17322770D01*
X6726967Y-17322770D02*
X6726967Y-17370389D01*
X6726967Y-17370389D02*
X6717444Y-17389436D01*
X6717444Y-17389436D02*
X6707920Y-17398960D01*
X6707920Y-17398960D02*
X6688872Y-17408484D01*
X6688872Y-17408484D02*
X6641253Y-17408484D01*
X6641253Y-17408484D02*
X6622206Y-17398960D01*
X6622206Y-17398960D02*
X6612682Y-17389436D01*
X6898396Y-17275150D02*
X6898396Y-17408484D01*
X6850777Y-17198960D02*
X6803158Y-17341817D01*
X6803158Y-17341817D02*
X6926967Y-17341817D01*
X6993634Y-17208484D02*
X6993634Y-17246579D01*
X7069825Y-17208484D02*
X7069825Y-17246579D01*
X7365063Y-17484674D02*
X7355539Y-17475150D01*
X7355539Y-17475150D02*
X7336491Y-17446579D01*
X7336491Y-17446579D02*
X7326968Y-17427531D01*
X7326968Y-17427531D02*
X7317444Y-17398960D01*
X7317444Y-17398960D02*
X7307920Y-17351341D01*
X7307920Y-17351341D02*
X7307920Y-17313246D01*
X7307920Y-17313246D02*
X7317444Y-17265627D01*
X7317444Y-17265627D02*
X7326968Y-17237055D01*
X7326968Y-17237055D02*
X7336491Y-17218008D01*
X7336491Y-17218008D02*
X7355539Y-17189436D01*
X7355539Y-17189436D02*
X7365063Y-17179912D01*
X7526968Y-17208484D02*
X7488872Y-17208484D01*
X7488872Y-17208484D02*
X7469825Y-17218008D01*
X7469825Y-17218008D02*
X7460301Y-17227531D01*
X7460301Y-17227531D02*
X7441253Y-17256103D01*
X7441253Y-17256103D02*
X7431729Y-17294198D01*
X7431729Y-17294198D02*
X7431729Y-17370389D01*
X7431729Y-17370389D02*
X7441253Y-17389436D01*
X7441253Y-17389436D02*
X7450777Y-17398960D01*
X7450777Y-17398960D02*
X7469825Y-17408484D01*
X7469825Y-17408484D02*
X7507920Y-17408484D01*
X7507920Y-17408484D02*
X7526968Y-17398960D01*
X7526968Y-17398960D02*
X7536491Y-17389436D01*
X7536491Y-17389436D02*
X7546015Y-17370389D01*
X7546015Y-17370389D02*
X7546015Y-17322770D01*
X7546015Y-17322770D02*
X7536491Y-17303722D01*
X7536491Y-17303722D02*
X7526968Y-17294198D01*
X7526968Y-17294198D02*
X7507920Y-17284674D01*
X7507920Y-17284674D02*
X7469825Y-17284674D01*
X7469825Y-17284674D02*
X7450777Y-17294198D01*
X7450777Y-17294198D02*
X7441253Y-17303722D01*
X7441253Y-17303722D02*
X7431729Y-17322770D01*
X7784110Y-17408484D02*
X7784110Y-17208484D01*
X7869825Y-17408484D02*
X7869825Y-17303722D01*
X7869825Y-17303722D02*
X7860301Y-17284674D01*
X7860301Y-17284674D02*
X7841253Y-17275150D01*
X7841253Y-17275150D02*
X7812682Y-17275150D01*
X7812682Y-17275150D02*
X7793634Y-17284674D01*
X7793634Y-17284674D02*
X7784110Y-17294198D01*
X7993634Y-17408484D02*
X7974587Y-17398960D01*
X7974587Y-17398960D02*
X7965063Y-17389436D01*
X7965063Y-17389436D02*
X7955539Y-17370389D01*
X7955539Y-17370389D02*
X7955539Y-17313246D01*
X7955539Y-17313246D02*
X7965063Y-17294198D01*
X7965063Y-17294198D02*
X7974587Y-17284674D01*
X7974587Y-17284674D02*
X7993634Y-17275150D01*
X7993634Y-17275150D02*
X8022206Y-17275150D01*
X8022206Y-17275150D02*
X8041253Y-17284674D01*
X8041253Y-17284674D02*
X8050777Y-17294198D01*
X8050777Y-17294198D02*
X8060301Y-17313246D01*
X8060301Y-17313246D02*
X8060301Y-17370389D01*
X8060301Y-17370389D02*
X8050777Y-17389436D01*
X8050777Y-17389436D02*
X8041253Y-17398960D01*
X8041253Y-17398960D02*
X8022206Y-17408484D01*
X8022206Y-17408484D02*
X7993634Y-17408484D01*
X8174587Y-17408484D02*
X8155539Y-17398960D01*
X8155539Y-17398960D02*
X8146015Y-17379912D01*
X8146015Y-17379912D02*
X8146015Y-17208484D01*
X8326968Y-17398960D02*
X8307920Y-17408484D01*
X8307920Y-17408484D02*
X8269825Y-17408484D01*
X8269825Y-17408484D02*
X8250777Y-17398960D01*
X8250777Y-17398960D02*
X8241253Y-17379912D01*
X8241253Y-17379912D02*
X8241253Y-17303722D01*
X8241253Y-17303722D02*
X8250777Y-17284674D01*
X8250777Y-17284674D02*
X8269825Y-17275150D01*
X8269825Y-17275150D02*
X8307920Y-17275150D01*
X8307920Y-17275150D02*
X8326968Y-17284674D01*
X8326968Y-17284674D02*
X8336491Y-17303722D01*
X8336491Y-17303722D02*
X8336491Y-17322770D01*
X8336491Y-17322770D02*
X8241253Y-17341817D01*
X8412682Y-17398960D02*
X8431730Y-17408484D01*
X8431730Y-17408484D02*
X8469825Y-17408484D01*
X8469825Y-17408484D02*
X8488873Y-17398960D01*
X8488873Y-17398960D02*
X8498396Y-17379912D01*
X8498396Y-17379912D02*
X8498396Y-17370389D01*
X8498396Y-17370389D02*
X8488873Y-17351341D01*
X8488873Y-17351341D02*
X8469825Y-17341817D01*
X8469825Y-17341817D02*
X8441253Y-17341817D01*
X8441253Y-17341817D02*
X8422206Y-17332293D01*
X8422206Y-17332293D02*
X8412682Y-17313246D01*
X8412682Y-17313246D02*
X8412682Y-17303722D01*
X8412682Y-17303722D02*
X8422206Y-17284674D01*
X8422206Y-17284674D02*
X8441253Y-17275150D01*
X8441253Y-17275150D02*
X8469825Y-17275150D01*
X8469825Y-17275150D02*
X8488873Y-17284674D01*
X8565063Y-17484674D02*
X8574587Y-17475150D01*
X8574587Y-17475150D02*
X8593634Y-17446579D01*
X8593634Y-17446579D02*
X8603158Y-17427531D01*
X8603158Y-17427531D02*
X8612682Y-17398960D01*
X8612682Y-17398960D02*
X8622206Y-17351341D01*
X8622206Y-17351341D02*
X8622206Y-17313246D01*
X8622206Y-17313246D02*
X8612682Y-17265627D01*
X8612682Y-17265627D02*
X8603158Y-17237055D01*
X8603158Y-17237055D02*
X8593634Y-17218008D01*
X8593634Y-17218008D02*
X8574587Y-17189436D01*
X8574587Y-17189436D02*
X8565063Y-17179912D01*
D12*
X3740000Y-17631000D02*
X3790000Y-17581000D01*
X3740000Y-17531000D01*
X3690000Y-17581000D01*
X3740000Y-17631000D01*
D10*
X4155539Y-17672484D02*
X4041253Y-17672484D01*
X4098396Y-17672484D02*
X4098396Y-17472484D01*
X4098396Y-17472484D02*
X4079348Y-17501055D01*
X4079348Y-17501055D02*
X4060301Y-17520103D01*
X4060301Y-17520103D02*
X4041253Y-17529627D01*
X4241253Y-17653436D02*
X4250777Y-17662960D01*
X4250777Y-17662960D02*
X4241253Y-17672484D01*
X4241253Y-17672484D02*
X4231729Y-17662960D01*
X4231729Y-17662960D02*
X4241253Y-17653436D01*
X4241253Y-17653436D02*
X4241253Y-17672484D01*
X4374586Y-17472484D02*
X4393634Y-17472484D01*
X4393634Y-17472484D02*
X4412682Y-17482008D01*
X4412682Y-17482008D02*
X4422205Y-17491531D01*
X4422205Y-17491531D02*
X4431729Y-17510579D01*
X4431729Y-17510579D02*
X4441253Y-17548674D01*
X4441253Y-17548674D02*
X4441253Y-17596293D01*
X4441253Y-17596293D02*
X4431729Y-17634389D01*
X4431729Y-17634389D02*
X4422205Y-17653436D01*
X4422205Y-17653436D02*
X4412682Y-17662960D01*
X4412682Y-17662960D02*
X4393634Y-17672484D01*
X4393634Y-17672484D02*
X4374586Y-17672484D01*
X4374586Y-17672484D02*
X4355539Y-17662960D01*
X4355539Y-17662960D02*
X4346015Y-17653436D01*
X4346015Y-17653436D02*
X4336491Y-17634389D01*
X4336491Y-17634389D02*
X4326967Y-17596293D01*
X4326967Y-17596293D02*
X4326967Y-17548674D01*
X4326967Y-17548674D02*
X4336491Y-17510579D01*
X4336491Y-17510579D02*
X4346015Y-17491531D01*
X4346015Y-17491531D02*
X4355539Y-17482008D01*
X4355539Y-17482008D02*
X4374586Y-17472484D01*
X4565063Y-17472484D02*
X4584110Y-17472484D01*
X4584110Y-17472484D02*
X4603158Y-17482008D01*
X4603158Y-17482008D02*
X4612682Y-17491531D01*
X4612682Y-17491531D02*
X4622205Y-17510579D01*
X4622205Y-17510579D02*
X4631729Y-17548674D01*
X4631729Y-17548674D02*
X4631729Y-17596293D01*
X4631729Y-17596293D02*
X4622205Y-17634389D01*
X4622205Y-17634389D02*
X4612682Y-17653436D01*
X4612682Y-17653436D02*
X4603158Y-17662960D01*
X4603158Y-17662960D02*
X4584110Y-17672484D01*
X4584110Y-17672484D02*
X4565063Y-17672484D01*
X4565063Y-17672484D02*
X4546015Y-17662960D01*
X4546015Y-17662960D02*
X4536491Y-17653436D01*
X4536491Y-17653436D02*
X4526967Y-17634389D01*
X4526967Y-17634389D02*
X4517444Y-17596293D01*
X4517444Y-17596293D02*
X4517444Y-17548674D01*
X4517444Y-17548674D02*
X4526967Y-17510579D01*
X4526967Y-17510579D02*
X4536491Y-17491531D01*
X4536491Y-17491531D02*
X4546015Y-17482008D01*
X4546015Y-17482008D02*
X4565063Y-17472484D01*
X4755539Y-17472484D02*
X4774586Y-17472484D01*
X4774586Y-17472484D02*
X4793634Y-17482008D01*
X4793634Y-17482008D02*
X4803158Y-17491531D01*
X4803158Y-17491531D02*
X4812682Y-17510579D01*
X4812682Y-17510579D02*
X4822205Y-17548674D01*
X4822205Y-17548674D02*
X4822205Y-17596293D01*
X4822205Y-17596293D02*
X4812682Y-17634389D01*
X4812682Y-17634389D02*
X4803158Y-17653436D01*
X4803158Y-17653436D02*
X4793634Y-17662960D01*
X4793634Y-17662960D02*
X4774586Y-17672484D01*
X4774586Y-17672484D02*
X4755539Y-17672484D01*
X4755539Y-17672484D02*
X4736491Y-17662960D01*
X4736491Y-17662960D02*
X4726967Y-17653436D01*
X4726967Y-17653436D02*
X4717444Y-17634389D01*
X4717444Y-17634389D02*
X4707920Y-17596293D01*
X4707920Y-17596293D02*
X4707920Y-17548674D01*
X4707920Y-17548674D02*
X4717444Y-17510579D01*
X4717444Y-17510579D02*
X4726967Y-17491531D01*
X4726967Y-17491531D02*
X4736491Y-17482008D01*
X4736491Y-17482008D02*
X4755539Y-17472484D01*
X4907920Y-17672484D02*
X4907920Y-17539150D01*
X4907920Y-17558198D02*
X4917444Y-17548674D01*
X4917444Y-17548674D02*
X4936491Y-17539150D01*
X4936491Y-17539150D02*
X4965063Y-17539150D01*
X4965063Y-17539150D02*
X4984110Y-17548674D01*
X4984110Y-17548674D02*
X4993634Y-17567722D01*
X4993634Y-17567722D02*
X4993634Y-17672484D01*
X4993634Y-17567722D02*
X5003158Y-17548674D01*
X5003158Y-17548674D02*
X5022205Y-17539150D01*
X5022205Y-17539150D02*
X5050777Y-17539150D01*
X5050777Y-17539150D02*
X5069825Y-17548674D01*
X5069825Y-17548674D02*
X5079348Y-17567722D01*
X5079348Y-17567722D02*
X5079348Y-17672484D01*
X5174586Y-17672484D02*
X5174586Y-17539150D01*
X5174586Y-17558198D02*
X5184110Y-17548674D01*
X5184110Y-17548674D02*
X5203158Y-17539150D01*
X5203158Y-17539150D02*
X5231729Y-17539150D01*
X5231729Y-17539150D02*
X5250777Y-17548674D01*
X5250777Y-17548674D02*
X5260301Y-17567722D01*
X5260301Y-17567722D02*
X5260301Y-17672484D01*
X5260301Y-17567722D02*
X5269825Y-17548674D01*
X5269825Y-17548674D02*
X5288872Y-17539150D01*
X5288872Y-17539150D02*
X5317444Y-17539150D01*
X5317444Y-17539150D02*
X5336491Y-17548674D01*
X5336491Y-17548674D02*
X5346015Y-17567722D01*
X5346015Y-17567722D02*
X5346015Y-17672484D01*
X5736491Y-17462960D02*
X5565063Y-17720103D01*
X5993634Y-17472484D02*
X6012682Y-17472484D01*
X6012682Y-17472484D02*
X6031729Y-17482008D01*
X6031729Y-17482008D02*
X6041253Y-17491531D01*
X6041253Y-17491531D02*
X6050777Y-17510579D01*
X6050777Y-17510579D02*
X6060301Y-17548674D01*
X6060301Y-17548674D02*
X6060301Y-17596293D01*
X6060301Y-17596293D02*
X6050777Y-17634389D01*
X6050777Y-17634389D02*
X6041253Y-17653436D01*
X6041253Y-17653436D02*
X6031729Y-17662960D01*
X6031729Y-17662960D02*
X6012682Y-17672484D01*
X6012682Y-17672484D02*
X5993634Y-17672484D01*
X5993634Y-17672484D02*
X5974586Y-17662960D01*
X5974586Y-17662960D02*
X5965063Y-17653436D01*
X5965063Y-17653436D02*
X5955539Y-17634389D01*
X5955539Y-17634389D02*
X5946015Y-17596293D01*
X5946015Y-17596293D02*
X5946015Y-17548674D01*
X5946015Y-17548674D02*
X5955539Y-17510579D01*
X5955539Y-17510579D02*
X5965063Y-17491531D01*
X5965063Y-17491531D02*
X5974586Y-17482008D01*
X5974586Y-17482008D02*
X5993634Y-17472484D01*
X6146015Y-17653436D02*
X6155539Y-17662960D01*
X6155539Y-17662960D02*
X6146015Y-17672484D01*
X6146015Y-17672484D02*
X6136491Y-17662960D01*
X6136491Y-17662960D02*
X6146015Y-17653436D01*
X6146015Y-17653436D02*
X6146015Y-17672484D01*
X6279348Y-17472484D02*
X6298396Y-17472484D01*
X6298396Y-17472484D02*
X6317444Y-17482008D01*
X6317444Y-17482008D02*
X6326967Y-17491531D01*
X6326967Y-17491531D02*
X6336491Y-17510579D01*
X6336491Y-17510579D02*
X6346015Y-17548674D01*
X6346015Y-17548674D02*
X6346015Y-17596293D01*
X6346015Y-17596293D02*
X6336491Y-17634389D01*
X6336491Y-17634389D02*
X6326967Y-17653436D01*
X6326967Y-17653436D02*
X6317444Y-17662960D01*
X6317444Y-17662960D02*
X6298396Y-17672484D01*
X6298396Y-17672484D02*
X6279348Y-17672484D01*
X6279348Y-17672484D02*
X6260301Y-17662960D01*
X6260301Y-17662960D02*
X6250777Y-17653436D01*
X6250777Y-17653436D02*
X6241253Y-17634389D01*
X6241253Y-17634389D02*
X6231729Y-17596293D01*
X6231729Y-17596293D02*
X6231729Y-17548674D01*
X6231729Y-17548674D02*
X6241253Y-17510579D01*
X6241253Y-17510579D02*
X6250777Y-17491531D01*
X6250777Y-17491531D02*
X6260301Y-17482008D01*
X6260301Y-17482008D02*
X6279348Y-17472484D01*
X6412682Y-17472484D02*
X6536491Y-17472484D01*
X6536491Y-17472484D02*
X6469825Y-17548674D01*
X6469825Y-17548674D02*
X6498396Y-17548674D01*
X6498396Y-17548674D02*
X6517444Y-17558198D01*
X6517444Y-17558198D02*
X6526967Y-17567722D01*
X6526967Y-17567722D02*
X6536491Y-17586770D01*
X6536491Y-17586770D02*
X6536491Y-17634389D01*
X6536491Y-17634389D02*
X6526967Y-17653436D01*
X6526967Y-17653436D02*
X6517444Y-17662960D01*
X6517444Y-17662960D02*
X6498396Y-17672484D01*
X6498396Y-17672484D02*
X6441253Y-17672484D01*
X6441253Y-17672484D02*
X6422206Y-17662960D01*
X6422206Y-17662960D02*
X6412682Y-17653436D01*
X6631729Y-17672484D02*
X6669825Y-17672484D01*
X6669825Y-17672484D02*
X6688872Y-17662960D01*
X6688872Y-17662960D02*
X6698396Y-17653436D01*
X6698396Y-17653436D02*
X6717444Y-17624865D01*
X6717444Y-17624865D02*
X6726967Y-17586770D01*
X6726967Y-17586770D02*
X6726967Y-17510579D01*
X6726967Y-17510579D02*
X6717444Y-17491531D01*
X6717444Y-17491531D02*
X6707920Y-17482008D01*
X6707920Y-17482008D02*
X6688872Y-17472484D01*
X6688872Y-17472484D02*
X6650777Y-17472484D01*
X6650777Y-17472484D02*
X6631729Y-17482008D01*
X6631729Y-17482008D02*
X6622206Y-17491531D01*
X6622206Y-17491531D02*
X6612682Y-17510579D01*
X6612682Y-17510579D02*
X6612682Y-17558198D01*
X6612682Y-17558198D02*
X6622206Y-17577246D01*
X6622206Y-17577246D02*
X6631729Y-17586770D01*
X6631729Y-17586770D02*
X6650777Y-17596293D01*
X6650777Y-17596293D02*
X6688872Y-17596293D01*
X6688872Y-17596293D02*
X6707920Y-17586770D01*
X6707920Y-17586770D02*
X6717444Y-17577246D01*
X6717444Y-17577246D02*
X6726967Y-17558198D01*
X6898396Y-17539150D02*
X6898396Y-17672484D01*
X6850777Y-17462960D02*
X6803158Y-17605817D01*
X6803158Y-17605817D02*
X6926967Y-17605817D01*
X6993634Y-17472484D02*
X6993634Y-17510579D01*
X7069825Y-17472484D02*
X7069825Y-17510579D01*
X7365063Y-17748674D02*
X7355539Y-17739150D01*
X7355539Y-17739150D02*
X7336491Y-17710579D01*
X7336491Y-17710579D02*
X7326968Y-17691531D01*
X7326968Y-17691531D02*
X7317444Y-17662960D01*
X7317444Y-17662960D02*
X7307920Y-17615341D01*
X7307920Y-17615341D02*
X7307920Y-17577246D01*
X7307920Y-17577246D02*
X7317444Y-17529627D01*
X7317444Y-17529627D02*
X7326968Y-17501055D01*
X7326968Y-17501055D02*
X7336491Y-17482008D01*
X7336491Y-17482008D02*
X7355539Y-17453436D01*
X7355539Y-17453436D02*
X7365063Y-17443912D01*
X7450777Y-17672484D02*
X7488872Y-17672484D01*
X7488872Y-17672484D02*
X7507920Y-17662960D01*
X7507920Y-17662960D02*
X7517444Y-17653436D01*
X7517444Y-17653436D02*
X7536491Y-17624865D01*
X7536491Y-17624865D02*
X7546015Y-17586770D01*
X7546015Y-17586770D02*
X7546015Y-17510579D01*
X7546015Y-17510579D02*
X7536491Y-17491531D01*
X7536491Y-17491531D02*
X7526968Y-17482008D01*
X7526968Y-17482008D02*
X7507920Y-17472484D01*
X7507920Y-17472484D02*
X7469825Y-17472484D01*
X7469825Y-17472484D02*
X7450777Y-17482008D01*
X7450777Y-17482008D02*
X7441253Y-17491531D01*
X7441253Y-17491531D02*
X7431729Y-17510579D01*
X7431729Y-17510579D02*
X7431729Y-17558198D01*
X7431729Y-17558198D02*
X7441253Y-17577246D01*
X7441253Y-17577246D02*
X7450777Y-17586770D01*
X7450777Y-17586770D02*
X7469825Y-17596293D01*
X7469825Y-17596293D02*
X7507920Y-17596293D01*
X7507920Y-17596293D02*
X7526968Y-17586770D01*
X7526968Y-17586770D02*
X7536491Y-17577246D01*
X7536491Y-17577246D02*
X7546015Y-17558198D01*
X7784110Y-17672484D02*
X7784110Y-17472484D01*
X7869825Y-17672484D02*
X7869825Y-17567722D01*
X7869825Y-17567722D02*
X7860301Y-17548674D01*
X7860301Y-17548674D02*
X7841253Y-17539150D01*
X7841253Y-17539150D02*
X7812682Y-17539150D01*
X7812682Y-17539150D02*
X7793634Y-17548674D01*
X7793634Y-17548674D02*
X7784110Y-17558198D01*
X7993634Y-17672484D02*
X7974587Y-17662960D01*
X7974587Y-17662960D02*
X7965063Y-17653436D01*
X7965063Y-17653436D02*
X7955539Y-17634389D01*
X7955539Y-17634389D02*
X7955539Y-17577246D01*
X7955539Y-17577246D02*
X7965063Y-17558198D01*
X7965063Y-17558198D02*
X7974587Y-17548674D01*
X7974587Y-17548674D02*
X7993634Y-17539150D01*
X7993634Y-17539150D02*
X8022206Y-17539150D01*
X8022206Y-17539150D02*
X8041253Y-17548674D01*
X8041253Y-17548674D02*
X8050777Y-17558198D01*
X8050777Y-17558198D02*
X8060301Y-17577246D01*
X8060301Y-17577246D02*
X8060301Y-17634389D01*
X8060301Y-17634389D02*
X8050777Y-17653436D01*
X8050777Y-17653436D02*
X8041253Y-17662960D01*
X8041253Y-17662960D02*
X8022206Y-17672484D01*
X8022206Y-17672484D02*
X7993634Y-17672484D01*
X8174587Y-17672484D02*
X8155539Y-17662960D01*
X8155539Y-17662960D02*
X8146015Y-17643912D01*
X8146015Y-17643912D02*
X8146015Y-17472484D01*
X8326968Y-17662960D02*
X8307920Y-17672484D01*
X8307920Y-17672484D02*
X8269825Y-17672484D01*
X8269825Y-17672484D02*
X8250777Y-17662960D01*
X8250777Y-17662960D02*
X8241253Y-17643912D01*
X8241253Y-17643912D02*
X8241253Y-17567722D01*
X8241253Y-17567722D02*
X8250777Y-17548674D01*
X8250777Y-17548674D02*
X8269825Y-17539150D01*
X8269825Y-17539150D02*
X8307920Y-17539150D01*
X8307920Y-17539150D02*
X8326968Y-17548674D01*
X8326968Y-17548674D02*
X8336491Y-17567722D01*
X8336491Y-17567722D02*
X8336491Y-17586770D01*
X8336491Y-17586770D02*
X8241253Y-17605817D01*
X8412682Y-17662960D02*
X8431730Y-17672484D01*
X8431730Y-17672484D02*
X8469825Y-17672484D01*
X8469825Y-17672484D02*
X8488873Y-17662960D01*
X8488873Y-17662960D02*
X8498396Y-17643912D01*
X8498396Y-17643912D02*
X8498396Y-17634389D01*
X8498396Y-17634389D02*
X8488873Y-17615341D01*
X8488873Y-17615341D02*
X8469825Y-17605817D01*
X8469825Y-17605817D02*
X8441253Y-17605817D01*
X8441253Y-17605817D02*
X8422206Y-17596293D01*
X8422206Y-17596293D02*
X8412682Y-17577246D01*
X8412682Y-17577246D02*
X8412682Y-17567722D01*
X8412682Y-17567722D02*
X8422206Y-17548674D01*
X8422206Y-17548674D02*
X8441253Y-17539150D01*
X8441253Y-17539150D02*
X8469825Y-17539150D01*
X8469825Y-17539150D02*
X8488873Y-17548674D01*
X8565063Y-17748674D02*
X8574587Y-17739150D01*
X8574587Y-17739150D02*
X8593634Y-17710579D01*
X8593634Y-17710579D02*
X8603158Y-17691531D01*
X8603158Y-17691531D02*
X8612682Y-17662960D01*
X8612682Y-17662960D02*
X8622206Y-17615341D01*
X8622206Y-17615341D02*
X8622206Y-17577246D01*
X8622206Y-17577246D02*
X8612682Y-17529627D01*
X8612682Y-17529627D02*
X8603158Y-17501055D01*
X8603158Y-17501055D02*
X8593634Y-17482008D01*
X8593634Y-17482008D02*
X8574587Y-17453436D01*
X8574587Y-17453436D02*
X8565063Y-17443912D01*
D13*
X3670000Y-17785000D02*
X3790000Y-17905000D01*
X3790000Y-17785000D02*
X3670000Y-17905000D01*
X3790000Y-17845000D02*
G75*
G03*
X3790000Y-17845000I-60000J0D01*
G01*
D10*
X4155539Y-17936484D02*
X4041253Y-17936484D01*
X4098396Y-17936484D02*
X4098396Y-17736484D01*
X4098396Y-17736484D02*
X4079348Y-17765055D01*
X4079348Y-17765055D02*
X4060301Y-17784103D01*
X4060301Y-17784103D02*
X4041253Y-17793627D01*
X4241253Y-17917436D02*
X4250777Y-17926960D01*
X4250777Y-17926960D02*
X4241253Y-17936484D01*
X4241253Y-17936484D02*
X4231729Y-17926960D01*
X4231729Y-17926960D02*
X4241253Y-17917436D01*
X4241253Y-17917436D02*
X4241253Y-17936484D01*
X4326967Y-17755531D02*
X4336491Y-17746008D01*
X4336491Y-17746008D02*
X4355539Y-17736484D01*
X4355539Y-17736484D02*
X4403158Y-17736484D01*
X4403158Y-17736484D02*
X4422205Y-17746008D01*
X4422205Y-17746008D02*
X4431729Y-17755531D01*
X4431729Y-17755531D02*
X4441253Y-17774579D01*
X4441253Y-17774579D02*
X4441253Y-17793627D01*
X4441253Y-17793627D02*
X4431729Y-17822198D01*
X4431729Y-17822198D02*
X4317444Y-17936484D01*
X4317444Y-17936484D02*
X4441253Y-17936484D01*
X4565063Y-17736484D02*
X4584110Y-17736484D01*
X4584110Y-17736484D02*
X4603158Y-17746008D01*
X4603158Y-17746008D02*
X4612682Y-17755531D01*
X4612682Y-17755531D02*
X4622205Y-17774579D01*
X4622205Y-17774579D02*
X4631729Y-17812674D01*
X4631729Y-17812674D02*
X4631729Y-17860293D01*
X4631729Y-17860293D02*
X4622205Y-17898389D01*
X4622205Y-17898389D02*
X4612682Y-17917436D01*
X4612682Y-17917436D02*
X4603158Y-17926960D01*
X4603158Y-17926960D02*
X4584110Y-17936484D01*
X4584110Y-17936484D02*
X4565063Y-17936484D01*
X4565063Y-17936484D02*
X4546015Y-17926960D01*
X4546015Y-17926960D02*
X4536491Y-17917436D01*
X4536491Y-17917436D02*
X4526967Y-17898389D01*
X4526967Y-17898389D02*
X4517444Y-17860293D01*
X4517444Y-17860293D02*
X4517444Y-17812674D01*
X4517444Y-17812674D02*
X4526967Y-17774579D01*
X4526967Y-17774579D02*
X4536491Y-17755531D01*
X4536491Y-17755531D02*
X4546015Y-17746008D01*
X4546015Y-17746008D02*
X4565063Y-17736484D01*
X4755539Y-17736484D02*
X4774586Y-17736484D01*
X4774586Y-17736484D02*
X4793634Y-17746008D01*
X4793634Y-17746008D02*
X4803158Y-17755531D01*
X4803158Y-17755531D02*
X4812682Y-17774579D01*
X4812682Y-17774579D02*
X4822205Y-17812674D01*
X4822205Y-17812674D02*
X4822205Y-17860293D01*
X4822205Y-17860293D02*
X4812682Y-17898389D01*
X4812682Y-17898389D02*
X4803158Y-17917436D01*
X4803158Y-17917436D02*
X4793634Y-17926960D01*
X4793634Y-17926960D02*
X4774586Y-17936484D01*
X4774586Y-17936484D02*
X4755539Y-17936484D01*
X4755539Y-17936484D02*
X4736491Y-17926960D01*
X4736491Y-17926960D02*
X4726967Y-17917436D01*
X4726967Y-17917436D02*
X4717444Y-17898389D01*
X4717444Y-17898389D02*
X4707920Y-17860293D01*
X4707920Y-17860293D02*
X4707920Y-17812674D01*
X4707920Y-17812674D02*
X4717444Y-17774579D01*
X4717444Y-17774579D02*
X4726967Y-17755531D01*
X4726967Y-17755531D02*
X4736491Y-17746008D01*
X4736491Y-17746008D02*
X4755539Y-17736484D01*
X4907920Y-17936484D02*
X4907920Y-17803150D01*
X4907920Y-17822198D02*
X4917444Y-17812674D01*
X4917444Y-17812674D02*
X4936491Y-17803150D01*
X4936491Y-17803150D02*
X4965063Y-17803150D01*
X4965063Y-17803150D02*
X4984110Y-17812674D01*
X4984110Y-17812674D02*
X4993634Y-17831722D01*
X4993634Y-17831722D02*
X4993634Y-17936484D01*
X4993634Y-17831722D02*
X5003158Y-17812674D01*
X5003158Y-17812674D02*
X5022205Y-17803150D01*
X5022205Y-17803150D02*
X5050777Y-17803150D01*
X5050777Y-17803150D02*
X5069825Y-17812674D01*
X5069825Y-17812674D02*
X5079348Y-17831722D01*
X5079348Y-17831722D02*
X5079348Y-17936484D01*
X5174586Y-17936484D02*
X5174586Y-17803150D01*
X5174586Y-17822198D02*
X5184110Y-17812674D01*
X5184110Y-17812674D02*
X5203158Y-17803150D01*
X5203158Y-17803150D02*
X5231729Y-17803150D01*
X5231729Y-17803150D02*
X5250777Y-17812674D01*
X5250777Y-17812674D02*
X5260301Y-17831722D01*
X5260301Y-17831722D02*
X5260301Y-17936484D01*
X5260301Y-17831722D02*
X5269825Y-17812674D01*
X5269825Y-17812674D02*
X5288872Y-17803150D01*
X5288872Y-17803150D02*
X5317444Y-17803150D01*
X5317444Y-17803150D02*
X5336491Y-17812674D01*
X5336491Y-17812674D02*
X5346015Y-17831722D01*
X5346015Y-17831722D02*
X5346015Y-17936484D01*
X5736491Y-17726960D02*
X5565063Y-17984103D01*
X5993634Y-17736484D02*
X6012682Y-17736484D01*
X6012682Y-17736484D02*
X6031729Y-17746008D01*
X6031729Y-17746008D02*
X6041253Y-17755531D01*
X6041253Y-17755531D02*
X6050777Y-17774579D01*
X6050777Y-17774579D02*
X6060301Y-17812674D01*
X6060301Y-17812674D02*
X6060301Y-17860293D01*
X6060301Y-17860293D02*
X6050777Y-17898389D01*
X6050777Y-17898389D02*
X6041253Y-17917436D01*
X6041253Y-17917436D02*
X6031729Y-17926960D01*
X6031729Y-17926960D02*
X6012682Y-17936484D01*
X6012682Y-17936484D02*
X5993634Y-17936484D01*
X5993634Y-17936484D02*
X5974586Y-17926960D01*
X5974586Y-17926960D02*
X5965063Y-17917436D01*
X5965063Y-17917436D02*
X5955539Y-17898389D01*
X5955539Y-17898389D02*
X5946015Y-17860293D01*
X5946015Y-17860293D02*
X5946015Y-17812674D01*
X5946015Y-17812674D02*
X5955539Y-17774579D01*
X5955539Y-17774579D02*
X5965063Y-17755531D01*
X5965063Y-17755531D02*
X5974586Y-17746008D01*
X5974586Y-17746008D02*
X5993634Y-17736484D01*
X6146015Y-17917436D02*
X6155539Y-17926960D01*
X6155539Y-17926960D02*
X6146015Y-17936484D01*
X6146015Y-17936484D02*
X6136491Y-17926960D01*
X6136491Y-17926960D02*
X6146015Y-17917436D01*
X6146015Y-17917436D02*
X6146015Y-17936484D01*
X6279348Y-17736484D02*
X6298396Y-17736484D01*
X6298396Y-17736484D02*
X6317444Y-17746008D01*
X6317444Y-17746008D02*
X6326967Y-17755531D01*
X6326967Y-17755531D02*
X6336491Y-17774579D01*
X6336491Y-17774579D02*
X6346015Y-17812674D01*
X6346015Y-17812674D02*
X6346015Y-17860293D01*
X6346015Y-17860293D02*
X6336491Y-17898389D01*
X6336491Y-17898389D02*
X6326967Y-17917436D01*
X6326967Y-17917436D02*
X6317444Y-17926960D01*
X6317444Y-17926960D02*
X6298396Y-17936484D01*
X6298396Y-17936484D02*
X6279348Y-17936484D01*
X6279348Y-17936484D02*
X6260301Y-17926960D01*
X6260301Y-17926960D02*
X6250777Y-17917436D01*
X6250777Y-17917436D02*
X6241253Y-17898389D01*
X6241253Y-17898389D02*
X6231729Y-17860293D01*
X6231729Y-17860293D02*
X6231729Y-17812674D01*
X6231729Y-17812674D02*
X6241253Y-17774579D01*
X6241253Y-17774579D02*
X6250777Y-17755531D01*
X6250777Y-17755531D02*
X6260301Y-17746008D01*
X6260301Y-17746008D02*
X6279348Y-17736484D01*
X6517444Y-17803150D02*
X6517444Y-17936484D01*
X6469825Y-17726960D02*
X6422206Y-17869817D01*
X6422206Y-17869817D02*
X6546015Y-17869817D01*
X6603158Y-17736484D02*
X6736491Y-17736484D01*
X6736491Y-17736484D02*
X6650777Y-17936484D01*
X6803158Y-17755531D02*
X6812682Y-17746008D01*
X6812682Y-17746008D02*
X6831729Y-17736484D01*
X6831729Y-17736484D02*
X6879348Y-17736484D01*
X6879348Y-17736484D02*
X6898396Y-17746008D01*
X6898396Y-17746008D02*
X6907920Y-17755531D01*
X6907920Y-17755531D02*
X6917444Y-17774579D01*
X6917444Y-17774579D02*
X6917444Y-17793627D01*
X6917444Y-17793627D02*
X6907920Y-17822198D01*
X6907920Y-17822198D02*
X6793634Y-17936484D01*
X6793634Y-17936484D02*
X6917444Y-17936484D01*
X6993634Y-17736484D02*
X6993634Y-17774579D01*
X7069825Y-17736484D02*
X7069825Y-17774579D01*
X7365063Y-18012674D02*
X7355539Y-18003150D01*
X7355539Y-18003150D02*
X7336491Y-17974579D01*
X7336491Y-17974579D02*
X7326968Y-17955531D01*
X7326968Y-17955531D02*
X7317444Y-17926960D01*
X7317444Y-17926960D02*
X7307920Y-17879341D01*
X7307920Y-17879341D02*
X7307920Y-17841246D01*
X7307920Y-17841246D02*
X7317444Y-17793627D01*
X7317444Y-17793627D02*
X7326968Y-17765055D01*
X7326968Y-17765055D02*
X7336491Y-17746008D01*
X7336491Y-17746008D02*
X7355539Y-17717436D01*
X7355539Y-17717436D02*
X7365063Y-17707912D01*
X7546015Y-17936484D02*
X7431729Y-17936484D01*
X7488872Y-17936484D02*
X7488872Y-17736484D01*
X7488872Y-17736484D02*
X7469825Y-17765055D01*
X7469825Y-17765055D02*
X7450777Y-17784103D01*
X7450777Y-17784103D02*
X7431729Y-17793627D01*
X7726968Y-17736484D02*
X7631729Y-17736484D01*
X7631729Y-17736484D02*
X7622206Y-17831722D01*
X7622206Y-17831722D02*
X7631729Y-17822198D01*
X7631729Y-17822198D02*
X7650777Y-17812674D01*
X7650777Y-17812674D02*
X7698396Y-17812674D01*
X7698396Y-17812674D02*
X7717444Y-17822198D01*
X7717444Y-17822198D02*
X7726968Y-17831722D01*
X7726968Y-17831722D02*
X7736491Y-17850770D01*
X7736491Y-17850770D02*
X7736491Y-17898389D01*
X7736491Y-17898389D02*
X7726968Y-17917436D01*
X7726968Y-17917436D02*
X7717444Y-17926960D01*
X7717444Y-17926960D02*
X7698396Y-17936484D01*
X7698396Y-17936484D02*
X7650777Y-17936484D01*
X7650777Y-17936484D02*
X7631729Y-17926960D01*
X7631729Y-17926960D02*
X7622206Y-17917436D01*
X7974587Y-17936484D02*
X7974587Y-17736484D01*
X8060301Y-17936484D02*
X8060301Y-17831722D01*
X8060301Y-17831722D02*
X8050777Y-17812674D01*
X8050777Y-17812674D02*
X8031730Y-17803150D01*
X8031730Y-17803150D02*
X8003158Y-17803150D01*
X8003158Y-17803150D02*
X7984110Y-17812674D01*
X7984110Y-17812674D02*
X7974587Y-17822198D01*
X8184110Y-17936484D02*
X8165063Y-17926960D01*
X8165063Y-17926960D02*
X8155539Y-17917436D01*
X8155539Y-17917436D02*
X8146015Y-17898389D01*
X8146015Y-17898389D02*
X8146015Y-17841246D01*
X8146015Y-17841246D02*
X8155539Y-17822198D01*
X8155539Y-17822198D02*
X8165063Y-17812674D01*
X8165063Y-17812674D02*
X8184110Y-17803150D01*
X8184110Y-17803150D02*
X8212682Y-17803150D01*
X8212682Y-17803150D02*
X8231730Y-17812674D01*
X8231730Y-17812674D02*
X8241253Y-17822198D01*
X8241253Y-17822198D02*
X8250777Y-17841246D01*
X8250777Y-17841246D02*
X8250777Y-17898389D01*
X8250777Y-17898389D02*
X8241253Y-17917436D01*
X8241253Y-17917436D02*
X8231730Y-17926960D01*
X8231730Y-17926960D02*
X8212682Y-17936484D01*
X8212682Y-17936484D02*
X8184110Y-17936484D01*
X8365063Y-17936484D02*
X8346015Y-17926960D01*
X8346015Y-17926960D02*
X8336491Y-17907912D01*
X8336491Y-17907912D02*
X8336491Y-17736484D01*
X8517444Y-17926960D02*
X8498396Y-17936484D01*
X8498396Y-17936484D02*
X8460301Y-17936484D01*
X8460301Y-17936484D02*
X8441253Y-17926960D01*
X8441253Y-17926960D02*
X8431730Y-17907912D01*
X8431730Y-17907912D02*
X8431730Y-17831722D01*
X8431730Y-17831722D02*
X8441253Y-17812674D01*
X8441253Y-17812674D02*
X8460301Y-17803150D01*
X8460301Y-17803150D02*
X8498396Y-17803150D01*
X8498396Y-17803150D02*
X8517444Y-17812674D01*
X8517444Y-17812674D02*
X8526968Y-17831722D01*
X8526968Y-17831722D02*
X8526968Y-17850770D01*
X8526968Y-17850770D02*
X8431730Y-17869817D01*
X8603158Y-17926960D02*
X8622206Y-17936484D01*
X8622206Y-17936484D02*
X8660301Y-17936484D01*
X8660301Y-17936484D02*
X8679349Y-17926960D01*
X8679349Y-17926960D02*
X8688873Y-17907912D01*
X8688873Y-17907912D02*
X8688873Y-17898389D01*
X8688873Y-17898389D02*
X8679349Y-17879341D01*
X8679349Y-17879341D02*
X8660301Y-17869817D01*
X8660301Y-17869817D02*
X8631730Y-17869817D01*
X8631730Y-17869817D02*
X8612682Y-17860293D01*
X8612682Y-17860293D02*
X8603158Y-17841246D01*
X8603158Y-17841246D02*
X8603158Y-17831722D01*
X8603158Y-17831722D02*
X8612682Y-17812674D01*
X8612682Y-17812674D02*
X8631730Y-17803150D01*
X8631730Y-17803150D02*
X8660301Y-17803150D01*
X8660301Y-17803150D02*
X8679349Y-17812674D01*
X8755539Y-18012674D02*
X8765063Y-18003150D01*
X8765063Y-18003150D02*
X8784111Y-17974579D01*
X8784111Y-17974579D02*
X8793634Y-17955531D01*
X8793634Y-17955531D02*
X8803158Y-17926960D01*
X8803158Y-17926960D02*
X8812682Y-17879341D01*
X8812682Y-17879341D02*
X8812682Y-17841246D01*
X8812682Y-17841246D02*
X8803158Y-17793627D01*
X8803158Y-17793627D02*
X8793634Y-17765055D01*
X8793634Y-17765055D02*
X8784111Y-17746008D01*
X8784111Y-17746008D02*
X8765063Y-17717436D01*
X8765063Y-17717436D02*
X8755539Y-17707912D01*
M02*
