G04 #@! TF.GenerationSoftware,KiCad,Pcbnew,7.0.9*
G04 #@! TF.CreationDate,2023-12-25T16:07:17+01:00*
G04 #@! TF.ProjectId,wall-mounted-room-temperature-sensor-ethernet,77616c6c-2d6d-46f7-956e-7465642d726f,v1.0*
G04 #@! TF.SameCoordinates,Original*
G04 #@! TF.FileFunction,Paste,Top*
G04 #@! TF.FilePolarity,Positive*
%FSLAX46Y46*%
G04 Gerber Fmt 4.6, Leading zero omitted, Abs format (unit mm)*
G04 Created by KiCad (PCBNEW 7.0.9) date 2023-12-25 16:07:17*
%MOMM*%
%LPD*%
G01*
G04 APERTURE LIST*
G04 Aperture macros list*
%AMRoundRect*
0 Rectangle with rounded corners*
0 $1 Rounding radius*
0 $2 $3 $4 $5 $6 $7 $8 $9 X,Y pos of 4 corners*
0 Add a 4 corners polygon primitive as box body*
4,1,4,$2,$3,$4,$5,$6,$7,$8,$9,$2,$3,0*
0 Add four circle primitives for the rounded corners*
1,1,$1+$1,$2,$3*
1,1,$1+$1,$4,$5*
1,1,$1+$1,$6,$7*
1,1,$1+$1,$8,$9*
0 Add four rect primitives between the rounded corners*
20,1,$1+$1,$2,$3,$4,$5,0*
20,1,$1+$1,$4,$5,$6,$7,0*
20,1,$1+$1,$6,$7,$8,$9,0*
20,1,$1+$1,$8,$9,$2,$3,0*%
%AMOutline4P*
0 Free polygon, 4 corners , with rotation*
0 The origin of the aperture is its center*
0 number of corners: always 4*
0 $1 to $8 corner X, Y*
0 $9 Rotation angle, in degrees counterclockwise*
0 create outline with 4 corners*
4,1,4,$1,$2,$3,$4,$5,$6,$7,$8,$1,$2,$9*%
G04 Aperture macros list end*
%ADD10R,1.200000X0.700000*%
%ADD11R,4.000000X2.000000*%
%ADD12R,3.600000X1.800000*%
%ADD13R,3.300000X4.000000*%
%ADD14R,1.780000X2.200000*%
%ADD15R,2.700000X1.800000*%
%ADD16R,1.400000X2.500000*%
%ADD17R,1.800000X1.800000*%
%ADD18R,0.800000X0.300000*%
%ADD19R,4.000000X1.600000*%
%ADD20R,1.600000X4.000000*%
%ADD21R,4.200000X2.000000*%
%ADD22R,2.000000X0.800000*%
%ADD23R,2.100000X5.600000*%
%ADD24R,4.100000X4.100000*%
%ADD25R,0.900000X2.500000*%
%ADD26R,1.500000X0.300000*%
%ADD27R,0.300000X1.500000*%
%ADD28R,1.000000X0.310000*%
%ADD29RoundRect,0.140000X0.140000X0.180000X-0.140000X0.180000X-0.140000X-0.180000X0.140000X-0.180000X0*%
%ADD30R,4.600000X1.250000*%
%ADD31R,4.550000X5.250000*%
%ADD32R,1.500000X1.300000*%
%ADD33R,1.300000X1.500000*%
%ADD34R,0.800000X0.800000*%
%ADD35R,1.100000X1.100000*%
%ADD36R,2.500000X2.500000*%
%ADD37Outline4P,-0.650000X-0.900000X0.650000X-0.900000X0.650000X0.900000X-0.650000X0.900000X90.000000*%
%ADD38Outline4P,-0.650000X-0.900000X0.650000X-0.900000X0.650000X0.900000X-0.650000X0.900000X0.000000*%
%ADD39R,2.000000X1.000000*%
%ADD40Outline4P,-0.650000X-0.900000X0.650000X-0.900000X0.650000X0.900000X-0.650000X0.900000X270.000000*%
G04 APERTURE END LIST*
D10*
X41245000Y-100650000D03*
X41245000Y-101600000D03*
X41245000Y-102550000D03*
X43845000Y-102550000D03*
X43845000Y-101600000D03*
X43845000Y-100650000D03*
D11*
X42545000Y-115845000D03*
X42545000Y-108945000D03*
D12*
X49370000Y-113665000D03*
X54770000Y-113665000D03*
D13*
X48670000Y-74295000D03*
X55470000Y-74295000D03*
D14*
X68580000Y-82550000D03*
X66040000Y-82550000D03*
X66040000Y-90170000D03*
X68580000Y-90170000D03*
D15*
X44980000Y-74930000D03*
X41380000Y-74930000D03*
X50270000Y-107315000D03*
X53870000Y-107315000D03*
D16*
X54550000Y-93250000D03*
X52050000Y-93250000D03*
X49550000Y-93250000D03*
X47050000Y-93250000D03*
X47050000Y-79470000D03*
X49550000Y-79470000D03*
X52050000Y-79470000D03*
X54550000Y-79470000D03*
D17*
X48935000Y-125730000D03*
X48935000Y-128270000D03*
X53935000Y-128270000D03*
X53935000Y-125730000D03*
X44450000Y-124500000D03*
X41910000Y-124500000D03*
X41910000Y-129500000D03*
X44450000Y-129500000D03*
D18*
X126460000Y-100600000D03*
X126460000Y-101100000D03*
X126460000Y-101600000D03*
X126460000Y-102100000D03*
X126460000Y-102600000D03*
X127540000Y-102600000D03*
X127540000Y-102100000D03*
X127540000Y-101600000D03*
X127540000Y-101100000D03*
X127540000Y-100600000D03*
X126460000Y-108855000D03*
X126460000Y-109355000D03*
X126460000Y-109855000D03*
X126460000Y-110355000D03*
X126460000Y-110855000D03*
X127540000Y-110855000D03*
X127540000Y-110355000D03*
X127540000Y-109855000D03*
X127540000Y-109355000D03*
X127540000Y-108855000D03*
D19*
X41275000Y-88860000D03*
X41275000Y-83860000D03*
D20*
X67985000Y-120015000D03*
X72985000Y-120015000D03*
D21*
X59055000Y-141010000D03*
X59055000Y-146010000D03*
D22*
X65913000Y-113665000D03*
X65913000Y-112395000D03*
X65913000Y-111125000D03*
X65913000Y-109855000D03*
X65913000Y-108585000D03*
X65913000Y-107315000D03*
X65913000Y-106045000D03*
X65913000Y-104775000D03*
X75057000Y-104775000D03*
X75057000Y-106045000D03*
X75057000Y-107315000D03*
X75057000Y-108585000D03*
X75057000Y-109855000D03*
X75057000Y-111125000D03*
X75057000Y-112395000D03*
X75057000Y-113665000D03*
D23*
X108204000Y-105105000D03*
X108204000Y-114605000D03*
D24*
X129175000Y-79145000D03*
D25*
X136870000Y-89270000D03*
X135600000Y-89270000D03*
X134330000Y-89270000D03*
X133060000Y-89270000D03*
X131790000Y-89270000D03*
X130520000Y-89270000D03*
X129250000Y-89270000D03*
X127980000Y-89270000D03*
X126710000Y-89270000D03*
X125440000Y-89270000D03*
X124170000Y-89270000D03*
X122900000Y-89270000D03*
X121630000Y-89270000D03*
X120360000Y-89281000D03*
X119090000Y-89270000D03*
X117820000Y-89270000D03*
X116550000Y-89281000D03*
X115280000Y-89281000D03*
X114010000Y-89281000D03*
X114010000Y-72009000D03*
X115280000Y-72009000D03*
X116550000Y-72009000D03*
X117820000Y-72020000D03*
X119090000Y-72020000D03*
X120360000Y-72020000D03*
X121630000Y-72020000D03*
X122900000Y-72020000D03*
X124170000Y-72020000D03*
X125440000Y-72020000D03*
X126710000Y-72020000D03*
X127980000Y-72020000D03*
X129250000Y-72020000D03*
X130520000Y-72020000D03*
X131790000Y-72020000D03*
X133060000Y-72020000D03*
X134330000Y-72020000D03*
X135600000Y-72020000D03*
X136870000Y-72020000D03*
D26*
X92357500Y-106470000D03*
X92357500Y-106970000D03*
X92357500Y-107470000D03*
X92357500Y-107970000D03*
X92357500Y-108470000D03*
X92357500Y-108970000D03*
X92357500Y-109470000D03*
X92357500Y-109970000D03*
X92357500Y-110470000D03*
X92357500Y-110970000D03*
X92357500Y-111470000D03*
X92357500Y-111970000D03*
D27*
X93770000Y-113382500D03*
X94270000Y-113382500D03*
X94770000Y-113382500D03*
X95270000Y-113382500D03*
X95770000Y-113382500D03*
X96270000Y-113382500D03*
X96770000Y-113382500D03*
X97270000Y-113382500D03*
X97770000Y-113382500D03*
X98270000Y-113382500D03*
X98770000Y-113382500D03*
X99270000Y-113382500D03*
D26*
X100682500Y-111970000D03*
X100682500Y-111470000D03*
X100682500Y-110970000D03*
X100682500Y-110470000D03*
X100682500Y-109970000D03*
X100682500Y-109470000D03*
X100682500Y-108970000D03*
X100682500Y-108470000D03*
X100682500Y-107970000D03*
X100682500Y-107470000D03*
X100682500Y-106970000D03*
X100682500Y-106470000D03*
D27*
X99270000Y-105057500D03*
X98770000Y-105057500D03*
X98270000Y-105057500D03*
X97770000Y-105057500D03*
X97270000Y-105057500D03*
X96770000Y-105057500D03*
X96270000Y-105057500D03*
X95770000Y-105057500D03*
X95270000Y-105057500D03*
X94770000Y-105057500D03*
X94270000Y-105057500D03*
X93770000Y-105057500D03*
D28*
X86779100Y-95590000D03*
X86779100Y-94940000D03*
X86779100Y-94290000D03*
X86779100Y-93640000D03*
X89750900Y-93640000D03*
X89750900Y-94290000D03*
X89750900Y-94940000D03*
X89750900Y-95590000D03*
D29*
X87915000Y-94215000D03*
X87915000Y-95015000D03*
X88615000Y-94215000D03*
X88615000Y-95015000D03*
D30*
X80385000Y-85950000D03*
X80385000Y-84250000D03*
X80385000Y-82550000D03*
X80385000Y-80850000D03*
X80385000Y-79150000D03*
D31*
X91960000Y-85325000D03*
X91960000Y-79775000D03*
X87110000Y-85325000D03*
X87110000Y-79775000D03*
D32*
X104140000Y-111425000D03*
X104140000Y-113365000D03*
D33*
X78405000Y-102235000D03*
X80345000Y-102235000D03*
D32*
X101600000Y-117140000D03*
X101600000Y-119080000D03*
X76200000Y-116505000D03*
X76200000Y-118445000D03*
X104140000Y-117140000D03*
X104140000Y-119080000D03*
X76200000Y-78705000D03*
X76200000Y-80645000D03*
X83820000Y-94950000D03*
X83820000Y-93010000D03*
D33*
X87295000Y-91440000D03*
X89235000Y-91440000D03*
X79040000Y-89535000D03*
X80980000Y-89535000D03*
D32*
X76200000Y-84790000D03*
X76200000Y-82850000D03*
X92075000Y-94950000D03*
X92075000Y-93010000D03*
X92710000Y-117140000D03*
X92710000Y-119080000D03*
X99060000Y-117140000D03*
X99060000Y-119080000D03*
D33*
X88600000Y-109220000D03*
X86660000Y-109220000D03*
X49230000Y-100965000D03*
X47290000Y-100965000D03*
X88600000Y-111760000D03*
X86660000Y-111760000D03*
X88600000Y-106680000D03*
X86660000Y-106680000D03*
D32*
X95885000Y-117140000D03*
X95885000Y-119080000D03*
X88900000Y-101935000D03*
X88900000Y-99995000D03*
X110490000Y-76535000D03*
X110490000Y-74595000D03*
X110490000Y-81615000D03*
X110490000Y-79675000D03*
X48895000Y-131745000D03*
X48895000Y-133685000D03*
X57150000Y-131745000D03*
X57150000Y-133685000D03*
D33*
X47925000Y-118745000D03*
X49865000Y-118745000D03*
X46655000Y-121920000D03*
X48595000Y-121920000D03*
D32*
X52070000Y-139400000D03*
X52070000Y-137460000D03*
D33*
X42210000Y-71120000D03*
X44150000Y-71120000D03*
D32*
X46990000Y-139400000D03*
X46990000Y-137460000D03*
X85725000Y-99995000D03*
X85725000Y-101935000D03*
X104140000Y-106980000D03*
X104140000Y-108920000D03*
X81280000Y-116540000D03*
X81280000Y-114600000D03*
X78740000Y-118445000D03*
X78740000Y-116505000D03*
D33*
X49230000Y-103505000D03*
X47290000Y-103505000D03*
X51100000Y-97155000D03*
X53040000Y-97155000D03*
D32*
X121920000Y-94950000D03*
X121920000Y-93010000D03*
D33*
X110155000Y-129540000D03*
X112095000Y-129540000D03*
X93010000Y-129540000D03*
X94950000Y-129540000D03*
X75865000Y-129540000D03*
X77805000Y-129540000D03*
X44150000Y-121920000D03*
X42210000Y-121920000D03*
X51100000Y-121920000D03*
X53040000Y-121920000D03*
D32*
X119380000Y-93010000D03*
X119380000Y-94950000D03*
X51435000Y-131745000D03*
X51435000Y-133685000D03*
X54610000Y-131745000D03*
X54610000Y-133685000D03*
X54610000Y-137460000D03*
X54610000Y-139400000D03*
D34*
X73660000Y-75565000D03*
X71120000Y-75565000D03*
D35*
X52070000Y-103175000D03*
X52070000Y-100025000D03*
D36*
X46450000Y-97790000D03*
X42450000Y-97790000D03*
D34*
X125095000Y-145415000D03*
X125095000Y-147955000D03*
X126365000Y-118745000D03*
X128905000Y-118745000D03*
D37*
X83185000Y-102235000D03*
X83185000Y-99695000D03*
D38*
X41910000Y-105410000D03*
X44450000Y-105410000D03*
D39*
X107920000Y-76565000D03*
X104170000Y-76565000D03*
X107920000Y-74565000D03*
X104170000Y-74565000D03*
X107920000Y-81645000D03*
X104170000Y-81645000D03*
X107920000Y-79645000D03*
X104170000Y-79645000D03*
D38*
X57150000Y-137795000D03*
X59690000Y-137795000D03*
D40*
X46990000Y-107950000D03*
X46990000Y-110490000D03*
D34*
X95250000Y-156210000D03*
X95250000Y-153670000D03*
M02*
