G04 #@! TF.GenerationSoftware,KiCad,Pcbnew,(5.1.6)-1*
G04 #@! TF.CreationDate,2023-04-30T23:27:37+02:00*
G04 #@! TF.ProjectId,connecting-connector-1-wire,636f6e6e-6563-4746-996e-672d636f6e6e,rev?*
G04 #@! TF.SameCoordinates,Original*
G04 #@! TF.FileFunction,Copper,L2,Bot*
G04 #@! TF.FilePolarity,Positive*
%FSLAX46Y46*%
G04 Gerber Fmt 4.6, Leading zero omitted, Abs format (unit mm)*
G04 Created by KiCad (PCBNEW (5.1.6)-1) date 2023-04-30 23:27:37*
%MOMM*%
%LPD*%
G01*
G04 APERTURE LIST*
G04 #@! TA.AperFunction,SMDPad,CuDef*
%ADD10R,1.000000X1.000000*%
G04 #@! TD*
G04 #@! TA.AperFunction,ComponentPad*
%ADD11C,6.000000*%
G04 #@! TD*
G04 #@! TA.AperFunction,ComponentPad*
%ADD12C,0.800000*%
G04 #@! TD*
G04 #@! TA.AperFunction,SMDPad,CuDef*
%ADD13C,0.100000*%
G04 #@! TD*
G04 #@! TA.AperFunction,SMDPad,CuDef*
%ADD14R,0.800000X0.800000*%
G04 #@! TD*
G04 #@! TA.AperFunction,ComponentPad*
%ADD15R,3.500000X3.500000*%
G04 #@! TD*
G04 #@! TA.AperFunction,ComponentPad*
%ADD16C,3.500000*%
G04 #@! TD*
G04 #@! TA.AperFunction,ComponentPad*
%ADD17C,1.500000*%
G04 #@! TD*
G04 #@! TA.AperFunction,SMDPad,CuDef*
%ADD18R,0.900000X0.900000*%
G04 #@! TD*
G04 #@! TA.AperFunction,Conductor*
%ADD19C,0.500000*%
G04 #@! TD*
G04 #@! TA.AperFunction,Conductor*
%ADD20C,1.000000*%
G04 #@! TD*
G04 APERTURE END LIST*
D10*
X204216000Y-78302000D03*
X203266000Y-80502000D03*
X205166000Y-80502000D03*
D11*
X192532000Y-98298000D03*
X220980000Y-98298000D03*
X220980000Y-72390000D03*
X192278000Y-72390000D03*
D12*
X198628000Y-89662000D03*
G04 #@! TA.AperFunction,SMDPad,CuDef*
D13*
G36*
X204328000Y-83958000D02*
G01*
X204328000Y-82158000D01*
X205628000Y-82158000D01*
X205628000Y-83958000D01*
X204328000Y-83958000D01*
G37*
G04 #@! TD.AperFunction*
G04 #@! TA.AperFunction,SMDPad,CuDef*
G36*
X201788000Y-83958000D02*
G01*
X201788000Y-82158000D01*
X203088000Y-82158000D01*
X203088000Y-83958000D01*
X201788000Y-83958000D01*
G37*
G04 #@! TD.AperFunction*
G04 #@! TA.AperFunction,SMDPad,CuDef*
G36*
X214742000Y-88530000D02*
G01*
X214742000Y-86730000D01*
X216042000Y-86730000D01*
X216042000Y-88530000D01*
X214742000Y-88530000D01*
G37*
G04 #@! TD.AperFunction*
G04 #@! TA.AperFunction,SMDPad,CuDef*
G36*
X212202000Y-88530000D02*
G01*
X212202000Y-86730000D01*
X213502000Y-86730000D01*
X213502000Y-88530000D01*
X212202000Y-88530000D01*
G37*
G04 #@! TD.AperFunction*
D14*
X215392000Y-84836000D03*
X212852000Y-84836000D03*
G04 #@! TA.AperFunction,SMDPad,CuDef*
D13*
G36*
X194680000Y-81900000D02*
G01*
X196480000Y-81900000D01*
X196480000Y-83200000D01*
X194680000Y-83200000D01*
X194680000Y-81900000D01*
G37*
G04 #@! TD.AperFunction*
G04 #@! TA.AperFunction,SMDPad,CuDef*
G36*
X194680000Y-79360000D02*
G01*
X196480000Y-79360000D01*
X196480000Y-80660000D01*
X194680000Y-80660000D01*
X194680000Y-79360000D01*
G37*
G04 #@! TD.AperFunction*
D15*
X191770000Y-80645000D03*
D16*
X191770000Y-90805000D03*
X191770000Y-85725000D03*
D17*
X210820000Y-87629000D03*
X208280000Y-81279000D03*
X210820000Y-82549000D03*
X208280000Y-88899000D03*
X210820000Y-85089000D03*
X208280000Y-86359000D03*
X208280000Y-83819000D03*
X210820000Y-90169000D03*
D18*
X201168000Y-80227000D03*
X201168000Y-78777000D03*
D19*
X191770000Y-91440000D02*
X191135000Y-90805000D01*
D20*
X202438000Y-83058000D02*
X201676000Y-83058000D01*
X201168000Y-82550000D02*
X201168000Y-80227000D01*
X201676000Y-83058000D02*
X201168000Y-82550000D01*
X198628000Y-82550000D02*
X198628000Y-89662000D01*
X198628000Y-82550000D02*
X201168000Y-82550000D01*
X195580000Y-82550000D02*
X198628000Y-82550000D01*
D19*
X211765001Y-83749001D02*
X212852000Y-84836000D01*
X210126001Y-83749001D02*
X211765001Y-83749001D01*
X209421501Y-84453501D02*
X210126001Y-83749001D01*
X202438000Y-84074000D02*
X202946000Y-84582000D01*
X202946000Y-84582000D02*
X206248000Y-84582000D01*
X202438000Y-83058000D02*
X202438000Y-84074000D01*
X206248000Y-84582000D02*
X206685001Y-85019001D01*
X209421501Y-84456499D02*
X208858999Y-85019001D01*
X209421501Y-84453501D02*
X209421501Y-84456499D01*
X206685001Y-85019001D02*
X208858999Y-85019001D01*
D20*
X205166000Y-82870000D02*
X204978000Y-83058000D01*
X201168000Y-78777000D02*
X202221000Y-78777000D01*
X203266000Y-79822000D02*
X203266000Y-80502000D01*
X202221000Y-78777000D02*
X203266000Y-79822000D01*
X195580000Y-80010000D02*
X198120000Y-80010000D01*
X198120000Y-80010000D02*
X199390000Y-78740000D01*
X201131000Y-78740000D02*
X201168000Y-78777000D01*
X199390000Y-78740000D02*
X201131000Y-78740000D01*
D19*
X205166000Y-81468000D02*
X203642000Y-81468000D01*
D20*
X205166000Y-81468000D02*
X205166000Y-82870000D01*
X205166000Y-80502000D02*
X205166000Y-81468000D01*
D19*
X203266000Y-81092000D02*
X203266000Y-80502000D01*
X203642000Y-81468000D02*
X203266000Y-81092000D01*
D20*
X192405000Y-80010000D02*
X191770000Y-80645000D01*
X195580000Y-80010000D02*
X192405000Y-80010000D01*
X215392000Y-87630000D02*
X215392000Y-84836000D01*
X215392000Y-84836000D02*
X215392000Y-83566000D01*
X210128000Y-78302000D02*
X204216000Y-78302000D01*
X215392000Y-83566000D02*
X210128000Y-78302000D01*
X212851000Y-87629000D02*
X212852000Y-87630000D01*
X210820000Y-87629000D02*
X212851000Y-87629000D01*
M02*
