G04 #@! TF.GenerationSoftware,KiCad,Pcbnew,(5.1.6)-1*
G04 #@! TF.CreationDate,2023-04-30T23:27:37+02:00*
G04 #@! TF.ProjectId,connecting-connector-1-wire,636f6e6e-6563-4746-996e-672d636f6e6e,rev?*
G04 #@! TF.SameCoordinates,Original*
G04 #@! TF.FileFunction,Soldermask,Top*
G04 #@! TF.FilePolarity,Negative*
%FSLAX46Y46*%
G04 Gerber Fmt 4.6, Leading zero omitted, Abs format (unit mm)*
G04 Created by KiCad (PCBNEW (5.1.6)-1) date 2023-04-30 23:27:37*
%MOMM*%
%LPD*%
G01*
G04 APERTURE LIST*
%ADD10C,0.100000*%
G04 APERTURE END LIST*
D10*
G36*
X221869943Y-95364248D02*
G01*
X222425189Y-95594238D01*
X222425190Y-95594239D01*
X222924899Y-95928134D01*
X223349866Y-96353101D01*
X223349867Y-96353103D01*
X223683762Y-96852811D01*
X223913752Y-97408057D01*
X224031000Y-97997501D01*
X224031000Y-98598499D01*
X223913752Y-99187943D01*
X223683762Y-99743189D01*
X223683761Y-99743190D01*
X223349866Y-100242899D01*
X222924899Y-100667866D01*
X222673347Y-100835948D01*
X222425189Y-101001762D01*
X221869943Y-101231752D01*
X221280499Y-101349000D01*
X220679501Y-101349000D01*
X220090057Y-101231752D01*
X219534811Y-101001762D01*
X219286653Y-100835948D01*
X219035101Y-100667866D01*
X218610134Y-100242899D01*
X218276239Y-99743190D01*
X218276238Y-99743189D01*
X218046248Y-99187943D01*
X217929000Y-98598499D01*
X217929000Y-97997501D01*
X218046248Y-97408057D01*
X218276238Y-96852811D01*
X218610133Y-96353103D01*
X218610134Y-96353101D01*
X219035101Y-95928134D01*
X219534810Y-95594239D01*
X219534811Y-95594238D01*
X220090057Y-95364248D01*
X220679501Y-95247000D01*
X221280499Y-95247000D01*
X221869943Y-95364248D01*
G37*
G36*
X193421943Y-95364248D02*
G01*
X193977189Y-95594238D01*
X193977190Y-95594239D01*
X194476899Y-95928134D01*
X194901866Y-96353101D01*
X194901867Y-96353103D01*
X195235762Y-96852811D01*
X195465752Y-97408057D01*
X195583000Y-97997501D01*
X195583000Y-98598499D01*
X195465752Y-99187943D01*
X195235762Y-99743189D01*
X195235761Y-99743190D01*
X194901866Y-100242899D01*
X194476899Y-100667866D01*
X194225347Y-100835948D01*
X193977189Y-101001762D01*
X193421943Y-101231752D01*
X192832499Y-101349000D01*
X192231501Y-101349000D01*
X191642057Y-101231752D01*
X191086811Y-101001762D01*
X190838653Y-100835948D01*
X190587101Y-100667866D01*
X190162134Y-100242899D01*
X189828239Y-99743190D01*
X189828238Y-99743189D01*
X189598248Y-99187943D01*
X189481000Y-98598499D01*
X189481000Y-97997501D01*
X189598248Y-97408057D01*
X189828238Y-96852811D01*
X190162133Y-96353103D01*
X190162134Y-96353101D01*
X190587101Y-95928134D01*
X191086810Y-95594239D01*
X191086811Y-95594238D01*
X191642057Y-95364248D01*
X192231501Y-95247000D01*
X192832499Y-95247000D01*
X193421943Y-95364248D01*
G37*
G36*
X217666162Y-89805368D02*
G01*
X217975724Y-89933593D01*
X218003134Y-89951908D01*
X218254324Y-90119747D01*
X218491253Y-90356676D01*
X218521966Y-90402642D01*
X218677407Y-90635276D01*
X218805632Y-90944838D01*
X218871000Y-91273465D01*
X218871000Y-91608535D01*
X218805632Y-91937162D01*
X218677407Y-92246724D01*
X218677406Y-92246725D01*
X218491253Y-92525324D01*
X218254324Y-92762253D01*
X218068170Y-92886637D01*
X217975724Y-92948407D01*
X217666162Y-93076632D01*
X217337535Y-93142000D01*
X217002465Y-93142000D01*
X216673838Y-93076632D01*
X216364276Y-92948407D01*
X216271830Y-92886637D01*
X216085676Y-92762253D01*
X215848747Y-92525324D01*
X215662594Y-92246725D01*
X215662593Y-92246724D01*
X215534368Y-91937162D01*
X215469000Y-91608535D01*
X215469000Y-91273465D01*
X215534368Y-90944838D01*
X215662593Y-90635276D01*
X215818034Y-90402642D01*
X215848747Y-90356676D01*
X216085676Y-90119747D01*
X216336866Y-89951908D01*
X216364276Y-89933593D01*
X216673838Y-89805368D01*
X217002465Y-89740000D01*
X217337535Y-89740000D01*
X217666162Y-89805368D01*
G37*
G36*
X192295331Y-89073211D02*
G01*
X192623092Y-89208974D01*
X192918070Y-89406072D01*
X193168928Y-89656930D01*
X193366026Y-89951908D01*
X193501789Y-90279669D01*
X193571000Y-90627616D01*
X193571000Y-90982384D01*
X193501789Y-91330331D01*
X193366026Y-91658092D01*
X193168928Y-91953070D01*
X192918070Y-92203928D01*
X192623092Y-92401026D01*
X192295331Y-92536789D01*
X191947384Y-92606000D01*
X191592616Y-92606000D01*
X191244669Y-92536789D01*
X190916908Y-92401026D01*
X190621930Y-92203928D01*
X190371072Y-91953070D01*
X190173974Y-91658092D01*
X190038211Y-91330331D01*
X189969000Y-90982384D01*
X189969000Y-90627616D01*
X190038211Y-90279669D01*
X190173974Y-89951908D01*
X190371072Y-89656930D01*
X190621930Y-89406072D01*
X190916908Y-89208974D01*
X191244669Y-89073211D01*
X191592616Y-89004000D01*
X191947384Y-89004000D01*
X192295331Y-89073211D01*
G37*
G36*
X211053642Y-89398781D02*
G01*
X211173362Y-89448371D01*
X211199416Y-89459163D01*
X211330608Y-89546822D01*
X211442178Y-89658392D01*
X211496706Y-89740000D01*
X211529838Y-89789586D01*
X211590219Y-89935358D01*
X211621000Y-90090107D01*
X211621000Y-90247893D01*
X211590219Y-90402642D01*
X211529838Y-90548414D01*
X211529837Y-90548416D01*
X211442178Y-90679608D01*
X211330608Y-90791178D01*
X211199416Y-90878837D01*
X211199415Y-90878838D01*
X211199414Y-90878838D01*
X211053642Y-90939219D01*
X210898893Y-90970000D01*
X210741107Y-90970000D01*
X210586358Y-90939219D01*
X210440586Y-90878838D01*
X210440585Y-90878838D01*
X210440584Y-90878837D01*
X210309392Y-90791178D01*
X210197822Y-90679608D01*
X210110163Y-90548416D01*
X210110162Y-90548414D01*
X210049781Y-90402642D01*
X210019000Y-90247893D01*
X210019000Y-90090107D01*
X210049781Y-89935358D01*
X210110162Y-89789586D01*
X210143294Y-89740000D01*
X210197822Y-89658392D01*
X210309392Y-89546822D01*
X210440584Y-89459163D01*
X210466638Y-89448371D01*
X210586358Y-89398781D01*
X210741107Y-89368000D01*
X210898893Y-89368000D01*
X211053642Y-89398781D01*
G37*
G36*
X198759552Y-89228331D02*
G01*
X198841627Y-89262328D01*
X198841629Y-89262329D01*
X198878813Y-89287175D01*
X198915495Y-89311685D01*
X198978315Y-89374505D01*
X199027672Y-89448373D01*
X199061669Y-89530448D01*
X199079000Y-89617579D01*
X199079000Y-89706421D01*
X199061669Y-89793552D01*
X199027672Y-89875627D01*
X199027671Y-89875629D01*
X198978314Y-89949496D01*
X198915496Y-90012314D01*
X198841629Y-90061671D01*
X198841628Y-90061672D01*
X198841627Y-90061672D01*
X198759552Y-90095669D01*
X198672421Y-90113000D01*
X198583579Y-90113000D01*
X198496448Y-90095669D01*
X198414373Y-90061672D01*
X198414372Y-90061672D01*
X198414371Y-90061671D01*
X198340504Y-90012314D01*
X198277686Y-89949496D01*
X198228329Y-89875629D01*
X198228328Y-89875627D01*
X198194331Y-89793552D01*
X198177000Y-89706421D01*
X198177000Y-89617579D01*
X198194331Y-89530448D01*
X198228328Y-89448373D01*
X198277685Y-89374505D01*
X198340505Y-89311685D01*
X198377187Y-89287175D01*
X198414371Y-89262329D01*
X198414373Y-89262328D01*
X198496448Y-89228331D01*
X198583579Y-89211000D01*
X198672421Y-89211000D01*
X198759552Y-89228331D01*
G37*
G36*
X208513642Y-88128781D02*
G01*
X208659414Y-88189162D01*
X208659416Y-88189163D01*
X208790608Y-88276822D01*
X208902178Y-88388392D01*
X208989837Y-88519584D01*
X208989838Y-88519586D01*
X209050219Y-88665358D01*
X209081000Y-88820107D01*
X209081000Y-88977893D01*
X209050219Y-89132642D01*
X208989838Y-89278414D01*
X208989837Y-89278416D01*
X208902178Y-89409608D01*
X208790608Y-89521178D01*
X208659416Y-89608837D01*
X208659415Y-89608838D01*
X208659414Y-89608838D01*
X208513642Y-89669219D01*
X208358893Y-89700000D01*
X208201107Y-89700000D01*
X208046358Y-89669219D01*
X207900586Y-89608838D01*
X207900585Y-89608838D01*
X207900584Y-89608837D01*
X207769392Y-89521178D01*
X207657822Y-89409608D01*
X207570163Y-89278416D01*
X207570162Y-89278414D01*
X207509781Y-89132642D01*
X207479000Y-88977893D01*
X207479000Y-88820107D01*
X207509781Y-88665358D01*
X207570162Y-88519586D01*
X207570163Y-88519584D01*
X207657822Y-88388392D01*
X207769392Y-88276822D01*
X207900584Y-88189163D01*
X207900586Y-88189162D01*
X208046358Y-88128781D01*
X208201107Y-88098000D01*
X208358893Y-88098000D01*
X208513642Y-88128781D01*
G37*
G36*
X205824200Y-89351000D02*
G01*
X203522200Y-89351000D01*
X203522200Y-88449000D01*
X205824200Y-88449000D01*
X205824200Y-89351000D01*
G37*
G36*
X202369800Y-89351000D02*
G01*
X200067800Y-89351000D01*
X200067800Y-88449000D01*
X202369800Y-88449000D01*
X202369800Y-89351000D01*
G37*
G36*
X211053642Y-86858781D02*
G01*
X211199414Y-86919162D01*
X211199416Y-86919163D01*
X211330608Y-87006822D01*
X211442178Y-87118392D01*
X211529837Y-87249584D01*
X211529838Y-87249586D01*
X211590219Y-87395358D01*
X211621000Y-87550107D01*
X211621000Y-87707893D01*
X211590219Y-87862642D01*
X211529838Y-88008414D01*
X211529837Y-88008416D01*
X211442178Y-88139608D01*
X211330608Y-88251178D01*
X211199416Y-88338837D01*
X211199415Y-88338838D01*
X211199414Y-88338838D01*
X211053642Y-88399219D01*
X210898893Y-88430000D01*
X210741107Y-88430000D01*
X210586358Y-88399219D01*
X210440586Y-88338838D01*
X210440585Y-88338838D01*
X210440584Y-88338837D01*
X210309392Y-88251178D01*
X210197822Y-88139608D01*
X210110163Y-88008416D01*
X210110162Y-88008414D01*
X210049781Y-87862642D01*
X210019000Y-87707893D01*
X210019000Y-87550107D01*
X210049781Y-87395358D01*
X210110162Y-87249586D01*
X210110163Y-87249584D01*
X210197822Y-87118392D01*
X210309392Y-87006822D01*
X210440584Y-86919163D01*
X210440586Y-86919162D01*
X210586358Y-86858781D01*
X210741107Y-86828000D01*
X210898893Y-86828000D01*
X211053642Y-86858781D01*
G37*
G36*
X199129000Y-88348000D02*
G01*
X198127000Y-88348000D01*
X198127000Y-87346000D01*
X199129000Y-87346000D01*
X199129000Y-88348000D01*
G37*
G36*
X205824200Y-88081000D02*
G01*
X203522200Y-88081000D01*
X203522200Y-87179000D01*
X205824200Y-87179000D01*
X205824200Y-88081000D01*
G37*
G36*
X202369800Y-88081000D02*
G01*
X200067800Y-88081000D01*
X200067800Y-87179000D01*
X202369800Y-87179000D01*
X202369800Y-88081000D01*
G37*
G36*
X192295331Y-83993211D02*
G01*
X192623092Y-84128974D01*
X192918070Y-84326072D01*
X193168928Y-84576930D01*
X193366026Y-84871908D01*
X193501789Y-85199669D01*
X193571000Y-85547616D01*
X193571000Y-85902384D01*
X193501789Y-86250331D01*
X193366026Y-86578092D01*
X193168928Y-86873070D01*
X192918070Y-87123928D01*
X192623092Y-87321026D01*
X192295331Y-87456789D01*
X191947384Y-87526000D01*
X191592616Y-87526000D01*
X191244669Y-87456789D01*
X190916908Y-87321026D01*
X190621930Y-87123928D01*
X190371072Y-86873070D01*
X190173974Y-86578092D01*
X190038211Y-86250331D01*
X189969000Y-85902384D01*
X189969000Y-85547616D01*
X190038211Y-85199669D01*
X190173974Y-84871908D01*
X190371072Y-84576930D01*
X190621930Y-84326072D01*
X190916908Y-84128974D01*
X191244669Y-83993211D01*
X191592616Y-83924000D01*
X191947384Y-83924000D01*
X192295331Y-83993211D01*
G37*
G36*
X208513642Y-85588781D02*
G01*
X208659414Y-85649162D01*
X208659416Y-85649163D01*
X208790608Y-85736822D01*
X208902178Y-85848392D01*
X208989837Y-85979584D01*
X208989838Y-85979586D01*
X209050219Y-86125358D01*
X209081000Y-86280107D01*
X209081000Y-86437893D01*
X209050219Y-86592642D01*
X208989838Y-86738414D01*
X208989837Y-86738416D01*
X208902178Y-86869608D01*
X208790608Y-86981178D01*
X208659416Y-87068837D01*
X208659415Y-87068838D01*
X208659414Y-87068838D01*
X208513642Y-87129219D01*
X208358893Y-87160000D01*
X208201107Y-87160000D01*
X208046358Y-87129219D01*
X207900586Y-87068838D01*
X207900585Y-87068838D01*
X207900584Y-87068837D01*
X207769392Y-86981178D01*
X207657822Y-86869608D01*
X207570163Y-86738416D01*
X207570162Y-86738414D01*
X207509781Y-86592642D01*
X207479000Y-86437893D01*
X207479000Y-86280107D01*
X207509781Y-86125358D01*
X207570162Y-85979586D01*
X207570163Y-85979584D01*
X207657822Y-85848392D01*
X207769392Y-85736822D01*
X207900584Y-85649163D01*
X207900586Y-85649162D01*
X208046358Y-85588781D01*
X208201107Y-85558000D01*
X208358893Y-85558000D01*
X208513642Y-85588781D01*
G37*
G36*
X199129000Y-86898000D02*
G01*
X198127000Y-86898000D01*
X198127000Y-85896000D01*
X199129000Y-85896000D01*
X199129000Y-86898000D01*
G37*
G36*
X205824200Y-86811000D02*
G01*
X203522200Y-86811000D01*
X203522200Y-85909000D01*
X205824200Y-85909000D01*
X205824200Y-86811000D01*
G37*
G36*
X202369800Y-86811000D02*
G01*
X200067800Y-86811000D01*
X200067800Y-85909000D01*
X202369800Y-85909000D01*
X202369800Y-86811000D01*
G37*
G36*
X211053642Y-84318781D02*
G01*
X211199414Y-84379162D01*
X211199416Y-84379163D01*
X211330608Y-84466822D01*
X211442178Y-84578392D01*
X211449412Y-84589219D01*
X211529838Y-84709586D01*
X211590219Y-84855358D01*
X211621000Y-85010107D01*
X211621000Y-85167893D01*
X211590219Y-85322642D01*
X211529838Y-85468414D01*
X211529837Y-85468416D01*
X211442178Y-85599608D01*
X211330608Y-85711178D01*
X211199416Y-85798837D01*
X211199415Y-85798838D01*
X211199414Y-85798838D01*
X211053642Y-85859219D01*
X210898893Y-85890000D01*
X210741107Y-85890000D01*
X210586358Y-85859219D01*
X210440586Y-85798838D01*
X210440585Y-85798838D01*
X210440584Y-85798837D01*
X210309392Y-85711178D01*
X210197822Y-85599608D01*
X210110163Y-85468416D01*
X210110162Y-85468414D01*
X210049781Y-85322642D01*
X210019000Y-85167893D01*
X210019000Y-85010107D01*
X210049781Y-84855358D01*
X210110162Y-84709586D01*
X210190588Y-84589219D01*
X210197822Y-84578392D01*
X210309392Y-84466822D01*
X210440584Y-84379163D01*
X210440586Y-84379162D01*
X210586358Y-84318781D01*
X210741107Y-84288000D01*
X210898893Y-84288000D01*
X211053642Y-84318781D01*
G37*
G36*
X208513642Y-83048781D02*
G01*
X208659414Y-83109162D01*
X208659416Y-83109163D01*
X208790608Y-83196822D01*
X208902178Y-83308392D01*
X208909412Y-83319219D01*
X208989838Y-83439586D01*
X209050219Y-83585358D01*
X209081000Y-83740107D01*
X209081000Y-83897893D01*
X209050219Y-84052642D01*
X208989838Y-84198414D01*
X208989837Y-84198416D01*
X208902178Y-84329608D01*
X208790608Y-84441178D01*
X208659416Y-84528837D01*
X208659415Y-84528838D01*
X208659414Y-84528838D01*
X208513642Y-84589219D01*
X208358893Y-84620000D01*
X208201107Y-84620000D01*
X208046358Y-84589219D01*
X207900586Y-84528838D01*
X207900585Y-84528838D01*
X207900584Y-84528837D01*
X207769392Y-84441178D01*
X207657822Y-84329608D01*
X207570163Y-84198416D01*
X207570162Y-84198414D01*
X207509781Y-84052642D01*
X207479000Y-83897893D01*
X207479000Y-83740107D01*
X207509781Y-83585358D01*
X207570162Y-83439586D01*
X207650588Y-83319219D01*
X207657822Y-83308392D01*
X207769392Y-83196822D01*
X207900584Y-83109163D01*
X207900586Y-83109162D01*
X208046358Y-83048781D01*
X208201107Y-83018000D01*
X208358893Y-83018000D01*
X208513642Y-83048781D01*
G37*
G36*
X211053642Y-81778781D02*
G01*
X211199414Y-81839162D01*
X211199416Y-81839163D01*
X211330608Y-81926822D01*
X211442178Y-82038392D01*
X211449412Y-82049219D01*
X211529838Y-82169586D01*
X211590219Y-82315358D01*
X211621000Y-82470107D01*
X211621000Y-82627893D01*
X211590219Y-82782642D01*
X211529838Y-82928414D01*
X211529837Y-82928416D01*
X211442178Y-83059608D01*
X211330608Y-83171178D01*
X211199416Y-83258837D01*
X211199415Y-83258838D01*
X211199414Y-83258838D01*
X211053642Y-83319219D01*
X210898893Y-83350000D01*
X210741107Y-83350000D01*
X210586358Y-83319219D01*
X210440586Y-83258838D01*
X210440585Y-83258838D01*
X210440584Y-83258837D01*
X210309392Y-83171178D01*
X210197822Y-83059608D01*
X210110163Y-82928416D01*
X210110162Y-82928414D01*
X210049781Y-82782642D01*
X210019000Y-82627893D01*
X210019000Y-82470107D01*
X210049781Y-82315358D01*
X210110162Y-82169586D01*
X210190588Y-82049219D01*
X210197822Y-82038392D01*
X210309392Y-81926822D01*
X210440584Y-81839163D01*
X210440586Y-81839162D01*
X210586358Y-81778781D01*
X210741107Y-81748000D01*
X210898893Y-81748000D01*
X211053642Y-81778781D01*
G37*
G36*
X193571000Y-82446000D02*
G01*
X189969000Y-82446000D01*
X189969000Y-78844000D01*
X193571000Y-78844000D01*
X193571000Y-82446000D01*
G37*
G36*
X208513642Y-80508781D02*
G01*
X208659414Y-80569162D01*
X208659416Y-80569163D01*
X208790608Y-80656822D01*
X208902178Y-80768392D01*
X208933136Y-80814725D01*
X208989838Y-80899586D01*
X209050219Y-81045358D01*
X209081000Y-81200107D01*
X209081000Y-81357893D01*
X209050219Y-81512642D01*
X209048659Y-81516407D01*
X208989837Y-81658416D01*
X208902178Y-81789608D01*
X208790608Y-81901178D01*
X208659416Y-81988837D01*
X208659415Y-81988838D01*
X208659414Y-81988838D01*
X208513642Y-82049219D01*
X208358893Y-82080000D01*
X208201107Y-82080000D01*
X208046358Y-82049219D01*
X207900586Y-81988838D01*
X207900585Y-81988838D01*
X207900584Y-81988837D01*
X207769392Y-81901178D01*
X207657822Y-81789608D01*
X207570163Y-81658416D01*
X207511341Y-81516407D01*
X207509781Y-81512642D01*
X207479000Y-81357893D01*
X207479000Y-81200107D01*
X207509781Y-81045358D01*
X207570162Y-80899586D01*
X207626864Y-80814725D01*
X207657822Y-80768392D01*
X207769392Y-80656822D01*
X207900584Y-80569163D01*
X207900586Y-80569162D01*
X208046358Y-80508781D01*
X208201107Y-80478000D01*
X208358893Y-80478000D01*
X208513642Y-80508781D01*
G37*
G36*
X217666162Y-78373368D02*
G01*
X217975724Y-78501593D01*
X217975725Y-78501594D01*
X218254324Y-78687747D01*
X218491253Y-78924676D01*
X218615637Y-79110830D01*
X218677407Y-79203276D01*
X218805632Y-79512838D01*
X218871000Y-79841465D01*
X218871000Y-80176535D01*
X218805632Y-80505162D01*
X218677407Y-80814724D01*
X218677406Y-80814725D01*
X218491253Y-81093324D01*
X218254324Y-81330253D01*
X218068170Y-81454637D01*
X217975724Y-81516407D01*
X217666162Y-81644632D01*
X217337535Y-81710000D01*
X217002465Y-81710000D01*
X216673838Y-81644632D01*
X216364276Y-81516407D01*
X216271830Y-81454637D01*
X216085676Y-81330253D01*
X215848747Y-81093324D01*
X215662594Y-80814725D01*
X215662593Y-80814724D01*
X215534368Y-80505162D01*
X215469000Y-80176535D01*
X215469000Y-79841465D01*
X215534368Y-79512838D01*
X215662593Y-79203276D01*
X215724363Y-79110830D01*
X215848747Y-78924676D01*
X216085676Y-78687747D01*
X216364275Y-78501594D01*
X216364276Y-78501593D01*
X216673838Y-78373368D01*
X217002465Y-78308000D01*
X217337535Y-78308000D01*
X217666162Y-78373368D01*
G37*
G36*
X193167943Y-69456248D02*
G01*
X193723189Y-69686238D01*
X193723190Y-69686239D01*
X194222899Y-70020134D01*
X194647866Y-70445101D01*
X194647867Y-70445103D01*
X194981762Y-70944811D01*
X195211752Y-71500057D01*
X195329000Y-72089501D01*
X195329000Y-72690499D01*
X195211752Y-73279943D01*
X194981762Y-73835189D01*
X194981761Y-73835190D01*
X194647866Y-74334899D01*
X194222899Y-74759866D01*
X193971347Y-74927948D01*
X193723189Y-75093762D01*
X193167943Y-75323752D01*
X192578499Y-75441000D01*
X191977501Y-75441000D01*
X191388057Y-75323752D01*
X190832811Y-75093762D01*
X190584653Y-74927948D01*
X190333101Y-74759866D01*
X189908134Y-74334899D01*
X189574239Y-73835190D01*
X189574238Y-73835189D01*
X189344248Y-73279943D01*
X189227000Y-72690499D01*
X189227000Y-72089501D01*
X189344248Y-71500057D01*
X189574238Y-70944811D01*
X189908133Y-70445103D01*
X189908134Y-70445101D01*
X190333101Y-70020134D01*
X190832810Y-69686239D01*
X190832811Y-69686238D01*
X191388057Y-69456248D01*
X191977501Y-69339000D01*
X192578499Y-69339000D01*
X193167943Y-69456248D01*
G37*
G36*
X221869943Y-69456248D02*
G01*
X222425189Y-69686238D01*
X222425190Y-69686239D01*
X222924899Y-70020134D01*
X223349866Y-70445101D01*
X223349867Y-70445103D01*
X223683762Y-70944811D01*
X223913752Y-71500057D01*
X224031000Y-72089501D01*
X224031000Y-72690499D01*
X223913752Y-73279943D01*
X223683762Y-73835189D01*
X223683761Y-73835190D01*
X223349866Y-74334899D01*
X222924899Y-74759866D01*
X222673347Y-74927948D01*
X222425189Y-75093762D01*
X221869943Y-75323752D01*
X221280499Y-75441000D01*
X220679501Y-75441000D01*
X220090057Y-75323752D01*
X219534811Y-75093762D01*
X219286653Y-74927948D01*
X219035101Y-74759866D01*
X218610134Y-74334899D01*
X218276239Y-73835190D01*
X218276238Y-73835189D01*
X218046248Y-73279943D01*
X217929000Y-72690499D01*
X217929000Y-72089501D01*
X218046248Y-71500057D01*
X218276238Y-70944811D01*
X218610133Y-70445103D01*
X218610134Y-70445101D01*
X219035101Y-70020134D01*
X219534810Y-69686239D01*
X219534811Y-69686238D01*
X220090057Y-69456248D01*
X220679501Y-69339000D01*
X221280499Y-69339000D01*
X221869943Y-69456248D01*
G37*
M02*
