G04 #@! TF.GenerationSoftware,KiCad,Pcbnew,(5.1.6)-1*
G04 #@! TF.CreationDate,2021-06-16T15:57:26+02:00*
G04 #@! TF.ProjectId,wall-sensor-of-room-temperature,77616c6c-2d73-4656-9e73-6f722d6f662d,rev?*
G04 #@! TF.SameCoordinates,Original*
G04 #@! TF.FileFunction,Soldermask,Top*
G04 #@! TF.FilePolarity,Negative*
%FSLAX46Y46*%
G04 Gerber Fmt 4.6, Leading zero omitted, Abs format (unit mm)*
G04 Created by KiCad (PCBNEW (5.1.6)-1) date 2021-06-16 15:57:26*
%MOMM*%
%LPD*%
G01*
G04 APERTURE LIST*
%ADD10C,0.900000*%
%ADD11O,1.900000X1.900000*%
%ADD12R,1.900000X1.900000*%
%ADD13R,1.100000X0.410000*%
%ADD14R,1.600000X1.850000*%
%ADD15R,0.900000X0.900000*%
%ADD16C,3.300000*%
%ADD17C,4.600000*%
%ADD18R,4.700000X1.200000*%
%ADD19R,9.500000X10.900000*%
%ADD20R,0.900000X0.400000*%
%ADD21R,5.100000X5.100000*%
%ADD22R,1.000000X2.600000*%
%ADD23O,1.800000X1.800000*%
%ADD24R,1.800000X1.800000*%
%ADD25R,1.150000X1.600000*%
%ADD26R,2.100000X1.100000*%
%ADD27R,1.600000X1.400000*%
%ADD28C,1.950000*%
%ADD29C,3.100000*%
%ADD30C,3.600000*%
%ADD31R,1.400000X1.600000*%
G04 APERTURE END LIST*
D10*
X93345000Y-73660000D03*
X118110000Y-113030000D03*
X127635000Y-140970000D03*
X92075000Y-73660000D03*
X86995000Y-92790002D03*
X88475001Y-92920001D03*
X100965000Y-97790000D03*
X100965000Y-94615000D03*
X97790000Y-97790000D03*
X97790000Y-94615000D03*
X94615000Y-97790000D03*
X94615000Y-94615000D03*
X76835000Y-90805000D03*
X76200000Y-89535000D03*
X76200000Y-87630000D03*
X76200000Y-86360000D03*
X89535000Y-100330000D03*
X92075000Y-100330000D03*
X86995000Y-100330000D03*
X83820000Y-100330000D03*
X89535000Y-98425000D03*
X86995000Y-98425000D03*
X89535000Y-96520000D03*
X86995000Y-96520000D03*
X81280000Y-97790000D03*
X85090000Y-97790000D03*
X73025000Y-94950000D03*
X85205000Y-95135000D03*
X81280000Y-94950000D03*
X77470000Y-94950000D03*
X77470000Y-76200000D03*
X76200000Y-76200000D03*
X73660000Y-81280000D03*
X73660000Y-78740000D03*
X77470000Y-97790000D03*
X73025000Y-97790000D03*
X83820000Y-73660000D03*
X95885000Y-80645000D03*
X95885000Y-84455000D03*
X95885000Y-88265000D03*
X99060000Y-88265000D03*
X99060000Y-84455000D03*
X99060000Y-80645000D03*
X99060000Y-76835000D03*
X95885000Y-76835000D03*
X40005000Y-88900000D03*
X40005000Y-70485000D03*
X55245000Y-70485000D03*
X73025000Y-70485000D03*
X89535000Y-70485000D03*
X106680000Y-70485000D03*
X108585000Y-85725000D03*
X109855000Y-84455000D03*
X135600000Y-91150000D03*
X134330000Y-91150000D03*
X123825000Y-94615000D03*
X118745000Y-96520000D03*
X120015000Y-91440000D03*
X121920000Y-91440000D03*
X127000000Y-91440000D03*
X130175000Y-91440000D03*
X133985000Y-93345000D03*
X133985000Y-99060000D03*
X133985000Y-103505000D03*
X134620000Y-120650000D03*
X118110000Y-114300000D03*
X105410000Y-113665000D03*
X105410000Y-118110000D03*
X102870000Y-122555000D03*
X92710000Y-122555000D03*
X92710000Y-127635000D03*
X143510000Y-124460000D03*
X88265000Y-127635000D03*
X143510000Y-107315000D03*
X126365000Y-123190000D03*
X121285000Y-147320000D03*
X127635000Y-139700000D03*
X121285000Y-142875000D03*
X130175000Y-147955000D03*
X121285000Y-156845000D03*
X123190000Y-145415000D03*
X105410000Y-142875000D03*
X143510000Y-156845000D03*
X104140000Y-146050000D03*
X143510000Y-142240000D03*
X71120000Y-118745000D03*
X71120000Y-109220000D03*
X95250000Y-151130000D03*
X95250000Y-144145000D03*
X82550000Y-109220000D03*
X93980000Y-109220000D03*
X82550000Y-118745000D03*
X93980000Y-118745000D03*
X59690000Y-118745000D03*
X67310000Y-147320000D03*
X90805000Y-147955000D03*
X40005000Y-106045000D03*
X59690000Y-109220000D03*
X40005000Y-121285000D03*
X40005000Y-141605000D03*
X40005000Y-156845000D03*
D11*
X127635000Y-152400000D03*
X130175000Y-152400000D03*
X130175000Y-149860000D03*
D12*
X127635000Y-149860000D03*
D11*
X132715000Y-152400000D03*
X132715000Y-149860000D03*
D13*
X86779100Y-94290000D03*
X89750900Y-95590000D03*
D14*
X88265000Y-94615000D03*
D13*
X86779100Y-95590000D03*
X86779100Y-94940000D03*
X89750900Y-93640000D03*
X89750900Y-94290000D03*
X89750900Y-94940000D03*
X86779100Y-93640000D03*
D15*
X52705000Y-147955000D03*
X55245000Y-147955000D03*
D16*
X61000000Y-125720000D03*
X61000000Y-91720000D03*
D17*
X48895000Y-150095000D03*
X48895000Y-156595000D03*
X53395000Y-152845000D03*
D18*
X80385000Y-80850000D03*
X80385000Y-85950000D03*
X80385000Y-84250000D03*
X80385000Y-79150000D03*
X80385000Y-82550000D03*
D19*
X89535000Y-82550000D03*
D20*
X126460000Y-110355000D03*
X126460000Y-108855000D03*
X127540000Y-110855000D03*
X127540000Y-110355000D03*
X126460000Y-109855000D03*
X126460000Y-109355000D03*
X126460000Y-110855000D03*
X127540000Y-109855000D03*
X127540000Y-109355000D03*
X127540000Y-108855000D03*
X126460000Y-102100000D03*
X126460000Y-100600000D03*
X127540000Y-102600000D03*
X127540000Y-102100000D03*
X126460000Y-101600000D03*
X126460000Y-101100000D03*
X126460000Y-102600000D03*
X127540000Y-101600000D03*
X127540000Y-101100000D03*
X127540000Y-100600000D03*
D21*
X129175000Y-79145000D03*
D22*
X136870000Y-89270000D03*
X135600000Y-89270000D03*
X134330000Y-89270000D03*
X121630000Y-72020000D03*
X131790000Y-72020000D03*
X127980000Y-89270000D03*
X124170000Y-72020000D03*
X127980000Y-72020000D03*
X133060000Y-72020000D03*
X135600000Y-72020000D03*
X130520000Y-89270000D03*
X122900000Y-72020000D03*
X134330000Y-72020000D03*
X114010000Y-89281000D03*
X120360000Y-72020000D03*
X126710000Y-72020000D03*
X121630000Y-89270000D03*
X120360000Y-89281000D03*
X126710000Y-89270000D03*
X129250000Y-72020000D03*
X116550000Y-89281000D03*
X122900000Y-89270000D03*
X133060000Y-89270000D03*
X117820000Y-89270000D03*
X124170000Y-89270000D03*
X129250000Y-89270000D03*
X131790000Y-89270000D03*
X125440000Y-89270000D03*
X125440000Y-72020000D03*
X130520000Y-72020000D03*
X115280000Y-89281000D03*
X119090000Y-89270000D03*
X115280000Y-72009000D03*
X136870000Y-72020000D03*
X114010000Y-72009000D03*
X117820000Y-72020000D03*
X116550000Y-72009000D03*
X119090000Y-72020000D03*
D23*
X123515000Y-110910000D03*
X123515000Y-108370000D03*
X123515000Y-98210000D03*
X123515000Y-100750000D03*
X123515000Y-115990000D03*
D24*
X123515000Y-118530000D03*
D23*
X123515000Y-113450000D03*
X123515000Y-105830000D03*
X123515000Y-103290000D03*
G36*
G01*
X92135000Y-156087500D02*
X92135000Y-155062500D01*
G75*
G02*
X92422500Y-154775000I287500J0D01*
G01*
X92997500Y-154775000D01*
G75*
G02*
X93285000Y-155062500I0J-287500D01*
G01*
X93285000Y-156087500D01*
G75*
G02*
X92997500Y-156375000I-287500J0D01*
G01*
X92422500Y-156375000D01*
G75*
G02*
X92135000Y-156087500I0J287500D01*
G01*
G37*
G36*
G01*
X90865000Y-156087500D02*
X90865000Y-155062500D01*
G75*
G02*
X91152500Y-154775000I287500J0D01*
G01*
X91727500Y-154775000D01*
G75*
G02*
X92015000Y-155062500I0J-287500D01*
G01*
X92015000Y-156087500D01*
G75*
G02*
X91727500Y-156375000I-287500J0D01*
G01*
X91152500Y-156375000D01*
G75*
G02*
X90865000Y-156087500I0J287500D01*
G01*
G37*
D25*
X90170000Y-155575000D03*
D26*
X104170000Y-79645000D03*
X104170000Y-81645000D03*
X107920000Y-79645000D03*
X107920000Y-81645000D03*
X104170000Y-74565000D03*
X104170000Y-76565000D03*
X107920000Y-74565000D03*
X107920000Y-76565000D03*
D15*
X95250000Y-156210000D03*
X95250000Y-153670000D03*
D27*
X119380000Y-93010000D03*
X119380000Y-94950000D03*
D28*
X74295000Y-142320000D03*
X74295000Y-133270000D03*
D29*
X74295000Y-144745000D03*
D30*
X80595000Y-140345000D03*
X80595000Y-135245000D03*
X67995000Y-140345000D03*
X67995000Y-135245000D03*
D28*
X91500000Y-142320000D03*
X91500000Y-133270000D03*
D29*
X91500000Y-144745000D03*
D30*
X97800000Y-140345000D03*
X97800000Y-135245000D03*
X85200000Y-140345000D03*
X85200000Y-135245000D03*
D28*
X108585000Y-142320000D03*
X108585000Y-133270000D03*
D29*
X108585000Y-144745000D03*
D30*
X114885000Y-140345000D03*
X114885000Y-135245000D03*
X102285000Y-140345000D03*
X102285000Y-135245000D03*
D31*
X75865000Y-129540000D03*
X77805000Y-129540000D03*
X93010000Y-129540000D03*
X94950000Y-129540000D03*
X110155000Y-129540000D03*
X112095000Y-129540000D03*
D27*
X121920000Y-94950000D03*
X121920000Y-93010000D03*
D15*
X126365000Y-118745000D03*
X128905000Y-118745000D03*
X125095000Y-149860000D03*
X125095000Y-152400000D03*
X73660000Y-75565000D03*
X71120000Y-75565000D03*
D27*
X110490000Y-81615000D03*
X110490000Y-79675000D03*
X110490000Y-76535000D03*
X110490000Y-74595000D03*
X92075000Y-94950000D03*
X92075000Y-93010000D03*
X76200000Y-84790000D03*
X76200000Y-82850000D03*
D31*
X79040000Y-89535000D03*
X80980000Y-89535000D03*
X87295000Y-91440000D03*
X89235000Y-91440000D03*
D27*
X83820000Y-94950000D03*
X83820000Y-93010000D03*
X76200000Y-78705000D03*
X76200000Y-80645000D03*
M02*
