G04 #@! TF.GenerationSoftware,KiCad,Pcbnew,(5.1.6)-1*
G04 #@! TF.CreationDate,2022-03-27T18:43:43+02:00*
G04 #@! TF.ProjectId,signalization_by_fireplace,7369676e-616c-4697-9a61-74696f6e5f62,rev?*
G04 #@! TF.SameCoordinates,Original*
G04 #@! TF.FileFunction,Paste,Top*
G04 #@! TF.FilePolarity,Positive*
%FSLAX46Y46*%
G04 Gerber Fmt 4.6, Leading zero omitted, Abs format (unit mm)*
G04 Created by KiCad (PCBNEW (5.1.6)-1) date 2022-03-27 18:43:43*
%MOMM*%
%LPD*%
G01*
G04 APERTURE LIST*
%ADD10R,0.800000X0.800000*%
%ADD11R,1.050000X0.880000*%
%ADD12R,0.500000X2.000000*%
%ADD13R,1.500000X0.350000*%
%ADD14R,0.900000X0.900000*%
%ADD15R,0.350000X1.200000*%
%ADD16C,0.100000*%
%ADD17R,1.000000X1.000000*%
%ADD18R,0.900000X0.800000*%
%ADD19R,1.300000X1.000000*%
%ADD20R,0.800000X2.200000*%
G04 APERTURE END LIST*
D10*
X231838500Y-140208000D03*
X234378500Y-140208000D03*
D11*
X169047000Y-116703400D03*
X167797000Y-116703400D03*
D12*
X170647000Y-112320000D03*
X171947000Y-118820000D03*
X168047000Y-112320000D03*
D11*
X169047000Y-114436600D03*
D12*
X168697000Y-118820000D03*
X170647000Y-118820000D03*
X169997000Y-112320000D03*
X167397000Y-118820000D03*
X169347000Y-118820000D03*
X169997000Y-118820000D03*
X171297000Y-118820000D03*
X168047000Y-118820000D03*
X171947000Y-112320000D03*
X171297000Y-112320000D03*
X169347000Y-112320000D03*
X168697000Y-112320000D03*
X167397000Y-112320000D03*
D11*
X167797000Y-115570000D03*
X167797000Y-114436600D03*
X169047000Y-115570000D03*
X171547000Y-114436600D03*
X170297000Y-114436600D03*
X171547000Y-115570000D03*
X171547000Y-116703400D03*
X170297000Y-116703400D03*
X170297000Y-115570000D03*
D13*
X220980000Y-101616000D03*
X220980000Y-102116000D03*
X220980000Y-102616000D03*
X220980000Y-103116000D03*
X220980000Y-103616000D03*
X215900000Y-103616000D03*
X215900000Y-103116000D03*
X215900000Y-102616000D03*
X215900000Y-101616000D03*
X215900000Y-102116000D03*
D14*
X199406000Y-109870000D03*
X201406000Y-109220000D03*
X199406000Y-108570000D03*
D15*
X193278000Y-111566960D03*
X193278000Y-107381040D03*
X192778000Y-107381040D03*
X192278000Y-107381040D03*
X191778000Y-107381040D03*
G36*
G01*
X192000500Y-109839000D02*
X191555500Y-109839000D01*
G75*
G02*
X191373000Y-109656500I0J182500D01*
G01*
X191373000Y-109291500D01*
G75*
G02*
X191555500Y-109109000I182500J0D01*
G01*
X192000500Y-109109000D01*
G75*
G02*
X192183000Y-109291500I0J-182500D01*
G01*
X192183000Y-109656500D01*
G75*
G02*
X192000500Y-109839000I-182500J0D01*
G01*
G37*
X191278000Y-107381040D03*
G36*
G01*
X193000500Y-109839000D02*
X192555500Y-109839000D01*
G75*
G02*
X192373000Y-109656500I0J182500D01*
G01*
X192373000Y-109291500D01*
G75*
G02*
X192555500Y-109109000I182500J0D01*
G01*
X193000500Y-109109000D01*
G75*
G02*
X193183000Y-109291500I0J-182500D01*
G01*
X193183000Y-109656500D01*
G75*
G02*
X193000500Y-109839000I-182500J0D01*
G01*
G37*
X191277240Y-111566960D03*
X191778000Y-111566960D03*
X192778000Y-111566960D03*
X192278000Y-111566960D03*
D16*
G36*
X229160500Y-137018000D02*
G01*
X230960500Y-137018000D01*
X230960500Y-138318000D01*
X229160500Y-138318000D01*
X229160500Y-137018000D01*
G37*
G36*
X229160500Y-134478000D02*
G01*
X230960500Y-134478000D01*
X230960500Y-135778000D01*
X229160500Y-135778000D01*
X229160500Y-134478000D01*
G37*
G36*
X226616500Y-141362000D02*
G01*
X226616500Y-139562000D01*
X227916500Y-139562000D01*
X227916500Y-141362000D01*
X226616500Y-141362000D01*
G37*
G36*
X224076500Y-141362000D02*
G01*
X224076500Y-139562000D01*
X225376500Y-139562000D01*
X225376500Y-141362000D01*
X224076500Y-141362000D01*
G37*
D17*
X233362500Y-137598000D03*
X232412500Y-135398000D03*
X234312500Y-135398000D03*
D18*
X238035000Y-132588000D03*
X239485000Y-132588000D03*
X234341500Y-133096000D03*
X232891500Y-133096000D03*
X237717500Y-82804000D03*
X239167500Y-82804000D03*
X237717500Y-80264000D03*
X239167500Y-80264000D03*
X237717500Y-77724000D03*
X239167500Y-77724000D03*
D16*
G36*
X234050000Y-114666000D02*
G01*
X235850000Y-114666000D01*
X235850000Y-115966000D01*
X234050000Y-115966000D01*
X234050000Y-114666000D01*
G37*
G36*
X234050000Y-112126000D02*
G01*
X235850000Y-112126000D01*
X235850000Y-113426000D01*
X234050000Y-113426000D01*
X234050000Y-112126000D01*
G37*
G36*
X212968000Y-135494000D02*
G01*
X214768000Y-135494000D01*
X214768000Y-136794000D01*
X212968000Y-136794000D01*
X212968000Y-135494000D01*
G37*
G36*
X212968000Y-132954000D02*
G01*
X214768000Y-132954000D01*
X214768000Y-134254000D01*
X212968000Y-134254000D01*
X212968000Y-132954000D01*
G37*
G36*
X191124000Y-135494000D02*
G01*
X192924000Y-135494000D01*
X192924000Y-136794000D01*
X191124000Y-136794000D01*
X191124000Y-135494000D01*
G37*
G36*
X191124000Y-132954000D02*
G01*
X192924000Y-132954000D01*
X192924000Y-134254000D01*
X191124000Y-134254000D01*
X191124000Y-132954000D01*
G37*
G36*
X169280000Y-135494000D02*
G01*
X171080000Y-135494000D01*
X171080000Y-136794000D01*
X169280000Y-136794000D01*
X169280000Y-135494000D01*
G37*
G36*
X169280000Y-132954000D02*
G01*
X171080000Y-132954000D01*
X171080000Y-134254000D01*
X169280000Y-134254000D01*
X169280000Y-132954000D01*
G37*
D19*
X206740000Y-114234000D03*
X204540000Y-113284000D03*
X206740000Y-112334000D03*
D16*
G36*
X148638500Y-96658000D02*
G01*
X148638500Y-94858000D01*
X149938500Y-94858000D01*
X149938500Y-96658000D01*
X148638500Y-96658000D01*
G37*
G36*
X146098500Y-96658000D02*
G01*
X146098500Y-94858000D01*
X147398500Y-94858000D01*
X147398500Y-96658000D01*
X146098500Y-96658000D01*
G37*
G36*
X199532000Y-112130000D02*
G01*
X199532000Y-113930000D01*
X198232000Y-113930000D01*
X198232000Y-112130000D01*
X199532000Y-112130000D01*
G37*
G36*
X202072000Y-112130000D02*
G01*
X202072000Y-113930000D01*
X200772000Y-113930000D01*
X200772000Y-112130000D01*
X202072000Y-112130000D01*
G37*
G36*
X159654000Y-105272000D02*
G01*
X159654000Y-107072000D01*
X158354000Y-107072000D01*
X158354000Y-105272000D01*
X159654000Y-105272000D01*
G37*
G36*
X162194000Y-105272000D02*
G01*
X162194000Y-107072000D01*
X160894000Y-107072000D01*
X160894000Y-105272000D01*
X162194000Y-105272000D01*
G37*
G36*
X196204000Y-109840000D02*
G01*
X198004000Y-109840000D01*
X198004000Y-111140000D01*
X196204000Y-111140000D01*
X196204000Y-109840000D01*
G37*
G36*
X196204000Y-107300000D02*
G01*
X198004000Y-107300000D01*
X198004000Y-108600000D01*
X196204000Y-108600000D01*
X196204000Y-107300000D01*
G37*
G36*
X204862000Y-97424000D02*
G01*
X203062000Y-97424000D01*
X203062000Y-96124000D01*
X204862000Y-96124000D01*
X204862000Y-97424000D01*
G37*
G36*
X204862000Y-99964000D02*
G01*
X203062000Y-99964000D01*
X203062000Y-98664000D01*
X204862000Y-98664000D01*
X204862000Y-99964000D01*
G37*
G36*
X225410000Y-132472000D02*
G01*
X225410000Y-130672000D01*
X226710000Y-130672000D01*
X226710000Y-132472000D01*
X225410000Y-132472000D01*
G37*
G36*
X222870000Y-132472000D02*
G01*
X222870000Y-130672000D01*
X224170000Y-130672000D01*
X224170000Y-132472000D01*
X222870000Y-132472000D01*
G37*
G36*
X216016000Y-135494000D02*
G01*
X217816000Y-135494000D01*
X217816000Y-136794000D01*
X216016000Y-136794000D01*
X216016000Y-135494000D01*
G37*
G36*
X216016000Y-132954000D02*
G01*
X217816000Y-132954000D01*
X217816000Y-134254000D01*
X216016000Y-134254000D01*
X216016000Y-132954000D01*
G37*
G36*
X238114000Y-90790000D02*
G01*
X239914000Y-90790000D01*
X239914000Y-92090000D01*
X238114000Y-92090000D01*
X238114000Y-90790000D01*
G37*
G36*
X238114000Y-88250000D02*
G01*
X239914000Y-88250000D01*
X239914000Y-89550000D01*
X238114000Y-89550000D01*
X238114000Y-88250000D01*
G37*
G36*
X243978000Y-89550000D02*
G01*
X242178000Y-89550000D01*
X242178000Y-88250000D01*
X243978000Y-88250000D01*
X243978000Y-89550000D01*
G37*
G36*
X243978000Y-92090000D02*
G01*
X242178000Y-92090000D01*
X242178000Y-90790000D01*
X243978000Y-90790000D01*
X243978000Y-92090000D01*
G37*
G36*
X234304000Y-96886000D02*
G01*
X236104000Y-96886000D01*
X236104000Y-98186000D01*
X234304000Y-98186000D01*
X234304000Y-96886000D01*
G37*
G36*
X234304000Y-94346000D02*
G01*
X236104000Y-94346000D01*
X236104000Y-95646000D01*
X234304000Y-95646000D01*
X234304000Y-94346000D01*
G37*
G36*
X226430000Y-90790000D02*
G01*
X228230000Y-90790000D01*
X228230000Y-92090000D01*
X226430000Y-92090000D01*
X226430000Y-90790000D01*
G37*
G36*
X226430000Y-88250000D02*
G01*
X228230000Y-88250000D01*
X228230000Y-89550000D01*
X226430000Y-89550000D01*
X226430000Y-88250000D01*
G37*
G36*
X230748000Y-90790000D02*
G01*
X232548000Y-90790000D01*
X232548000Y-92090000D01*
X230748000Y-92090000D01*
X230748000Y-90790000D01*
G37*
G36*
X230748000Y-88250000D02*
G01*
X232548000Y-88250000D01*
X232548000Y-89550000D01*
X230748000Y-89550000D01*
X230748000Y-88250000D01*
G37*
G36*
X203566000Y-132472000D02*
G01*
X203566000Y-130672000D01*
X204866000Y-130672000D01*
X204866000Y-132472000D01*
X203566000Y-132472000D01*
G37*
G36*
X201026000Y-132472000D02*
G01*
X201026000Y-130672000D01*
X202326000Y-130672000D01*
X202326000Y-132472000D01*
X201026000Y-132472000D01*
G37*
G36*
X194172000Y-135494000D02*
G01*
X195972000Y-135494000D01*
X195972000Y-136794000D01*
X194172000Y-136794000D01*
X194172000Y-135494000D01*
G37*
G36*
X194172000Y-132954000D02*
G01*
X195972000Y-132954000D01*
X195972000Y-134254000D01*
X194172000Y-134254000D01*
X194172000Y-132954000D01*
G37*
G36*
X226176000Y-108824000D02*
G01*
X227976000Y-108824000D01*
X227976000Y-110124000D01*
X226176000Y-110124000D01*
X226176000Y-108824000D01*
G37*
G36*
X226176000Y-106284000D02*
G01*
X227976000Y-106284000D01*
X227976000Y-107584000D01*
X226176000Y-107584000D01*
X226176000Y-106284000D01*
G37*
G36*
X232040000Y-107584000D02*
G01*
X230240000Y-107584000D01*
X230240000Y-106284000D01*
X232040000Y-106284000D01*
X232040000Y-107584000D01*
G37*
G36*
X232040000Y-110124000D02*
G01*
X230240000Y-110124000D01*
X230240000Y-108824000D01*
X232040000Y-108824000D01*
X232040000Y-110124000D01*
G37*
G36*
X238368000Y-109078000D02*
G01*
X240168000Y-109078000D01*
X240168000Y-110378000D01*
X238368000Y-110378000D01*
X238368000Y-109078000D01*
G37*
G36*
X238368000Y-106538000D02*
G01*
X240168000Y-106538000D01*
X240168000Y-107838000D01*
X238368000Y-107838000D01*
X238368000Y-106538000D01*
G37*
G36*
X242432000Y-109078000D02*
G01*
X244232000Y-109078000D01*
X244232000Y-110378000D01*
X242432000Y-110378000D01*
X242432000Y-109078000D01*
G37*
G36*
X242432000Y-106538000D02*
G01*
X244232000Y-106538000D01*
X244232000Y-107838000D01*
X242432000Y-107838000D01*
X242432000Y-106538000D01*
G37*
G36*
X181722000Y-132472000D02*
G01*
X181722000Y-130672000D01*
X183022000Y-130672000D01*
X183022000Y-132472000D01*
X181722000Y-132472000D01*
G37*
G36*
X179182000Y-132472000D02*
G01*
X179182000Y-130672000D01*
X180482000Y-130672000D01*
X180482000Y-132472000D01*
X179182000Y-132472000D01*
G37*
G36*
X172328000Y-135494000D02*
G01*
X174128000Y-135494000D01*
X174128000Y-136794000D01*
X172328000Y-136794000D01*
X172328000Y-135494000D01*
G37*
G36*
X172328000Y-132954000D02*
G01*
X174128000Y-132954000D01*
X174128000Y-134254000D01*
X172328000Y-134254000D01*
X172328000Y-132954000D01*
G37*
G36*
X214238000Y-87488000D02*
G01*
X216038000Y-87488000D01*
X216038000Y-88788000D01*
X214238000Y-88788000D01*
X214238000Y-87488000D01*
G37*
G36*
X214238000Y-84948000D02*
G01*
X216038000Y-84948000D01*
X216038000Y-86248000D01*
X214238000Y-86248000D01*
X214238000Y-84948000D01*
G37*
G36*
X208396000Y-87488000D02*
G01*
X210196000Y-87488000D01*
X210196000Y-88788000D01*
X208396000Y-88788000D01*
X208396000Y-87488000D01*
G37*
G36*
X208396000Y-84948000D02*
G01*
X210196000Y-84948000D01*
X210196000Y-86248000D01*
X208396000Y-86248000D01*
X208396000Y-84948000D01*
G37*
D14*
X219218000Y-135524000D03*
X221218000Y-134874000D03*
X219218000Y-134224000D03*
X197374000Y-135524000D03*
X199374000Y-134874000D03*
X197374000Y-134224000D03*
X175530000Y-135524000D03*
X177530000Y-134874000D03*
X175530000Y-134224000D03*
D20*
X238252000Y-135178800D03*
X236982000Y-135178800D03*
X239522000Y-135178800D03*
X236982000Y-138633200D03*
X238252000Y-138633200D03*
X239522000Y-138633200D03*
D16*
G36*
X168006000Y-108596000D02*
G01*
X168006000Y-106796000D01*
X169306000Y-106796000D01*
X169306000Y-108596000D01*
X168006000Y-108596000D01*
G37*
G36*
X165466000Y-108596000D02*
G01*
X165466000Y-106796000D01*
X166766000Y-106796000D01*
X166766000Y-108596000D01*
X165466000Y-108596000D01*
G37*
G36*
X172832000Y-108596000D02*
G01*
X172832000Y-106796000D01*
X174132000Y-106796000D01*
X174132000Y-108596000D01*
X172832000Y-108596000D01*
G37*
G36*
X170292000Y-108596000D02*
G01*
X170292000Y-106796000D01*
X171592000Y-106796000D01*
X171592000Y-108596000D01*
X170292000Y-108596000D01*
G37*
G36*
X170292000Y-124852000D02*
G01*
X170292000Y-123052000D01*
X171592000Y-123052000D01*
X171592000Y-124852000D01*
X170292000Y-124852000D01*
G37*
G36*
X167752000Y-124852000D02*
G01*
X167752000Y-123052000D01*
X169052000Y-123052000D01*
X169052000Y-124852000D01*
X167752000Y-124852000D01*
G37*
G36*
X206360000Y-107834000D02*
G01*
X206360000Y-106034000D01*
X207660000Y-106034000D01*
X207660000Y-107834000D01*
X206360000Y-107834000D01*
G37*
G36*
X203820000Y-107834000D02*
G01*
X203820000Y-106034000D01*
X205120000Y-106034000D01*
X205120000Y-107834000D01*
X203820000Y-107834000D01*
G37*
G36*
X206360000Y-110628000D02*
G01*
X206360000Y-108828000D01*
X207660000Y-108828000D01*
X207660000Y-110628000D01*
X206360000Y-110628000D01*
G37*
G36*
X203820000Y-110628000D02*
G01*
X203820000Y-108828000D01*
X205120000Y-108828000D01*
X205120000Y-110628000D01*
X203820000Y-110628000D01*
G37*
G36*
X191658000Y-116448000D02*
G01*
X191658000Y-118248000D01*
X190358000Y-118248000D01*
X190358000Y-116448000D01*
X191658000Y-116448000D01*
G37*
G36*
X194198000Y-116448000D02*
G01*
X194198000Y-118248000D01*
X192898000Y-118248000D01*
X192898000Y-116448000D01*
X194198000Y-116448000D01*
G37*
G36*
X192898000Y-115454000D02*
G01*
X192898000Y-113654000D01*
X194198000Y-113654000D01*
X194198000Y-115454000D01*
X192898000Y-115454000D01*
G37*
G36*
X190358000Y-115454000D02*
G01*
X190358000Y-113654000D01*
X191658000Y-113654000D01*
X191658000Y-115454000D01*
X190358000Y-115454000D01*
G37*
G36*
X189114000Y-115458000D02*
G01*
X187314000Y-115458000D01*
X187314000Y-114158000D01*
X189114000Y-114158000D01*
X189114000Y-115458000D01*
G37*
G36*
X189114000Y-117998000D02*
G01*
X187314000Y-117998000D01*
X187314000Y-116698000D01*
X189114000Y-116698000D01*
X189114000Y-117998000D01*
G37*
G36*
X206360000Y-117486000D02*
G01*
X206360000Y-115686000D01*
X207660000Y-115686000D01*
X207660000Y-117486000D01*
X206360000Y-117486000D01*
G37*
G36*
X203820000Y-117486000D02*
G01*
X203820000Y-115686000D01*
X205120000Y-115686000D01*
X205120000Y-117486000D01*
X203820000Y-117486000D01*
G37*
G36*
X206360000Y-120280000D02*
G01*
X206360000Y-118480000D01*
X207660000Y-118480000D01*
X207660000Y-120280000D01*
X206360000Y-120280000D01*
G37*
G36*
X203820000Y-120280000D02*
G01*
X203820000Y-118480000D01*
X205120000Y-118480000D01*
X205120000Y-120280000D01*
X203820000Y-120280000D01*
G37*
M02*
