G04 #@! TF.GenerationSoftware,KiCad,Pcbnew,(5.1.6)-1*
G04 #@! TF.CreationDate,2022-03-27T18:43:43+02:00*
G04 #@! TF.ProjectId,signalization_by_fireplace,7369676e-616c-4697-9a61-74696f6e5f62,rev?*
G04 #@! TF.SameCoordinates,Original*
G04 #@! TF.FileFunction,Legend,Bot*
G04 #@! TF.FilePolarity,Positive*
%FSLAX46Y46*%
G04 Gerber Fmt 4.6, Leading zero omitted, Abs format (unit mm)*
G04 Created by KiCad (PCBNEW (5.1.6)-1) date 2022-03-27 18:43:43*
%MOMM*%
%LPD*%
G01*
G04 APERTURE LIST*
%ADD10C,0.160000*%
%ADD11C,0.120000*%
%ADD12O,2.200000X2.200000*%
%ADD13R,2.200000X2.200000*%
%ADD14C,1.100000*%
%ADD15C,2.100000*%
%ADD16R,3.400000X4.100000*%
%ADD17R,1.000000X0.900000*%
%ADD18C,5.100000*%
%ADD19C,6.100000*%
%ADD20O,3.200000X3.200000*%
%ADD21R,3.200000X3.200000*%
%ADD22R,0.900000X2.100000*%
%ADD23C,0.100000*%
%ADD24C,3.600000*%
%ADD25R,3.600000X3.600000*%
%ADD26C,1.600000*%
%ADD27C,3.400000*%
%ADD28R,2.100000X2.100000*%
%ADD29R,1.100000X1.100000*%
%ADD30R,0.900000X2.300000*%
G04 APERTURE END LIST*
D10*
X241245200Y-81389740D02*
X243905200Y-81389740D01*
X242575200Y-83989740D02*
X243905200Y-83989740D01*
X243905200Y-83989740D02*
X243905200Y-82659740D01*
X241245200Y-81389740D02*
X241245200Y-73709740D01*
X243905200Y-81389740D02*
X243905200Y-73709740D01*
X241245200Y-73709740D02*
X243905200Y-73709740D01*
X161226500Y-148642000D02*
X170160500Y-148642000D01*
X161226500Y-148642000D02*
X161226500Y-155142000D01*
X161226500Y-155143200D02*
X170160500Y-155142000D01*
X189738000Y-145122000D02*
X192312000Y-145122000D01*
X189738000Y-143422000D02*
X192312000Y-143422000D01*
X189738000Y-145122000D02*
X189738000Y-143422000D01*
X184150000Y-145122000D02*
X186724000Y-145122000D01*
X184150000Y-143422000D02*
X186724000Y-143422000D01*
X184150000Y-145122000D02*
X184150000Y-143422000D01*
X178562000Y-145122000D02*
X181136000Y-145122000D01*
X178562000Y-143422000D02*
X181136000Y-143422000D01*
X178562000Y-145122000D02*
X178562000Y-143422000D01*
X233876000Y-133281000D02*
X233876000Y-127831000D01*
X233876000Y-133281000D02*
X234061000Y-133281000D01*
X239326000Y-127831000D02*
X239141000Y-127831000D01*
X233876000Y-127831000D02*
X234061000Y-127831000D01*
X239326000Y-132080000D02*
X239326000Y-127831000D01*
D11*
X239649000Y-133350000D02*
G75*
G03*
X239649000Y-133350000I-254000J0D01*
G01*
X239574605Y-133350000D02*
G75*
G03*
X239574605Y-133350000I-179605J0D01*
G01*
X239522000Y-133350000D02*
G75*
G03*
X239522000Y-133350000I-127000J0D01*
G01*
X239451796Y-133350000D02*
G75*
G03*
X239451796Y-133350000I-56796J0D01*
G01*
D10*
X207354000Y-153076000D02*
X209714000Y-153076000D01*
X209714000Y-153076000D02*
X209714000Y-148676000D01*
X209714000Y-148676000D02*
X207354000Y-148676000D01*
X207354000Y-148676000D02*
X207354000Y-153076000D01*
X170012000Y-115226000D02*
X174412000Y-115226000D01*
X174412000Y-115226000D02*
X174412000Y-112866000D01*
X174412000Y-112866000D02*
X170012000Y-112866000D01*
X170012000Y-112866000D02*
X170012000Y-115226000D01*
X174412000Y-115660000D02*
X170012000Y-115660000D01*
X170012000Y-115660000D02*
X170012000Y-118020000D01*
X170012000Y-118020000D02*
X174412000Y-118020000D01*
X174412000Y-118020000D02*
X174412000Y-115660000D01*
X169332000Y-112866000D02*
X164932000Y-112866000D01*
X164932000Y-112866000D02*
X164932000Y-115226000D01*
X164932000Y-115226000D02*
X169332000Y-115226000D01*
X169332000Y-115226000D02*
X169332000Y-112866000D01*
X169332000Y-115660000D02*
X164932000Y-115660000D01*
X164932000Y-115660000D02*
X164932000Y-118020000D01*
X164932000Y-118020000D02*
X169332000Y-118020000D01*
X169332000Y-118020000D02*
X169332000Y-115660000D01*
X230404500Y-136230000D02*
X230404500Y-140630000D01*
X230404500Y-140630000D02*
X232764500Y-140630000D01*
X232764500Y-140630000D02*
X232764500Y-136230000D01*
X232764500Y-136230000D02*
X230404500Y-136230000D01*
X233389000Y-136230000D02*
X233389000Y-140630000D01*
X233389000Y-140630000D02*
X235749000Y-140630000D01*
X235749000Y-140630000D02*
X235749000Y-136230000D01*
X235749000Y-136230000D02*
X233389000Y-136230000D01*
X240564500Y-136230000D02*
X240564500Y-140630000D01*
X240564500Y-140630000D02*
X242924500Y-140630000D01*
X242924500Y-140630000D02*
X242924500Y-136230000D01*
X242924500Y-136230000D02*
X240564500Y-136230000D01*
X237453000Y-136230000D02*
X237453000Y-140630000D01*
X237453000Y-140630000D02*
X239813000Y-140630000D01*
X239813000Y-140630000D02*
X239813000Y-136230000D01*
X239813000Y-136230000D02*
X237453000Y-136230000D01*
X202274000Y-153076000D02*
X204634000Y-153076000D01*
X204634000Y-153076000D02*
X204634000Y-148676000D01*
X204634000Y-148676000D02*
X202274000Y-148676000D01*
X202274000Y-148676000D02*
X202274000Y-153076000D01*
X150518500Y-98552000D02*
G75*
G03*
X150518500Y-98552000I-2500000J0D01*
G01*
X145458500Y-100097000D02*
X145458500Y-97007000D01*
X151008500Y-98552462D02*
G75*
G03*
X145458500Y-97007170I-2990000J462D01*
G01*
X151008500Y-98551538D02*
G75*
G02*
X145458500Y-100096830I-2990000J-462D01*
G01*
X229790000Y-134874000D02*
G75*
G03*
X229790000Y-134874000I-5000000J0D01*
G01*
X219730000Y-137250000D02*
X219730000Y-132498000D01*
X230379998Y-134878741D02*
G75*
G02*
X219730000Y-137249816I-5589998J4741D01*
G01*
X230379998Y-134869259D02*
G75*
G03*
X219730000Y-132498184I-5589998J-4741D01*
G01*
X206248000Y-147193000D02*
X205740000Y-147193000D01*
X204343000Y-145544000D02*
X205273000Y-145544000D01*
X207645000Y-145544000D02*
X206715000Y-145544000D01*
X207645000Y-145544000D02*
X207645000Y-147066000D01*
X204343000Y-145544000D02*
X204343000Y-147004000D01*
X207924000Y-134874000D02*
G75*
G03*
X207924000Y-134874000I-5000000J0D01*
G01*
X197864000Y-137250000D02*
X197864000Y-132498000D01*
X208513998Y-134878741D02*
G75*
G02*
X197864000Y-137249816I-5589998J4741D01*
G01*
X208513998Y-134869259D02*
G75*
G03*
X197864000Y-132498184I-5589998J-4741D01*
G01*
X186058000Y-134874000D02*
G75*
G03*
X186058000Y-134874000I-5000000J0D01*
G01*
X175998000Y-137250000D02*
X175998000Y-132498000D01*
X186647998Y-134878741D02*
G75*
G02*
X175998000Y-137249816I-5589998J4741D01*
G01*
X186647998Y-134869259D02*
G75*
G03*
X175998000Y-132498184I-5589998J-4741D01*
G01*
D11*
X189659510Y-147129500D02*
G75*
G03*
X189659510Y-147129500I-63500J0D01*
G01*
X189738000Y-147129500D02*
G75*
G03*
X189738000Y-147129500I-141990J0D01*
G01*
X189850010Y-147129500D02*
G75*
G03*
X189850010Y-147129500I-254000J0D01*
G01*
D10*
X189690000Y-148082000D02*
X189690000Y-150834000D01*
X193738500Y-146854000D02*
X193850000Y-146854000D01*
X193850000Y-146854000D02*
X193850000Y-150834000D01*
X193738500Y-150834000D02*
X193850000Y-150834000D01*
X189690000Y-150834000D02*
X189801500Y-150834000D01*
D11*
X184071510Y-147129500D02*
G75*
G03*
X184071510Y-147129500I-63500J0D01*
G01*
X184150000Y-147129500D02*
G75*
G03*
X184150000Y-147129500I-141990J0D01*
G01*
X184262010Y-147129500D02*
G75*
G03*
X184262010Y-147129500I-254000J0D01*
G01*
D10*
X184102000Y-148082000D02*
X184102000Y-150834000D01*
X188150500Y-146854000D02*
X188262000Y-146854000D01*
X188262000Y-146854000D02*
X188262000Y-150834000D01*
X188150500Y-150834000D02*
X188262000Y-150834000D01*
X184102000Y-150834000D02*
X184213500Y-150834000D01*
D11*
X178483510Y-147129500D02*
G75*
G03*
X178483510Y-147129500I-63500J0D01*
G01*
X178562000Y-147129500D02*
G75*
G03*
X178562000Y-147129500I-141990J0D01*
G01*
X178674010Y-147129500D02*
G75*
G03*
X178674010Y-147129500I-254000J0D01*
G01*
D10*
X178514000Y-148082000D02*
X178514000Y-150834000D01*
X182562500Y-146854000D02*
X182674000Y-146854000D01*
X182674000Y-146854000D02*
X182674000Y-150834000D01*
X182562500Y-150834000D02*
X182674000Y-150834000D01*
X178514000Y-150834000D02*
X178625500Y-150834000D01*
X190078000Y-109818000D02*
X190078000Y-112178000D01*
X194478000Y-112178000D02*
X194478000Y-109818000D01*
X190078000Y-112178000D02*
X194478000Y-112178000D01*
X194478000Y-109818000D02*
X190078000Y-109818000D01*
X223102000Y-104054000D02*
X225462000Y-104054000D01*
X225462000Y-99654000D02*
X223102000Y-99654000D01*
X225462000Y-104054000D02*
X225462000Y-99654000D01*
X223102000Y-99654000D02*
X223102000Y-104054000D01*
X220308000Y-104054000D02*
X222668000Y-104054000D01*
X222668000Y-99654000D02*
X220308000Y-99654000D01*
X222668000Y-104054000D02*
X222668000Y-99654000D01*
X220308000Y-99654000D02*
X220308000Y-104054000D01*
X211418000Y-104054000D02*
X213778000Y-104054000D01*
X213778000Y-99654000D02*
X211418000Y-99654000D01*
X213778000Y-104054000D02*
X213778000Y-99654000D01*
X211418000Y-99654000D02*
X211418000Y-104054000D01*
X214212000Y-104054000D02*
X216572000Y-104054000D01*
X216572000Y-99654000D02*
X214212000Y-99654000D01*
X216572000Y-104054000D02*
X216572000Y-99654000D01*
X214212000Y-99654000D02*
X214212000Y-104054000D01*
X243313295Y-85652120D02*
X243313295Y-84652120D01*
X242932342Y-84652120D01*
X242837104Y-84699740D01*
X242789485Y-84747359D01*
X242741866Y-84842597D01*
X242741866Y-84985454D01*
X242789485Y-85080692D01*
X242837104Y-85128311D01*
X242932342Y-85175930D01*
X243313295Y-85175930D01*
X241789485Y-85652120D02*
X242360914Y-85652120D01*
X242075200Y-85652120D02*
X242075200Y-84652120D01*
X242170438Y-84794978D01*
X242265676Y-84890216D01*
X242360914Y-84937835D01*
X167774785Y-148026380D02*
X167774785Y-147026380D01*
X167536690Y-147026380D01*
X167393833Y-147074000D01*
X167298595Y-147169238D01*
X167250976Y-147264476D01*
X167203357Y-147454952D01*
X167203357Y-147597809D01*
X167250976Y-147788285D01*
X167298595Y-147883523D01*
X167393833Y-147978761D01*
X167536690Y-148026380D01*
X167774785Y-148026380D01*
X166822404Y-147121619D02*
X166774785Y-147074000D01*
X166679547Y-147026380D01*
X166441452Y-147026380D01*
X166346214Y-147074000D01*
X166298595Y-147121619D01*
X166250976Y-147216857D01*
X166250976Y-147312095D01*
X166298595Y-147454952D01*
X166870023Y-148026380D01*
X166250976Y-148026380D01*
X165870023Y-147121619D02*
X165822404Y-147074000D01*
X165727166Y-147026380D01*
X165489071Y-147026380D01*
X165393833Y-147074000D01*
X165346214Y-147121619D01*
X165298595Y-147216857D01*
X165298595Y-147312095D01*
X165346214Y-147454952D01*
X165917642Y-148026380D01*
X165298595Y-148026380D01*
X195460785Y-144724380D02*
X195460785Y-143724380D01*
X195222690Y-143724380D01*
X195079833Y-143772000D01*
X194984595Y-143867238D01*
X194936976Y-143962476D01*
X194889357Y-144152952D01*
X194889357Y-144295809D01*
X194936976Y-144486285D01*
X194984595Y-144581523D01*
X195079833Y-144676761D01*
X195222690Y-144724380D01*
X195460785Y-144724380D01*
X193936976Y-144724380D02*
X194508404Y-144724380D01*
X194222690Y-144724380D02*
X194222690Y-143724380D01*
X194317928Y-143867238D01*
X194413166Y-143962476D01*
X194508404Y-144010095D01*
X193317928Y-143724380D02*
X193222690Y-143724380D01*
X193127452Y-143772000D01*
X193079833Y-143819619D01*
X193032214Y-143914857D01*
X192984595Y-144105333D01*
X192984595Y-144343428D01*
X193032214Y-144533904D01*
X193079833Y-144629142D01*
X193127452Y-144676761D01*
X193222690Y-144724380D01*
X193317928Y-144724380D01*
X193413166Y-144676761D01*
X193460785Y-144629142D01*
X193508404Y-144533904D01*
X193556023Y-144343428D01*
X193556023Y-144105333D01*
X193508404Y-143914857D01*
X193460785Y-143819619D01*
X193413166Y-143772000D01*
X193317928Y-143724380D01*
X186412095Y-142946380D02*
X186412095Y-141946380D01*
X186174000Y-141946380D01*
X186031142Y-141994000D01*
X185935904Y-142089238D01*
X185888285Y-142184476D01*
X185840666Y-142374952D01*
X185840666Y-142517809D01*
X185888285Y-142708285D01*
X185935904Y-142803523D01*
X186031142Y-142898761D01*
X186174000Y-142946380D01*
X186412095Y-142946380D01*
X185364476Y-142946380D02*
X185174000Y-142946380D01*
X185078761Y-142898761D01*
X185031142Y-142851142D01*
X184935904Y-142708285D01*
X184888285Y-142517809D01*
X184888285Y-142136857D01*
X184935904Y-142041619D01*
X184983523Y-141994000D01*
X185078761Y-141946380D01*
X185269238Y-141946380D01*
X185364476Y-141994000D01*
X185412095Y-142041619D01*
X185459714Y-142136857D01*
X185459714Y-142374952D01*
X185412095Y-142470190D01*
X185364476Y-142517809D01*
X185269238Y-142565428D01*
X185078761Y-142565428D01*
X184983523Y-142517809D01*
X184935904Y-142470190D01*
X184888285Y-142374952D01*
X177966595Y-144724380D02*
X177966595Y-143724380D01*
X177728500Y-143724380D01*
X177585642Y-143772000D01*
X177490404Y-143867238D01*
X177442785Y-143962476D01*
X177395166Y-144152952D01*
X177395166Y-144295809D01*
X177442785Y-144486285D01*
X177490404Y-144581523D01*
X177585642Y-144676761D01*
X177728500Y-144724380D01*
X177966595Y-144724380D01*
X176823738Y-144152952D02*
X176918976Y-144105333D01*
X176966595Y-144057714D01*
X177014214Y-143962476D01*
X177014214Y-143914857D01*
X176966595Y-143819619D01*
X176918976Y-143772000D01*
X176823738Y-143724380D01*
X176633261Y-143724380D01*
X176538023Y-143772000D01*
X176490404Y-143819619D01*
X176442785Y-143914857D01*
X176442785Y-143962476D01*
X176490404Y-144057714D01*
X176538023Y-144105333D01*
X176633261Y-144152952D01*
X176823738Y-144152952D01*
X176918976Y-144200571D01*
X176966595Y-144248190D01*
X177014214Y-144343428D01*
X177014214Y-144533904D01*
X176966595Y-144629142D01*
X176918976Y-144676761D01*
X176823738Y-144724380D01*
X176633261Y-144724380D01*
X176538023Y-144676761D01*
X176490404Y-144629142D01*
X176442785Y-144533904D01*
X176442785Y-144343428D01*
X176490404Y-144248190D01*
X176538023Y-144200571D01*
X176633261Y-144152952D01*
X240736380Y-129817904D02*
X239736380Y-129817904D01*
X239736380Y-130056000D01*
X239784000Y-130198857D01*
X239879238Y-130294095D01*
X239974476Y-130341714D01*
X240164952Y-130389333D01*
X240307809Y-130389333D01*
X240498285Y-130341714D01*
X240593523Y-130294095D01*
X240688761Y-130198857D01*
X240736380Y-130056000D01*
X240736380Y-129817904D01*
X239736380Y-130722666D02*
X239736380Y-131389333D01*
X240736380Y-130960761D01*
X211018380Y-150709333D02*
X211018380Y-150233142D01*
X210018380Y-150233142D01*
X211018380Y-151566476D02*
X211018380Y-150995047D01*
X211018380Y-151280761D02*
X210018380Y-151280761D01*
X210161238Y-151185523D01*
X210256476Y-151090285D01*
X210304095Y-150995047D01*
X176601357Y-114498380D02*
X176934690Y-114022190D01*
X177172785Y-114498380D02*
X177172785Y-113498380D01*
X176791833Y-113498380D01*
X176696595Y-113546000D01*
X176648976Y-113593619D01*
X176601357Y-113688857D01*
X176601357Y-113831714D01*
X176648976Y-113926952D01*
X176696595Y-113974571D01*
X176791833Y-114022190D01*
X177172785Y-114022190D01*
X176220404Y-113593619D02*
X176172785Y-113546000D01*
X176077547Y-113498380D01*
X175839452Y-113498380D01*
X175744214Y-113546000D01*
X175696595Y-113593619D01*
X175648976Y-113688857D01*
X175648976Y-113784095D01*
X175696595Y-113926952D01*
X176268023Y-114498380D01*
X175648976Y-114498380D01*
X174791833Y-113498380D02*
X174982309Y-113498380D01*
X175077547Y-113546000D01*
X175125166Y-113593619D01*
X175220404Y-113736476D01*
X175268023Y-113926952D01*
X175268023Y-114307904D01*
X175220404Y-114403142D01*
X175172785Y-114450761D01*
X175077547Y-114498380D01*
X174887071Y-114498380D01*
X174791833Y-114450761D01*
X174744214Y-114403142D01*
X174696595Y-114307904D01*
X174696595Y-114069809D01*
X174744214Y-113974571D01*
X174791833Y-113926952D01*
X174887071Y-113879333D01*
X175077547Y-113879333D01*
X175172785Y-113926952D01*
X175220404Y-113974571D01*
X175268023Y-114069809D01*
X176601357Y-117292380D02*
X176934690Y-116816190D01*
X177172785Y-117292380D02*
X177172785Y-116292380D01*
X176791833Y-116292380D01*
X176696595Y-116340000D01*
X176648976Y-116387619D01*
X176601357Y-116482857D01*
X176601357Y-116625714D01*
X176648976Y-116720952D01*
X176696595Y-116768571D01*
X176791833Y-116816190D01*
X177172785Y-116816190D01*
X176220404Y-116387619D02*
X176172785Y-116340000D01*
X176077547Y-116292380D01*
X175839452Y-116292380D01*
X175744214Y-116340000D01*
X175696595Y-116387619D01*
X175648976Y-116482857D01*
X175648976Y-116578095D01*
X175696595Y-116720952D01*
X176268023Y-117292380D01*
X175648976Y-117292380D01*
X174744214Y-116292380D02*
X175220404Y-116292380D01*
X175268023Y-116768571D01*
X175220404Y-116720952D01*
X175125166Y-116673333D01*
X174887071Y-116673333D01*
X174791833Y-116720952D01*
X174744214Y-116768571D01*
X174696595Y-116863809D01*
X174696595Y-117101904D01*
X174744214Y-117197142D01*
X174791833Y-117244761D01*
X174887071Y-117292380D01*
X175125166Y-117292380D01*
X175220404Y-117244761D01*
X175268023Y-117197142D01*
X163901357Y-114498380D02*
X164234690Y-114022190D01*
X164472785Y-114498380D02*
X164472785Y-113498380D01*
X164091833Y-113498380D01*
X163996595Y-113546000D01*
X163948976Y-113593619D01*
X163901357Y-113688857D01*
X163901357Y-113831714D01*
X163948976Y-113926952D01*
X163996595Y-113974571D01*
X164091833Y-114022190D01*
X164472785Y-114022190D01*
X163520404Y-113593619D02*
X163472785Y-113546000D01*
X163377547Y-113498380D01*
X163139452Y-113498380D01*
X163044214Y-113546000D01*
X162996595Y-113593619D01*
X162948976Y-113688857D01*
X162948976Y-113784095D01*
X162996595Y-113926952D01*
X163568023Y-114498380D01*
X162948976Y-114498380D01*
X162091833Y-113831714D02*
X162091833Y-114498380D01*
X162329928Y-113450761D02*
X162568023Y-114165047D01*
X161948976Y-114165047D01*
X163901357Y-117292380D02*
X164234690Y-116816190D01*
X164472785Y-117292380D02*
X164472785Y-116292380D01*
X164091833Y-116292380D01*
X163996595Y-116340000D01*
X163948976Y-116387619D01*
X163901357Y-116482857D01*
X163901357Y-116625714D01*
X163948976Y-116720952D01*
X163996595Y-116768571D01*
X164091833Y-116816190D01*
X164472785Y-116816190D01*
X163520404Y-116387619D02*
X163472785Y-116340000D01*
X163377547Y-116292380D01*
X163139452Y-116292380D01*
X163044214Y-116340000D01*
X162996595Y-116387619D01*
X162948976Y-116482857D01*
X162948976Y-116578095D01*
X162996595Y-116720952D01*
X163568023Y-117292380D01*
X162948976Y-117292380D01*
X162615642Y-116292380D02*
X161996595Y-116292380D01*
X162329928Y-116673333D01*
X162187071Y-116673333D01*
X162091833Y-116720952D01*
X162044214Y-116768571D01*
X161996595Y-116863809D01*
X161996595Y-117101904D01*
X162044214Y-117197142D01*
X162091833Y-117244761D01*
X162187071Y-117292380D01*
X162472785Y-117292380D01*
X162568023Y-117244761D01*
X162615642Y-117197142D01*
X231624166Y-141930380D02*
X231957500Y-141454190D01*
X232195595Y-141930380D02*
X232195595Y-140930380D01*
X231814642Y-140930380D01*
X231719404Y-140978000D01*
X231671785Y-141025619D01*
X231624166Y-141120857D01*
X231624166Y-141263714D01*
X231671785Y-141358952D01*
X231719404Y-141406571D01*
X231814642Y-141454190D01*
X232195595Y-141454190D01*
X230767023Y-141263714D02*
X230767023Y-141930380D01*
X231005119Y-140882761D02*
X231243214Y-141597047D01*
X230624166Y-141597047D01*
X234862666Y-141930380D02*
X235196000Y-141454190D01*
X235434095Y-141930380D02*
X235434095Y-140930380D01*
X235053142Y-140930380D01*
X234957904Y-140978000D01*
X234910285Y-141025619D01*
X234862666Y-141120857D01*
X234862666Y-141263714D01*
X234910285Y-141358952D01*
X234957904Y-141406571D01*
X235053142Y-141454190D01*
X235434095Y-141454190D01*
X234529333Y-140930380D02*
X233910285Y-140930380D01*
X234243619Y-141311333D01*
X234100761Y-141311333D01*
X234005523Y-141358952D01*
X233957904Y-141406571D01*
X233910285Y-141501809D01*
X233910285Y-141739904D01*
X233957904Y-141835142D01*
X234005523Y-141882761D01*
X234100761Y-141930380D01*
X234386476Y-141930380D01*
X234481714Y-141882761D01*
X234529333Y-141835142D01*
X241911166Y-135834380D02*
X242244500Y-135358190D01*
X242482595Y-135834380D02*
X242482595Y-134834380D01*
X242101642Y-134834380D01*
X242006404Y-134882000D01*
X241958785Y-134929619D01*
X241911166Y-135024857D01*
X241911166Y-135167714D01*
X241958785Y-135262952D01*
X242006404Y-135310571D01*
X242101642Y-135358190D01*
X242482595Y-135358190D01*
X241530214Y-134929619D02*
X241482595Y-134882000D01*
X241387357Y-134834380D01*
X241149261Y-134834380D01*
X241054023Y-134882000D01*
X241006404Y-134929619D01*
X240958785Y-135024857D01*
X240958785Y-135120095D01*
X241006404Y-135262952D01*
X241577833Y-135834380D01*
X240958785Y-135834380D01*
X238609166Y-141930380D02*
X238942500Y-141454190D01*
X239180595Y-141930380D02*
X239180595Y-140930380D01*
X238799642Y-140930380D01*
X238704404Y-140978000D01*
X238656785Y-141025619D01*
X238609166Y-141120857D01*
X238609166Y-141263714D01*
X238656785Y-141358952D01*
X238704404Y-141406571D01*
X238799642Y-141454190D01*
X239180595Y-141454190D01*
X237656785Y-141930380D02*
X238228214Y-141930380D01*
X237942500Y-141930380D02*
X237942500Y-140930380D01*
X238037738Y-141073238D01*
X238132976Y-141168476D01*
X238228214Y-141216095D01*
X201810880Y-150709333D02*
X201810880Y-150233142D01*
X200810880Y-150233142D01*
X200906119Y-150995047D02*
X200858500Y-151042666D01*
X200810880Y-151137904D01*
X200810880Y-151376000D01*
X200858500Y-151471238D01*
X200906119Y-151518857D01*
X201001357Y-151566476D01*
X201096595Y-151566476D01*
X201239452Y-151518857D01*
X201810880Y-150947428D01*
X201810880Y-151566476D01*
X149232785Y-94940380D02*
X149232785Y-93940380D01*
X148994690Y-93940380D01*
X148851833Y-93988000D01*
X148756595Y-94083238D01*
X148708976Y-94178476D01*
X148661357Y-94368952D01*
X148661357Y-94511809D01*
X148708976Y-94702285D01*
X148756595Y-94797523D01*
X148851833Y-94892761D01*
X148994690Y-94940380D01*
X149232785Y-94940380D01*
X148280404Y-94035619D02*
X148232785Y-93988000D01*
X148137547Y-93940380D01*
X147899452Y-93940380D01*
X147804214Y-93988000D01*
X147756595Y-94035619D01*
X147708976Y-94130857D01*
X147708976Y-94226095D01*
X147756595Y-94368952D01*
X148328023Y-94940380D01*
X147708976Y-94940380D01*
X147089928Y-93940380D02*
X146994690Y-93940380D01*
X146899452Y-93988000D01*
X146851833Y-94035619D01*
X146804214Y-94130857D01*
X146756595Y-94321333D01*
X146756595Y-94559428D01*
X146804214Y-94749904D01*
X146851833Y-94845142D01*
X146899452Y-94892761D01*
X146994690Y-94940380D01*
X147089928Y-94940380D01*
X147185166Y-94892761D01*
X147232785Y-94845142D01*
X147280404Y-94749904D01*
X147328023Y-94559428D01*
X147328023Y-94321333D01*
X147280404Y-94130857D01*
X147232785Y-94035619D01*
X147185166Y-93988000D01*
X147089928Y-93940380D01*
X226004285Y-128722380D02*
X226004285Y-127722380D01*
X225766190Y-127722380D01*
X225623333Y-127770000D01*
X225528095Y-127865238D01*
X225480476Y-127960476D01*
X225432857Y-128150952D01*
X225432857Y-128293809D01*
X225480476Y-128484285D01*
X225528095Y-128579523D01*
X225623333Y-128674761D01*
X225766190Y-128722380D01*
X226004285Y-128722380D01*
X224480476Y-128722380D02*
X225051904Y-128722380D01*
X224766190Y-128722380D02*
X224766190Y-127722380D01*
X224861428Y-127865238D01*
X224956666Y-127960476D01*
X225051904Y-128008095D01*
X223909047Y-128150952D02*
X224004285Y-128103333D01*
X224051904Y-128055714D01*
X224099523Y-127960476D01*
X224099523Y-127912857D01*
X224051904Y-127817619D01*
X224004285Y-127770000D01*
X223909047Y-127722380D01*
X223718571Y-127722380D01*
X223623333Y-127770000D01*
X223575714Y-127817619D01*
X223528095Y-127912857D01*
X223528095Y-127960476D01*
X223575714Y-128055714D01*
X223623333Y-128103333D01*
X223718571Y-128150952D01*
X223909047Y-128150952D01*
X224004285Y-128198571D01*
X224051904Y-128246190D01*
X224099523Y-128341428D01*
X224099523Y-128531904D01*
X224051904Y-128627142D01*
X224004285Y-128674761D01*
X223909047Y-128722380D01*
X223718571Y-128722380D01*
X223623333Y-128674761D01*
X223575714Y-128627142D01*
X223528095Y-128531904D01*
X223528095Y-128341428D01*
X223575714Y-128246190D01*
X223623333Y-128198571D01*
X223718571Y-128150952D01*
X208986380Y-144835714D02*
X207986380Y-144835714D01*
X207986380Y-145073809D01*
X208034000Y-145216666D01*
X208129238Y-145311904D01*
X208224476Y-145359523D01*
X208414952Y-145407142D01*
X208557809Y-145407142D01*
X208748285Y-145359523D01*
X208843523Y-145311904D01*
X208938761Y-145216666D01*
X208986380Y-145073809D01*
X208986380Y-144835714D01*
X208986380Y-146359523D02*
X208986380Y-145788095D01*
X208986380Y-146073809D02*
X207986380Y-146073809D01*
X208129238Y-145978571D01*
X208224476Y-145883333D01*
X208272095Y-145788095D01*
X207986380Y-146692857D02*
X207986380Y-147359523D01*
X208986380Y-146930952D01*
X204160285Y-128722380D02*
X204160285Y-127722380D01*
X203922190Y-127722380D01*
X203779333Y-127770000D01*
X203684095Y-127865238D01*
X203636476Y-127960476D01*
X203588857Y-128150952D01*
X203588857Y-128293809D01*
X203636476Y-128484285D01*
X203684095Y-128579523D01*
X203779333Y-128674761D01*
X203922190Y-128722380D01*
X204160285Y-128722380D01*
X202636476Y-128722380D02*
X203207904Y-128722380D01*
X202922190Y-128722380D02*
X202922190Y-127722380D01*
X203017428Y-127865238D01*
X203112666Y-127960476D01*
X203207904Y-128008095D01*
X201779333Y-127722380D02*
X201969809Y-127722380D01*
X202065047Y-127770000D01*
X202112666Y-127817619D01*
X202207904Y-127960476D01*
X202255523Y-128150952D01*
X202255523Y-128531904D01*
X202207904Y-128627142D01*
X202160285Y-128674761D01*
X202065047Y-128722380D01*
X201874571Y-128722380D01*
X201779333Y-128674761D01*
X201731714Y-128627142D01*
X201684095Y-128531904D01*
X201684095Y-128293809D01*
X201731714Y-128198571D01*
X201779333Y-128150952D01*
X201874571Y-128103333D01*
X202065047Y-128103333D01*
X202160285Y-128150952D01*
X202207904Y-128198571D01*
X202255523Y-128293809D01*
X182272285Y-128722380D02*
X182272285Y-127722380D01*
X182034190Y-127722380D01*
X181891333Y-127770000D01*
X181796095Y-127865238D01*
X181748476Y-127960476D01*
X181700857Y-128150952D01*
X181700857Y-128293809D01*
X181748476Y-128484285D01*
X181796095Y-128579523D01*
X181891333Y-128674761D01*
X182034190Y-128722380D01*
X182272285Y-128722380D01*
X180748476Y-128722380D02*
X181319904Y-128722380D01*
X181034190Y-128722380D02*
X181034190Y-127722380D01*
X181129428Y-127865238D01*
X181224666Y-127960476D01*
X181319904Y-128008095D01*
X180415142Y-127722380D02*
X179796095Y-127722380D01*
X180129428Y-128103333D01*
X179986571Y-128103333D01*
X179891333Y-128150952D01*
X179843714Y-128198571D01*
X179796095Y-128293809D01*
X179796095Y-128531904D01*
X179843714Y-128627142D01*
X179891333Y-128674761D01*
X179986571Y-128722380D01*
X180272285Y-128722380D01*
X180367523Y-128674761D01*
X180415142Y-128627142D01*
X192444595Y-154122380D02*
X192444595Y-153122380D01*
X192206500Y-153122380D01*
X192063642Y-153170000D01*
X191968404Y-153265238D01*
X191920785Y-153360476D01*
X191873166Y-153550952D01*
X191873166Y-153693809D01*
X191920785Y-153884285D01*
X191968404Y-153979523D01*
X192063642Y-154074761D01*
X192206500Y-154122380D01*
X192444595Y-154122380D01*
X191016023Y-153122380D02*
X191206500Y-153122380D01*
X191301738Y-153170000D01*
X191349357Y-153217619D01*
X191444595Y-153360476D01*
X191492214Y-153550952D01*
X191492214Y-153931904D01*
X191444595Y-154027142D01*
X191396976Y-154074761D01*
X191301738Y-154122380D01*
X191111261Y-154122380D01*
X191016023Y-154074761D01*
X190968404Y-154027142D01*
X190920785Y-153931904D01*
X190920785Y-153693809D01*
X190968404Y-153598571D01*
X191016023Y-153550952D01*
X191111261Y-153503333D01*
X191301738Y-153503333D01*
X191396976Y-153550952D01*
X191444595Y-153598571D01*
X191492214Y-153693809D01*
X186856595Y-154376380D02*
X186856595Y-153376380D01*
X186618500Y-153376380D01*
X186475642Y-153424000D01*
X186380404Y-153519238D01*
X186332785Y-153614476D01*
X186285166Y-153804952D01*
X186285166Y-153947809D01*
X186332785Y-154138285D01*
X186380404Y-154233523D01*
X186475642Y-154328761D01*
X186618500Y-154376380D01*
X186856595Y-154376380D01*
X185380404Y-153376380D02*
X185856595Y-153376380D01*
X185904214Y-153852571D01*
X185856595Y-153804952D01*
X185761357Y-153757333D01*
X185523261Y-153757333D01*
X185428023Y-153804952D01*
X185380404Y-153852571D01*
X185332785Y-153947809D01*
X185332785Y-154185904D01*
X185380404Y-154281142D01*
X185428023Y-154328761D01*
X185523261Y-154376380D01*
X185761357Y-154376380D01*
X185856595Y-154328761D01*
X185904214Y-154281142D01*
X181268595Y-154122380D02*
X181268595Y-153122380D01*
X181030500Y-153122380D01*
X180887642Y-153170000D01*
X180792404Y-153265238D01*
X180744785Y-153360476D01*
X180697166Y-153550952D01*
X180697166Y-153693809D01*
X180744785Y-153884285D01*
X180792404Y-153979523D01*
X180887642Y-154074761D01*
X181030500Y-154122380D01*
X181268595Y-154122380D01*
X179840023Y-153455714D02*
X179840023Y-154122380D01*
X180078119Y-153074761D02*
X180316214Y-153789047D01*
X179697166Y-153789047D01*
X193174857Y-109323142D02*
X193222476Y-109370761D01*
X193365333Y-109418380D01*
X193460571Y-109418380D01*
X193603428Y-109370761D01*
X193698666Y-109275523D01*
X193746285Y-109180285D01*
X193793904Y-108989809D01*
X193793904Y-108846952D01*
X193746285Y-108656476D01*
X193698666Y-108561238D01*
X193603428Y-108466000D01*
X193460571Y-108418380D01*
X193365333Y-108418380D01*
X193222476Y-108466000D01*
X193174857Y-108513619D01*
X192222476Y-109418380D02*
X192793904Y-109418380D01*
X192508190Y-109418380D02*
X192508190Y-108418380D01*
X192603428Y-108561238D01*
X192698666Y-108656476D01*
X192793904Y-108704095D01*
X191603428Y-108418380D02*
X191508190Y-108418380D01*
X191412952Y-108466000D01*
X191365333Y-108513619D01*
X191317714Y-108608857D01*
X191270095Y-108799333D01*
X191270095Y-109037428D01*
X191317714Y-109227904D01*
X191365333Y-109323142D01*
X191412952Y-109370761D01*
X191508190Y-109418380D01*
X191603428Y-109418380D01*
X191698666Y-109370761D01*
X191746285Y-109323142D01*
X191793904Y-109227904D01*
X191841523Y-109037428D01*
X191841523Y-108799333D01*
X191793904Y-108608857D01*
X191746285Y-108513619D01*
X191698666Y-108466000D01*
X191603428Y-108418380D01*
X224448666Y-105259142D02*
X224496285Y-105306761D01*
X224639142Y-105354380D01*
X224734380Y-105354380D01*
X224877238Y-105306761D01*
X224972476Y-105211523D01*
X225020095Y-105116285D01*
X225067714Y-104925809D01*
X225067714Y-104782952D01*
X225020095Y-104592476D01*
X224972476Y-104497238D01*
X224877238Y-104402000D01*
X224734380Y-104354380D01*
X224639142Y-104354380D01*
X224496285Y-104402000D01*
X224448666Y-104449619D01*
X223591523Y-104687714D02*
X223591523Y-105354380D01*
X223829619Y-104306761D02*
X224067714Y-105021047D01*
X223448666Y-105021047D01*
X221654666Y-105259142D02*
X221702285Y-105306761D01*
X221845142Y-105354380D01*
X221940380Y-105354380D01*
X222083238Y-105306761D01*
X222178476Y-105211523D01*
X222226095Y-105116285D01*
X222273714Y-104925809D01*
X222273714Y-104782952D01*
X222226095Y-104592476D01*
X222178476Y-104497238D01*
X222083238Y-104402000D01*
X221940380Y-104354380D01*
X221845142Y-104354380D01*
X221702285Y-104402000D01*
X221654666Y-104449619D01*
X221321333Y-104354380D02*
X220702285Y-104354380D01*
X221035619Y-104735333D01*
X220892761Y-104735333D01*
X220797523Y-104782952D01*
X220749904Y-104830571D01*
X220702285Y-104925809D01*
X220702285Y-105163904D01*
X220749904Y-105259142D01*
X220797523Y-105306761D01*
X220892761Y-105354380D01*
X221178476Y-105354380D01*
X221273714Y-105306761D01*
X221321333Y-105259142D01*
X212447166Y-105259142D02*
X212494785Y-105306761D01*
X212637642Y-105354380D01*
X212732880Y-105354380D01*
X212875738Y-105306761D01*
X212970976Y-105211523D01*
X213018595Y-105116285D01*
X213066214Y-104925809D01*
X213066214Y-104782952D01*
X213018595Y-104592476D01*
X212970976Y-104497238D01*
X212875738Y-104402000D01*
X212732880Y-104354380D01*
X212637642Y-104354380D01*
X212494785Y-104402000D01*
X212447166Y-104449619D01*
X212066214Y-104449619D02*
X212018595Y-104402000D01*
X211923357Y-104354380D01*
X211685261Y-104354380D01*
X211590023Y-104402000D01*
X211542404Y-104449619D01*
X211494785Y-104544857D01*
X211494785Y-104640095D01*
X211542404Y-104782952D01*
X212113833Y-105354380D01*
X211494785Y-105354380D01*
X215558666Y-105259142D02*
X215606285Y-105306761D01*
X215749142Y-105354380D01*
X215844380Y-105354380D01*
X215987238Y-105306761D01*
X216082476Y-105211523D01*
X216130095Y-105116285D01*
X216177714Y-104925809D01*
X216177714Y-104782952D01*
X216130095Y-104592476D01*
X216082476Y-104497238D01*
X215987238Y-104402000D01*
X215844380Y-104354380D01*
X215749142Y-104354380D01*
X215606285Y-104402000D01*
X215558666Y-104449619D01*
X214606285Y-105354380D02*
X215177714Y-105354380D01*
X214892000Y-105354380D02*
X214892000Y-104354380D01*
X214987238Y-104497238D01*
X215082476Y-104592476D01*
X215177714Y-104640095D01*
%LPC*%
D12*
X242575200Y-80119740D03*
X242575200Y-75039740D03*
D13*
X242575200Y-82659740D03*
D12*
X242575200Y-77579740D03*
D14*
X247650000Y-76708000D03*
X144462500Y-95250000D03*
X158750000Y-76708000D03*
D15*
X160985200Y-113030000D03*
X158432500Y-115570000D03*
X158432500Y-110490000D03*
D14*
X171894500Y-120904000D03*
X168592500Y-145288000D03*
X163157337Y-145326037D03*
D16*
X163160500Y-151892000D03*
X169960500Y-151892000D03*
D17*
X191987000Y-144272000D03*
X190537000Y-144272000D03*
X186399000Y-144272000D03*
X184949000Y-144272000D03*
X180811000Y-144272000D03*
X179361000Y-144272000D03*
D18*
X156424000Y-126080000D03*
X249468000Y-126080000D03*
X249468000Y-71080000D03*
X156424000Y-71080000D03*
D19*
X141668500Y-157533922D03*
X197400000Y-157480000D03*
X214460000Y-157480000D03*
X250460500Y-135302000D03*
X264350500Y-157480000D03*
X264350500Y-72073441D03*
X141668500Y-72106428D03*
D14*
X153352500Y-159004000D03*
X240982500Y-159004000D03*
X256730500Y-159004000D03*
D20*
X257492500Y-143004000D03*
X257492500Y-146644000D03*
D21*
X257492500Y-153924000D03*
D20*
X257492500Y-150284000D03*
X240792000Y-143004000D03*
X240792000Y-146644000D03*
D21*
X240792000Y-153924000D03*
D20*
X240792000Y-150284000D03*
D14*
X207264000Y-137668000D03*
X186944000Y-131318000D03*
X186944000Y-137414000D03*
X180022500Y-137414000D03*
X225044000Y-136906000D03*
X218440000Y-138430000D03*
X207264000Y-131572000D03*
X201612500Y-137668000D03*
X261556500Y-146050000D03*
X234950000Y-76708000D03*
X184150000Y-76708000D03*
X171450000Y-76708000D03*
X144462500Y-107950000D03*
X144462500Y-120650000D03*
X210058000Y-117856000D03*
X210058000Y-108458000D03*
X185166000Y-110236000D03*
X185166000Y-124968000D03*
X220916500Y-159004000D03*
X231076500Y-159004000D03*
X259270500Y-133350000D03*
X259270500Y-120650000D03*
X259270500Y-107950000D03*
X259270500Y-95250000D03*
X259270500Y-82550000D03*
X222250000Y-76708000D03*
X209550000Y-76708000D03*
X196850000Y-76708000D03*
X144462500Y-82550000D03*
X144462500Y-133350000D03*
X144462500Y-146050000D03*
X208026000Y-143002000D03*
X180530500Y-152400000D03*
X186182000Y-152400000D03*
X191770000Y-152400000D03*
X190500000Y-142748000D03*
X192024000Y-142748000D03*
X180848000Y-142748000D03*
X179324000Y-142748000D03*
X195072000Y-137668000D03*
X192024000Y-137668000D03*
X251650500Y-146558000D03*
X224980500Y-155194000D03*
X228346000Y-148082000D03*
X236982000Y-140462000D03*
X231076500Y-131826000D03*
X228854000Y-124968000D03*
X228854000Y-122174000D03*
X236474000Y-123952000D03*
X223520000Y-115824000D03*
X224536000Y-106680000D03*
X222504000Y-106680000D03*
X213868000Y-104902000D03*
X215900000Y-99060000D03*
X218440000Y-99060000D03*
X220980000Y-99060000D03*
X227076000Y-103124000D03*
X235966000Y-91440000D03*
X235902500Y-84582000D03*
X198120000Y-81788000D03*
X181546500Y-85090000D03*
X195072000Y-110490000D03*
X208788000Y-106172000D03*
X190754000Y-112776000D03*
X195072000Y-112776000D03*
X204470000Y-121666000D03*
X193548000Y-123190000D03*
X168656000Y-110236000D03*
X163004500Y-118618000D03*
X176022000Y-98552000D03*
X173482000Y-105918000D03*
X163068000Y-106172000D03*
X185166000Y-114808000D03*
X168656000Y-105918000D03*
X172212000Y-109982000D03*
X170688000Y-109982000D03*
X188214000Y-118872000D03*
X165862000Y-119126000D03*
X169926000Y-120904000D03*
X168656000Y-120904000D03*
D22*
X237236000Y-133316000D03*
X235966000Y-127796000D03*
X237236000Y-127796000D03*
X238506000Y-133316000D03*
X234696000Y-127796000D03*
X238506000Y-127796000D03*
X235966000Y-133316000D03*
X234696000Y-133316000D03*
D23*
G36*
X209484000Y-152846000D02*
G01*
X207584000Y-152846000D01*
X207584000Y-151446000D01*
X209484000Y-151446000D01*
X209484000Y-152846000D01*
G37*
G36*
X209484000Y-150306000D02*
G01*
X207584000Y-150306000D01*
X207584000Y-148906000D01*
X209484000Y-148906000D01*
X209484000Y-150306000D01*
G37*
G36*
X171642000Y-113096000D02*
G01*
X171642000Y-114996000D01*
X170242000Y-114996000D01*
X170242000Y-113096000D01*
X171642000Y-113096000D01*
G37*
G36*
X174182000Y-113096000D02*
G01*
X174182000Y-114996000D01*
X172782000Y-114996000D01*
X172782000Y-113096000D01*
X174182000Y-113096000D01*
G37*
G36*
X172782000Y-117790000D02*
G01*
X172782000Y-115890000D01*
X174182000Y-115890000D01*
X174182000Y-117790000D01*
X172782000Y-117790000D01*
G37*
G36*
X170242000Y-117790000D02*
G01*
X170242000Y-115890000D01*
X171642000Y-115890000D01*
X171642000Y-117790000D01*
X170242000Y-117790000D01*
G37*
G36*
X167702000Y-114996000D02*
G01*
X167702000Y-113096000D01*
X169102000Y-113096000D01*
X169102000Y-114996000D01*
X167702000Y-114996000D01*
G37*
G36*
X165162000Y-114996000D02*
G01*
X165162000Y-113096000D01*
X166562000Y-113096000D01*
X166562000Y-114996000D01*
X165162000Y-114996000D01*
G37*
G36*
X167702000Y-117790000D02*
G01*
X167702000Y-115890000D01*
X169102000Y-115890000D01*
X169102000Y-117790000D01*
X167702000Y-117790000D01*
G37*
G36*
X165162000Y-117790000D02*
G01*
X165162000Y-115890000D01*
X166562000Y-115890000D01*
X166562000Y-117790000D01*
X165162000Y-117790000D01*
G37*
G36*
X232534500Y-137860000D02*
G01*
X230634500Y-137860000D01*
X230634500Y-136460000D01*
X232534500Y-136460000D01*
X232534500Y-137860000D01*
G37*
G36*
X232534500Y-140400000D02*
G01*
X230634500Y-140400000D01*
X230634500Y-139000000D01*
X232534500Y-139000000D01*
X232534500Y-140400000D01*
G37*
G36*
X235519000Y-137860000D02*
G01*
X233619000Y-137860000D01*
X233619000Y-136460000D01*
X235519000Y-136460000D01*
X235519000Y-137860000D01*
G37*
G36*
X235519000Y-140400000D02*
G01*
X233619000Y-140400000D01*
X233619000Y-139000000D01*
X235519000Y-139000000D01*
X235519000Y-140400000D01*
G37*
G36*
X242694500Y-137860000D02*
G01*
X240794500Y-137860000D01*
X240794500Y-136460000D01*
X242694500Y-136460000D01*
X242694500Y-137860000D01*
G37*
G36*
X242694500Y-140400000D02*
G01*
X240794500Y-140400000D01*
X240794500Y-139000000D01*
X242694500Y-139000000D01*
X242694500Y-140400000D01*
G37*
G36*
X239583000Y-137860000D02*
G01*
X237683000Y-137860000D01*
X237683000Y-136460000D01*
X239583000Y-136460000D01*
X239583000Y-137860000D01*
G37*
G36*
X239583000Y-140400000D02*
G01*
X237683000Y-140400000D01*
X237683000Y-139000000D01*
X239583000Y-139000000D01*
X239583000Y-140400000D01*
G37*
D13*
X185420000Y-101854000D03*
D12*
X185420000Y-96774000D03*
X185420000Y-99314000D03*
D13*
X189992000Y-101854000D03*
D12*
X189992000Y-96774000D03*
X189992000Y-99314000D03*
D13*
X194564000Y-101854000D03*
D12*
X194564000Y-96774000D03*
X194564000Y-99314000D03*
D13*
X199136000Y-101854000D03*
D12*
X199136000Y-96774000D03*
X199136000Y-99314000D03*
X243078000Y-97282000D03*
D13*
X243078000Y-94742000D03*
D12*
X239014000Y-94742000D03*
D13*
X239014000Y-97282000D03*
D12*
X231394000Y-97536000D03*
D13*
X231394000Y-94996000D03*
D12*
X227330000Y-94996000D03*
D13*
X227330000Y-97536000D03*
D12*
X227076000Y-115570000D03*
D13*
X227076000Y-113030000D03*
D12*
X231140000Y-113030000D03*
D13*
X231140000Y-115570000D03*
D12*
X239014000Y-115570000D03*
D13*
X239014000Y-113030000D03*
D12*
X243332000Y-113030000D03*
D13*
X243332000Y-115570000D03*
D12*
X215138000Y-91440000D03*
D13*
X215138000Y-93980000D03*
D12*
X209296000Y-91440000D03*
D13*
X209296000Y-93980000D03*
D23*
G36*
X204404000Y-152846000D02*
G01*
X202504000Y-152846000D01*
X202504000Y-151446000D01*
X204404000Y-151446000D01*
X204404000Y-152846000D01*
G37*
G36*
X204404000Y-150306000D02*
G01*
X202504000Y-150306000D01*
X202504000Y-148906000D01*
X204404000Y-148906000D01*
X204404000Y-150306000D01*
G37*
D24*
X163860000Y-157734000D03*
D25*
X168940000Y-157734000D03*
X203360000Y-155448000D03*
D24*
X208440000Y-155448000D03*
D26*
X224156000Y-146304000D03*
X230506000Y-143764000D03*
D27*
X220344000Y-152654000D03*
D26*
X229236000Y-146304000D03*
X222886000Y-143764000D03*
X226696000Y-146304000D03*
X225426000Y-143764000D03*
X227966000Y-143764000D03*
X221616000Y-146304000D03*
D27*
X231776000Y-152654000D03*
D24*
X186150000Y-157734000D03*
D25*
X191230000Y-157734000D03*
D24*
X181070000Y-157734000D03*
D28*
X146748500Y-98552000D03*
D15*
X149288500Y-98552000D03*
X226060000Y-134874000D03*
D28*
X223520000Y-134874000D03*
D29*
X205994000Y-145104000D03*
X205044000Y-147304000D03*
X206944000Y-147304000D03*
D15*
X204194000Y-134874000D03*
D28*
X201654000Y-134874000D03*
D15*
X182328000Y-134874000D03*
D28*
X179788000Y-134874000D03*
D30*
X191770000Y-147116800D03*
X193040000Y-147116800D03*
X190500000Y-147116800D03*
X193040000Y-150571200D03*
X191770000Y-150571200D03*
X190500000Y-150571200D03*
X186182000Y-147116800D03*
X187452000Y-147116800D03*
X184912000Y-147116800D03*
X187452000Y-150571200D03*
X186182000Y-150571200D03*
X184912000Y-150571200D03*
X180594000Y-147116800D03*
X181864000Y-147116800D03*
X179324000Y-147116800D03*
X181864000Y-150571200D03*
X180594000Y-150571200D03*
X179324000Y-150571200D03*
D23*
G36*
X191708000Y-110048000D02*
G01*
X191708000Y-111948000D01*
X190308000Y-111948000D01*
X190308000Y-110048000D01*
X191708000Y-110048000D01*
G37*
G36*
X194248000Y-110048000D02*
G01*
X194248000Y-111948000D01*
X192848000Y-111948000D01*
X192848000Y-110048000D01*
X194248000Y-110048000D01*
G37*
G36*
X223332000Y-102424000D02*
G01*
X225232000Y-102424000D01*
X225232000Y-103824000D01*
X223332000Y-103824000D01*
X223332000Y-102424000D01*
G37*
G36*
X223332000Y-99884000D02*
G01*
X225232000Y-99884000D01*
X225232000Y-101284000D01*
X223332000Y-101284000D01*
X223332000Y-99884000D01*
G37*
G36*
X220538000Y-102424000D02*
G01*
X222438000Y-102424000D01*
X222438000Y-103824000D01*
X220538000Y-103824000D01*
X220538000Y-102424000D01*
G37*
G36*
X220538000Y-99884000D02*
G01*
X222438000Y-99884000D01*
X222438000Y-101284000D01*
X220538000Y-101284000D01*
X220538000Y-99884000D01*
G37*
G36*
X211648000Y-102424000D02*
G01*
X213548000Y-102424000D01*
X213548000Y-103824000D01*
X211648000Y-103824000D01*
X211648000Y-102424000D01*
G37*
G36*
X211648000Y-99884000D02*
G01*
X213548000Y-99884000D01*
X213548000Y-101284000D01*
X211648000Y-101284000D01*
X211648000Y-99884000D01*
G37*
G36*
X214442000Y-102424000D02*
G01*
X216342000Y-102424000D01*
X216342000Y-103824000D01*
X214442000Y-103824000D01*
X214442000Y-102424000D01*
G37*
G36*
X214442000Y-99884000D02*
G01*
X216342000Y-99884000D01*
X216342000Y-101284000D01*
X214442000Y-101284000D01*
X214442000Y-99884000D01*
G37*
M02*
