G04 #@! TF.GenerationSoftware,KiCad,Pcbnew,(5.1.6)-1*
G04 #@! TF.CreationDate,2022-03-27T18:43:43+02:00*
G04 #@! TF.ProjectId,signalization_by_fireplace,7369676e-616c-4697-9a61-74696f6e5f62,rev?*
G04 #@! TF.SameCoordinates,Original*
G04 #@! TF.FileFunction,Legend,Top*
G04 #@! TF.FilePolarity,Positive*
%FSLAX46Y46*%
G04 Gerber Fmt 4.6, Leading zero omitted, Abs format (unit mm)*
G04 Created by KiCad (PCBNEW (5.1.6)-1) date 2022-03-27 18:43:43*
%MOMM*%
%LPD*%
G01*
G04 APERTURE LIST*
%ADD10C,0.375000*%
%ADD11C,0.500000*%
%ADD12C,0.875000*%
%ADD13C,1.000000*%
%ADD14C,0.160000*%
%ADD15C,0.120000*%
%ADD16C,0.150000*%
%ADD17O,2.200000X2.200000*%
%ADD18R,2.200000X2.200000*%
%ADD19R,0.900000X0.900000*%
%ADD20C,1.100000*%
%ADD21C,2.100000*%
%ADD22R,0.600000X2.100000*%
%ADD23R,5.100000X3.500000*%
%ADD24R,1.600000X0.450000*%
%ADD25R,1.000000X1.000000*%
%ADD26R,0.450000X1.300000*%
%ADD27R,2.400000X2.700000*%
%ADD28C,0.100000*%
%ADD29R,1.100000X1.100000*%
%ADD30R,1.000000X0.900000*%
%ADD31C,5.100000*%
%ADD32C,6.100000*%
%ADD33O,3.200000X3.200000*%
%ADD34R,3.200000X3.200000*%
%ADD35R,1.400000X1.100000*%
%ADD36C,3.600000*%
%ADD37R,3.600000X3.600000*%
%ADD38C,1.600000*%
%ADD39C,3.400000*%
%ADD40R,2.100000X2.100000*%
%ADD41R,0.900000X2.300000*%
G04 APERTURE END LIST*
D10*
X185500214Y-89070571D02*
X185500214Y-87570571D01*
X185500214Y-88999142D02*
X185357357Y-89070571D01*
X185071642Y-89070571D01*
X184928785Y-88999142D01*
X184857357Y-88927714D01*
X184785928Y-88784857D01*
X184785928Y-88356285D01*
X184857357Y-88213428D01*
X184928785Y-88142000D01*
X185071642Y-88070571D01*
X185357357Y-88070571D01*
X185500214Y-88142000D01*
X186785928Y-88999142D02*
X186643071Y-89070571D01*
X186357357Y-89070571D01*
X186214500Y-88999142D01*
X186143071Y-88856285D01*
X186143071Y-88284857D01*
X186214500Y-88142000D01*
X186357357Y-88070571D01*
X186643071Y-88070571D01*
X186785928Y-88142000D01*
X186857357Y-88284857D01*
X186857357Y-88427714D01*
X186143071Y-88570571D01*
X187285928Y-88070571D02*
X187857357Y-88070571D01*
X187500214Y-89070571D02*
X187500214Y-87784857D01*
X187571642Y-87642000D01*
X187714500Y-87570571D01*
X187857357Y-87570571D01*
X189000214Y-89070571D02*
X189000214Y-88284857D01*
X188928785Y-88142000D01*
X188785928Y-88070571D01*
X188500214Y-88070571D01*
X188357357Y-88142000D01*
X189000214Y-88999142D02*
X188857357Y-89070571D01*
X188500214Y-89070571D01*
X188357357Y-88999142D01*
X188285928Y-88856285D01*
X188285928Y-88713428D01*
X188357357Y-88570571D01*
X188500214Y-88499142D01*
X188857357Y-88499142D01*
X189000214Y-88427714D01*
X190357357Y-88070571D02*
X190357357Y-89070571D01*
X189714500Y-88070571D02*
X189714500Y-88856285D01*
X189785928Y-88999142D01*
X189928785Y-89070571D01*
X190143071Y-89070571D01*
X190285928Y-88999142D01*
X190357357Y-88927714D01*
X191285928Y-89070571D02*
X191143071Y-88999142D01*
X191071642Y-88856285D01*
X191071642Y-87570571D01*
X191643071Y-88070571D02*
X192214500Y-88070571D01*
X191857357Y-87570571D02*
X191857357Y-88856285D01*
X191928785Y-88999142D01*
X192071642Y-89070571D01*
X192214500Y-89070571D01*
X192714500Y-88927714D02*
X192785928Y-88999142D01*
X192714500Y-89070571D01*
X192643071Y-88999142D01*
X192714500Y-88927714D01*
X192714500Y-89070571D01*
X192714500Y-88142000D02*
X192785928Y-88213428D01*
X192714500Y-88284857D01*
X192643071Y-88213428D01*
X192714500Y-88142000D01*
X192714500Y-88284857D01*
X194857357Y-87570571D02*
X195000214Y-87570571D01*
X195143071Y-87642000D01*
X195214500Y-87713428D01*
X195285928Y-87856285D01*
X195357357Y-88142000D01*
X195357357Y-88499142D01*
X195285928Y-88784857D01*
X195214500Y-88927714D01*
X195143071Y-88999142D01*
X195000214Y-89070571D01*
X194857357Y-89070571D01*
X194714500Y-88999142D01*
X194643071Y-88927714D01*
X194571642Y-88784857D01*
X194500214Y-88499142D01*
X194500214Y-88142000D01*
X194571642Y-87856285D01*
X194643071Y-87713428D01*
X194714500Y-87642000D01*
X194857357Y-87570571D01*
X196285928Y-87570571D02*
X196428785Y-87570571D01*
X196571642Y-87642000D01*
X196643071Y-87713428D01*
X196714500Y-87856285D01*
X196785928Y-88142000D01*
X196785928Y-88499142D01*
X196714500Y-88784857D01*
X196643071Y-88927714D01*
X196571642Y-88999142D01*
X196428785Y-89070571D01*
X196285928Y-89070571D01*
X196143071Y-88999142D01*
X196071642Y-88927714D01*
X196000214Y-88784857D01*
X195928785Y-88499142D01*
X195928785Y-88142000D01*
X196000214Y-87856285D01*
X196071642Y-87713428D01*
X196143071Y-87642000D01*
X196285928Y-87570571D01*
X197714500Y-87570571D02*
X197857357Y-87570571D01*
X198000214Y-87642000D01*
X198071642Y-87713428D01*
X198143071Y-87856285D01*
X198214500Y-88142000D01*
X198214500Y-88499142D01*
X198143071Y-88784857D01*
X198071642Y-88927714D01*
X198000214Y-88999142D01*
X197857357Y-89070571D01*
X197714500Y-89070571D01*
X197571642Y-88999142D01*
X197500214Y-88927714D01*
X197428785Y-88784857D01*
X197357357Y-88499142D01*
X197357357Y-88142000D01*
X197428785Y-87856285D01*
X197500214Y-87713428D01*
X197571642Y-87642000D01*
X197714500Y-87570571D01*
X199143071Y-87570571D02*
X199285928Y-87570571D01*
X199428785Y-87642000D01*
X199500214Y-87713428D01*
X199571642Y-87856285D01*
X199643071Y-88142000D01*
X199643071Y-88499142D01*
X199571642Y-88784857D01*
X199500214Y-88927714D01*
X199428785Y-88999142D01*
X199285928Y-89070571D01*
X199143071Y-89070571D01*
X199000214Y-88999142D01*
X198928785Y-88927714D01*
X198857357Y-88784857D01*
X198785928Y-88499142D01*
X198785928Y-88142000D01*
X198857357Y-87856285D01*
X198928785Y-87713428D01*
X199000214Y-87642000D01*
X199143071Y-87570571D01*
X182491071Y-99762571D02*
X182633928Y-99762571D01*
X182776785Y-99834000D01*
X182848214Y-99905428D01*
X182919642Y-100048285D01*
X182991071Y-100334000D01*
X182991071Y-100691142D01*
X182919642Y-100976857D01*
X182848214Y-101119714D01*
X182776785Y-101191142D01*
X182633928Y-101262571D01*
X182491071Y-101262571D01*
X182348214Y-101191142D01*
X182276785Y-101119714D01*
X182205357Y-100976857D01*
X182133928Y-100691142D01*
X182133928Y-100334000D01*
X182205357Y-100048285D01*
X182276785Y-99905428D01*
X182348214Y-99834000D01*
X182491071Y-99762571D01*
X182991071Y-98722571D02*
X182133928Y-98722571D01*
X182562500Y-98722571D02*
X182562500Y-97222571D01*
X182419642Y-97436857D01*
X182276785Y-97579714D01*
X182133928Y-97651142D01*
X224135071Y-103678571D02*
X222635071Y-103678571D01*
X222777928Y-103035714D02*
X222706500Y-102964285D01*
X222635071Y-102821428D01*
X222635071Y-102464285D01*
X222706500Y-102321428D01*
X222777928Y-102250000D01*
X222920785Y-102178571D01*
X223063642Y-102178571D01*
X223277928Y-102250000D01*
X224135071Y-103107142D01*
X224135071Y-102178571D01*
X223992214Y-100678571D02*
X224063642Y-100750000D01*
X224135071Y-100964285D01*
X224135071Y-101107142D01*
X224063642Y-101321428D01*
X223920785Y-101464285D01*
X223777928Y-101535714D01*
X223492214Y-101607142D01*
X223277928Y-101607142D01*
X222992214Y-101535714D01*
X222849357Y-101464285D01*
X222706500Y-101321428D01*
X222635071Y-101107142D01*
X222635071Y-100964285D01*
X222706500Y-100750000D01*
X222777928Y-100678571D01*
X223135071Y-99107142D02*
X223135071Y-98535714D01*
X222635071Y-98892857D02*
X223920785Y-98892857D01*
X224063642Y-98821428D01*
X224135071Y-98678571D01*
X224135071Y-98535714D01*
X224063642Y-97464285D02*
X224135071Y-97607142D01*
X224135071Y-97892857D01*
X224063642Y-98035714D01*
X223920785Y-98107142D01*
X223349357Y-98107142D01*
X223206500Y-98035714D01*
X223135071Y-97892857D01*
X223135071Y-97607142D01*
X223206500Y-97464285D01*
X223349357Y-97392857D01*
X223492214Y-97392857D01*
X223635071Y-98107142D01*
X224135071Y-96750000D02*
X223135071Y-96750000D01*
X223420785Y-96750000D02*
X223277928Y-96678571D01*
X223206500Y-96607142D01*
X223135071Y-96464285D01*
X223135071Y-96321428D01*
X224135071Y-95821428D02*
X223135071Y-95821428D01*
X223277928Y-95821428D02*
X223206500Y-95750000D01*
X223135071Y-95607142D01*
X223135071Y-95392857D01*
X223206500Y-95250000D01*
X223349357Y-95178571D01*
X224135071Y-95178571D01*
X223349357Y-95178571D02*
X223206500Y-95107142D01*
X223135071Y-94964285D01*
X223135071Y-94750000D01*
X223206500Y-94607142D01*
X223349357Y-94535714D01*
X224135071Y-94535714D01*
X224135071Y-93821428D02*
X223135071Y-93821428D01*
X222635071Y-93821428D02*
X222706500Y-93892857D01*
X222777928Y-93821428D01*
X222706500Y-93750000D01*
X222635071Y-93821428D01*
X222777928Y-93821428D01*
X223135071Y-93107142D02*
X224135071Y-93107142D01*
X223277928Y-93107142D02*
X223206500Y-93035714D01*
X223135071Y-92892857D01*
X223135071Y-92678571D01*
X223206500Y-92535714D01*
X223349357Y-92464285D01*
X224135071Y-92464285D01*
X224135071Y-91107142D02*
X223349357Y-91107142D01*
X223206500Y-91178571D01*
X223135071Y-91321428D01*
X223135071Y-91607142D01*
X223206500Y-91750000D01*
X224063642Y-91107142D02*
X224135071Y-91250000D01*
X224135071Y-91607142D01*
X224063642Y-91750000D01*
X223920785Y-91821428D01*
X223777928Y-91821428D01*
X223635071Y-91750000D01*
X223563642Y-91607142D01*
X223563642Y-91250000D01*
X223492214Y-91107142D01*
X223135071Y-90607142D02*
X223135071Y-90035714D01*
X222635071Y-90392857D02*
X223920785Y-90392857D01*
X224063642Y-90321428D01*
X224135071Y-90178571D01*
X224135071Y-90035714D01*
X224135071Y-89535714D02*
X223135071Y-89535714D01*
X222635071Y-89535714D02*
X222706500Y-89607142D01*
X222777928Y-89535714D01*
X222706500Y-89464285D01*
X222635071Y-89535714D01*
X222777928Y-89535714D01*
X224135071Y-88607142D02*
X224063642Y-88750000D01*
X223992214Y-88821428D01*
X223849357Y-88892857D01*
X223420785Y-88892857D01*
X223277928Y-88821428D01*
X223206500Y-88750000D01*
X223135071Y-88607142D01*
X223135071Y-88392857D01*
X223206500Y-88250000D01*
X223277928Y-88178571D01*
X223420785Y-88107142D01*
X223849357Y-88107142D01*
X223992214Y-88178571D01*
X224063642Y-88250000D01*
X224135071Y-88392857D01*
X224135071Y-88607142D01*
X223135071Y-87464285D02*
X224135071Y-87464285D01*
X223277928Y-87464285D02*
X223206500Y-87392857D01*
X223135071Y-87250000D01*
X223135071Y-87035714D01*
X223206500Y-86892857D01*
X223349357Y-86821428D01*
X224135071Y-86821428D01*
X253531642Y-145736571D02*
X252817357Y-145736571D01*
X252745928Y-146450857D01*
X252817357Y-146379428D01*
X252960214Y-146308000D01*
X253317357Y-146308000D01*
X253460214Y-146379428D01*
X253531642Y-146450857D01*
X253603071Y-146593714D01*
X253603071Y-146950857D01*
X253531642Y-147093714D01*
X253460214Y-147165142D01*
X253317357Y-147236571D01*
X252960214Y-147236571D01*
X252817357Y-147165142D01*
X252745928Y-147093714D01*
X253460214Y-150046571D02*
X253460214Y-151046571D01*
X253103071Y-149475142D02*
X252745928Y-150546571D01*
X253674500Y-150546571D01*
X252674500Y-153102571D02*
X253603071Y-153102571D01*
X253103071Y-153674000D01*
X253317357Y-153674000D01*
X253460214Y-153745428D01*
X253531642Y-153816857D01*
X253603071Y-153959714D01*
X253603071Y-154316857D01*
X253531642Y-154459714D01*
X253460214Y-154531142D01*
X253317357Y-154602571D01*
X252888785Y-154602571D01*
X252745928Y-154531142D01*
X252674500Y-154459714D01*
X245157642Y-142823428D02*
X245014785Y-142752000D01*
X244943357Y-142680571D01*
X244871928Y-142537714D01*
X244871928Y-142466285D01*
X244943357Y-142323428D01*
X245014785Y-142252000D01*
X245157642Y-142180571D01*
X245443357Y-142180571D01*
X245586214Y-142252000D01*
X245657642Y-142323428D01*
X245729071Y-142466285D01*
X245729071Y-142537714D01*
X245657642Y-142680571D01*
X245586214Y-142752000D01*
X245443357Y-142823428D01*
X245157642Y-142823428D01*
X245014785Y-142894857D01*
X244943357Y-142966285D01*
X244871928Y-143109142D01*
X244871928Y-143394857D01*
X244943357Y-143537714D01*
X245014785Y-143609142D01*
X245157642Y-143680571D01*
X245443357Y-143680571D01*
X245586214Y-143609142D01*
X245657642Y-143537714D01*
X245729071Y-143394857D01*
X245729071Y-143109142D01*
X245657642Y-142966285D01*
X245586214Y-142894857D01*
X245443357Y-142823428D01*
X244800500Y-145990571D02*
X245800500Y-145990571D01*
X245157642Y-147490571D01*
X244871928Y-149689428D02*
X244943357Y-149618000D01*
X245086214Y-149546571D01*
X245443357Y-149546571D01*
X245586214Y-149618000D01*
X245657642Y-149689428D01*
X245729071Y-149832285D01*
X245729071Y-149975142D01*
X245657642Y-150189428D01*
X244800500Y-151046571D01*
X245729071Y-151046571D01*
X245729071Y-154602571D02*
X244871928Y-154602571D01*
X245300500Y-154602571D02*
X245300500Y-153102571D01*
X245157642Y-153316857D01*
X245014785Y-153459714D01*
X244871928Y-153531142D01*
X231497642Y-102278571D02*
X231497642Y-100778571D01*
X231997642Y-101850000D01*
X232497642Y-100778571D01*
X232497642Y-102278571D01*
X233211928Y-102278571D02*
X233211928Y-100778571D01*
X233926214Y-102278571D02*
X233926214Y-100778571D01*
X234283357Y-100778571D01*
X234497642Y-100850000D01*
X234640500Y-100992857D01*
X234711928Y-101135714D01*
X234783357Y-101421428D01*
X234783357Y-101635714D01*
X234711928Y-101921428D01*
X234640500Y-102064285D01*
X234497642Y-102207142D01*
X234283357Y-102278571D01*
X233926214Y-102278571D01*
X235426214Y-102278571D02*
X235426214Y-100778571D01*
X235783357Y-100778571D01*
X235997642Y-100850000D01*
X236140500Y-100992857D01*
X236211928Y-101135714D01*
X236283357Y-101421428D01*
X236283357Y-101635714D01*
X236211928Y-101921428D01*
X236140500Y-102064285D01*
X235997642Y-102207142D01*
X235783357Y-102278571D01*
X235426214Y-102278571D01*
X237640500Y-102278571D02*
X236926214Y-102278571D01*
X236926214Y-100778571D01*
X238140500Y-101492857D02*
X238640500Y-101492857D01*
X238854785Y-102278571D02*
X238140500Y-102278571D01*
X238140500Y-100778571D01*
X238854785Y-100778571D01*
X231497642Y-120566571D02*
X231497642Y-119066571D01*
X231997642Y-120138000D01*
X232497642Y-119066571D01*
X232497642Y-120566571D01*
X233211928Y-120566571D02*
X233211928Y-119066571D01*
X233926214Y-120566571D02*
X233926214Y-119066571D01*
X234283357Y-119066571D01*
X234497642Y-119138000D01*
X234640500Y-119280857D01*
X234711928Y-119423714D01*
X234783357Y-119709428D01*
X234783357Y-119923714D01*
X234711928Y-120209428D01*
X234640500Y-120352285D01*
X234497642Y-120495142D01*
X234283357Y-120566571D01*
X233926214Y-120566571D01*
X235426214Y-120566571D02*
X235426214Y-119066571D01*
X235783357Y-119066571D01*
X235997642Y-119138000D01*
X236140500Y-119280857D01*
X236211928Y-119423714D01*
X236283357Y-119709428D01*
X236283357Y-119923714D01*
X236211928Y-120209428D01*
X236140500Y-120352285D01*
X235997642Y-120495142D01*
X235783357Y-120566571D01*
X235426214Y-120566571D01*
X237640500Y-120566571D02*
X236926214Y-120566571D01*
X236926214Y-119066571D01*
X238140500Y-119780857D02*
X238640500Y-119780857D01*
X238854785Y-120566571D02*
X238140500Y-120566571D01*
X238140500Y-119066571D01*
X238854785Y-119066571D01*
X221008214Y-119780857D02*
X221222500Y-119852285D01*
X221293928Y-119923714D01*
X221365357Y-120066571D01*
X221365357Y-120280857D01*
X221293928Y-120423714D01*
X221222500Y-120495142D01*
X221079642Y-120566571D01*
X220508214Y-120566571D01*
X220508214Y-119066571D01*
X221008214Y-119066571D01*
X221151071Y-119138000D01*
X221222500Y-119209428D01*
X221293928Y-119352285D01*
X221293928Y-119495142D01*
X221222500Y-119638000D01*
X221151071Y-119709428D01*
X221008214Y-119780857D01*
X220508214Y-119780857D01*
X222293928Y-119066571D02*
X222579642Y-119066571D01*
X222722500Y-119138000D01*
X222865357Y-119280857D01*
X222936785Y-119566571D01*
X222936785Y-120066571D01*
X222865357Y-120352285D01*
X222722500Y-120495142D01*
X222579642Y-120566571D01*
X222293928Y-120566571D01*
X222151071Y-120495142D01*
X222008214Y-120352285D01*
X221936785Y-120066571D01*
X221936785Y-119566571D01*
X222008214Y-119280857D01*
X222151071Y-119138000D01*
X222293928Y-119066571D01*
X223365357Y-119066571D02*
X224222500Y-119066571D01*
X223793928Y-120566571D02*
X223793928Y-119066571D01*
X224508214Y-119066571D02*
X225365357Y-119066571D01*
X224936785Y-120566571D02*
X224936785Y-119066571D01*
X226151071Y-119066571D02*
X226436785Y-119066571D01*
X226579642Y-119138000D01*
X226722500Y-119280857D01*
X226793928Y-119566571D01*
X226793928Y-120066571D01*
X226722500Y-120352285D01*
X226579642Y-120495142D01*
X226436785Y-120566571D01*
X226151071Y-120566571D01*
X226008214Y-120495142D01*
X225865357Y-120352285D01*
X225793928Y-120066571D01*
X225793928Y-119566571D01*
X225865357Y-119280857D01*
X226008214Y-119138000D01*
X226151071Y-119066571D01*
X227436785Y-120566571D02*
X227436785Y-119066571D01*
X227936785Y-120138000D01*
X228436785Y-119066571D01*
X228436785Y-120566571D01*
X241812214Y-119066571D02*
X242669357Y-119066571D01*
X242240785Y-120566571D02*
X242240785Y-119066571D01*
X243455071Y-119066571D02*
X243740785Y-119066571D01*
X243883642Y-119138000D01*
X244026500Y-119280857D01*
X244097928Y-119566571D01*
X244097928Y-120066571D01*
X244026500Y-120352285D01*
X243883642Y-120495142D01*
X243740785Y-120566571D01*
X243455071Y-120566571D01*
X243312214Y-120495142D01*
X243169357Y-120352285D01*
X243097928Y-120066571D01*
X243097928Y-119566571D01*
X243169357Y-119280857D01*
X243312214Y-119138000D01*
X243455071Y-119066571D01*
X244740785Y-120566571D02*
X244740785Y-119066571D01*
X245312214Y-119066571D01*
X245455071Y-119138000D01*
X245526500Y-119209428D01*
X245597928Y-119352285D01*
X245597928Y-119566571D01*
X245526500Y-119709428D01*
X245455071Y-119780857D01*
X245312214Y-119852285D01*
X244740785Y-119852285D01*
X242090214Y-101492857D02*
X242304500Y-101564285D01*
X242375928Y-101635714D01*
X242447357Y-101778571D01*
X242447357Y-101992857D01*
X242375928Y-102135714D01*
X242304500Y-102207142D01*
X242161642Y-102278571D01*
X241590214Y-102278571D01*
X241590214Y-100778571D01*
X242090214Y-100778571D01*
X242233071Y-100850000D01*
X242304500Y-100921428D01*
X242375928Y-101064285D01*
X242375928Y-101207142D01*
X242304500Y-101350000D01*
X242233071Y-101421428D01*
X242090214Y-101492857D01*
X241590214Y-101492857D01*
X243375928Y-100778571D02*
X243661642Y-100778571D01*
X243804500Y-100850000D01*
X243947357Y-100992857D01*
X244018785Y-101278571D01*
X244018785Y-101778571D01*
X243947357Y-102064285D01*
X243804500Y-102207142D01*
X243661642Y-102278571D01*
X243375928Y-102278571D01*
X243233071Y-102207142D01*
X243090214Y-102064285D01*
X243018785Y-101778571D01*
X243018785Y-101278571D01*
X243090214Y-100992857D01*
X243233071Y-100850000D01*
X243375928Y-100778571D01*
X244447357Y-100778571D02*
X245304500Y-100778571D01*
X244875928Y-102278571D02*
X244875928Y-100778571D01*
X245590214Y-100778571D02*
X246447357Y-100778571D01*
X246018785Y-102278571D02*
X246018785Y-100778571D01*
X247233071Y-100778571D02*
X247518785Y-100778571D01*
X247661642Y-100850000D01*
X247804500Y-100992857D01*
X247875928Y-101278571D01*
X247875928Y-101778571D01*
X247804500Y-102064285D01*
X247661642Y-102207142D01*
X247518785Y-102278571D01*
X247233071Y-102278571D01*
X247090214Y-102207142D01*
X246947357Y-102064285D01*
X246875928Y-101778571D01*
X246875928Y-101278571D01*
X246947357Y-100992857D01*
X247090214Y-100850000D01*
X247233071Y-100778571D01*
X248518785Y-102278571D02*
X248518785Y-100778571D01*
X249018785Y-101850000D01*
X249518785Y-100778571D01*
X249518785Y-102278571D01*
X225048214Y-100778571D02*
X225905357Y-100778571D01*
X225476785Y-102278571D02*
X225476785Y-100778571D01*
X226691071Y-100778571D02*
X226976785Y-100778571D01*
X227119642Y-100850000D01*
X227262500Y-100992857D01*
X227333928Y-101278571D01*
X227333928Y-101778571D01*
X227262500Y-102064285D01*
X227119642Y-102207142D01*
X226976785Y-102278571D01*
X226691071Y-102278571D01*
X226548214Y-102207142D01*
X226405357Y-102064285D01*
X226333928Y-101778571D01*
X226333928Y-101278571D01*
X226405357Y-100992857D01*
X226548214Y-100850000D01*
X226691071Y-100778571D01*
X227976785Y-102278571D02*
X227976785Y-100778571D01*
X228548214Y-100778571D01*
X228691071Y-100850000D01*
X228762500Y-100921428D01*
X228833928Y-101064285D01*
X228833928Y-101278571D01*
X228762500Y-101421428D01*
X228691071Y-101492857D01*
X228548214Y-101564285D01*
X227976785Y-101564285D01*
X245800785Y-114907142D02*
X246015071Y-114978571D01*
X246372214Y-114978571D01*
X246515071Y-114907142D01*
X246586500Y-114835714D01*
X246657928Y-114692857D01*
X246657928Y-114550000D01*
X246586500Y-114407142D01*
X246515071Y-114335714D01*
X246372214Y-114264285D01*
X246086500Y-114192857D01*
X245943642Y-114121428D01*
X245872214Y-114050000D01*
X245800785Y-113907142D01*
X245800785Y-113764285D01*
X245872214Y-113621428D01*
X245943642Y-113550000D01*
X246086500Y-113478571D01*
X246443642Y-113478571D01*
X246657928Y-113550000D01*
X248157928Y-114835714D02*
X248086500Y-114907142D01*
X247872214Y-114978571D01*
X247729357Y-114978571D01*
X247515071Y-114907142D01*
X247372214Y-114764285D01*
X247300785Y-114621428D01*
X247229357Y-114335714D01*
X247229357Y-114121428D01*
X247300785Y-113835714D01*
X247372214Y-113692857D01*
X247515071Y-113550000D01*
X247729357Y-113478571D01*
X247872214Y-113478571D01*
X248086500Y-113550000D01*
X248157928Y-113621428D01*
X249515071Y-114978571D02*
X248800785Y-114978571D01*
X248800785Y-113478571D01*
X245765071Y-96365142D02*
X245979357Y-96436571D01*
X246336500Y-96436571D01*
X246479357Y-96365142D01*
X246550785Y-96293714D01*
X246622214Y-96150857D01*
X246622214Y-96008000D01*
X246550785Y-95865142D01*
X246479357Y-95793714D01*
X246336500Y-95722285D01*
X246050785Y-95650857D01*
X245907928Y-95579428D01*
X245836500Y-95508000D01*
X245765071Y-95365142D01*
X245765071Y-95222285D01*
X245836500Y-95079428D01*
X245907928Y-95008000D01*
X246050785Y-94936571D01*
X246407928Y-94936571D01*
X246622214Y-95008000D01*
X247265071Y-96436571D02*
X247265071Y-94936571D01*
X247622214Y-94936571D01*
X247836500Y-95008000D01*
X247979357Y-95150857D01*
X248050785Y-95293714D01*
X248122214Y-95579428D01*
X248122214Y-95793714D01*
X248050785Y-96079428D01*
X247979357Y-96222285D01*
X247836500Y-96365142D01*
X247622214Y-96436571D01*
X247265071Y-96436571D01*
X248693642Y-96008000D02*
X249407928Y-96008000D01*
X248550785Y-96436571D02*
X249050785Y-94936571D01*
X249550785Y-96436571D01*
X217317071Y-93317142D02*
X217531357Y-93388571D01*
X217888500Y-93388571D01*
X218031357Y-93317142D01*
X218102785Y-93245714D01*
X218174214Y-93102857D01*
X218174214Y-92960000D01*
X218102785Y-92817142D01*
X218031357Y-92745714D01*
X217888500Y-92674285D01*
X217602785Y-92602857D01*
X217459928Y-92531428D01*
X217388500Y-92460000D01*
X217317071Y-92317142D01*
X217317071Y-92174285D01*
X217388500Y-92031428D01*
X217459928Y-91960000D01*
X217602785Y-91888571D01*
X217959928Y-91888571D01*
X218174214Y-91960000D01*
X218817071Y-93388571D02*
X218817071Y-91888571D01*
X219174214Y-91888571D01*
X219388500Y-91960000D01*
X219531357Y-92102857D01*
X219602785Y-92245714D01*
X219674214Y-92531428D01*
X219674214Y-92745714D01*
X219602785Y-93031428D01*
X219531357Y-93174285D01*
X219388500Y-93317142D01*
X219174214Y-93388571D01*
X218817071Y-93388571D01*
X220245642Y-92960000D02*
X220959928Y-92960000D01*
X220102785Y-93388571D02*
X220602785Y-91888571D01*
X221102785Y-93388571D01*
X203382785Y-93317142D02*
X203597071Y-93388571D01*
X203954214Y-93388571D01*
X204097071Y-93317142D01*
X204168500Y-93245714D01*
X204239928Y-93102857D01*
X204239928Y-92960000D01*
X204168500Y-92817142D01*
X204097071Y-92745714D01*
X203954214Y-92674285D01*
X203668500Y-92602857D01*
X203525642Y-92531428D01*
X203454214Y-92460000D01*
X203382785Y-92317142D01*
X203382785Y-92174285D01*
X203454214Y-92031428D01*
X203525642Y-91960000D01*
X203668500Y-91888571D01*
X204025642Y-91888571D01*
X204239928Y-91960000D01*
X205739928Y-93245714D02*
X205668500Y-93317142D01*
X205454214Y-93388571D01*
X205311357Y-93388571D01*
X205097071Y-93317142D01*
X204954214Y-93174285D01*
X204882785Y-93031428D01*
X204811357Y-92745714D01*
X204811357Y-92531428D01*
X204882785Y-92245714D01*
X204954214Y-92102857D01*
X205097071Y-91960000D01*
X205311357Y-91888571D01*
X205454214Y-91888571D01*
X205668500Y-91960000D01*
X205739928Y-92031428D01*
X207097071Y-93388571D02*
X206382785Y-93388571D01*
X206382785Y-91888571D01*
X206816214Y-79376071D02*
X206816214Y-77876071D01*
X207387642Y-77876071D01*
X207530500Y-77947500D01*
X207601928Y-78018928D01*
X207673357Y-78161785D01*
X207673357Y-78376071D01*
X207601928Y-78518928D01*
X207530500Y-78590357D01*
X207387642Y-78661785D01*
X206816214Y-78661785D01*
X208959071Y-78376071D02*
X208959071Y-79376071D01*
X208316214Y-78376071D02*
X208316214Y-79161785D01*
X208387642Y-79304642D01*
X208530500Y-79376071D01*
X208744785Y-79376071D01*
X208887642Y-79304642D01*
X208959071Y-79233214D01*
X209887642Y-79376071D02*
X209744785Y-79304642D01*
X209673357Y-79161785D01*
X209673357Y-77876071D01*
X210673357Y-79376071D02*
X210530500Y-79304642D01*
X210459071Y-79161785D01*
X210459071Y-77876071D01*
X211244785Y-78804642D02*
X212387642Y-78804642D01*
X213744785Y-78376071D02*
X213744785Y-79376071D01*
X213101928Y-78376071D02*
X213101928Y-79161785D01*
X213173357Y-79304642D01*
X213316214Y-79376071D01*
X213530500Y-79376071D01*
X213673357Y-79304642D01*
X213744785Y-79233214D01*
X214459071Y-78376071D02*
X214459071Y-79876071D01*
X214459071Y-78447500D02*
X214601928Y-78376071D01*
X214887642Y-78376071D01*
X215030500Y-78447500D01*
X215101928Y-78518928D01*
X215173357Y-78661785D01*
X215173357Y-79090357D01*
X215101928Y-79233214D01*
X215030500Y-79304642D01*
X214887642Y-79376071D01*
X214601928Y-79376071D01*
X214459071Y-79304642D01*
X217816214Y-79376071D02*
X217316214Y-78661785D01*
X216959071Y-79376071D02*
X216959071Y-77876071D01*
X217530500Y-77876071D01*
X217673357Y-77947500D01*
X217744785Y-78018928D01*
X217816214Y-78161785D01*
X217816214Y-78376071D01*
X217744785Y-78518928D01*
X217673357Y-78590357D01*
X217530500Y-78661785D01*
X216959071Y-78661785D01*
X210244785Y-82572500D02*
X210173357Y-82501071D01*
X210030500Y-82286785D01*
X209959071Y-82143928D01*
X209887642Y-81929642D01*
X209816214Y-81572500D01*
X209816214Y-81286785D01*
X209887642Y-80929642D01*
X209959071Y-80715357D01*
X210030500Y-80572500D01*
X210173357Y-80358214D01*
X210244785Y-80286785D01*
X210816214Y-82001071D02*
X210816214Y-80501071D01*
X211459071Y-80643928D02*
X211530500Y-80572500D01*
X211673357Y-80501071D01*
X212030500Y-80501071D01*
X212173357Y-80572500D01*
X212244785Y-80643928D01*
X212316214Y-80786785D01*
X212316214Y-80929642D01*
X212244785Y-81143928D01*
X211387642Y-82001071D01*
X212316214Y-82001071D01*
X213816214Y-81858214D02*
X213744785Y-81929642D01*
X213530500Y-82001071D01*
X213387642Y-82001071D01*
X213173357Y-81929642D01*
X213030500Y-81786785D01*
X212959071Y-81643928D01*
X212887642Y-81358214D01*
X212887642Y-81143928D01*
X212959071Y-80858214D01*
X213030500Y-80715357D01*
X213173357Y-80572500D01*
X213387642Y-80501071D01*
X213530500Y-80501071D01*
X213744785Y-80572500D01*
X213816214Y-80643928D01*
X214316214Y-82572500D02*
X214387642Y-82501071D01*
X214530500Y-82286785D01*
X214601928Y-82143928D01*
X214673357Y-81929642D01*
X214744785Y-81572500D01*
X214744785Y-81286785D01*
X214673357Y-80929642D01*
X214601928Y-80715357D01*
X214530500Y-80572500D01*
X214387642Y-80358214D01*
X214316214Y-80286785D01*
X198323357Y-143450571D02*
X199180500Y-143450571D01*
X198751928Y-144950571D02*
X198751928Y-143450571D01*
X199680500Y-144950571D02*
X199680500Y-143450571D01*
X200323357Y-144950571D02*
X200323357Y-144164857D01*
X200251928Y-144022000D01*
X200109071Y-143950571D01*
X199894785Y-143950571D01*
X199751928Y-144022000D01*
X199680500Y-144093428D01*
X201609071Y-144879142D02*
X201466214Y-144950571D01*
X201180500Y-144950571D01*
X201037642Y-144879142D01*
X200966214Y-144736285D01*
X200966214Y-144164857D01*
X201037642Y-144022000D01*
X201180500Y-143950571D01*
X201466214Y-143950571D01*
X201609071Y-144022000D01*
X201680500Y-144164857D01*
X201680500Y-144307714D01*
X200966214Y-144450571D01*
X202323357Y-144950571D02*
X202323357Y-143950571D01*
X202323357Y-144236285D02*
X202394785Y-144093428D01*
X202466214Y-144022000D01*
X202609071Y-143950571D01*
X202751928Y-143950571D01*
X203251928Y-144950571D02*
X203251928Y-143950571D01*
X203251928Y-144093428D02*
X203323357Y-144022000D01*
X203466214Y-143950571D01*
X203680500Y-143950571D01*
X203823357Y-144022000D01*
X203894785Y-144164857D01*
X203894785Y-144950571D01*
X203894785Y-144164857D02*
X203966214Y-144022000D01*
X204109071Y-143950571D01*
X204323357Y-143950571D01*
X204466214Y-144022000D01*
X204537642Y-144164857D01*
X204537642Y-144950571D01*
X205466214Y-144950571D02*
X205323357Y-144879142D01*
X205251928Y-144807714D01*
X205180500Y-144664857D01*
X205180500Y-144236285D01*
X205251928Y-144093428D01*
X205323357Y-144022000D01*
X205466214Y-143950571D01*
X205680500Y-143950571D01*
X205823357Y-144022000D01*
X205894785Y-144093428D01*
X205966214Y-144236285D01*
X205966214Y-144664857D01*
X205894785Y-144807714D01*
X205823357Y-144879142D01*
X205680500Y-144950571D01*
X205466214Y-144950571D01*
X207251928Y-144879142D02*
X207109071Y-144950571D01*
X206823357Y-144950571D01*
X206680500Y-144879142D01*
X206609071Y-144807714D01*
X206537642Y-144664857D01*
X206537642Y-144236285D01*
X206609071Y-144093428D01*
X206680500Y-144022000D01*
X206823357Y-143950571D01*
X207109071Y-143950571D01*
X207251928Y-144022000D01*
X208109071Y-144950571D02*
X207966214Y-144879142D01*
X207894785Y-144807714D01*
X207823357Y-144664857D01*
X207823357Y-144236285D01*
X207894785Y-144093428D01*
X207966214Y-144022000D01*
X208109071Y-143950571D01*
X208323357Y-143950571D01*
X208466214Y-144022000D01*
X208537642Y-144093428D01*
X208609071Y-144236285D01*
X208609071Y-144664857D01*
X208537642Y-144807714D01*
X208466214Y-144879142D01*
X208323357Y-144950571D01*
X208109071Y-144950571D01*
X209894785Y-143950571D02*
X209894785Y-144950571D01*
X209251928Y-143950571D02*
X209251928Y-144736285D01*
X209323357Y-144879142D01*
X209466214Y-144950571D01*
X209680500Y-144950571D01*
X209823357Y-144879142D01*
X209894785Y-144807714D01*
X210609071Y-143950571D02*
X210609071Y-145450571D01*
X210609071Y-144022000D02*
X210751928Y-143950571D01*
X211037642Y-143950571D01*
X211180500Y-144022000D01*
X211251928Y-144093428D01*
X211323357Y-144236285D01*
X211323357Y-144664857D01*
X211251928Y-144807714D01*
X211180500Y-144879142D01*
X211037642Y-144950571D01*
X210751928Y-144950571D01*
X210609071Y-144879142D01*
X212180500Y-144950571D02*
X212037642Y-144879142D01*
X211966214Y-144736285D01*
X211966214Y-143450571D01*
X213323357Y-144879142D02*
X213180500Y-144950571D01*
X212894785Y-144950571D01*
X212751928Y-144879142D01*
X212680500Y-144736285D01*
X212680500Y-144164857D01*
X212751928Y-144022000D01*
X212894785Y-143950571D01*
X213180500Y-143950571D01*
X213323357Y-144022000D01*
X213394785Y-144164857D01*
X213394785Y-144307714D01*
X212680500Y-144450571D01*
X185606500Y-94023428D02*
X185606500Y-93309142D01*
X186035071Y-94166285D02*
X184535071Y-93666285D01*
X186035071Y-93166285D01*
X186035071Y-92666285D02*
X184535071Y-92666285D01*
X184535071Y-92309142D01*
X184606500Y-92094857D01*
X184749357Y-91952000D01*
X184892214Y-91880571D01*
X185177928Y-91809142D01*
X185392214Y-91809142D01*
X185677928Y-91880571D01*
X185820785Y-91952000D01*
X185963642Y-92094857D01*
X186035071Y-92309142D01*
X186035071Y-92666285D01*
X184535071Y-91309142D02*
X184535071Y-90380571D01*
X185106500Y-90880571D01*
X185106500Y-90666285D01*
X185177928Y-90523428D01*
X185249357Y-90452000D01*
X185392214Y-90380571D01*
X185749357Y-90380571D01*
X185892214Y-90452000D01*
X185963642Y-90523428D01*
X186035071Y-90666285D01*
X186035071Y-91094857D01*
X185963642Y-91237714D01*
X185892214Y-91309142D01*
X190178500Y-94023428D02*
X190178500Y-93309142D01*
X190607071Y-94166285D02*
X189107071Y-93666285D01*
X190607071Y-93166285D01*
X190607071Y-92666285D02*
X189107071Y-92666285D01*
X189107071Y-92309142D01*
X189178500Y-92094857D01*
X189321357Y-91952000D01*
X189464214Y-91880571D01*
X189749928Y-91809142D01*
X189964214Y-91809142D01*
X190249928Y-91880571D01*
X190392785Y-91952000D01*
X190535642Y-92094857D01*
X190607071Y-92309142D01*
X190607071Y-92666285D01*
X189249928Y-91237714D02*
X189178500Y-91166285D01*
X189107071Y-91023428D01*
X189107071Y-90666285D01*
X189178500Y-90523428D01*
X189249928Y-90452000D01*
X189392785Y-90380571D01*
X189535642Y-90380571D01*
X189749928Y-90452000D01*
X190607071Y-91309142D01*
X190607071Y-90380571D01*
X194750500Y-94023428D02*
X194750500Y-93309142D01*
X195179071Y-94166285D02*
X193679071Y-93666285D01*
X195179071Y-93166285D01*
X195179071Y-92666285D02*
X193679071Y-92666285D01*
X193679071Y-92309142D01*
X193750500Y-92094857D01*
X193893357Y-91952000D01*
X194036214Y-91880571D01*
X194321928Y-91809142D01*
X194536214Y-91809142D01*
X194821928Y-91880571D01*
X194964785Y-91952000D01*
X195107642Y-92094857D01*
X195179071Y-92309142D01*
X195179071Y-92666285D01*
X195179071Y-90380571D02*
X195179071Y-91237714D01*
X195179071Y-90809142D02*
X193679071Y-90809142D01*
X193893357Y-90952000D01*
X194036214Y-91094857D01*
X194107642Y-91237714D01*
X199322500Y-94023428D02*
X199322500Y-93309142D01*
X199751071Y-94166285D02*
X198251071Y-93666285D01*
X199751071Y-93166285D01*
X199751071Y-92666285D02*
X198251071Y-92666285D01*
X198251071Y-92309142D01*
X198322500Y-92094857D01*
X198465357Y-91952000D01*
X198608214Y-91880571D01*
X198893928Y-91809142D01*
X199108214Y-91809142D01*
X199393928Y-91880571D01*
X199536785Y-91952000D01*
X199679642Y-92094857D01*
X199751071Y-92309142D01*
X199751071Y-92666285D01*
X198251071Y-90880571D02*
X198251071Y-90737714D01*
X198322500Y-90594857D01*
X198393928Y-90523428D01*
X198536785Y-90452000D01*
X198822500Y-90380571D01*
X199179642Y-90380571D01*
X199465357Y-90452000D01*
X199608214Y-90523428D01*
X199679642Y-90594857D01*
X199751071Y-90737714D01*
X199751071Y-90880571D01*
X199679642Y-91023428D01*
X199608214Y-91094857D01*
X199465357Y-91166285D01*
X199179642Y-91237714D01*
X198822500Y-91237714D01*
X198536785Y-91166285D01*
X198393928Y-91094857D01*
X198322500Y-91023428D01*
X198251071Y-90880571D01*
D11*
X207375261Y-149383523D02*
X207375261Y-148240666D01*
X209375261Y-148812095D02*
X207375261Y-148812095D01*
X208613357Y-147574000D02*
X208613357Y-146050190D01*
X202295261Y-149383523D02*
X202295261Y-148240666D01*
X204295261Y-148812095D02*
X202295261Y-148812095D01*
X203533357Y-147574000D02*
X203533357Y-146050190D01*
X204295261Y-146812095D02*
X202771452Y-146812095D01*
X168100500Y-151129809D02*
X168005261Y-151320285D01*
X168005261Y-151606000D01*
X168100500Y-151891714D01*
X168290976Y-152082190D01*
X168481452Y-152177428D01*
X168862404Y-152272666D01*
X169148119Y-152272666D01*
X169529071Y-152177428D01*
X169719547Y-152082190D01*
X169910023Y-151891714D01*
X170005261Y-151606000D01*
X170005261Y-151415523D01*
X169910023Y-151129809D01*
X169814785Y-151034571D01*
X169148119Y-151034571D01*
X169148119Y-151415523D01*
X170005261Y-150177428D02*
X168005261Y-150177428D01*
X170005261Y-149034571D01*
X168005261Y-149034571D01*
X170005261Y-148082190D02*
X168005261Y-148082190D01*
X168005261Y-147606000D01*
X168100500Y-147320285D01*
X168290976Y-147129809D01*
X168481452Y-147034571D01*
X168862404Y-146939333D01*
X169148119Y-146939333D01*
X169529071Y-147034571D01*
X169719547Y-147129809D01*
X169910023Y-147320285D01*
X170005261Y-147606000D01*
X170005261Y-148082190D01*
X163909357Y-152177428D02*
X163909357Y-150653619D01*
X164671261Y-151415523D02*
X163147452Y-151415523D01*
X162671261Y-148748857D02*
X162671261Y-149701238D01*
X163623642Y-149796476D01*
X163528404Y-149701238D01*
X163433166Y-149510761D01*
X163433166Y-149034571D01*
X163528404Y-148844095D01*
X163623642Y-148748857D01*
X163814119Y-148653619D01*
X164290309Y-148653619D01*
X164480785Y-148748857D01*
X164576023Y-148844095D01*
X164671261Y-149034571D01*
X164671261Y-149510761D01*
X164576023Y-149701238D01*
X164480785Y-149796476D01*
X162671261Y-148082190D02*
X164671261Y-147415523D01*
X162671261Y-146748857D01*
X181435261Y-149732857D02*
X180482880Y-150399523D01*
X181435261Y-150875714D02*
X179435261Y-150875714D01*
X179435261Y-150113809D01*
X179530500Y-149923333D01*
X179625738Y-149828095D01*
X179816214Y-149732857D01*
X180101928Y-149732857D01*
X180292404Y-149828095D01*
X180387642Y-149923333D01*
X180482880Y-150113809D01*
X180482880Y-150875714D01*
X181340023Y-148113809D02*
X181435261Y-148304285D01*
X181435261Y-148685238D01*
X181340023Y-148875714D01*
X181149547Y-148970952D01*
X180387642Y-148970952D01*
X180197166Y-148875714D01*
X180101928Y-148685238D01*
X180101928Y-148304285D01*
X180197166Y-148113809D01*
X180387642Y-148018571D01*
X180578119Y-148018571D01*
X180768595Y-148970952D01*
X181435261Y-146304285D02*
X179435261Y-146304285D01*
X181340023Y-146304285D02*
X181435261Y-146494761D01*
X181435261Y-146875714D01*
X181340023Y-147066190D01*
X181244785Y-147161428D01*
X181054309Y-147256666D01*
X180482880Y-147256666D01*
X180292404Y-147161428D01*
X180197166Y-147066190D01*
X180101928Y-146875714D01*
X180101928Y-146494761D01*
X180197166Y-146304285D01*
X185023261Y-150684952D02*
X185023261Y-150304000D01*
X185118500Y-150113523D01*
X185308976Y-149923047D01*
X185689928Y-149827809D01*
X186356595Y-149827809D01*
X186737547Y-149923047D01*
X186928023Y-150113523D01*
X187023261Y-150304000D01*
X187023261Y-150684952D01*
X186928023Y-150875428D01*
X186737547Y-151065904D01*
X186356595Y-151161142D01*
X185689928Y-151161142D01*
X185308976Y-151065904D01*
X185118500Y-150875428D01*
X185023261Y-150684952D01*
X187023261Y-148970666D02*
X185689928Y-148970666D01*
X186070880Y-148970666D02*
X185880404Y-148875428D01*
X185785166Y-148780190D01*
X185689928Y-148589714D01*
X185689928Y-148399238D01*
X187023261Y-146875428D02*
X185975642Y-146875428D01*
X185785166Y-146970666D01*
X185689928Y-147161142D01*
X185689928Y-147542095D01*
X185785166Y-147732571D01*
X186928023Y-146875428D02*
X187023261Y-147065904D01*
X187023261Y-147542095D01*
X186928023Y-147732571D01*
X186737547Y-147827809D01*
X186547071Y-147827809D01*
X186356595Y-147732571D01*
X186261357Y-147542095D01*
X186261357Y-147065904D01*
X186166119Y-146875428D01*
X185689928Y-145923047D02*
X187023261Y-145923047D01*
X185880404Y-145923047D02*
X185785166Y-145827809D01*
X185689928Y-145637333D01*
X185689928Y-145351619D01*
X185785166Y-145161142D01*
X185975642Y-145065904D01*
X187023261Y-145065904D01*
X185689928Y-143256380D02*
X187308976Y-143256380D01*
X187499452Y-143351619D01*
X187594690Y-143446857D01*
X187689928Y-143637333D01*
X187689928Y-143923047D01*
X187594690Y-144113523D01*
X186928023Y-143256380D02*
X187023261Y-143446857D01*
X187023261Y-143827809D01*
X186928023Y-144018285D01*
X186832785Y-144113523D01*
X186642309Y-144208761D01*
X186070880Y-144208761D01*
X185880404Y-144113523D01*
X185785166Y-144018285D01*
X185689928Y-143827809D01*
X185689928Y-143446857D01*
X185785166Y-143256380D01*
X186928023Y-141542095D02*
X187023261Y-141732571D01*
X187023261Y-142113523D01*
X186928023Y-142304000D01*
X186737547Y-142399238D01*
X185975642Y-142399238D01*
X185785166Y-142304000D01*
X185689928Y-142113523D01*
X185689928Y-141732571D01*
X185785166Y-141542095D01*
X185975642Y-141446857D01*
X186166119Y-141446857D01*
X186356595Y-142399238D01*
X192071642Y-150478857D02*
X192166880Y-150193142D01*
X192262119Y-150097904D01*
X192452595Y-150002666D01*
X192738309Y-150002666D01*
X192928785Y-150097904D01*
X193024023Y-150193142D01*
X193119261Y-150383619D01*
X193119261Y-151145523D01*
X191119261Y-151145523D01*
X191119261Y-150478857D01*
X191214500Y-150288380D01*
X191309738Y-150193142D01*
X191500214Y-150097904D01*
X191690690Y-150097904D01*
X191881166Y-150193142D01*
X191976404Y-150288380D01*
X192071642Y-150478857D01*
X192071642Y-151145523D01*
X193119261Y-148859809D02*
X193024023Y-149050285D01*
X192833547Y-149145523D01*
X191119261Y-149145523D01*
X191785928Y-147240761D02*
X193119261Y-147240761D01*
X191785928Y-148097904D02*
X192833547Y-148097904D01*
X193024023Y-148002666D01*
X193119261Y-147812190D01*
X193119261Y-147526476D01*
X193024023Y-147336000D01*
X192928785Y-147240761D01*
X193024023Y-145526476D02*
X193119261Y-145716952D01*
X193119261Y-146097904D01*
X193024023Y-146288380D01*
X192833547Y-146383619D01*
X192071642Y-146383619D01*
X191881166Y-146288380D01*
X191785928Y-146097904D01*
X191785928Y-145716952D01*
X191881166Y-145526476D01*
X192071642Y-145431238D01*
X192262119Y-145431238D01*
X192452595Y-146383619D01*
D12*
X169465833Y-74060666D02*
X169965833Y-74227333D01*
X170799166Y-74227333D01*
X171132500Y-74060666D01*
X171299166Y-73894000D01*
X171465833Y-73560666D01*
X171465833Y-73227333D01*
X171299166Y-72894000D01*
X171132500Y-72727333D01*
X170799166Y-72560666D01*
X170132500Y-72394000D01*
X169799166Y-72227333D01*
X169632500Y-72060666D01*
X169465833Y-71727333D01*
X169465833Y-71394000D01*
X169632500Y-71060666D01*
X169799166Y-70894000D01*
X170132500Y-70727333D01*
X170965833Y-70727333D01*
X171465833Y-70894000D01*
X172965833Y-74227333D02*
X172965833Y-71894000D01*
X172965833Y-70727333D02*
X172799166Y-70894000D01*
X172965833Y-71060666D01*
X173132500Y-70894000D01*
X172965833Y-70727333D01*
X172965833Y-71060666D01*
X176132500Y-71894000D02*
X176132500Y-74727333D01*
X175965833Y-75060666D01*
X175799166Y-75227333D01*
X175465833Y-75394000D01*
X174965833Y-75394000D01*
X174632500Y-75227333D01*
X176132500Y-74060666D02*
X175799166Y-74227333D01*
X175132500Y-74227333D01*
X174799166Y-74060666D01*
X174632500Y-73894000D01*
X174465833Y-73560666D01*
X174465833Y-72560666D01*
X174632500Y-72227333D01*
X174799166Y-72060666D01*
X175132500Y-71894000D01*
X175799166Y-71894000D01*
X176132500Y-72060666D01*
X177799166Y-71894000D02*
X177799166Y-74227333D01*
X177799166Y-72227333D02*
X177965833Y-72060666D01*
X178299166Y-71894000D01*
X178799166Y-71894000D01*
X179132500Y-72060666D01*
X179299166Y-72394000D01*
X179299166Y-74227333D01*
X182465833Y-74227333D02*
X182465833Y-72394000D01*
X182299166Y-72060666D01*
X181965833Y-71894000D01*
X181299166Y-71894000D01*
X180965833Y-72060666D01*
X182465833Y-74060666D02*
X182132500Y-74227333D01*
X181299166Y-74227333D01*
X180965833Y-74060666D01*
X180799166Y-73727333D01*
X180799166Y-73394000D01*
X180965833Y-73060666D01*
X181299166Y-72894000D01*
X182132500Y-72894000D01*
X182465833Y-72727333D01*
X184632500Y-74227333D02*
X184299166Y-74060666D01*
X184132500Y-73727333D01*
X184132500Y-70727333D01*
X185965833Y-74227333D02*
X185965833Y-71894000D01*
X185965833Y-70727333D02*
X185799166Y-70894000D01*
X185965833Y-71060666D01*
X186132500Y-70894000D01*
X185965833Y-70727333D01*
X185965833Y-71060666D01*
X187299166Y-71894000D02*
X189132500Y-71894000D01*
X187299166Y-74227333D01*
X189132500Y-74227333D01*
X191965833Y-74227333D02*
X191965833Y-72394000D01*
X191799166Y-72060666D01*
X191465833Y-71894000D01*
X190799166Y-71894000D01*
X190465833Y-72060666D01*
X191965833Y-74060666D02*
X191632500Y-74227333D01*
X190799166Y-74227333D01*
X190465833Y-74060666D01*
X190299166Y-73727333D01*
X190299166Y-73394000D01*
X190465833Y-73060666D01*
X190799166Y-72894000D01*
X191632500Y-72894000D01*
X191965833Y-72727333D01*
X193132500Y-71894000D02*
X194465833Y-71894000D01*
X193632500Y-70727333D02*
X193632500Y-73727333D01*
X193799166Y-74060666D01*
X194132500Y-74227333D01*
X194465833Y-74227333D01*
X195632500Y-74227333D02*
X195632500Y-71894000D01*
X195632500Y-70727333D02*
X195465833Y-70894000D01*
X195632500Y-71060666D01*
X195799166Y-70894000D01*
X195632500Y-70727333D01*
X195632500Y-71060666D01*
X197799166Y-74227333D02*
X197465833Y-74060666D01*
X197299166Y-73894000D01*
X197132500Y-73560666D01*
X197132500Y-72560666D01*
X197299166Y-72227333D01*
X197465833Y-72060666D01*
X197799166Y-71894000D01*
X198299166Y-71894000D01*
X198632500Y-72060666D01*
X198799166Y-72227333D01*
X198965833Y-72560666D01*
X198965833Y-73560666D01*
X198799166Y-73894000D01*
X198632500Y-74060666D01*
X198299166Y-74227333D01*
X197799166Y-74227333D01*
X200465833Y-71894000D02*
X200465833Y-74227333D01*
X200465833Y-72227333D02*
X200632500Y-72060666D01*
X200965833Y-71894000D01*
X201465833Y-71894000D01*
X201799166Y-72060666D01*
X201965833Y-72394000D01*
X201965833Y-74227333D01*
X206299166Y-74227333D02*
X206299166Y-70727333D01*
X206299166Y-72060666D02*
X206632500Y-71894000D01*
X207299166Y-71894000D01*
X207632500Y-72060666D01*
X207799166Y-72227333D01*
X207965833Y-72560666D01*
X207965833Y-73560666D01*
X207799166Y-73894000D01*
X207632500Y-74060666D01*
X207299166Y-74227333D01*
X206632500Y-74227333D01*
X206299166Y-74060666D01*
X209132500Y-71894000D02*
X209965833Y-74227333D01*
X210799166Y-71894000D02*
X209965833Y-74227333D01*
X209632500Y-75060666D01*
X209465833Y-75227333D01*
X209132500Y-75394000D01*
X214299166Y-71894000D02*
X215632500Y-71894000D01*
X214799166Y-74227333D02*
X214799166Y-71227333D01*
X214965833Y-70894000D01*
X215299166Y-70727333D01*
X215632500Y-70727333D01*
X216799166Y-74227333D02*
X216799166Y-71894000D01*
X216799166Y-70727333D02*
X216632500Y-70894000D01*
X216799166Y-71060666D01*
X216965833Y-70894000D01*
X216799166Y-70727333D01*
X216799166Y-71060666D01*
X218465833Y-74227333D02*
X218465833Y-71894000D01*
X218465833Y-72560666D02*
X218632500Y-72227333D01*
X218799166Y-72060666D01*
X219132500Y-71894000D01*
X219465833Y-71894000D01*
X221965833Y-74060666D02*
X221632500Y-74227333D01*
X220965833Y-74227333D01*
X220632500Y-74060666D01*
X220465833Y-73727333D01*
X220465833Y-72394000D01*
X220632500Y-72060666D01*
X220965833Y-71894000D01*
X221632500Y-71894000D01*
X221965833Y-72060666D01*
X222132500Y-72394000D01*
X222132500Y-72727333D01*
X220465833Y-73060666D01*
X223632500Y-71894000D02*
X223632500Y-75394000D01*
X223632500Y-72060666D02*
X223965833Y-71894000D01*
X224632500Y-71894000D01*
X224965833Y-72060666D01*
X225132500Y-72227333D01*
X225299166Y-72560666D01*
X225299166Y-73560666D01*
X225132500Y-73894000D01*
X224965833Y-74060666D01*
X224632500Y-74227333D01*
X223965833Y-74227333D01*
X223632500Y-74060666D01*
X227299166Y-74227333D02*
X226965833Y-74060666D01*
X226799166Y-73727333D01*
X226799166Y-70727333D01*
X230132500Y-74227333D02*
X230132500Y-72394000D01*
X229965833Y-72060666D01*
X229632500Y-71894000D01*
X228965833Y-71894000D01*
X228632500Y-72060666D01*
X230132500Y-74060666D02*
X229799166Y-74227333D01*
X228965833Y-74227333D01*
X228632500Y-74060666D01*
X228465833Y-73727333D01*
X228465833Y-73394000D01*
X228632500Y-73060666D01*
X228965833Y-72894000D01*
X229799166Y-72894000D01*
X230132500Y-72727333D01*
X233299166Y-74060666D02*
X232965833Y-74227333D01*
X232299166Y-74227333D01*
X231965833Y-74060666D01*
X231799166Y-73894000D01*
X231632500Y-73560666D01*
X231632500Y-72560666D01*
X231799166Y-72227333D01*
X231965833Y-72060666D01*
X232299166Y-71894000D01*
X232965833Y-71894000D01*
X233299166Y-72060666D01*
X236132500Y-74060666D02*
X235799166Y-74227333D01*
X235132500Y-74227333D01*
X234799166Y-74060666D01*
X234632500Y-73727333D01*
X234632500Y-72394000D01*
X234799166Y-72060666D01*
X235132500Y-71894000D01*
X235799166Y-71894000D01*
X236132500Y-72060666D01*
X236299166Y-72394000D01*
X236299166Y-72727333D01*
X234632500Y-73060666D01*
D13*
X164148214Y-81946857D02*
X165100595Y-84613523D01*
X166052976Y-81946857D01*
X169672023Y-84613523D02*
X167386309Y-84613523D01*
X168529166Y-84613523D02*
X168529166Y-80613523D01*
X168148214Y-81184952D01*
X167767261Y-81565904D01*
X167386309Y-81756380D01*
X171386309Y-84232571D02*
X171576785Y-84423047D01*
X171386309Y-84613523D01*
X171195833Y-84423047D01*
X171386309Y-84232571D01*
X171386309Y-84613523D01*
X174052976Y-80613523D02*
X174433928Y-80613523D01*
X174814880Y-80804000D01*
X175005357Y-80994476D01*
X175195833Y-81375428D01*
X175386309Y-82137333D01*
X175386309Y-83089714D01*
X175195833Y-83851619D01*
X175005357Y-84232571D01*
X174814880Y-84423047D01*
X174433928Y-84613523D01*
X174052976Y-84613523D01*
X173672023Y-84423047D01*
X173481547Y-84232571D01*
X173291071Y-83851619D01*
X173100595Y-83089714D01*
X173100595Y-82137333D01*
X173291071Y-81375428D01*
X173481547Y-80994476D01*
X173672023Y-80804000D01*
X174052976Y-80613523D01*
X257270023Y-129156285D02*
X255365261Y-130489619D01*
X257270023Y-131442000D02*
X253270023Y-131442000D01*
X253270023Y-129918190D01*
X253460500Y-129537238D01*
X253650976Y-129346761D01*
X254031928Y-129156285D01*
X254603357Y-129156285D01*
X254984309Y-129346761D01*
X255174785Y-129537238D01*
X255365261Y-129918190D01*
X255365261Y-131442000D01*
X257270023Y-126870571D02*
X257079547Y-127251523D01*
X256889071Y-127442000D01*
X256508119Y-127632476D01*
X255365261Y-127632476D01*
X254984309Y-127442000D01*
X254793833Y-127251523D01*
X254603357Y-126870571D01*
X254603357Y-126299142D01*
X254793833Y-125918190D01*
X254984309Y-125727714D01*
X255365261Y-125537238D01*
X256508119Y-125537238D01*
X256889071Y-125727714D01*
X257079547Y-125918190D01*
X257270023Y-126299142D01*
X257270023Y-126870571D01*
X257270023Y-123822952D02*
X254603357Y-123822952D01*
X254984309Y-123822952D02*
X254793833Y-123632476D01*
X254603357Y-123251523D01*
X254603357Y-122680095D01*
X254793833Y-122299142D01*
X255174785Y-122108666D01*
X257270023Y-122108666D01*
X255174785Y-122108666D02*
X254793833Y-121918190D01*
X254603357Y-121537238D01*
X254603357Y-120965809D01*
X254793833Y-120584857D01*
X255174785Y-120394380D01*
X257270023Y-120394380D01*
X257270023Y-116775333D02*
X255174785Y-116775333D01*
X254793833Y-116965809D01*
X254603357Y-117346761D01*
X254603357Y-118108666D01*
X254793833Y-118489619D01*
X257079547Y-116775333D02*
X257270023Y-117156285D01*
X257270023Y-118108666D01*
X257079547Y-118489619D01*
X256698595Y-118680095D01*
X256317642Y-118680095D01*
X255936690Y-118489619D01*
X255746214Y-118108666D01*
X255746214Y-117156285D01*
X255555738Y-116775333D01*
X254603357Y-114870571D02*
X257270023Y-114870571D01*
X254984309Y-114870571D02*
X254793833Y-114680095D01*
X254603357Y-114299142D01*
X254603357Y-113727714D01*
X254793833Y-113346761D01*
X255174785Y-113156285D01*
X257270023Y-113156285D01*
X257270023Y-106299142D02*
X257270023Y-108203904D01*
X253270023Y-108203904D01*
X257270023Y-103251523D02*
X255174785Y-103251523D01*
X254793833Y-103442000D01*
X254603357Y-103822952D01*
X254603357Y-104584857D01*
X254793833Y-104965809D01*
X257079547Y-103251523D02*
X257270023Y-103632476D01*
X257270023Y-104584857D01*
X257079547Y-104965809D01*
X256698595Y-105156285D01*
X256317642Y-105156285D01*
X255936690Y-104965809D01*
X255746214Y-104584857D01*
X255746214Y-103632476D01*
X255555738Y-103251523D01*
X257270023Y-101346761D02*
X253270023Y-101346761D01*
X254793833Y-101346761D02*
X254603357Y-100965809D01*
X254603357Y-100203904D01*
X254793833Y-99822952D01*
X254984309Y-99632476D01*
X255365261Y-99442000D01*
X256508119Y-99442000D01*
X256889071Y-99632476D01*
X257079547Y-99822952D01*
X257270023Y-100203904D01*
X257270023Y-100965809D01*
X257079547Y-101346761D01*
X257270023Y-97156285D02*
X257079547Y-97537238D01*
X256889071Y-97727714D01*
X256508119Y-97918190D01*
X255365261Y-97918190D01*
X254984309Y-97727714D01*
X254793833Y-97537238D01*
X254603357Y-97156285D01*
X254603357Y-96584857D01*
X254793833Y-96203904D01*
X254984309Y-96013428D01*
X255365261Y-95822952D01*
X256508119Y-95822952D01*
X256889071Y-96013428D01*
X257079547Y-96203904D01*
X257270023Y-96584857D01*
X257270023Y-97156285D01*
X254603357Y-94489619D02*
X257270023Y-93537238D01*
X254603357Y-92584857D01*
X257079547Y-91251523D02*
X257270023Y-90870571D01*
X257270023Y-90108666D01*
X257079547Y-89727714D01*
X256698595Y-89537238D01*
X256508119Y-89537238D01*
X256127166Y-89727714D01*
X255936690Y-90108666D01*
X255936690Y-90680095D01*
X255746214Y-91061047D01*
X255365261Y-91251523D01*
X255174785Y-91251523D01*
X254793833Y-91061047D01*
X254603357Y-90680095D01*
X254603357Y-90108666D01*
X254793833Y-89727714D01*
X257270023Y-87822952D02*
X253270023Y-87822952D01*
X255746214Y-87442000D02*
X257270023Y-86299142D01*
X254603357Y-86299142D02*
X256127166Y-87822952D01*
X254603357Y-84965809D02*
X257270023Y-84013428D01*
X254603357Y-83061047D02*
X257270023Y-84013428D01*
X258222404Y-84394380D01*
X258412880Y-84584857D01*
X258603357Y-84965809D01*
X253079547Y-83632476D02*
X253650976Y-84203904D01*
X264128023Y-135346761D02*
X261461357Y-135346761D01*
X262223261Y-135346761D02*
X261842309Y-135156285D01*
X261651833Y-134965809D01*
X261461357Y-134584857D01*
X261461357Y-134203904D01*
X264128023Y-132299142D02*
X263937547Y-132680095D01*
X263747071Y-132870571D01*
X263366119Y-133061047D01*
X262223261Y-133061047D01*
X261842309Y-132870571D01*
X261651833Y-132680095D01*
X261461357Y-132299142D01*
X261461357Y-131727714D01*
X261651833Y-131346761D01*
X261842309Y-131156285D01*
X262223261Y-130965809D01*
X263366119Y-130965809D01*
X263747071Y-131156285D01*
X263937547Y-131346761D01*
X264128023Y-131727714D01*
X264128023Y-132299142D01*
X264128023Y-129251523D02*
X261461357Y-129251523D01*
X261842309Y-129251523D02*
X261651833Y-129061047D01*
X261461357Y-128680095D01*
X261461357Y-128108666D01*
X261651833Y-127727714D01*
X262032785Y-127537238D01*
X264128023Y-127537238D01*
X262032785Y-127537238D02*
X261651833Y-127346761D01*
X261461357Y-126965809D01*
X261461357Y-126394380D01*
X261651833Y-126013428D01*
X262032785Y-125822952D01*
X264128023Y-125822952D01*
X264128023Y-122203904D02*
X262032785Y-122203904D01*
X261651833Y-122394380D01*
X261461357Y-122775333D01*
X261461357Y-123537238D01*
X261651833Y-123918190D01*
X263937547Y-122203904D02*
X264128023Y-122584857D01*
X264128023Y-123537238D01*
X263937547Y-123918190D01*
X263556595Y-124108666D01*
X263175642Y-124108666D01*
X262794690Y-123918190D01*
X262604214Y-123537238D01*
X262604214Y-122584857D01*
X262413738Y-122203904D01*
X261461357Y-120299142D02*
X264128023Y-120299142D01*
X261842309Y-120299142D02*
X261651833Y-120108666D01*
X261461357Y-119727714D01*
X261461357Y-119156285D01*
X261651833Y-118775333D01*
X262032785Y-118584857D01*
X264128023Y-118584857D01*
X262604214Y-116680095D02*
X262604214Y-113632476D01*
X264128023Y-111156285D02*
X263937547Y-111537238D01*
X263556595Y-111727714D01*
X260128023Y-111727714D01*
X264128023Y-107918190D02*
X262032785Y-107918190D01*
X261651833Y-108108666D01*
X261461357Y-108489619D01*
X261461357Y-109251523D01*
X261651833Y-109632476D01*
X263937547Y-107918190D02*
X264128023Y-108299142D01*
X264128023Y-109251523D01*
X263937547Y-109632476D01*
X263556595Y-109822952D01*
X263175642Y-109822952D01*
X262794690Y-109632476D01*
X262604214Y-109251523D01*
X262604214Y-108299142D01*
X262413738Y-107918190D01*
X264128023Y-106013428D02*
X260128023Y-106013428D01*
X261651833Y-106013428D02*
X261461357Y-105632476D01*
X261461357Y-104870571D01*
X261651833Y-104489619D01*
X261842309Y-104299142D01*
X262223261Y-104108666D01*
X263366119Y-104108666D01*
X263747071Y-104299142D01*
X263937547Y-104489619D01*
X264128023Y-104870571D01*
X264128023Y-105632476D01*
X263937547Y-106013428D01*
X264128023Y-101822952D02*
X263937547Y-102203904D01*
X263747071Y-102394380D01*
X263366119Y-102584857D01*
X262223261Y-102584857D01*
X261842309Y-102394380D01*
X261651833Y-102203904D01*
X261461357Y-101822952D01*
X261461357Y-101251523D01*
X261651833Y-100870571D01*
X261842309Y-100680095D01*
X262223261Y-100489619D01*
X263366119Y-100489619D01*
X263747071Y-100680095D01*
X263937547Y-100870571D01*
X264128023Y-101251523D01*
X264128023Y-101822952D01*
X261461357Y-99156285D02*
X264128023Y-98203904D01*
X261461357Y-97251523D01*
X263937547Y-95918190D02*
X264128023Y-95537238D01*
X264128023Y-94775333D01*
X263937547Y-94394380D01*
X263556595Y-94203904D01*
X263366119Y-94203904D01*
X262985166Y-94394380D01*
X262794690Y-94775333D01*
X262794690Y-95346761D01*
X262604214Y-95727714D01*
X262223261Y-95918190D01*
X262032785Y-95918190D01*
X261651833Y-95727714D01*
X261461357Y-95346761D01*
X261461357Y-94775333D01*
X261651833Y-94394380D01*
X264128023Y-92489619D02*
X260128023Y-92489619D01*
X262604214Y-92108666D02*
X264128023Y-90965809D01*
X261461357Y-90965809D02*
X262985166Y-92489619D01*
X261461357Y-89632476D02*
X264128023Y-88680095D01*
X261461357Y-87727714D02*
X264128023Y-88680095D01*
X265080404Y-89061047D01*
X265270880Y-89251523D01*
X265461357Y-89632476D01*
X263747071Y-86203904D02*
X263937547Y-86013428D01*
X264128023Y-86203904D01*
X263937547Y-86394380D01*
X263747071Y-86203904D01*
X264128023Y-86203904D01*
X263937547Y-82584857D02*
X264128023Y-82965809D01*
X264128023Y-83727714D01*
X263937547Y-84108666D01*
X263747071Y-84299142D01*
X263366119Y-84489619D01*
X262223261Y-84489619D01*
X261842309Y-84299142D01*
X261651833Y-84108666D01*
X261461357Y-83727714D01*
X261461357Y-82965809D01*
X261651833Y-82584857D01*
X261461357Y-81251523D02*
X261461357Y-79156285D01*
X264128023Y-81251523D01*
X264128023Y-79156285D01*
D14*
X231140000Y-139358000D02*
X231140000Y-141058000D01*
X231140000Y-141058000D02*
X234158500Y-141058000D01*
X231140000Y-139358000D02*
X234158500Y-139358000D01*
X162814000Y-117880000D02*
X157774000Y-117880000D01*
X162814000Y-108180000D02*
X157774000Y-108180000D01*
X157734000Y-108180000D02*
X157734000Y-109220000D01*
X157734000Y-111760000D02*
X157734000Y-114300000D01*
X157734000Y-116713000D02*
X157734000Y-117880000D01*
X162814000Y-108180000D02*
X162814000Y-117880000D01*
X166847000Y-118945000D02*
X166847000Y-113320000D01*
X172397000Y-117820000D02*
X172397000Y-113320000D01*
D15*
X166676605Y-119380000D02*
G75*
G03*
X166676605Y-119380000I-179605J0D01*
G01*
X166624000Y-119380000D02*
G75*
G03*
X166624000Y-119380000I-127000J0D01*
G01*
X166537161Y-119380000D02*
G75*
G03*
X166537161Y-119380000I-40161J0D01*
G01*
D16*
X216428762Y-100965000D02*
G75*
G03*
X216428762Y-100965000I-147762J0D01*
G01*
D14*
X216900836Y-101105675D02*
X220000836Y-101105675D01*
X220000836Y-104205675D02*
X220000836Y-101105675D01*
X216900836Y-104205675D02*
X220000836Y-104205675D01*
X216900836Y-104205675D02*
X216900836Y-101105675D01*
D15*
X216331800Y-100965000D02*
G75*
G03*
X216331800Y-100965000I-50800J0D01*
G01*
D14*
X199726000Y-110553500D02*
X201136000Y-110553500D01*
X201136000Y-107886500D02*
X199771000Y-107886500D01*
X201136000Y-107886500D02*
X201136000Y-108458000D01*
X201136000Y-109982000D02*
X201136000Y-110553500D01*
D15*
X190690500Y-111379000D02*
G75*
G03*
X190690500Y-111379000I-63500J0D01*
G01*
X190754000Y-111379000D02*
G75*
G03*
X190754000Y-111379000I-127000J0D01*
G01*
X190827805Y-111379000D02*
G75*
G03*
X190827805Y-111379000I-200805J0D01*
G01*
X190881000Y-111379000D02*
G75*
G03*
X190881000Y-111379000I-254000J0D01*
G01*
D14*
X190668000Y-109474000D02*
X190668000Y-107251500D01*
X193888000Y-110474000D02*
X193888000Y-108474000D01*
X228880500Y-138598000D02*
X228880500Y-134198000D01*
X228880500Y-134198000D02*
X231240500Y-134198000D01*
X231240500Y-134198000D02*
X231240500Y-138598000D01*
X231240500Y-138598000D02*
X228880500Y-138598000D01*
X228196500Y-141642000D02*
X223796500Y-141642000D01*
X223796500Y-141642000D02*
X223796500Y-139282000D01*
X223796500Y-139282000D02*
X228196500Y-139282000D01*
X228196500Y-139282000D02*
X228196500Y-141642000D01*
X233616500Y-135509000D02*
X233108500Y-135509000D01*
X231711500Y-137158000D02*
X232641500Y-137158000D01*
X235013500Y-137158000D02*
X234083500Y-137158000D01*
X235013500Y-137158000D02*
X235013500Y-135636000D01*
X231711500Y-137158000D02*
X231711500Y-135698000D01*
X240284000Y-133438000D02*
X237710000Y-133438000D01*
X240284000Y-131738000D02*
X237710000Y-131738000D01*
X240284000Y-133438000D02*
X240284000Y-131738000D01*
X232092500Y-132246000D02*
X234666500Y-132246000D01*
X232092500Y-133946000D02*
X234666500Y-133946000D01*
X232092500Y-132246000D02*
X232092500Y-133946000D01*
X239966500Y-83654000D02*
X237392500Y-83654000D01*
X239966500Y-81954000D02*
X237392500Y-81954000D01*
X239966500Y-83654000D02*
X239966500Y-81954000D01*
X239966500Y-81114000D02*
X237392500Y-81114000D01*
X239966500Y-79414000D02*
X237392500Y-79414000D01*
X239966500Y-81114000D02*
X239966500Y-79414000D01*
X239966500Y-78574000D02*
X237392500Y-78574000D01*
X239966500Y-76874000D02*
X237392500Y-76874000D01*
X239966500Y-78574000D02*
X239966500Y-76874000D01*
X258508500Y-155956000D02*
X260540500Y-155956000D01*
X260540500Y-151892000D02*
X260540500Y-140970000D01*
X260540500Y-153924000D02*
X260540500Y-155956000D01*
X260540500Y-140970000D02*
X254444500Y-140964000D01*
X254444500Y-151892000D02*
X254444500Y-140964000D01*
X260540500Y-151892000D02*
X254444500Y-151892000D01*
X241808000Y-155956000D02*
X243840000Y-155956000D01*
X243840000Y-151892000D02*
X243840000Y-140970000D01*
X243840000Y-153924000D02*
X243840000Y-155956000D01*
X243840000Y-140970000D02*
X237744000Y-140964000D01*
X237744000Y-151892000D02*
X237744000Y-140964000D01*
X243840000Y-151892000D02*
X237744000Y-151892000D01*
X233770000Y-116246000D02*
X233770000Y-111846000D01*
X233770000Y-111846000D02*
X236130000Y-111846000D01*
X236130000Y-111846000D02*
X236130000Y-116246000D01*
X236130000Y-116246000D02*
X233770000Y-116246000D01*
X215048000Y-137074000D02*
X212688000Y-137074000D01*
X215048000Y-132674000D02*
X215048000Y-137074000D01*
X212688000Y-132674000D02*
X215048000Y-132674000D01*
X212688000Y-137074000D02*
X212688000Y-132674000D01*
X193204000Y-137074000D02*
X190844000Y-137074000D01*
X193204000Y-132674000D02*
X193204000Y-137074000D01*
X190844000Y-132674000D02*
X193204000Y-132674000D01*
X190844000Y-137074000D02*
X190844000Y-132674000D01*
X171360000Y-137074000D02*
X169000000Y-137074000D01*
X171360000Y-132674000D02*
X171360000Y-137074000D01*
X169000000Y-132674000D02*
X171360000Y-132674000D01*
X169000000Y-137074000D02*
X169000000Y-132674000D01*
X206756000Y-113538000D02*
X206756000Y-113030000D01*
X204980000Y-111633000D02*
X206440000Y-111633000D01*
X204980000Y-114935000D02*
X204980000Y-114046000D01*
X204978000Y-111633000D02*
X204978000Y-112522000D01*
X204978000Y-114935000D02*
X206502000Y-114935000D01*
X150218500Y-96938000D02*
X145818500Y-96938000D01*
X145818500Y-96938000D02*
X145818500Y-94578000D01*
X145818500Y-94578000D02*
X150218500Y-94578000D01*
X150218500Y-94578000D02*
X150218500Y-96938000D01*
X197952000Y-111850000D02*
X202352000Y-111850000D01*
X202352000Y-111850000D02*
X202352000Y-114210000D01*
X202352000Y-114210000D02*
X197952000Y-114210000D01*
X197952000Y-114210000D02*
X197952000Y-111850000D01*
X158074000Y-104992000D02*
X162474000Y-104992000D01*
X162474000Y-104992000D02*
X162474000Y-107352000D01*
X162474000Y-107352000D02*
X158074000Y-107352000D01*
X158074000Y-107352000D02*
X158074000Y-104992000D01*
X195924000Y-111420000D02*
X195924000Y-107020000D01*
X195924000Y-107020000D02*
X198284000Y-107020000D01*
X198284000Y-107020000D02*
X198284000Y-111420000D01*
X198284000Y-111420000D02*
X195924000Y-111420000D01*
X205142000Y-95844000D02*
X205142000Y-100244000D01*
X205142000Y-100244000D02*
X202782000Y-100244000D01*
X202782000Y-100244000D02*
X202782000Y-95844000D01*
X202782000Y-95844000D02*
X205142000Y-95844000D01*
X226990000Y-132752000D02*
X222590000Y-132752000D01*
X222590000Y-132752000D02*
X222590000Y-130392000D01*
X222590000Y-130392000D02*
X226990000Y-130392000D01*
X226990000Y-130392000D02*
X226990000Y-132752000D01*
X215736000Y-137074000D02*
X215736000Y-132674000D01*
X215736000Y-132674000D02*
X218096000Y-132674000D01*
X218096000Y-132674000D02*
X218096000Y-137074000D01*
X218096000Y-137074000D02*
X215736000Y-137074000D01*
X237834000Y-92370000D02*
X237834000Y-87970000D01*
X237834000Y-87970000D02*
X240194000Y-87970000D01*
X240194000Y-87970000D02*
X240194000Y-92370000D01*
X240194000Y-92370000D02*
X237834000Y-92370000D01*
X244258000Y-87970000D02*
X244258000Y-92370000D01*
X244258000Y-92370000D02*
X241898000Y-92370000D01*
X241898000Y-92370000D02*
X241898000Y-87970000D01*
X241898000Y-87970000D02*
X244258000Y-87970000D01*
X234024000Y-98466000D02*
X234024000Y-94066000D01*
X234024000Y-94066000D02*
X236384000Y-94066000D01*
X236384000Y-94066000D02*
X236384000Y-98466000D01*
X236384000Y-98466000D02*
X234024000Y-98466000D01*
X226150000Y-92370000D02*
X226150000Y-87970000D01*
X226150000Y-87970000D02*
X228510000Y-87970000D01*
X228510000Y-87970000D02*
X228510000Y-92370000D01*
X228510000Y-92370000D02*
X226150000Y-92370000D01*
X230468000Y-92370000D02*
X230468000Y-87970000D01*
X230468000Y-87970000D02*
X232828000Y-87970000D01*
X232828000Y-87970000D02*
X232828000Y-92370000D01*
X232828000Y-92370000D02*
X230468000Y-92370000D01*
X205146000Y-132752000D02*
X200746000Y-132752000D01*
X200746000Y-132752000D02*
X200746000Y-130392000D01*
X200746000Y-130392000D02*
X205146000Y-130392000D01*
X205146000Y-130392000D02*
X205146000Y-132752000D01*
X193892000Y-137074000D02*
X193892000Y-132674000D01*
X193892000Y-132674000D02*
X196252000Y-132674000D01*
X196252000Y-132674000D02*
X196252000Y-137074000D01*
X196252000Y-137074000D02*
X193892000Y-137074000D01*
X225896000Y-110404000D02*
X225896000Y-106004000D01*
X225896000Y-106004000D02*
X228256000Y-106004000D01*
X228256000Y-106004000D02*
X228256000Y-110404000D01*
X228256000Y-110404000D02*
X225896000Y-110404000D01*
X232320000Y-106004000D02*
X232320000Y-110404000D01*
X232320000Y-110404000D02*
X229960000Y-110404000D01*
X229960000Y-110404000D02*
X229960000Y-106004000D01*
X229960000Y-106004000D02*
X232320000Y-106004000D01*
X238088000Y-110658000D02*
X238088000Y-106258000D01*
X238088000Y-106258000D02*
X240448000Y-106258000D01*
X240448000Y-106258000D02*
X240448000Y-110658000D01*
X240448000Y-110658000D02*
X238088000Y-110658000D01*
X242152000Y-110658000D02*
X242152000Y-106258000D01*
X242152000Y-106258000D02*
X244512000Y-106258000D01*
X244512000Y-106258000D02*
X244512000Y-110658000D01*
X244512000Y-110658000D02*
X242152000Y-110658000D01*
X183302000Y-132752000D02*
X178902000Y-132752000D01*
X178902000Y-132752000D02*
X178902000Y-130392000D01*
X178902000Y-130392000D02*
X183302000Y-130392000D01*
X183302000Y-130392000D02*
X183302000Y-132752000D01*
X172048000Y-137074000D02*
X172048000Y-132674000D01*
X172048000Y-132674000D02*
X174408000Y-132674000D01*
X174408000Y-132674000D02*
X174408000Y-137074000D01*
X174408000Y-137074000D02*
X172048000Y-137074000D01*
X213958000Y-89068000D02*
X213958000Y-84668000D01*
X213958000Y-84668000D02*
X216318000Y-84668000D01*
X216318000Y-84668000D02*
X216318000Y-89068000D01*
X216318000Y-89068000D02*
X213958000Y-89068000D01*
X208116000Y-89068000D02*
X208116000Y-84668000D01*
X208116000Y-84668000D02*
X210476000Y-84668000D01*
X210476000Y-84668000D02*
X210476000Y-89068000D01*
X210476000Y-89068000D02*
X208116000Y-89068000D01*
X219538000Y-136207500D02*
X220948000Y-136207500D01*
X220948000Y-133540500D02*
X219583000Y-133540500D01*
X220948000Y-133540500D02*
X220948000Y-134112000D01*
X220948000Y-135636000D02*
X220948000Y-136207500D01*
X197694000Y-136207500D02*
X199104000Y-136207500D01*
X199104000Y-133540500D02*
X197739000Y-133540500D01*
X199104000Y-133540500D02*
X199104000Y-134112000D01*
X199104000Y-135636000D02*
X199104000Y-136207500D01*
X175850000Y-136207500D02*
X177260000Y-136207500D01*
X177260000Y-133540500D02*
X175895000Y-133540500D01*
X177260000Y-133540500D02*
X177260000Y-134112000D01*
X177260000Y-135636000D02*
X177260000Y-136207500D01*
X186750000Y-95504000D02*
X184090000Y-95504000D01*
X184090000Y-100584000D02*
X184090000Y-95504000D01*
X186750000Y-101854000D02*
X186750000Y-103184000D01*
X186750000Y-100584000D02*
X184090000Y-100584000D01*
X186750000Y-103184000D02*
X185420000Y-103184000D01*
X186750000Y-100584000D02*
X186750000Y-95504000D01*
X191322000Y-95504000D02*
X188662000Y-95504000D01*
X188662000Y-100584000D02*
X188662000Y-95504000D01*
X191322000Y-101854000D02*
X191322000Y-103184000D01*
X191322000Y-100584000D02*
X188662000Y-100584000D01*
X191322000Y-103184000D02*
X189992000Y-103184000D01*
X191322000Y-100584000D02*
X191322000Y-95504000D01*
X195894000Y-95504000D02*
X193234000Y-95504000D01*
X193234000Y-100584000D02*
X193234000Y-95504000D01*
X195894000Y-101854000D02*
X195894000Y-103184000D01*
X195894000Y-100584000D02*
X193234000Y-100584000D01*
X195894000Y-103184000D02*
X194564000Y-103184000D01*
X195894000Y-100584000D02*
X195894000Y-95504000D01*
X200466000Y-95504000D02*
X197806000Y-95504000D01*
X197806000Y-100584000D02*
X197806000Y-95504000D01*
X200466000Y-101854000D02*
X200466000Y-103184000D01*
X200466000Y-100584000D02*
X197806000Y-100584000D01*
X200466000Y-103184000D02*
X199136000Y-103184000D01*
X200466000Y-100584000D02*
X200466000Y-95504000D01*
X241748000Y-93412000D02*
X243078000Y-93412000D01*
X241748000Y-96012000D02*
X244408000Y-96012000D01*
X244408000Y-96012000D02*
X244408000Y-98552000D01*
X241748000Y-98552000D02*
X244408000Y-98552000D01*
X241748000Y-96012000D02*
X241748000Y-98552000D01*
X241748000Y-94742000D02*
X241748000Y-93412000D01*
X240344000Y-98612000D02*
X239014000Y-98612000D01*
X240344000Y-96012000D02*
X237684000Y-96012000D01*
X237684000Y-96012000D02*
X237684000Y-93472000D01*
X240344000Y-93472000D02*
X237684000Y-93472000D01*
X240344000Y-96012000D02*
X240344000Y-93472000D01*
X240344000Y-97282000D02*
X240344000Y-98612000D01*
X230064000Y-93666000D02*
X231394000Y-93666000D01*
X230064000Y-96266000D02*
X232724000Y-96266000D01*
X232724000Y-96266000D02*
X232724000Y-98806000D01*
X230064000Y-98806000D02*
X232724000Y-98806000D01*
X230064000Y-96266000D02*
X230064000Y-98806000D01*
X230064000Y-94996000D02*
X230064000Y-93666000D01*
X228660000Y-98866000D02*
X227330000Y-98866000D01*
X228660000Y-96266000D02*
X226000000Y-96266000D01*
X226000000Y-96266000D02*
X226000000Y-93726000D01*
X228660000Y-93726000D02*
X226000000Y-93726000D01*
X228660000Y-96266000D02*
X228660000Y-93726000D01*
X228660000Y-97536000D02*
X228660000Y-98866000D01*
X225746000Y-111700000D02*
X227076000Y-111700000D01*
X225746000Y-114300000D02*
X228406000Y-114300000D01*
X228406000Y-114300000D02*
X228406000Y-116840000D01*
X225746000Y-116840000D02*
X228406000Y-116840000D01*
X225746000Y-114300000D02*
X225746000Y-116840000D01*
X225746000Y-113030000D02*
X225746000Y-111700000D01*
X232470000Y-116900000D02*
X231140000Y-116900000D01*
X232470000Y-114300000D02*
X229810000Y-114300000D01*
X229810000Y-114300000D02*
X229810000Y-111760000D01*
X232470000Y-111760000D02*
X229810000Y-111760000D01*
X232470000Y-114300000D02*
X232470000Y-111760000D01*
X232470000Y-115570000D02*
X232470000Y-116900000D01*
X237684000Y-111700000D02*
X239014000Y-111700000D01*
X237684000Y-114300000D02*
X240344000Y-114300000D01*
X240344000Y-114300000D02*
X240344000Y-116840000D01*
X237684000Y-116840000D02*
X240344000Y-116840000D01*
X237684000Y-114300000D02*
X237684000Y-116840000D01*
X237684000Y-113030000D02*
X237684000Y-111700000D01*
X244662000Y-116900000D02*
X243332000Y-116900000D01*
X244662000Y-114300000D02*
X242002000Y-114300000D01*
X242002000Y-114300000D02*
X242002000Y-111760000D01*
X244662000Y-111760000D02*
X242002000Y-111760000D01*
X244662000Y-114300000D02*
X244662000Y-111760000D01*
X244662000Y-115570000D02*
X244662000Y-116900000D01*
X216468000Y-95310000D02*
X215138000Y-95310000D01*
X216468000Y-92710000D02*
X213808000Y-92710000D01*
X213808000Y-92710000D02*
X213808000Y-90170000D01*
X216468000Y-90170000D02*
X213808000Y-90170000D01*
X216468000Y-92710000D02*
X216468000Y-90170000D01*
X216468000Y-93980000D02*
X216468000Y-95310000D01*
X210626000Y-95310000D02*
X209296000Y-95310000D01*
X210626000Y-92710000D02*
X207966000Y-92710000D01*
X207966000Y-92710000D02*
X207966000Y-90170000D01*
X210626000Y-90170000D02*
X207966000Y-90170000D01*
X210626000Y-92710000D02*
X210626000Y-90170000D01*
X210626000Y-93980000D02*
X210626000Y-95310000D01*
X161320000Y-153234000D02*
X161320000Y-160834000D01*
X161320000Y-155194000D02*
X171480000Y-155194000D01*
X171480000Y-153234000D02*
X161320000Y-153234000D01*
X171480000Y-160834000D02*
X171480000Y-153234000D01*
X161320000Y-160834000D02*
X171480000Y-160834000D01*
X210980000Y-160748000D02*
X210980000Y-150098000D01*
X200820000Y-160748000D02*
X210980000Y-160748000D01*
X200820000Y-150098000D02*
X200820000Y-160748000D01*
X210980000Y-150098000D02*
X200820000Y-150098000D01*
X210980000Y-159298000D02*
X200820000Y-159298000D01*
X234315000Y-141859000D02*
X217805000Y-141859000D01*
X234315000Y-160909000D02*
X234315000Y-141859000D01*
X217805000Y-160909000D02*
X234315000Y-160909000D01*
X217805000Y-141859000D02*
X217805000Y-160909000D01*
X193770000Y-153234000D02*
X193770000Y-160834000D01*
X178530000Y-153234000D02*
X178530000Y-160834000D01*
X193770000Y-155194000D02*
X178530000Y-155194000D01*
X193770000Y-160834000D02*
X178530000Y-160834000D01*
X193770000Y-153234000D02*
X178530000Y-153234000D01*
D15*
X240489490Y-135191500D02*
G75*
G03*
X240489490Y-135191500I-63500J0D01*
G01*
X240567980Y-135191500D02*
G75*
G03*
X240567980Y-135191500I-141990J0D01*
G01*
X240679990Y-135191500D02*
G75*
G03*
X240679990Y-135191500I-254000J0D01*
G01*
D14*
X240332000Y-136144000D02*
X240332000Y-138896000D01*
X236283500Y-134916000D02*
X236172000Y-134916000D01*
X236172000Y-134916000D02*
X236172000Y-138896000D01*
X236283500Y-138896000D02*
X236172000Y-138896000D01*
X240332000Y-138896000D02*
X240220500Y-138896000D01*
X169586000Y-106516000D02*
X169586000Y-108876000D01*
X165186000Y-108876000D02*
X165186000Y-106516000D01*
X169586000Y-108876000D02*
X165186000Y-108876000D01*
X165186000Y-106516000D02*
X169586000Y-106516000D01*
X174412000Y-106516000D02*
X174412000Y-108876000D01*
X170012000Y-108876000D02*
X170012000Y-106516000D01*
X174412000Y-108876000D02*
X170012000Y-108876000D01*
X170012000Y-106516000D02*
X174412000Y-106516000D01*
X171872000Y-122772000D02*
X171872000Y-125132000D01*
X167472000Y-125132000D02*
X167472000Y-122772000D01*
X171872000Y-125132000D02*
X167472000Y-125132000D01*
X167472000Y-122772000D02*
X171872000Y-122772000D01*
X207940000Y-105754000D02*
X207940000Y-108114000D01*
X203540000Y-108114000D02*
X203540000Y-105754000D01*
X207940000Y-108114000D02*
X203540000Y-108114000D01*
X203540000Y-105754000D02*
X207940000Y-105754000D01*
X207940000Y-108548000D02*
X207940000Y-110908000D01*
X203540000Y-110908000D02*
X203540000Y-108548000D01*
X207940000Y-110908000D02*
X203540000Y-110908000D01*
X203540000Y-108548000D02*
X207940000Y-108548000D01*
X190078000Y-118528000D02*
X190078000Y-116168000D01*
X194478000Y-116168000D02*
X194478000Y-118528000D01*
X190078000Y-116168000D02*
X194478000Y-116168000D01*
X194478000Y-118528000D02*
X190078000Y-118528000D01*
X194478000Y-113374000D02*
X194478000Y-115734000D01*
X190078000Y-115734000D02*
X190078000Y-113374000D01*
X194478000Y-115734000D02*
X190078000Y-115734000D01*
X190078000Y-113374000D02*
X194478000Y-113374000D01*
X187034000Y-113878000D02*
X189394000Y-113878000D01*
X189394000Y-118278000D02*
X187034000Y-118278000D01*
X189394000Y-113878000D02*
X189394000Y-118278000D01*
X187034000Y-118278000D02*
X187034000Y-113878000D01*
X207940000Y-115406000D02*
X207940000Y-117766000D01*
X203540000Y-117766000D02*
X203540000Y-115406000D01*
X207940000Y-117766000D02*
X203540000Y-117766000D01*
X203540000Y-115406000D02*
X207940000Y-115406000D01*
X207940000Y-118200000D02*
X207940000Y-120560000D01*
X203540000Y-120560000D02*
X203540000Y-118200000D01*
X207940000Y-120560000D02*
X203540000Y-120560000D01*
X203540000Y-118200000D02*
X207940000Y-118200000D01*
X230512880Y-141422285D02*
X229512880Y-141422285D01*
X229512880Y-141184190D01*
X229560500Y-141041333D01*
X229655738Y-140946095D01*
X229750976Y-140898476D01*
X229941452Y-140850857D01*
X230084309Y-140850857D01*
X230274785Y-140898476D01*
X230370023Y-140946095D01*
X230465261Y-141041333D01*
X230512880Y-141184190D01*
X230512880Y-141422285D01*
X230512880Y-139898476D02*
X230512880Y-140469904D01*
X230512880Y-140184190D02*
X229512880Y-140184190D01*
X229655738Y-140279428D01*
X229750976Y-140374666D01*
X229798595Y-140469904D01*
X230512880Y-138946095D02*
X230512880Y-139517523D01*
X230512880Y-139231809D02*
X229512880Y-139231809D01*
X229655738Y-139327047D01*
X229750976Y-139422285D01*
X229798595Y-139517523D01*
D16*
D14*
X157424380Y-113672857D02*
X156948190Y-114006190D01*
X157424380Y-114244285D02*
X156424380Y-114244285D01*
X156424380Y-113863333D01*
X156472000Y-113768095D01*
X156519619Y-113720476D01*
X156614857Y-113672857D01*
X156757714Y-113672857D01*
X156852952Y-113720476D01*
X156900571Y-113768095D01*
X156948190Y-113863333D01*
X156948190Y-114244285D01*
X156519619Y-113291904D02*
X156472000Y-113244285D01*
X156424380Y-113149047D01*
X156424380Y-112910952D01*
X156472000Y-112815714D01*
X156519619Y-112768095D01*
X156614857Y-112720476D01*
X156710095Y-112720476D01*
X156852952Y-112768095D01*
X157424380Y-113339523D01*
X157424380Y-112720476D01*
X157424380Y-112244285D02*
X157424380Y-112053809D01*
X157376761Y-111958571D01*
X157329142Y-111910952D01*
X157186285Y-111815714D01*
X156995809Y-111768095D01*
X156614857Y-111768095D01*
X156519619Y-111815714D01*
X156472000Y-111863333D01*
X156424380Y-111958571D01*
X156424380Y-112149047D01*
X156472000Y-112244285D01*
X156519619Y-112291904D01*
X156614857Y-112339523D01*
X156852952Y-112339523D01*
X156948190Y-112291904D01*
X156995809Y-112244285D01*
X157043428Y-112149047D01*
X157043428Y-111958571D01*
X156995809Y-111863333D01*
X156948190Y-111815714D01*
X156852952Y-111768095D01*
D16*
D14*
X165314380Y-116331904D02*
X166123904Y-116331904D01*
X166219142Y-116284285D01*
X166266761Y-116236666D01*
X166314380Y-116141428D01*
X166314380Y-115950952D01*
X166266761Y-115855714D01*
X166219142Y-115808095D01*
X166123904Y-115760476D01*
X165314380Y-115760476D01*
X165647714Y-114855714D02*
X166314380Y-114855714D01*
X165266761Y-115093809D02*
X165981047Y-115331904D01*
X165981047Y-114712857D01*
X217678095Y-99782380D02*
X217678095Y-100591904D01*
X217725714Y-100687142D01*
X217773333Y-100734761D01*
X217868571Y-100782380D01*
X218059047Y-100782380D01*
X218154285Y-100734761D01*
X218201904Y-100687142D01*
X218249523Y-100591904D01*
X218249523Y-99782380D01*
X219249523Y-100782380D02*
X218678095Y-100782380D01*
X218963809Y-100782380D02*
X218963809Y-99782380D01*
X218868571Y-99925238D01*
X218773333Y-100020476D01*
X218678095Y-100068095D01*
X200310761Y-107481619D02*
X200215523Y-107434000D01*
X200120285Y-107338761D01*
X199977428Y-107195904D01*
X199882190Y-107148285D01*
X199786952Y-107148285D01*
X199834571Y-107386380D02*
X199739333Y-107338761D01*
X199644095Y-107243523D01*
X199596476Y-107053047D01*
X199596476Y-106719714D01*
X199644095Y-106529238D01*
X199739333Y-106434000D01*
X199834571Y-106386380D01*
X200025047Y-106386380D01*
X200120285Y-106434000D01*
X200215523Y-106529238D01*
X200263142Y-106719714D01*
X200263142Y-107053047D01*
X200215523Y-107243523D01*
X200120285Y-107338761D01*
X200025047Y-107386380D01*
X199834571Y-107386380D01*
X201120285Y-106719714D02*
X201120285Y-107386380D01*
X200882190Y-106338761D02*
X200644095Y-107053047D01*
X201263142Y-107053047D01*
X189190380Y-109981904D02*
X189999904Y-109981904D01*
X190095142Y-109934285D01*
X190142761Y-109886666D01*
X190190380Y-109791428D01*
X190190380Y-109600952D01*
X190142761Y-109505714D01*
X190095142Y-109458095D01*
X189999904Y-109410476D01*
X189190380Y-109410476D01*
X189190380Y-109029523D02*
X189190380Y-108410476D01*
X189571333Y-108743809D01*
X189571333Y-108600952D01*
X189618952Y-108505714D01*
X189666571Y-108458095D01*
X189761809Y-108410476D01*
X189999904Y-108410476D01*
X190095142Y-108458095D01*
X190142761Y-108505714D01*
X190190380Y-108600952D01*
X190190380Y-108886666D01*
X190142761Y-108981904D01*
X190095142Y-109029523D01*
D16*
D14*
X229417642Y-133802380D02*
X229084309Y-133326190D01*
X228846214Y-133802380D02*
X228846214Y-132802380D01*
X229227166Y-132802380D01*
X229322404Y-132850000D01*
X229370023Y-132897619D01*
X229417642Y-132992857D01*
X229417642Y-133135714D01*
X229370023Y-133230952D01*
X229322404Y-133278571D01*
X229227166Y-133326190D01*
X228846214Y-133326190D01*
X229750976Y-132802380D02*
X230370023Y-132802380D01*
X230036690Y-133183333D01*
X230179547Y-133183333D01*
X230274785Y-133230952D01*
X230322404Y-133278571D01*
X230370023Y-133373809D01*
X230370023Y-133611904D01*
X230322404Y-133707142D01*
X230274785Y-133754761D01*
X230179547Y-133802380D01*
X229893833Y-133802380D01*
X229798595Y-133754761D01*
X229750976Y-133707142D01*
X230941452Y-133230952D02*
X230846214Y-133183333D01*
X230798595Y-133135714D01*
X230750976Y-133040476D01*
X230750976Y-132992857D01*
X230798595Y-132897619D01*
X230846214Y-132850000D01*
X230941452Y-132802380D01*
X231131928Y-132802380D01*
X231227166Y-132850000D01*
X231274785Y-132897619D01*
X231322404Y-132992857D01*
X231322404Y-133040476D01*
X231274785Y-133135714D01*
X231227166Y-133183333D01*
X231131928Y-133230952D01*
X230941452Y-133230952D01*
X230846214Y-133278571D01*
X230798595Y-133326190D01*
X230750976Y-133421428D01*
X230750976Y-133611904D01*
X230798595Y-133707142D01*
X230846214Y-133754761D01*
X230941452Y-133802380D01*
X231131928Y-133802380D01*
X231227166Y-133754761D01*
X231274785Y-133707142D01*
X231322404Y-133611904D01*
X231322404Y-133421428D01*
X231274785Y-133326190D01*
X231227166Y-133278571D01*
X231131928Y-133230952D01*
X225099642Y-138882380D02*
X224766309Y-138406190D01*
X224528214Y-138882380D02*
X224528214Y-137882380D01*
X224909166Y-137882380D01*
X225004404Y-137930000D01*
X225052023Y-137977619D01*
X225099642Y-138072857D01*
X225099642Y-138215714D01*
X225052023Y-138310952D01*
X225004404Y-138358571D01*
X224909166Y-138406190D01*
X224528214Y-138406190D01*
X225432976Y-137882380D02*
X226052023Y-137882380D01*
X225718690Y-138263333D01*
X225861547Y-138263333D01*
X225956785Y-138310952D01*
X226004404Y-138358571D01*
X226052023Y-138453809D01*
X226052023Y-138691904D01*
X226004404Y-138787142D01*
X225956785Y-138834761D01*
X225861547Y-138882380D01*
X225575833Y-138882380D01*
X225480595Y-138834761D01*
X225432976Y-138787142D01*
X226385357Y-137882380D02*
X227052023Y-137882380D01*
X226623452Y-138882380D01*
X235434119Y-138271238D02*
X235386500Y-138366476D01*
X235291261Y-138461714D01*
X235148404Y-138604571D01*
X235100785Y-138699809D01*
X235100785Y-138795047D01*
X235338880Y-138747428D02*
X235291261Y-138842666D01*
X235196023Y-138937904D01*
X235005547Y-138985523D01*
X234672214Y-138985523D01*
X234481738Y-138937904D01*
X234386500Y-138842666D01*
X234338880Y-138747428D01*
X234338880Y-138556952D01*
X234386500Y-138461714D01*
X234481738Y-138366476D01*
X234672214Y-138318857D01*
X235005547Y-138318857D01*
X235196023Y-138366476D01*
X235291261Y-138461714D01*
X235338880Y-138556952D01*
X235338880Y-138747428D01*
X234338880Y-137461714D02*
X234338880Y-137652190D01*
X234386500Y-137747428D01*
X234434119Y-137795047D01*
X234576976Y-137890285D01*
X234767452Y-137937904D01*
X235148404Y-137937904D01*
X235243642Y-137890285D01*
X235291261Y-137842666D01*
X235338880Y-137747428D01*
X235338880Y-137556952D01*
X235291261Y-137461714D01*
X235243642Y-137414095D01*
X235148404Y-137366476D01*
X234910309Y-137366476D01*
X234815071Y-137414095D01*
X234767452Y-137461714D01*
X234719833Y-137556952D01*
X234719833Y-137747428D01*
X234767452Y-137842666D01*
X234815071Y-137890285D01*
X234910309Y-137937904D01*
X237482214Y-131262380D02*
X237482214Y-130262380D01*
X237720309Y-130262380D01*
X237863166Y-130310000D01*
X237958404Y-130405238D01*
X238006023Y-130500476D01*
X238053642Y-130690952D01*
X238053642Y-130833809D01*
X238006023Y-131024285D01*
X237958404Y-131119523D01*
X237863166Y-131214761D01*
X237720309Y-131262380D01*
X237482214Y-131262380D01*
X239006023Y-131262380D02*
X238434595Y-131262380D01*
X238720309Y-131262380D02*
X238720309Y-130262380D01*
X238625071Y-130405238D01*
X238529833Y-130500476D01*
X238434595Y-130548095D01*
X239910785Y-130262380D02*
X239434595Y-130262380D01*
X239386976Y-130738571D01*
X239434595Y-130690952D01*
X239529833Y-130643333D01*
X239767928Y-130643333D01*
X239863166Y-130690952D01*
X239910785Y-130738571D01*
X239958404Y-130833809D01*
X239958404Y-131071904D01*
X239910785Y-131167142D01*
X239863166Y-131214761D01*
X239767928Y-131262380D01*
X239529833Y-131262380D01*
X239434595Y-131214761D01*
X239386976Y-131167142D01*
X232148214Y-131770380D02*
X232148214Y-130770380D01*
X232386309Y-130770380D01*
X232529166Y-130818000D01*
X232624404Y-130913238D01*
X232672023Y-131008476D01*
X232719642Y-131198952D01*
X232719642Y-131341809D01*
X232672023Y-131532285D01*
X232624404Y-131627523D01*
X232529166Y-131722761D01*
X232386309Y-131770380D01*
X232148214Y-131770380D01*
X233672023Y-131770380D02*
X233100595Y-131770380D01*
X233386309Y-131770380D02*
X233386309Y-130770380D01*
X233291071Y-130913238D01*
X233195833Y-131008476D01*
X233100595Y-131056095D01*
X234529166Y-131103714D02*
X234529166Y-131770380D01*
X234291071Y-130722761D02*
X234052976Y-131437047D01*
X234672023Y-131437047D01*
X235100904Y-83256380D02*
X235100904Y-82256380D01*
X235339000Y-82256380D01*
X235481857Y-82304000D01*
X235577095Y-82399238D01*
X235624714Y-82494476D01*
X235672333Y-82684952D01*
X235672333Y-82827809D01*
X235624714Y-83018285D01*
X235577095Y-83113523D01*
X235481857Y-83208761D01*
X235339000Y-83256380D01*
X235100904Y-83256380D01*
X236005666Y-82256380D02*
X236624714Y-82256380D01*
X236291380Y-82637333D01*
X236434238Y-82637333D01*
X236529476Y-82684952D01*
X236577095Y-82732571D01*
X236624714Y-82827809D01*
X236624714Y-83065904D01*
X236577095Y-83161142D01*
X236529476Y-83208761D01*
X236434238Y-83256380D01*
X236148523Y-83256380D01*
X236053285Y-83208761D01*
X236005666Y-83161142D01*
X235063904Y-80716380D02*
X235063904Y-79716380D01*
X235302000Y-79716380D01*
X235444857Y-79764000D01*
X235540095Y-79859238D01*
X235587714Y-79954476D01*
X235635333Y-80144952D01*
X235635333Y-80287809D01*
X235587714Y-80478285D01*
X235540095Y-80573523D01*
X235444857Y-80668761D01*
X235302000Y-80716380D01*
X235063904Y-80716380D01*
X236016285Y-79811619D02*
X236063904Y-79764000D01*
X236159142Y-79716380D01*
X236397238Y-79716380D01*
X236492476Y-79764000D01*
X236540095Y-79811619D01*
X236587714Y-79906857D01*
X236587714Y-80002095D01*
X236540095Y-80144952D01*
X235968666Y-80716380D01*
X236587714Y-80716380D01*
X235100904Y-78176380D02*
X235100904Y-77176380D01*
X235339000Y-77176380D01*
X235481857Y-77224000D01*
X235577095Y-77319238D01*
X235624714Y-77414476D01*
X235672333Y-77604952D01*
X235672333Y-77747809D01*
X235624714Y-77938285D01*
X235577095Y-78033523D01*
X235481857Y-78128761D01*
X235339000Y-78176380D01*
X235100904Y-78176380D01*
X236624714Y-78176380D02*
X236053285Y-78176380D01*
X236339000Y-78176380D02*
X236339000Y-77176380D01*
X236243761Y-77319238D01*
X236148523Y-77414476D01*
X236053285Y-77462095D01*
D16*
D14*
X257159166Y-156678380D02*
X257159166Y-157392666D01*
X257111547Y-157535523D01*
X257016309Y-157630761D01*
X256873452Y-157678380D01*
X256778214Y-157678380D01*
X258063928Y-157011714D02*
X258063928Y-157678380D01*
X257825833Y-156630761D02*
X257587738Y-157345047D01*
X258206785Y-157345047D01*
X240458666Y-156678380D02*
X240458666Y-157392666D01*
X240411047Y-157535523D01*
X240315809Y-157630761D01*
X240172952Y-157678380D01*
X240077714Y-157678380D01*
X241458666Y-157678380D02*
X240887238Y-157678380D01*
X241172952Y-157678380D02*
X241172952Y-156678380D01*
X241077714Y-156821238D01*
X240982476Y-156916476D01*
X240887238Y-156964095D01*
D16*
D14*
X234307142Y-111450380D02*
X233973809Y-110974190D01*
X233735714Y-111450380D02*
X233735714Y-110450380D01*
X234116666Y-110450380D01*
X234211904Y-110498000D01*
X234259523Y-110545619D01*
X234307142Y-110640857D01*
X234307142Y-110783714D01*
X234259523Y-110878952D01*
X234211904Y-110926571D01*
X234116666Y-110974190D01*
X233735714Y-110974190D01*
X235259523Y-111450380D02*
X234688095Y-111450380D01*
X234973809Y-111450380D02*
X234973809Y-110450380D01*
X234878571Y-110593238D01*
X234783333Y-110688476D01*
X234688095Y-110736095D01*
X236211904Y-111450380D02*
X235640476Y-111450380D01*
X235926190Y-111450380D02*
X235926190Y-110450380D01*
X235830952Y-110593238D01*
X235735714Y-110688476D01*
X235640476Y-110736095D01*
X213225142Y-132278380D02*
X212891809Y-131802190D01*
X212653714Y-132278380D02*
X212653714Y-131278380D01*
X213034666Y-131278380D01*
X213129904Y-131326000D01*
X213177523Y-131373619D01*
X213225142Y-131468857D01*
X213225142Y-131611714D01*
X213177523Y-131706952D01*
X213129904Y-131754571D01*
X213034666Y-131802190D01*
X212653714Y-131802190D01*
X213558476Y-131278380D02*
X214177523Y-131278380D01*
X213844190Y-131659333D01*
X213987047Y-131659333D01*
X214082285Y-131706952D01*
X214129904Y-131754571D01*
X214177523Y-131849809D01*
X214177523Y-132087904D01*
X214129904Y-132183142D01*
X214082285Y-132230761D01*
X213987047Y-132278380D01*
X213701333Y-132278380D01*
X213606095Y-132230761D01*
X213558476Y-132183142D01*
X215082285Y-131278380D02*
X214606095Y-131278380D01*
X214558476Y-131754571D01*
X214606095Y-131706952D01*
X214701333Y-131659333D01*
X214939428Y-131659333D01*
X215034666Y-131706952D01*
X215082285Y-131754571D01*
X215129904Y-131849809D01*
X215129904Y-132087904D01*
X215082285Y-132183142D01*
X215034666Y-132230761D01*
X214939428Y-132278380D01*
X214701333Y-132278380D01*
X214606095Y-132230761D01*
X214558476Y-132183142D01*
X191381142Y-132278380D02*
X191047809Y-131802190D01*
X190809714Y-132278380D02*
X190809714Y-131278380D01*
X191190666Y-131278380D01*
X191285904Y-131326000D01*
X191333523Y-131373619D01*
X191381142Y-131468857D01*
X191381142Y-131611714D01*
X191333523Y-131706952D01*
X191285904Y-131754571D01*
X191190666Y-131802190D01*
X190809714Y-131802190D01*
X191714476Y-131278380D02*
X192333523Y-131278380D01*
X192000190Y-131659333D01*
X192143047Y-131659333D01*
X192238285Y-131706952D01*
X192285904Y-131754571D01*
X192333523Y-131849809D01*
X192333523Y-132087904D01*
X192285904Y-132183142D01*
X192238285Y-132230761D01*
X192143047Y-132278380D01*
X191857333Y-132278380D01*
X191762095Y-132230761D01*
X191714476Y-132183142D01*
X193190666Y-131611714D02*
X193190666Y-132278380D01*
X192952571Y-131230761D02*
X192714476Y-131945047D01*
X193333523Y-131945047D01*
X169537142Y-132278380D02*
X169203809Y-131802190D01*
X168965714Y-132278380D02*
X168965714Y-131278380D01*
X169346666Y-131278380D01*
X169441904Y-131326000D01*
X169489523Y-131373619D01*
X169537142Y-131468857D01*
X169537142Y-131611714D01*
X169489523Y-131706952D01*
X169441904Y-131754571D01*
X169346666Y-131802190D01*
X168965714Y-131802190D01*
X169870476Y-131278380D02*
X170489523Y-131278380D01*
X170156190Y-131659333D01*
X170299047Y-131659333D01*
X170394285Y-131706952D01*
X170441904Y-131754571D01*
X170489523Y-131849809D01*
X170489523Y-132087904D01*
X170441904Y-132183142D01*
X170394285Y-132230761D01*
X170299047Y-132278380D01*
X170013333Y-132278380D01*
X169918095Y-132230761D01*
X169870476Y-132183142D01*
X170822857Y-131278380D02*
X171441904Y-131278380D01*
X171108571Y-131659333D01*
X171251428Y-131659333D01*
X171346666Y-131706952D01*
X171394285Y-131754571D01*
X171441904Y-131849809D01*
X171441904Y-132087904D01*
X171394285Y-132183142D01*
X171346666Y-132230761D01*
X171251428Y-132278380D01*
X170965714Y-132278380D01*
X170870476Y-132230761D01*
X170822857Y-132183142D01*
X207772095Y-112736380D02*
X207772095Y-113545904D01*
X207819714Y-113641142D01*
X207867333Y-113688761D01*
X207962571Y-113736380D01*
X208153047Y-113736380D01*
X208248285Y-113688761D01*
X208295904Y-113641142D01*
X208343523Y-113545904D01*
X208343523Y-112736380D01*
X208772095Y-112831619D02*
X208819714Y-112784000D01*
X208914952Y-112736380D01*
X209153047Y-112736380D01*
X209248285Y-112784000D01*
X209295904Y-112831619D01*
X209343523Y-112926857D01*
X209343523Y-113022095D01*
X209295904Y-113164952D01*
X208724476Y-113736380D01*
X209343523Y-113736380D01*
X147121642Y-94178380D02*
X146788309Y-93702190D01*
X146550214Y-94178380D02*
X146550214Y-93178380D01*
X146931166Y-93178380D01*
X147026404Y-93226000D01*
X147074023Y-93273619D01*
X147121642Y-93368857D01*
X147121642Y-93511714D01*
X147074023Y-93606952D01*
X147026404Y-93654571D01*
X146931166Y-93702190D01*
X146550214Y-93702190D01*
X147454976Y-93178380D02*
X148074023Y-93178380D01*
X147740690Y-93559333D01*
X147883547Y-93559333D01*
X147978785Y-93606952D01*
X148026404Y-93654571D01*
X148074023Y-93749809D01*
X148074023Y-93987904D01*
X148026404Y-94083142D01*
X147978785Y-94130761D01*
X147883547Y-94178380D01*
X147597833Y-94178380D01*
X147502595Y-94130761D01*
X147454976Y-94083142D01*
X148454976Y-93273619D02*
X148502595Y-93226000D01*
X148597833Y-93178380D01*
X148835928Y-93178380D01*
X148931166Y-93226000D01*
X148978785Y-93273619D01*
X149026404Y-93368857D01*
X149026404Y-93464095D01*
X148978785Y-93606952D01*
X148407357Y-94178380D01*
X149026404Y-94178380D01*
X199763142Y-115514380D02*
X199429809Y-115038190D01*
X199191714Y-115514380D02*
X199191714Y-114514380D01*
X199572666Y-114514380D01*
X199667904Y-114562000D01*
X199715523Y-114609619D01*
X199763142Y-114704857D01*
X199763142Y-114847714D01*
X199715523Y-114942952D01*
X199667904Y-114990571D01*
X199572666Y-115038190D01*
X199191714Y-115038190D01*
X200096476Y-114514380D02*
X200715523Y-114514380D01*
X200382190Y-114895333D01*
X200525047Y-114895333D01*
X200620285Y-114942952D01*
X200667904Y-114990571D01*
X200715523Y-115085809D01*
X200715523Y-115323904D01*
X200667904Y-115419142D01*
X200620285Y-115466761D01*
X200525047Y-115514380D01*
X200239333Y-115514380D01*
X200144095Y-115466761D01*
X200096476Y-115419142D01*
X201667904Y-115514380D02*
X201096476Y-115514380D01*
X201382190Y-115514380D02*
X201382190Y-114514380D01*
X201286952Y-114657238D01*
X201191714Y-114752476D01*
X201096476Y-114800095D01*
X159631142Y-104592380D02*
X159297809Y-104116190D01*
X159059714Y-104592380D02*
X159059714Y-103592380D01*
X159440666Y-103592380D01*
X159535904Y-103640000D01*
X159583523Y-103687619D01*
X159631142Y-103782857D01*
X159631142Y-103925714D01*
X159583523Y-104020952D01*
X159535904Y-104068571D01*
X159440666Y-104116190D01*
X159059714Y-104116190D01*
X159964476Y-103592380D02*
X160583523Y-103592380D01*
X160250190Y-103973333D01*
X160393047Y-103973333D01*
X160488285Y-104020952D01*
X160535904Y-104068571D01*
X160583523Y-104163809D01*
X160583523Y-104401904D01*
X160535904Y-104497142D01*
X160488285Y-104544761D01*
X160393047Y-104592380D01*
X160107333Y-104592380D01*
X160012095Y-104544761D01*
X159964476Y-104497142D01*
X161202571Y-103592380D02*
X161297809Y-103592380D01*
X161393047Y-103640000D01*
X161440666Y-103687619D01*
X161488285Y-103782857D01*
X161535904Y-103973333D01*
X161535904Y-104211428D01*
X161488285Y-104401904D01*
X161440666Y-104497142D01*
X161393047Y-104544761D01*
X161297809Y-104592380D01*
X161202571Y-104592380D01*
X161107333Y-104544761D01*
X161059714Y-104497142D01*
X161012095Y-104401904D01*
X160964476Y-104211428D01*
X160964476Y-103973333D01*
X161012095Y-103782857D01*
X161059714Y-103687619D01*
X161107333Y-103640000D01*
X161202571Y-103592380D01*
X196461142Y-106624380D02*
X196127809Y-106148190D01*
X195889714Y-106624380D02*
X195889714Y-105624380D01*
X196270666Y-105624380D01*
X196365904Y-105672000D01*
X196413523Y-105719619D01*
X196461142Y-105814857D01*
X196461142Y-105957714D01*
X196413523Y-106052952D01*
X196365904Y-106100571D01*
X196270666Y-106148190D01*
X195889714Y-106148190D01*
X196842095Y-105719619D02*
X196889714Y-105672000D01*
X196984952Y-105624380D01*
X197223047Y-105624380D01*
X197318285Y-105672000D01*
X197365904Y-105719619D01*
X197413523Y-105814857D01*
X197413523Y-105910095D01*
X197365904Y-106052952D01*
X196794476Y-106624380D01*
X197413523Y-106624380D01*
X197984952Y-106052952D02*
X197889714Y-106005333D01*
X197842095Y-105957714D01*
X197794476Y-105862476D01*
X197794476Y-105814857D01*
X197842095Y-105719619D01*
X197889714Y-105672000D01*
X197984952Y-105624380D01*
X198175428Y-105624380D01*
X198270666Y-105672000D01*
X198318285Y-105719619D01*
X198365904Y-105814857D01*
X198365904Y-105862476D01*
X198318285Y-105957714D01*
X198270666Y-106005333D01*
X198175428Y-106052952D01*
X197984952Y-106052952D01*
X197889714Y-106100571D01*
X197842095Y-106148190D01*
X197794476Y-106243428D01*
X197794476Y-106433904D01*
X197842095Y-106529142D01*
X197889714Y-106576761D01*
X197984952Y-106624380D01*
X198175428Y-106624380D01*
X198270666Y-106576761D01*
X198318285Y-106529142D01*
X198365904Y-106433904D01*
X198365904Y-106243428D01*
X198318285Y-106148190D01*
X198270666Y-106100571D01*
X198175428Y-106052952D01*
X203319142Y-95448380D02*
X202985809Y-94972190D01*
X202747714Y-95448380D02*
X202747714Y-94448380D01*
X203128666Y-94448380D01*
X203223904Y-94496000D01*
X203271523Y-94543619D01*
X203319142Y-94638857D01*
X203319142Y-94781714D01*
X203271523Y-94876952D01*
X203223904Y-94924571D01*
X203128666Y-94972190D01*
X202747714Y-94972190D01*
X203700095Y-94543619D02*
X203747714Y-94496000D01*
X203842952Y-94448380D01*
X204081047Y-94448380D01*
X204176285Y-94496000D01*
X204223904Y-94543619D01*
X204271523Y-94638857D01*
X204271523Y-94734095D01*
X204223904Y-94876952D01*
X203652476Y-95448380D01*
X204271523Y-95448380D01*
X204604857Y-94448380D02*
X205271523Y-94448380D01*
X204842952Y-95448380D01*
X224147142Y-129992380D02*
X223813809Y-129516190D01*
X223575714Y-129992380D02*
X223575714Y-128992380D01*
X223956666Y-128992380D01*
X224051904Y-129040000D01*
X224099523Y-129087619D01*
X224147142Y-129182857D01*
X224147142Y-129325714D01*
X224099523Y-129420952D01*
X224051904Y-129468571D01*
X223956666Y-129516190D01*
X223575714Y-129516190D01*
X224528095Y-129087619D02*
X224575714Y-129040000D01*
X224670952Y-128992380D01*
X224909047Y-128992380D01*
X225004285Y-129040000D01*
X225051904Y-129087619D01*
X225099523Y-129182857D01*
X225099523Y-129278095D01*
X225051904Y-129420952D01*
X224480476Y-129992380D01*
X225099523Y-129992380D01*
X225480476Y-129087619D02*
X225528095Y-129040000D01*
X225623333Y-128992380D01*
X225861428Y-128992380D01*
X225956666Y-129040000D01*
X226004285Y-129087619D01*
X226051904Y-129182857D01*
X226051904Y-129278095D01*
X226004285Y-129420952D01*
X225432857Y-129992380D01*
X226051904Y-129992380D01*
X216273142Y-132278380D02*
X215939809Y-131802190D01*
X215701714Y-132278380D02*
X215701714Y-131278380D01*
X216082666Y-131278380D01*
X216177904Y-131326000D01*
X216225523Y-131373619D01*
X216273142Y-131468857D01*
X216273142Y-131611714D01*
X216225523Y-131706952D01*
X216177904Y-131754571D01*
X216082666Y-131802190D01*
X215701714Y-131802190D01*
X216654095Y-131373619D02*
X216701714Y-131326000D01*
X216796952Y-131278380D01*
X217035047Y-131278380D01*
X217130285Y-131326000D01*
X217177904Y-131373619D01*
X217225523Y-131468857D01*
X217225523Y-131564095D01*
X217177904Y-131706952D01*
X216606476Y-132278380D01*
X217225523Y-132278380D01*
X218177904Y-132278380D02*
X217606476Y-132278380D01*
X217892190Y-132278380D02*
X217892190Y-131278380D01*
X217796952Y-131421238D01*
X217701714Y-131516476D01*
X217606476Y-131564095D01*
X238371142Y-87574380D02*
X238037809Y-87098190D01*
X237799714Y-87574380D02*
X237799714Y-86574380D01*
X238180666Y-86574380D01*
X238275904Y-86622000D01*
X238323523Y-86669619D01*
X238371142Y-86764857D01*
X238371142Y-86907714D01*
X238323523Y-87002952D01*
X238275904Y-87050571D01*
X238180666Y-87098190D01*
X237799714Y-87098190D01*
X238752095Y-86669619D02*
X238799714Y-86622000D01*
X238894952Y-86574380D01*
X239133047Y-86574380D01*
X239228285Y-86622000D01*
X239275904Y-86669619D01*
X239323523Y-86764857D01*
X239323523Y-86860095D01*
X239275904Y-87002952D01*
X238704476Y-87574380D01*
X239323523Y-87574380D01*
X239942571Y-86574380D02*
X240037809Y-86574380D01*
X240133047Y-86622000D01*
X240180666Y-86669619D01*
X240228285Y-86764857D01*
X240275904Y-86955333D01*
X240275904Y-87193428D01*
X240228285Y-87383904D01*
X240180666Y-87479142D01*
X240133047Y-87526761D01*
X240037809Y-87574380D01*
X239942571Y-87574380D01*
X239847333Y-87526761D01*
X239799714Y-87479142D01*
X239752095Y-87383904D01*
X239704476Y-87193428D01*
X239704476Y-86955333D01*
X239752095Y-86764857D01*
X239799714Y-86669619D01*
X239847333Y-86622000D01*
X239942571Y-86574380D01*
X242435142Y-87574380D02*
X242101809Y-87098190D01*
X241863714Y-87574380D02*
X241863714Y-86574380D01*
X242244666Y-86574380D01*
X242339904Y-86622000D01*
X242387523Y-86669619D01*
X242435142Y-86764857D01*
X242435142Y-86907714D01*
X242387523Y-87002952D01*
X242339904Y-87050571D01*
X242244666Y-87098190D01*
X241863714Y-87098190D01*
X243387523Y-87574380D02*
X242816095Y-87574380D01*
X243101809Y-87574380D02*
X243101809Y-86574380D01*
X243006571Y-86717238D01*
X242911333Y-86812476D01*
X242816095Y-86860095D01*
X243863714Y-87574380D02*
X244054190Y-87574380D01*
X244149428Y-87526761D01*
X244197047Y-87479142D01*
X244292285Y-87336285D01*
X244339904Y-87145809D01*
X244339904Y-86764857D01*
X244292285Y-86669619D01*
X244244666Y-86622000D01*
X244149428Y-86574380D01*
X243958952Y-86574380D01*
X243863714Y-86622000D01*
X243816095Y-86669619D01*
X243768476Y-86764857D01*
X243768476Y-87002952D01*
X243816095Y-87098190D01*
X243863714Y-87145809D01*
X243958952Y-87193428D01*
X244149428Y-87193428D01*
X244244666Y-87145809D01*
X244292285Y-87098190D01*
X244339904Y-87002952D01*
X234561142Y-93670380D02*
X234227809Y-93194190D01*
X233989714Y-93670380D02*
X233989714Y-92670380D01*
X234370666Y-92670380D01*
X234465904Y-92718000D01*
X234513523Y-92765619D01*
X234561142Y-92860857D01*
X234561142Y-93003714D01*
X234513523Y-93098952D01*
X234465904Y-93146571D01*
X234370666Y-93194190D01*
X233989714Y-93194190D01*
X235513523Y-93670380D02*
X234942095Y-93670380D01*
X235227809Y-93670380D02*
X235227809Y-92670380D01*
X235132571Y-92813238D01*
X235037333Y-92908476D01*
X234942095Y-92956095D01*
X236084952Y-93098952D02*
X235989714Y-93051333D01*
X235942095Y-93003714D01*
X235894476Y-92908476D01*
X235894476Y-92860857D01*
X235942095Y-92765619D01*
X235989714Y-92718000D01*
X236084952Y-92670380D01*
X236275428Y-92670380D01*
X236370666Y-92718000D01*
X236418285Y-92765619D01*
X236465904Y-92860857D01*
X236465904Y-92908476D01*
X236418285Y-93003714D01*
X236370666Y-93051333D01*
X236275428Y-93098952D01*
X236084952Y-93098952D01*
X235989714Y-93146571D01*
X235942095Y-93194190D01*
X235894476Y-93289428D01*
X235894476Y-93479904D01*
X235942095Y-93575142D01*
X235989714Y-93622761D01*
X236084952Y-93670380D01*
X236275428Y-93670380D01*
X236370666Y-93622761D01*
X236418285Y-93575142D01*
X236465904Y-93479904D01*
X236465904Y-93289428D01*
X236418285Y-93194190D01*
X236370666Y-93146571D01*
X236275428Y-93098952D01*
X226687142Y-87574380D02*
X226353809Y-87098190D01*
X226115714Y-87574380D02*
X226115714Y-86574380D01*
X226496666Y-86574380D01*
X226591904Y-86622000D01*
X226639523Y-86669619D01*
X226687142Y-86764857D01*
X226687142Y-86907714D01*
X226639523Y-87002952D01*
X226591904Y-87050571D01*
X226496666Y-87098190D01*
X226115714Y-87098190D01*
X227639523Y-87574380D02*
X227068095Y-87574380D01*
X227353809Y-87574380D02*
X227353809Y-86574380D01*
X227258571Y-86717238D01*
X227163333Y-86812476D01*
X227068095Y-86860095D01*
X227972857Y-86574380D02*
X228639523Y-86574380D01*
X228210952Y-87574380D01*
X231005142Y-87574380D02*
X230671809Y-87098190D01*
X230433714Y-87574380D02*
X230433714Y-86574380D01*
X230814666Y-86574380D01*
X230909904Y-86622000D01*
X230957523Y-86669619D01*
X231005142Y-86764857D01*
X231005142Y-86907714D01*
X230957523Y-87002952D01*
X230909904Y-87050571D01*
X230814666Y-87098190D01*
X230433714Y-87098190D01*
X231957523Y-87574380D02*
X231386095Y-87574380D01*
X231671809Y-87574380D02*
X231671809Y-86574380D01*
X231576571Y-86717238D01*
X231481333Y-86812476D01*
X231386095Y-86860095D01*
X232814666Y-86574380D02*
X232624190Y-86574380D01*
X232528952Y-86622000D01*
X232481333Y-86669619D01*
X232386095Y-86812476D01*
X232338476Y-87002952D01*
X232338476Y-87383904D01*
X232386095Y-87479142D01*
X232433714Y-87526761D01*
X232528952Y-87574380D01*
X232719428Y-87574380D01*
X232814666Y-87526761D01*
X232862285Y-87479142D01*
X232909904Y-87383904D01*
X232909904Y-87145809D01*
X232862285Y-87050571D01*
X232814666Y-87002952D01*
X232719428Y-86955333D01*
X232528952Y-86955333D01*
X232433714Y-87002952D01*
X232386095Y-87050571D01*
X232338476Y-87145809D01*
X202049142Y-129992380D02*
X201715809Y-129516190D01*
X201477714Y-129992380D02*
X201477714Y-128992380D01*
X201858666Y-128992380D01*
X201953904Y-129040000D01*
X202001523Y-129087619D01*
X202049142Y-129182857D01*
X202049142Y-129325714D01*
X202001523Y-129420952D01*
X201953904Y-129468571D01*
X201858666Y-129516190D01*
X201477714Y-129516190D01*
X203001523Y-129992380D02*
X202430095Y-129992380D01*
X202715809Y-129992380D02*
X202715809Y-128992380D01*
X202620571Y-129135238D01*
X202525333Y-129230476D01*
X202430095Y-129278095D01*
X203906285Y-128992380D02*
X203430095Y-128992380D01*
X203382476Y-129468571D01*
X203430095Y-129420952D01*
X203525333Y-129373333D01*
X203763428Y-129373333D01*
X203858666Y-129420952D01*
X203906285Y-129468571D01*
X203953904Y-129563809D01*
X203953904Y-129801904D01*
X203906285Y-129897142D01*
X203858666Y-129944761D01*
X203763428Y-129992380D01*
X203525333Y-129992380D01*
X203430095Y-129944761D01*
X203382476Y-129897142D01*
X194429142Y-132278380D02*
X194095809Y-131802190D01*
X193857714Y-132278380D02*
X193857714Y-131278380D01*
X194238666Y-131278380D01*
X194333904Y-131326000D01*
X194381523Y-131373619D01*
X194429142Y-131468857D01*
X194429142Y-131611714D01*
X194381523Y-131706952D01*
X194333904Y-131754571D01*
X194238666Y-131802190D01*
X193857714Y-131802190D01*
X195381523Y-132278380D02*
X194810095Y-132278380D01*
X195095809Y-132278380D02*
X195095809Y-131278380D01*
X195000571Y-131421238D01*
X194905333Y-131516476D01*
X194810095Y-131564095D01*
X196238666Y-131611714D02*
X196238666Y-132278380D01*
X196000571Y-131230761D02*
X195762476Y-131945047D01*
X196381523Y-131945047D01*
X226433142Y-105608380D02*
X226099809Y-105132190D01*
X225861714Y-105608380D02*
X225861714Y-104608380D01*
X226242666Y-104608380D01*
X226337904Y-104656000D01*
X226385523Y-104703619D01*
X226433142Y-104798857D01*
X226433142Y-104941714D01*
X226385523Y-105036952D01*
X226337904Y-105084571D01*
X226242666Y-105132190D01*
X225861714Y-105132190D01*
X227385523Y-105608380D02*
X226814095Y-105608380D01*
X227099809Y-105608380D02*
X227099809Y-104608380D01*
X227004571Y-104751238D01*
X226909333Y-104846476D01*
X226814095Y-104894095D01*
X227718857Y-104608380D02*
X228337904Y-104608380D01*
X228004571Y-104989333D01*
X228147428Y-104989333D01*
X228242666Y-105036952D01*
X228290285Y-105084571D01*
X228337904Y-105179809D01*
X228337904Y-105417904D01*
X228290285Y-105513142D01*
X228242666Y-105560761D01*
X228147428Y-105608380D01*
X227861714Y-105608380D01*
X227766476Y-105560761D01*
X227718857Y-105513142D01*
X230497142Y-105608380D02*
X230163809Y-105132190D01*
X229925714Y-105608380D02*
X229925714Y-104608380D01*
X230306666Y-104608380D01*
X230401904Y-104656000D01*
X230449523Y-104703619D01*
X230497142Y-104798857D01*
X230497142Y-104941714D01*
X230449523Y-105036952D01*
X230401904Y-105084571D01*
X230306666Y-105132190D01*
X229925714Y-105132190D01*
X231449523Y-105608380D02*
X230878095Y-105608380D01*
X231163809Y-105608380D02*
X231163809Y-104608380D01*
X231068571Y-104751238D01*
X230973333Y-104846476D01*
X230878095Y-104894095D01*
X231830476Y-104703619D02*
X231878095Y-104656000D01*
X231973333Y-104608380D01*
X232211428Y-104608380D01*
X232306666Y-104656000D01*
X232354285Y-104703619D01*
X232401904Y-104798857D01*
X232401904Y-104894095D01*
X232354285Y-105036952D01*
X231782857Y-105608380D01*
X232401904Y-105608380D01*
X238625142Y-105862380D02*
X238291809Y-105386190D01*
X238053714Y-105862380D02*
X238053714Y-104862380D01*
X238434666Y-104862380D01*
X238529904Y-104910000D01*
X238577523Y-104957619D01*
X238625142Y-105052857D01*
X238625142Y-105195714D01*
X238577523Y-105290952D01*
X238529904Y-105338571D01*
X238434666Y-105386190D01*
X238053714Y-105386190D01*
X239577523Y-105862380D02*
X239006095Y-105862380D01*
X239291809Y-105862380D02*
X239291809Y-104862380D01*
X239196571Y-105005238D01*
X239101333Y-105100476D01*
X239006095Y-105148095D01*
X240196571Y-104862380D02*
X240291809Y-104862380D01*
X240387047Y-104910000D01*
X240434666Y-104957619D01*
X240482285Y-105052857D01*
X240529904Y-105243333D01*
X240529904Y-105481428D01*
X240482285Y-105671904D01*
X240434666Y-105767142D01*
X240387047Y-105814761D01*
X240291809Y-105862380D01*
X240196571Y-105862380D01*
X240101333Y-105814761D01*
X240053714Y-105767142D01*
X240006095Y-105671904D01*
X239958476Y-105481428D01*
X239958476Y-105243333D01*
X240006095Y-105052857D01*
X240053714Y-104957619D01*
X240101333Y-104910000D01*
X240196571Y-104862380D01*
X245641833Y-108910380D02*
X245308500Y-108434190D01*
X245070404Y-108910380D02*
X245070404Y-107910380D01*
X245451357Y-107910380D01*
X245546595Y-107958000D01*
X245594214Y-108005619D01*
X245641833Y-108100857D01*
X245641833Y-108243714D01*
X245594214Y-108338952D01*
X245546595Y-108386571D01*
X245451357Y-108434190D01*
X245070404Y-108434190D01*
X246118023Y-108910380D02*
X246308500Y-108910380D01*
X246403738Y-108862761D01*
X246451357Y-108815142D01*
X246546595Y-108672285D01*
X246594214Y-108481809D01*
X246594214Y-108100857D01*
X246546595Y-108005619D01*
X246498976Y-107958000D01*
X246403738Y-107910380D01*
X246213261Y-107910380D01*
X246118023Y-107958000D01*
X246070404Y-108005619D01*
X246022785Y-108100857D01*
X246022785Y-108338952D01*
X246070404Y-108434190D01*
X246118023Y-108481809D01*
X246213261Y-108529428D01*
X246403738Y-108529428D01*
X246498976Y-108481809D01*
X246546595Y-108434190D01*
X246594214Y-108338952D01*
X180681333Y-129992380D02*
X180348000Y-129516190D01*
X180109904Y-129992380D02*
X180109904Y-128992380D01*
X180490857Y-128992380D01*
X180586095Y-129040000D01*
X180633714Y-129087619D01*
X180681333Y-129182857D01*
X180681333Y-129325714D01*
X180633714Y-129420952D01*
X180586095Y-129468571D01*
X180490857Y-129516190D01*
X180109904Y-129516190D01*
X181252761Y-129420952D02*
X181157523Y-129373333D01*
X181109904Y-129325714D01*
X181062285Y-129230476D01*
X181062285Y-129182857D01*
X181109904Y-129087619D01*
X181157523Y-129040000D01*
X181252761Y-128992380D01*
X181443238Y-128992380D01*
X181538476Y-129040000D01*
X181586095Y-129087619D01*
X181633714Y-129182857D01*
X181633714Y-129230476D01*
X181586095Y-129325714D01*
X181538476Y-129373333D01*
X181443238Y-129420952D01*
X181252761Y-129420952D01*
X181157523Y-129468571D01*
X181109904Y-129516190D01*
X181062285Y-129611428D01*
X181062285Y-129801904D01*
X181109904Y-129897142D01*
X181157523Y-129944761D01*
X181252761Y-129992380D01*
X181443238Y-129992380D01*
X181538476Y-129944761D01*
X181586095Y-129897142D01*
X181633714Y-129801904D01*
X181633714Y-129611428D01*
X181586095Y-129516190D01*
X181538476Y-129468571D01*
X181443238Y-129420952D01*
X173061333Y-132278380D02*
X172728000Y-131802190D01*
X172489904Y-132278380D02*
X172489904Y-131278380D01*
X172870857Y-131278380D01*
X172966095Y-131326000D01*
X173013714Y-131373619D01*
X173061333Y-131468857D01*
X173061333Y-131611714D01*
X173013714Y-131706952D01*
X172966095Y-131754571D01*
X172870857Y-131802190D01*
X172489904Y-131802190D01*
X173394666Y-131278380D02*
X174061333Y-131278380D01*
X173632761Y-132278380D01*
X214971333Y-84272380D02*
X214638000Y-83796190D01*
X214399904Y-84272380D02*
X214399904Y-83272380D01*
X214780857Y-83272380D01*
X214876095Y-83320000D01*
X214923714Y-83367619D01*
X214971333Y-83462857D01*
X214971333Y-83605714D01*
X214923714Y-83700952D01*
X214876095Y-83748571D01*
X214780857Y-83796190D01*
X214399904Y-83796190D01*
X215828476Y-83272380D02*
X215638000Y-83272380D01*
X215542761Y-83320000D01*
X215495142Y-83367619D01*
X215399904Y-83510476D01*
X215352285Y-83700952D01*
X215352285Y-84081904D01*
X215399904Y-84177142D01*
X215447523Y-84224761D01*
X215542761Y-84272380D01*
X215733238Y-84272380D01*
X215828476Y-84224761D01*
X215876095Y-84177142D01*
X215923714Y-84081904D01*
X215923714Y-83843809D01*
X215876095Y-83748571D01*
X215828476Y-83700952D01*
X215733238Y-83653333D01*
X215542761Y-83653333D01*
X215447523Y-83700952D01*
X215399904Y-83748571D01*
X215352285Y-83843809D01*
X209129333Y-84272380D02*
X208796000Y-83796190D01*
X208557904Y-84272380D02*
X208557904Y-83272380D01*
X208938857Y-83272380D01*
X209034095Y-83320000D01*
X209081714Y-83367619D01*
X209129333Y-83462857D01*
X209129333Y-83605714D01*
X209081714Y-83700952D01*
X209034095Y-83748571D01*
X208938857Y-83796190D01*
X208557904Y-83796190D01*
X210034095Y-83272380D02*
X209557904Y-83272380D01*
X209510285Y-83748571D01*
X209557904Y-83700952D01*
X209653142Y-83653333D01*
X209891238Y-83653333D01*
X209986476Y-83700952D01*
X210034095Y-83748571D01*
X210081714Y-83843809D01*
X210081714Y-84081904D01*
X210034095Y-84177142D01*
X209986476Y-84224761D01*
X209891238Y-84272380D01*
X209653142Y-84272380D01*
X209557904Y-84224761D01*
X209510285Y-84177142D01*
X220122761Y-133135619D02*
X220027523Y-133088000D01*
X219932285Y-132992761D01*
X219789428Y-132849904D01*
X219694190Y-132802285D01*
X219598952Y-132802285D01*
X219646571Y-133040380D02*
X219551333Y-132992761D01*
X219456095Y-132897523D01*
X219408476Y-132707047D01*
X219408476Y-132373714D01*
X219456095Y-132183238D01*
X219551333Y-132088000D01*
X219646571Y-132040380D01*
X219837047Y-132040380D01*
X219932285Y-132088000D01*
X220027523Y-132183238D01*
X220075142Y-132373714D01*
X220075142Y-132707047D01*
X220027523Y-132897523D01*
X219932285Y-132992761D01*
X219837047Y-133040380D01*
X219646571Y-133040380D01*
X220408476Y-132040380D02*
X221027523Y-132040380D01*
X220694190Y-132421333D01*
X220837047Y-132421333D01*
X220932285Y-132468952D01*
X220979904Y-132516571D01*
X221027523Y-132611809D01*
X221027523Y-132849904D01*
X220979904Y-132945142D01*
X220932285Y-132992761D01*
X220837047Y-133040380D01*
X220551333Y-133040380D01*
X220456095Y-132992761D01*
X220408476Y-132945142D01*
X198278761Y-133135619D02*
X198183523Y-133088000D01*
X198088285Y-132992761D01*
X197945428Y-132849904D01*
X197850190Y-132802285D01*
X197754952Y-132802285D01*
X197802571Y-133040380D02*
X197707333Y-132992761D01*
X197612095Y-132897523D01*
X197564476Y-132707047D01*
X197564476Y-132373714D01*
X197612095Y-132183238D01*
X197707333Y-132088000D01*
X197802571Y-132040380D01*
X197993047Y-132040380D01*
X198088285Y-132088000D01*
X198183523Y-132183238D01*
X198231142Y-132373714D01*
X198231142Y-132707047D01*
X198183523Y-132897523D01*
X198088285Y-132992761D01*
X197993047Y-133040380D01*
X197802571Y-133040380D01*
X198612095Y-132135619D02*
X198659714Y-132088000D01*
X198754952Y-132040380D01*
X198993047Y-132040380D01*
X199088285Y-132088000D01*
X199135904Y-132135619D01*
X199183523Y-132230857D01*
X199183523Y-132326095D01*
X199135904Y-132468952D01*
X198564476Y-133040380D01*
X199183523Y-133040380D01*
X176434761Y-133135619D02*
X176339523Y-133088000D01*
X176244285Y-132992761D01*
X176101428Y-132849904D01*
X176006190Y-132802285D01*
X175910952Y-132802285D01*
X175958571Y-133040380D02*
X175863333Y-132992761D01*
X175768095Y-132897523D01*
X175720476Y-132707047D01*
X175720476Y-132373714D01*
X175768095Y-132183238D01*
X175863333Y-132088000D01*
X175958571Y-132040380D01*
X176149047Y-132040380D01*
X176244285Y-132088000D01*
X176339523Y-132183238D01*
X176387142Y-132373714D01*
X176387142Y-132707047D01*
X176339523Y-132897523D01*
X176244285Y-132992761D01*
X176149047Y-133040380D01*
X175958571Y-133040380D01*
X177339523Y-133040380D02*
X176768095Y-133040380D01*
X177053809Y-133040380D02*
X177053809Y-132040380D01*
X176958571Y-132183238D01*
X176863333Y-132278476D01*
X176768095Y-132326095D01*
X184205714Y-104592380D02*
X184205714Y-103592380D01*
X184586666Y-103592380D01*
X184681904Y-103640000D01*
X184729523Y-103687619D01*
X184777142Y-103782857D01*
X184777142Y-103925714D01*
X184729523Y-104020952D01*
X184681904Y-104068571D01*
X184586666Y-104116190D01*
X184205714Y-104116190D01*
X185729523Y-104592380D02*
X185158095Y-104592380D01*
X185443809Y-104592380D02*
X185443809Y-103592380D01*
X185348571Y-103735238D01*
X185253333Y-103830476D01*
X185158095Y-103878095D01*
X186634285Y-103592380D02*
X186158095Y-103592380D01*
X186110476Y-104068571D01*
X186158095Y-104020952D01*
X186253333Y-103973333D01*
X186491428Y-103973333D01*
X186586666Y-104020952D01*
X186634285Y-104068571D01*
X186681904Y-104163809D01*
X186681904Y-104401904D01*
X186634285Y-104497142D01*
X186586666Y-104544761D01*
X186491428Y-104592380D01*
X186253333Y-104592380D01*
X186158095Y-104544761D01*
X186110476Y-104497142D01*
X188777714Y-104592380D02*
X188777714Y-103592380D01*
X189158666Y-103592380D01*
X189253904Y-103640000D01*
X189301523Y-103687619D01*
X189349142Y-103782857D01*
X189349142Y-103925714D01*
X189301523Y-104020952D01*
X189253904Y-104068571D01*
X189158666Y-104116190D01*
X188777714Y-104116190D01*
X190301523Y-104592380D02*
X189730095Y-104592380D01*
X190015809Y-104592380D02*
X190015809Y-103592380D01*
X189920571Y-103735238D01*
X189825333Y-103830476D01*
X189730095Y-103878095D01*
X191158666Y-103925714D02*
X191158666Y-104592380D01*
X190920571Y-103544761D02*
X190682476Y-104259047D01*
X191301523Y-104259047D01*
X193349714Y-104592380D02*
X193349714Y-103592380D01*
X193730666Y-103592380D01*
X193825904Y-103640000D01*
X193873523Y-103687619D01*
X193921142Y-103782857D01*
X193921142Y-103925714D01*
X193873523Y-104020952D01*
X193825904Y-104068571D01*
X193730666Y-104116190D01*
X193349714Y-104116190D01*
X194873523Y-104592380D02*
X194302095Y-104592380D01*
X194587809Y-104592380D02*
X194587809Y-103592380D01*
X194492571Y-103735238D01*
X194397333Y-103830476D01*
X194302095Y-103878095D01*
X195206857Y-103592380D02*
X195825904Y-103592380D01*
X195492571Y-103973333D01*
X195635428Y-103973333D01*
X195730666Y-104020952D01*
X195778285Y-104068571D01*
X195825904Y-104163809D01*
X195825904Y-104401904D01*
X195778285Y-104497142D01*
X195730666Y-104544761D01*
X195635428Y-104592380D01*
X195349714Y-104592380D01*
X195254476Y-104544761D01*
X195206857Y-104497142D01*
X197921714Y-104592380D02*
X197921714Y-103592380D01*
X198302666Y-103592380D01*
X198397904Y-103640000D01*
X198445523Y-103687619D01*
X198493142Y-103782857D01*
X198493142Y-103925714D01*
X198445523Y-104020952D01*
X198397904Y-104068571D01*
X198302666Y-104116190D01*
X197921714Y-104116190D01*
X199445523Y-104592380D02*
X198874095Y-104592380D01*
X199159809Y-104592380D02*
X199159809Y-103592380D01*
X199064571Y-103735238D01*
X198969333Y-103830476D01*
X198874095Y-103878095D01*
X199826476Y-103687619D02*
X199874095Y-103640000D01*
X199969333Y-103592380D01*
X200207428Y-103592380D01*
X200302666Y-103640000D01*
X200350285Y-103687619D01*
X200397904Y-103782857D01*
X200397904Y-103878095D01*
X200350285Y-104020952D01*
X199778857Y-104592380D01*
X200397904Y-104592380D01*
X241863714Y-100020380D02*
X241863714Y-99020380D01*
X242244666Y-99020380D01*
X242339904Y-99068000D01*
X242387523Y-99115619D01*
X242435142Y-99210857D01*
X242435142Y-99353714D01*
X242387523Y-99448952D01*
X242339904Y-99496571D01*
X242244666Y-99544190D01*
X241863714Y-99544190D01*
X243387523Y-100020380D02*
X242816095Y-100020380D01*
X243101809Y-100020380D02*
X243101809Y-99020380D01*
X243006571Y-99163238D01*
X242911333Y-99258476D01*
X242816095Y-99306095D01*
X244339904Y-100020380D02*
X243768476Y-100020380D01*
X244054190Y-100020380D02*
X244054190Y-99020380D01*
X243958952Y-99163238D01*
X243863714Y-99258476D01*
X243768476Y-99306095D01*
X237799714Y-100020380D02*
X237799714Y-99020380D01*
X238180666Y-99020380D01*
X238275904Y-99068000D01*
X238323523Y-99115619D01*
X238371142Y-99210857D01*
X238371142Y-99353714D01*
X238323523Y-99448952D01*
X238275904Y-99496571D01*
X238180666Y-99544190D01*
X237799714Y-99544190D01*
X239323523Y-100020380D02*
X238752095Y-100020380D01*
X239037809Y-100020380D02*
X239037809Y-99020380D01*
X238942571Y-99163238D01*
X238847333Y-99258476D01*
X238752095Y-99306095D01*
X239942571Y-99020380D02*
X240037809Y-99020380D01*
X240133047Y-99068000D01*
X240180666Y-99115619D01*
X240228285Y-99210857D01*
X240275904Y-99401333D01*
X240275904Y-99639428D01*
X240228285Y-99829904D01*
X240180666Y-99925142D01*
X240133047Y-99972761D01*
X240037809Y-100020380D01*
X239942571Y-100020380D01*
X239847333Y-99972761D01*
X239799714Y-99925142D01*
X239752095Y-99829904D01*
X239704476Y-99639428D01*
X239704476Y-99401333D01*
X239752095Y-99210857D01*
X239799714Y-99115619D01*
X239847333Y-99068000D01*
X239942571Y-99020380D01*
X230655904Y-100274380D02*
X230655904Y-99274380D01*
X231036857Y-99274380D01*
X231132095Y-99322000D01*
X231179714Y-99369619D01*
X231227333Y-99464857D01*
X231227333Y-99607714D01*
X231179714Y-99702952D01*
X231132095Y-99750571D01*
X231036857Y-99798190D01*
X230655904Y-99798190D01*
X231703523Y-100274380D02*
X231894000Y-100274380D01*
X231989238Y-100226761D01*
X232036857Y-100179142D01*
X232132095Y-100036285D01*
X232179714Y-99845809D01*
X232179714Y-99464857D01*
X232132095Y-99369619D01*
X232084476Y-99322000D01*
X231989238Y-99274380D01*
X231798761Y-99274380D01*
X231703523Y-99322000D01*
X231655904Y-99369619D01*
X231608285Y-99464857D01*
X231608285Y-99702952D01*
X231655904Y-99798190D01*
X231703523Y-99845809D01*
X231798761Y-99893428D01*
X231989238Y-99893428D01*
X232084476Y-99845809D01*
X232132095Y-99798190D01*
X232179714Y-99702952D01*
X226591904Y-100274380D02*
X226591904Y-99274380D01*
X226972857Y-99274380D01*
X227068095Y-99322000D01*
X227115714Y-99369619D01*
X227163333Y-99464857D01*
X227163333Y-99607714D01*
X227115714Y-99702952D01*
X227068095Y-99750571D01*
X226972857Y-99798190D01*
X226591904Y-99798190D01*
X227734761Y-99702952D02*
X227639523Y-99655333D01*
X227591904Y-99607714D01*
X227544285Y-99512476D01*
X227544285Y-99464857D01*
X227591904Y-99369619D01*
X227639523Y-99322000D01*
X227734761Y-99274380D01*
X227925238Y-99274380D01*
X228020476Y-99322000D01*
X228068095Y-99369619D01*
X228115714Y-99464857D01*
X228115714Y-99512476D01*
X228068095Y-99607714D01*
X228020476Y-99655333D01*
X227925238Y-99702952D01*
X227734761Y-99702952D01*
X227639523Y-99750571D01*
X227591904Y-99798190D01*
X227544285Y-99893428D01*
X227544285Y-100083904D01*
X227591904Y-100179142D01*
X227639523Y-100226761D01*
X227734761Y-100274380D01*
X227925238Y-100274380D01*
X228020476Y-100226761D01*
X228068095Y-100179142D01*
X228115714Y-100083904D01*
X228115714Y-99893428D01*
X228068095Y-99798190D01*
X228020476Y-99750571D01*
X227925238Y-99702952D01*
X226337904Y-118308380D02*
X226337904Y-117308380D01*
X226718857Y-117308380D01*
X226814095Y-117356000D01*
X226861714Y-117403619D01*
X226909333Y-117498857D01*
X226909333Y-117641714D01*
X226861714Y-117736952D01*
X226814095Y-117784571D01*
X226718857Y-117832190D01*
X226337904Y-117832190D01*
X227242666Y-117308380D02*
X227909333Y-117308380D01*
X227480761Y-118308380D01*
X230401904Y-118308380D02*
X230401904Y-117308380D01*
X230782857Y-117308380D01*
X230878095Y-117356000D01*
X230925714Y-117403619D01*
X230973333Y-117498857D01*
X230973333Y-117641714D01*
X230925714Y-117736952D01*
X230878095Y-117784571D01*
X230782857Y-117832190D01*
X230401904Y-117832190D01*
X231830476Y-117308380D02*
X231640000Y-117308380D01*
X231544761Y-117356000D01*
X231497142Y-117403619D01*
X231401904Y-117546476D01*
X231354285Y-117736952D01*
X231354285Y-118117904D01*
X231401904Y-118213142D01*
X231449523Y-118260761D01*
X231544761Y-118308380D01*
X231735238Y-118308380D01*
X231830476Y-118260761D01*
X231878095Y-118213142D01*
X231925714Y-118117904D01*
X231925714Y-117879809D01*
X231878095Y-117784571D01*
X231830476Y-117736952D01*
X231735238Y-117689333D01*
X231544761Y-117689333D01*
X231449523Y-117736952D01*
X231401904Y-117784571D01*
X231354285Y-117879809D01*
X238275904Y-118308380D02*
X238275904Y-117308380D01*
X238656857Y-117308380D01*
X238752095Y-117356000D01*
X238799714Y-117403619D01*
X238847333Y-117498857D01*
X238847333Y-117641714D01*
X238799714Y-117736952D01*
X238752095Y-117784571D01*
X238656857Y-117832190D01*
X238275904Y-117832190D01*
X239752095Y-117308380D02*
X239275904Y-117308380D01*
X239228285Y-117784571D01*
X239275904Y-117736952D01*
X239371142Y-117689333D01*
X239609238Y-117689333D01*
X239704476Y-117736952D01*
X239752095Y-117784571D01*
X239799714Y-117879809D01*
X239799714Y-118117904D01*
X239752095Y-118213142D01*
X239704476Y-118260761D01*
X239609238Y-118308380D01*
X239371142Y-118308380D01*
X239275904Y-118260761D01*
X239228285Y-118213142D01*
X242593904Y-118308380D02*
X242593904Y-117308380D01*
X242974857Y-117308380D01*
X243070095Y-117356000D01*
X243117714Y-117403619D01*
X243165333Y-117498857D01*
X243165333Y-117641714D01*
X243117714Y-117736952D01*
X243070095Y-117784571D01*
X242974857Y-117832190D01*
X242593904Y-117832190D01*
X244022476Y-117641714D02*
X244022476Y-118308380D01*
X243784380Y-117260761D02*
X243546285Y-117975047D01*
X244165333Y-117975047D01*
X214399904Y-96718380D02*
X214399904Y-95718380D01*
X214780857Y-95718380D01*
X214876095Y-95766000D01*
X214923714Y-95813619D01*
X214971333Y-95908857D01*
X214971333Y-96051714D01*
X214923714Y-96146952D01*
X214876095Y-96194571D01*
X214780857Y-96242190D01*
X214399904Y-96242190D01*
X215304666Y-95718380D02*
X215923714Y-95718380D01*
X215590380Y-96099333D01*
X215733238Y-96099333D01*
X215828476Y-96146952D01*
X215876095Y-96194571D01*
X215923714Y-96289809D01*
X215923714Y-96527904D01*
X215876095Y-96623142D01*
X215828476Y-96670761D01*
X215733238Y-96718380D01*
X215447523Y-96718380D01*
X215352285Y-96670761D01*
X215304666Y-96623142D01*
X208557904Y-96718380D02*
X208557904Y-95718380D01*
X208938857Y-95718380D01*
X209034095Y-95766000D01*
X209081714Y-95813619D01*
X209129333Y-95908857D01*
X209129333Y-96051714D01*
X209081714Y-96146952D01*
X209034095Y-96194571D01*
X208938857Y-96242190D01*
X208557904Y-96242190D01*
X209510285Y-95813619D02*
X209557904Y-95766000D01*
X209653142Y-95718380D01*
X209891238Y-95718380D01*
X209986476Y-95766000D01*
X210034095Y-95813619D01*
X210081714Y-95908857D01*
X210081714Y-96004095D01*
X210034095Y-96146952D01*
X209462666Y-96718380D01*
X210081714Y-96718380D01*
D16*
X159686666Y-157186380D02*
X159686666Y-157900666D01*
X159639047Y-158043523D01*
X159543809Y-158138761D01*
X159400952Y-158186380D01*
X159305714Y-158186380D01*
X160591428Y-157186380D02*
X160400952Y-157186380D01*
X160305714Y-157234000D01*
X160258095Y-157281619D01*
X160162857Y-157424476D01*
X160115238Y-157614952D01*
X160115238Y-157995904D01*
X160162857Y-158091142D01*
X160210476Y-158138761D01*
X160305714Y-158186380D01*
X160496190Y-158186380D01*
X160591428Y-158138761D01*
X160639047Y-158091142D01*
X160686666Y-157995904D01*
X160686666Y-157757809D01*
X160639047Y-157662571D01*
X160591428Y-157614952D01*
X160496190Y-157567333D01*
X160305714Y-157567333D01*
X160210476Y-157614952D01*
X160162857Y-157662571D01*
X160115238Y-157757809D01*
D14*
X199310666Y-150074380D02*
X199310666Y-150788666D01*
X199263047Y-150931523D01*
X199167809Y-151026761D01*
X199024952Y-151074380D01*
X198929714Y-151074380D01*
X200263047Y-150074380D02*
X199786857Y-150074380D01*
X199739238Y-150550571D01*
X199786857Y-150502952D01*
X199882095Y-150455333D01*
X200120190Y-150455333D01*
X200215428Y-150502952D01*
X200263047Y-150550571D01*
X200310666Y-150645809D01*
X200310666Y-150883904D01*
X200263047Y-150979142D01*
X200215428Y-151026761D01*
X200120190Y-151074380D01*
X199882095Y-151074380D01*
X199786857Y-151026761D01*
X199739238Y-150979142D01*
X216328666Y-147280380D02*
X216328666Y-147994666D01*
X216281047Y-148137523D01*
X216185809Y-148232761D01*
X216042952Y-148280380D01*
X215947714Y-148280380D01*
X216709619Y-147280380D02*
X217328666Y-147280380D01*
X216995333Y-147661333D01*
X217138190Y-147661333D01*
X217233428Y-147708952D01*
X217281047Y-147756571D01*
X217328666Y-147851809D01*
X217328666Y-148089904D01*
X217281047Y-148185142D01*
X217233428Y-148232761D01*
X217138190Y-148280380D01*
X216852476Y-148280380D01*
X216757238Y-148232761D01*
X216709619Y-148185142D01*
X176958666Y-157186380D02*
X176958666Y-157900666D01*
X176911047Y-158043523D01*
X176815809Y-158138761D01*
X176672952Y-158186380D01*
X176577714Y-158186380D01*
X177387238Y-157281619D02*
X177434857Y-157234000D01*
X177530095Y-157186380D01*
X177768190Y-157186380D01*
X177863428Y-157234000D01*
X177911047Y-157281619D01*
X177958666Y-157376857D01*
X177958666Y-157472095D01*
X177911047Y-157614952D01*
X177339619Y-158186380D01*
X177958666Y-158186380D01*
X241879380Y-138374285D02*
X240879380Y-138374285D01*
X240879380Y-138136190D01*
X240927000Y-137993333D01*
X241022238Y-137898095D01*
X241117476Y-137850476D01*
X241307952Y-137802857D01*
X241450809Y-137802857D01*
X241641285Y-137850476D01*
X241736523Y-137898095D01*
X241831761Y-137993333D01*
X241879380Y-138136190D01*
X241879380Y-138374285D01*
X241879380Y-136850476D02*
X241879380Y-137421904D01*
X241879380Y-137136190D02*
X240879380Y-137136190D01*
X241022238Y-137231428D01*
X241117476Y-137326666D01*
X241165095Y-137421904D01*
X240974619Y-136469523D02*
X240927000Y-136421904D01*
X240879380Y-136326666D01*
X240879380Y-136088571D01*
X240927000Y-135993333D01*
X240974619Y-135945714D01*
X241069857Y-135898095D01*
X241165095Y-135898095D01*
X241307952Y-135945714D01*
X241879380Y-136517142D01*
X241879380Y-135898095D01*
X165663642Y-106021142D02*
X165616023Y-106068761D01*
X165473166Y-106116380D01*
X165377928Y-106116380D01*
X165235071Y-106068761D01*
X165139833Y-105973523D01*
X165092214Y-105878285D01*
X165044595Y-105687809D01*
X165044595Y-105544952D01*
X165092214Y-105354476D01*
X165139833Y-105259238D01*
X165235071Y-105164000D01*
X165377928Y-105116380D01*
X165473166Y-105116380D01*
X165616023Y-105164000D01*
X165663642Y-105211619D01*
X166616023Y-106116380D02*
X166044595Y-106116380D01*
X166330309Y-106116380D02*
X166330309Y-105116380D01*
X166235071Y-105259238D01*
X166139833Y-105354476D01*
X166044595Y-105402095D01*
X167520785Y-105116380D02*
X167044595Y-105116380D01*
X166996976Y-105592571D01*
X167044595Y-105544952D01*
X167139833Y-105497333D01*
X167377928Y-105497333D01*
X167473166Y-105544952D01*
X167520785Y-105592571D01*
X167568404Y-105687809D01*
X167568404Y-105925904D01*
X167520785Y-106021142D01*
X167473166Y-106068761D01*
X167377928Y-106116380D01*
X167139833Y-106116380D01*
X167044595Y-106068761D01*
X166996976Y-106021142D01*
X170489642Y-106021142D02*
X170442023Y-106068761D01*
X170299166Y-106116380D01*
X170203928Y-106116380D01*
X170061071Y-106068761D01*
X169965833Y-105973523D01*
X169918214Y-105878285D01*
X169870595Y-105687809D01*
X169870595Y-105544952D01*
X169918214Y-105354476D01*
X169965833Y-105259238D01*
X170061071Y-105164000D01*
X170203928Y-105116380D01*
X170299166Y-105116380D01*
X170442023Y-105164000D01*
X170489642Y-105211619D01*
X171442023Y-106116380D02*
X170870595Y-106116380D01*
X171156309Y-106116380D02*
X171156309Y-105116380D01*
X171061071Y-105259238D01*
X170965833Y-105354476D01*
X170870595Y-105402095D01*
X172299166Y-105449714D02*
X172299166Y-106116380D01*
X172061071Y-105068761D02*
X171822976Y-105783047D01*
X172442023Y-105783047D01*
X168965642Y-126341142D02*
X168918023Y-126388761D01*
X168775166Y-126436380D01*
X168679928Y-126436380D01*
X168537071Y-126388761D01*
X168441833Y-126293523D01*
X168394214Y-126198285D01*
X168346595Y-126007809D01*
X168346595Y-125864952D01*
X168394214Y-125674476D01*
X168441833Y-125579238D01*
X168537071Y-125484000D01*
X168679928Y-125436380D01*
X168775166Y-125436380D01*
X168918023Y-125484000D01*
X168965642Y-125531619D01*
X169918023Y-126436380D02*
X169346595Y-126436380D01*
X169632309Y-126436380D02*
X169632309Y-125436380D01*
X169537071Y-125579238D01*
X169441833Y-125674476D01*
X169346595Y-125722095D01*
X170251357Y-125436380D02*
X170870404Y-125436380D01*
X170537071Y-125817333D01*
X170679928Y-125817333D01*
X170775166Y-125864952D01*
X170822785Y-125912571D01*
X170870404Y-126007809D01*
X170870404Y-126245904D01*
X170822785Y-126341142D01*
X170775166Y-126388761D01*
X170679928Y-126436380D01*
X170394214Y-126436380D01*
X170298976Y-126388761D01*
X170251357Y-126341142D01*
X205033642Y-105259142D02*
X204986023Y-105306761D01*
X204843166Y-105354380D01*
X204747928Y-105354380D01*
X204605071Y-105306761D01*
X204509833Y-105211523D01*
X204462214Y-105116285D01*
X204414595Y-104925809D01*
X204414595Y-104782952D01*
X204462214Y-104592476D01*
X204509833Y-104497238D01*
X204605071Y-104402000D01*
X204747928Y-104354380D01*
X204843166Y-104354380D01*
X204986023Y-104402000D01*
X205033642Y-104449619D01*
X205986023Y-105354380D02*
X205414595Y-105354380D01*
X205700309Y-105354380D02*
X205700309Y-104354380D01*
X205605071Y-104497238D01*
X205509833Y-104592476D01*
X205414595Y-104640095D01*
X206366976Y-104449619D02*
X206414595Y-104402000D01*
X206509833Y-104354380D01*
X206747928Y-104354380D01*
X206843166Y-104402000D01*
X206890785Y-104449619D01*
X206938404Y-104544857D01*
X206938404Y-104640095D01*
X206890785Y-104782952D01*
X206319357Y-105354380D01*
X206938404Y-105354380D01*
X208907142Y-110085142D02*
X208859523Y-110132761D01*
X208716666Y-110180380D01*
X208621428Y-110180380D01*
X208478571Y-110132761D01*
X208383333Y-110037523D01*
X208335714Y-109942285D01*
X208288095Y-109751809D01*
X208288095Y-109608952D01*
X208335714Y-109418476D01*
X208383333Y-109323238D01*
X208478571Y-109228000D01*
X208621428Y-109180380D01*
X208716666Y-109180380D01*
X208859523Y-109228000D01*
X208907142Y-109275619D01*
X209859523Y-110180380D02*
X209288095Y-110180380D01*
X209573809Y-110180380D02*
X209573809Y-109180380D01*
X209478571Y-109323238D01*
X209383333Y-109418476D01*
X209288095Y-109466095D01*
X210811904Y-110180380D02*
X210240476Y-110180380D01*
X210526190Y-110180380D02*
X210526190Y-109180380D01*
X210430952Y-109323238D01*
X210335714Y-109418476D01*
X210240476Y-109466095D01*
X195413333Y-117705142D02*
X195365714Y-117752761D01*
X195222857Y-117800380D01*
X195127619Y-117800380D01*
X194984761Y-117752761D01*
X194889523Y-117657523D01*
X194841904Y-117562285D01*
X194794285Y-117371809D01*
X194794285Y-117228952D01*
X194841904Y-117038476D01*
X194889523Y-116943238D01*
X194984761Y-116848000D01*
X195127619Y-116800380D01*
X195222857Y-116800380D01*
X195365714Y-116848000D01*
X195413333Y-116895619D01*
X195889523Y-117800380D02*
X196080000Y-117800380D01*
X196175238Y-117752761D01*
X196222857Y-117705142D01*
X196318095Y-117562285D01*
X196365714Y-117371809D01*
X196365714Y-116990857D01*
X196318095Y-116895619D01*
X196270476Y-116848000D01*
X196175238Y-116800380D01*
X195984761Y-116800380D01*
X195889523Y-116848000D01*
X195841904Y-116895619D01*
X195794285Y-116990857D01*
X195794285Y-117228952D01*
X195841904Y-117324190D01*
X195889523Y-117371809D01*
X195984761Y-117419428D01*
X196175238Y-117419428D01*
X196270476Y-117371809D01*
X196318095Y-117324190D01*
X196365714Y-117228952D01*
X195413333Y-114911142D02*
X195365714Y-114958761D01*
X195222857Y-115006380D01*
X195127619Y-115006380D01*
X194984761Y-114958761D01*
X194889523Y-114863523D01*
X194841904Y-114768285D01*
X194794285Y-114577809D01*
X194794285Y-114434952D01*
X194841904Y-114244476D01*
X194889523Y-114149238D01*
X194984761Y-114054000D01*
X195127619Y-114006380D01*
X195222857Y-114006380D01*
X195365714Y-114054000D01*
X195413333Y-114101619D01*
X195984761Y-114434952D02*
X195889523Y-114387333D01*
X195841904Y-114339714D01*
X195794285Y-114244476D01*
X195794285Y-114196857D01*
X195841904Y-114101619D01*
X195889523Y-114054000D01*
X195984761Y-114006380D01*
X196175238Y-114006380D01*
X196270476Y-114054000D01*
X196318095Y-114101619D01*
X196365714Y-114196857D01*
X196365714Y-114244476D01*
X196318095Y-114339714D01*
X196270476Y-114387333D01*
X196175238Y-114434952D01*
X195984761Y-114434952D01*
X195889523Y-114482571D01*
X195841904Y-114530190D01*
X195794285Y-114625428D01*
X195794285Y-114815904D01*
X195841904Y-114911142D01*
X195889523Y-114958761D01*
X195984761Y-115006380D01*
X196175238Y-115006380D01*
X196270476Y-114958761D01*
X196318095Y-114911142D01*
X196365714Y-114815904D01*
X196365714Y-114625428D01*
X196318095Y-114530190D01*
X196270476Y-114482571D01*
X196175238Y-114434952D01*
X186539142Y-116498666D02*
X186586761Y-116546285D01*
X186634380Y-116689142D01*
X186634380Y-116784380D01*
X186586761Y-116927238D01*
X186491523Y-117022476D01*
X186396285Y-117070095D01*
X186205809Y-117117714D01*
X186062952Y-117117714D01*
X185872476Y-117070095D01*
X185777238Y-117022476D01*
X185682000Y-116927238D01*
X185634380Y-116784380D01*
X185634380Y-116689142D01*
X185682000Y-116546285D01*
X185729619Y-116498666D01*
X185634380Y-116165333D02*
X185634380Y-115498666D01*
X186634380Y-115927238D01*
X208875333Y-116943142D02*
X208827714Y-116990761D01*
X208684857Y-117038380D01*
X208589619Y-117038380D01*
X208446761Y-116990761D01*
X208351523Y-116895523D01*
X208303904Y-116800285D01*
X208256285Y-116609809D01*
X208256285Y-116466952D01*
X208303904Y-116276476D01*
X208351523Y-116181238D01*
X208446761Y-116086000D01*
X208589619Y-116038380D01*
X208684857Y-116038380D01*
X208827714Y-116086000D01*
X208875333Y-116133619D01*
X209732476Y-116038380D02*
X209542000Y-116038380D01*
X209446761Y-116086000D01*
X209399142Y-116133619D01*
X209303904Y-116276476D01*
X209256285Y-116466952D01*
X209256285Y-116847904D01*
X209303904Y-116943142D01*
X209351523Y-116990761D01*
X209446761Y-117038380D01*
X209637238Y-117038380D01*
X209732476Y-116990761D01*
X209780095Y-116943142D01*
X209827714Y-116847904D01*
X209827714Y-116609809D01*
X209780095Y-116514571D01*
X209732476Y-116466952D01*
X209637238Y-116419333D01*
X209446761Y-116419333D01*
X209351523Y-116466952D01*
X209303904Y-116514571D01*
X209256285Y-116609809D01*
X208875333Y-119737142D02*
X208827714Y-119784761D01*
X208684857Y-119832380D01*
X208589619Y-119832380D01*
X208446761Y-119784761D01*
X208351523Y-119689523D01*
X208303904Y-119594285D01*
X208256285Y-119403809D01*
X208256285Y-119260952D01*
X208303904Y-119070476D01*
X208351523Y-118975238D01*
X208446761Y-118880000D01*
X208589619Y-118832380D01*
X208684857Y-118832380D01*
X208827714Y-118880000D01*
X208875333Y-118927619D01*
X209780095Y-118832380D02*
X209303904Y-118832380D01*
X209256285Y-119308571D01*
X209303904Y-119260952D01*
X209399142Y-119213333D01*
X209637238Y-119213333D01*
X209732476Y-119260952D01*
X209780095Y-119308571D01*
X209827714Y-119403809D01*
X209827714Y-119641904D01*
X209780095Y-119737142D01*
X209732476Y-119784761D01*
X209637238Y-119832380D01*
X209399142Y-119832380D01*
X209303904Y-119784761D01*
X209256285Y-119737142D01*
%LPC*%
D17*
X242575200Y-80119740D03*
X242575200Y-75039740D03*
D18*
X242575200Y-82659740D03*
D17*
X242575200Y-77579740D03*
D19*
X231838500Y-140208000D03*
X234378500Y-140208000D03*
D20*
X247650000Y-76708000D03*
X144462500Y-95250000D03*
X158750000Y-76708000D03*
D21*
X160985200Y-113030000D03*
X158432500Y-115570000D03*
X158432500Y-110490000D03*
D20*
X171894500Y-120904000D03*
D22*
X170647000Y-112320000D03*
X171947000Y-118820000D03*
X168047000Y-112320000D03*
D23*
X169672000Y-115570000D03*
D22*
X168697000Y-118820000D03*
X170647000Y-118820000D03*
X169997000Y-112320000D03*
X167397000Y-118820000D03*
X169347000Y-118820000D03*
X169997000Y-118820000D03*
X171297000Y-118820000D03*
X168047000Y-118820000D03*
X171947000Y-112320000D03*
X171297000Y-112320000D03*
X169347000Y-112320000D03*
X168697000Y-112320000D03*
X167397000Y-112320000D03*
D24*
X220980000Y-101616000D03*
X220980000Y-102116000D03*
X220980000Y-102616000D03*
X220980000Y-103116000D03*
X220980000Y-103616000D03*
X215900000Y-103616000D03*
X215900000Y-103116000D03*
X215900000Y-102616000D03*
X215900000Y-101616000D03*
X215900000Y-102116000D03*
D25*
X199406000Y-109870000D03*
X201406000Y-109220000D03*
X199406000Y-108570000D03*
D26*
X193278000Y-111566960D03*
X193278000Y-107381040D03*
X192778000Y-107381040D03*
X192278000Y-107381040D03*
X191778000Y-107381040D03*
D27*
X192278000Y-109474000D03*
D26*
X191278000Y-107381040D03*
X191277240Y-111566960D03*
X191778000Y-111566960D03*
X192778000Y-111566960D03*
X192278000Y-111566960D03*
D20*
X168592500Y-145288000D03*
X163157337Y-145326037D03*
D28*
G36*
X229110500Y-136968000D02*
G01*
X231010500Y-136968000D01*
X231010500Y-138368000D01*
X229110500Y-138368000D01*
X229110500Y-136968000D01*
G37*
G36*
X229110500Y-134428000D02*
G01*
X231010500Y-134428000D01*
X231010500Y-135828000D01*
X229110500Y-135828000D01*
X229110500Y-134428000D01*
G37*
G36*
X226566500Y-141412000D02*
G01*
X226566500Y-139512000D01*
X227966500Y-139512000D01*
X227966500Y-141412000D01*
X226566500Y-141412000D01*
G37*
G36*
X224026500Y-141412000D02*
G01*
X224026500Y-139512000D01*
X225426500Y-139512000D01*
X225426500Y-141412000D01*
X224026500Y-141412000D01*
G37*
D29*
X233362500Y-137598000D03*
X232412500Y-135398000D03*
X234312500Y-135398000D03*
D30*
X238035000Y-132588000D03*
X239485000Y-132588000D03*
X234341500Y-133096000D03*
X232891500Y-133096000D03*
X237717500Y-82804000D03*
X239167500Y-82804000D03*
X237717500Y-80264000D03*
X239167500Y-80264000D03*
X237717500Y-77724000D03*
X239167500Y-77724000D03*
D31*
X156424000Y-126080000D03*
X249468000Y-126080000D03*
X249468000Y-71080000D03*
X156424000Y-71080000D03*
D32*
X141668500Y-157533922D03*
X197400000Y-157480000D03*
X214460000Y-157480000D03*
X250460500Y-135302000D03*
X264350500Y-157480000D03*
X264350500Y-72073441D03*
X141668500Y-72106428D03*
D20*
X153352500Y-159004000D03*
X240982500Y-159004000D03*
X256730500Y-159004000D03*
D33*
X257492500Y-143004000D03*
X257492500Y-146644000D03*
D34*
X257492500Y-153924000D03*
D33*
X257492500Y-150284000D03*
X240792000Y-143004000D03*
X240792000Y-146644000D03*
D34*
X240792000Y-153924000D03*
D33*
X240792000Y-150284000D03*
D20*
X207264000Y-137668000D03*
X186944000Y-131318000D03*
X186944000Y-137414000D03*
X180022500Y-137414000D03*
X225044000Y-136906000D03*
X218440000Y-138430000D03*
X207264000Y-131572000D03*
X201612500Y-137668000D03*
X261556500Y-146050000D03*
X234950000Y-76708000D03*
X184150000Y-76708000D03*
X171450000Y-76708000D03*
X144462500Y-107950000D03*
X144462500Y-120650000D03*
X210058000Y-117856000D03*
X210058000Y-108458000D03*
X185166000Y-110236000D03*
X185166000Y-124968000D03*
X220916500Y-159004000D03*
X231076500Y-159004000D03*
X259270500Y-133350000D03*
X259270500Y-120650000D03*
X259270500Y-107950000D03*
X259270500Y-95250000D03*
X259270500Y-82550000D03*
X222250000Y-76708000D03*
X209550000Y-76708000D03*
X196850000Y-76708000D03*
X144462500Y-82550000D03*
X144462500Y-133350000D03*
X144462500Y-146050000D03*
X208026000Y-143002000D03*
X180530500Y-152400000D03*
X186182000Y-152400000D03*
X191770000Y-152400000D03*
X190500000Y-142748000D03*
X192024000Y-142748000D03*
X180848000Y-142748000D03*
X179324000Y-142748000D03*
X195072000Y-137668000D03*
X192024000Y-137668000D03*
X251650500Y-146558000D03*
X224980500Y-155194000D03*
X228346000Y-148082000D03*
X236982000Y-140462000D03*
X231076500Y-131826000D03*
X228854000Y-124968000D03*
X228854000Y-122174000D03*
X236474000Y-123952000D03*
X223520000Y-115824000D03*
X224536000Y-106680000D03*
X222504000Y-106680000D03*
X213868000Y-104902000D03*
X215900000Y-99060000D03*
X218440000Y-99060000D03*
X220980000Y-99060000D03*
X227076000Y-103124000D03*
X235966000Y-91440000D03*
X235902500Y-84582000D03*
X198120000Y-81788000D03*
X181546500Y-85090000D03*
X195072000Y-110490000D03*
X208788000Y-106172000D03*
X190754000Y-112776000D03*
X195072000Y-112776000D03*
X204470000Y-121666000D03*
X193548000Y-123190000D03*
X168656000Y-110236000D03*
X163004500Y-118618000D03*
X176022000Y-98552000D03*
X173482000Y-105918000D03*
X163068000Y-106172000D03*
X185166000Y-114808000D03*
X168656000Y-105918000D03*
X172212000Y-109982000D03*
X170688000Y-109982000D03*
X188214000Y-118872000D03*
X165862000Y-119126000D03*
X169926000Y-120904000D03*
X168656000Y-120904000D03*
D28*
G36*
X234000000Y-114616000D02*
G01*
X235900000Y-114616000D01*
X235900000Y-116016000D01*
X234000000Y-116016000D01*
X234000000Y-114616000D01*
G37*
G36*
X234000000Y-112076000D02*
G01*
X235900000Y-112076000D01*
X235900000Y-113476000D01*
X234000000Y-113476000D01*
X234000000Y-112076000D01*
G37*
G36*
X212918000Y-135444000D02*
G01*
X214818000Y-135444000D01*
X214818000Y-136844000D01*
X212918000Y-136844000D01*
X212918000Y-135444000D01*
G37*
G36*
X212918000Y-132904000D02*
G01*
X214818000Y-132904000D01*
X214818000Y-134304000D01*
X212918000Y-134304000D01*
X212918000Y-132904000D01*
G37*
G36*
X191074000Y-135444000D02*
G01*
X192974000Y-135444000D01*
X192974000Y-136844000D01*
X191074000Y-136844000D01*
X191074000Y-135444000D01*
G37*
G36*
X191074000Y-132904000D02*
G01*
X192974000Y-132904000D01*
X192974000Y-134304000D01*
X191074000Y-134304000D01*
X191074000Y-132904000D01*
G37*
G36*
X169230000Y-135444000D02*
G01*
X171130000Y-135444000D01*
X171130000Y-136844000D01*
X169230000Y-136844000D01*
X169230000Y-135444000D01*
G37*
G36*
X169230000Y-132904000D02*
G01*
X171130000Y-132904000D01*
X171130000Y-134304000D01*
X169230000Y-134304000D01*
X169230000Y-132904000D01*
G37*
D35*
X206740000Y-114234000D03*
X204540000Y-113284000D03*
X206740000Y-112334000D03*
D28*
G36*
X148588500Y-96708000D02*
G01*
X148588500Y-94808000D01*
X149988500Y-94808000D01*
X149988500Y-96708000D01*
X148588500Y-96708000D01*
G37*
G36*
X146048500Y-96708000D02*
G01*
X146048500Y-94808000D01*
X147448500Y-94808000D01*
X147448500Y-96708000D01*
X146048500Y-96708000D01*
G37*
G36*
X199582000Y-112080000D02*
G01*
X199582000Y-113980000D01*
X198182000Y-113980000D01*
X198182000Y-112080000D01*
X199582000Y-112080000D01*
G37*
G36*
X202122000Y-112080000D02*
G01*
X202122000Y-113980000D01*
X200722000Y-113980000D01*
X200722000Y-112080000D01*
X202122000Y-112080000D01*
G37*
G36*
X159704000Y-105222000D02*
G01*
X159704000Y-107122000D01*
X158304000Y-107122000D01*
X158304000Y-105222000D01*
X159704000Y-105222000D01*
G37*
G36*
X162244000Y-105222000D02*
G01*
X162244000Y-107122000D01*
X160844000Y-107122000D01*
X160844000Y-105222000D01*
X162244000Y-105222000D01*
G37*
G36*
X196154000Y-109790000D02*
G01*
X198054000Y-109790000D01*
X198054000Y-111190000D01*
X196154000Y-111190000D01*
X196154000Y-109790000D01*
G37*
G36*
X196154000Y-107250000D02*
G01*
X198054000Y-107250000D01*
X198054000Y-108650000D01*
X196154000Y-108650000D01*
X196154000Y-107250000D01*
G37*
G36*
X204912000Y-97474000D02*
G01*
X203012000Y-97474000D01*
X203012000Y-96074000D01*
X204912000Y-96074000D01*
X204912000Y-97474000D01*
G37*
G36*
X204912000Y-100014000D02*
G01*
X203012000Y-100014000D01*
X203012000Y-98614000D01*
X204912000Y-98614000D01*
X204912000Y-100014000D01*
G37*
G36*
X225360000Y-132522000D02*
G01*
X225360000Y-130622000D01*
X226760000Y-130622000D01*
X226760000Y-132522000D01*
X225360000Y-132522000D01*
G37*
G36*
X222820000Y-132522000D02*
G01*
X222820000Y-130622000D01*
X224220000Y-130622000D01*
X224220000Y-132522000D01*
X222820000Y-132522000D01*
G37*
G36*
X215966000Y-135444000D02*
G01*
X217866000Y-135444000D01*
X217866000Y-136844000D01*
X215966000Y-136844000D01*
X215966000Y-135444000D01*
G37*
G36*
X215966000Y-132904000D02*
G01*
X217866000Y-132904000D01*
X217866000Y-134304000D01*
X215966000Y-134304000D01*
X215966000Y-132904000D01*
G37*
G36*
X238064000Y-90740000D02*
G01*
X239964000Y-90740000D01*
X239964000Y-92140000D01*
X238064000Y-92140000D01*
X238064000Y-90740000D01*
G37*
G36*
X238064000Y-88200000D02*
G01*
X239964000Y-88200000D01*
X239964000Y-89600000D01*
X238064000Y-89600000D01*
X238064000Y-88200000D01*
G37*
G36*
X244028000Y-89600000D02*
G01*
X242128000Y-89600000D01*
X242128000Y-88200000D01*
X244028000Y-88200000D01*
X244028000Y-89600000D01*
G37*
G36*
X244028000Y-92140000D02*
G01*
X242128000Y-92140000D01*
X242128000Y-90740000D01*
X244028000Y-90740000D01*
X244028000Y-92140000D01*
G37*
G36*
X234254000Y-96836000D02*
G01*
X236154000Y-96836000D01*
X236154000Y-98236000D01*
X234254000Y-98236000D01*
X234254000Y-96836000D01*
G37*
G36*
X234254000Y-94296000D02*
G01*
X236154000Y-94296000D01*
X236154000Y-95696000D01*
X234254000Y-95696000D01*
X234254000Y-94296000D01*
G37*
G36*
X226380000Y-90740000D02*
G01*
X228280000Y-90740000D01*
X228280000Y-92140000D01*
X226380000Y-92140000D01*
X226380000Y-90740000D01*
G37*
G36*
X226380000Y-88200000D02*
G01*
X228280000Y-88200000D01*
X228280000Y-89600000D01*
X226380000Y-89600000D01*
X226380000Y-88200000D01*
G37*
G36*
X230698000Y-90740000D02*
G01*
X232598000Y-90740000D01*
X232598000Y-92140000D01*
X230698000Y-92140000D01*
X230698000Y-90740000D01*
G37*
G36*
X230698000Y-88200000D02*
G01*
X232598000Y-88200000D01*
X232598000Y-89600000D01*
X230698000Y-89600000D01*
X230698000Y-88200000D01*
G37*
G36*
X203516000Y-132522000D02*
G01*
X203516000Y-130622000D01*
X204916000Y-130622000D01*
X204916000Y-132522000D01*
X203516000Y-132522000D01*
G37*
G36*
X200976000Y-132522000D02*
G01*
X200976000Y-130622000D01*
X202376000Y-130622000D01*
X202376000Y-132522000D01*
X200976000Y-132522000D01*
G37*
G36*
X194122000Y-135444000D02*
G01*
X196022000Y-135444000D01*
X196022000Y-136844000D01*
X194122000Y-136844000D01*
X194122000Y-135444000D01*
G37*
G36*
X194122000Y-132904000D02*
G01*
X196022000Y-132904000D01*
X196022000Y-134304000D01*
X194122000Y-134304000D01*
X194122000Y-132904000D01*
G37*
G36*
X226126000Y-108774000D02*
G01*
X228026000Y-108774000D01*
X228026000Y-110174000D01*
X226126000Y-110174000D01*
X226126000Y-108774000D01*
G37*
G36*
X226126000Y-106234000D02*
G01*
X228026000Y-106234000D01*
X228026000Y-107634000D01*
X226126000Y-107634000D01*
X226126000Y-106234000D01*
G37*
G36*
X232090000Y-107634000D02*
G01*
X230190000Y-107634000D01*
X230190000Y-106234000D01*
X232090000Y-106234000D01*
X232090000Y-107634000D01*
G37*
G36*
X232090000Y-110174000D02*
G01*
X230190000Y-110174000D01*
X230190000Y-108774000D01*
X232090000Y-108774000D01*
X232090000Y-110174000D01*
G37*
G36*
X238318000Y-109028000D02*
G01*
X240218000Y-109028000D01*
X240218000Y-110428000D01*
X238318000Y-110428000D01*
X238318000Y-109028000D01*
G37*
G36*
X238318000Y-106488000D02*
G01*
X240218000Y-106488000D01*
X240218000Y-107888000D01*
X238318000Y-107888000D01*
X238318000Y-106488000D01*
G37*
G36*
X242382000Y-109028000D02*
G01*
X244282000Y-109028000D01*
X244282000Y-110428000D01*
X242382000Y-110428000D01*
X242382000Y-109028000D01*
G37*
G36*
X242382000Y-106488000D02*
G01*
X244282000Y-106488000D01*
X244282000Y-107888000D01*
X242382000Y-107888000D01*
X242382000Y-106488000D01*
G37*
G36*
X181672000Y-132522000D02*
G01*
X181672000Y-130622000D01*
X183072000Y-130622000D01*
X183072000Y-132522000D01*
X181672000Y-132522000D01*
G37*
G36*
X179132000Y-132522000D02*
G01*
X179132000Y-130622000D01*
X180532000Y-130622000D01*
X180532000Y-132522000D01*
X179132000Y-132522000D01*
G37*
G36*
X172278000Y-135444000D02*
G01*
X174178000Y-135444000D01*
X174178000Y-136844000D01*
X172278000Y-136844000D01*
X172278000Y-135444000D01*
G37*
G36*
X172278000Y-132904000D02*
G01*
X174178000Y-132904000D01*
X174178000Y-134304000D01*
X172278000Y-134304000D01*
X172278000Y-132904000D01*
G37*
G36*
X214188000Y-87438000D02*
G01*
X216088000Y-87438000D01*
X216088000Y-88838000D01*
X214188000Y-88838000D01*
X214188000Y-87438000D01*
G37*
G36*
X214188000Y-84898000D02*
G01*
X216088000Y-84898000D01*
X216088000Y-86298000D01*
X214188000Y-86298000D01*
X214188000Y-84898000D01*
G37*
G36*
X208346000Y-87438000D02*
G01*
X210246000Y-87438000D01*
X210246000Y-88838000D01*
X208346000Y-88838000D01*
X208346000Y-87438000D01*
G37*
G36*
X208346000Y-84898000D02*
G01*
X210246000Y-84898000D01*
X210246000Y-86298000D01*
X208346000Y-86298000D01*
X208346000Y-84898000D01*
G37*
D25*
X219218000Y-135524000D03*
X221218000Y-134874000D03*
X219218000Y-134224000D03*
X197374000Y-135524000D03*
X199374000Y-134874000D03*
X197374000Y-134224000D03*
X175530000Y-135524000D03*
X177530000Y-134874000D03*
X175530000Y-134224000D03*
D18*
X185420000Y-101854000D03*
D17*
X185420000Y-96774000D03*
X185420000Y-99314000D03*
D18*
X189992000Y-101854000D03*
D17*
X189992000Y-96774000D03*
X189992000Y-99314000D03*
D18*
X194564000Y-101854000D03*
D17*
X194564000Y-96774000D03*
X194564000Y-99314000D03*
D18*
X199136000Y-101854000D03*
D17*
X199136000Y-96774000D03*
X199136000Y-99314000D03*
X243078000Y-97282000D03*
D18*
X243078000Y-94742000D03*
D17*
X239014000Y-94742000D03*
D18*
X239014000Y-97282000D03*
D17*
X231394000Y-97536000D03*
D18*
X231394000Y-94996000D03*
D17*
X227330000Y-94996000D03*
D18*
X227330000Y-97536000D03*
D17*
X227076000Y-115570000D03*
D18*
X227076000Y-113030000D03*
D17*
X231140000Y-113030000D03*
D18*
X231140000Y-115570000D03*
D17*
X239014000Y-115570000D03*
D18*
X239014000Y-113030000D03*
D17*
X243332000Y-113030000D03*
D18*
X243332000Y-115570000D03*
D17*
X215138000Y-91440000D03*
D18*
X215138000Y-93980000D03*
D17*
X209296000Y-91440000D03*
D18*
X209296000Y-93980000D03*
D36*
X163860000Y-157734000D03*
D37*
X168940000Y-157734000D03*
X203360000Y-155448000D03*
D36*
X208440000Y-155448000D03*
D38*
X224156000Y-146304000D03*
X230506000Y-143764000D03*
D39*
X220344000Y-152654000D03*
D38*
X229236000Y-146304000D03*
X222886000Y-143764000D03*
X226696000Y-146304000D03*
X225426000Y-143764000D03*
X227966000Y-143764000D03*
X221616000Y-146304000D03*
D39*
X231776000Y-152654000D03*
D36*
X186150000Y-157734000D03*
D37*
X191230000Y-157734000D03*
D36*
X181070000Y-157734000D03*
D40*
X146748500Y-98552000D03*
D21*
X149288500Y-98552000D03*
X226060000Y-134874000D03*
D40*
X223520000Y-134874000D03*
D21*
X204194000Y-134874000D03*
D40*
X201654000Y-134874000D03*
D21*
X182328000Y-134874000D03*
D40*
X179788000Y-134874000D03*
D41*
X238252000Y-135178800D03*
X236982000Y-135178800D03*
X239522000Y-135178800D03*
X236982000Y-138633200D03*
X238252000Y-138633200D03*
X239522000Y-138633200D03*
D28*
G36*
X167956000Y-108646000D02*
G01*
X167956000Y-106746000D01*
X169356000Y-106746000D01*
X169356000Y-108646000D01*
X167956000Y-108646000D01*
G37*
G36*
X165416000Y-108646000D02*
G01*
X165416000Y-106746000D01*
X166816000Y-106746000D01*
X166816000Y-108646000D01*
X165416000Y-108646000D01*
G37*
G36*
X172782000Y-108646000D02*
G01*
X172782000Y-106746000D01*
X174182000Y-106746000D01*
X174182000Y-108646000D01*
X172782000Y-108646000D01*
G37*
G36*
X170242000Y-108646000D02*
G01*
X170242000Y-106746000D01*
X171642000Y-106746000D01*
X171642000Y-108646000D01*
X170242000Y-108646000D01*
G37*
G36*
X170242000Y-124902000D02*
G01*
X170242000Y-123002000D01*
X171642000Y-123002000D01*
X171642000Y-124902000D01*
X170242000Y-124902000D01*
G37*
G36*
X167702000Y-124902000D02*
G01*
X167702000Y-123002000D01*
X169102000Y-123002000D01*
X169102000Y-124902000D01*
X167702000Y-124902000D01*
G37*
G36*
X206310000Y-107884000D02*
G01*
X206310000Y-105984000D01*
X207710000Y-105984000D01*
X207710000Y-107884000D01*
X206310000Y-107884000D01*
G37*
G36*
X203770000Y-107884000D02*
G01*
X203770000Y-105984000D01*
X205170000Y-105984000D01*
X205170000Y-107884000D01*
X203770000Y-107884000D01*
G37*
G36*
X206310000Y-110678000D02*
G01*
X206310000Y-108778000D01*
X207710000Y-108778000D01*
X207710000Y-110678000D01*
X206310000Y-110678000D01*
G37*
G36*
X203770000Y-110678000D02*
G01*
X203770000Y-108778000D01*
X205170000Y-108778000D01*
X205170000Y-110678000D01*
X203770000Y-110678000D01*
G37*
G36*
X191708000Y-116398000D02*
G01*
X191708000Y-118298000D01*
X190308000Y-118298000D01*
X190308000Y-116398000D01*
X191708000Y-116398000D01*
G37*
G36*
X194248000Y-116398000D02*
G01*
X194248000Y-118298000D01*
X192848000Y-118298000D01*
X192848000Y-116398000D01*
X194248000Y-116398000D01*
G37*
G36*
X192848000Y-115504000D02*
G01*
X192848000Y-113604000D01*
X194248000Y-113604000D01*
X194248000Y-115504000D01*
X192848000Y-115504000D01*
G37*
G36*
X190308000Y-115504000D02*
G01*
X190308000Y-113604000D01*
X191708000Y-113604000D01*
X191708000Y-115504000D01*
X190308000Y-115504000D01*
G37*
G36*
X189164000Y-115508000D02*
G01*
X187264000Y-115508000D01*
X187264000Y-114108000D01*
X189164000Y-114108000D01*
X189164000Y-115508000D01*
G37*
G36*
X189164000Y-118048000D02*
G01*
X187264000Y-118048000D01*
X187264000Y-116648000D01*
X189164000Y-116648000D01*
X189164000Y-118048000D01*
G37*
G36*
X206310000Y-117536000D02*
G01*
X206310000Y-115636000D01*
X207710000Y-115636000D01*
X207710000Y-117536000D01*
X206310000Y-117536000D01*
G37*
G36*
X203770000Y-117536000D02*
G01*
X203770000Y-115636000D01*
X205170000Y-115636000D01*
X205170000Y-117536000D01*
X203770000Y-117536000D01*
G37*
G36*
X206310000Y-120330000D02*
G01*
X206310000Y-118430000D01*
X207710000Y-118430000D01*
X207710000Y-120330000D01*
X206310000Y-120330000D01*
G37*
G36*
X203770000Y-120330000D02*
G01*
X203770000Y-118430000D01*
X205170000Y-118430000D01*
X205170000Y-120330000D01*
X203770000Y-120330000D01*
G37*
M02*
