%FSLAX45Y45*%
G04 Gerber Fmt 4.5, Leading zero omitted, Abs format (unit mm)*
G04 Created by KiCad (PCBNEW (5.1.6)-1) date 2022-03-27 18:45:04*
%MOMM*%
%LPD*%
G01*
G04 APERTURE LIST*
%TA.AperFunction,Profile*%
%ADD10C,0.050000*%
%TD*%
%ADD11C,0.200000*%
%ADD12C,0.300000*%
G04 APERTURE END LIST*
D10*
X25346800Y-15798800D02*
G75*
G03*
X25346800Y-15798800I-150000J0D01*
G01*
X24762600Y-15798800D02*
G75*
G03*
X24762600Y-15798800I-150000J0D01*
G01*
X13811250Y-16103600D02*
X13811250Y-6858000D01*
X26790650Y-16103600D02*
X13811250Y-16103600D01*
X26790650Y-6858000D02*
X26790650Y-16103600D01*
X13811250Y-6858000D02*
X26790650Y-6858000D01*
D11*
X14426250Y-12045000D02*
X14466250Y-12085000D01*
X14466250Y-12045000D02*
X14426250Y-12085000D01*
X15855000Y-7650800D02*
X15895000Y-7690800D01*
X15895000Y-7650800D02*
X15855000Y-7690800D01*
X19792000Y-8158800D02*
X19832000Y-8198800D01*
X19832000Y-8158800D02*
X19792000Y-8198800D01*
X22433600Y-10648000D02*
X22473600Y-10688000D01*
X22473600Y-10648000D02*
X22433600Y-10688000D01*
X17912400Y-14254800D02*
X17952400Y-14294800D01*
X17952400Y-14254800D02*
X17912400Y-14294800D01*
X18064800Y-14254800D02*
X18104800Y-14294800D01*
X18104800Y-14254800D02*
X18064800Y-14294800D01*
X17582200Y-9835200D02*
X17622200Y-9875200D01*
X17622200Y-9835200D02*
X17582200Y-9875200D01*
X18496600Y-11003600D02*
X18536600Y-11043600D01*
X18536600Y-11003600D02*
X18496600Y-11043600D01*
X18033050Y-15220000D02*
X18073050Y-15260000D01*
X18073050Y-15220000D02*
X18033050Y-15260000D01*
X20782600Y-14280200D02*
X20822600Y-14320200D01*
X20822600Y-14280200D02*
X20782600Y-14320200D01*
X26135650Y-14585000D02*
X26175650Y-14625000D01*
X26175650Y-14585000D02*
X26135650Y-14625000D01*
X20985800Y-11765600D02*
X21025800Y-11805600D01*
X21025800Y-11765600D02*
X20985800Y-11805600D01*
X23576600Y-9124000D02*
X23616600Y-9164000D01*
X23616600Y-9124000D02*
X23576600Y-9164000D01*
X21570000Y-9886000D02*
X21610000Y-9926000D01*
X21610000Y-9886000D02*
X21570000Y-9926000D01*
X22332000Y-11562400D02*
X22372000Y-11602400D01*
X22372000Y-11562400D02*
X22332000Y-11602400D01*
X16845600Y-11003600D02*
X16885600Y-11043600D01*
X16885600Y-11003600D02*
X16845600Y-11043600D01*
X24745000Y-7650800D02*
X24785000Y-7690800D01*
X24785000Y-7650800D02*
X24745000Y-7690800D01*
X23087650Y-13162600D02*
X23127650Y-13202600D01*
X23127650Y-13162600D02*
X23087650Y-13202600D01*
X18801400Y-11867200D02*
X18841400Y-11907200D01*
X18841400Y-11867200D02*
X18801400Y-11907200D01*
X16280450Y-11841800D02*
X16320450Y-11881800D01*
X16320450Y-11841800D02*
X16280450Y-11881800D01*
X14426250Y-13315000D02*
X14466250Y-13355000D01*
X14466250Y-13315000D02*
X14426250Y-13355000D01*
X25907050Y-12045000D02*
X25947050Y-12085000D01*
X25947050Y-12045000D02*
X25907050Y-12085000D01*
X17982250Y-13721400D02*
X18022250Y-13761400D01*
X18022250Y-13721400D02*
X17982250Y-13761400D01*
X19334800Y-12299000D02*
X19374800Y-12339000D01*
X19374800Y-12299000D02*
X19334800Y-12339000D01*
X20858800Y-10597200D02*
X20898800Y-10637200D01*
X20898800Y-10597200D02*
X20858800Y-10637200D01*
X22478050Y-15499400D02*
X22518050Y-15539400D01*
X22518050Y-15499400D02*
X22478050Y-15539400D01*
X25145050Y-14635800D02*
X25185050Y-14675800D01*
X25185050Y-14635800D02*
X25145050Y-14675800D01*
X18496600Y-11460800D02*
X18536600Y-11500800D01*
X18536600Y-11460800D02*
X18496600Y-11500800D01*
X15315250Y-15880400D02*
X15355250Y-15920400D01*
X15355250Y-15880400D02*
X15315250Y-15920400D01*
X16566200Y-11892600D02*
X16606200Y-11932600D01*
X16606200Y-11892600D02*
X16566200Y-11932600D01*
X16839250Y-14508800D02*
X16879250Y-14548800D01*
X16879250Y-14508800D02*
X16839250Y-14548800D01*
X19665000Y-7650800D02*
X19705000Y-7690800D01*
X19705000Y-7650800D02*
X19665000Y-7690800D01*
X25653050Y-15880400D02*
X25693050Y-15920400D01*
X25693050Y-15880400D02*
X25653050Y-15920400D01*
X14426250Y-8235000D02*
X14466250Y-8275000D01*
X14466250Y-8235000D02*
X14426250Y-8275000D01*
X23475000Y-7650800D02*
X23515000Y-7690800D01*
X23515000Y-7650800D02*
X23475000Y-7690800D01*
X18674400Y-13111800D02*
X18714400Y-13151800D01*
X18714400Y-13111800D02*
X18674400Y-13151800D01*
X23570250Y-8438200D02*
X23610250Y-8478200D01*
X23610250Y-8438200D02*
X23570250Y-8478200D01*
X19487200Y-11257600D02*
X19527200Y-11297600D01*
X19527200Y-11257600D02*
X19487200Y-11297600D01*
X19487200Y-11029000D02*
X19527200Y-11069000D01*
X19527200Y-11029000D02*
X19487200Y-11069000D01*
X14426250Y-9505000D02*
X14466250Y-9545000D01*
X14466250Y-9505000D02*
X14426250Y-9545000D01*
X19487200Y-13746800D02*
X19527200Y-13786800D01*
X19527200Y-13746800D02*
X19487200Y-13786800D01*
X19030000Y-14254800D02*
X19070000Y-14294800D01*
X19070000Y-14254800D02*
X19030000Y-14294800D01*
X17048800Y-10978200D02*
X17088800Y-11018200D01*
X17088800Y-10978200D02*
X17048800Y-11018200D01*
X17169450Y-12070400D02*
X17209450Y-12110400D01*
X17209450Y-12070400D02*
X17169450Y-12110400D01*
X22205000Y-7650800D02*
X22245000Y-7690800D01*
X22245000Y-7650800D02*
X22205000Y-7690800D01*
X24078250Y-15880400D02*
X24118250Y-15920400D01*
X24118250Y-15880400D02*
X24078250Y-15920400D01*
X22071650Y-15880400D02*
X22111650Y-15920400D01*
X22111650Y-15880400D02*
X22071650Y-15920400D01*
X14426250Y-10775000D02*
X14466250Y-10815000D01*
X14466250Y-10775000D02*
X14426250Y-10815000D01*
X20706400Y-13137200D02*
X20746400Y-13177200D01*
X20746400Y-13137200D02*
X20706400Y-13177200D01*
X22687600Y-10292400D02*
X22727600Y-10332400D01*
X22727600Y-10292400D02*
X22687600Y-10332400D01*
X20427000Y-12146600D02*
X20467000Y-12186600D01*
X20467000Y-12146600D02*
X20427000Y-12186600D01*
X22078000Y-9886000D02*
X22118000Y-9926000D01*
X22118000Y-9886000D02*
X22078000Y-9926000D01*
X19182400Y-14254800D02*
X19222400Y-14294800D01*
X19222400Y-14254800D02*
X19182400Y-14294800D01*
X23627400Y-12375200D02*
X23667400Y-12415200D01*
X23667400Y-12375200D02*
X23627400Y-12415200D01*
X16286800Y-10597200D02*
X16326800Y-10637200D01*
X16326800Y-10597200D02*
X16286800Y-10637200D01*
X18598200Y-15220000D02*
X18638200Y-15260000D01*
X18638200Y-15220000D02*
X18598200Y-15260000D01*
X17328200Y-10571800D02*
X17368200Y-10611800D01*
X17368200Y-10571800D02*
X17328200Y-10611800D01*
X14426250Y-14585000D02*
X14466250Y-14625000D01*
X14466250Y-14585000D02*
X14426250Y-14625000D01*
X25907050Y-8235000D02*
X25947050Y-8275000D01*
X25947050Y-8235000D02*
X25907050Y-8275000D01*
X16295734Y-14512604D02*
X16335734Y-14552604D01*
X16335734Y-14512604D02*
X16295734Y-14552604D01*
X20935000Y-7650800D02*
X20975000Y-7690800D01*
X20975000Y-7650800D02*
X20935000Y-7690800D01*
X17125000Y-7650800D02*
X17165000Y-7690800D01*
X17165000Y-7650800D02*
X17125000Y-7690800D01*
X20141250Y-13746800D02*
X20181250Y-13786800D01*
X20181250Y-13746800D02*
X20141250Y-13786800D01*
X20706400Y-13746800D02*
X20746400Y-13786800D01*
X20746400Y-13746800D02*
X20706400Y-13786800D01*
X21366800Y-10470200D02*
X21406800Y-10510200D01*
X21406800Y-10470200D02*
X21366800Y-10510200D01*
X19055400Y-11257600D02*
X19095400Y-11297600D01*
X19095400Y-11257600D02*
X19055400Y-11297600D01*
X21824000Y-9886000D02*
X21864000Y-9926000D01*
X21864000Y-9886000D02*
X21824000Y-9926000D01*
X23678200Y-14026200D02*
X23718200Y-14066200D01*
X23718200Y-14026200D02*
X23678200Y-14066200D01*
X22865400Y-12197400D02*
X22905400Y-12237400D01*
X22905400Y-12197400D02*
X22865400Y-12237400D01*
X16972600Y-12070400D02*
X17012600Y-12110400D01*
X17012600Y-12070400D02*
X16972600Y-12110400D01*
X22865400Y-12476800D02*
X22905400Y-12516800D01*
X22905400Y-12476800D02*
X22865400Y-12516800D01*
X17201200Y-10978200D02*
X17241200Y-11018200D01*
X17241200Y-10978200D02*
X17201200Y-11018200D01*
X25907050Y-10775000D02*
X25947050Y-10815000D01*
X25947050Y-10775000D02*
X25907050Y-10815000D01*
X25907050Y-9505000D02*
X25947050Y-9545000D01*
X25947050Y-9505000D02*
X25907050Y-9545000D01*
X25907050Y-13315000D02*
X25947050Y-13355000D01*
X25947050Y-13315000D02*
X25907050Y-13355000D01*
X22484400Y-13670600D02*
X22524400Y-13710600D01*
X22524400Y-13670600D02*
X22484400Y-13710600D01*
X21824000Y-13823000D02*
X21864000Y-13863000D01*
X21864000Y-13823000D02*
X21824000Y-13863000D01*
X22230400Y-10648000D02*
X22270400Y-10688000D01*
X22270400Y-10648000D02*
X22230400Y-10688000D01*
X18134650Y-8489000D02*
X18174650Y-8529000D01*
X18174650Y-8489000D02*
X18134650Y-8529000D01*
X19182400Y-13746800D02*
X19222400Y-13786800D01*
X19222400Y-13746800D02*
X19182400Y-13786800D01*
X22814600Y-14788200D02*
X22854600Y-14828200D01*
X22854600Y-14788200D02*
X22814600Y-14828200D01*
X16845600Y-10571800D02*
X16885600Y-10611800D01*
X16885600Y-10571800D02*
X16845600Y-10611800D01*
X19157000Y-15220000D02*
X19197000Y-15260000D01*
X19197000Y-15220000D02*
X19157000Y-15260000D01*
X16845600Y-12070400D02*
X16885600Y-12110400D01*
X16885600Y-12070400D02*
X16845600Y-12110400D01*
X18496600Y-12476800D02*
X18536600Y-12516800D01*
X18536600Y-12476800D02*
X18496600Y-12516800D01*
X20985800Y-10825800D02*
X21025800Y-10865800D01*
X21025800Y-10825800D02*
X20985800Y-10865800D01*
X23087650Y-15880400D02*
X23127650Y-15920400D01*
X23127650Y-15880400D02*
X23087650Y-15920400D01*
X18395000Y-7650800D02*
X18435000Y-7690800D01*
X18435000Y-7650800D02*
X18395000Y-7690800D01*
X18674400Y-13721400D02*
X18714400Y-13761400D01*
X18714400Y-13721400D02*
X18674400Y-13761400D01*
X15873250Y-11049000D02*
G75*
G03*
X15873250Y-11049000I-30000J0D01*
G01*
X15873250Y-11557000D02*
G75*
G03*
X15873250Y-11557000I-30000J0D01*
G01*
X16128520Y-11303000D02*
G75*
G03*
X16128520Y-11303000I-30000J0D01*
G01*
X14674850Y-9820200D02*
X14674850Y-9890200D01*
X14639850Y-9855200D02*
X14709850Y-9855200D01*
X14928850Y-9820200D02*
X14928850Y-9890200D01*
X14893850Y-9855200D02*
X14963850Y-9855200D01*
X22352000Y-13452400D02*
X22352000Y-13522400D01*
X22317000Y-13487400D02*
X22387000Y-13487400D01*
X22606000Y-13452400D02*
X22606000Y-13522400D01*
X22571000Y-13487400D02*
X22641000Y-13487400D01*
X17978800Y-13452400D02*
X17978800Y-13522400D01*
X17943800Y-13487400D02*
X18013800Y-13487400D01*
X18232800Y-13452400D02*
X18232800Y-13522400D01*
X18197800Y-13487400D02*
X18267800Y-13487400D01*
X20165400Y-13452400D02*
X20165400Y-13522400D01*
X20130400Y-13487400D02*
X20200400Y-13487400D01*
X20419400Y-13452400D02*
X20419400Y-13522400D01*
X20384400Y-13487400D02*
X20454400Y-13487400D01*
X22189885Y-14658684D02*
X22189885Y-14602115D01*
X22133316Y-14602115D01*
X22133316Y-14658684D01*
X22189885Y-14658684D01*
X22316885Y-14404684D02*
X22316885Y-14348115D01*
X22260316Y-14348115D01*
X22260316Y-14404684D01*
X22316885Y-14404684D01*
X22443884Y-14658684D02*
X22443884Y-14602115D01*
X22387315Y-14602115D01*
X22387315Y-14658684D01*
X22443884Y-14658684D01*
X22570884Y-14404684D02*
X22570884Y-14348115D01*
X22514315Y-14348115D01*
X22514315Y-14404684D01*
X22570884Y-14404684D01*
X22697884Y-14658684D02*
X22697884Y-14602115D01*
X22641315Y-14602115D01*
X22641315Y-14658684D01*
X22697884Y-14658684D01*
X22824884Y-14404684D02*
X22824884Y-14348115D01*
X22768315Y-14348115D01*
X22768315Y-14404684D01*
X22824884Y-14404684D01*
X22951884Y-14658684D02*
X22951884Y-14602115D01*
X22895315Y-14602115D01*
X22895315Y-14658684D01*
X22951884Y-14658684D01*
X23078884Y-14404684D02*
X23078884Y-14348115D01*
X23022315Y-14348115D01*
X23022315Y-14404684D01*
X23078884Y-14404684D01*
X24257520Y-7553974D02*
X24307520Y-7503974D01*
X24257520Y-7453974D01*
X24207520Y-7503974D01*
X24257520Y-7553974D01*
X24257520Y-7807974D02*
X24307520Y-7757974D01*
X24257520Y-7707974D01*
X24207520Y-7757974D01*
X24257520Y-7807974D01*
X24257520Y-8061974D02*
X24307520Y-8011974D01*
X24257520Y-7961974D01*
X24207520Y-8011974D01*
X24257520Y-8061974D01*
X24257520Y-8315974D02*
X24307520Y-8265974D01*
X24257520Y-8215974D01*
X24207520Y-8265974D01*
X24257520Y-8315974D01*
X24307800Y-9524200D02*
X24357800Y-9474200D01*
X24307800Y-9424200D01*
X24257800Y-9474200D01*
X24307800Y-9524200D01*
X24307800Y-9778200D02*
X24357800Y-9728200D01*
X24307800Y-9678200D01*
X24257800Y-9728200D01*
X24307800Y-9778200D01*
X19913600Y-9727400D02*
X19963600Y-9677400D01*
X19913600Y-9627400D01*
X19863600Y-9677400D01*
X19913600Y-9727400D01*
X19913600Y-9981400D02*
X19963600Y-9931400D01*
X19913600Y-9881400D01*
X19863600Y-9931400D01*
X19913600Y-9981400D01*
X19913600Y-10235400D02*
X19963600Y-10185400D01*
X19913600Y-10135400D01*
X19863600Y-10185400D01*
X19913600Y-10235400D01*
X23114000Y-11353000D02*
X23164000Y-11303000D01*
X23114000Y-11253000D01*
X23064000Y-11303000D01*
X23114000Y-11353000D01*
X23114000Y-11607000D02*
X23164000Y-11557000D01*
X23114000Y-11507000D01*
X23064000Y-11557000D01*
X23114000Y-11607000D01*
X23901400Y-9524200D02*
X23951400Y-9474200D01*
X23901400Y-9424200D01*
X23851400Y-9474200D01*
X23901400Y-9524200D01*
X23901400Y-9778200D02*
X23951400Y-9728200D01*
X23901400Y-9678200D01*
X23851400Y-9728200D01*
X23901400Y-9778200D01*
X18542000Y-9727400D02*
X18592000Y-9677400D01*
X18542000Y-9627400D01*
X18492000Y-9677400D01*
X18542000Y-9727400D01*
X18542000Y-9981400D02*
X18592000Y-9931400D01*
X18542000Y-9881400D01*
X18492000Y-9931400D01*
X18542000Y-9981400D01*
X18542000Y-10235400D02*
X18592000Y-10185400D01*
X18542000Y-10135400D01*
X18492000Y-10185400D01*
X18542000Y-10235400D01*
X20929600Y-9194000D02*
X20979600Y-9144000D01*
X20929600Y-9094000D01*
X20879600Y-9144000D01*
X20929600Y-9194000D01*
X20929600Y-9448000D02*
X20979600Y-9398000D01*
X20929600Y-9348000D01*
X20879600Y-9398000D01*
X20929600Y-9448000D01*
X21513800Y-9194000D02*
X21563800Y-9144000D01*
X21513800Y-9094000D01*
X21463800Y-9144000D01*
X21513800Y-9194000D01*
X21513800Y-9448000D02*
X21563800Y-9398000D01*
X21513800Y-9348000D01*
X21463800Y-9398000D01*
X21513800Y-9448000D01*
X22733000Y-9549600D02*
X22783000Y-9499600D01*
X22733000Y-9449600D01*
X22683000Y-9499600D01*
X22733000Y-9549600D01*
X22733000Y-9803600D02*
X22783000Y-9753600D01*
X22733000Y-9703600D01*
X22683000Y-9753600D01*
X22733000Y-9803600D01*
X22707600Y-11353000D02*
X22757600Y-11303000D01*
X22707600Y-11253000D01*
X22657600Y-11303000D01*
X22707600Y-11353000D01*
X22707600Y-11607000D02*
X22757600Y-11557000D01*
X22707600Y-11507000D01*
X22657600Y-11557000D01*
X22707600Y-11607000D01*
X18999200Y-9727400D02*
X19049200Y-9677400D01*
X18999200Y-9627400D01*
X18949200Y-9677400D01*
X18999200Y-9727400D01*
X18999200Y-9981400D02*
X19049200Y-9931400D01*
X18999200Y-9881400D01*
X18949200Y-9931400D01*
X18999200Y-9981400D01*
X18999200Y-10235400D02*
X19049200Y-10185400D01*
X18999200Y-10135400D01*
X18949200Y-10185400D01*
X18999200Y-10235400D01*
X23139400Y-9549600D02*
X23189400Y-9499600D01*
X23139400Y-9449600D01*
X23089400Y-9499600D01*
X23139400Y-9549600D01*
X23139400Y-9803600D02*
X23189400Y-9753600D01*
X23139400Y-9703600D01*
X23089400Y-9753600D01*
X23139400Y-9803600D01*
X23901400Y-11353000D02*
X23951400Y-11303000D01*
X23901400Y-11253000D01*
X23851400Y-11303000D01*
X23901400Y-11353000D01*
X23901400Y-11607000D02*
X23951400Y-11557000D01*
X23901400Y-11507000D01*
X23851400Y-11557000D01*
X23901400Y-11607000D01*
X24333200Y-11353000D02*
X24383200Y-11303000D01*
X24333200Y-11253000D01*
X24283200Y-11303000D01*
X24333200Y-11353000D01*
X24333200Y-11607000D02*
X24383200Y-11557000D01*
X24333200Y-11507000D01*
X24283200Y-11557000D01*
X24333200Y-11607000D01*
X19456400Y-9727400D02*
X19506400Y-9677400D01*
X19456400Y-9627400D01*
X19406400Y-9677400D01*
X19456400Y-9727400D01*
X19456400Y-9981400D02*
X19506400Y-9931400D01*
X19456400Y-9881400D01*
X19406400Y-9931400D01*
X19456400Y-9981400D01*
X19456400Y-10235400D02*
X19506400Y-10185400D01*
X19456400Y-10135400D01*
X19406400Y-10185400D01*
X19456400Y-10235400D01*
X16326000Y-15713400D02*
X16446000Y-15833400D01*
X16446000Y-15713400D02*
X16326000Y-15833400D01*
X16446000Y-15773400D02*
G75*
G03*
X16446000Y-15773400I-60000J0D01*
G01*
X16834000Y-15713400D02*
X16954000Y-15833400D01*
X16954000Y-15713400D02*
X16834000Y-15833400D01*
X16954000Y-15773400D02*
G75*
G03*
X16954000Y-15773400I-60000J0D01*
G01*
X18047000Y-15713400D02*
X18167000Y-15833400D01*
X18167000Y-15713400D02*
X18047000Y-15833400D01*
X18167000Y-15773400D02*
G75*
G03*
X18167000Y-15773400I-60000J0D01*
G01*
X18555000Y-15713400D02*
X18675000Y-15833400D01*
X18675000Y-15713400D02*
X18555000Y-15833400D01*
X18675000Y-15773400D02*
G75*
G03*
X18675000Y-15773400I-60000J0D01*
G01*
X19063000Y-15713400D02*
X19183000Y-15833400D01*
X19183000Y-15713400D02*
X19063000Y-15833400D01*
X19183000Y-15773400D02*
G75*
G03*
X19183000Y-15773400I-60000J0D01*
G01*
X20261000Y-15469800D02*
X20411000Y-15619800D01*
X20411000Y-15469800D02*
X20261000Y-15619800D01*
X20336000Y-15469800D02*
X20336000Y-15619800D01*
X20261000Y-15544800D02*
X20411000Y-15544800D01*
X20769000Y-15469800D02*
X20919000Y-15619800D01*
X20919000Y-15469800D02*
X20769000Y-15619800D01*
X20844000Y-15469800D02*
X20844000Y-15619800D01*
X20769000Y-15544800D02*
X20919000Y-15544800D01*
X24004200Y-14225400D02*
X24154200Y-14375400D01*
X24154200Y-14225400D02*
X24004200Y-14375400D01*
X24079200Y-14225400D02*
X24079200Y-14375400D01*
X24004200Y-14300400D02*
X24154200Y-14300400D01*
X24004200Y-14589400D02*
X24154200Y-14739400D01*
X24154200Y-14589400D02*
X24004200Y-14739400D01*
X24079200Y-14589400D02*
X24079200Y-14739400D01*
X24004200Y-14664400D02*
X24154200Y-14664400D01*
X24004200Y-14953400D02*
X24154200Y-15103400D01*
X24154200Y-14953400D02*
X24004200Y-15103400D01*
X24079200Y-14953400D02*
X24079200Y-15103400D01*
X24004200Y-15028400D02*
X24154200Y-15028400D01*
X24004200Y-15317400D02*
X24154200Y-15467400D01*
X24154200Y-15317400D02*
X24004200Y-15467400D01*
X24079200Y-15317400D02*
X24079200Y-15467400D01*
X24004200Y-15392400D02*
X24154200Y-15392400D01*
X25674250Y-14225400D02*
X25824250Y-14375400D01*
X25824250Y-14225400D02*
X25674250Y-14375400D01*
X25749250Y-14225400D02*
X25749250Y-14375400D01*
X25674250Y-14300400D02*
X25824250Y-14300400D01*
X25674250Y-14589400D02*
X25824250Y-14739400D01*
X25824250Y-14589400D02*
X25674250Y-14739400D01*
X25749250Y-14589400D02*
X25749250Y-14739400D01*
X25674250Y-14664400D02*
X25824250Y-14664400D01*
X25674250Y-14953400D02*
X25824250Y-15103400D01*
X25824250Y-14953400D02*
X25674250Y-15103400D01*
X25749250Y-14953400D02*
X25749250Y-15103400D01*
X25674250Y-15028400D02*
X25824250Y-15028400D01*
X25674250Y-15317400D02*
X25824250Y-15467400D01*
X25824250Y-15317400D02*
X25674250Y-15467400D01*
X25749250Y-15317400D02*
X25749250Y-15467400D01*
X25674250Y-15392400D02*
X25824250Y-15392400D01*
X26285050Y-15598000D02*
X26585050Y-15898000D01*
X26585050Y-15598000D02*
X26285050Y-15898000D01*
X26541117Y-15854067D02*
X26541117Y-15641933D01*
X26328983Y-15641933D01*
X26328983Y-15854067D01*
X26541117Y-15854067D01*
X21296000Y-15598000D02*
X21596000Y-15898000D01*
X21596000Y-15598000D02*
X21296000Y-15898000D01*
X21552067Y-15854067D02*
X21552067Y-15641933D01*
X21339933Y-15641933D01*
X21339933Y-15854067D01*
X21552067Y-15854067D01*
X19590000Y-15598000D02*
X19890000Y-15898000D01*
X19890000Y-15598000D02*
X19590000Y-15898000D01*
X19846067Y-15854067D02*
X19846067Y-15641933D01*
X19633933Y-15641933D01*
X19633933Y-15854067D01*
X19846067Y-15854067D01*
X14016850Y-15603392D02*
X14316850Y-15903392D01*
X14316850Y-15603392D02*
X14016850Y-15903392D01*
X14272917Y-15859459D02*
X14272917Y-15647325D01*
X14060783Y-15647325D01*
X14060783Y-15859459D01*
X14272917Y-15859459D01*
X14016850Y-7060643D02*
X14316850Y-7360643D01*
X14316850Y-7060643D02*
X14016850Y-7360643D01*
X14272917Y-7316710D02*
X14272917Y-7104576D01*
X14060783Y-7104576D01*
X14060783Y-7316710D01*
X14272917Y-7316710D01*
X24796800Y-12458000D02*
X25096800Y-12758000D01*
X25096800Y-12458000D02*
X24796800Y-12758000D01*
X25052867Y-12714067D02*
X25052867Y-12501933D01*
X24840733Y-12501933D01*
X24840733Y-12714067D01*
X25052867Y-12714067D01*
X24896050Y-13380200D02*
X25196050Y-13680200D01*
X25196050Y-13380200D02*
X24896050Y-13680200D01*
X25152117Y-13636267D02*
X25152117Y-13424133D01*
X24939983Y-13424133D01*
X24939983Y-13636267D01*
X25152117Y-13636267D01*
X15492400Y-12458000D02*
X15792400Y-12758000D01*
X15792400Y-12458000D02*
X15492400Y-12758000D01*
X15748467Y-12714067D02*
X15748467Y-12501933D01*
X15536333Y-12501933D01*
X15536333Y-12714067D01*
X15748467Y-12714067D01*
X24796800Y-6958000D02*
X25096800Y-7258000D01*
X25096800Y-6958000D02*
X24796800Y-7258000D01*
X25052867Y-7214067D02*
X25052867Y-7001933D01*
X24840733Y-7001933D01*
X24840733Y-7214067D01*
X25052867Y-7214067D01*
X15492400Y-6958000D02*
X15792400Y-7258000D01*
X15792400Y-6958000D02*
X15492400Y-7258000D01*
X15748467Y-7214067D02*
X15748467Y-7001933D01*
X15536333Y-7001933D01*
X15536333Y-7214067D01*
X15748467Y-7214067D01*
X26285050Y-7057344D02*
X26585050Y-7357344D01*
X26585050Y-7057344D02*
X26285050Y-7357344D01*
X26541117Y-7313411D02*
X26541117Y-7101277D01*
X26328983Y-7101277D01*
X26328983Y-7313411D01*
X26541117Y-7313411D01*
D12*
X14095178Y-16571814D02*
X14095178Y-16271814D01*
X14166607Y-16271814D01*
X14209464Y-16286100D01*
X14238036Y-16314671D01*
X14252321Y-16343243D01*
X14266607Y-16400386D01*
X14266607Y-16443243D01*
X14252321Y-16500386D01*
X14238036Y-16528957D01*
X14209464Y-16557529D01*
X14166607Y-16571814D01*
X14095178Y-16571814D01*
X14395178Y-16571814D02*
X14395178Y-16371814D01*
X14395178Y-16428957D02*
X14409464Y-16400386D01*
X14423750Y-16386100D01*
X14452321Y-16371814D01*
X14480893Y-16371814D01*
X14580893Y-16571814D02*
X14580893Y-16371814D01*
X14580893Y-16271814D02*
X14566607Y-16286100D01*
X14580893Y-16300386D01*
X14595178Y-16286100D01*
X14580893Y-16271814D01*
X14580893Y-16300386D01*
X14766607Y-16571814D02*
X14738036Y-16557529D01*
X14723750Y-16528957D01*
X14723750Y-16271814D01*
X14923750Y-16571814D02*
X14895178Y-16557529D01*
X14880893Y-16528957D01*
X14880893Y-16271814D01*
X15266607Y-16571814D02*
X15266607Y-16271814D01*
X15366607Y-16486100D01*
X15466607Y-16271814D01*
X15466607Y-16571814D01*
X15738036Y-16571814D02*
X15738036Y-16414671D01*
X15723750Y-16386100D01*
X15695178Y-16371814D01*
X15638036Y-16371814D01*
X15609464Y-16386100D01*
X15738036Y-16557529D02*
X15709464Y-16571814D01*
X15638036Y-16571814D01*
X15609464Y-16557529D01*
X15595178Y-16528957D01*
X15595178Y-16500386D01*
X15609464Y-16471814D01*
X15638036Y-16457529D01*
X15709464Y-16457529D01*
X15738036Y-16443243D01*
X15880893Y-16371814D02*
X15880893Y-16671814D01*
X15880893Y-16386100D02*
X15909464Y-16371814D01*
X15966607Y-16371814D01*
X15995178Y-16386100D01*
X16009464Y-16400386D01*
X16023750Y-16428957D01*
X16023750Y-16514671D01*
X16009464Y-16543243D01*
X15995178Y-16557529D01*
X15966607Y-16571814D01*
X15909464Y-16571814D01*
X15880893Y-16557529D01*
X16152321Y-16543243D02*
X16166607Y-16557529D01*
X16152321Y-16571814D01*
X16138036Y-16557529D01*
X16152321Y-16543243D01*
X16152321Y-16571814D01*
X16152321Y-16386100D02*
X16166607Y-16400386D01*
X16152321Y-16414671D01*
X16138036Y-16400386D01*
X16152321Y-16386100D01*
X16152321Y-16414671D01*
X13768750Y-17046100D02*
X13808750Y-17086100D01*
X13808750Y-17046100D02*
X13768750Y-17086100D01*
X14152321Y-16901814D02*
X14180893Y-16901814D01*
X14209464Y-16916100D01*
X14223750Y-16930386D01*
X14238036Y-16958957D01*
X14252321Y-17016100D01*
X14252321Y-17087529D01*
X14238036Y-17144672D01*
X14223750Y-17173243D01*
X14209464Y-17187529D01*
X14180893Y-17201814D01*
X14152321Y-17201814D01*
X14123750Y-17187529D01*
X14109464Y-17173243D01*
X14095178Y-17144672D01*
X14080893Y-17087529D01*
X14080893Y-17016100D01*
X14095178Y-16958957D01*
X14109464Y-16930386D01*
X14123750Y-16916100D01*
X14152321Y-16901814D01*
X14380893Y-17173243D02*
X14395178Y-17187529D01*
X14380893Y-17201814D01*
X14366607Y-17187529D01*
X14380893Y-17173243D01*
X14380893Y-17201814D01*
X14652321Y-17001814D02*
X14652321Y-17201814D01*
X14580893Y-16887529D02*
X14509464Y-17101814D01*
X14695178Y-17101814D01*
X14866607Y-16901814D02*
X14895178Y-16901814D01*
X14923750Y-16916100D01*
X14938036Y-16930386D01*
X14952321Y-16958957D01*
X14966607Y-17016100D01*
X14966607Y-17087529D01*
X14952321Y-17144672D01*
X14938036Y-17173243D01*
X14923750Y-17187529D01*
X14895178Y-17201814D01*
X14866607Y-17201814D01*
X14838036Y-17187529D01*
X14823750Y-17173243D01*
X14809464Y-17144672D01*
X14795178Y-17087529D01*
X14795178Y-17016100D01*
X14809464Y-16958957D01*
X14823750Y-16930386D01*
X14838036Y-16916100D01*
X14866607Y-16901814D01*
X15095178Y-17201814D02*
X15095178Y-17001814D01*
X15095178Y-17030386D02*
X15109464Y-17016100D01*
X15138036Y-17001814D01*
X15180893Y-17001814D01*
X15209464Y-17016100D01*
X15223750Y-17044672D01*
X15223750Y-17201814D01*
X15223750Y-17044672D02*
X15238036Y-17016100D01*
X15266607Y-17001814D01*
X15309464Y-17001814D01*
X15338036Y-17016100D01*
X15352321Y-17044672D01*
X15352321Y-17201814D01*
X15495178Y-17201814D02*
X15495178Y-17001814D01*
X15495178Y-17030386D02*
X15509464Y-17016100D01*
X15538036Y-17001814D01*
X15580893Y-17001814D01*
X15609464Y-17016100D01*
X15623750Y-17044672D01*
X15623750Y-17201814D01*
X15623750Y-17044672D02*
X15638036Y-17016100D01*
X15666607Y-17001814D01*
X15709464Y-17001814D01*
X15738036Y-17016100D01*
X15752321Y-17044672D01*
X15752321Y-17201814D01*
X16338036Y-16887529D02*
X16080893Y-17273243D01*
X16723750Y-16901814D02*
X16752321Y-16901814D01*
X16780893Y-16916100D01*
X16795178Y-16930386D01*
X16809464Y-16958957D01*
X16823750Y-17016100D01*
X16823750Y-17087529D01*
X16809464Y-17144672D01*
X16795178Y-17173243D01*
X16780893Y-17187529D01*
X16752321Y-17201814D01*
X16723750Y-17201814D01*
X16695178Y-17187529D01*
X16680893Y-17173243D01*
X16666607Y-17144672D01*
X16652321Y-17087529D01*
X16652321Y-17016100D01*
X16666607Y-16958957D01*
X16680893Y-16930386D01*
X16695178Y-16916100D01*
X16723750Y-16901814D01*
X16952321Y-17173243D02*
X16966607Y-17187529D01*
X16952321Y-17201814D01*
X16938036Y-17187529D01*
X16952321Y-17173243D01*
X16952321Y-17201814D01*
X17152321Y-16901814D02*
X17180893Y-16901814D01*
X17209464Y-16916100D01*
X17223750Y-16930386D01*
X17238036Y-16958957D01*
X17252321Y-17016100D01*
X17252321Y-17087529D01*
X17238036Y-17144672D01*
X17223750Y-17173243D01*
X17209464Y-17187529D01*
X17180893Y-17201814D01*
X17152321Y-17201814D01*
X17123750Y-17187529D01*
X17109464Y-17173243D01*
X17095178Y-17144672D01*
X17080893Y-17087529D01*
X17080893Y-17016100D01*
X17095178Y-16958957D01*
X17109464Y-16930386D01*
X17123750Y-16916100D01*
X17152321Y-16901814D01*
X17538036Y-17201814D02*
X17366607Y-17201814D01*
X17452321Y-17201814D02*
X17452321Y-16901814D01*
X17423750Y-16944672D01*
X17395178Y-16973243D01*
X17366607Y-16987529D01*
X17795178Y-16901814D02*
X17738036Y-16901814D01*
X17709464Y-16916100D01*
X17695178Y-16930386D01*
X17666607Y-16973243D01*
X17652321Y-17030386D01*
X17652321Y-17144672D01*
X17666607Y-17173243D01*
X17680893Y-17187529D01*
X17709464Y-17201814D01*
X17766607Y-17201814D01*
X17795178Y-17187529D01*
X17809464Y-17173243D01*
X17823750Y-17144672D01*
X17823750Y-17073243D01*
X17809464Y-17044672D01*
X17795178Y-17030386D01*
X17766607Y-17016100D01*
X17709464Y-17016100D01*
X17680893Y-17030386D01*
X17666607Y-17044672D01*
X17652321Y-17073243D01*
X17938036Y-16901814D02*
X17938036Y-16958957D01*
X18052321Y-16901814D02*
X18052321Y-16958957D01*
X18495178Y-17316100D02*
X18480893Y-17301814D01*
X18452321Y-17258957D01*
X18438036Y-17230386D01*
X18423750Y-17187529D01*
X18409464Y-17116100D01*
X18409464Y-17058957D01*
X18423750Y-16987529D01*
X18438036Y-16944672D01*
X18452321Y-16916100D01*
X18480893Y-16873243D01*
X18495178Y-16858957D01*
X18652321Y-17030386D02*
X18623750Y-17016100D01*
X18609464Y-17001814D01*
X18595178Y-16973243D01*
X18595178Y-16958957D01*
X18609464Y-16930386D01*
X18623750Y-16916100D01*
X18652321Y-16901814D01*
X18709464Y-16901814D01*
X18738036Y-16916100D01*
X18752321Y-16930386D01*
X18766607Y-16958957D01*
X18766607Y-16973243D01*
X18752321Y-17001814D01*
X18738036Y-17016100D01*
X18709464Y-17030386D01*
X18652321Y-17030386D01*
X18623750Y-17044672D01*
X18609464Y-17058957D01*
X18595178Y-17087529D01*
X18595178Y-17144672D01*
X18609464Y-17173243D01*
X18623750Y-17187529D01*
X18652321Y-17201814D01*
X18709464Y-17201814D01*
X18738036Y-17187529D01*
X18752321Y-17173243D01*
X18766607Y-17144672D01*
X18766607Y-17087529D01*
X18752321Y-17058957D01*
X18738036Y-17044672D01*
X18709464Y-17030386D01*
X18909464Y-17201814D02*
X18966607Y-17201814D01*
X18995178Y-17187529D01*
X19009464Y-17173243D01*
X19038036Y-17130386D01*
X19052321Y-17073243D01*
X19052321Y-16958957D01*
X19038036Y-16930386D01*
X19023750Y-16916100D01*
X18995178Y-16901814D01*
X18938036Y-16901814D01*
X18909464Y-16916100D01*
X18895178Y-16930386D01*
X18880893Y-16958957D01*
X18880893Y-17030386D01*
X18895178Y-17058957D01*
X18909464Y-17073243D01*
X18938036Y-17087529D01*
X18995178Y-17087529D01*
X19023750Y-17073243D01*
X19038036Y-17058957D01*
X19052321Y-17030386D01*
X19409464Y-17201814D02*
X19409464Y-16901814D01*
X19538036Y-17201814D02*
X19538036Y-17044672D01*
X19523750Y-17016100D01*
X19495178Y-17001814D01*
X19452321Y-17001814D01*
X19423750Y-17016100D01*
X19409464Y-17030386D01*
X19723750Y-17201814D02*
X19695178Y-17187529D01*
X19680893Y-17173243D01*
X19666607Y-17144672D01*
X19666607Y-17058957D01*
X19680893Y-17030386D01*
X19695178Y-17016100D01*
X19723750Y-17001814D01*
X19766607Y-17001814D01*
X19795178Y-17016100D01*
X19809464Y-17030386D01*
X19823750Y-17058957D01*
X19823750Y-17144672D01*
X19809464Y-17173243D01*
X19795178Y-17187529D01*
X19766607Y-17201814D01*
X19723750Y-17201814D01*
X19995178Y-17201814D02*
X19966607Y-17187529D01*
X19952321Y-17158957D01*
X19952321Y-16901814D01*
X20223750Y-17187529D02*
X20195178Y-17201814D01*
X20138036Y-17201814D01*
X20109464Y-17187529D01*
X20095178Y-17158957D01*
X20095178Y-17044672D01*
X20109464Y-17016100D01*
X20138036Y-17001814D01*
X20195178Y-17001814D01*
X20223750Y-17016100D01*
X20238036Y-17044672D01*
X20238036Y-17073243D01*
X20095178Y-17101814D01*
X20352321Y-17187529D02*
X20380893Y-17201814D01*
X20438036Y-17201814D01*
X20466607Y-17187529D01*
X20480893Y-17158957D01*
X20480893Y-17144672D01*
X20466607Y-17116100D01*
X20438036Y-17101814D01*
X20395178Y-17101814D01*
X20366607Y-17087529D01*
X20352321Y-17058957D01*
X20352321Y-17044672D01*
X20366607Y-17016100D01*
X20395178Y-17001814D01*
X20438036Y-17001814D01*
X20466607Y-17016100D01*
X20580893Y-17316100D02*
X20595178Y-17301814D01*
X20623750Y-17258957D01*
X20638036Y-17230386D01*
X20652321Y-17187529D01*
X20666607Y-17116100D01*
X20666607Y-17058957D01*
X20652321Y-16987529D01*
X20638036Y-16944672D01*
X20623750Y-16916100D01*
X20595178Y-16873243D01*
X20580893Y-16858957D01*
X13808750Y-17462100D02*
G75*
G03*
X13808750Y-17462100I-30000J0D01*
G01*
X14152321Y-17297814D02*
X14180893Y-17297814D01*
X14209464Y-17312100D01*
X14223750Y-17326386D01*
X14238036Y-17354957D01*
X14252321Y-17412100D01*
X14252321Y-17483529D01*
X14238036Y-17540672D01*
X14223750Y-17569243D01*
X14209464Y-17583529D01*
X14180893Y-17597814D01*
X14152321Y-17597814D01*
X14123750Y-17583529D01*
X14109464Y-17569243D01*
X14095178Y-17540672D01*
X14080893Y-17483529D01*
X14080893Y-17412100D01*
X14095178Y-17354957D01*
X14109464Y-17326386D01*
X14123750Y-17312100D01*
X14152321Y-17297814D01*
X14380893Y-17569243D02*
X14395178Y-17583529D01*
X14380893Y-17597814D01*
X14366607Y-17583529D01*
X14380893Y-17569243D01*
X14380893Y-17597814D01*
X14652321Y-17297814D02*
X14595178Y-17297814D01*
X14566607Y-17312100D01*
X14552321Y-17326386D01*
X14523750Y-17369243D01*
X14509464Y-17426386D01*
X14509464Y-17540672D01*
X14523750Y-17569243D01*
X14538036Y-17583529D01*
X14566607Y-17597814D01*
X14623750Y-17597814D01*
X14652321Y-17583529D01*
X14666607Y-17569243D01*
X14680893Y-17540672D01*
X14680893Y-17469243D01*
X14666607Y-17440672D01*
X14652321Y-17426386D01*
X14623750Y-17412100D01*
X14566607Y-17412100D01*
X14538036Y-17426386D01*
X14523750Y-17440672D01*
X14509464Y-17469243D01*
X14866607Y-17297814D02*
X14895178Y-17297814D01*
X14923750Y-17312100D01*
X14938036Y-17326386D01*
X14952321Y-17354957D01*
X14966607Y-17412100D01*
X14966607Y-17483529D01*
X14952321Y-17540672D01*
X14938036Y-17569243D01*
X14923750Y-17583529D01*
X14895178Y-17597814D01*
X14866607Y-17597814D01*
X14838036Y-17583529D01*
X14823750Y-17569243D01*
X14809464Y-17540672D01*
X14795178Y-17483529D01*
X14795178Y-17412100D01*
X14809464Y-17354957D01*
X14823750Y-17326386D01*
X14838036Y-17312100D01*
X14866607Y-17297814D01*
X15095178Y-17597814D02*
X15095178Y-17397814D01*
X15095178Y-17426386D02*
X15109464Y-17412100D01*
X15138036Y-17397814D01*
X15180893Y-17397814D01*
X15209464Y-17412100D01*
X15223750Y-17440672D01*
X15223750Y-17597814D01*
X15223750Y-17440672D02*
X15238036Y-17412100D01*
X15266607Y-17397814D01*
X15309464Y-17397814D01*
X15338036Y-17412100D01*
X15352321Y-17440672D01*
X15352321Y-17597814D01*
X15495178Y-17597814D02*
X15495178Y-17397814D01*
X15495178Y-17426386D02*
X15509464Y-17412100D01*
X15538036Y-17397814D01*
X15580893Y-17397814D01*
X15609464Y-17412100D01*
X15623750Y-17440672D01*
X15623750Y-17597814D01*
X15623750Y-17440672D02*
X15638036Y-17412100D01*
X15666607Y-17397814D01*
X15709464Y-17397814D01*
X15738036Y-17412100D01*
X15752321Y-17440672D01*
X15752321Y-17597814D01*
X16338036Y-17283529D02*
X16080893Y-17669243D01*
X16723750Y-17297814D02*
X16752321Y-17297814D01*
X16780893Y-17312100D01*
X16795178Y-17326386D01*
X16809464Y-17354957D01*
X16823750Y-17412100D01*
X16823750Y-17483529D01*
X16809464Y-17540672D01*
X16795178Y-17569243D01*
X16780893Y-17583529D01*
X16752321Y-17597814D01*
X16723750Y-17597814D01*
X16695178Y-17583529D01*
X16680893Y-17569243D01*
X16666607Y-17540672D01*
X16652321Y-17483529D01*
X16652321Y-17412100D01*
X16666607Y-17354957D01*
X16680893Y-17326386D01*
X16695178Y-17312100D01*
X16723750Y-17297814D01*
X16952321Y-17569243D02*
X16966607Y-17583529D01*
X16952321Y-17597814D01*
X16938036Y-17583529D01*
X16952321Y-17569243D01*
X16952321Y-17597814D01*
X17152321Y-17297814D02*
X17180893Y-17297814D01*
X17209464Y-17312100D01*
X17223750Y-17326386D01*
X17238036Y-17354957D01*
X17252321Y-17412100D01*
X17252321Y-17483529D01*
X17238036Y-17540672D01*
X17223750Y-17569243D01*
X17209464Y-17583529D01*
X17180893Y-17597814D01*
X17152321Y-17597814D01*
X17123750Y-17583529D01*
X17109464Y-17569243D01*
X17095178Y-17540672D01*
X17080893Y-17483529D01*
X17080893Y-17412100D01*
X17095178Y-17354957D01*
X17109464Y-17326386D01*
X17123750Y-17312100D01*
X17152321Y-17297814D01*
X17366607Y-17326386D02*
X17380893Y-17312100D01*
X17409464Y-17297814D01*
X17480893Y-17297814D01*
X17509464Y-17312100D01*
X17523750Y-17326386D01*
X17538036Y-17354957D01*
X17538036Y-17383529D01*
X17523750Y-17426386D01*
X17352321Y-17597814D01*
X17538036Y-17597814D01*
X17795178Y-17397814D02*
X17795178Y-17597814D01*
X17723750Y-17283529D02*
X17652321Y-17497814D01*
X17838036Y-17497814D01*
X17938036Y-17297814D02*
X17938036Y-17354957D01*
X18052321Y-17297814D02*
X18052321Y-17354957D01*
X18495178Y-17712100D02*
X18480893Y-17697814D01*
X18452321Y-17654957D01*
X18438036Y-17626386D01*
X18423750Y-17583529D01*
X18409464Y-17512100D01*
X18409464Y-17454957D01*
X18423750Y-17383529D01*
X18438036Y-17340672D01*
X18452321Y-17312100D01*
X18480893Y-17269243D01*
X18495178Y-17254957D01*
X18580893Y-17297814D02*
X18766607Y-17297814D01*
X18666607Y-17412100D01*
X18709464Y-17412100D01*
X18738036Y-17426386D01*
X18752321Y-17440672D01*
X18766607Y-17469243D01*
X18766607Y-17540672D01*
X18752321Y-17569243D01*
X18738036Y-17583529D01*
X18709464Y-17597814D01*
X18623750Y-17597814D01*
X18595178Y-17583529D01*
X18580893Y-17569243D01*
X19123750Y-17597814D02*
X19123750Y-17297814D01*
X19252321Y-17597814D02*
X19252321Y-17440672D01*
X19238036Y-17412100D01*
X19209464Y-17397814D01*
X19166607Y-17397814D01*
X19138036Y-17412100D01*
X19123750Y-17426386D01*
X19438036Y-17597814D02*
X19409464Y-17583529D01*
X19395178Y-17569243D01*
X19380893Y-17540672D01*
X19380893Y-17454957D01*
X19395178Y-17426386D01*
X19409464Y-17412100D01*
X19438036Y-17397814D01*
X19480893Y-17397814D01*
X19509464Y-17412100D01*
X19523750Y-17426386D01*
X19538036Y-17454957D01*
X19538036Y-17540672D01*
X19523750Y-17569243D01*
X19509464Y-17583529D01*
X19480893Y-17597814D01*
X19438036Y-17597814D01*
X19709464Y-17597814D02*
X19680893Y-17583529D01*
X19666607Y-17554957D01*
X19666607Y-17297814D01*
X19938036Y-17583529D02*
X19909464Y-17597814D01*
X19852321Y-17597814D01*
X19823750Y-17583529D01*
X19809464Y-17554957D01*
X19809464Y-17440672D01*
X19823750Y-17412100D01*
X19852321Y-17397814D01*
X19909464Y-17397814D01*
X19938036Y-17412100D01*
X19952321Y-17440672D01*
X19952321Y-17469243D01*
X19809464Y-17497814D01*
X20066607Y-17583529D02*
X20095178Y-17597814D01*
X20152321Y-17597814D01*
X20180893Y-17583529D01*
X20195178Y-17554957D01*
X20195178Y-17540672D01*
X20180893Y-17512100D01*
X20152321Y-17497814D01*
X20109464Y-17497814D01*
X20080893Y-17483529D01*
X20066607Y-17454957D01*
X20066607Y-17440672D01*
X20080893Y-17412100D01*
X20109464Y-17397814D01*
X20152321Y-17397814D01*
X20180893Y-17412100D01*
X20295178Y-17712100D02*
X20309464Y-17697814D01*
X20338036Y-17654957D01*
X20352321Y-17626386D01*
X20366607Y-17583529D01*
X20380893Y-17512100D01*
X20380893Y-17454957D01*
X20366607Y-17383529D01*
X20352321Y-17340672D01*
X20338036Y-17312100D01*
X20309464Y-17269243D01*
X20295178Y-17254957D01*
X13773750Y-17823100D02*
X13773750Y-17893100D01*
X13738750Y-17858100D02*
X13808750Y-17858100D01*
X14152321Y-17693814D02*
X14180893Y-17693814D01*
X14209464Y-17708100D01*
X14223750Y-17722386D01*
X14238036Y-17750957D01*
X14252321Y-17808100D01*
X14252321Y-17879529D01*
X14238036Y-17936672D01*
X14223750Y-17965243D01*
X14209464Y-17979529D01*
X14180893Y-17993814D01*
X14152321Y-17993814D01*
X14123750Y-17979529D01*
X14109464Y-17965243D01*
X14095178Y-17936672D01*
X14080893Y-17879529D01*
X14080893Y-17808100D01*
X14095178Y-17750957D01*
X14109464Y-17722386D01*
X14123750Y-17708100D01*
X14152321Y-17693814D01*
X14380893Y-17965243D02*
X14395178Y-17979529D01*
X14380893Y-17993814D01*
X14366607Y-17979529D01*
X14380893Y-17965243D01*
X14380893Y-17993814D01*
X14495178Y-17693814D02*
X14695178Y-17693814D01*
X14566607Y-17993814D01*
X14866607Y-17693814D02*
X14895178Y-17693814D01*
X14923750Y-17708100D01*
X14938036Y-17722386D01*
X14952321Y-17750957D01*
X14966607Y-17808100D01*
X14966607Y-17879529D01*
X14952321Y-17936672D01*
X14938036Y-17965243D01*
X14923750Y-17979529D01*
X14895178Y-17993814D01*
X14866607Y-17993814D01*
X14838036Y-17979529D01*
X14823750Y-17965243D01*
X14809464Y-17936672D01*
X14795178Y-17879529D01*
X14795178Y-17808100D01*
X14809464Y-17750957D01*
X14823750Y-17722386D01*
X14838036Y-17708100D01*
X14866607Y-17693814D01*
X15095178Y-17993814D02*
X15095178Y-17793814D01*
X15095178Y-17822386D02*
X15109464Y-17808100D01*
X15138036Y-17793814D01*
X15180893Y-17793814D01*
X15209464Y-17808100D01*
X15223750Y-17836672D01*
X15223750Y-17993814D01*
X15223750Y-17836672D02*
X15238036Y-17808100D01*
X15266607Y-17793814D01*
X15309464Y-17793814D01*
X15338036Y-17808100D01*
X15352321Y-17836672D01*
X15352321Y-17993814D01*
X15495178Y-17993814D02*
X15495178Y-17793814D01*
X15495178Y-17822386D02*
X15509464Y-17808100D01*
X15538036Y-17793814D01*
X15580893Y-17793814D01*
X15609464Y-17808100D01*
X15623750Y-17836672D01*
X15623750Y-17993814D01*
X15623750Y-17836672D02*
X15638036Y-17808100D01*
X15666607Y-17793814D01*
X15709464Y-17793814D01*
X15738036Y-17808100D01*
X15752321Y-17836672D01*
X15752321Y-17993814D01*
X16338036Y-17679529D02*
X16080893Y-18065243D01*
X16723750Y-17693814D02*
X16752321Y-17693814D01*
X16780893Y-17708100D01*
X16795178Y-17722386D01*
X16809464Y-17750957D01*
X16823750Y-17808100D01*
X16823750Y-17879529D01*
X16809464Y-17936672D01*
X16795178Y-17965243D01*
X16780893Y-17979529D01*
X16752321Y-17993814D01*
X16723750Y-17993814D01*
X16695178Y-17979529D01*
X16680893Y-17965243D01*
X16666607Y-17936672D01*
X16652321Y-17879529D01*
X16652321Y-17808100D01*
X16666607Y-17750957D01*
X16680893Y-17722386D01*
X16695178Y-17708100D01*
X16723750Y-17693814D01*
X16952321Y-17965243D02*
X16966607Y-17979529D01*
X16952321Y-17993814D01*
X16938036Y-17979529D01*
X16952321Y-17965243D01*
X16952321Y-17993814D01*
X17152321Y-17693814D02*
X17180893Y-17693814D01*
X17209464Y-17708100D01*
X17223750Y-17722386D01*
X17238036Y-17750957D01*
X17252321Y-17808100D01*
X17252321Y-17879529D01*
X17238036Y-17936672D01*
X17223750Y-17965243D01*
X17209464Y-17979529D01*
X17180893Y-17993814D01*
X17152321Y-17993814D01*
X17123750Y-17979529D01*
X17109464Y-17965243D01*
X17095178Y-17936672D01*
X17080893Y-17879529D01*
X17080893Y-17808100D01*
X17095178Y-17750957D01*
X17109464Y-17722386D01*
X17123750Y-17708100D01*
X17152321Y-17693814D01*
X17366607Y-17722386D02*
X17380893Y-17708100D01*
X17409464Y-17693814D01*
X17480893Y-17693814D01*
X17509464Y-17708100D01*
X17523750Y-17722386D01*
X17538036Y-17750957D01*
X17538036Y-17779529D01*
X17523750Y-17822386D01*
X17352321Y-17993814D01*
X17538036Y-17993814D01*
X17709464Y-17822386D02*
X17680893Y-17808100D01*
X17666607Y-17793814D01*
X17652321Y-17765243D01*
X17652321Y-17750957D01*
X17666607Y-17722386D01*
X17680893Y-17708100D01*
X17709464Y-17693814D01*
X17766607Y-17693814D01*
X17795178Y-17708100D01*
X17809464Y-17722386D01*
X17823750Y-17750957D01*
X17823750Y-17765243D01*
X17809464Y-17793814D01*
X17795178Y-17808100D01*
X17766607Y-17822386D01*
X17709464Y-17822386D01*
X17680893Y-17836672D01*
X17666607Y-17850957D01*
X17652321Y-17879529D01*
X17652321Y-17936672D01*
X17666607Y-17965243D01*
X17680893Y-17979529D01*
X17709464Y-17993814D01*
X17766607Y-17993814D01*
X17795178Y-17979529D01*
X17809464Y-17965243D01*
X17823750Y-17936672D01*
X17823750Y-17879529D01*
X17809464Y-17850957D01*
X17795178Y-17836672D01*
X17766607Y-17822386D01*
X17938036Y-17693814D02*
X17938036Y-17750957D01*
X18052321Y-17693814D02*
X18052321Y-17750957D01*
X18495178Y-18108100D02*
X18480893Y-18093814D01*
X18452321Y-18050957D01*
X18438036Y-18022386D01*
X18423750Y-17979529D01*
X18409464Y-17908100D01*
X18409464Y-17850957D01*
X18423750Y-17779529D01*
X18438036Y-17736672D01*
X18452321Y-17708100D01*
X18480893Y-17665243D01*
X18495178Y-17650957D01*
X18652321Y-17822386D02*
X18623750Y-17808100D01*
X18609464Y-17793814D01*
X18595178Y-17765243D01*
X18595178Y-17750957D01*
X18609464Y-17722386D01*
X18623750Y-17708100D01*
X18652321Y-17693814D01*
X18709464Y-17693814D01*
X18738036Y-17708100D01*
X18752321Y-17722386D01*
X18766607Y-17750957D01*
X18766607Y-17765243D01*
X18752321Y-17793814D01*
X18738036Y-17808100D01*
X18709464Y-17822386D01*
X18652321Y-17822386D01*
X18623750Y-17836672D01*
X18609464Y-17850957D01*
X18595178Y-17879529D01*
X18595178Y-17936672D01*
X18609464Y-17965243D01*
X18623750Y-17979529D01*
X18652321Y-17993814D01*
X18709464Y-17993814D01*
X18738036Y-17979529D01*
X18752321Y-17965243D01*
X18766607Y-17936672D01*
X18766607Y-17879529D01*
X18752321Y-17850957D01*
X18738036Y-17836672D01*
X18709464Y-17822386D01*
X19123750Y-17993814D02*
X19123750Y-17693814D01*
X19252321Y-17993814D02*
X19252321Y-17836672D01*
X19238036Y-17808100D01*
X19209464Y-17793814D01*
X19166607Y-17793814D01*
X19138036Y-17808100D01*
X19123750Y-17822386D01*
X19438036Y-17993814D02*
X19409464Y-17979529D01*
X19395178Y-17965243D01*
X19380893Y-17936672D01*
X19380893Y-17850957D01*
X19395178Y-17822386D01*
X19409464Y-17808100D01*
X19438036Y-17793814D01*
X19480893Y-17793814D01*
X19509464Y-17808100D01*
X19523750Y-17822386D01*
X19538036Y-17850957D01*
X19538036Y-17936672D01*
X19523750Y-17965243D01*
X19509464Y-17979529D01*
X19480893Y-17993814D01*
X19438036Y-17993814D01*
X19709464Y-17993814D02*
X19680893Y-17979529D01*
X19666607Y-17950957D01*
X19666607Y-17693814D01*
X19938036Y-17979529D02*
X19909464Y-17993814D01*
X19852321Y-17993814D01*
X19823750Y-17979529D01*
X19809464Y-17950957D01*
X19809464Y-17836672D01*
X19823750Y-17808100D01*
X19852321Y-17793814D01*
X19909464Y-17793814D01*
X19938036Y-17808100D01*
X19952321Y-17836672D01*
X19952321Y-17865243D01*
X19809464Y-17893814D01*
X20066607Y-17979529D02*
X20095178Y-17993814D01*
X20152321Y-17993814D01*
X20180893Y-17979529D01*
X20195178Y-17950957D01*
X20195178Y-17936672D01*
X20180893Y-17908100D01*
X20152321Y-17893814D01*
X20109464Y-17893814D01*
X20080893Y-17879529D01*
X20066607Y-17850957D01*
X20066607Y-17836672D01*
X20080893Y-17808100D01*
X20109464Y-17793814D01*
X20152321Y-17793814D01*
X20180893Y-17808100D01*
X20295178Y-18108100D02*
X20309464Y-18093814D01*
X20338036Y-18050957D01*
X20352321Y-18022386D01*
X20366607Y-17979529D01*
X20380893Y-17908100D01*
X20380893Y-17850957D01*
X20366607Y-17779529D01*
X20352321Y-17736672D01*
X20338036Y-17708100D01*
X20309464Y-17665243D01*
X20295178Y-17650957D01*
X13797034Y-18282385D02*
X13797034Y-18225816D01*
X13740465Y-18225816D01*
X13740465Y-18282385D01*
X13797034Y-18282385D01*
X14152321Y-18089814D02*
X14180893Y-18089814D01*
X14209464Y-18104100D01*
X14223750Y-18118386D01*
X14238036Y-18146957D01*
X14252321Y-18204100D01*
X14252321Y-18275529D01*
X14238036Y-18332672D01*
X14223750Y-18361243D01*
X14209464Y-18375529D01*
X14180893Y-18389814D01*
X14152321Y-18389814D01*
X14123750Y-18375529D01*
X14109464Y-18361243D01*
X14095178Y-18332672D01*
X14080893Y-18275529D01*
X14080893Y-18204100D01*
X14095178Y-18146957D01*
X14109464Y-18118386D01*
X14123750Y-18104100D01*
X14152321Y-18089814D01*
X14380893Y-18361243D02*
X14395178Y-18375529D01*
X14380893Y-18389814D01*
X14366607Y-18375529D01*
X14380893Y-18361243D01*
X14380893Y-18389814D01*
X14566607Y-18218386D02*
X14538036Y-18204100D01*
X14523750Y-18189814D01*
X14509464Y-18161243D01*
X14509464Y-18146957D01*
X14523750Y-18118386D01*
X14538036Y-18104100D01*
X14566607Y-18089814D01*
X14623750Y-18089814D01*
X14652321Y-18104100D01*
X14666607Y-18118386D01*
X14680893Y-18146957D01*
X14680893Y-18161243D01*
X14666607Y-18189814D01*
X14652321Y-18204100D01*
X14623750Y-18218386D01*
X14566607Y-18218386D01*
X14538036Y-18232672D01*
X14523750Y-18246957D01*
X14509464Y-18275529D01*
X14509464Y-18332672D01*
X14523750Y-18361243D01*
X14538036Y-18375529D01*
X14566607Y-18389814D01*
X14623750Y-18389814D01*
X14652321Y-18375529D01*
X14666607Y-18361243D01*
X14680893Y-18332672D01*
X14680893Y-18275529D01*
X14666607Y-18246957D01*
X14652321Y-18232672D01*
X14623750Y-18218386D01*
X14866607Y-18089814D02*
X14895178Y-18089814D01*
X14923750Y-18104100D01*
X14938036Y-18118386D01*
X14952321Y-18146957D01*
X14966607Y-18204100D01*
X14966607Y-18275529D01*
X14952321Y-18332672D01*
X14938036Y-18361243D01*
X14923750Y-18375529D01*
X14895178Y-18389814D01*
X14866607Y-18389814D01*
X14838036Y-18375529D01*
X14823750Y-18361243D01*
X14809464Y-18332672D01*
X14795178Y-18275529D01*
X14795178Y-18204100D01*
X14809464Y-18146957D01*
X14823750Y-18118386D01*
X14838036Y-18104100D01*
X14866607Y-18089814D01*
X15095178Y-18389814D02*
X15095178Y-18189814D01*
X15095178Y-18218386D02*
X15109464Y-18204100D01*
X15138036Y-18189814D01*
X15180893Y-18189814D01*
X15209464Y-18204100D01*
X15223750Y-18232672D01*
X15223750Y-18389814D01*
X15223750Y-18232672D02*
X15238036Y-18204100D01*
X15266607Y-18189814D01*
X15309464Y-18189814D01*
X15338036Y-18204100D01*
X15352321Y-18232672D01*
X15352321Y-18389814D01*
X15495178Y-18389814D02*
X15495178Y-18189814D01*
X15495178Y-18218386D02*
X15509464Y-18204100D01*
X15538036Y-18189814D01*
X15580893Y-18189814D01*
X15609464Y-18204100D01*
X15623750Y-18232672D01*
X15623750Y-18389814D01*
X15623750Y-18232672D02*
X15638036Y-18204100D01*
X15666607Y-18189814D01*
X15709464Y-18189814D01*
X15738036Y-18204100D01*
X15752321Y-18232672D01*
X15752321Y-18389814D01*
X16338036Y-18075529D02*
X16080893Y-18461243D01*
X16723750Y-18089814D02*
X16752321Y-18089814D01*
X16780893Y-18104100D01*
X16795178Y-18118386D01*
X16809464Y-18146957D01*
X16823750Y-18204100D01*
X16823750Y-18275529D01*
X16809464Y-18332672D01*
X16795178Y-18361243D01*
X16780893Y-18375529D01*
X16752321Y-18389814D01*
X16723750Y-18389814D01*
X16695178Y-18375529D01*
X16680893Y-18361243D01*
X16666607Y-18332672D01*
X16652321Y-18275529D01*
X16652321Y-18204100D01*
X16666607Y-18146957D01*
X16680893Y-18118386D01*
X16695178Y-18104100D01*
X16723750Y-18089814D01*
X16952321Y-18361243D02*
X16966607Y-18375529D01*
X16952321Y-18389814D01*
X16938036Y-18375529D01*
X16952321Y-18361243D01*
X16952321Y-18389814D01*
X17152321Y-18089814D02*
X17180893Y-18089814D01*
X17209464Y-18104100D01*
X17223750Y-18118386D01*
X17238036Y-18146957D01*
X17252321Y-18204100D01*
X17252321Y-18275529D01*
X17238036Y-18332672D01*
X17223750Y-18361243D01*
X17209464Y-18375529D01*
X17180893Y-18389814D01*
X17152321Y-18389814D01*
X17123750Y-18375529D01*
X17109464Y-18361243D01*
X17095178Y-18332672D01*
X17080893Y-18275529D01*
X17080893Y-18204100D01*
X17095178Y-18146957D01*
X17109464Y-18118386D01*
X17123750Y-18104100D01*
X17152321Y-18089814D01*
X17352321Y-18089814D02*
X17538036Y-18089814D01*
X17438036Y-18204100D01*
X17480893Y-18204100D01*
X17509464Y-18218386D01*
X17523750Y-18232672D01*
X17538036Y-18261243D01*
X17538036Y-18332672D01*
X17523750Y-18361243D01*
X17509464Y-18375529D01*
X17480893Y-18389814D01*
X17395178Y-18389814D01*
X17366607Y-18375529D01*
X17352321Y-18361243D01*
X17823750Y-18389814D02*
X17652321Y-18389814D01*
X17738036Y-18389814D02*
X17738036Y-18089814D01*
X17709464Y-18132672D01*
X17680893Y-18161243D01*
X17652321Y-18175529D01*
X17938036Y-18089814D02*
X17938036Y-18146957D01*
X18052321Y-18089814D02*
X18052321Y-18146957D01*
X18495178Y-18504100D02*
X18480893Y-18489814D01*
X18452321Y-18446957D01*
X18438036Y-18418386D01*
X18423750Y-18375529D01*
X18409464Y-18304100D01*
X18409464Y-18246957D01*
X18423750Y-18175529D01*
X18438036Y-18132672D01*
X18452321Y-18104100D01*
X18480893Y-18061243D01*
X18495178Y-18046957D01*
X18652321Y-18218386D02*
X18623750Y-18204100D01*
X18609464Y-18189814D01*
X18595178Y-18161243D01*
X18595178Y-18146957D01*
X18609464Y-18118386D01*
X18623750Y-18104100D01*
X18652321Y-18089814D01*
X18709464Y-18089814D01*
X18738036Y-18104100D01*
X18752321Y-18118386D01*
X18766607Y-18146957D01*
X18766607Y-18161243D01*
X18752321Y-18189814D01*
X18738036Y-18204100D01*
X18709464Y-18218386D01*
X18652321Y-18218386D01*
X18623750Y-18232672D01*
X18609464Y-18246957D01*
X18595178Y-18275529D01*
X18595178Y-18332672D01*
X18609464Y-18361243D01*
X18623750Y-18375529D01*
X18652321Y-18389814D01*
X18709464Y-18389814D01*
X18738036Y-18375529D01*
X18752321Y-18361243D01*
X18766607Y-18332672D01*
X18766607Y-18275529D01*
X18752321Y-18246957D01*
X18738036Y-18232672D01*
X18709464Y-18218386D01*
X19123750Y-18389814D02*
X19123750Y-18089814D01*
X19252321Y-18389814D02*
X19252321Y-18232672D01*
X19238036Y-18204100D01*
X19209464Y-18189814D01*
X19166607Y-18189814D01*
X19138036Y-18204100D01*
X19123750Y-18218386D01*
X19438036Y-18389814D02*
X19409464Y-18375529D01*
X19395178Y-18361243D01*
X19380893Y-18332672D01*
X19380893Y-18246957D01*
X19395178Y-18218386D01*
X19409464Y-18204100D01*
X19438036Y-18189814D01*
X19480893Y-18189814D01*
X19509464Y-18204100D01*
X19523750Y-18218386D01*
X19538036Y-18246957D01*
X19538036Y-18332672D01*
X19523750Y-18361243D01*
X19509464Y-18375529D01*
X19480893Y-18389814D01*
X19438036Y-18389814D01*
X19709464Y-18389814D02*
X19680893Y-18375529D01*
X19666607Y-18346957D01*
X19666607Y-18089814D01*
X19938036Y-18375529D02*
X19909464Y-18389814D01*
X19852321Y-18389814D01*
X19823750Y-18375529D01*
X19809464Y-18346957D01*
X19809464Y-18232672D01*
X19823750Y-18204100D01*
X19852321Y-18189814D01*
X19909464Y-18189814D01*
X19938036Y-18204100D01*
X19952321Y-18232672D01*
X19952321Y-18261243D01*
X19809464Y-18289814D01*
X20066607Y-18375529D02*
X20095178Y-18389814D01*
X20152321Y-18389814D01*
X20180893Y-18375529D01*
X20195178Y-18346957D01*
X20195178Y-18332672D01*
X20180893Y-18304100D01*
X20152321Y-18289814D01*
X20109464Y-18289814D01*
X20080893Y-18275529D01*
X20066607Y-18246957D01*
X20066607Y-18232672D01*
X20080893Y-18204100D01*
X20109464Y-18189814D01*
X20152321Y-18189814D01*
X20180893Y-18204100D01*
X20295178Y-18504100D02*
X20309464Y-18489814D01*
X20338036Y-18446957D01*
X20352321Y-18418386D01*
X20366607Y-18375529D01*
X20380893Y-18304100D01*
X20380893Y-18246957D01*
X20366607Y-18175529D01*
X20352321Y-18132672D01*
X20338036Y-18104100D01*
X20309464Y-18061243D01*
X20295178Y-18046957D01*
X13758750Y-18700100D02*
X13808750Y-18650100D01*
X13758750Y-18600100D01*
X13708750Y-18650100D01*
X13758750Y-18700100D01*
X14252321Y-18785814D02*
X14080893Y-18785814D01*
X14166607Y-18785814D02*
X14166607Y-18485814D01*
X14138036Y-18528672D01*
X14109464Y-18557243D01*
X14080893Y-18571529D01*
X14380893Y-18757243D02*
X14395178Y-18771529D01*
X14380893Y-18785814D01*
X14366607Y-18771529D01*
X14380893Y-18757243D01*
X14380893Y-18785814D01*
X14580893Y-18485814D02*
X14609464Y-18485814D01*
X14638036Y-18500100D01*
X14652321Y-18514386D01*
X14666607Y-18542957D01*
X14680893Y-18600100D01*
X14680893Y-18671529D01*
X14666607Y-18728672D01*
X14652321Y-18757243D01*
X14638036Y-18771529D01*
X14609464Y-18785814D01*
X14580893Y-18785814D01*
X14552321Y-18771529D01*
X14538036Y-18757243D01*
X14523750Y-18728672D01*
X14509464Y-18671529D01*
X14509464Y-18600100D01*
X14523750Y-18542957D01*
X14538036Y-18514386D01*
X14552321Y-18500100D01*
X14580893Y-18485814D01*
X14866607Y-18485814D02*
X14895178Y-18485814D01*
X14923750Y-18500100D01*
X14938036Y-18514386D01*
X14952321Y-18542957D01*
X14966607Y-18600100D01*
X14966607Y-18671529D01*
X14952321Y-18728672D01*
X14938036Y-18757243D01*
X14923750Y-18771529D01*
X14895178Y-18785814D01*
X14866607Y-18785814D01*
X14838036Y-18771529D01*
X14823750Y-18757243D01*
X14809464Y-18728672D01*
X14795178Y-18671529D01*
X14795178Y-18600100D01*
X14809464Y-18542957D01*
X14823750Y-18514386D01*
X14838036Y-18500100D01*
X14866607Y-18485814D01*
X15095178Y-18785814D02*
X15095178Y-18585814D01*
X15095178Y-18614386D02*
X15109464Y-18600100D01*
X15138036Y-18585814D01*
X15180893Y-18585814D01*
X15209464Y-18600100D01*
X15223750Y-18628672D01*
X15223750Y-18785814D01*
X15223750Y-18628672D02*
X15238036Y-18600100D01*
X15266607Y-18585814D01*
X15309464Y-18585814D01*
X15338036Y-18600100D01*
X15352321Y-18628672D01*
X15352321Y-18785814D01*
X15495178Y-18785814D02*
X15495178Y-18585814D01*
X15495178Y-18614386D02*
X15509464Y-18600100D01*
X15538036Y-18585814D01*
X15580893Y-18585814D01*
X15609464Y-18600100D01*
X15623750Y-18628672D01*
X15623750Y-18785814D01*
X15623750Y-18628672D02*
X15638036Y-18600100D01*
X15666607Y-18585814D01*
X15709464Y-18585814D01*
X15738036Y-18600100D01*
X15752321Y-18628672D01*
X15752321Y-18785814D01*
X16338036Y-18471529D02*
X16080893Y-18857243D01*
X16723750Y-18485814D02*
X16752321Y-18485814D01*
X16780893Y-18500100D01*
X16795178Y-18514386D01*
X16809464Y-18542957D01*
X16823750Y-18600100D01*
X16823750Y-18671529D01*
X16809464Y-18728672D01*
X16795178Y-18757243D01*
X16780893Y-18771529D01*
X16752321Y-18785814D01*
X16723750Y-18785814D01*
X16695178Y-18771529D01*
X16680893Y-18757243D01*
X16666607Y-18728672D01*
X16652321Y-18671529D01*
X16652321Y-18600100D01*
X16666607Y-18542957D01*
X16680893Y-18514386D01*
X16695178Y-18500100D01*
X16723750Y-18485814D01*
X16952321Y-18757243D02*
X16966607Y-18771529D01*
X16952321Y-18785814D01*
X16938036Y-18771529D01*
X16952321Y-18757243D01*
X16952321Y-18785814D01*
X17152321Y-18485814D02*
X17180893Y-18485814D01*
X17209464Y-18500100D01*
X17223750Y-18514386D01*
X17238036Y-18542957D01*
X17252321Y-18600100D01*
X17252321Y-18671529D01*
X17238036Y-18728672D01*
X17223750Y-18757243D01*
X17209464Y-18771529D01*
X17180893Y-18785814D01*
X17152321Y-18785814D01*
X17123750Y-18771529D01*
X17109464Y-18757243D01*
X17095178Y-18728672D01*
X17080893Y-18671529D01*
X17080893Y-18600100D01*
X17095178Y-18542957D01*
X17109464Y-18514386D01*
X17123750Y-18500100D01*
X17152321Y-18485814D01*
X17352321Y-18485814D02*
X17538036Y-18485814D01*
X17438036Y-18600100D01*
X17480893Y-18600100D01*
X17509464Y-18614386D01*
X17523750Y-18628672D01*
X17538036Y-18657243D01*
X17538036Y-18728672D01*
X17523750Y-18757243D01*
X17509464Y-18771529D01*
X17480893Y-18785814D01*
X17395178Y-18785814D01*
X17366607Y-18771529D01*
X17352321Y-18757243D01*
X17680893Y-18785814D02*
X17738036Y-18785814D01*
X17766607Y-18771529D01*
X17780893Y-18757243D01*
X17809464Y-18714386D01*
X17823750Y-18657243D01*
X17823750Y-18542957D01*
X17809464Y-18514386D01*
X17795178Y-18500100D01*
X17766607Y-18485814D01*
X17709464Y-18485814D01*
X17680893Y-18500100D01*
X17666607Y-18514386D01*
X17652321Y-18542957D01*
X17652321Y-18614386D01*
X17666607Y-18642957D01*
X17680893Y-18657243D01*
X17709464Y-18671529D01*
X17766607Y-18671529D01*
X17795178Y-18657243D01*
X17809464Y-18642957D01*
X17823750Y-18614386D01*
X17938036Y-18485814D02*
X17938036Y-18542957D01*
X18052321Y-18485814D02*
X18052321Y-18542957D01*
X18495178Y-18900100D02*
X18480893Y-18885814D01*
X18452321Y-18842957D01*
X18438036Y-18814386D01*
X18423750Y-18771529D01*
X18409464Y-18700100D01*
X18409464Y-18642957D01*
X18423750Y-18571529D01*
X18438036Y-18528672D01*
X18452321Y-18500100D01*
X18480893Y-18457243D01*
X18495178Y-18442957D01*
X18580893Y-18485814D02*
X18766607Y-18485814D01*
X18666607Y-18600100D01*
X18709464Y-18600100D01*
X18738036Y-18614386D01*
X18752321Y-18628672D01*
X18766607Y-18657243D01*
X18766607Y-18728672D01*
X18752321Y-18757243D01*
X18738036Y-18771529D01*
X18709464Y-18785814D01*
X18623750Y-18785814D01*
X18595178Y-18771529D01*
X18580893Y-18757243D01*
X19023750Y-18485814D02*
X18966607Y-18485814D01*
X18938036Y-18500100D01*
X18923750Y-18514386D01*
X18895178Y-18557243D01*
X18880893Y-18614386D01*
X18880893Y-18728672D01*
X18895178Y-18757243D01*
X18909464Y-18771529D01*
X18938036Y-18785814D01*
X18995178Y-18785814D01*
X19023750Y-18771529D01*
X19038036Y-18757243D01*
X19052321Y-18728672D01*
X19052321Y-18657243D01*
X19038036Y-18628672D01*
X19023750Y-18614386D01*
X18995178Y-18600100D01*
X18938036Y-18600100D01*
X18909464Y-18614386D01*
X18895178Y-18628672D01*
X18880893Y-18657243D01*
X19409464Y-18785814D02*
X19409464Y-18485814D01*
X19538036Y-18785814D02*
X19538036Y-18628672D01*
X19523750Y-18600100D01*
X19495178Y-18585814D01*
X19452321Y-18585814D01*
X19423750Y-18600100D01*
X19409464Y-18614386D01*
X19723750Y-18785814D02*
X19695178Y-18771529D01*
X19680893Y-18757243D01*
X19666607Y-18728672D01*
X19666607Y-18642957D01*
X19680893Y-18614386D01*
X19695178Y-18600100D01*
X19723750Y-18585814D01*
X19766607Y-18585814D01*
X19795178Y-18600100D01*
X19809464Y-18614386D01*
X19823750Y-18642957D01*
X19823750Y-18728672D01*
X19809464Y-18757243D01*
X19795178Y-18771529D01*
X19766607Y-18785814D01*
X19723750Y-18785814D01*
X19995178Y-18785814D02*
X19966607Y-18771529D01*
X19952321Y-18742957D01*
X19952321Y-18485814D01*
X20223750Y-18771529D02*
X20195178Y-18785814D01*
X20138036Y-18785814D01*
X20109464Y-18771529D01*
X20095178Y-18742957D01*
X20095178Y-18628672D01*
X20109464Y-18600100D01*
X20138036Y-18585814D01*
X20195178Y-18585814D01*
X20223750Y-18600100D01*
X20238036Y-18628672D01*
X20238036Y-18657243D01*
X20095178Y-18685814D01*
X20352321Y-18771529D02*
X20380893Y-18785814D01*
X20438036Y-18785814D01*
X20466607Y-18771529D01*
X20480893Y-18742957D01*
X20480893Y-18728672D01*
X20466607Y-18700100D01*
X20438036Y-18685814D01*
X20395178Y-18685814D01*
X20366607Y-18671529D01*
X20352321Y-18642957D01*
X20352321Y-18628672D01*
X20366607Y-18600100D01*
X20395178Y-18585814D01*
X20438036Y-18585814D01*
X20466607Y-18600100D01*
X20580893Y-18900100D02*
X20595178Y-18885814D01*
X20623750Y-18842957D01*
X20638036Y-18814386D01*
X20652321Y-18771529D01*
X20666607Y-18700100D01*
X20666607Y-18642957D01*
X20652321Y-18571529D01*
X20638036Y-18528672D01*
X20623750Y-18500100D01*
X20595178Y-18457243D01*
X20580893Y-18442957D01*
X13688750Y-18986100D02*
X13808750Y-19106100D01*
X13808750Y-18986100D02*
X13688750Y-19106100D01*
X13808750Y-19046100D02*
G75*
G03*
X13808750Y-19046100I-60000J0D01*
G01*
X14252321Y-19181814D02*
X14080893Y-19181814D01*
X14166607Y-19181814D02*
X14166607Y-18881814D01*
X14138036Y-18924672D01*
X14109464Y-18953243D01*
X14080893Y-18967529D01*
X14380893Y-19153243D02*
X14395178Y-19167529D01*
X14380893Y-19181814D01*
X14366607Y-19167529D01*
X14380893Y-19153243D01*
X14380893Y-19181814D01*
X14509464Y-18910386D02*
X14523750Y-18896100D01*
X14552321Y-18881814D01*
X14623750Y-18881814D01*
X14652321Y-18896100D01*
X14666607Y-18910386D01*
X14680893Y-18938957D01*
X14680893Y-18967529D01*
X14666607Y-19010386D01*
X14495178Y-19181814D01*
X14680893Y-19181814D01*
X14866607Y-18881814D02*
X14895178Y-18881814D01*
X14923750Y-18896100D01*
X14938036Y-18910386D01*
X14952321Y-18938957D01*
X14966607Y-18996100D01*
X14966607Y-19067529D01*
X14952321Y-19124672D01*
X14938036Y-19153243D01*
X14923750Y-19167529D01*
X14895178Y-19181814D01*
X14866607Y-19181814D01*
X14838036Y-19167529D01*
X14823750Y-19153243D01*
X14809464Y-19124672D01*
X14795178Y-19067529D01*
X14795178Y-18996100D01*
X14809464Y-18938957D01*
X14823750Y-18910386D01*
X14838036Y-18896100D01*
X14866607Y-18881814D01*
X15095178Y-19181814D02*
X15095178Y-18981814D01*
X15095178Y-19010386D02*
X15109464Y-18996100D01*
X15138036Y-18981814D01*
X15180893Y-18981814D01*
X15209464Y-18996100D01*
X15223750Y-19024672D01*
X15223750Y-19181814D01*
X15223750Y-19024672D02*
X15238036Y-18996100D01*
X15266607Y-18981814D01*
X15309464Y-18981814D01*
X15338036Y-18996100D01*
X15352321Y-19024672D01*
X15352321Y-19181814D01*
X15495178Y-19181814D02*
X15495178Y-18981814D01*
X15495178Y-19010386D02*
X15509464Y-18996100D01*
X15538036Y-18981814D01*
X15580893Y-18981814D01*
X15609464Y-18996100D01*
X15623750Y-19024672D01*
X15623750Y-19181814D01*
X15623750Y-19024672D02*
X15638036Y-18996100D01*
X15666607Y-18981814D01*
X15709464Y-18981814D01*
X15738036Y-18996100D01*
X15752321Y-19024672D01*
X15752321Y-19181814D01*
X16338036Y-18867529D02*
X16080893Y-19253243D01*
X16723750Y-18881814D02*
X16752321Y-18881814D01*
X16780893Y-18896100D01*
X16795178Y-18910386D01*
X16809464Y-18938957D01*
X16823750Y-18996100D01*
X16823750Y-19067529D01*
X16809464Y-19124672D01*
X16795178Y-19153243D01*
X16780893Y-19167529D01*
X16752321Y-19181814D01*
X16723750Y-19181814D01*
X16695178Y-19167529D01*
X16680893Y-19153243D01*
X16666607Y-19124672D01*
X16652321Y-19067529D01*
X16652321Y-18996100D01*
X16666607Y-18938957D01*
X16680893Y-18910386D01*
X16695178Y-18896100D01*
X16723750Y-18881814D01*
X16952321Y-19153243D02*
X16966607Y-19167529D01*
X16952321Y-19181814D01*
X16938036Y-19167529D01*
X16952321Y-19153243D01*
X16952321Y-19181814D01*
X17152321Y-18881814D02*
X17180893Y-18881814D01*
X17209464Y-18896100D01*
X17223750Y-18910386D01*
X17238036Y-18938957D01*
X17252321Y-18996100D01*
X17252321Y-19067529D01*
X17238036Y-19124672D01*
X17223750Y-19153243D01*
X17209464Y-19167529D01*
X17180893Y-19181814D01*
X17152321Y-19181814D01*
X17123750Y-19167529D01*
X17109464Y-19153243D01*
X17095178Y-19124672D01*
X17080893Y-19067529D01*
X17080893Y-18996100D01*
X17095178Y-18938957D01*
X17109464Y-18910386D01*
X17123750Y-18896100D01*
X17152321Y-18881814D01*
X17509464Y-18981814D02*
X17509464Y-19181814D01*
X17438036Y-18867529D02*
X17366607Y-19081814D01*
X17552321Y-19081814D01*
X17638036Y-18881814D02*
X17838036Y-18881814D01*
X17709464Y-19181814D01*
X17938036Y-18881814D02*
X17938036Y-18938957D01*
X18052321Y-18881814D02*
X18052321Y-18938957D01*
X18495178Y-19296100D02*
X18480893Y-19281814D01*
X18452321Y-19238957D01*
X18438036Y-19210386D01*
X18423750Y-19167529D01*
X18409464Y-19096100D01*
X18409464Y-19038957D01*
X18423750Y-18967529D01*
X18438036Y-18924672D01*
X18452321Y-18896100D01*
X18480893Y-18853243D01*
X18495178Y-18838957D01*
X18752321Y-18881814D02*
X18609464Y-18881814D01*
X18595178Y-19024672D01*
X18609464Y-19010386D01*
X18638036Y-18996100D01*
X18709464Y-18996100D01*
X18738036Y-19010386D01*
X18752321Y-19024672D01*
X18766607Y-19053243D01*
X18766607Y-19124672D01*
X18752321Y-19153243D01*
X18738036Y-19167529D01*
X18709464Y-19181814D01*
X18638036Y-19181814D01*
X18609464Y-19167529D01*
X18595178Y-19153243D01*
X19123750Y-19181814D02*
X19123750Y-18881814D01*
X19252321Y-19181814D02*
X19252321Y-19024672D01*
X19238036Y-18996100D01*
X19209464Y-18981814D01*
X19166607Y-18981814D01*
X19138036Y-18996100D01*
X19123750Y-19010386D01*
X19438036Y-19181814D02*
X19409464Y-19167529D01*
X19395178Y-19153243D01*
X19380893Y-19124672D01*
X19380893Y-19038957D01*
X19395178Y-19010386D01*
X19409464Y-18996100D01*
X19438036Y-18981814D01*
X19480893Y-18981814D01*
X19509464Y-18996100D01*
X19523750Y-19010386D01*
X19538036Y-19038957D01*
X19538036Y-19124672D01*
X19523750Y-19153243D01*
X19509464Y-19167529D01*
X19480893Y-19181814D01*
X19438036Y-19181814D01*
X19709464Y-19181814D02*
X19680893Y-19167529D01*
X19666607Y-19138957D01*
X19666607Y-18881814D01*
X19938036Y-19167529D02*
X19909464Y-19181814D01*
X19852321Y-19181814D01*
X19823750Y-19167529D01*
X19809464Y-19138957D01*
X19809464Y-19024672D01*
X19823750Y-18996100D01*
X19852321Y-18981814D01*
X19909464Y-18981814D01*
X19938036Y-18996100D01*
X19952321Y-19024672D01*
X19952321Y-19053243D01*
X19809464Y-19081814D01*
X20066607Y-19167529D02*
X20095178Y-19181814D01*
X20152321Y-19181814D01*
X20180893Y-19167529D01*
X20195178Y-19138957D01*
X20195178Y-19124672D01*
X20180893Y-19096100D01*
X20152321Y-19081814D01*
X20109464Y-19081814D01*
X20080893Y-19067529D01*
X20066607Y-19038957D01*
X20066607Y-19024672D01*
X20080893Y-18996100D01*
X20109464Y-18981814D01*
X20152321Y-18981814D01*
X20180893Y-18996100D01*
X20295178Y-19296100D02*
X20309464Y-19281814D01*
X20338036Y-19238957D01*
X20352321Y-19210386D01*
X20366607Y-19167529D01*
X20380893Y-19096100D01*
X20380893Y-19038957D01*
X20366607Y-18967529D01*
X20352321Y-18924672D01*
X20338036Y-18896100D01*
X20309464Y-18853243D01*
X20295178Y-18838957D01*
X13658750Y-19367100D02*
X13808750Y-19517100D01*
X13808750Y-19367100D02*
X13658750Y-19517100D01*
X13733750Y-19367100D02*
X13733750Y-19517100D01*
X13658750Y-19442100D02*
X13808750Y-19442100D01*
X14252321Y-19577814D02*
X14080893Y-19577814D01*
X14166607Y-19577814D02*
X14166607Y-19277814D01*
X14138036Y-19320672D01*
X14109464Y-19349243D01*
X14080893Y-19363529D01*
X14380893Y-19549243D02*
X14395178Y-19563529D01*
X14380893Y-19577814D01*
X14366607Y-19563529D01*
X14380893Y-19549243D01*
X14380893Y-19577814D01*
X14666607Y-19277814D02*
X14523750Y-19277814D01*
X14509464Y-19420672D01*
X14523750Y-19406386D01*
X14552321Y-19392100D01*
X14623750Y-19392100D01*
X14652321Y-19406386D01*
X14666607Y-19420672D01*
X14680893Y-19449243D01*
X14680893Y-19520672D01*
X14666607Y-19549243D01*
X14652321Y-19563529D01*
X14623750Y-19577814D01*
X14552321Y-19577814D01*
X14523750Y-19563529D01*
X14509464Y-19549243D01*
X14866607Y-19277814D02*
X14895178Y-19277814D01*
X14923750Y-19292100D01*
X14938036Y-19306386D01*
X14952321Y-19334957D01*
X14966607Y-19392100D01*
X14966607Y-19463529D01*
X14952321Y-19520672D01*
X14938036Y-19549243D01*
X14923750Y-19563529D01*
X14895178Y-19577814D01*
X14866607Y-19577814D01*
X14838036Y-19563529D01*
X14823750Y-19549243D01*
X14809464Y-19520672D01*
X14795178Y-19463529D01*
X14795178Y-19392100D01*
X14809464Y-19334957D01*
X14823750Y-19306386D01*
X14838036Y-19292100D01*
X14866607Y-19277814D01*
X15095178Y-19577814D02*
X15095178Y-19377814D01*
X15095178Y-19406386D02*
X15109464Y-19392100D01*
X15138036Y-19377814D01*
X15180893Y-19377814D01*
X15209464Y-19392100D01*
X15223750Y-19420672D01*
X15223750Y-19577814D01*
X15223750Y-19420672D02*
X15238036Y-19392100D01*
X15266607Y-19377814D01*
X15309464Y-19377814D01*
X15338036Y-19392100D01*
X15352321Y-19420672D01*
X15352321Y-19577814D01*
X15495178Y-19577814D02*
X15495178Y-19377814D01*
X15495178Y-19406386D02*
X15509464Y-19392100D01*
X15538036Y-19377814D01*
X15580893Y-19377814D01*
X15609464Y-19392100D01*
X15623750Y-19420672D01*
X15623750Y-19577814D01*
X15623750Y-19420672D02*
X15638036Y-19392100D01*
X15666607Y-19377814D01*
X15709464Y-19377814D01*
X15738036Y-19392100D01*
X15752321Y-19420672D01*
X15752321Y-19577814D01*
X16338036Y-19263529D02*
X16080893Y-19649243D01*
X16723750Y-19277814D02*
X16752321Y-19277814D01*
X16780893Y-19292100D01*
X16795178Y-19306386D01*
X16809464Y-19334957D01*
X16823750Y-19392100D01*
X16823750Y-19463529D01*
X16809464Y-19520672D01*
X16795178Y-19549243D01*
X16780893Y-19563529D01*
X16752321Y-19577814D01*
X16723750Y-19577814D01*
X16695178Y-19563529D01*
X16680893Y-19549243D01*
X16666607Y-19520672D01*
X16652321Y-19463529D01*
X16652321Y-19392100D01*
X16666607Y-19334957D01*
X16680893Y-19306386D01*
X16695178Y-19292100D01*
X16723750Y-19277814D01*
X16952321Y-19549243D02*
X16966607Y-19563529D01*
X16952321Y-19577814D01*
X16938036Y-19563529D01*
X16952321Y-19549243D01*
X16952321Y-19577814D01*
X17152321Y-19277814D02*
X17180893Y-19277814D01*
X17209464Y-19292100D01*
X17223750Y-19306386D01*
X17238036Y-19334957D01*
X17252321Y-19392100D01*
X17252321Y-19463529D01*
X17238036Y-19520672D01*
X17223750Y-19549243D01*
X17209464Y-19563529D01*
X17180893Y-19577814D01*
X17152321Y-19577814D01*
X17123750Y-19563529D01*
X17109464Y-19549243D01*
X17095178Y-19520672D01*
X17080893Y-19463529D01*
X17080893Y-19392100D01*
X17095178Y-19334957D01*
X17109464Y-19306386D01*
X17123750Y-19292100D01*
X17152321Y-19277814D01*
X17523750Y-19277814D02*
X17380893Y-19277814D01*
X17366607Y-19420672D01*
X17380893Y-19406386D01*
X17409464Y-19392100D01*
X17480893Y-19392100D01*
X17509464Y-19406386D01*
X17523750Y-19420672D01*
X17538036Y-19449243D01*
X17538036Y-19520672D01*
X17523750Y-19549243D01*
X17509464Y-19563529D01*
X17480893Y-19577814D01*
X17409464Y-19577814D01*
X17380893Y-19563529D01*
X17366607Y-19549243D01*
X17680893Y-19577814D02*
X17738036Y-19577814D01*
X17766607Y-19563529D01*
X17780893Y-19549243D01*
X17809464Y-19506386D01*
X17823750Y-19449243D01*
X17823750Y-19334957D01*
X17809464Y-19306386D01*
X17795178Y-19292100D01*
X17766607Y-19277814D01*
X17709464Y-19277814D01*
X17680893Y-19292100D01*
X17666607Y-19306386D01*
X17652321Y-19334957D01*
X17652321Y-19406386D01*
X17666607Y-19434957D01*
X17680893Y-19449243D01*
X17709464Y-19463529D01*
X17766607Y-19463529D01*
X17795178Y-19449243D01*
X17809464Y-19434957D01*
X17823750Y-19406386D01*
X17938036Y-19277814D02*
X17938036Y-19334957D01*
X18052321Y-19277814D02*
X18052321Y-19334957D01*
X18495178Y-19692100D02*
X18480893Y-19677814D01*
X18452321Y-19634957D01*
X18438036Y-19606386D01*
X18423750Y-19563529D01*
X18409464Y-19492100D01*
X18409464Y-19434957D01*
X18423750Y-19363529D01*
X18438036Y-19320672D01*
X18452321Y-19292100D01*
X18480893Y-19249243D01*
X18495178Y-19234957D01*
X18766607Y-19577814D02*
X18595178Y-19577814D01*
X18680893Y-19577814D02*
X18680893Y-19277814D01*
X18652321Y-19320672D01*
X18623750Y-19349243D01*
X18595178Y-19363529D01*
X18952321Y-19277814D02*
X18980893Y-19277814D01*
X19009464Y-19292100D01*
X19023750Y-19306386D01*
X19038036Y-19334957D01*
X19052321Y-19392100D01*
X19052321Y-19463529D01*
X19038036Y-19520672D01*
X19023750Y-19549243D01*
X19009464Y-19563529D01*
X18980893Y-19577814D01*
X18952321Y-19577814D01*
X18923750Y-19563529D01*
X18909464Y-19549243D01*
X18895178Y-19520672D01*
X18880893Y-19463529D01*
X18880893Y-19392100D01*
X18895178Y-19334957D01*
X18909464Y-19306386D01*
X18923750Y-19292100D01*
X18952321Y-19277814D01*
X19409464Y-19577814D02*
X19409464Y-19277814D01*
X19538036Y-19577814D02*
X19538036Y-19420672D01*
X19523750Y-19392100D01*
X19495178Y-19377814D01*
X19452321Y-19377814D01*
X19423750Y-19392100D01*
X19409464Y-19406386D01*
X19723750Y-19577814D02*
X19695178Y-19563529D01*
X19680893Y-19549243D01*
X19666607Y-19520672D01*
X19666607Y-19434957D01*
X19680893Y-19406386D01*
X19695178Y-19392100D01*
X19723750Y-19377814D01*
X19766607Y-19377814D01*
X19795178Y-19392100D01*
X19809464Y-19406386D01*
X19823750Y-19434957D01*
X19823750Y-19520672D01*
X19809464Y-19549243D01*
X19795178Y-19563529D01*
X19766607Y-19577814D01*
X19723750Y-19577814D01*
X19995178Y-19577814D02*
X19966607Y-19563529D01*
X19952321Y-19534957D01*
X19952321Y-19277814D01*
X20223750Y-19563529D02*
X20195178Y-19577814D01*
X20138036Y-19577814D01*
X20109464Y-19563529D01*
X20095178Y-19534957D01*
X20095178Y-19420672D01*
X20109464Y-19392100D01*
X20138036Y-19377814D01*
X20195178Y-19377814D01*
X20223750Y-19392100D01*
X20238036Y-19420672D01*
X20238036Y-19449243D01*
X20095178Y-19477814D01*
X20352321Y-19563529D02*
X20380893Y-19577814D01*
X20438036Y-19577814D01*
X20466607Y-19563529D01*
X20480893Y-19534957D01*
X20480893Y-19520672D01*
X20466607Y-19492100D01*
X20438036Y-19477814D01*
X20395178Y-19477814D01*
X20366607Y-19463529D01*
X20352321Y-19434957D01*
X20352321Y-19420672D01*
X20366607Y-19392100D01*
X20395178Y-19377814D01*
X20438036Y-19377814D01*
X20466607Y-19392100D01*
X20580893Y-19692100D02*
X20595178Y-19677814D01*
X20623750Y-19634957D01*
X20638036Y-19606386D01*
X20652321Y-19563529D01*
X20666607Y-19492100D01*
X20666607Y-19434957D01*
X20652321Y-19363529D01*
X20638036Y-19320672D01*
X20623750Y-19292100D01*
X20595178Y-19249243D01*
X20580893Y-19234957D01*
X13508750Y-19688100D02*
X13808750Y-19988100D01*
X13808750Y-19688100D02*
X13508750Y-19988100D01*
X13764817Y-19944167D02*
X13764817Y-19732033D01*
X13552683Y-19732033D01*
X13552683Y-19944167D01*
X13764817Y-19944167D01*
X14066607Y-19673814D02*
X14252321Y-19673814D01*
X14152321Y-19788100D01*
X14195178Y-19788100D01*
X14223750Y-19802386D01*
X14238036Y-19816672D01*
X14252321Y-19845243D01*
X14252321Y-19916672D01*
X14238036Y-19945243D01*
X14223750Y-19959529D01*
X14195178Y-19973814D01*
X14109464Y-19973814D01*
X14080893Y-19959529D01*
X14066607Y-19945243D01*
X14380893Y-19945243D02*
X14395178Y-19959529D01*
X14380893Y-19973814D01*
X14366607Y-19959529D01*
X14380893Y-19945243D01*
X14380893Y-19973814D01*
X14580893Y-19673814D02*
X14609464Y-19673814D01*
X14638036Y-19688100D01*
X14652321Y-19702386D01*
X14666607Y-19730957D01*
X14680893Y-19788100D01*
X14680893Y-19859529D01*
X14666607Y-19916672D01*
X14652321Y-19945243D01*
X14638036Y-19959529D01*
X14609464Y-19973814D01*
X14580893Y-19973814D01*
X14552321Y-19959529D01*
X14538036Y-19945243D01*
X14523750Y-19916672D01*
X14509464Y-19859529D01*
X14509464Y-19788100D01*
X14523750Y-19730957D01*
X14538036Y-19702386D01*
X14552321Y-19688100D01*
X14580893Y-19673814D01*
X14866607Y-19673814D02*
X14895178Y-19673814D01*
X14923750Y-19688100D01*
X14938036Y-19702386D01*
X14952321Y-19730957D01*
X14966607Y-19788100D01*
X14966607Y-19859529D01*
X14952321Y-19916672D01*
X14938036Y-19945243D01*
X14923750Y-19959529D01*
X14895178Y-19973814D01*
X14866607Y-19973814D01*
X14838036Y-19959529D01*
X14823750Y-19945243D01*
X14809464Y-19916672D01*
X14795178Y-19859529D01*
X14795178Y-19788100D01*
X14809464Y-19730957D01*
X14823750Y-19702386D01*
X14838036Y-19688100D01*
X14866607Y-19673814D01*
X15095178Y-19973814D02*
X15095178Y-19773814D01*
X15095178Y-19802386D02*
X15109464Y-19788100D01*
X15138036Y-19773814D01*
X15180893Y-19773814D01*
X15209464Y-19788100D01*
X15223750Y-19816672D01*
X15223750Y-19973814D01*
X15223750Y-19816672D02*
X15238036Y-19788100D01*
X15266607Y-19773814D01*
X15309464Y-19773814D01*
X15338036Y-19788100D01*
X15352321Y-19816672D01*
X15352321Y-19973814D01*
X15495178Y-19973814D02*
X15495178Y-19773814D01*
X15495178Y-19802386D02*
X15509464Y-19788100D01*
X15538036Y-19773814D01*
X15580893Y-19773814D01*
X15609464Y-19788100D01*
X15623750Y-19816672D01*
X15623750Y-19973814D01*
X15623750Y-19816672D02*
X15638036Y-19788100D01*
X15666607Y-19773814D01*
X15709464Y-19773814D01*
X15738036Y-19788100D01*
X15752321Y-19816672D01*
X15752321Y-19973814D01*
X16338036Y-19659529D02*
X16080893Y-20045243D01*
X16723750Y-19673814D02*
X16752321Y-19673814D01*
X16780893Y-19688100D01*
X16795178Y-19702386D01*
X16809464Y-19730957D01*
X16823750Y-19788100D01*
X16823750Y-19859529D01*
X16809464Y-19916672D01*
X16795178Y-19945243D01*
X16780893Y-19959529D01*
X16752321Y-19973814D01*
X16723750Y-19973814D01*
X16695178Y-19959529D01*
X16680893Y-19945243D01*
X16666607Y-19916672D01*
X16652321Y-19859529D01*
X16652321Y-19788100D01*
X16666607Y-19730957D01*
X16680893Y-19702386D01*
X16695178Y-19688100D01*
X16723750Y-19673814D01*
X16952321Y-19945243D02*
X16966607Y-19959529D01*
X16952321Y-19973814D01*
X16938036Y-19959529D01*
X16952321Y-19945243D01*
X16952321Y-19973814D01*
X17252321Y-19973814D02*
X17080893Y-19973814D01*
X17166607Y-19973814D02*
X17166607Y-19673814D01*
X17138036Y-19716672D01*
X17109464Y-19745243D01*
X17080893Y-19759529D01*
X17538036Y-19973814D02*
X17366607Y-19973814D01*
X17452321Y-19973814D02*
X17452321Y-19673814D01*
X17423750Y-19716672D01*
X17395178Y-19745243D01*
X17366607Y-19759529D01*
X17709464Y-19802386D02*
X17680893Y-19788100D01*
X17666607Y-19773814D01*
X17652321Y-19745243D01*
X17652321Y-19730957D01*
X17666607Y-19702386D01*
X17680893Y-19688100D01*
X17709464Y-19673814D01*
X17766607Y-19673814D01*
X17795178Y-19688100D01*
X17809464Y-19702386D01*
X17823750Y-19730957D01*
X17823750Y-19745243D01*
X17809464Y-19773814D01*
X17795178Y-19788100D01*
X17766607Y-19802386D01*
X17709464Y-19802386D01*
X17680893Y-19816672D01*
X17666607Y-19830957D01*
X17652321Y-19859529D01*
X17652321Y-19916672D01*
X17666607Y-19945243D01*
X17680893Y-19959529D01*
X17709464Y-19973814D01*
X17766607Y-19973814D01*
X17795178Y-19959529D01*
X17809464Y-19945243D01*
X17823750Y-19916672D01*
X17823750Y-19859529D01*
X17809464Y-19830957D01*
X17795178Y-19816672D01*
X17766607Y-19802386D01*
X17938036Y-19673814D02*
X17938036Y-19730957D01*
X18052321Y-19673814D02*
X18052321Y-19730957D01*
X18495178Y-20088100D02*
X18480893Y-20073814D01*
X18452321Y-20030957D01*
X18438036Y-20002386D01*
X18423750Y-19959529D01*
X18409464Y-19888100D01*
X18409464Y-19830957D01*
X18423750Y-19759529D01*
X18438036Y-19716672D01*
X18452321Y-19688100D01*
X18480893Y-19645243D01*
X18495178Y-19630957D01*
X18766607Y-19973814D02*
X18595178Y-19973814D01*
X18680893Y-19973814D02*
X18680893Y-19673814D01*
X18652321Y-19716672D01*
X18623750Y-19745243D01*
X18595178Y-19759529D01*
X19052321Y-19973814D02*
X18880893Y-19973814D01*
X18966607Y-19973814D02*
X18966607Y-19673814D01*
X18938036Y-19716672D01*
X18909464Y-19745243D01*
X18880893Y-19759529D01*
X19409464Y-19973814D02*
X19409464Y-19673814D01*
X19538036Y-19973814D02*
X19538036Y-19816672D01*
X19523750Y-19788100D01*
X19495178Y-19773814D01*
X19452321Y-19773814D01*
X19423750Y-19788100D01*
X19409464Y-19802386D01*
X19723750Y-19973814D02*
X19695178Y-19959529D01*
X19680893Y-19945243D01*
X19666607Y-19916672D01*
X19666607Y-19830957D01*
X19680893Y-19802386D01*
X19695178Y-19788100D01*
X19723750Y-19773814D01*
X19766607Y-19773814D01*
X19795178Y-19788100D01*
X19809464Y-19802386D01*
X19823750Y-19830957D01*
X19823750Y-19916672D01*
X19809464Y-19945243D01*
X19795178Y-19959529D01*
X19766607Y-19973814D01*
X19723750Y-19973814D01*
X19995178Y-19973814D02*
X19966607Y-19959529D01*
X19952321Y-19930957D01*
X19952321Y-19673814D01*
X20223750Y-19959529D02*
X20195178Y-19973814D01*
X20138036Y-19973814D01*
X20109464Y-19959529D01*
X20095178Y-19930957D01*
X20095178Y-19816672D01*
X20109464Y-19788100D01*
X20138036Y-19773814D01*
X20195178Y-19773814D01*
X20223750Y-19788100D01*
X20238036Y-19816672D01*
X20238036Y-19845243D01*
X20095178Y-19873814D01*
X20352321Y-19959529D02*
X20380893Y-19973814D01*
X20438036Y-19973814D01*
X20466607Y-19959529D01*
X20480893Y-19930957D01*
X20480893Y-19916672D01*
X20466607Y-19888100D01*
X20438036Y-19873814D01*
X20395178Y-19873814D01*
X20366607Y-19859529D01*
X20352321Y-19830957D01*
X20352321Y-19816672D01*
X20366607Y-19788100D01*
X20395178Y-19773814D01*
X20438036Y-19773814D01*
X20466607Y-19788100D01*
X20580893Y-20088100D02*
X20595178Y-20073814D01*
X20623750Y-20030957D01*
X20638036Y-20002386D01*
X20652321Y-19959529D01*
X20666607Y-19888100D01*
X20666607Y-19830957D01*
X20652321Y-19759529D01*
X20638036Y-19716672D01*
X20623750Y-19688100D01*
X20595178Y-19645243D01*
X20580893Y-19630957D01*
M02*
