G04 #@! TF.GenerationSoftware,KiCad,Pcbnew,(5.1.6)-1*
G04 #@! TF.CreationDate,2022-03-27T18:43:43+02:00*
G04 #@! TF.ProjectId,signalization_by_fireplace,7369676e-616c-4697-9a61-74696f6e5f62,rev?*
G04 #@! TF.SameCoordinates,Original*
G04 #@! TF.FileFunction,Soldermask,Top*
G04 #@! TF.FilePolarity,Negative*
%FSLAX46Y46*%
G04 Gerber Fmt 4.6, Leading zero omitted, Abs format (unit mm)*
G04 Created by KiCad (PCBNEW (5.1.6)-1) date 2022-03-27 18:43:43*
%MOMM*%
%LPD*%
G01*
G04 APERTURE LIST*
%ADD10O,2.200000X2.200000*%
%ADD11R,2.200000X2.200000*%
%ADD12R,0.900000X0.900000*%
%ADD13C,1.100000*%
%ADD14C,2.100000*%
%ADD15R,0.600000X2.100000*%
%ADD16R,5.100000X3.500000*%
%ADD17R,1.600000X0.450000*%
%ADD18R,1.000000X1.000000*%
%ADD19R,0.450000X1.300000*%
%ADD20R,2.400000X2.700000*%
%ADD21C,0.100000*%
%ADD22R,1.100000X1.100000*%
%ADD23R,1.000000X0.900000*%
%ADD24C,5.100000*%
%ADD25C,6.100000*%
%ADD26O,3.200000X3.200000*%
%ADD27R,3.200000X3.200000*%
%ADD28R,1.400000X1.100000*%
%ADD29C,3.600000*%
%ADD30R,3.600000X3.600000*%
%ADD31C,1.600000*%
%ADD32C,3.400000*%
%ADD33R,2.100000X2.100000*%
%ADD34R,0.900000X2.300000*%
G04 APERTURE END LIST*
D10*
X242575200Y-80119740D03*
X242575200Y-75039740D03*
D11*
X242575200Y-82659740D03*
D10*
X242575200Y-77579740D03*
D12*
X231838500Y-140208000D03*
X234378500Y-140208000D03*
D13*
X247650000Y-76708000D03*
X144462500Y-95250000D03*
X158750000Y-76708000D03*
D14*
X160985200Y-113030000D03*
X158432500Y-115570000D03*
X158432500Y-110490000D03*
D13*
X171894500Y-120904000D03*
D15*
X170647000Y-112320000D03*
X171947000Y-118820000D03*
X168047000Y-112320000D03*
D16*
X169672000Y-115570000D03*
D15*
X168697000Y-118820000D03*
X170647000Y-118820000D03*
X169997000Y-112320000D03*
X167397000Y-118820000D03*
X169347000Y-118820000D03*
X169997000Y-118820000D03*
X171297000Y-118820000D03*
X168047000Y-118820000D03*
X171947000Y-112320000D03*
X171297000Y-112320000D03*
X169347000Y-112320000D03*
X168697000Y-112320000D03*
X167397000Y-112320000D03*
D17*
X220980000Y-101616000D03*
X220980000Y-102116000D03*
X220980000Y-102616000D03*
X220980000Y-103116000D03*
X220980000Y-103616000D03*
X215900000Y-103616000D03*
X215900000Y-103116000D03*
X215900000Y-102616000D03*
X215900000Y-101616000D03*
X215900000Y-102116000D03*
D18*
X199406000Y-109870000D03*
X201406000Y-109220000D03*
X199406000Y-108570000D03*
D19*
X193278000Y-111566960D03*
X193278000Y-107381040D03*
X192778000Y-107381040D03*
X192278000Y-107381040D03*
X191778000Y-107381040D03*
D20*
X192278000Y-109474000D03*
D19*
X191278000Y-107381040D03*
X191277240Y-111566960D03*
X191778000Y-111566960D03*
X192778000Y-111566960D03*
X192278000Y-111566960D03*
D13*
X168592500Y-145288000D03*
X163157337Y-145326037D03*
D21*
G36*
X229110500Y-136968000D02*
G01*
X231010500Y-136968000D01*
X231010500Y-138368000D01*
X229110500Y-138368000D01*
X229110500Y-136968000D01*
G37*
G36*
X229110500Y-134428000D02*
G01*
X231010500Y-134428000D01*
X231010500Y-135828000D01*
X229110500Y-135828000D01*
X229110500Y-134428000D01*
G37*
G36*
X226566500Y-141412000D02*
G01*
X226566500Y-139512000D01*
X227966500Y-139512000D01*
X227966500Y-141412000D01*
X226566500Y-141412000D01*
G37*
G36*
X224026500Y-141412000D02*
G01*
X224026500Y-139512000D01*
X225426500Y-139512000D01*
X225426500Y-141412000D01*
X224026500Y-141412000D01*
G37*
D22*
X233362500Y-137598000D03*
X232412500Y-135398000D03*
X234312500Y-135398000D03*
D23*
X238035000Y-132588000D03*
X239485000Y-132588000D03*
X234341500Y-133096000D03*
X232891500Y-133096000D03*
X237717500Y-82804000D03*
X239167500Y-82804000D03*
X237717500Y-80264000D03*
X239167500Y-80264000D03*
X237717500Y-77724000D03*
X239167500Y-77724000D03*
D24*
X156424000Y-126080000D03*
X249468000Y-126080000D03*
X249468000Y-71080000D03*
X156424000Y-71080000D03*
D25*
X141668500Y-157533922D03*
X197400000Y-157480000D03*
X214460000Y-157480000D03*
X250460500Y-135302000D03*
X264350500Y-157480000D03*
X264350500Y-72073441D03*
X141668500Y-72106428D03*
D13*
X153352500Y-159004000D03*
X240982500Y-159004000D03*
X256730500Y-159004000D03*
D26*
X257492500Y-143004000D03*
X257492500Y-146644000D03*
D27*
X257492500Y-153924000D03*
D26*
X257492500Y-150284000D03*
X240792000Y-143004000D03*
X240792000Y-146644000D03*
D27*
X240792000Y-153924000D03*
D26*
X240792000Y-150284000D03*
D13*
X207264000Y-137668000D03*
X186944000Y-131318000D03*
X186944000Y-137414000D03*
X180022500Y-137414000D03*
X225044000Y-136906000D03*
X218440000Y-138430000D03*
X207264000Y-131572000D03*
X201612500Y-137668000D03*
X261556500Y-146050000D03*
X234950000Y-76708000D03*
X184150000Y-76708000D03*
X171450000Y-76708000D03*
X144462500Y-107950000D03*
X144462500Y-120650000D03*
X210058000Y-117856000D03*
X210058000Y-108458000D03*
X185166000Y-110236000D03*
X185166000Y-124968000D03*
X220916500Y-159004000D03*
X231076500Y-159004000D03*
X259270500Y-133350000D03*
X259270500Y-120650000D03*
X259270500Y-107950000D03*
X259270500Y-95250000D03*
X259270500Y-82550000D03*
X222250000Y-76708000D03*
X209550000Y-76708000D03*
X196850000Y-76708000D03*
X144462500Y-82550000D03*
X144462500Y-133350000D03*
X144462500Y-146050000D03*
X208026000Y-143002000D03*
X180530500Y-152400000D03*
X186182000Y-152400000D03*
X191770000Y-152400000D03*
X190500000Y-142748000D03*
X192024000Y-142748000D03*
X180848000Y-142748000D03*
X179324000Y-142748000D03*
X195072000Y-137668000D03*
X192024000Y-137668000D03*
X251650500Y-146558000D03*
X224980500Y-155194000D03*
X228346000Y-148082000D03*
X236982000Y-140462000D03*
X231076500Y-131826000D03*
X228854000Y-124968000D03*
X228854000Y-122174000D03*
X236474000Y-123952000D03*
X223520000Y-115824000D03*
X224536000Y-106680000D03*
X222504000Y-106680000D03*
X213868000Y-104902000D03*
X215900000Y-99060000D03*
X218440000Y-99060000D03*
X220980000Y-99060000D03*
X227076000Y-103124000D03*
X235966000Y-91440000D03*
X235902500Y-84582000D03*
X198120000Y-81788000D03*
X181546500Y-85090000D03*
X195072000Y-110490000D03*
X208788000Y-106172000D03*
X190754000Y-112776000D03*
X195072000Y-112776000D03*
X204470000Y-121666000D03*
X193548000Y-123190000D03*
X168656000Y-110236000D03*
X163004500Y-118618000D03*
X176022000Y-98552000D03*
X173482000Y-105918000D03*
X163068000Y-106172000D03*
X185166000Y-114808000D03*
X168656000Y-105918000D03*
X172212000Y-109982000D03*
X170688000Y-109982000D03*
X188214000Y-118872000D03*
X165862000Y-119126000D03*
X169926000Y-120904000D03*
X168656000Y-120904000D03*
D21*
G36*
X234000000Y-114616000D02*
G01*
X235900000Y-114616000D01*
X235900000Y-116016000D01*
X234000000Y-116016000D01*
X234000000Y-114616000D01*
G37*
G36*
X234000000Y-112076000D02*
G01*
X235900000Y-112076000D01*
X235900000Y-113476000D01*
X234000000Y-113476000D01*
X234000000Y-112076000D01*
G37*
G36*
X212918000Y-135444000D02*
G01*
X214818000Y-135444000D01*
X214818000Y-136844000D01*
X212918000Y-136844000D01*
X212918000Y-135444000D01*
G37*
G36*
X212918000Y-132904000D02*
G01*
X214818000Y-132904000D01*
X214818000Y-134304000D01*
X212918000Y-134304000D01*
X212918000Y-132904000D01*
G37*
G36*
X191074000Y-135444000D02*
G01*
X192974000Y-135444000D01*
X192974000Y-136844000D01*
X191074000Y-136844000D01*
X191074000Y-135444000D01*
G37*
G36*
X191074000Y-132904000D02*
G01*
X192974000Y-132904000D01*
X192974000Y-134304000D01*
X191074000Y-134304000D01*
X191074000Y-132904000D01*
G37*
G36*
X169230000Y-135444000D02*
G01*
X171130000Y-135444000D01*
X171130000Y-136844000D01*
X169230000Y-136844000D01*
X169230000Y-135444000D01*
G37*
G36*
X169230000Y-132904000D02*
G01*
X171130000Y-132904000D01*
X171130000Y-134304000D01*
X169230000Y-134304000D01*
X169230000Y-132904000D01*
G37*
D28*
X206740000Y-114234000D03*
X204540000Y-113284000D03*
X206740000Y-112334000D03*
D21*
G36*
X148588500Y-96708000D02*
G01*
X148588500Y-94808000D01*
X149988500Y-94808000D01*
X149988500Y-96708000D01*
X148588500Y-96708000D01*
G37*
G36*
X146048500Y-96708000D02*
G01*
X146048500Y-94808000D01*
X147448500Y-94808000D01*
X147448500Y-96708000D01*
X146048500Y-96708000D01*
G37*
G36*
X199582000Y-112080000D02*
G01*
X199582000Y-113980000D01*
X198182000Y-113980000D01*
X198182000Y-112080000D01*
X199582000Y-112080000D01*
G37*
G36*
X202122000Y-112080000D02*
G01*
X202122000Y-113980000D01*
X200722000Y-113980000D01*
X200722000Y-112080000D01*
X202122000Y-112080000D01*
G37*
G36*
X159704000Y-105222000D02*
G01*
X159704000Y-107122000D01*
X158304000Y-107122000D01*
X158304000Y-105222000D01*
X159704000Y-105222000D01*
G37*
G36*
X162244000Y-105222000D02*
G01*
X162244000Y-107122000D01*
X160844000Y-107122000D01*
X160844000Y-105222000D01*
X162244000Y-105222000D01*
G37*
G36*
X196154000Y-109790000D02*
G01*
X198054000Y-109790000D01*
X198054000Y-111190000D01*
X196154000Y-111190000D01*
X196154000Y-109790000D01*
G37*
G36*
X196154000Y-107250000D02*
G01*
X198054000Y-107250000D01*
X198054000Y-108650000D01*
X196154000Y-108650000D01*
X196154000Y-107250000D01*
G37*
G36*
X204912000Y-97474000D02*
G01*
X203012000Y-97474000D01*
X203012000Y-96074000D01*
X204912000Y-96074000D01*
X204912000Y-97474000D01*
G37*
G36*
X204912000Y-100014000D02*
G01*
X203012000Y-100014000D01*
X203012000Y-98614000D01*
X204912000Y-98614000D01*
X204912000Y-100014000D01*
G37*
G36*
X225360000Y-132522000D02*
G01*
X225360000Y-130622000D01*
X226760000Y-130622000D01*
X226760000Y-132522000D01*
X225360000Y-132522000D01*
G37*
G36*
X222820000Y-132522000D02*
G01*
X222820000Y-130622000D01*
X224220000Y-130622000D01*
X224220000Y-132522000D01*
X222820000Y-132522000D01*
G37*
G36*
X215966000Y-135444000D02*
G01*
X217866000Y-135444000D01*
X217866000Y-136844000D01*
X215966000Y-136844000D01*
X215966000Y-135444000D01*
G37*
G36*
X215966000Y-132904000D02*
G01*
X217866000Y-132904000D01*
X217866000Y-134304000D01*
X215966000Y-134304000D01*
X215966000Y-132904000D01*
G37*
G36*
X238064000Y-90740000D02*
G01*
X239964000Y-90740000D01*
X239964000Y-92140000D01*
X238064000Y-92140000D01*
X238064000Y-90740000D01*
G37*
G36*
X238064000Y-88200000D02*
G01*
X239964000Y-88200000D01*
X239964000Y-89600000D01*
X238064000Y-89600000D01*
X238064000Y-88200000D01*
G37*
G36*
X244028000Y-89600000D02*
G01*
X242128000Y-89600000D01*
X242128000Y-88200000D01*
X244028000Y-88200000D01*
X244028000Y-89600000D01*
G37*
G36*
X244028000Y-92140000D02*
G01*
X242128000Y-92140000D01*
X242128000Y-90740000D01*
X244028000Y-90740000D01*
X244028000Y-92140000D01*
G37*
G36*
X234254000Y-96836000D02*
G01*
X236154000Y-96836000D01*
X236154000Y-98236000D01*
X234254000Y-98236000D01*
X234254000Y-96836000D01*
G37*
G36*
X234254000Y-94296000D02*
G01*
X236154000Y-94296000D01*
X236154000Y-95696000D01*
X234254000Y-95696000D01*
X234254000Y-94296000D01*
G37*
G36*
X226380000Y-90740000D02*
G01*
X228280000Y-90740000D01*
X228280000Y-92140000D01*
X226380000Y-92140000D01*
X226380000Y-90740000D01*
G37*
G36*
X226380000Y-88200000D02*
G01*
X228280000Y-88200000D01*
X228280000Y-89600000D01*
X226380000Y-89600000D01*
X226380000Y-88200000D01*
G37*
G36*
X230698000Y-90740000D02*
G01*
X232598000Y-90740000D01*
X232598000Y-92140000D01*
X230698000Y-92140000D01*
X230698000Y-90740000D01*
G37*
G36*
X230698000Y-88200000D02*
G01*
X232598000Y-88200000D01*
X232598000Y-89600000D01*
X230698000Y-89600000D01*
X230698000Y-88200000D01*
G37*
G36*
X203516000Y-132522000D02*
G01*
X203516000Y-130622000D01*
X204916000Y-130622000D01*
X204916000Y-132522000D01*
X203516000Y-132522000D01*
G37*
G36*
X200976000Y-132522000D02*
G01*
X200976000Y-130622000D01*
X202376000Y-130622000D01*
X202376000Y-132522000D01*
X200976000Y-132522000D01*
G37*
G36*
X194122000Y-135444000D02*
G01*
X196022000Y-135444000D01*
X196022000Y-136844000D01*
X194122000Y-136844000D01*
X194122000Y-135444000D01*
G37*
G36*
X194122000Y-132904000D02*
G01*
X196022000Y-132904000D01*
X196022000Y-134304000D01*
X194122000Y-134304000D01*
X194122000Y-132904000D01*
G37*
G36*
X226126000Y-108774000D02*
G01*
X228026000Y-108774000D01*
X228026000Y-110174000D01*
X226126000Y-110174000D01*
X226126000Y-108774000D01*
G37*
G36*
X226126000Y-106234000D02*
G01*
X228026000Y-106234000D01*
X228026000Y-107634000D01*
X226126000Y-107634000D01*
X226126000Y-106234000D01*
G37*
G36*
X232090000Y-107634000D02*
G01*
X230190000Y-107634000D01*
X230190000Y-106234000D01*
X232090000Y-106234000D01*
X232090000Y-107634000D01*
G37*
G36*
X232090000Y-110174000D02*
G01*
X230190000Y-110174000D01*
X230190000Y-108774000D01*
X232090000Y-108774000D01*
X232090000Y-110174000D01*
G37*
G36*
X238318000Y-109028000D02*
G01*
X240218000Y-109028000D01*
X240218000Y-110428000D01*
X238318000Y-110428000D01*
X238318000Y-109028000D01*
G37*
G36*
X238318000Y-106488000D02*
G01*
X240218000Y-106488000D01*
X240218000Y-107888000D01*
X238318000Y-107888000D01*
X238318000Y-106488000D01*
G37*
G36*
X242382000Y-109028000D02*
G01*
X244282000Y-109028000D01*
X244282000Y-110428000D01*
X242382000Y-110428000D01*
X242382000Y-109028000D01*
G37*
G36*
X242382000Y-106488000D02*
G01*
X244282000Y-106488000D01*
X244282000Y-107888000D01*
X242382000Y-107888000D01*
X242382000Y-106488000D01*
G37*
G36*
X181672000Y-132522000D02*
G01*
X181672000Y-130622000D01*
X183072000Y-130622000D01*
X183072000Y-132522000D01*
X181672000Y-132522000D01*
G37*
G36*
X179132000Y-132522000D02*
G01*
X179132000Y-130622000D01*
X180532000Y-130622000D01*
X180532000Y-132522000D01*
X179132000Y-132522000D01*
G37*
G36*
X172278000Y-135444000D02*
G01*
X174178000Y-135444000D01*
X174178000Y-136844000D01*
X172278000Y-136844000D01*
X172278000Y-135444000D01*
G37*
G36*
X172278000Y-132904000D02*
G01*
X174178000Y-132904000D01*
X174178000Y-134304000D01*
X172278000Y-134304000D01*
X172278000Y-132904000D01*
G37*
G36*
X214188000Y-87438000D02*
G01*
X216088000Y-87438000D01*
X216088000Y-88838000D01*
X214188000Y-88838000D01*
X214188000Y-87438000D01*
G37*
G36*
X214188000Y-84898000D02*
G01*
X216088000Y-84898000D01*
X216088000Y-86298000D01*
X214188000Y-86298000D01*
X214188000Y-84898000D01*
G37*
G36*
X208346000Y-87438000D02*
G01*
X210246000Y-87438000D01*
X210246000Y-88838000D01*
X208346000Y-88838000D01*
X208346000Y-87438000D01*
G37*
G36*
X208346000Y-84898000D02*
G01*
X210246000Y-84898000D01*
X210246000Y-86298000D01*
X208346000Y-86298000D01*
X208346000Y-84898000D01*
G37*
D18*
X219218000Y-135524000D03*
X221218000Y-134874000D03*
X219218000Y-134224000D03*
X197374000Y-135524000D03*
X199374000Y-134874000D03*
X197374000Y-134224000D03*
X175530000Y-135524000D03*
X177530000Y-134874000D03*
X175530000Y-134224000D03*
D11*
X185420000Y-101854000D03*
D10*
X185420000Y-96774000D03*
X185420000Y-99314000D03*
D11*
X189992000Y-101854000D03*
D10*
X189992000Y-96774000D03*
X189992000Y-99314000D03*
D11*
X194564000Y-101854000D03*
D10*
X194564000Y-96774000D03*
X194564000Y-99314000D03*
D11*
X199136000Y-101854000D03*
D10*
X199136000Y-96774000D03*
X199136000Y-99314000D03*
X243078000Y-97282000D03*
D11*
X243078000Y-94742000D03*
D10*
X239014000Y-94742000D03*
D11*
X239014000Y-97282000D03*
D10*
X231394000Y-97536000D03*
D11*
X231394000Y-94996000D03*
D10*
X227330000Y-94996000D03*
D11*
X227330000Y-97536000D03*
D10*
X227076000Y-115570000D03*
D11*
X227076000Y-113030000D03*
D10*
X231140000Y-113030000D03*
D11*
X231140000Y-115570000D03*
D10*
X239014000Y-115570000D03*
D11*
X239014000Y-113030000D03*
D10*
X243332000Y-113030000D03*
D11*
X243332000Y-115570000D03*
D10*
X215138000Y-91440000D03*
D11*
X215138000Y-93980000D03*
D10*
X209296000Y-91440000D03*
D11*
X209296000Y-93980000D03*
D29*
X163860000Y-157734000D03*
D30*
X168940000Y-157734000D03*
X203360000Y-155448000D03*
D29*
X208440000Y-155448000D03*
D31*
X224156000Y-146304000D03*
X230506000Y-143764000D03*
D32*
X220344000Y-152654000D03*
D31*
X229236000Y-146304000D03*
X222886000Y-143764000D03*
X226696000Y-146304000D03*
X225426000Y-143764000D03*
X227966000Y-143764000D03*
X221616000Y-146304000D03*
D32*
X231776000Y-152654000D03*
D29*
X186150000Y-157734000D03*
D30*
X191230000Y-157734000D03*
D29*
X181070000Y-157734000D03*
D33*
X146748500Y-98552000D03*
D14*
X149288500Y-98552000D03*
X226060000Y-134874000D03*
D33*
X223520000Y-134874000D03*
D14*
X204194000Y-134874000D03*
D33*
X201654000Y-134874000D03*
D14*
X182328000Y-134874000D03*
D33*
X179788000Y-134874000D03*
D34*
X238252000Y-135178800D03*
X236982000Y-135178800D03*
X239522000Y-135178800D03*
X236982000Y-138633200D03*
X238252000Y-138633200D03*
X239522000Y-138633200D03*
D21*
G36*
X167956000Y-108646000D02*
G01*
X167956000Y-106746000D01*
X169356000Y-106746000D01*
X169356000Y-108646000D01*
X167956000Y-108646000D01*
G37*
G36*
X165416000Y-108646000D02*
G01*
X165416000Y-106746000D01*
X166816000Y-106746000D01*
X166816000Y-108646000D01*
X165416000Y-108646000D01*
G37*
G36*
X172782000Y-108646000D02*
G01*
X172782000Y-106746000D01*
X174182000Y-106746000D01*
X174182000Y-108646000D01*
X172782000Y-108646000D01*
G37*
G36*
X170242000Y-108646000D02*
G01*
X170242000Y-106746000D01*
X171642000Y-106746000D01*
X171642000Y-108646000D01*
X170242000Y-108646000D01*
G37*
G36*
X170242000Y-124902000D02*
G01*
X170242000Y-123002000D01*
X171642000Y-123002000D01*
X171642000Y-124902000D01*
X170242000Y-124902000D01*
G37*
G36*
X167702000Y-124902000D02*
G01*
X167702000Y-123002000D01*
X169102000Y-123002000D01*
X169102000Y-124902000D01*
X167702000Y-124902000D01*
G37*
G36*
X206310000Y-107884000D02*
G01*
X206310000Y-105984000D01*
X207710000Y-105984000D01*
X207710000Y-107884000D01*
X206310000Y-107884000D01*
G37*
G36*
X203770000Y-107884000D02*
G01*
X203770000Y-105984000D01*
X205170000Y-105984000D01*
X205170000Y-107884000D01*
X203770000Y-107884000D01*
G37*
G36*
X206310000Y-110678000D02*
G01*
X206310000Y-108778000D01*
X207710000Y-108778000D01*
X207710000Y-110678000D01*
X206310000Y-110678000D01*
G37*
G36*
X203770000Y-110678000D02*
G01*
X203770000Y-108778000D01*
X205170000Y-108778000D01*
X205170000Y-110678000D01*
X203770000Y-110678000D01*
G37*
G36*
X191708000Y-116398000D02*
G01*
X191708000Y-118298000D01*
X190308000Y-118298000D01*
X190308000Y-116398000D01*
X191708000Y-116398000D01*
G37*
G36*
X194248000Y-116398000D02*
G01*
X194248000Y-118298000D01*
X192848000Y-118298000D01*
X192848000Y-116398000D01*
X194248000Y-116398000D01*
G37*
G36*
X192848000Y-115504000D02*
G01*
X192848000Y-113604000D01*
X194248000Y-113604000D01*
X194248000Y-115504000D01*
X192848000Y-115504000D01*
G37*
G36*
X190308000Y-115504000D02*
G01*
X190308000Y-113604000D01*
X191708000Y-113604000D01*
X191708000Y-115504000D01*
X190308000Y-115504000D01*
G37*
G36*
X189164000Y-115508000D02*
G01*
X187264000Y-115508000D01*
X187264000Y-114108000D01*
X189164000Y-114108000D01*
X189164000Y-115508000D01*
G37*
G36*
X189164000Y-118048000D02*
G01*
X187264000Y-118048000D01*
X187264000Y-116648000D01*
X189164000Y-116648000D01*
X189164000Y-118048000D01*
G37*
G36*
X206310000Y-117536000D02*
G01*
X206310000Y-115636000D01*
X207710000Y-115636000D01*
X207710000Y-117536000D01*
X206310000Y-117536000D01*
G37*
G36*
X203770000Y-117536000D02*
G01*
X203770000Y-115636000D01*
X205170000Y-115636000D01*
X205170000Y-117536000D01*
X203770000Y-117536000D01*
G37*
G36*
X206310000Y-120330000D02*
G01*
X206310000Y-118430000D01*
X207710000Y-118430000D01*
X207710000Y-120330000D01*
X206310000Y-120330000D01*
G37*
G36*
X203770000Y-120330000D02*
G01*
X203770000Y-118430000D01*
X205170000Y-118430000D01*
X205170000Y-120330000D01*
X203770000Y-120330000D01*
G37*
M02*
