M48
; DRILL file {KiCad (5.1.6)-1} date 06/16/21 15:58:49
; FORMAT={-:-/ absolute / metric / decimal}
; #@! TF.CreationDate,2021-06-16T15:58:49+02:00
; #@! TF.GenerationSoftware,Kicad,Pcbnew,(5.1.6)-1
; #@! TF.FileFunction,Plated,1,2,PTH
FMAT,2
METRIC
T1C0.400
T2C0.700
T3C0.750
T4C0.900
T5C1.200
T6C2.600
%
G90
G05
T1
X121.285Y-81.615
X121.285Y-84.455
X122.555Y-84.455
X124.46Y-74.295
X125.73Y-74.295
X127.0Y-74.295
X127.0Y-86.995
X127.635Y-84.455
X128.27Y-74.295
X130.81Y-74.295
X134.62Y-76.835
X134.62Y-79.375
X135.128Y-74.115
X136.94Y-76.42
X136.94Y-82.77
X81.28Y-97.79
X143.51Y-124.46
X73.66Y-78.74
X143.51Y-142.24
X77.47Y-94.95
X121.285Y-147.32
X121.285Y-156.845
X100.965Y-97.79
X55.245Y-70.485
X94.615Y-97.79
X105.41Y-113.665
X99.06Y-76.835
X92.71Y-122.555
X77.47Y-97.79
X143.51Y-156.845
X99.06Y-88.265
X123.19Y-145.415
X73.025Y-94.95
X95.885Y-76.835
X102.87Y-122.555
X93.98Y-118.745
X120.015Y-91.44
X134.33Y-91.15
X73.025Y-70.485
X71.12Y-109.22
X135.6Y-91.15
X133.985Y-99.06
X59.69Y-109.22
X76.2Y-86.36
X105.41Y-118.11
X108.585Y-85.725
X99.06Y-84.455
X92.71Y-127.635
X85.205Y-95.135
X143.51Y-107.315
X95.885Y-84.455
X121.285Y-142.875
X77.47Y-76.2
X95.885Y-88.265
X127.635Y-139.7
X71.12Y-118.745
X89.535Y-70.485
X95.25Y-151.13
X67.31Y-147.32
X89.535Y-98.425
X40.005Y-141.605
X92.075Y-73.66
X92.075Y-100.33
X109.855Y-84.455
X76.2Y-76.2
X40.005Y-88.9
X73.025Y-97.79
X104.14Y-146.05
X105.41Y-142.875
X93.345Y-73.66
X95.25Y-144.145
X133.985Y-93.345
X82.55Y-109.22
X86.995Y-92.79
X40.005Y-121.285
X118.745Y-96.52
X94.615Y-94.615
X133.985Y-103.505
X76.2Y-87.63
X86.995Y-100.33
X83.82Y-100.33
X85.09Y-97.79
X118.11Y-113.03
X93.98Y-109.22
X100.965Y-94.615
X106.68Y-70.485
X90.805Y-147.955
X130.175Y-91.44
X76.835Y-90.805
X40.005Y-106.045
X118.11Y-114.3
X89.535Y-100.33
X59.69Y-118.745
X81.28Y-94.95
X83.82Y-73.66
X130.175Y-147.955
X99.06Y-80.645
X127.635Y-140.97
X88.475Y-92.92
X82.55Y-118.745
X123.825Y-94.615
X121.92Y-91.44
X97.79Y-97.79
X40.005Y-156.845
X86.995Y-98.425
X134.62Y-120.65
X89.535Y-96.52
X40.005Y-70.485
X95.885Y-80.645
X88.265Y-127.635
X126.365Y-123.19
X127.0Y-91.44
X97.79Y-94.615
X76.2Y-89.535
X86.995Y-96.52
X73.66Y-81.28
T2
X123.515Y-98.21
X123.515Y-100.75
X123.515Y-103.29
X123.515Y-105.83
X123.515Y-108.37
X123.515Y-110.91
X123.515Y-113.45
X123.515Y-115.99
X123.515Y-118.53
T3
X90.17Y-155.575
X91.44Y-155.575
X92.71Y-155.575
T4
X127.635Y-149.86
X127.635Y-152.4
X130.175Y-149.86
X130.175Y-152.4
X132.715Y-149.86
X132.715Y-152.4
T5
X85.2Y-135.245
X85.2Y-140.345
X91.5Y-144.745
X97.8Y-135.245
X97.8Y-140.345
X102.285Y-135.245
X102.285Y-140.345
X108.585Y-144.745
X114.885Y-135.245
X114.885Y-140.345
X67.995Y-135.245
X67.995Y-140.345
X74.295Y-144.745
X80.595Y-135.245
X80.595Y-140.345
T6
X48.895Y-150.095
X48.895Y-156.595
X53.395Y-152.845
T0
M30
