G04 #@! TF.GenerationSoftware,KiCad,Pcbnew,(5.1.6)-1*
G04 #@! TF.CreationDate,2023-01-22T16:10:02+01:00*
G04 #@! TF.ProjectId,switches-with-lcd-display,73776974-6368-4657-932d-776974682d6c,rev?*
G04 #@! TF.SameCoordinates,Original*
G04 #@! TF.FileFunction,Paste,Bot*
G04 #@! TF.FilePolarity,Positive*
%FSLAX46Y46*%
G04 Gerber Fmt 4.6, Leading zero omitted, Abs format (unit mm)*
G04 Created by KiCad (PCBNEW (5.1.6)-1) date 2023-01-22 16:10:02*
%MOMM*%
%LPD*%
G01*
G04 APERTURE LIST*
%ADD10R,2.000000X0.900000*%
%ADD11C,0.100000*%
%ADD12R,1.000000X1.000000*%
%ADD13R,1.250000X3.000000*%
%ADD14R,0.500000X0.500000*%
G04 APERTURE END LIST*
D10*
X58386500Y-113030000D03*
X67851500Y-111760000D03*
X67851500Y-114300000D03*
X67851500Y-109220000D03*
X58386500Y-107950000D03*
X58386500Y-116840000D03*
X58386500Y-115570000D03*
X58386500Y-110490000D03*
X58386500Y-114300000D03*
X58386500Y-109220000D03*
X67851500Y-107950000D03*
X67851500Y-110490000D03*
X67851500Y-113030000D03*
X67851500Y-115570000D03*
X67851500Y-116840000D03*
X58386500Y-111760000D03*
D11*
G36*
X62469000Y-125360000D02*
G01*
X62469000Y-123560000D01*
X63769000Y-123560000D01*
X63769000Y-125360000D01*
X62469000Y-125360000D01*
G37*
G36*
X59929000Y-125360000D02*
G01*
X59929000Y-123560000D01*
X61229000Y-123560000D01*
X61229000Y-125360000D01*
X59929000Y-125360000D01*
G37*
G36*
X36819000Y-125715000D02*
G01*
X38619000Y-125715000D01*
X38619000Y-127015000D01*
X36819000Y-127015000D01*
X36819000Y-125715000D01*
G37*
G36*
X36819000Y-123175000D02*
G01*
X38619000Y-123175000D01*
X38619000Y-124475000D01*
X36819000Y-124475000D01*
X36819000Y-123175000D01*
G37*
G36*
X133234000Y-83835000D02*
G01*
X131434000Y-83835000D01*
X131434000Y-82535000D01*
X133234000Y-82535000D01*
X133234000Y-83835000D01*
G37*
G36*
X133234000Y-86375000D02*
G01*
X131434000Y-86375000D01*
X131434000Y-85075000D01*
X133234000Y-85075000D01*
X133234000Y-86375000D01*
G37*
G36*
X112914000Y-83835000D02*
G01*
X111114000Y-83835000D01*
X111114000Y-82535000D01*
X112914000Y-82535000D01*
X112914000Y-83835000D01*
G37*
G36*
X112914000Y-86375000D02*
G01*
X111114000Y-86375000D01*
X111114000Y-85075000D01*
X112914000Y-85075000D01*
X112914000Y-86375000D01*
G37*
G36*
X102754000Y-83835000D02*
G01*
X100954000Y-83835000D01*
X100954000Y-82535000D01*
X102754000Y-82535000D01*
X102754000Y-83835000D01*
G37*
G36*
X102754000Y-86375000D02*
G01*
X100954000Y-86375000D01*
X100954000Y-85075000D01*
X102754000Y-85075000D01*
X102754000Y-86375000D01*
G37*
G36*
X123074000Y-85740000D02*
G01*
X121274000Y-85740000D01*
X121274000Y-84440000D01*
X123074000Y-84440000D01*
X123074000Y-85740000D01*
G37*
G36*
X123074000Y-88280000D02*
G01*
X121274000Y-88280000D01*
X121274000Y-86980000D01*
X123074000Y-86980000D01*
X123074000Y-88280000D01*
G37*
G36*
X62114000Y-83835000D02*
G01*
X60314000Y-83835000D01*
X60314000Y-82535000D01*
X62114000Y-82535000D01*
X62114000Y-83835000D01*
G37*
G36*
X62114000Y-86375000D02*
G01*
X60314000Y-86375000D01*
X60314000Y-85075000D01*
X62114000Y-85075000D01*
X62114000Y-86375000D01*
G37*
G36*
X82434000Y-83835000D02*
G01*
X80634000Y-83835000D01*
X80634000Y-82535000D01*
X82434000Y-82535000D01*
X82434000Y-83835000D01*
G37*
G36*
X82434000Y-86375000D02*
G01*
X80634000Y-86375000D01*
X80634000Y-85075000D01*
X82434000Y-85075000D01*
X82434000Y-86375000D01*
G37*
G36*
X92594000Y-83835000D02*
G01*
X90794000Y-83835000D01*
X90794000Y-82535000D01*
X92594000Y-82535000D01*
X92594000Y-83835000D01*
G37*
G36*
X92594000Y-86375000D02*
G01*
X90794000Y-86375000D01*
X90794000Y-85075000D01*
X92594000Y-85075000D01*
X92594000Y-86375000D01*
G37*
G36*
X72274000Y-83835000D02*
G01*
X70474000Y-83835000D01*
X70474000Y-82535000D01*
X72274000Y-82535000D01*
X72274000Y-83835000D01*
G37*
G36*
X72274000Y-86375000D02*
G01*
X70474000Y-86375000D01*
X70474000Y-85075000D01*
X72274000Y-85075000D01*
X72274000Y-86375000D01*
G37*
G36*
X41794000Y-85740000D02*
G01*
X39994000Y-85740000D01*
X39994000Y-84440000D01*
X41794000Y-84440000D01*
X41794000Y-85740000D01*
G37*
G36*
X41794000Y-88280000D02*
G01*
X39994000Y-88280000D01*
X39994000Y-86980000D01*
X41794000Y-86980000D01*
X41794000Y-88280000D01*
G37*
G36*
X51954000Y-83835000D02*
G01*
X50154000Y-83835000D01*
X50154000Y-82535000D01*
X51954000Y-82535000D01*
X51954000Y-83835000D01*
G37*
G36*
X51954000Y-86375000D02*
G01*
X50154000Y-86375000D01*
X50154000Y-85075000D01*
X51954000Y-85075000D01*
X51954000Y-86375000D01*
G37*
D12*
X68764000Y-121285000D03*
X66564000Y-120335000D03*
X66564000Y-122235000D03*
D13*
X78994000Y-133455000D03*
X73914000Y-133455000D03*
X76454000Y-130705000D03*
X43307000Y-133582000D03*
X38227000Y-133582000D03*
X40767000Y-130832000D03*
X52197000Y-133582000D03*
X47117000Y-133582000D03*
X49657000Y-130832000D03*
X61087000Y-133582000D03*
X56007000Y-133582000D03*
X58547000Y-130832000D03*
D14*
X81737200Y-105410000D03*
X82600800Y-105410000D03*
X46177200Y-105410000D03*
X47040800Y-105410000D03*
X79197200Y-105410000D03*
X80060800Y-105410000D03*
X76657200Y-105410000D03*
X77520800Y-105410000D03*
X56337200Y-105410000D03*
X57200800Y-105410000D03*
X74117200Y-105410000D03*
X74980800Y-105410000D03*
X53797200Y-105410000D03*
X54660800Y-105410000D03*
X71577200Y-105410000D03*
X72440800Y-105410000D03*
X51257200Y-105410000D03*
X52120800Y-105410000D03*
X69037200Y-105410000D03*
X69900800Y-105410000D03*
X48717200Y-105410000D03*
X49580800Y-105410000D03*
X130429000Y-91643200D03*
X130429000Y-92506800D03*
X110109000Y-91643200D03*
X110109000Y-92506800D03*
X99949000Y-91643200D03*
X99949000Y-92506800D03*
X120269000Y-91643200D03*
X120269000Y-92506800D03*
X59309000Y-91643200D03*
X59309000Y-92506800D03*
X79629000Y-91643200D03*
X79629000Y-92506800D03*
X89789000Y-91643200D03*
X89789000Y-92506800D03*
X69469000Y-91643200D03*
X69469000Y-92506800D03*
X38989000Y-91846400D03*
X38989000Y-92710000D03*
X49149000Y-91643200D03*
X49149000Y-92506800D03*
D11*
G36*
X84089000Y-109590000D02*
G01*
X84089000Y-111390000D01*
X82789000Y-111390000D01*
X82789000Y-109590000D01*
X84089000Y-109590000D01*
G37*
G36*
X86629000Y-109590000D02*
G01*
X86629000Y-111390000D01*
X85329000Y-111390000D01*
X85329000Y-109590000D01*
X86629000Y-109590000D01*
G37*
G36*
X84089000Y-106415000D02*
G01*
X84089000Y-108215000D01*
X82789000Y-108215000D01*
X82789000Y-106415000D01*
X84089000Y-106415000D01*
G37*
G36*
X86629000Y-106415000D02*
G01*
X86629000Y-108215000D01*
X85329000Y-108215000D01*
X85329000Y-106415000D01*
X86629000Y-106415000D01*
G37*
G36*
X62469000Y-122820000D02*
G01*
X62469000Y-121020000D01*
X63769000Y-121020000D01*
X63769000Y-122820000D01*
X62469000Y-122820000D01*
G37*
G36*
X59929000Y-122820000D02*
G01*
X59929000Y-121020000D01*
X61229000Y-121020000D01*
X61229000Y-122820000D01*
X59929000Y-122820000D01*
G37*
G36*
X62469000Y-120280000D02*
G01*
X62469000Y-118480000D01*
X63769000Y-118480000D01*
X63769000Y-120280000D01*
X62469000Y-120280000D01*
G37*
G36*
X59929000Y-120280000D02*
G01*
X59929000Y-118480000D01*
X61229000Y-118480000D01*
X61229000Y-120280000D01*
X59929000Y-120280000D01*
G37*
G36*
X131434000Y-93330000D02*
G01*
X133234000Y-93330000D01*
X133234000Y-94630000D01*
X131434000Y-94630000D01*
X131434000Y-93330000D01*
G37*
G36*
X131434000Y-90790000D02*
G01*
X133234000Y-90790000D01*
X133234000Y-92090000D01*
X131434000Y-92090000D01*
X131434000Y-90790000D01*
G37*
G36*
X111114000Y-93330000D02*
G01*
X112914000Y-93330000D01*
X112914000Y-94630000D01*
X111114000Y-94630000D01*
X111114000Y-93330000D01*
G37*
G36*
X111114000Y-90790000D02*
G01*
X112914000Y-90790000D01*
X112914000Y-92090000D01*
X111114000Y-92090000D01*
X111114000Y-90790000D01*
G37*
G36*
X100954000Y-93330000D02*
G01*
X102754000Y-93330000D01*
X102754000Y-94630000D01*
X100954000Y-94630000D01*
X100954000Y-93330000D01*
G37*
G36*
X100954000Y-90790000D02*
G01*
X102754000Y-90790000D01*
X102754000Y-92090000D01*
X100954000Y-92090000D01*
X100954000Y-90790000D01*
G37*
G36*
X121274000Y-93330000D02*
G01*
X123074000Y-93330000D01*
X123074000Y-94630000D01*
X121274000Y-94630000D01*
X121274000Y-93330000D01*
G37*
G36*
X121274000Y-90790000D02*
G01*
X123074000Y-90790000D01*
X123074000Y-92090000D01*
X121274000Y-92090000D01*
X121274000Y-90790000D01*
G37*
G36*
X60314000Y-93330000D02*
G01*
X62114000Y-93330000D01*
X62114000Y-94630000D01*
X60314000Y-94630000D01*
X60314000Y-93330000D01*
G37*
G36*
X60314000Y-90790000D02*
G01*
X62114000Y-90790000D01*
X62114000Y-92090000D01*
X60314000Y-92090000D01*
X60314000Y-90790000D01*
G37*
G36*
X80634000Y-93330000D02*
G01*
X82434000Y-93330000D01*
X82434000Y-94630000D01*
X80634000Y-94630000D01*
X80634000Y-93330000D01*
G37*
G36*
X80634000Y-90790000D02*
G01*
X82434000Y-90790000D01*
X82434000Y-92090000D01*
X80634000Y-92090000D01*
X80634000Y-90790000D01*
G37*
G36*
X90794000Y-93330000D02*
G01*
X92594000Y-93330000D01*
X92594000Y-94630000D01*
X90794000Y-94630000D01*
X90794000Y-93330000D01*
G37*
G36*
X90794000Y-90790000D02*
G01*
X92594000Y-90790000D01*
X92594000Y-92090000D01*
X90794000Y-92090000D01*
X90794000Y-90790000D01*
G37*
G36*
X70474000Y-93330000D02*
G01*
X72274000Y-93330000D01*
X72274000Y-94630000D01*
X70474000Y-94630000D01*
X70474000Y-93330000D01*
G37*
G36*
X70474000Y-90790000D02*
G01*
X72274000Y-90790000D01*
X72274000Y-92090000D01*
X70474000Y-92090000D01*
X70474000Y-90790000D01*
G37*
G36*
X39994000Y-93330000D02*
G01*
X41794000Y-93330000D01*
X41794000Y-94630000D01*
X39994000Y-94630000D01*
X39994000Y-93330000D01*
G37*
G36*
X39994000Y-90790000D02*
G01*
X41794000Y-90790000D01*
X41794000Y-92090000D01*
X39994000Y-92090000D01*
X39994000Y-90790000D01*
G37*
G36*
X50154000Y-93330000D02*
G01*
X51954000Y-93330000D01*
X51954000Y-94630000D01*
X50154000Y-94630000D01*
X50154000Y-93330000D01*
G37*
G36*
X50154000Y-90790000D02*
G01*
X51954000Y-90790000D01*
X51954000Y-92090000D01*
X50154000Y-92090000D01*
X50154000Y-90790000D01*
G37*
M02*
