M48
; DRILL file {KiCad (5.1.6)-1} date 03/27/22 18:44:50
; FORMAT={-:-/ absolute / metric / decimal}
; #@! TF.CreationDate,2022-03-27T18:44:50+02:00
; #@! TF.GenerationSoftware,Kicad,Pcbnew,(5.1.6)-1
; #@! TF.FileFunction,Plated,1,2,PTH
FMAT,2
METRIC
T1C0.400
T2C0.600
T3C0.700
T4C0.800
T5C1.000
T6C1.200
T7C1.500
T8C3.000
%
G90
G05
T1
X144.463Y-120.65
X158.75Y-76.708
X198.12Y-81.788
X224.536Y-106.68
X179.324Y-142.748
X180.848Y-142.748
X176.022Y-98.552
X185.166Y-110.236
X180.53Y-152.4
X208.026Y-143.002
X261.556Y-146.05
X210.058Y-117.856
X235.966Y-91.44
X215.9Y-99.06
X223.52Y-115.824
X168.656Y-110.236
X247.65Y-76.708
X231.076Y-131.826
X188.214Y-118.872
X163.004Y-118.618
X144.463Y-133.35
X259.27Y-120.65
X180.022Y-137.414
X193.548Y-123.19
X208.788Y-106.172
X224.98Y-155.194
X251.65Y-146.558
X185.166Y-114.808
X153.352Y-159.004
X165.862Y-119.126
X168.593Y-145.288
X196.85Y-76.708
X256.731Y-159.004
X144.463Y-82.55
X234.95Y-76.708
X186.944Y-131.318
X235.903Y-84.582
X195.072Y-112.776
X195.072Y-110.49
X144.463Y-95.25
X195.072Y-137.668
X190.5Y-142.748
X170.688Y-109.982
X171.894Y-120.904
X222.25Y-76.708
X240.982Y-159.004
X220.916Y-159.004
X144.463Y-107.95
X207.264Y-131.572
X227.076Y-103.124
X204.47Y-121.666
X220.98Y-99.06
X192.024Y-142.748
X236.474Y-123.952
X163.068Y-106.172
X186.182Y-152.4
X173.482Y-105.918
X144.463Y-146.05
X259.27Y-82.55
X163.157Y-145.326
X209.55Y-76.708
X171.45Y-76.708
X201.612Y-137.668
X207.264Y-137.668
X213.868Y-104.902
X190.754Y-112.776
X218.44Y-99.06
X236.982Y-140.462
X228.854Y-122.174
X169.926Y-120.904
X228.854Y-124.968
X172.212Y-109.982
X259.27Y-107.95
X259.27Y-95.25
X259.27Y-133.35
X225.044Y-136.906
X218.44Y-138.43
X222.504Y-106.68
X181.546Y-85.09
X192.024Y-137.668
X228.346Y-148.082
X168.656Y-105.918
X191.77Y-152.4
X168.656Y-120.904
X185.166Y-124.968
X210.058Y-108.458
X231.076Y-159.004
X184.15Y-76.708
X186.944Y-137.414
T2
X158.433Y-110.49
X158.433Y-115.57
X160.985Y-113.03
T3
X146.749Y-98.552
X149.288Y-98.552
X223.52Y-134.874
X226.06Y-134.874
X179.788Y-134.874
X182.328Y-134.874
X201.654Y-134.874
X204.194Y-134.874
T4
X221.616Y-146.304
X222.886Y-143.764
X224.156Y-146.304
X225.426Y-143.764
X226.696Y-146.304
X227.966Y-143.764
X229.236Y-146.304
X230.506Y-143.764
T5
X242.575Y-75.04
X242.575Y-77.58
X242.575Y-80.12
X242.575Y-82.66
X243.078Y-94.742
X243.078Y-97.282
X199.136Y-96.774
X199.136Y-99.314
X199.136Y-101.854
X231.14Y-113.03
X231.14Y-115.57
X239.014Y-94.742
X239.014Y-97.282
X185.42Y-96.774
X185.42Y-99.314
X185.42Y-101.854
X209.296Y-91.44
X209.296Y-93.98
X215.138Y-91.44
X215.138Y-93.98
X227.33Y-94.996
X227.33Y-97.536
X227.076Y-113.03
X227.076Y-115.57
X189.992Y-96.774
X189.992Y-99.314
X189.992Y-101.854
X231.394Y-94.996
X231.394Y-97.536
X239.014Y-113.03
X239.014Y-115.57
X243.332Y-113.03
X243.332Y-115.57
X194.564Y-96.774
X194.564Y-99.314
X194.564Y-101.854
T6
X163.86Y-157.734
X168.94Y-157.734
X181.07Y-157.734
X186.15Y-157.734
X191.23Y-157.734
T7
X203.36Y-155.448
X208.44Y-155.448
X240.792Y-143.004
X240.792Y-146.644
X240.792Y-150.284
X240.792Y-153.924
X257.493Y-143.004
X257.493Y-146.644
X257.493Y-150.284
X257.493Y-153.924
T8
X264.351Y-157.48
X214.46Y-157.48
X197.4Y-157.48
X141.668Y-157.534
X141.668Y-72.106
X249.468Y-126.08
X250.46Y-135.302
X156.424Y-126.08
X249.468Y-71.08
X156.424Y-71.08
X264.351Y-72.073
T0
M30
