G04 #@! TF.GenerationSoftware,KiCad,Pcbnew,7.0.9*
G04 #@! TF.CreationDate,2023-12-23T18:10:07+01:00*
G04 #@! TF.ProjectId,signalization-by-fireplace,7369676e-616c-4697-9a61-74696f6e2d62,v2.0*
G04 #@! TF.SameCoordinates,Original*
G04 #@! TF.FileFunction,Soldermask,Top*
G04 #@! TF.FilePolarity,Negative*
%FSLAX46Y46*%
G04 Gerber Fmt 4.6, Leading zero omitted, Abs format (unit mm)*
G04 Created by KiCad (PCBNEW 7.0.9) date 2023-12-23 18:10:07*
%MOMM*%
%LPD*%
G01*
G04 APERTURE LIST*
G04 Aperture macros list*
%AMRoundRect*
0 Rectangle with rounded corners*
0 $1 Rounding radius*
0 $2 $3 $4 $5 $6 $7 $8 $9 X,Y pos of 4 corners*
0 Add a 4 corners polygon primitive as box body*
4,1,4,$2,$3,$4,$5,$6,$7,$8,$9,$2,$3,0*
0 Add four circle primitives for the rounded corners*
1,1,$1+$1,$2,$3*
1,1,$1+$1,$4,$5*
1,1,$1+$1,$6,$7*
1,1,$1+$1,$8,$9*
0 Add four rect primitives between the rounded corners*
20,1,$1+$1,$2,$3,$4,$5,0*
20,1,$1+$1,$4,$5,$6,$7,0*
20,1,$1+$1,$6,$7,$8,$9,0*
20,1,$1+$1,$8,$9,$2,$3,0*%
%AMFreePoly0*
4,1,13,0.685355,0.935355,0.700000,0.900000,0.700000,-0.900000,0.685355,-0.935355,0.650000,-0.950000,-0.650000,-0.950000,-0.685355,-0.935355,-0.700000,-0.900000,-0.700000,0.900000,-0.685355,0.935355,-0.650000,0.950000,0.650000,0.950000,0.685355,0.935355,0.685355,0.935355,$1*%
G04 Aperture macros list end*
%ADD10RoundRect,0.050000X0.175000X-0.600000X0.175000X0.600000X-0.175000X0.600000X-0.175000X-0.600000X0*%
%ADD11RoundRect,0.050000X1.150000X-1.300000X1.150000X1.300000X-1.150000X1.300000X-1.150000X-1.300000X0*%
%ADD12C,6.100000*%
%ADD13RoundRect,0.050000X1.050000X1.050000X-1.050000X1.050000X-1.050000X-1.050000X1.050000X-1.050000X0*%
%ADD14O,2.200000X2.200000*%
%ADD15RoundRect,0.050000X-1.050000X-1.050000X1.050000X-1.050000X1.050000X1.050000X-1.050000X1.050000X0*%
%ADD16RoundRect,0.050000X-0.750000X-0.175000X0.750000X-0.175000X0.750000X0.175000X-0.750000X0.175000X0*%
%ADD17C,5.100000*%
%ADD18FreePoly0,0.000000*%
%ADD19FreePoly0,90.000000*%
%ADD20FreePoly0,180.000000*%
%ADD21RoundRect,0.050000X-1.750000X-1.750000X1.750000X-1.750000X1.750000X1.750000X-1.750000X1.750000X0*%
%ADD22C,3.600000*%
%ADD23O,3.600000X3.600000*%
%ADD24RoundRect,0.050000X-0.450000X0.450000X-0.450000X-0.450000X0.450000X-0.450000X0.450000X0.450000X0*%
%ADD25FreePoly0,270.000000*%
%ADD26RoundRect,0.050000X0.650000X0.500000X-0.650000X0.500000X-0.650000X-0.500000X0.650000X-0.500000X0*%
%ADD27RoundRect,0.050000X0.250000X-1.000000X0.250000X1.000000X-0.250000X1.000000X-0.250000X-1.000000X0*%
%ADD28RoundRect,0.050000X2.500000X-1.700000X2.500000X1.700000X-2.500000X1.700000X-2.500000X-1.700000X0*%
%ADD29C,3.400000*%
%ADD30C,1.600000*%
%ADD31RoundRect,0.050000X0.450000X0.450000X-0.450000X0.450000X-0.450000X-0.450000X0.450000X-0.450000X0*%
%ADD32RoundRect,0.050000X-0.400000X1.100000X-0.400000X-1.100000X0.400000X-1.100000X0.400000X1.100000X0*%
%ADD33RoundRect,0.050000X1.550000X1.550000X-1.550000X1.550000X-1.550000X-1.550000X1.550000X-1.550000X0*%
%ADD34O,3.200000X3.200000*%
%ADD35RoundRect,0.050000X-0.400000X-0.400000X0.400000X-0.400000X0.400000X0.400000X-0.400000X0.400000X0*%
%ADD36RoundRect,0.050000X-0.450000X-0.450000X0.450000X-0.450000X0.450000X0.450000X-0.450000X0.450000X0*%
%ADD37RoundRect,0.050000X-0.500000X0.500000X-0.500000X-0.500000X0.500000X-0.500000X0.500000X0.500000X0*%
%ADD38C,2.100000*%
%ADD39RoundRect,0.050000X-1.000000X-1.000000X1.000000X-1.000000X1.000000X1.000000X-1.000000X1.000000X0*%
%ADD40C,0.900000*%
G04 APERTURE END LIST*
D10*
X135714740Y-92135960D03*
X136215500Y-92135960D03*
X136715500Y-92135960D03*
X137215500Y-92135960D03*
X137715500Y-92135960D03*
X137715500Y-87950040D03*
X137215500Y-87950040D03*
X136715500Y-87950040D03*
X136215500Y-87950040D03*
X135715500Y-87950040D03*
D11*
X136715500Y-90043000D03*
D12*
X208788000Y-138049000D03*
X208788000Y-52642441D03*
X141837500Y-138049000D03*
X158897500Y-138049000D03*
X86106000Y-52675428D03*
X86106000Y-138102922D03*
X194898000Y-115871000D03*
D13*
X159575500Y-74549000D03*
D14*
X159575500Y-72009000D03*
D13*
X187769500Y-96139000D03*
D14*
X187769500Y-93599000D03*
D15*
X183451500Y-93599000D03*
D14*
X183451500Y-96139000D03*
D13*
X175577500Y-96139000D03*
D14*
X175577500Y-93599000D03*
D15*
X171513500Y-93599000D03*
D14*
X171513500Y-96139000D03*
D13*
X171767500Y-78105000D03*
D14*
X171767500Y-75565000D03*
D15*
X175831500Y-75565000D03*
D14*
X175831500Y-78105000D03*
D13*
X183451500Y-77851000D03*
D14*
X183451500Y-75311000D03*
D15*
X187515500Y-75311000D03*
D14*
X187515500Y-77851000D03*
D13*
X153733500Y-74549000D03*
D14*
X153733500Y-72009000D03*
D15*
X187012700Y-63228740D03*
D14*
X187012700Y-60688740D03*
X187012700Y-58148740D03*
X187012700Y-55608740D03*
D16*
X160337500Y-82185000D03*
X160337500Y-82685000D03*
X160337500Y-83185000D03*
X160337500Y-83685000D03*
X160337500Y-84185000D03*
X165417500Y-84185000D03*
X165417500Y-83685000D03*
X165417500Y-83185000D03*
X165417500Y-82685000D03*
X165417500Y-82185000D03*
D17*
X193905500Y-106649000D03*
X100861500Y-106649000D03*
X100861500Y-51649000D03*
X193905500Y-51649000D03*
D18*
X148907500Y-99949000D03*
X151447500Y-99949000D03*
X148907500Y-97155000D03*
X151447500Y-97155000D03*
D19*
X132651500Y-97917000D03*
X132651500Y-95377000D03*
D18*
X135445500Y-95123000D03*
X137985500Y-95123000D03*
D20*
X137985500Y-97917000D03*
X135445500Y-97917000D03*
D18*
X148907500Y-90297000D03*
X151447500Y-90297000D03*
X148907500Y-87503000D03*
X151447500Y-87503000D03*
X112839500Y-104521000D03*
X115379500Y-104521000D03*
X115379500Y-88265000D03*
X117919500Y-88265000D03*
X110553500Y-88265000D03*
X113093500Y-88265000D03*
D21*
X135667500Y-138303000D03*
D22*
X130587500Y-138303000D03*
X125507500Y-138303000D03*
D21*
X147797500Y-136017000D03*
D22*
X152877500Y-136017000D03*
D21*
X113377500Y-138303000D03*
D23*
X108297500Y-138303000D03*
D13*
X143573500Y-82423000D03*
D14*
X143573500Y-79883000D03*
X143573500Y-77343000D03*
D13*
X139001500Y-82423000D03*
D14*
X139001500Y-79883000D03*
X139001500Y-77343000D03*
D13*
X134429500Y-82423000D03*
D14*
X134429500Y-79883000D03*
X134429500Y-77343000D03*
D13*
X129857500Y-82423000D03*
D14*
X129857500Y-79883000D03*
X129857500Y-77343000D03*
D24*
X119967500Y-114793000D03*
X119967500Y-116093000D03*
X121967500Y-115443000D03*
X141811500Y-114793000D03*
X141811500Y-116093000D03*
X143811500Y-115443000D03*
X163655500Y-114793000D03*
X163655500Y-116093000D03*
X165655500Y-115443000D03*
X143843500Y-89139000D03*
X143843500Y-90439000D03*
X145843500Y-89789000D03*
D25*
X159575500Y-66167000D03*
X159575500Y-68707000D03*
X117665500Y-114173000D03*
X117665500Y-116713000D03*
D18*
X124269500Y-112141000D03*
X126809500Y-112141000D03*
D25*
X187769500Y-87757000D03*
X187769500Y-90297000D03*
X183705500Y-87757000D03*
X183705500Y-90297000D03*
X179387500Y-93345000D03*
X179387500Y-95885000D03*
D19*
X175577500Y-90043000D03*
X175577500Y-87503000D03*
D25*
X139509500Y-114173000D03*
X139509500Y-116713000D03*
D18*
X146113500Y-112141000D03*
X148653500Y-112141000D03*
D25*
X176085500Y-69469000D03*
X176085500Y-72009000D03*
X171767500Y-69469000D03*
X171767500Y-72009000D03*
X179641500Y-75565000D03*
X179641500Y-78105000D03*
D19*
X187515500Y-72009000D03*
X187515500Y-69469000D03*
D25*
X183451500Y-69469000D03*
X183451500Y-72009000D03*
X161353500Y-114173000D03*
X161353500Y-116713000D03*
D18*
X167957500Y-112141000D03*
X170497500Y-112141000D03*
D19*
X148399500Y-79883000D03*
X148399500Y-77343000D03*
D25*
X141541500Y-88519000D03*
X141541500Y-91059000D03*
D20*
X105981500Y-86741000D03*
X103441500Y-86741000D03*
X145859500Y-93599000D03*
X143319500Y-93599000D03*
D18*
X91186000Y-76327000D03*
X93726000Y-76327000D03*
D26*
X151177500Y-94803000D03*
X151177500Y-92903000D03*
X148977500Y-93853000D03*
D27*
X111834500Y-99389000D03*
X112484500Y-99389000D03*
X113134500Y-99389000D03*
X113784500Y-99389000D03*
X114434500Y-99389000D03*
X115084500Y-99389000D03*
X115734500Y-99389000D03*
X116384500Y-99389000D03*
X116384500Y-92889000D03*
X115734500Y-92889000D03*
X115084500Y-92889000D03*
X114434500Y-92889000D03*
X113784500Y-92889000D03*
X113134500Y-92889000D03*
X112484500Y-92889000D03*
X111834500Y-92889000D03*
D28*
X114109500Y-96139000D03*
D25*
X171513500Y-87503000D03*
X171513500Y-90043000D03*
X114617500Y-114173000D03*
X114617500Y-116713000D03*
X136461500Y-114173000D03*
X136461500Y-116713000D03*
X158305500Y-114173000D03*
X158305500Y-116713000D03*
D29*
X164781500Y-133223000D03*
X176213500Y-133223000D03*
D30*
X166053500Y-126873000D03*
X167323500Y-124333000D03*
X168593500Y-126873000D03*
X169863500Y-124333000D03*
X171133500Y-126873000D03*
X172403500Y-124333000D03*
X173673500Y-126873000D03*
X174943500Y-124333000D03*
D31*
X183922500Y-113157000D03*
X182472500Y-113157000D03*
D32*
X183959500Y-115747800D03*
X182689500Y-115747800D03*
X181419500Y-115747800D03*
X181419500Y-119202200D03*
X182689500Y-119202200D03*
X183959500Y-119202200D03*
D25*
X153733500Y-66167000D03*
X153733500Y-68707000D03*
D33*
X201930000Y-134493000D03*
D34*
X201930000Y-130853000D03*
X201930000Y-127213000D03*
X201930000Y-123573000D03*
D33*
X185229500Y-134493000D03*
D34*
X185229500Y-130853000D03*
X185229500Y-127213000D03*
X185229500Y-123573000D03*
D35*
X178816000Y-120777000D03*
X176276000Y-120777000D03*
D36*
X177329000Y-113665000D03*
X178779000Y-113665000D03*
D37*
X178750000Y-115967000D03*
X176850000Y-115967000D03*
X177800000Y-118167000D03*
D18*
X169164000Y-121031000D03*
X171704000Y-121031000D03*
D25*
X174498000Y-115697000D03*
X174498000Y-118237000D03*
D31*
X183605000Y-60833000D03*
X182155000Y-60833000D03*
X183605000Y-63373000D03*
X182155000Y-63373000D03*
D38*
X102870000Y-96139000D03*
X105422700Y-93599000D03*
X102870000Y-91059000D03*
D31*
X183605000Y-58293000D03*
X182155000Y-58293000D03*
D39*
X124225500Y-115443000D03*
D38*
X126765500Y-115443000D03*
D39*
X167957500Y-115443000D03*
D38*
X170497500Y-115443000D03*
D39*
X146091500Y-115443000D03*
D38*
X148631500Y-115443000D03*
D39*
X91186000Y-79121000D03*
D38*
X93726000Y-79121000D03*
D40*
X124968000Y-132969000D03*
X130619500Y-132969000D03*
X136207500Y-132969000D03*
X136461500Y-123317000D03*
X134937500Y-123317000D03*
X125285500Y-123317000D03*
X123761500Y-123317000D03*
X113030000Y-125857000D03*
X107594837Y-125895037D03*
X175514000Y-112395000D03*
X169481500Y-117475000D03*
X162877500Y-118999000D03*
X181419500Y-121031000D03*
X167957500Y-96393000D03*
X142557500Y-62357000D03*
X125984000Y-65659000D03*
X158305500Y-85471000D03*
X107442000Y-99187000D03*
X110299500Y-99695000D03*
X113093500Y-101473000D03*
X114363500Y-101473000D03*
X116332000Y-101473000D03*
X113093500Y-90805000D03*
X115125500Y-90551000D03*
X116649500Y-90551000D03*
X117919500Y-86487000D03*
X113093500Y-86487000D03*
X107505500Y-86741000D03*
X120459500Y-79121000D03*
X139509500Y-91059000D03*
X139509500Y-93345000D03*
X135191500Y-93345000D03*
X129603500Y-90805000D03*
X129603500Y-95377000D03*
X132651500Y-99441000D03*
X153225500Y-86741000D03*
X154495500Y-89027000D03*
X154495500Y-98425000D03*
X160337500Y-79629000D03*
X162877500Y-79629000D03*
X165417500Y-79629000D03*
X171513500Y-83693000D03*
X168973500Y-87249000D03*
X166941500Y-87249000D03*
X180911500Y-104521000D03*
X173291500Y-102743000D03*
X173291500Y-105537000D03*
X148907500Y-102235000D03*
X137985500Y-103759000D03*
X129603500Y-105537000D03*
X124460000Y-117983000D03*
X131381500Y-111887000D03*
X131381500Y-117983000D03*
X136461500Y-118237000D03*
X139509500Y-118237000D03*
X151701500Y-112141000D03*
X146050000Y-118237000D03*
X151701500Y-118237000D03*
X152463500Y-123571000D03*
X180403500Y-72009000D03*
X180340000Y-65151000D03*
X179387500Y-57277000D03*
X192151000Y-57277000D03*
X203708000Y-63119000D03*
X203708000Y-75819000D03*
X203708000Y-88519000D03*
X203708000Y-101219000D03*
X203708000Y-113919000D03*
X205994000Y-126619000D03*
X196088000Y-127127000D03*
X172783500Y-128651000D03*
X169418000Y-135763000D03*
X201168000Y-139573000D03*
X185420000Y-139573000D03*
X175514000Y-139573000D03*
X165354000Y-139573000D03*
X166751000Y-57277000D03*
X154051000Y-57277000D03*
X141351000Y-57277000D03*
X128651000Y-57277000D03*
X115951000Y-57277000D03*
X103251000Y-57277000D03*
X97790000Y-139573000D03*
X88900000Y-126619000D03*
X88900000Y-113919000D03*
X88900000Y-101219000D03*
X88900000Y-88519000D03*
X88900000Y-75819000D03*
X88900000Y-63119000D03*
M02*
