G04 #@! TF.GenerationSoftware,KiCad,Pcbnew,7.0.9*
G04 #@! TF.CreationDate,2023-12-23T18:10:07+01:00*
G04 #@! TF.ProjectId,signalization-by-fireplace,7369676e-616c-4697-9a61-74696f6e2d62,v2.0*
G04 #@! TF.SameCoordinates,Original*
G04 #@! TF.FileFunction,Soldermask,Bot*
G04 #@! TF.FilePolarity,Negative*
%FSLAX46Y46*%
G04 Gerber Fmt 4.6, Leading zero omitted, Abs format (unit mm)*
G04 Created by KiCad (PCBNEW 7.0.9) date 2023-12-23 18:10:07*
%MOMM*%
%LPD*%
G01*
G04 APERTURE LIST*
G04 Aperture macros list*
%AMRoundRect*
0 Rectangle with rounded corners*
0 $1 Rounding radius*
0 $2 $3 $4 $5 $6 $7 $8 $9 X,Y pos of 4 corners*
0 Add a 4 corners polygon primitive as box body*
4,1,4,$2,$3,$4,$5,$6,$7,$8,$9,$2,$3,0*
0 Add four circle primitives for the rounded corners*
1,1,$1+$1,$2,$3*
1,1,$1+$1,$4,$5*
1,1,$1+$1,$6,$7*
1,1,$1+$1,$8,$9*
0 Add four rect primitives between the rounded corners*
20,1,$1+$1,$2,$3,$4,$5,0*
20,1,$1+$1,$4,$5,$6,$7,0*
20,1,$1+$1,$6,$7,$8,$9,0*
20,1,$1+$1,$8,$9,$2,$3,0*%
%AMFreePoly0*
4,1,13,0.685355,0.935355,0.700000,0.900000,0.700000,-0.900000,0.685355,-0.935355,0.650000,-0.950000,-0.650000,-0.950000,-0.685355,-0.935355,-0.700000,-0.900000,-0.700000,0.900000,-0.685355,0.935355,-0.650000,0.950000,0.650000,0.950000,0.685355,0.935355,0.685355,0.935355,$1*%
G04 Aperture macros list end*
%ADD10C,6.100000*%
%ADD11RoundRect,0.050000X1.050000X1.050000X-1.050000X1.050000X-1.050000X-1.050000X1.050000X-1.050000X0*%
%ADD12O,2.200000X2.200000*%
%ADD13RoundRect,0.050000X-1.050000X-1.050000X1.050000X-1.050000X1.050000X1.050000X-1.050000X1.050000X0*%
%ADD14C,5.100000*%
%ADD15RoundRect,0.050000X-1.750000X-1.750000X1.750000X-1.750000X1.750000X1.750000X-1.750000X1.750000X0*%
%ADD16C,3.600000*%
%ADD17O,3.600000X3.600000*%
%ADD18C,3.400000*%
%ADD19C,1.600000*%
%ADD20RoundRect,0.050000X1.550000X1.550000X-1.550000X1.550000X-1.550000X-1.550000X1.550000X-1.550000X0*%
%ADD21O,3.200000X3.200000*%
%ADD22C,2.100000*%
%ADD23FreePoly0,270.000000*%
%ADD24FreePoly0,180.000000*%
%ADD25RoundRect,0.050000X-0.400000X1.100000X-0.400000X-1.100000X0.400000X-1.100000X0.400000X1.100000X0*%
%ADD26RoundRect,0.050000X-0.450000X-0.450000X0.450000X-0.450000X0.450000X0.450000X-0.450000X0.450000X0*%
%ADD27RoundRect,0.050000X-1.000000X-1.000000X1.000000X-1.000000X1.000000X1.000000X-1.000000X1.000000X0*%
%ADD28RoundRect,0.050000X0.500000X-0.500000X0.500000X0.500000X-0.500000X0.500000X-0.500000X-0.500000X0*%
%ADD29FreePoly0,90.000000*%
%ADD30FreePoly0,0.000000*%
%ADD31RoundRect,0.050000X0.400000X-1.000000X0.400000X1.000000X-0.400000X1.000000X-0.400000X-1.000000X0*%
%ADD32RoundRect,0.050000X-1.650000X2.000000X-1.650000X-2.000000X1.650000X-2.000000X1.650000X2.000000X0*%
%ADD33C,0.900000*%
G04 APERTURE END LIST*
D10*
X208788000Y-138049000D03*
X208788000Y-52642441D03*
X141837500Y-138049000D03*
X158897500Y-138049000D03*
X86106000Y-52675428D03*
X86106000Y-138102922D03*
X194898000Y-115871000D03*
D11*
X159575500Y-74549000D03*
D12*
X159575500Y-72009000D03*
D11*
X187769500Y-96139000D03*
D12*
X187769500Y-93599000D03*
D13*
X183451500Y-93599000D03*
D12*
X183451500Y-96139000D03*
D11*
X175577500Y-96139000D03*
D12*
X175577500Y-93599000D03*
D13*
X171513500Y-93599000D03*
D12*
X171513500Y-96139000D03*
D11*
X171767500Y-78105000D03*
D12*
X171767500Y-75565000D03*
D13*
X175831500Y-75565000D03*
D12*
X175831500Y-78105000D03*
D11*
X183451500Y-77851000D03*
D12*
X183451500Y-75311000D03*
D13*
X187515500Y-75311000D03*
D12*
X187515500Y-77851000D03*
D11*
X153733500Y-74549000D03*
D12*
X153733500Y-72009000D03*
D13*
X187012700Y-63228740D03*
D12*
X187012700Y-60688740D03*
X187012700Y-58148740D03*
X187012700Y-55608740D03*
D14*
X193905500Y-106649000D03*
X100861500Y-106649000D03*
X100861500Y-51649000D03*
X193905500Y-51649000D03*
D15*
X135667500Y-138303000D03*
D16*
X130587500Y-138303000D03*
X125507500Y-138303000D03*
D15*
X147797500Y-136017000D03*
D16*
X152877500Y-136017000D03*
D15*
X113377500Y-138303000D03*
D17*
X108297500Y-138303000D03*
D11*
X143573500Y-82423000D03*
D12*
X143573500Y-79883000D03*
X143573500Y-77343000D03*
D11*
X139001500Y-82423000D03*
D12*
X139001500Y-79883000D03*
X139001500Y-77343000D03*
D11*
X134429500Y-82423000D03*
D12*
X134429500Y-79883000D03*
X134429500Y-77343000D03*
D11*
X129857500Y-82423000D03*
D12*
X129857500Y-79883000D03*
X129857500Y-77343000D03*
D18*
X164781500Y-133223000D03*
X176213500Y-133223000D03*
D19*
X166053500Y-126873000D03*
X167323500Y-124333000D03*
X168593500Y-126873000D03*
X169863500Y-124333000D03*
X171133500Y-126873000D03*
X172403500Y-124333000D03*
X173673500Y-126873000D03*
X174943500Y-124333000D03*
D20*
X201930000Y-134493000D03*
D21*
X201930000Y-130853000D03*
X201930000Y-127213000D03*
X201930000Y-123573000D03*
D20*
X185229500Y-134493000D03*
D21*
X185229500Y-130853000D03*
X185229500Y-127213000D03*
X185229500Y-123573000D03*
D22*
X102870000Y-96139000D03*
X105422700Y-93599000D03*
X102870000Y-91059000D03*
D23*
X159829500Y-81153000D03*
X159829500Y-83693000D03*
X157035500Y-81153000D03*
X157035500Y-83693000D03*
X165925500Y-81153000D03*
X165925500Y-83693000D03*
X168719500Y-81153000D03*
X168719500Y-83693000D03*
D24*
X137985500Y-91567000D03*
X135445500Y-91567000D03*
D25*
X123761500Y-127685800D03*
X125031500Y-127685800D03*
X126301500Y-127685800D03*
X126301500Y-131140200D03*
X125031500Y-131140200D03*
X123761500Y-131140200D03*
X129349500Y-127685800D03*
X130619500Y-127685800D03*
X131889500Y-127685800D03*
X131889500Y-131140200D03*
X130619500Y-131140200D03*
X129349500Y-131140200D03*
D26*
X123798500Y-124841000D03*
X125248500Y-124841000D03*
X129386500Y-124841000D03*
X130836500Y-124841000D03*
D27*
X124225500Y-115443000D03*
D22*
X126765500Y-115443000D03*
D28*
X151381500Y-127873000D03*
X149481500Y-127873000D03*
X150431500Y-125673000D03*
D27*
X167957500Y-115443000D03*
D22*
X170497500Y-115443000D03*
D29*
X147891500Y-132715000D03*
X147891500Y-130175000D03*
D30*
X110299500Y-97409000D03*
X112839500Y-97409000D03*
X110299500Y-94615000D03*
X112839500Y-94615000D03*
X115379500Y-97409000D03*
X117919500Y-97409000D03*
D27*
X146091500Y-115443000D03*
D22*
X148631500Y-115443000D03*
D29*
X152971500Y-132715000D03*
X152971500Y-130175000D03*
D31*
X182943500Y-113885000D03*
X181673500Y-113885000D03*
X180403500Y-113885000D03*
X179133500Y-113885000D03*
X179133500Y-108365000D03*
X180403500Y-108365000D03*
X181673500Y-108365000D03*
X182943500Y-108365000D03*
D29*
X175958500Y-120269000D03*
X175958500Y-117729000D03*
X179006500Y-120269000D03*
X179006500Y-117729000D03*
X186182000Y-120269000D03*
X186182000Y-117729000D03*
X183070500Y-120269000D03*
X183070500Y-117729000D03*
D27*
X91186000Y-79121000D03*
D22*
X93726000Y-79121000D03*
D32*
X107598000Y-132461000D03*
X114398000Y-132461000D03*
D24*
X117919500Y-94615000D03*
X115379500Y-94615000D03*
D25*
X134937500Y-127685800D03*
X136207500Y-127685800D03*
X137477500Y-127685800D03*
X137477500Y-131140200D03*
X136207500Y-131140200D03*
X134937500Y-131140200D03*
D26*
X134974500Y-124841000D03*
X136424500Y-124841000D03*
D33*
X124968000Y-132969000D03*
X130619500Y-132969000D03*
X136207500Y-132969000D03*
X136461500Y-123317000D03*
X134937500Y-123317000D03*
X125285500Y-123317000D03*
X123761500Y-123317000D03*
X113030000Y-125857000D03*
X107594837Y-125895037D03*
X175514000Y-112395000D03*
X169481500Y-117475000D03*
X162877500Y-118999000D03*
X181419500Y-121031000D03*
X167957500Y-96393000D03*
X142557500Y-62357000D03*
X125984000Y-65659000D03*
X158305500Y-85471000D03*
X107442000Y-99187000D03*
X110299500Y-99695000D03*
X113093500Y-101473000D03*
X114363500Y-101473000D03*
X116332000Y-101473000D03*
X113093500Y-90805000D03*
X115125500Y-90551000D03*
X116649500Y-90551000D03*
X117919500Y-86487000D03*
X113093500Y-86487000D03*
X107505500Y-86741000D03*
X120459500Y-79121000D03*
X139509500Y-91059000D03*
X139509500Y-93345000D03*
X135191500Y-93345000D03*
X129603500Y-90805000D03*
X129603500Y-95377000D03*
X132651500Y-99441000D03*
X153225500Y-86741000D03*
X154495500Y-89027000D03*
X154495500Y-98425000D03*
X160337500Y-79629000D03*
X162877500Y-79629000D03*
X165417500Y-79629000D03*
X171513500Y-83693000D03*
X168973500Y-87249000D03*
X166941500Y-87249000D03*
X180911500Y-104521000D03*
X173291500Y-102743000D03*
X173291500Y-105537000D03*
X148907500Y-102235000D03*
X137985500Y-103759000D03*
X129603500Y-105537000D03*
X124460000Y-117983000D03*
X131381500Y-111887000D03*
X131381500Y-117983000D03*
X136461500Y-118237000D03*
X139509500Y-118237000D03*
X151701500Y-112141000D03*
X146050000Y-118237000D03*
X151701500Y-118237000D03*
X152463500Y-123571000D03*
X180403500Y-72009000D03*
X180340000Y-65151000D03*
X179387500Y-57277000D03*
X192151000Y-57277000D03*
X203708000Y-63119000D03*
X203708000Y-75819000D03*
X203708000Y-88519000D03*
X203708000Y-101219000D03*
X203708000Y-113919000D03*
X205994000Y-126619000D03*
X196088000Y-127127000D03*
X172783500Y-128651000D03*
X169418000Y-135763000D03*
X201168000Y-139573000D03*
X185420000Y-139573000D03*
X175514000Y-139573000D03*
X165354000Y-139573000D03*
X166751000Y-57277000D03*
X154051000Y-57277000D03*
X141351000Y-57277000D03*
X128651000Y-57277000D03*
X115951000Y-57277000D03*
X103251000Y-57277000D03*
X97790000Y-139573000D03*
X88900000Y-126619000D03*
X88900000Y-113919000D03*
X88900000Y-101219000D03*
X88900000Y-88519000D03*
X88900000Y-75819000D03*
X88900000Y-63119000D03*
M02*
