M48
; DRILL file {KiCad 7.0.9} date Sat Dec 23 18:10:20 2023
; FORMAT={-:-/ absolute / metric / decimal}
; #@! TF.CreationDate,2023-12-23T18:10:20+01:00
; #@! TF.GenerationSoftware,Kicad,Pcbnew,7.0.9
; #@! TF.FileFunction,Plated,1,2,PTH
FMAT,2
METRIC
; #@! TA.AperFunction,Plated,PTH,ViaDrill
T1C0.400
; #@! TA.AperFunction,Plated,PTH,ComponentDrill
T2C0.600
; #@! TA.AperFunction,Plated,PTH,ComponentDrill
T3C0.700
; #@! TA.AperFunction,Plated,PTH,ComponentDrill
T4C0.800
; #@! TA.AperFunction,Plated,PTH,ComponentDrill
T5C1.000
; #@! TA.AperFunction,Plated,PTH,ComponentDrill
T6C1.200
; #@! TA.AperFunction,Plated,PTH,ComponentDrill
T7C1.500
; #@! TA.AperFunction,Plated,PTH,ComponentDrill
T8C3.000
%
G90
G05
T1
X88.9Y-63.119
X88.9Y-75.819
X88.9Y-88.519
X88.9Y-101.219
X88.9Y-113.919
X88.9Y-126.619
X97.79Y-139.573
X103.251Y-57.277
X107.442Y-99.187
X107.505Y-86.741
X107.595Y-125.895
X110.299Y-99.695
X113.03Y-125.857
X113.093Y-86.487
X113.093Y-90.805
X113.093Y-101.473
X114.363Y-101.473
X115.125Y-90.551
X115.951Y-57.277
X116.332Y-101.473
X116.649Y-90.551
X117.919Y-86.487
X120.459Y-79.121
X123.761Y-123.317
X124.46Y-117.983
X124.968Y-132.969
X125.285Y-123.317
X125.984Y-65.659
X128.651Y-57.277
X129.603Y-90.805
X129.603Y-95.377
X129.603Y-105.537
X130.619Y-132.969
X131.381Y-111.887
X131.381Y-117.983
X132.651Y-99.441
X134.938Y-123.317
X135.191Y-93.345
X136.207Y-132.969
X136.462Y-118.237
X136.462Y-123.317
X137.986Y-103.759
X139.51Y-91.059
X139.51Y-93.345
X139.51Y-118.237
X141.351Y-57.277
X142.558Y-62.357
X146.05Y-118.237
X148.907Y-102.235
X151.701Y-112.141
X151.701Y-118.237
X152.463Y-123.571
X153.225Y-86.741
X154.051Y-57.277
X154.495Y-89.027
X154.495Y-98.425
X158.305Y-85.471
X160.338Y-79.629
X162.877Y-79.629
X162.877Y-118.999
X165.354Y-139.573
X165.417Y-79.629
X166.751Y-57.277
X166.941Y-87.249
X167.957Y-96.393
X168.974Y-87.249
X169.418Y-135.763
X169.481Y-117.475
X171.513Y-83.693
X172.784Y-128.651
X173.291Y-102.743
X173.291Y-105.537
X175.514Y-112.395
X175.514Y-139.573
X179.387Y-57.277
X180.34Y-65.151
X180.403Y-72.009
X180.911Y-104.521
X181.419Y-121.031
X185.42Y-139.573
X192.151Y-57.277
X196.088Y-127.127
X201.168Y-139.573
X203.708Y-63.119
X203.708Y-75.819
X203.708Y-88.519
X203.708Y-101.219
X203.708Y-113.919
X205.994Y-126.619
T2
X102.87Y-91.059
X102.87Y-96.139
X105.423Y-93.599
T3
X91.186Y-79.121
X93.726Y-79.121
X124.225Y-115.443
X126.765Y-115.443
X146.091Y-115.443
X148.631Y-115.443
X167.957Y-115.443
X170.498Y-115.443
T4
X166.053Y-126.873
X167.323Y-124.333
X168.594Y-126.873
X169.863Y-124.333
X171.133Y-126.873
X172.403Y-124.333
X173.673Y-126.873
X174.944Y-124.333
T5
X129.857Y-77.343
X129.857Y-79.883
X129.857Y-82.423
X134.429Y-77.343
X134.429Y-79.883
X134.429Y-82.423
X139.001Y-77.343
X139.001Y-79.883
X139.001Y-82.423
X143.573Y-77.343
X143.573Y-79.883
X143.573Y-82.423
X153.733Y-72.009
X153.733Y-74.549
X159.576Y-72.009
X159.576Y-74.549
X171.513Y-93.599
X171.513Y-96.139
X171.767Y-75.565
X171.767Y-78.105
X175.577Y-93.599
X175.577Y-96.139
X175.832Y-75.565
X175.832Y-78.105
X183.451Y-75.311
X183.451Y-77.851
X183.451Y-93.599
X183.451Y-96.139
X187.013Y-55.609
X187.013Y-58.149
X187.013Y-60.689
X187.013Y-63.229
X187.516Y-75.311
X187.516Y-77.851
X187.769Y-93.599
X187.769Y-96.139
T6
X108.297Y-138.303
X113.377Y-138.303
X125.507Y-138.303
X130.588Y-138.303
X135.667Y-138.303
T7
X147.797Y-136.017
X152.877Y-136.017
X185.23Y-123.573
X185.23Y-127.213
X185.23Y-130.853
X185.23Y-134.493
X201.93Y-123.573
X201.93Y-127.213
X201.93Y-130.853
X201.93Y-134.493
T8
X86.106Y-52.675
X86.106Y-138.103
X100.861Y-51.649
X100.861Y-106.649
X141.838Y-138.049
X158.897Y-138.049
X193.905Y-51.649
X193.905Y-106.649
X194.898Y-115.871
X208.788Y-52.642
X208.788Y-138.049
T0
M30
