G04 #@! TF.GenerationSoftware,KiCad,Pcbnew,7.0.9*
G04 #@! TF.CreationDate,2023-12-23T18:10:07+01:00*
G04 #@! TF.ProjectId,signalization-by-fireplace,7369676e-616c-4697-9a61-74696f6e2d62,v2.0*
G04 #@! TF.SameCoordinates,Original*
G04 #@! TF.FileFunction,Legend,Bot*
G04 #@! TF.FilePolarity,Positive*
%FSLAX46Y46*%
G04 Gerber Fmt 4.6, Leading zero omitted, Abs format (unit mm)*
G04 Created by KiCad (PCBNEW 7.0.9) date 2023-12-23 18:10:07*
%MOMM*%
%LPD*%
G01*
G04 APERTURE LIST*
G04 Aperture macros list*
%AMRoundRect*
0 Rectangle with rounded corners*
0 $1 Rounding radius*
0 $2 $3 $4 $5 $6 $7 $8 $9 X,Y pos of 4 corners*
0 Add a 4 corners polygon primitive as box body*
4,1,4,$2,$3,$4,$5,$6,$7,$8,$9,$2,$3,0*
0 Add four circle primitives for the rounded corners*
1,1,$1+$1,$2,$3*
1,1,$1+$1,$4,$5*
1,1,$1+$1,$6,$7*
1,1,$1+$1,$8,$9*
0 Add four rect primitives between the rounded corners*
20,1,$1+$1,$2,$3,$4,$5,0*
20,1,$1+$1,$4,$5,$6,$7,0*
20,1,$1+$1,$6,$7,$8,$9,0*
20,1,$1+$1,$8,$9,$2,$3,0*%
%AMFreePoly0*
4,1,13,0.685355,0.935355,0.700000,0.900000,0.700000,-0.900000,0.685355,-0.935355,0.650000,-0.950000,-0.650000,-0.950000,-0.685355,-0.935355,-0.700000,-0.900000,-0.700000,0.900000,-0.685355,0.935355,-0.650000,0.950000,0.650000,0.950000,0.685355,0.935355,0.685355,0.935355,$1*%
G04 Aperture macros list end*
%ADD10C,0.150000*%
%ADD11C,0.160000*%
%ADD12C,0.120000*%
%ADD13C,3.300000*%
%ADD14C,6.100000*%
%ADD15RoundRect,0.050000X1.050000X1.050000X-1.050000X1.050000X-1.050000X-1.050000X1.050000X-1.050000X0*%
%ADD16O,2.200000X2.200000*%
%ADD17RoundRect,0.050000X-1.050000X-1.050000X1.050000X-1.050000X1.050000X1.050000X-1.050000X1.050000X0*%
%ADD18C,5.100000*%
%ADD19RoundRect,0.050000X-1.750000X-1.750000X1.750000X-1.750000X1.750000X1.750000X-1.750000X1.750000X0*%
%ADD20C,3.600000*%
%ADD21O,3.600000X3.600000*%
%ADD22C,3.400000*%
%ADD23C,1.600000*%
%ADD24RoundRect,0.050000X1.550000X1.550000X-1.550000X1.550000X-1.550000X-1.550000X1.550000X-1.550000X0*%
%ADD25O,3.200000X3.200000*%
%ADD26C,2.100000*%
%ADD27FreePoly0,270.000000*%
%ADD28FreePoly0,180.000000*%
%ADD29RoundRect,0.050000X-0.400000X1.100000X-0.400000X-1.100000X0.400000X-1.100000X0.400000X1.100000X0*%
%ADD30RoundRect,0.050000X-0.450000X-0.450000X0.450000X-0.450000X0.450000X0.450000X-0.450000X0.450000X0*%
%ADD31RoundRect,0.050000X-1.000000X-1.000000X1.000000X-1.000000X1.000000X1.000000X-1.000000X1.000000X0*%
%ADD32RoundRect,0.050000X0.500000X-0.500000X0.500000X0.500000X-0.500000X0.500000X-0.500000X-0.500000X0*%
%ADD33FreePoly0,90.000000*%
%ADD34FreePoly0,0.000000*%
%ADD35RoundRect,0.050000X0.400000X-1.000000X0.400000X1.000000X-0.400000X1.000000X-0.400000X-1.000000X0*%
%ADD36RoundRect,0.050000X-1.650000X2.000000X-1.650000X-2.000000X1.650000X-2.000000X1.650000X2.000000X0*%
%ADD37C,0.900000*%
G04 APERTURE END LIST*
D10*
X187750794Y-66223559D02*
X187750794Y-65223559D01*
X187750794Y-65223559D02*
X187369842Y-65223559D01*
X187369842Y-65223559D02*
X187274604Y-65271178D01*
X187274604Y-65271178D02*
X187226985Y-65318797D01*
X187226985Y-65318797D02*
X187179366Y-65414035D01*
X187179366Y-65414035D02*
X187179366Y-65556892D01*
X187179366Y-65556892D02*
X187226985Y-65652130D01*
X187226985Y-65652130D02*
X187274604Y-65699749D01*
X187274604Y-65699749D02*
X187369842Y-65747368D01*
X187369842Y-65747368D02*
X187750794Y-65747368D01*
X186226985Y-66223559D02*
X186798413Y-66223559D01*
X186512699Y-66223559D02*
X186512699Y-65223559D01*
X186512699Y-65223559D02*
X186607937Y-65366416D01*
X186607937Y-65366416D02*
X186703175Y-65461654D01*
X186703175Y-65461654D02*
X186798413Y-65509273D01*
D11*
X160125060Y-85685333D02*
X160172680Y-85637714D01*
X160172680Y-85637714D02*
X160220299Y-85494857D01*
X160220299Y-85494857D02*
X160220299Y-85399619D01*
X160220299Y-85399619D02*
X160172680Y-85256762D01*
X160172680Y-85256762D02*
X160077441Y-85161524D01*
X160077441Y-85161524D02*
X159982203Y-85113905D01*
X159982203Y-85113905D02*
X159791727Y-85066286D01*
X159791727Y-85066286D02*
X159648870Y-85066286D01*
X159648870Y-85066286D02*
X159458394Y-85113905D01*
X159458394Y-85113905D02*
X159363156Y-85161524D01*
X159363156Y-85161524D02*
X159267918Y-85256762D01*
X159267918Y-85256762D02*
X159220299Y-85399619D01*
X159220299Y-85399619D02*
X159220299Y-85494857D01*
X159220299Y-85494857D02*
X159267918Y-85637714D01*
X159267918Y-85637714D02*
X159315537Y-85685333D01*
X160220299Y-86637714D02*
X160220299Y-86066286D01*
X160220299Y-86352000D02*
X159220299Y-86352000D01*
X159220299Y-86352000D02*
X159363156Y-86256762D01*
X159363156Y-86256762D02*
X159458394Y-86161524D01*
X159458394Y-86161524D02*
X159506013Y-86066286D01*
X157458060Y-85558333D02*
X157505680Y-85510714D01*
X157505680Y-85510714D02*
X157553299Y-85367857D01*
X157553299Y-85367857D02*
X157553299Y-85272619D01*
X157553299Y-85272619D02*
X157505680Y-85129762D01*
X157505680Y-85129762D02*
X157410441Y-85034524D01*
X157410441Y-85034524D02*
X157315203Y-84986905D01*
X157315203Y-84986905D02*
X157124727Y-84939286D01*
X157124727Y-84939286D02*
X156981870Y-84939286D01*
X156981870Y-84939286D02*
X156791394Y-84986905D01*
X156791394Y-84986905D02*
X156696156Y-85034524D01*
X156696156Y-85034524D02*
X156600918Y-85129762D01*
X156600918Y-85129762D02*
X156553299Y-85272619D01*
X156553299Y-85272619D02*
X156553299Y-85367857D01*
X156553299Y-85367857D02*
X156600918Y-85510714D01*
X156600918Y-85510714D02*
X156648537Y-85558333D01*
X156648537Y-85939286D02*
X156600918Y-85986905D01*
X156600918Y-85986905D02*
X156553299Y-86082143D01*
X156553299Y-86082143D02*
X156553299Y-86320238D01*
X156553299Y-86320238D02*
X156600918Y-86415476D01*
X156600918Y-86415476D02*
X156648537Y-86463095D01*
X156648537Y-86463095D02*
X156743775Y-86510714D01*
X156743775Y-86510714D02*
X156839013Y-86510714D01*
X156839013Y-86510714D02*
X156981870Y-86463095D01*
X156981870Y-86463095D02*
X157553299Y-85891667D01*
X157553299Y-85891667D02*
X157553299Y-86510714D01*
X166475060Y-85558333D02*
X166522680Y-85510714D01*
X166522680Y-85510714D02*
X166570299Y-85367857D01*
X166570299Y-85367857D02*
X166570299Y-85272619D01*
X166570299Y-85272619D02*
X166522680Y-85129762D01*
X166522680Y-85129762D02*
X166427441Y-85034524D01*
X166427441Y-85034524D02*
X166332203Y-84986905D01*
X166332203Y-84986905D02*
X166141727Y-84939286D01*
X166141727Y-84939286D02*
X165998870Y-84939286D01*
X165998870Y-84939286D02*
X165808394Y-84986905D01*
X165808394Y-84986905D02*
X165713156Y-85034524D01*
X165713156Y-85034524D02*
X165617918Y-85129762D01*
X165617918Y-85129762D02*
X165570299Y-85272619D01*
X165570299Y-85272619D02*
X165570299Y-85367857D01*
X165570299Y-85367857D02*
X165617918Y-85510714D01*
X165617918Y-85510714D02*
X165665537Y-85558333D01*
X165570299Y-85891667D02*
X165570299Y-86510714D01*
X165570299Y-86510714D02*
X165951251Y-86177381D01*
X165951251Y-86177381D02*
X165951251Y-86320238D01*
X165951251Y-86320238D02*
X165998870Y-86415476D01*
X165998870Y-86415476D02*
X166046489Y-86463095D01*
X166046489Y-86463095D02*
X166141727Y-86510714D01*
X166141727Y-86510714D02*
X166379822Y-86510714D01*
X166379822Y-86510714D02*
X166475060Y-86463095D01*
X166475060Y-86463095D02*
X166522680Y-86415476D01*
X166522680Y-86415476D02*
X166570299Y-86320238D01*
X166570299Y-86320238D02*
X166570299Y-86034524D01*
X166570299Y-86034524D02*
X166522680Y-85939286D01*
X166522680Y-85939286D02*
X166475060Y-85891667D01*
X169142060Y-85558333D02*
X169189680Y-85510714D01*
X169189680Y-85510714D02*
X169237299Y-85367857D01*
X169237299Y-85367857D02*
X169237299Y-85272619D01*
X169237299Y-85272619D02*
X169189680Y-85129762D01*
X169189680Y-85129762D02*
X169094441Y-85034524D01*
X169094441Y-85034524D02*
X168999203Y-84986905D01*
X168999203Y-84986905D02*
X168808727Y-84939286D01*
X168808727Y-84939286D02*
X168665870Y-84939286D01*
X168665870Y-84939286D02*
X168475394Y-84986905D01*
X168475394Y-84986905D02*
X168380156Y-85034524D01*
X168380156Y-85034524D02*
X168284918Y-85129762D01*
X168284918Y-85129762D02*
X168237299Y-85272619D01*
X168237299Y-85272619D02*
X168237299Y-85367857D01*
X168237299Y-85367857D02*
X168284918Y-85510714D01*
X168284918Y-85510714D02*
X168332537Y-85558333D01*
X168570632Y-86415476D02*
X169237299Y-86415476D01*
X168189680Y-86177381D02*
X168903965Y-85939286D01*
X168903965Y-85939286D02*
X168903965Y-86558333D01*
X137612357Y-89894060D02*
X137659976Y-89941680D01*
X137659976Y-89941680D02*
X137802833Y-89989299D01*
X137802833Y-89989299D02*
X137898071Y-89989299D01*
X137898071Y-89989299D02*
X138040928Y-89941680D01*
X138040928Y-89941680D02*
X138136166Y-89846441D01*
X138136166Y-89846441D02*
X138183785Y-89751203D01*
X138183785Y-89751203D02*
X138231404Y-89560727D01*
X138231404Y-89560727D02*
X138231404Y-89417870D01*
X138231404Y-89417870D02*
X138183785Y-89227394D01*
X138183785Y-89227394D02*
X138136166Y-89132156D01*
X138136166Y-89132156D02*
X138040928Y-89036918D01*
X138040928Y-89036918D02*
X137898071Y-88989299D01*
X137898071Y-88989299D02*
X137802833Y-88989299D01*
X137802833Y-88989299D02*
X137659976Y-89036918D01*
X137659976Y-89036918D02*
X137612357Y-89084537D01*
X136659976Y-89989299D02*
X137231404Y-89989299D01*
X136945690Y-89989299D02*
X136945690Y-88989299D01*
X136945690Y-88989299D02*
X137040928Y-89132156D01*
X137040928Y-89132156D02*
X137136166Y-89227394D01*
X137136166Y-89227394D02*
X137231404Y-89275013D01*
X136040928Y-88989299D02*
X135945690Y-88989299D01*
X135945690Y-88989299D02*
X135850452Y-89036918D01*
X135850452Y-89036918D02*
X135802833Y-89084537D01*
X135802833Y-89084537D02*
X135755214Y-89179775D01*
X135755214Y-89179775D02*
X135707595Y-89370251D01*
X135707595Y-89370251D02*
X135707595Y-89608346D01*
X135707595Y-89608346D02*
X135755214Y-89798822D01*
X135755214Y-89798822D02*
X135802833Y-89894060D01*
X135802833Y-89894060D02*
X135850452Y-89941680D01*
X135850452Y-89941680D02*
X135945690Y-89989299D01*
X135945690Y-89989299D02*
X136040928Y-89989299D01*
X136040928Y-89989299D02*
X136136166Y-89941680D01*
X136136166Y-89941680D02*
X136183785Y-89894060D01*
X136183785Y-89894060D02*
X136231404Y-89798822D01*
X136231404Y-89798822D02*
X136279023Y-89608346D01*
X136279023Y-89608346D02*
X136279023Y-89370251D01*
X136279023Y-89370251D02*
X136231404Y-89179775D01*
X136231404Y-89179775D02*
X136183785Y-89084537D01*
X136183785Y-89084537D02*
X136136166Y-89036918D01*
X136136166Y-89036918D02*
X136040928Y-88989299D01*
X125706094Y-133804299D02*
X125706094Y-132804299D01*
X125706094Y-132804299D02*
X125467999Y-132804299D01*
X125467999Y-132804299D02*
X125325142Y-132851918D01*
X125325142Y-132851918D02*
X125229904Y-132947156D01*
X125229904Y-132947156D02*
X125182285Y-133042394D01*
X125182285Y-133042394D02*
X125134666Y-133232870D01*
X125134666Y-133232870D02*
X125134666Y-133375727D01*
X125134666Y-133375727D02*
X125182285Y-133566203D01*
X125182285Y-133566203D02*
X125229904Y-133661441D01*
X125229904Y-133661441D02*
X125325142Y-133756680D01*
X125325142Y-133756680D02*
X125467999Y-133804299D01*
X125467999Y-133804299D02*
X125706094Y-133804299D01*
X124277523Y-133137632D02*
X124277523Y-133804299D01*
X124515618Y-132756680D02*
X124753713Y-133470965D01*
X124753713Y-133470965D02*
X124134666Y-133470965D01*
X131421094Y-133677299D02*
X131421094Y-132677299D01*
X131421094Y-132677299D02*
X131182999Y-132677299D01*
X131182999Y-132677299D02*
X131040142Y-132724918D01*
X131040142Y-132724918D02*
X130944904Y-132820156D01*
X130944904Y-132820156D02*
X130897285Y-132915394D01*
X130897285Y-132915394D02*
X130849666Y-133105870D01*
X130849666Y-133105870D02*
X130849666Y-133248727D01*
X130849666Y-133248727D02*
X130897285Y-133439203D01*
X130897285Y-133439203D02*
X130944904Y-133534441D01*
X130944904Y-133534441D02*
X131040142Y-133629680D01*
X131040142Y-133629680D02*
X131182999Y-133677299D01*
X131182999Y-133677299D02*
X131421094Y-133677299D01*
X129944904Y-132677299D02*
X130421094Y-132677299D01*
X130421094Y-132677299D02*
X130468713Y-133153489D01*
X130468713Y-133153489D02*
X130421094Y-133105870D01*
X130421094Y-133105870D02*
X130325856Y-133058251D01*
X130325856Y-133058251D02*
X130087761Y-133058251D01*
X130087761Y-133058251D02*
X129992523Y-133105870D01*
X129992523Y-133105870D02*
X129944904Y-133153489D01*
X129944904Y-133153489D02*
X129897285Y-133248727D01*
X129897285Y-133248727D02*
X129897285Y-133486822D01*
X129897285Y-133486822D02*
X129944904Y-133582060D01*
X129944904Y-133582060D02*
X129992523Y-133629680D01*
X129992523Y-133629680D02*
X130087761Y-133677299D01*
X130087761Y-133677299D02*
X130325856Y-133677299D01*
X130325856Y-133677299D02*
X130421094Y-133629680D01*
X130421094Y-133629680D02*
X130468713Y-133582060D01*
X122531094Y-125295299D02*
X122531094Y-124295299D01*
X122531094Y-124295299D02*
X122292999Y-124295299D01*
X122292999Y-124295299D02*
X122150142Y-124342918D01*
X122150142Y-124342918D02*
X122054904Y-124438156D01*
X122054904Y-124438156D02*
X122007285Y-124533394D01*
X122007285Y-124533394D02*
X121959666Y-124723870D01*
X121959666Y-124723870D02*
X121959666Y-124866727D01*
X121959666Y-124866727D02*
X122007285Y-125057203D01*
X122007285Y-125057203D02*
X122054904Y-125152441D01*
X122054904Y-125152441D02*
X122150142Y-125247680D01*
X122150142Y-125247680D02*
X122292999Y-125295299D01*
X122292999Y-125295299D02*
X122531094Y-125295299D01*
X121388237Y-124723870D02*
X121483475Y-124676251D01*
X121483475Y-124676251D02*
X121531094Y-124628632D01*
X121531094Y-124628632D02*
X121578713Y-124533394D01*
X121578713Y-124533394D02*
X121578713Y-124485775D01*
X121578713Y-124485775D02*
X121531094Y-124390537D01*
X121531094Y-124390537D02*
X121483475Y-124342918D01*
X121483475Y-124342918D02*
X121388237Y-124295299D01*
X121388237Y-124295299D02*
X121197761Y-124295299D01*
X121197761Y-124295299D02*
X121102523Y-124342918D01*
X121102523Y-124342918D02*
X121054904Y-124390537D01*
X121054904Y-124390537D02*
X121007285Y-124485775D01*
X121007285Y-124485775D02*
X121007285Y-124533394D01*
X121007285Y-124533394D02*
X121054904Y-124628632D01*
X121054904Y-124628632D02*
X121102523Y-124676251D01*
X121102523Y-124676251D02*
X121197761Y-124723870D01*
X121197761Y-124723870D02*
X121388237Y-124723870D01*
X121388237Y-124723870D02*
X121483475Y-124771489D01*
X121483475Y-124771489D02*
X121531094Y-124819108D01*
X121531094Y-124819108D02*
X121578713Y-124914346D01*
X121578713Y-124914346D02*
X121578713Y-125104822D01*
X121578713Y-125104822D02*
X121531094Y-125200060D01*
X121531094Y-125200060D02*
X121483475Y-125247680D01*
X121483475Y-125247680D02*
X121388237Y-125295299D01*
X121388237Y-125295299D02*
X121197761Y-125295299D01*
X121197761Y-125295299D02*
X121102523Y-125247680D01*
X121102523Y-125247680D02*
X121054904Y-125200060D01*
X121054904Y-125200060D02*
X121007285Y-125104822D01*
X121007285Y-125104822D02*
X121007285Y-124914346D01*
X121007285Y-124914346D02*
X121054904Y-124819108D01*
X121054904Y-124819108D02*
X121102523Y-124771489D01*
X121102523Y-124771489D02*
X121197761Y-124723870D01*
X130786094Y-123644299D02*
X130786094Y-122644299D01*
X130786094Y-122644299D02*
X130547999Y-122644299D01*
X130547999Y-122644299D02*
X130405142Y-122691918D01*
X130405142Y-122691918D02*
X130309904Y-122787156D01*
X130309904Y-122787156D02*
X130262285Y-122882394D01*
X130262285Y-122882394D02*
X130214666Y-123072870D01*
X130214666Y-123072870D02*
X130214666Y-123215727D01*
X130214666Y-123215727D02*
X130262285Y-123406203D01*
X130262285Y-123406203D02*
X130309904Y-123501441D01*
X130309904Y-123501441D02*
X130405142Y-123596680D01*
X130405142Y-123596680D02*
X130547999Y-123644299D01*
X130547999Y-123644299D02*
X130786094Y-123644299D01*
X129738475Y-123644299D02*
X129547999Y-123644299D01*
X129547999Y-123644299D02*
X129452761Y-123596680D01*
X129452761Y-123596680D02*
X129405142Y-123549060D01*
X129405142Y-123549060D02*
X129309904Y-123406203D01*
X129309904Y-123406203D02*
X129262285Y-123215727D01*
X129262285Y-123215727D02*
X129262285Y-122834775D01*
X129262285Y-122834775D02*
X129309904Y-122739537D01*
X129309904Y-122739537D02*
X129357523Y-122691918D01*
X129357523Y-122691918D02*
X129452761Y-122644299D01*
X129452761Y-122644299D02*
X129643237Y-122644299D01*
X129643237Y-122644299D02*
X129738475Y-122691918D01*
X129738475Y-122691918D02*
X129786094Y-122739537D01*
X129786094Y-122739537D02*
X129833713Y-122834775D01*
X129833713Y-122834775D02*
X129833713Y-123072870D01*
X129833713Y-123072870D02*
X129786094Y-123168108D01*
X129786094Y-123168108D02*
X129738475Y-123215727D01*
X129738475Y-123215727D02*
X129643237Y-123263346D01*
X129643237Y-123263346D02*
X129452761Y-123263346D01*
X129452761Y-123263346D02*
X129357523Y-123215727D01*
X129357523Y-123215727D02*
X129309904Y-123168108D01*
X129309904Y-123168108D02*
X129262285Y-123072870D01*
X126709785Y-122501299D02*
X126709785Y-121501299D01*
X126709785Y-121501299D02*
X126471690Y-121501299D01*
X126471690Y-121501299D02*
X126328833Y-121548918D01*
X126328833Y-121548918D02*
X126233595Y-121644156D01*
X126233595Y-121644156D02*
X126185976Y-121739394D01*
X126185976Y-121739394D02*
X126138357Y-121929870D01*
X126138357Y-121929870D02*
X126138357Y-122072727D01*
X126138357Y-122072727D02*
X126185976Y-122263203D01*
X126185976Y-122263203D02*
X126233595Y-122358441D01*
X126233595Y-122358441D02*
X126328833Y-122453680D01*
X126328833Y-122453680D02*
X126471690Y-122501299D01*
X126471690Y-122501299D02*
X126709785Y-122501299D01*
X125185976Y-122501299D02*
X125757404Y-122501299D01*
X125471690Y-122501299D02*
X125471690Y-121501299D01*
X125471690Y-121501299D02*
X125566928Y-121644156D01*
X125566928Y-121644156D02*
X125662166Y-121739394D01*
X125662166Y-121739394D02*
X125757404Y-121787013D01*
X124852642Y-121501299D02*
X124233595Y-121501299D01*
X124233595Y-121501299D02*
X124566928Y-121882251D01*
X124566928Y-121882251D02*
X124424071Y-121882251D01*
X124424071Y-121882251D02*
X124328833Y-121929870D01*
X124328833Y-121929870D02*
X124281214Y-121977489D01*
X124281214Y-121977489D02*
X124233595Y-122072727D01*
X124233595Y-122072727D02*
X124233595Y-122310822D01*
X124233595Y-122310822D02*
X124281214Y-122406060D01*
X124281214Y-122406060D02*
X124328833Y-122453680D01*
X124328833Y-122453680D02*
X124424071Y-122501299D01*
X124424071Y-122501299D02*
X124709785Y-122501299D01*
X124709785Y-122501299D02*
X124805023Y-122453680D01*
X124805023Y-122453680D02*
X124852642Y-122406060D01*
X153425799Y-125404714D02*
X152425799Y-125404714D01*
X152425799Y-125404714D02*
X152425799Y-125642809D01*
X152425799Y-125642809D02*
X152473418Y-125785666D01*
X152473418Y-125785666D02*
X152568656Y-125880904D01*
X152568656Y-125880904D02*
X152663894Y-125928523D01*
X152663894Y-125928523D02*
X152854370Y-125976142D01*
X152854370Y-125976142D02*
X152997227Y-125976142D01*
X152997227Y-125976142D02*
X153187703Y-125928523D01*
X153187703Y-125928523D02*
X153282941Y-125880904D01*
X153282941Y-125880904D02*
X153378180Y-125785666D01*
X153378180Y-125785666D02*
X153425799Y-125642809D01*
X153425799Y-125642809D02*
X153425799Y-125404714D01*
X153425799Y-126928523D02*
X153425799Y-126357095D01*
X153425799Y-126642809D02*
X152425799Y-126642809D01*
X152425799Y-126642809D02*
X152568656Y-126547571D01*
X152568656Y-126547571D02*
X152663894Y-126452333D01*
X152663894Y-126452333D02*
X152711513Y-126357095D01*
X152425799Y-127261857D02*
X152425799Y-127928523D01*
X152425799Y-127928523D02*
X153425799Y-127499952D01*
X170441785Y-122501299D02*
X170441785Y-121501299D01*
X170441785Y-121501299D02*
X170203690Y-121501299D01*
X170203690Y-121501299D02*
X170060833Y-121548918D01*
X170060833Y-121548918D02*
X169965595Y-121644156D01*
X169965595Y-121644156D02*
X169917976Y-121739394D01*
X169917976Y-121739394D02*
X169870357Y-121929870D01*
X169870357Y-121929870D02*
X169870357Y-122072727D01*
X169870357Y-122072727D02*
X169917976Y-122263203D01*
X169917976Y-122263203D02*
X169965595Y-122358441D01*
X169965595Y-122358441D02*
X170060833Y-122453680D01*
X170060833Y-122453680D02*
X170203690Y-122501299D01*
X170203690Y-122501299D02*
X170441785Y-122501299D01*
X168917976Y-122501299D02*
X169489404Y-122501299D01*
X169203690Y-122501299D02*
X169203690Y-121501299D01*
X169203690Y-121501299D02*
X169298928Y-121644156D01*
X169298928Y-121644156D02*
X169394166Y-121739394D01*
X169394166Y-121739394D02*
X169489404Y-121787013D01*
X168346547Y-121929870D02*
X168441785Y-121882251D01*
X168441785Y-121882251D02*
X168489404Y-121834632D01*
X168489404Y-121834632D02*
X168537023Y-121739394D01*
X168537023Y-121739394D02*
X168537023Y-121691775D01*
X168537023Y-121691775D02*
X168489404Y-121596537D01*
X168489404Y-121596537D02*
X168441785Y-121548918D01*
X168441785Y-121548918D02*
X168346547Y-121501299D01*
X168346547Y-121501299D02*
X168156071Y-121501299D01*
X168156071Y-121501299D02*
X168060833Y-121548918D01*
X168060833Y-121548918D02*
X168013214Y-121596537D01*
X168013214Y-121596537D02*
X167965595Y-121691775D01*
X167965595Y-121691775D02*
X167965595Y-121739394D01*
X167965595Y-121739394D02*
X168013214Y-121834632D01*
X168013214Y-121834632D02*
X168060833Y-121882251D01*
X168060833Y-121882251D02*
X168156071Y-121929870D01*
X168156071Y-121929870D02*
X168346547Y-121929870D01*
X168346547Y-121929870D02*
X168441785Y-121977489D01*
X168441785Y-121977489D02*
X168489404Y-122025108D01*
X168489404Y-122025108D02*
X168537023Y-122120346D01*
X168537023Y-122120346D02*
X168537023Y-122310822D01*
X168537023Y-122310822D02*
X168489404Y-122406060D01*
X168489404Y-122406060D02*
X168441785Y-122453680D01*
X168441785Y-122453680D02*
X168346547Y-122501299D01*
X168346547Y-122501299D02*
X168156071Y-122501299D01*
X168156071Y-122501299D02*
X168060833Y-122453680D01*
X168060833Y-122453680D02*
X168013214Y-122406060D01*
X168013214Y-122406060D02*
X167965595Y-122310822D01*
X167965595Y-122310822D02*
X167965595Y-122120346D01*
X167965595Y-122120346D02*
X168013214Y-122025108D01*
X168013214Y-122025108D02*
X168060833Y-121977489D01*
X168060833Y-121977489D02*
X168156071Y-121929870D01*
X150377799Y-131532333D02*
X150377799Y-131056143D01*
X150377799Y-131056143D02*
X149377799Y-131056143D01*
X149473037Y-131818048D02*
X149425418Y-131865667D01*
X149425418Y-131865667D02*
X149377799Y-131960905D01*
X149377799Y-131960905D02*
X149377799Y-132199000D01*
X149377799Y-132199000D02*
X149425418Y-132294238D01*
X149425418Y-132294238D02*
X149473037Y-132341857D01*
X149473037Y-132341857D02*
X149568275Y-132389476D01*
X149568275Y-132389476D02*
X149663513Y-132389476D01*
X149663513Y-132389476D02*
X149806370Y-132341857D01*
X149806370Y-132341857D02*
X150377799Y-131770429D01*
X150377799Y-131770429D02*
X150377799Y-132389476D01*
X111958357Y-99895299D02*
X112291690Y-99419108D01*
X112529785Y-99895299D02*
X112529785Y-98895299D01*
X112529785Y-98895299D02*
X112148833Y-98895299D01*
X112148833Y-98895299D02*
X112053595Y-98942918D01*
X112053595Y-98942918D02*
X112005976Y-98990537D01*
X112005976Y-98990537D02*
X111958357Y-99085775D01*
X111958357Y-99085775D02*
X111958357Y-99228632D01*
X111958357Y-99228632D02*
X112005976Y-99323870D01*
X112005976Y-99323870D02*
X112053595Y-99371489D01*
X112053595Y-99371489D02*
X112148833Y-99419108D01*
X112148833Y-99419108D02*
X112529785Y-99419108D01*
X111577404Y-98990537D02*
X111529785Y-98942918D01*
X111529785Y-98942918D02*
X111434547Y-98895299D01*
X111434547Y-98895299D02*
X111196452Y-98895299D01*
X111196452Y-98895299D02*
X111101214Y-98942918D01*
X111101214Y-98942918D02*
X111053595Y-98990537D01*
X111053595Y-98990537D02*
X111005976Y-99085775D01*
X111005976Y-99085775D02*
X111005976Y-99181013D01*
X111005976Y-99181013D02*
X111053595Y-99323870D01*
X111053595Y-99323870D02*
X111625023Y-99895299D01*
X111625023Y-99895299D02*
X111005976Y-99895299D01*
X110672642Y-98895299D02*
X110053595Y-98895299D01*
X110053595Y-98895299D02*
X110386928Y-99276251D01*
X110386928Y-99276251D02*
X110244071Y-99276251D01*
X110244071Y-99276251D02*
X110148833Y-99323870D01*
X110148833Y-99323870D02*
X110101214Y-99371489D01*
X110101214Y-99371489D02*
X110053595Y-99466727D01*
X110053595Y-99466727D02*
X110053595Y-99704822D01*
X110053595Y-99704822D02*
X110101214Y-99800060D01*
X110101214Y-99800060D02*
X110148833Y-99847680D01*
X110148833Y-99847680D02*
X110244071Y-99895299D01*
X110244071Y-99895299D02*
X110529785Y-99895299D01*
X110529785Y-99895299D02*
X110625023Y-99847680D01*
X110625023Y-99847680D02*
X110672642Y-99800060D01*
X112148857Y-93037299D02*
X112482190Y-92561108D01*
X112720285Y-93037299D02*
X112720285Y-92037299D01*
X112720285Y-92037299D02*
X112339333Y-92037299D01*
X112339333Y-92037299D02*
X112244095Y-92084918D01*
X112244095Y-92084918D02*
X112196476Y-92132537D01*
X112196476Y-92132537D02*
X112148857Y-92227775D01*
X112148857Y-92227775D02*
X112148857Y-92370632D01*
X112148857Y-92370632D02*
X112196476Y-92465870D01*
X112196476Y-92465870D02*
X112244095Y-92513489D01*
X112244095Y-92513489D02*
X112339333Y-92561108D01*
X112339333Y-92561108D02*
X112720285Y-92561108D01*
X111767904Y-92132537D02*
X111720285Y-92084918D01*
X111720285Y-92084918D02*
X111625047Y-92037299D01*
X111625047Y-92037299D02*
X111386952Y-92037299D01*
X111386952Y-92037299D02*
X111291714Y-92084918D01*
X111291714Y-92084918D02*
X111244095Y-92132537D01*
X111244095Y-92132537D02*
X111196476Y-92227775D01*
X111196476Y-92227775D02*
X111196476Y-92323013D01*
X111196476Y-92323013D02*
X111244095Y-92465870D01*
X111244095Y-92465870D02*
X111815523Y-93037299D01*
X111815523Y-93037299D02*
X111196476Y-93037299D01*
X110339333Y-92370632D02*
X110339333Y-93037299D01*
X110577428Y-91989680D02*
X110815523Y-92703965D01*
X110815523Y-92703965D02*
X110196476Y-92703965D01*
X117038357Y-99895299D02*
X117371690Y-99419108D01*
X117609785Y-99895299D02*
X117609785Y-98895299D01*
X117609785Y-98895299D02*
X117228833Y-98895299D01*
X117228833Y-98895299D02*
X117133595Y-98942918D01*
X117133595Y-98942918D02*
X117085976Y-98990537D01*
X117085976Y-98990537D02*
X117038357Y-99085775D01*
X117038357Y-99085775D02*
X117038357Y-99228632D01*
X117038357Y-99228632D02*
X117085976Y-99323870D01*
X117085976Y-99323870D02*
X117133595Y-99371489D01*
X117133595Y-99371489D02*
X117228833Y-99419108D01*
X117228833Y-99419108D02*
X117609785Y-99419108D01*
X116657404Y-98990537D02*
X116609785Y-98942918D01*
X116609785Y-98942918D02*
X116514547Y-98895299D01*
X116514547Y-98895299D02*
X116276452Y-98895299D01*
X116276452Y-98895299D02*
X116181214Y-98942918D01*
X116181214Y-98942918D02*
X116133595Y-98990537D01*
X116133595Y-98990537D02*
X116085976Y-99085775D01*
X116085976Y-99085775D02*
X116085976Y-99181013D01*
X116085976Y-99181013D02*
X116133595Y-99323870D01*
X116133595Y-99323870D02*
X116705023Y-99895299D01*
X116705023Y-99895299D02*
X116085976Y-99895299D01*
X115181214Y-98895299D02*
X115657404Y-98895299D01*
X115657404Y-98895299D02*
X115705023Y-99371489D01*
X115705023Y-99371489D02*
X115657404Y-99323870D01*
X115657404Y-99323870D02*
X115562166Y-99276251D01*
X115562166Y-99276251D02*
X115324071Y-99276251D01*
X115324071Y-99276251D02*
X115228833Y-99323870D01*
X115228833Y-99323870D02*
X115181214Y-99371489D01*
X115181214Y-99371489D02*
X115133595Y-99466727D01*
X115133595Y-99466727D02*
X115133595Y-99704822D01*
X115133595Y-99704822D02*
X115181214Y-99800060D01*
X115181214Y-99800060D02*
X115228833Y-99847680D01*
X115228833Y-99847680D02*
X115324071Y-99895299D01*
X115324071Y-99895299D02*
X115562166Y-99895299D01*
X115562166Y-99895299D02*
X115657404Y-99847680D01*
X115657404Y-99847680D02*
X115705023Y-99800060D01*
X148575785Y-122501299D02*
X148575785Y-121501299D01*
X148575785Y-121501299D02*
X148337690Y-121501299D01*
X148337690Y-121501299D02*
X148194833Y-121548918D01*
X148194833Y-121548918D02*
X148099595Y-121644156D01*
X148099595Y-121644156D02*
X148051976Y-121739394D01*
X148051976Y-121739394D02*
X148004357Y-121929870D01*
X148004357Y-121929870D02*
X148004357Y-122072727D01*
X148004357Y-122072727D02*
X148051976Y-122263203D01*
X148051976Y-122263203D02*
X148099595Y-122358441D01*
X148099595Y-122358441D02*
X148194833Y-122453680D01*
X148194833Y-122453680D02*
X148337690Y-122501299D01*
X148337690Y-122501299D02*
X148575785Y-122501299D01*
X147051976Y-122501299D02*
X147623404Y-122501299D01*
X147337690Y-122501299D02*
X147337690Y-121501299D01*
X147337690Y-121501299D02*
X147432928Y-121644156D01*
X147432928Y-121644156D02*
X147528166Y-121739394D01*
X147528166Y-121739394D02*
X147623404Y-121787013D01*
X146194833Y-121501299D02*
X146385309Y-121501299D01*
X146385309Y-121501299D02*
X146480547Y-121548918D01*
X146480547Y-121548918D02*
X146528166Y-121596537D01*
X146528166Y-121596537D02*
X146623404Y-121739394D01*
X146623404Y-121739394D02*
X146671023Y-121929870D01*
X146671023Y-121929870D02*
X146671023Y-122310822D01*
X146671023Y-122310822D02*
X146623404Y-122406060D01*
X146623404Y-122406060D02*
X146575785Y-122453680D01*
X146575785Y-122453680D02*
X146480547Y-122501299D01*
X146480547Y-122501299D02*
X146290071Y-122501299D01*
X146290071Y-122501299D02*
X146194833Y-122453680D01*
X146194833Y-122453680D02*
X146147214Y-122406060D01*
X146147214Y-122406060D02*
X146099595Y-122310822D01*
X146099595Y-122310822D02*
X146099595Y-122072727D01*
X146099595Y-122072727D02*
X146147214Y-121977489D01*
X146147214Y-121977489D02*
X146194833Y-121929870D01*
X146194833Y-121929870D02*
X146290071Y-121882251D01*
X146290071Y-121882251D02*
X146480547Y-121882251D01*
X146480547Y-121882251D02*
X146575785Y-121929870D01*
X146575785Y-121929870D02*
X146623404Y-121977489D01*
X146623404Y-121977489D02*
X146671023Y-122072727D01*
X155457799Y-131532333D02*
X155457799Y-131056143D01*
X155457799Y-131056143D02*
X154457799Y-131056143D01*
X155457799Y-132389476D02*
X155457799Y-131818048D01*
X155457799Y-132103762D02*
X154457799Y-132103762D01*
X154457799Y-132103762D02*
X154600656Y-132008524D01*
X154600656Y-132008524D02*
X154695894Y-131913286D01*
X154695894Y-131913286D02*
X154743513Y-131818048D01*
X185048799Y-110386905D02*
X184048799Y-110386905D01*
X184048799Y-110386905D02*
X184048799Y-110625000D01*
X184048799Y-110625000D02*
X184096418Y-110767857D01*
X184096418Y-110767857D02*
X184191656Y-110863095D01*
X184191656Y-110863095D02*
X184286894Y-110910714D01*
X184286894Y-110910714D02*
X184477370Y-110958333D01*
X184477370Y-110958333D02*
X184620227Y-110958333D01*
X184620227Y-110958333D02*
X184810703Y-110910714D01*
X184810703Y-110910714D02*
X184905941Y-110863095D01*
X184905941Y-110863095D02*
X185001180Y-110767857D01*
X185001180Y-110767857D02*
X185048799Y-110625000D01*
X185048799Y-110625000D02*
X185048799Y-110386905D01*
X184048799Y-111291667D02*
X184048799Y-111958333D01*
X184048799Y-111958333D02*
X185048799Y-111529762D01*
X176125166Y-116405299D02*
X176458499Y-115929108D01*
X176696594Y-116405299D02*
X176696594Y-115405299D01*
X176696594Y-115405299D02*
X176315642Y-115405299D01*
X176315642Y-115405299D02*
X176220404Y-115452918D01*
X176220404Y-115452918D02*
X176172785Y-115500537D01*
X176172785Y-115500537D02*
X176125166Y-115595775D01*
X176125166Y-115595775D02*
X176125166Y-115738632D01*
X176125166Y-115738632D02*
X176172785Y-115833870D01*
X176172785Y-115833870D02*
X176220404Y-115881489D01*
X176220404Y-115881489D02*
X176315642Y-115929108D01*
X176315642Y-115929108D02*
X176696594Y-115929108D01*
X175268023Y-115738632D02*
X175268023Y-116405299D01*
X175506118Y-115357680D02*
X175744213Y-116071965D01*
X175744213Y-116071965D02*
X175125166Y-116071965D01*
X179236666Y-116532299D02*
X179569999Y-116056108D01*
X179808094Y-116532299D02*
X179808094Y-115532299D01*
X179808094Y-115532299D02*
X179427142Y-115532299D01*
X179427142Y-115532299D02*
X179331904Y-115579918D01*
X179331904Y-115579918D02*
X179284285Y-115627537D01*
X179284285Y-115627537D02*
X179236666Y-115722775D01*
X179236666Y-115722775D02*
X179236666Y-115865632D01*
X179236666Y-115865632D02*
X179284285Y-115960870D01*
X179284285Y-115960870D02*
X179331904Y-116008489D01*
X179331904Y-116008489D02*
X179427142Y-116056108D01*
X179427142Y-116056108D02*
X179808094Y-116056108D01*
X178903332Y-115532299D02*
X178284285Y-115532299D01*
X178284285Y-115532299D02*
X178617618Y-115913251D01*
X178617618Y-115913251D02*
X178474761Y-115913251D01*
X178474761Y-115913251D02*
X178379523Y-115960870D01*
X178379523Y-115960870D02*
X178331904Y-116008489D01*
X178331904Y-116008489D02*
X178284285Y-116103727D01*
X178284285Y-116103727D02*
X178284285Y-116341822D01*
X178284285Y-116341822D02*
X178331904Y-116437060D01*
X178331904Y-116437060D02*
X178379523Y-116484680D01*
X178379523Y-116484680D02*
X178474761Y-116532299D01*
X178474761Y-116532299D02*
X178760475Y-116532299D01*
X178760475Y-116532299D02*
X178855713Y-116484680D01*
X178855713Y-116484680D02*
X178903332Y-116437060D01*
X186348666Y-116405299D02*
X186681999Y-115929108D01*
X186920094Y-116405299D02*
X186920094Y-115405299D01*
X186920094Y-115405299D02*
X186539142Y-115405299D01*
X186539142Y-115405299D02*
X186443904Y-115452918D01*
X186443904Y-115452918D02*
X186396285Y-115500537D01*
X186396285Y-115500537D02*
X186348666Y-115595775D01*
X186348666Y-115595775D02*
X186348666Y-115738632D01*
X186348666Y-115738632D02*
X186396285Y-115833870D01*
X186396285Y-115833870D02*
X186443904Y-115881489D01*
X186443904Y-115881489D02*
X186539142Y-115929108D01*
X186539142Y-115929108D02*
X186920094Y-115929108D01*
X185967713Y-115500537D02*
X185920094Y-115452918D01*
X185920094Y-115452918D02*
X185824856Y-115405299D01*
X185824856Y-115405299D02*
X185586761Y-115405299D01*
X185586761Y-115405299D02*
X185491523Y-115452918D01*
X185491523Y-115452918D02*
X185443904Y-115500537D01*
X185443904Y-115500537D02*
X185396285Y-115595775D01*
X185396285Y-115595775D02*
X185396285Y-115691013D01*
X185396285Y-115691013D02*
X185443904Y-115833870D01*
X185443904Y-115833870D02*
X186015332Y-116405299D01*
X186015332Y-116405299D02*
X185396285Y-116405299D01*
X183300666Y-116532299D02*
X183633999Y-116056108D01*
X183872094Y-116532299D02*
X183872094Y-115532299D01*
X183872094Y-115532299D02*
X183491142Y-115532299D01*
X183491142Y-115532299D02*
X183395904Y-115579918D01*
X183395904Y-115579918D02*
X183348285Y-115627537D01*
X183348285Y-115627537D02*
X183300666Y-115722775D01*
X183300666Y-115722775D02*
X183300666Y-115865632D01*
X183300666Y-115865632D02*
X183348285Y-115960870D01*
X183348285Y-115960870D02*
X183395904Y-116008489D01*
X183395904Y-116008489D02*
X183491142Y-116056108D01*
X183491142Y-116056108D02*
X183872094Y-116056108D01*
X182348285Y-116532299D02*
X182919713Y-116532299D01*
X182633999Y-116532299D02*
X182633999Y-115532299D01*
X182633999Y-115532299D02*
X182729237Y-115675156D01*
X182729237Y-115675156D02*
X182824475Y-115770394D01*
X182824475Y-115770394D02*
X182919713Y-115818013D01*
X93670285Y-83639299D02*
X93670285Y-82639299D01*
X93670285Y-82639299D02*
X93432190Y-82639299D01*
X93432190Y-82639299D02*
X93289333Y-82686918D01*
X93289333Y-82686918D02*
X93194095Y-82782156D01*
X93194095Y-82782156D02*
X93146476Y-82877394D01*
X93146476Y-82877394D02*
X93098857Y-83067870D01*
X93098857Y-83067870D02*
X93098857Y-83210727D01*
X93098857Y-83210727D02*
X93146476Y-83401203D01*
X93146476Y-83401203D02*
X93194095Y-83496441D01*
X93194095Y-83496441D02*
X93289333Y-83591680D01*
X93289333Y-83591680D02*
X93432190Y-83639299D01*
X93432190Y-83639299D02*
X93670285Y-83639299D01*
X92717904Y-82734537D02*
X92670285Y-82686918D01*
X92670285Y-82686918D02*
X92575047Y-82639299D01*
X92575047Y-82639299D02*
X92336952Y-82639299D01*
X92336952Y-82639299D02*
X92241714Y-82686918D01*
X92241714Y-82686918D02*
X92194095Y-82734537D01*
X92194095Y-82734537D02*
X92146476Y-82829775D01*
X92146476Y-82829775D02*
X92146476Y-82925013D01*
X92146476Y-82925013D02*
X92194095Y-83067870D01*
X92194095Y-83067870D02*
X92765523Y-83639299D01*
X92765523Y-83639299D02*
X92146476Y-83639299D01*
X91527428Y-82639299D02*
X91432190Y-82639299D01*
X91432190Y-82639299D02*
X91336952Y-82686918D01*
X91336952Y-82686918D02*
X91289333Y-82734537D01*
X91289333Y-82734537D02*
X91241714Y-82829775D01*
X91241714Y-82829775D02*
X91194095Y-83020251D01*
X91194095Y-83020251D02*
X91194095Y-83258346D01*
X91194095Y-83258346D02*
X91241714Y-83448822D01*
X91241714Y-83448822D02*
X91289333Y-83544060D01*
X91289333Y-83544060D02*
X91336952Y-83591680D01*
X91336952Y-83591680D02*
X91432190Y-83639299D01*
X91432190Y-83639299D02*
X91527428Y-83639299D01*
X91527428Y-83639299D02*
X91622666Y-83591680D01*
X91622666Y-83591680D02*
X91670285Y-83544060D01*
X91670285Y-83544060D02*
X91717904Y-83448822D01*
X91717904Y-83448822D02*
X91765523Y-83258346D01*
X91765523Y-83258346D02*
X91765523Y-83020251D01*
X91765523Y-83020251D02*
X91717904Y-82829775D01*
X91717904Y-82829775D02*
X91670285Y-82734537D01*
X91670285Y-82734537D02*
X91622666Y-82686918D01*
X91622666Y-82686918D02*
X91527428Y-82639299D01*
X105163785Y-132915299D02*
X105163785Y-131915299D01*
X105163785Y-131915299D02*
X104925690Y-131915299D01*
X104925690Y-131915299D02*
X104782833Y-131962918D01*
X104782833Y-131962918D02*
X104687595Y-132058156D01*
X104687595Y-132058156D02*
X104639976Y-132153394D01*
X104639976Y-132153394D02*
X104592357Y-132343870D01*
X104592357Y-132343870D02*
X104592357Y-132486727D01*
X104592357Y-132486727D02*
X104639976Y-132677203D01*
X104639976Y-132677203D02*
X104687595Y-132772441D01*
X104687595Y-132772441D02*
X104782833Y-132867680D01*
X104782833Y-132867680D02*
X104925690Y-132915299D01*
X104925690Y-132915299D02*
X105163785Y-132915299D01*
X104211404Y-132010537D02*
X104163785Y-131962918D01*
X104163785Y-131962918D02*
X104068547Y-131915299D01*
X104068547Y-131915299D02*
X103830452Y-131915299D01*
X103830452Y-131915299D02*
X103735214Y-131962918D01*
X103735214Y-131962918D02*
X103687595Y-132010537D01*
X103687595Y-132010537D02*
X103639976Y-132105775D01*
X103639976Y-132105775D02*
X103639976Y-132201013D01*
X103639976Y-132201013D02*
X103687595Y-132343870D01*
X103687595Y-132343870D02*
X104259023Y-132915299D01*
X104259023Y-132915299D02*
X103639976Y-132915299D01*
X103259023Y-132010537D02*
X103211404Y-131962918D01*
X103211404Y-131962918D02*
X103116166Y-131915299D01*
X103116166Y-131915299D02*
X102878071Y-131915299D01*
X102878071Y-131915299D02*
X102782833Y-131962918D01*
X102782833Y-131962918D02*
X102735214Y-132010537D01*
X102735214Y-132010537D02*
X102687595Y-132105775D01*
X102687595Y-132105775D02*
X102687595Y-132201013D01*
X102687595Y-132201013D02*
X102735214Y-132343870D01*
X102735214Y-132343870D02*
X103306642Y-132915299D01*
X103306642Y-132915299D02*
X102687595Y-132915299D01*
X117546357Y-93037299D02*
X117879690Y-92561108D01*
X118117785Y-93037299D02*
X118117785Y-92037299D01*
X118117785Y-92037299D02*
X117736833Y-92037299D01*
X117736833Y-92037299D02*
X117641595Y-92084918D01*
X117641595Y-92084918D02*
X117593976Y-92132537D01*
X117593976Y-92132537D02*
X117546357Y-92227775D01*
X117546357Y-92227775D02*
X117546357Y-92370632D01*
X117546357Y-92370632D02*
X117593976Y-92465870D01*
X117593976Y-92465870D02*
X117641595Y-92513489D01*
X117641595Y-92513489D02*
X117736833Y-92561108D01*
X117736833Y-92561108D02*
X118117785Y-92561108D01*
X117165404Y-92132537D02*
X117117785Y-92084918D01*
X117117785Y-92084918D02*
X117022547Y-92037299D01*
X117022547Y-92037299D02*
X116784452Y-92037299D01*
X116784452Y-92037299D02*
X116689214Y-92084918D01*
X116689214Y-92084918D02*
X116641595Y-92132537D01*
X116641595Y-92132537D02*
X116593976Y-92227775D01*
X116593976Y-92227775D02*
X116593976Y-92323013D01*
X116593976Y-92323013D02*
X116641595Y-92465870D01*
X116641595Y-92465870D02*
X117213023Y-93037299D01*
X117213023Y-93037299D02*
X116593976Y-93037299D01*
X115736833Y-92037299D02*
X115927309Y-92037299D01*
X115927309Y-92037299D02*
X116022547Y-92084918D01*
X116022547Y-92084918D02*
X116070166Y-92132537D01*
X116070166Y-92132537D02*
X116165404Y-92275394D01*
X116165404Y-92275394D02*
X116213023Y-92465870D01*
X116213023Y-92465870D02*
X116213023Y-92846822D01*
X116213023Y-92846822D02*
X116165404Y-92942060D01*
X116165404Y-92942060D02*
X116117785Y-92989680D01*
X116117785Y-92989680D02*
X116022547Y-93037299D01*
X116022547Y-93037299D02*
X115832071Y-93037299D01*
X115832071Y-93037299D02*
X115736833Y-92989680D01*
X115736833Y-92989680D02*
X115689214Y-92942060D01*
X115689214Y-92942060D02*
X115641595Y-92846822D01*
X115641595Y-92846822D02*
X115641595Y-92608727D01*
X115641595Y-92608727D02*
X115689214Y-92513489D01*
X115689214Y-92513489D02*
X115736833Y-92465870D01*
X115736833Y-92465870D02*
X115832071Y-92418251D01*
X115832071Y-92418251D02*
X116022547Y-92418251D01*
X116022547Y-92418251D02*
X116117785Y-92465870D01*
X116117785Y-92465870D02*
X116165404Y-92513489D01*
X116165404Y-92513489D02*
X116213023Y-92608727D01*
X136882094Y-133804299D02*
X136882094Y-132804299D01*
X136882094Y-132804299D02*
X136643999Y-132804299D01*
X136643999Y-132804299D02*
X136501142Y-132851918D01*
X136501142Y-132851918D02*
X136405904Y-132947156D01*
X136405904Y-132947156D02*
X136358285Y-133042394D01*
X136358285Y-133042394D02*
X136310666Y-133232870D01*
X136310666Y-133232870D02*
X136310666Y-133375727D01*
X136310666Y-133375727D02*
X136358285Y-133566203D01*
X136358285Y-133566203D02*
X136405904Y-133661441D01*
X136405904Y-133661441D02*
X136501142Y-133756680D01*
X136501142Y-133756680D02*
X136643999Y-133804299D01*
X136643999Y-133804299D02*
X136882094Y-133804299D01*
X135453523Y-132804299D02*
X135643999Y-132804299D01*
X135643999Y-132804299D02*
X135739237Y-132851918D01*
X135739237Y-132851918D02*
X135786856Y-132899537D01*
X135786856Y-132899537D02*
X135882094Y-133042394D01*
X135882094Y-133042394D02*
X135929713Y-133232870D01*
X135929713Y-133232870D02*
X135929713Y-133613822D01*
X135929713Y-133613822D02*
X135882094Y-133709060D01*
X135882094Y-133709060D02*
X135834475Y-133756680D01*
X135834475Y-133756680D02*
X135739237Y-133804299D01*
X135739237Y-133804299D02*
X135548761Y-133804299D01*
X135548761Y-133804299D02*
X135453523Y-133756680D01*
X135453523Y-133756680D02*
X135405904Y-133709060D01*
X135405904Y-133709060D02*
X135358285Y-133613822D01*
X135358285Y-133613822D02*
X135358285Y-133375727D01*
X135358285Y-133375727D02*
X135405904Y-133280489D01*
X135405904Y-133280489D02*
X135453523Y-133232870D01*
X135453523Y-133232870D02*
X135548761Y-133185251D01*
X135548761Y-133185251D02*
X135739237Y-133185251D01*
X135739237Y-133185251D02*
X135834475Y-133232870D01*
X135834475Y-133232870D02*
X135882094Y-133280489D01*
X135882094Y-133280489D02*
X135929713Y-133375727D01*
X136850285Y-123517299D02*
X136850285Y-122517299D01*
X136850285Y-122517299D02*
X136612190Y-122517299D01*
X136612190Y-122517299D02*
X136469333Y-122564918D01*
X136469333Y-122564918D02*
X136374095Y-122660156D01*
X136374095Y-122660156D02*
X136326476Y-122755394D01*
X136326476Y-122755394D02*
X136278857Y-122945870D01*
X136278857Y-122945870D02*
X136278857Y-123088727D01*
X136278857Y-123088727D02*
X136326476Y-123279203D01*
X136326476Y-123279203D02*
X136374095Y-123374441D01*
X136374095Y-123374441D02*
X136469333Y-123469680D01*
X136469333Y-123469680D02*
X136612190Y-123517299D01*
X136612190Y-123517299D02*
X136850285Y-123517299D01*
X135326476Y-123517299D02*
X135897904Y-123517299D01*
X135612190Y-123517299D02*
X135612190Y-122517299D01*
X135612190Y-122517299D02*
X135707428Y-122660156D01*
X135707428Y-122660156D02*
X135802666Y-122755394D01*
X135802666Y-122755394D02*
X135897904Y-122803013D01*
X134707428Y-122517299D02*
X134612190Y-122517299D01*
X134612190Y-122517299D02*
X134516952Y-122564918D01*
X134516952Y-122564918D02*
X134469333Y-122612537D01*
X134469333Y-122612537D02*
X134421714Y-122707775D01*
X134421714Y-122707775D02*
X134374095Y-122898251D01*
X134374095Y-122898251D02*
X134374095Y-123136346D01*
X134374095Y-123136346D02*
X134421714Y-123326822D01*
X134421714Y-123326822D02*
X134469333Y-123422060D01*
X134469333Y-123422060D02*
X134516952Y-123469680D01*
X134516952Y-123469680D02*
X134612190Y-123517299D01*
X134612190Y-123517299D02*
X134707428Y-123517299D01*
X134707428Y-123517299D02*
X134802666Y-123469680D01*
X134802666Y-123469680D02*
X134850285Y-123422060D01*
X134850285Y-123422060D02*
X134897904Y-123326822D01*
X134897904Y-123326822D02*
X134945523Y-123136346D01*
X134945523Y-123136346D02*
X134945523Y-122898251D01*
X134945523Y-122898251D02*
X134897904Y-122707775D01*
X134897904Y-122707775D02*
X134850285Y-122612537D01*
X134850285Y-122612537D02*
X134802666Y-122564918D01*
X134802666Y-122564918D02*
X134707428Y-122517299D01*
X185682700Y-61958740D02*
X185682700Y-54278740D01*
X185682700Y-61958740D02*
X188342700Y-61958740D01*
X185682700Y-54278740D02*
X188342700Y-54278740D01*
X187012700Y-64558740D02*
X188342700Y-64558740D01*
X188342700Y-64558740D02*
X188342700Y-63228740D01*
X188342700Y-61958740D02*
X188342700Y-54278740D01*
X158649500Y-80223000D02*
X158649500Y-84623000D01*
X161009500Y-80223000D02*
X158649500Y-80223000D01*
X158649500Y-84623000D02*
X161009500Y-84623000D01*
X161009500Y-84623000D02*
X161009500Y-80223000D01*
X155855500Y-80223000D02*
X155855500Y-84623000D01*
X158215500Y-80223000D02*
X155855500Y-80223000D01*
X155855500Y-84623000D02*
X158215500Y-84623000D01*
X158215500Y-84623000D02*
X158215500Y-80223000D01*
X164745500Y-80223000D02*
X164745500Y-84623000D01*
X167105500Y-80223000D02*
X164745500Y-80223000D01*
X164745500Y-84623000D02*
X167105500Y-84623000D01*
X167105500Y-84623000D02*
X167105500Y-80223000D01*
X167539500Y-80223000D02*
X167539500Y-84623000D01*
X169899500Y-80223000D02*
X167539500Y-80223000D01*
X167539500Y-84623000D02*
X169899500Y-84623000D01*
X169899500Y-84623000D02*
X169899500Y-80223000D01*
X138915500Y-90387000D02*
X134515500Y-90387000D01*
X138915500Y-92747000D02*
X138915500Y-90387000D01*
X134515500Y-90387000D02*
X134515500Y-92747000D01*
X134515500Y-92747000D02*
X138915500Y-92747000D01*
X122951500Y-126873000D02*
X122951500Y-131403000D01*
X127000000Y-127423000D02*
X127111500Y-127423000D01*
X127111500Y-127423000D02*
X127111500Y-131403000D01*
X122951500Y-131403000D02*
X123063000Y-131403000D01*
X127000000Y-131403000D02*
X127111500Y-131403000D01*
D12*
X122730510Y-127127000D02*
G75*
G03*
X122730510Y-127127000I-254000J0D01*
G01*
X122540010Y-127127000D02*
G75*
G03*
X122540010Y-127127000I-63500J0D01*
G01*
X122618500Y-127127000D02*
G75*
G03*
X122618500Y-127127000I-141990J0D01*
G01*
D11*
X128539500Y-126873000D02*
X128539500Y-131403000D01*
X132588000Y-127423000D02*
X132699500Y-127423000D01*
X132699500Y-127423000D02*
X132699500Y-131403000D01*
X128539500Y-131403000D02*
X128651000Y-131403000D01*
X132588000Y-131403000D02*
X132699500Y-131403000D01*
D12*
X128318510Y-127127000D02*
G75*
G03*
X128318510Y-127127000I-254000J0D01*
G01*
X128128010Y-127127000D02*
G75*
G03*
X128128010Y-127127000I-63500J0D01*
G01*
X128206500Y-127127000D02*
G75*
G03*
X128206500Y-127127000I-141990J0D01*
G01*
D11*
X122999500Y-125691000D02*
X122999500Y-123991000D01*
X122999500Y-125691000D02*
X125573500Y-125691000D01*
X122999500Y-123991000D02*
X125573500Y-123991000D01*
X128587500Y-125691000D02*
X128587500Y-123991000D01*
X128587500Y-125691000D02*
X131161500Y-125691000D01*
X128587500Y-123991000D02*
X131161500Y-123991000D01*
X120435500Y-117819000D02*
X120435500Y-113067000D01*
X120435500Y-117818816D02*
G75*
G03*
X131085498Y-115447741I5060000J2375816D01*
G01*
X131085498Y-115438259D02*
G75*
G03*
X120435500Y-113067184I-5589998J-4741D01*
G01*
X130495500Y-115443000D02*
G75*
G03*
X130495500Y-115443000I-5000000J0D01*
G01*
X150685500Y-127762000D02*
X150177500Y-127762000D01*
X152082500Y-126113000D02*
X152082500Y-127635000D01*
X152082500Y-126113000D02*
X151152500Y-126113000D01*
X148780500Y-126113000D02*
X148780500Y-127573000D01*
X148780500Y-126113000D02*
X149710500Y-126113000D01*
X164167500Y-117819000D02*
X164167500Y-113067000D01*
X164167500Y-117818816D02*
G75*
G03*
X174817498Y-115447741I5060000J2375816D01*
G01*
X174817498Y-115438259D02*
G75*
G03*
X164167500Y-113067184I-5589998J-4741D01*
G01*
X174227500Y-115443000D02*
G75*
G03*
X174227500Y-115443000I-5000000J0D01*
G01*
X149071500Y-133645000D02*
X149071500Y-129245000D01*
X146711500Y-133645000D02*
X149071500Y-133645000D01*
X149071500Y-129245000D02*
X146711500Y-129245000D01*
X146711500Y-129245000D02*
X146711500Y-133645000D01*
X109369500Y-98589000D02*
X113769500Y-98589000D01*
X109369500Y-96229000D02*
X109369500Y-98589000D01*
X113769500Y-98589000D02*
X113769500Y-96229000D01*
X113769500Y-96229000D02*
X109369500Y-96229000D01*
X109369500Y-95795000D02*
X113769500Y-95795000D01*
X109369500Y-93435000D02*
X109369500Y-95795000D01*
X113769500Y-95795000D02*
X113769500Y-93435000D01*
X113769500Y-93435000D02*
X109369500Y-93435000D01*
X114449500Y-98589000D02*
X118849500Y-98589000D01*
X114449500Y-96229000D02*
X114449500Y-98589000D01*
X118849500Y-98589000D02*
X118849500Y-96229000D01*
X118849500Y-96229000D02*
X114449500Y-96229000D01*
X142301500Y-117819000D02*
X142301500Y-113067000D01*
X142301500Y-117818816D02*
G75*
G03*
X152951498Y-115447741I5060000J2375816D01*
G01*
X152951498Y-115438259D02*
G75*
G03*
X142301500Y-113067184I-5589998J-4741D01*
G01*
X152361500Y-115443000D02*
G75*
G03*
X152361500Y-115443000I-5000000J0D01*
G01*
X154151500Y-133645000D02*
X154151500Y-129245000D01*
X151791500Y-133645000D02*
X154151500Y-133645000D01*
X154151500Y-129245000D02*
X151791500Y-129245000D01*
X151791500Y-129245000D02*
X151791500Y-133645000D01*
X183763500Y-114681000D02*
X183763500Y-108400000D01*
X178313500Y-113850000D02*
X178498500Y-113850000D01*
X178313500Y-113850000D02*
X178313500Y-108400000D01*
X183763500Y-108400000D02*
X183578500Y-108400000D01*
X178313500Y-108400000D02*
X178498500Y-108400000D01*
D12*
X184594500Y-113919000D02*
G75*
G03*
X184594500Y-113919000I-254000J0D01*
G01*
X184467500Y-113919000D02*
G75*
G03*
X184467500Y-113919000I-127000J0D01*
G01*
X184397296Y-113919000D02*
G75*
G03*
X184397296Y-113919000I-56796J0D01*
G01*
X184520105Y-113919000D02*
G75*
G03*
X184520105Y-113919000I-179605J0D01*
G01*
D11*
X177138500Y-121199000D02*
X177138500Y-116799000D01*
X174778500Y-121199000D02*
X177138500Y-121199000D01*
X177138500Y-116799000D02*
X174778500Y-116799000D01*
X174778500Y-116799000D02*
X174778500Y-121199000D01*
X180186500Y-121199000D02*
X180186500Y-116799000D01*
X177826500Y-121199000D02*
X180186500Y-121199000D01*
X180186500Y-116799000D02*
X177826500Y-116799000D01*
X177826500Y-116799000D02*
X177826500Y-121199000D01*
X187362000Y-121199000D02*
X187362000Y-116799000D01*
X185002000Y-121199000D02*
X187362000Y-121199000D01*
X187362000Y-116799000D02*
X185002000Y-116799000D01*
X185002000Y-116799000D02*
X185002000Y-121199000D01*
X184250500Y-121199000D02*
X184250500Y-116799000D01*
X181890500Y-121199000D02*
X184250500Y-121199000D01*
X184250500Y-116799000D02*
X181890500Y-116799000D01*
X181890500Y-116799000D02*
X181890500Y-121199000D01*
X89896000Y-80666000D02*
X89896000Y-77576000D01*
X89896000Y-80665830D02*
G75*
G03*
X95446000Y-79120538I2560000J1544830D01*
G01*
X95445999Y-79121462D02*
G75*
G03*
X89896001Y-77576170I-2989999J462D01*
G01*
X94956000Y-79121000D02*
G75*
G03*
X94956000Y-79121000I-2500000J0D01*
G01*
X105664000Y-135712200D02*
X114598000Y-135711000D01*
X105664000Y-129211000D02*
X105664000Y-135711000D01*
X105664000Y-129211000D02*
X114598000Y-129211000D01*
X118849500Y-93435000D02*
X114449500Y-93435000D01*
X118849500Y-95795000D02*
X118849500Y-93435000D01*
X114449500Y-93435000D02*
X114449500Y-95795000D01*
X114449500Y-95795000D02*
X118849500Y-95795000D01*
X134127500Y-126873000D02*
X134127500Y-131403000D01*
X138176000Y-127423000D02*
X138287500Y-127423000D01*
X138287500Y-127423000D02*
X138287500Y-131403000D01*
X134127500Y-131403000D02*
X134239000Y-131403000D01*
X138176000Y-131403000D02*
X138287500Y-131403000D01*
D12*
X133906510Y-127127000D02*
G75*
G03*
X133906510Y-127127000I-254000J0D01*
G01*
X133716010Y-127127000D02*
G75*
G03*
X133716010Y-127127000I-63500J0D01*
G01*
X133794500Y-127127000D02*
G75*
G03*
X133794500Y-127127000I-141990J0D01*
G01*
D11*
X134175500Y-125691000D02*
X134175500Y-123991000D01*
X134175500Y-125691000D02*
X136749500Y-125691000D01*
X134175500Y-123991000D02*
X136749500Y-123991000D01*
D13*
X164781500Y-133223000D03*
X176213500Y-133223000D03*
%LPC*%
D14*
X208788000Y-138049000D03*
X208788000Y-52642441D03*
X141837500Y-138049000D03*
X158897500Y-138049000D03*
X86106000Y-52675428D03*
X86106000Y-138102922D03*
X194898000Y-115871000D03*
D15*
X159575500Y-74549000D03*
D16*
X159575500Y-72009000D03*
D15*
X187769500Y-96139000D03*
D16*
X187769500Y-93599000D03*
D17*
X183451500Y-93599000D03*
D16*
X183451500Y-96139000D03*
D15*
X175577500Y-96139000D03*
D16*
X175577500Y-93599000D03*
D17*
X171513500Y-93599000D03*
D16*
X171513500Y-96139000D03*
D15*
X171767500Y-78105000D03*
D16*
X171767500Y-75565000D03*
D17*
X175831500Y-75565000D03*
D16*
X175831500Y-78105000D03*
D15*
X183451500Y-77851000D03*
D16*
X183451500Y-75311000D03*
D17*
X187515500Y-75311000D03*
D16*
X187515500Y-77851000D03*
D15*
X153733500Y-74549000D03*
D16*
X153733500Y-72009000D03*
D17*
X187012700Y-63228740D03*
D16*
X187012700Y-60688740D03*
X187012700Y-58148740D03*
X187012700Y-55608740D03*
D18*
X193905500Y-106649000D03*
X100861500Y-106649000D03*
X100861500Y-51649000D03*
X193905500Y-51649000D03*
D19*
X135667500Y-138303000D03*
D20*
X130587500Y-138303000D03*
X125507500Y-138303000D03*
D19*
X147797500Y-136017000D03*
D20*
X152877500Y-136017000D03*
D19*
X113377500Y-138303000D03*
D21*
X108297500Y-138303000D03*
D15*
X143573500Y-82423000D03*
D16*
X143573500Y-79883000D03*
X143573500Y-77343000D03*
D15*
X139001500Y-82423000D03*
D16*
X139001500Y-79883000D03*
X139001500Y-77343000D03*
D15*
X134429500Y-82423000D03*
D16*
X134429500Y-79883000D03*
X134429500Y-77343000D03*
D15*
X129857500Y-82423000D03*
D16*
X129857500Y-79883000D03*
X129857500Y-77343000D03*
D22*
X164781500Y-133223000D03*
X176213500Y-133223000D03*
D23*
X166053500Y-126873000D03*
X167323500Y-124333000D03*
X168593500Y-126873000D03*
X169863500Y-124333000D03*
X171133500Y-126873000D03*
X172403500Y-124333000D03*
X173673500Y-126873000D03*
X174943500Y-124333000D03*
D24*
X201930000Y-134493000D03*
D25*
X201930000Y-130853000D03*
X201930000Y-127213000D03*
X201930000Y-123573000D03*
D24*
X185229500Y-134493000D03*
D25*
X185229500Y-130853000D03*
X185229500Y-127213000D03*
X185229500Y-123573000D03*
D26*
X102870000Y-96139000D03*
X105422700Y-93599000D03*
X102870000Y-91059000D03*
D27*
X159829500Y-81153000D03*
X159829500Y-83693000D03*
X157035500Y-81153000D03*
X157035500Y-83693000D03*
X165925500Y-81153000D03*
X165925500Y-83693000D03*
X168719500Y-81153000D03*
X168719500Y-83693000D03*
D28*
X137985500Y-91567000D03*
X135445500Y-91567000D03*
D29*
X123761500Y-127685800D03*
X125031500Y-127685800D03*
X126301500Y-127685800D03*
X126301500Y-131140200D03*
X125031500Y-131140200D03*
X123761500Y-131140200D03*
X129349500Y-127685800D03*
X130619500Y-127685800D03*
X131889500Y-127685800D03*
X131889500Y-131140200D03*
X130619500Y-131140200D03*
X129349500Y-131140200D03*
D30*
X123798500Y-124841000D03*
X125248500Y-124841000D03*
X129386500Y-124841000D03*
X130836500Y-124841000D03*
D31*
X124225500Y-115443000D03*
D26*
X126765500Y-115443000D03*
D32*
X151381500Y-127873000D03*
X149481500Y-127873000D03*
X150431500Y-125673000D03*
D31*
X167957500Y-115443000D03*
D26*
X170497500Y-115443000D03*
D33*
X147891500Y-132715000D03*
X147891500Y-130175000D03*
D34*
X110299500Y-97409000D03*
X112839500Y-97409000D03*
X110299500Y-94615000D03*
X112839500Y-94615000D03*
X115379500Y-97409000D03*
X117919500Y-97409000D03*
D31*
X146091500Y-115443000D03*
D26*
X148631500Y-115443000D03*
D33*
X152971500Y-132715000D03*
X152971500Y-130175000D03*
D35*
X182943500Y-113885000D03*
X181673500Y-113885000D03*
X180403500Y-113885000D03*
X179133500Y-113885000D03*
X179133500Y-108365000D03*
X180403500Y-108365000D03*
X181673500Y-108365000D03*
X182943500Y-108365000D03*
D33*
X175958500Y-120269000D03*
X175958500Y-117729000D03*
X179006500Y-120269000D03*
X179006500Y-117729000D03*
X186182000Y-120269000D03*
X186182000Y-117729000D03*
X183070500Y-120269000D03*
X183070500Y-117729000D03*
D31*
X91186000Y-79121000D03*
D26*
X93726000Y-79121000D03*
D36*
X107598000Y-132461000D03*
X114398000Y-132461000D03*
D28*
X117919500Y-94615000D03*
X115379500Y-94615000D03*
D29*
X134937500Y-127685800D03*
X136207500Y-127685800D03*
X137477500Y-127685800D03*
X137477500Y-131140200D03*
X136207500Y-131140200D03*
X134937500Y-131140200D03*
D30*
X134974500Y-124841000D03*
X136424500Y-124841000D03*
D37*
X124968000Y-132969000D03*
X130619500Y-132969000D03*
X136207500Y-132969000D03*
X136461500Y-123317000D03*
X134937500Y-123317000D03*
X125285500Y-123317000D03*
X123761500Y-123317000D03*
X113030000Y-125857000D03*
X107594837Y-125895037D03*
X175514000Y-112395000D03*
X169481500Y-117475000D03*
X162877500Y-118999000D03*
X181419500Y-121031000D03*
X167957500Y-96393000D03*
X142557500Y-62357000D03*
X125984000Y-65659000D03*
X158305500Y-85471000D03*
X107442000Y-99187000D03*
X110299500Y-99695000D03*
X113093500Y-101473000D03*
X114363500Y-101473000D03*
X116332000Y-101473000D03*
X113093500Y-90805000D03*
X115125500Y-90551000D03*
X116649500Y-90551000D03*
X117919500Y-86487000D03*
X113093500Y-86487000D03*
X107505500Y-86741000D03*
X120459500Y-79121000D03*
X139509500Y-91059000D03*
X139509500Y-93345000D03*
X135191500Y-93345000D03*
X129603500Y-90805000D03*
X129603500Y-95377000D03*
X132651500Y-99441000D03*
X153225500Y-86741000D03*
X154495500Y-89027000D03*
X154495500Y-98425000D03*
X160337500Y-79629000D03*
X162877500Y-79629000D03*
X165417500Y-79629000D03*
X171513500Y-83693000D03*
X168973500Y-87249000D03*
X166941500Y-87249000D03*
X180911500Y-104521000D03*
X173291500Y-102743000D03*
X173291500Y-105537000D03*
X148907500Y-102235000D03*
X137985500Y-103759000D03*
X129603500Y-105537000D03*
X124460000Y-117983000D03*
X131381500Y-111887000D03*
X131381500Y-117983000D03*
X136461500Y-118237000D03*
X139509500Y-118237000D03*
X151701500Y-112141000D03*
X146050000Y-118237000D03*
X151701500Y-118237000D03*
X152463500Y-123571000D03*
X180403500Y-72009000D03*
X180340000Y-65151000D03*
X179387500Y-57277000D03*
X192151000Y-57277000D03*
X203708000Y-63119000D03*
X203708000Y-75819000D03*
X203708000Y-88519000D03*
X203708000Y-101219000D03*
X203708000Y-113919000D03*
X205994000Y-126619000D03*
X196088000Y-127127000D03*
X172783500Y-128651000D03*
X169418000Y-135763000D03*
X201168000Y-139573000D03*
X185420000Y-139573000D03*
X175514000Y-139573000D03*
X165354000Y-139573000D03*
X166751000Y-57277000D03*
X154051000Y-57277000D03*
X141351000Y-57277000D03*
X128651000Y-57277000D03*
X115951000Y-57277000D03*
X103251000Y-57277000D03*
X97790000Y-139573000D03*
X88900000Y-126619000D03*
X88900000Y-113919000D03*
X88900000Y-101219000D03*
X88900000Y-88519000D03*
X88900000Y-75819000D03*
X88900000Y-63119000D03*
%LPD*%
M02*
