G04 #@! TF.GenerationSoftware,KiCad,Pcbnew,7.0.9*
G04 #@! TF.CreationDate,2023-12-25T18:17:51+01:00*
G04 #@! TF.ProjectId,wall-mounted-room-temperature-sensor-wifi,77616c6c-2d6d-46f7-956e-7465642d726f,v1.0*
G04 #@! TF.SameCoordinates,Original*
G04 #@! TF.FileFunction,Legend,Bot*
G04 #@! TF.FilePolarity,Positive*
%FSLAX46Y46*%
G04 Gerber Fmt 4.6, Leading zero omitted, Abs format (unit mm)*
G04 Created by KiCad (PCBNEW 7.0.9) date 2023-12-25 18:17:51*
%MOMM*%
%LPD*%
G01*
G04 APERTURE LIST*
G04 Aperture macros list*
%AMRoundRect*
0 Rectangle with rounded corners*
0 $1 Rounding radius*
0 $2 $3 $4 $5 $6 $7 $8 $9 X,Y pos of 4 corners*
0 Add a 4 corners polygon primitive as box body*
4,1,4,$2,$3,$4,$5,$6,$7,$8,$9,$2,$3,0*
0 Add four circle primitives for the rounded corners*
1,1,$1+$1,$2,$3*
1,1,$1+$1,$4,$5*
1,1,$1+$1,$6,$7*
1,1,$1+$1,$8,$9*
0 Add four rect primitives between the rounded corners*
20,1,$1+$1,$2,$3,$4,$5,0*
20,1,$1+$1,$4,$5,$6,$7,0*
20,1,$1+$1,$6,$7,$8,$9,0*
20,1,$1+$1,$8,$9,$2,$3,0*%
G04 Aperture macros list end*
%ADD10C,0.170000*%
%ADD11C,0.160000*%
%ADD12C,0.120000*%
%ADD13C,1.950000*%
%ADD14C,3.600000*%
%ADD15C,3.100000*%
%ADD16RoundRect,0.050000X-0.900000X0.900000X-0.900000X-0.900000X0.900000X-0.900000X0.900000X0.900000X0*%
%ADD17O,1.900000X1.900000*%
%ADD18RoundRect,0.050000X-0.525000X-0.750000X0.525000X-0.750000X0.525000X0.750000X-0.525000X0.750000X0*%
%ADD19RoundRect,0.312500X-0.262500X-0.487500X0.262500X-0.487500X0.262500X0.487500X-0.262500X0.487500X0*%
%ADD20RoundRect,0.050000X1.050000X1.050000X-1.050000X1.050000X-1.050000X-1.050000X1.050000X-1.050000X0*%
%ADD21O,2.200000X2.200000*%
%ADD22C,3.300000*%
%ADD23C,4.600000*%
%ADD24RoundRect,0.050000X0.750000X-0.650000X0.750000X0.650000X-0.750000X0.650000X-0.750000X-0.650000X0*%
%ADD25RoundRect,0.050000X-0.650000X-0.750000X0.650000X-0.750000X0.650000X0.750000X-0.650000X0.750000X0*%
%ADD26RoundRect,0.050000X-0.750000X0.650000X-0.750000X-0.650000X0.750000X-0.650000X0.750000X0.650000X0*%
%ADD27RoundRect,0.050000X0.150000X0.400000X-0.150000X0.400000X-0.150000X-0.400000X0.150000X-0.400000X0*%
%ADD28RoundRect,0.050000X-0.400000X0.400000X-0.400000X-0.400000X0.400000X-0.400000X0.400000X0.400000X0*%
%ADD29RoundRect,0.050000X0.650000X0.500000X-0.650000X0.500000X-0.650000X-0.500000X0.650000X-0.500000X0*%
%ADD30RoundRect,0.050000X0.650000X0.750000X-0.650000X0.750000X-0.650000X-0.750000X0.650000X-0.750000X0*%
%ADD31RoundRect,0.050000X1.100000X0.400000X-1.100000X0.400000X-1.100000X-0.400000X1.100000X-0.400000X0*%
%ADD32C,0.900000*%
G04 APERTURE END LIST*
D10*
X79541666Y-70081540D02*
X79589285Y-70129160D01*
X79589285Y-70129160D02*
X79732142Y-70176779D01*
X79732142Y-70176779D02*
X79827380Y-70176779D01*
X79827380Y-70176779D02*
X79970237Y-70129160D01*
X79970237Y-70129160D02*
X80065475Y-70033921D01*
X80065475Y-70033921D02*
X80113094Y-69938683D01*
X80113094Y-69938683D02*
X80160713Y-69748207D01*
X80160713Y-69748207D02*
X80160713Y-69605350D01*
X80160713Y-69605350D02*
X80113094Y-69414874D01*
X80113094Y-69414874D02*
X80065475Y-69319636D01*
X80065475Y-69319636D02*
X79970237Y-69224398D01*
X79970237Y-69224398D02*
X79827380Y-69176779D01*
X79827380Y-69176779D02*
X79732142Y-69176779D01*
X79732142Y-69176779D02*
X79589285Y-69224398D01*
X79589285Y-69224398D02*
X79541666Y-69272017D01*
X78589285Y-70176779D02*
X79160713Y-70176779D01*
X78874999Y-70176779D02*
X78874999Y-69176779D01*
X78874999Y-69176779D02*
X78970237Y-69319636D01*
X78970237Y-69319636D02*
X79065475Y-69414874D01*
X79065475Y-69414874D02*
X79160713Y-69462493D01*
X77001666Y-70081540D02*
X77049285Y-70129160D01*
X77049285Y-70129160D02*
X77192142Y-70176779D01*
X77192142Y-70176779D02*
X77287380Y-70176779D01*
X77287380Y-70176779D02*
X77430237Y-70129160D01*
X77430237Y-70129160D02*
X77525475Y-70033921D01*
X77525475Y-70033921D02*
X77573094Y-69938683D01*
X77573094Y-69938683D02*
X77620713Y-69748207D01*
X77620713Y-69748207D02*
X77620713Y-69605350D01*
X77620713Y-69605350D02*
X77573094Y-69414874D01*
X77573094Y-69414874D02*
X77525475Y-69319636D01*
X77525475Y-69319636D02*
X77430237Y-69224398D01*
X77430237Y-69224398D02*
X77287380Y-69176779D01*
X77287380Y-69176779D02*
X77192142Y-69176779D01*
X77192142Y-69176779D02*
X77049285Y-69224398D01*
X77049285Y-69224398D02*
X77001666Y-69272017D01*
X76620713Y-69272017D02*
X76573094Y-69224398D01*
X76573094Y-69224398D02*
X76477856Y-69176779D01*
X76477856Y-69176779D02*
X76239761Y-69176779D01*
X76239761Y-69176779D02*
X76144523Y-69224398D01*
X76144523Y-69224398D02*
X76096904Y-69272017D01*
X76096904Y-69272017D02*
X76049285Y-69367255D01*
X76049285Y-69367255D02*
X76049285Y-69462493D01*
X76049285Y-69462493D02*
X76096904Y-69605350D01*
X76096904Y-69605350D02*
X76668332Y-70176779D01*
X76668332Y-70176779D02*
X76049285Y-70176779D01*
X131484666Y-78463540D02*
X131532285Y-78511160D01*
X131532285Y-78511160D02*
X131675142Y-78558779D01*
X131675142Y-78558779D02*
X131770380Y-78558779D01*
X131770380Y-78558779D02*
X131913237Y-78511160D01*
X131913237Y-78511160D02*
X132008475Y-78415921D01*
X132008475Y-78415921D02*
X132056094Y-78320683D01*
X132056094Y-78320683D02*
X132103713Y-78130207D01*
X132103713Y-78130207D02*
X132103713Y-77987350D01*
X132103713Y-77987350D02*
X132056094Y-77796874D01*
X132056094Y-77796874D02*
X132008475Y-77701636D01*
X132008475Y-77701636D02*
X131913237Y-77606398D01*
X131913237Y-77606398D02*
X131770380Y-77558779D01*
X131770380Y-77558779D02*
X131675142Y-77558779D01*
X131675142Y-77558779D02*
X131532285Y-77606398D01*
X131532285Y-77606398D02*
X131484666Y-77654017D01*
X131008475Y-78558779D02*
X130817999Y-78558779D01*
X130817999Y-78558779D02*
X130722761Y-78511160D01*
X130722761Y-78511160D02*
X130675142Y-78463540D01*
X130675142Y-78463540D02*
X130579904Y-78320683D01*
X130579904Y-78320683D02*
X130532285Y-78130207D01*
X130532285Y-78130207D02*
X130532285Y-77749255D01*
X130532285Y-77749255D02*
X130579904Y-77654017D01*
X130579904Y-77654017D02*
X130627523Y-77606398D01*
X130627523Y-77606398D02*
X130722761Y-77558779D01*
X130722761Y-77558779D02*
X130913237Y-77558779D01*
X130913237Y-77558779D02*
X131008475Y-77606398D01*
X131008475Y-77606398D02*
X131056094Y-77654017D01*
X131056094Y-77654017D02*
X131103713Y-77749255D01*
X131103713Y-77749255D02*
X131103713Y-77987350D01*
X131103713Y-77987350D02*
X131056094Y-78082588D01*
X131056094Y-78082588D02*
X131008475Y-78130207D01*
X131008475Y-78130207D02*
X130913237Y-78177826D01*
X130913237Y-78177826D02*
X130722761Y-78177826D01*
X130722761Y-78177826D02*
X130627523Y-78130207D01*
X130627523Y-78130207D02*
X130579904Y-78082588D01*
X130579904Y-78082588D02*
X130532285Y-77987350D01*
X131452857Y-75923540D02*
X131500476Y-75971160D01*
X131500476Y-75971160D02*
X131643333Y-76018779D01*
X131643333Y-76018779D02*
X131738571Y-76018779D01*
X131738571Y-76018779D02*
X131881428Y-75971160D01*
X131881428Y-75971160D02*
X131976666Y-75875921D01*
X131976666Y-75875921D02*
X132024285Y-75780683D01*
X132024285Y-75780683D02*
X132071904Y-75590207D01*
X132071904Y-75590207D02*
X132071904Y-75447350D01*
X132071904Y-75447350D02*
X132024285Y-75256874D01*
X132024285Y-75256874D02*
X131976666Y-75161636D01*
X131976666Y-75161636D02*
X131881428Y-75066398D01*
X131881428Y-75066398D02*
X131738571Y-75018779D01*
X131738571Y-75018779D02*
X131643333Y-75018779D01*
X131643333Y-75018779D02*
X131500476Y-75066398D01*
X131500476Y-75066398D02*
X131452857Y-75114017D01*
X130500476Y-76018779D02*
X131071904Y-76018779D01*
X130786190Y-76018779D02*
X130786190Y-75018779D01*
X130786190Y-75018779D02*
X130881428Y-75161636D01*
X130881428Y-75161636D02*
X130976666Y-75256874D01*
X130976666Y-75256874D02*
X131071904Y-75304493D01*
X129881428Y-75018779D02*
X129786190Y-75018779D01*
X129786190Y-75018779D02*
X129690952Y-75066398D01*
X129690952Y-75066398D02*
X129643333Y-75114017D01*
X129643333Y-75114017D02*
X129595714Y-75209255D01*
X129595714Y-75209255D02*
X129548095Y-75399731D01*
X129548095Y-75399731D02*
X129548095Y-75637826D01*
X129548095Y-75637826D02*
X129595714Y-75828302D01*
X129595714Y-75828302D02*
X129643333Y-75923540D01*
X129643333Y-75923540D02*
X129690952Y-75971160D01*
X129690952Y-75971160D02*
X129786190Y-76018779D01*
X129786190Y-76018779D02*
X129881428Y-76018779D01*
X129881428Y-76018779D02*
X129976666Y-75971160D01*
X129976666Y-75971160D02*
X130024285Y-75923540D01*
X130024285Y-75923540D02*
X130071904Y-75828302D01*
X130071904Y-75828302D02*
X130119523Y-75637826D01*
X130119523Y-75637826D02*
X130119523Y-75399731D01*
X130119523Y-75399731D02*
X130071904Y-75209255D01*
X130071904Y-75209255D02*
X130024285Y-75114017D01*
X130024285Y-75114017D02*
X129976666Y-75066398D01*
X129976666Y-75066398D02*
X129881428Y-75018779D01*
X131452857Y-83543540D02*
X131500476Y-83591160D01*
X131500476Y-83591160D02*
X131643333Y-83638779D01*
X131643333Y-83638779D02*
X131738571Y-83638779D01*
X131738571Y-83638779D02*
X131881428Y-83591160D01*
X131881428Y-83591160D02*
X131976666Y-83495921D01*
X131976666Y-83495921D02*
X132024285Y-83400683D01*
X132024285Y-83400683D02*
X132071904Y-83210207D01*
X132071904Y-83210207D02*
X132071904Y-83067350D01*
X132071904Y-83067350D02*
X132024285Y-82876874D01*
X132024285Y-82876874D02*
X131976666Y-82781636D01*
X131976666Y-82781636D02*
X131881428Y-82686398D01*
X131881428Y-82686398D02*
X131738571Y-82638779D01*
X131738571Y-82638779D02*
X131643333Y-82638779D01*
X131643333Y-82638779D02*
X131500476Y-82686398D01*
X131500476Y-82686398D02*
X131452857Y-82734017D01*
X130500476Y-83638779D02*
X131071904Y-83638779D01*
X130786190Y-83638779D02*
X130786190Y-82638779D01*
X130786190Y-82638779D02*
X130881428Y-82781636D01*
X130881428Y-82781636D02*
X130976666Y-82876874D01*
X130976666Y-82876874D02*
X131071904Y-82924493D01*
X129548095Y-83638779D02*
X130119523Y-83638779D01*
X129833809Y-83638779D02*
X129833809Y-82638779D01*
X129833809Y-82638779D02*
X129929047Y-82781636D01*
X129929047Y-82781636D02*
X130024285Y-82876874D01*
X130024285Y-82876874D02*
X130119523Y-82924493D01*
X107673540Y-137152142D02*
X107721160Y-137104523D01*
X107721160Y-137104523D02*
X107768779Y-136961666D01*
X107768779Y-136961666D02*
X107768779Y-136866428D01*
X107768779Y-136866428D02*
X107721160Y-136723571D01*
X107721160Y-136723571D02*
X107625921Y-136628333D01*
X107625921Y-136628333D02*
X107530683Y-136580714D01*
X107530683Y-136580714D02*
X107340207Y-136533095D01*
X107340207Y-136533095D02*
X107197350Y-136533095D01*
X107197350Y-136533095D02*
X107006874Y-136580714D01*
X107006874Y-136580714D02*
X106911636Y-136628333D01*
X106911636Y-136628333D02*
X106816398Y-136723571D01*
X106816398Y-136723571D02*
X106768779Y-136866428D01*
X106768779Y-136866428D02*
X106768779Y-136961666D01*
X106768779Y-136961666D02*
X106816398Y-137104523D01*
X106816398Y-137104523D02*
X106864017Y-137152142D01*
X107768779Y-138104523D02*
X107768779Y-137533095D01*
X107768779Y-137818809D02*
X106768779Y-137818809D01*
X106768779Y-137818809D02*
X106911636Y-137723571D01*
X106911636Y-137723571D02*
X107006874Y-137628333D01*
X107006874Y-137628333D02*
X107054493Y-137533095D01*
X107102112Y-138961666D02*
X107768779Y-138961666D01*
X106721160Y-138723571D02*
X107435445Y-138485476D01*
X107435445Y-138485476D02*
X107435445Y-139104523D01*
X90528540Y-137152142D02*
X90576160Y-137104523D01*
X90576160Y-137104523D02*
X90623779Y-136961666D01*
X90623779Y-136961666D02*
X90623779Y-136866428D01*
X90623779Y-136866428D02*
X90576160Y-136723571D01*
X90576160Y-136723571D02*
X90480921Y-136628333D01*
X90480921Y-136628333D02*
X90385683Y-136580714D01*
X90385683Y-136580714D02*
X90195207Y-136533095D01*
X90195207Y-136533095D02*
X90052350Y-136533095D01*
X90052350Y-136533095D02*
X89861874Y-136580714D01*
X89861874Y-136580714D02*
X89766636Y-136628333D01*
X89766636Y-136628333D02*
X89671398Y-136723571D01*
X89671398Y-136723571D02*
X89623779Y-136866428D01*
X89623779Y-136866428D02*
X89623779Y-136961666D01*
X89623779Y-136961666D02*
X89671398Y-137104523D01*
X89671398Y-137104523D02*
X89719017Y-137152142D01*
X90623779Y-138104523D02*
X90623779Y-137533095D01*
X90623779Y-137818809D02*
X89623779Y-137818809D01*
X89623779Y-137818809D02*
X89766636Y-137723571D01*
X89766636Y-137723571D02*
X89861874Y-137628333D01*
X89861874Y-137628333D02*
X89909493Y-137533095D01*
X89623779Y-139009285D02*
X89623779Y-138533095D01*
X89623779Y-138533095D02*
X90099969Y-138485476D01*
X90099969Y-138485476D02*
X90052350Y-138533095D01*
X90052350Y-138533095D02*
X90004731Y-138628333D01*
X90004731Y-138628333D02*
X90004731Y-138866428D01*
X90004731Y-138866428D02*
X90052350Y-138961666D01*
X90052350Y-138961666D02*
X90099969Y-139009285D01*
X90099969Y-139009285D02*
X90195207Y-139056904D01*
X90195207Y-139056904D02*
X90433302Y-139056904D01*
X90433302Y-139056904D02*
X90528540Y-139009285D01*
X90528540Y-139009285D02*
X90576160Y-138961666D01*
X90576160Y-138961666D02*
X90623779Y-138866428D01*
X90623779Y-138866428D02*
X90623779Y-138628333D01*
X90623779Y-138628333D02*
X90576160Y-138533095D01*
X90576160Y-138533095D02*
X90528540Y-138485476D01*
X73383540Y-137152142D02*
X73431160Y-137104523D01*
X73431160Y-137104523D02*
X73478779Y-136961666D01*
X73478779Y-136961666D02*
X73478779Y-136866428D01*
X73478779Y-136866428D02*
X73431160Y-136723571D01*
X73431160Y-136723571D02*
X73335921Y-136628333D01*
X73335921Y-136628333D02*
X73240683Y-136580714D01*
X73240683Y-136580714D02*
X73050207Y-136533095D01*
X73050207Y-136533095D02*
X72907350Y-136533095D01*
X72907350Y-136533095D02*
X72716874Y-136580714D01*
X72716874Y-136580714D02*
X72621636Y-136628333D01*
X72621636Y-136628333D02*
X72526398Y-136723571D01*
X72526398Y-136723571D02*
X72478779Y-136866428D01*
X72478779Y-136866428D02*
X72478779Y-136961666D01*
X72478779Y-136961666D02*
X72526398Y-137104523D01*
X72526398Y-137104523D02*
X72574017Y-137152142D01*
X73478779Y-138104523D02*
X73478779Y-137533095D01*
X73478779Y-137818809D02*
X72478779Y-137818809D01*
X72478779Y-137818809D02*
X72621636Y-137723571D01*
X72621636Y-137723571D02*
X72716874Y-137628333D01*
X72716874Y-137628333D02*
X72764493Y-137533095D01*
X72478779Y-138961666D02*
X72478779Y-138771190D01*
X72478779Y-138771190D02*
X72526398Y-138675952D01*
X72526398Y-138675952D02*
X72574017Y-138628333D01*
X72574017Y-138628333D02*
X72716874Y-138533095D01*
X72716874Y-138533095D02*
X72907350Y-138485476D01*
X72907350Y-138485476D02*
X73288302Y-138485476D01*
X73288302Y-138485476D02*
X73383540Y-138533095D01*
X73383540Y-138533095D02*
X73431160Y-138580714D01*
X73431160Y-138580714D02*
X73478779Y-138675952D01*
X73478779Y-138675952D02*
X73478779Y-138866428D01*
X73478779Y-138866428D02*
X73431160Y-138961666D01*
X73431160Y-138961666D02*
X73383540Y-139009285D01*
X73383540Y-139009285D02*
X73288302Y-139056904D01*
X73288302Y-139056904D02*
X73050207Y-139056904D01*
X73050207Y-139056904D02*
X72954969Y-139009285D01*
X72954969Y-139009285D02*
X72907350Y-138961666D01*
X72907350Y-138961666D02*
X72859731Y-138866428D01*
X72859731Y-138866428D02*
X72859731Y-138675952D01*
X72859731Y-138675952D02*
X72907350Y-138580714D01*
X72907350Y-138580714D02*
X72954969Y-138533095D01*
X72954969Y-138533095D02*
X73050207Y-138485476D01*
X130913094Y-143963779D02*
X130913094Y-142963779D01*
X130913094Y-142963779D02*
X130674999Y-142963779D01*
X130674999Y-142963779D02*
X130532142Y-143011398D01*
X130532142Y-143011398D02*
X130436904Y-143106636D01*
X130436904Y-143106636D02*
X130389285Y-143201874D01*
X130389285Y-143201874D02*
X130341666Y-143392350D01*
X130341666Y-143392350D02*
X130341666Y-143535207D01*
X130341666Y-143535207D02*
X130389285Y-143725683D01*
X130389285Y-143725683D02*
X130436904Y-143820921D01*
X130436904Y-143820921D02*
X130532142Y-143916160D01*
X130532142Y-143916160D02*
X130674999Y-143963779D01*
X130674999Y-143963779D02*
X130913094Y-143963779D01*
X130008332Y-142963779D02*
X129389285Y-142963779D01*
X129389285Y-142963779D02*
X129722618Y-143344731D01*
X129722618Y-143344731D02*
X129579761Y-143344731D01*
X129579761Y-143344731D02*
X129484523Y-143392350D01*
X129484523Y-143392350D02*
X129436904Y-143439969D01*
X129436904Y-143439969D02*
X129389285Y-143535207D01*
X129389285Y-143535207D02*
X129389285Y-143773302D01*
X129389285Y-143773302D02*
X129436904Y-143868540D01*
X129436904Y-143868540D02*
X129484523Y-143916160D01*
X129484523Y-143916160D02*
X129579761Y-143963779D01*
X129579761Y-143963779D02*
X129865475Y-143963779D01*
X129865475Y-143963779D02*
X129960713Y-143916160D01*
X129960713Y-143916160D02*
X130008332Y-143868540D01*
D11*
X112214299Y-133881905D02*
X111214299Y-133881905D01*
X111214299Y-133881905D02*
X111214299Y-134120000D01*
X111214299Y-134120000D02*
X111261918Y-134262857D01*
X111261918Y-134262857D02*
X111357156Y-134358095D01*
X111357156Y-134358095D02*
X111452394Y-134405714D01*
X111452394Y-134405714D02*
X111642870Y-134453333D01*
X111642870Y-134453333D02*
X111785727Y-134453333D01*
X111785727Y-134453333D02*
X111976203Y-134405714D01*
X111976203Y-134405714D02*
X112071441Y-134358095D01*
X112071441Y-134358095D02*
X112166680Y-134262857D01*
X112166680Y-134262857D02*
X112214299Y-134120000D01*
X112214299Y-134120000D02*
X112214299Y-133881905D01*
X111642870Y-135024762D02*
X111595251Y-134929524D01*
X111595251Y-134929524D02*
X111547632Y-134881905D01*
X111547632Y-134881905D02*
X111452394Y-134834286D01*
X111452394Y-134834286D02*
X111404775Y-134834286D01*
X111404775Y-134834286D02*
X111309537Y-134881905D01*
X111309537Y-134881905D02*
X111261918Y-134929524D01*
X111261918Y-134929524D02*
X111214299Y-135024762D01*
X111214299Y-135024762D02*
X111214299Y-135215238D01*
X111214299Y-135215238D02*
X111261918Y-135310476D01*
X111261918Y-135310476D02*
X111309537Y-135358095D01*
X111309537Y-135358095D02*
X111404775Y-135405714D01*
X111404775Y-135405714D02*
X111452394Y-135405714D01*
X111452394Y-135405714D02*
X111547632Y-135358095D01*
X111547632Y-135358095D02*
X111595251Y-135310476D01*
X111595251Y-135310476D02*
X111642870Y-135215238D01*
X111642870Y-135215238D02*
X111642870Y-135024762D01*
X111642870Y-135024762D02*
X111690489Y-134929524D01*
X111690489Y-134929524D02*
X111738108Y-134881905D01*
X111738108Y-134881905D02*
X111833346Y-134834286D01*
X111833346Y-134834286D02*
X112023822Y-134834286D01*
X112023822Y-134834286D02*
X112119060Y-134881905D01*
X112119060Y-134881905D02*
X112166680Y-134929524D01*
X112166680Y-134929524D02*
X112214299Y-135024762D01*
X112214299Y-135024762D02*
X112214299Y-135215238D01*
X112214299Y-135215238D02*
X112166680Y-135310476D01*
X112166680Y-135310476D02*
X112119060Y-135358095D01*
X112119060Y-135358095D02*
X112023822Y-135405714D01*
X112023822Y-135405714D02*
X111833346Y-135405714D01*
X111833346Y-135405714D02*
X111738108Y-135358095D01*
X111738108Y-135358095D02*
X111690489Y-135310476D01*
X111690489Y-135310476D02*
X111642870Y-135215238D01*
X95069299Y-134008905D02*
X94069299Y-134008905D01*
X94069299Y-134008905D02*
X94069299Y-134247000D01*
X94069299Y-134247000D02*
X94116918Y-134389857D01*
X94116918Y-134389857D02*
X94212156Y-134485095D01*
X94212156Y-134485095D02*
X94307394Y-134532714D01*
X94307394Y-134532714D02*
X94497870Y-134580333D01*
X94497870Y-134580333D02*
X94640727Y-134580333D01*
X94640727Y-134580333D02*
X94831203Y-134532714D01*
X94831203Y-134532714D02*
X94926441Y-134485095D01*
X94926441Y-134485095D02*
X95021680Y-134389857D01*
X95021680Y-134389857D02*
X95069299Y-134247000D01*
X95069299Y-134247000D02*
X95069299Y-134008905D01*
X95069299Y-135056524D02*
X95069299Y-135247000D01*
X95069299Y-135247000D02*
X95021680Y-135342238D01*
X95021680Y-135342238D02*
X94974060Y-135389857D01*
X94974060Y-135389857D02*
X94831203Y-135485095D01*
X94831203Y-135485095D02*
X94640727Y-135532714D01*
X94640727Y-135532714D02*
X94259775Y-135532714D01*
X94259775Y-135532714D02*
X94164537Y-135485095D01*
X94164537Y-135485095D02*
X94116918Y-135437476D01*
X94116918Y-135437476D02*
X94069299Y-135342238D01*
X94069299Y-135342238D02*
X94069299Y-135151762D01*
X94069299Y-135151762D02*
X94116918Y-135056524D01*
X94116918Y-135056524D02*
X94164537Y-135008905D01*
X94164537Y-135008905D02*
X94259775Y-134961286D01*
X94259775Y-134961286D02*
X94497870Y-134961286D01*
X94497870Y-134961286D02*
X94593108Y-135008905D01*
X94593108Y-135008905D02*
X94640727Y-135056524D01*
X94640727Y-135056524D02*
X94688346Y-135151762D01*
X94688346Y-135151762D02*
X94688346Y-135342238D01*
X94688346Y-135342238D02*
X94640727Y-135437476D01*
X94640727Y-135437476D02*
X94593108Y-135485095D01*
X94593108Y-135485095D02*
X94497870Y-135532714D01*
X77924299Y-133024714D02*
X76924299Y-133024714D01*
X76924299Y-133024714D02*
X76924299Y-133262809D01*
X76924299Y-133262809D02*
X76971918Y-133405666D01*
X76971918Y-133405666D02*
X77067156Y-133500904D01*
X77067156Y-133500904D02*
X77162394Y-133548523D01*
X77162394Y-133548523D02*
X77352870Y-133596142D01*
X77352870Y-133596142D02*
X77495727Y-133596142D01*
X77495727Y-133596142D02*
X77686203Y-133548523D01*
X77686203Y-133548523D02*
X77781441Y-133500904D01*
X77781441Y-133500904D02*
X77876680Y-133405666D01*
X77876680Y-133405666D02*
X77924299Y-133262809D01*
X77924299Y-133262809D02*
X77924299Y-133024714D01*
X77924299Y-134548523D02*
X77924299Y-133977095D01*
X77924299Y-134262809D02*
X76924299Y-134262809D01*
X76924299Y-134262809D02*
X77067156Y-134167571D01*
X77067156Y-134167571D02*
X77162394Y-134072333D01*
X77162394Y-134072333D02*
X77210013Y-133977095D01*
X76924299Y-135167571D02*
X76924299Y-135262809D01*
X76924299Y-135262809D02*
X76971918Y-135358047D01*
X76971918Y-135358047D02*
X77019537Y-135405666D01*
X77019537Y-135405666D02*
X77114775Y-135453285D01*
X77114775Y-135453285D02*
X77305251Y-135500904D01*
X77305251Y-135500904D02*
X77543346Y-135500904D01*
X77543346Y-135500904D02*
X77733822Y-135453285D01*
X77733822Y-135453285D02*
X77829060Y-135405666D01*
X77829060Y-135405666D02*
X77876680Y-135358047D01*
X77876680Y-135358047D02*
X77924299Y-135262809D01*
X77924299Y-135262809D02*
X77924299Y-135167571D01*
X77924299Y-135167571D02*
X77876680Y-135072333D01*
X77876680Y-135072333D02*
X77829060Y-135024714D01*
X77829060Y-135024714D02*
X77733822Y-134977095D01*
X77733822Y-134977095D02*
X77543346Y-134929476D01*
X77543346Y-134929476D02*
X77305251Y-134929476D01*
X77305251Y-134929476D02*
X77114775Y-134977095D01*
X77114775Y-134977095D02*
X77019537Y-135024714D01*
X77019537Y-135024714D02*
X76971918Y-135072333D01*
X76971918Y-135072333D02*
X76924299Y-135167571D01*
X82772238Y-76622537D02*
X82867476Y-76574918D01*
X82867476Y-76574918D02*
X82962714Y-76479680D01*
X82962714Y-76479680D02*
X83105571Y-76336822D01*
X83105571Y-76336822D02*
X83200809Y-76289203D01*
X83200809Y-76289203D02*
X83296047Y-76289203D01*
X83248428Y-76527299D02*
X83343666Y-76479680D01*
X83343666Y-76479680D02*
X83438904Y-76384441D01*
X83438904Y-76384441D02*
X83486523Y-76193965D01*
X83486523Y-76193965D02*
X83486523Y-75860632D01*
X83486523Y-75860632D02*
X83438904Y-75670156D01*
X83438904Y-75670156D02*
X83343666Y-75574918D01*
X83343666Y-75574918D02*
X83248428Y-75527299D01*
X83248428Y-75527299D02*
X83057952Y-75527299D01*
X83057952Y-75527299D02*
X82962714Y-75574918D01*
X82962714Y-75574918D02*
X82867476Y-75670156D01*
X82867476Y-75670156D02*
X82819857Y-75860632D01*
X82819857Y-75860632D02*
X82819857Y-76193965D01*
X82819857Y-76193965D02*
X82867476Y-76384441D01*
X82867476Y-76384441D02*
X82962714Y-76479680D01*
X82962714Y-76479680D02*
X83057952Y-76527299D01*
X83057952Y-76527299D02*
X83248428Y-76527299D01*
X81867476Y-76527299D02*
X82438904Y-76527299D01*
X82153190Y-76527299D02*
X82153190Y-75527299D01*
X82153190Y-75527299D02*
X82248428Y-75670156D01*
X82248428Y-75670156D02*
X82343666Y-75765394D01*
X82343666Y-75765394D02*
X82438904Y-75813013D01*
D10*
X82081666Y-70176779D02*
X82414999Y-69700588D01*
X82653094Y-70176779D02*
X82653094Y-69176779D01*
X82653094Y-69176779D02*
X82272142Y-69176779D01*
X82272142Y-69176779D02*
X82176904Y-69224398D01*
X82176904Y-69224398D02*
X82129285Y-69272017D01*
X82129285Y-69272017D02*
X82081666Y-69367255D01*
X82081666Y-69367255D02*
X82081666Y-69510112D01*
X82081666Y-69510112D02*
X82129285Y-69605350D01*
X82129285Y-69605350D02*
X82176904Y-69652969D01*
X82176904Y-69652969D02*
X82272142Y-69700588D01*
X82272142Y-69700588D02*
X82653094Y-69700588D01*
X81129285Y-70176779D02*
X81700713Y-70176779D01*
X81414999Y-70176779D02*
X81414999Y-69176779D01*
X81414999Y-69176779D02*
X81510237Y-69319636D01*
X81510237Y-69319636D02*
X81605475Y-69414874D01*
X81605475Y-69414874D02*
X81700713Y-69462493D01*
X85891666Y-70176779D02*
X86224999Y-69700588D01*
X86463094Y-70176779D02*
X86463094Y-69176779D01*
X86463094Y-69176779D02*
X86082142Y-69176779D01*
X86082142Y-69176779D02*
X85986904Y-69224398D01*
X85986904Y-69224398D02*
X85939285Y-69272017D01*
X85939285Y-69272017D02*
X85891666Y-69367255D01*
X85891666Y-69367255D02*
X85891666Y-69510112D01*
X85891666Y-69510112D02*
X85939285Y-69605350D01*
X85939285Y-69605350D02*
X85986904Y-69652969D01*
X85986904Y-69652969D02*
X86082142Y-69700588D01*
X86082142Y-69700588D02*
X86463094Y-69700588D01*
X85510713Y-69272017D02*
X85463094Y-69224398D01*
X85463094Y-69224398D02*
X85367856Y-69176779D01*
X85367856Y-69176779D02*
X85129761Y-69176779D01*
X85129761Y-69176779D02*
X85034523Y-69224398D01*
X85034523Y-69224398D02*
X84986904Y-69272017D01*
X84986904Y-69272017D02*
X84939285Y-69367255D01*
X84939285Y-69367255D02*
X84939285Y-69462493D01*
X84939285Y-69462493D02*
X84986904Y-69605350D01*
X84986904Y-69605350D02*
X85558332Y-70176779D01*
X85558332Y-70176779D02*
X84939285Y-70176779D01*
X131611666Y-81098779D02*
X131944999Y-80622588D01*
X132183094Y-81098779D02*
X132183094Y-80098779D01*
X132183094Y-80098779D02*
X131802142Y-80098779D01*
X131802142Y-80098779D02*
X131706904Y-80146398D01*
X131706904Y-80146398D02*
X131659285Y-80194017D01*
X131659285Y-80194017D02*
X131611666Y-80289255D01*
X131611666Y-80289255D02*
X131611666Y-80432112D01*
X131611666Y-80432112D02*
X131659285Y-80527350D01*
X131659285Y-80527350D02*
X131706904Y-80574969D01*
X131706904Y-80574969D02*
X131802142Y-80622588D01*
X131802142Y-80622588D02*
X132183094Y-80622588D01*
X131278332Y-80098779D02*
X130659285Y-80098779D01*
X130659285Y-80098779D02*
X130992618Y-80479731D01*
X130992618Y-80479731D02*
X130849761Y-80479731D01*
X130849761Y-80479731D02*
X130754523Y-80527350D01*
X130754523Y-80527350D02*
X130706904Y-80574969D01*
X130706904Y-80574969D02*
X130659285Y-80670207D01*
X130659285Y-80670207D02*
X130659285Y-80908302D01*
X130659285Y-80908302D02*
X130706904Y-81003540D01*
X130706904Y-81003540D02*
X130754523Y-81051160D01*
X130754523Y-81051160D02*
X130849761Y-81098779D01*
X130849761Y-81098779D02*
X131135475Y-81098779D01*
X131135475Y-81098779D02*
X131230713Y-81051160D01*
X131230713Y-81051160D02*
X131278332Y-81003540D01*
X105068666Y-142693779D02*
X105401999Y-142217588D01*
X105640094Y-142693779D02*
X105640094Y-141693779D01*
X105640094Y-141693779D02*
X105259142Y-141693779D01*
X105259142Y-141693779D02*
X105163904Y-141741398D01*
X105163904Y-141741398D02*
X105116285Y-141789017D01*
X105116285Y-141789017D02*
X105068666Y-141884255D01*
X105068666Y-141884255D02*
X105068666Y-142027112D01*
X105068666Y-142027112D02*
X105116285Y-142122350D01*
X105116285Y-142122350D02*
X105163904Y-142169969D01*
X105163904Y-142169969D02*
X105259142Y-142217588D01*
X105259142Y-142217588D02*
X105640094Y-142217588D01*
X104211523Y-141693779D02*
X104401999Y-141693779D01*
X104401999Y-141693779D02*
X104497237Y-141741398D01*
X104497237Y-141741398D02*
X104544856Y-141789017D01*
X104544856Y-141789017D02*
X104640094Y-141931874D01*
X104640094Y-141931874D02*
X104687713Y-142122350D01*
X104687713Y-142122350D02*
X104687713Y-142503302D01*
X104687713Y-142503302D02*
X104640094Y-142598540D01*
X104640094Y-142598540D02*
X104592475Y-142646160D01*
X104592475Y-142646160D02*
X104497237Y-142693779D01*
X104497237Y-142693779D02*
X104306761Y-142693779D01*
X104306761Y-142693779D02*
X104211523Y-142646160D01*
X104211523Y-142646160D02*
X104163904Y-142598540D01*
X104163904Y-142598540D02*
X104116285Y-142503302D01*
X104116285Y-142503302D02*
X104116285Y-142265207D01*
X104116285Y-142265207D02*
X104163904Y-142169969D01*
X104163904Y-142169969D02*
X104211523Y-142122350D01*
X104211523Y-142122350D02*
X104306761Y-142074731D01*
X104306761Y-142074731D02*
X104497237Y-142074731D01*
X104497237Y-142074731D02*
X104592475Y-142122350D01*
X104592475Y-142122350D02*
X104640094Y-142169969D01*
X104640094Y-142169969D02*
X104687713Y-142265207D01*
D11*
X95734094Y-145869299D02*
X95734094Y-144869299D01*
X95734094Y-144869299D02*
X95495999Y-144869299D01*
X95495999Y-144869299D02*
X95353142Y-144916918D01*
X95353142Y-144916918D02*
X95257904Y-145012156D01*
X95257904Y-145012156D02*
X95210285Y-145107394D01*
X95210285Y-145107394D02*
X95162666Y-145297870D01*
X95162666Y-145297870D02*
X95162666Y-145440727D01*
X95162666Y-145440727D02*
X95210285Y-145631203D01*
X95210285Y-145631203D02*
X95257904Y-145726441D01*
X95257904Y-145726441D02*
X95353142Y-145821680D01*
X95353142Y-145821680D02*
X95495999Y-145869299D01*
X95495999Y-145869299D02*
X95734094Y-145869299D01*
X94257904Y-144869299D02*
X94734094Y-144869299D01*
X94734094Y-144869299D02*
X94781713Y-145345489D01*
X94781713Y-145345489D02*
X94734094Y-145297870D01*
X94734094Y-145297870D02*
X94638856Y-145250251D01*
X94638856Y-145250251D02*
X94400761Y-145250251D01*
X94400761Y-145250251D02*
X94305523Y-145297870D01*
X94305523Y-145297870D02*
X94257904Y-145345489D01*
X94257904Y-145345489D02*
X94210285Y-145440727D01*
X94210285Y-145440727D02*
X94210285Y-145678822D01*
X94210285Y-145678822D02*
X94257904Y-145774060D01*
X94257904Y-145774060D02*
X94305523Y-145821680D01*
X94305523Y-145821680D02*
X94400761Y-145869299D01*
X94400761Y-145869299D02*
X94638856Y-145869299D01*
X94638856Y-145869299D02*
X94734094Y-145821680D01*
X94734094Y-145821680D02*
X94781713Y-145774060D01*
D10*
X78359000Y-74270000D02*
X80391000Y-74270000D01*
X78359000Y-74270000D02*
X78359000Y-70510000D01*
X80391000Y-74270000D02*
X80391000Y-70510000D01*
X78359000Y-70510000D02*
X80391000Y-70510000D01*
X75819000Y-74270000D02*
X77851000Y-74270000D01*
X75819000Y-74270000D02*
X75819000Y-70510000D01*
X77851000Y-74270000D02*
X77851000Y-70510000D01*
X75819000Y-70510000D02*
X77851000Y-70510000D01*
X132740000Y-77089000D02*
X132740000Y-79121000D01*
X132740000Y-77089000D02*
X136500000Y-77089000D01*
X132740000Y-79121000D02*
X136500000Y-79121000D01*
X136500000Y-77089000D02*
X136500000Y-79121000D01*
X132740000Y-74549000D02*
X132740000Y-76581000D01*
X132740000Y-74549000D02*
X136500000Y-74549000D01*
X132740000Y-76581000D02*
X136500000Y-76581000D01*
X136500000Y-74549000D02*
X136500000Y-76581000D01*
X132740000Y-82169000D02*
X132740000Y-84201000D01*
X132740000Y-82169000D02*
X136500000Y-82169000D01*
X132740000Y-84201000D02*
X136500000Y-84201000D01*
X136500000Y-82169000D02*
X136500000Y-84201000D01*
X110236000Y-135915000D02*
X108204000Y-135915000D01*
X110236000Y-135915000D02*
X110236000Y-139675000D01*
X108204000Y-135915000D02*
X108204000Y-139675000D01*
X110236000Y-139675000D02*
X108204000Y-139675000D01*
X93091000Y-135915000D02*
X91059000Y-135915000D01*
X93091000Y-135915000D02*
X93091000Y-139675000D01*
X91059000Y-135915000D02*
X91059000Y-139675000D01*
X93091000Y-139675000D02*
X91059000Y-139675000D01*
X75946000Y-135915000D02*
X73914000Y-135915000D01*
X75946000Y-135915000D02*
X75946000Y-139675000D01*
X73914000Y-135915000D02*
X73914000Y-139675000D01*
X75946000Y-139675000D02*
X73914000Y-139675000D01*
X131572000Y-145605500D02*
X131572000Y-145923000D01*
X128778000Y-144907000D02*
X128778000Y-145923000D01*
X131572000Y-144907000D02*
X131572000Y-145605500D01*
D12*
X131953000Y-146177000D02*
G75*
G03*
X131953000Y-146177000I-190500J0D01*
G01*
X131889500Y-146177000D02*
G75*
G03*
X131889500Y-146177000I-127000J0D01*
G01*
X131826000Y-146177000D02*
G75*
G03*
X131826000Y-146177000I-63500J0D01*
G01*
D11*
X112610000Y-135826500D02*
X112610000Y-138845000D01*
X110910000Y-135826500D02*
X112610000Y-135826500D01*
X110910000Y-135826500D02*
X110910000Y-138845000D01*
X95465000Y-135826500D02*
X95465000Y-138845000D01*
X93765000Y-135826500D02*
X95465000Y-135826500D01*
X93765000Y-135826500D02*
X93765000Y-138845000D01*
X78320000Y-135826500D02*
X78320000Y-138845000D01*
X76620000Y-135826500D02*
X78320000Y-135826500D01*
X76620000Y-135826500D02*
X76620000Y-138845000D01*
X81026000Y-75946000D02*
X81026000Y-76454000D01*
X79250000Y-77851000D02*
X80710000Y-77851000D01*
X79250000Y-74549000D02*
X79250000Y-75438000D01*
X79248000Y-77851000D02*
X79248000Y-76962000D01*
X79248000Y-74549000D02*
X80772000Y-74549000D01*
D10*
X80899000Y-74270000D02*
X82931000Y-74270000D01*
X80899000Y-74270000D02*
X80899000Y-70510000D01*
X82931000Y-74270000D02*
X82931000Y-70510000D01*
X80899000Y-70510000D02*
X82931000Y-70510000D01*
X86741000Y-70510000D02*
X84709000Y-70510000D01*
X86741000Y-70510000D02*
X86741000Y-74270000D01*
X84709000Y-70510000D02*
X84709000Y-74270000D01*
X86741000Y-74270000D02*
X84709000Y-74270000D01*
X132740000Y-79629000D02*
X132740000Y-81661000D01*
X132740000Y-79629000D02*
X136500000Y-79629000D01*
X132740000Y-81661000D02*
X136500000Y-81661000D01*
X136500000Y-79629000D02*
X136500000Y-81661000D01*
X106020000Y-145161000D02*
X106020000Y-143129000D01*
X106020000Y-145161000D02*
X102260000Y-145161000D01*
X106020000Y-143129000D02*
X102260000Y-143129000D01*
X102260000Y-145161000D02*
X102260000Y-143129000D01*
D11*
X101600000Y-143335000D02*
X97070000Y-143335000D01*
X101050000Y-147495000D02*
X97070000Y-147495000D01*
X101050000Y-147383500D02*
X101050000Y-147495000D01*
X97070000Y-147383500D02*
X97070000Y-147495000D01*
X97070000Y-143335000D02*
X97070000Y-143446500D01*
D12*
X101600000Y-142860010D02*
G75*
G03*
X101600000Y-142860010I-254000J0D01*
G01*
X101409500Y-142860010D02*
G75*
G03*
X101409500Y-142860010I-63500J0D01*
G01*
X101487990Y-142860010D02*
G75*
G03*
X101487990Y-142860010I-141990J0D01*
G01*
%LPC*%
D13*
X108585000Y-133270000D03*
X108585000Y-142320000D03*
D14*
X114885000Y-140345000D03*
X102285000Y-140345000D03*
X114885000Y-135245000D03*
X102285000Y-135245000D03*
D15*
X108585000Y-144745000D03*
D13*
X91500000Y-133270000D03*
X91500000Y-142320000D03*
D14*
X97800000Y-140345000D03*
X85200000Y-140345000D03*
X97800000Y-135245000D03*
X85200000Y-135245000D03*
D15*
X91500000Y-144745000D03*
D13*
X74295000Y-133270000D03*
X74295000Y-142320000D03*
D14*
X80595000Y-140345000D03*
X67995000Y-140345000D03*
X80595000Y-135245000D03*
X67995000Y-135245000D03*
D15*
X74295000Y-144745000D03*
D16*
X127635000Y-149860000D03*
D17*
X127635000Y-152400000D03*
X130175000Y-149860000D03*
X130175000Y-152400000D03*
X132715000Y-149860000D03*
X132715000Y-152400000D03*
D18*
X90170000Y-155575000D03*
D19*
X91440000Y-155575000D03*
X92710000Y-155575000D03*
D20*
X123444000Y-118618000D03*
D21*
X123444000Y-116078000D03*
X123444000Y-113538000D03*
X123444000Y-110998000D03*
X123444000Y-108458000D03*
X123444000Y-105918000D03*
X123444000Y-103378000D03*
X123444000Y-100838000D03*
X123444000Y-98298000D03*
D22*
X61000000Y-125720000D03*
X61000000Y-91720000D03*
D23*
X48895000Y-150095000D03*
X53395000Y-152845000D03*
X48895000Y-156595000D03*
D24*
X79375000Y-73360000D03*
X79375000Y-71420000D03*
X76835000Y-73360000D03*
X76835000Y-71420000D03*
D25*
X133650000Y-78105000D03*
X135590000Y-78105000D03*
X133650000Y-75565000D03*
X135590000Y-75565000D03*
X133650000Y-83185000D03*
X135590000Y-83185000D03*
D26*
X109220000Y-136825000D03*
X109220000Y-138765000D03*
X92075000Y-136825000D03*
X92075000Y-138765000D03*
X74930000Y-136825000D03*
X74930000Y-138765000D03*
D27*
X131175000Y-145955000D03*
X130675000Y-145955000D03*
X130175000Y-145955000D03*
X129675000Y-145955000D03*
X129175000Y-145955000D03*
X129175000Y-144875000D03*
X129675000Y-144875000D03*
X130175000Y-144875000D03*
X130675000Y-144875000D03*
X131175000Y-144875000D03*
D28*
X111760000Y-136525000D03*
X111760000Y-139065000D03*
X94615000Y-136525000D03*
X94615000Y-139065000D03*
X77470000Y-136525000D03*
X77470000Y-139065000D03*
D29*
X81010000Y-75250000D03*
X81010000Y-77150000D03*
X78810000Y-76200000D03*
D24*
X81915000Y-73360000D03*
X81915000Y-71420000D03*
D26*
X85725000Y-71420000D03*
X85725000Y-73360000D03*
D25*
X133650000Y-80645000D03*
X135590000Y-80645000D03*
D30*
X105110000Y-144145000D03*
X103170000Y-144145000D03*
D31*
X100787200Y-144145000D03*
X100787200Y-145415000D03*
X100787200Y-146685000D03*
X97332800Y-146685000D03*
X97332800Y-145415000D03*
X97332800Y-144145000D03*
D32*
X99060000Y-84455000D03*
X82550000Y-118745000D03*
X88468200Y-92913200D03*
X86995000Y-98425000D03*
X136940001Y-82769999D03*
X121285000Y-156845000D03*
X86995000Y-100330000D03*
X67310000Y-147320000D03*
X92075000Y-100330000D03*
X93980000Y-118745000D03*
X136940001Y-76419999D03*
X89535000Y-98425000D03*
X99060000Y-80645000D03*
X86995000Y-96520000D03*
X143510000Y-107315000D03*
X71120000Y-118745000D03*
X59690000Y-109220000D03*
X123190000Y-145415000D03*
X143510000Y-142240000D03*
X82550000Y-109220000D03*
X89535000Y-96520000D03*
X40005000Y-141605000D03*
X55245000Y-70485000D03*
X143510000Y-156845000D03*
X95885000Y-80645000D03*
X40005000Y-70485000D03*
X95885000Y-88265000D03*
X40005000Y-106045000D03*
X89535000Y-100330000D03*
X143510000Y-124460000D03*
X40005000Y-121285000D03*
X95885000Y-76835000D03*
X71120000Y-109220000D03*
X89535000Y-70485000D03*
X99060000Y-88265000D03*
X106680000Y-70485000D03*
X99060000Y-76835000D03*
X83820000Y-100330000D03*
X59690000Y-118745000D03*
X40005000Y-156845000D03*
X93980000Y-109220000D03*
X73025000Y-70485000D03*
X95250000Y-151130000D03*
X40005000Y-88900000D03*
X95885000Y-84455000D03*
X73025000Y-97790000D03*
X77470000Y-76200000D03*
X81280000Y-94996000D03*
X85090000Y-97790000D03*
X73025000Y-94996000D03*
X76200000Y-76200000D03*
X86868000Y-92837000D03*
X77470000Y-97790000D03*
X81280000Y-97790000D03*
X73660000Y-78740000D03*
X73025000Y-81280000D03*
X77470000Y-94996000D03*
X85217000Y-95123000D03*
X76200000Y-89535000D03*
X127000000Y-86995000D03*
X76200000Y-86360000D03*
X76835000Y-90805000D03*
X108585000Y-85725000D03*
X123799600Y-94589600D03*
X134620000Y-79375000D03*
X135128000Y-74114999D03*
X134620000Y-76835000D03*
X109855000Y-84455000D03*
X76200000Y-87630000D03*
X97790000Y-94615000D03*
X105410000Y-142875000D03*
X97790000Y-97790000D03*
X88265000Y-127635000D03*
X100965000Y-97790000D03*
X100965000Y-94615000D03*
X105410000Y-113665000D03*
X94615000Y-94615000D03*
X105410000Y-118110000D03*
X94615000Y-97790000D03*
X92710000Y-127635000D03*
X130810000Y-74295000D03*
X130175000Y-147955000D03*
X121285000Y-142875000D03*
X121285000Y-81615000D03*
X121285000Y-147320000D03*
X119989600Y-91440000D03*
X121285000Y-84455000D03*
X128270000Y-74295000D03*
X127000000Y-74295000D03*
X92710000Y-122555000D03*
X102870000Y-122555000D03*
X125730000Y-74295000D03*
X127635000Y-139700000D03*
X118110000Y-114300000D03*
X118110000Y-113030000D03*
X93345000Y-73660000D03*
X127635000Y-140970000D03*
X92075000Y-73660000D03*
X127000000Y-91440000D03*
X130149600Y-91440000D03*
X121920000Y-91440000D03*
X118719600Y-96520000D03*
X133985000Y-99060000D03*
X134315200Y-91135200D03*
X133985000Y-103505000D03*
X135585200Y-91135200D03*
X127635000Y-84455000D03*
X104140000Y-146050000D03*
X122555000Y-84455000D03*
X134620000Y-120650000D03*
X133985000Y-93345000D03*
X126365000Y-123190000D03*
X124460000Y-74295000D03*
X83820000Y-73660000D03*
X95250000Y-144145000D03*
X90805000Y-147955000D03*
%LPD*%
M02*
