G04 #@! TF.GenerationSoftware,KiCad,Pcbnew,7.0.9*
G04 #@! TF.CreationDate,2023-12-25T18:17:51+01:00*
G04 #@! TF.ProjectId,wall-mounted-room-temperature-sensor-wifi,77616c6c-2d6d-46f7-956e-7465642d726f,v1.0*
G04 #@! TF.SameCoordinates,Original*
G04 #@! TF.FileFunction,Profile,NP*
%FSLAX46Y46*%
G04 Gerber Fmt 4.6, Leading zero omitted, Abs format (unit mm)*
G04 Created by KiCad (PCBNEW 7.0.9) date 2023-12-25 18:17:51*
%MOMM*%
%LPD*%
G01*
G04 APERTURE LIST*
G04 #@! TA.AperFunction,Profile*
%ADD10C,0.200000*%
G04 #@! TD*
G04 #@! TA.AperFunction,Profile*
%ADD11C,0.050000*%
G04 #@! TD*
G04 APERTURE END LIST*
D10*
X61595000Y-148720000D02*
X85090000Y-148720000D01*
X38000000Y-68720000D02*
X38000000Y-158750000D01*
X38000000Y-68720000D02*
X137795000Y-68720000D01*
X97790000Y-158750000D02*
X85090000Y-158750000D01*
X97790000Y-158750000D02*
X97790000Y-148720000D01*
X97790000Y-148720000D02*
X119380000Y-148720000D01*
X145000000Y-158750000D02*
X145000000Y-148720000D01*
X145000000Y-158750000D02*
X119380000Y-158750000D01*
X119380000Y-158750000D02*
X119380000Y-148720000D01*
X61595000Y-158750000D02*
X61595000Y-148720000D01*
D11*
X60155000Y-155575000D02*
G75*
G03*
X60155000Y-155575000I-1100000J0D01*
G01*
X84285000Y-123825000D02*
G75*
G03*
X84285000Y-123825000I-1100000J0D01*
G01*
X43010000Y-134620000D02*
G75*
G03*
X43010000Y-134620000I-1100000J0D01*
G01*
X65235000Y-99695000D02*
G75*
G03*
X65235000Y-99695000I-1100000J0D01*
G01*
X106510000Y-85725000D02*
G75*
G03*
X106510000Y-85725000I-1100000J0D01*
G01*
X42375000Y-80010000D02*
G75*
G03*
X42375000Y-80010000I-1100000J0D01*
G01*
X142705000Y-155575000D02*
G75*
G03*
X142705000Y-155575000I-1100000J0D01*
G01*
X142705000Y-110490000D02*
G75*
G03*
X142705000Y-110490000I-1100000J0D01*
G01*
X84285000Y-146050000D02*
G75*
G03*
X84285000Y-146050000I-1100000J0D01*
G01*
D10*
X38000000Y-158750000D02*
X61595000Y-158750000D01*
X137795000Y-105410000D02*
X137795000Y-68720000D01*
X85090000Y-158750000D02*
X85090000Y-148720000D01*
X145000000Y-105410000D02*
X137795000Y-105410000D01*
X145000000Y-105410000D02*
X145000000Y-148720000D01*
M02*
