G04 #@! TF.GenerationSoftware,KiCad,Pcbnew,7.0.9*
G04 #@! TF.CreationDate,2023-12-25T18:17:51+01:00*
G04 #@! TF.ProjectId,wall-mounted-room-temperature-sensor-wifi,77616c6c-2d6d-46f7-956e-7465642d726f,v1.0*
G04 #@! TF.SameCoordinates,Original*
G04 #@! TF.FileFunction,Paste,Top*
G04 #@! TF.FilePolarity,Positive*
%FSLAX46Y46*%
G04 Gerber Fmt 4.6, Leading zero omitted, Abs format (unit mm)*
G04 Created by KiCad (PCBNEW 7.0.9) date 2023-12-25 18:17:51*
%MOMM*%
%LPD*%
G01*
G04 APERTURE LIST*
G04 Aperture macros list*
%AMRoundRect*
0 Rectangle with rounded corners*
0 $1 Rounding radius*
0 $2 $3 $4 $5 $6 $7 $8 $9 X,Y pos of 4 corners*
0 Add a 4 corners polygon primitive as box body*
4,1,4,$2,$3,$4,$5,$6,$7,$8,$9,$2,$3,0*
0 Add four circle primitives for the rounded corners*
1,1,$1+$1,$2,$3*
1,1,$1+$1,$4,$5*
1,1,$1+$1,$6,$7*
1,1,$1+$1,$8,$9*
0 Add four rect primitives between the rounded corners*
20,1,$1+$1,$2,$3,$4,$5,0*
20,1,$1+$1,$4,$5,$6,$7,0*
20,1,$1+$1,$6,$7,$8,$9,0*
20,1,$1+$1,$8,$9,$2,$3,0*%
G04 Aperture macros list end*
%ADD10R,1.500000X1.300000*%
%ADD11R,1.300000X1.500000*%
%ADD12R,0.800000X0.800000*%
%ADD13R,0.800000X0.300000*%
%ADD14R,2.000000X1.000000*%
%ADD15R,4.550000X5.250000*%
%ADD16R,4.600000X1.250000*%
%ADD17RoundRect,0.140000X0.140000X0.180000X-0.140000X0.180000X-0.140000X-0.180000X0.140000X-0.180000X0*%
%ADD18R,1.000000X0.310000*%
%ADD19R,0.900000X2.500000*%
%ADD20R,4.100000X4.100000*%
G04 APERTURE END LIST*
D10*
X76200000Y-78705000D03*
X76200000Y-80645000D03*
X83820000Y-94950000D03*
X83820000Y-93010000D03*
D11*
X87295000Y-91440000D03*
X89235000Y-91440000D03*
X79040000Y-89535000D03*
X80980000Y-89535000D03*
D10*
X76200000Y-84790000D03*
X76200000Y-82850000D03*
X92075000Y-94950000D03*
X92075000Y-93010000D03*
X110490000Y-76535000D03*
X110490000Y-74595000D03*
X110490000Y-81615000D03*
X110490000Y-79675000D03*
D12*
X73660000Y-75565000D03*
X71120000Y-75565000D03*
X125095000Y-149860000D03*
X125095000Y-152400000D03*
D13*
X126460000Y-100600000D03*
X126460000Y-101100000D03*
X126460000Y-101600000D03*
X126460000Y-102100000D03*
X126460000Y-102600000D03*
X127540000Y-102600000D03*
X127540000Y-102100000D03*
X127540000Y-101600000D03*
X127540000Y-101100000D03*
X127540000Y-100600000D03*
X126460000Y-108855000D03*
X126460000Y-109355000D03*
X126460000Y-109855000D03*
X126460000Y-110355000D03*
X126460000Y-110855000D03*
X127540000Y-110855000D03*
X127540000Y-110355000D03*
X127540000Y-109855000D03*
X127540000Y-109355000D03*
X127540000Y-108855000D03*
D12*
X126365000Y-118745000D03*
X128905000Y-118745000D03*
D10*
X121920000Y-94950000D03*
X121920000Y-93010000D03*
D11*
X110155000Y-129540000D03*
X112095000Y-129540000D03*
X93010000Y-129540000D03*
X94950000Y-129540000D03*
X75865000Y-129540000D03*
X77805000Y-129540000D03*
D14*
X107920000Y-76565000D03*
X104170000Y-76565000D03*
X107920000Y-74565000D03*
X104170000Y-74565000D03*
X107920000Y-81645000D03*
X104170000Y-81645000D03*
X107920000Y-79645000D03*
X104170000Y-79645000D03*
D15*
X87110000Y-79775000D03*
X87110000Y-85325000D03*
X91960000Y-79775000D03*
X91960000Y-85325000D03*
D16*
X80385000Y-79150000D03*
X80385000Y-80850000D03*
X80385000Y-82550000D03*
X80385000Y-84250000D03*
X80385000Y-85950000D03*
D17*
X88615000Y-95015000D03*
X88615000Y-94215000D03*
X87915000Y-95015000D03*
X87915000Y-94215000D03*
D18*
X89750900Y-95590000D03*
X89750900Y-94940000D03*
X89750900Y-94290000D03*
X89750900Y-93640000D03*
X86779100Y-93640000D03*
X86779100Y-94290000D03*
X86779100Y-94940000D03*
X86779100Y-95590000D03*
D10*
X119380000Y-93010000D03*
X119380000Y-94950000D03*
D12*
X95250000Y-156210000D03*
X95250000Y-153670000D03*
D19*
X136870000Y-72020000D03*
X135600000Y-72020000D03*
X134330000Y-72020000D03*
X133060000Y-72020000D03*
X131790000Y-72020000D03*
X130520000Y-72020000D03*
X129250000Y-72020000D03*
X127980000Y-72020000D03*
X126710000Y-72020000D03*
X125440000Y-72020000D03*
X124170000Y-72020000D03*
X122900000Y-72020000D03*
X121630000Y-72020000D03*
X120360000Y-72020000D03*
X119090000Y-72020000D03*
X117820000Y-72020000D03*
X116550000Y-72009000D03*
X115280000Y-72009000D03*
X114010000Y-72009000D03*
X114010000Y-89281000D03*
X115280000Y-89281000D03*
X116550000Y-89281000D03*
X117820000Y-89270000D03*
X119090000Y-89270000D03*
X120360000Y-89281000D03*
X121630000Y-89270000D03*
X122900000Y-89270000D03*
X124170000Y-89270000D03*
X125440000Y-89270000D03*
X126710000Y-89270000D03*
X127980000Y-89270000D03*
X129250000Y-89270000D03*
X130520000Y-89270000D03*
X131790000Y-89270000D03*
X133060000Y-89270000D03*
X134330000Y-89270000D03*
X135600000Y-89270000D03*
X136870000Y-89270000D03*
D20*
X129175000Y-79145000D03*
D12*
X52705000Y-147955000D03*
X55245000Y-147955000D03*
M02*
