G04 #@! TF.GenerationSoftware,KiCad,Pcbnew,7.0.9*
G04 #@! TF.CreationDate,2023-12-25T18:17:51+01:00*
G04 #@! TF.ProjectId,wall-mounted-room-temperature-sensor-wifi,77616c6c-2d6d-46f7-956e-7465642d726f,v1.0*
G04 #@! TF.SameCoordinates,Original*
G04 #@! TF.FileFunction,Paste,Bot*
G04 #@! TF.FilePolarity,Positive*
%FSLAX46Y46*%
G04 Gerber Fmt 4.6, Leading zero omitted, Abs format (unit mm)*
G04 Created by KiCad (PCBNEW 7.0.9) date 2023-12-25 18:17:51*
%MOMM*%
%LPD*%
G01*
G04 APERTURE LIST*
%ADD10R,1.500000X1.300000*%
%ADD11R,1.300000X1.500000*%
%ADD12R,0.300000X0.800000*%
%ADD13R,0.800000X0.800000*%
%ADD14R,1.300000X1.000000*%
%ADD15R,2.200000X0.800000*%
G04 APERTURE END LIST*
D10*
X79375000Y-73360000D03*
X79375000Y-71420000D03*
X76835000Y-73360000D03*
X76835000Y-71420000D03*
D11*
X133650000Y-78105000D03*
X135590000Y-78105000D03*
X133650000Y-75565000D03*
X135590000Y-75565000D03*
X133650000Y-83185000D03*
X135590000Y-83185000D03*
D10*
X109220000Y-136825000D03*
X109220000Y-138765000D03*
X92075000Y-136825000D03*
X92075000Y-138765000D03*
X74930000Y-136825000D03*
X74930000Y-138765000D03*
D12*
X131175000Y-145955000D03*
X130675000Y-145955000D03*
X130175000Y-145955000D03*
X129675000Y-145955000D03*
X129175000Y-145955000D03*
X129175000Y-144875000D03*
X129675000Y-144875000D03*
X130175000Y-144875000D03*
X130675000Y-144875000D03*
X131175000Y-144875000D03*
D13*
X111760000Y-136525000D03*
X111760000Y-139065000D03*
X94615000Y-136525000D03*
X94615000Y-139065000D03*
X77470000Y-136525000D03*
X77470000Y-139065000D03*
D14*
X81010000Y-75250000D03*
X81010000Y-77150000D03*
X78810000Y-76200000D03*
D10*
X81915000Y-73360000D03*
X81915000Y-71420000D03*
X85725000Y-71420000D03*
X85725000Y-73360000D03*
D11*
X133650000Y-80645000D03*
X135590000Y-80645000D03*
X105110000Y-144145000D03*
X103170000Y-144145000D03*
D15*
X100787200Y-144145000D03*
X100787200Y-145415000D03*
X100787200Y-146685000D03*
X97332800Y-146685000D03*
X97332800Y-145415000D03*
X97332800Y-144145000D03*
M02*
