G04 #@! TF.GenerationSoftware,KiCad,Pcbnew,7.0.9*
G04 #@! TF.CreationDate,2023-12-25T18:17:51+01:00*
G04 #@! TF.ProjectId,wall-mounted-room-temperature-sensor-wifi,77616c6c-2d6d-46f7-956e-7465642d726f,v1.0*
G04 #@! TF.SameCoordinates,Original*
G04 #@! TF.FileFunction,Soldermask,Bot*
G04 #@! TF.FilePolarity,Negative*
%FSLAX46Y46*%
G04 Gerber Fmt 4.6, Leading zero omitted, Abs format (unit mm)*
G04 Created by KiCad (PCBNEW 7.0.9) date 2023-12-25 18:17:51*
%MOMM*%
%LPD*%
G01*
G04 APERTURE LIST*
G04 Aperture macros list*
%AMRoundRect*
0 Rectangle with rounded corners*
0 $1 Rounding radius*
0 $2 $3 $4 $5 $6 $7 $8 $9 X,Y pos of 4 corners*
0 Add a 4 corners polygon primitive as box body*
4,1,4,$2,$3,$4,$5,$6,$7,$8,$9,$2,$3,0*
0 Add four circle primitives for the rounded corners*
1,1,$1+$1,$2,$3*
1,1,$1+$1,$4,$5*
1,1,$1+$1,$6,$7*
1,1,$1+$1,$8,$9*
0 Add four rect primitives between the rounded corners*
20,1,$1+$1,$2,$3,$4,$5,0*
20,1,$1+$1,$4,$5,$6,$7,0*
20,1,$1+$1,$6,$7,$8,$9,0*
20,1,$1+$1,$8,$9,$2,$3,0*%
G04 Aperture macros list end*
%ADD10C,1.950000*%
%ADD11C,3.600000*%
%ADD12C,3.100000*%
%ADD13RoundRect,0.050000X-0.900000X0.900000X-0.900000X-0.900000X0.900000X-0.900000X0.900000X0.900000X0*%
%ADD14O,1.900000X1.900000*%
%ADD15RoundRect,0.050000X-0.525000X-0.750000X0.525000X-0.750000X0.525000X0.750000X-0.525000X0.750000X0*%
%ADD16RoundRect,0.312500X-0.262500X-0.487500X0.262500X-0.487500X0.262500X0.487500X-0.262500X0.487500X0*%
%ADD17RoundRect,0.050000X1.050000X1.050000X-1.050000X1.050000X-1.050000X-1.050000X1.050000X-1.050000X0*%
%ADD18O,2.200000X2.200000*%
%ADD19C,3.300000*%
%ADD20C,4.600000*%
%ADD21RoundRect,0.050000X0.750000X-0.650000X0.750000X0.650000X-0.750000X0.650000X-0.750000X-0.650000X0*%
%ADD22RoundRect,0.050000X-0.650000X-0.750000X0.650000X-0.750000X0.650000X0.750000X-0.650000X0.750000X0*%
%ADD23RoundRect,0.050000X-0.750000X0.650000X-0.750000X-0.650000X0.750000X-0.650000X0.750000X0.650000X0*%
%ADD24RoundRect,0.050000X0.150000X0.400000X-0.150000X0.400000X-0.150000X-0.400000X0.150000X-0.400000X0*%
%ADD25RoundRect,0.050000X-0.400000X0.400000X-0.400000X-0.400000X0.400000X-0.400000X0.400000X0.400000X0*%
%ADD26RoundRect,0.050000X0.650000X0.500000X-0.650000X0.500000X-0.650000X-0.500000X0.650000X-0.500000X0*%
%ADD27RoundRect,0.050000X0.650000X0.750000X-0.650000X0.750000X-0.650000X-0.750000X0.650000X-0.750000X0*%
%ADD28RoundRect,0.050000X1.100000X0.400000X-1.100000X0.400000X-1.100000X-0.400000X1.100000X-0.400000X0*%
%ADD29C,0.900000*%
G04 APERTURE END LIST*
D10*
X108585000Y-133270000D03*
X108585000Y-142320000D03*
D11*
X114885000Y-140345000D03*
X102285000Y-140345000D03*
X114885000Y-135245000D03*
X102285000Y-135245000D03*
D12*
X108585000Y-144745000D03*
D10*
X91500000Y-133270000D03*
X91500000Y-142320000D03*
D11*
X97800000Y-140345000D03*
X85200000Y-140345000D03*
X97800000Y-135245000D03*
X85200000Y-135245000D03*
D12*
X91500000Y-144745000D03*
D10*
X74295000Y-133270000D03*
X74295000Y-142320000D03*
D11*
X80595000Y-140345000D03*
X67995000Y-140345000D03*
X80595000Y-135245000D03*
X67995000Y-135245000D03*
D12*
X74295000Y-144745000D03*
D13*
X127635000Y-149860000D03*
D14*
X127635000Y-152400000D03*
X130175000Y-149860000D03*
X130175000Y-152400000D03*
X132715000Y-149860000D03*
X132715000Y-152400000D03*
D15*
X90170000Y-155575000D03*
D16*
X91440000Y-155575000D03*
X92710000Y-155575000D03*
D17*
X123444000Y-118618000D03*
D18*
X123444000Y-116078000D03*
X123444000Y-113538000D03*
X123444000Y-110998000D03*
X123444000Y-108458000D03*
X123444000Y-105918000D03*
X123444000Y-103378000D03*
X123444000Y-100838000D03*
X123444000Y-98298000D03*
D19*
X61000000Y-125720000D03*
X61000000Y-91720000D03*
D20*
X48895000Y-150095000D03*
X53395000Y-152845000D03*
X48895000Y-156595000D03*
D21*
X79375000Y-73360000D03*
X79375000Y-71420000D03*
X76835000Y-73360000D03*
X76835000Y-71420000D03*
D22*
X133650000Y-78105000D03*
X135590000Y-78105000D03*
X133650000Y-75565000D03*
X135590000Y-75565000D03*
X133650000Y-83185000D03*
X135590000Y-83185000D03*
D23*
X109220000Y-136825000D03*
X109220000Y-138765000D03*
X92075000Y-136825000D03*
X92075000Y-138765000D03*
X74930000Y-136825000D03*
X74930000Y-138765000D03*
D24*
X131175000Y-145955000D03*
X130675000Y-145955000D03*
X130175000Y-145955000D03*
X129675000Y-145955000D03*
X129175000Y-145955000D03*
X129175000Y-144875000D03*
X129675000Y-144875000D03*
X130175000Y-144875000D03*
X130675000Y-144875000D03*
X131175000Y-144875000D03*
D25*
X111760000Y-136525000D03*
X111760000Y-139065000D03*
X94615000Y-136525000D03*
X94615000Y-139065000D03*
X77470000Y-136525000D03*
X77470000Y-139065000D03*
D26*
X81010000Y-75250000D03*
X81010000Y-77150000D03*
X78810000Y-76200000D03*
D21*
X81915000Y-73360000D03*
X81915000Y-71420000D03*
D23*
X85725000Y-71420000D03*
X85725000Y-73360000D03*
D22*
X133650000Y-80645000D03*
X135590000Y-80645000D03*
D27*
X105110000Y-144145000D03*
X103170000Y-144145000D03*
D28*
X100787200Y-144145000D03*
X100787200Y-145415000D03*
X100787200Y-146685000D03*
X97332800Y-146685000D03*
X97332800Y-145415000D03*
X97332800Y-144145000D03*
D29*
X99060000Y-84455000D03*
X82550000Y-118745000D03*
X88468200Y-92913200D03*
X86995000Y-98425000D03*
X136940001Y-82769999D03*
X121285000Y-156845000D03*
X86995000Y-100330000D03*
X67310000Y-147320000D03*
X92075000Y-100330000D03*
X93980000Y-118745000D03*
X136940001Y-76419999D03*
X89535000Y-98425000D03*
X99060000Y-80645000D03*
X86995000Y-96520000D03*
X143510000Y-107315000D03*
X71120000Y-118745000D03*
X59690000Y-109220000D03*
X123190000Y-145415000D03*
X143510000Y-142240000D03*
X82550000Y-109220000D03*
X89535000Y-96520000D03*
X40005000Y-141605000D03*
X55245000Y-70485000D03*
X143510000Y-156845000D03*
X95885000Y-80645000D03*
X40005000Y-70485000D03*
X95885000Y-88265000D03*
X40005000Y-106045000D03*
X89535000Y-100330000D03*
X143510000Y-124460000D03*
X40005000Y-121285000D03*
X95885000Y-76835000D03*
X71120000Y-109220000D03*
X89535000Y-70485000D03*
X99060000Y-88265000D03*
X106680000Y-70485000D03*
X99060000Y-76835000D03*
X83820000Y-100330000D03*
X59690000Y-118745000D03*
X40005000Y-156845000D03*
X93980000Y-109220000D03*
X73025000Y-70485000D03*
X95250000Y-151130000D03*
X40005000Y-88900000D03*
X95885000Y-84455000D03*
X73025000Y-97790000D03*
X77470000Y-76200000D03*
X81280000Y-94996000D03*
X85090000Y-97790000D03*
X73025000Y-94996000D03*
X76200000Y-76200000D03*
X86868000Y-92837000D03*
X77470000Y-97790000D03*
X81280000Y-97790000D03*
X73660000Y-78740000D03*
X73025000Y-81280000D03*
X77470000Y-94996000D03*
X85217000Y-95123000D03*
X76200000Y-89535000D03*
X127000000Y-86995000D03*
X76200000Y-86360000D03*
X76835000Y-90805000D03*
X108585000Y-85725000D03*
X123799600Y-94589600D03*
X134620000Y-79375000D03*
X135128000Y-74114999D03*
X134620000Y-76835000D03*
X109855000Y-84455000D03*
X76200000Y-87630000D03*
X97790000Y-94615000D03*
X105410000Y-142875000D03*
X97790000Y-97790000D03*
X88265000Y-127635000D03*
X100965000Y-97790000D03*
X100965000Y-94615000D03*
X105410000Y-113665000D03*
X94615000Y-94615000D03*
X105410000Y-118110000D03*
X94615000Y-97790000D03*
X92710000Y-127635000D03*
X130810000Y-74295000D03*
X130175000Y-147955000D03*
X121285000Y-142875000D03*
X121285000Y-81615000D03*
X121285000Y-147320000D03*
X119989600Y-91440000D03*
X121285000Y-84455000D03*
X128270000Y-74295000D03*
X127000000Y-74295000D03*
X92710000Y-122555000D03*
X102870000Y-122555000D03*
X125730000Y-74295000D03*
X127635000Y-139700000D03*
X118110000Y-114300000D03*
X118110000Y-113030000D03*
X93345000Y-73660000D03*
X127635000Y-140970000D03*
X92075000Y-73660000D03*
X127000000Y-91440000D03*
X130149600Y-91440000D03*
X121920000Y-91440000D03*
X118719600Y-96520000D03*
X133985000Y-99060000D03*
X134315200Y-91135200D03*
X133985000Y-103505000D03*
X135585200Y-91135200D03*
X127635000Y-84455000D03*
X104140000Y-146050000D03*
X122555000Y-84455000D03*
X134620000Y-120650000D03*
X133985000Y-93345000D03*
X126365000Y-123190000D03*
X124460000Y-74295000D03*
X83820000Y-73660000D03*
X95250000Y-144145000D03*
X90805000Y-147955000D03*
M02*
