G04 #@! TF.GenerationSoftware,KiCad,Pcbnew,(5.1.6)-1*
G04 #@! TF.CreationDate,2023-01-22T16:24:16+01:00*
G04 #@! TF.ProjectId,power-in-usb-c,706f7765-722d-4696-9e2d-7573622d632e,rev?*
G04 #@! TF.SameCoordinates,Original*
G04 #@! TF.FileFunction,Legend,Top*
G04 #@! TF.FilePolarity,Positive*
%FSLAX46Y46*%
G04 Gerber Fmt 4.6, Leading zero omitted, Abs format (unit mm)*
G04 Created by KiCad (PCBNEW (5.1.6)-1) date 2023-01-22 16:24:16*
%MOMM*%
%LPD*%
G01*
G04 APERTURE LIST*
%ADD10C,0.500000*%
%ADD11C,0.300000*%
%ADD12C,0.150000*%
%ADD13O,2.200000X2.200000*%
%ADD14R,2.200000X2.200000*%
%ADD15C,3.600000*%
G04 APERTURE END LIST*
D10*
X178704761Y-68262476D02*
X177752380Y-68929142D01*
X178704761Y-69405333D02*
X176704761Y-69405333D01*
X176704761Y-68643428D01*
X176800000Y-68452952D01*
X176895238Y-68357714D01*
X177085714Y-68262476D01*
X177371428Y-68262476D01*
X177561904Y-68357714D01*
X177657142Y-68452952D01*
X177752380Y-68643428D01*
X177752380Y-69405333D01*
X178704761Y-66452952D02*
X178704761Y-67405333D01*
X176704761Y-67405333D01*
D11*
X176361714Y-80536857D02*
X176361714Y-79622571D01*
X176818857Y-80079714D02*
X175904571Y-80079714D01*
X175618857Y-78479714D02*
X175618857Y-79051142D01*
X176190285Y-79108285D01*
X176133142Y-79051142D01*
X176076000Y-78936857D01*
X176076000Y-78651142D01*
X176133142Y-78536857D01*
X176190285Y-78479714D01*
X176304571Y-78422571D01*
X176590285Y-78422571D01*
X176704571Y-78479714D01*
X176761714Y-78536857D01*
X176818857Y-78651142D01*
X176818857Y-78936857D01*
X176761714Y-79051142D01*
X176704571Y-79108285D01*
X175618857Y-78079714D02*
X176818857Y-77679714D01*
X175618857Y-77279714D01*
X175676000Y-74320285D02*
X175618857Y-74434571D01*
X175618857Y-74606000D01*
X175676000Y-74777428D01*
X175790285Y-74891714D01*
X175904571Y-74948857D01*
X176133142Y-75006000D01*
X176304571Y-75006000D01*
X176533142Y-74948857D01*
X176647428Y-74891714D01*
X176761714Y-74777428D01*
X176818857Y-74606000D01*
X176818857Y-74491714D01*
X176761714Y-74320285D01*
X176704571Y-74263142D01*
X176304571Y-74263142D01*
X176304571Y-74491714D01*
X176818857Y-73748857D02*
X175618857Y-73748857D01*
X176818857Y-73063142D01*
X175618857Y-73063142D01*
X176818857Y-72491714D02*
X175618857Y-72491714D01*
X175618857Y-72206000D01*
X175676000Y-72034571D01*
X175790285Y-71920285D01*
X175904571Y-71863142D01*
X176133142Y-71806000D01*
X176304571Y-71806000D01*
X176533142Y-71863142D01*
X176647428Y-71920285D01*
X176761714Y-72034571D01*
X176818857Y-72206000D01*
X176818857Y-72491714D01*
D12*
%LPC*%
D13*
X179070000Y-72263000D03*
X179070000Y-74803000D03*
X179070000Y-77343000D03*
D14*
X179070000Y-79883000D03*
D15*
X182880000Y-85080000D03*
X182880000Y-68580000D03*
X182880000Y-73080000D03*
X182880000Y-80580000D03*
M02*
