G04 #@! TF.GenerationSoftware,KiCad,Pcbnew,7.0.9*
G04 #@! TF.CreationDate,2023-12-23T15:59:00+01:00*
G04 #@! TF.ProjectId,hub-1-wire,6875622d-312d-4776-9972-652e6b696361,v1.0*
G04 #@! TF.SameCoordinates,Original*
G04 #@! TF.FileFunction,Soldermask,Top*
G04 #@! TF.FilePolarity,Negative*
%FSLAX46Y46*%
G04 Gerber Fmt 4.6, Leading zero omitted, Abs format (unit mm)*
G04 Created by KiCad (PCBNEW 7.0.9) date 2023-12-23 15:59:00*
%MOMM*%
%LPD*%
G01*
G04 APERTURE LIST*
G04 APERTURE END LIST*
G36*
X135977604Y-104664184D02*
G01*
X136314911Y-104721495D01*
X136643681Y-104816212D01*
X136959779Y-104947144D01*
X137259230Y-105112644D01*
X137538267Y-105310632D01*
X137793383Y-105538617D01*
X138021368Y-105793733D01*
X138219356Y-106072770D01*
X138384856Y-106372221D01*
X138515788Y-106688319D01*
X138610505Y-107017089D01*
X138667816Y-107354396D01*
X138687000Y-107696000D01*
X138667816Y-108037604D01*
X138610505Y-108374911D01*
X138515788Y-108703681D01*
X138384856Y-109019779D01*
X138219356Y-109319230D01*
X138021368Y-109598267D01*
X137793383Y-109853383D01*
X137538267Y-110081368D01*
X137259230Y-110279356D01*
X136959779Y-110444856D01*
X136643681Y-110575788D01*
X136314911Y-110670505D01*
X135977604Y-110727816D01*
X135636000Y-110747000D01*
X135294396Y-110727816D01*
X134957089Y-110670505D01*
X134628319Y-110575788D01*
X134312221Y-110444856D01*
X134012770Y-110279356D01*
X133733733Y-110081368D01*
X133478617Y-109853383D01*
X133250632Y-109598267D01*
X133052644Y-109319230D01*
X132887144Y-109019779D01*
X132756212Y-108703681D01*
X132661495Y-108374911D01*
X132604184Y-108037604D01*
X132585000Y-107696000D01*
X132604184Y-107354396D01*
X132661495Y-107017089D01*
X132756212Y-106688319D01*
X132887144Y-106372221D01*
X133052644Y-106072770D01*
X133250632Y-105793733D01*
X133478617Y-105538617D01*
X133733733Y-105310632D01*
X134012770Y-105112644D01*
X134312221Y-104947144D01*
X134628319Y-104816212D01*
X134957089Y-104721495D01*
X135294396Y-104664184D01*
X135636000Y-104645000D01*
X135977604Y-104664184D01*
G37*
G36*
X175347604Y-104664184D02*
G01*
X175684911Y-104721495D01*
X176013681Y-104816212D01*
X176329779Y-104947144D01*
X176629230Y-105112644D01*
X176908267Y-105310632D01*
X177163383Y-105538617D01*
X177391368Y-105793733D01*
X177589356Y-106072770D01*
X177754856Y-106372221D01*
X177885788Y-106688319D01*
X177980505Y-107017089D01*
X178037816Y-107354396D01*
X178057000Y-107696000D01*
X178037816Y-108037604D01*
X177980505Y-108374911D01*
X177885788Y-108703681D01*
X177754856Y-109019779D01*
X177589356Y-109319230D01*
X177391368Y-109598267D01*
X177163383Y-109853383D01*
X176908267Y-110081368D01*
X176629230Y-110279356D01*
X176329779Y-110444856D01*
X176013681Y-110575788D01*
X175684911Y-110670505D01*
X175347604Y-110727816D01*
X175006000Y-110747000D01*
X174664396Y-110727816D01*
X174327089Y-110670505D01*
X173998319Y-110575788D01*
X173682221Y-110444856D01*
X173382770Y-110279356D01*
X173103733Y-110081368D01*
X172848617Y-109853383D01*
X172620632Y-109598267D01*
X172422644Y-109319230D01*
X172257144Y-109019779D01*
X172126212Y-108703681D01*
X172031495Y-108374911D01*
X171974184Y-108037604D01*
X171955000Y-107696000D01*
X171974184Y-107354396D01*
X172031495Y-107017089D01*
X172126212Y-106688319D01*
X172257144Y-106372221D01*
X172422644Y-106072770D01*
X172620632Y-105793733D01*
X172848617Y-105538617D01*
X173103733Y-105310632D01*
X173382770Y-105112644D01*
X173682221Y-104947144D01*
X173998319Y-104816212D01*
X174327089Y-104721495D01*
X174664396Y-104664184D01*
X175006000Y-104645000D01*
X175347604Y-104664184D01*
G37*
G36*
X144517517Y-103993882D02*
G01*
X144534062Y-104004938D01*
X144545118Y-104021483D01*
X144549000Y-104041000D01*
X144549000Y-107541000D01*
X144545118Y-107560517D01*
X144534062Y-107577062D01*
X144517517Y-107588118D01*
X144498000Y-107592000D01*
X140998000Y-107592000D01*
X140978483Y-107588118D01*
X140961938Y-107577062D01*
X140950882Y-107560517D01*
X140947000Y-107541000D01*
X140947000Y-104041000D01*
X140950882Y-104021483D01*
X140961938Y-104004938D01*
X140978483Y-103993882D01*
X140998000Y-103990000D01*
X144498000Y-103990000D01*
X144517517Y-103993882D01*
G37*
G36*
X159503517Y-103993882D02*
G01*
X159520062Y-104004938D01*
X159531118Y-104021483D01*
X159535000Y-104041000D01*
X159535000Y-107541000D01*
X159531118Y-107560517D01*
X159520062Y-107577062D01*
X159503517Y-107588118D01*
X159484000Y-107592000D01*
X155984000Y-107592000D01*
X155964483Y-107588118D01*
X155947938Y-107577062D01*
X155936882Y-107560517D01*
X155933000Y-107541000D01*
X155933000Y-104041000D01*
X155936882Y-104021483D01*
X155947938Y-104004938D01*
X155964483Y-103993882D01*
X155984000Y-103990000D01*
X159484000Y-103990000D01*
X159503517Y-103993882D01*
G37*
G36*
X147893951Y-103995036D02*
G01*
X147962589Y-103995036D01*
X148024570Y-104004378D01*
X148084269Y-104008648D01*
X148155044Y-104024044D01*
X148228760Y-104035155D01*
X148282924Y-104051862D01*
X148335305Y-104063257D01*
X148409110Y-104090785D01*
X148485979Y-104114496D01*
X148531658Y-104136493D01*
X148576030Y-104153044D01*
X148650770Y-104193855D01*
X148728500Y-104231288D01*
X148765412Y-104256454D01*
X148801522Y-104276172D01*
X148874907Y-104331107D01*
X148950905Y-104382922D01*
X148979220Y-104409194D01*
X149007192Y-104430134D01*
X149076708Y-104499650D01*
X149148226Y-104566009D01*
X149168540Y-104591482D01*
X149188865Y-104611807D01*
X149251896Y-104696007D01*
X149316056Y-104776461D01*
X149329317Y-104799429D01*
X149342827Y-104817477D01*
X149396719Y-104916173D01*
X149450645Y-105009575D01*
X149458119Y-105028618D01*
X149465955Y-105042969D01*
X149508138Y-105156066D01*
X149548987Y-105260146D01*
X149552184Y-105274157D01*
X149555742Y-105283694D01*
X149583789Y-105412626D01*
X149608884Y-105522575D01*
X149609502Y-105530830D01*
X149610351Y-105534730D01*
X149621985Y-105697395D01*
X149629000Y-105791000D01*
X149621984Y-105884612D01*
X149610351Y-106047269D01*
X149609502Y-106051168D01*
X149608884Y-106059425D01*
X149583784Y-106169393D01*
X149555742Y-106298305D01*
X149552185Y-106307840D01*
X149548987Y-106321854D01*
X149508131Y-106425952D01*
X149465955Y-106539030D01*
X149458120Y-106553377D01*
X149450645Y-106572425D01*
X149396709Y-106665843D01*
X149342827Y-106764522D01*
X149329319Y-106782565D01*
X149316056Y-106805539D01*
X149251884Y-106886007D01*
X149188865Y-106970192D01*
X149168544Y-106990512D01*
X149148226Y-107015991D01*
X149076694Y-107082362D01*
X149007192Y-107151865D01*
X148979225Y-107172800D01*
X148950905Y-107199078D01*
X148874892Y-107250902D01*
X148801522Y-107305827D01*
X148765420Y-107325540D01*
X148728500Y-107350712D01*
X148650755Y-107388151D01*
X148576030Y-107428955D01*
X148531667Y-107445501D01*
X148485979Y-107467504D01*
X148409094Y-107491219D01*
X148335305Y-107518742D01*
X148282935Y-107530134D01*
X148228760Y-107546845D01*
X148155029Y-107557958D01*
X148084269Y-107573351D01*
X148024582Y-107577619D01*
X147962589Y-107586964D01*
X147893937Y-107586964D01*
X147828000Y-107591680D01*
X147762062Y-107586964D01*
X147693411Y-107586964D01*
X147631418Y-107577620D01*
X147571730Y-107573351D01*
X147500967Y-107557957D01*
X147427240Y-107546845D01*
X147373066Y-107530134D01*
X147320694Y-107518742D01*
X147246899Y-107491217D01*
X147170021Y-107467504D01*
X147124336Y-107445503D01*
X147079969Y-107428955D01*
X147005236Y-107388147D01*
X146927500Y-107350712D01*
X146890583Y-107325542D01*
X146854477Y-107305827D01*
X146781095Y-107250894D01*
X146705095Y-107199078D01*
X146676778Y-107172803D01*
X146648807Y-107151865D01*
X146579291Y-107082349D01*
X146507774Y-107015991D01*
X146487459Y-106990517D01*
X146467134Y-106970192D01*
X146404099Y-106885986D01*
X146339944Y-106805539D01*
X146326683Y-106782571D01*
X146313172Y-106764522D01*
X146259272Y-106665812D01*
X146205355Y-106572425D01*
X146197882Y-106553384D01*
X146190044Y-106539030D01*
X146147848Y-106425901D01*
X146107013Y-106321854D01*
X146103816Y-106307847D01*
X146100257Y-106298305D01*
X146072193Y-106169300D01*
X146047116Y-106059425D01*
X146046497Y-106051175D01*
X146045648Y-106047269D01*
X146033993Y-105884319D01*
X146027000Y-105791000D01*
X146033992Y-105697687D01*
X146045648Y-105534730D01*
X146046497Y-105530823D01*
X146047116Y-105522575D01*
X146072189Y-105412720D01*
X146100257Y-105283694D01*
X146103816Y-105274150D01*
X146107013Y-105260146D01*
X146147840Y-105156118D01*
X146190044Y-105042969D01*
X146197883Y-105028612D01*
X146205355Y-105009575D01*
X146259262Y-104916205D01*
X146313172Y-104817477D01*
X146326686Y-104799424D01*
X146339944Y-104776461D01*
X146404086Y-104696028D01*
X146467134Y-104611807D01*
X146487463Y-104591477D01*
X146507774Y-104566009D01*
X146579277Y-104499663D01*
X146648807Y-104430134D01*
X146676783Y-104409190D01*
X146705095Y-104382922D01*
X146781080Y-104331115D01*
X146854477Y-104276172D01*
X146890591Y-104256452D01*
X146927500Y-104231288D01*
X147005220Y-104193859D01*
X147079969Y-104153044D01*
X147124345Y-104136492D01*
X147170021Y-104114496D01*
X147246884Y-104090787D01*
X147320694Y-104063257D01*
X147373077Y-104051861D01*
X147427240Y-104035155D01*
X147500952Y-104024044D01*
X147571730Y-104008648D01*
X147631430Y-104004378D01*
X147693411Y-103995036D01*
X147762048Y-103995036D01*
X147828000Y-103990319D01*
X147893951Y-103995036D01*
G37*
G36*
X152973951Y-103995036D02*
G01*
X153042589Y-103995036D01*
X153104570Y-104004378D01*
X153164269Y-104008648D01*
X153235044Y-104024044D01*
X153308760Y-104035155D01*
X153362924Y-104051862D01*
X153415305Y-104063257D01*
X153489110Y-104090785D01*
X153565979Y-104114496D01*
X153611658Y-104136493D01*
X153656030Y-104153044D01*
X153730770Y-104193855D01*
X153808500Y-104231288D01*
X153845412Y-104256454D01*
X153881522Y-104276172D01*
X153954907Y-104331107D01*
X154030905Y-104382922D01*
X154059220Y-104409194D01*
X154087192Y-104430134D01*
X154156708Y-104499650D01*
X154228226Y-104566009D01*
X154248540Y-104591482D01*
X154268865Y-104611807D01*
X154331896Y-104696007D01*
X154396056Y-104776461D01*
X154409317Y-104799429D01*
X154422827Y-104817477D01*
X154476719Y-104916173D01*
X154530645Y-105009575D01*
X154538119Y-105028618D01*
X154545955Y-105042969D01*
X154588138Y-105156066D01*
X154628987Y-105260146D01*
X154632184Y-105274157D01*
X154635742Y-105283694D01*
X154663789Y-105412626D01*
X154688884Y-105522575D01*
X154689502Y-105530830D01*
X154690351Y-105534730D01*
X154701985Y-105697395D01*
X154709000Y-105791000D01*
X154701984Y-105884612D01*
X154690351Y-106047269D01*
X154689502Y-106051168D01*
X154688884Y-106059425D01*
X154663784Y-106169393D01*
X154635742Y-106298305D01*
X154632185Y-106307840D01*
X154628987Y-106321854D01*
X154588131Y-106425952D01*
X154545955Y-106539030D01*
X154538120Y-106553377D01*
X154530645Y-106572425D01*
X154476709Y-106665843D01*
X154422827Y-106764522D01*
X154409319Y-106782565D01*
X154396056Y-106805539D01*
X154331884Y-106886007D01*
X154268865Y-106970192D01*
X154248544Y-106990512D01*
X154228226Y-107015991D01*
X154156694Y-107082362D01*
X154087192Y-107151865D01*
X154059225Y-107172800D01*
X154030905Y-107199078D01*
X153954892Y-107250902D01*
X153881522Y-107305827D01*
X153845420Y-107325540D01*
X153808500Y-107350712D01*
X153730755Y-107388151D01*
X153656030Y-107428955D01*
X153611667Y-107445501D01*
X153565979Y-107467504D01*
X153489094Y-107491219D01*
X153415305Y-107518742D01*
X153362935Y-107530134D01*
X153308760Y-107546845D01*
X153235029Y-107557958D01*
X153164269Y-107573351D01*
X153104582Y-107577619D01*
X153042589Y-107586964D01*
X152973937Y-107586964D01*
X152908000Y-107591680D01*
X152842062Y-107586964D01*
X152773411Y-107586964D01*
X152711418Y-107577620D01*
X152651730Y-107573351D01*
X152580967Y-107557957D01*
X152507240Y-107546845D01*
X152453066Y-107530134D01*
X152400694Y-107518742D01*
X152326899Y-107491217D01*
X152250021Y-107467504D01*
X152204336Y-107445503D01*
X152159969Y-107428955D01*
X152085236Y-107388147D01*
X152007500Y-107350712D01*
X151970583Y-107325542D01*
X151934477Y-107305827D01*
X151861095Y-107250894D01*
X151785095Y-107199078D01*
X151756778Y-107172803D01*
X151728807Y-107151865D01*
X151659291Y-107082349D01*
X151587774Y-107015991D01*
X151567459Y-106990517D01*
X151547134Y-106970192D01*
X151484099Y-106885986D01*
X151419944Y-106805539D01*
X151406683Y-106782571D01*
X151393172Y-106764522D01*
X151339272Y-106665812D01*
X151285355Y-106572425D01*
X151277882Y-106553384D01*
X151270044Y-106539030D01*
X151227848Y-106425901D01*
X151187013Y-106321854D01*
X151183816Y-106307847D01*
X151180257Y-106298305D01*
X151152193Y-106169300D01*
X151127116Y-106059425D01*
X151126497Y-106051175D01*
X151125648Y-106047269D01*
X151113993Y-105884319D01*
X151107000Y-105791000D01*
X151113992Y-105697687D01*
X151125648Y-105534730D01*
X151126497Y-105530823D01*
X151127116Y-105522575D01*
X151152189Y-105412720D01*
X151180257Y-105283694D01*
X151183816Y-105274150D01*
X151187013Y-105260146D01*
X151227840Y-105156118D01*
X151270044Y-105042969D01*
X151277883Y-105028612D01*
X151285355Y-105009575D01*
X151339262Y-104916205D01*
X151393172Y-104817477D01*
X151406686Y-104799424D01*
X151419944Y-104776461D01*
X151484086Y-104696028D01*
X151547134Y-104611807D01*
X151567463Y-104591477D01*
X151587774Y-104566009D01*
X151659277Y-104499663D01*
X151728807Y-104430134D01*
X151756783Y-104409190D01*
X151785095Y-104382922D01*
X151861080Y-104331115D01*
X151934477Y-104276172D01*
X151970591Y-104256452D01*
X152007500Y-104231288D01*
X152085220Y-104193859D01*
X152159969Y-104153044D01*
X152204345Y-104136492D01*
X152250021Y-104114496D01*
X152326884Y-104090787D01*
X152400694Y-104063257D01*
X152453077Y-104051861D01*
X152507240Y-104035155D01*
X152580952Y-104024044D01*
X152651730Y-104008648D01*
X152711430Y-104004378D01*
X152773411Y-103995036D01*
X152842048Y-103995036D01*
X152908000Y-103990319D01*
X152973951Y-103995036D01*
G37*
G36*
X162879951Y-103995036D02*
G01*
X162948589Y-103995036D01*
X163010570Y-104004378D01*
X163070269Y-104008648D01*
X163141044Y-104024044D01*
X163214760Y-104035155D01*
X163268924Y-104051862D01*
X163321305Y-104063257D01*
X163395110Y-104090785D01*
X163471979Y-104114496D01*
X163517658Y-104136493D01*
X163562030Y-104153044D01*
X163636770Y-104193855D01*
X163714500Y-104231288D01*
X163751412Y-104256454D01*
X163787522Y-104276172D01*
X163860907Y-104331107D01*
X163936905Y-104382922D01*
X163965220Y-104409194D01*
X163993192Y-104430134D01*
X164062708Y-104499650D01*
X164134226Y-104566009D01*
X164154540Y-104591482D01*
X164174865Y-104611807D01*
X164237896Y-104696007D01*
X164302056Y-104776461D01*
X164315317Y-104799429D01*
X164328827Y-104817477D01*
X164382719Y-104916173D01*
X164436645Y-105009575D01*
X164444119Y-105028618D01*
X164451955Y-105042969D01*
X164494138Y-105156066D01*
X164534987Y-105260146D01*
X164538184Y-105274157D01*
X164541742Y-105283694D01*
X164569789Y-105412626D01*
X164594884Y-105522575D01*
X164595502Y-105530830D01*
X164596351Y-105534730D01*
X164607985Y-105697395D01*
X164615000Y-105791000D01*
X164607984Y-105884612D01*
X164596351Y-106047269D01*
X164595502Y-106051168D01*
X164594884Y-106059425D01*
X164569784Y-106169393D01*
X164541742Y-106298305D01*
X164538185Y-106307840D01*
X164534987Y-106321854D01*
X164494131Y-106425952D01*
X164451955Y-106539030D01*
X164444120Y-106553377D01*
X164436645Y-106572425D01*
X164382709Y-106665843D01*
X164328827Y-106764522D01*
X164315319Y-106782565D01*
X164302056Y-106805539D01*
X164237884Y-106886007D01*
X164174865Y-106970192D01*
X164154544Y-106990512D01*
X164134226Y-107015991D01*
X164062694Y-107082362D01*
X163993192Y-107151865D01*
X163965225Y-107172800D01*
X163936905Y-107199078D01*
X163860892Y-107250902D01*
X163787522Y-107305827D01*
X163751420Y-107325540D01*
X163714500Y-107350712D01*
X163636755Y-107388151D01*
X163562030Y-107428955D01*
X163517667Y-107445501D01*
X163471979Y-107467504D01*
X163395094Y-107491219D01*
X163321305Y-107518742D01*
X163268935Y-107530134D01*
X163214760Y-107546845D01*
X163141029Y-107557958D01*
X163070269Y-107573351D01*
X163010582Y-107577619D01*
X162948589Y-107586964D01*
X162879937Y-107586964D01*
X162814000Y-107591680D01*
X162748062Y-107586964D01*
X162679411Y-107586964D01*
X162617418Y-107577620D01*
X162557730Y-107573351D01*
X162486967Y-107557957D01*
X162413240Y-107546845D01*
X162359066Y-107530134D01*
X162306694Y-107518742D01*
X162232899Y-107491217D01*
X162156021Y-107467504D01*
X162110336Y-107445503D01*
X162065969Y-107428955D01*
X161991236Y-107388147D01*
X161913500Y-107350712D01*
X161876583Y-107325542D01*
X161840477Y-107305827D01*
X161767095Y-107250894D01*
X161691095Y-107199078D01*
X161662778Y-107172803D01*
X161634807Y-107151865D01*
X161565291Y-107082349D01*
X161493774Y-107015991D01*
X161473459Y-106990517D01*
X161453134Y-106970192D01*
X161390099Y-106885986D01*
X161325944Y-106805539D01*
X161312683Y-106782571D01*
X161299172Y-106764522D01*
X161245272Y-106665812D01*
X161191355Y-106572425D01*
X161183882Y-106553384D01*
X161176044Y-106539030D01*
X161133848Y-106425901D01*
X161093013Y-106321854D01*
X161089816Y-106307847D01*
X161086257Y-106298305D01*
X161058193Y-106169300D01*
X161033116Y-106059425D01*
X161032497Y-106051175D01*
X161031648Y-106047269D01*
X161019993Y-105884319D01*
X161013000Y-105791000D01*
X161019992Y-105697687D01*
X161031648Y-105534730D01*
X161032497Y-105530823D01*
X161033116Y-105522575D01*
X161058189Y-105412720D01*
X161086257Y-105283694D01*
X161089816Y-105274150D01*
X161093013Y-105260146D01*
X161133840Y-105156118D01*
X161176044Y-105042969D01*
X161183883Y-105028612D01*
X161191355Y-105009575D01*
X161245262Y-104916205D01*
X161299172Y-104817477D01*
X161312686Y-104799424D01*
X161325944Y-104776461D01*
X161390086Y-104696028D01*
X161453134Y-104611807D01*
X161473463Y-104591477D01*
X161493774Y-104566009D01*
X161565277Y-104499663D01*
X161634807Y-104430134D01*
X161662783Y-104409190D01*
X161691095Y-104382922D01*
X161767080Y-104331115D01*
X161840477Y-104276172D01*
X161876591Y-104256452D01*
X161913500Y-104231288D01*
X161991220Y-104193859D01*
X162065969Y-104153044D01*
X162110345Y-104136492D01*
X162156021Y-104114496D01*
X162232884Y-104090787D01*
X162306694Y-104063257D01*
X162359077Y-104051861D01*
X162413240Y-104035155D01*
X162486952Y-104024044D01*
X162557730Y-104008648D01*
X162617430Y-104004378D01*
X162679411Y-103995036D01*
X162748048Y-103995036D01*
X162814000Y-103990319D01*
X162879951Y-103995036D01*
G37*
G36*
X167959951Y-103995036D02*
G01*
X168028589Y-103995036D01*
X168090570Y-104004378D01*
X168150269Y-104008648D01*
X168221044Y-104024044D01*
X168294760Y-104035155D01*
X168348924Y-104051862D01*
X168401305Y-104063257D01*
X168475110Y-104090785D01*
X168551979Y-104114496D01*
X168597658Y-104136493D01*
X168642030Y-104153044D01*
X168716770Y-104193855D01*
X168794500Y-104231288D01*
X168831412Y-104256454D01*
X168867522Y-104276172D01*
X168940907Y-104331107D01*
X169016905Y-104382922D01*
X169045220Y-104409194D01*
X169073192Y-104430134D01*
X169142708Y-104499650D01*
X169214226Y-104566009D01*
X169234540Y-104591482D01*
X169254865Y-104611807D01*
X169317896Y-104696007D01*
X169382056Y-104776461D01*
X169395317Y-104799429D01*
X169408827Y-104817477D01*
X169462719Y-104916173D01*
X169516645Y-105009575D01*
X169524119Y-105028618D01*
X169531955Y-105042969D01*
X169574138Y-105156066D01*
X169614987Y-105260146D01*
X169618184Y-105274157D01*
X169621742Y-105283694D01*
X169649789Y-105412626D01*
X169674884Y-105522575D01*
X169675502Y-105530830D01*
X169676351Y-105534730D01*
X169687985Y-105697395D01*
X169695000Y-105791000D01*
X169687984Y-105884612D01*
X169676351Y-106047269D01*
X169675502Y-106051168D01*
X169674884Y-106059425D01*
X169649784Y-106169393D01*
X169621742Y-106298305D01*
X169618185Y-106307840D01*
X169614987Y-106321854D01*
X169574131Y-106425952D01*
X169531955Y-106539030D01*
X169524120Y-106553377D01*
X169516645Y-106572425D01*
X169462709Y-106665843D01*
X169408827Y-106764522D01*
X169395319Y-106782565D01*
X169382056Y-106805539D01*
X169317884Y-106886007D01*
X169254865Y-106970192D01*
X169234544Y-106990512D01*
X169214226Y-107015991D01*
X169142694Y-107082362D01*
X169073192Y-107151865D01*
X169045225Y-107172800D01*
X169016905Y-107199078D01*
X168940892Y-107250902D01*
X168867522Y-107305827D01*
X168831420Y-107325540D01*
X168794500Y-107350712D01*
X168716755Y-107388151D01*
X168642030Y-107428955D01*
X168597667Y-107445501D01*
X168551979Y-107467504D01*
X168475094Y-107491219D01*
X168401305Y-107518742D01*
X168348935Y-107530134D01*
X168294760Y-107546845D01*
X168221029Y-107557958D01*
X168150269Y-107573351D01*
X168090582Y-107577619D01*
X168028589Y-107586964D01*
X167959937Y-107586964D01*
X167894000Y-107591680D01*
X167828062Y-107586964D01*
X167759411Y-107586964D01*
X167697418Y-107577620D01*
X167637730Y-107573351D01*
X167566967Y-107557957D01*
X167493240Y-107546845D01*
X167439066Y-107530134D01*
X167386694Y-107518742D01*
X167312899Y-107491217D01*
X167236021Y-107467504D01*
X167190336Y-107445503D01*
X167145969Y-107428955D01*
X167071236Y-107388147D01*
X166993500Y-107350712D01*
X166956583Y-107325542D01*
X166920477Y-107305827D01*
X166847095Y-107250894D01*
X166771095Y-107199078D01*
X166742778Y-107172803D01*
X166714807Y-107151865D01*
X166645291Y-107082349D01*
X166573774Y-107015991D01*
X166553459Y-106990517D01*
X166533134Y-106970192D01*
X166470099Y-106885986D01*
X166405944Y-106805539D01*
X166392683Y-106782571D01*
X166379172Y-106764522D01*
X166325272Y-106665812D01*
X166271355Y-106572425D01*
X166263882Y-106553384D01*
X166256044Y-106539030D01*
X166213848Y-106425901D01*
X166173013Y-106321854D01*
X166169816Y-106307847D01*
X166166257Y-106298305D01*
X166138193Y-106169300D01*
X166113116Y-106059425D01*
X166112497Y-106051175D01*
X166111648Y-106047269D01*
X166099993Y-105884319D01*
X166093000Y-105791000D01*
X166099992Y-105697687D01*
X166111648Y-105534730D01*
X166112497Y-105530823D01*
X166113116Y-105522575D01*
X166138189Y-105412720D01*
X166166257Y-105283694D01*
X166169816Y-105274150D01*
X166173013Y-105260146D01*
X166213840Y-105156118D01*
X166256044Y-105042969D01*
X166263883Y-105028612D01*
X166271355Y-105009575D01*
X166325262Y-104916205D01*
X166379172Y-104817477D01*
X166392686Y-104799424D01*
X166405944Y-104776461D01*
X166470086Y-104696028D01*
X166533134Y-104611807D01*
X166553463Y-104591477D01*
X166573774Y-104566009D01*
X166645277Y-104499663D01*
X166714807Y-104430134D01*
X166742783Y-104409190D01*
X166771095Y-104382922D01*
X166847080Y-104331115D01*
X166920477Y-104276172D01*
X166956591Y-104256452D01*
X166993500Y-104231288D01*
X167071220Y-104193859D01*
X167145969Y-104153044D01*
X167190345Y-104136492D01*
X167236021Y-104114496D01*
X167312884Y-104090787D01*
X167386694Y-104063257D01*
X167439077Y-104051861D01*
X167493240Y-104035155D01*
X167566952Y-104024044D01*
X167637730Y-104008648D01*
X167697430Y-104004378D01*
X167759411Y-103995036D01*
X167828048Y-103995036D01*
X167894000Y-103990319D01*
X167959951Y-103995036D01*
G37*
G36*
X134431951Y-99296036D02*
G01*
X134500589Y-99296036D01*
X134562570Y-99305378D01*
X134622269Y-99309648D01*
X134693044Y-99325044D01*
X134766760Y-99336155D01*
X134820924Y-99352862D01*
X134873305Y-99364257D01*
X134947110Y-99391785D01*
X135023979Y-99415496D01*
X135069658Y-99437493D01*
X135114030Y-99454044D01*
X135188770Y-99494855D01*
X135266500Y-99532288D01*
X135303412Y-99557454D01*
X135339522Y-99577172D01*
X135412907Y-99632107D01*
X135488905Y-99683922D01*
X135517220Y-99710194D01*
X135545192Y-99731134D01*
X135614708Y-99800650D01*
X135686226Y-99867009D01*
X135706540Y-99892482D01*
X135726865Y-99912807D01*
X135789896Y-99997007D01*
X135854056Y-100077461D01*
X135867317Y-100100429D01*
X135880827Y-100118477D01*
X135934719Y-100217173D01*
X135988645Y-100310575D01*
X135996119Y-100329618D01*
X136003955Y-100343969D01*
X136046138Y-100457066D01*
X136086987Y-100561146D01*
X136090184Y-100575157D01*
X136093742Y-100584694D01*
X136121789Y-100713626D01*
X136146884Y-100823575D01*
X136147502Y-100831830D01*
X136148351Y-100835730D01*
X136159985Y-100998395D01*
X136167000Y-101092000D01*
X136159984Y-101185612D01*
X136148351Y-101348269D01*
X136147502Y-101352168D01*
X136146884Y-101360425D01*
X136121784Y-101470393D01*
X136093742Y-101599305D01*
X136090185Y-101608840D01*
X136086987Y-101622854D01*
X136046131Y-101726952D01*
X136003955Y-101840030D01*
X135996120Y-101854377D01*
X135988645Y-101873425D01*
X135934709Y-101966843D01*
X135880827Y-102065522D01*
X135867319Y-102083565D01*
X135854056Y-102106539D01*
X135789884Y-102187007D01*
X135726865Y-102271192D01*
X135706544Y-102291512D01*
X135686226Y-102316991D01*
X135614694Y-102383362D01*
X135545192Y-102452865D01*
X135517225Y-102473800D01*
X135488905Y-102500078D01*
X135412892Y-102551902D01*
X135339522Y-102606827D01*
X135303420Y-102626540D01*
X135266500Y-102651712D01*
X135188755Y-102689151D01*
X135114030Y-102729955D01*
X135069667Y-102746501D01*
X135023979Y-102768504D01*
X134947094Y-102792219D01*
X134873305Y-102819742D01*
X134820935Y-102831134D01*
X134766760Y-102847845D01*
X134693029Y-102858958D01*
X134622269Y-102874351D01*
X134562582Y-102878619D01*
X134500589Y-102887964D01*
X134431937Y-102887964D01*
X134366000Y-102892680D01*
X134300062Y-102887964D01*
X134231411Y-102887964D01*
X134169418Y-102878620D01*
X134109730Y-102874351D01*
X134038967Y-102858957D01*
X133965240Y-102847845D01*
X133911066Y-102831134D01*
X133858694Y-102819742D01*
X133784899Y-102792217D01*
X133708021Y-102768504D01*
X133662336Y-102746503D01*
X133617969Y-102729955D01*
X133543236Y-102689147D01*
X133465500Y-102651712D01*
X133428583Y-102626542D01*
X133392477Y-102606827D01*
X133319095Y-102551894D01*
X133243095Y-102500078D01*
X133214778Y-102473803D01*
X133186807Y-102452865D01*
X133117291Y-102383349D01*
X133045774Y-102316991D01*
X133025459Y-102291517D01*
X133005134Y-102271192D01*
X132942099Y-102186986D01*
X132877944Y-102106539D01*
X132864683Y-102083571D01*
X132851172Y-102065522D01*
X132797272Y-101966812D01*
X132743355Y-101873425D01*
X132735882Y-101854384D01*
X132728044Y-101840030D01*
X132685848Y-101726901D01*
X132645013Y-101622854D01*
X132641816Y-101608847D01*
X132638257Y-101599305D01*
X132610193Y-101470300D01*
X132585116Y-101360425D01*
X132584497Y-101352175D01*
X132583648Y-101348269D01*
X132571993Y-101185319D01*
X132565000Y-101092000D01*
X132571992Y-100998687D01*
X132583648Y-100835730D01*
X132584497Y-100831823D01*
X132585116Y-100823575D01*
X132610189Y-100713720D01*
X132638257Y-100584694D01*
X132641816Y-100575150D01*
X132645013Y-100561146D01*
X132685840Y-100457118D01*
X132728044Y-100343969D01*
X132735883Y-100329612D01*
X132743355Y-100310575D01*
X132797262Y-100217205D01*
X132851172Y-100118477D01*
X132864686Y-100100424D01*
X132877944Y-100077461D01*
X132942086Y-99997028D01*
X133005134Y-99912807D01*
X133025463Y-99892477D01*
X133045774Y-99867009D01*
X133117277Y-99800663D01*
X133186807Y-99731134D01*
X133214783Y-99710190D01*
X133243095Y-99683922D01*
X133319080Y-99632115D01*
X133392477Y-99577172D01*
X133428591Y-99557452D01*
X133465500Y-99532288D01*
X133543220Y-99494859D01*
X133617969Y-99454044D01*
X133662345Y-99437492D01*
X133708021Y-99415496D01*
X133784884Y-99391787D01*
X133858694Y-99364257D01*
X133911077Y-99352861D01*
X133965240Y-99336155D01*
X134038952Y-99325044D01*
X134109730Y-99309648D01*
X134169430Y-99305378D01*
X134231411Y-99296036D01*
X134300048Y-99296036D01*
X134366000Y-99291319D01*
X134431951Y-99296036D01*
G37*
G36*
X155347676Y-100264591D02*
G01*
X155385184Y-100264591D01*
X155415671Y-100273542D01*
X155437450Y-100276410D01*
X155466703Y-100288527D01*
X155508352Y-100300756D01*
X155530334Y-100314883D01*
X155545961Y-100321356D01*
X155574595Y-100343327D01*
X155616342Y-100370157D01*
X155629799Y-100385688D01*
X155639141Y-100392856D01*
X155663357Y-100424416D01*
X155700405Y-100467171D01*
X155706639Y-100480822D01*
X155710643Y-100486040D01*
X155726451Y-100524205D01*
X155753731Y-100583939D01*
X155755079Y-100593319D01*
X155755589Y-100594549D01*
X155759197Y-100621960D01*
X155772000Y-100711000D01*
X155759196Y-100800048D01*
X155755589Y-100827450D01*
X155755079Y-100828678D01*
X155753731Y-100838061D01*
X155726452Y-100897791D01*
X155710643Y-100935961D01*
X155706638Y-100941180D01*
X155700405Y-100954829D01*
X155663356Y-100997584D01*
X155639142Y-101029142D01*
X155629803Y-101036308D01*
X155616342Y-101051843D01*
X155574586Y-101078677D01*
X155545961Y-101100643D01*
X155530339Y-101107113D01*
X155508352Y-101121244D01*
X155466695Y-101133475D01*
X155437450Y-101145589D01*
X155415677Y-101148455D01*
X155385184Y-101157409D01*
X155347669Y-101157409D01*
X155321000Y-101160920D01*
X155294331Y-101157409D01*
X155256816Y-101157409D01*
X155226323Y-101148455D01*
X155204549Y-101145589D01*
X155175301Y-101133474D01*
X155133648Y-101121244D01*
X155111662Y-101107114D01*
X155096038Y-101100643D01*
X155067407Y-101078673D01*
X155025658Y-101051843D01*
X155012198Y-101036310D01*
X155002857Y-101029142D01*
X154978634Y-100997574D01*
X154941595Y-100954829D01*
X154935363Y-100941183D01*
X154931356Y-100935961D01*
X154915536Y-100897768D01*
X154888269Y-100838061D01*
X154886920Y-100828682D01*
X154886410Y-100827450D01*
X154882791Y-100799965D01*
X154870000Y-100711000D01*
X154882790Y-100622042D01*
X154886410Y-100594549D01*
X154886920Y-100593315D01*
X154888269Y-100583939D01*
X154915537Y-100524228D01*
X154931356Y-100486040D01*
X154935362Y-100480818D01*
X154941595Y-100467171D01*
X154978632Y-100424427D01*
X155002857Y-100392857D01*
X155012201Y-100385687D01*
X155025658Y-100370157D01*
X155067407Y-100343326D01*
X155096040Y-100321356D01*
X155111663Y-100314884D01*
X155133648Y-100300756D01*
X155175294Y-100288527D01*
X155204549Y-100276410D01*
X155226329Y-100273542D01*
X155256816Y-100264591D01*
X155294324Y-100264591D01*
X155321000Y-100261079D01*
X155347676Y-100264591D01*
G37*
G36*
X142647676Y-99629591D02*
G01*
X142685184Y-99629591D01*
X142715671Y-99638542D01*
X142737450Y-99641410D01*
X142766703Y-99653527D01*
X142808352Y-99665756D01*
X142830334Y-99679883D01*
X142845961Y-99686356D01*
X142874595Y-99708327D01*
X142916342Y-99735157D01*
X142929799Y-99750688D01*
X142939141Y-99757856D01*
X142963357Y-99789416D01*
X143000405Y-99832171D01*
X143006639Y-99845822D01*
X143010643Y-99851040D01*
X143026451Y-99889205D01*
X143053731Y-99948939D01*
X143055079Y-99958319D01*
X143055589Y-99959549D01*
X143059197Y-99986960D01*
X143072000Y-100076000D01*
X143059196Y-100165048D01*
X143055589Y-100192450D01*
X143055079Y-100193678D01*
X143053731Y-100203061D01*
X143026452Y-100262791D01*
X143010643Y-100300961D01*
X143006638Y-100306180D01*
X143000405Y-100319829D01*
X142963356Y-100362584D01*
X142939142Y-100394142D01*
X142929803Y-100401308D01*
X142916342Y-100416843D01*
X142874586Y-100443677D01*
X142845961Y-100465643D01*
X142830339Y-100472113D01*
X142808352Y-100486244D01*
X142766695Y-100498475D01*
X142737450Y-100510589D01*
X142715677Y-100513455D01*
X142685184Y-100522409D01*
X142647669Y-100522409D01*
X142621000Y-100525920D01*
X142594331Y-100522409D01*
X142556816Y-100522409D01*
X142526323Y-100513455D01*
X142504549Y-100510589D01*
X142475301Y-100498474D01*
X142433648Y-100486244D01*
X142411662Y-100472114D01*
X142396038Y-100465643D01*
X142367407Y-100443673D01*
X142325658Y-100416843D01*
X142312198Y-100401310D01*
X142302857Y-100394142D01*
X142278634Y-100362574D01*
X142241595Y-100319829D01*
X142235363Y-100306183D01*
X142231356Y-100300961D01*
X142215536Y-100262768D01*
X142188269Y-100203061D01*
X142186920Y-100193682D01*
X142186410Y-100192450D01*
X142182791Y-100164965D01*
X142170000Y-100076000D01*
X142182790Y-99987042D01*
X142186410Y-99959549D01*
X142186920Y-99958315D01*
X142188269Y-99948939D01*
X142215537Y-99889228D01*
X142231356Y-99851040D01*
X142235362Y-99845818D01*
X142241595Y-99832171D01*
X142278632Y-99789427D01*
X142302857Y-99757857D01*
X142312201Y-99750687D01*
X142325658Y-99735157D01*
X142367407Y-99708326D01*
X142396040Y-99686356D01*
X142411663Y-99679884D01*
X142433648Y-99665756D01*
X142475294Y-99653527D01*
X142504549Y-99641410D01*
X142526329Y-99638542D01*
X142556816Y-99629591D01*
X142594324Y-99629591D01*
X142621000Y-99626079D01*
X142647676Y-99629591D01*
G37*
G36*
X151890517Y-97038882D02*
G01*
X151907062Y-97049938D01*
X151918118Y-97066483D01*
X151922000Y-97086000D01*
X151922000Y-97986000D01*
X151918118Y-98005517D01*
X151907062Y-98022062D01*
X151890517Y-98033118D01*
X151871000Y-98037000D01*
X150971000Y-98037000D01*
X150951483Y-98033118D01*
X150934938Y-98022062D01*
X150923882Y-98005517D01*
X150920000Y-97986000D01*
X150920000Y-97086000D01*
X150923882Y-97066483D01*
X150934938Y-97049938D01*
X150951483Y-97038882D01*
X150971000Y-97035000D01*
X151871000Y-97035000D01*
X151890517Y-97038882D01*
G37*
G36*
X153340517Y-97038882D02*
G01*
X153357062Y-97049938D01*
X153368118Y-97066483D01*
X153372000Y-97086000D01*
X153372000Y-97986000D01*
X153368118Y-98005517D01*
X153357062Y-98022062D01*
X153340517Y-98033118D01*
X153321000Y-98037000D01*
X152421000Y-98037000D01*
X152401483Y-98033118D01*
X152384938Y-98022062D01*
X152373882Y-98005517D01*
X152370000Y-97986000D01*
X152370000Y-97086000D01*
X152373882Y-97066483D01*
X152384938Y-97049938D01*
X152401483Y-97038882D01*
X152421000Y-97035000D01*
X153321000Y-97035000D01*
X153340517Y-97038882D01*
G37*
G36*
X134431951Y-94216036D02*
G01*
X134500589Y-94216036D01*
X134562570Y-94225378D01*
X134622269Y-94229648D01*
X134693044Y-94245044D01*
X134766760Y-94256155D01*
X134820924Y-94272862D01*
X134873305Y-94284257D01*
X134947110Y-94311785D01*
X135023979Y-94335496D01*
X135069658Y-94357493D01*
X135114030Y-94374044D01*
X135188770Y-94414855D01*
X135266500Y-94452288D01*
X135303412Y-94477454D01*
X135339522Y-94497172D01*
X135412907Y-94552107D01*
X135488905Y-94603922D01*
X135517220Y-94630194D01*
X135545192Y-94651134D01*
X135614708Y-94720650D01*
X135686226Y-94787009D01*
X135706540Y-94812482D01*
X135726865Y-94832807D01*
X135789896Y-94917007D01*
X135854056Y-94997461D01*
X135867317Y-95020429D01*
X135880827Y-95038477D01*
X135934719Y-95137173D01*
X135988645Y-95230575D01*
X135996119Y-95249618D01*
X136003955Y-95263969D01*
X136046138Y-95377066D01*
X136086987Y-95481146D01*
X136090184Y-95495157D01*
X136093742Y-95504694D01*
X136121789Y-95633626D01*
X136146884Y-95743575D01*
X136147502Y-95751830D01*
X136148351Y-95755730D01*
X136159971Y-95918200D01*
X136167000Y-96012000D01*
X136159984Y-96105612D01*
X136148351Y-96268269D01*
X136147502Y-96272168D01*
X136146884Y-96280425D01*
X136121784Y-96390393D01*
X136093742Y-96519305D01*
X136090185Y-96528840D01*
X136086987Y-96542854D01*
X136046131Y-96646952D01*
X136003955Y-96760030D01*
X135996120Y-96774377D01*
X135988645Y-96793425D01*
X135934709Y-96886843D01*
X135880827Y-96985522D01*
X135867319Y-97003565D01*
X135854056Y-97026539D01*
X135789884Y-97107007D01*
X135726865Y-97191192D01*
X135706544Y-97211512D01*
X135686226Y-97236991D01*
X135614694Y-97303362D01*
X135545192Y-97372865D01*
X135517225Y-97393800D01*
X135488905Y-97420078D01*
X135412892Y-97471902D01*
X135339522Y-97526827D01*
X135303420Y-97546540D01*
X135266500Y-97571712D01*
X135188755Y-97609151D01*
X135114030Y-97649955D01*
X135069667Y-97666501D01*
X135023979Y-97688504D01*
X134947094Y-97712219D01*
X134873305Y-97739742D01*
X134820935Y-97751134D01*
X134766760Y-97767845D01*
X134693029Y-97778958D01*
X134622269Y-97794351D01*
X134562582Y-97798619D01*
X134500589Y-97807964D01*
X134431937Y-97807964D01*
X134366000Y-97812680D01*
X134300062Y-97807964D01*
X134231411Y-97807964D01*
X134169418Y-97798620D01*
X134109730Y-97794351D01*
X134038967Y-97778957D01*
X133965240Y-97767845D01*
X133911066Y-97751134D01*
X133858694Y-97739742D01*
X133784899Y-97712217D01*
X133708021Y-97688504D01*
X133662336Y-97666503D01*
X133617969Y-97649955D01*
X133543236Y-97609147D01*
X133465500Y-97571712D01*
X133428583Y-97546542D01*
X133392477Y-97526827D01*
X133319095Y-97471894D01*
X133243095Y-97420078D01*
X133214778Y-97393803D01*
X133186807Y-97372865D01*
X133117291Y-97303349D01*
X133045774Y-97236991D01*
X133025459Y-97211517D01*
X133005134Y-97191192D01*
X132942099Y-97106986D01*
X132877944Y-97026539D01*
X132864683Y-97003571D01*
X132851172Y-96985522D01*
X132797272Y-96886812D01*
X132743355Y-96793425D01*
X132735882Y-96774384D01*
X132728044Y-96760030D01*
X132685848Y-96646901D01*
X132645013Y-96542854D01*
X132641816Y-96528847D01*
X132638257Y-96519305D01*
X132610193Y-96390300D01*
X132585116Y-96280425D01*
X132584497Y-96272175D01*
X132583648Y-96268269D01*
X132571993Y-96105319D01*
X132565000Y-96012000D01*
X132571992Y-95918687D01*
X132583648Y-95755730D01*
X132584497Y-95751823D01*
X132585116Y-95743575D01*
X132610189Y-95633720D01*
X132638257Y-95504694D01*
X132641816Y-95495150D01*
X132645013Y-95481146D01*
X132685840Y-95377118D01*
X132728044Y-95263969D01*
X132735883Y-95249612D01*
X132743355Y-95230575D01*
X132797262Y-95137205D01*
X132851172Y-95038477D01*
X132864686Y-95020424D01*
X132877944Y-94997461D01*
X132942086Y-94917028D01*
X133005134Y-94832807D01*
X133025463Y-94812477D01*
X133045774Y-94787009D01*
X133117277Y-94720663D01*
X133186807Y-94651134D01*
X133214783Y-94630190D01*
X133243095Y-94603922D01*
X133319080Y-94552115D01*
X133392477Y-94497172D01*
X133428591Y-94477452D01*
X133465500Y-94452288D01*
X133543220Y-94414859D01*
X133617969Y-94374044D01*
X133662345Y-94357492D01*
X133708021Y-94335496D01*
X133784884Y-94311787D01*
X133858694Y-94284257D01*
X133911077Y-94272861D01*
X133965240Y-94256155D01*
X134038952Y-94245044D01*
X134109730Y-94229648D01*
X134169430Y-94225378D01*
X134231411Y-94216036D01*
X134300048Y-94216036D01*
X134366000Y-94211319D01*
X134431951Y-94216036D01*
G37*
G36*
X157252676Y-96454591D02*
G01*
X157290184Y-96454591D01*
X157320671Y-96463542D01*
X157342450Y-96466410D01*
X157371703Y-96478527D01*
X157413352Y-96490756D01*
X157435334Y-96504883D01*
X157450961Y-96511356D01*
X157479595Y-96533327D01*
X157521342Y-96560157D01*
X157534799Y-96575688D01*
X157544141Y-96582856D01*
X157568357Y-96614416D01*
X157605405Y-96657171D01*
X157611639Y-96670822D01*
X157615643Y-96676040D01*
X157631451Y-96714205D01*
X157658731Y-96773939D01*
X157660079Y-96783319D01*
X157660589Y-96784549D01*
X157664197Y-96811960D01*
X157677000Y-96901000D01*
X157664196Y-96990048D01*
X157660589Y-97017450D01*
X157660079Y-97018678D01*
X157658731Y-97028061D01*
X157631452Y-97087791D01*
X157615643Y-97125961D01*
X157611638Y-97131180D01*
X157605405Y-97144829D01*
X157568356Y-97187584D01*
X157544142Y-97219142D01*
X157534803Y-97226308D01*
X157521342Y-97241843D01*
X157479586Y-97268677D01*
X157450961Y-97290643D01*
X157435339Y-97297113D01*
X157413352Y-97311244D01*
X157371695Y-97323475D01*
X157342450Y-97335589D01*
X157320677Y-97338455D01*
X157290184Y-97347409D01*
X157252669Y-97347409D01*
X157226000Y-97350920D01*
X157199331Y-97347409D01*
X157161816Y-97347409D01*
X157131323Y-97338455D01*
X157109549Y-97335589D01*
X157080301Y-97323474D01*
X157038648Y-97311244D01*
X157016662Y-97297114D01*
X157001038Y-97290643D01*
X156972407Y-97268673D01*
X156930658Y-97241843D01*
X156917198Y-97226310D01*
X156907857Y-97219142D01*
X156883634Y-97187574D01*
X156846595Y-97144829D01*
X156840363Y-97131183D01*
X156836356Y-97125961D01*
X156820536Y-97087768D01*
X156793269Y-97028061D01*
X156791920Y-97018682D01*
X156791410Y-97017450D01*
X156787791Y-96989965D01*
X156775000Y-96901000D01*
X156787790Y-96812042D01*
X156791410Y-96784549D01*
X156791920Y-96783315D01*
X156793269Y-96773939D01*
X156820537Y-96714228D01*
X156836356Y-96676040D01*
X156840362Y-96670818D01*
X156846595Y-96657171D01*
X156883632Y-96614427D01*
X156907857Y-96582857D01*
X156917201Y-96575687D01*
X156930658Y-96560157D01*
X156972407Y-96533326D01*
X157001040Y-96511356D01*
X157016663Y-96504884D01*
X157038648Y-96490756D01*
X157080294Y-96478527D01*
X157109549Y-96466410D01*
X157131329Y-96463542D01*
X157161816Y-96454591D01*
X157199324Y-96454591D01*
X157226000Y-96451079D01*
X157252676Y-96454591D01*
G37*
G36*
X151930517Y-93671082D02*
G01*
X151947062Y-93682138D01*
X151958118Y-93698683D01*
X151962000Y-93718200D01*
X151962000Y-95918200D01*
X151958118Y-95937717D01*
X151947062Y-95954262D01*
X151930517Y-95965318D01*
X151911000Y-95969200D01*
X151111000Y-95969200D01*
X151091483Y-95965318D01*
X151074938Y-95954262D01*
X151063882Y-95937717D01*
X151060000Y-95918200D01*
X151060000Y-93718200D01*
X151063882Y-93698683D01*
X151074938Y-93682138D01*
X151091483Y-93671082D01*
X151111000Y-93667200D01*
X151911000Y-93667200D01*
X151930517Y-93671082D01*
G37*
G36*
X153200517Y-93671082D02*
G01*
X153217062Y-93682138D01*
X153228118Y-93698683D01*
X153232000Y-93718200D01*
X153232000Y-95918200D01*
X153228118Y-95937717D01*
X153217062Y-95954262D01*
X153200517Y-95965318D01*
X153181000Y-95969200D01*
X152381000Y-95969200D01*
X152361483Y-95965318D01*
X152344938Y-95954262D01*
X152333882Y-95937717D01*
X152330000Y-95918200D01*
X152330000Y-93718200D01*
X152333882Y-93698683D01*
X152344938Y-93682138D01*
X152361483Y-93671082D01*
X152381000Y-93667200D01*
X153181000Y-93667200D01*
X153200517Y-93671082D01*
G37*
G36*
X154470517Y-93671082D02*
G01*
X154487062Y-93682138D01*
X154498118Y-93698683D01*
X154502000Y-93718200D01*
X154502000Y-95918200D01*
X154498118Y-95937717D01*
X154487062Y-95954262D01*
X154470517Y-95965318D01*
X154451000Y-95969200D01*
X153651000Y-95969200D01*
X153631483Y-95965318D01*
X153614938Y-95954262D01*
X153603882Y-95937717D01*
X153600000Y-95918200D01*
X153600000Y-93718200D01*
X153603882Y-93698683D01*
X153614938Y-93682138D01*
X153631483Y-93671082D01*
X153651000Y-93667200D01*
X154451000Y-93667200D01*
X154470517Y-93671082D01*
G37*
G36*
X167129508Y-92449648D02*
G01*
X167372445Y-92524584D01*
X167601500Y-92634891D01*
X167811556Y-92778105D01*
X167997921Y-92951026D01*
X168156432Y-93149793D01*
X168283548Y-93369964D01*
X168376429Y-93606621D01*
X168433001Y-93854479D01*
X168452000Y-94108000D01*
X168433001Y-94361521D01*
X168376429Y-94609379D01*
X168283548Y-94846036D01*
X168156432Y-95066207D01*
X167997921Y-95264974D01*
X167811556Y-95437895D01*
X167601500Y-95581109D01*
X167372445Y-95691416D01*
X167129508Y-95766352D01*
X166878116Y-95804244D01*
X166623884Y-95804244D01*
X166372492Y-95766352D01*
X166129555Y-95691416D01*
X165900500Y-95581109D01*
X165690444Y-95437895D01*
X165504079Y-95264974D01*
X165345568Y-95066207D01*
X165218452Y-94846036D01*
X165125571Y-94609379D01*
X165068999Y-94361521D01*
X165050000Y-94108000D01*
X165068999Y-93854479D01*
X165125571Y-93606621D01*
X165218452Y-93369964D01*
X165345568Y-93149793D01*
X165504079Y-92951026D01*
X165690444Y-92778105D01*
X165900500Y-92634891D01*
X166129555Y-92524584D01*
X166372492Y-92449648D01*
X166623884Y-92411756D01*
X166878116Y-92411756D01*
X167129508Y-92449648D01*
G37*
G36*
X160446023Y-92040073D02*
G01*
X160484657Y-92040073D01*
X160528240Y-92049336D01*
X160579239Y-92055083D01*
X160616321Y-92068058D01*
X160648306Y-92074857D01*
X160694401Y-92095379D01*
X160748541Y-92114324D01*
X160776719Y-92132029D01*
X160801157Y-92142910D01*
X160846720Y-92176014D01*
X160900415Y-92209753D01*
X160919700Y-92229038D01*
X160936512Y-92241253D01*
X160978076Y-92287414D01*
X161027247Y-92336585D01*
X161038555Y-92354582D01*
X161048467Y-92365590D01*
X161082376Y-92424322D01*
X161122676Y-92488459D01*
X161127707Y-92502838D01*
X161132120Y-92510481D01*
X161154718Y-92580030D01*
X161181917Y-92657761D01*
X161182948Y-92666913D01*
X161183823Y-92669606D01*
X161191750Y-92745038D01*
X161202000Y-92836000D01*
X161191750Y-92926969D01*
X161183823Y-93002393D01*
X161182948Y-93005084D01*
X161181917Y-93014239D01*
X161154713Y-93091982D01*
X161132120Y-93161518D01*
X161127708Y-93169159D01*
X161122676Y-93183541D01*
X161082369Y-93247688D01*
X161048467Y-93306409D01*
X161038557Y-93317414D01*
X161027247Y-93335415D01*
X160978067Y-93384594D01*
X160936512Y-93430746D01*
X160919704Y-93442957D01*
X160900415Y-93462247D01*
X160846710Y-93495992D01*
X160801157Y-93529089D01*
X160776725Y-93539966D01*
X160748541Y-93557676D01*
X160694391Y-93576623D01*
X160648306Y-93597142D01*
X160616327Y-93603939D01*
X160579239Y-93616917D01*
X160528237Y-93622663D01*
X160484657Y-93631927D01*
X160446023Y-93631927D01*
X160401000Y-93637000D01*
X160355977Y-93631927D01*
X160317343Y-93631927D01*
X160273761Y-93622663D01*
X160222761Y-93616917D01*
X160185674Y-93603939D01*
X160153693Y-93597142D01*
X160107603Y-93576622D01*
X160053459Y-93557676D01*
X160025277Y-93539968D01*
X160000842Y-93529089D01*
X159955282Y-93495987D01*
X159901585Y-93462247D01*
X159882298Y-93442960D01*
X159865487Y-93430746D01*
X159823922Y-93384584D01*
X159774753Y-93335415D01*
X159763444Y-93317418D01*
X159753532Y-93306409D01*
X159719618Y-93247668D01*
X159679324Y-93183541D01*
X159674293Y-93169163D01*
X159669879Y-93161518D01*
X159647272Y-93091942D01*
X159620083Y-93014239D01*
X159619052Y-93005089D01*
X159618176Y-93002393D01*
X159610235Y-92926837D01*
X159600000Y-92836000D01*
X159610234Y-92745170D01*
X159618176Y-92669606D01*
X159619052Y-92666909D01*
X159620083Y-92657761D01*
X159647267Y-92580070D01*
X159669879Y-92510481D01*
X159674293Y-92502834D01*
X159679324Y-92488459D01*
X159719611Y-92424342D01*
X159753532Y-92365590D01*
X159763446Y-92354578D01*
X159774753Y-92336585D01*
X159823913Y-92287424D01*
X159865487Y-92241253D01*
X159882301Y-92229036D01*
X159901585Y-92209753D01*
X159955278Y-92176015D01*
X160000846Y-92142908D01*
X160025284Y-92132027D01*
X160053459Y-92114324D01*
X160107587Y-92095383D01*
X160153689Y-92074858D01*
X160185679Y-92068058D01*
X160222761Y-92055083D01*
X160273759Y-92049336D01*
X160317343Y-92040073D01*
X160355977Y-92040073D01*
X160401000Y-92035000D01*
X160446023Y-92040073D01*
G37*
G36*
X136135517Y-89134882D02*
G01*
X136152062Y-89145938D01*
X136163118Y-89162483D01*
X136167000Y-89182000D01*
X136167000Y-92682000D01*
X136163118Y-92701517D01*
X136152062Y-92718062D01*
X136135517Y-92729118D01*
X136116000Y-92733000D01*
X132616000Y-92733000D01*
X132596483Y-92729118D01*
X132579938Y-92718062D01*
X132568882Y-92701517D01*
X132565000Y-92682000D01*
X132565000Y-89182000D01*
X132568882Y-89162483D01*
X132579938Y-89145938D01*
X132596483Y-89134882D01*
X132616000Y-89131000D01*
X136116000Y-89131000D01*
X136135517Y-89134882D01*
G37*
G36*
X151930517Y-90216682D02*
G01*
X151947062Y-90227738D01*
X151958118Y-90244283D01*
X151962000Y-90263800D01*
X151962000Y-92463800D01*
X151958118Y-92483317D01*
X151947062Y-92499862D01*
X151930517Y-92510918D01*
X151911000Y-92514800D01*
X151111000Y-92514800D01*
X151091483Y-92510918D01*
X151074938Y-92499862D01*
X151063882Y-92483317D01*
X151060000Y-92463800D01*
X151060000Y-90263800D01*
X151063882Y-90244283D01*
X151074938Y-90227738D01*
X151091483Y-90216682D01*
X151111000Y-90212800D01*
X151911000Y-90212800D01*
X151930517Y-90216682D01*
G37*
G36*
X153200517Y-90216682D02*
G01*
X153217062Y-90227738D01*
X153228118Y-90244283D01*
X153232000Y-90263800D01*
X153232000Y-92463800D01*
X153228118Y-92483317D01*
X153217062Y-92499862D01*
X153200517Y-92510918D01*
X153181000Y-92514800D01*
X152381000Y-92514800D01*
X152361483Y-92510918D01*
X152344938Y-92499862D01*
X152333882Y-92483317D01*
X152330000Y-92463800D01*
X152330000Y-90263800D01*
X152333882Y-90244283D01*
X152344938Y-90227738D01*
X152361483Y-90216682D01*
X152381000Y-90212800D01*
X153181000Y-90212800D01*
X153200517Y-90216682D01*
G37*
G36*
X154470517Y-90216682D02*
G01*
X154487062Y-90227738D01*
X154498118Y-90244283D01*
X154502000Y-90263800D01*
X154502000Y-92463800D01*
X154498118Y-92483317D01*
X154487062Y-92499862D01*
X154470517Y-92510918D01*
X154451000Y-92514800D01*
X153651000Y-92514800D01*
X153631483Y-92510918D01*
X153614938Y-92499862D01*
X153603882Y-92483317D01*
X153600000Y-92463800D01*
X153600000Y-90263800D01*
X153603882Y-90244283D01*
X153614938Y-90227738D01*
X153631483Y-90216682D01*
X153651000Y-90212800D01*
X154451000Y-90212800D01*
X154470517Y-90216682D01*
G37*
G36*
X157906023Y-90770073D02*
G01*
X157944657Y-90770073D01*
X157988240Y-90779336D01*
X158039239Y-90785083D01*
X158076321Y-90798058D01*
X158108306Y-90804857D01*
X158154401Y-90825379D01*
X158208541Y-90844324D01*
X158236719Y-90862029D01*
X158261157Y-90872910D01*
X158306720Y-90906014D01*
X158360415Y-90939753D01*
X158379700Y-90959038D01*
X158396512Y-90971253D01*
X158438076Y-91017414D01*
X158487247Y-91066585D01*
X158498555Y-91084582D01*
X158508467Y-91095590D01*
X158542376Y-91154322D01*
X158582676Y-91218459D01*
X158587707Y-91232838D01*
X158592120Y-91240481D01*
X158614718Y-91310030D01*
X158641917Y-91387761D01*
X158642948Y-91396913D01*
X158643823Y-91399606D01*
X158651750Y-91475038D01*
X158662000Y-91566000D01*
X158651750Y-91656969D01*
X158643823Y-91732393D01*
X158642948Y-91735084D01*
X158641917Y-91744239D01*
X158614713Y-91821982D01*
X158592120Y-91891518D01*
X158587708Y-91899159D01*
X158582676Y-91913541D01*
X158542369Y-91977688D01*
X158508467Y-92036409D01*
X158498557Y-92047414D01*
X158487247Y-92065415D01*
X158438067Y-92114594D01*
X158396512Y-92160746D01*
X158379704Y-92172957D01*
X158360415Y-92192247D01*
X158306710Y-92225992D01*
X158261157Y-92259089D01*
X158236725Y-92269966D01*
X158208541Y-92287676D01*
X158154391Y-92306623D01*
X158108306Y-92327142D01*
X158076327Y-92333939D01*
X158039239Y-92346917D01*
X157988237Y-92352663D01*
X157944657Y-92361927D01*
X157906023Y-92361927D01*
X157861000Y-92367000D01*
X157815977Y-92361927D01*
X157777343Y-92361927D01*
X157733761Y-92352663D01*
X157682761Y-92346917D01*
X157645674Y-92333939D01*
X157613693Y-92327142D01*
X157567603Y-92306622D01*
X157513459Y-92287676D01*
X157485277Y-92269968D01*
X157460842Y-92259089D01*
X157415282Y-92225987D01*
X157361585Y-92192247D01*
X157342298Y-92172960D01*
X157325487Y-92160746D01*
X157283922Y-92114584D01*
X157234753Y-92065415D01*
X157223444Y-92047418D01*
X157213532Y-92036409D01*
X157179618Y-91977668D01*
X157139324Y-91913541D01*
X157134293Y-91899163D01*
X157129879Y-91891518D01*
X157107272Y-91821942D01*
X157080083Y-91744239D01*
X157079052Y-91735089D01*
X157078176Y-91732393D01*
X157070235Y-91656837D01*
X157060000Y-91566000D01*
X157070234Y-91475170D01*
X157078176Y-91399606D01*
X157079052Y-91396909D01*
X157080083Y-91387761D01*
X157107267Y-91310070D01*
X157129879Y-91240481D01*
X157134293Y-91232834D01*
X157139324Y-91218459D01*
X157179611Y-91154342D01*
X157213532Y-91095590D01*
X157223446Y-91084578D01*
X157234753Y-91066585D01*
X157283913Y-91017424D01*
X157325487Y-90971253D01*
X157342301Y-90959036D01*
X157361585Y-90939753D01*
X157415278Y-90906015D01*
X157460846Y-90872908D01*
X157485284Y-90862027D01*
X157513459Y-90844324D01*
X157567587Y-90825383D01*
X157613689Y-90804858D01*
X157645679Y-90798058D01*
X157682761Y-90785083D01*
X157733759Y-90779336D01*
X157777343Y-90770073D01*
X157815977Y-90770073D01*
X157861000Y-90765000D01*
X157906023Y-90770073D01*
G37*
G36*
X140107676Y-90485591D02*
G01*
X140145184Y-90485591D01*
X140175671Y-90494542D01*
X140197450Y-90497410D01*
X140226703Y-90509527D01*
X140268352Y-90521756D01*
X140290334Y-90535883D01*
X140305961Y-90542356D01*
X140334595Y-90564327D01*
X140376342Y-90591157D01*
X140389799Y-90606688D01*
X140399141Y-90613856D01*
X140423357Y-90645416D01*
X140460405Y-90688171D01*
X140466639Y-90701822D01*
X140470643Y-90707040D01*
X140486451Y-90745205D01*
X140513731Y-90804939D01*
X140515079Y-90814319D01*
X140515589Y-90815549D01*
X140519197Y-90842960D01*
X140532000Y-90932000D01*
X140519196Y-91021048D01*
X140515589Y-91048450D01*
X140515079Y-91049678D01*
X140513731Y-91059061D01*
X140486452Y-91118791D01*
X140470643Y-91156961D01*
X140466638Y-91162180D01*
X140460405Y-91175829D01*
X140423356Y-91218584D01*
X140399142Y-91250142D01*
X140389803Y-91257308D01*
X140376342Y-91272843D01*
X140334586Y-91299677D01*
X140305961Y-91321643D01*
X140290339Y-91328113D01*
X140268352Y-91342244D01*
X140226695Y-91354475D01*
X140197450Y-91366589D01*
X140175677Y-91369455D01*
X140145184Y-91378409D01*
X140107669Y-91378409D01*
X140081000Y-91381920D01*
X140054331Y-91378409D01*
X140016816Y-91378409D01*
X139986323Y-91369455D01*
X139964549Y-91366589D01*
X139935301Y-91354474D01*
X139893648Y-91342244D01*
X139871662Y-91328114D01*
X139856038Y-91321643D01*
X139827407Y-91299673D01*
X139785658Y-91272843D01*
X139772198Y-91257310D01*
X139762857Y-91250142D01*
X139738634Y-91218574D01*
X139701595Y-91175829D01*
X139695363Y-91162183D01*
X139691356Y-91156961D01*
X139675536Y-91118768D01*
X139648269Y-91059061D01*
X139646920Y-91049682D01*
X139646410Y-91048450D01*
X139642791Y-91020965D01*
X139630000Y-90932000D01*
X139642790Y-90843042D01*
X139646410Y-90815549D01*
X139646920Y-90814315D01*
X139648269Y-90804939D01*
X139675537Y-90745228D01*
X139691356Y-90707040D01*
X139695362Y-90701818D01*
X139701595Y-90688171D01*
X139738632Y-90645427D01*
X139762857Y-90613857D01*
X139772201Y-90606687D01*
X139785658Y-90591157D01*
X139827407Y-90564326D01*
X139856040Y-90542356D01*
X139871663Y-90535884D01*
X139893648Y-90521756D01*
X139935294Y-90509527D01*
X139964549Y-90497410D01*
X139986329Y-90494542D01*
X140016816Y-90485591D01*
X140054324Y-90485591D01*
X140081000Y-90482079D01*
X140107676Y-90485591D01*
G37*
G36*
X160446023Y-89500073D02*
G01*
X160484657Y-89500073D01*
X160528240Y-89509336D01*
X160579239Y-89515083D01*
X160616321Y-89528058D01*
X160648306Y-89534857D01*
X160694401Y-89555379D01*
X160748541Y-89574324D01*
X160776719Y-89592029D01*
X160801157Y-89602910D01*
X160846720Y-89636014D01*
X160900415Y-89669753D01*
X160919700Y-89689038D01*
X160936512Y-89701253D01*
X160978076Y-89747414D01*
X161027247Y-89796585D01*
X161038555Y-89814582D01*
X161048467Y-89825590D01*
X161082376Y-89884322D01*
X161122676Y-89948459D01*
X161127707Y-89962838D01*
X161132120Y-89970481D01*
X161154718Y-90040030D01*
X161181917Y-90117761D01*
X161182948Y-90126913D01*
X161183823Y-90129606D01*
X161191750Y-90205038D01*
X161202000Y-90296000D01*
X161191750Y-90386969D01*
X161183823Y-90462393D01*
X161182948Y-90465084D01*
X161181917Y-90474239D01*
X161154713Y-90551982D01*
X161132120Y-90621518D01*
X161127708Y-90629159D01*
X161122676Y-90643541D01*
X161082369Y-90707688D01*
X161048467Y-90766409D01*
X161038557Y-90777414D01*
X161027247Y-90795415D01*
X160978067Y-90844594D01*
X160936512Y-90890746D01*
X160919704Y-90902957D01*
X160900415Y-90922247D01*
X160846710Y-90955992D01*
X160801157Y-90989089D01*
X160776725Y-90999966D01*
X160748541Y-91017676D01*
X160694391Y-91036623D01*
X160648306Y-91057142D01*
X160616327Y-91063939D01*
X160579239Y-91076917D01*
X160528237Y-91082663D01*
X160484657Y-91091927D01*
X160446023Y-91091927D01*
X160401000Y-91097000D01*
X160355977Y-91091927D01*
X160317343Y-91091927D01*
X160273761Y-91082663D01*
X160222761Y-91076917D01*
X160185674Y-91063939D01*
X160153693Y-91057142D01*
X160107603Y-91036622D01*
X160053459Y-91017676D01*
X160025277Y-90999968D01*
X160000842Y-90989089D01*
X159955282Y-90955987D01*
X159901585Y-90922247D01*
X159882298Y-90902960D01*
X159865487Y-90890746D01*
X159823922Y-90844584D01*
X159774753Y-90795415D01*
X159763444Y-90777418D01*
X159753532Y-90766409D01*
X159719618Y-90707668D01*
X159679324Y-90643541D01*
X159674293Y-90629163D01*
X159669879Y-90621518D01*
X159647272Y-90551942D01*
X159620083Y-90474239D01*
X159619052Y-90465089D01*
X159618176Y-90462393D01*
X159610235Y-90386837D01*
X159600000Y-90296000D01*
X159610234Y-90205170D01*
X159618176Y-90129606D01*
X159619052Y-90126909D01*
X159620083Y-90117761D01*
X159647267Y-90040070D01*
X159669879Y-89970481D01*
X159674293Y-89962834D01*
X159679324Y-89948459D01*
X159719611Y-89884342D01*
X159753532Y-89825590D01*
X159763446Y-89814578D01*
X159774753Y-89796585D01*
X159823913Y-89747424D01*
X159865487Y-89701253D01*
X159882301Y-89689036D01*
X159901585Y-89669753D01*
X159955278Y-89636015D01*
X160000846Y-89602908D01*
X160025284Y-89592027D01*
X160053459Y-89574324D01*
X160107587Y-89555383D01*
X160153689Y-89534858D01*
X160185679Y-89528058D01*
X160222761Y-89515083D01*
X160273759Y-89509336D01*
X160317343Y-89500073D01*
X160355977Y-89500073D01*
X160401000Y-89495000D01*
X160446023Y-89500073D01*
G37*
G36*
X157906023Y-88230073D02*
G01*
X157944657Y-88230073D01*
X157988240Y-88239336D01*
X158039239Y-88245083D01*
X158076321Y-88258058D01*
X158108306Y-88264857D01*
X158154401Y-88285379D01*
X158208541Y-88304324D01*
X158236719Y-88322029D01*
X158261157Y-88332910D01*
X158306720Y-88366014D01*
X158360415Y-88399753D01*
X158379700Y-88419038D01*
X158396512Y-88431253D01*
X158438076Y-88477414D01*
X158487247Y-88526585D01*
X158498555Y-88544582D01*
X158508467Y-88555590D01*
X158542376Y-88614322D01*
X158582676Y-88678459D01*
X158587707Y-88692838D01*
X158592120Y-88700481D01*
X158614718Y-88770030D01*
X158641917Y-88847761D01*
X158642948Y-88856913D01*
X158643823Y-88859606D01*
X158651750Y-88935038D01*
X158662000Y-89026000D01*
X158651750Y-89116969D01*
X158643823Y-89192393D01*
X158642948Y-89195084D01*
X158641917Y-89204239D01*
X158614713Y-89281982D01*
X158592120Y-89351518D01*
X158587708Y-89359159D01*
X158582676Y-89373541D01*
X158542369Y-89437688D01*
X158508467Y-89496409D01*
X158498557Y-89507414D01*
X158487247Y-89525415D01*
X158438067Y-89574594D01*
X158396512Y-89620746D01*
X158379704Y-89632957D01*
X158360415Y-89652247D01*
X158306710Y-89685992D01*
X158261157Y-89719089D01*
X158236725Y-89729966D01*
X158208541Y-89747676D01*
X158154391Y-89766623D01*
X158108306Y-89787142D01*
X158076327Y-89793939D01*
X158039239Y-89806917D01*
X157988237Y-89812663D01*
X157944657Y-89821927D01*
X157906023Y-89821927D01*
X157861000Y-89827000D01*
X157815977Y-89821927D01*
X157777343Y-89821927D01*
X157733761Y-89812663D01*
X157682761Y-89806917D01*
X157645674Y-89793939D01*
X157613693Y-89787142D01*
X157567603Y-89766622D01*
X157513459Y-89747676D01*
X157485277Y-89729968D01*
X157460842Y-89719089D01*
X157415282Y-89685987D01*
X157361585Y-89652247D01*
X157342298Y-89632960D01*
X157325487Y-89620746D01*
X157283922Y-89574584D01*
X157234753Y-89525415D01*
X157223444Y-89507418D01*
X157213532Y-89496409D01*
X157179618Y-89437668D01*
X157139324Y-89373541D01*
X157134293Y-89359163D01*
X157129879Y-89351518D01*
X157107272Y-89281942D01*
X157080083Y-89204239D01*
X157079052Y-89195089D01*
X157078176Y-89192393D01*
X157070235Y-89116837D01*
X157060000Y-89026000D01*
X157070234Y-88935170D01*
X157078176Y-88859606D01*
X157079052Y-88856909D01*
X157080083Y-88847761D01*
X157107267Y-88770070D01*
X157129879Y-88700481D01*
X157134293Y-88692834D01*
X157139324Y-88678459D01*
X157179611Y-88614342D01*
X157213532Y-88555590D01*
X157223446Y-88544578D01*
X157234753Y-88526585D01*
X157283913Y-88477424D01*
X157325487Y-88431253D01*
X157342301Y-88419036D01*
X157361585Y-88399753D01*
X157415278Y-88366015D01*
X157460846Y-88332908D01*
X157485284Y-88322027D01*
X157513459Y-88304324D01*
X157567587Y-88285383D01*
X157613689Y-88264858D01*
X157645679Y-88258058D01*
X157682761Y-88245083D01*
X157733759Y-88239336D01*
X157777343Y-88230073D01*
X157815977Y-88230073D01*
X157861000Y-88225000D01*
X157906023Y-88230073D01*
G37*
G36*
X160446023Y-86960073D02*
G01*
X160484657Y-86960073D01*
X160528240Y-86969336D01*
X160579239Y-86975083D01*
X160616321Y-86988058D01*
X160648306Y-86994857D01*
X160694401Y-87015379D01*
X160748541Y-87034324D01*
X160776719Y-87052029D01*
X160801157Y-87062910D01*
X160846720Y-87096014D01*
X160900415Y-87129753D01*
X160919700Y-87149038D01*
X160936512Y-87161253D01*
X160978076Y-87207414D01*
X161027247Y-87256585D01*
X161038555Y-87274582D01*
X161048467Y-87285590D01*
X161082376Y-87344322D01*
X161122676Y-87408459D01*
X161127707Y-87422838D01*
X161132120Y-87430481D01*
X161154718Y-87500030D01*
X161181917Y-87577761D01*
X161182948Y-87586913D01*
X161183823Y-87589606D01*
X161191750Y-87665038D01*
X161202000Y-87756000D01*
X161191750Y-87846969D01*
X161183823Y-87922393D01*
X161182948Y-87925084D01*
X161181917Y-87934239D01*
X161154713Y-88011982D01*
X161132120Y-88081518D01*
X161127708Y-88089159D01*
X161122676Y-88103541D01*
X161082369Y-88167688D01*
X161048467Y-88226409D01*
X161038557Y-88237414D01*
X161027247Y-88255415D01*
X160978067Y-88304594D01*
X160936512Y-88350746D01*
X160919704Y-88362957D01*
X160900415Y-88382247D01*
X160846710Y-88415992D01*
X160801157Y-88449089D01*
X160776725Y-88459966D01*
X160748541Y-88477676D01*
X160694391Y-88496623D01*
X160648306Y-88517142D01*
X160616327Y-88523939D01*
X160579239Y-88536917D01*
X160528237Y-88542663D01*
X160484657Y-88551927D01*
X160446023Y-88551927D01*
X160401000Y-88557000D01*
X160355977Y-88551927D01*
X160317343Y-88551927D01*
X160273761Y-88542663D01*
X160222761Y-88536917D01*
X160185674Y-88523939D01*
X160153693Y-88517142D01*
X160107603Y-88496622D01*
X160053459Y-88477676D01*
X160025277Y-88459968D01*
X160000842Y-88449089D01*
X159955282Y-88415987D01*
X159901585Y-88382247D01*
X159882298Y-88362960D01*
X159865487Y-88350746D01*
X159823922Y-88304584D01*
X159774753Y-88255415D01*
X159763444Y-88237418D01*
X159753532Y-88226409D01*
X159719618Y-88167668D01*
X159679324Y-88103541D01*
X159674293Y-88089163D01*
X159669879Y-88081518D01*
X159647272Y-88011942D01*
X159620083Y-87934239D01*
X159619052Y-87925089D01*
X159618176Y-87922393D01*
X159610235Y-87846837D01*
X159600000Y-87756000D01*
X159610234Y-87665170D01*
X159618176Y-87589606D01*
X159619052Y-87586909D01*
X159620083Y-87577761D01*
X159647267Y-87500070D01*
X159669879Y-87430481D01*
X159674293Y-87422834D01*
X159679324Y-87408459D01*
X159719611Y-87344342D01*
X159753532Y-87285590D01*
X159763446Y-87274578D01*
X159774753Y-87256585D01*
X159823913Y-87207424D01*
X159865487Y-87161253D01*
X159882301Y-87149036D01*
X159901585Y-87129753D01*
X159955278Y-87096015D01*
X160000846Y-87062908D01*
X160025284Y-87052027D01*
X160053459Y-87034324D01*
X160107587Y-87015383D01*
X160153689Y-86994858D01*
X160185679Y-86988058D01*
X160222761Y-86975083D01*
X160273759Y-86969336D01*
X160317343Y-86960073D01*
X160355977Y-86960073D01*
X160401000Y-86955000D01*
X160446023Y-86960073D01*
G37*
G36*
X134431951Y-84310036D02*
G01*
X134500589Y-84310036D01*
X134562570Y-84319378D01*
X134622269Y-84323648D01*
X134693044Y-84339044D01*
X134766760Y-84350155D01*
X134820924Y-84366862D01*
X134873305Y-84378257D01*
X134947110Y-84405785D01*
X135023979Y-84429496D01*
X135069658Y-84451493D01*
X135114030Y-84468044D01*
X135188770Y-84508855D01*
X135266500Y-84546288D01*
X135303412Y-84571454D01*
X135339522Y-84591172D01*
X135412907Y-84646107D01*
X135488905Y-84697922D01*
X135517220Y-84724194D01*
X135545192Y-84745134D01*
X135614708Y-84814650D01*
X135686226Y-84881009D01*
X135706540Y-84906482D01*
X135726865Y-84926807D01*
X135789896Y-85011007D01*
X135854056Y-85091461D01*
X135867317Y-85114429D01*
X135880827Y-85132477D01*
X135934719Y-85231173D01*
X135988645Y-85324575D01*
X135996119Y-85343618D01*
X136003955Y-85357969D01*
X136046138Y-85471066D01*
X136086987Y-85575146D01*
X136090184Y-85589157D01*
X136093742Y-85598694D01*
X136121789Y-85727626D01*
X136146884Y-85837575D01*
X136147502Y-85845830D01*
X136148351Y-85849730D01*
X136159985Y-86012395D01*
X136167000Y-86106000D01*
X136159984Y-86199612D01*
X136148351Y-86362269D01*
X136147502Y-86366168D01*
X136146884Y-86374425D01*
X136121784Y-86484393D01*
X136093742Y-86613305D01*
X136090185Y-86622840D01*
X136086987Y-86636854D01*
X136046131Y-86740952D01*
X136003955Y-86854030D01*
X135996120Y-86868377D01*
X135988645Y-86887425D01*
X135934709Y-86980843D01*
X135880827Y-87079522D01*
X135867319Y-87097565D01*
X135854056Y-87120539D01*
X135789884Y-87201007D01*
X135726865Y-87285192D01*
X135706544Y-87305512D01*
X135686226Y-87330991D01*
X135614694Y-87397362D01*
X135545192Y-87466865D01*
X135517225Y-87487800D01*
X135488905Y-87514078D01*
X135412892Y-87565902D01*
X135339522Y-87620827D01*
X135303420Y-87640540D01*
X135266500Y-87665712D01*
X135188755Y-87703151D01*
X135114030Y-87743955D01*
X135069667Y-87760501D01*
X135023979Y-87782504D01*
X134947094Y-87806219D01*
X134873305Y-87833742D01*
X134820935Y-87845134D01*
X134766760Y-87861845D01*
X134693029Y-87872958D01*
X134622269Y-87888351D01*
X134562582Y-87892619D01*
X134500589Y-87901964D01*
X134431937Y-87901964D01*
X134366000Y-87906680D01*
X134300062Y-87901964D01*
X134231411Y-87901964D01*
X134169418Y-87892620D01*
X134109730Y-87888351D01*
X134038967Y-87872957D01*
X133965240Y-87861845D01*
X133911066Y-87845134D01*
X133858694Y-87833742D01*
X133784899Y-87806217D01*
X133708021Y-87782504D01*
X133662336Y-87760503D01*
X133617969Y-87743955D01*
X133543236Y-87703147D01*
X133465500Y-87665712D01*
X133428583Y-87640542D01*
X133392477Y-87620827D01*
X133319095Y-87565894D01*
X133243095Y-87514078D01*
X133214778Y-87487803D01*
X133186807Y-87466865D01*
X133117291Y-87397349D01*
X133045774Y-87330991D01*
X133025459Y-87305517D01*
X133005134Y-87285192D01*
X132942099Y-87200986D01*
X132877944Y-87120539D01*
X132864683Y-87097571D01*
X132851172Y-87079522D01*
X132797272Y-86980812D01*
X132743355Y-86887425D01*
X132735882Y-86868384D01*
X132728044Y-86854030D01*
X132685848Y-86740901D01*
X132645013Y-86636854D01*
X132641816Y-86622847D01*
X132638257Y-86613305D01*
X132610193Y-86484300D01*
X132585116Y-86374425D01*
X132584497Y-86366175D01*
X132583648Y-86362269D01*
X132571993Y-86199319D01*
X132565000Y-86106000D01*
X132571992Y-86012687D01*
X132583648Y-85849730D01*
X132584497Y-85845823D01*
X132585116Y-85837575D01*
X132610189Y-85727720D01*
X132638257Y-85598694D01*
X132641816Y-85589150D01*
X132645013Y-85575146D01*
X132685840Y-85471118D01*
X132728044Y-85357969D01*
X132735883Y-85343612D01*
X132743355Y-85324575D01*
X132797262Y-85231205D01*
X132851172Y-85132477D01*
X132864686Y-85114424D01*
X132877944Y-85091461D01*
X132942086Y-85011028D01*
X133005134Y-84926807D01*
X133025463Y-84906477D01*
X133045774Y-84881009D01*
X133117277Y-84814663D01*
X133186807Y-84745134D01*
X133214783Y-84724190D01*
X133243095Y-84697922D01*
X133319080Y-84646115D01*
X133392477Y-84591172D01*
X133428591Y-84571452D01*
X133465500Y-84546288D01*
X133543220Y-84508859D01*
X133617969Y-84468044D01*
X133662345Y-84451492D01*
X133708021Y-84429496D01*
X133784884Y-84405787D01*
X133858694Y-84378257D01*
X133911077Y-84366861D01*
X133965240Y-84350155D01*
X134038952Y-84339044D01*
X134109730Y-84323648D01*
X134169430Y-84319378D01*
X134231411Y-84310036D01*
X134300048Y-84310036D01*
X134366000Y-84305319D01*
X134431951Y-84310036D01*
G37*
G36*
X157906023Y-85690073D02*
G01*
X157944657Y-85690073D01*
X157988240Y-85699336D01*
X158039239Y-85705083D01*
X158076321Y-85718058D01*
X158108306Y-85724857D01*
X158154401Y-85745379D01*
X158208541Y-85764324D01*
X158236719Y-85782029D01*
X158261157Y-85792910D01*
X158306720Y-85826014D01*
X158360415Y-85859753D01*
X158379700Y-85879038D01*
X158396512Y-85891253D01*
X158438076Y-85937414D01*
X158487247Y-85986585D01*
X158498555Y-86004582D01*
X158508467Y-86015590D01*
X158542376Y-86074322D01*
X158582676Y-86138459D01*
X158587707Y-86152838D01*
X158592120Y-86160481D01*
X158614718Y-86230030D01*
X158641917Y-86307761D01*
X158642948Y-86316913D01*
X158643823Y-86319606D01*
X158651750Y-86395038D01*
X158662000Y-86486000D01*
X158651750Y-86576969D01*
X158643823Y-86652393D01*
X158642948Y-86655084D01*
X158641917Y-86664239D01*
X158614713Y-86741982D01*
X158592120Y-86811518D01*
X158587708Y-86819159D01*
X158582676Y-86833541D01*
X158542369Y-86897688D01*
X158508467Y-86956409D01*
X158498557Y-86967414D01*
X158487247Y-86985415D01*
X158438067Y-87034594D01*
X158396512Y-87080746D01*
X158379704Y-87092957D01*
X158360415Y-87112247D01*
X158306710Y-87145992D01*
X158261157Y-87179089D01*
X158236725Y-87189966D01*
X158208541Y-87207676D01*
X158154391Y-87226623D01*
X158108306Y-87247142D01*
X158076327Y-87253939D01*
X158039239Y-87266917D01*
X157988237Y-87272663D01*
X157944657Y-87281927D01*
X157906023Y-87281927D01*
X157861000Y-87287000D01*
X157815977Y-87281927D01*
X157777343Y-87281927D01*
X157733761Y-87272663D01*
X157682761Y-87266917D01*
X157645674Y-87253939D01*
X157613693Y-87247142D01*
X157567603Y-87226622D01*
X157513459Y-87207676D01*
X157485277Y-87189968D01*
X157460842Y-87179089D01*
X157415282Y-87145987D01*
X157361585Y-87112247D01*
X157342298Y-87092960D01*
X157325487Y-87080746D01*
X157283922Y-87034584D01*
X157234753Y-86985415D01*
X157223444Y-86967418D01*
X157213532Y-86956409D01*
X157179618Y-86897668D01*
X157139324Y-86833541D01*
X157134293Y-86819163D01*
X157129879Y-86811518D01*
X157107272Y-86741942D01*
X157080083Y-86664239D01*
X157079052Y-86655089D01*
X157078176Y-86652393D01*
X157070235Y-86576837D01*
X157060000Y-86486000D01*
X157070234Y-86395170D01*
X157078176Y-86319606D01*
X157079052Y-86316909D01*
X157080083Y-86307761D01*
X157107267Y-86230070D01*
X157129879Y-86160481D01*
X157134293Y-86152834D01*
X157139324Y-86138459D01*
X157179611Y-86074342D01*
X157213532Y-86015590D01*
X157223446Y-86004578D01*
X157234753Y-85986585D01*
X157283913Y-85937424D01*
X157325487Y-85891253D01*
X157342301Y-85879036D01*
X157361585Y-85859753D01*
X157415278Y-85826015D01*
X157460846Y-85792908D01*
X157485284Y-85782027D01*
X157513459Y-85764324D01*
X157567587Y-85745383D01*
X157613689Y-85724858D01*
X157645679Y-85718058D01*
X157682761Y-85705083D01*
X157733759Y-85699336D01*
X157777343Y-85690073D01*
X157815977Y-85690073D01*
X157861000Y-85685000D01*
X157906023Y-85690073D01*
G37*
G36*
X160446023Y-84420073D02*
G01*
X160484657Y-84420073D01*
X160528240Y-84429336D01*
X160579239Y-84435083D01*
X160616321Y-84448058D01*
X160648306Y-84454857D01*
X160694401Y-84475379D01*
X160748541Y-84494324D01*
X160776719Y-84512029D01*
X160801157Y-84522910D01*
X160846720Y-84556014D01*
X160900415Y-84589753D01*
X160919700Y-84609038D01*
X160936512Y-84621253D01*
X160978076Y-84667414D01*
X161027247Y-84716585D01*
X161038555Y-84734582D01*
X161048467Y-84745590D01*
X161082376Y-84804322D01*
X161122676Y-84868459D01*
X161127707Y-84882838D01*
X161132120Y-84890481D01*
X161154718Y-84960030D01*
X161181917Y-85037761D01*
X161182948Y-85046913D01*
X161183823Y-85049606D01*
X161191750Y-85125038D01*
X161202000Y-85216000D01*
X161191750Y-85306969D01*
X161183823Y-85382393D01*
X161182948Y-85385084D01*
X161181917Y-85394239D01*
X161154713Y-85471982D01*
X161132120Y-85541518D01*
X161127708Y-85549159D01*
X161122676Y-85563541D01*
X161082369Y-85627688D01*
X161048467Y-85686409D01*
X161038557Y-85697414D01*
X161027247Y-85715415D01*
X160978067Y-85764594D01*
X160936512Y-85810746D01*
X160919704Y-85822957D01*
X160900415Y-85842247D01*
X160846710Y-85875992D01*
X160801157Y-85909089D01*
X160776725Y-85919966D01*
X160748541Y-85937676D01*
X160694391Y-85956623D01*
X160648306Y-85977142D01*
X160616327Y-85983939D01*
X160579239Y-85996917D01*
X160528237Y-86002663D01*
X160484657Y-86011927D01*
X160446023Y-86011927D01*
X160401000Y-86017000D01*
X160355977Y-86011927D01*
X160317343Y-86011927D01*
X160273761Y-86002663D01*
X160222761Y-85996917D01*
X160185674Y-85983939D01*
X160153693Y-85977142D01*
X160107603Y-85956622D01*
X160053459Y-85937676D01*
X160025277Y-85919968D01*
X160000842Y-85909089D01*
X159955282Y-85875987D01*
X159901585Y-85842247D01*
X159882298Y-85822960D01*
X159865487Y-85810746D01*
X159823922Y-85764584D01*
X159774753Y-85715415D01*
X159763444Y-85697418D01*
X159753532Y-85686409D01*
X159719618Y-85627668D01*
X159679324Y-85563541D01*
X159674293Y-85549163D01*
X159669879Y-85541518D01*
X159647272Y-85471942D01*
X159620083Y-85394239D01*
X159619052Y-85385089D01*
X159618176Y-85382393D01*
X159610235Y-85306837D01*
X159600000Y-85216000D01*
X159610234Y-85125170D01*
X159618176Y-85049606D01*
X159619052Y-85046909D01*
X159620083Y-85037761D01*
X159647267Y-84960070D01*
X159669879Y-84890481D01*
X159674293Y-84882834D01*
X159679324Y-84868459D01*
X159719611Y-84804342D01*
X159753532Y-84745590D01*
X159763446Y-84734578D01*
X159774753Y-84716585D01*
X159823913Y-84667424D01*
X159865487Y-84621253D01*
X159882301Y-84609036D01*
X159901585Y-84589753D01*
X159955278Y-84556015D01*
X160000846Y-84522908D01*
X160025284Y-84512027D01*
X160053459Y-84494324D01*
X160107587Y-84475383D01*
X160153689Y-84454858D01*
X160185679Y-84448058D01*
X160222761Y-84435083D01*
X160273759Y-84429336D01*
X160317343Y-84420073D01*
X160355977Y-84420073D01*
X160401000Y-84415000D01*
X160446023Y-84420073D01*
G37*
G36*
X157906023Y-83150073D02*
G01*
X157944657Y-83150073D01*
X157988240Y-83159336D01*
X158039239Y-83165083D01*
X158076321Y-83178058D01*
X158108306Y-83184857D01*
X158154401Y-83205379D01*
X158208541Y-83224324D01*
X158236719Y-83242029D01*
X158261157Y-83252910D01*
X158306720Y-83286014D01*
X158360415Y-83319753D01*
X158379700Y-83339038D01*
X158396512Y-83351253D01*
X158438076Y-83397414D01*
X158487247Y-83446585D01*
X158498555Y-83464582D01*
X158508467Y-83475590D01*
X158542376Y-83534322D01*
X158582676Y-83598459D01*
X158587707Y-83612838D01*
X158592120Y-83620481D01*
X158614718Y-83690030D01*
X158641917Y-83767761D01*
X158642948Y-83776913D01*
X158643823Y-83779606D01*
X158651750Y-83855038D01*
X158662000Y-83946000D01*
X158651750Y-84036969D01*
X158643823Y-84112393D01*
X158642948Y-84115084D01*
X158641917Y-84124239D01*
X158614713Y-84201982D01*
X158592120Y-84271518D01*
X158587708Y-84279159D01*
X158582676Y-84293541D01*
X158542369Y-84357688D01*
X158508467Y-84416409D01*
X158498557Y-84427414D01*
X158487247Y-84445415D01*
X158438067Y-84494594D01*
X158396512Y-84540746D01*
X158379704Y-84552957D01*
X158360415Y-84572247D01*
X158306710Y-84605992D01*
X158261157Y-84639089D01*
X158236725Y-84649966D01*
X158208541Y-84667676D01*
X158154391Y-84686623D01*
X158108306Y-84707142D01*
X158076327Y-84713939D01*
X158039239Y-84726917D01*
X157988237Y-84732663D01*
X157944657Y-84741927D01*
X157906023Y-84741927D01*
X157861000Y-84747000D01*
X157815977Y-84741927D01*
X157777343Y-84741927D01*
X157733761Y-84732663D01*
X157682761Y-84726917D01*
X157645674Y-84713939D01*
X157613693Y-84707142D01*
X157567603Y-84686622D01*
X157513459Y-84667676D01*
X157485277Y-84649968D01*
X157460842Y-84639089D01*
X157415282Y-84605987D01*
X157361585Y-84572247D01*
X157342298Y-84552960D01*
X157325487Y-84540746D01*
X157283922Y-84494584D01*
X157234753Y-84445415D01*
X157223444Y-84427418D01*
X157213532Y-84416409D01*
X157179618Y-84357668D01*
X157139324Y-84293541D01*
X157134293Y-84279163D01*
X157129879Y-84271518D01*
X157107272Y-84201942D01*
X157080083Y-84124239D01*
X157079052Y-84115089D01*
X157078176Y-84112393D01*
X157070235Y-84036837D01*
X157060000Y-83946000D01*
X157070234Y-83855170D01*
X157078176Y-83779606D01*
X157079052Y-83776909D01*
X157080083Y-83767761D01*
X157107267Y-83690070D01*
X157129879Y-83620481D01*
X157134293Y-83612834D01*
X157139324Y-83598459D01*
X157179611Y-83534342D01*
X157213532Y-83475590D01*
X157223446Y-83464578D01*
X157234753Y-83446585D01*
X157283913Y-83397424D01*
X157325487Y-83351253D01*
X157342301Y-83339036D01*
X157361585Y-83319753D01*
X157415278Y-83286015D01*
X157460846Y-83252908D01*
X157485284Y-83242027D01*
X157513459Y-83224324D01*
X157567587Y-83205383D01*
X157613689Y-83184858D01*
X157645679Y-83178058D01*
X157682761Y-83165083D01*
X157733759Y-83159336D01*
X157777343Y-83150073D01*
X157815977Y-83150073D01*
X157861000Y-83145000D01*
X157906023Y-83150073D01*
G37*
G36*
X167129508Y-81017648D02*
G01*
X167372445Y-81092584D01*
X167601500Y-81202891D01*
X167811556Y-81346105D01*
X167997921Y-81519026D01*
X168156432Y-81717793D01*
X168283548Y-81937964D01*
X168376429Y-82174621D01*
X168433001Y-82422479D01*
X168452000Y-82676000D01*
X168433001Y-82929521D01*
X168376429Y-83177379D01*
X168283548Y-83414036D01*
X168156432Y-83634207D01*
X167997921Y-83832974D01*
X167811556Y-84005895D01*
X167601500Y-84149109D01*
X167372445Y-84259416D01*
X167129508Y-84334352D01*
X166878116Y-84372244D01*
X166623884Y-84372244D01*
X166372492Y-84334352D01*
X166129555Y-84259416D01*
X165900500Y-84149109D01*
X165690444Y-84005895D01*
X165504079Y-83832974D01*
X165345568Y-83634207D01*
X165218452Y-83414036D01*
X165125571Y-83177379D01*
X165068999Y-82929521D01*
X165050000Y-82676000D01*
X165068999Y-82422479D01*
X165125571Y-82174621D01*
X165218452Y-81937964D01*
X165345568Y-81717793D01*
X165504079Y-81519026D01*
X165690444Y-81346105D01*
X165900500Y-81202891D01*
X166129555Y-81092584D01*
X166372492Y-81017648D01*
X166623884Y-80979756D01*
X166878116Y-80979756D01*
X167129508Y-81017648D01*
G37*
G36*
X134431951Y-79230036D02*
G01*
X134500589Y-79230036D01*
X134562570Y-79239378D01*
X134622269Y-79243648D01*
X134693044Y-79259044D01*
X134766760Y-79270155D01*
X134820924Y-79286862D01*
X134873305Y-79298257D01*
X134947110Y-79325785D01*
X135023979Y-79349496D01*
X135069658Y-79371493D01*
X135114030Y-79388044D01*
X135188770Y-79428855D01*
X135266500Y-79466288D01*
X135303412Y-79491454D01*
X135339522Y-79511172D01*
X135412907Y-79566107D01*
X135488905Y-79617922D01*
X135517220Y-79644194D01*
X135545192Y-79665134D01*
X135614708Y-79734650D01*
X135686226Y-79801009D01*
X135706540Y-79826482D01*
X135726865Y-79846807D01*
X135789896Y-79931007D01*
X135854056Y-80011461D01*
X135867317Y-80034429D01*
X135880827Y-80052477D01*
X135934719Y-80151173D01*
X135988645Y-80244575D01*
X135996119Y-80263618D01*
X136003955Y-80277969D01*
X136046138Y-80391066D01*
X136086987Y-80495146D01*
X136090184Y-80509157D01*
X136093742Y-80518694D01*
X136121789Y-80647626D01*
X136146884Y-80757575D01*
X136147502Y-80765830D01*
X136148351Y-80769730D01*
X136159985Y-80932395D01*
X136167000Y-81026000D01*
X136159984Y-81119612D01*
X136148351Y-81282269D01*
X136147502Y-81286168D01*
X136146884Y-81294425D01*
X136121784Y-81404393D01*
X136093742Y-81533305D01*
X136090185Y-81542840D01*
X136086987Y-81556854D01*
X136046131Y-81660952D01*
X136003955Y-81774030D01*
X135996120Y-81788377D01*
X135988645Y-81807425D01*
X135934709Y-81900843D01*
X135880827Y-81999522D01*
X135867319Y-82017565D01*
X135854056Y-82040539D01*
X135789884Y-82121007D01*
X135726865Y-82205192D01*
X135706544Y-82225512D01*
X135686226Y-82250991D01*
X135614694Y-82317362D01*
X135545192Y-82386865D01*
X135517225Y-82407800D01*
X135488905Y-82434078D01*
X135412892Y-82485902D01*
X135339522Y-82540827D01*
X135303420Y-82560540D01*
X135266500Y-82585712D01*
X135188755Y-82623151D01*
X135114030Y-82663955D01*
X135069667Y-82680501D01*
X135023979Y-82702504D01*
X134947094Y-82726219D01*
X134873305Y-82753742D01*
X134820935Y-82765134D01*
X134766760Y-82781845D01*
X134693029Y-82792958D01*
X134622269Y-82808351D01*
X134562582Y-82812619D01*
X134500589Y-82821964D01*
X134431937Y-82821964D01*
X134366000Y-82826680D01*
X134300062Y-82821964D01*
X134231411Y-82821964D01*
X134169418Y-82812620D01*
X134109730Y-82808351D01*
X134038967Y-82792957D01*
X133965240Y-82781845D01*
X133911066Y-82765134D01*
X133858694Y-82753742D01*
X133784899Y-82726217D01*
X133708021Y-82702504D01*
X133662336Y-82680503D01*
X133617969Y-82663955D01*
X133543236Y-82623147D01*
X133465500Y-82585712D01*
X133428583Y-82560542D01*
X133392477Y-82540827D01*
X133319095Y-82485894D01*
X133243095Y-82434078D01*
X133214778Y-82407803D01*
X133186807Y-82386865D01*
X133117291Y-82317349D01*
X133045774Y-82250991D01*
X133025459Y-82225517D01*
X133005134Y-82205192D01*
X132942099Y-82120986D01*
X132877944Y-82040539D01*
X132864683Y-82017571D01*
X132851172Y-81999522D01*
X132797272Y-81900812D01*
X132743355Y-81807425D01*
X132735882Y-81788384D01*
X132728044Y-81774030D01*
X132685848Y-81660901D01*
X132645013Y-81556854D01*
X132641816Y-81542847D01*
X132638257Y-81533305D01*
X132610193Y-81404300D01*
X132585116Y-81294425D01*
X132584497Y-81286175D01*
X132583648Y-81282269D01*
X132571993Y-81119319D01*
X132565000Y-81026000D01*
X132571992Y-80932687D01*
X132583648Y-80769730D01*
X132584497Y-80765823D01*
X132585116Y-80757575D01*
X132610189Y-80647720D01*
X132638257Y-80518694D01*
X132641816Y-80509150D01*
X132645013Y-80495146D01*
X132685840Y-80391118D01*
X132728044Y-80277969D01*
X132735883Y-80263612D01*
X132743355Y-80244575D01*
X132797262Y-80151205D01*
X132851172Y-80052477D01*
X132864686Y-80034424D01*
X132877944Y-80011461D01*
X132942086Y-79931028D01*
X133005134Y-79846807D01*
X133025463Y-79826477D01*
X133045774Y-79801009D01*
X133117277Y-79734663D01*
X133186807Y-79665134D01*
X133214783Y-79644190D01*
X133243095Y-79617922D01*
X133319080Y-79566115D01*
X133392477Y-79511172D01*
X133428591Y-79491452D01*
X133465500Y-79466288D01*
X133543220Y-79428859D01*
X133617969Y-79388044D01*
X133662345Y-79371492D01*
X133708021Y-79349496D01*
X133784884Y-79325787D01*
X133858694Y-79298257D01*
X133911077Y-79286861D01*
X133965240Y-79270155D01*
X134038952Y-79259044D01*
X134109730Y-79243648D01*
X134169430Y-79239378D01*
X134231411Y-79230036D01*
X134300048Y-79230036D01*
X134366000Y-79225319D01*
X134431951Y-79230036D01*
G37*
G36*
X146838676Y-81595591D02*
G01*
X146876184Y-81595591D01*
X146906671Y-81604542D01*
X146928450Y-81607410D01*
X146957703Y-81619527D01*
X146999352Y-81631756D01*
X147021334Y-81645883D01*
X147036961Y-81652356D01*
X147065595Y-81674327D01*
X147107342Y-81701157D01*
X147120799Y-81716688D01*
X147130141Y-81723856D01*
X147154357Y-81755416D01*
X147191405Y-81798171D01*
X147197639Y-81811822D01*
X147201643Y-81817040D01*
X147217451Y-81855205D01*
X147244731Y-81914939D01*
X147246079Y-81924319D01*
X147246589Y-81925549D01*
X147250197Y-81952960D01*
X147263000Y-82042000D01*
X147250196Y-82131048D01*
X147246589Y-82158450D01*
X147246079Y-82159678D01*
X147244731Y-82169061D01*
X147217452Y-82228791D01*
X147201643Y-82266961D01*
X147197638Y-82272180D01*
X147191405Y-82285829D01*
X147154356Y-82328584D01*
X147130142Y-82360142D01*
X147120803Y-82367308D01*
X147107342Y-82382843D01*
X147065586Y-82409677D01*
X147036961Y-82431643D01*
X147021339Y-82438113D01*
X146999352Y-82452244D01*
X146957695Y-82464475D01*
X146928450Y-82476589D01*
X146906677Y-82479455D01*
X146876184Y-82488409D01*
X146838669Y-82488409D01*
X146812000Y-82491920D01*
X146785331Y-82488409D01*
X146747816Y-82488409D01*
X146717323Y-82479455D01*
X146695549Y-82476589D01*
X146666301Y-82464474D01*
X146624648Y-82452244D01*
X146602662Y-82438114D01*
X146587038Y-82431643D01*
X146558407Y-82409673D01*
X146516658Y-82382843D01*
X146503198Y-82367310D01*
X146493857Y-82360142D01*
X146469634Y-82328574D01*
X146432595Y-82285829D01*
X146426363Y-82272183D01*
X146422356Y-82266961D01*
X146406536Y-82228768D01*
X146379269Y-82169061D01*
X146377920Y-82159682D01*
X146377410Y-82158450D01*
X146373791Y-82130965D01*
X146361000Y-82042000D01*
X146373790Y-81953042D01*
X146377410Y-81925549D01*
X146377920Y-81924315D01*
X146379269Y-81914939D01*
X146406537Y-81855228D01*
X146422356Y-81817040D01*
X146426362Y-81811818D01*
X146432595Y-81798171D01*
X146469632Y-81755427D01*
X146493857Y-81723857D01*
X146503201Y-81716687D01*
X146516658Y-81701157D01*
X146558407Y-81674326D01*
X146587040Y-81652356D01*
X146602663Y-81645884D01*
X146624648Y-81631756D01*
X146666294Y-81619527D01*
X146695549Y-81607410D01*
X146717329Y-81604542D01*
X146747816Y-81595591D01*
X146785324Y-81595591D01*
X146812000Y-81592079D01*
X146838676Y-81595591D01*
G37*
G36*
X143917676Y-78674591D02*
G01*
X143955184Y-78674591D01*
X143985671Y-78683542D01*
X144007450Y-78686410D01*
X144036703Y-78698527D01*
X144078352Y-78710756D01*
X144100334Y-78724883D01*
X144115961Y-78731356D01*
X144144595Y-78753327D01*
X144186342Y-78780157D01*
X144199799Y-78795688D01*
X144209141Y-78802856D01*
X144233357Y-78834416D01*
X144270405Y-78877171D01*
X144276639Y-78890822D01*
X144280643Y-78896040D01*
X144296451Y-78934205D01*
X144323731Y-78993939D01*
X144325079Y-79003319D01*
X144325589Y-79004549D01*
X144329197Y-79031960D01*
X144342000Y-79121000D01*
X144329196Y-79210048D01*
X144325589Y-79237450D01*
X144325079Y-79238678D01*
X144323731Y-79248061D01*
X144296452Y-79307791D01*
X144280643Y-79345961D01*
X144276638Y-79351180D01*
X144270405Y-79364829D01*
X144233356Y-79407584D01*
X144209142Y-79439142D01*
X144199803Y-79446308D01*
X144186342Y-79461843D01*
X144144586Y-79488677D01*
X144115961Y-79510643D01*
X144100339Y-79517113D01*
X144078352Y-79531244D01*
X144036695Y-79543475D01*
X144007450Y-79555589D01*
X143985677Y-79558455D01*
X143955184Y-79567409D01*
X143917669Y-79567409D01*
X143891000Y-79570920D01*
X143864331Y-79567409D01*
X143826816Y-79567409D01*
X143796323Y-79558455D01*
X143774549Y-79555589D01*
X143745301Y-79543474D01*
X143703648Y-79531244D01*
X143681662Y-79517114D01*
X143666038Y-79510643D01*
X143637407Y-79488673D01*
X143595658Y-79461843D01*
X143582198Y-79446310D01*
X143572857Y-79439142D01*
X143548634Y-79407574D01*
X143511595Y-79364829D01*
X143505363Y-79351183D01*
X143501356Y-79345961D01*
X143485536Y-79307768D01*
X143458269Y-79248061D01*
X143456920Y-79238682D01*
X143456410Y-79237450D01*
X143452791Y-79209965D01*
X143440000Y-79121000D01*
X143452790Y-79032042D01*
X143456410Y-79004549D01*
X143456920Y-79003315D01*
X143458269Y-78993939D01*
X143485537Y-78934228D01*
X143501356Y-78896040D01*
X143505362Y-78890818D01*
X143511595Y-78877171D01*
X143548632Y-78834427D01*
X143572857Y-78802857D01*
X143582201Y-78795687D01*
X143595658Y-78780157D01*
X143637407Y-78753326D01*
X143666040Y-78731356D01*
X143681663Y-78724884D01*
X143703648Y-78710756D01*
X143745294Y-78698527D01*
X143774549Y-78686410D01*
X143796329Y-78683542D01*
X143826816Y-78674591D01*
X143864324Y-78674591D01*
X143891000Y-78671079D01*
X143917676Y-78674591D01*
G37*
G36*
X136135517Y-74148882D02*
G01*
X136152062Y-74159938D01*
X136163118Y-74176483D01*
X136167000Y-74196000D01*
X136167000Y-77696000D01*
X136163118Y-77715517D01*
X136152062Y-77732062D01*
X136135517Y-77743118D01*
X136116000Y-77747000D01*
X132616000Y-77747000D01*
X132596483Y-77743118D01*
X132579938Y-77732062D01*
X132568882Y-77715517D01*
X132565000Y-77696000D01*
X132565000Y-74196000D01*
X132568882Y-74176483D01*
X132579938Y-74159938D01*
X132596483Y-74148882D01*
X132616000Y-74145000D01*
X136116000Y-74145000D01*
X136135517Y-74148882D01*
G37*
G36*
X152807676Y-76134591D02*
G01*
X152845184Y-76134591D01*
X152875671Y-76143542D01*
X152897450Y-76146410D01*
X152926703Y-76158527D01*
X152968352Y-76170756D01*
X152990334Y-76184883D01*
X153005961Y-76191356D01*
X153034595Y-76213327D01*
X153076342Y-76240157D01*
X153089799Y-76255688D01*
X153099141Y-76262856D01*
X153123357Y-76294416D01*
X153160405Y-76337171D01*
X153166639Y-76350822D01*
X153170643Y-76356040D01*
X153186451Y-76394205D01*
X153213731Y-76453939D01*
X153215079Y-76463319D01*
X153215589Y-76464549D01*
X153219197Y-76491960D01*
X153232000Y-76581000D01*
X153219196Y-76670048D01*
X153215589Y-76697450D01*
X153215079Y-76698678D01*
X153213731Y-76708061D01*
X153186452Y-76767791D01*
X153170643Y-76805961D01*
X153166638Y-76811180D01*
X153160405Y-76824829D01*
X153123356Y-76867584D01*
X153099142Y-76899142D01*
X153089803Y-76906308D01*
X153076342Y-76921843D01*
X153034586Y-76948677D01*
X153005961Y-76970643D01*
X152990339Y-76977113D01*
X152968352Y-76991244D01*
X152926695Y-77003475D01*
X152897450Y-77015589D01*
X152875677Y-77018455D01*
X152845184Y-77027409D01*
X152807669Y-77027409D01*
X152781000Y-77030920D01*
X152754331Y-77027409D01*
X152716816Y-77027409D01*
X152686323Y-77018455D01*
X152664549Y-77015589D01*
X152635301Y-77003474D01*
X152593648Y-76991244D01*
X152571662Y-76977114D01*
X152556038Y-76970643D01*
X152527407Y-76948673D01*
X152485658Y-76921843D01*
X152472198Y-76906310D01*
X152462857Y-76899142D01*
X152438634Y-76867574D01*
X152401595Y-76824829D01*
X152395363Y-76811183D01*
X152391356Y-76805961D01*
X152375536Y-76767768D01*
X152348269Y-76708061D01*
X152346920Y-76698682D01*
X152346410Y-76697450D01*
X152342791Y-76669965D01*
X152330000Y-76581000D01*
X152342790Y-76492042D01*
X152346410Y-76464549D01*
X152346920Y-76463315D01*
X152348269Y-76453939D01*
X152375537Y-76394228D01*
X152391356Y-76356040D01*
X152395362Y-76350818D01*
X152401595Y-76337171D01*
X152438632Y-76294427D01*
X152462857Y-76262857D01*
X152472201Y-76255687D01*
X152485658Y-76240157D01*
X152527407Y-76213326D01*
X152556040Y-76191356D01*
X152571663Y-76184884D01*
X152593648Y-76170756D01*
X152635294Y-76158527D01*
X152664549Y-76146410D01*
X152686329Y-76143542D01*
X152716816Y-76134591D01*
X152754324Y-76134591D01*
X152781000Y-76131079D01*
X152807676Y-76134591D01*
G37*
G36*
X168682676Y-76134591D02*
G01*
X168720184Y-76134591D01*
X168750671Y-76143542D01*
X168772450Y-76146410D01*
X168801703Y-76158527D01*
X168843352Y-76170756D01*
X168865334Y-76184883D01*
X168880961Y-76191356D01*
X168909595Y-76213327D01*
X168951342Y-76240157D01*
X168964799Y-76255688D01*
X168974141Y-76262856D01*
X168998357Y-76294416D01*
X169035405Y-76337171D01*
X169041639Y-76350822D01*
X169045643Y-76356040D01*
X169061451Y-76394205D01*
X169088731Y-76453939D01*
X169090079Y-76463319D01*
X169090589Y-76464549D01*
X169094197Y-76491960D01*
X169107000Y-76581000D01*
X169094196Y-76670048D01*
X169090589Y-76697450D01*
X169090079Y-76698678D01*
X169088731Y-76708061D01*
X169061452Y-76767791D01*
X169045643Y-76805961D01*
X169041638Y-76811180D01*
X169035405Y-76824829D01*
X168998356Y-76867584D01*
X168974142Y-76899142D01*
X168964803Y-76906308D01*
X168951342Y-76921843D01*
X168909586Y-76948677D01*
X168880961Y-76970643D01*
X168865339Y-76977113D01*
X168843352Y-76991244D01*
X168801695Y-77003475D01*
X168772450Y-77015589D01*
X168750677Y-77018455D01*
X168720184Y-77027409D01*
X168682669Y-77027409D01*
X168656000Y-77030920D01*
X168629331Y-77027409D01*
X168591816Y-77027409D01*
X168561323Y-77018455D01*
X168539549Y-77015589D01*
X168510301Y-77003474D01*
X168468648Y-76991244D01*
X168446662Y-76977114D01*
X168431038Y-76970643D01*
X168402407Y-76948673D01*
X168360658Y-76921843D01*
X168347198Y-76906310D01*
X168337857Y-76899142D01*
X168313634Y-76867574D01*
X168276595Y-76824829D01*
X168270363Y-76811183D01*
X168266356Y-76805961D01*
X168250536Y-76767768D01*
X168223269Y-76708061D01*
X168221920Y-76698682D01*
X168221410Y-76697450D01*
X168217791Y-76669965D01*
X168205000Y-76581000D01*
X168217790Y-76492042D01*
X168221410Y-76464549D01*
X168221920Y-76463315D01*
X168223269Y-76453939D01*
X168250537Y-76394228D01*
X168266356Y-76356040D01*
X168270362Y-76350818D01*
X168276595Y-76337171D01*
X168313632Y-76294427D01*
X168337857Y-76262857D01*
X168347201Y-76255687D01*
X168360658Y-76240157D01*
X168402407Y-76213326D01*
X168431040Y-76191356D01*
X168446663Y-76184884D01*
X168468648Y-76170756D01*
X168510294Y-76158527D01*
X168539549Y-76146410D01*
X168561329Y-76143542D01*
X168591816Y-76134591D01*
X168629324Y-76134591D01*
X168656000Y-76131079D01*
X168682676Y-76134591D01*
G37*
G36*
X154677517Y-69068882D02*
G01*
X154694062Y-69079938D01*
X154705118Y-69096483D01*
X154709000Y-69116000D01*
X154709000Y-72616000D01*
X154705118Y-72635517D01*
X154694062Y-72652062D01*
X154677517Y-72663118D01*
X154658000Y-72667000D01*
X151158000Y-72667000D01*
X151138483Y-72663118D01*
X151121938Y-72652062D01*
X151110882Y-72635517D01*
X151107000Y-72616000D01*
X151107000Y-69116000D01*
X151110882Y-69096483D01*
X151121938Y-69079938D01*
X151138483Y-69068882D01*
X151158000Y-69065000D01*
X154658000Y-69065000D01*
X154677517Y-69068882D01*
G37*
G36*
X169663517Y-69068882D02*
G01*
X169680062Y-69079938D01*
X169691118Y-69096483D01*
X169695000Y-69116000D01*
X169695000Y-72616000D01*
X169691118Y-72635517D01*
X169680062Y-72652062D01*
X169663517Y-72663118D01*
X169644000Y-72667000D01*
X166144000Y-72667000D01*
X166124483Y-72663118D01*
X166107938Y-72652062D01*
X166096882Y-72635517D01*
X166093000Y-72616000D01*
X166093000Y-69116000D01*
X166096882Y-69096483D01*
X166107938Y-69079938D01*
X166124483Y-69068882D01*
X166144000Y-69065000D01*
X169644000Y-69065000D01*
X169663517Y-69068882D01*
G37*
G36*
X142813951Y-69070036D02*
G01*
X142882589Y-69070036D01*
X142944570Y-69079378D01*
X143004269Y-69083648D01*
X143075044Y-69099044D01*
X143148760Y-69110155D01*
X143202924Y-69126862D01*
X143255305Y-69138257D01*
X143329110Y-69165785D01*
X143405979Y-69189496D01*
X143451658Y-69211493D01*
X143496030Y-69228044D01*
X143570770Y-69268855D01*
X143648500Y-69306288D01*
X143685412Y-69331454D01*
X143721522Y-69351172D01*
X143794907Y-69406107D01*
X143870905Y-69457922D01*
X143899220Y-69484194D01*
X143927192Y-69505134D01*
X143996708Y-69574650D01*
X144068226Y-69641009D01*
X144088540Y-69666482D01*
X144108865Y-69686807D01*
X144171896Y-69771007D01*
X144236056Y-69851461D01*
X144249317Y-69874429D01*
X144262827Y-69892477D01*
X144316719Y-69991173D01*
X144370645Y-70084575D01*
X144378119Y-70103618D01*
X144385955Y-70117969D01*
X144428138Y-70231066D01*
X144468987Y-70335146D01*
X144472184Y-70349157D01*
X144475742Y-70358694D01*
X144503789Y-70487626D01*
X144528884Y-70597575D01*
X144529502Y-70605830D01*
X144530351Y-70609730D01*
X144541985Y-70772395D01*
X144549000Y-70866000D01*
X144541984Y-70959612D01*
X144530351Y-71122269D01*
X144529502Y-71126168D01*
X144528884Y-71134425D01*
X144503784Y-71244393D01*
X144475742Y-71373305D01*
X144472185Y-71382840D01*
X144468987Y-71396854D01*
X144428131Y-71500952D01*
X144385955Y-71614030D01*
X144378120Y-71628377D01*
X144370645Y-71647425D01*
X144316709Y-71740843D01*
X144262827Y-71839522D01*
X144249319Y-71857565D01*
X144236056Y-71880539D01*
X144171884Y-71961007D01*
X144108865Y-72045192D01*
X144088544Y-72065512D01*
X144068226Y-72090991D01*
X143996694Y-72157362D01*
X143927192Y-72226865D01*
X143899225Y-72247800D01*
X143870905Y-72274078D01*
X143794892Y-72325902D01*
X143721522Y-72380827D01*
X143685420Y-72400540D01*
X143648500Y-72425712D01*
X143570755Y-72463151D01*
X143496030Y-72503955D01*
X143451667Y-72520501D01*
X143405979Y-72542504D01*
X143329094Y-72566219D01*
X143255305Y-72593742D01*
X143202935Y-72605134D01*
X143148760Y-72621845D01*
X143075029Y-72632958D01*
X143004269Y-72648351D01*
X142944582Y-72652619D01*
X142882589Y-72661964D01*
X142813937Y-72661964D01*
X142748000Y-72666680D01*
X142682062Y-72661964D01*
X142613411Y-72661964D01*
X142551418Y-72652620D01*
X142491730Y-72648351D01*
X142420967Y-72632957D01*
X142347240Y-72621845D01*
X142293066Y-72605134D01*
X142240694Y-72593742D01*
X142166899Y-72566217D01*
X142090021Y-72542504D01*
X142044336Y-72520503D01*
X141999969Y-72503955D01*
X141925236Y-72463147D01*
X141847500Y-72425712D01*
X141810583Y-72400542D01*
X141774477Y-72380827D01*
X141701095Y-72325894D01*
X141625095Y-72274078D01*
X141596778Y-72247803D01*
X141568807Y-72226865D01*
X141499291Y-72157349D01*
X141427774Y-72090991D01*
X141407459Y-72065517D01*
X141387134Y-72045192D01*
X141324099Y-71960986D01*
X141259944Y-71880539D01*
X141246683Y-71857571D01*
X141233172Y-71839522D01*
X141179272Y-71740812D01*
X141125355Y-71647425D01*
X141117882Y-71628384D01*
X141110044Y-71614030D01*
X141067848Y-71500901D01*
X141027013Y-71396854D01*
X141023816Y-71382847D01*
X141020257Y-71373305D01*
X140992193Y-71244300D01*
X140967116Y-71134425D01*
X140966497Y-71126175D01*
X140965648Y-71122269D01*
X140953993Y-70959319D01*
X140947000Y-70866000D01*
X140953992Y-70772687D01*
X140965648Y-70609730D01*
X140966497Y-70605823D01*
X140967116Y-70597575D01*
X140992189Y-70487720D01*
X141020257Y-70358694D01*
X141023816Y-70349150D01*
X141027013Y-70335146D01*
X141067840Y-70231118D01*
X141110044Y-70117969D01*
X141117883Y-70103612D01*
X141125355Y-70084575D01*
X141179262Y-69991205D01*
X141233172Y-69892477D01*
X141246686Y-69874424D01*
X141259944Y-69851461D01*
X141324086Y-69771028D01*
X141387134Y-69686807D01*
X141407463Y-69666477D01*
X141427774Y-69641009D01*
X141499277Y-69574663D01*
X141568807Y-69505134D01*
X141596783Y-69484190D01*
X141625095Y-69457922D01*
X141701080Y-69406115D01*
X141774477Y-69351172D01*
X141810591Y-69331452D01*
X141847500Y-69306288D01*
X141925220Y-69268859D01*
X141999969Y-69228044D01*
X142044345Y-69211492D01*
X142090021Y-69189496D01*
X142166884Y-69165787D01*
X142240694Y-69138257D01*
X142293077Y-69126861D01*
X142347240Y-69110155D01*
X142420952Y-69099044D01*
X142491730Y-69083648D01*
X142551430Y-69079378D01*
X142613411Y-69070036D01*
X142682048Y-69070036D01*
X142748000Y-69065319D01*
X142813951Y-69070036D01*
G37*
G36*
X147893951Y-69070036D02*
G01*
X147962589Y-69070036D01*
X148024570Y-69079378D01*
X148084269Y-69083648D01*
X148155044Y-69099044D01*
X148228760Y-69110155D01*
X148282924Y-69126862D01*
X148335305Y-69138257D01*
X148409110Y-69165785D01*
X148485979Y-69189496D01*
X148531658Y-69211493D01*
X148576030Y-69228044D01*
X148650770Y-69268855D01*
X148728500Y-69306288D01*
X148765412Y-69331454D01*
X148801522Y-69351172D01*
X148874907Y-69406107D01*
X148950905Y-69457922D01*
X148979220Y-69484194D01*
X149007192Y-69505134D01*
X149076708Y-69574650D01*
X149148226Y-69641009D01*
X149168540Y-69666482D01*
X149188865Y-69686807D01*
X149251896Y-69771007D01*
X149316056Y-69851461D01*
X149329317Y-69874429D01*
X149342827Y-69892477D01*
X149396719Y-69991173D01*
X149450645Y-70084575D01*
X149458119Y-70103618D01*
X149465955Y-70117969D01*
X149508138Y-70231066D01*
X149548987Y-70335146D01*
X149552184Y-70349157D01*
X149555742Y-70358694D01*
X149583789Y-70487626D01*
X149608884Y-70597575D01*
X149609502Y-70605830D01*
X149610351Y-70609730D01*
X149621985Y-70772395D01*
X149629000Y-70866000D01*
X149621984Y-70959612D01*
X149610351Y-71122269D01*
X149609502Y-71126168D01*
X149608884Y-71134425D01*
X149583784Y-71244393D01*
X149555742Y-71373305D01*
X149552185Y-71382840D01*
X149548987Y-71396854D01*
X149508131Y-71500952D01*
X149465955Y-71614030D01*
X149458120Y-71628377D01*
X149450645Y-71647425D01*
X149396709Y-71740843D01*
X149342827Y-71839522D01*
X149329319Y-71857565D01*
X149316056Y-71880539D01*
X149251884Y-71961007D01*
X149188865Y-72045192D01*
X149168544Y-72065512D01*
X149148226Y-72090991D01*
X149076694Y-72157362D01*
X149007192Y-72226865D01*
X148979225Y-72247800D01*
X148950905Y-72274078D01*
X148874892Y-72325902D01*
X148801522Y-72380827D01*
X148765420Y-72400540D01*
X148728500Y-72425712D01*
X148650755Y-72463151D01*
X148576030Y-72503955D01*
X148531667Y-72520501D01*
X148485979Y-72542504D01*
X148409094Y-72566219D01*
X148335305Y-72593742D01*
X148282935Y-72605134D01*
X148228760Y-72621845D01*
X148155029Y-72632958D01*
X148084269Y-72648351D01*
X148024582Y-72652619D01*
X147962589Y-72661964D01*
X147893937Y-72661964D01*
X147828000Y-72666680D01*
X147762062Y-72661964D01*
X147693411Y-72661964D01*
X147631418Y-72652620D01*
X147571730Y-72648351D01*
X147500967Y-72632957D01*
X147427240Y-72621845D01*
X147373066Y-72605134D01*
X147320694Y-72593742D01*
X147246899Y-72566217D01*
X147170021Y-72542504D01*
X147124336Y-72520503D01*
X147079969Y-72503955D01*
X147005236Y-72463147D01*
X146927500Y-72425712D01*
X146890583Y-72400542D01*
X146854477Y-72380827D01*
X146781095Y-72325894D01*
X146705095Y-72274078D01*
X146676778Y-72247803D01*
X146648807Y-72226865D01*
X146579291Y-72157349D01*
X146507774Y-72090991D01*
X146487459Y-72065517D01*
X146467134Y-72045192D01*
X146404099Y-71960986D01*
X146339944Y-71880539D01*
X146326683Y-71857571D01*
X146313172Y-71839522D01*
X146259272Y-71740812D01*
X146205355Y-71647425D01*
X146197882Y-71628384D01*
X146190044Y-71614030D01*
X146147848Y-71500901D01*
X146107013Y-71396854D01*
X146103816Y-71382847D01*
X146100257Y-71373305D01*
X146072193Y-71244300D01*
X146047116Y-71134425D01*
X146046497Y-71126175D01*
X146045648Y-71122269D01*
X146033993Y-70959319D01*
X146027000Y-70866000D01*
X146033992Y-70772687D01*
X146045648Y-70609730D01*
X146046497Y-70605823D01*
X146047116Y-70597575D01*
X146072189Y-70487720D01*
X146100257Y-70358694D01*
X146103816Y-70349150D01*
X146107013Y-70335146D01*
X146147840Y-70231118D01*
X146190044Y-70117969D01*
X146197883Y-70103612D01*
X146205355Y-70084575D01*
X146259262Y-69991205D01*
X146313172Y-69892477D01*
X146326686Y-69874424D01*
X146339944Y-69851461D01*
X146404086Y-69771028D01*
X146467134Y-69686807D01*
X146487463Y-69666477D01*
X146507774Y-69641009D01*
X146579277Y-69574663D01*
X146648807Y-69505134D01*
X146676783Y-69484190D01*
X146705095Y-69457922D01*
X146781080Y-69406115D01*
X146854477Y-69351172D01*
X146890591Y-69331452D01*
X146927500Y-69306288D01*
X147005220Y-69268859D01*
X147079969Y-69228044D01*
X147124345Y-69211492D01*
X147170021Y-69189496D01*
X147246884Y-69165787D01*
X147320694Y-69138257D01*
X147373077Y-69126861D01*
X147427240Y-69110155D01*
X147500952Y-69099044D01*
X147571730Y-69083648D01*
X147631430Y-69079378D01*
X147693411Y-69070036D01*
X147762048Y-69070036D01*
X147828000Y-69065319D01*
X147893951Y-69070036D01*
G37*
G36*
X157799951Y-69070036D02*
G01*
X157868589Y-69070036D01*
X157930570Y-69079378D01*
X157990269Y-69083648D01*
X158061044Y-69099044D01*
X158134760Y-69110155D01*
X158188924Y-69126862D01*
X158241305Y-69138257D01*
X158315110Y-69165785D01*
X158391979Y-69189496D01*
X158437658Y-69211493D01*
X158482030Y-69228044D01*
X158556770Y-69268855D01*
X158634500Y-69306288D01*
X158671412Y-69331454D01*
X158707522Y-69351172D01*
X158780907Y-69406107D01*
X158856905Y-69457922D01*
X158885220Y-69484194D01*
X158913192Y-69505134D01*
X158982708Y-69574650D01*
X159054226Y-69641009D01*
X159074540Y-69666482D01*
X159094865Y-69686807D01*
X159157896Y-69771007D01*
X159222056Y-69851461D01*
X159235317Y-69874429D01*
X159248827Y-69892477D01*
X159302719Y-69991173D01*
X159356645Y-70084575D01*
X159364119Y-70103618D01*
X159371955Y-70117969D01*
X159414138Y-70231066D01*
X159454987Y-70335146D01*
X159458184Y-70349157D01*
X159461742Y-70358694D01*
X159489789Y-70487626D01*
X159514884Y-70597575D01*
X159515502Y-70605830D01*
X159516351Y-70609730D01*
X159527985Y-70772395D01*
X159535000Y-70866000D01*
X159527984Y-70959612D01*
X159516351Y-71122269D01*
X159515502Y-71126168D01*
X159514884Y-71134425D01*
X159489784Y-71244393D01*
X159461742Y-71373305D01*
X159458185Y-71382840D01*
X159454987Y-71396854D01*
X159414131Y-71500952D01*
X159371955Y-71614030D01*
X159364120Y-71628377D01*
X159356645Y-71647425D01*
X159302709Y-71740843D01*
X159248827Y-71839522D01*
X159235319Y-71857565D01*
X159222056Y-71880539D01*
X159157884Y-71961007D01*
X159094865Y-72045192D01*
X159074544Y-72065512D01*
X159054226Y-72090991D01*
X158982694Y-72157362D01*
X158913192Y-72226865D01*
X158885225Y-72247800D01*
X158856905Y-72274078D01*
X158780892Y-72325902D01*
X158707522Y-72380827D01*
X158671420Y-72400540D01*
X158634500Y-72425712D01*
X158556755Y-72463151D01*
X158482030Y-72503955D01*
X158437667Y-72520501D01*
X158391979Y-72542504D01*
X158315094Y-72566219D01*
X158241305Y-72593742D01*
X158188935Y-72605134D01*
X158134760Y-72621845D01*
X158061029Y-72632958D01*
X157990269Y-72648351D01*
X157930582Y-72652619D01*
X157868589Y-72661964D01*
X157799937Y-72661964D01*
X157734000Y-72666680D01*
X157668062Y-72661964D01*
X157599411Y-72661964D01*
X157537418Y-72652620D01*
X157477730Y-72648351D01*
X157406967Y-72632957D01*
X157333240Y-72621845D01*
X157279066Y-72605134D01*
X157226694Y-72593742D01*
X157152899Y-72566217D01*
X157076021Y-72542504D01*
X157030336Y-72520503D01*
X156985969Y-72503955D01*
X156911236Y-72463147D01*
X156833500Y-72425712D01*
X156796583Y-72400542D01*
X156760477Y-72380827D01*
X156687095Y-72325894D01*
X156611095Y-72274078D01*
X156582778Y-72247803D01*
X156554807Y-72226865D01*
X156485291Y-72157349D01*
X156413774Y-72090991D01*
X156393459Y-72065517D01*
X156373134Y-72045192D01*
X156310099Y-71960986D01*
X156245944Y-71880539D01*
X156232683Y-71857571D01*
X156219172Y-71839522D01*
X156165272Y-71740812D01*
X156111355Y-71647425D01*
X156103882Y-71628384D01*
X156096044Y-71614030D01*
X156053848Y-71500901D01*
X156013013Y-71396854D01*
X156009816Y-71382847D01*
X156006257Y-71373305D01*
X155978193Y-71244300D01*
X155953116Y-71134425D01*
X155952497Y-71126175D01*
X155951648Y-71122269D01*
X155939993Y-70959319D01*
X155933000Y-70866000D01*
X155939992Y-70772687D01*
X155951648Y-70609730D01*
X155952497Y-70605823D01*
X155953116Y-70597575D01*
X155978189Y-70487720D01*
X156006257Y-70358694D01*
X156009816Y-70349150D01*
X156013013Y-70335146D01*
X156053840Y-70231118D01*
X156096044Y-70117969D01*
X156103883Y-70103612D01*
X156111355Y-70084575D01*
X156165262Y-69991205D01*
X156219172Y-69892477D01*
X156232686Y-69874424D01*
X156245944Y-69851461D01*
X156310086Y-69771028D01*
X156373134Y-69686807D01*
X156393463Y-69666477D01*
X156413774Y-69641009D01*
X156485277Y-69574663D01*
X156554807Y-69505134D01*
X156582783Y-69484190D01*
X156611095Y-69457922D01*
X156687080Y-69406115D01*
X156760477Y-69351172D01*
X156796591Y-69331452D01*
X156833500Y-69306288D01*
X156911220Y-69268859D01*
X156985969Y-69228044D01*
X157030345Y-69211492D01*
X157076021Y-69189496D01*
X157152884Y-69165787D01*
X157226694Y-69138257D01*
X157279077Y-69126861D01*
X157333240Y-69110155D01*
X157406952Y-69099044D01*
X157477730Y-69083648D01*
X157537430Y-69079378D01*
X157599411Y-69070036D01*
X157668048Y-69070036D01*
X157734000Y-69065319D01*
X157799951Y-69070036D01*
G37*
G36*
X162879951Y-69070036D02*
G01*
X162948589Y-69070036D01*
X163010570Y-69079378D01*
X163070269Y-69083648D01*
X163141044Y-69099044D01*
X163214760Y-69110155D01*
X163268924Y-69126862D01*
X163321305Y-69138257D01*
X163395110Y-69165785D01*
X163471979Y-69189496D01*
X163517658Y-69211493D01*
X163562030Y-69228044D01*
X163636770Y-69268855D01*
X163714500Y-69306288D01*
X163751412Y-69331454D01*
X163787522Y-69351172D01*
X163860907Y-69406107D01*
X163936905Y-69457922D01*
X163965220Y-69484194D01*
X163993192Y-69505134D01*
X164062708Y-69574650D01*
X164134226Y-69641009D01*
X164154540Y-69666482D01*
X164174865Y-69686807D01*
X164237896Y-69771007D01*
X164302056Y-69851461D01*
X164315317Y-69874429D01*
X164328827Y-69892477D01*
X164382719Y-69991173D01*
X164436645Y-70084575D01*
X164444119Y-70103618D01*
X164451955Y-70117969D01*
X164494138Y-70231066D01*
X164534987Y-70335146D01*
X164538184Y-70349157D01*
X164541742Y-70358694D01*
X164569789Y-70487626D01*
X164594884Y-70597575D01*
X164595502Y-70605830D01*
X164596351Y-70609730D01*
X164607985Y-70772395D01*
X164615000Y-70866000D01*
X164607984Y-70959612D01*
X164596351Y-71122269D01*
X164595502Y-71126168D01*
X164594884Y-71134425D01*
X164569784Y-71244393D01*
X164541742Y-71373305D01*
X164538185Y-71382840D01*
X164534987Y-71396854D01*
X164494131Y-71500952D01*
X164451955Y-71614030D01*
X164444120Y-71628377D01*
X164436645Y-71647425D01*
X164382709Y-71740843D01*
X164328827Y-71839522D01*
X164315319Y-71857565D01*
X164302056Y-71880539D01*
X164237884Y-71961007D01*
X164174865Y-72045192D01*
X164154544Y-72065512D01*
X164134226Y-72090991D01*
X164062694Y-72157362D01*
X163993192Y-72226865D01*
X163965225Y-72247800D01*
X163936905Y-72274078D01*
X163860892Y-72325902D01*
X163787522Y-72380827D01*
X163751420Y-72400540D01*
X163714500Y-72425712D01*
X163636755Y-72463151D01*
X163562030Y-72503955D01*
X163517667Y-72520501D01*
X163471979Y-72542504D01*
X163395094Y-72566219D01*
X163321305Y-72593742D01*
X163268935Y-72605134D01*
X163214760Y-72621845D01*
X163141029Y-72632958D01*
X163070269Y-72648351D01*
X163010582Y-72652619D01*
X162948589Y-72661964D01*
X162879937Y-72661964D01*
X162814000Y-72666680D01*
X162748062Y-72661964D01*
X162679411Y-72661964D01*
X162617418Y-72652620D01*
X162557730Y-72648351D01*
X162486967Y-72632957D01*
X162413240Y-72621845D01*
X162359066Y-72605134D01*
X162306694Y-72593742D01*
X162232899Y-72566217D01*
X162156021Y-72542504D01*
X162110336Y-72520503D01*
X162065969Y-72503955D01*
X161991236Y-72463147D01*
X161913500Y-72425712D01*
X161876583Y-72400542D01*
X161840477Y-72380827D01*
X161767095Y-72325894D01*
X161691095Y-72274078D01*
X161662778Y-72247803D01*
X161634807Y-72226865D01*
X161565291Y-72157349D01*
X161493774Y-72090991D01*
X161473459Y-72065517D01*
X161453134Y-72045192D01*
X161390099Y-71960986D01*
X161325944Y-71880539D01*
X161312683Y-71857571D01*
X161299172Y-71839522D01*
X161245272Y-71740812D01*
X161191355Y-71647425D01*
X161183882Y-71628384D01*
X161176044Y-71614030D01*
X161133848Y-71500901D01*
X161093013Y-71396854D01*
X161089816Y-71382847D01*
X161086257Y-71373305D01*
X161058193Y-71244300D01*
X161033116Y-71134425D01*
X161032497Y-71126175D01*
X161031648Y-71122269D01*
X161019993Y-70959319D01*
X161013000Y-70866000D01*
X161019992Y-70772687D01*
X161031648Y-70609730D01*
X161032497Y-70605823D01*
X161033116Y-70597575D01*
X161058189Y-70487720D01*
X161086257Y-70358694D01*
X161089816Y-70349150D01*
X161093013Y-70335146D01*
X161133840Y-70231118D01*
X161176044Y-70117969D01*
X161183883Y-70103612D01*
X161191355Y-70084575D01*
X161245262Y-69991205D01*
X161299172Y-69892477D01*
X161312686Y-69874424D01*
X161325944Y-69851461D01*
X161390086Y-69771028D01*
X161453134Y-69686807D01*
X161473463Y-69666477D01*
X161493774Y-69641009D01*
X161565277Y-69574663D01*
X161634807Y-69505134D01*
X161662783Y-69484190D01*
X161691095Y-69457922D01*
X161767080Y-69406115D01*
X161840477Y-69351172D01*
X161876591Y-69331452D01*
X161913500Y-69306288D01*
X161991220Y-69268859D01*
X162065969Y-69228044D01*
X162110345Y-69211492D01*
X162156021Y-69189496D01*
X162232884Y-69165787D01*
X162306694Y-69138257D01*
X162359077Y-69126861D01*
X162413240Y-69110155D01*
X162486952Y-69099044D01*
X162557730Y-69083648D01*
X162617430Y-69079378D01*
X162679411Y-69070036D01*
X162748048Y-69070036D01*
X162814000Y-69065319D01*
X162879951Y-69070036D01*
G37*
G36*
X135977604Y-66564184D02*
G01*
X136314911Y-66621495D01*
X136643681Y-66716212D01*
X136959779Y-66847144D01*
X137259230Y-67012644D01*
X137538267Y-67210632D01*
X137793383Y-67438617D01*
X138021368Y-67693733D01*
X138219356Y-67972770D01*
X138384856Y-68272221D01*
X138515788Y-68588319D01*
X138610505Y-68917089D01*
X138667816Y-69254396D01*
X138687000Y-69596000D01*
X138667816Y-69937604D01*
X138610505Y-70274911D01*
X138515788Y-70603681D01*
X138384856Y-70919779D01*
X138219356Y-71219230D01*
X138021368Y-71498267D01*
X137793383Y-71753383D01*
X137538267Y-71981368D01*
X137259230Y-72179356D01*
X136959779Y-72344856D01*
X136643681Y-72475788D01*
X136314911Y-72570505D01*
X135977604Y-72627816D01*
X135636000Y-72647000D01*
X135294396Y-72627816D01*
X134957089Y-72570505D01*
X134628319Y-72475788D01*
X134312221Y-72344856D01*
X134012770Y-72179356D01*
X133733733Y-71981368D01*
X133478617Y-71753383D01*
X133250632Y-71498267D01*
X133052644Y-71219230D01*
X132887144Y-70919779D01*
X132756212Y-70603681D01*
X132661495Y-70274911D01*
X132604184Y-69937604D01*
X132585000Y-69596000D01*
X132604184Y-69254396D01*
X132661495Y-68917089D01*
X132756212Y-68588319D01*
X132887144Y-68272221D01*
X133052644Y-67972770D01*
X133250632Y-67693733D01*
X133478617Y-67438617D01*
X133733733Y-67210632D01*
X134012770Y-67012644D01*
X134312221Y-66847144D01*
X134628319Y-66716212D01*
X134957089Y-66621495D01*
X135294396Y-66564184D01*
X135636000Y-66545000D01*
X135977604Y-66564184D01*
G37*
G36*
X175347604Y-66564184D02*
G01*
X175684911Y-66621495D01*
X176013681Y-66716212D01*
X176329779Y-66847144D01*
X176629230Y-67012644D01*
X176908267Y-67210632D01*
X177163383Y-67438617D01*
X177391368Y-67693733D01*
X177589356Y-67972770D01*
X177754856Y-68272221D01*
X177885788Y-68588319D01*
X177980505Y-68917089D01*
X178037816Y-69254396D01*
X178057000Y-69596000D01*
X178037816Y-69937604D01*
X177980505Y-70274911D01*
X177885788Y-70603681D01*
X177754856Y-70919779D01*
X177589356Y-71219230D01*
X177391368Y-71498267D01*
X177163383Y-71753383D01*
X176908267Y-71981368D01*
X176629230Y-72179356D01*
X176329779Y-72344856D01*
X176013681Y-72475788D01*
X175684911Y-72570505D01*
X175347604Y-72627816D01*
X175006000Y-72647000D01*
X174664396Y-72627816D01*
X174327089Y-72570505D01*
X173998319Y-72475788D01*
X173682221Y-72344856D01*
X173382770Y-72179356D01*
X173103733Y-71981368D01*
X172848617Y-71753383D01*
X172620632Y-71498267D01*
X172422644Y-71219230D01*
X172257144Y-70919779D01*
X172126212Y-70603681D01*
X172031495Y-70274911D01*
X171974184Y-69937604D01*
X171955000Y-69596000D01*
X171974184Y-69254396D01*
X172031495Y-68917089D01*
X172126212Y-68588319D01*
X172257144Y-68272221D01*
X172422644Y-67972770D01*
X172620632Y-67693733D01*
X172848617Y-67438617D01*
X173103733Y-67210632D01*
X173382770Y-67012644D01*
X173682221Y-66847144D01*
X173998319Y-66716212D01*
X174327089Y-66621495D01*
X174664396Y-66564184D01*
X175006000Y-66545000D01*
X175347604Y-66564184D01*
G37*
M02*
