%TF.GenerationSoftware,KiCad,Pcbnew,7.0.9*%
%TF.CreationDate,2023-12-23T15:59:39+01:00*%
%TF.ProjectId,hub-1-wire,6875622d-312d-4776-9972-652e6b696361,v1.0*%
%TF.SameCoordinates,Original*%
%TF.FileFunction,Drillmap*%
%TF.FilePolarity,Positive*%
%FSLAX45Y45*%
G04 Gerber Fmt 4.5, Leading zero omitted, Abs format (unit mm)*
G04 Created by KiCad (PCBNEW 7.0.9) date 2023-12-23 15:59:39*
%MOMM*%
%LPD*%
G01*
G04 APERTURE LIST*
%ADD10C,0.150000*%
%ADD11C,0.200000*%
%ADD12C,0.100000*%
%ADD13C,0.120000*%
%ADD14C,0.300000*%
G04 APERTURE END LIST*
D10*
X17945100Y-9753600D02*
X17945100Y-11150600D01*
X17373600Y-9753600D02*
X17945100Y-9753600D01*
X17373600Y-7912100D02*
X17373600Y-9753600D01*
X17373600Y-7912100D02*
X17945100Y-7912100D01*
X13119100Y-11150600D02*
X17945100Y-11150600D01*
X13119100Y-11150600D02*
X13119100Y-6578600D01*
X17945100Y-6578600D02*
X17945100Y-7912100D01*
X13119100Y-6578600D02*
X17945100Y-6578600D01*
D11*
D12*
X13988100Y-9073200D02*
X14028100Y-9113200D01*
X14028100Y-9073200D02*
X13988100Y-9113200D01*
X14242100Y-9987600D02*
X14282100Y-10027600D01*
X14282100Y-9987600D02*
X14242100Y-10027600D01*
X14369100Y-7892100D02*
X14409100Y-7932100D01*
X14409100Y-7892100D02*
X14369100Y-7932100D01*
X14661200Y-8184200D02*
X14701200Y-8224200D01*
X14701200Y-8184200D02*
X14661200Y-8224200D01*
X15258100Y-7638100D02*
X15298100Y-7678100D01*
X15298100Y-7638100D02*
X15258100Y-7678100D01*
X15512100Y-10051100D02*
X15552100Y-10091100D01*
X15552100Y-10051100D02*
X15512100Y-10091100D01*
X15702600Y-9670100D02*
X15742600Y-9710100D01*
X15742600Y-9670100D02*
X15702600Y-9710100D01*
X16845600Y-7638100D02*
X16885600Y-7678100D01*
X16885600Y-7638100D02*
X16845600Y-7678100D01*
X15826100Y-8394600D02*
G75*
G03*
X15826100Y-8394600I-40000J0D01*
G01*
X15826100Y-8648600D02*
G75*
G03*
X15826100Y-8648600I-40000J0D01*
G01*
X15826100Y-8902600D02*
G75*
G03*
X15826100Y-8902600I-40000J0D01*
G01*
X15826100Y-9156600D02*
G75*
G03*
X15826100Y-9156600I-40000J0D01*
G01*
X16080100Y-8521600D02*
G75*
G03*
X16080100Y-8521600I-40000J0D01*
G01*
X16080100Y-8775600D02*
G75*
G03*
X16080100Y-8775600I-40000J0D01*
G01*
X16080100Y-9029600D02*
G75*
G03*
X16080100Y-9029600I-40000J0D01*
G01*
X16080100Y-9283600D02*
G75*
G03*
X16080100Y-9283600I-40000J0D01*
G01*
D13*
X13436600Y-7534600D02*
X13436600Y-7654600D01*
X13376600Y-7594600D02*
X13496600Y-7594600D01*
X13436600Y-8042600D02*
X13436600Y-8162600D01*
X13376600Y-8102600D02*
X13496600Y-8102600D01*
X13436600Y-8550600D02*
X13436600Y-8670600D01*
X13376600Y-8610600D02*
X13496600Y-8610600D01*
X13436600Y-9033200D02*
X13436600Y-9153200D01*
X13376600Y-9093200D02*
X13496600Y-9093200D01*
X13436600Y-9541200D02*
X13436600Y-9661200D01*
X13376600Y-9601200D02*
X13496600Y-9601200D01*
X13436600Y-10049200D02*
X13436600Y-10169200D01*
X13376600Y-10109200D02*
X13496600Y-10109200D01*
X14274800Y-7026600D02*
X14274800Y-7146600D01*
X14214800Y-7086600D02*
X14334800Y-7086600D01*
X14274800Y-10519100D02*
X14274800Y-10639100D01*
X14214800Y-10579100D02*
X14334800Y-10579100D01*
X14782800Y-7026600D02*
X14782800Y-7146600D01*
X14722800Y-7086600D02*
X14842800Y-7086600D01*
X14782800Y-10519100D02*
X14782800Y-10639100D01*
X14722800Y-10579100D02*
X14842800Y-10579100D01*
X15290800Y-7026600D02*
X15290800Y-7146600D01*
X15230800Y-7086600D02*
X15350800Y-7086600D01*
X15290800Y-10519100D02*
X15290800Y-10639100D01*
X15230800Y-10579100D02*
X15350800Y-10579100D01*
X15773400Y-7026600D02*
X15773400Y-7146600D01*
X15713400Y-7086600D02*
X15833400Y-7086600D01*
X15773400Y-10519100D02*
X15773400Y-10639100D01*
X15713400Y-10579100D02*
X15833400Y-10579100D01*
X16281400Y-7026600D02*
X16281400Y-7146600D01*
X16221400Y-7086600D02*
X16341400Y-7086600D01*
X16281400Y-10519100D02*
X16281400Y-10639100D01*
X16221400Y-10579100D02*
X16341400Y-10579100D01*
X16789400Y-7026600D02*
X16789400Y-7146600D01*
X16729400Y-7086600D02*
X16849400Y-7086600D01*
X16789400Y-10519100D02*
X16789400Y-10639100D01*
X16729400Y-10579100D02*
X16849400Y-10579100D01*
D14*
X13669667Y-7065667D02*
X13669667Y-6853533D01*
X13457533Y-6853533D01*
X13457533Y-7065667D01*
X13669667Y-7065667D01*
X13669667Y-10875667D02*
X13669667Y-10663533D01*
X13457533Y-10663533D01*
X13457533Y-10875667D01*
X13669667Y-10875667D01*
X17606667Y-7065667D02*
X17606667Y-6853533D01*
X17394533Y-6853533D01*
X17394533Y-7065667D01*
X17606667Y-7065667D01*
X17606667Y-10875667D02*
X17606667Y-10663533D01*
X17394533Y-10663533D01*
X17394533Y-10875667D01*
X17606667Y-10875667D01*
D11*
X13372377Y-11469584D02*
X13372377Y-11269584D01*
X13372377Y-11269584D02*
X13419996Y-11269584D01*
X13419996Y-11269584D02*
X13448567Y-11279108D01*
X13448567Y-11279108D02*
X13467615Y-11298155D01*
X13467615Y-11298155D02*
X13477139Y-11317203D01*
X13477139Y-11317203D02*
X13486662Y-11355298D01*
X13486662Y-11355298D02*
X13486662Y-11383869D01*
X13486662Y-11383869D02*
X13477139Y-11421965D01*
X13477139Y-11421965D02*
X13467615Y-11441012D01*
X13467615Y-11441012D02*
X13448567Y-11460060D01*
X13448567Y-11460060D02*
X13419996Y-11469584D01*
X13419996Y-11469584D02*
X13372377Y-11469584D01*
X13572377Y-11469584D02*
X13572377Y-11336250D01*
X13572377Y-11374346D02*
X13581901Y-11355298D01*
X13581901Y-11355298D02*
X13591424Y-11345774D01*
X13591424Y-11345774D02*
X13610472Y-11336250D01*
X13610472Y-11336250D02*
X13629520Y-11336250D01*
X13696186Y-11469584D02*
X13696186Y-11336250D01*
X13696186Y-11269584D02*
X13686662Y-11279108D01*
X13686662Y-11279108D02*
X13696186Y-11288631D01*
X13696186Y-11288631D02*
X13705710Y-11279108D01*
X13705710Y-11279108D02*
X13696186Y-11269584D01*
X13696186Y-11269584D02*
X13696186Y-11288631D01*
X13819996Y-11469584D02*
X13800948Y-11460060D01*
X13800948Y-11460060D02*
X13791424Y-11441012D01*
X13791424Y-11441012D02*
X13791424Y-11269584D01*
X13924758Y-11469584D02*
X13905710Y-11460060D01*
X13905710Y-11460060D02*
X13896186Y-11441012D01*
X13896186Y-11441012D02*
X13896186Y-11269584D01*
X14153329Y-11469584D02*
X14153329Y-11269584D01*
X14153329Y-11269584D02*
X14219996Y-11412441D01*
X14219996Y-11412441D02*
X14286662Y-11269584D01*
X14286662Y-11269584D02*
X14286662Y-11469584D01*
X14467615Y-11469584D02*
X14467615Y-11364822D01*
X14467615Y-11364822D02*
X14458091Y-11345774D01*
X14458091Y-11345774D02*
X14439043Y-11336250D01*
X14439043Y-11336250D02*
X14400948Y-11336250D01*
X14400948Y-11336250D02*
X14381901Y-11345774D01*
X14467615Y-11460060D02*
X14448567Y-11469584D01*
X14448567Y-11469584D02*
X14400948Y-11469584D01*
X14400948Y-11469584D02*
X14381901Y-11460060D01*
X14381901Y-11460060D02*
X14372377Y-11441012D01*
X14372377Y-11441012D02*
X14372377Y-11421965D01*
X14372377Y-11421965D02*
X14381901Y-11402917D01*
X14381901Y-11402917D02*
X14400948Y-11393393D01*
X14400948Y-11393393D02*
X14448567Y-11393393D01*
X14448567Y-11393393D02*
X14467615Y-11383869D01*
X14562853Y-11336250D02*
X14562853Y-11536250D01*
X14562853Y-11345774D02*
X14581901Y-11336250D01*
X14581901Y-11336250D02*
X14619996Y-11336250D01*
X14619996Y-11336250D02*
X14639043Y-11345774D01*
X14639043Y-11345774D02*
X14648567Y-11355298D01*
X14648567Y-11355298D02*
X14658091Y-11374346D01*
X14658091Y-11374346D02*
X14658091Y-11431488D01*
X14658091Y-11431488D02*
X14648567Y-11450536D01*
X14648567Y-11450536D02*
X14639043Y-11460060D01*
X14639043Y-11460060D02*
X14619996Y-11469584D01*
X14619996Y-11469584D02*
X14581901Y-11469584D01*
X14581901Y-11469584D02*
X14562853Y-11460060D01*
X14743805Y-11450536D02*
X14753329Y-11460060D01*
X14753329Y-11460060D02*
X14743805Y-11469584D01*
X14743805Y-11469584D02*
X14734282Y-11460060D01*
X14734282Y-11460060D02*
X14743805Y-11450536D01*
X14743805Y-11450536D02*
X14743805Y-11469584D01*
X14743805Y-11345774D02*
X14753329Y-11355298D01*
X14753329Y-11355298D02*
X14743805Y-11364822D01*
X14743805Y-11364822D02*
X14734282Y-11355298D01*
X14734282Y-11355298D02*
X14743805Y-11345774D01*
X14743805Y-11345774D02*
X14743805Y-11364822D01*
D12*
X13071600Y-11778100D02*
X13111600Y-11818100D01*
X13111600Y-11778100D02*
X13071600Y-11818100D01*
D11*
X13410472Y-11689584D02*
X13429520Y-11689584D01*
X13429520Y-11689584D02*
X13448567Y-11699108D01*
X13448567Y-11699108D02*
X13458091Y-11708631D01*
X13458091Y-11708631D02*
X13467615Y-11727679D01*
X13467615Y-11727679D02*
X13477139Y-11765774D01*
X13477139Y-11765774D02*
X13477139Y-11813393D01*
X13477139Y-11813393D02*
X13467615Y-11851488D01*
X13467615Y-11851488D02*
X13458091Y-11870536D01*
X13458091Y-11870536D02*
X13448567Y-11880060D01*
X13448567Y-11880060D02*
X13429520Y-11889584D01*
X13429520Y-11889584D02*
X13410472Y-11889584D01*
X13410472Y-11889584D02*
X13391424Y-11880060D01*
X13391424Y-11880060D02*
X13381901Y-11870536D01*
X13381901Y-11870536D02*
X13372377Y-11851488D01*
X13372377Y-11851488D02*
X13362853Y-11813393D01*
X13362853Y-11813393D02*
X13362853Y-11765774D01*
X13362853Y-11765774D02*
X13372377Y-11727679D01*
X13372377Y-11727679D02*
X13381901Y-11708631D01*
X13381901Y-11708631D02*
X13391424Y-11699108D01*
X13391424Y-11699108D02*
X13410472Y-11689584D01*
X13562853Y-11870536D02*
X13572377Y-11880060D01*
X13572377Y-11880060D02*
X13562853Y-11889584D01*
X13562853Y-11889584D02*
X13553329Y-11880060D01*
X13553329Y-11880060D02*
X13562853Y-11870536D01*
X13562853Y-11870536D02*
X13562853Y-11889584D01*
X13743805Y-11756250D02*
X13743805Y-11889584D01*
X13696186Y-11680060D02*
X13648567Y-11822917D01*
X13648567Y-11822917D02*
X13772377Y-11822917D01*
X13886662Y-11689584D02*
X13905710Y-11689584D01*
X13905710Y-11689584D02*
X13924758Y-11699108D01*
X13924758Y-11699108D02*
X13934282Y-11708631D01*
X13934282Y-11708631D02*
X13943805Y-11727679D01*
X13943805Y-11727679D02*
X13953329Y-11765774D01*
X13953329Y-11765774D02*
X13953329Y-11813393D01*
X13953329Y-11813393D02*
X13943805Y-11851488D01*
X13943805Y-11851488D02*
X13934282Y-11870536D01*
X13934282Y-11870536D02*
X13924758Y-11880060D01*
X13924758Y-11880060D02*
X13905710Y-11889584D01*
X13905710Y-11889584D02*
X13886662Y-11889584D01*
X13886662Y-11889584D02*
X13867615Y-11880060D01*
X13867615Y-11880060D02*
X13858091Y-11870536D01*
X13858091Y-11870536D02*
X13848567Y-11851488D01*
X13848567Y-11851488D02*
X13839043Y-11813393D01*
X13839043Y-11813393D02*
X13839043Y-11765774D01*
X13839043Y-11765774D02*
X13848567Y-11727679D01*
X13848567Y-11727679D02*
X13858091Y-11708631D01*
X13858091Y-11708631D02*
X13867615Y-11699108D01*
X13867615Y-11699108D02*
X13886662Y-11689584D01*
X14077139Y-11689584D02*
X14096186Y-11689584D01*
X14096186Y-11689584D02*
X14115234Y-11699108D01*
X14115234Y-11699108D02*
X14124758Y-11708631D01*
X14124758Y-11708631D02*
X14134282Y-11727679D01*
X14134282Y-11727679D02*
X14143805Y-11765774D01*
X14143805Y-11765774D02*
X14143805Y-11813393D01*
X14143805Y-11813393D02*
X14134282Y-11851488D01*
X14134282Y-11851488D02*
X14124758Y-11870536D01*
X14124758Y-11870536D02*
X14115234Y-11880060D01*
X14115234Y-11880060D02*
X14096186Y-11889584D01*
X14096186Y-11889584D02*
X14077139Y-11889584D01*
X14077139Y-11889584D02*
X14058091Y-11880060D01*
X14058091Y-11880060D02*
X14048567Y-11870536D01*
X14048567Y-11870536D02*
X14039043Y-11851488D01*
X14039043Y-11851488D02*
X14029520Y-11813393D01*
X14029520Y-11813393D02*
X14029520Y-11765774D01*
X14029520Y-11765774D02*
X14039043Y-11727679D01*
X14039043Y-11727679D02*
X14048567Y-11708631D01*
X14048567Y-11708631D02*
X14058091Y-11699108D01*
X14058091Y-11699108D02*
X14077139Y-11689584D01*
X14229520Y-11889584D02*
X14229520Y-11756250D01*
X14229520Y-11775298D02*
X14239043Y-11765774D01*
X14239043Y-11765774D02*
X14258091Y-11756250D01*
X14258091Y-11756250D02*
X14286663Y-11756250D01*
X14286663Y-11756250D02*
X14305710Y-11765774D01*
X14305710Y-11765774D02*
X14315234Y-11784822D01*
X14315234Y-11784822D02*
X14315234Y-11889584D01*
X14315234Y-11784822D02*
X14324758Y-11765774D01*
X14324758Y-11765774D02*
X14343805Y-11756250D01*
X14343805Y-11756250D02*
X14372377Y-11756250D01*
X14372377Y-11756250D02*
X14391424Y-11765774D01*
X14391424Y-11765774D02*
X14400948Y-11784822D01*
X14400948Y-11784822D02*
X14400948Y-11889584D01*
X14496186Y-11889584D02*
X14496186Y-11756250D01*
X14496186Y-11775298D02*
X14505710Y-11765774D01*
X14505710Y-11765774D02*
X14524758Y-11756250D01*
X14524758Y-11756250D02*
X14553329Y-11756250D01*
X14553329Y-11756250D02*
X14572377Y-11765774D01*
X14572377Y-11765774D02*
X14581901Y-11784822D01*
X14581901Y-11784822D02*
X14581901Y-11889584D01*
X14581901Y-11784822D02*
X14591424Y-11765774D01*
X14591424Y-11765774D02*
X14610472Y-11756250D01*
X14610472Y-11756250D02*
X14639043Y-11756250D01*
X14639043Y-11756250D02*
X14658091Y-11765774D01*
X14658091Y-11765774D02*
X14667615Y-11784822D01*
X14667615Y-11784822D02*
X14667615Y-11889584D01*
X15058091Y-11680060D02*
X14886663Y-11937203D01*
X15315234Y-11689584D02*
X15334282Y-11689584D01*
X15334282Y-11689584D02*
X15353329Y-11699108D01*
X15353329Y-11699108D02*
X15362853Y-11708631D01*
X15362853Y-11708631D02*
X15372377Y-11727679D01*
X15372377Y-11727679D02*
X15381901Y-11765774D01*
X15381901Y-11765774D02*
X15381901Y-11813393D01*
X15381901Y-11813393D02*
X15372377Y-11851488D01*
X15372377Y-11851488D02*
X15362853Y-11870536D01*
X15362853Y-11870536D02*
X15353329Y-11880060D01*
X15353329Y-11880060D02*
X15334282Y-11889584D01*
X15334282Y-11889584D02*
X15315234Y-11889584D01*
X15315234Y-11889584D02*
X15296186Y-11880060D01*
X15296186Y-11880060D02*
X15286663Y-11870536D01*
X15286663Y-11870536D02*
X15277139Y-11851488D01*
X15277139Y-11851488D02*
X15267615Y-11813393D01*
X15267615Y-11813393D02*
X15267615Y-11765774D01*
X15267615Y-11765774D02*
X15277139Y-11727679D01*
X15277139Y-11727679D02*
X15286663Y-11708631D01*
X15286663Y-11708631D02*
X15296186Y-11699108D01*
X15296186Y-11699108D02*
X15315234Y-11689584D01*
X15467615Y-11870536D02*
X15477139Y-11880060D01*
X15477139Y-11880060D02*
X15467615Y-11889584D01*
X15467615Y-11889584D02*
X15458091Y-11880060D01*
X15458091Y-11880060D02*
X15467615Y-11870536D01*
X15467615Y-11870536D02*
X15467615Y-11889584D01*
X15600948Y-11689584D02*
X15619996Y-11689584D01*
X15619996Y-11689584D02*
X15639044Y-11699108D01*
X15639044Y-11699108D02*
X15648567Y-11708631D01*
X15648567Y-11708631D02*
X15658091Y-11727679D01*
X15658091Y-11727679D02*
X15667615Y-11765774D01*
X15667615Y-11765774D02*
X15667615Y-11813393D01*
X15667615Y-11813393D02*
X15658091Y-11851488D01*
X15658091Y-11851488D02*
X15648567Y-11870536D01*
X15648567Y-11870536D02*
X15639044Y-11880060D01*
X15639044Y-11880060D02*
X15619996Y-11889584D01*
X15619996Y-11889584D02*
X15600948Y-11889584D01*
X15600948Y-11889584D02*
X15581901Y-11880060D01*
X15581901Y-11880060D02*
X15572377Y-11870536D01*
X15572377Y-11870536D02*
X15562853Y-11851488D01*
X15562853Y-11851488D02*
X15553329Y-11813393D01*
X15553329Y-11813393D02*
X15553329Y-11765774D01*
X15553329Y-11765774D02*
X15562853Y-11727679D01*
X15562853Y-11727679D02*
X15572377Y-11708631D01*
X15572377Y-11708631D02*
X15581901Y-11699108D01*
X15581901Y-11699108D02*
X15600948Y-11689584D01*
X15858091Y-11889584D02*
X15743806Y-11889584D01*
X15800948Y-11889584D02*
X15800948Y-11689584D01*
X15800948Y-11689584D02*
X15781901Y-11718155D01*
X15781901Y-11718155D02*
X15762853Y-11737203D01*
X15762853Y-11737203D02*
X15743806Y-11746727D01*
X16039044Y-11689584D02*
X15943806Y-11689584D01*
X15943806Y-11689584D02*
X15934282Y-11784822D01*
X15934282Y-11784822D02*
X15943806Y-11775298D01*
X15943806Y-11775298D02*
X15962853Y-11765774D01*
X15962853Y-11765774D02*
X16010472Y-11765774D01*
X16010472Y-11765774D02*
X16029520Y-11775298D01*
X16029520Y-11775298D02*
X16039044Y-11784822D01*
X16039044Y-11784822D02*
X16048567Y-11803869D01*
X16048567Y-11803869D02*
X16048567Y-11851488D01*
X16048567Y-11851488D02*
X16039044Y-11870536D01*
X16039044Y-11870536D02*
X16029520Y-11880060D01*
X16029520Y-11880060D02*
X16010472Y-11889584D01*
X16010472Y-11889584D02*
X15962853Y-11889584D01*
X15962853Y-11889584D02*
X15943806Y-11880060D01*
X15943806Y-11880060D02*
X15934282Y-11870536D01*
X16115234Y-11689584D02*
X16248567Y-11689584D01*
X16248567Y-11689584D02*
X16162853Y-11889584D01*
X16315234Y-11689584D02*
X16315234Y-11727679D01*
X16391425Y-11689584D02*
X16391425Y-11727679D01*
X16686663Y-11965774D02*
X16677139Y-11956250D01*
X16677139Y-11956250D02*
X16658091Y-11927679D01*
X16658091Y-11927679D02*
X16648568Y-11908631D01*
X16648568Y-11908631D02*
X16639044Y-11880060D01*
X16639044Y-11880060D02*
X16629520Y-11832441D01*
X16629520Y-11832441D02*
X16629520Y-11794346D01*
X16629520Y-11794346D02*
X16639044Y-11746727D01*
X16639044Y-11746727D02*
X16648568Y-11718155D01*
X16648568Y-11718155D02*
X16658091Y-11699108D01*
X16658091Y-11699108D02*
X16677139Y-11670536D01*
X16677139Y-11670536D02*
X16686663Y-11661012D01*
X16791425Y-11775298D02*
X16772377Y-11765774D01*
X16772377Y-11765774D02*
X16762853Y-11756250D01*
X16762853Y-11756250D02*
X16753329Y-11737203D01*
X16753329Y-11737203D02*
X16753329Y-11727679D01*
X16753329Y-11727679D02*
X16762853Y-11708631D01*
X16762853Y-11708631D02*
X16772377Y-11699108D01*
X16772377Y-11699108D02*
X16791425Y-11689584D01*
X16791425Y-11689584D02*
X16829520Y-11689584D01*
X16829520Y-11689584D02*
X16848568Y-11699108D01*
X16848568Y-11699108D02*
X16858091Y-11708631D01*
X16858091Y-11708631D02*
X16867615Y-11727679D01*
X16867615Y-11727679D02*
X16867615Y-11737203D01*
X16867615Y-11737203D02*
X16858091Y-11756250D01*
X16858091Y-11756250D02*
X16848568Y-11765774D01*
X16848568Y-11765774D02*
X16829520Y-11775298D01*
X16829520Y-11775298D02*
X16791425Y-11775298D01*
X16791425Y-11775298D02*
X16772377Y-11784822D01*
X16772377Y-11784822D02*
X16762853Y-11794346D01*
X16762853Y-11794346D02*
X16753329Y-11813393D01*
X16753329Y-11813393D02*
X16753329Y-11851488D01*
X16753329Y-11851488D02*
X16762853Y-11870536D01*
X16762853Y-11870536D02*
X16772377Y-11880060D01*
X16772377Y-11880060D02*
X16791425Y-11889584D01*
X16791425Y-11889584D02*
X16829520Y-11889584D01*
X16829520Y-11889584D02*
X16848568Y-11880060D01*
X16848568Y-11880060D02*
X16858091Y-11870536D01*
X16858091Y-11870536D02*
X16867615Y-11851488D01*
X16867615Y-11851488D02*
X16867615Y-11813393D01*
X16867615Y-11813393D02*
X16858091Y-11794346D01*
X16858091Y-11794346D02*
X16848568Y-11784822D01*
X16848568Y-11784822D02*
X16829520Y-11775298D01*
X17105711Y-11889584D02*
X17105711Y-11689584D01*
X17191425Y-11889584D02*
X17191425Y-11784822D01*
X17191425Y-11784822D02*
X17181901Y-11765774D01*
X17181901Y-11765774D02*
X17162853Y-11756250D01*
X17162853Y-11756250D02*
X17134282Y-11756250D01*
X17134282Y-11756250D02*
X17115234Y-11765774D01*
X17115234Y-11765774D02*
X17105711Y-11775298D01*
X17315234Y-11889584D02*
X17296187Y-11880060D01*
X17296187Y-11880060D02*
X17286663Y-11870536D01*
X17286663Y-11870536D02*
X17277139Y-11851488D01*
X17277139Y-11851488D02*
X17277139Y-11794346D01*
X17277139Y-11794346D02*
X17286663Y-11775298D01*
X17286663Y-11775298D02*
X17296187Y-11765774D01*
X17296187Y-11765774D02*
X17315234Y-11756250D01*
X17315234Y-11756250D02*
X17343806Y-11756250D01*
X17343806Y-11756250D02*
X17362853Y-11765774D01*
X17362853Y-11765774D02*
X17372377Y-11775298D01*
X17372377Y-11775298D02*
X17381901Y-11794346D01*
X17381901Y-11794346D02*
X17381901Y-11851488D01*
X17381901Y-11851488D02*
X17372377Y-11870536D01*
X17372377Y-11870536D02*
X17362853Y-11880060D01*
X17362853Y-11880060D02*
X17343806Y-11889584D01*
X17343806Y-11889584D02*
X17315234Y-11889584D01*
X17496187Y-11889584D02*
X17477139Y-11880060D01*
X17477139Y-11880060D02*
X17467615Y-11861012D01*
X17467615Y-11861012D02*
X17467615Y-11689584D01*
X17648568Y-11880060D02*
X17629520Y-11889584D01*
X17629520Y-11889584D02*
X17591425Y-11889584D01*
X17591425Y-11889584D02*
X17572377Y-11880060D01*
X17572377Y-11880060D02*
X17562853Y-11861012D01*
X17562853Y-11861012D02*
X17562853Y-11784822D01*
X17562853Y-11784822D02*
X17572377Y-11765774D01*
X17572377Y-11765774D02*
X17591425Y-11756250D01*
X17591425Y-11756250D02*
X17629520Y-11756250D01*
X17629520Y-11756250D02*
X17648568Y-11765774D01*
X17648568Y-11765774D02*
X17658092Y-11784822D01*
X17658092Y-11784822D02*
X17658092Y-11803869D01*
X17658092Y-11803869D02*
X17562853Y-11822917D01*
X17734282Y-11880060D02*
X17753330Y-11889584D01*
X17753330Y-11889584D02*
X17791425Y-11889584D01*
X17791425Y-11889584D02*
X17810473Y-11880060D01*
X17810473Y-11880060D02*
X17819996Y-11861012D01*
X17819996Y-11861012D02*
X17819996Y-11851488D01*
X17819996Y-11851488D02*
X17810473Y-11832441D01*
X17810473Y-11832441D02*
X17791425Y-11822917D01*
X17791425Y-11822917D02*
X17762853Y-11822917D01*
X17762853Y-11822917D02*
X17743806Y-11813393D01*
X17743806Y-11813393D02*
X17734282Y-11794346D01*
X17734282Y-11794346D02*
X17734282Y-11784822D01*
X17734282Y-11784822D02*
X17743806Y-11765774D01*
X17743806Y-11765774D02*
X17762853Y-11756250D01*
X17762853Y-11756250D02*
X17791425Y-11756250D01*
X17791425Y-11756250D02*
X17810473Y-11765774D01*
X17886663Y-11965774D02*
X17896187Y-11956250D01*
X17896187Y-11956250D02*
X17915234Y-11927679D01*
X17915234Y-11927679D02*
X17924758Y-11908631D01*
X17924758Y-11908631D02*
X17934282Y-11880060D01*
X17934282Y-11880060D02*
X17943806Y-11832441D01*
X17943806Y-11832441D02*
X17943806Y-11794346D01*
X17943806Y-11794346D02*
X17934282Y-11746727D01*
X17934282Y-11746727D02*
X17924758Y-11718155D01*
X17924758Y-11718155D02*
X17915234Y-11699108D01*
X17915234Y-11699108D02*
X17896187Y-11670536D01*
X17896187Y-11670536D02*
X17886663Y-11661012D01*
D12*
X13111600Y-12062100D02*
G75*
G03*
X13111600Y-12062100I-40000J0D01*
G01*
D11*
X13410472Y-11953584D02*
X13429520Y-11953584D01*
X13429520Y-11953584D02*
X13448567Y-11963108D01*
X13448567Y-11963108D02*
X13458091Y-11972631D01*
X13458091Y-11972631D02*
X13467615Y-11991679D01*
X13467615Y-11991679D02*
X13477139Y-12029774D01*
X13477139Y-12029774D02*
X13477139Y-12077393D01*
X13477139Y-12077393D02*
X13467615Y-12115488D01*
X13467615Y-12115488D02*
X13458091Y-12134536D01*
X13458091Y-12134536D02*
X13448567Y-12144060D01*
X13448567Y-12144060D02*
X13429520Y-12153584D01*
X13429520Y-12153584D02*
X13410472Y-12153584D01*
X13410472Y-12153584D02*
X13391424Y-12144060D01*
X13391424Y-12144060D02*
X13381901Y-12134536D01*
X13381901Y-12134536D02*
X13372377Y-12115488D01*
X13372377Y-12115488D02*
X13362853Y-12077393D01*
X13362853Y-12077393D02*
X13362853Y-12029774D01*
X13362853Y-12029774D02*
X13372377Y-11991679D01*
X13372377Y-11991679D02*
X13381901Y-11972631D01*
X13381901Y-11972631D02*
X13391424Y-11963108D01*
X13391424Y-11963108D02*
X13410472Y-11953584D01*
X13562853Y-12134536D02*
X13572377Y-12144060D01*
X13572377Y-12144060D02*
X13562853Y-12153584D01*
X13562853Y-12153584D02*
X13553329Y-12144060D01*
X13553329Y-12144060D02*
X13562853Y-12134536D01*
X13562853Y-12134536D02*
X13562853Y-12153584D01*
X13686662Y-12039298D02*
X13667615Y-12029774D01*
X13667615Y-12029774D02*
X13658091Y-12020250D01*
X13658091Y-12020250D02*
X13648567Y-12001203D01*
X13648567Y-12001203D02*
X13648567Y-11991679D01*
X13648567Y-11991679D02*
X13658091Y-11972631D01*
X13658091Y-11972631D02*
X13667615Y-11963108D01*
X13667615Y-11963108D02*
X13686662Y-11953584D01*
X13686662Y-11953584D02*
X13724758Y-11953584D01*
X13724758Y-11953584D02*
X13743805Y-11963108D01*
X13743805Y-11963108D02*
X13753329Y-11972631D01*
X13753329Y-11972631D02*
X13762853Y-11991679D01*
X13762853Y-11991679D02*
X13762853Y-12001203D01*
X13762853Y-12001203D02*
X13753329Y-12020250D01*
X13753329Y-12020250D02*
X13743805Y-12029774D01*
X13743805Y-12029774D02*
X13724758Y-12039298D01*
X13724758Y-12039298D02*
X13686662Y-12039298D01*
X13686662Y-12039298D02*
X13667615Y-12048822D01*
X13667615Y-12048822D02*
X13658091Y-12058346D01*
X13658091Y-12058346D02*
X13648567Y-12077393D01*
X13648567Y-12077393D02*
X13648567Y-12115488D01*
X13648567Y-12115488D02*
X13658091Y-12134536D01*
X13658091Y-12134536D02*
X13667615Y-12144060D01*
X13667615Y-12144060D02*
X13686662Y-12153584D01*
X13686662Y-12153584D02*
X13724758Y-12153584D01*
X13724758Y-12153584D02*
X13743805Y-12144060D01*
X13743805Y-12144060D02*
X13753329Y-12134536D01*
X13753329Y-12134536D02*
X13762853Y-12115488D01*
X13762853Y-12115488D02*
X13762853Y-12077393D01*
X13762853Y-12077393D02*
X13753329Y-12058346D01*
X13753329Y-12058346D02*
X13743805Y-12048822D01*
X13743805Y-12048822D02*
X13724758Y-12039298D01*
X13886662Y-11953584D02*
X13905710Y-11953584D01*
X13905710Y-11953584D02*
X13924758Y-11963108D01*
X13924758Y-11963108D02*
X13934282Y-11972631D01*
X13934282Y-11972631D02*
X13943805Y-11991679D01*
X13943805Y-11991679D02*
X13953329Y-12029774D01*
X13953329Y-12029774D02*
X13953329Y-12077393D01*
X13953329Y-12077393D02*
X13943805Y-12115488D01*
X13943805Y-12115488D02*
X13934282Y-12134536D01*
X13934282Y-12134536D02*
X13924758Y-12144060D01*
X13924758Y-12144060D02*
X13905710Y-12153584D01*
X13905710Y-12153584D02*
X13886662Y-12153584D01*
X13886662Y-12153584D02*
X13867615Y-12144060D01*
X13867615Y-12144060D02*
X13858091Y-12134536D01*
X13858091Y-12134536D02*
X13848567Y-12115488D01*
X13848567Y-12115488D02*
X13839043Y-12077393D01*
X13839043Y-12077393D02*
X13839043Y-12029774D01*
X13839043Y-12029774D02*
X13848567Y-11991679D01*
X13848567Y-11991679D02*
X13858091Y-11972631D01*
X13858091Y-11972631D02*
X13867615Y-11963108D01*
X13867615Y-11963108D02*
X13886662Y-11953584D01*
X14077139Y-11953584D02*
X14096186Y-11953584D01*
X14096186Y-11953584D02*
X14115234Y-11963108D01*
X14115234Y-11963108D02*
X14124758Y-11972631D01*
X14124758Y-11972631D02*
X14134282Y-11991679D01*
X14134282Y-11991679D02*
X14143805Y-12029774D01*
X14143805Y-12029774D02*
X14143805Y-12077393D01*
X14143805Y-12077393D02*
X14134282Y-12115488D01*
X14134282Y-12115488D02*
X14124758Y-12134536D01*
X14124758Y-12134536D02*
X14115234Y-12144060D01*
X14115234Y-12144060D02*
X14096186Y-12153584D01*
X14096186Y-12153584D02*
X14077139Y-12153584D01*
X14077139Y-12153584D02*
X14058091Y-12144060D01*
X14058091Y-12144060D02*
X14048567Y-12134536D01*
X14048567Y-12134536D02*
X14039043Y-12115488D01*
X14039043Y-12115488D02*
X14029520Y-12077393D01*
X14029520Y-12077393D02*
X14029520Y-12029774D01*
X14029520Y-12029774D02*
X14039043Y-11991679D01*
X14039043Y-11991679D02*
X14048567Y-11972631D01*
X14048567Y-11972631D02*
X14058091Y-11963108D01*
X14058091Y-11963108D02*
X14077139Y-11953584D01*
X14229520Y-12153584D02*
X14229520Y-12020250D01*
X14229520Y-12039298D02*
X14239043Y-12029774D01*
X14239043Y-12029774D02*
X14258091Y-12020250D01*
X14258091Y-12020250D02*
X14286663Y-12020250D01*
X14286663Y-12020250D02*
X14305710Y-12029774D01*
X14305710Y-12029774D02*
X14315234Y-12048822D01*
X14315234Y-12048822D02*
X14315234Y-12153584D01*
X14315234Y-12048822D02*
X14324758Y-12029774D01*
X14324758Y-12029774D02*
X14343805Y-12020250D01*
X14343805Y-12020250D02*
X14372377Y-12020250D01*
X14372377Y-12020250D02*
X14391424Y-12029774D01*
X14391424Y-12029774D02*
X14400948Y-12048822D01*
X14400948Y-12048822D02*
X14400948Y-12153584D01*
X14496186Y-12153584D02*
X14496186Y-12020250D01*
X14496186Y-12039298D02*
X14505710Y-12029774D01*
X14505710Y-12029774D02*
X14524758Y-12020250D01*
X14524758Y-12020250D02*
X14553329Y-12020250D01*
X14553329Y-12020250D02*
X14572377Y-12029774D01*
X14572377Y-12029774D02*
X14581901Y-12048822D01*
X14581901Y-12048822D02*
X14581901Y-12153584D01*
X14581901Y-12048822D02*
X14591424Y-12029774D01*
X14591424Y-12029774D02*
X14610472Y-12020250D01*
X14610472Y-12020250D02*
X14639043Y-12020250D01*
X14639043Y-12020250D02*
X14658091Y-12029774D01*
X14658091Y-12029774D02*
X14667615Y-12048822D01*
X14667615Y-12048822D02*
X14667615Y-12153584D01*
X15058091Y-11944060D02*
X14886663Y-12201203D01*
X15315234Y-11953584D02*
X15334282Y-11953584D01*
X15334282Y-11953584D02*
X15353329Y-11963108D01*
X15353329Y-11963108D02*
X15362853Y-11972631D01*
X15362853Y-11972631D02*
X15372377Y-11991679D01*
X15372377Y-11991679D02*
X15381901Y-12029774D01*
X15381901Y-12029774D02*
X15381901Y-12077393D01*
X15381901Y-12077393D02*
X15372377Y-12115488D01*
X15372377Y-12115488D02*
X15362853Y-12134536D01*
X15362853Y-12134536D02*
X15353329Y-12144060D01*
X15353329Y-12144060D02*
X15334282Y-12153584D01*
X15334282Y-12153584D02*
X15315234Y-12153584D01*
X15315234Y-12153584D02*
X15296186Y-12144060D01*
X15296186Y-12144060D02*
X15286663Y-12134536D01*
X15286663Y-12134536D02*
X15277139Y-12115488D01*
X15277139Y-12115488D02*
X15267615Y-12077393D01*
X15267615Y-12077393D02*
X15267615Y-12029774D01*
X15267615Y-12029774D02*
X15277139Y-11991679D01*
X15277139Y-11991679D02*
X15286663Y-11972631D01*
X15286663Y-11972631D02*
X15296186Y-11963108D01*
X15296186Y-11963108D02*
X15315234Y-11953584D01*
X15467615Y-12134536D02*
X15477139Y-12144060D01*
X15477139Y-12144060D02*
X15467615Y-12153584D01*
X15467615Y-12153584D02*
X15458091Y-12144060D01*
X15458091Y-12144060D02*
X15467615Y-12134536D01*
X15467615Y-12134536D02*
X15467615Y-12153584D01*
X15600948Y-11953584D02*
X15619996Y-11953584D01*
X15619996Y-11953584D02*
X15639044Y-11963108D01*
X15639044Y-11963108D02*
X15648567Y-11972631D01*
X15648567Y-11972631D02*
X15658091Y-11991679D01*
X15658091Y-11991679D02*
X15667615Y-12029774D01*
X15667615Y-12029774D02*
X15667615Y-12077393D01*
X15667615Y-12077393D02*
X15658091Y-12115488D01*
X15658091Y-12115488D02*
X15648567Y-12134536D01*
X15648567Y-12134536D02*
X15639044Y-12144060D01*
X15639044Y-12144060D02*
X15619996Y-12153584D01*
X15619996Y-12153584D02*
X15600948Y-12153584D01*
X15600948Y-12153584D02*
X15581901Y-12144060D01*
X15581901Y-12144060D02*
X15572377Y-12134536D01*
X15572377Y-12134536D02*
X15562853Y-12115488D01*
X15562853Y-12115488D02*
X15553329Y-12077393D01*
X15553329Y-12077393D02*
X15553329Y-12029774D01*
X15553329Y-12029774D02*
X15562853Y-11991679D01*
X15562853Y-11991679D02*
X15572377Y-11972631D01*
X15572377Y-11972631D02*
X15581901Y-11963108D01*
X15581901Y-11963108D02*
X15600948Y-11953584D01*
X15734282Y-11953584D02*
X15858091Y-11953584D01*
X15858091Y-11953584D02*
X15791425Y-12029774D01*
X15791425Y-12029774D02*
X15819996Y-12029774D01*
X15819996Y-12029774D02*
X15839044Y-12039298D01*
X15839044Y-12039298D02*
X15848567Y-12048822D01*
X15848567Y-12048822D02*
X15858091Y-12067869D01*
X15858091Y-12067869D02*
X15858091Y-12115488D01*
X15858091Y-12115488D02*
X15848567Y-12134536D01*
X15848567Y-12134536D02*
X15839044Y-12144060D01*
X15839044Y-12144060D02*
X15819996Y-12153584D01*
X15819996Y-12153584D02*
X15762853Y-12153584D01*
X15762853Y-12153584D02*
X15743806Y-12144060D01*
X15743806Y-12144060D02*
X15734282Y-12134536D01*
X16048567Y-12153584D02*
X15934282Y-12153584D01*
X15991425Y-12153584D02*
X15991425Y-11953584D01*
X15991425Y-11953584D02*
X15972377Y-11982155D01*
X15972377Y-11982155D02*
X15953329Y-12001203D01*
X15953329Y-12001203D02*
X15934282Y-12010727D01*
X16229520Y-11953584D02*
X16134282Y-11953584D01*
X16134282Y-11953584D02*
X16124758Y-12048822D01*
X16124758Y-12048822D02*
X16134282Y-12039298D01*
X16134282Y-12039298D02*
X16153329Y-12029774D01*
X16153329Y-12029774D02*
X16200948Y-12029774D01*
X16200948Y-12029774D02*
X16219996Y-12039298D01*
X16219996Y-12039298D02*
X16229520Y-12048822D01*
X16229520Y-12048822D02*
X16239044Y-12067869D01*
X16239044Y-12067869D02*
X16239044Y-12115488D01*
X16239044Y-12115488D02*
X16229520Y-12134536D01*
X16229520Y-12134536D02*
X16219996Y-12144060D01*
X16219996Y-12144060D02*
X16200948Y-12153584D01*
X16200948Y-12153584D02*
X16153329Y-12153584D01*
X16153329Y-12153584D02*
X16134282Y-12144060D01*
X16134282Y-12144060D02*
X16124758Y-12134536D01*
X16315234Y-11953584D02*
X16315234Y-11991679D01*
X16391425Y-11953584D02*
X16391425Y-11991679D01*
X16686663Y-12229774D02*
X16677139Y-12220250D01*
X16677139Y-12220250D02*
X16658091Y-12191679D01*
X16658091Y-12191679D02*
X16648568Y-12172631D01*
X16648568Y-12172631D02*
X16639044Y-12144060D01*
X16639044Y-12144060D02*
X16629520Y-12096441D01*
X16629520Y-12096441D02*
X16629520Y-12058346D01*
X16629520Y-12058346D02*
X16639044Y-12010727D01*
X16639044Y-12010727D02*
X16648568Y-11982155D01*
X16648568Y-11982155D02*
X16658091Y-11963108D01*
X16658091Y-11963108D02*
X16677139Y-11934536D01*
X16677139Y-11934536D02*
X16686663Y-11925012D01*
X16791425Y-12039298D02*
X16772377Y-12029774D01*
X16772377Y-12029774D02*
X16762853Y-12020250D01*
X16762853Y-12020250D02*
X16753329Y-12001203D01*
X16753329Y-12001203D02*
X16753329Y-11991679D01*
X16753329Y-11991679D02*
X16762853Y-11972631D01*
X16762853Y-11972631D02*
X16772377Y-11963108D01*
X16772377Y-11963108D02*
X16791425Y-11953584D01*
X16791425Y-11953584D02*
X16829520Y-11953584D01*
X16829520Y-11953584D02*
X16848568Y-11963108D01*
X16848568Y-11963108D02*
X16858091Y-11972631D01*
X16858091Y-11972631D02*
X16867615Y-11991679D01*
X16867615Y-11991679D02*
X16867615Y-12001203D01*
X16867615Y-12001203D02*
X16858091Y-12020250D01*
X16858091Y-12020250D02*
X16848568Y-12029774D01*
X16848568Y-12029774D02*
X16829520Y-12039298D01*
X16829520Y-12039298D02*
X16791425Y-12039298D01*
X16791425Y-12039298D02*
X16772377Y-12048822D01*
X16772377Y-12048822D02*
X16762853Y-12058346D01*
X16762853Y-12058346D02*
X16753329Y-12077393D01*
X16753329Y-12077393D02*
X16753329Y-12115488D01*
X16753329Y-12115488D02*
X16762853Y-12134536D01*
X16762853Y-12134536D02*
X16772377Y-12144060D01*
X16772377Y-12144060D02*
X16791425Y-12153584D01*
X16791425Y-12153584D02*
X16829520Y-12153584D01*
X16829520Y-12153584D02*
X16848568Y-12144060D01*
X16848568Y-12144060D02*
X16858091Y-12134536D01*
X16858091Y-12134536D02*
X16867615Y-12115488D01*
X16867615Y-12115488D02*
X16867615Y-12077393D01*
X16867615Y-12077393D02*
X16858091Y-12058346D01*
X16858091Y-12058346D02*
X16848568Y-12048822D01*
X16848568Y-12048822D02*
X16829520Y-12039298D01*
X17105711Y-12153584D02*
X17105711Y-11953584D01*
X17191425Y-12153584D02*
X17191425Y-12048822D01*
X17191425Y-12048822D02*
X17181901Y-12029774D01*
X17181901Y-12029774D02*
X17162853Y-12020250D01*
X17162853Y-12020250D02*
X17134282Y-12020250D01*
X17134282Y-12020250D02*
X17115234Y-12029774D01*
X17115234Y-12029774D02*
X17105711Y-12039298D01*
X17315234Y-12153584D02*
X17296187Y-12144060D01*
X17296187Y-12144060D02*
X17286663Y-12134536D01*
X17286663Y-12134536D02*
X17277139Y-12115488D01*
X17277139Y-12115488D02*
X17277139Y-12058346D01*
X17277139Y-12058346D02*
X17286663Y-12039298D01*
X17286663Y-12039298D02*
X17296187Y-12029774D01*
X17296187Y-12029774D02*
X17315234Y-12020250D01*
X17315234Y-12020250D02*
X17343806Y-12020250D01*
X17343806Y-12020250D02*
X17362853Y-12029774D01*
X17362853Y-12029774D02*
X17372377Y-12039298D01*
X17372377Y-12039298D02*
X17381901Y-12058346D01*
X17381901Y-12058346D02*
X17381901Y-12115488D01*
X17381901Y-12115488D02*
X17372377Y-12134536D01*
X17372377Y-12134536D02*
X17362853Y-12144060D01*
X17362853Y-12144060D02*
X17343806Y-12153584D01*
X17343806Y-12153584D02*
X17315234Y-12153584D01*
X17496187Y-12153584D02*
X17477139Y-12144060D01*
X17477139Y-12144060D02*
X17467615Y-12125012D01*
X17467615Y-12125012D02*
X17467615Y-11953584D01*
X17648568Y-12144060D02*
X17629520Y-12153584D01*
X17629520Y-12153584D02*
X17591425Y-12153584D01*
X17591425Y-12153584D02*
X17572377Y-12144060D01*
X17572377Y-12144060D02*
X17562853Y-12125012D01*
X17562853Y-12125012D02*
X17562853Y-12048822D01*
X17562853Y-12048822D02*
X17572377Y-12029774D01*
X17572377Y-12029774D02*
X17591425Y-12020250D01*
X17591425Y-12020250D02*
X17629520Y-12020250D01*
X17629520Y-12020250D02*
X17648568Y-12029774D01*
X17648568Y-12029774D02*
X17658092Y-12048822D01*
X17658092Y-12048822D02*
X17658092Y-12067869D01*
X17658092Y-12067869D02*
X17562853Y-12086917D01*
X17734282Y-12144060D02*
X17753330Y-12153584D01*
X17753330Y-12153584D02*
X17791425Y-12153584D01*
X17791425Y-12153584D02*
X17810473Y-12144060D01*
X17810473Y-12144060D02*
X17819996Y-12125012D01*
X17819996Y-12125012D02*
X17819996Y-12115488D01*
X17819996Y-12115488D02*
X17810473Y-12096441D01*
X17810473Y-12096441D02*
X17791425Y-12086917D01*
X17791425Y-12086917D02*
X17762853Y-12086917D01*
X17762853Y-12086917D02*
X17743806Y-12077393D01*
X17743806Y-12077393D02*
X17734282Y-12058346D01*
X17734282Y-12058346D02*
X17734282Y-12048822D01*
X17734282Y-12048822D02*
X17743806Y-12029774D01*
X17743806Y-12029774D02*
X17762853Y-12020250D01*
X17762853Y-12020250D02*
X17791425Y-12020250D01*
X17791425Y-12020250D02*
X17810473Y-12029774D01*
X17886663Y-12229774D02*
X17896187Y-12220250D01*
X17896187Y-12220250D02*
X17915234Y-12191679D01*
X17915234Y-12191679D02*
X17924758Y-12172631D01*
X17924758Y-12172631D02*
X17934282Y-12144060D01*
X17934282Y-12144060D02*
X17943806Y-12096441D01*
X17943806Y-12096441D02*
X17943806Y-12058346D01*
X17943806Y-12058346D02*
X17934282Y-12010727D01*
X17934282Y-12010727D02*
X17924758Y-11982155D01*
X17924758Y-11982155D02*
X17915234Y-11963108D01*
X17915234Y-11963108D02*
X17896187Y-11934536D01*
X17896187Y-11934536D02*
X17886663Y-11925012D01*
D13*
X13051600Y-12266100D02*
X13051600Y-12386100D01*
X12991600Y-12326100D02*
X13111600Y-12326100D01*
D11*
X13477139Y-12417584D02*
X13362853Y-12417584D01*
X13419996Y-12417584D02*
X13419996Y-12217584D01*
X13419996Y-12217584D02*
X13400948Y-12246155D01*
X13400948Y-12246155D02*
X13381901Y-12265203D01*
X13381901Y-12265203D02*
X13362853Y-12274727D01*
X13562853Y-12398536D02*
X13572377Y-12408060D01*
X13572377Y-12408060D02*
X13562853Y-12417584D01*
X13562853Y-12417584D02*
X13553329Y-12408060D01*
X13553329Y-12408060D02*
X13562853Y-12398536D01*
X13562853Y-12398536D02*
X13562853Y-12417584D01*
X13648567Y-12236631D02*
X13658091Y-12227108D01*
X13658091Y-12227108D02*
X13677139Y-12217584D01*
X13677139Y-12217584D02*
X13724758Y-12217584D01*
X13724758Y-12217584D02*
X13743805Y-12227108D01*
X13743805Y-12227108D02*
X13753329Y-12236631D01*
X13753329Y-12236631D02*
X13762853Y-12255679D01*
X13762853Y-12255679D02*
X13762853Y-12274727D01*
X13762853Y-12274727D02*
X13753329Y-12303298D01*
X13753329Y-12303298D02*
X13639043Y-12417584D01*
X13639043Y-12417584D02*
X13762853Y-12417584D01*
X13886662Y-12217584D02*
X13905710Y-12217584D01*
X13905710Y-12217584D02*
X13924758Y-12227108D01*
X13924758Y-12227108D02*
X13934282Y-12236631D01*
X13934282Y-12236631D02*
X13943805Y-12255679D01*
X13943805Y-12255679D02*
X13953329Y-12293774D01*
X13953329Y-12293774D02*
X13953329Y-12341393D01*
X13953329Y-12341393D02*
X13943805Y-12379488D01*
X13943805Y-12379488D02*
X13934282Y-12398536D01*
X13934282Y-12398536D02*
X13924758Y-12408060D01*
X13924758Y-12408060D02*
X13905710Y-12417584D01*
X13905710Y-12417584D02*
X13886662Y-12417584D01*
X13886662Y-12417584D02*
X13867615Y-12408060D01*
X13867615Y-12408060D02*
X13858091Y-12398536D01*
X13858091Y-12398536D02*
X13848567Y-12379488D01*
X13848567Y-12379488D02*
X13839043Y-12341393D01*
X13839043Y-12341393D02*
X13839043Y-12293774D01*
X13839043Y-12293774D02*
X13848567Y-12255679D01*
X13848567Y-12255679D02*
X13858091Y-12236631D01*
X13858091Y-12236631D02*
X13867615Y-12227108D01*
X13867615Y-12227108D02*
X13886662Y-12217584D01*
X14077139Y-12217584D02*
X14096186Y-12217584D01*
X14096186Y-12217584D02*
X14115234Y-12227108D01*
X14115234Y-12227108D02*
X14124758Y-12236631D01*
X14124758Y-12236631D02*
X14134282Y-12255679D01*
X14134282Y-12255679D02*
X14143805Y-12293774D01*
X14143805Y-12293774D02*
X14143805Y-12341393D01*
X14143805Y-12341393D02*
X14134282Y-12379488D01*
X14134282Y-12379488D02*
X14124758Y-12398536D01*
X14124758Y-12398536D02*
X14115234Y-12408060D01*
X14115234Y-12408060D02*
X14096186Y-12417584D01*
X14096186Y-12417584D02*
X14077139Y-12417584D01*
X14077139Y-12417584D02*
X14058091Y-12408060D01*
X14058091Y-12408060D02*
X14048567Y-12398536D01*
X14048567Y-12398536D02*
X14039043Y-12379488D01*
X14039043Y-12379488D02*
X14029520Y-12341393D01*
X14029520Y-12341393D02*
X14029520Y-12293774D01*
X14029520Y-12293774D02*
X14039043Y-12255679D01*
X14039043Y-12255679D02*
X14048567Y-12236631D01*
X14048567Y-12236631D02*
X14058091Y-12227108D01*
X14058091Y-12227108D02*
X14077139Y-12217584D01*
X14229520Y-12417584D02*
X14229520Y-12284250D01*
X14229520Y-12303298D02*
X14239043Y-12293774D01*
X14239043Y-12293774D02*
X14258091Y-12284250D01*
X14258091Y-12284250D02*
X14286663Y-12284250D01*
X14286663Y-12284250D02*
X14305710Y-12293774D01*
X14305710Y-12293774D02*
X14315234Y-12312822D01*
X14315234Y-12312822D02*
X14315234Y-12417584D01*
X14315234Y-12312822D02*
X14324758Y-12293774D01*
X14324758Y-12293774D02*
X14343805Y-12284250D01*
X14343805Y-12284250D02*
X14372377Y-12284250D01*
X14372377Y-12284250D02*
X14391424Y-12293774D01*
X14391424Y-12293774D02*
X14400948Y-12312822D01*
X14400948Y-12312822D02*
X14400948Y-12417584D01*
X14496186Y-12417584D02*
X14496186Y-12284250D01*
X14496186Y-12303298D02*
X14505710Y-12293774D01*
X14505710Y-12293774D02*
X14524758Y-12284250D01*
X14524758Y-12284250D02*
X14553329Y-12284250D01*
X14553329Y-12284250D02*
X14572377Y-12293774D01*
X14572377Y-12293774D02*
X14581901Y-12312822D01*
X14581901Y-12312822D02*
X14581901Y-12417584D01*
X14581901Y-12312822D02*
X14591424Y-12293774D01*
X14591424Y-12293774D02*
X14610472Y-12284250D01*
X14610472Y-12284250D02*
X14639043Y-12284250D01*
X14639043Y-12284250D02*
X14658091Y-12293774D01*
X14658091Y-12293774D02*
X14667615Y-12312822D01*
X14667615Y-12312822D02*
X14667615Y-12417584D01*
X15058091Y-12208060D02*
X14886663Y-12465203D01*
X15315234Y-12217584D02*
X15334282Y-12217584D01*
X15334282Y-12217584D02*
X15353329Y-12227108D01*
X15353329Y-12227108D02*
X15362853Y-12236631D01*
X15362853Y-12236631D02*
X15372377Y-12255679D01*
X15372377Y-12255679D02*
X15381901Y-12293774D01*
X15381901Y-12293774D02*
X15381901Y-12341393D01*
X15381901Y-12341393D02*
X15372377Y-12379488D01*
X15372377Y-12379488D02*
X15362853Y-12398536D01*
X15362853Y-12398536D02*
X15353329Y-12408060D01*
X15353329Y-12408060D02*
X15334282Y-12417584D01*
X15334282Y-12417584D02*
X15315234Y-12417584D01*
X15315234Y-12417584D02*
X15296186Y-12408060D01*
X15296186Y-12408060D02*
X15286663Y-12398536D01*
X15286663Y-12398536D02*
X15277139Y-12379488D01*
X15277139Y-12379488D02*
X15267615Y-12341393D01*
X15267615Y-12341393D02*
X15267615Y-12293774D01*
X15267615Y-12293774D02*
X15277139Y-12255679D01*
X15277139Y-12255679D02*
X15286663Y-12236631D01*
X15286663Y-12236631D02*
X15296186Y-12227108D01*
X15296186Y-12227108D02*
X15315234Y-12217584D01*
X15467615Y-12398536D02*
X15477139Y-12408060D01*
X15477139Y-12408060D02*
X15467615Y-12417584D01*
X15467615Y-12417584D02*
X15458091Y-12408060D01*
X15458091Y-12408060D02*
X15467615Y-12398536D01*
X15467615Y-12398536D02*
X15467615Y-12417584D01*
X15600948Y-12217584D02*
X15619996Y-12217584D01*
X15619996Y-12217584D02*
X15639044Y-12227108D01*
X15639044Y-12227108D02*
X15648567Y-12236631D01*
X15648567Y-12236631D02*
X15658091Y-12255679D01*
X15658091Y-12255679D02*
X15667615Y-12293774D01*
X15667615Y-12293774D02*
X15667615Y-12341393D01*
X15667615Y-12341393D02*
X15658091Y-12379488D01*
X15658091Y-12379488D02*
X15648567Y-12398536D01*
X15648567Y-12398536D02*
X15639044Y-12408060D01*
X15639044Y-12408060D02*
X15619996Y-12417584D01*
X15619996Y-12417584D02*
X15600948Y-12417584D01*
X15600948Y-12417584D02*
X15581901Y-12408060D01*
X15581901Y-12408060D02*
X15572377Y-12398536D01*
X15572377Y-12398536D02*
X15562853Y-12379488D01*
X15562853Y-12379488D02*
X15553329Y-12341393D01*
X15553329Y-12341393D02*
X15553329Y-12293774D01*
X15553329Y-12293774D02*
X15562853Y-12255679D01*
X15562853Y-12255679D02*
X15572377Y-12236631D01*
X15572377Y-12236631D02*
X15581901Y-12227108D01*
X15581901Y-12227108D02*
X15600948Y-12217584D01*
X15839044Y-12284250D02*
X15839044Y-12417584D01*
X15791425Y-12208060D02*
X15743806Y-12350917D01*
X15743806Y-12350917D02*
X15867615Y-12350917D01*
X15924758Y-12217584D02*
X16058091Y-12217584D01*
X16058091Y-12217584D02*
X15972377Y-12417584D01*
X16124758Y-12236631D02*
X16134282Y-12227108D01*
X16134282Y-12227108D02*
X16153329Y-12217584D01*
X16153329Y-12217584D02*
X16200948Y-12217584D01*
X16200948Y-12217584D02*
X16219996Y-12227108D01*
X16219996Y-12227108D02*
X16229520Y-12236631D01*
X16229520Y-12236631D02*
X16239044Y-12255679D01*
X16239044Y-12255679D02*
X16239044Y-12274727D01*
X16239044Y-12274727D02*
X16229520Y-12303298D01*
X16229520Y-12303298D02*
X16115234Y-12417584D01*
X16115234Y-12417584D02*
X16239044Y-12417584D01*
X16315234Y-12217584D02*
X16315234Y-12255679D01*
X16391425Y-12217584D02*
X16391425Y-12255679D01*
X16686663Y-12493774D02*
X16677139Y-12484250D01*
X16677139Y-12484250D02*
X16658091Y-12455679D01*
X16658091Y-12455679D02*
X16648568Y-12436631D01*
X16648568Y-12436631D02*
X16639044Y-12408060D01*
X16639044Y-12408060D02*
X16629520Y-12360441D01*
X16629520Y-12360441D02*
X16629520Y-12322346D01*
X16629520Y-12322346D02*
X16639044Y-12274727D01*
X16639044Y-12274727D02*
X16648568Y-12246155D01*
X16648568Y-12246155D02*
X16658091Y-12227108D01*
X16658091Y-12227108D02*
X16677139Y-12198536D01*
X16677139Y-12198536D02*
X16686663Y-12189012D01*
X16867615Y-12417584D02*
X16753329Y-12417584D01*
X16810472Y-12417584D02*
X16810472Y-12217584D01*
X16810472Y-12217584D02*
X16791425Y-12246155D01*
X16791425Y-12246155D02*
X16772377Y-12265203D01*
X16772377Y-12265203D02*
X16753329Y-12274727D01*
X16981901Y-12303298D02*
X16962853Y-12293774D01*
X16962853Y-12293774D02*
X16953330Y-12284250D01*
X16953330Y-12284250D02*
X16943806Y-12265203D01*
X16943806Y-12265203D02*
X16943806Y-12255679D01*
X16943806Y-12255679D02*
X16953330Y-12236631D01*
X16953330Y-12236631D02*
X16962853Y-12227108D01*
X16962853Y-12227108D02*
X16981901Y-12217584D01*
X16981901Y-12217584D02*
X17019996Y-12217584D01*
X17019996Y-12217584D02*
X17039044Y-12227108D01*
X17039044Y-12227108D02*
X17048568Y-12236631D01*
X17048568Y-12236631D02*
X17058091Y-12255679D01*
X17058091Y-12255679D02*
X17058091Y-12265203D01*
X17058091Y-12265203D02*
X17048568Y-12284250D01*
X17048568Y-12284250D02*
X17039044Y-12293774D01*
X17039044Y-12293774D02*
X17019996Y-12303298D01*
X17019996Y-12303298D02*
X16981901Y-12303298D01*
X16981901Y-12303298D02*
X16962853Y-12312822D01*
X16962853Y-12312822D02*
X16953330Y-12322346D01*
X16953330Y-12322346D02*
X16943806Y-12341393D01*
X16943806Y-12341393D02*
X16943806Y-12379488D01*
X16943806Y-12379488D02*
X16953330Y-12398536D01*
X16953330Y-12398536D02*
X16962853Y-12408060D01*
X16962853Y-12408060D02*
X16981901Y-12417584D01*
X16981901Y-12417584D02*
X17019996Y-12417584D01*
X17019996Y-12417584D02*
X17039044Y-12408060D01*
X17039044Y-12408060D02*
X17048568Y-12398536D01*
X17048568Y-12398536D02*
X17058091Y-12379488D01*
X17058091Y-12379488D02*
X17058091Y-12341393D01*
X17058091Y-12341393D02*
X17048568Y-12322346D01*
X17048568Y-12322346D02*
X17039044Y-12312822D01*
X17039044Y-12312822D02*
X17019996Y-12303298D01*
X17296187Y-12417584D02*
X17296187Y-12217584D01*
X17381901Y-12417584D02*
X17381901Y-12312822D01*
X17381901Y-12312822D02*
X17372377Y-12293774D01*
X17372377Y-12293774D02*
X17353330Y-12284250D01*
X17353330Y-12284250D02*
X17324758Y-12284250D01*
X17324758Y-12284250D02*
X17305711Y-12293774D01*
X17305711Y-12293774D02*
X17296187Y-12303298D01*
X17505711Y-12417584D02*
X17486663Y-12408060D01*
X17486663Y-12408060D02*
X17477139Y-12398536D01*
X17477139Y-12398536D02*
X17467615Y-12379488D01*
X17467615Y-12379488D02*
X17467615Y-12322346D01*
X17467615Y-12322346D02*
X17477139Y-12303298D01*
X17477139Y-12303298D02*
X17486663Y-12293774D01*
X17486663Y-12293774D02*
X17505711Y-12284250D01*
X17505711Y-12284250D02*
X17534282Y-12284250D01*
X17534282Y-12284250D02*
X17553330Y-12293774D01*
X17553330Y-12293774D02*
X17562853Y-12303298D01*
X17562853Y-12303298D02*
X17572377Y-12322346D01*
X17572377Y-12322346D02*
X17572377Y-12379488D01*
X17572377Y-12379488D02*
X17562853Y-12398536D01*
X17562853Y-12398536D02*
X17553330Y-12408060D01*
X17553330Y-12408060D02*
X17534282Y-12417584D01*
X17534282Y-12417584D02*
X17505711Y-12417584D01*
X17686663Y-12417584D02*
X17667615Y-12408060D01*
X17667615Y-12408060D02*
X17658092Y-12389012D01*
X17658092Y-12389012D02*
X17658092Y-12217584D01*
X17839044Y-12408060D02*
X17819996Y-12417584D01*
X17819996Y-12417584D02*
X17781901Y-12417584D01*
X17781901Y-12417584D02*
X17762853Y-12408060D01*
X17762853Y-12408060D02*
X17753330Y-12389012D01*
X17753330Y-12389012D02*
X17753330Y-12312822D01*
X17753330Y-12312822D02*
X17762853Y-12293774D01*
X17762853Y-12293774D02*
X17781901Y-12284250D01*
X17781901Y-12284250D02*
X17819996Y-12284250D01*
X17819996Y-12284250D02*
X17839044Y-12293774D01*
X17839044Y-12293774D02*
X17848568Y-12312822D01*
X17848568Y-12312822D02*
X17848568Y-12331869D01*
X17848568Y-12331869D02*
X17753330Y-12350917D01*
X17924758Y-12408060D02*
X17943806Y-12417584D01*
X17943806Y-12417584D02*
X17981901Y-12417584D01*
X17981901Y-12417584D02*
X18000949Y-12408060D01*
X18000949Y-12408060D02*
X18010473Y-12389012D01*
X18010473Y-12389012D02*
X18010473Y-12379488D01*
X18010473Y-12379488D02*
X18000949Y-12360441D01*
X18000949Y-12360441D02*
X17981901Y-12350917D01*
X17981901Y-12350917D02*
X17953330Y-12350917D01*
X17953330Y-12350917D02*
X17934282Y-12341393D01*
X17934282Y-12341393D02*
X17924758Y-12322346D01*
X17924758Y-12322346D02*
X17924758Y-12312822D01*
X17924758Y-12312822D02*
X17934282Y-12293774D01*
X17934282Y-12293774D02*
X17953330Y-12284250D01*
X17953330Y-12284250D02*
X17981901Y-12284250D01*
X17981901Y-12284250D02*
X18000949Y-12293774D01*
X18077139Y-12493774D02*
X18086663Y-12484250D01*
X18086663Y-12484250D02*
X18105711Y-12455679D01*
X18105711Y-12455679D02*
X18115234Y-12436631D01*
X18115234Y-12436631D02*
X18124758Y-12408060D01*
X18124758Y-12408060D02*
X18134282Y-12360441D01*
X18134282Y-12360441D02*
X18134282Y-12322346D01*
X18134282Y-12322346D02*
X18124758Y-12274727D01*
X18124758Y-12274727D02*
X18115234Y-12246155D01*
X18115234Y-12246155D02*
X18105711Y-12227108D01*
X18105711Y-12227108D02*
X18086663Y-12198536D01*
X18086663Y-12198536D02*
X18077139Y-12189012D01*
X13082311Y-12660811D02*
X13082311Y-12519389D01*
X12940889Y-12519389D01*
X12940889Y-12660811D01*
X13082311Y-12660811D01*
X13353329Y-12481584D02*
X13477139Y-12481584D01*
X13477139Y-12481584D02*
X13410472Y-12557774D01*
X13410472Y-12557774D02*
X13439043Y-12557774D01*
X13439043Y-12557774D02*
X13458091Y-12567298D01*
X13458091Y-12567298D02*
X13467615Y-12576822D01*
X13467615Y-12576822D02*
X13477139Y-12595869D01*
X13477139Y-12595869D02*
X13477139Y-12643488D01*
X13477139Y-12643488D02*
X13467615Y-12662536D01*
X13467615Y-12662536D02*
X13458091Y-12672060D01*
X13458091Y-12672060D02*
X13439043Y-12681584D01*
X13439043Y-12681584D02*
X13381901Y-12681584D01*
X13381901Y-12681584D02*
X13362853Y-12672060D01*
X13362853Y-12672060D02*
X13353329Y-12662536D01*
X13562853Y-12662536D02*
X13572377Y-12672060D01*
X13572377Y-12672060D02*
X13562853Y-12681584D01*
X13562853Y-12681584D02*
X13553329Y-12672060D01*
X13553329Y-12672060D02*
X13562853Y-12662536D01*
X13562853Y-12662536D02*
X13562853Y-12681584D01*
X13696186Y-12481584D02*
X13715234Y-12481584D01*
X13715234Y-12481584D02*
X13734282Y-12491108D01*
X13734282Y-12491108D02*
X13743805Y-12500631D01*
X13743805Y-12500631D02*
X13753329Y-12519679D01*
X13753329Y-12519679D02*
X13762853Y-12557774D01*
X13762853Y-12557774D02*
X13762853Y-12605393D01*
X13762853Y-12605393D02*
X13753329Y-12643488D01*
X13753329Y-12643488D02*
X13743805Y-12662536D01*
X13743805Y-12662536D02*
X13734282Y-12672060D01*
X13734282Y-12672060D02*
X13715234Y-12681584D01*
X13715234Y-12681584D02*
X13696186Y-12681584D01*
X13696186Y-12681584D02*
X13677139Y-12672060D01*
X13677139Y-12672060D02*
X13667615Y-12662536D01*
X13667615Y-12662536D02*
X13658091Y-12643488D01*
X13658091Y-12643488D02*
X13648567Y-12605393D01*
X13648567Y-12605393D02*
X13648567Y-12557774D01*
X13648567Y-12557774D02*
X13658091Y-12519679D01*
X13658091Y-12519679D02*
X13667615Y-12500631D01*
X13667615Y-12500631D02*
X13677139Y-12491108D01*
X13677139Y-12491108D02*
X13696186Y-12481584D01*
X13886662Y-12481584D02*
X13905710Y-12481584D01*
X13905710Y-12481584D02*
X13924758Y-12491108D01*
X13924758Y-12491108D02*
X13934282Y-12500631D01*
X13934282Y-12500631D02*
X13943805Y-12519679D01*
X13943805Y-12519679D02*
X13953329Y-12557774D01*
X13953329Y-12557774D02*
X13953329Y-12605393D01*
X13953329Y-12605393D02*
X13943805Y-12643488D01*
X13943805Y-12643488D02*
X13934282Y-12662536D01*
X13934282Y-12662536D02*
X13924758Y-12672060D01*
X13924758Y-12672060D02*
X13905710Y-12681584D01*
X13905710Y-12681584D02*
X13886662Y-12681584D01*
X13886662Y-12681584D02*
X13867615Y-12672060D01*
X13867615Y-12672060D02*
X13858091Y-12662536D01*
X13858091Y-12662536D02*
X13848567Y-12643488D01*
X13848567Y-12643488D02*
X13839043Y-12605393D01*
X13839043Y-12605393D02*
X13839043Y-12557774D01*
X13839043Y-12557774D02*
X13848567Y-12519679D01*
X13848567Y-12519679D02*
X13858091Y-12500631D01*
X13858091Y-12500631D02*
X13867615Y-12491108D01*
X13867615Y-12491108D02*
X13886662Y-12481584D01*
X14077139Y-12481584D02*
X14096186Y-12481584D01*
X14096186Y-12481584D02*
X14115234Y-12491108D01*
X14115234Y-12491108D02*
X14124758Y-12500631D01*
X14124758Y-12500631D02*
X14134282Y-12519679D01*
X14134282Y-12519679D02*
X14143805Y-12557774D01*
X14143805Y-12557774D02*
X14143805Y-12605393D01*
X14143805Y-12605393D02*
X14134282Y-12643488D01*
X14134282Y-12643488D02*
X14124758Y-12662536D01*
X14124758Y-12662536D02*
X14115234Y-12672060D01*
X14115234Y-12672060D02*
X14096186Y-12681584D01*
X14096186Y-12681584D02*
X14077139Y-12681584D01*
X14077139Y-12681584D02*
X14058091Y-12672060D01*
X14058091Y-12672060D02*
X14048567Y-12662536D01*
X14048567Y-12662536D02*
X14039043Y-12643488D01*
X14039043Y-12643488D02*
X14029520Y-12605393D01*
X14029520Y-12605393D02*
X14029520Y-12557774D01*
X14029520Y-12557774D02*
X14039043Y-12519679D01*
X14039043Y-12519679D02*
X14048567Y-12500631D01*
X14048567Y-12500631D02*
X14058091Y-12491108D01*
X14058091Y-12491108D02*
X14077139Y-12481584D01*
X14229520Y-12681584D02*
X14229520Y-12548250D01*
X14229520Y-12567298D02*
X14239043Y-12557774D01*
X14239043Y-12557774D02*
X14258091Y-12548250D01*
X14258091Y-12548250D02*
X14286663Y-12548250D01*
X14286663Y-12548250D02*
X14305710Y-12557774D01*
X14305710Y-12557774D02*
X14315234Y-12576822D01*
X14315234Y-12576822D02*
X14315234Y-12681584D01*
X14315234Y-12576822D02*
X14324758Y-12557774D01*
X14324758Y-12557774D02*
X14343805Y-12548250D01*
X14343805Y-12548250D02*
X14372377Y-12548250D01*
X14372377Y-12548250D02*
X14391424Y-12557774D01*
X14391424Y-12557774D02*
X14400948Y-12576822D01*
X14400948Y-12576822D02*
X14400948Y-12681584D01*
X14496186Y-12681584D02*
X14496186Y-12548250D01*
X14496186Y-12567298D02*
X14505710Y-12557774D01*
X14505710Y-12557774D02*
X14524758Y-12548250D01*
X14524758Y-12548250D02*
X14553329Y-12548250D01*
X14553329Y-12548250D02*
X14572377Y-12557774D01*
X14572377Y-12557774D02*
X14581901Y-12576822D01*
X14581901Y-12576822D02*
X14581901Y-12681584D01*
X14581901Y-12576822D02*
X14591424Y-12557774D01*
X14591424Y-12557774D02*
X14610472Y-12548250D01*
X14610472Y-12548250D02*
X14639043Y-12548250D01*
X14639043Y-12548250D02*
X14658091Y-12557774D01*
X14658091Y-12557774D02*
X14667615Y-12576822D01*
X14667615Y-12576822D02*
X14667615Y-12681584D01*
X15058091Y-12472060D02*
X14886663Y-12729203D01*
X15315234Y-12481584D02*
X15334282Y-12481584D01*
X15334282Y-12481584D02*
X15353329Y-12491108D01*
X15353329Y-12491108D02*
X15362853Y-12500631D01*
X15362853Y-12500631D02*
X15372377Y-12519679D01*
X15372377Y-12519679D02*
X15381901Y-12557774D01*
X15381901Y-12557774D02*
X15381901Y-12605393D01*
X15381901Y-12605393D02*
X15372377Y-12643488D01*
X15372377Y-12643488D02*
X15362853Y-12662536D01*
X15362853Y-12662536D02*
X15353329Y-12672060D01*
X15353329Y-12672060D02*
X15334282Y-12681584D01*
X15334282Y-12681584D02*
X15315234Y-12681584D01*
X15315234Y-12681584D02*
X15296186Y-12672060D01*
X15296186Y-12672060D02*
X15286663Y-12662536D01*
X15286663Y-12662536D02*
X15277139Y-12643488D01*
X15277139Y-12643488D02*
X15267615Y-12605393D01*
X15267615Y-12605393D02*
X15267615Y-12557774D01*
X15267615Y-12557774D02*
X15277139Y-12519679D01*
X15277139Y-12519679D02*
X15286663Y-12500631D01*
X15286663Y-12500631D02*
X15296186Y-12491108D01*
X15296186Y-12491108D02*
X15315234Y-12481584D01*
X15467615Y-12662536D02*
X15477139Y-12672060D01*
X15477139Y-12672060D02*
X15467615Y-12681584D01*
X15467615Y-12681584D02*
X15458091Y-12672060D01*
X15458091Y-12672060D02*
X15467615Y-12662536D01*
X15467615Y-12662536D02*
X15467615Y-12681584D01*
X15667615Y-12681584D02*
X15553329Y-12681584D01*
X15610472Y-12681584D02*
X15610472Y-12481584D01*
X15610472Y-12481584D02*
X15591425Y-12510155D01*
X15591425Y-12510155D02*
X15572377Y-12529203D01*
X15572377Y-12529203D02*
X15553329Y-12538727D01*
X15858091Y-12681584D02*
X15743806Y-12681584D01*
X15800948Y-12681584D02*
X15800948Y-12481584D01*
X15800948Y-12481584D02*
X15781901Y-12510155D01*
X15781901Y-12510155D02*
X15762853Y-12529203D01*
X15762853Y-12529203D02*
X15743806Y-12538727D01*
X15972377Y-12567298D02*
X15953329Y-12557774D01*
X15953329Y-12557774D02*
X15943806Y-12548250D01*
X15943806Y-12548250D02*
X15934282Y-12529203D01*
X15934282Y-12529203D02*
X15934282Y-12519679D01*
X15934282Y-12519679D02*
X15943806Y-12500631D01*
X15943806Y-12500631D02*
X15953329Y-12491108D01*
X15953329Y-12491108D02*
X15972377Y-12481584D01*
X15972377Y-12481584D02*
X16010472Y-12481584D01*
X16010472Y-12481584D02*
X16029520Y-12491108D01*
X16029520Y-12491108D02*
X16039044Y-12500631D01*
X16039044Y-12500631D02*
X16048567Y-12519679D01*
X16048567Y-12519679D02*
X16048567Y-12529203D01*
X16048567Y-12529203D02*
X16039044Y-12548250D01*
X16039044Y-12548250D02*
X16029520Y-12557774D01*
X16029520Y-12557774D02*
X16010472Y-12567298D01*
X16010472Y-12567298D02*
X15972377Y-12567298D01*
X15972377Y-12567298D02*
X15953329Y-12576822D01*
X15953329Y-12576822D02*
X15943806Y-12586346D01*
X15943806Y-12586346D02*
X15934282Y-12605393D01*
X15934282Y-12605393D02*
X15934282Y-12643488D01*
X15934282Y-12643488D02*
X15943806Y-12662536D01*
X15943806Y-12662536D02*
X15953329Y-12672060D01*
X15953329Y-12672060D02*
X15972377Y-12681584D01*
X15972377Y-12681584D02*
X16010472Y-12681584D01*
X16010472Y-12681584D02*
X16029520Y-12672060D01*
X16029520Y-12672060D02*
X16039044Y-12662536D01*
X16039044Y-12662536D02*
X16048567Y-12643488D01*
X16048567Y-12643488D02*
X16048567Y-12605393D01*
X16048567Y-12605393D02*
X16039044Y-12586346D01*
X16039044Y-12586346D02*
X16029520Y-12576822D01*
X16029520Y-12576822D02*
X16010472Y-12567298D01*
X16239044Y-12681584D02*
X16124758Y-12681584D01*
X16181901Y-12681584D02*
X16181901Y-12481584D01*
X16181901Y-12481584D02*
X16162853Y-12510155D01*
X16162853Y-12510155D02*
X16143806Y-12529203D01*
X16143806Y-12529203D02*
X16124758Y-12538727D01*
X16315234Y-12481584D02*
X16315234Y-12519679D01*
X16391425Y-12481584D02*
X16391425Y-12519679D01*
X16686663Y-12757774D02*
X16677139Y-12748250D01*
X16677139Y-12748250D02*
X16658091Y-12719679D01*
X16658091Y-12719679D02*
X16648568Y-12700631D01*
X16648568Y-12700631D02*
X16639044Y-12672060D01*
X16639044Y-12672060D02*
X16629520Y-12624441D01*
X16629520Y-12624441D02*
X16629520Y-12586346D01*
X16629520Y-12586346D02*
X16639044Y-12538727D01*
X16639044Y-12538727D02*
X16648568Y-12510155D01*
X16648568Y-12510155D02*
X16658091Y-12491108D01*
X16658091Y-12491108D02*
X16677139Y-12462536D01*
X16677139Y-12462536D02*
X16686663Y-12453012D01*
X16848568Y-12548250D02*
X16848568Y-12681584D01*
X16800949Y-12472060D02*
X16753329Y-12614917D01*
X16753329Y-12614917D02*
X16877139Y-12614917D01*
X17105711Y-12681584D02*
X17105711Y-12481584D01*
X17191425Y-12681584D02*
X17191425Y-12576822D01*
X17191425Y-12576822D02*
X17181901Y-12557774D01*
X17181901Y-12557774D02*
X17162853Y-12548250D01*
X17162853Y-12548250D02*
X17134282Y-12548250D01*
X17134282Y-12548250D02*
X17115234Y-12557774D01*
X17115234Y-12557774D02*
X17105711Y-12567298D01*
X17315234Y-12681584D02*
X17296187Y-12672060D01*
X17296187Y-12672060D02*
X17286663Y-12662536D01*
X17286663Y-12662536D02*
X17277139Y-12643488D01*
X17277139Y-12643488D02*
X17277139Y-12586346D01*
X17277139Y-12586346D02*
X17286663Y-12567298D01*
X17286663Y-12567298D02*
X17296187Y-12557774D01*
X17296187Y-12557774D02*
X17315234Y-12548250D01*
X17315234Y-12548250D02*
X17343806Y-12548250D01*
X17343806Y-12548250D02*
X17362853Y-12557774D01*
X17362853Y-12557774D02*
X17372377Y-12567298D01*
X17372377Y-12567298D02*
X17381901Y-12586346D01*
X17381901Y-12586346D02*
X17381901Y-12643488D01*
X17381901Y-12643488D02*
X17372377Y-12662536D01*
X17372377Y-12662536D02*
X17362853Y-12672060D01*
X17362853Y-12672060D02*
X17343806Y-12681584D01*
X17343806Y-12681584D02*
X17315234Y-12681584D01*
X17496187Y-12681584D02*
X17477139Y-12672060D01*
X17477139Y-12672060D02*
X17467615Y-12653012D01*
X17467615Y-12653012D02*
X17467615Y-12481584D01*
X17648568Y-12672060D02*
X17629520Y-12681584D01*
X17629520Y-12681584D02*
X17591425Y-12681584D01*
X17591425Y-12681584D02*
X17572377Y-12672060D01*
X17572377Y-12672060D02*
X17562853Y-12653012D01*
X17562853Y-12653012D02*
X17562853Y-12576822D01*
X17562853Y-12576822D02*
X17572377Y-12557774D01*
X17572377Y-12557774D02*
X17591425Y-12548250D01*
X17591425Y-12548250D02*
X17629520Y-12548250D01*
X17629520Y-12548250D02*
X17648568Y-12557774D01*
X17648568Y-12557774D02*
X17658092Y-12576822D01*
X17658092Y-12576822D02*
X17658092Y-12595869D01*
X17658092Y-12595869D02*
X17562853Y-12614917D01*
X17734282Y-12672060D02*
X17753330Y-12681584D01*
X17753330Y-12681584D02*
X17791425Y-12681584D01*
X17791425Y-12681584D02*
X17810473Y-12672060D01*
X17810473Y-12672060D02*
X17819996Y-12653012D01*
X17819996Y-12653012D02*
X17819996Y-12643488D01*
X17819996Y-12643488D02*
X17810473Y-12624441D01*
X17810473Y-12624441D02*
X17791425Y-12614917D01*
X17791425Y-12614917D02*
X17762853Y-12614917D01*
X17762853Y-12614917D02*
X17743806Y-12605393D01*
X17743806Y-12605393D02*
X17734282Y-12586346D01*
X17734282Y-12586346D02*
X17734282Y-12576822D01*
X17734282Y-12576822D02*
X17743806Y-12557774D01*
X17743806Y-12557774D02*
X17762853Y-12548250D01*
X17762853Y-12548250D02*
X17791425Y-12548250D01*
X17791425Y-12548250D02*
X17810473Y-12557774D01*
X17886663Y-12757774D02*
X17896187Y-12748250D01*
X17896187Y-12748250D02*
X17915234Y-12719679D01*
X17915234Y-12719679D02*
X17924758Y-12700631D01*
X17924758Y-12700631D02*
X17934282Y-12672060D01*
X17934282Y-12672060D02*
X17943806Y-12624441D01*
X17943806Y-12624441D02*
X17943806Y-12586346D01*
X17943806Y-12586346D02*
X17934282Y-12538727D01*
X17934282Y-12538727D02*
X17924758Y-12510155D01*
X17924758Y-12510155D02*
X17915234Y-12491108D01*
X17915234Y-12491108D02*
X17896187Y-12462536D01*
X17896187Y-12462536D02*
X17886663Y-12453012D01*
M02*
