%TF.GenerationSoftware,KiCad,Pcbnew,7.0.9*%
%TF.CreationDate,2023-12-23T15:59:39+01:00*%
%TF.ProjectId,hub-1-wire,6875622d-312d-4776-9972-652e6b696361,v1.0*%
%TF.SameCoordinates,Original*%
%TF.FileFunction,Drillmap*%
%TF.FilePolarity,Positive*%
%FSLAX45Y45*%
G04 Gerber Fmt 4.5, Leading zero omitted, Abs format (unit mm)*
G04 Created by KiCad (PCBNEW 7.0.9) date 2023-12-23 15:59:39*
%MOMM*%
%LPD*%
G01*
G04 APERTURE LIST*
%ADD10C,0.150000*%
%ADD11C,0.200000*%
%ADD12C,0.330000*%
G04 APERTURE END LIST*
D10*
X17945100Y-9753600D02*
X17945100Y-11150600D01*
X17373600Y-9753600D02*
X17945100Y-9753600D01*
X17373600Y-7912100D02*
X17373600Y-9753600D01*
X17373600Y-7912100D02*
X17945100Y-7912100D01*
X13119100Y-11150600D02*
X17945100Y-11150600D01*
X13119100Y-11150600D02*
X13119100Y-6578600D01*
X17945100Y-6578600D02*
X17945100Y-7912100D01*
X13119100Y-6578600D02*
X17945100Y-6578600D01*
D11*
D12*
X16510100Y-8102600D02*
X16840100Y-8432600D01*
X16840100Y-8102600D02*
X16510100Y-8432600D01*
X16510100Y-9245800D02*
X16840100Y-9575800D01*
X16840100Y-9245800D02*
X16510100Y-9575800D01*
D11*
X13372377Y-11469584D02*
X13372377Y-11269584D01*
X13372377Y-11269584D02*
X13419996Y-11269584D01*
X13419996Y-11269584D02*
X13448567Y-11279108D01*
X13448567Y-11279108D02*
X13467615Y-11298155D01*
X13467615Y-11298155D02*
X13477139Y-11317203D01*
X13477139Y-11317203D02*
X13486662Y-11355298D01*
X13486662Y-11355298D02*
X13486662Y-11383869D01*
X13486662Y-11383869D02*
X13477139Y-11421965D01*
X13477139Y-11421965D02*
X13467615Y-11441012D01*
X13467615Y-11441012D02*
X13448567Y-11460060D01*
X13448567Y-11460060D02*
X13419996Y-11469584D01*
X13419996Y-11469584D02*
X13372377Y-11469584D01*
X13572377Y-11469584D02*
X13572377Y-11336250D01*
X13572377Y-11374346D02*
X13581901Y-11355298D01*
X13581901Y-11355298D02*
X13591424Y-11345774D01*
X13591424Y-11345774D02*
X13610472Y-11336250D01*
X13610472Y-11336250D02*
X13629520Y-11336250D01*
X13696186Y-11469584D02*
X13696186Y-11336250D01*
X13696186Y-11269584D02*
X13686662Y-11279108D01*
X13686662Y-11279108D02*
X13696186Y-11288631D01*
X13696186Y-11288631D02*
X13705710Y-11279108D01*
X13705710Y-11279108D02*
X13696186Y-11269584D01*
X13696186Y-11269584D02*
X13696186Y-11288631D01*
X13819996Y-11469584D02*
X13800948Y-11460060D01*
X13800948Y-11460060D02*
X13791424Y-11441012D01*
X13791424Y-11441012D02*
X13791424Y-11269584D01*
X13924758Y-11469584D02*
X13905710Y-11460060D01*
X13905710Y-11460060D02*
X13896186Y-11441012D01*
X13896186Y-11441012D02*
X13896186Y-11269584D01*
X14153329Y-11469584D02*
X14153329Y-11269584D01*
X14153329Y-11269584D02*
X14219996Y-11412441D01*
X14219996Y-11412441D02*
X14286662Y-11269584D01*
X14286662Y-11269584D02*
X14286662Y-11469584D01*
X14467615Y-11469584D02*
X14467615Y-11364822D01*
X14467615Y-11364822D02*
X14458091Y-11345774D01*
X14458091Y-11345774D02*
X14439043Y-11336250D01*
X14439043Y-11336250D02*
X14400948Y-11336250D01*
X14400948Y-11336250D02*
X14381901Y-11345774D01*
X14467615Y-11460060D02*
X14448567Y-11469584D01*
X14448567Y-11469584D02*
X14400948Y-11469584D01*
X14400948Y-11469584D02*
X14381901Y-11460060D01*
X14381901Y-11460060D02*
X14372377Y-11441012D01*
X14372377Y-11441012D02*
X14372377Y-11421965D01*
X14372377Y-11421965D02*
X14381901Y-11402917D01*
X14381901Y-11402917D02*
X14400948Y-11393393D01*
X14400948Y-11393393D02*
X14448567Y-11393393D01*
X14448567Y-11393393D02*
X14467615Y-11383869D01*
X14562853Y-11336250D02*
X14562853Y-11536250D01*
X14562853Y-11345774D02*
X14581901Y-11336250D01*
X14581901Y-11336250D02*
X14619996Y-11336250D01*
X14619996Y-11336250D02*
X14639043Y-11345774D01*
X14639043Y-11345774D02*
X14648567Y-11355298D01*
X14648567Y-11355298D02*
X14658091Y-11374346D01*
X14658091Y-11374346D02*
X14658091Y-11431488D01*
X14658091Y-11431488D02*
X14648567Y-11450536D01*
X14648567Y-11450536D02*
X14639043Y-11460060D01*
X14639043Y-11460060D02*
X14619996Y-11469584D01*
X14619996Y-11469584D02*
X14581901Y-11469584D01*
X14581901Y-11469584D02*
X14562853Y-11460060D01*
X14743805Y-11450536D02*
X14753329Y-11460060D01*
X14753329Y-11460060D02*
X14743805Y-11469584D01*
X14743805Y-11469584D02*
X14734282Y-11460060D01*
X14734282Y-11460060D02*
X14743805Y-11450536D01*
X14743805Y-11450536D02*
X14743805Y-11469584D01*
X14743805Y-11345774D02*
X14753329Y-11355298D01*
X14753329Y-11355298D02*
X14743805Y-11364822D01*
X14743805Y-11364822D02*
X14734282Y-11355298D01*
X14734282Y-11355298D02*
X14743805Y-11345774D01*
X14743805Y-11345774D02*
X14743805Y-11364822D01*
X12911600Y-11698100D02*
X13111600Y-11898100D01*
X13111600Y-11698100D02*
X12911600Y-11898100D01*
X13353329Y-11689584D02*
X13477139Y-11689584D01*
X13477139Y-11689584D02*
X13410472Y-11765774D01*
X13410472Y-11765774D02*
X13439043Y-11765774D01*
X13439043Y-11765774D02*
X13458091Y-11775298D01*
X13458091Y-11775298D02*
X13467615Y-11784822D01*
X13467615Y-11784822D02*
X13477139Y-11803869D01*
X13477139Y-11803869D02*
X13477139Y-11851488D01*
X13477139Y-11851488D02*
X13467615Y-11870536D01*
X13467615Y-11870536D02*
X13458091Y-11880060D01*
X13458091Y-11880060D02*
X13439043Y-11889584D01*
X13439043Y-11889584D02*
X13381901Y-11889584D01*
X13381901Y-11889584D02*
X13362853Y-11880060D01*
X13362853Y-11880060D02*
X13353329Y-11870536D01*
X13562853Y-11870536D02*
X13572377Y-11880060D01*
X13572377Y-11880060D02*
X13562853Y-11889584D01*
X13562853Y-11889584D02*
X13553329Y-11880060D01*
X13553329Y-11880060D02*
X13562853Y-11870536D01*
X13562853Y-11870536D02*
X13562853Y-11889584D01*
X13639043Y-11689584D02*
X13762853Y-11689584D01*
X13762853Y-11689584D02*
X13696186Y-11765774D01*
X13696186Y-11765774D02*
X13724758Y-11765774D01*
X13724758Y-11765774D02*
X13743805Y-11775298D01*
X13743805Y-11775298D02*
X13753329Y-11784822D01*
X13753329Y-11784822D02*
X13762853Y-11803869D01*
X13762853Y-11803869D02*
X13762853Y-11851488D01*
X13762853Y-11851488D02*
X13753329Y-11870536D01*
X13753329Y-11870536D02*
X13743805Y-11880060D01*
X13743805Y-11880060D02*
X13724758Y-11889584D01*
X13724758Y-11889584D02*
X13667615Y-11889584D01*
X13667615Y-11889584D02*
X13648567Y-11880060D01*
X13648567Y-11880060D02*
X13639043Y-11870536D01*
X13886662Y-11689584D02*
X13905710Y-11689584D01*
X13905710Y-11689584D02*
X13924758Y-11699108D01*
X13924758Y-11699108D02*
X13934282Y-11708631D01*
X13934282Y-11708631D02*
X13943805Y-11727679D01*
X13943805Y-11727679D02*
X13953329Y-11765774D01*
X13953329Y-11765774D02*
X13953329Y-11813393D01*
X13953329Y-11813393D02*
X13943805Y-11851488D01*
X13943805Y-11851488D02*
X13934282Y-11870536D01*
X13934282Y-11870536D02*
X13924758Y-11880060D01*
X13924758Y-11880060D02*
X13905710Y-11889584D01*
X13905710Y-11889584D02*
X13886662Y-11889584D01*
X13886662Y-11889584D02*
X13867615Y-11880060D01*
X13867615Y-11880060D02*
X13858091Y-11870536D01*
X13858091Y-11870536D02*
X13848567Y-11851488D01*
X13848567Y-11851488D02*
X13839043Y-11813393D01*
X13839043Y-11813393D02*
X13839043Y-11765774D01*
X13839043Y-11765774D02*
X13848567Y-11727679D01*
X13848567Y-11727679D02*
X13858091Y-11708631D01*
X13858091Y-11708631D02*
X13867615Y-11699108D01*
X13867615Y-11699108D02*
X13886662Y-11689584D01*
X14077139Y-11689584D02*
X14096186Y-11689584D01*
X14096186Y-11689584D02*
X14115234Y-11699108D01*
X14115234Y-11699108D02*
X14124758Y-11708631D01*
X14124758Y-11708631D02*
X14134282Y-11727679D01*
X14134282Y-11727679D02*
X14143805Y-11765774D01*
X14143805Y-11765774D02*
X14143805Y-11813393D01*
X14143805Y-11813393D02*
X14134282Y-11851488D01*
X14134282Y-11851488D02*
X14124758Y-11870536D01*
X14124758Y-11870536D02*
X14115234Y-11880060D01*
X14115234Y-11880060D02*
X14096186Y-11889584D01*
X14096186Y-11889584D02*
X14077139Y-11889584D01*
X14077139Y-11889584D02*
X14058091Y-11880060D01*
X14058091Y-11880060D02*
X14048567Y-11870536D01*
X14048567Y-11870536D02*
X14039043Y-11851488D01*
X14039043Y-11851488D02*
X14029520Y-11813393D01*
X14029520Y-11813393D02*
X14029520Y-11765774D01*
X14029520Y-11765774D02*
X14039043Y-11727679D01*
X14039043Y-11727679D02*
X14048567Y-11708631D01*
X14048567Y-11708631D02*
X14058091Y-11699108D01*
X14058091Y-11699108D02*
X14077139Y-11689584D01*
X14229520Y-11889584D02*
X14229520Y-11756250D01*
X14229520Y-11775298D02*
X14239043Y-11765774D01*
X14239043Y-11765774D02*
X14258091Y-11756250D01*
X14258091Y-11756250D02*
X14286663Y-11756250D01*
X14286663Y-11756250D02*
X14305710Y-11765774D01*
X14305710Y-11765774D02*
X14315234Y-11784822D01*
X14315234Y-11784822D02*
X14315234Y-11889584D01*
X14315234Y-11784822D02*
X14324758Y-11765774D01*
X14324758Y-11765774D02*
X14343805Y-11756250D01*
X14343805Y-11756250D02*
X14372377Y-11756250D01*
X14372377Y-11756250D02*
X14391424Y-11765774D01*
X14391424Y-11765774D02*
X14400948Y-11784822D01*
X14400948Y-11784822D02*
X14400948Y-11889584D01*
X14496186Y-11889584D02*
X14496186Y-11756250D01*
X14496186Y-11775298D02*
X14505710Y-11765774D01*
X14505710Y-11765774D02*
X14524758Y-11756250D01*
X14524758Y-11756250D02*
X14553329Y-11756250D01*
X14553329Y-11756250D02*
X14572377Y-11765774D01*
X14572377Y-11765774D02*
X14581901Y-11784822D01*
X14581901Y-11784822D02*
X14581901Y-11889584D01*
X14581901Y-11784822D02*
X14591424Y-11765774D01*
X14591424Y-11765774D02*
X14610472Y-11756250D01*
X14610472Y-11756250D02*
X14639043Y-11756250D01*
X14639043Y-11756250D02*
X14658091Y-11765774D01*
X14658091Y-11765774D02*
X14667615Y-11784822D01*
X14667615Y-11784822D02*
X14667615Y-11889584D01*
X15058091Y-11680060D02*
X14886663Y-11937203D01*
X15315234Y-11689584D02*
X15334282Y-11689584D01*
X15334282Y-11689584D02*
X15353329Y-11699108D01*
X15353329Y-11699108D02*
X15362853Y-11708631D01*
X15362853Y-11708631D02*
X15372377Y-11727679D01*
X15372377Y-11727679D02*
X15381901Y-11765774D01*
X15381901Y-11765774D02*
X15381901Y-11813393D01*
X15381901Y-11813393D02*
X15372377Y-11851488D01*
X15372377Y-11851488D02*
X15362853Y-11870536D01*
X15362853Y-11870536D02*
X15353329Y-11880060D01*
X15353329Y-11880060D02*
X15334282Y-11889584D01*
X15334282Y-11889584D02*
X15315234Y-11889584D01*
X15315234Y-11889584D02*
X15296186Y-11880060D01*
X15296186Y-11880060D02*
X15286663Y-11870536D01*
X15286663Y-11870536D02*
X15277139Y-11851488D01*
X15277139Y-11851488D02*
X15267615Y-11813393D01*
X15267615Y-11813393D02*
X15267615Y-11765774D01*
X15267615Y-11765774D02*
X15277139Y-11727679D01*
X15277139Y-11727679D02*
X15286663Y-11708631D01*
X15286663Y-11708631D02*
X15296186Y-11699108D01*
X15296186Y-11699108D02*
X15315234Y-11689584D01*
X15467615Y-11870536D02*
X15477139Y-11880060D01*
X15477139Y-11880060D02*
X15467615Y-11889584D01*
X15467615Y-11889584D02*
X15458091Y-11880060D01*
X15458091Y-11880060D02*
X15467615Y-11870536D01*
X15467615Y-11870536D02*
X15467615Y-11889584D01*
X15667615Y-11889584D02*
X15553329Y-11889584D01*
X15610472Y-11889584D02*
X15610472Y-11689584D01*
X15610472Y-11689584D02*
X15591425Y-11718155D01*
X15591425Y-11718155D02*
X15572377Y-11737203D01*
X15572377Y-11737203D02*
X15553329Y-11746727D01*
X15743806Y-11708631D02*
X15753329Y-11699108D01*
X15753329Y-11699108D02*
X15772377Y-11689584D01*
X15772377Y-11689584D02*
X15819996Y-11689584D01*
X15819996Y-11689584D02*
X15839044Y-11699108D01*
X15839044Y-11699108D02*
X15848567Y-11708631D01*
X15848567Y-11708631D02*
X15858091Y-11727679D01*
X15858091Y-11727679D02*
X15858091Y-11746727D01*
X15858091Y-11746727D02*
X15848567Y-11775298D01*
X15848567Y-11775298D02*
X15734282Y-11889584D01*
X15734282Y-11889584D02*
X15858091Y-11889584D01*
X15953329Y-11889584D02*
X15991425Y-11889584D01*
X15991425Y-11889584D02*
X16010472Y-11880060D01*
X16010472Y-11880060D02*
X16019996Y-11870536D01*
X16019996Y-11870536D02*
X16039044Y-11841965D01*
X16039044Y-11841965D02*
X16048567Y-11803869D01*
X16048567Y-11803869D02*
X16048567Y-11727679D01*
X16048567Y-11727679D02*
X16039044Y-11708631D01*
X16039044Y-11708631D02*
X16029520Y-11699108D01*
X16029520Y-11699108D02*
X16010472Y-11689584D01*
X16010472Y-11689584D02*
X15972377Y-11689584D01*
X15972377Y-11689584D02*
X15953329Y-11699108D01*
X15953329Y-11699108D02*
X15943806Y-11708631D01*
X15943806Y-11708631D02*
X15934282Y-11727679D01*
X15934282Y-11727679D02*
X15934282Y-11775298D01*
X15934282Y-11775298D02*
X15943806Y-11794346D01*
X15943806Y-11794346D02*
X15953329Y-11803869D01*
X15953329Y-11803869D02*
X15972377Y-11813393D01*
X15972377Y-11813393D02*
X16010472Y-11813393D01*
X16010472Y-11813393D02*
X16029520Y-11803869D01*
X16029520Y-11803869D02*
X16039044Y-11794346D01*
X16039044Y-11794346D02*
X16048567Y-11775298D01*
X16143806Y-11889584D02*
X16181901Y-11889584D01*
X16181901Y-11889584D02*
X16200948Y-11880060D01*
X16200948Y-11880060D02*
X16210472Y-11870536D01*
X16210472Y-11870536D02*
X16229520Y-11841965D01*
X16229520Y-11841965D02*
X16239044Y-11803869D01*
X16239044Y-11803869D02*
X16239044Y-11727679D01*
X16239044Y-11727679D02*
X16229520Y-11708631D01*
X16229520Y-11708631D02*
X16219996Y-11699108D01*
X16219996Y-11699108D02*
X16200948Y-11689584D01*
X16200948Y-11689584D02*
X16162853Y-11689584D01*
X16162853Y-11689584D02*
X16143806Y-11699108D01*
X16143806Y-11699108D02*
X16134282Y-11708631D01*
X16134282Y-11708631D02*
X16124758Y-11727679D01*
X16124758Y-11727679D02*
X16124758Y-11775298D01*
X16124758Y-11775298D02*
X16134282Y-11794346D01*
X16134282Y-11794346D02*
X16143806Y-11803869D01*
X16143806Y-11803869D02*
X16162853Y-11813393D01*
X16162853Y-11813393D02*
X16200948Y-11813393D01*
X16200948Y-11813393D02*
X16219996Y-11803869D01*
X16219996Y-11803869D02*
X16229520Y-11794346D01*
X16229520Y-11794346D02*
X16239044Y-11775298D01*
X16315234Y-11689584D02*
X16315234Y-11727679D01*
X16391425Y-11689584D02*
X16391425Y-11727679D01*
X16686663Y-11965774D02*
X16677139Y-11956250D01*
X16677139Y-11956250D02*
X16658091Y-11927679D01*
X16658091Y-11927679D02*
X16648568Y-11908631D01*
X16648568Y-11908631D02*
X16639044Y-11880060D01*
X16639044Y-11880060D02*
X16629520Y-11832441D01*
X16629520Y-11832441D02*
X16629520Y-11794346D01*
X16629520Y-11794346D02*
X16639044Y-11746727D01*
X16639044Y-11746727D02*
X16648568Y-11718155D01*
X16648568Y-11718155D02*
X16658091Y-11699108D01*
X16658091Y-11699108D02*
X16677139Y-11670536D01*
X16677139Y-11670536D02*
X16686663Y-11661012D01*
X16753329Y-11708631D02*
X16762853Y-11699108D01*
X16762853Y-11699108D02*
X16781901Y-11689584D01*
X16781901Y-11689584D02*
X16829520Y-11689584D01*
X16829520Y-11689584D02*
X16848568Y-11699108D01*
X16848568Y-11699108D02*
X16858091Y-11708631D01*
X16858091Y-11708631D02*
X16867615Y-11727679D01*
X16867615Y-11727679D02*
X16867615Y-11746727D01*
X16867615Y-11746727D02*
X16858091Y-11775298D01*
X16858091Y-11775298D02*
X16743806Y-11889584D01*
X16743806Y-11889584D02*
X16867615Y-11889584D01*
X17105711Y-11889584D02*
X17105711Y-11689584D01*
X17191425Y-11889584D02*
X17191425Y-11784822D01*
X17191425Y-11784822D02*
X17181901Y-11765774D01*
X17181901Y-11765774D02*
X17162853Y-11756250D01*
X17162853Y-11756250D02*
X17134282Y-11756250D01*
X17134282Y-11756250D02*
X17115234Y-11765774D01*
X17115234Y-11765774D02*
X17105711Y-11775298D01*
X17315234Y-11889584D02*
X17296187Y-11880060D01*
X17296187Y-11880060D02*
X17286663Y-11870536D01*
X17286663Y-11870536D02*
X17277139Y-11851488D01*
X17277139Y-11851488D02*
X17277139Y-11794346D01*
X17277139Y-11794346D02*
X17286663Y-11775298D01*
X17286663Y-11775298D02*
X17296187Y-11765774D01*
X17296187Y-11765774D02*
X17315234Y-11756250D01*
X17315234Y-11756250D02*
X17343806Y-11756250D01*
X17343806Y-11756250D02*
X17362853Y-11765774D01*
X17362853Y-11765774D02*
X17372377Y-11775298D01*
X17372377Y-11775298D02*
X17381901Y-11794346D01*
X17381901Y-11794346D02*
X17381901Y-11851488D01*
X17381901Y-11851488D02*
X17372377Y-11870536D01*
X17372377Y-11870536D02*
X17362853Y-11880060D01*
X17362853Y-11880060D02*
X17343806Y-11889584D01*
X17343806Y-11889584D02*
X17315234Y-11889584D01*
X17496187Y-11889584D02*
X17477139Y-11880060D01*
X17477139Y-11880060D02*
X17467615Y-11861012D01*
X17467615Y-11861012D02*
X17467615Y-11689584D01*
X17648568Y-11880060D02*
X17629520Y-11889584D01*
X17629520Y-11889584D02*
X17591425Y-11889584D01*
X17591425Y-11889584D02*
X17572377Y-11880060D01*
X17572377Y-11880060D02*
X17562853Y-11861012D01*
X17562853Y-11861012D02*
X17562853Y-11784822D01*
X17562853Y-11784822D02*
X17572377Y-11765774D01*
X17572377Y-11765774D02*
X17591425Y-11756250D01*
X17591425Y-11756250D02*
X17629520Y-11756250D01*
X17629520Y-11756250D02*
X17648568Y-11765774D01*
X17648568Y-11765774D02*
X17658092Y-11784822D01*
X17658092Y-11784822D02*
X17658092Y-11803869D01*
X17658092Y-11803869D02*
X17562853Y-11822917D01*
X17734282Y-11880060D02*
X17753330Y-11889584D01*
X17753330Y-11889584D02*
X17791425Y-11889584D01*
X17791425Y-11889584D02*
X17810473Y-11880060D01*
X17810473Y-11880060D02*
X17819996Y-11861012D01*
X17819996Y-11861012D02*
X17819996Y-11851488D01*
X17819996Y-11851488D02*
X17810473Y-11832441D01*
X17810473Y-11832441D02*
X17791425Y-11822917D01*
X17791425Y-11822917D02*
X17762853Y-11822917D01*
X17762853Y-11822917D02*
X17743806Y-11813393D01*
X17743806Y-11813393D02*
X17734282Y-11794346D01*
X17734282Y-11794346D02*
X17734282Y-11784822D01*
X17734282Y-11784822D02*
X17743806Y-11765774D01*
X17743806Y-11765774D02*
X17762853Y-11756250D01*
X17762853Y-11756250D02*
X17791425Y-11756250D01*
X17791425Y-11756250D02*
X17810473Y-11765774D01*
X17886663Y-11965774D02*
X17896187Y-11956250D01*
X17896187Y-11956250D02*
X17915234Y-11927679D01*
X17915234Y-11927679D02*
X17924758Y-11908631D01*
X17924758Y-11908631D02*
X17934282Y-11880060D01*
X17934282Y-11880060D02*
X17943806Y-11832441D01*
X17943806Y-11832441D02*
X17943806Y-11794346D01*
X17943806Y-11794346D02*
X17934282Y-11746727D01*
X17934282Y-11746727D02*
X17924758Y-11718155D01*
X17924758Y-11718155D02*
X17915234Y-11699108D01*
X17915234Y-11699108D02*
X17896187Y-11670536D01*
X17896187Y-11670536D02*
X17886663Y-11661012D01*
X18248568Y-11965774D02*
X18239044Y-11956250D01*
X18239044Y-11956250D02*
X18219996Y-11927679D01*
X18219996Y-11927679D02*
X18210473Y-11908631D01*
X18210473Y-11908631D02*
X18200949Y-11880060D01*
X18200949Y-11880060D02*
X18191425Y-11832441D01*
X18191425Y-11832441D02*
X18191425Y-11794346D01*
X18191425Y-11794346D02*
X18200949Y-11746727D01*
X18200949Y-11746727D02*
X18210473Y-11718155D01*
X18210473Y-11718155D02*
X18219996Y-11699108D01*
X18219996Y-11699108D02*
X18239044Y-11670536D01*
X18239044Y-11670536D02*
X18248568Y-11661012D01*
X18324758Y-11756250D02*
X18324758Y-11889584D01*
X18324758Y-11775298D02*
X18334282Y-11765774D01*
X18334282Y-11765774D02*
X18353330Y-11756250D01*
X18353330Y-11756250D02*
X18381901Y-11756250D01*
X18381901Y-11756250D02*
X18400949Y-11765774D01*
X18400949Y-11765774D02*
X18410473Y-11784822D01*
X18410473Y-11784822D02*
X18410473Y-11889584D01*
X18534282Y-11889584D02*
X18515234Y-11880060D01*
X18515234Y-11880060D02*
X18505711Y-11870536D01*
X18505711Y-11870536D02*
X18496187Y-11851488D01*
X18496187Y-11851488D02*
X18496187Y-11794346D01*
X18496187Y-11794346D02*
X18505711Y-11775298D01*
X18505711Y-11775298D02*
X18515234Y-11765774D01*
X18515234Y-11765774D02*
X18534282Y-11756250D01*
X18534282Y-11756250D02*
X18562854Y-11756250D01*
X18562854Y-11756250D02*
X18581901Y-11765774D01*
X18581901Y-11765774D02*
X18591425Y-11775298D01*
X18591425Y-11775298D02*
X18600949Y-11794346D01*
X18600949Y-11794346D02*
X18600949Y-11851488D01*
X18600949Y-11851488D02*
X18591425Y-11870536D01*
X18591425Y-11870536D02*
X18581901Y-11880060D01*
X18581901Y-11880060D02*
X18562854Y-11889584D01*
X18562854Y-11889584D02*
X18534282Y-11889584D01*
X18658092Y-11756250D02*
X18734282Y-11756250D01*
X18686663Y-11689584D02*
X18686663Y-11861012D01*
X18686663Y-11861012D02*
X18696187Y-11880060D01*
X18696187Y-11880060D02*
X18715234Y-11889584D01*
X18715234Y-11889584D02*
X18734282Y-11889584D01*
X18953330Y-11756250D02*
X18953330Y-11956250D01*
X18953330Y-11765774D02*
X18972377Y-11756250D01*
X18972377Y-11756250D02*
X19010473Y-11756250D01*
X19010473Y-11756250D02*
X19029520Y-11765774D01*
X19029520Y-11765774D02*
X19039044Y-11775298D01*
X19039044Y-11775298D02*
X19048568Y-11794346D01*
X19048568Y-11794346D02*
X19048568Y-11851488D01*
X19048568Y-11851488D02*
X19039044Y-11870536D01*
X19039044Y-11870536D02*
X19029520Y-11880060D01*
X19029520Y-11880060D02*
X19010473Y-11889584D01*
X19010473Y-11889584D02*
X18972377Y-11889584D01*
X18972377Y-11889584D02*
X18953330Y-11880060D01*
X19162854Y-11889584D02*
X19143806Y-11880060D01*
X19143806Y-11880060D02*
X19134282Y-11861012D01*
X19134282Y-11861012D02*
X19134282Y-11689584D01*
X19324758Y-11889584D02*
X19324758Y-11784822D01*
X19324758Y-11784822D02*
X19315235Y-11765774D01*
X19315235Y-11765774D02*
X19296187Y-11756250D01*
X19296187Y-11756250D02*
X19258092Y-11756250D01*
X19258092Y-11756250D02*
X19239044Y-11765774D01*
X19324758Y-11880060D02*
X19305711Y-11889584D01*
X19305711Y-11889584D02*
X19258092Y-11889584D01*
X19258092Y-11889584D02*
X19239044Y-11880060D01*
X19239044Y-11880060D02*
X19229520Y-11861012D01*
X19229520Y-11861012D02*
X19229520Y-11841965D01*
X19229520Y-11841965D02*
X19239044Y-11822917D01*
X19239044Y-11822917D02*
X19258092Y-11813393D01*
X19258092Y-11813393D02*
X19305711Y-11813393D01*
X19305711Y-11813393D02*
X19324758Y-11803869D01*
X19391425Y-11756250D02*
X19467615Y-11756250D01*
X19419996Y-11689584D02*
X19419996Y-11861012D01*
X19419996Y-11861012D02*
X19429520Y-11880060D01*
X19429520Y-11880060D02*
X19448568Y-11889584D01*
X19448568Y-11889584D02*
X19467615Y-11889584D01*
X19610473Y-11880060D02*
X19591425Y-11889584D01*
X19591425Y-11889584D02*
X19553330Y-11889584D01*
X19553330Y-11889584D02*
X19534282Y-11880060D01*
X19534282Y-11880060D02*
X19524758Y-11861012D01*
X19524758Y-11861012D02*
X19524758Y-11784822D01*
X19524758Y-11784822D02*
X19534282Y-11765774D01*
X19534282Y-11765774D02*
X19553330Y-11756250D01*
X19553330Y-11756250D02*
X19591425Y-11756250D01*
X19591425Y-11756250D02*
X19610473Y-11765774D01*
X19610473Y-11765774D02*
X19619996Y-11784822D01*
X19619996Y-11784822D02*
X19619996Y-11803869D01*
X19619996Y-11803869D02*
X19524758Y-11822917D01*
X19791425Y-11889584D02*
X19791425Y-11689584D01*
X19791425Y-11880060D02*
X19772377Y-11889584D01*
X19772377Y-11889584D02*
X19734282Y-11889584D01*
X19734282Y-11889584D02*
X19715235Y-11880060D01*
X19715235Y-11880060D02*
X19705711Y-11870536D01*
X19705711Y-11870536D02*
X19696187Y-11851488D01*
X19696187Y-11851488D02*
X19696187Y-11794346D01*
X19696187Y-11794346D02*
X19705711Y-11775298D01*
X19705711Y-11775298D02*
X19715235Y-11765774D01*
X19715235Y-11765774D02*
X19734282Y-11756250D01*
X19734282Y-11756250D02*
X19772377Y-11756250D01*
X19772377Y-11756250D02*
X19791425Y-11765774D01*
X19867616Y-11965774D02*
X19877139Y-11956250D01*
X19877139Y-11956250D02*
X19896187Y-11927679D01*
X19896187Y-11927679D02*
X19905711Y-11908631D01*
X19905711Y-11908631D02*
X19915235Y-11880060D01*
X19915235Y-11880060D02*
X19924758Y-11832441D01*
X19924758Y-11832441D02*
X19924758Y-11794346D01*
X19924758Y-11794346D02*
X19915235Y-11746727D01*
X19915235Y-11746727D02*
X19905711Y-11718155D01*
X19905711Y-11718155D02*
X19896187Y-11699108D01*
X19896187Y-11699108D02*
X19877139Y-11670536D01*
X19877139Y-11670536D02*
X19867616Y-11661012D01*
M02*
