M48
; DRILL file {KiCad 7.0.9} date Sat Dec 23 15:59:38 2023
; FORMAT={-:-/ absolute / metric / decimal}
; #@! TF.CreationDate,2023-12-23T15:59:38+01:00
; #@! TF.GenerationSoftware,Kicad,Pcbnew,7.0.9
; #@! TF.FileFunction,Plated,1,2,PTH
FMAT,2
METRIC
; #@! TA.AperFunction,Plated,PTH,ViaDrill
T1C0.400
; #@! TA.AperFunction,Plated,PTH,ComponentDrill
T2C0.800
; #@! TA.AperFunction,Plated,PTH,ComponentDrill
T3C1.200
; #@! TA.AperFunction,Plated,PTH,ComponentDrill
T4C3.000
%
G90
G05
T1
X140.081Y-90.932
X142.621Y-100.076
X143.891Y-79.121
X146.812Y-82.042
X152.781Y-76.581
X155.321Y-100.711
X157.226Y-96.901
X168.656Y-76.581
T2
X157.861Y-83.946
X157.861Y-86.486
X157.861Y-89.026
X157.861Y-91.566
X160.401Y-85.216
X160.401Y-87.756
X160.401Y-90.296
X160.401Y-92.836
T3
X134.366Y-75.946
X134.366Y-81.026
X134.366Y-86.106
X134.366Y-90.932
X134.366Y-96.012
X134.366Y-101.092
X142.748Y-70.866
X142.748Y-105.791
X147.828Y-70.866
X147.828Y-105.791
X152.908Y-70.866
X152.908Y-105.791
X157.734Y-70.866
X157.734Y-105.791
X162.814Y-70.866
X162.814Y-105.791
X167.894Y-70.866
X167.894Y-105.791
T4
X135.636Y-69.596
X135.636Y-107.696
X175.006Y-69.596
X175.006Y-107.696
T0
M30
